<svg version="1.1" xmlns="http://www.w3.org/2000/svg" xmlns:xlink="http://www.w3.org/1999/xlink" width="29.51752" height="24.95618" viewBox="0,0,29.51752,24.95618"><g transform="translate(-225.24123,-179.95405)"><g stroke="none" stroke-width="0" stroke-miterlimit="10"><path d="M225.24124,190.15147c0,-3.66755 1.33776,-7.02265 3.55194,-9.60396c0.15353,-0.17899 0.47308,-0.52565 0.47308,-0.52565l21.30363,-0.06779c0,0 0.32355,0.34618 0.47962,0.52501c2.26067,2.59032 3.70924,5.97235 3.70924,9.67239c0,8.15104 -6.60772,14.75876 -14.75876,14.75876c-8.15104,0 -14.75876,-6.60772 -14.75876,-14.75876z" fill="#ffe9e9"/><path d="M229.25744,188.11967c0,-2.93681 0.97373,-5.62341 2.58538,-7.69041c0.11175,-0.14332 0.34434,-0.42092 0.34434,-0.42092l15.50643,-0.05429c0,0 0.23551,0.27721 0.34911,0.42041c1.64549,2.07421 2.69987,4.78238 2.69987,7.7452c0,6.52696 -4.80961,11.81812 -10.74256,11.81812c-5.93295,0 -10.74256,-5.29116 -10.74256,-11.81812z" fill="#ff0000"/></g></g></svg>