<svg version="1.1" xmlns="http://www.w3.org/2000/svg" xmlns:xlink="http://www.w3.org/1999/xlink" width="98.14853" height="115.41161" viewBox="0,0,98.14853,115.41161"><g transform="translate(-221.46467,-107.10765)"><g stroke-miterlimit="10"><g fill-rule="evenodd" stroke="#000000"><path d="M263.01928,201.08629c1.21893,-3.2302 -1.31237,-10.32123 -0.65446,-11.11314c0.54117,-0.71214 1.74027,-2.21622 4.63731,0.7716c2.89705,2.98783 2.30788,9.89817 2.15981,10.68436c-0.4755,3.06494 -1.1788,6.79928 -3.33197,10.6676c-6.18891,11.24889 -19.0811,8.92256 -20.42298,4.70127c-1.3604,-4.12303 6.9143,-4.29449 12.7476,-8.79255c2.60619,-1.95135 3.92911,-4.65319 4.86467,-6.91917z" fill="#7e5765" stroke-width="1.2" stroke-linecap="round" stroke-linejoin="round"/><path d="M245.71458,216.24535c-0.02293,-2.03946 1.54372,-2.25321 4.10011,-3.39987c2.94949,-1.07262 7.25758,-3.41575 7.25758,-3.41575c0,0 -1.56925,3.4695 -0.2873,5.84786c0.9629,1.91123 3.19894,1.92535 3.92385,1.85835c-1.51815,1.03693 -3.5832,2.27613 -7.2078,2.61105c-3.62463,0.33494 -7.56696,-1.42515 -7.78642,-3.50163z" fill="#6f6fca" stroke-width="0" stroke-linecap="butt" stroke-linejoin="miter"/></g><g fill-rule="nonzero" stroke="#000000" stroke-width="1.2" stroke-linejoin="miter"><path d="M262.13894,174.61942c2.64503,0.2116 4.76166,2.71801 4.72759,5.59822c-0.00773,0.65422 -0.12577,1.27143 -0.33457,1.83224c0.25998,1.98877 -3.49706,3.19188 -4.58274,4.16118c-4.08237,3.64476 -7.43825,4.56779 -13.6042,3.59129c-2.51971,-0.39906 -4.77042,-1.97687 -4.72759,-5.59822c0.01532,-1.29545 0.27871,-2.249 0.71898,-2.95074c1.89587,-3.02183 7.0717,-1.37379 9.84269,-2.24698c1.82984,-0.57662 6.49294,-5.90605 7.95986,-4.38699z" fill="#7e5765" stroke-linecap="butt"/><g><path d="M238.21755,178.84852c-1.15507,4.70256 -5.64629,7.25983 -10.03144,5.71182c-4.38515,-1.54802 -7.00365,-6.61511 -5.8486,-11.31767c1.15507,-4.70256 5.64629,-7.25983 10.03145,-5.71181c4.38515,1.54802 7.00365,6.6151 5.8486,11.31767z" fill="#323388" stroke-linecap="butt"/><g stroke-linecap="round"><path d="M238.99603,173.5715l4.08772,-1.88808l1.85527,1.58024l4.12881,1.45751l-0.44383,3.91465z" fill="#7e5765"/><path d="M234.18944,175.57593l5.1412,-3.36681l3.60208,2.19689l1.47103,0.33422l3.28447,2.08477l1.03646,-0.00424l2.68259,2.42747l-0.91244,6.52514l-4.28057,4.78097l-12.00999,-5.90522z" fill="#7e5765"/><path d="M239.47166,177.25557l2.72514,-1.25873" fill="none"/><path d="M246.87716,178.0192l-3.25189,1.99808" fill="none"/></g><path d="M249.14999,181.41237l3.4851,1.97053l0.03256,4.08284l-2.97612,2.28048l-2.69109,-1.69025l-0.66779,-4.30707z" fill="#323388" stroke-linecap="round"/></g></g><g fill-rule="nonzero" stroke-linejoin="miter"><path d="M235.96432,181.31026c5.52322,0.53298 5.85687,7.45137 5.85687,7.45137c0,0 9.43067,-5.24772 14.29619,-6.06225c-0.85266,-2.7818 -1.12654,-5.64329 -0.40787,-8.52956c1.02892,-4.13221 6.51037,-9.48324 11.77258,-9.54069c0.31097,-0.07234 0.63649,-0.09049 0.95957,-0.04915c2.54126,-0.21924 5.51432,1.68487 7.38444,3.58356c0.31306,0.27129 0.62266,0.54986 0.92945,0.82865c5.90826,5.36922 5.70752,11.85818 3.00794,18.54072c-0.27493,0.68059 -0.77181,2.23125 -1.46093,3.66886c3.18479,2.39124 2.9012,7.40388 1.71254,10.17627c2.67595,2.03624 7.35983,5.13632 7.80914,6.67774c0.64984,2.22933 -3.92491,7.51612 -5.33904,8.99241c-2.17331,2.26884 -6.55252,4.79122 -6.55252,4.79122l-11.68907,-5.76837l-1.63897,-22.51485c0,0 -14.30589,4.0345 -22.68849,8.25481c-3.83729,1.93193 -8.90591,3.28052 -10.73613,-0.41664c-1.69177,-3.41747 -5.37013,-12.12692 -5.6877,-15.88611c0,0 6.94877,-4.73097 12.472,-4.19802z" fill="#7e5765" stroke="#000000" stroke-width="1.2" stroke-linecap="butt"/><path d="M261.12806,185.70888c-1.90336,-3.0617 -3.9079,-5.8543 -2.96764,-9.63043c1.49853,-6.01815 9.38897,-4.22899 12.33371,-0.4524c4.75062,6.09264 -4.69318,16.96464 -9.00951,10.42475z" fill="#6f6fca" stroke="none" stroke-width="0.5" stroke-linecap="butt"/><path d="M269.64258,206.34173c2.87816,-5.9458 4.41749,-6.43359 4.41749,-6.43359c0,0 2.41665,-0.62828 5.99568,1.54073" fill="none" stroke="#000000" stroke-width="1.2" stroke-linecap="round"/></g><path d="M279.93015,173.43826c0.59375,-0.14841 1.19499,-0.23379 1.77064,-0.25184c0.87767,-0.02755 1.46697,0.38848 1.80653,1.02606c1.78341,0.5194 2.52925,3.66083 3.60015,4.58516c7.5326,6.50157 2.65473,9.10737 -4.74626,14.39772c-3.22802,2.30745 -6.08695,4.41001 -9.53859,6.1156c-1.77157,0.87541 -7.95697,1.9034 -7.84148,-0.46014c-0.0142,-0.01965 -0.02802,-0.03949 -0.04145,-0.05948c-0.17835,-0.1656 -0.36069,-0.35474 -0.54714,-0.56909c-2.32191,-2.66951 0.57421,-7.30638 4.51846,-9.25539c1.41273,-0.69809 3.54612,-1.95785 5.05881,-2.1558c0.36121,-0.04727 3.65577,-0.95606 3.58261,-1.08245c-1.32317,-2.28579 -3.07536,-3.99524 -2.99926,-6.39361" fill="#7e5765" fill-rule="nonzero" stroke="#000000" stroke-width="1.2" stroke-linecap="butt" stroke-linejoin="miter"/><g><g><g stroke="#000000"><path d="M252.67657,135.16181c0,0 -2.13338,-27.5075 -1.0572,-27.45409c1.4498,0.07195 26.37414,12.01372 26.37414,12.01372" fill="#7e5765" fill-rule="nonzero" stroke-width="1.2" stroke-linecap="round" stroke-linejoin="miter"/><path d="M306.95937,140.7215l11.93205,15.63798l-3.13365,5.3198l-30.33314,-2.16803z" fill="#4a3e7c" fill-rule="nonzero" stroke-width="1.2" stroke-linecap="round" stroke-linejoin="miter"/><path d="M241.62378,154.12395c0,0 -7.19399,0.31071 -12.10303,-3.21513" fill="none" fill-rule="evenodd" stroke-width="1.2" stroke-linecap="round" stroke-linejoin="round"/><path d="M241.56083,160.03719c0,0 -3.78531,2.11929 -10.10359,1.97933" fill="none" fill-rule="evenodd" stroke-width="1.2" stroke-linecap="round" stroke-linejoin="round"/><path d="M269.96979,126.06201c11.21575,-2.10914 40.9847,6.45261 33.46609,33.37582c-0.09802,0.35099 -0.27612,0.67493 -0.45241,0.99766c-6.43844,11.78628 -21.22307,17.73899 -40.20344,15.11698c-18.98038,-2.622 -23.98904,-13.15356 -23.116,-18.91269c0.87304,-5.75916 7.84174,-8.26057 7.84174,-8.26057c0,0 -0.15677,-4.49837 2.72443,-10.1719c0,0 3.3531,-9.06376 19.73961,-12.14528z" fill="#7e5765" fill-rule="evenodd" stroke-width="1.2" stroke-linecap="butt" stroke-linejoin="miter"/><path d="M264.58065,152.71267c8.42053,0.12007 19.38296,-9.62086 26.68218,0.67969c7.29352,10.20072 -3.36668,25.23302 -27.81244,21.62104c-18.775,-2.53357 -24.15451,-12.54313 -23.28147,-18.30227c0.87304,-5.75916 7.65916,-7.94965 7.65916,-7.94965c8.37782,-2.38159 9.53576,3.86257 16.75255,3.9512z" fill="#6f6fca" fill-rule="evenodd" stroke-width="0" stroke-linecap="butt" stroke-linejoin="miter"/><path d="M269.49837,151.12968c0.09124,1.59739 -3.9594,4.33281 -5.76787,4.23577c-1.6031,-0.00862 -3.26031,-2.71851 -3.24029,-4.12194c0.05992,-0.70457 2.24496,-1.02968 4.34153,-1.14942c1.99675,-0.11403 4.69805,-0.16816 4.66665,1.03559z" fill="#000000" fill-rule="evenodd" stroke-width="1.2" stroke-linecap="round" stroke-linejoin="round"/><path d="M300.30146,150.14387c-3.55654,4.88684 -10.48539,6.84666 -10.48539,6.84666" fill="none" fill-rule="evenodd" stroke-width="1.2" stroke-linecap="round" stroke-linejoin="round"/><path d="M301.94408,161.29876c-5.95603,2.11329 -10.21484,1.28727 -10.21484,1.28727" fill="none" fill-rule="evenodd" stroke-width="1.2" stroke-linecap="round" stroke-linejoin="round"/><path d="M294.53642,138.29862l-43.54825,-2.65893l2.42221,-22.67186l48.04832,3.90364l11.78007,19.24033l-7.92961,15.29971z" fill="#5d4262" fill-rule="nonzero" stroke-width="1.2" stroke-linecap="round" stroke-linejoin="miter"/><path d="M294.55596,138.09959l6.68422,-21.04855" fill="none" fill-rule="nonzero" stroke-width="0.75" stroke-linecap="round" stroke-linejoin="miter"/><path d="M306.63058,125.61746l-4.81277,-8.30889c0,0 15.63913,-2.21785 16.65338,-1.78468c1.1366,0.48544 -13.34221,25.42017 -13.34221,25.42017z" fill="#7e5765" fill-rule="nonzero" stroke-width="1.2" stroke-linecap="round" stroke-linejoin="miter"/></g><g fill="none" fill-rule="nonzero" stroke="none" stroke-width="1" stroke-linecap="butt" stroke-linejoin="miter" font-family="sans-serif" font-weight="normal" font-size="12" text-anchor="start"><g/><g/><g/></g></g><g fill-rule="nonzero" stroke="#000000" stroke-width="1.2" stroke-linejoin="miter"><path d="M296.58095,151.54912c-1.78466,6.10916 -8.93689,9.39486 -15.97493,7.33885c-7.03805,-2.05602 -11.29672,-8.67523 -9.51206,-14.78438c1.78466,-6.10916 8.93689,-9.39487 15.97492,-7.33883c7.03805,2.05602 11.29672,8.67523 9.51206,14.78439z" fill="#6f6fca" stroke-linecap="butt"/><path d="M280.34276,160.68822c0,0 -5.9769,-1.27716 -9.83213,-7.46386" fill="none" stroke-linecap="round"/><path d="M295.77121,156.64725c-1.20156,1.6288 -3.80307,2.87767 -3.80307,2.87767" fill="none" stroke-linecap="round"/></g><g fill-rule="nonzero" stroke="#000000" stroke-width="1.2" stroke-linejoin="miter"><path d="M254.49828,133.58474c4.88579,-1.21064 8.9835,2.87267 9.15245,9.12034c0.16897,6.24768 -3.65479,12.29382 -8.5406,13.50445c-4.88579,1.21064 -8.9835,-2.87267 -9.15246,-9.12033c-0.16897,-6.24768 3.65478,-12.29382 8.54059,-13.50446z" fill="#6f6fca" stroke-linecap="butt"/><path d="M262.55638,151.78963c-3.49292,5.66572 -7.5664,6.2303 -7.5664,6.2303" fill="none" stroke-linecap="round"/><path d="M247.6554,155.51241c0,0 -1.48179,-1.5384 -1.99645,-3.28887" fill="none" stroke-linecap="round"/></g></g><path d="M255.23231,162.58353l23.35359,1.09639l-0.27047,17.09459l-21.84088,-4.55386z" fill="#6f6fca" fill-rule="nonzero" stroke="#000000" stroke-width="1.2" stroke-linecap="round" stroke-linejoin="miter"/></g></g></svg>