<svg version="1.1" xmlns="http://www.w3.org/2000/svg" xmlns:xlink="http://www.w3.org/1999/xlink" width="114.10112" height="126.25663" viewBox="0,0,114.10112,126.25663"><g transform="translate(-181.65961,-114.46557)"><g stroke-miterlimit="10"><path d="M246.80888,209.22465c0.10687,-0.01598 0.22184,-0.02214 0.34422,-0.01903c0.11297,-0.00868 0.22753,-0.01311 0.34341,-0.01311c1.14761,0 2.16543,0.43551 2.79914,1.10717c4.07563,2.18141 9.43221,7.03251 8.8627,9.04123c-0.80248,2.83048 -4.52343,3.87921 -7.46797,1.99589c-1.51879,-0.97141 -1.54138,-1.81414 -2.75267,-2.92931c-0.80115,-0.73757 -3.82116,-3.74221 -4.06475,-4.69687c-0.53287,-0.47912 -0.8556,-1.10558 -0.8556,-1.79111c0,-1.20348 0.99462,-2.22487 2.37472,-2.58673c0.12906,-0.049 0.26743,-0.08579 0.4168,-0.10812z" fill="#9a8479" stroke="#000000" stroke-width="1.2" stroke-linecap="butt"/><g fill="#9a8479" stroke="#000000" stroke-width="1.2" stroke-linecap="butt"><path d="M241.54023,225.86813c-1.13477,-5.50992 3.42255,-8.46583 7.11059,-5.61694c1.8681,1.44305 3.55312,11.71722 3.68264,14.54715c0.30622,6.69096 -14.81902,3.38034 -10.79323,-3.9499z"/><path d="M235.07886,206.60956v0v0v0v0v0v0c7.29239,-2.15619 11.32242,1.85873 11.32055,1.8582c0.91226,1.06364 2.09693,2.5856 2.80375,4.05288c0.19507,0.40534 0.37067,0.8705 0.51526,1.37851c0,0 0.41236,1.78313 0.38991,2.35819c-0.09489,2.40933 -0.56097,5.12162 -2.91477,6.79155c-3.69359,2.6293 -8.16559,3.32607 -13.35262,1.94958c-1.7499,-0.46227 -3.01047,-1.60646 -3.89631,-3.02266c-0.63451,-1.01983 -1.15196,-2.41366 -1.15196,-2.41366c-0.82708,-2.32547 -1.03321,-4.71995 -1.08469,-5.76916c0,0 0.0794,-5.0275 7.3709,-7.18343z"/><path d="M238.62771,224.97766c0.65757,3.81493 0.60666,10.14797 0.36469,12.24506c-0.76718,6.64898 -15.14342,0.65127 -10.00513,-5.84427l0.79566,-4.90785c-0.07958,-1.88426 0.42241,-3.372 1.24481,-4.38781"/></g><g><g stroke="#000000" stroke-width="1.2"><path d="M279.82207,158.90706c0,0 12.71054,-10.49655 14.87797,-2.66649c2.1675,7.82996 -3.4312,17.69301 -14.30948,27.10747c0,0 1.23866,-14.05496 -0.5685,-24.44098zM279.82207,158.90706c-0.12542,-1.22263 -0.66431,-3.53543 -0.66431,-3.53543M279.96618,185.55607l0.29263,-2.28099" fill="#9a8479" stroke-linecap="round"/><path d="M280.25886,183.27419c0.25414,-2.60518 0.56027,-6.88525 0.52821,-12.19471c-0.01623,-3.09031 -0.2498,-6.25971 -0.52707,-8.99073l0.00102,0.00348c7.22619,-3.11158 12.83714,5.49728 12.83714,5.49728l0.00256,-0.00022c-4.11267,8.5007 -12.7691,15.45331 -12.7691,15.45331l-0.07278,0.23158v0v0v0v0z" fill="#ee4036" stroke-linecap="butt"/><path d="M196.28585,186.67539v0v0v0v0v0v0c-0.04171,-0.08622 -1.26656,-2.51252 -1.26648,-2.51352c-3.4154,-6.47895 -3.26015,-20.56387 -2.60878,-24.91629l0.04485,-0.20751c2.43522,-18.47179 11.77638,-27.7509 17.24928,-32.62384c12.42275,-11.06838 29.98655,-10.28836 29.98655,-10.28836l-0.24736,12.08672c0,0 0.21646,-3.4657 7.70501,-9.0118c7.48674,-5.54623 17.84857,-3.90984 17.84857,-3.90984l-6.62063,14.69132c0,0 3.60023,-4.4653 6.39676,-5.99029c4.95766,-2.69858 8.87002,-1.10311 8.87002,-1.10311l-1.77942,9.27994c0,0 6.39258,9.65042 11.17034,18.62996c1.02282,1.91613 2.22754,3.86806 2.92242,6.06352c2.52744,7.97707 1.97625,21.8299 -1.97767,28.42597c-0.685,1.16805 -1.42062,2.29716 -2.17915,3.40467c-0.19696,0.28426 -0.39469,0.56668 -0.59485,0.8453c-0.69172,0.97217 -1.40904,1.92252 -2.15747,2.83996c-0.10104,0.12205 -0.19468,0.25276 -0.29573,0.3749c-0.84724,1.0197 -1.73382,1.99675 -2.65084,2.94274c-0.2191,0.22843 -0.44848,0.44791 -0.67204,0.67421c-0.78368,0.77924 -1.59182,1.53317 -2.41747,2.25505c-0.19045,0.16904 -0.37659,0.341 -0.56839,0.50352c-0.99158,0.83844 -2.01871,1.63172 -3.07196,2.3842c-0.23447,0.16496 -0.47375,0.32136 -0.70985,0.48249c-0.88246,0.60569 -1.7907,1.17965 -2.71654,1.72245c-0.26719,0.15438 -0.52876,0.31818 -0.79749,0.46885c-1.12857,0.63045 -2.28016,1.21584 -3.46412,1.74814c-0.21136,0.09605 -0.4344,0.17761 -0.64828,0.26987c-1.0105,0.43634 -2.04063,0.83057 -3.08984,1.18902c-4.43808,1.51509 -9.20005,2.36645 -14.24731,2.36609c-5.76828,-0.00083 -10.95066,-0.54923 -15.59905,-1.49945c-1.14938,-0.23488 -2.2651,-0.49713 -3.34965,-0.77886c-0.20581,-0.05735 -0.41085,-0.11284 -0.6149,-0.16826c-1.09857,-0.2999 -2.17534,-0.61447 -3.2055,-0.95926c-0.00615,-0.00225 -0.0141,-0.00463 -0.02116,-0.00695c-1.03227,-0.34213 -2.02159,-0.71377 -2.98618,-1.10175c-0.16889,-0.06733 -0.34228,-0.13497 -0.5102,-0.20322c-0.92635,-0.37881 -1.82691,-0.77753 -2.69262,-1.19358c-0.15242,-0.07065 -0.29875,-0.14908 -0.45004,-0.22145c-0.85395,-0.41801 -1.68511,-0.84881 -2.4797,-1.29863c-0.03022,-0.02022 -0.06448,-0.03453 -0.09393,-0.05289c-0.81344,-0.46382 -1.58788,-0.94296 -2.33897,-1.43045c-0.14009,-0.09142 -0.2793,-0.18106 -0.41559,-0.2723c-0.72172,-0.48166 -1.41945,-0.97072 -2.0819,-1.47066c-0.10136,-0.07519 -0.19712,-0.15267 -0.29753,-0.22859c-0.62837,-0.48305 -1.23457,-0.97363 -1.81217,-1.47117c-0.05982,-0.04773 -0.12582,-0.09861 -0.18273,-0.15063c-0.60199,-0.52366 -1.16799,-1.05565 -1.71219,-1.58958c-0.10579,-0.10267 -0.20963,-0.20601 -0.31083,-0.30826c-0.52973,-0.53299 -1.03786,-1.06521 -1.51283,-1.60689c-0.05448,-0.05917 -0.10344,-0.12145 -0.15696,-0.18135c-0.44705,-0.51438 -0.86943,-1.0305 -1.26665,-1.54491c-0.05529,-0.07446 -0.11877,-0.14782 -0.17509,-0.22057c-0.40619,-0.54032 -1.27614,-1.8151 -1.34301,-1.91668c-0.34847,-0.53706 -0.67915,-1.07193 -0.97482,-1.60157c-0.01837,-0.033 -0.03595,-0.06596 -0.05254,-0.09873c-0.28356,-0.50982 -0.53883,-1.01027 -0.77536,-1.50768z" fill="#9a8479" stroke-linecap="butt"/><path d="M269.98032,164.78557v0v0v0v0v0v0c0,0 8.94614,12.56246 5.0305,24.6424c-3.91368,12.07636 -22.379,15.98063 -36.21074,14.04337c-18.28482,-2.5623 -25.95873,-14.88472 -22.12925,-25.84024c3.83369,-10.95522 28.53582,-14.42412 28.53582,-14.42412l-4.57349,7.73977c0,0 3.18402,-0.29313 5.83769,-1.6647c2.65271,-1.36883 5.58846,-3.2383 5.58846,-3.2383l-6.4564,8.40265c0,0 7.69331,0.4662 14.55529,-1.90424c6.86173,-2.36686 9.82213,-7.75657 9.82213,-7.75657z" fill="#e6e7e8" stroke-linecap="butt"/><path d="M200.77529,185.38976c-13.61766,-6.58982 -20.63857,-14.6792 -17.94806,-22.4509c2.69146,-7.77243 18.60208,-0.54333 18.60208,-0.54333c-2.23429,10.09012 -0.65401,22.99423 -0.65401,22.99423zM202.25221,158.95101c0,0 -0.66887,2.27347 -0.82201,3.44459M200.93977,185.29304l0.37141,2.07629" fill="#9a8479" stroke-linecap="round"/><path d="M200.8484,185.09205c0,0 -10.83569,-4.74032 -15.9959,-11.85623l0.00275,-0.0007c0,0 6.99319,-9.20421 16.03221,-7.76819l0.0011,-0.00263c-0.34036,2.61199 -0.62478,5.62683 -0.63727,8.52213c-0.02778,4.9771 0.36465,8.92084 0.68847,11.30661z" fill="#ee4036" stroke-linecap="butt"/></g><path d="M236.90643,200.53072c-10.71509,-2.36376 -0.72615,-13.67277 -0.72615,-13.67277c0,0 6.98553,0.87096 10.59559,1.88146c3.88169,1.08654 11.93881,4.42621 11.93881,4.42621c0,0 -12.88197,9.33424 -21.80825,7.36509z" fill="#706d6d" stroke="#231f20" stroke-width="1.2" stroke-linecap="round"/><path d="M243.29404,182.47841c-0.63334,1.35974 -1.99307,0.7264 -1.99307,0.7264l-0.74868,-0.43363c-2.22273,-2.14357 -3.97379,-2.32563 -6.77906,-1.19596c0,0 -1.39493,0.55152 -1.94645,-0.8434c-0.55152,-1.39493 0.8434,-1.94645 0.8434,-1.94645c3.92268,-1.5272 6.82753,-1.09727 9.94377,1.80645l-0.04629,-0.10648c0,0 1.35974,0.63334 0.7264,1.99307z" fill="#231f20" stroke="none" stroke-width="0.5" stroke-linecap="butt"/><path d="M261.07237,184.56242c-0.44867,-1.43132 0.98265,-1.88 0.98265,-1.88l-0.05991,0.09945c3.47164,-2.46784 6.40781,-2.51131 10.09509,-0.48061c0,0 1.3101,0.7305 0.5796,2.0406c-0.7305,1.3101 -2.0406,0.5796 -2.0406,0.5796c-2.63198,-1.48942 -4.39177,-1.53964 -6.87754,0.29239l-0.79929,0.33121c0,0 -1.43132,0.44867 -1.88,-0.98265z" fill="#231f20" stroke="none" stroke-width="0.5" stroke-linecap="butt"/></g><g stroke="#000000" stroke-width="1.2"><path d="M218.91324,213.86734c1.30414,-2.89159 4.281,-1.39278 4.281,-1.39278l0.96475,0.48573c0.85964,1.28349 0.22446,0.79744 0.74699,-1.18469c0,0 1.00146,-3.02637 4.0933,-1.82272c3.09186,1.20365 2.09041,4.23002 2.09041,4.23002c-1.04269,2.83897 -1.33519,5.4801 -5.29436,6.1246c-1.44138,0.23463 -2.82975,-1.04269 -4.24463,-1.56404l-0.96475,-0.48573c0,0 -2.97686,-1.4988 -1.67274,-4.39038z" fill="#9a8479" stroke-linecap="butt"/><g><path d="M224.04487,202.25647c2.36538,-1.468 5.59835,-0.65452 7.22104,1.81698c1.62268,2.47149 1.02062,5.66509 -1.34476,7.13309c-2.36538,1.468 -5.59835,0.65452 -7.22104,-1.81698c-1.62268,-2.47149 -1.02062,-5.66509 1.34476,-7.13309z" fill="#5c5e5f" stroke-linecap="butt"/><path d="M227.54789,213.14599l0.44475,2.63766l-1.65252,0.91353l-1.48243,2.15274l-1.86425,-1.53256" fill="#9a8479" stroke-linecap="round"/><path d="M226.20867,208.78191l1.73193,4.03426l-4.522,5.68034l-4.52944,-0.38214l-2.4515,-3.26836l4.87548,-6.53836z" fill="#9a8479" stroke-linecap="round"/><path d="M226.28501,214.39631l-1.16688,-2.23066" fill="none" stroke-linecap="round"/><path d="M224.18843,217.09718l-0.79802,-1.21544" fill="none" stroke-linecap="round"/><path d="M218.62801,215.88253l1.63788,0.22765l0.87056,1.32593l-1.14485,2.11017l-1.95513,-0.03076l-1.01565,-1.54692z" fill="#5c5e5f" stroke-linecap="round"/></g></g></g></g></svg>