<svg version="1.1" xmlns="http://www.w3.org/2000/svg" xmlns:xlink="http://www.w3.org/1999/xlink" width="323.92859" height="323.92859" viewBox="0,0,323.92859,323.92859"><g transform="translate(-78.0357,-18.03572)"><g stroke-miterlimit="10"><g stroke-linecap="butt"><path d="M287.05093,300.69278l5.87524,-70.72106l45.02252,-0.10549l-8.36991,70.82655z" fill="#868995" stroke="#000000" stroke-width="1.2"/><g><g><g><g fill="#868995" stroke="#000000" stroke-width="1.2"><path d="M314.91629,263.73469c0,0 -14.72229,0.34976 -16.50098,-1.93606c-1.3725,-1.76382 0.99403,-25.0985 2.72753,-26.8075c1.77956,-1.75441 16.48082,-1.78714 16.48082,-1.78714"/></g><g fill="none" stroke="none" stroke-width="1" font-family="sans-serif" font-weight="normal" font-size="12" text-anchor="start"/><g fill="none" stroke="none" stroke-width="1" font-family="sans-serif" font-weight="normal" font-size="12" text-anchor="start"/></g><g><g fill="#868995" stroke="#000000" stroke-width="1.2"><path d="M317.51561,233.20399c0,0 14.69461,0.03272 16.11716,1.78714c1.38572,1.709 -0.9961,25.04367 -2.72752,26.80749c-2.24382,2.28582 -16.89495,1.93608 -16.89495,1.93608"/></g><g fill="none" stroke="none" stroke-width="1" font-family="sans-serif" font-weight="normal" font-size="12" text-anchor="start"/><g fill="none" stroke="none" stroke-width="1" font-family="sans-serif" font-weight="normal" font-size="12" text-anchor="start"/></g></g><g><g><g fill="#4e4f56" stroke="#000000" stroke-width="1.2"><path d="M315.04573,261.93812c0,0 -12.98855,0.30856 -14.55777,-1.70807c-1.21087,-1.5561 0.87697,-22.14282 2.40632,-23.65056c1.56999,-1.54781 14.53999,-1.57668 14.53999,-1.57668"/></g><g fill="none" stroke="none" stroke-width="1" font-family="sans-serif" font-weight="normal" font-size="12" text-anchor="start"/><g fill="none" stroke="none" stroke-width="1" font-family="sans-serif" font-weight="normal" font-size="12" text-anchor="start"/></g><g><g fill="#4e4f56" stroke="#000000" stroke-width="1.2"><path d="M317.33894,235.00281c0,0 12.96413,0.02887 14.21915,1.57668c1.22254,1.50775 -0.87881,22.09446 -2.40633,23.65056c-1.97958,2.01664 -14.90534,1.70807 -14.90534,1.70807"/></g><g fill="none" stroke="none" stroke-width="1" font-family="sans-serif" font-weight="normal" font-size="12" text-anchor="start"/><g fill="none" stroke="none" stroke-width="1" font-family="sans-serif" font-weight="normal" font-size="12" text-anchor="start"/></g></g><g><g><g fill="#9497a4" stroke="#000000" stroke-width="1.2"><path d="M315.69296,252.95531c0,0 -4.31985,0.10263 -4.84175,-0.56808c-0.40272,-0.51755 0.29167,-7.36444 0.80032,-7.86589c0.52216,-0.51478 4.83583,-0.52438 4.83583,-0.52438"/></g><g fill="none" stroke="none" stroke-width="1" font-family="sans-serif" font-weight="normal" font-size="12" text-anchor="start"/><g fill="none" stroke="none" stroke-width="1" font-family="sans-serif" font-weight="normal" font-size="12" text-anchor="start"/></g><g><g fill="#9497a4" stroke="#000000" stroke-width="1.2"><path d="M316.45565,243.99694c0,0 4.31171,0.0096 4.72913,0.52438c0.40661,0.50145 -0.29228,7.34836 -0.80032,7.86589c-0.65839,0.67071 -4.95734,0.56808 -4.95734,0.56808"/></g><g fill="none" stroke="none" stroke-width="1" font-family="sans-serif" font-weight="normal" font-size="12" text-anchor="start"/><g fill="none" stroke="none" stroke-width="1" font-family="sans-serif" font-weight="normal" font-size="12" text-anchor="start"/></g></g></g><g><g><g><g fill="#868995" stroke="#000000" stroke-width="1.2"><path d="M311.72024,294.71302c0,0 -11.16835,0.26533 -12.51766,-1.4687c-1.04118,-1.33803 0.75407,-19.03976 2.0691,-20.33621c1.34997,-1.3309 12.50238,-1.35573 12.50238,-1.35573"/></g><g fill="none" stroke="none" stroke-width="1" font-family="sans-serif" font-weight="normal" font-size="12" text-anchor="start"/><g fill="none" stroke="none" stroke-width="1" font-family="sans-serif" font-weight="normal" font-size="12" text-anchor="start"/></g><g><g fill="#868995" stroke="#000000" stroke-width="1.2"><path d="M313.6921,271.55238c0,0 11.14736,0.02483 12.22651,1.35573c1.05122,1.29645 -0.75565,18.99818 -2.06911,20.33621c-1.70216,1.73403 -12.81654,1.46871 -12.81654,1.46871"/></g><g fill="none" stroke="none" stroke-width="1" font-family="sans-serif" font-weight="normal" font-size="12" text-anchor="start"/><g fill="none" stroke="none" stroke-width="1" font-family="sans-serif" font-weight="normal" font-size="12" text-anchor="start"/></g></g><g><g><g fill="#4e4f56" stroke="#000000" stroke-width="1.2"><path d="M311.81844,293.35014c0,0 -9.85313,0.23408 -11.04354,-1.29574c-0.91857,-1.18047 0.66527,-16.79758 1.82543,-17.94135c1.19099,-1.17417 11.03006,-1.19608 11.03006,-1.19608"/></g><g fill="none" stroke="none" stroke-width="1" font-family="sans-serif" font-weight="normal" font-size="12" text-anchor="start"/><g fill="none" stroke="none" stroke-width="1" font-family="sans-serif" font-weight="normal" font-size="12" text-anchor="start"/></g><g><g fill="#4e4f56" stroke="#000000" stroke-width="1.2"><path d="M313.55809,272.91697c0,0 9.83461,0.02191 10.78667,1.19608c0.92741,1.14378 -0.66667,16.76089 -1.82544,17.94135c-1.50172,1.52982 -11.30722,1.29574 -11.30722,1.29574"/></g><g fill="none" stroke="none" stroke-width="1" font-family="sans-serif" font-weight="normal" font-size="12" text-anchor="start"/><g fill="none" stroke="none" stroke-width="1" font-family="sans-serif" font-weight="normal" font-size="12" text-anchor="start"/></g></g><g><g><g fill="#9497a4" stroke="#000000" stroke-width="1.2"><path d="M312.30942,286.53577c0,0 -3.27703,0.07784 -3.67296,-0.43095c-0.3055,-0.39261 0.22127,-5.58668 0.60713,-5.96708c0.39611,-0.39051 3.66846,-0.39781 3.66846,-0.39781"/></g><g fill="none" stroke="none" stroke-width="1" font-family="sans-serif" font-weight="normal" font-size="12" text-anchor="start"/><g fill="none" stroke="none" stroke-width="1" font-family="sans-serif" font-weight="normal" font-size="12" text-anchor="start"/></g><g><g fill="#9497a4" stroke="#000000" stroke-width="1.2"><path d="M312.88801,279.73993c0,0 3.27087,0.00728 3.58752,0.39781c0.30845,0.3804 -0.22173,5.57447 -0.60712,5.96708c-0.49944,0.5088 -3.76065,0.43095 -3.76065,0.43095"/></g><g fill="none" stroke="none" stroke-width="1" font-family="sans-serif" font-weight="normal" font-size="12" text-anchor="start"/><g fill="none" stroke="none" stroke-width="1" font-family="sans-serif" font-weight="normal" font-size="12" text-anchor="start"/></g></g></g></g><g stroke-linecap="butt"><path d="M150.4212,300.69278l-8.00783,-70.82655l45.02199,0.10549l5.5137,70.72106z" fill="#868995" stroke="#000000" stroke-width="1.2"/><g><g><g><g fill="#868995" stroke="#000000" stroke-width="1.2"><path d="M162.72135,233.20399c0,0 14.70109,0.03272 16.47168,1.78714c1.72475,1.709 3.97199,25.04367 2.59049,26.80749c-1.79037,2.28582 -16.51087,1.93607 -16.51087,1.93607"/></g><g fill="none" stroke="none" stroke-width="1" font-family="sans-serif" font-weight="normal" font-size="12" text-anchor="start"/><g fill="none" stroke="none" stroke-width="1" font-family="sans-serif" font-weight="normal" font-size="12" text-anchor="start"/></g><g><g fill="#868995" stroke="#000000" stroke-width="1.2"><path d="M166.17864,263.73469c0,0 -14.65291,0.34976 -16.88505,-1.93606c-1.7224,-1.76382 -3.98495,-25.09849 -2.59049,-26.80749c1.43152,-1.75441 16.1263,-1.78714 16.1263,-1.78714"/></g><g fill="none" stroke="none" stroke-width="1" font-family="sans-serif" font-weight="normal" font-size="12" text-anchor="start"/><g fill="none" stroke="none" stroke-width="1" font-family="sans-serif" font-weight="normal" font-size="12" text-anchor="start"/></g></g><g><g><g fill="#4e4f56" stroke="#000000" stroke-width="1.2"><path d="M162.90154,235.00281c0,0 12.96986,0.02887 14.53193,1.57668c1.52165,1.50775 3.50423,22.09446 2.28541,23.65056c-1.57953,2.01664 -14.5665,1.70807 -14.5665,1.70807"/></g><g fill="none" stroke="none" stroke-width="1" font-family="sans-serif" font-weight="normal" font-size="12" text-anchor="start"/><g fill="none" stroke="none" stroke-width="1" font-family="sans-serif" font-weight="normal" font-size="12" text-anchor="start"/></g><g><g fill="#4e4f56" stroke="#000000" stroke-width="1.2"><path d="M165.95168,261.93812c0,0 -12.92733,0.30856 -14.89661,-1.70807c-1.51956,-1.5561 -3.51567,-22.14282 -2.28541,-23.65056c1.26295,-1.54781 14.22721,-1.57668 14.22721,-1.57668"/></g><g fill="none" stroke="none" stroke-width="1" font-family="sans-serif" font-weight="normal" font-size="12" text-anchor="start"/><g fill="none" stroke="none" stroke-width="1" font-family="sans-serif" font-weight="normal" font-size="12" text-anchor="start"/></g></g><g><g><g fill="#9497a4" stroke="#000000" stroke-width="1.2"><path d="M163.80247,243.99694c0,0 4.31363,0.0096 4.83315,0.52438c0.50609,0.50145 1.16547,7.34836 0.7601,7.86589c-0.52534,0.67071 -4.84464,0.56808 -4.84464,0.56808"/></g><g fill="none" stroke="none" stroke-width="1" font-family="sans-serif" font-weight="normal" font-size="12" text-anchor="start"/><g fill="none" stroke="none" stroke-width="1" font-family="sans-serif" font-weight="normal" font-size="12" text-anchor="start"/></g><g><g fill="#9497a4" stroke="#000000" stroke-width="1.2"><path d="M164.81691,252.95531c0,0 -4.29948,0.10263 -4.95444,-0.56808c-0.50538,-0.51755 -1.16927,-7.36444 -0.7601,-7.86589c0.42004,-0.51478 4.7318,-0.52438 4.7318,-0.52438"/></g><g fill="none" stroke="none" stroke-width="1" font-family="sans-serif" font-weight="normal" font-size="12" text-anchor="start"/><g fill="none" stroke="none" stroke-width="1" font-family="sans-serif" font-weight="normal" font-size="12" text-anchor="start"/></g></g></g><g><g><g><g fill="#868995" stroke="#000000" stroke-width="1.2"><path d="M166.37489,271.55238c0,0 11.15229,0.02483 12.49545,1.35573c1.3084,1.29645 3.01316,18.99818 1.96514,20.33621c-1.35818,1.73403 -12.52517,1.46871 -12.52517,1.46871"/></g><g fill="none" stroke="none" stroke-width="1" font-family="sans-serif" font-weight="normal" font-size="12" text-anchor="start"/><g fill="none" stroke="none" stroke-width="1" font-family="sans-serif" font-weight="normal" font-size="12" text-anchor="start"/></g><g><g fill="#868995" stroke="#000000" stroke-width="1.2"><path d="M168.99761,294.71302c0,0 -11.11573,0.26533 -12.80903,-1.4687c-1.3066,-1.33803 -3.02298,-19.03976 -1.96514,-20.3362c1.08595,-1.3309 12.23344,-1.35573 12.23344,-1.35573"/></g><g fill="none" stroke="none" stroke-width="1" font-family="sans-serif" font-weight="normal" font-size="12" text-anchor="start"/><g fill="none" stroke="none" stroke-width="1" font-family="sans-serif" font-weight="normal" font-size="12" text-anchor="start"/></g></g><g><g><g fill="#4e4f56" stroke="#000000" stroke-width="1.2"><path d="M166.51159,272.91697c0,0 9.83895,0.02191 11.02394,1.19608c1.15433,1.14378 2.65833,16.76089 1.73372,17.94135c-1.19823,1.52982 -11.05017,1.29574 -11.05017,1.29574"/></g><g fill="none" stroke="none" stroke-width="1" font-family="sans-serif" font-weight="normal" font-size="12" text-anchor="start"/><g fill="none" stroke="none" stroke-width="1" font-family="sans-serif" font-weight="normal" font-size="12" text-anchor="start"/></g><g><g fill="#4e4f56" stroke="#000000" stroke-width="1.2"><path d="M168.82543,293.35014c0,0 -9.8067,0.23408 -11.3006,-1.29574c-1.15275,-1.18047 -2.667,-16.79758 -1.73372,-17.94135c0.95807,-1.17417 10.79279,-1.19608 10.79279,-1.19608"/></g><g fill="none" stroke="none" stroke-width="1" font-family="sans-serif" font-weight="normal" font-size="12" text-anchor="start"/><g fill="none" stroke="none" stroke-width="1" font-family="sans-serif" font-weight="normal" font-size="12" text-anchor="start"/></g></g><g><g><g fill="#9497a4" stroke="#000000" stroke-width="1.2"><path d="M167.19502,279.73993c0,0 3.27232,0.00729 3.66644,0.3978c0.38391,0.3804 0.88413,5.57448 0.57662,5.96708c-0.39852,0.5088 -3.67516,0.43095 -3.67516,0.43095"/></g><g fill="none" stroke="none" stroke-width="1" font-family="sans-serif" font-weight="normal" font-size="12" text-anchor="start"/><g fill="none" stroke="none" stroke-width="1" font-family="sans-serif" font-weight="normal" font-size="12" text-anchor="start"/></g><g><g fill="#9497a4" stroke="#000000" stroke-width="1.2"><path d="M167.9646,286.53577c0,0 -3.26159,0.07785 -3.75844,-0.43095c-0.38339,-0.39261 -0.88701,-5.58668 -0.57661,-5.96708c0.31865,-0.39051 3.58955,-0.3978 3.58955,-0.3978"/></g><g fill="none" stroke="none" stroke-width="1" font-family="sans-serif" font-weight="normal" font-size="12" text-anchor="start"/><g fill="none" stroke="none" stroke-width="1" font-family="sans-serif" font-weight="normal" font-size="12" text-anchor="start"/></g></g></g></g><path d="M187.3461,300.92055l-3.94905,-103.37655h113.20589l-3.94904,103.37655z" fill="#868995" stroke="#000000" stroke-width="1.2" stroke-linecap="butt"/><g stroke="#000000" stroke-width="1.2" stroke-linecap="butt"><g fill="#868995"><path d="M240.80288,245.80576c0,0 -44.85313,0.45399 -48.0377,-2.51313c-2.45732,-2.28954 -2.46945,-32.57923 0,-34.79762c2.53508,-2.27732 47.40598,-2.31981 47.40598,-2.31981"/><path d="M239.82882,206.17521c0,0 44.87091,0.04248 47.40598,2.31981c2.46946,2.21839 2.45734,32.50809 0,34.79762c-3.18457,2.96712 -48.0377,2.51313 -48.0377,2.51313"/></g><g fill="#4e4f56"><path d="M240.76191,243.54599c0,0 -42.56392,0.40218 -45.58596,-2.22635c-2.33192,-2.02826 -2.34342,-28.8615 0,-30.82673c2.40569,-2.01745 44.98648,-2.05509 44.98648,-2.05509"/><path d="M239.83756,208.43782c0,0 42.5808,0.03764 44.98649,2.05509c2.34342,1.96524 2.33191,28.79847 0,30.82673c-3.02204,2.62853 -45.58597,2.22635 -45.58597,2.22635"/></g><g fill="#9497a4"><path d="M240.24829,231.83058c0,0 -13.87108,0.13359 -14.85592,-0.73958c-0.75994,-0.67378 -0.7637,-9.58753 0,-10.24036c0.78398,-0.67018 14.66055,-0.68268 14.66055,-0.68268"/><path d="M239.94707,220.16797c0,0 13.87656,0.01251 14.66055,0.68268c0.76369,0.65283 0.75994,9.56659 0,10.24036c-0.98485,0.87317 -14.85592,0.73957 -14.85592,0.73957"/></g></g><g stroke="#000000" stroke-width="1.2" stroke-linecap="butt"><g fill="#868995"><path d="M240.69234,286.48518c0,0 -38.67744,0.39148 -41.42353,-2.16711c-2.11899,-1.97429 -2.12944,-28.0935 0,-30.00643c2.18603,-1.96376 40.87879,-2.0004 40.87879,-2.0004"/><path d="M239.85239,252.31124c0,0 38.69277,0.03663 40.8788,2.0004c2.12944,1.91293 2.11899,28.03214 0,30.00643c-2.7461,2.55858 -41.42354,2.1671 -41.42354,2.1671"/></g><g fill="#4e4f56"><path d="M240.65701,284.53654c0,0 -36.70342,0.34681 -39.30935,-1.91981c-2.01084,-1.74899 -2.02077,-24.88765 0,-26.5823c2.07446,-1.73968 38.79241,-1.77213 38.79241,-1.77213"/><path d="M239.85993,254.26232c0,0 36.71797,0.03246 38.79242,1.77213c2.02076,1.69465 2.01083,24.8333 0,26.58229c-2.60595,2.26662 -39.30936,1.91981 -39.30936,1.91981"/></g><g fill="#9497a4"><path d="M240.21411,274.43419c0,0 -11.9612,0.1152 -12.81044,-0.63774c-0.65531,-0.581 -0.65854,-8.26744 0,-8.83038c0.67604,-0.5779 12.64198,-0.58869 12.64198,-0.58869"/><path d="M239.95435,264.37737c0,0 11.96594,0.01079 12.64198,0.58869c0.65854,0.56294 0.65531,8.24938 0,8.83039c-0.84924,0.75295 -12.81044,0.63774 -12.81044,0.63774"/></g></g><path d="M192.35432,176.07743" fill="none" stroke="#000000" stroke-width="1.2" stroke-linecap="round"/><path d="M200.34227,180.47579" fill="none" stroke="#000000" stroke-width="1.2" stroke-linecap="round"/><g stroke="#000000" stroke-width="1.2" stroke-linecap="round"><path d="M207.99574,160.47346c-16.13572,-1.31824 -33.69223,-30.91453 -33.69223,-30.91453c9.58545,-2.4017 14.45904,0.99202 15.06161,1.30342c0.60288,0.31224 12.02658,7.51813 12.02658,7.51813c1.95219,13.45731 6.60404,22.09299 6.60404,22.09299zM201.18197,135.49874c0,0 0.07209,2.06038 0.2511,3.16635M207.99574,160.47346c0.46744,0.86905 1.54889,2.18104 1.54889,2.18104" fill="#be1e2d"/><path d="M200.92212,157.8809c-3.34565,-1.69152 -7.57153,-4.44303 -11.97433,-8.86722c-3.92552,-3.94487 -8.47527,-10.25679 -11.44598,-14.62011l0.04821,-0.07322c5.82632,-1.88896 10.33868,1.85012 10.33868,1.85012l0.29602,0.3058c2.02266,2.27665 4.15271,4.55084 5.78229,5.97326c0.96236,0.84126 1.94769,1.55941 2.84812,2.14836c0,0 2.48654,4.05128 3.43443,6.98533c1.40806,4.33924 0.53716,6.24252 0.53716,6.24252z" fill="#929497"/></g><path d="M270.59182,165.72484l-9.76694,9.67411l-24.04917,3.18579l-9.69642,5.67998l-15.8691,-2.72369l-7.54725,-7.44875l-6.81539,-9.18301l-4.80568,-11.98777l-0.84443,-12.28198l1.93873,-9.66232l3.74471,-9.67229l5.59938,-9.00577l6.56987,-8.24029l7.4796,-7.75582l5.3475,-4.56973l2.19095,-3.09365l2.2202,-4.92084l1.32362,-4.67716l0.8476,-6.20595l-1.269,-8.08937l5.16976,5.10423l5.51604,6.70574l-0.22169,-3.91847l1.21818,2.01753l4.64414,6.28973l6.25381,5.77816l4.00634,2.61666l5.84456,3.88546l7.10931,4.67171l6.52073,5.56602l5.53932,6.0901l4.95074,6.98442l3.81193,6.78055l1.75467,7.39192l1.15788,7.52499l-0.43671,6.65971l-1.64534,8.30274l-2.45561,5.27857l-4.40356,7.2358z" fill="#be1e2d" stroke="#8c8c8c" stroke-width="0" stroke-linecap="round"/><path d="M281.44289,165.8459l-10.89482,-0.03886l-9.73507,9.83033l-24.00784,2.9121l-9.70869,5.63754l-15.05351,-2.07851c0,0 -52.35827,-37.31952 9.58241,-89.79272c0,0 10.5536,-12.64179 5.02542,-28.27934c-0.44962,-1.27186 11.03551,12.50073 11.03551,12.50073c0,0 -0.62848,-5.27833 -0.33688,-4.64105c3.23164,7.06268 13.03636,15.4697 13.03636,15.4697c59.30232,31.64198 35.45739,72.26797 35.45739,72.26797z" fill="none" stroke="#000000" stroke-width="1.2" stroke-linecap="round"/><g stroke="#000000" stroke-width="1.2" stroke-linecap="round"><path d="M279.26758,121.49148c0,0 6.31988,-11.93693 6.69178,-12.51537c0.3721,-0.57764 2.88808,-5.91212 12.95601,-9.53157c0,0 0.73433,32.36962 -13.18967,42.52177c0,0 -0.64226,-9.17777 -6.45812,-20.47482zM279.39053,121.73043c-0.46108,-0.93897 -1.55768,-2.53993 -1.55768,-2.53993M285.54792,144.49645c0,0 0.24304,-1.60693 0.17776,-2.53014" fill="#be1e2d"/><path d="M290.78539,135.87172c0,0 -1.86518,-0.94703 -3.03274,-5.03142c-0.79329,-2.75933 -0.81804,-7.23752 -0.81804,-7.23752c0.48633,-0.95676 0.97694,-2.05951 1.37723,-3.24245c0.67901,-2.00151 1.3325,-4.93188 1.88701,-7.80318l0.09661,-0.39948c0,0 1.9928,-5.39103 8.35444,-7.26612l0.08512,0.02809c-0.23933,4.98914 -0.81495,12.34948 -2.15824,17.56343c-1.5068,5.84766 -3.79622,10.32844 -5.88338,13.50723z" fill="#929497"/></g><g><path d="M278.6187,144.14046c3.39411,15.45875 -10.56488,31.65948 -31.17825,36.18533c-20.61339,4.52585 -40.07531,-4.33701 -43.4694,-19.79577c-3.39411,-15.45875 10.56487,-31.65948 31.17825,-36.18533c20.61339,-4.52585 40.07531,4.33701 43.4694,19.79577z" fill="#e6e7e8" stroke="#000000" stroke-width="1.2" stroke-linecap="butt"/><path d="M222.49177,181.98354l2.46153,2.43517l2.95781,1.46231l-1.75783,0.76989l-4.4015,-0.18545l-4.17914,-1.48212l-2.0142,-2.24542l-5.03356,-1.67847l-3.83235,-1.75024l0.41552,2.34306c-6.41646,-8.77471 -16.24572,-17.44179 -15.25766,-30.9507c23.12878,-33.01295 67.63579,-45.61195 87.7666,-15.78683c0.26919,0.39883 0.5244,0.79843 0.76621,1.19881c0.213,0.62013 0.38129,1.20342 0.48893,1.73775c1.21753,6.04431 1.59104,12.11454 2.2841,18.27626c0.04566,0.40597 0.03078,0.86709 -0.02245,1.35769l-0.68769,1.42834l-0.46287,-1.39025l-1.61298,5.57568l-3.99355,5.50161l-2.69494,2.08357l-0.45511,-4.22649l-1.09958,-5.72603l-1.45109,-4.45538l-1.08386,0.08877l0.13863,-1.5223l0.60338,-3.71295l-0.72459,-4.01814l-1.57021,-4.28003l-4.12652,-3.71876l-6.46995,-2.90589l-8.20604,-1.4804l-9.30941,-0.04465l2.50557,0.64338l4.08352,2.08716l2.55442,3.01963l-17.47833,-0.63808l-16.9081,-0.91246l-0.12688,3.0116l-1.57585,6.46264l-1.51924,6.00266l1.15622,5.26605l3.68128,4.56248l4.72214,2.84206l-3.0328,1.26262l-2.70669,0.59428l0.74997,3.41582l2.46655,3.3373l2.67355,2.84429l2.88055,2.35128z" fill="#be1e2d" stroke="#8c8c8c" stroke-width="0" stroke-linecap="butt"/><path d="M214.0833,138.88825c0.10898,8.05779 -3.86405,12.92824 -2.95672,17.02401c1.86762,8.43049 9.56454,10.77688 9.56454,10.77688c0,0 -4.81433,3.59046 -11.40542,1.00041" fill="none" stroke="#000000" stroke-width="1.2" stroke-linecap="round"/><path d="M203.52922,160.16556c-0.95308,-1.46286 -1.91167,-3.16343 -2.86622,-5.1357" fill="none" stroke="#000000" stroke-width="1.2" stroke-linecap="round"/><path d="M207.42813,137.64685c15.93073,2.78746 41.49592,2.33552 41.49592,2.33552c0,0 -3.28282,-3.89908 -9.22326,-5.28788c0,0 36.00582,-3.83722 29.19529,22.04673c0,0 3.27667,-2.38291 5.1731,-6.39127" fill="none" stroke="#000000" stroke-width="1.2" stroke-linecap="round"/><path d="M274.71227,141.15633c0.49682,1.73504 0.75622,2.53623 0.5986,4.04006" fill="none" stroke="#000000" stroke-width="1.2" stroke-linecap="round"/><path d="M281.17213,158.33829c-0.80627,6.94179 -8.05754,12.26156 -8.05754,12.26156c0,0 -0.5794,-9.73931 -3.19676,-14.55988" fill="none" stroke="#000000" stroke-width="1.2" stroke-linecap="round"/><path d="M202.99411,159.98379c-3.09753,8.22543 4.18122,21.33871 4.18122,21.33871c0,0 -18.8621,-18.55552 -14.97937,-31.71559" fill="none" stroke="#000000" stroke-width="1.2" stroke-linecap="round"/><path d="M283.72746,155.73836c-1.01439,2.58269 -1.90182,4.04621 -1.90182,4.04621c0,0 -0.60145,-9.71232 -6.53473,-14.4629" fill="none" stroke="#000000" stroke-width="1.2" stroke-linecap="round"/><path d="M215.08901,168.71402c-0.00381,6.83206 8.8592,12.04482 8.8592,12.04482c0,0 -9.95896,4.12388 -17.73672,-1.98788" fill="none" stroke="#000000" stroke-width="1.2" stroke-linecap="round"/><path d="M221.75179,181.52409c1.6905,2.99997 6.28387,4.33189 6.28387,4.33189c0,0 -7.94261,3.25254 -13.41269,-3.56366" fill="none" stroke="#000000" stroke-width="1.2" stroke-linecap="round"/></g><path d="M225.20241,158.89754c0.19337,-0.14472 0.40992,-0.28448 0.62723,-0.41361c-0.51107,-1.2837 -0.99937,-3.11314 -0.10039,-3.4061c0.08005,-0.02608 0.69027,0.6634 0.84223,0.84272c0.52831,0.62344 0.97283,1.12104 1.57488,1.41688c2.10181,-0.87835 4.37022,-1.3414 6.58594,-1.17198c0.63644,0.04866 2.36831,0.08448 2.56317,1.11089c0.19969,1.05184 -0.00501,1.45196 -0.8597,1.68052c-0.66633,0.17818 -2.45576,-0.60326 -3.29897,-0.55607c-2.9391,0.16443 -5.05406,1.6336 -7.49047,3.23665c-0.28959,0.19055 -0.51996,0.26635 -0.70171,0.26017l-0.37438,0.0854c-1.17832,-0.65049 -1.78391,-2.24849 -1.85144,-3.78471c-0.01801,-0.4097 -0.05177,-1.38311 0.43615,-1.53326c0.34918,-0.10744 1.30169,1.28208 2.04745,2.23251z" fill="#000000" stroke="#000000" stroke-width="0.5" stroke-linecap="butt"/><path d="M266.95966,164.10718" fill="none" stroke="#000000" stroke-width="1.2" stroke-linecap="round"/><path d="M78.0357,341.96432v-323.92859h323.92859v323.92859z" fill="none" stroke="#000000" stroke-width="0" stroke-linecap="butt"/><path d="M258.53191,147.97302l-0.18861,-0.04373l0.20534,-0.88571c0.03429,-0.16223 0.15554,-0.30026 0.32633,-0.3478c0.22534,-0.06273 0.45823,0.05395 0.54645,0.26411l0.23245,0.52987c0.25746,0.55652 0.32322,1.14877 0.51387,1.70392c0.03076,-0.01785 0.06144,-0.03543 0.09196,-0.05273c0.52277,-1.58782 1.38384,-4.09152 2.104,-4.08719c1.23437,0.00744 1.3595,3.11856 1.23777,4.63328c0.06063,0.24151 0.01924,0.48587 -0.09779,0.68633c-0.0136,0.04262 -0.0964,0.27178 -0.32005,0.32441c-0.00655,0.00393 -0.01316,0.00778 -0.01981,0.01155l-0.79877,0.47639l-0.00282,-0.00473l-0.01284,0.01385c-3.84559,2.09282 -8.05229,3.7064 -12.34284,4.58695c0,0 -0.606,0.12298 -0.92447,-0.33007c-0.11223,-0.10114 -0.20869,-0.24868 -0.26805,-0.46195c-0.24635,-0.88488 0.63854,-1.13123 0.63854,-1.13123l0.40897,-0.11057c2.5845,-0.95707 5.35066,-1.64615 7.79939,-2.93204c0.11594,-0.06088 0.26574,-0.15421 0.43972,-0.26855c0.18838,-0.83468 0.24875,-1.72387 0.43123,-2.57435z" fill="#000000" stroke="#000000" stroke-width="0.5" stroke-linecap="butt"/><g stroke="#000000" stroke-width="1.2"><path d="M235.69566,178.63598c0.1958,-0.0302 0.38302,-0.05415 0.56187,-0.07206c0.30366,-0.08192 0.61751,-0.09682 0.91588,-0.0388c6.80153,0.17276 -2.93506,12.05761 -5.60604,12.88031c-2.265,0.69765 -6.65741,-0.76286 -5.27311,-3.93541c0.49964,-1.14508 8.21948,-8.40866 9.33468,-8.75216z" fill="#be1e2d" stroke-linecap="butt"/><g><path d="M225.16047,195.77214c-0.19087,-0.23725 -2.41341,-3.21691 -2.41341,-3.21691c0,0 0.0534,5.03168 -3.43507,6.40562c-1.88886,0.74393 -5.65465,0.16986 -7.70807,0.32794c0,0 -2.34992,0.17914 -2.2532,-2.14956c0.09672,-2.3287 2.44663,-2.50783 2.44663,-2.50783c0.4551,-0.03438 1.01616,-0.01541 1.62331,0.02045c3.25637,-5.98803 5.92195,-15.85863 13.52478,-10.78639c3.12081,2.08205 3.74701,2.90403 3.74701,2.90403c0,0 4.36805,-10.04095 8.95049,-9.42828c14.95566,1.99956 6.89649,19.97177 0.87203,20.62974c-9.13977,0.99821 -13.03043,0.68982 -15.3545,-2.19881z" fill="#be1e2d" stroke-linecap="butt"/><path d="M231.61437,191.84934c-0.17456,-3.20306 3.81546,-14.1335 8.28026,-10.78277c3.51456,2.63759 0.80148,8.33619 -1.12461,11.27005c-2.1682,3.30266 -6.96646,2.98429 -7.15566,-0.48728z" fill="#e6e7e8" stroke-linecap="round"/></g><path d="M226.78104,183.81386c-0.41009,1.27292 -1.96556,1.63144 -1.96556,1.63144c0,0 -1.4647,2.43562 -5.26265,3.24193c-5.11641,1.08622 -5.5676,-5.19047 -0.48932,-7.53982c0,0 4.32569,-2.56991 6.33899,-1.93709c0.67544,0.2123 0.54874,1.26761 0.7915,1.95597c0.48698,1.38082 0.99713,1.37465 0.58704,2.64757z" fill="#be1e2d" stroke-linecap="butt"/></g><path d="M237.84737,195.93577c0.34696,5.58257 -4.77935,16.48749 -10.23241,13.07377c-0.83404,-0.52213 -0.99691,-1.58881 -1.49536,-2.38321c0.27221,-2.47568 1.27363,-4.7626 1.50515,-7.23965c0.2149,-2.29919 -0.66277,-5.08223 0.30591,-7.3517c1.886,-4.41862 9.95149,-3.87693 11.74845,-0.16101" fill="#be1e2d" stroke="#000000" stroke-width="1.2" stroke-linecap="butt"/><path d="M244.76746,180.5599c1.17949,-1.06379 2.35262,-1.51789 3.54998,-1.42754c1.36342,0.10287 2.75824,0.91169 4.22963,2.33008c0.83867,0.80846 1.55106,1.86002 2.13959,2.85911c0.21394,0.36319 0.22359,1.40541 0.59702,1.11772c3.06032,-2.35758 3.13181,-3.79243 4.20424,-6.95946c0.08855,-0.26147 1.29576,-1.8177 1.29576,-1.8177c0,0 1.26357,-3.5301 2.59481,-3.76349c2.12959,-0.37336 0.80993,3.43241 3.48225,4.30388c0.99264,0.32371 10.51681,1.96889 8.19882,5.67284c-1.62335,2.59397 -4.42735,0.49913 -6.04653,-0.42805c-0.07237,0.20135 -0.15638,0.40847 -0.25258,0.62142c-1.2059,2.66918 -3.80168,0.90244 -4.90424,1.76376c-2.1435,1.6745 -2.51419,5.62439 -4.76209,7.6342c-5.58789,4.99608 -9.64399,-0.98038 -11.94291,-4.86193c-0.25749,-0.43473 -1.05181,-0.71775 -1.72827,-0.96226" fill="#be1e2d" stroke="#000000" stroke-width="1.2" stroke-linecap="butt"/><path d="M235.88653,172.46011c2.71491,4.55759 4.46414,8.86971 3.90704,9.63137c-0.55711,0.76166 -3.20961,-2.31556 -5.92451,-6.87314c-2.71491,-4.55759 -4.46414,-8.86971 -3.90704,-9.63137c0.55711,-0.76166 3.20961,2.31556 5.92451,6.87314z" fill="#706d6d" stroke="#000000" stroke-width="1.2" stroke-linecap="butt"/></g></g></svg>