<svg version="1.1" xmlns="http://www.w3.org/2000/svg" xmlns:xlink="http://www.w3.org/1999/xlink" width="91.93115" height="115.62533" viewBox="0,0,91.93115,115.62533"><g transform="translate(-219.59641,-101.05762)"><g stroke-miterlimit="10"><g fill-rule="evenodd" stroke="#000000"><path d="M262.20682,196.16269c0.98182,-3.30999 -2.05631,-10.1991 -1.45747,-11.03657c0.48818,-0.74946 1.57522,-2.33642 4.68101,0.43378c3.1058,2.7702 3.01857,9.70507 2.92782,10.49991c-0.25231,3.09133 -0.68336,6.86679 -2.55076,10.88087c-5.35811,11.66751 -18.38491,10.28084 -20.02894,6.1678c-1.65539,-4.0137 6.58518,-4.7839 12.07745,-9.69255c2.45805,-2.13495 3.58185,-4.92549 4.35087,-7.25327z" fill="#7e5765" stroke-width="1.2" stroke-linecap="round" stroke-linejoin="round"/><path d="M246.04525,212.53503c-0.17055,-2.03245 1.37651,-2.35908 3.84315,-3.68784c2.86408,-1.28338 6.99119,-3.93232 6.99119,-3.93232c0,0 -1.3139,3.57402 0.13691,5.85331c1.09877,1.83649 3.32996,1.68865 4.04812,1.56934c-1.43908,1.14414 -3.40897,2.52962 -6.99981,3.12613c-3.59086,0.59653 -7.65029,-0.87347 -8.01954,-2.92861z" fill="#6f6fca" stroke-width="0" stroke-linecap="butt" stroke-linejoin="miter"/></g><g fill-rule="nonzero" stroke="#000000" stroke-width="1.2" stroke-linejoin="miter"><path d="M257.32665,169.43018c2.51479,-0.84663 5.44713,0.62429 6.54953,3.28539c0.25041,0.60445 0.38485,1.2183 0.41365,1.81602c1.02182,1.72589 -1.95835,4.31073 -2.57484,5.62913c-2.31814,4.95744 -5.03978,7.12691 -11.09234,8.65631c-2.47338,0.62498 -5.16346,0.06047 -6.54953,-3.28539c-0.49584,-1.1969 -0.62905,-2.17715 -0.50055,-2.99554c0.55335,-3.52414 5.96005,-4.04648 8.16364,-5.9399c1.45515,-1.25034 3.64401,-7.98504 5.59045,-7.16603z" fill="#7e5765" stroke-linecap="butt"/><g><path d="M237.00107,182.73391c0.78922,4.77759 -2.33283,8.89627 -6.97331,9.19933c-4.64048,0.30305 -9.04212,-3.32428 -9.83136,-8.10186c-0.78922,-4.77759 2.33283,-8.89627 6.97332,-9.19932c4.64048,-0.30305 9.04212,3.32427 9.83136,8.10186z" fill="#323388" stroke-linecap="butt"/><g stroke-linecap="round"><path d="M235.63954,177.57647l3.01453,-3.34468l2.32752,0.72239l4.36921,-0.28535l1.1329,3.77333z" fill="#7e5765"/><path d="M232.00997,181.31107l3.4009,-5.11871l4.17604,0.60167l1.48383,-0.27179l3.83993,0.62362l0.95112,-0.41187l3.42154,1.17557l1.72967,6.35753l-2.0531,6.07994l-13.36488,-0.70108z" fill="#7e5765"/><path d="M237.52692,180.77591l2.00968,-2.2298" fill="none"/><path d="M242.43228,181.67971l2.20288,-3.1168" fill="none"/></g><path d="M248.06014,180.78751l3.9794,0.43963l1.63704,3.74042l-1.83821,3.26785l-3.13916,-0.49452l-2.30925,-3.69651z" fill="#323388" stroke-linecap="round"/></g></g><g fill-rule="nonzero" stroke-linejoin="miter"><path d="M233.79086,178.39769c5.54731,0.13163 6.38106,7.0077 6.38106,7.0077c0,0 9.02591,-5.91684 13.81968,-7.08155c-1.05186,-2.71275 -1.53223,-5.5469 -1.02444,-8.47763c0.727,-4.19587 5.80658,-9.92977 11.05081,-10.36812c0.30492,-0.09467 0.62827,-0.13634 0.95349,-0.11851c2.51871,-0.40268 5.62185,1.28114 7.62455,3.03943c0.33188,0.24791 0.66084,0.50333 0.98701,0.75917c6.28155,4.92729 6.55121,11.41376 4.34262,18.27424c-0.22493,0.69871 -0.60821,2.28128 -1.19142,3.76502c3.34958,2.15435 3.42971,7.17436 2.44493,10.02555c2.81637,1.83712 7.71244,4.5899 8.27219,6.09473c0.80956,2.17642 -3.37035,7.7806 -4.67386,9.35541c-2.00331,2.42026 -6.18838,5.25312 -6.18838,5.25312l-12.07608,-4.9068l-3.26502,-22.33706c0,0 -13.97619,5.05983 -22.03118,9.87606c-3.68732,2.20472 -8.64498,3.9168 -10.73812,0.36188c-1.93479,-3.28599 -6.23417,-11.70622 -6.82312,-15.43255c0,0 6.58795,-5.22173 12.13527,-5.09012z" fill="#7e5765" stroke="#000000" stroke-width="1.2" stroke-linecap="butt"/><path d="M259.20706,180.9626c-2.12007,-2.91584 -4.32156,-5.55595 -3.65721,-9.39026c1.05881,-6.11086 9.05809,-4.89776 12.26857,-1.34432c5.17933,5.73264 -3.45241,17.25995 -8.23098,11.04978z" fill="#6f6fca" stroke="none" stroke-width="0.5" stroke-linecap="butt"/><path d="M269.19329,200.92473c2.44006,-6.1386 3.94002,-6.73658 3.94002,-6.73658c0,0 2.36481,-0.80163 6.09151,1.10253" fill="none" stroke="#000000" stroke-width="1.2" stroke-linecap="round"/></g><path d="M274.45003,164.11899c0.46696,-0.35604 0.97518,-0.661 1.49646,-0.89846c0.79477,-0.36206 1.56514,-0.23316 2.22581,0.18173c1.92843,-0.24311 4.3281,2.15867 5.81975,2.537c10.4921,2.6611 7.41127,6.77313 3.4651,14.15649c-1.72116,3.22034 -3.21341,6.12292 -5.4688,8.91424c-1.15759,1.43266 -6.30443,4.69816 -7.48558,2.63017c-0.02381,-0.01135 -0.04737,-0.023 -0.07065,-0.03494c-0.25478,-0.07299 -0.52606,-0.1646 -0.81487,-0.2762c-3.59671,-1.38995 -3.45089,-6.47653 -0.87361,-9.66622c0.92311,-1.14247 2.20512,-3.04372 3.49295,-3.79656c0.30752,-0.17977 2.85209,-2.22836 2.71573,-2.30835c-2.46617,-1.44661 -5.01416,-2.23435 -6.25063,-4.31698" fill="#7e5765" fill-rule="nonzero" stroke="#000000" stroke-width="1.2" stroke-linecap="butt" stroke-linejoin="miter"/><g><g><g stroke="#000000"><path d="M241.64123,134.67909c0,0 -7.86178,-26.44629 -6.79838,-26.62004c1.43259,-0.23408 28.30877,6.2079 28.30877,6.2079" fill="#7e5765" fill-rule="nonzero" stroke-width="1.2" stroke-linecap="round" stroke-linejoin="miter"/><path d="M295.88127,128.71664l14.94967,12.78388l-1.94675,5.8592l-30.11214,4.24959z" fill="#4a3e7c" fill-rule="nonzero" stroke-width="1.2" stroke-linecap="round" stroke-linejoin="miter"/><path d="M234.81648,155.53933c0,0 -6.96837,1.81436 -12.50831,-0.60208" fill="none" fill-rule="evenodd" stroke-width="1.2" stroke-linecap="round" stroke-linejoin="round"/><path d="M235.99658,161.33396c0,0 -3.25592,2.86687 -9.46273,4.05673" fill="none" fill-rule="evenodd" stroke-width="1.2" stroke-linecap="round" stroke-linejoin="round"/><path d="M256.63816,122.15096c10.52283,-4.41718 41.4259,-2.29712 39.72819,25.60461c-0.02213,0.36375 -0.12824,0.71786 -0.23284,1.07042c-3.82004,12.87545 -17.02513,21.79989 -36.13292,23.2218c-19.1078,1.42191 -26.21619,-7.82315 -26.5719,-13.63721c-0.35572,-5.81408 5.93238,-9.723 5.93238,-9.723c0,0 -1.09783,-4.36517 0.52782,-10.5172c0,0 1.37516,-9.56577 16.7493,-16.0194z" fill="#7e5765" fill-rule="evenodd" stroke-width="1.2" stroke-linecap="butt" stroke-linejoin="miter"/><path d="M256.96522,149.33908c8.25802,-1.65073 16.93067,-13.47637 26.23005,-4.93813c9.27284,8.44183 2.00675,25.37741 -22.65245,26.97902c-18.88843,1.46525 -26.24979,-7.19158 -26.60551,-13.00565c-0.35572,-5.81408 5.81916,-9.38068 5.81916,-9.38068c7.69097,-4.08765 10.13423,1.77416 17.20874,0.34545z" fill="#6f6fca" fill-rule="evenodd" stroke-width="0" stroke-linecap="butt" stroke-linejoin="miter"/><path d="M261.44091,146.75877c0.42462,1.54262 -2.96134,5.0676 -4.74986,5.35246c-1.56917,0.32819 -3.75845,-1.97331 -4.03357,-3.34966c-0.08936,-0.70144 1.9787,-1.47812 4.00339,-2.03542c1.92829,-0.53076 4.558,-1.1509 4.78006,0.03261z" fill="#000000" fill-rule="evenodd" stroke-width="1.2" stroke-linecap="round" stroke-linejoin="round"/><path d="M291.35028,139.32697c-2.45112,5.52469 -8.81398,8.89572 -8.81398,8.89572" fill="none" fill-rule="evenodd" stroke-width="1.2" stroke-linecap="round" stroke-linejoin="round"/><path d="M295.29856,149.88826c-5.3795,3.31681 -9.71681,3.40346 -9.71681,3.40346" fill="none" fill-rule="evenodd" stroke-width="1.2" stroke-linecap="round" stroke-linejoin="round"/><path d="M283.22652,128.95632l-43.13571,6.54452l-2.39238,-22.67503l47.79682,-6.27247l15.55749,16.33783l-4.54023,16.62366z" fill="#5d4262" fill-rule="nonzero" stroke-width="1.2" stroke-linecap="round" stroke-linejoin="miter"/><path d="M283.20384,128.75763l2.11547,-21.98283" fill="none" fill-rule="nonzero" stroke-width="0.75" stroke-linecap="round" stroke-linejoin="miter"/><path d="M292.3883,114.01837l-6.45016,-7.11308c0,0 14.82477,-5.45228 15.90737,-5.24173c1.21319,0.23596 -7.70709,27.65503 -7.70709,27.65503z" fill="#7e5765" fill-rule="nonzero" stroke-width="1.2" stroke-linecap="round" stroke-linejoin="miter"/></g><g fill="none" fill-rule="nonzero" stroke="none" stroke-width="1" stroke-linecap="butt" stroke-linejoin="miter" font-family="sans-serif" font-weight="normal" font-size="12" text-anchor="start"><g/><g/><g/></g></g><g fill-rule="nonzero" stroke="#000000" stroke-width="1.2" stroke-linejoin="miter"><path d="M288.00779,141.48211c-0.46209,6.3477 -6.76494,11.06196 -14.07779,10.52962c-7.31286,-0.53235 -12.86648,-6.10976 -12.40439,-12.45746c0.46209,-6.3477 6.76494,-11.06197 14.07779,-10.5296c7.31286,0.53235 12.86648,6.10976 12.40439,12.45747z" fill="#6f6fca" stroke-linecap="butt"/><path d="M274.05062,153.82713c0,0 -6.11183,0.00633 -11.18018,-5.23293" fill="none" stroke-linecap="round"/><path d="M288.28659,146.63661c-0.83276,1.84479 -3.11404,3.61208 -3.11404,3.61208" fill="none" stroke-linecap="round"/></g><g fill-rule="nonzero" stroke="#000000" stroke-width="1.2" stroke-linejoin="miter"><path d="M243.09118,132.75466c4.52266,-2.20956 9.38642,0.92229 10.86348,6.9952c1.47708,6.07291 -0.99188,12.78717 -5.51456,14.99672c-4.52266,2.20956 -9.38642,-0.92229 -10.86348,-6.99519c-1.47708,-6.07291 0.99187,-12.78717 5.51455,-14.99673z" fill="#6f6fca" stroke-linecap="butt"/><path d="M254.79226,148.86167c-2.22537,6.27284 -6.08949,7.68018 -6.08949,7.68018" fill="none" stroke-linecap="round"/><path d="M241.00518,155.63033c0,0 -1.77178,-1.19296 -2.64253,-2.79634" fill="none" stroke-linecap="round"/></g></g><path d="M249.89795,160.95282l23.06317,-3.83179l3.32505,16.77028l-22.31017,0.13376z" fill="#6f6fca" fill-rule="nonzero" stroke="#000000" stroke-width="1.2" stroke-linecap="round" stroke-linejoin="miter"/></g></g></svg>