<svg version="1.1" xmlns="http://www.w3.org/2000/svg" xmlns:xlink="http://www.w3.org/1999/xlink" width="88.47476" height="135.3138" viewBox="0,0,88.47476,135.3138"><g transform="translate(-191.51224,-91.39785)"><g stroke-miterlimit="10"><path d="M236.38301,170.78481c2.95438,1.24202 3.46618,4.27857 1.14313,6.78234c-0.52765,0.56871 -1.1562,1.06101 -1.84715,1.46772c-1.26944,1.84214 -6.65765,1.3922 -8.70741,1.80551c-7.70749,1.55411 -12.40023,1.0197 -18.90428,-2.29799c-2.65788,-1.35576 -4.06395,-3.63431 -1.14313,-6.78234c5.54423,-5.97555 11.70313,-0.74618 16.58624,-0.32202c2.61688,0.22732 12.34511,-2.56715 12.87261,-0.65322z" fill="#ffab19" fill-rule="nonzero" stroke="#000000" stroke-width="1.2" stroke-linecap="butt" stroke-linejoin="miter"/><g fill-rule="evenodd"><path d="M260.98334,192.22731c-2.23292,-2.63325 -9.66143,-3.86091 -10.0346,-4.82046c-0.36009,-0.81875 -1.09334,-2.59707 2.92494,-3.68032c4.01829,-1.08325 9.77462,2.78517 10.39018,3.29614c2.44918,1.90303 5.37311,4.33009 7.71062,8.08988c6.83254,10.86998 -1.45752,21.0137 -5.79965,20.13862c-4.26519,-0.81122 -0.39978,-8.12959 -1.50216,-15.41278c-0.44155,-3.22568 -2.16202,-5.69348 -3.68935,-7.61109z" fill="#ffab19" stroke="#001026" stroke-width="1.2" stroke-linecap="round" stroke-linejoin="round"/><path d="M265.84092,214.71406c-1.7944,-0.96964 -1.22106,-2.44316 -0.98317,-5.23484c0.49337,-3.09944 0.53512,-8.00334 0.53512,-8.00334c0,0 2.27216,3.05568 4.9738,3.0889c2.13838,0.08548 3.23574,-1.86279 3.52894,-2.52915c0.16997,1.83058 0.25143,4.23752 -1.21456,7.56932c-1.46602,3.3318 -4.91801,5.92479 -6.84014,5.10907z" fill="#ffffff" stroke="none" stroke-width="1" stroke-linecap="butt" stroke-linejoin="miter"/></g><g fill-rule="nonzero" stroke-linecap="butt" stroke-linejoin="miter"><path d="M246.09627,216.72657c0.38974,3.0889 -14.04018,9.27496 -14.04018,9.27496c0,0 -5.1182,-5.03427 -2.20021,-8.24024c1.35982,-1.49401 4.96497,-7.28986 4.99533,-8.88238c0.1064,-5.58045 -2.18925,-10.22876 0.14096,-15.5708c0.42926,-0.9841 1.28554,-3.21961 2.46426,-4.56464c0.93002,-2.50491 5.61965,-2.25169 7.66613,-0.18767c5.86533,5.91558 -1.27464,10.35091 0.97371,28.17078z" fill="#ffab19" stroke="#001026" stroke-width="1.2"/><g><path d="M233.21212,185.93506c-0.79055,-3.9607 3.26218,-9.06675 3.26218,-9.06675c0,0 -0.30204,-3.45861 1.29389,-5.60279c3.29895,-4.43227 18.17682,-2.79675 19.05474,5.25699c0.32941,3.02189 -1.64552,5.89433 -1.64552,5.89433c0,0 0.8498,5.7839 -0.40012,8.52135c-1.06308,2.32823 -7.97707,5.85451 -13.1721,4.09405c-0.53961,-0.18286 -1.04383,-0.38232 -1.51503,-0.59539" fill="#ffab19" stroke="#001026" stroke-width="1.2"/><path d="M240.54622,172.9223c3.40162,-1.8787 7.94097,1.99151 8.18082,5.94819c0.02895,0.47749 0.04931,1.03574 0.01193,1.5856c0.761,2.1367 -1.38174,6.44997 -3.02508,6.67742c-5.68864,0.78734 -12.17166,-6.1722 -7.12681,-10.09967c0.05975,-1.71842 0.79979,-3.47124 1.95912,-4.11154z" fill="#ffffff" stroke="none" stroke-width="0.5"/></g><path d="M248.40579,194.00803c0.89025,2.3584 0.1884,6.4401 0.1884,6.4401c0,0 -1.61814,7.98544 -2.37015,9.22878c-3.42281,5.6591 -14.44244,9.19551 -14.9072,0.25481c-0.10933,-2.10315 1.37732,-3.58941 2.28949,-5.28926c0.41591,-0.77508 1.90415,-8.32491 1.36955,-10.8055c-0.92961,-4.31352 -3.52138,-9.33109 -2.28064,-13.78334c2.20857,-7.9251 17.92075,1.91594 18.36046,2.72469" fill="#ffab19" stroke="#001026" stroke-width="1.2"/></g><g><g><g><g><path d="M215.47558,133.89255c0,0 -8.55109,-26.2315 -7.49263,-26.43301c1.42596,-0.27149 28.46152,5.46502 28.46152,5.46502" fill="#ffab19" fill-rule="nonzero" stroke="#001026" stroke-width="1.2" stroke-linecap="round" stroke-linejoin="miter"/><path d="M269.54105,126.51285l0.16399,-1.2142l4.95408,-1.23892l4.08439,4.49137l-1.04506,8.53061l-24.66172,12.76367z" fill="#9b7f41" fill-rule="nonzero" stroke="#001026" stroke-width="1.2" stroke-linecap="round" stroke-linejoin="miter"/><path d="M209.199,154.92425c0,0 -6.91851,1.99607 -12.51978,-0.27456" fill="none" fill-rule="evenodd" stroke="#001026" stroke-width="1.2" stroke-linecap="round" stroke-linejoin="round"/><path d="M210.53034,160.68598c0,0 -3.17978,2.95107 -9.35333,4.30296" fill="none" fill-rule="evenodd" stroke="#001026" stroke-width="1.2" stroke-linecap="round" stroke-linejoin="round"/><path d="M230.13954,120.97631c10.40364,-4.69103 41.35159,-3.38034 40.38459,24.55627c-0.0126,0.36421 -0.10943,0.72098 -0.20476,1.07616c-3.4818,12.97101 -16.44884,22.23794 -35.51289,24.15932c-19.06405,1.92142 -26.41192,-7.13447 -26.91966,-12.93723c-0.50774,-5.80277 5.67592,-9.87491 5.67592,-9.87491c0,0 -1.21166,-4.33497 0.25243,-10.52739c0,0 1.12437,-9.5985 16.32436,-16.45222z" fill="#ffab19" fill-rule="evenodd" stroke="#001026" stroke-width="1.2" stroke-linecap="butt" stroke-linejoin="miter"/><path d="M231.17791,148.14654c8.21201,-1.86628 16.57224,-13.91478 26.09185,-5.6228c9.49056,8.1963 2.6701,25.3162 -21.93873,27.56253c-18.84363,1.959 -26.42898,-6.50224 -26.93671,-12.30501c-0.50774,-5.80277 5.5717,-9.52973 5.5717,-9.52973c7.58139,-4.2875 10.17717,1.50836 17.21189,-0.10495z" fill="#ffffff" fill-rule="evenodd" stroke="none" stroke-width="1" stroke-linecap="butt" stroke-linejoin="miter"/><path d="M235.58458,145.44998c0.46485,1.53098 -2.82771,5.14337 -4.60817,5.47493c-1.56004,0.36916 -3.8088,-1.87431 -4.11984,-3.24295c-0.10767,-0.69886 1.93933,-1.52938 3.94874,-2.13947c1.91374,-0.58104 4.52631,-1.26976 4.77926,-0.09247z" fill="#001026" fill-rule="evenodd" stroke="#001026" stroke-width="1.2" stroke-linecap="round" stroke-linejoin="round"/><path d="M265.28921,137.23812c-2.3057,5.58692 -8.57818,9.1233 -8.57818,9.1233" fill="none" fill-rule="evenodd" stroke="#001026" stroke-width="1.2" stroke-linecap="round" stroke-linejoin="round"/><path d="M269.51254,147.69245c-5.29087,3.45643 -9.62442,3.65655 -9.62442,3.65655" fill="none" fill-rule="evenodd" stroke="#001026" stroke-width="1.2" stroke-linecap="round" stroke-linejoin="round"/><path d="M256.89688,127.08358l-42.94969,7.67101l-2.98491,-22.60466l47.61632,-7.52102l15.97968,15.92512l-4.10368,16.73679z" fill="#c58600" fill-rule="nonzero" stroke="#001026" stroke-width="1.2" stroke-linecap="round" stroke-linejoin="miter"/><path d="M258.40852,104.85488l-1.53955,22.03065" fill="none" fill-rule="nonzero" stroke="#001026" stroke-width="0.75" stroke-linecap="round" stroke-linejoin="miter"/><path d="M265.66462,111.91101l-6.63407,-6.94185c0,0 14.57413,7.7099 15.66184,7.89205c1.21895,0.20413 -6.87789,14.29899 -6.87789,14.29899z" fill="#ffab19" fill-rule="nonzero" stroke="#001026" stroke-width="1.2" stroke-linecap="round" stroke-linejoin="miter"/></g><path d="M194.32212,147.09106c-7.51812,-20.45789 4.76664,-43.79656 27.43879,-52.12841c22.67215,-8.33185 47.14618,1.49823 54.6643,21.95613c7.51812,20.45789 -4.76665,43.79656 -27.43879,52.12841c-22.67215,8.33185 -47.14619,-1.49823 -54.6643,-21.95612z" fill="none" fill-rule="nonzero" stroke="#ffffff" stroke-width="1.2" stroke-linecap="butt" stroke-linejoin="miter"/><path d="M257.44463,99.25165l0.37874,7.26941l-7.75685,3.03198l-9.46498,-2.97313l3.76107,-11.51444z" fill="#ffffff" fill-rule="nonzero" stroke="#001026" stroke-width="0" stroke-linecap="round" stroke-linejoin="miter"/><path d="M265.40035,111.59007l7.07058,1.46781l-7.04454,-1.22364" fill="#000000" fill-rule="nonzero" stroke="none" stroke-width="0" stroke-linecap="round" stroke-linejoin="miter"/></g><g stroke="#001026" stroke-linejoin="miter"><g fill="#000000" fill-rule="evenodd" stroke-width="1" stroke-linecap="butt" font-family="&quot;Times New Roman&quot;" font-weight="400" font-size="16" text-anchor="start"/><g fill="#000000" fill-rule="evenodd" stroke-width="1" stroke-linecap="butt" font-family="&quot;Times New Roman&quot;" font-weight="400" font-size="16" text-anchor="start"/><g fill="#ffffff" fill-rule="nonzero" stroke-width="1.2" stroke-linecap="round"><path d="M240.10188,156.04457c12.04084,-6.67657 9.63794,-12.92438 10.20034,-12.90424c1.03788,0.03719 5.75304,17.12167 -1.75795,21.47516c-7.22334,4.18675 -22.55518,-6.1976 -21.48692,-7.34804c0.58334,-0.62822 1.00369,5.45369 13.04453,-1.22288z"/></g></g></g><path d="M237.25306,142.84215l6.19686,-15.99723l14.22864,12.37622l-2.80143,1.13003l-10.36197,-9.20623l-3.74376,11.34887z" fill="#001026" fill-rule="nonzero" stroke="#001026" stroke-width="0" stroke-linecap="round" stroke-linejoin="miter"/><path d="M225.65792,146.16739l-6.06223,-9.09615l-4.72472,12.43623l-2.35139,0.01097l6.56655,-16.83118l9.20709,12.47469z" fill="#001026" fill-rule="nonzero" stroke="#001026" stroke-width="0" stroke-linecap="round" stroke-linejoin="miter"/></g><g fill-rule="nonzero" stroke="#000000" stroke-width="1.2" stroke-linejoin="miter"><path d="M212.22618,169.54819c0.96649,-4.70869 5.50674,-8.03207 10.14089,-7.42295c4.63415,0.6091 7.60737,4.92005 6.64088,9.62873c-0.96649,4.70869 -5.50672,8.03206 -10.14088,7.42295c-4.63415,-0.6091 -7.60737,-4.92003 -6.64088,-9.62873z" fill="#5c5e5f" stroke-linecap="butt"/><g stroke-linecap="round"><path d="M211.67963,174.72987l-4.15417,2.60609l-2.00665,-1.13933l-4.36325,-0.5735l0.26653,-3.81755z" fill="#ffab19"/><path d="M216.57508,171.87098l-5.17543,4.22302l-3.85262,-1.38196l-1.54536,-0.028l-3.51699,-1.33787l-1.07691,0.20868l-2.90853,-1.78323l0.62373,-6.39734l4.21071,-5.40052l12.77478,3.25515z" fill="#ffab19"/><path d="M211.0021,171.31358l-2.76945,1.7374" fill="none"/><path d="M206.54819,169.50236l-3.28007,2.54586" fill="none"/></g><path d="M200.73739,169.26394l-3.7198,-1.18941l-0.2369,-3.88372l2.97944,-2.76049l2.88072,1.07912l0.90818,3.97194z" fill="#5c5e5f" stroke-linecap="round"/></g><path d="M257.46031,167.6921c1.02974,0.83581 1.33638,1.45419 1.53844,2.1756c0.13454,0.35607 0.22935,0.73049 0.27944,1.11739c0.04242,0.15697 0.09064,0.32184 0.14806,0.49639c0.18008,0.54743 0.05138,2.20207 0.32926,1.69721c2.0489,-3.72266 4.0748,-13.52721 10.66325,-9.49959c1.43307,0.87606 2.03496,2.7821 2.42882,4.41491c0.38985,1.61616 -2.78516,6.33993 -3.53031,7.82826c-1.57728,3.15034 -2.02058,9.42649 -5.61498,11.40072c-7.83465,4.3032 -13.16139,-7.52338 -14.0013,-13.77186c-0.29887,-0.71757 -0.43433,-1.51567 -0.36373,-2.34374c0.23458,-2.75144 2.65523,-4.79176 5.40667,-4.55719c0.44286,0.03776 0.86731,0.13215 1.26681,0.27544c0.52149,0.15963 1.0138,0.41274 1.44958,0.76645z" fill="#ffab19" fill-rule="nonzero" stroke="#000000" stroke-width="1.2" stroke-linecap="butt" stroke-linejoin="miter"/><g fill-rule="nonzero" stroke-linejoin="miter"><path d="M278.05525,164.40753c0,0 1.02093,8.47039 -5.11148,10.6915c-5.17711,1.87511 -13.29209,-1.24174 -13.29209,-1.24174c0,0 -4.65008,0.09958 -4.686,-3.84805c-0.04758,-5.23078 4.86323,-4.36482 4.86323,-4.36482l-0.34933,-2.44125c0,0 -3.38113,-8.38014 1.97626,-10.70038c1.99763,-0.86517 5.35659,1.46358 5.35659,1.46358c0,0 2.34313,-0.94927 4.34751,-0.92129c1.52836,0.02133 3.63055,2.69768 3.63055,2.69768c0,0 2.52041,-0.85423 3.85598,1.71236c1.9602,3.76695 -0.59123,6.95242 -0.59123,6.95242z" fill="#ffab19" stroke="#001026" stroke-width="1.2" stroke-linecap="round"/><path d="M267.31794,156.48943l0.08509,3.99644" fill="none" stroke="#001026" stroke-width="1.2" stroke-linecap="round"/><path d="M274.95688,158.4132l0.40198,1.51935" fill="none" stroke="#001026" stroke-width="1.2" stroke-linecap="round"/><path d="M266.51369,158.38896c0.18889,2.28292 -0.83437,4.23979 -2.28552,4.37078c-1.45115,0.13099 -2.78066,-1.61349 -2.96955,-3.89641c-0.18888,-2.28292 0.83437,-4.23979 2.28552,-4.37078c1.45115,-0.13099 2.78066,1.61349 2.96955,3.89641z" fill="#ffffff" stroke="none" stroke-width="0" stroke-linecap="butt"/><path d="M273.61347,158.7774c-0.06563,1.83285 -1.15106,3.28772 -2.42439,3.24952c-1.27332,-0.03819 -2.25236,-1.55498 -2.18672,-3.38783c0.06563,-1.83285 1.15106,-3.28772 2.42439,-3.24952c1.27332,0.03819 2.25236,1.55498 2.18672,3.38783z" fill="#ffffff" stroke="none" stroke-width="0" stroke-linecap="butt"/><path d="M278.31063,160.14796c0.05873,1.55708 -0.40974,2.84239 -1.04635,2.87079c-0.63662,0.0284 -1.20031,-1.21084 -1.25904,-2.76793c-0.05873,-1.55708 0.40974,-2.84239 1.04635,-2.87079c0.63662,-0.0284 1.20031,1.21084 1.25904,2.76793z" fill="#ffffff" stroke="none" stroke-width="0" stroke-linecap="butt"/><path d="M259.70249,173.02854c-1.18089,-0.06598 -2.05403,-1.49237 -1.95022,-3.18591c0.10382,-1.69354 1.14527,-3.01293 2.32617,-2.94694c1.18089,0.06598 0.80495,6.19884 -0.37595,6.13284z" fill="#ffffff" stroke="none" stroke-width="0" stroke-linecap="butt"/><path d="M276.28715,169.01985c-0.21097,3.44147 -2.68335,4.18066 -6.11528,4.40661c-3.43193,0.22595 -6.52382,-0.1469 -6.31286,-3.58837c0.10403,-1.69697 2.66264,-1.59594 3.82878,-2.79193c1.1988,-1.22949 1.02761,-3.73398 2.76729,-3.84853c2.03454,-0.13395 1.79561,2.2597 2.83626,3.70053c0.71475,0.98961 3.08172,0.7204 2.99582,2.12168z" fill="#ffffff" stroke="none" stroke-width="0" stroke-linecap="butt"/></g></g></g></svg>