<svg version="1.1" xmlns="http://www.w3.org/2000/svg" xmlns:xlink="http://www.w3.org/1999/xlink" width="159.81676" height="159.81675" viewBox="0,0,159.81676,159.81675"><g transform="translate(-160.09162,-100.09162)"><g stroke-miterlimit="10"><path d="M230.91497,231.33786c-0.5127,2.66603 -1.28187,5.7075 -3.68159,5.33831c-2.39972,-0.36918 -1.46474,-4.20128 -1.10448,-6.07462c0.36026,-1.87335 1.16451,-3.77149 2.94528,-3.49752c1.78077,0.27396 2.35349,1.56781 1.84079,4.23383z" fill="#ff0000" stroke="#ffe8e8" stroke-width="5" stroke-linecap="round"/><path d="M239.01448,221.58164c1.39083,-0.26078 1.38649,1.63366 1.47263,3.31343c0.08615,1.67977 0.38061,3.58723 -1.10447,3.86568c-1.48508,0.27846 -1.75355,-1.61214 -1.8408,-3.31343c-0.08725,-1.70129 0.08181,-3.60489 1.47264,-3.86567z" fill="#ff0000" stroke="#ffe8e8" stroke-width="5" stroke-linecap="round"/><path d="M253.00453,230.41746c0.81213,2.32811 1.82324,4.97813 -0.18408,5.89055c-2.00731,0.91242 -3.32645,-2.50398 -3.86567,-4.04975c-0.53922,-1.54577 -0.16536,-3.28847 1.10448,-3.86567c1.26984,-0.57721 2.13314,-0.30323 2.94527,2.02487z" fill="#ff0000" stroke="#ffe8e8" stroke-width="5" stroke-linecap="round"/><path d="M234.78065,210.53687c0.36814,-2.57696 2.14054,2.47665 4.60199,2.57711c2.46145,0.10047 4.69899,-4.17648 4.41791,-2.20896c-0.28108,1.96753 -2.09425,4.89594 -4.78607,4.78607c-2.69182,-0.10987 -4.60197,-2.57726 -4.23383,-5.15423z" fill="#ff0000" stroke="#ffe8e8" stroke-width="5" stroke-linecap="round"/><path d="M230.91497,231.33785c-0.5127,2.66603 -1.28187,5.7075 -3.68159,5.33831c-2.39972,-0.36918 -1.46474,-4.20128 -1.10448,-6.07462c0.36026,-1.87335 1.16451,-3.77149 2.94528,-3.49752c1.78077,0.27396 2.35349,1.56781 1.84079,4.23383z" fill="#ff0000" stroke="#000000" stroke-width="0" stroke-linecap="round"/><path d="M239.01448,221.58163c1.39083,-0.26078 1.38649,1.63366 1.47263,3.31343c0.08615,1.67977 0.38061,3.58723 -1.10447,3.86568c-1.48508,0.27846 -1.75355,-1.61214 -1.8408,-3.31343c-0.08725,-1.70129 0.08181,-3.60489 1.47264,-3.86567z" fill="#ff0000" stroke="#000000" stroke-width="0" stroke-linecap="round"/><path d="M253.00453,230.41745c0.81213,2.32811 1.82324,4.97813 -0.18408,5.89055c-2.00731,0.91242 -3.32645,-2.50398 -3.86567,-4.04975c-0.53922,-1.54577 -0.16536,-3.28847 1.10448,-3.86567c1.26984,-0.57721 2.13314,-0.30323 2.94527,2.02487z" fill="#ff0000" stroke="#000000" stroke-width="0" stroke-linecap="round"/><path d="M234.78065,210.53686c0.36814,-2.57696 2.14054,2.47665 4.60199,2.57711c2.46145,0.10047 4.69899,-4.17648 4.41791,-2.20896c-0.28108,1.96753 -2.09425,4.89594 -4.78607,4.78607c-2.69182,-0.10987 -4.60197,-2.57726 -4.23383,-5.15423z" fill="#ff0000" stroke="#000000" stroke-width="0" stroke-linecap="round"/><path d="M160.09163,259.90837v-159.81675h159.81676v159.81675z" fill="none" stroke="#ffe8e8" stroke-width="0" stroke-linecap="butt"/></g></g></svg>