<svg version="1.1" xmlns="http://www.w3.org/2000/svg" xmlns:xlink="http://www.w3.org/1999/xlink" width="251.73636" height="218.63519" viewBox="0,0,251.73636,218.63519"><g transform="translate(-113.52426,-73.35063)"><g stroke-miterlimit="10"><g fill-rule="evenodd"><path d="M198.65273,187.50048c1.79664,-1.19169 3.87991,-2.81096 4.91523,-5.55907c2.43604,-6.16802 0.23976,-14.10368 4.37949,-13.34315c4.2239,0.72995 10.00646,12.75396 1.52658,20.14693c-2.90904,2.56613 -6.10826,3.7282 -8.76295,4.58466c-0.67353,0.24464 -6.79616,1.71386 -10.33941,-0.66501c-3.54325,-2.37885 -2.51505,-3.72271 -2.02067,-4.33357c0.53379,-0.73299 7.70799,0.75828 10.30176,-0.83079z" fill="#ffab19" stroke="#b83312" stroke-width="1.2" stroke-linecap="round" stroke-linejoin="round"/><path d="M207.53185,168.96487c1.95252,-0.06229 4.67537,3.47711 5.40092,6.98728c0.72555,3.51016 0.18461,5.64739 -0.32766,7.23512c-0.14511,-0.70203 -0.7936,-2.83852 -2.80705,-3.50883c-2.52933,-0.9142 -5.24132,1.04126 -5.24132,1.04126c0,0 0.9081,-4.42701 1.04597,-7.38822c0.317,-2.595 0.0662,-4.12121 1.92915,-4.36661z" fill="#ffffff" stroke="none" stroke-width="1" stroke-linecap="butt" stroke-linejoin="miter"/></g><g><path d="M181.97204,137.74959c0,0 0.9217,-28.99947 1.99862,-29.03404c1.45084,-0.04656 21.97434,11.57985 21.97434,11.57985" fill="#ffab19" fill-rule="nonzero" stroke="#b83312" stroke-width="1.2" stroke-linecap="round" stroke-linejoin="miter"/><path d="M233.51625,137.89313l10.04736,20.48437l-2.68922,5.5577l-30.53836,0.18004z" fill="#9b7f41" fill-rule="nonzero" stroke="#7d5034" stroke-width="1.2" stroke-linecap="round" stroke-linejoin="miter"/><path d="M170.09586,151.72144c0,0 -7.78774,-0.03492 -10.05052,-4.54942" fill="none" fill-rule="evenodd" stroke="#929292" stroke-width="1.2" stroke-linecap="round" stroke-linejoin="round"/><path d="M169.72614,157.60747c0,0 -4.80071,3.45459 -10.00213,0.42673" fill="none" fill-rule="evenodd" stroke="#929292" stroke-width="1.2" stroke-linecap="round" stroke-linejoin="round"/><path d="M195.45408,126.30003c11.0063,-3.01707 41.37448,3.08768 36.07726,30.53452c-0.06906,0.35783 -0.22015,0.69521 -0.36953,1.03125c-5.45546,12.27224 -19.70523,19.41119 -38.83624,18.34628c-19.13102,-1.06491 -25.2242,-12.47258 -24.82388,-18.28375c0.56976,-8.17718 7.42168,-9.92105 7.42168,-9.92105c0,0 -0.56108,-2.10247 1.84768,-7.99211c0,0 2.60252,-9.30711 18.68303,-13.71512z" fill="#ffab19" fill-rule="evenodd" stroke="#b83312" stroke-width="1.2" stroke-linecap="butt" stroke-linejoin="miter"/><path d="M220.11079,150.50559c8.10135,9.57174 -2.50215,26.72025 -27.16106,25.11451c-18.9191,-0.99352 -25.15141,-11.8408 -24.93899,-17.66187c0.03719,-7.79092 7.26509,-9.59625 7.26509,-9.59625c8.15563,-3.05708 9.56647,2.40977 16.76645,1.9094c7.19998,-0.50038 19.95333,-9.43656 28.06851,0.23422z" fill="#ffffff" fill-rule="evenodd" stroke="none" stroke-width="1" stroke-linecap="butt" stroke-linejoin="miter"/><path d="M196.09788,148.87538c-0.09789,1.35886 -4.46638,3.57722 -6.26079,3.44813c-1.59979,-0.04869 -2.934,-2.39272 -2.74797,-3.58398c0.1432,-0.59677 2.36357,-0.81646 4.47132,-0.86402c2.00739,-0.04529 4.71125,-0.02154 4.53745,0.99989z" fill="#001026" fill-rule="evenodd" stroke="#001026" stroke-width="1.2" stroke-linecap="round" stroke-linejoin="round"/><path d="M227.31972,143.74252c-2.10616,5.96688 -9.11305,8.34964 -9.11305,8.34964" fill="none" fill-rule="evenodd" stroke="#929292" stroke-width="1.2" stroke-linecap="round" stroke-linejoin="round"/><path d="M229.47637,154.4568c-4.33762,3.9309 -9.57689,3.835 -9.57689,3.835" fill="none" fill-rule="evenodd" stroke="#929292" stroke-width="1.2" stroke-linecap="round" stroke-linejoin="round"/><path d="M222.81679,134.15311l-26.34861,-0.93093l-18.0755,2.74173l5.424,-22.18977l19.80271,-0.80265l27.71664,2.60498l13.31037,18.2152l-11.82388,18.18164z" fill="#c58600" fill-rule="nonzero" stroke="#aa5300" stroke-width="1.2" stroke-linecap="round" stroke-linejoin="miter"/><path d="M222.81372,134.34786l8.14362,-18.45861" fill="none" fill-rule="nonzero" stroke="#aa5300" stroke-width="0.75" stroke-linecap="round" stroke-linejoin="miter"/><path d="M238.14354,125.31895l-5.47455,-7.88857c0,0 17.19956,-0.43087 18.24575,-0.08188c1.17243,0.39108 -13.0175,23.36848 -13.0175,23.36848z" fill="#ffab19" fill-rule="nonzero" stroke="#b83312" stroke-width="1.2" stroke-linecap="round" stroke-linejoin="miter"/><path d="M213.34092,144.38205c-2.94407,4.00866 -7.3259,5.31363 -10.64959,3.62194c-2.11988,-1.32063 -2.75235,-4.57343 -1.54059,-7.84071c4.60055,-1.68603 9.19644,-3.4966 13.75784,-5.33074c1.42737,2.45953 0.84829,6.36734 -1.56766,9.54952z" fill="#ffffff" fill-rule="evenodd" stroke="#929292" stroke-width="1.2" stroke-linecap="round" stroke-linejoin="round"/><path d="M186.87746,133.34844c2.64072,1.95717 2.77198,7.12282 0.47202,11.14424c-2.21844,4.02026 -5.73305,5.3391 -8.52132,3.65597c-2.29915,-1.69002 -2.741,-6.5793 -0.52257,-10.59957c1.42067,-2.57456 3.45204,-4.41416 5.42419,-4.86648c1.10743,-0.254 2.1962,-0.07055 3.14768,0.66583z" fill="#ffffff" fill-rule="evenodd" stroke="#929292" stroke-width="1.2" stroke-linecap="round" stroke-linejoin="round"/><path d="M204.92522,144.58498c-0.15209,-1.08943 0.51576,-2.0914 1.50615,-2.22967c0.9904,-0.13827 1.90717,0.64245 2.05926,1.73188c0.15209,1.08943 -0.51577,2.09141 -1.50614,2.22967c-0.9904,0.13827 -1.90716,-0.64245 -2.05925,-1.73188" fill="#001026" fill-rule="evenodd" stroke="none" stroke-width="1" stroke-linecap="butt" stroke-linejoin="miter"/><path d="M181.75977,144.87242c-0.15209,-1.08943 0.51577,-2.09141 1.50615,-2.22967c0.9904,-0.13827 1.90716,0.64245 2.05926,1.73188c0.15209,1.08943 -0.51577,2.09141 -1.50614,2.22967c-0.9904,0.13827 -1.90717,-0.64245 -2.05926,-1.73188" fill="#001026" fill-rule="evenodd" stroke="none" stroke-width="1" stroke-linecap="butt" stroke-linejoin="miter"/><path d="M229.99306,130.12012c0.79704,-1.847 -29.79657,10.44309 -29.79657,10.44309l-2.75395,-1.40513l2.01762,-2.73123l-1.69557,-0.94829" fill="none" fill-rule="nonzero" stroke="#001026" stroke-width="1.2" stroke-linecap="round" stroke-linejoin="miter"/><path d="M209.24053,156.62344c0,0 -1.51119,3.5356 -7.28852,3.17331c-5.77734,-0.36229 -10.4752,-2.48744 -13.90981,-2.45962c-3.43461,0.02782 -5.56829,2.5027 -7.93792,2.63654c-1.89678,0.10714 -2.60599,-1.62083 -2.60599,-1.62083" fill="none" fill-rule="nonzero" stroke="#001026" stroke-width="1.2" stroke-linecap="round" stroke-linejoin="miter"/><path d="M208.69109,156.9084c0.28489,-1.60303 0.13538,-2.4058 0.13538,-2.4058c0,0 1.33875,1.35471 0.9918,2.24904" fill="#001026" fill-rule="nonzero" stroke="#000000" stroke-width="0" stroke-linecap="round" stroke-linejoin="miter"/></g><g fill-rule="nonzero" stroke-linejoin="miter"><g stroke-width="1.2" stroke-linecap="round"><path d="M321.66657,137.13216c0,0 9.76261,-8.04454 10.29295,-8.41264c0.53022,-0.36734 4.62409,-4.06446 14.6947,-3.80403c0,0 -10.88421,27.73339 -26.64421,31.74388c0,0 2.7074,-8.00701 1.65656,-19.52721zM321.68872,137.3758c-0.06788,-0.95013 -0.45441,-2.67293 -0.45441,-2.67293M318.95411,158.74924c0,0 0.78412,-1.28421 1.05588,-2.08987" fill="#be1e2d" stroke="#6f121b"/><path d="M326.59329,153.15915c0,0 -1.28976,-1.422 -0.85399,-5.27735c0.29046,-2.6061 1.86325,-6.41746 1.86325,-6.41746c0.76484,-0.65148 1.58542,-1.42552 2.35575,-2.29757c1.30489,-1.47493 2.91821,-3.74715 4.42417,-6.00199l0.22651,-0.30727c0,0 3.65765,-3.91841 9.87431,-3.40402l0.06425,0.05205c-1.98508,4.15779 -5.1077,10.21801 -8.13577,14.20114c-3.39632,4.46715 -6.98862,7.51431 -9.94095,9.5227z" fill="#929497" stroke="#4a4b4c"/></g><path d="M299.66744,176.66831l-11.52902,5.14628l-21.96842,-5.20461l-10.22493,1.70944l-12.99476,-7.61505l-4.26591,-8.95248l-3.08799,-10.21252l-0.46242,-11.97677l3.08439,-10.91977l4.69705,-7.72859l6.27545,-7.13913l7.68588,-5.94748l8.29426,-4.96293l8.93707,-4.24195l6.08609,-2.18789l2.87353,-1.95449l3.46748,-3.52774l2.60963,-3.61356l2.67001,-5.09564l1.40971,-7.42824l2.92149,6.134l2.7253,7.6361l1.02566,-3.46806l0.43492,2.15125l2.0942,6.98694l3.65741,7.07685l2.68056,3.59369l3.88926,5.30163l4.74784,6.40163l3.95621,6.98146l2.93713,7.11046l2.14551,7.6903l1.21559,7.13654l-0.7691,6.98486l-1.33104,6.90251l-2.45278,5.62481l-4.01817,6.64792l-3.78412,3.75968l-6.09216,4.81015z" fill="#be1e2d" stroke="#8c8c8c" stroke-width="0" stroke-linecap="round"/><path d="M309.09483,180.36681l-9.49113,-3.64177l-11.54981,5.29216l-21.84722,-5.42803l-10.22242,1.66862l-12.48407,-6.78603c0,0 -34.06028,-49.67048 36.29308,-74.6157c0,0 13.13844,-7.45672 13.18126,-22.83463c0.00348,-1.25074 5.73693,14.48434 5.73693,14.48434c0,0 1.09388,-4.78088 1.14999,-4.13221c0.62165,7.18878 6.55855,17.71904 6.55855,17.71904c41.88365,47.05163 8.44568,74.34981 8.44568,74.34981z" fill="none" stroke="#6f121b" stroke-width="1.2" stroke-linecap="round"/><g><path d="M320.68057,156.90328c-1.81809,14.55161 -18.6342,24.42602 -37.55984,22.05509c-18.92564,-2.37092 -32.79406,-16.08936 -30.97595,-30.64099c1.81809,-14.55161 18.63419,-24.42602 37.55984,-22.05509c18.92564,2.37092 32.79405,16.08936 30.97595,30.64098z" fill="#e6e7e8" stroke="#7a7a7b" stroke-width="1.2" stroke-linecap="butt"/><path d="M261.37798,172.7504l1.35387,2.88363l2.0726,2.18572l-1.73081,0.13335l-3.69039,-1.51289l-3.10623,-2.57786l-1.03086,-2.58051l-3.77377,-3.01167l-2.72938,-2.70574l-0.35978,2.17522c-2.79011,-9.63774 -8.51818,-20.22882 -3.56346,-31.73152c29.74156,-21.75301 71.46539,-19.10456 79.51996,13.13883c0.1077,0.43116 0.20327,0.85872 0.28719,1.28284c-0.00752,0.60733 -0.04187,1.16873 -0.11297,1.66873c-0.80412,5.656 -2.33463,11.07564 -3.62097,16.67328c-0.08475,0.3688 -0.23784,0.76721 -0.43255,1.17964l-1.02035,1.03723l0.02933,-1.35704l-3.07092,4.37777l-5.07488,3.58243l-2.92859,0.99383l0.8996,-3.83335l0.80761,-5.34166l0.12146,-4.33905l-0.94967,-0.25504l0.58157,-1.28785l1.64426,-3.05971l0.60675,-3.73397l-0.03333,-4.22237l-2.38036,-4.51639l-4.62276,-4.52519l-6.53473,-3.8122l-7.91118,-2.89608l1.93699,1.33123l2.84059,3.07728l1.25499,3.42291l-14.68439,-5.92174l-14.11542,-5.98652l-1.02508,2.593l-3.30941,5.1643l-3.12115,4.77969l-0.61933,4.95704l1.74443,5.11709l3.15436,3.93299l-2.9662,0.1727l-2.48509,-0.31132l-0.40175,3.21538l1.08344,3.67358l1.40978,3.30623l1.73613,2.93891z" fill="#be1e2d" stroke="#8c8c8c" stroke-width="0" stroke-linecap="butt"/><path d="M267.34316,132.5073c-2.36093,7.07545 -7.22613,10.11258 -7.70097,13.97049c-0.97735,7.94089 4.86028,12.35367 4.86028,12.35367c0,0 -5.19161,1.66031 -10.01367,-2.62602" fill="none" stroke="#6f121b" stroke-width="1.2" stroke-linecap="round"/><path d="M251.87964,147.86327c-0.36587,-1.57095 -0.66404,-3.35134 -0.87603,-5.36792" fill="none" stroke="#6f121b" stroke-width="1.2" stroke-linecap="round"/><path d="M262.05586,129.37992c12.71246,7.32519 34.61285,14.77617 34.61285,14.77617c0,0 -1.60724,-4.41505 -6.24122,-7.45189c0,0 31.81898,7.69667 18.13947,28.22747c0,0 3.51494,-1.0769 6.3499,-3.99795" fill="none" stroke="#6f121b" stroke-width="1.2" stroke-linecap="round"/><path d="M318.26387,153.09645c-0.10543,1.66879 -0.12856,2.4486 -0.72068,3.71447" fill="none" stroke="#6f121b" stroke-width="1.2" stroke-linecap="round"/><path d="M318.53082,170.09492c-2.80019,5.81923 -10.59288,8.24298 -10.59288,8.24298c0,0 2.47252,-8.68936 1.71236,-13.70549" fill="none" stroke="#6f121b" stroke-width="1.2" stroke-linecap="round"/><path d="M251.47948,147.54018c-5.14157,6.23787 -2.93856,19.9319 -2.93856,19.9319c0,0 -10.40628,-22.00513 -3.09365,-32.31457" fill="none" stroke="#6f121b" stroke-width="1.2" stroke-linecap="round"/><path d="M321.49777,168.60698c-1.64999,1.94579 -2.85108,2.95246 -2.85108,2.95246c0,0 2.44554,-8.67255 -1.15865,-14.64517" fill="none" stroke="#6f121b" stroke-width="1.2" stroke-linecap="round"/><path d="M259.11699,158.88178c-2.0837,5.96963 3.87374,13.2453 3.87374,13.2453c0,0 -9.73348,0.54761 -14.49333,-7.18066" fill="none" stroke="#6f121b" stroke-width="1.2" stroke-linecap="round"/><path d="M260.88798,172.12177c0.52554,3.1406 4.03013,5.71431 4.03013,5.71431c0,0 -7.75171,0.40492 -10.33258,-7.23077" fill="none" stroke="#6f121b" stroke-width="1.2" stroke-linecap="round"/></g><g fill="#000000" stroke="none" stroke-width="0.5" stroke-linecap="butt"><path d="M307.29638,153.05603c0.49768,0.03159 0.70871,0.82671 0.79397,1.16208c0.31968,1.25749 0.14724,2.66441 -0.80183,3.40915l-0.37441,-0.00011c-0.16988,0.03856 -0.40609,0.01967 -0.72677,-0.08127c-2.69805,-0.84932 -5.05948,-1.64951 -7.87266,-1.2401c-0.80709,0.11746 -2.29986,1.08118 -2.97281,1.0598c-0.86318,-0.02741 -1.15609,-0.3139 -1.23022,-1.20322c-0.07235,-0.86781 1.5522,-1.21663 2.14035,-1.37358c2.04759,-0.54642 4.30268,-0.58995 6.50429,-0.26617c0.49402,-0.35094 0.78912,-0.8363 1.13185,-1.43909c0.09858,-0.17338 0.50208,-0.84484 0.58408,-0.8385c0.92103,0.07144 0.91701,1.64425 0.7553,2.77897c0.23717,0.06452 0.47631,0.13782 0.69481,0.21939c0.4662,-0.90797 1.01788,-2.20998 1.37403,-2.18737z"/><path d="M272.00104,152.66613c0.1997,-0.06749 0.41889,-0.12346 0.63665,-0.16986c-0.19679,-1.28461 -0.265,-3.04137 0.58792,-3.02155c0.07594,0.00176 0.47842,0.79519 0.57713,0.99947c0.34318,0.7102 0.6373,1.28408 1.11075,1.72938c2.03254,-0.12351 4.12984,0.16897 6.05494,1.00052c0.55297,0.23884 2.07684,0.804 2.0452,1.76525c-0.03243,0.98507 -0.29287,1.27332 -1.09384,1.2106c-0.62444,-0.0489 -2.05111,-1.28644 -2.80589,-1.50486c-2.63089,-0.76135 -4.79242,-0.12315 -7.26473,0.53356c-0.29386,0.07806 -0.51257,0.07365 -0.67201,0.0122l-0.34792,-0.04039c-0.91242,-0.93425 -1.13033,-2.52395 -0.88483,-3.8936c0.06548,-0.36527 0.22901,-1.23036 0.69015,-1.21183c0.33002,0.01327 0.89602,1.52683 1.36647,2.59114z"/></g><path d="M312.62665,169.81355" fill="none" stroke="#000000" stroke-width="1.2" stroke-linecap="round"/><g stroke-width="1.2" stroke-linecap="round"><path d="M240.26026,152.29524c-13.53023,-6.43479 -16.62088,-36.7439 -16.62088,-36.7439c9.35299,1.18675 12.20245,5.60951 12.59945,6.0668c0.39691,0.45808 7.38539,10.20515 7.38539,10.20515c-3.85506,11.78421 -3.36396,20.47195 -3.36396,20.47195zM244.63144,129.36882c0,0 -0.78806,1.7291 -1.08868,2.70373M240.26026,152.29524c0.04882,0.87405 0.45026,2.31805 0.45026,2.31805" fill="#be1e2d" stroke="#6f121b"/><path d="M235.16091,147.80693c-2.2197,-2.50796 -4.76943,-6.1847 -6.78265,-11.3044c-1.79487,-4.56493 -3.15662,-11.29564 -3.94583,-15.89069l0.07228,-0.04464c5.86227,0.36619 8.25399,4.95515 8.25399,4.95515l0.13192,0.35113c0.82406,2.55408 1.74277,5.1417 2.57673,6.85861c0.49199,1.01496 1.05488,1.93564 1.59706,2.72129c0,0 0.49574,4.17645 0.11077,6.91868c-0.56391,4.05761 -2.10963,5.3444 -2.10963,5.3444z" fill="#929497" stroke="#4a4b4c"/></g><path d="M268.55896,154.29708c0,0 2.91711,0.17548 4.53084,2.01824" fill="none" stroke="#000000" stroke-width="1.2" stroke-linecap="round"/><path d="M304.75647,158.06349c1.57474,-1.14737 3.31745,-0.66209 3.31745,-0.66209" fill="none" stroke="#000000" stroke-width="1.2" stroke-linecap="round"/><path d="M294.99528,168.74784c-3.17266,1.00261 -5.74479,-0.32206 -10.8825,-1.20982c-5.13771,-0.88777 -10.05306,0.63288 -12.66239,-2.85861" fill="none" stroke="#000000" stroke-width="1.2" stroke-linecap="round"/></g><g fill-rule="nonzero" stroke-width="1.2" stroke-linejoin="miter"><path d="M186.50228,181.89106c-2.10048,3.04733 -2.40232,6.406 -4.68491,9.17423c-5.06848,6.14684 -12.21281,2.42877 -14.52672,-2.32007c-1.3757,-2.82333 0.17627,-6.77811 3.69405,-7.82354c2.67524,-0.79504 5.91093,1.82086 6.26734,1.71675c0.04652,-0.01359 5.35313,-11.50365 9.46238,-8.2092c3.23042,2.5899 0.16545,6.91406 -0.21212,7.46184z" fill="#ffab19" stroke="#b83312" stroke-linecap="butt"/><g><path d="M162.97371,179.30346l1.06754,-4.17144l5.91419,0.2274l3.09886,4.09761l-4.09578,4.19397" fill="#ffab19" stroke="#b83312" stroke-linecap="round"/><path d="M147.6062,179.16538c0.18846,-4.93729 4.02206,-8.97615 8.5626,-9.02105c4.54055,-0.04489 8.06862,3.92116 7.88017,8.85844c-0.18846,4.93729 -4.02205,8.97615 -8.56261,9.02105c-4.54055,0.04489 -8.06862,-3.92116 -7.88018,-8.85844z" fill="#5c5e5f" stroke="#2c2d2d" stroke-linecap="butt"/><path d="M156.49765,183.55311l3.63985,-7.30138l2.20021,-11.53607l2.85914,-1.31177l2.69891,1.32363l0.43828,3.02601l-1.18917,2.60477l-1.82451,7.28937l4.19445,0.41714l1.57252,1.53948l2.62964,-9.70948l3.15337,-0.84356l1.72822,2.17159l0.06107,4.05178l-1.58572,2.38661l-1.84485,6.31654l0.71864,3.61764l-4.35849,3.68373l-11.08749,-2.40876z" fill="#ffab19" stroke="#b83312" stroke-linecap="round"/><path d="M173.59319,182.7122l3.57368,1.33405l0.23465,4.05125l-2.85554,2.79901l-2.76786,-1.1977l-0.87933,-4.16032z" fill="#5c5e5f" stroke="#2c2d2d" stroke-linecap="round"/><path d="M164.13223,178.90921l-1.6362,1.00485" fill="none" stroke="#f77a19" stroke-linecap="round"/><path d="M168.67419,182.06769l1.32117,-1.00963" fill="none" stroke="#f77a19" stroke-linecap="round"/></g></g><g><path d="M202.25406,185.58553c-0.91385,-0.89856 -2.09309,-2.35464 -3.29958,-3.71669c-2.01993,-2.23875 -4.54469,-6.78633 0.96764,-7.38579c4.42622,-0.53597 7.2782,2.88339 10.75137,6.7378c1.7459,2.07916 3.81173,4.52781 2.06254,7.24565c-1.95868,3.07206 -9.60657,11.40284 -14.6321,7.01066c-3.52771,-3.66639 0.84129,-6.21387 3.81427,-8.36549c0.43764,-0.40452 0.5008,-0.99048 0.33585,-1.52613z" fill="#ffab19" fill-rule="evenodd" stroke="#b83312" stroke-width="1.2" stroke-linecap="round" stroke-linejoin="round"/><path d="M187.95363,199.31716c-11.79198,-0.83631 -8.58831,-11.18855 -7.93653,-14.1703c1.16428,-5.32637 2.11476,-8.7283 4.19027,-11.18681c3.38241,-4.0066 16.07394,-4.12129 19.35585,2.00621c2.71289,5.06513 -2.15584,13.74746 -2.15584,13.74746c0,0 3.63876,10.81568 -13.45375,9.60343z" fill="#ffab19" fill-rule="nonzero" stroke="#b83312" stroke-width="1.2" stroke-linecap="butt" stroke-linejoin="miter"/><path d="M188.02946,192.56747c-8.10911,-0.23241 -3.3378,-17.94857 3.6767,-17.60827c3.12246,0.15148 5.10824,3.3248 4.37001,8.39687c-0.87092,5.98386 -2.86907,9.35981 -8.04672,9.21141z" fill="#ffffff" fill-rule="nonzero" stroke="none" stroke-width="0.5" stroke-linecap="butt" stroke-linejoin="miter"/></g><g fill-rule="nonzero" stroke-width="1.2" stroke-linejoin="miter"><g fill="#868995" stroke="#46484e" stroke-linecap="round"><g><path d="M114.12426,282.99712l6.56674,-55.55556l42.30719,-3.88888l9.70479,16.11111l-4.50833,42.22222"/><path d="M239.48274,278.55267h-74.89773l4.05497,-84.72222h70.84276"/></g><g><path d="M310.59022,281.88601l-4.50833,-42.22222l9.70479,-16.11111l42.30719,3.88888l6.56675,55.55556"/><path d="M239.30213,193.83045h70.84276l4.05497,84.72222h-74.89773"/></g></g><g stroke-linecap="butt"><g fill="#868995" stroke="#323337"><path d="M238.48488,237.54292c0,0 -50.42238,0.42456 -53.82493,-2.35022c-2.62552,-2.14112 -0.13924,-30.46732 2.49923,-32.5419c2.70859,-2.1297 50.65074,-2.16943 50.65074,-2.16943"/><path d="M237.41622,200.48137c0,0 47.94215,0.03973 50.65074,2.16943c2.63848,2.07458 5.12475,30.40078 2.49923,32.5419c-3.40255,2.77478 -53.82494,2.35022 -53.82494,2.35022"/></g><g fill="#4e4f56" stroke="#262629"><path d="M238.44458,235.81814c0,0 -48.09174,0.38502 -51.33702,-2.13133c-2.50416,-1.94171 -0.1328,-27.62974 2.38372,-29.5111c2.58339,-1.93135 48.30953,-1.96738 48.30953,-1.96738"/><path d="M237.42532,202.20833c0,0 45.72616,0.03603 48.30955,1.96738c2.51652,1.88136 4.88788,27.56939 2.38371,29.5111c-3.24528,2.51635 -51.33702,2.13133 -51.33702,2.13133"/></g><g fill="#9497a4" stroke="#56585f"><path d="M237.88618,225.47005c0,0 -15.79571,0.14779 -16.86161,-0.81808c-0.82249,-0.74529 -0.04362,-10.60526 0.78293,-11.32739c0.8485,-0.74132 15.86723,-0.75514 15.86723,-0.75514"/><path d="M237.5514,212.56944c0,0 15.01871,0.01382 15.86723,0.75514c0.82655,0.72214 1.60542,10.5821 0.78293,11.32739c-1.0659,0.96587 -16.86161,0.81808 -16.86161,0.81808"/></g></g><g stroke-linecap="butt"><g fill="#868995" stroke="#323337"><path d="M238.41004,286.26571c0,0 -46.09405,0.38812 -49.20452,-2.14847c-2.40014,-1.95733 -0.12729,-27.85196 2.28469,-29.74845c2.47608,-1.94689 46.3028,-1.9832 46.3028,-1.9832"/><path d="M237.43312,252.38558c0,0 43.82673,0.03632 46.3028,1.9832c2.41198,1.89649 4.68484,27.79112 2.28469,29.74845c-3.11046,2.53659 -49.20452,2.14847 -49.20452,2.14847"/></g><g fill="#4e4f56" stroke="#262629"><path d="M238.37319,284.68899c0,0 -43.96347,0.35197 -46.93016,-1.94838c-2.2892,-1.77503 -0.1214,-25.25795 2.1791,-26.97782c2.36163,-1.76556 44.16257,-1.7985 44.16257,-1.7985"/><path d="M237.44143,253.96429c0,0 41.80094,0.03294 44.16257,1.7985c2.3005,1.71986 4.46829,25.20279 2.1791,26.97782c-2.9667,2.30034 -46.93017,1.94838 -46.93017,1.94838"/></g><g fill="#9497a4" stroke="#56585f"><path d="M237.86273,275.22918c0,0 -14.43977,0.13511 -15.41417,-0.74785c-0.75189,-0.68132 -0.03987,-9.69489 0.71572,-10.35503c0.77567,-0.67768 14.50516,-0.69032 14.50516,-0.69032"/><path d="M237.5567,263.43599c0,0 13.7295,0.01264 14.50517,0.69032c0.75559,0.66015 1.46761,9.67371 0.71572,10.35503c-0.97441,0.88295 -15.41417,0.74785 -15.41417,0.74785"/></g></g><g stroke-linecap="butt"><g fill="#868995" stroke="#323337"><path d="M140.80152,258.67283c0,0 -18.01248,1.53988 -19.1037,-0.65232c-0.84203,-1.69158 1.30094,-24.95052 2.33447,-26.71206c1.06099,-1.80834 18.17131,-2.97438 18.17131,-2.97438"/><path d="M142.06311,228.34337c0,0 17.1068,-1.10096 17.97898,0.5793c0.8496,1.63678 0.48114,24.77815 -0.55072,26.59388c-1.33723,2.35309 -19.31207,3.19751 -19.31207,3.19751"/></g><g fill="#4e4f56" stroke="#262629"><path d="M140.86359,257.26112c0,0 -17.17902,1.45238 -18.22557,-0.53187c-0.80756,-1.53112 1.17745,-22.6266 2.1589,-24.227c1.00753,-1.64292 17.32689,-2.75355 17.32689,-2.75355"/><path d="M141.98979,229.75759c0,0 16.31616,-1.0516 17.15246,0.46917c0.81463,1.4814 0.52212,22.46475 -0.45758,24.11428c-1.26966,2.13771 -18.41454,2.9594 -18.41454,2.9594"/></g><g fill="#9497a4" stroke="#56585f"><path d="M141.12303,248.79887c0,0 -5.64338,0.4945 -5.98094,-0.27137c-0.26047,-0.59098 0.45457,-8.68505 0.78154,-9.29605c0.33566,-0.62723 5.69584,-0.99364 5.69584,-0.99364"/><path d="M141.57546,238.24073c0,0 5.35895,-0.34377 5.62888,0.24334c0.26295,0.57191 0.1038,8.62916 -0.22275,9.25903c-0.42319,0.81628 -6.05347,1.06869 -6.05347,1.06869"/></g></g><g stroke-linecap="butt"><g fill="#868995" stroke="#323337"><path d="M139.94133,290.94209c0,0 -15.20971,1.30027 -16.13114,-0.55082c-0.71101,-1.42837 1.09851,-21.0682 1.97122,-22.55564c0.89589,-1.52696 15.34385,-2.51157 15.34385,-2.51157"/><path d="M141.00662,265.33193c0,0 14.44496,-0.92965 15.18142,0.48916c0.71741,1.38209 0.40626,20.92265 -0.46504,22.45585c-1.12917,1.98694 -16.3071,2.69997 -16.3071,2.69997"/></g><g fill="#4e4f56" stroke="#262629"><path d="M139.99373,289.75005c0,0 -14.50594,1.22639 -15.38966,-0.44912c-0.68189,-1.29288 0.99423,-19.10588 1.82296,-20.45725c0.85076,-1.38729 14.63081,-2.32509 14.63081,-2.32509"/><path d="M140.94472,266.52609c0,0 13.77737,-0.88796 14.48352,0.39617c0.68788,1.2509 0.44087,18.96921 -0.3864,20.36208c-1.07209,1.80508 -15.54922,2.49892 -15.54922,2.49892"/></g><g fill="#9497a4" stroke="#56585f"><path d="M140.21284,282.60454c0,0 -4.76526,0.41756 -5.05031,-0.22915c-0.21994,-0.49902 0.38383,-7.33365 0.65993,-7.84958c0.28343,-0.52963 4.80956,-0.83903 4.80956,-0.83903"/><path d="M140.59487,273.68925c0,0 4.5251,-0.29027 4.75303,0.20548c0.22204,0.48292 0.08766,7.28645 -0.18809,7.81831c-0.35734,0.68926 -5.11155,0.9024 -5.11155,0.9024"/></g></g><g stroke-linecap="butt"><g fill="#868995" stroke="#323337"><path d="M337.96959,228.33406c0,0 17.11032,1.16605 18.17131,2.97439c1.03352,1.76154 3.17649,25.02047 2.33447,26.71206c-1.09122,2.1922 -19.1037,0.65233 -19.1037,0.65233"/><path d="M339.9939,258.71405c0,0 -17.97485,-0.84441 -19.31207,-3.1975c-1.03186,-1.81573 -1.40033,-24.9571 -0.55072,-26.59388c0.87218,-1.68026 17.97899,-0.5793 17.97899,-0.5793"/></g><g fill="#4e4f56" stroke="#262629"><path d="M338.04938,229.74871c0,0 16.31937,1.11061 17.3269,2.75354c0.98143,1.6004 2.96645,22.69588 2.15888,24.227c-1.04656,1.98426 -18.22557,0.53187 -18.22557,0.53187"/><path d="M339.90306,257.30044c0,0 -17.14488,-0.82169 -18.41454,-2.9594c-0.97971,-1.64953 -1.27222,-22.63288 -0.45758,-24.11428c0.83628,-1.52077 17.15245,-0.46917 17.15245,-0.46917"/></g><g fill="#9497a4" stroke="#56585f"><path d="M338.5537,238.23781c0,0 5.36016,0.36641 5.69583,0.99364c0.32698,0.611 1.04202,8.70507 0.78154,9.29605c-0.33756,0.76587 -5.98094,0.27137 -5.98094,0.27137"/><path d="M339.24505,248.81179c0,0 -5.63028,-0.25241 -6.05347,-1.06869c-0.32655,-0.62987 -0.4857,-8.68712 -0.22276,-9.25903c0.26994,-0.58711 5.62889,-0.24334 5.62889,-0.24334"/></g></g><g stroke-linecap="butt"><g fill="#868995" stroke="#323337"><path d="M339.04794,265.32406c0,0 14.44794,0.98461 15.34383,2.51157c0.8727,1.48744 2.68223,21.12727 1.97123,22.55563c-0.92142,1.85109 -16.13115,0.55083 -16.13115,0.55083"/><path d="M340.75724,290.9769c0,0 -15.17793,-0.71302 -16.3071,-2.69997c-0.8713,-1.5332 -1.18243,-21.07376 -0.46504,-22.45585c0.73646,-1.41881 15.18144,-0.48916 15.18144,-0.48916"/></g><g fill="#4e4f56" stroke="#262629"><path d="M339.1153,266.5186c0,0 13.78006,0.9378 14.63082,2.32509c0.82873,1.35137 2.50486,19.16438 1.82296,20.45725c-0.88371,1.6755 -15.38964,0.44911 -15.38964,0.44911"/><path d="M340.68056,289.78325c0,0 -14.47713,-0.69383 -15.54922,-2.49891c-0.82727,-1.39286 -1.07426,-19.11119 -0.38638,-20.36208c0.70616,-1.28413 14.48351,-0.39616 14.48351,-0.39616"/></g><g fill="#9497a4" stroke="#56585f"><path d="M339.54116,273.68679c0,0 4.52612,0.3094 4.80955,0.83903c0.2761,0.51592 0.87989,7.35055 0.65994,7.84958c-0.28503,0.6467 -5.05031,0.22915 -5.05031,0.22915"/><path d="M340.12492,282.61544c0,0 -4.7542,-0.21314 -5.11154,-0.90241c-0.27574,-0.53186 -0.41012,-7.3354 -0.18809,-7.81832c0.22793,-0.49575 4.75302,-0.20547 4.75302,-0.20547"/></g></g></g><path d="M240.90417,174.80615" fill="none" fill-rule="nonzero" stroke="#000000" stroke-width="1.2" stroke-linecap="round" stroke-linejoin="miter"/><g fill-rule="nonzero" stroke-width="1.2" stroke-linejoin="miter"><path d="M288.01982,176.62791c0.98033,0.31831 7.01194,7.04915 7.29805,8.11024c0.7927,2.93986 -3.50318,4.29326 -5.49429,3.64678c-2.34798,-0.76236 -9.53456,-11.77554 -3.20519,-11.93563c0.28544,-0.05376 0.57398,-0.03995 0.84271,0.03596c0.16297,0.01659 0.33276,0.03879 0.50952,0.06678z" fill="#be1e2d" stroke="#6f121b" stroke-linecap="butt"/><g><path d="M295.08606,192.43137c-2.59983,2.67677 -6.25278,2.96254 -14.56801,2.03754c-5.48096,-0.60971 -10.1728,-17.26378 3.99484,-19.11668c4.34099,-0.56773 6.83761,8.73677 6.83761,8.73677c0,0 0.70723,-0.76169 3.92078,-2.69103c7.82874,-4.70022 8.77407,4.44643 10.86662,9.99527c0.56817,-0.03323 1.09099,-0.05081 1.50741,-0.01895c0,0 2.14991,0.166 1.8798,2.3239c-0.2701,2.1579 -2.41999,1.9919 -2.41999,1.9919c-1.87839,-0.14649 -5.45669,0.38548 -7.09208,-0.30389c-3.02039,-1.27317 -2.19364,-5.93581 -2.19364,-5.93581c0,0 -2.5198,2.76112 -2.73333,2.98097z" fill="#be1e2d" stroke="#6f121b" stroke-linecap="butt"/><path d="M283.00534,189.24783c-1.33162,-2.71868 -2.96542,-7.99932 0.6988,-10.44347c4.65496,-3.10497 6.66385,7.02379 6.00729,9.99193c-0.71159,3.21696 -5.2071,3.51197 -6.70611,0.45154z" fill="#e6e7e8" stroke="#7a7a7b" stroke-linecap="round"/></g><path d="M277.1598,184.86075c-0.85229,2.32844 -1.97298,3.3511 -2.43235,5.90034c-0.20247,1.12366 0.57075,1.88522 -0.79804,3.31508c-1.36879,1.42986 -3.37804,2.18088 -4.21853,2.6598c-2.04923,1.16765 -4.28158,0.87933 -2.8192,-1.35381c-2.08586,-0.0701 -7.47856,-0.51202 -7.6339,-1.49766c-0.64787,-4.11096 4.68719,-3.21371 7.79653,-4.02707c1.67623,-1.4589 2.82825,-4.13516 3.45814,-6.55624c0.72416,-2.78341 0.96045,-5.28753 3.87913,-6.18282c1.02967,-0.31585 3.48817,-0.6835 4.50481,0.78464" fill="#be1e2d" stroke="#6f121b" stroke-linecap="butt"/><path d="M296.38452,178.89677c0.33129,-0.63788 0.37689,-1.61578 1.0356,-1.81251c1.96339,-0.58641 5.57483,1.79502 5.57483,1.79502c4.34291,2.17704 2.95522,7.99338 -1.61814,6.98682c-3.39486,-0.74717 -4.37588,-3.00416 -4.37588,-3.00416c0,0 -1.38601,-0.33222 -1.56938,-1.51178c-0.18337,-1.17956 0.28841,-1.17384 0.95297,-2.45339z" fill="#be1e2d" stroke="#6f121b" stroke-linecap="butt"/></g><path d="M249.30626,178.88192" fill="none" fill-rule="nonzero" stroke="#000000" stroke-width="1.2" stroke-linecap="round" stroke-linejoin="miter"/><path d="M279.25011,187.12561c3.54784,-2.43176 10.26638,-0.01847 9.24447,4.29995c-0.52488,2.218 -2.80998,4.20531 -3.95082,6.18051c-1.22909,2.12799 -1.7379,4.37203 -2.93388,6.51332c-0.8493,0.47933 -1.58723,1.30257 -2.54789,1.438c-6.28089,0.88541 -4.13378,-9.93954 -0.67336,-14.42731" fill="#be1e2d" fill-rule="nonzero" stroke="#6f121b" stroke-width="1.2" stroke-linecap="butt" stroke-linejoin="miter"/><g fill="#ffab19" fill-rule="nonzero" stroke="#b83312" stroke-width="1.2" stroke-linecap="butt" stroke-linejoin="miter"><path d="M199.6504,195.70124c-0.12811,2.72297 0.65144,12.16011 0.65144,12.16011l-2.93161,9.63111l-11.03599,0.51365c0,0 -1.94706,-1.72201 -1.62427,-4.62708c0.08276,-0.74493 2.40652,-9.55377 2.40615,-9.93122c-0.00266,-2.66364 -7.43232,-22.75194 4.98733,-25.40929c5.09879,-1.09096 6.75047,1.31157 7.75929,4.86729c1.39608,4.92065 -0.08942,10.18309 -0.21233,12.79543z"/><path d="M180.49552,191.63948c-0.59577,4.62097 -2.82716,6.37531 -2.91498,6.87906c-0.89127,5.11254 -1.8923,10.23931 -1.8923,10.23931l-6.9944,6.71809l-9.61843,-1.1082c0,0 -2.26906,-4.32524 0.07255,-6.45616c2.49684,-2.27219 7.30711,-4.48269 7.30711,-4.48269c0,0 -3.72734,-24.62156 9.47214,-24.75646c3.55495,0.15397 5.07708,2.08592 5.50033,4.53426"/></g></g></g></svg>