<svg version="1.1" xmlns="http://www.w3.org/2000/svg" xmlns:xlink="http://www.w3.org/1999/xlink" width="87.85312" height="116.83495" viewBox="0,0,87.85312,116.83495"><g transform="translate(-190.01515,-113.14259)"><g stroke-miterlimit="10"><path d="M241.19133,189.12998c2.75451,-0.19525 5.14577,1.87944 5.34102,4.63395c0.04436,0.62566 -0.02842,1.23258 -0.19965,1.79928c0.42823,1.85941 -3.36396,3.57212 -4.41005,4.66045c-3.93351,4.09233 -7.33294,5.47744 -13.79275,5.47131c-2.6398,-0.0025 -5.09553,-1.17065 -5.34102,-4.63395c-0.46599,-6.57398 7.06736,-5.00795 10.51519,-6.54784c1.84771,-0.82524 6.24745,-6.61295 7.88726,-5.3832z" fill="#ffab19" fill-rule="nonzero" stroke="#000000" stroke-width="1.2" stroke-linecap="butt" stroke-linejoin="miter"/><g fill-rule="evenodd"><path d="M258.43918,198.60767c1.33062,-1.97062 2.79864,-4.49794 2.91551,-7.73726c0.36899,-7.31773 -4.21877,-14.49427 -0.0474,-15.45639c4.24169,-1.02867 13.52437,8.81438 7.80157,19.92005c-1.95375,3.8404 -4.62579,6.36971 -6.87701,8.35849c-0.56253,0.53249 -5.91418,4.60282 -10.02929,3.66289c-4.11511,-0.93993 -3.56228,-2.74315 -3.28533,-3.57416c0.27587,-0.97219 7.55956,-2.46277 9.52194,-5.17363z" fill="#ffab19" stroke="#001026" stroke-width="1.2" stroke-linecap="round" stroke-linejoin="round"/><path d="M261.0282,175.96268c1.83472,-0.88343 5.53656,1.58538 7.33228,4.86304c1.79571,3.27765 1.95579,5.68597 1.96983,7.52144c-0.35914,-0.65554 -1.64861,-2.56363 -3.77216,-2.40228c-2.69041,0.12909 -4.64956,3.26352 -4.64956,3.26352c0,0 -0.53325,-4.89933 -1.3359,-7.97931c-0.51706,-2.78147 -1.23644,-4.23372 0.45549,-5.26643z" fill="#ffffff" stroke="none" stroke-width="1" stroke-linecap="butt" stroke-linejoin="miter"/></g><g fill-rule="nonzero" stroke-linecap="butt" stroke-linejoin="miter"><path d="M227.40236,226.8919c-1.52173,2.67675 -17.63916,0.1525 -17.63916,0.1525c0,0 -1.37203,-6.68649 3.06231,-7.74233c2.06644,-0.49203 8.64792,-3.26659 9.6312,-4.52672c3.44562,-4.4157 4.26694,-9.32978 9.48013,-12.40168c0.96036,-0.5659 3.03981,-1.91302 4.86111,-2.37957c2.30474,-1.52473 6.18221,1.10918 6.70009,3.82367c1.4843,7.77986 -7.3168,7.63201 -16.09568,23.07414z" fill="#ffab19" stroke="#001026" stroke-width="1.2"/><g><path d="M234.34232,201.89983c-0.13118,-3.96421 4.77829,-8.73689 4.77829,-8.73689c0,0 0.27426,-3.43581 2.22981,-5.44705c4.04234,-4.15747 18.66709,-1.551 18.20328,6.46128c-0.17403,3.00633 -2.63051,5.71155 -2.63051,5.71155c0,0 -0.1135,5.76875 -1.82152,8.38894c-1.45269,2.22851 -8.96377,5.25038 -13.87209,3.16565c-0.50984,-0.21654 -0.98146,-0.44712 -1.41775,-0.68893" fill="#ffab19" stroke="#001026" stroke-width="1.2"/><path d="M243.85585,189.5372c3.71937,-1.62875 7.61936,2.49586 7.19978,6.41943c-0.05063,0.4735 -0.12332,1.02617 -0.25244,1.56671c0.40572,2.16087 -2.45904,6.27787 -4.14247,6.39301c-5.82741,0.39856 -11.15852,-6.90655 -5.45216,-10.44916c0.34635,-1.69312 1.37964,-3.37487 2.64727,-3.92999z" fill="#ffffff" stroke="none" stroke-width="0.5"/></g><path d="M248.2814,210.56177c0.46341,2.54561 -0.90296,6.45308 -0.90296,6.45308c0,0 -2.9101,7.59016 -3.84671,8.66085c-4.26306,4.87332 -15.51385,5.9458 -14.45675,-3.05807c0.24866,-2.11802 1.93654,-3.26734 3.10493,-4.75692c0.53275,-0.6792 3.24384,-7.86455 3.14491,-10.4528c-0.17204,-4.5007 -1.83259,-10.07156 0.11728,-14.2282c3.47081,-7.39892 17.0048,5.88855 17.2937,6.79136" fill="#ffab19" stroke="#001026" stroke-width="1.2"/></g><g><g><g><path d="M213.97764,155.66302c0,0 -8.58075,-26.22182 -7.52251,-26.42453c1.42566,-0.2731 28.46769,5.43284 28.46769,5.43284" fill="#ffab19" fill-rule="nonzero" stroke="#001026" stroke-width="1.2" stroke-linecap="round" stroke-linejoin="miter"/><path d="M268.03473,148.2222l0.16262,-1.21439l4.95268,-1.24452l4.08947,4.48675l-1.03542,8.53178l-24.64727,12.79155z" fill="#9b7f41" fill-rule="nonzero" stroke="#001026" stroke-width="1.2" stroke-linecap="round" stroke-linejoin="miter"/><path d="M207.72483,176.70181c0,0 -6.91624,2.00389 -12.52007,-0.26041" fill="none" fill-rule="evenodd" stroke="#001026" stroke-width="1.2" stroke-linecap="round" stroke-linejoin="round"/><path d="M209.06269,182.46202c0,0 -3.17644,2.95467 -9.34846,4.31353" fill="none" fill-rule="evenodd" stroke="#001026" stroke-width="1.2" stroke-linecap="round" stroke-linejoin="round"/><path d="M228.62699,142.73021c10.39833,-4.70278 41.34775,-3.42708 40.41232,24.5106c-0.01219,0.36423 -0.10861,0.7211 -0.20354,1.07639c-3.46713,12.97494 -16.4237,22.25652 -35.48557,24.19946c-19.06187,1.94296 -26.41997,-7.10461 -26.93427,-12.90679c-0.51429,-5.80219 5.66475,-9.88132 5.66475,-9.88132c0,0 -1.21657,-4.33359 0.24053,-10.52768c0,0 1.11352,-9.59977 16.30575,-16.47066z" fill="#ffab19" fill-rule="evenodd" stroke="#001026" stroke-width="1.2" stroke-linecap="butt" stroke-linejoin="miter"/><path d="M229.69607,169.89925c8.20989,-1.87555 16.5565,-13.93351 26.08547,-5.65229c9.49983,8.18557 2.69871,25.31317 -21.90755,27.58731c-18.8414,1.9803 -26.43632,-6.47236 -26.95061,-12.27456c-0.51429,-5.80219 5.56093,-9.53603 5.56093,-9.53603c7.57653,-4.29607 10.17887,1.49685 17.21176,-0.12442z" fill="#ffffff" fill-rule="evenodd" stroke="none" stroke-width="1" stroke-linecap="butt" stroke-linejoin="miter"/><path d="M234.09969,167.1977c0.46658,1.53046 -2.82189,5.14656 -4.60198,5.48014c-1.55963,0.37092 -3.81091,-1.87 -4.12351,-3.2383c-0.10847,-0.69874 1.9376,-1.53158 3.94633,-2.14394c1.91308,-0.5832 4.52488,-1.27488 4.77915,-0.09787z" fill="#001026" fill-rule="evenodd" stroke="#001026" stroke-width="1.2" stroke-linecap="round" stroke-linejoin="round"/><path d="M263.79501,158.95226c-2.29938,5.58952 -8.56786,9.133 -8.56786,9.133" fill="none" fill-rule="evenodd" stroke="#001026" stroke-width="1.2" stroke-linecap="round" stroke-linejoin="round"/><path d="M268.03016,169.40183c-5.28695,3.46242 -9.62029,3.66743 -9.62029,3.66743" fill="none" fill-rule="evenodd" stroke="#001026" stroke-width="1.2" stroke-linecap="round" stroke-linejoin="round"/><path d="M255.39121,148.80723l-42.94099,7.71956l-3.01046,-22.60127l47.60778,-7.57485l15.99767,15.90705l-4.08476,16.74141z" fill="#c58600" fill-rule="nonzero" stroke="#001026" stroke-width="1.2" stroke-linecap="round" stroke-linejoin="miter"/><path d="M256.87772,126.57684l-1.51464,22.03238" fill="none" fill-rule="nonzero" stroke="#001026" stroke-width="0.75" stroke-linecap="round" stroke-linejoin="miter"/><path d="M264.14181,133.62475l-6.64192,-6.93435c0,0 14.58284,7.69342 15.67075,7.87434c1.21918,0.20274 -6.86172,14.30675 -6.86172,14.30675z" fill="#ffab19" fill-rule="nonzero" stroke="#001026" stroke-width="1.2" stroke-linecap="round" stroke-linejoin="miter"/></g><path d="M192.83911,168.88544c-7.54125,-20.44937 4.71713,-43.80191 27.37984,-52.15939c22.66271,-8.35748 47.14784,1.44493 54.68908,21.89432c7.54125,20.44937 -4.71713,43.80191 -27.37984,52.15939c-22.66271,8.35748 -47.14784,-1.44493 -54.68908,-21.89431z" fill="none" fill-rule="nonzero" stroke="#ffffff" stroke-width="1.2" stroke-linecap="butt" stroke-linejoin="miter"/><path d="M255.90751,120.97469l0.38695,7.26897l-7.75342,3.04074l-9.46833,-2.96242l3.74805,-11.51869z" fill="#ffffff" fill-rule="nonzero" stroke="#001026" stroke-width="0" stroke-linecap="round" stroke-linejoin="miter"/><path d="M263.87717,133.30411l7.07224,1.4598l-7.04591,-1.21568" fill="#000000" fill-rule="nonzero" stroke="none" stroke-width="0" stroke-linecap="round" stroke-linejoin="miter"/></g><g fill="#000000" stroke-width="1" stroke-linejoin="miter" font-family="&quot;Times New Roman&quot;" font-weight="400" font-size="16" text-anchor="start"><g fill-rule="evenodd" stroke="none" stroke-linecap="butt"/><g fill-rule="evenodd" stroke="none" stroke-linecap="butt"/><g fill-rule="nonzero" stroke="#001026" stroke-linecap="round"/></g></g><path d="M233.46945,159.74448l4.49752,-0.97772c0,0 4.09317,6.34577 8.5802,5.53005c3.6164,-0.65744 6.67228,-7.87658 6.67228,-7.87658c0,0 -2.13753,11.06605 -7.62624,12.12376c-7.85869,1.51442 -12.12376,-8.7995 -12.12376,-8.7995z" fill="#001026" fill-rule="nonzero" stroke="#001026" stroke-width="0.5" stroke-linecap="round" stroke-linejoin="miter"/><path d="M209.41204,165.0705l3.42208,-1.11112c0,0 4.08987,6.25556 7.52549,5.30744c2.769,-0.76416 4.21049,-8.10221 4.21049,-8.10221c0,0 -0.19721,11.17517 -4.39173,12.3951c-6.00568,1.74669 -10.76634,-8.4892 -10.76634,-8.4892z" fill="#001026" fill-rule="nonzero" stroke="#001026" stroke-width="0.5" stroke-linecap="round" stroke-linejoin="miter"/><path d="M229.613,187.53819c4.8135,2.91889 8.09168,5.7165 7.32205,6.24864c-0.76964,0.53214 -5.29566,-1.40272 -10.10915,-4.32161c-4.8135,-2.91889 -8.09168,-5.7165 -7.32205,-6.24864c0.76964,-0.53214 5.29566,1.40272 10.10915,4.32161z" fill="#ffffff" fill-rule="nonzero" stroke="#001026" stroke-width="1.2" stroke-linecap="butt" stroke-linejoin="miter"/><g fill-rule="nonzero" stroke="#000000" stroke-width="1.2" stroke-linejoin="miter"><path d="M232.85394,201.86866c-2.95375,-3.6993 -2.34935,-9.09269 1.34996,-12.04643c3.6993,-2.95375 9.09268,-2.34935 12.04643,1.34996c2.95375,3.6993 2.34936,9.09268 -1.34996,12.04643c-3.6993,2.95375 -9.09267,2.34935 -12.04643,-1.34996z" fill="#5c5e5f" stroke-linecap="butt"/><g stroke-linecap="round"><path d="M236.46476,205.56668l-0.88787,4.65761l-2.27636,0.72073l-3.48305,2.78108l-2.75512,-2.6263z" fill="#ffab19"/><path d="M237.67457,200.21329l-0.35407,6.4251l-3.74996,1.89734l-1.09871,1.09664l-3.48204,1.6834l-0.58986,0.90971l-3.40103,0.96061l-4.49354,-4.52879l-1.22546,-6.48013l11.41186,-7.13758z" fill="#ffab19"/><path d="M232.76881,206.98216l0.59191,-3.10508" fill="none"/><path d="M228.86099,205.93437l-0.32502,3.98881" fill="none"/></g><path d="M224.62711,209.97305l-3.50903,1.92432l-3.15701,-2.30541l-0.04987,-3.90885l2.83921,-1.3895l3.69286,1.87755z" fill="#5c5e5f" stroke-linecap="round"/></g><g fill-rule="nonzero" stroke="#000000" stroke-width="1.2" stroke-linejoin="miter"><path d="M253.6149,189.19857c0,0 -0.53984,-1.7143 1.10432,-2.81499c6.48469,-4.3412 8.39985,-0.13583 11.37319,0.03842c3.43708,0.20144 7.47821,-0.28818 8.14939,1.04326c0.96201,1.90835 -0.65683,3.85974 -2.12273,6.53875c-1.97446,3.60846 -4.53165,7.86071 -8.26722,8.7092c-2.91764,0.66271 -2.23176,-6.89707 -2.20345,-6.9525c-2.4702,-0.51148 -4.6804,-1.80255 -5.75302,-3.37312" fill="#ffab19" stroke-linecap="butt"/><g stroke-linecap="round"><path d="M268.74325,201.63666l-3.0981,4.68808l-2.55282,1.45089l-1.51179,-1.21879l-1.35765,0.44636l-2.22678,-3.10728" fill="#ffab19"/><path d="M258.29666,191.11315l13.39141,-0.88177l1.76494,6.05916l-2.02908,6.38799l-3.47537,1.22296l-0.9312,-0.39953l-3.8675,0.67601l-1.47027,-0.25212l-4.20239,0.65856l-3.99489,-4.54856z" fill="#ffab19"/><path d="M259.58111,199.75326l1.90338,2.20526l-2.94312,-1.29978z" fill="none"/><path d="M264.75434,198.9964l2.05459,3.09066" fill="none"/></g></g></g></g></svg>