<svg version="1.1" xmlns="http://www.w3.org/2000/svg" xmlns:xlink="http://www.w3.org/1999/xlink" width="310.86852" height="310.86852" viewBox="0,0,310.86852,310.86852"><defs><radialGradient cx="240" cy="180" r="155.43426" gradientUnits="userSpaceOnUse" id="color-1"><stop offset="0.34515" stop-color="#ffffff" stop-opacity="0"/><stop offset="0.74941" stop-color="#ffffff" stop-opacity="0.30196"/><stop offset="0.88416" stop-color="#4f1781" stop-opacity="0"/></radialGradient></defs><g transform="translate(-84.56573,-24.56574)"><g stroke-miterlimit="10"><g fill-rule="nonzero" stroke="#000000" stroke-width="1.2" stroke-linejoin="miter"><path d="M225.86891,184.57205c2.01111,-1.89232 5.17548,-1.79602 7.0678,0.21508c0.42984,0.4568 0.75705,0.97311 0.98254,1.52049c1.5071,1.17022 -0.349,4.89433 -0.47175,6.39889c-0.46155,5.65744 -2.22036,8.87943 -7.23007,12.95768c-2.04722,1.66657 -4.68854,2.31352 -7.0678,-0.21508c-4.51627,-4.79977 2.3113,-8.34776 4.00979,-11.72029c0.91023,-1.80736 0.66148,-9.07326 2.70948,-9.15677z" fill="#ffab19" stroke-linecap="butt"/><g><path d="M213.3142,204.06301c-0.3794,4.71863 -4.51218,8.2363 -9.23082,7.85688c-4.71863,-0.3794 -8.23629,-4.51219 -7.85688,-9.23083c0.3794,-4.71863 4.51218,-8.2363 9.23083,-7.85688c4.71863,0.3794 8.23628,4.51219 7.85688,9.23083z" fill="#5c5e5f" stroke-linecap="butt"/><g stroke-linecap="round"><path d="M213.21376,198.89548l3.83573,-2.78726l2.15271,1.033l4.4428,0.35723l0.21036,3.80051z" fill="#ffab19"/><path d="M208.66705,201.96953l4.65662,-4.44107l4.03236,1.18413l1.55163,-0.04723l3.6906,1.15666l1.05274,-0.25931l3.13674,1.62807l0.17515,6.37741l-3.54292,5.5625l-13.20476,-2.60956z" fill="#ffab19"/><path d="M214.31973,202.25207l2.55715,-1.85818" fill="none"/><path d="M221.97572,201.14782l-2.9676,2.68508" fill="none"/></g><path d="M224.85915,203.78741l3.87521,0.99952l0.72299,3.84174l-2.63958,2.88343l-3.02083,-0.93083l-1.4065,-3.89669z" fill="#5c5e5f" stroke-linecap="round"/></g></g><g fill-rule="evenodd"><path d="M247.39165,203.45225c2.39389,-0.52845 5.2842,-1.36281 7.65793,-3.59114c5.44147,-4.96493 7.04522,-13.08452 10.86988,-11.02977c3.92464,2.05357 3.98011,15.15383 -8.17156,19.29833c-4.18309,1.44975 -7.98282,1.49484 -11.08379,1.43163c-0.79995,0.00949 -7.70777,-0.60857 -10.14795,-3.97985c-2.44019,-3.37128 -0.75097,-4.29139 0.04422,-4.70086c0.894,-0.51064 7.43865,3.21195 10.83128,2.57164z" fill="#ffab19" stroke="#001026" stroke-width="1.2" stroke-linecap="round" stroke-linejoin="round"/><path d="M265.32185,189.03848c2.00698,0.57623 3.05675,4.76406 2.09836,8.27569c-0.9584,3.51162 -2.53692,5.33048 -3.8214,6.64581c0.19168,-0.70232 0.56554,-2.90691 -1.14976,-4.18666c-2.12003,-1.67495 -5.80908,-0.73112 -5.80908,-0.73112c0,0 3.05469,-3.83652 4.62253,-6.55532c1.5726,-2.31883 2.05476,-3.82466 4.05936,-3.44842z" fill="#ffffff" stroke="none" stroke-width="1" stroke-linecap="butt" stroke-linejoin="miter"/></g><g fill-rule="nonzero" stroke-linecap="round" stroke-linejoin="miter"><g><path d="M218.8564,227.17027l4.78132,-22.49542c0,0 0.26908,-4.45315 1.19309,-11.5098c0.44894,-3.42855 -0.10203,-9.83464 1.76053,-12.11038c2.87233,-3.50951 10.01764,-3.09312 10.01764,-3.09312c0,0 8.04951,0.99244 9.9828,6.27953c1.53826,4.20678 0.15088,7.88379 0.02709,12.29762c-0.11811,4.21124 1.06077,9.26093 1.06077,9.26093l8.92673,24.18257c0,0 4.12963,0.78099 5.13164,2.81193c1.00201,2.03095 0.14023,7.87339 0.14023,7.87339l-17.11762,0.28119l-6.01024,-5.34266l-0.78529,-6.28462c0,0 -3.12592,-25.86138 -3.70788,-20.65426c-0.25967,2.32346 -1.01501,18.51388 -1.01501,18.51388l0.58251,8.42848l-17.69434,1.60484l-3.70671,-0.76474c0,0 -3.69903,-4.0619 -1.7198,-6.91698c1.97922,-2.85507 8.15252,-2.36239 8.15252,-2.36239z" fill="#ffab19" stroke="#001026" stroke-width="1.2"/><path d="M236.58123,208.23689c0,0 -3.24873,-0.13731 -4.7479,-1.51935" fill="none" stroke="#001026" stroke-width="1.2"/><path d="M233.10542,201.31218c-4.12785,-0.65398 -4.38391,-4.90464 -4.45272,-8.97955c-0.07718,-4.57068 0.15144,-9.42706 4.78435,-8.82045c5.08245,0.66547 5.78639,5.43964 5.79322,10.44496c0,0 -0.17626,8.29748 -6.12485,7.35504z" fill="#ffffff" stroke="#000000" stroke-width="0"/></g><path d="M244.48402,232.51218c0,0 1.21145,-2.71583 11.87512,-2.6" fill="none" stroke="#001026" stroke-width="1.2"/></g><path d="M254.78386,189.30966c3.40313,-1.0482 7.89038,-2.9651 9.05344,2.08933c0.96202,6.69138 -10.13045,7.6749 -13.75614,7.35179c-3.21645,-0.27285 -4.14978,-3.41752 -4.94668,-6.08115c-1.34972,-5.12623 -2.67073,-9.49143 0.16523,-12.68632c3.47495,-4.02053 5.91596,0.77544 6.69851,3.75498c0.4882,1.7949 1.06974,3.62571 1.32819,4.90367c0.35897,0.4595 0.88308,0.76822 1.45745,0.66771z" fill="#ffab19" fill-rule="evenodd" stroke="#001026" stroke-width="1.2" stroke-linecap="round" stroke-linejoin="round"/><g><g><g><path d="M210.65888,143.63479c0,0 -1.8391,-27.52874 -0.76358,-27.46382c1.44895,0.08745 26.24416,12.29506 26.24416,12.29506" fill="#ffab19" fill-rule="nonzero" stroke="#001026" stroke-width="1.2" stroke-linecap="round" stroke-linejoin="miter"/><path d="M264.87914,149.77463l11.76414,15.76467l-3.19036,5.28598l-30.30823,-2.49226z" fill="#9b7f41" fill-rule="nonzero" stroke="#001026" stroke-width="1.2" stroke-linecap="round" stroke-linejoin="miter"/><path d="M199.40393,162.47766c0,0 -7.1969,0.23376 -12.06794,-3.34436" fill="none" fill-rule="evenodd" stroke="#001026" stroke-width="1.2" stroke-linecap="round" stroke-linejoin="round"/><path d="M199.27777,168.38985c0,0 -3.80776,2.07869 -10.12417,1.87117" fill="none" fill-rule="evenodd" stroke="#001026" stroke-width="1.2" stroke-linecap="round" stroke-linejoin="round"/><path d="M228.04842,134.72044c11.23765,-1.98909 40.91335,6.89051 33.10728,33.73179c-0.10177,0.34994 -0.28333,0.67194 -0.46307,0.99277c-6.56409,11.71677 -21.41153,17.51103 -40.36279,14.68621c-18.95126,-2.82483 -23.84702,-13.40933 -22.91244,-19.15881c0.93457,-5.74948 7.92963,-8.17625 7.92963,-8.17625c0,0 -0.10864,-4.4998 2.83305,-10.14217c0,0 3.44983,-9.02741 19.86835,-11.93353z" fill="#ffab19" fill-rule="evenodd" stroke="#001026" stroke-width="1.2" stroke-linecap="butt" stroke-linejoin="miter"/><path d="M222.37459,161.31193c8.41877,0.2101 19.48473,-9.41304 26.67338,0.96498c7.18402,10.27814 -3.63633,25.19558 -28.04204,21.32239c-18.74684,-2.7342 -24.019,-12.80071 -23.08443,-18.55019c0.93457,-5.74948 7.74374,-7.86729 7.74374,-7.86729c8.40282,-2.29186 9.49391,3.96431 16.70935,4.13012z" fill="#ffffff" fill-rule="evenodd" stroke="none" stroke-width="1" stroke-linecap="butt" stroke-linejoin="miter"/><path d="M227.30897,159.78162c0.07415,1.59828 -4.00549,4.29023 -5.81283,4.17386c-1.60292,-0.02575 -3.23106,-2.75323 -3.19604,-4.15636c0.06746,-0.70388 2.25583,-1.00561 4.35357,-1.10293c1.99785,-0.09268 4.69958,-0.11791 4.6553,1.08544z" fill="#001026" fill-rule="evenodd" stroke="#001026" stroke-width="1.2" stroke-linecap="round" stroke-linejoin="round"/><path d="M258.12082,159.12526c-3.60858,4.84852 -10.558,6.73414 -10.558,6.73414" fill="none" fill-rule="evenodd" stroke="#001026" stroke-width="1.2" stroke-linecap="round" stroke-linejoin="round"/><path d="M259.6441,170.29707c-5.97827,2.04949 -10.22802,1.17796 -10.22802,1.17796" fill="none" fill-rule="evenodd" stroke="#001026" stroke-width="1.2" stroke-linecap="round" stroke-linejoin="round"/><path d="M252.4828,147.21903l-43.51733,-3.12445l2.66451,-22.64466l48.00383,4.41722l11.57365,19.36519l-8.09277,15.21404z" fill="#c58600" fill-rule="nonzero" stroke="#001026" stroke-width="1.2" stroke-linecap="round" stroke-linejoin="miter"/><path d="M252.50445,147.02023l6.90893,-20.97586" fill="none" fill-rule="nonzero" stroke="#001026" stroke-width="0.75" stroke-linecap="round" stroke-linejoin="miter"/><path d="M264.71187,134.66795l-4.72365,-8.35986c0,0 15.66196,-2.05049 16.67151,-1.6065c1.13135,0.49756 -13.61329,25.27604 -13.61329,25.27604z" fill="#ffab19" fill-rule="nonzero" stroke="#001026" stroke-width="1.2" stroke-linecap="round" stroke-linejoin="miter"/></g><g><g fill-rule="evenodd"><path d="M220.33008,142.2788c2.88041,1.66831 3.01685,6.76746 0.3285,11.39702c-2.78825,4.63419 -7.28599,6.9451 -10.16639,5.27678c-2.88041,-1.66831 -3.01684,-6.76746 -0.32849,-11.39702c2.68835,-4.62955 7.28135,-7.04498 10.16639,-5.27678z" fill="#ffffff" stroke="#001026" stroke-width="1.2" stroke-linecap="round" stroke-linejoin="round"/><path d="M213.89341,152.78726c-0.05097,-1.09882 0.70646,-2.03493 1.70539,-2.08126c0.99893,-0.04634 1.83978,0.81561 1.89074,1.91443c0.05097,1.09882 -0.70646,2.03493 -1.70538,2.08126c-0.99893,0.04634 -1.83978,-0.81561 -1.89074,-1.91443" fill="#001026" stroke="none" stroke-width="1" stroke-linecap="butt" stroke-linejoin="miter"/></g><g fill-rule="evenodd"><path d="M244.46278,145.4697c3.19862,2.05398 3.26297,7.75712 0.3702,12.29606c-1.17211,1.90294 -2.61502,3.28949 -4.14517,4.12893c-2.18375,0.04173 -4.36856,0.08632 -6.55623,0.13097c-2.61098,-1.89525 -2.9755,-7.13323 -0.24866,-11.56031c2.79288,-4.53429 7.37661,-7.14952 10.57987,-4.99564z" fill="#ffffff" stroke="#001026" stroke-width="1.2" stroke-linecap="round" stroke-linejoin="round"/><path d="M237.65658,155.78767c-0.05097,-1.09882 0.7111,-1.93504 1.70539,-2.08127c0.99893,-0.04634 1.83977,0.81562 1.89074,1.91444c0.05097,1.09882 -0.70646,2.03493 -1.70538,2.08126c-0.99893,0.04634 -1.83978,-0.81562 -1.89074,-1.91444" fill="#001026" stroke="none" stroke-width="1" stroke-linecap="butt" stroke-linejoin="miter"/></g><g fill="#ffffff" fill-rule="nonzero" stroke="#001026" stroke-width="1.2" stroke-linecap="round" stroke-linejoin="miter"><path d="M217.52611,171.28501c-0.06688,-0.07433 0.88258,0.54676 1.99295,0.06726c1.93797,-0.83688 5.02284,-3.05613 8.76129,-4.04212c6.36589,-1.67896 10.6711,-1.77538 12.81992,-2.239c2.34493,-0.50593 2.24441,-1.296 2.52629,-1.21365c0.99686,0.29122 2.16128,14.01983 -8.27577,17.19536c-10.43705,3.17554 -17.25124,-9.13059 -17.82466,-9.76785z"/></g></g></g><path d="M237.11815,162.02681c6.40646,-0.25844 9.06557,0.87808 9.06557,0.87808" fill="none" fill-rule="nonzero" stroke="#001026" stroke-width="1.2" stroke-linecap="round" stroke-linejoin="miter"/></g><g fill-rule="nonzero" stroke-linejoin="miter"><g fill="#ffab19" stroke="#000000" stroke-width="1.2" stroke-linecap="round"><path d="M262.40545,189.22087c0,0 0.03611,2.13385 -0.68188,2.5686c-6.15937,3.7295 -13.98727,4.50362 -18.54705,-0.34248c-3.46474,-3.6823 -0.95462,-14.55544 -0.95462,-14.55544c0,0 -3.07749,-10.69476 1.90926,-11.47309c5.66845,-0.88475 4.50039,9.7607 4.50039,9.7607l3.81851,0.68496c0,0 0.45882,-11.77684 5.72778,-10.95938c5.93884,0.92138 1.36375,12.3293 1.36375,12.3293l2.59113,1.88365c0,0 3.60234,0.53331 3.68214,2.33691c0.0798,1.8036 0.96576,5.66381 -3.27301,6.91008c-3.53375,1.03898 -4.77313,-3.93853 -4.77313,-3.93853"/><path d="M245.49493,193.33062c-4.17729,-3.04994 -10.05652,1.66743 -11.18279,-5.65091c-1.08714,-7.06411 7.90978,-3.93854 7.90978,-3.93854"/></g><path d="M247.62328,171.49856c0.08598,2.22075 -0.86141,4.0576 -2.11608,4.10272c-1.25466,0.04512 -2.34148,-1.71859 -2.42746,-3.93935c-0.08598,-2.22075 0.86142,-4.0576 2.11608,-4.10272c1.25466,-0.04512 2.34148,1.71859 2.42746,3.93935z" fill="#ffffff" stroke="none" stroke-width="0" stroke-linecap="butt"/><path d="M259.41332,172.11382c-0.25375,2.20403 -1.55771,3.83193 -2.91247,3.63602c-1.35476,-0.19592 -2.24731,-2.14145 -1.99355,-4.34548c0.25375,-2.20403 1.55771,-3.83193 2.91247,-3.63601c1.35476,0.19592 2.24731,2.14145 1.99355,4.34547z" fill="#ffffff" stroke="none" stroke-width="0" stroke-linecap="butt"/><path d="M243.68938,186.05453c-0.20662,1.52626 -1.14815,1.54188 -3.42484,1.25193c-2.27669,-0.28995 -4.04165,-1.32056 -3.94215,-2.30193c0.09951,-0.98138 2.0258,-1.27363 4.30249,-0.98368c0,0 3.31856,0.15704 3.06451,2.03368z" fill="#ffffff" stroke="none" stroke-width="0" stroke-linecap="butt"/><path d="M251.21005,191.19937c-3.95742,-0.55078 -7.00643,-1.70777 -6.60459,-5.33436c0.17179,-1.5503 2.84722,-0.73253 3.95212,-1.71939c1.47978,-1.32169 1.67534,-4.16518 3.94103,-3.84985c1.84762,0.25715 1.11716,3.41924 2.27131,4.64844c0.70812,0.75417 1.92002,0.98138 2.85667,1.33009c0.39069,0.59429 0.82637,1.23854 1.30143,1.74762c-0.43876,3.55718 -3.78725,3.72452 -7.71798,3.17746z" fill="#ffffff" stroke="none" stroke-width="0" stroke-linecap="butt"/></g><path d="M84.56573,180c0,-85.84393 69.59033,-155.43426 155.43426,-155.43426c85.84393,0 155.43426,69.59033 155.43426,155.43426c0,85.84393 -69.59033,155.43426 -155.43426,155.43426c-85.84393,0 -155.43426,-69.59033 -155.43426,-155.43426z" fill="url(#color-1)" fill-rule="nonzero" stroke="none" stroke-width="NaN" stroke-linecap="butt" stroke-linejoin="miter"/></g></g></svg>