<svg version="1.1" xmlns="http://www.w3.org/2000/svg" xmlns:xlink="http://www.w3.org/1999/xlink" width="90.7904" height="122.50106" viewBox="0,0,90.7904,122.50106"><g transform="translate(-194.66191,-119.05174)"><g stroke-miterlimit="10"><g fill-rule="evenodd"><path d="M252.24246,213.36259c1.63554,1.82619 3.78129,3.9347 6.8879,4.90886c6.99672,2.30344 14.85795,-0.28521 14.94531,4.05558c0.13749,4.42731 -11.24848,10.90649 -20.82445,2.35424c-3.31651,-2.93272 -5.22106,-6.22097 -6.68825,-8.95361c-0.40096,-0.69227 -3.25351,-7.01389 -1.51426,-10.79477c1.73924,-3.78088 3.37009,-2.76088 4.11719,-2.2691c0.88374,0.5282 0.85328,8.05742 3.07656,10.69882z" fill="#ffab19" stroke="#001026" stroke-width="1.2" stroke-linecap="round" stroke-linejoin="round"/><path d="M273.60188,221.90806c0.48319,2.03138 -2.64999,5.00175 -6.17986,5.89062c-3.52986,0.88886 -5.88937,0.4065 -7.66586,-0.06687c0.70597,-0.17777 2.81018,-0.93428 3.08308,-3.05691c0.41854,-2.66923 -2.21469,-5.41988 -2.21469,-5.41988c0,0 4.84198,0.77798 7.98029,0.80926c2.79218,0.23177 4.34079,-0.08736 4.99705,1.84377z" fill="#ffffff" stroke="none" stroke-width="1" stroke-linecap="butt" stroke-linejoin="miter"/></g><path d="M234.77288,181.29003c2.68779,-0.63341 5.38017,1.032 6.01358,3.7198c0.14388,0.61051 0.16914,1.22125 0.09077,1.80805c0.72019,1.76695 -2.74916,4.06428 -3.60766,5.30595c-3.22815,4.66891 -6.3622,6.58003 -12.73979,7.60743c-2.6062,0.41985 -5.21718,-0.34038 -6.01358,-3.7198c-1.51171,-6.41476 6.17515,-6.0741 9.33222,-8.14575c1.69189,-1.11021 5.10903,-7.52725 6.92446,-6.57568z" fill="#ffab19" fill-rule="nonzero" stroke="#000000" stroke-width="1.2" stroke-linecap="butt" stroke-linejoin="miter"/><path d="M252.64812,192.78996c-0.91292,-0.9309 -2.10223,-2.4394 -3.31418,-3.85049c-2.02747,-2.31935 -4.62819,-7.03063 0.64953,-7.65167c4.23576,-0.55527 7.10822,2.98719 10.59455,6.98036c1.75791,2.15401 3.83749,4.69081 2.2589,7.50649c-1.76657,3.18265 -8.80371,11.81333 -13.8032,7.26304c-3.53162,-3.79837 0.5726,-6.43756 3.3495,-8.66665c0.40543,-0.41908 0.44389,-1.02614 0.2649,-1.58108z" fill="#ffab19" fill-rule="evenodd" stroke="#001026" stroke-width="1.2" stroke-linecap="round" stroke-linejoin="round"/><g fill-rule="nonzero" stroke-linecap="round" stroke-linejoin="miter"><g><path d="M220.57808,227.17027l7.5922,-22.49542c0,0 0.82551,-4.45315 2.63128,-11.5098c0.87735,-3.42855 1.12684,-9.83464 3.27376,-12.11038c3.31086,-3.50951 10.40413,-3.09312 10.40413,-3.09312c0,0 7.9255,0.99244 9.19815,6.27953c1.01261,4.20678 -0.83422,7.88379 -1.50954,12.29762c-0.64432,4.21124 -0.09641,9.26093 -0.09641,9.26093l5.90504,24.18257c0,0 4.03204,0.78099 4.78028,2.81193c0.74824,2.03095 -0.84357,7.87339 -0.84357,7.87339l-17.15276,0.28119l-5.34266,-5.34266v-6.28462c0,0 0.10554,-25.86138 -1.12706,-20.65426c-0.54999,2.32346 -3.32838,18.51388 -3.32838,18.51388l-0.47066,8.42848l-17.89487,1.60484l-3.61115,-0.76474c0,0 -3.19148,-4.0619 -0.8555,-6.91698c2.33597,-2.85507 8.44771,-2.36239 8.44771,-2.36239z" fill="#ffab19" stroke="#001026" stroke-width="1.2"/><path d="M240.6687,208.23689c0,0 -3.23157,-0.13731 -4.55805,-1.51935" fill="none" stroke="#001026" stroke-width="1.2"/><path d="M238.05817,201.31219c-4.04613,-0.65398 -3.77106,-4.90464 -3.33069,-8.97955c0.49394,-4.57068 1.32939,-9.42706 5.88649,-8.82045c4.9993,0.66547 5.10669,5.43964 4.48809,10.44496c0,0 -1.21306,8.29748 -7.04389,7.35504z" fill="#ffffff" stroke="#000000" stroke-width="0"/></g><path d="M245.53823,232.51215c0,0 1.55081,-2.71583 12.2,-2.6" fill="none" stroke="#001026" stroke-width="1.2"/></g><g><g><path d="M216.77194,146.27192c0,0 -4.80538,-27.1684 -3.72914,-27.22018c1.44991,-0.06976 27.41988,9.38481 27.41988,9.38481" fill="#ffab19" fill-rule="nonzero" stroke="#001026" stroke-width="1.2" stroke-linecap="round" stroke-linejoin="miter"/><path d="M271.33817,146.51215l13.4,14.4l-2.6,5.6l-30.4,0.8z" fill="#9b7f41" fill-rule="nonzero" stroke="#001026" stroke-width="1.2" stroke-linecap="round" stroke-linejoin="miter"/><path d="M207.62075,166.22142c0,0 -7.12941,1.01069 -12.35884,-2.01967" fill="none" fill-rule="evenodd" stroke="#001026" stroke-width="1.2" stroke-linecap="round" stroke-linejoin="round"/><path d="M208.13468,172.11261c0,0 -3.56063,2.47828 -9.86244,2.95506" fill="none" fill-rule="evenodd" stroke="#001026" stroke-width="1.2" stroke-linecap="round" stroke-linejoin="round"/><path d="M233.09546,135.52926c10.95664,-3.19271 41.41857,2.42557 36.561,29.95361c-0.06333,0.35889 -0.209,0.69864 -0.35299,1.03703c-5.2585,12.35792 -19.39225,19.72386 -38.53785,18.96506c-19.1456,-0.7588 -25.1573,-10.75178 -24.84997,-16.56861c0.30732,-5.81683 6.99891,-8.98584 6.99891,-8.98584c0,0 -0.59463,-4.46166 1.71962,-10.38907c0,0 2.45334,-9.34754 18.46129,-14.01218z" fill="#ffab19" fill-rule="evenodd" stroke="#001026" stroke-width="1.2" stroke-linecap="butt" stroke-linejoin="miter"/><path d="M230.33063,162.57841c8.39212,-0.70157 18.35249,-11.46499 26.6213,-1.92524c8.2534,9.44095 -0.89026,25.44106 -25.5717,24.22991c-18.93258,-0.69081 -25.26245,-10.12813 -24.95513,-15.94496c0.30732,-5.81683 6.84753,-8.65859 6.84753,-8.65859c8.10569,-3.18713 9.86695,2.91435 17.058,2.29889z" fill="#ffffff" fill-rule="evenodd" stroke="none" stroke-width="1" stroke-linecap="butt" stroke-linejoin="miter"/><path d="M235.07056,160.52345c0.24656,1.58089 -3.51804,4.69824 -5.32736,4.778c-1.5963,0.14775 -3.50985,-2.38766 -3.62678,-3.78635c-0.00906,-0.70705 2.13385,-1.24367 4.20876,-1.56727c1.97611,-0.30819 4.65927,-0.62545 4.74538,0.57563z" fill="#001026" fill-rule="evenodd" stroke="#001026" stroke-width="1.2" stroke-linecap="round" stroke-linejoin="round"/><path d="M265.63074,156.53883c-3.06308,5.21033 -9.76782,7.83643 -9.76782,7.83643" fill="none" fill-rule="evenodd" stroke="#001026" stroke-width="1.2" stroke-linecap="round" stroke-linejoin="round"/><path d="M268.35321,167.48039c-5.72157,2.68398 -10.04065,2.27715 -10.04065,2.27715" fill="none" fill-rule="evenodd" stroke="#001026" stroke-width="1.2" stroke-linecap="round" stroke-linejoin="round"/><path d="M258.73816,145.31214l-43.6,1.6l0.2,-22.8l48.2,-0.8l13.6,18l-6.4,16z" fill="#c58600" fill-rule="nonzero" stroke="#001026" stroke-width="1.2" stroke-linecap="round" stroke-linejoin="miter"/><path d="M258.73821,145.11217l4.6,-21.6" fill="none" fill-rule="nonzero" stroke="#001026" stroke-width="0.75" stroke-linecap="round" stroke-linejoin="miter"/><path d="M269.53819,131.51215l-5.60001,-7.8c0,0 15.34836,-3.73221 16.4,-3.4c1.17852,0.37229 -10.8,26.6 -10.8,26.6z" fill="#ffab19" fill-rule="nonzero" stroke="#001026" stroke-width="1.2" stroke-linecap="round" stroke-linejoin="miter"/></g><g><g fill-rule="evenodd"><path d="M226.39933,143.86064c3.04393,1.34703 3.73102,6.40152 1.55909,11.29465c-2.27074,4.90854 -6.49219,7.6923 -9.53612,6.34527c-3.04393,-1.34703 -3.73101,-6.40152 -1.55908,-11.29466c2.17193,-4.89313 6.47678,-7.7911 9.53612,-6.34527z" fill="#ffffff" stroke="#001026" stroke-width="1.2" stroke-linecap="round" stroke-linejoin="round"/><path d="M216.93678,154.97618c-0.1695,-1.08686 0.48225,-2.09939 1.47031,-2.25348c0.98806,-0.1541 1.91719,0.61187 2.08669,1.69873c0.1695,1.08686 -0.48225,2.09939 -1.4703,2.25348c-0.98806,0.1541 -1.91719,-0.61187 -2.08669,-1.69873" fill="#001026" stroke="none" stroke-width="1" stroke-linecap="butt" stroke-linejoin="miter"/></g><g fill-rule="evenodd"><path d="M250.57602,144.44042c3.40199,1.69602 4.08272,7.35876 1.69777,12.18391c-2.28615,4.80973 -6.41785,6.87103 -9.97122,5.50224c-2.96053,-1.46124 -3.99026,-6.76593 -1.70412,-11.57566c2.28615,-4.80973 6.56017,-7.90532 9.97757,-6.11049z" fill="#ffffff" stroke="#001026" stroke-width="1.2" stroke-linecap="round" stroke-linejoin="round"/><path d="M240.88504,155.38913c-0.1695,-1.08686 0.49767,-2.00059 1.47031,-2.25349c0.98806,-0.1541 1.91718,0.61188 2.08669,1.69874c0.1695,1.08686 -0.48225,2.09939 -1.4703,2.25348c-0.98806,0.1541 -1.91719,-0.61188 -2.08669,-1.69874" fill="#001026" stroke="none" stroke-width="1" stroke-linecap="butt" stroke-linejoin="miter"/></g><g fill-rule="nonzero" stroke="#001026" stroke-linecap="round" stroke-linejoin="miter"><path d="M226.79737,174.93182c-0.2046,-0.183 5.58906,-1.10911 11.26726,-3.28686c12.855,-4.93025 13.32279,-7.01815 13.87687,-6.91969c1.02251,0.18171 4.3096,10.72806 -3.7356,13.99037c-7.73708,3.13737 -20.76955,-3.2123 -21.40852,-3.78382z" fill="#ffffff" stroke-width="1.2"/><path d="M251.52006,175.78005l-2.2,-7.4l2.8,7.2" fill="#000000" stroke-width="0"/><path d="M248.72007,177.98004l-1,-4.2l1.4,3.8" fill="#000000" stroke-width="0"/><path d="M227.92005,174.98004l9.2,2.2l4,2.2l-7.2,-1.6z" fill="#000000" stroke-width="0"/></g></g></g><path d="M233.94049,201.6922c-1.2658,0.72228 -2.36565,2.09748 -3.73152,2.42605c-0.2083,0.05011 -0.4228,0.07587 -0.64501,0.07127c-2.64225,-0.05476 -8.87635,-3.66077 -9.99261,-4.67041c-2.41123,-2.18094 -2.39625,-6.95221 0.60736,-8.72889c3.25364,-1.92458 7.66433,1.79784 9.9885,3.10189c1.10399,0.61943 3.86387,1.3164 3.84261,2.83759z" fill="#ffab19" fill-rule="nonzero" stroke="#000000" stroke-width="1.2" stroke-linecap="butt" stroke-linejoin="miter"/><g fill-rule="nonzero" stroke="#000000" stroke-width="1.2" stroke-linejoin="miter"><path d="M236.66169,198.43738c-2.21422,-4.1841 -0.61733,-9.37098 3.56677,-11.5852c4.1841,-2.21422 9.37098,-0.61732 11.5852,3.56678c2.21422,4.1841 0.61733,9.37098 -3.56678,11.5852c-4.1841,2.21422 -9.37097,0.61732 -11.5852,-3.56678z" fill="#5c5e5f" stroke-linecap="butt"/><g stroke-linecap="round"><path d="M239.52176,202.74244l-1.7386,4.41123l-2.37068,0.2848l-3.93951,2.08479l-2.21861,-3.09288z" fill="#ffab19"/><path d="M241.70608,197.70743l-1.54283,6.24716l-4.0374,1.16682l-1.28349,0.87318l-3.73436,1.00645l-0.74875,0.78414l-3.52035,0.31134l-3.57289,-5.28549l0.00109,-6.59498l12.5402,-4.8907z" fill="#ffab19"/><path d="M235.62705,203.44585l1.15906,-2.94082" fill="none"/><path d="M231.98227,201.68954l-1.06118,3.85878" fill="none"/></g><path d="M227.07115,204.87038l-3.80569,1.23815l-2.67317,-2.85233l0.67796,-3.84993l3.0481,-0.83723l3.27925,2.53159z" fill="#5c5e5f" stroke-linecap="round"/></g></g></g></svg>