<svg version="1.1" xmlns="http://www.w3.org/2000/svg" xmlns:xlink="http://www.w3.org/1999/xlink" width="93.2347" height="109.13008" viewBox="0,0,93.2347,109.13008"><g transform="translate(-182.64753,-134.75662)"><g data-paper-data="{&quot;isPaintingLayer&quot;:true}" stroke-miterlimit="10" stroke-dasharray="" stroke-dashoffset="0" style="mix-blend-mode: normal"><g fill-rule="evenodd"><path d="M253.81622,212.01549c2.42451,-0.36291 5.36527,-0.99693 7.88633,-3.05709c5.76938,-4.57977 7.92661,-12.57016 11.60124,-10.25775c3.77445,2.31807 2.9307,15.39126 -9.47676,18.692c-4.27274,1.15924 -8.06659,0.94344 -11.1559,0.66757c-0.79871,-0.04543 -7.64782,-1.13612 -9.85088,-4.66693c-2.20306,-3.5308 -0.45468,-4.33281 0.36675,-4.68674c0.92694,-0.44808 7.20066,3.7149 10.62924,3.30894z" fill="#ff7e19" stroke="#001026" stroke-width="1.2" stroke-linecap="round" stroke-linejoin="round"/><path d="M272.69338,198.86626c1.96269,0.71261 2.72258,4.96261 1.52544,8.40018c-1.19714,3.43756 -2.89676,5.1438 -4.26849,6.36787c0.23943,-0.68751 0.76371,-2.86124 -0.85972,-4.25569c-2.00007,-1.8165 -5.74521,-1.12808 -5.74521,-1.12808c0,0 3.3108,-3.61782 5.06153,-6.22261c1.72803,-2.20543 2.31241,-3.67462 4.28645,-3.1617z" fill="#ffffff" stroke="none" stroke-width="1" stroke-linecap="butt" stroke-linejoin="miter"/></g><path d="M223.0117,200.71106c2.5276,-1.11204 5.47814,0.03551 6.59018,2.56312c0.2526,0.57413 0.3886,1.17006 0.41834,1.76133c1.02976,1.60635 -1.96349,4.49677 -2.58165,5.87395c-2.32443,5.17848 -5.05829,7.62812 -11.14235,9.79916c-2.48625,0.88719 -5.19199,0.61489 -6.59018,-2.56313c-2.65402,-6.03246 4.96644,-7.09659 7.69371,-9.70826c1.46156,-1.39961 3.65364,-8.33142 5.61194,-7.72618z" fill="#ff7e19" fill-rule="nonzero" stroke="#000000" stroke-width="1.2" stroke-linecap="butt" stroke-linejoin="miter"/><path d="M245.53826,232.51217c0,0 1.55081,-2.71583 12.2,-2.6" fill="none" fill-rule="nonzero" stroke="#001026" stroke-width="1.2" stroke-linecap="round" stroke-linejoin="miter"/><g fill-rule="nonzero" stroke-linecap="round" stroke-linejoin="miter"><path d="M254.98205,210.92503l11.88768,10.09653l-5.307,10.2835c0,0 6.64589,-0.06085 7.64207,2.61762c0.99619,2.67846 -3.60875,8.22681 -3.60875,8.22681l-19.52975,1.12183l-7.00524,-7.66588l-1.0614,-5.60918l4.45788,-6.91799l-4.2456,-9.34864l-7.21752,6.54404l5.09472,9.53561l-1.0614,6.73102l-17.40695,2.24368l-6.58068,-1.30881c0,0 -5.78432,-5.06856 -3.31185,-7.40183c2.47248,-2.33327 12.2276,-1.01194 12.2276,-1.01194l-4.88244,-10.09653l10.614,-7.29194c0,0 -6.67974,-6.27968 -5.30699,-10.65744c3.2498,-10.36375 19.91605,-12.35599 28.87007,-5.04826c5.14377,4.19804 5.73156,14.95782 5.73156,14.95782z" fill="#ff7e19" stroke="#001026" stroke-width="1.2"/><path d="M239.79733,211.70994c-5.45763,0.93842 -8.05805,-1.63066 -10.33241,-4.15115c-2.55107,-2.82715 -4.87735,-5.93235 1.17959,-7.06509c6.64468,-1.24266 10.08039,1.50703 12.77795,4.62836c0,0 4.23978,5.23553 -3.62513,6.58789z" fill="#ffffff" stroke="#000000" stroke-width="0"/><path d="M249.17116,233.71156c0,0 1.64603,-2.53893 12.94907,-2.43064" fill="none" stroke="#001026" stroke-width="1.2"/><path d="M240.60617,213.63512c0,0 -3.42998,-0.12837 -4.83791,-1.42039" fill="none" stroke="#001026" stroke-width="1.2"/></g><g><g><path d="M204.75218,164.14577c0,0 0.68463,-28.85781 1.75992,-28.78903c1.44863,0.09265 23.77499,13.71189 23.77499,13.71189" fill="#ff7e19" fill-rule="nonzero" stroke="#001026" stroke-width="1.2" stroke-linecap="round" stroke-linejoin="miter"/><path d="M258.95,170.48032l11.70744,15.80682l-3.20932,5.27449l-30.29908,-2.60111z" fill="#9c6041" fill-rule="nonzero" stroke="#001026" stroke-width="1.2" stroke-linecap="round" stroke-linejoin="miter"/><path d="M193.42964,182.94809c0,0 -8.18967,-0.45341 -10.18211,-4.049" fill="none" fill-rule="evenodd" stroke="#001026" stroke-width="1.2" stroke-linecap="round" stroke-linejoin="round"/><path d="M193.2822,188.85982c0,0 -3.8152,2.28543 -9.24906,0.62237" fill="none" fill-rule="evenodd" stroke="#001026" stroke-width="1.2" stroke-linecap="round" stroke-linejoin="round"/><path d="M222.17363,155.29393c11.24472,-1.94872 40.88833,7.03742 32.9859,33.85048c-0.10303,0.34957 -0.28574,0.67092 -0.46663,0.99111c-6.60613,11.69312 -21.4743,17.43401 -40.41528,14.54113c-18.94099,-2.89288 -23.7987,-13.4949 -22.84348,-19.24099c0.95522,-5.74609 7.95895,-8.14771 7.95895,-8.14771c0,0 -0.09248,-4.50016 2.86946,-10.13193c0,0 3.48224,-9.01495 19.91109,-11.86208z" fill="#ff7e19" fill-rule="evenodd" stroke="#001026" stroke-width="1.2" stroke-linecap="butt" stroke-linejoin="miter"/><path d="M216.40433,181.8649c8.41796,0.24034 19.51841,-9.34299 26.66974,1.06078c7.14705,10.30387 -3.72681,25.18235 -28.11845,21.22152c-18.7369,-2.80152 -23.97286,-12.8869 -23.01764,-18.63298c0.95522,-5.74609 7.77195,-7.83943 7.77195,-7.83943c8.411,-2.26166 9.47961,3.99838 16.6944,4.19012z" fill="#ffffff" fill-rule="evenodd" stroke="none" stroke-width="1" stroke-linecap="butt" stroke-linejoin="miter"/><path d="M221.34416,180.35232c0.06841,1.59854 -4.02088,4.27581 -5.82778,4.15295c-1.60281,-0.03151 -3.22115,-2.76481 -3.18109,-4.16781c0.06998,-0.70363 2.25943,-0.9975 4.3575,-1.08728c1.99817,-0.0855 4.69998,-0.10103 4.65137,1.10215z" fill="#001026" fill-rule="evenodd" stroke="#001026" stroke-width="1.2" stroke-linecap="round" stroke-linejoin="round"/><path d="M251.27643,178.92488c-2.63399,5.27641 -9.70036,7.57794 -9.70036,7.57794" fill="none" fill-rule="evenodd" stroke="#001026" stroke-width="1.2" stroke-linecap="round" stroke-linejoin="round"/><path d="M252.86974,189.88163c-4.22207,3.01998 -9.46065,2.24342 -9.46065,2.24342" fill="none" fill-rule="evenodd" stroke="#001026" stroke-width="1.2" stroke-linecap="round" stroke-linejoin="round"/><path d="M246.56291,167.88021l-43.50583,-3.28075l2.74583,-22.63494l47.98766,4.58962l11.50402,19.40664l-8.14736,15.18488z" fill="#c46a00" fill-rule="nonzero" stroke="#001026" stroke-width="1.2" stroke-linecap="round" stroke-linejoin="miter"/><path d="M246.58531,167.68151l6.98423,-20.9509" fill="none" fill-rule="nonzero" stroke="#001026" stroke-width="0.75" stroke-linecap="round" stroke-linejoin="miter"/><path d="M258.837,155.37312l-4.69359,-8.37678c0,0 14.01593,-4.19862 15.02387,-3.751c1.12955,0.50162 -12.05069,27.43138 -12.05069,27.43138z" fill="#ff7e19" fill-rule="nonzero" stroke="#001026" stroke-width="1.2" stroke-linecap="round" stroke-linejoin="miter"/></g><g fill="none" fill-rule="nonzero" stroke="none" stroke-width="1" stroke-linecap="butt" stroke-linejoin="miter" font-family="sans-serif" font-weight="normal" font-size="12" text-anchor="start"><g/><g/><g/></g></g><path d="M226.95237,214.92556c-0.62819,1.31503 -0.7478,3.07189 -1.68266,4.12051c-0.14257,0.15992 -0.30411,0.30337 -0.48929,0.42627c-2.20203,1.46134 -9.37962,2.05274 -10.8723,1.85961c-3.22436,-0.41718 -5.93212,-4.3457 -4.47729,-7.51772c1.57593,-3.43607 7.3218,-2.89232 9.97472,-3.14594c1.26015,-0.12046 3.92495,-1.12124 4.7747,0.14066z" fill="#ff7e19" fill-rule="nonzero" stroke="#000000" stroke-width="1.2" stroke-linecap="butt" stroke-linejoin="miter"/><g fill-rule="nonzero" stroke="#000000" stroke-width="1.2" stroke-linejoin="miter"><path d="M228.46199,211.48062c-4.42643,-1.67816 -6.65437,-6.6269 -4.97622,-11.05333c1.67816,-4.42643 6.6269,-6.65435 11.05333,-4.97621c4.42643,1.67816 6.65436,6.6269 4.97621,11.05333c-1.67816,4.42643 -6.6269,6.65436 -11.05333,4.97622z" fill="#5c5e5f" stroke-linecap="butt"/><g stroke-linecap="round"><path d="M233.45315,212.8229l1.60912,4.46008l-1.5915,1.77999l-1.58005,4.16768l-3.7088,-0.85608z" fill="#ff7e19"/><path d="M231.76653,207.60008l2.96899,5.70898l-2.25998,3.54323l-0.38664,1.50343l-2.13844,3.22264l-0.04405,1.08332l-2.43701,2.55944l-6.17401,-1.60736l-4.35616,-4.95153l6.18281,-11.95611z" fill="#ff7e19"/><path d="M230.99413,215.92398l-1.07276,-2.97339" fill="none"/><path d="M228.85042,220.6113l-1.75269,-3.59784" fill="none"/></g><path d="M225.5124,222.64582l-2.03893,3.4437l-3.89112,-0.37519l-2.03451,-3.33801l1.73507,-2.64223l4.13421,-0.26598z" fill="#5c5e5f" stroke-linecap="round"/></g><g fill-rule="nonzero" stroke-linejoin="miter"><path d="M246.61297,209.67132c0.17963,-2.14683 2.71894,-3.96732 5.75007,-4.94411c4.33137,-1.39579 9.66702,-1.0688 10.55688,2.49065c2.86085,11.44341 -12.59383,14.40417 -16.01345,4.14533z" fill="#ff7e19" stroke="#000000" stroke-width="1.2" stroke-linecap="butt"/><path d="M265.41319,204.86981c-4.50471,7.09785 -10.15724,8.02505 -14.77748,6.6352c-4.62024,-1.38985 -9.47121,-7.08353 -9.47121,-7.08353c0,0 -4.65344,-3.6467 -1.17502,-7.8333c2.5146,-3.02656 5.63078,0.94953 5.63078,0.94953l3.36899,-5.2048c0,0 0.31424,-8.42065 4.50417,-7.34159c1.24474,0.32057 2.95316,0.95856 2.95316,0.95856c0,0 3.64996,-0.40473 5.10653,0.20824c5.87079,2.4706 1.24401,9.87109 1.24401,9.87109c0,0 5.51226,4.27724 2.61608,8.8406z" fill="#ff7e19" stroke="#000000" stroke-width="1.2" stroke-linecap="round"/><path d="M254.08602,191.8201l1.12337,-3.18027" fill="none" stroke="#000000" stroke-width="1.2" stroke-linecap="round"/><path d="M261.22301,192.06259c-0.82792,2.28466 -2.76188,3.67914 -4.3196,3.11464c-1.73004,-0.62694 -1.21346,-2.87587 -0.55944,-4.88643c0.70583,-2.16985 1.0292,-4.06368 2.8963,-3.38707c1.55773,0.56449 2.81066,2.8742 1.98274,5.15886z" fill="#ffffff" stroke="none" stroke-width="0" stroke-linecap="butt"/><path d="M253.76285,189.69786c-0.70033,1.76603 -2.14459,2.9134 -3.22583,2.56273c-1.20084,-0.38947 -0.72385,-2.11336 -0.16061,-3.66388c0.60786,-1.67336 1.07011,-2.93134 2.36609,-2.51102c1.08124,0.35067 1.72068,1.84615 1.02035,3.61218z" fill="#ffffff" stroke="none" stroke-width="0" stroke-linecap="butt"/><path d="M245.85313,201.46107c-0.66782,0.65993 -2.18476,0.20771 -3.38818,-1.01009c-1.20342,-1.21779 -1.6376,-2.74 -0.96977,-3.39993c0.66782,-0.65993 2.18476,-0.20771 3.38818,1.01009c1.20342,1.21779 1.6376,2.74 0.96977,3.39993z" fill="#ffffff" stroke="none" stroke-width="0" stroke-linecap="butt"/><path d="M249.32203,206.95098c-3.60614,-2.02659 -4.54367,-3.92702 -2.60756,-7.37217c0.86623,-1.54139 2.89375,0.04299 4.47519,-0.50059c1.95322,-0.67137 2.35017,-4.0252 4.34289,-2.90533c2.11799,1.19027 -0.14101,3.41816 -0.12509,5.60112c-0.51443,1.47099 1.55433,4.56072 2.4985,4.80965c0.09817,0.02588 0.19369,0.0491 0.2866,0.06975c-2.01131,2.80166 -5.47895,2.20359 -8.87053,0.29758z" fill="#ffffff" stroke="none" stroke-width="0" stroke-linecap="butt"/><path d="M260.33594,206.82471c0,0 -3.94801,1.22184 -4.98744,-3.70477c-0.4858,-2.30257 3.764,-4.71088 3.764,-4.71088" fill="none" stroke="#000000" stroke-width="1.2" stroke-linecap="round"/></g><path d="M232.65,183.225c0,-0.69036 0.55964,-1.25 1.25,-1.25c0.69036,0 1.25,0.55964 1.25,1.25c0,0.69036 -0.55964,1.25 -1.25,1.25c-0.69036,0 -1.25,-0.55964 -1.25,-1.25z" fill="#000000" fill-rule="nonzero" stroke="#000000" stroke-width="1.2" stroke-linecap="butt" stroke-linejoin="miter"/><path d="M199.15,182.725c0,-0.69036 0.55964,-1.25 1.25,-1.25c0.69036,0 1.25,0.55964 1.25,1.25c0,0.69036 -0.55964,1.25 -1.25,1.25c-0.69036,0 -1.25,-0.55964 -1.25,-1.25z" fill="#000000" fill-rule="nonzero" stroke="#000000" stroke-width="1.2" stroke-linecap="butt" stroke-linejoin="miter"/><path d="M209.9,197.225l4.25,-9.25l10,8.25" fill="none" fill-rule="nonzero" stroke="#001026" stroke-width="1.2" stroke-linecap="round" stroke-linejoin="miter"/></g></g></svg>