<svg version="1.1" xmlns="http://www.w3.org/2000/svg" xmlns:xlink="http://www.w3.org/1999/xlink" width="323.92859" height="323.92859" viewBox="0,0,323.92859,323.92859"><g transform="translate(-78.0357,-18.03571)"><g stroke-miterlimit="10"><g stroke-linecap="butt"><path d="M287.05093,300.69278l5.87524,-70.72106l45.02252,-0.10549l-8.36991,70.82655z" fill="#868995" stroke="#000000" stroke-width="1.2"/><g><g><g><g fill="#868995" stroke="#000000" stroke-width="1.2"><path d="M314.91629,263.73469c0,0 -14.72229,0.34976 -16.50098,-1.93606c-1.3725,-1.76382 0.99403,-25.0985 2.72753,-26.8075c1.77956,-1.75441 16.48082,-1.78714 16.48082,-1.78714"/></g><g fill="none" stroke="none" stroke-width="1" font-family="sans-serif" font-weight="normal" font-size="12" text-anchor="start"/><g fill="none" stroke="none" stroke-width="1" font-family="sans-serif" font-weight="normal" font-size="12" text-anchor="start"/></g><g><g fill="#868995" stroke="#000000" stroke-width="1.2"><path d="M317.51561,233.20399c0,0 14.69461,0.03272 16.11716,1.78714c1.38572,1.709 -0.9961,25.04367 -2.72752,26.80749c-2.24382,2.28582 -16.89495,1.93608 -16.89495,1.93608"/></g><g fill="none" stroke="none" stroke-width="1" font-family="sans-serif" font-weight="normal" font-size="12" text-anchor="start"/><g fill="none" stroke="none" stroke-width="1" font-family="sans-serif" font-weight="normal" font-size="12" text-anchor="start"/></g></g><g><g><g fill="#4e4f56" stroke="#000000" stroke-width="1.2"><path d="M315.04573,261.93812c0,0 -12.98855,0.30856 -14.55777,-1.70807c-1.21087,-1.5561 0.87697,-22.14282 2.40632,-23.65056c1.56999,-1.54781 14.53999,-1.57668 14.53999,-1.57668"/></g><g fill="none" stroke="none" stroke-width="1" font-family="sans-serif" font-weight="normal" font-size="12" text-anchor="start"/><g fill="none" stroke="none" stroke-width="1" font-family="sans-serif" font-weight="normal" font-size="12" text-anchor="start"/></g><g><g fill="#4e4f56" stroke="#000000" stroke-width="1.2"><path d="M317.33894,235.00281c0,0 12.96413,0.02887 14.21915,1.57668c1.22254,1.50775 -0.87881,22.09446 -2.40633,23.65056c-1.97958,2.01664 -14.90534,1.70807 -14.90534,1.70807"/></g><g fill="none" stroke="none" stroke-width="1" font-family="sans-serif" font-weight="normal" font-size="12" text-anchor="start"/><g fill="none" stroke="none" stroke-width="1" font-family="sans-serif" font-weight="normal" font-size="12" text-anchor="start"/></g></g><g><g><g fill="#9497a4" stroke="#000000" stroke-width="1.2"><path d="M315.69296,252.95531c0,0 -4.31985,0.10263 -4.84175,-0.56808c-0.40272,-0.51755 0.29167,-7.36444 0.80032,-7.86589c0.52216,-0.51478 4.83583,-0.52438 4.83583,-0.52438"/></g><g fill="none" stroke="none" stroke-width="1" font-family="sans-serif" font-weight="normal" font-size="12" text-anchor="start"/><g fill="none" stroke="none" stroke-width="1" font-family="sans-serif" font-weight="normal" font-size="12" text-anchor="start"/></g><g><g fill="#9497a4" stroke="#000000" stroke-width="1.2"><path d="M316.45565,243.99694c0,0 4.31171,0.0096 4.72913,0.52438c0.40661,0.50145 -0.29228,7.34836 -0.80032,7.86589c-0.65839,0.67071 -4.95734,0.56808 -4.95734,0.56808"/></g><g fill="none" stroke="none" stroke-width="1" font-family="sans-serif" font-weight="normal" font-size="12" text-anchor="start"/><g fill="none" stroke="none" stroke-width="1" font-family="sans-serif" font-weight="normal" font-size="12" text-anchor="start"/></g></g></g><g><g><g><g fill="#868995" stroke="#000000" stroke-width="1.2"><path d="M311.72024,294.71302c0,0 -11.16835,0.26533 -12.51766,-1.4687c-1.04118,-1.33803 0.75407,-19.03976 2.0691,-20.33621c1.34997,-1.3309 12.50238,-1.35573 12.50238,-1.35573"/></g><g fill="none" stroke="none" stroke-width="1" font-family="sans-serif" font-weight="normal" font-size="12" text-anchor="start"/><g fill="none" stroke="none" stroke-width="1" font-family="sans-serif" font-weight="normal" font-size="12" text-anchor="start"/></g><g><g fill="#868995" stroke="#000000" stroke-width="1.2"><path d="M313.6921,271.55238c0,0 11.14736,0.02483 12.22651,1.35573c1.05122,1.29645 -0.75565,18.99818 -2.06911,20.33621c-1.70216,1.73403 -12.81654,1.46871 -12.81654,1.46871"/></g><g fill="none" stroke="none" stroke-width="1" font-family="sans-serif" font-weight="normal" font-size="12" text-anchor="start"/><g fill="none" stroke="none" stroke-width="1" font-family="sans-serif" font-weight="normal" font-size="12" text-anchor="start"/></g></g><g><g><g fill="#4e4f56" stroke="#000000" stroke-width="1.2"><path d="M311.81844,293.35014c0,0 -9.85313,0.23408 -11.04354,-1.29574c-0.91857,-1.18047 0.66527,-16.79758 1.82543,-17.94135c1.19099,-1.17417 11.03006,-1.19608 11.03006,-1.19608"/></g><g fill="none" stroke="none" stroke-width="1" font-family="sans-serif" font-weight="normal" font-size="12" text-anchor="start"/><g fill="none" stroke="none" stroke-width="1" font-family="sans-serif" font-weight="normal" font-size="12" text-anchor="start"/></g><g><g fill="#4e4f56" stroke="#000000" stroke-width="1.2"><path d="M313.55809,272.91697c0,0 9.83461,0.02191 10.78667,1.19608c0.92741,1.14378 -0.66667,16.76089 -1.82544,17.94135c-1.50172,1.52982 -11.30722,1.29574 -11.30722,1.29574"/></g><g fill="none" stroke="none" stroke-width="1" font-family="sans-serif" font-weight="normal" font-size="12" text-anchor="start"/><g fill="none" stroke="none" stroke-width="1" font-family="sans-serif" font-weight="normal" font-size="12" text-anchor="start"/></g></g><g><g><g fill="#9497a4" stroke="#000000" stroke-width="1.2"><path d="M312.30942,286.53577c0,0 -3.27703,0.07784 -3.67296,-0.43095c-0.3055,-0.39261 0.22127,-5.58668 0.60713,-5.96708c0.39611,-0.39051 3.66846,-0.39781 3.66846,-0.39781"/></g><g fill="none" stroke="none" stroke-width="1" font-family="sans-serif" font-weight="normal" font-size="12" text-anchor="start"/><g fill="none" stroke="none" stroke-width="1" font-family="sans-serif" font-weight="normal" font-size="12" text-anchor="start"/></g><g><g fill="#9497a4" stroke="#000000" stroke-width="1.2"><path d="M312.88801,279.73993c0,0 3.27087,0.00728 3.58752,0.39781c0.30845,0.3804 -0.22173,5.57447 -0.60712,5.96708c-0.49944,0.5088 -3.76065,0.43095 -3.76065,0.43095"/></g><g fill="none" stroke="none" stroke-width="1" font-family="sans-serif" font-weight="normal" font-size="12" text-anchor="start"/><g fill="none" stroke="none" stroke-width="1" font-family="sans-serif" font-weight="normal" font-size="12" text-anchor="start"/></g></g></g></g><g stroke-linecap="butt"><path d="M150.4212,300.69278l-8.00783,-70.82655l45.02199,0.10549l5.5137,70.72106z" fill="#868995" stroke="#000000" stroke-width="1.2"/><g><g><g><g fill="#868995" stroke="#000000" stroke-width="1.2"><path d="M162.72135,233.20399c0,0 14.70109,0.03272 16.47168,1.78714c1.72475,1.709 3.97199,25.04367 2.59049,26.80749c-1.79037,2.28582 -16.51087,1.93607 -16.51087,1.93607"/></g><g fill="none" stroke="none" stroke-width="1" font-family="sans-serif" font-weight="normal" font-size="12" text-anchor="start"/><g fill="none" stroke="none" stroke-width="1" font-family="sans-serif" font-weight="normal" font-size="12" text-anchor="start"/></g><g><g fill="#868995" stroke="#000000" stroke-width="1.2"><path d="M166.17864,263.73469c0,0 -14.65291,0.34976 -16.88505,-1.93606c-1.7224,-1.76382 -3.98495,-25.09849 -2.59049,-26.80749c1.43152,-1.75441 16.1263,-1.78714 16.1263,-1.78714"/></g><g fill="none" stroke="none" stroke-width="1" font-family="sans-serif" font-weight="normal" font-size="12" text-anchor="start"/><g fill="none" stroke="none" stroke-width="1" font-family="sans-serif" font-weight="normal" font-size="12" text-anchor="start"/></g></g><g><g><g fill="#4e4f56" stroke="#000000" stroke-width="1.2"><path d="M162.90154,235.00281c0,0 12.96986,0.02887 14.53193,1.57668c1.52165,1.50775 3.50423,22.09446 2.28541,23.65056c-1.57953,2.01664 -14.5665,1.70807 -14.5665,1.70807"/></g><g fill="none" stroke="none" stroke-width="1" font-family="sans-serif" font-weight="normal" font-size="12" text-anchor="start"/><g fill="none" stroke="none" stroke-width="1" font-family="sans-serif" font-weight="normal" font-size="12" text-anchor="start"/></g><g><g fill="#4e4f56" stroke="#000000" stroke-width="1.2"><path d="M165.95168,261.93812c0,0 -12.92733,0.30856 -14.89661,-1.70807c-1.51956,-1.5561 -3.51567,-22.14282 -2.28541,-23.65056c1.26295,-1.54781 14.22721,-1.57668 14.22721,-1.57668"/></g><g fill="none" stroke="none" stroke-width="1" font-family="sans-serif" font-weight="normal" font-size="12" text-anchor="start"/><g fill="none" stroke="none" stroke-width="1" font-family="sans-serif" font-weight="normal" font-size="12" text-anchor="start"/></g></g><g><g><g fill="#9497a4" stroke="#000000" stroke-width="1.2"><path d="M163.80247,243.99694c0,0 4.31363,0.0096 4.83315,0.52438c0.50609,0.50145 1.16547,7.34836 0.7601,7.86589c-0.52534,0.67071 -4.84464,0.56808 -4.84464,0.56808"/></g><g fill="none" stroke="none" stroke-width="1" font-family="sans-serif" font-weight="normal" font-size="12" text-anchor="start"/><g fill="none" stroke="none" stroke-width="1" font-family="sans-serif" font-weight="normal" font-size="12" text-anchor="start"/></g><g><g fill="#9497a4" stroke="#000000" stroke-width="1.2"><path d="M164.81691,252.95531c0,0 -4.29948,0.10263 -4.95444,-0.56808c-0.50538,-0.51755 -1.16927,-7.36444 -0.7601,-7.86589c0.42004,-0.51478 4.7318,-0.52438 4.7318,-0.52438"/></g><g fill="none" stroke="none" stroke-width="1" font-family="sans-serif" font-weight="normal" font-size="12" text-anchor="start"/><g fill="none" stroke="none" stroke-width="1" font-family="sans-serif" font-weight="normal" font-size="12" text-anchor="start"/></g></g></g><g><g><g><g fill="#868995" stroke="#000000" stroke-width="1.2"><path d="M166.37489,271.55238c0,0 11.15229,0.02483 12.49545,1.35573c1.3084,1.29645 3.01316,18.99818 1.96514,20.33621c-1.35818,1.73403 -12.52517,1.46871 -12.52517,1.46871"/></g><g fill="none" stroke="none" stroke-width="1" font-family="sans-serif" font-weight="normal" font-size="12" text-anchor="start"/><g fill="none" stroke="none" stroke-width="1" font-family="sans-serif" font-weight="normal" font-size="12" text-anchor="start"/></g><g><g fill="#868995" stroke="#000000" stroke-width="1.2"><path d="M168.99761,294.71302c0,0 -11.11573,0.26533 -12.80903,-1.4687c-1.3066,-1.33803 -3.02298,-19.03976 -1.96514,-20.3362c1.08595,-1.3309 12.23344,-1.35573 12.23344,-1.35573"/></g><g fill="none" stroke="none" stroke-width="1" font-family="sans-serif" font-weight="normal" font-size="12" text-anchor="start"/><g fill="none" stroke="none" stroke-width="1" font-family="sans-serif" font-weight="normal" font-size="12" text-anchor="start"/></g></g><g><g><g fill="#4e4f56" stroke="#000000" stroke-width="1.2"><path d="M166.51159,272.91697c0,0 9.83895,0.02191 11.02394,1.19608c1.15433,1.14378 2.65833,16.76089 1.73372,17.94135c-1.19823,1.52982 -11.05017,1.29574 -11.05017,1.29574"/></g><g fill="none" stroke="none" stroke-width="1" font-family="sans-serif" font-weight="normal" font-size="12" text-anchor="start"/><g fill="none" stroke="none" stroke-width="1" font-family="sans-serif" font-weight="normal" font-size="12" text-anchor="start"/></g><g><g fill="#4e4f56" stroke="#000000" stroke-width="1.2"><path d="M168.82543,293.35014c0,0 -9.8067,0.23408 -11.3006,-1.29574c-1.15275,-1.18047 -2.667,-16.79758 -1.73372,-17.94135c0.95807,-1.17417 10.79279,-1.19608 10.79279,-1.19608"/></g><g fill="none" stroke="none" stroke-width="1" font-family="sans-serif" font-weight="normal" font-size="12" text-anchor="start"/><g fill="none" stroke="none" stroke-width="1" font-family="sans-serif" font-weight="normal" font-size="12" text-anchor="start"/></g></g><g><g><g fill="#9497a4" stroke="#000000" stroke-width="1.2"><path d="M167.19503,279.73993c0,0 3.27232,0.00729 3.66644,0.3978c0.38391,0.3804 0.88413,5.57448 0.57662,5.96708c-0.39852,0.5088 -3.67516,0.43095 -3.67516,0.43095"/></g><g fill="none" stroke="none" stroke-width="1" font-family="sans-serif" font-weight="normal" font-size="12" text-anchor="start"/><g fill="none" stroke="none" stroke-width="1" font-family="sans-serif" font-weight="normal" font-size="12" text-anchor="start"/></g><g><g fill="#9497a4" stroke="#000000" stroke-width="1.2"><path d="M167.9646,286.53577c0,0 -3.26159,0.07785 -3.75844,-0.43095c-0.38339,-0.39261 -0.88701,-5.58668 -0.57661,-5.96708c0.31865,-0.39051 3.58955,-0.3978 3.58955,-0.3978"/></g><g fill="none" stroke="none" stroke-width="1" font-family="sans-serif" font-weight="normal" font-size="12" text-anchor="start"/><g fill="none" stroke="none" stroke-width="1" font-family="sans-serif" font-weight="normal" font-size="12" text-anchor="start"/></g></g></g></g><path d="M187.3461,300.92055l-3.94905,-103.37655h113.20589l-3.94904,103.37655z" fill="#868995" stroke="#000000" stroke-width="1.2" stroke-linecap="butt"/><g stroke="#000000" stroke-width="1.2" stroke-linecap="butt"><g fill="#868995"><path d="M240.80288,245.80576c0,0 -44.85313,0.45399 -48.0377,-2.51313c-2.45732,-2.28954 -2.46945,-32.57923 0,-34.79762c2.53508,-2.27732 47.40598,-2.31981 47.40598,-2.31981"/><path d="M239.82882,206.17521c0,0 44.87091,0.04248 47.40598,2.31981c2.46946,2.21839 2.45734,32.50809 0,34.79762c-3.18457,2.96712 -48.0377,2.51313 -48.0377,2.51313"/></g><g fill="#4e4f56"><path d="M240.76191,243.54599c0,0 -42.56392,0.40218 -45.58596,-2.22635c-2.33192,-2.02826 -2.34342,-28.8615 0,-30.82673c2.40569,-2.01745 44.98648,-2.05509 44.98648,-2.05509"/><path d="M239.83756,208.43782c0,0 42.5808,0.03764 44.98649,2.05509c2.34342,1.96524 2.33191,28.79847 0,30.82673c-3.02204,2.62853 -45.58597,2.22635 -45.58597,2.22635"/></g><g fill="#9497a4"><path d="M240.24829,231.83058c0,0 -13.87108,0.13359 -14.85592,-0.73958c-0.75994,-0.67378 -0.7637,-9.58753 0,-10.24036c0.78398,-0.67018 14.66055,-0.68268 14.66055,-0.68268"/><path d="M239.94707,220.16797c0,0 13.87656,0.01251 14.66055,0.68268c0.76369,0.65283 0.75994,9.56659 0,10.24036c-0.98485,0.87317 -14.85592,0.73957 -14.85592,0.73957"/></g></g><g stroke="#000000" stroke-width="1.2" stroke-linecap="butt"><g fill="#868995"><path d="M240.69234,286.48518c0,0 -38.67744,0.39148 -41.42353,-2.16711c-2.11899,-1.97429 -2.12944,-28.0935 0,-30.00643c2.18603,-1.96376 40.87879,-2.0004 40.87879,-2.0004"/><path d="M239.85239,252.31124c0,0 38.69277,0.03663 40.8788,2.0004c2.12944,1.91293 2.11899,28.03214 0,30.00643c-2.7461,2.55858 -41.42354,2.1671 -41.42354,2.1671"/></g><g fill="#4e4f56"><path d="M240.65701,284.53654c0,0 -36.70342,0.34681 -39.30935,-1.91981c-2.01084,-1.74899 -2.02077,-24.88765 0,-26.5823c2.07446,-1.73968 38.79241,-1.77213 38.79241,-1.77213"/><path d="M239.85993,254.26232c0,0 36.71797,0.03246 38.79242,1.77213c2.02076,1.69465 2.01083,24.8333 0,26.58229c-2.60595,2.26662 -39.30936,1.91981 -39.30936,1.91981"/></g><g fill="#9497a4"><path d="M240.21411,274.43419c0,0 -11.9612,0.1152 -12.81044,-0.63774c-0.65531,-0.581 -0.65854,-8.26744 0,-8.83038c0.67604,-0.5779 12.64198,-0.58869 12.64198,-0.58869"/><path d="M239.95435,264.37737c0,0 11.96594,0.01079 12.64198,0.58869c0.65854,0.56294 0.65531,8.24938 0,8.83039c-0.84924,0.75295 -12.81044,0.63774 -12.81044,0.63774"/></g></g><path d="M192.3543,176.07743" fill="none" stroke="#000000" stroke-width="1.2" stroke-linecap="round"/><path d="M200.34225,180.47579" fill="none" stroke="#000000" stroke-width="1.2" stroke-linecap="round"/><g><g stroke-linecap="round"><g stroke="#000000" stroke-width="1.2"><path d="M202.05114,158.51619c-15.83255,-2.54624 -27.60819,-33.1413 -27.60819,-33.1413c10.02179,-1.63404 14.224,2.09469 14.7645,2.44881c0.54065,0.35497 10.53559,8.35512 10.53559,8.35512c-0.6584,13.44656 2.30809,22.33737 2.30809,22.33737zM200.09173,133.31543c0,0 -0.32693,2.04125 -0.36252,3.14777M202.05114,158.51619c0.29783,0.89467 1.12213,2.27431 1.12213,2.27431" fill="#be1e2d"/><path d="M195.50038,155.40942c-3.00828,-1.92915 -6.68901,-4.97344 -10.22237,-9.68401c-3.15028,-4.20019 -6.46475,-10.78721 -8.58206,-15.32725l0.06223,-0.06863c6.17463,-1.41721 9.94981,2.6249 9.94981,2.6249l0.23594,0.32496c1.57598,2.40529 3.2595,4.81642 4.60891,6.34743c0.79666,0.90536 1.64005,1.69085 2.42381,2.34217c0,0 1.69499,4.1944 2.07214,7.16639c0.56398,4.3958 -0.67275,6.20915 -0.67275,6.20915z" fill="#929497"/></g><path d="M263.80214,168.55745l-10.48359,8.89246l-24.22319,1.32251l-10.10541,4.91564l-15.61193,-3.93884l-6.95062,-8.00836l-6.08725,-9.68105l-3.86731,-12.32255l0.10483,-12.31054l2.67777,-9.48412l4.47914,-9.35485l6.27693,-8.54735l7.18551,-7.70934l8.05519,-7.15619l5.68384,-4.14394l2.4229,-2.91556l2.5929,-4.73505l1.68022,-4.5612l1.32345,-6.12216l-0.64167,-8.16311l4.76092,5.48756l4.98272,7.111l0.08101,-3.9239l1.05903,2.10542l4.14549,6.629l5.7898,6.24304l3.79272,2.91771l5.52767,4.32442l6.72804,5.20582l6.07227,6.05211l5.05339,6.49897l4.39763,7.34526l3.27791,7.05422l1.17965,7.50518l0.57438,7.59186l-0.94877,6.60624l-2.28046,8.15121l-2.8552,5.07357l-4.94823,6.87483z" fill="#be1e2d" stroke="#8c8c8c" stroke-width="0"/><path d="M274.61161,169.5146l-10.85942,-0.87856l-10.46386,9.05066l-24.16089,1.05282l-10.11436,4.87238l-14.8485,-3.23271c0,0 -49.32574,-41.24446 16.47548,-88.7869c0,0 11.49667,-11.79067 7.19035,-27.80781c-0.35025,-1.30273 10.03907,13.3142 10.03907,13.3142c0,0 -0.21974,-5.31108 0.02187,-4.65321c2.67761,7.29078 11.80511,16.42855 11.80511,16.42855c56.68678,36.11909 29.78119,74.78612 29.78119,74.78612z" fill="none" stroke="#000000" stroke-width="1.2"/><g stroke="#000000" stroke-width="1.2"><path d="M277.04335,125.21582c0,0 7.83431,-11.36686 8.2794,-11.91261c0.44518,-0.54494 3.63886,-5.64844 14.14175,-8.46666c0,0 -3.42557,32.20138 -18.61215,41.20968c0,0 0.53849,-9.16353 -3.80901,-20.83041zM277.13522,125.46259c-0.33911,-0.96799 -1.22681,-2.64236 -1.22681,-2.64236M280.35014,148.54509c0,0 0.44871,-1.57704 0.50221,-2.49887" fill="#be1e2d"/><path d="M286.67982,140.384c0,0 -1.738,-1.08423 -2.37745,-5.23024c-0.4365,-2.80132 0.114,-7.25031 0.114,-7.25031c0.60776,-0.91263 1.23856,-1.96991 1.7896,-3.11377c0.93408,-1.93527 1.96201,-4.7949 2.88367,-7.60352l0.14763,-0.38925c0,0 2.67932,-5.19996 9.26288,-6.57165l0.08125,0.03446c-0.87946,4.93603 -2.39875,12.20086 -4.40776,17.27506c-2.25343,5.69089 -5.11157,9.96407 -7.60081,12.9599z" fill="#929497"/></g></g><g><g><path d="M273.46896,147.65605c2.19238,15.67438 -12.97388,30.7509 -33.87479,33.67431c-20.90093,2.92342 -39.62176,-7.41327 -41.81413,-23.08767c-2.19238,-15.67438 12.97387,-30.7509 33.87479,-33.67431c20.90093,-2.92342 39.62175,7.41327 41.81413,23.08767z" fill="#e6e7e8" stroke="#000000" stroke-width="1.2" stroke-linecap="butt"/><path d="M214.59192,181.06003l2.26649,2.61767l2.83628,1.68596l-1.81194,0.6321l-4.37411,-0.52419l-4.05246,-1.79986l-1.83511,-2.394l-4.8892,-2.06149l-3.68603,-2.04044l0.23367,2.36812c-5.72098,-9.24319 -14.85289,-18.64218 -12.82647,-32.03474c25.60473,-31.13187 70.95049,-40.2626 88.72237,-8.97447c0.23764,0.41839 0.4613,0.83648 0.67151,1.2543c0.16456,0.63471 0.2874,1.22923 0.35352,1.77027c0.74799,6.12018 0.65246,12.20114 0.86849,18.39794c0.01423,0.40828 -0.03614,0.86687 -0.12705,1.35192l-0.79574,1.37108l-0.35433,-1.42178l-2.03797,5.43476l-4.40575,5.1774l-2.84753,1.86963l-0.12796,-4.249l-0.65493,-5.79376l-1.10333,-4.55398l-1.08747,0.00496l0.25556,-1.50708l0.88778,-3.65539l-0.4127,-4.06204l-1.23561,-4.38834l-3.82759,-4.02579l-6.2267,-3.39598l-8.06752,-2.10854l-9.27827,-0.76212l2.44852,0.8346l3.91049,2.39573l2.31405,3.20754l-17.37714,-1.98348l-16.78745,-2.21308l-0.35864,2.99286l-2.06933,6.32195l-1.97741,5.86769l0.74685,5.3395l3.31863,4.83266l4.48902,3.1976l-3.12111,1.02509l-2.74445,0.38386l0.48444,3.46347l2.20197,3.5175l2.44634,3.04191l2.69073,2.56632z" fill="#be1e2d" stroke="#8c8c8c" stroke-width="0" stroke-linecap="butt"/><path d="M209.53042,137.44482c-0.51248,8.04222 -4.84913,12.59192 -4.2602,16.74545c1.2122,8.54938 8.70535,11.48208 8.70535,11.48208c0,0 -5.07677,3.20867 -11.44859,0.11825" fill="none" stroke="#000000" stroke-width="1.2" stroke-linecap="round"/><path d="M197.3676,157.84526c-0.83749,-1.53199 -1.66213,-3.30139 -2.46181,-5.34135" fill="none" stroke="#000000" stroke-width="1.2" stroke-linecap="round"/><path d="M202.99075,135.69409c15.66847,4.00717 41.19243,5.52724 41.19243,5.52724c0,0 -2.9725,-4.14054 -8.7882,-5.98311c0,0 36.19447,-1.05033 27.40897,24.23161c0,0 3.4506,-2.12325 5.65037,-5.97349" fill="none" stroke="#000000" stroke-width="1.2" stroke-linecap="round"/><path d="M269.80418,144.37966c0.36159,1.76817 0.55847,2.58698 0.2854,4.07419" fill="none" stroke="#000000" stroke-width="1.2" stroke-linecap="round"/><path d="M274.92037,162.00845c-1.33897,6.85899 -8.97872,11.60396 -8.97872,11.60396c0,0 0.17306,-9.755 -2.06491,-14.76298" fill="none" stroke="#000000" stroke-width="1.2" stroke-linecap="round"/><path d="M196.84811,157.62277c-3.72237,7.96218 2.5239,21.59752 2.5239,21.59752c0,0 -17.37565,-19.95428 -12.49005,-32.7759" fill="none" stroke="#000000" stroke-width="1.2" stroke-linecap="round"/><path d="M277.66848,159.61323c-1.21046,2.49682 -2.20807,3.88757 -2.20807,3.88757c0,0 0.14901,-9.72978 -5.40043,-14.9236" fill="none" stroke="#000000" stroke-width="1.2" stroke-linecap="round"/><path d="M208.23406,167.25937c-0.53044,6.81144 7.90439,12.69188 7.90439,12.69188c0,0 -10.24721,3.34393 -17.53071,-3.34917" fill="none" stroke="#000000" stroke-width="1.2" stroke-linecap="round"/><path d="M213.88957,180.54491c1.45422,3.12135 5.93125,4.80339 5.93125,4.80339c0,0 -8.1697,2.63061 -13.09808,-4.58696" fill="none" stroke="#000000" stroke-width="1.2" stroke-linecap="round"/></g><g><path d="M257.03276,148.5719c0.53928,-0.10854 0.88925,0.6825 1.03283,1.01722c0.53835,1.25509 0.57148,2.81094 -0.33201,3.87992l-0.40205,0.10702c-0.17643,0.0899 -0.43298,0.13723 -0.79297,0.12087c-3.02879,-0.1376 -5.68853,-0.3189 -8.64563,0.92429c-0.84837,0.35666 -2.30172,1.81567 -3.02761,1.9853c-0.93109,0.21758 -1.29004,-0.0054 -1.50763,-0.93648c-0.21232,-0.90857 1.47791,-1.74683 2.08508,-2.08314c2.11382,-1.17088 4.52846,-1.86265 6.94267,-2.14578c0.476,-0.51712 0.71757,-1.12127 0.99203,-1.86478c0.07895,-0.21386 0.40803,-1.04831 0.49707,-1.06496c1.00004,-0.18698 1.23974,1.49834 1.24216,2.75967c0.26468,0.00123 0.53283,0.01131 0.78009,0.03615c0.35971,-1.10563 0.75005,-2.65766 1.13599,-2.73533z" fill="#000000" stroke="none" stroke-width="0.5" stroke-linecap="butt"/><path d="M219.07407,158.25168c0.20395,-0.12939 0.43063,-0.25204 0.65725,-0.36402c-0.4106,-1.31929 -0.75642,-3.18092 0.16248,-3.4037c0.08183,-0.01985 0.63708,0.71464 0.77476,0.90513c0.47868,0.66231 0.88353,1.19269 1.46098,1.53408c2.16326,-0.71373 4.4606,-1.00054 6.65669,-0.66084c0.6308,0.09757 2.35475,0.26679 2.46991,1.30516c0.11801,1.06411 -0.11692,1.44726 -0.98668,1.60924c-0.67808,0.12628 -2.40196,-0.79077 -3.24629,-0.80872c-2.94303,-0.06261 -5.16493,1.23915 -7.71768,2.64964c-0.30341,0.16766 -0.53894,0.22548 -0.71967,0.20531l-0.37985,0.05628c-1.12468,-0.73939 -1.60529,-2.37931 -1.5542,-3.91617c0.01363,-0.40987 0.05501,-1.38298 0.55304,-1.49508c0.35643,-0.08021 1.19899,1.37861 1.86926,2.3837z" fill="#000000" stroke="none" stroke-width="0.5" stroke-linecap="butt"/><path d="M250.74816,164.32542c-9.31628,10.03321 -22.37795,6.66594 -22.37795,6.66594" fill="none" stroke="#000000" stroke-width="1.2" stroke-linecap="round"/></g></g></g><path d="M266.95966,164.10718" fill="none" stroke="#000000" stroke-width="1.2" stroke-linecap="round"/><g stroke="#000000" stroke-width="1.2"><path d="M229.19211,178.63598c0.19007,-0.0302 0.37275,-0.05415 0.54821,-0.07206c0.28812,-0.08192 0.59915,-0.09682 0.90851,-0.0388c6.83429,0.17276 -0.64895,12.05761 -3.16393,12.88031c-2.13272,0.69765 -6.80205,-0.76286 -6.01926,-3.93541c0.28254,-1.14508 6.62521,-8.40866 7.67527,-8.75216z" fill="#be1e2d" stroke-linecap="butt"/><g><path d="M221.90594,195.77214c-0.23586,-0.23725 -3.02334,-3.21691 -3.02334,-3.21691c0,0 1.00739,5.03168 -2.22058,6.40562c-1.74781,0.74393 -5.62243,0.16986 -7.6459,0.32794c0,0 -2.31596,0.17914 -2.66076,-2.14956c-0.3448,-2.3287 1.97116,-2.50783 1.97116,-2.50783c0.44858,-0.03438 1.01323,-0.01541 1.62718,0.02045c2.12105,-5.98803 2.91516,-15.85863 11.47969,-10.78639c3.51556,2.08205 4.2976,2.90403 4.2976,2.90403c0,0 2.46428,-10.04095 7.16288,-9.42828c15.33477,1.99956 10.68313,19.97177 4.78342,20.62974c-8.95051,0.99821 -12.89965,0.68982 -15.77139,-2.19881z" fill="#be1e2d" stroke-linecap="butt"/><path d="M227.61608,191.84934c-0.78187,-3.20306 1.13574,-14.1335 6.23585,-10.78277c4.01465,2.63759 2.38202,8.33619 1.01219,11.27005c-1.542,3.30266 -6.40064,2.98429 -7.24804,-0.48728z" fill="#e6e7e8" stroke-linecap="round"/></g><path d="M239.01792,180.09386c1.06082,-1.58434 3.72298,-1.18759 4.84196,-0.84674c3.17181,0.96615 3.48866,3.66846 4.33895,6.67218c0.73958,2.61271 2.04891,5.50079 3.89387,7.07516c3.37555,0.87774 9.11068,-0.09053 8.51313,4.34581c-0.14328,1.06366 -5.95189,1.54055 -8.20111,1.6162c1.63331,2.40989 -0.76862,2.72103 -3.00888,1.46096c-0.91884,-0.51682 -3.10568,-1.32729 -4.61814,-2.87032c-1.51246,-1.54303 -0.69685,-2.36486 -0.94311,-3.57746c-0.55874,-2.75101 -1.79338,-3.85461 -2.77067,-6.36734" fill="#be1e2d" stroke-linecap="butt"/><path d="M221.25921,183.81386c-0.16874,1.27292 -1.65624,1.63144 -1.65624,1.63144c0,0 -1.00289,2.43562 -4.64798,3.24193c-4.91045,1.08622 -6.55171,-5.19047 -1.91887,-7.53982c0,0 3.83843,-2.56991 5.97172,-1.93709c0.71569,0.2123 0.78907,1.26761 1.16235,1.95597c0.7488,1.38082 1.25776,1.37465 1.08902,2.64757z" fill="#be1e2d" stroke-linecap="butt"/></g><path d="M238.41655,196.60077c4.19787,4.34012 7.66787,15.64628 0.8298,15.54614c-1.04588,-0.01531 -1.92669,-0.79754 -2.89002,-1.19631c-1.51438,-2.1323 -2.3021,-4.4675 -3.85061,-6.58109c-1.43731,-1.96183 -4.10435,-3.78209 -4.90652,-6.08723c-1.56182,-4.48805 5.39109,-7.98073 9.46156,-5.85492" fill="#be1e2d" stroke="#000000" stroke-width="1.2" stroke-linecap="butt"/><path d="M78.0357,341.96431v-323.92859h323.92859v323.92859z" fill="none" stroke="#000000" stroke-width="0" stroke-linecap="butt"/></g></g></svg>