<svg version="1.1" xmlns="http://www.w3.org/2000/svg" xmlns:xlink="http://www.w3.org/1999/xlink" width="88.15957" height="123.44866" viewBox="0,0,88.15957,123.44866"><g transform="translate(-172.26083,-105.65441)"><g stroke-miterlimit="10"><g fill-rule="evenodd"><path d="M237.50168,184.86272c1.54319,-2.01999 3.28336,-4.60237 3.74545,-7.85108c1.14904,-7.34256 -2.68382,-14.37185 1.59854,-15.48017c4.3599,-1.17742 12.6133,8.35999 5.69612,19.68234c-2.36673,3.91445 -5.3136,6.54057 -7.78121,8.61067c-0.62039,0.55287 -6.41644,4.81544 -10.43986,4.01663c-4.02342,-0.7988 -3.27742,-2.62416 -2.91141,-3.46614c0.37997,-0.98336 7.83729,-2.72891 10.09236,-5.51227z" fill="#ffab19" stroke="#001026" stroke-width="1.2" stroke-linecap="round" stroke-linejoin="round"/><path d="M242.50759,162.09071c1.93256,-0.9485 5.37905,1.39603 6.82938,4.61683c1.45032,3.22079 1.35426,5.62751 1.17286,7.46552c-0.29007,-0.64416 -1.37896,-2.51069 -3.52404,-2.27545c-2.70965,0.22258 -5.00662,3.43009 -5.00662,3.43009c0,0 -0.01258,-4.8889 -0.48887,-7.94612c-0.22191,-2.76812 -0.7881,-4.19782 1.01726,-5.29089z" fill="#ffffff" stroke="none" stroke-width="1" stroke-linecap="butt" stroke-linejoin="miter"/></g><g><g><g><path d="M213.44786,127.19181c0,0 26.32639,-9.17873 27.77082,-9.09281c1.07217,0.06378 -4.87846,27.2133 -4.87846,27.2133" fill="#ffab19" fill-rule="nonzero" stroke="#001026" stroke-width="1.2" stroke-linecap="round" stroke-linejoin="miter"/><path d="M200.54121,165.99168l-25.76616,-9.49787l-1.8694,-8.33636l3.6245,-4.98606l5.047,0.59215l0.28125,1.18459z" fill="#9b7f41" fill-rule="nonzero" stroke="#001026" stroke-width="1.2" stroke-linecap="round" stroke-linejoin="miter"/><path d="M257.05164,163.50325c-5.34902,2.97624 -12.42316,1.88526 -12.42316,1.88526" fill="none" fill-rule="evenodd" stroke="#001026" stroke-width="1.2" stroke-linecap="round" stroke-linejoin="round"/><path d="M253.58515,174.34955c-6.27065,-0.54724 -9.71987,-3.0681 -9.71987,-3.0681" fill="none" fill-rule="evenodd" stroke="#001026" stroke-width="1.2" stroke-linecap="round" stroke-linejoin="round"/><path d="M220.50119,134.37517c15.78211,4.84795 17.8343,14.23452 17.8343,14.23452c2.05855,5.96057 1.27552,10.42129 1.27552,10.42129c0,0 6.54541,3.24719 6.60521,9.07478c0.05979,5.82758 -6.36577,15.76661 -25.51039,16.31418c-19.14461,0.54759 -32.9411,-6.98431 -37.66575,-19.41615c-0.12938,-0.34042 -0.26038,-0.68222 -0.30835,-1.04226c-3.6803,-27.61673 26.96736,-32.90453 37.76943,-29.58634z" fill="#ffab19" fill-rule="evenodd" stroke="#001026" stroke-width="1.2" stroke-linecap="butt" stroke-linejoin="miter"/><path d="M222.11269,161.4892c7.15246,0.69594 9.16971,-5.39377 17.12602,-2.11275c0,0 6.40819,2.91785 6.468,8.74544c0.0598,5.82761 -6.65979,15.20673 -25.58888,15.68859c-24.69006,0.93914 -33.13849,-15.18256 -24.49854,-24.54398c8.65953,-9.46019 18.14561,1.42724 26.49338,2.2227z" fill="#ffffff" fill-rule="evenodd" stroke="none" stroke-width="1" stroke-linecap="butt" stroke-linejoin="miter"/><path d="M217.4682,159.37911c0.13696,-1.20164 2.80198,-0.85425 4.76159,-0.52377c2.05756,0.347 4.17397,0.90806 4.13491,1.61589c-0.17613,1.39915 -2.19399,3.91658 -3.78124,3.75094c-1.80279,-0.09992 -5.42852,-3.26294 -5.11525,-4.84309z" fill="#001026" fill-rule="evenodd" stroke="#001026" stroke-width="1.2" stroke-linecap="round" stroke-linejoin="round"/><path d="M196.54838,163.00534c0,0 -6.58162,-2.70374 -9.41814,-7.9546" fill="none" fill-rule="evenodd" stroke="#001026" stroke-width="1.2" stroke-linecap="round" stroke-linejoin="round"/><path d="M193.8744,168.3673c0,0 -4.32884,0.35947 -9.92654,-2.39131" fill="none" fill-rule="evenodd" stroke="#001026" stroke-width="1.2" stroke-linecap="round" stroke-linejoin="round"/><path d="M181.9988,155.76842l-5.70954,-16.09119l14.3407,-17.87206l48.08243,1.33519l-0.76845,22.83108l-43.45645,-2.08521z" fill="#c58600" fill-rule="nonzero" stroke="#001026" stroke-width="1.2" stroke-linecap="round" stroke-linejoin="miter"/><path d="M190.82112,122.00768l3.67488,21.67832" fill="none" fill-rule="nonzero" stroke="#001026" stroke-width="0.75" stroke-linecap="round" stroke-linejoin="miter"/><path d="M183.63829,145.36856c0,0 -9.42331,-12.95341 -8.23102,-13.3131c1.06393,-0.32098 14.80639,-9.8542 14.80639,-9.8542l-5.9215,7.74782z" fill="#ffab19" fill-rule="nonzero" stroke="#001026" stroke-width="1.2" stroke-linecap="round" stroke-linejoin="miter"/></g><path d="M258.66002,155.69387c-5.48526,21.28323 -28.86607,34.19697 -52.22246,28.84368c-23.3564,-5.3533 -37.84383,-26.94645 -32.35855,-48.22968c5.48526,-21.28324 28.86607,-34.19698 52.22246,-28.84369c23.3564,5.3533 37.84383,26.94645 32.35855,48.22968z" fill="none" fill-rule="nonzero" stroke="#ffffff" stroke-width="1.2" stroke-linecap="butt" stroke-linejoin="miter"/><path d="M203.83593,110.47748l4.86062,10.9495l-9.1228,4.17147l-8.0086,-2.01165l-0.33082,-7.26735z" fill="#ffffff" fill-rule="nonzero" stroke="#001026" stroke-width="0" stroke-linecap="round" stroke-linejoin="miter"/><path d="M184.5216,129.84216l-6.88612,2.12246l6.88827,-2.36826" fill="#000000" fill-rule="nonzero" stroke="none" stroke-width="0" stroke-linecap="round" stroke-linejoin="miter"/></g><g stroke="#001026"><g fill-rule="evenodd"><path d="M226.83192,142.79129c3.11543,-1.41377 7.28976,1.53557 9.25015,6.45897c1.96042,4.92341 1.05993,9.97667 -2.03593,11.29168c-3.09585,1.31501 -7.19177,-1.51905 -9.25015,-6.45897c-1.96041,-4.9234 -1.05991,-9.97665 2.03595,-11.29166z" fill="#ffffff" stroke-width="1.2" stroke-linecap="round" stroke-linejoin="round"/><path d="M228.54642,153.69968c-0.21535,1.08638 -1.17541,1.84302 -2.15519,1.67777c-0.97979,-0.16523 -1.58743,-1.18628 -1.37207,-2.27263c0.21535,-1.08637 1.17541,-1.84302 2.15519,-1.67777c0.97981,0.16522 1.58744,1.18627 1.37208,2.27262" fill="#001026" stroke-width="0" stroke-linecap="butt" stroke-linejoin="miter"/></g><g fill-rule="evenodd"><path d="M202.6725,143.10383c3.48769,-1.75923 7.62287,1.38765 9.70082,6.22881c2.07796,4.84116 0.82478,10.14114 -2.19267,11.57143c-3.60532,1.33114 -7.64234,-0.77857 -9.72029,-5.61972c-2.17594,-4.85768 -1.25595,-10.52003 2.21216,-12.18051z" fill="#ffffff" stroke-width="1.2" stroke-linecap="round" stroke-linejoin="round"/><path d="M205.36336,153.93482c-0.21535,1.08638 -1.17541,1.84303 -2.1552,1.67778c-0.97979,-0.16523 -1.58743,-1.18628 -1.37207,-2.27263c0.21536,-1.08637 1.17541,-1.84303 2.1552,-1.67778c0.96025,0.264 1.58745,1.18629 1.37208,2.27264" fill="#001026" stroke-width="0" stroke-linecap="butt" stroke-linejoin="miter"/></g><g fill="#ffffff" fill-rule="nonzero" stroke-width="1.2" stroke-linecap="round" stroke-linejoin="miter"><path d="M225.11528,173.89735c-0.66212,0.56518 -19.72448,4.89112 -27.31494,1.66404c-7.89272,-3.35559 4.17372,-13.96814 5.20219,-14.13875c0.55729,-0.09245 -1.61876,3.97987 11.00461,9.05883c5.57588,2.24345 11.32015,3.23494 11.10815,3.4159z"/></g></g></g><path d="M222.67925,184.98121c2.61987,0.69395 4.01585,3.42325 3.118,6.09606c-0.20394,0.60711 -0.50869,1.15907 -0.88861,1.6415c-0.33236,1.89885 -4.50435,2.31188 -5.89626,3.00949c-5.23386,2.62315 -8.91497,2.85105 -14.87739,0.78384c-2.43654,-0.84476 -4.24687,-2.73548 -3.118,-6.09606c2.14282,-6.37898 8.48596,-2.49085 12.27233,-2.85c2.02914,-0.19247 8.35709,-4.27358 9.38992,-2.58484z" fill="#ffab19" fill-rule="nonzero" stroke="#000000" stroke-width="1.2" stroke-linecap="butt" stroke-linejoin="miter"/><g fill-rule="nonzero" stroke-linecap="butt" stroke-linejoin="miter"><path d="M240.16244,210.59304c2.67972,1.43754 0.1871,17.63328 0.1871,17.63328c0,0 -6.68379,1.58202 -7.74834,-2.81887c-0.49609,-2.05085 -3.28356,-8.54476 -4.54561,-9.48839c-4.42246,-3.30668 -9.33816,-3.97355 -12.42027,-9.0899c-0.56778,-0.94252 -1.91898,-2.97952 -2.3891,-4.78605c-1.52925,-2.2567 1.09705,-6.21668 3.81054,-6.81982c7.77694,-1.72864 7.64636,7.07657 23.10572,15.36974z" fill="#ffab19" stroke="#001026" stroke-width="1.2"/><g><path d="M213.45292,201.98473c-2.96188,-2.55082 -3.03416,-9.39529 -3.03416,-9.39529c0,0 -2.29963,-2.4997 -2.40821,-5.29962c-0.22447,-5.78774 11.74641,-14.93667 17.23029,-9.23826c2.05762,2.13813 2.32354,5.77471 2.32354,5.77471c0,0 4.1003,3.93864 4.82064,6.96106c0.61266,2.57061 -2.37692,10.18266 -7.27098,12.44482c-0.50836,0.23498 -1.00052,0.43213 -1.47649,0.59545" fill="#ffab19" stroke="#001026" stroke-width="1.2"/><path d="M211.05715,186.64097c1.38451,-3.8578 7.06095,-4.00626 9.61371,-1.07248c0.30808,0.35406 0.65829,0.77741 0.96079,1.2347c1.84493,1.14157 2.85198,6.02539 1.77474,7.35588c-3.72897,4.60566 -12.69586,3.69491 -11.32773,-2.92116c-0.98761,-1.38909 -1.49339,-3.2821 -1.02152,-4.59692z" fill="#ffffff" stroke="none" stroke-width="0.5"/></g><path d="M231.42902,191.92487c2.64187,1.34067 10.4493,12.64048 10.4493,12.64048c0,0 5.96143,7.16069 6.56753,8.55857c2.75869,6.36251 -1.23748,15.36353 -9.37832,8.63435c-1.915,-1.58294 -2.26098,-3.58648 -3.16432,-5.432c-0.41189,-0.8415 -6.07491,-7.58801 -8.59488,-9.22549c-4.38197,-2.84741 -10.45203,-5.30493 -13.55772,-9.48891c-5.52821,-7.44759 13.22322,-8.64188 14.21576,-8.2582" fill="#ffab19" stroke="#001026" stroke-width="1.2"/></g><g fill-rule="nonzero" stroke="#000000" stroke-width="1.2" stroke-linejoin="miter"><path d="M225.75852,185.61761c0,0 -1.35474,-1.29875 -0.32585,-2.83152c4.05804,-6.04535 7.94492,-3.06679 10.86613,-3.95934c3.37685,-1.03175 6.99125,-2.8755 8.28368,-1.95524c1.85245,1.31901 1.26448,3.58142 1.17885,6.42183c-0.11532,3.82585 -0.47104,8.41518 -3.61821,10.46321c-2.45806,1.5996 -5.50753,-5.20421 -5.50769,-5.26227c-2.60656,0.42315 -5.34708,0.07822 -7.13955,-0.90871" fill="#ffab19" stroke-linecap="butt"/><g stroke-linecap="round"><path d="M246.28095,191.10476l-0.65809,5.15759l-1.72397,2.15579l-2.03899,-0.52737l-1.07621,0.86413l-3.64612,-1.91585" fill="#ffab19"/><path d="M231.16176,185.63617l12.34023,-5.46673l4.6518,4.64067l1.19431,6.25807l-2.71553,2.28179l-1.08387,-0.01995l-3.35749,1.94461l-1.52581,0.29728l-3.68544,2.04703l-6.03859,-2.54639z" fill="#ffab19"/><path d="M236.61974,192.68616l2.89577,1.24629l-3.44381,-0.09518z" fill="none"/><path d="M244.65672,192.17485l-3.47374,-1.96187" fill="none"/></g></g><g fill-rule="nonzero" stroke="#000000" stroke-width="1.2" stroke-linejoin="miter"><path d="M215.89269,190.08051c-4.27502,-1.98568 -6.09189,-7.07903 -4.05807,-11.3763c2.03382,-4.29727 7.14816,-6.17119 11.42319,-4.18552c4.27502,1.98568 6.0919,7.07902 4.05807,11.3763c-2.03382,4.29727 -7.14815,6.17119 -11.42319,4.18552z" fill="#5c5e5f" stroke-linecap="butt"/><g stroke-linecap="round"><path d="M220.75803,191.7709l1.23996,4.56232l-1.73153,1.66351l-1.91493,4.04607l-3.62683,-1.11511z" fill="#ffab19"/><path d="M219.50306,186.44229l2.49347,5.90386l-2.54169,3.3753l-0.50804,1.47247l-2.39439,3.06406l-0.13229,1.07753l-2.63788,2.38147l-6.02266,-2.03812l-3.93791,-5.24598l7.13811,-11.49106z" fill="#ffab19"/><path d="M218.05402,194.69114l-0.82665,-3.04155" fill="none"/><path d="M214.08147,195.50356l1.45339,3.71231" fill="none"/></g><path d="M212.04175,201.01029l-2.31323,3.29158l-3.84779,-0.64826l-1.7555,-3.47299l1.94498,-2.51349l4.14238,0.02578z" fill="#5c5e5f" stroke-linecap="round"/></g></g></g></svg>