<svg version="1.1" xmlns="http://www.w3.org/2000/svg" xmlns:xlink="http://www.w3.org/1999/xlink" width="112.26002" height="122.10358" viewBox="0,0,112.26002,122.10358"><g transform="translate(-182.23067,-116.49425)"><g stroke-miterlimit="10"><g fill="#9a8479" stroke="#000000" stroke-width="1.2" stroke-linecap="butt"><path d="M245.28332,225.39691l2.09998,10.45741c0,0 0.73918,0.33738 0.53423,1.06144c-0.20316,0.72767 -2.71903,0.69243 -5.87633,0.85279c-3.15802,0.16122 -5.73308,-0.34978 -6.24152,-1.11875c-0.50667,-0.76029 0.42759,-1.03068 0.42759,-1.03068c0,0 0.95554,-4.9966 0.03485,-7.27202c-1.22751,-3.03472 0.1836,-3.82491 3.87892,-5.27579v0v0v0v0v0v0c3.69533,-1.45088 5.14228,2.32561 5.14228,2.32561z"/><path d="M234.03326,209.73753v0v0v0v0v0v0c8.31548,-0.60248 11.66641,3.91475 11.66453,3.91389c0.72154,1.16675 1.62489,2.81298 2.0302,4.31613c0.11176,0.41522 0.1884,0.8824 0.22163,1.38351c0,0 0.01485,1.7406 -0.14661,2.27198c-0.67738,2.22614 -1.82423,4.66293 -4.74106,5.7647c-4.57921,1.73714 -9.5291,1.52392 -14.74823,-0.75854c-1.76123,-0.76806 -2.83607,-2.077 -3.44507,-3.56709c-0.43492,-1.07238 -0.65524,-2.4706 -0.65524,-2.4706c-0.32881,-2.3258 0.02305,-4.59615 0.21878,-5.58347c0,0 1.28664,-4.66811 9.6011,-5.27051z"/><path d="M236.7656,227.86857l-0.299,7.96797c0,0 0.54065,0.03633 0.44797,0.68629c-0.0889,0.65068 -1.66095,1.4133 -6.24088,1.475c-4.58211,0.05649 -5.52711,-0.87437 -5.57247,-1.36714c-0.04731,-0.49268 0.91964,-1.03161 0.91964,-1.03161c0,0 1.38904,-8.69401 1.80773,-9.7379"/></g><path d="M241.08209,214.90341c1.14293,0.02062 3.57814,-2.42051 4.59862,-2.03603c1.89024,-0.316 3.69662,0.86019 4.03468,2.62708c0.0114,0.05958 0.02098,0.1191 0.0288,0.17847c1.17739,1.47623 -2.11557,3.96105 -3.15842,4.53333c-2.93462,1.61041 -10.90643,2.40457 -13.77033,-0.11534c-1.13687,-1.00032 -1.02072,-1.04384 -1.04789,-2.6211c-0.09691,-5.62768 5.80277,-2.62983 9.31454,-2.56643z" fill="#9a8479" stroke="#000000" stroke-width="1.2" stroke-linecap="butt"/><path d="M230.45728,214.48149c2.92994,1.26375 8.91314,0.56947 6.76786,6.01653c-0.60126,1.52665 -0.52109,1.61289 -1.82914,2.15849c-3.29513,1.37443 -9.60195,-2.40838 -11.44,-5.08525c-0.65316,-0.95126 -2.46692,-4.61541 -0.9507,-5.60945c0.02824,-0.05489 0.05801,-0.10927 0.08932,-0.16303c0.92817,-1.59407 2.85491,-2.05833 4.3035,-1.03695c0.98573,0.01055 2.10557,3.30837 3.05914,3.71967z" fill="#9a8479" stroke="#000000" stroke-width="1.2" stroke-linecap="butt"/><g><g stroke="#000000" stroke-width="1.2"><path d="M277.91016,166.27441c0,0 14.30735,-9.89536 15.78202,-1.33381c1.47474,8.56146 -5.35296,18.50226 -17.64111,27.43038c0,0 2.70165,-14.84843 1.85911,-26.09656zM277.91016,166.27441c-0.00812,-1.31528 -0.33806,-3.83387 -0.33806,-3.83387M275.38701,194.68039l0.53397,-2.40048" fill="#9a8479" stroke-linecap="round"/><path d="M275.92114,192.27896c0.52635,-2.74977 1.27495,-7.27866 1.77419,-12.93852c0.2931,-3.29402 0.3675,-6.6943 0.35234,-9.63195l0.00071,0.00382c7.84751,-2.58307 12.83489,7.157 12.83489,7.157l0.00269,0.00004c-5.14143,8.63992 -14.86569,15.17028 -14.86569,15.17028l-0.09912,0.23934v0v0v0v0z" fill="#ee4036" stroke-linecap="butt"/></g><path d="M188.72717,164.18129c1.63953,-18.58311 10.95762,-28.2805 16.44473,-33.39843c12.45464,-11.62447 30.87171,-11.62835 30.87171,-11.62835l0.33574,12.09948c0,0 0.05601,-3.47585 7.61916,-9.35703c7.56127,-5.88121 18.48436,-4.70711 18.48436,-4.70711l-6.20509,14.98893c0,0 3.54761,-4.62664 6.39887,-6.27668c5.05493,-2.92024 9.22729,-1.49921 9.22729,-1.49921l-1.7328,11.85575c0,0 14.15805,21.71406 13.9718,36.36225c-0.18625,14.6482 -5.47844,40.6406 -41.0628,40.59817c-61.63249,-1.85856 -54.35297,-49.03777 -54.35297,-49.03777z" fill="#9a8479" stroke="#000000" stroke-width="1.2" stroke-linecap="butt"/><g stroke="#000000" stroke-width="1.2"><path d="M203.12506,191.83522c-14.56353,-6.36923 -22.29443,-14.6688 -19.84704,-23.1105c2.44837,-8.44252 19.44182,-1.5036 19.44182,-1.5036c-1.86008,10.89753 0.40522,24.6141 0.40522,24.6141zM203.41778,163.49797c0,0 -0.59224,2.46361 -0.697,3.72318M203.29262,191.72366l0.48708,2.20121" fill="#9a8479" stroke-linecap="round"/><path d="M203.18745,191.51333c0,0 -11.56447,-4.53005 -17.30197,-11.88124l0.00286,-0.00089c0,0 6.88239,-10.18653 16.41001,-9.09977l0.00102,-0.00286c-0.23243,2.80919 -0.38719,6.04629 -0.26306,9.14209c0.20678,5.32207 0.80436,9.51861 1.25632,12.05302z" fill="#ee4036" stroke-linecap="butt"/></g><g><path d="M274.98318,185.78107c-0.33553,12.81413 -15.20073,22.81994 -33.20238,22.34858c-18.00164,-0.47136 -32.32286,-11.24137 -31.98733,-24.05551c0.33553,-12.81413 15.20074,-22.81994 33.20238,-22.34858c18.00164,0.47136 32.32286,11.24137 31.98733,24.05551z" fill="#e6e7e8" stroke="#000000" stroke-width="1.2" stroke-linecap="butt"/><g stroke="#000000"><path d="M268.84992,166.29053c0,0 -2.71476,4.35307 -6.22309,6.54211c-1.57019,0.97972 -5.85764,3.16882 -8.05437,3.65534c-5.68891,1.25996 -11.81095,0.83072 -11.81095,0.83072l4.98303,-6.79646c0,0 -4.32228,1.85817 -7.94531,2.79736c-4.91854,1.27503 -8.89695,-0.83494 -8.89695,-0.83494l13.59476,-12.26154" fill="#9a8479" stroke-width="0" stroke-linecap="butt"/><path d="M266.40955,169.44209c0,0 -4.62657,4.97258 -9.86303,6.69614c-5.23645,1.72356 -14.04681,1.17363 -14.04681,1.17363l5.24484,-6.78962c0,0 -3.4789,1.66614 -7.10192,2.60533c-4.91855,1.27502 -10.37428,-0.44539 -10.37428,-0.44539l12.62366,-11.19374" fill="none" stroke-width="1.2" stroke-linecap="round"/></g><g fill="none" stroke="#ee4036" stroke-width="1.2" stroke-linecap="round"><path d="M212.44215,146.23301l-3.65992,5.49889l-5.48966,-2.44206"/><path d="M201.67015,152.11055l4.43483,3.22358l-2.0469,6.29699"/><path d="M217.47641,157.21834l-4.85291,-3.45782l2.46497,-6.06275"/><path d="M206.72797,163.10906l3.65086,-4.97607l5.49873,1.91924"/></g><g stroke-width="1.2"><path d="M265.25237,185.72825c-2.18587,0.59699 -6.04537,1.81039 -7.1367,2.53003c-0.58119,0.37253 -1.38993,0.14959 -1.79857,-0.53309c-0.40231,-0.6792 -0.25684,-1.54774 0.32833,-1.93811c1.73191,-1.14935 7.17034,-2.65166 7.78428,-2.82032c0.67599,-0.18354 1.4084,0.28692 1.63533,1.04992c0.20385,0.68994 -0.06971,1.37998 -0.62244,1.64407c-0.05947,0.02843 -0.12287,0.05233 -0.19023,0.06751z" fill="#231f20" stroke="none" stroke-linecap="butt"/><path d="M243.7576,188.50775c-0.0866,-0.0291 -0.17127,-0.0677 -0.25649,-0.11371c-2.99336,-1.68712 -8.80842,-2.94793 -8.86544,-2.96101c-0.77238,-0.16806 -1.29523,-0.93759 -1.1396,-1.72296c0.15692,-0.78304 0.92103,-1.28267 1.70838,-1.11363c0.25687,0.05894 6.3063,1.3691 9.69349,3.27604c0.70217,0.39454 0.96128,1.28177 0.57364,1.98208c-0.33879,0.60899 -1.06598,0.87097 -1.71397,0.65319z" fill="#231f20" stroke="none" stroke-linecap="butt"/><path d="M245.30762,183.46278l1.55144,1.77404l-1.52059,1.11578c0,0 -16.85762,-12.06247 -24.09625,-13.01246" fill="none" stroke="#231f20" stroke-linecap="round"/><path d="M268.20345,177.13671c-3.53798,1.00604 -10.91694,8.56575 -10.91694,8.56575l-2.51173,-0.76075l2.13932,-2.45213" fill="none" stroke="#231f20" stroke-linecap="round"/><path d="M226.26034,198.15808c0,0 3.20526,-0.23892 6.77021,1.81437" fill="none" stroke="#231f20" stroke-linecap="round"/></g></g></g><g stroke="#000000" stroke-width="1.2"><path d="M239.91879,208.15051c2.86748,-0.07521 5.25303,2.18837 5.32824,5.05585c0.07521,2.86748 -2.18837,5.25303 -5.05585,5.32824c-2.86748,0.07521 -5.25302,-2.18837 -5.32824,-5.05585c-0.07521,-2.86748 2.18837,-5.25302 5.05585,-5.32824z" fill="#5c5e5f" stroke-linecap="butt"/><path d="M237.06039,219.00158l-1.04553,2.43091l-1.94236,-0.04149l-2.46756,1.08159l-0.79718,-2.19769" fill="#9a8479" stroke-linecap="round"/><path d="M238.26249,214.68451l-0.67919,4.23233l-7.04494,2.55545l-3.7542,-2.53558l-0.36679,-3.94147l7.82081,-3.10262z" fill="#9a8479" stroke-linecap="round"/><path d="M235.2757,219.43325l0.19251,-2.4425" fill="none" stroke-linecap="round"/><path d="M231.93581,219.2643l0.03699,1.41018" fill="none" stroke-linecap="round"/><path d="M227.76957,216.93613l1.30889,0.99196l0.04036,1.53838l-2.14911,1.21095l-1.69348,-0.98187l-0.04707,-1.79478z" fill="#5c5e5f" stroke-linecap="round"/></g></g></g></svg>