<svg version="1.1" xmlns="http://www.w3.org/2000/svg" xmlns:xlink="http://www.w3.org/1999/xlink" width="114.24848" height="126.62097" viewBox="0,0,114.24848,126.62097"><g transform="translate(-182.24824,-114.10123)"><g stroke-miterlimit="10"><path d="M246.62502,208.02317c0.09983,-0.01905 0.20723,-0.02639 0.32155,-0.02268c0.10553,-0.01034 0.21254,-0.01563 0.32079,-0.01563c1.07202,0 2.02281,0.51904 2.61478,1.31951c3.80719,2.59978 8.81097,8.38127 8.27897,10.77524c-0.74963,3.37333 -4.2255,4.6232 -6.9761,2.37868c-1.41876,-1.15772 -1.43986,-2.16207 -2.57137,-3.49112c-0.74838,-0.87903 -3.56948,-4.45992 -3.79703,-5.59768c-0.49777,-0.57101 -0.79925,-1.31762 -0.79925,-2.13463c0,-1.43429 0.92911,-2.65158 2.21831,-3.08283c0.12056,-0.0584 0.24982,-0.10224 0.38935,-0.12886z" fill="#9a8479" stroke="#000000" stroke-width="1.2" stroke-linecap="butt"/><g fill="#9a8479" stroke="#000000" stroke-width="1.2" stroke-linecap="butt"><path d="M241.54023,225.31158c-1.13477,-5.72505 3.42255,-8.79637 7.11059,-5.83625c1.8681,1.49939 3.55312,12.17471 3.68264,15.11514c0.30622,6.95221 -14.81902,3.51232 -10.79323,-4.10412z"/><path d="M235.07886,205.30107v0v0v0v0v0v0c7.29239,-2.24038 11.32242,1.9313 11.32055,1.93075c0.91226,1.10517 2.09693,2.68655 2.80375,4.21112c0.19507,0.42117 0.37067,0.90449 0.51526,1.43233c0,0 0.41236,1.85275 0.38991,2.45026c-0.09489,2.5034 -0.56097,5.32159 -2.91477,7.05672c-3.69359,2.73196 -8.16559,3.45593 -13.35262,2.0257c-1.7499,-0.48032 -3.01047,-1.66918 -3.89631,-3.14068c-0.63451,-1.05965 -1.15196,-2.5079 -1.15196,-2.5079c-0.82708,-2.41627 -1.03321,-4.90424 -1.08469,-5.99441c0,0 0.0794,-5.2238 7.3709,-7.4639z"/><path d="M238.62771,224.38634c0.65757,3.96388 0.60666,10.54419 0.36469,12.72316c-0.76718,6.90859 -15.14342,0.6767 -10.00513,-6.07246l0.79566,-5.09947c-0.07958,-1.95783 0.42241,-3.50366 1.24481,-4.55913"/></g><g><g stroke="#000000" stroke-width="1.2"><path d="M280.5809,159.04932c0,0 12.99687,-10.13986 14.94622,-2.25268c1.94943,7.88708 -3.92077,17.591 -15.05606,26.70002c0,0 1.62813,-14.01518 0.10983,-24.44734zM280.5809,159.04932c-0.09145,-1.22564 -0.56596,-3.5525 -0.56596,-3.5525M279.98558,185.69207l0.3558,-2.27199" fill="#9a8479" stroke-linecap="round"/><path d="M280.34146,183.41919c0.32632,-2.59713 0.75108,-6.86705 0.86635,-12.17536c0.06952,-3.08957 -0.07603,-6.26423 -0.27742,-9.00189l0.00092,0.00351c7.30974,-2.90989 12.67968,5.85133 12.67968,5.85133l0.00257,-0.00015c-4.34694,8.38332 -13.19293,15.09309 -13.19293,15.09309l-0.07918,0.22947v0v0v0v0z" fill="#ee4036" stroke-linecap="butt"/><path d="M196.30641,184.48926v0v0v0v0v0v0c-0.0393,-0.08734 -1.19636,-2.54669 -1.19626,-2.54769c-3.23433,-6.57122 -2.68835,-20.64641 -1.91648,-24.97908l0.05059,-0.20619c2.94678,-18.39711 12.54179,-27.41348 18.14778,-32.1327c12.72506,-10.71945 30.26045,-9.45243 30.26045,-9.45243l-0.58261,12.0752c0,0 0.31253,-3.45836 7.95207,-8.79456c7.63774,-5.33638 17.95018,-3.41313 17.95018,-3.41313l-7.02569,14.50198c0,0 3.72273,-4.36369 6.5605,-5.81051c5.03062,-2.55999 8.89721,-0.85659 8.89721,-0.85659l-2.03621,9.227c0,0 6.12237,9.82407 10.64916,18.93271c0.96926,1.94377 2.11936,3.92837 2.75306,6.14227c2.30514,8.04412 1.36982,21.87633 -2.76558,28.36016c-0.71714,1.1486 -1.48381,2.25686 -2.27277,3.3429c-0.20477,0.27869 -0.41026,0.55551 -0.61807,0.82847c-0.71843,0.9526 -1.46184,1.88269 -2.23543,2.77901c-0.10439,0.1192 -0.20162,0.24726 -0.30602,0.36655c-0.87521,0.9958 -1.78855,1.94788 -2.73147,2.86806c-0.22535,0.22226 -0.46073,0.43529 -0.69049,0.6553c-0.805,0.7572 -1.63374,1.48842 -2.47911,2.18711c-0.19507,0.16369 -0.38591,0.33042 -0.58214,0.48756c-1.01446,0.81061 -2.0632,1.57508 -3.13693,2.29805c-0.23896,0.15839 -0.48248,0.30809 -0.72296,0.46261c-0.89892,0.58097 -1.82274,1.12951 -2.76328,1.64642c-0.27137,0.14691 -0.53738,0.30339 -0.81019,0.44654c-1.14563,0.5989 -2.31302,1.15211 -3.51129,1.65136c-0.21394,0.09015 -0.43916,0.16549 -0.65552,0.25178c-1.02222,0.40814 -2.06289,0.77363 -3.12164,1.10284c-4.47841,1.39137 -9.26217,2.11029 -14.30747,1.96989c-5.76604,-0.16087 -10.93121,-0.85284 -15.55144,-1.93167c-1.14242,-0.26668 -2.25044,-0.55978 -3.32675,-0.8715c-0.20414,-0.06304 -0.40756,-0.1242 -0.60999,-0.18526c-1.08983,-0.33026 -2.15745,-0.67459 -3.17765,-1.04783c-0.00609,-0.00242 -0.01397,-0.00502 -0.02096,-0.00753c-1.02238,-0.37064 -2.00101,-0.76958 -2.95446,-1.18418c-0.16696,-0.07199 -0.3384,-0.14441 -0.50437,-0.2173c-0.91548,-0.40437 -1.80463,-0.82792 -2.65847,-1.26783c-0.1504,-0.07485 -0.2945,-0.15731 -0.44372,-0.23385c-0.84202,-0.44154 -1.66091,-0.89524 -2.44272,-1.36693c-0.02965,-0.02105 -0.0635,-0.03631 -0.09243,-0.05548c-0.80026,-0.48621 -1.56111,-0.98665 -2.29838,-1.49479c-0.1375,-0.09527 -0.27417,-0.18874 -0.40787,-0.28373c-0.70808,-0.5015 -1.39197,-1.00973 -2.0403,-1.52786c-0.09923,-0.07797 -0.19281,-0.15808 -0.29107,-0.23676c-0.61473,-0.5003 -1.20708,-1.00751 -1.77066,-1.52088c-0.05847,-0.04937 -0.12304,-0.10206 -0.17848,-0.15564c-0.58723,-0.54016 -1.13825,-1.08765 -1.66743,-1.63647c-0.1029,-0.10557 -0.20383,-0.21175 -0.30216,-0.31677c-0.51474,-0.54748 -1.00791,-1.0936 -1.46766,-1.64824c-0.05282,-0.06066 -0.10003,-0.12427 -0.15187,-0.18564c-0.43261,-0.52659 -0.8405,-1.05423 -1.2233,-1.57946c-0.0532,-0.07597 -0.11462,-0.15106 -0.1689,-0.22534c-0.39104,-0.55138 -1.22529,-1.84981 -1.28932,-1.9532c-0.33344,-0.54652 -0.64915,-1.09036 -0.93001,-1.628c-0.01745,-0.0335 -0.03411,-0.06693 -0.04978,-0.10015c-0.26931,-0.51749 -0.51059,-1.02483 -0.73323,-1.52861z" fill="#9a8479" stroke-linecap="butt"/><path d="M270.57984,164.65251v0v0v0v0v0v0c0,0 8.59415,12.80583 4.34487,24.77248c-4.24723,11.96313 -22.81376,15.35358 -36.58643,13.0333c-18.20669,-3.06862 -25.53576,-15.59921 -21.4038,-26.44426c4.13616,-10.84464 28.92503,-13.62685 28.92503,-13.62685l-4.78647,7.6099c0,0 3.19093,-0.20468 5.88163,-1.50209c2.68967,-1.2947 5.67615,-3.082 5.67615,-3.082l-6.68704,8.22028c0,0 7.67741,0.67947 14.60252,-1.49967c6.92476,-2.17557 10.03355,-7.48107 10.03355,-7.48107z" fill="#e6e7e8" stroke-linecap="butt"/><path d="M200.82979,183.32869c-13.42958,-6.9651 -20.22335,-15.24616 -17.31826,-22.94022c2.90607,-7.69476 18.60999,-0.02701 18.60999,-0.02701c-2.51338,10.02425 -1.29173,22.96723 -1.29173,22.96723zM203.03968,156.94109c0,0 -0.73169,2.25404 -0.91726,3.42046M200.99689,183.23657l0.31366,2.0858" fill="#9a8479" stroke-linecap="round"/><path d="M200.91113,183.03312c0,0 -10.7,-5.03913 -15.66079,-12.29547l0.00277,-0.00062c0,0 7.24587,-9.00664 16.24157,-7.32039l0.00117,-0.0026c-0.4127,2.60154 -0.78065,5.60733 -0.87347,8.50117c-0.16586,4.97441 0.117,8.92752 0.37451,11.32136z" fill="#ee4036" stroke-linecap="butt"/></g><path d="M237.19361,201.79961c-10.64538,-2.66014 -1.01319,-16.02098 -1.01319,-16.02098c0,0 7.29201,0.39777 10.87264,1.50804c3.85005,1.19382 11.47808,5.42242 11.47808,5.42242c0,0 -12.46932,11.30657 -21.33753,9.09052z" fill="#706d6d" stroke="#231f20" stroke-width="1.2" stroke-linecap="round"/><path d="M243.41295,181.59813c-0.67082,1.34164 -2.01246,0.67082 -2.01246,0.67082l-0.73636,-0.45424c-2.1624,-2.20441 -3.90774,-2.43499 -6.74327,-1.38358c0,0 -1.40969,0.51261 -1.9223,-0.89708c-0.51261,-1.40969 0.89708,-1.9223 0.89708,-1.9223c3.96354,-1.41778 6.85535,-0.90742 9.88982,2.08164l-0.04332,-0.10772c0,0 1.34164,0.67082 0.67082,2.01246z" fill="#231f20" stroke="#000000" stroke-width="0.5" stroke-linecap="butt"/><path d="M261.12661,184.17459c-0.40879,-1.44322 1.03443,-1.85201 1.03443,-1.85201l-0.06265,0.09775c3.53877,-2.37057 6.47502,-2.33256 10.10454,-0.20034c0,0 1.28933,0.76657 0.52276,2.0559c-0.76657,1.28933 -2.0559,0.52276 -2.0559,0.52276c-2.58964,-1.56187 -4.34736,-1.6609 -6.883,0.10146l-0.80817,0.30891c0,0 -1.44322,0.40879 -1.85201,-1.03443z" fill="#231f20" stroke="#000000" stroke-width="0.5" stroke-linecap="butt"/></g><g stroke="#000000" stroke-width="1.2"><path d="M219.17476,214.11417c1.08728,-3.06274 4.15001,-1.97546 4.15001,-1.97546l0.99258,0.35236c0.94545,1.16246 0.28002,0.76465 0.6566,-1.28394c0,0 0.77713,-3.15572 3.93284,-2.37859c3.15572,0.77713 2.3786,3.93285 2.3786,3.93285c-0.83151,2.97445 -0.93246,5.64884 -4.81664,6.83387c-1.41408,0.43142 -2.88397,-0.65248 -4.32596,-0.97873l-0.99258,-0.35236c0,0 -3.06273,-1.08727 -1.97546,-4.15z" fill="#9a8479" stroke-linecap="butt"/><g><path d="M223.43638,201.83045c2.24291,-1.78815 5.51074,-1.4195 7.29889,0.82341c1.78815,2.24291 1.4195,5.51073 -0.82341,7.29888c-2.24291,1.78815 -5.51074,1.4195 -7.29889,-0.82341c-1.78815,-2.24291 -1.4195,-5.51073 0.82341,-7.29888z" fill="#5c5e5f" stroke-linecap="butt"/><path d="M227.69494,212.2122l0.63069,2.56996l-1.575,1.13748l-1.31727,2.35021l-1.96062,-1.27331" fill="#9a8479" stroke-linecap="round"/><path d="M226.05246,208.04276l2.00868,3.78669l-4.08176,6.28498l-4.52394,0.23913l-2.66809,-2.92422l4.37113,-7.1892z" fill="#9a8479" stroke-linecap="round"/><path d="M226.53091,213.63225l-1.31838,-2.06512" fill="none" stroke-linecap="round"/><path d="M224.64326,216.61328l-0.87939,-1.10303" fill="none" stroke-linecap="round"/><path d="M219.03613,216.16323l1.64231,0.00276l0.95933,1.2033l-0.98519,2.26152l-1.94313,0.23707l-1.11922,-1.40385z" fill="#5c5e5f" stroke-linecap="round"/></g></g></g></g></svg>