<svg version="1.1" xmlns="http://www.w3.org/2000/svg" xmlns:xlink="http://www.w3.org/1999/xlink" width="113.4009" height="120.29226" viewBox="0,0,113.4009,120.29226"><g transform="translate(-179.8786,-117.93726)"><g stroke-width="1.2" stroke-miterlimit="10"><g fill="#9a8479" stroke="#000000" stroke-linecap="butt"><path d="M248.47679,225.99023c-2.63259,0 -2.74428,-3.23324 -2.74428,-3.23324l0.65591,-3.33409c0.39193,-0.4631 1.02447,-1.67188 1.80647,-2.25282c-0.51588,-0.60799 -0.94488,-1.33089 -1.43236,-1.97645c0,0 -1.81763,-2.43327 0.09008,-4.56237c1.9077,-2.12911 3.72533,0.30416 3.72533,0.30416c2.56565,3.48238 6.96289,5.22171 3.32084,10.58798c-0.60828,0.89623 -1.2795,1.33383 -2.44877,2.20493c-1.24572,0.92803 -2.97316,2.26194 -2.97316,2.26194z"/><path d="M249.25457,224.98085c0,0 0.77063,5.22774 1.16211,7.13847c0.39507,1.91063 0.87923,3.68822 0.87923,3.68822c0,0 0.71854,0.34929 0.51931,1.09892c-0.19749,0.75337 -2.64311,0.71688 -5.71224,0.8829c-3.06984,0.16691 -5.57299,-0.36213 -6.06724,-1.15826c-0.49252,-0.78714 0.41565,-1.06708 0.41565,-1.06708c0,0 0.92886,-5.17305 0.03388,-7.52882c-1.19323,-3.14189 0.17847,-3.95998 3.77061,-5.46209v0v0v0v0v0v0c3.59214,-1.50211 4.99869,2.40773 4.99869,2.40773z"/><path d="M236.89903,208.67383v0v0v0v0v0v0c8.08328,-0.62376 11.34064,4.05299 11.33882,4.0521c0.70139,1.20795 1.57952,2.91231 1.97351,4.46855c0.10864,0.42988 0.18314,0.91356 0.21544,1.43237c0,0 0.01444,1.80207 -0.14252,2.35221c-0.65847,2.30475 -1.77329,4.82759 -4.60867,5.96827c-4.45134,1.79848 -9.26301,1.57773 -14.33641,-0.78533c-1.71205,-0.79518 -2.75688,-2.15035 -3.34887,-3.69306c-0.42278,-1.11025 -0.63694,-2.55784 -0.63694,-2.55784c-0.31963,-2.40793 0.02241,-4.75845 0.21267,-5.78064c0,0 1.25071,-4.83296 9.333,-5.45663z"/><path d="M238.61702,227.60244c-0.03308,0.33101 -0.08221,0.53673 -0.08221,0.53673c0,0 -0.62104,3.23453 -0.62078,4.99083c-0.00072,1.7564 0.08574,2.48244 0.08574,2.48244c0,0 0.52356,0.05919 0.40587,0.72783c-0.11406,0.66954 -1.67339,1.39557 -6.12429,1.27629c-4.4528,-0.12475 -5.33099,-1.12546 -5.35407,-1.63701c-0.02497,-0.51154 0.93713,-1.03037 0.93713,-1.03037c0,0 0.41571,-3.27125 1.05564,-6.11542c0.36359,-1.6128 0.96292,-3.18902 1.41402,-4.25212"/></g><g><path d="M277.28517,161.01938c0,0 11.92257,-11.38365 14.64762,-3.72978c2.72512,7.65376 -2.14962,17.89399 -12.32251,28.06655c0,0 0.22445,-14.10765 -2.32511,-24.33677zM277.28517,161.01938c-0.21304,-1.21044 -0.9169,-3.47848 -0.9169,-3.47848M279.34582,187.589l0.1278,-2.29613" fill="#9a8479" stroke="#000000" stroke-linecap="round"/><path d="M279.47361,185.29197c0.06608,-2.61671 0.06355,-6.90771 -0.35034,-12.20112c-0.23847,-3.08114 -0.69942,-6.22553 -1.17242,-8.92953l0.00127,0.0034c6.98365,-3.62331 13.19932,4.55964 13.19932,4.55964l0.00254,-0.0004c-3.49055,8.77451 -11.62443,16.33179 -11.62443,16.33179l-0.05594,0.23621v0v0v0v0z" fill="#ee4036" stroke="#000000" stroke-linecap="butt"/><path d="M195.96278,194.7247v0v0v0v0v0v0c-0.0478,-0.083 -1.444,-2.4149 -1.444,-2.4159c-3.8726,-6.2165 -4.7309,-20.2761 -4.3943,-24.6641l0.0298,-0.2102c1.1002,-18.5991 9.7497,-28.5261 14.8579,-33.7801c11.5944,-11.9333 29.1688,-12.4187 29.1688,-12.4187l0.6227,12.0732c0,0 -0.0334,-3.4723 7.0368,-9.5427c7.0684,-6.0704 17.5211,-5.1836 17.5211,-5.1836l-5.5467,15.1295c0,0 3.2697,-4.7127 5.9493,-6.4349c4.7507,-3.0482 8.7677,-1.7383 8.7677,-1.7383l-1.1073,9.3839c0,0 7.0702,9.1656 12.4815,17.7782c1.158,1.8376 2.5,3.6978 3.351,5.8376c3.0947,7.7746 3.5414,21.6312 0.0722,28.4946c-0.5992,1.2143 -1.2517,2.3934 -1.9286,3.5526c-0.176,0.2977 -0.3529,0.5936 -0.5325,0.8859c-0.62,1.0194 -1.2671,2.0189 -1.9476,2.9878c-0.092,0.129 -0.176,0.2661 -0.268,0.3952c-0.7717,1.078 -1.5857,2.1163 -2.4323,3.1258c-0.2021,0.2436 -0.4151,0.479 -0.6218,0.7208c-0.7256,0.8336 -1.4774,1.6437 -2.249,2.4231c-0.1778,0.1823 -0.3511,0.3672 -0.5307,0.5431c-0.9287,0.9076 -1.8961,1.7727 -2.8925,2.599c-0.222,0.1814 -0.4494,0.3546 -0.6733,0.5323c-0.8366,0.6676 -1.7012,1.3054 -2.5856,1.9134c-0.2554,0.1732 -0.5045,0.3554 -0.7617,0.525c-1.0803,0.71 -2.1868,1.3767 -3.3294,1.9928c-0.2039,0.111 -0.4205,0.2084 -0.6272,0.3158c-0.9765,0.5079 -1.9756,0.9752 -2.9963,1.4082c-4.3176,1.8304 -9.006,3.0221 -14.0402,3.3848c-5.7534,0.4141 -10.9618,0.2399 -15.6665,-0.3735c-1.1633,-0.1516 -2.295,-0.3329 -3.397,-0.5359c-0.2094,-0.0424 -0.4179,-0.083 -0.6254,-0.1236c-1.1173,-0.2201 -2.2139,-0.4564 -3.2662,-0.7262c-0.0063,-0.0018 -0.0144,-0.0036 -0.0216,-0.0054c-1.0542,-0.267 -2.0677,-0.5665 -3.0577,-0.8841c-0.1733,-0.055 -0.3511,-0.11 -0.5235,-0.166c-0.9512,-0.3112 -1.8781,-0.6441 -2.7715,-0.9968c-0.1571,-0.0595 -0.3087,-0.1272 -0.4648,-0.1885c-0.8818,-0.3555 -1.7418,-0.7254 -2.5667,-1.1169c-0.0316,-0.018 -0.0668,-0.0298 -0.0975,-0.046c-0.8447,-0.4041 -1.6516,-0.8263 -2.4358,-1.2585c-0.1463,-0.0811 -0.2916,-0.1605 -0.4341,-0.2417c-0.7545,-0.4285 -1.4856,-0.8661 -2.1823,-1.3171c-0.1065,-0.0677 -0.2076,-0.1381 -0.3132,-0.2066c-0.6615,-0.4366 -1.3014,-0.8823 -1.9133,-1.337c-0.0631,-0.0433 -0.1326,-0.0893 -0.1931,-0.1371c-0.6381,-0.479 -1.2409,-0.9689 -1.8221,-1.4623c-0.1129,-0.0948 -0.2239,-0.1904 -0.3322,-0.2851c-0.5667,-0.4935 -1.1118,-0.9878 -1.6245,-1.4939c-0.0586,-0.0551 -0.1119,-0.1137 -0.1696,-0.1696c-0.4829,-0.4809 -0.9413,-0.9653 -1.3745,-1.4498c-0.0605,-0.0703 -0.1291,-0.1389 -0.1905,-0.2074c-0.444,-0.5097 -1.4034,-1.7186 -1.4774,-1.8151c-0.3862,-0.5106 -0.7545,-1.0203 -1.0875,-1.5273c-0.0207,-0.0316 -0.0406,-0.0632 -0.0595,-0.0947c-0.3195,-0.4881 -0.6101,-0.9689 -0.8818,-1.448z" fill="#9a8479" stroke="#000000" stroke-linecap="butt"/><path d="M267.89177,167.5906v0v0v0v0v0v0c0,0 9.82661,11.8864 6.79005,24.2167c-3.03487,12.3266 -21.17151,17.549 -35.10677,16.6117c-18.42177,-1.2404 -26.96217,-12.9789 -23.93066,-24.1815c3.03572,-11.2026 27.42434,-16.4394 27.42434,-16.4394l-4.00491,8.0487c0,0 3.15469,-0.5214 5.70282,-2.0803c2.54738,-1.5561 5.34104,-3.6319 5.34104,-3.6319l-5.83525,8.8453c0,0 7.70691,-0.0884 14.38061,-2.9463c6.6737,-2.8543 9.23874,-8.443 9.23874,-8.443z" fill="#e6e7e8" stroke="#000000" stroke-linecap="butt"/><path d="M200.34811,193.11947c-14.0564,-5.5932 -21.641,-13.1566 -19.5165,-21.1017c2.1254,-7.9459 18.5148,-1.88 18.5148,-1.88c-1.5027,10.2247 1.0017,22.9817 1.0017,22.9817zM199.91941,166.64297c0,0 -0.5036,2.3157 -0.5721,3.4948M200.50521,193.01117l0.5198,2.0442" fill="#9a8479" stroke="#000000" stroke-linecap="round"/><path d="M200.39961,192.81727c0,0 -11.1486,-3.9486 -16.8073,-10.6749l0.0027,-0.0009c0,0 6.313,-9.6834 15.4319,-8.9013l0.0009,-0.0027c-0.1516,2.6297 -0.2184,5.6572 -0.0226,8.5459c0.3303,4.9662 1.0054,8.8715 1.5,11.2278z" fill="#ee4036" stroke="#000000" stroke-linecap="butt"/><path d="M262.23681,188.04137c-0.58222,0 -1.09139,-0.4736 -1.18775,-1.1403c-0.10527,-0.7379 0.34206,-1.4326 0.99902,-1.5507c0.59744,-0.1056 5.89295,-1.0339 7.84445,-0.7614c0.66017,0.0938 1.12911,0.7704 1.04965,1.5083c-0.08355,0.7434 -0.69469,1.2594 -1.34436,1.1791c-1.22789,-0.1678 -5.04414,0.3663 -7.16987,0.7452c-0.06425,0.0144 -0.12849,0.0198 -0.19114,0.0198z" fill="#231f20" stroke="none" stroke-linecap="butt"/><path d="M241.18532,189.31229c-0.0848,0 -0.1706,-0.009 -0.259,-0.0244c-3.1254,-0.6044 -8.6216,0.0109 -8.6757,0.0163c-0.7302,0.0812 -1.4116,-0.4457 -1.4982,-1.189c-0.0848,-0.7416 0.4476,-1.4128 1.1913,-1.4976c0.2437,-0.0243 5.961,-0.6657 9.497,0.0163c0.7328,0.1407 1.2148,0.8507 1.0722,1.5877c-0.1255,0.6414 -0.6931,1.0907 -1.3276,1.0907z" fill="#231f20" stroke="none" stroke-linecap="butt"/><path d="M259.96209,196.76837c0,0 -4.51456,4.14866 -12.54669,2.60831c-8.03026,-1.54 -9.57095,-5.13125 -9.57095,-5.13125" fill="none" stroke="#231f20" stroke-linecap="round"/></g><g stroke="#000000"><path d="M220.36039,221.12131c0.57533,-3.19867 3.77401,-2.62334 3.77401,-2.62334l1.03663,0.18645c1.12172,0.99345 0.40051,0.70901 0.43932,-1.37354c0,0 0.2542,-3.24005 3.49424,-2.98585c3.24005,0.2542 2.98585,3.49425 2.98585,3.49425c-0.33731,3.07001 -0.00249,5.72528 -3.64259,7.52551c-1.32522,0.65539 -2.95166,-0.17535 -4.42749,-0.26303l-1.03663,-0.18645c0,0 -3.19867,-0.57533 -2.62334,-3.774z" fill="#9a8479" stroke-linecap="butt"/><g><path d="M217.37418,211.79135c0,-2.86847 2.32536,-5.19383 5.19383,-5.19383c2.86847,0 5.19383,2.32536 5.19383,5.19383c0,2.86847 -2.32536,5.19383 -5.19383,5.19383c-2.86847,0 -5.19383,-2.32536 -5.19383,-5.19383z" fill="#5c5e5f" stroke-linecap="butt"/><path d="M228.14656,214.9333l2.40266,1.10892l-0.09241,1.94061l1.01651,2.49507l-2.21784,0.73928" fill="#9a8479" stroke-linecap="round"/><path d="M223.86251,213.61842l4.21306,0.78994l2.36984,7.10954l-2.63316,3.68642l-3.94974,0.26332l-2.89648,-7.89948z" fill="#9a8479" stroke-linecap="round"/><path d="M226.09468,216.47221l2.43661,0.25649" fill="none" stroke-linecap="round"/><path d="M228.27481,220.06301h1.41067" fill="none" stroke-linecap="round"/><path d="M225.8382,224.16677l1.02594,-1.28243h1.53891l1.15418,2.18013l-1.02594,1.66715h-1.7954z" fill="#5c5e5f" stroke-linecap="round"/></g></g></g></g></svg>