<svg version="1.1" xmlns="http://www.w3.org/2000/svg" xmlns:xlink="http://www.w3.org/1999/xlink" width="159.81676" height="159.81676" viewBox="0,0,159.81676,159.81676"><g transform="translate(-158.15445,-95.24869)"><g stroke-miterlimit="10"><path d="M205.6961,146.84531c-4.60816,4.26674 -8.44452,-1.76348 -12.88557,-5.70647c-4.44105,-3.94298 -11.2979,-8.27566 -6.81095,-11.78109c4.48695,-3.50544 8.49091,3.44074 12.70149,7.1791c4.21057,3.73837 11.6736,5.97652 6.99502,10.30846z" fill="#ffe8e8" stroke="#ffe8e8" stroke-width="5" stroke-linecap="round"/><path d="M200.1737,154.39258c-2.10285,2.74675 -4.94633,-0.68766 -7.54726,-3.12935c-2.60093,-2.44169 -4.12067,-2.7212 -1.47264,-5.33831c2.29157,-2.26481 4.70052,0.42309 6.99502,2.57711c2.2945,2.15402 4.17696,3.07949 2.02488,5.89055z" fill="#ffe8e8" stroke="#ffe8e8" stroke-width="5" stroke-linecap="round"/><path d="M166.11896,139.29806c4.86686,-4.41754 9.10884,3.64566 11.41294,5.89055c2.1806,2.12457 10.30783,7.18561 6.44279,10.67662c-3.86504,3.49101 -10.07137,-3.1925 -12.14925,-5.52239c-1.65787,-1.85894 -10.67386,-6.53597 -5.70647,-11.04478z" fill="#ffe8e8" stroke="#ffe8e8" stroke-width="5" stroke-linecap="round"/><path d="M182.33109,166.14294c2.86316,-4.23236 4.18737,-1.3818 7.14107,0.32269c2.95369,1.7045 6.93484,2.98459 4.18904,6.21561c-2.75489,3.24172 -5.25897,-0.11884 -7.71265,-1.53479c-2.45367,-1.41595 -5.74917,-1.85236 -3.61746,-5.00349z" fill="#ffe8e8" stroke="#ffe8e8" stroke-width="5" stroke-linecap="round"/><path d="M199.62145,177.40253c-6.46151,0.20472 -3.56229,-12.21823 1.47264,-18.40796c5.03493,-6.18973 15.53471,-13.27761 18.59204,-6.2587c2.10387,4.82998 -11.06923,2.79802 -15.83084,8.65174c-4.76161,5.85372 1.5719,15.83097 -4.23383,16.01493z" fill="#ffe8e8" stroke="#ffe8e8" stroke-width="5" stroke-linecap="round"/><path d="M260.36771,150.89506c-1.48242,-1.12947 -0.73501,-3.32975 0.36816,-5.15422c1.10317,-1.82448 2.76966,-4.017 4.41791,-2.76119c1.64825,1.25581 0.67455,3.67756 -0.55223,5.70647c-1.22678,2.02891 -2.75141,3.33842 -4.23383,2.20895z" fill="#ffe8e8" stroke="#ffe8e8" stroke-width="5" stroke-linecap="round"/><path d="M270.86025,151.44731c-2.10258,-2.48486 1.2508,-5.18079 3.68159,-7.91542c2.43079,-2.73463 4.68953,-5.97117 6.62687,-3.68159c1.93734,2.28958 -0.16181,5.75043 -2.57711,8.46766c-2.41531,2.71723 -5.62877,5.61422 -7.73134,3.12936z" fill="#ffe8e8" stroke="#ffe8e8" stroke-width="5" stroke-linecap="round"/><path d="M255.39757,154.2085c1.48687,-2.37899 5.19138,-1.63195 7.91542,0.18408c2.72404,1.81603 3.42176,4.20777 2.02487,6.44278c-1.39688,2.23502 -0.72963,-3.49306 -2.94527,-4.97015c-2.21564,-1.47709 -8.4819,0.72227 -6.99502,-1.65672z" fill="#ffe8e8" stroke="#ffe8e8" stroke-width="5" stroke-linecap="round"/><path d="M271.41248,214.5866c3.94817,-2.55469 6.57348,2.68659 9.9403,6.81095c3.36683,4.12435 9.13458,8.41511 4.78607,11.22885c-4.3485,2.81374 -7.91881,-3.3498 -11.04477,-7.1791c-3.12596,-3.8293 -7.62976,-8.306 -3.68159,-10.86069z" fill="#ffe8e8" stroke="#ffe8e8" stroke-width="5" stroke-linecap="round"/><path d="M267.91497,222.50203c1.83506,2.45974 4.08064,4.88391 2.7612,6.99502c-1.31945,2.11111 -3.21116,0.52092 -5.52239,-2.57711c-2.31122,-3.09803 -4.67549,-6.54608 -3.12935,-9.0199c1.54613,-2.47382 4.05549,2.14224 5.89054,4.60199z" fill="#ffe8e8" stroke="#ffe8e8" stroke-width="5" stroke-linecap="round"/><path d="M257.97468,221.58164c1.09999,1.85625 2.5393,3.93342 0.55223,4.97015c-1.98706,1.03673 -3.2108,-0.10294 -4.78606,-2.76119c-1.57526,-2.65825 -3.62815,-5.86241 -1.10448,-7.17911c2.52367,-1.3167 4.23831,3.1139 5.33831,4.97015z" fill="#ffe8e8" stroke="#ffe8e8" stroke-width="5" stroke-linecap="round"/><path d="M249.87518,211.0891c0.82716,-4.68293 5.87993,3.02781 9.9403,1.10448c4.06037,-1.92333 1.0968,-9.42893 4.04975,-7.73135c4.47744,2.57398 1.38953,7.97417 -2.76119,9.9403c-4.15072,1.96613 -12.02359,1.18592 -11.22886,-3.31344z" fill="#ffe8e8" stroke="#ffe8e8" stroke-width="5" stroke-linecap="round"/><path d="M205.6961,146.84531c-4.60816,4.26674 -8.44452,-1.76348 -12.88557,-5.70647c-4.44105,-3.94298 -11.2979,-8.27566 -6.81095,-11.78109c4.48695,-3.50544 8.49091,3.44074 12.70149,7.1791c4.21057,3.73837 11.6736,5.97652 6.99502,10.30846z" fill="#ff0000" stroke="#000000" stroke-width="0" stroke-linecap="round"/><path d="M200.1737,154.39258c-2.10285,2.74675 -4.94633,-0.68766 -7.54726,-3.12935c-2.60093,-2.44169 -4.12067,-2.7212 -1.47264,-5.33831c2.29157,-2.26481 4.70052,0.42309 6.99502,2.57711c2.2945,2.15402 4.17696,3.07949 2.02488,5.89055z" fill="#ff0000" stroke="#000000" stroke-width="0" stroke-linecap="round"/><path d="M166.11896,139.29806c4.86686,-4.41754 9.10884,3.64566 11.41294,5.89055c2.1806,2.12457 10.30783,7.18561 6.44279,10.67662c-3.86504,3.49101 -10.07137,-3.1925 -12.14925,-5.52239c-1.65787,-1.85894 -10.67386,-6.53597 -5.70647,-11.04478z" fill="#ff0000" stroke="#000000" stroke-width="0" stroke-linecap="round"/><path d="M182.33109,166.14294c2.86316,-4.23236 4.18737,-1.3818 7.14107,0.32269c2.95369,1.7045 6.93484,2.98459 4.18904,6.21561c-2.75489,3.24172 -5.25897,-0.11884 -7.71265,-1.53479c-2.45367,-1.41595 -5.74917,-1.85236 -3.61746,-5.00349z" fill="#ff0000" stroke="#000000" stroke-width="0" stroke-linecap="round"/><path d="M199.62145,177.40253c-6.46151,0.20472 -3.56229,-12.21823 1.47264,-18.40796c5.03493,-6.18973 15.53471,-13.27761 18.59204,-6.2587c2.10387,4.82998 -11.06923,2.79802 -15.83084,8.65174c-4.76161,5.85372 1.5719,15.83097 -4.23383,16.01493z" fill="#ff0000" stroke="#000000" stroke-width="0" stroke-linecap="round"/><path d="M260.36771,150.89506c-1.48242,-1.12947 -0.73501,-3.32975 0.36816,-5.15422c1.10317,-1.82448 2.76966,-4.017 4.41791,-2.76119c1.64825,1.25581 0.67455,3.67756 -0.55223,5.70647c-1.22678,2.02891 -2.75141,3.33842 -4.23383,2.20895z" fill="#ff0000" stroke="#000000" stroke-width="0" stroke-linecap="round"/><path d="M270.86025,151.44731c-2.10258,-2.48486 1.2508,-5.18079 3.68159,-7.91542c2.43079,-2.73463 4.68953,-5.97117 6.62687,-3.68159c1.93734,2.28958 -0.16181,5.75043 -2.57711,8.46766c-2.41531,2.71723 -5.62877,5.61422 -7.73134,3.12936z" fill="#ff0000" stroke="#000000" stroke-width="0" stroke-linecap="round"/><path d="M255.39757,154.2085c1.48687,-2.37899 5.19138,-1.63195 7.91542,0.18408c2.72404,1.81603 3.42176,4.20777 2.02487,6.44278c-1.39688,2.23502 -0.72963,-3.49306 -2.94527,-4.97015c-2.21564,-1.47709 -8.4819,0.72227 -6.99502,-1.65672z" fill="#ff0000" stroke="#000000" stroke-width="0" stroke-linecap="round"/><path d="M271.41248,214.5866c3.94817,-2.55469 6.57348,2.68659 9.9403,6.81095c3.36683,4.12435 9.13458,8.41511 4.78607,11.22885c-4.3485,2.81374 -7.91881,-3.3498 -11.04477,-7.1791c-3.12596,-3.8293 -7.62976,-8.306 -3.68159,-10.86069z" fill="#ff0000" stroke="#000000" stroke-width="0" stroke-linecap="round"/><path d="M267.91497,222.50203c1.83506,2.45974 4.08064,4.88391 2.7612,6.99502c-1.31945,2.11111 -3.21116,0.52092 -5.52239,-2.57711c-2.31122,-3.09803 -4.67549,-6.54608 -3.12935,-9.0199c1.54613,-2.47382 4.05549,2.14224 5.89054,4.60199z" fill="#ff0000" stroke="#000000" stroke-width="0" stroke-linecap="round"/><path d="M257.97468,221.58164c1.09999,1.85625 2.5393,3.93342 0.55223,4.97015c-1.98706,1.03673 -3.2108,-0.10294 -4.78606,-2.76119c-1.57526,-2.65825 -3.62815,-5.86241 -1.10448,-7.17911c2.52367,-1.3167 4.23831,3.1139 5.33831,4.97015z" fill="#ff0000" stroke="#000000" stroke-width="0" stroke-linecap="round"/><path d="M249.87518,211.0891c0.82716,-4.68293 5.87993,3.02781 9.9403,1.10448c4.06037,-1.92333 1.0968,-9.42893 4.04975,-7.73135c4.47744,2.57398 1.38953,7.97417 -2.76119,9.9403c-4.15072,1.96613 -12.02359,1.18592 -11.22886,-3.31344z" fill="#ff0000" stroke="#000000" stroke-width="0" stroke-linecap="round"/><path d="M158.15445,255.06545v-159.81675h159.81676v159.81676z" fill="none" stroke="#ffe8e8" stroke-width="0" stroke-linecap="butt"/></g></g></svg>