<svg version="1.1" xmlns="http://www.w3.org/2000/svg" xmlns:xlink="http://www.w3.org/1999/xlink" width="252.11259" height="218.34011" viewBox="0,0,252.11259,218.34011"><g transform="translate(-113.32883,-72.64571)"><g stroke-miterlimit="10"><path d="M310.79497,280.88601l-3.59827,-42.22222l10.05205,-16.11111l42.22337,3.88888l5.3693,55.55556" fill="#868995" fill-rule="nonzero" stroke="#46484e" stroke-width="1.2" stroke-linecap="round" stroke-linejoin="miter"/><g fill-rule="nonzero" stroke-width="1.2" stroke-linecap="butt" stroke-linejoin="miter"><g fill="#868995" stroke="#323337"><path d="M339.79875,226.34879c0,0 17.81511,1.21587 18.88078,3.10146c1.03808,1.8368 2.74986,26.08941 1.83385,27.85327c-1.18711,2.28586 -19.93452,0.6802 -19.93452,0.6802"/><path d="M341.22676,258.02669c0,0 -18.7238,-0.88049 -20.06527,-3.33411c-1.03514,-1.8933 -0.89925,-26.02333 0.02345,-27.73004c0.94721,-1.75204 18.76012,-0.60405 18.76012,-0.60405"/></g><g fill="#4e4f56" stroke="#262629"><path d="M339.85016,227.82388c0,0 16.99161,1.15806 18.00526,2.87118c0.98739,1.66877 2.5831,23.66551 1.70661,25.26204c-1.13587,2.06903 -19.01617,0.55459 -19.01617,0.55459"/><path d="M341.16381,256.55269c0,0 -17.85888,-0.85679 -19.13474,-3.08583c-0.98449,-1.72 -0.8179,-23.59981 0.06484,-25.1445c0.90619,-1.58574 17.89579,-0.48921 17.89579,-0.48921"/></g><g fill="#9497a4" stroke="#56585f"><path d="M340.18523,236.67566c0,0 5.58092,0.38206 5.91684,1.03609c0.32722,0.6371 0.89089,9.07697 0.606,9.6932c-0.36919,0.79859 -6.24256,0.28296 -6.24256,0.28296"/><path d="M340.66847,247.70138c0,0 -5.86515,-0.26319 -6.28807,-1.11435c-0.32634,-0.65678 -0.31121,-9.05826 -0.02418,-9.6546c0.29467,-0.61219 5.87484,-0.25374 5.87484,-0.25374"/></g></g><g fill-rule="nonzero" stroke-width="1.2" stroke-linecap="butt" stroke-linejoin="miter"><g fill="#868995" stroke="#323337"><path d="M340.42042,263.00532c0,0 15.15672,1.03443 16.06336,2.63866c0.88318,1.56271 2.33953,22.19632 1.56021,23.69696c-1.00996,1.94476 -16.95987,0.5787 -16.95987,0.5787"/><path d="M341.63531,289.95621c0,0 -15.92979,-0.7491 -17.07111,-2.83659c-0.88067,-1.61078 -0.76505,-22.1401 0.01994,-23.59213c0.80585,-1.4906 15.96071,-0.51391 15.96071,-0.51391"/></g><g fill="#4e4f56" stroke="#262629"><path d="M340.46414,264.26031c0,0 14.4561,0.98525 15.3185,2.44274c0.84006,1.41975 2.19763,20.13411 1.45195,21.4924c-0.96637,1.76028 -16.17853,0.47184 -16.17853,0.47184"/><path d="M341.58178,288.70216c0,0 -15.19397,-0.72894 -16.27943,-2.62536c-0.83759,-1.46334 -0.69585,-20.07823 0.05516,-21.39241c0.77097,-1.34911 15.22535,-0.41621 15.22535,-0.41621"/></g><g fill="#9497a4" stroke="#56585f"><path d="M340.74923,271.79121c0,0 4.74814,0.32506 5.03392,0.88149c0.27839,0.54203 0.75796,7.72249 0.51558,8.24677c-0.3141,0.67942 -5.31105,0.24075 -5.31105,0.24075"/><path d="M341.16034,281.17165c0,0 -4.98994,-0.22392 -5.34975,-0.94807c-0.27765,-0.55877 -0.26476,-7.70657 -0.02056,-8.21393c0.25069,-0.52084 4.99818,-0.21587 4.99818,-0.21587"/></g></g><path d="M113.92883,281.99712l5.27248,-55.55556l42.21659,-3.88888l10.08012,16.11111l-3.5247,42.22222" fill="#868995" fill-rule="nonzero" stroke="#46484e" stroke-width="1.2" stroke-linecap="round" stroke-linejoin="miter"/><g fill-rule="nonzero" stroke-width="1.2" stroke-linecap="butt" stroke-linejoin="miter"><g fill="#868995" stroke="#323337"><path d="M139.19666,257.65038c0,0 -18.74469,1.60568 -19.93579,-0.68019c-0.9191,-1.76386 0.75043,-26.01658 1.78533,-27.85339c1.0624,-1.8856 18.87546,-3.10147 18.87546,-3.10147"/><path d="M139.77539,226.02503c0,0 17.81098,-1.14801 18.76124,0.60405c0.92566,1.70672 1.10361,25.83685 0.07177,27.73016c-1.3372,2.45363 -20.05954,3.33413 -20.05954,3.33413"/></g><g fill="#4e4f56" stroke="#262629"><path d="M139.22709,256.17835c0,0 -17.87775,1.51443 -19.01722,-0.5546c-0.87926,-1.59654 0.67811,-23.59337 1.66262,-25.26215c1.01067,-1.71311 18.00033,-2.8712 18.00033,-2.8712"/><path d="M139.73329,227.49967c0,0 16.98775,-1.09653 17.89673,0.48922c0.88542,1.54469 1.09014,23.4246 0.10865,25.14461c-1.27198,2.22905 -19.12945,3.08585 -19.12945,3.08585"/></g><g fill="#9497a4" stroke="#56585f"><path d="M139.29205,247.35453c0,0 -5.87249,0.51563 -6.24308,-0.28297c-0.28596,-0.61623 0.26301,-9.05614 0.58911,-9.69324c0.33476,-0.65403 5.91507,-1.03609 5.91507,-1.03609"/><path d="M139.50733,236.34527c0,0 5.57957,-0.35846 5.8753,0.25374c0.28808,0.59635 0.31785,8.99786 -0.00735,9.65464c-0.42144,0.85116 -6.28615,1.11436 -6.28615,1.11436"/></g></g><g fill-rule="nonzero" stroke-width="1.2" stroke-linecap="butt" stroke-linejoin="miter"><g fill="#868995" stroke="#323337"><path d="M139.08823,289.91964c0,0 -15.9475,1.36606 -16.96087,-0.57869c-0.78195,-1.50065 0.63844,-22.13426 1.51891,-23.69697c0.90385,-1.60422 16.05879,-2.63866 16.05879,-2.63866"/><path d="M139.58061,263.01359c0,0 15.15313,-0.97669 15.96158,0.51391c0.78754,1.45202 0.93891,21.98135 0.06105,23.59213c-1.13768,2.08748 -17.06617,2.83659 -17.06617,2.83659"/></g><g fill="#4e4f56" stroke="#262629"><path d="M139.11411,288.66728c0,0 -15.20993,1.28845 -16.17938,-0.47185c-0.74804,-1.3583 0.57691,-20.07265 1.4145,-21.4924c0.85985,-1.45749 15.31423,-2.44274 15.31423,-2.44274"/><path d="M139.5448,264.26817c0,0 14.45278,-0.93289 15.22609,0.41622c0.7533,1.3142 0.92746,19.92906 0.09242,21.39241c-1.08216,1.89642 -16.27486,2.62537 -16.27486,2.62537"/></g><g fill="#9497a4" stroke="#56585f"><path d="M139.16942,281.1602c0,0 -4.99616,0.43869 -5.31147,-0.24075c-0.24328,-0.52427 0.22376,-7.70474 0.5012,-8.24677c0.28481,-0.55643 5.03239,-0.88149 5.03239,-0.88149"/><path d="M139.35257,271.79379c0,0 4.74697,-0.30496 4.99857,0.21588c0.2451,0.50736 0.27043,7.65515 -0.00625,8.21392c-0.35855,0.72414 -5.34811,0.94806 -5.34811,0.94806"/></g></g><g fill-rule="evenodd"><path d="M198.75703,187.01505c1.88293,-1.1402 4.06626,-2.68952 5.15131,-5.31892c2.55304,-5.90156 0.25127,-13.4944 4.58984,-12.76673c4.42677,0.69841 10.48707,12.203 1.5999,19.27659c-3.04876,2.45528 -6.40164,3.56714 -9.18384,4.38661c-0.70588,0.23407 -7.12258,1.63983 -10.83601,-0.63628c-3.71344,-2.27608 -2.63585,-3.56189 -2.11772,-4.14636c0.55943,-0.70133 8.0782,0.72553 10.79656,-0.7949z" fill="#ffab19" stroke="#b83312" stroke-width="1.2" stroke-linecap="round" stroke-linejoin="round"/><path d="M208.06261,169.28017c2.0463,-0.0596 4.89993,3.3269 5.66033,6.68544c0.7604,3.35853 0.19347,5.40342 -0.3434,6.92256c-0.15208,-0.67171 -0.83171,-2.7159 -2.94187,-3.35725c-2.65082,-0.87471 -5.49306,0.99628 -5.49306,0.99628c0,0 0.95171,-4.23576 1.09621,-7.06905c0.33223,-2.4829 0.06938,-3.94318 2.02181,-4.17797z" fill="#ffffff" stroke="none" stroke-width="1" stroke-linecap="butt" stroke-linejoin="miter"/></g><g><path d="M180.38342,138.73352c0,0 0.32433,-29.0123 1.40032,-29.06904c1.44957,-0.07643 22.20814,11.12489 22.20814,11.12489" fill="#ffab19" fill-rule="nonzero" stroke="#b83312" stroke-width="1.2" stroke-linecap="round" stroke-linejoin="miter"/><path d="M231.91966,137.81561l10.46705,20.27313l-2.5742,5.6119l-30.52818,0.80886z" fill="#9b7f41" fill-rule="nonzero" stroke="#7d5034" stroke-width="1.2" stroke-linecap="round" stroke-linejoin="miter"/><path d="M168.79748,152.94696c0,0 -7.7868,0.12546 -10.14207,-4.34149" fill="none" fill-rule="evenodd" stroke="#929292" stroke-width="1.2" stroke-linecap="round" stroke-linejoin="round"/><path d="M168.54904,158.83936c0,0 -4.72856,3.55272 -9.99122,0.63261" fill="none" fill-rule="evenodd" stroke="#929292" stroke-width="1.2" stroke-linecap="round" stroke-linejoin="round"/><path d="M193.62683,127.00875c10.94184,-3.24307 41.42929,2.23503 36.69839,29.78513c-0.06167,0.35917 -0.20579,0.6996 -0.34821,1.03864c-5.20159,12.38198 -19.30133,19.81285 -38.45021,19.14212c-19.14889,-0.67073 -25.47569,-11.95051 -25.19512,-17.76869c0.40125,-8.18718 7.21581,-10.07177 7.21581,-10.07177c0,0 -0.60426,-2.09047 1.68272,-8.02846c0,0 2.41031,-9.35873 18.39665,-14.09694z" fill="#ffab19" fill-rule="evenodd" stroke="#b83312" stroke-width="1.2" stroke-linecap="butt" stroke-linejoin="miter"/><path d="M218.77676,150.70144c8.29674,9.40288 -1.95139,26.76611 -26.63813,25.6685c-18.93554,-0.60372 -25.38991,-11.32036 -25.2974,-17.14457c-0.12325,-7.79003 7.06594,-9.74382 7.06594,-9.74382c8.09095,-3.22438 9.61406,2.21226 16.80221,1.56374c7.18815,-0.64853 19.75478,-9.84544 28.06738,-0.34383z" fill="#ffffff" fill-rule="evenodd" stroke="none" stroke-width="1" stroke-linecap="butt" stroke-linejoin="miter"/><path d="M194.73538,149.56607c-0.06988,1.36059 -4.39176,3.66844 -6.18845,3.57632c-1.60045,-0.01574 -2.98265,-2.33179 -2.82119,-3.52664c0.13088,-0.59959 2.34626,-0.86496 4.45258,-0.95591c2.00603,-0.08661 4.70981,-0.11855 4.55707,0.90624z" fill="#001026" fill-rule="evenodd" stroke="#001026" stroke-width="1.2" stroke-linecap="round" stroke-linejoin="round"/><path d="M225.8449,143.79136c-1.98284,6.00899 -8.93918,8.53553 -8.93918,8.53553" fill="none" fill-rule="evenodd" stroke="#929292" stroke-width="1.2" stroke-linecap="round" stroke-linejoin="round"/><path d="M228.22173,154.45896c-4.25575,4.01939 -9.49589,4.0314 -9.49589,4.0314" fill="none" fill-rule="evenodd" stroke="#929292" stroke-width="1.2" stroke-linecap="round" stroke-linejoin="round"/><path d="M221.14546,134.29671l-26.3622,-0.38816l-18.01521,3.11336l4.96591,-22.29676l19.78198,-1.21026l27.7644,2.03367l13.68264,17.93724l-11.44697,18.42127z" fill="#c58600" fill-rule="nonzero" stroke="#aa5300" stroke-width="1.2" stroke-linecap="round" stroke-linejoin="miter"/><path d="M228.90818,115.86909l-7.76179,18.62239" fill="none" fill-rule="nonzero" stroke="#aa5300" stroke-width="0.75" stroke-linecap="round" stroke-linejoin="miter"/><path d="M236.28704,125.14881l-5.63583,-7.77416c0,0 17.18704,-0.78496 18.2402,-0.45759c1.18023,0.36686 -12.53352,23.63158 -12.53352,23.63158z" fill="#ffab19" fill-rule="nonzero" stroke="#b83312" stroke-width="1.2" stroke-linecap="round" stroke-linejoin="miter"/><path d="M211.88223,144.71861c-2.8609,4.06843 -7.21493,5.46336 -10.57274,3.84048c-2.14662,-1.2767 -2.84595,-4.51578 -1.70172,-7.80732c4.56485,-1.78041 9.12248,-3.68523 13.64515,-5.61291c1.47772,2.42962 0.97923,6.34852 -1.37068,9.57977z" fill="#ffffff" fill-rule="evenodd" stroke="#929292" stroke-width="1.2" stroke-linecap="round" stroke-linejoin="round"/><path d="M185.19718,134.23229c2.68046,1.90238 2.91807,7.06423 0.70141,11.13215c-2.13518,4.0651 -5.62188,5.45602 -8.44423,3.83066c-2.33346,-1.64231 -2.8759,-6.52146 -0.74073,-10.58656c1.36735,-2.60326 3.36041,-4.48431 5.32283,-4.97714c1.10197,-0.27675 2.19428,-0.11576 3.16072,0.60087z" fill="#ffffff" fill-rule="evenodd" stroke="#929292" stroke-width="1.2" stroke-linecap="round" stroke-linejoin="round"/><path d="M203.47249,145.09479c-0.17449,-1.08607 0.47258,-2.10158 1.45992,-2.26021c0.98734,-0.15863 1.92,0.60304 2.09449,1.68911c0.17449,1.08607 -0.47259,2.10159 -1.45991,2.26021c-0.98734,0.15863 -1.91999,-0.60304 -2.09448,-1.68911" fill="#001026" fill-rule="evenodd" stroke="none" stroke-width="1" stroke-linecap="butt" stroke-linejoin="miter"/><path d="M180.31787,145.85921c-0.17449,-1.08607 0.47259,-2.10159 1.45992,-2.26021c0.98734,-0.15863 1.91999,0.60304 2.09449,1.68911c0.17449,1.08607 -0.47259,2.10159 -1.45991,2.26021c-0.98734,0.15863 -1.92,-0.60304 -2.09449,-1.68911" fill="#001026" fill-rule="evenodd" stroke="none" stroke-width="1" stroke-linecap="butt" stroke-linejoin="miter"/><path d="M228.23715,130.11679c0.75883,-1.86303 -29.5752,11.05446 -29.5752,11.05446l-2.7823,-1.34812l1.96095,-2.7722l-1.71474,-0.91318" fill="none" fill-rule="nonzero" stroke="#001026" stroke-width="1.2" stroke-linecap="round" stroke-linejoin="miter"/><path d="M208.03479,157.04184c0,0 -1.43806,3.56597 -7.22162,3.32273c-5.78358,-0.24324 -10.5242,-2.2712 -13.95751,-2.17266c-3.43331,0.09854 -5.51557,2.61683 -7.88195,2.79944c-1.89417,0.14618 -2.63881,-1.56682 -2.63881,-1.56682" fill="none" fill-rule="nonzero" stroke="#001026" stroke-width="1.2" stroke-linecap="round" stroke-linejoin="miter"/><path d="M207.49133,157.33806c0.25181,-1.60856 0.08581,-2.40808 0.08581,-2.40808c0,0 1.36637,1.32686 1.0379,2.22814" fill="#001026" fill-rule="nonzero" stroke="#000000" stroke-width="0" stroke-linecap="round" stroke-linejoin="miter"/></g><g fill-rule="nonzero" stroke-linejoin="miter"><g stroke-width="1.2" stroke-linecap="round"><path d="M324.21248,136.27654c0,0 9.72043,-8.09546 10.24884,-8.46632c0.5283,-0.3701 4.60278,-4.08858 14.67462,-3.88079c0,0 -10.7391,27.7899 -26.47793,31.88271c0,0 2.66552,-8.02106 1.55447,-19.5356zM324.2359,136.52006c-0.07285,-0.94976 -0.46837,-2.67052 -0.46837,-2.67052M321.61304,157.9075c0,0 0.7774,-1.28829 1.04494,-2.09536" fill="#be1e2d" stroke="#6f121b"/><path d="M329.22291,152.27756c0,0 -1.29718,-1.41523 -0.88156,-5.27281c0.27683,-2.60759 1.82968,-6.42711 1.82968,-6.42711c0.76142,-0.65546 1.57795,-1.43379 2.34371,-2.30985c1.29717,-1.48173 2.89858,-3.76235 4.39274,-6.02503l0.2249,-0.30845c0,0 3.63712,-3.93747 9.85639,-3.45559l0.06452,0.05171c-1.96332,4.16811 -5.05422,10.24457 -8.06143,14.24347c-3.37292,4.48484 -6.94924,7.55074 -9.89104,9.57453z" fill="#929497" stroke="#4a4b4c"/></g><path d="M302.4203,175.92713l-11.50196,5.20647l-21.99532,-5.08972l-10.21586,1.76286l-13.03438,-7.54702l-4.31265,-8.93006l-3.14133,-10.19624l-0.52501,-11.97419l3.02728,-10.93575l4.65659,-7.75304l6.23805,-7.17183l7.65469,-5.98757l8.26821,-5.00621l8.91478,-4.2886l6.07458,-2.21967l2.86328,-1.96949l3.449,-3.54582l2.59071,-3.62715l2.64334,-5.10952l1.37087,-7.43551l2.95351,6.11864l2.76517,7.62175l1.00752,-3.47337l0.44616,2.14895l2.13069,6.97589l3.69435,7.05764l2.6993,3.57963l3.91692,5.28123l4.78124,6.37673l3.99265,6.96069l2.97426,7.09502l2.18568,7.67898l1.25287,7.13009l-0.73258,6.98878l-1.29495,6.90937l-2.42335,5.63755l-3.98337,6.66883l-3.76441,3.77941l-6.06694,4.84193z" fill="#be1e2d" stroke="#8c8c8c" stroke-width="0" stroke-linecap="round"/><path d="M311.86689,179.57631l-9.51004,-3.59211l-11.52199,5.35245l-21.87529,-5.31376l-10.21356,1.72203l-12.51937,-6.72069c0,0 -34.31943,-49.49177 35.90259,-74.80438c0,0 13.09928,-7.52529 13.06173,-22.90321c-0.00306,-1.25074 5.81256,14.45416 5.81256,14.45416c0,0 1.06888,-4.78653 1.12838,-4.13817c0.65922,7.18544 6.65107,17.68452 6.65107,17.68452c42.12901,46.83207 8.83417,74.30465 8.83417,74.30465z" fill="none" stroke="#6f121b" stroke-width="1.2" stroke-linecap="round"/><g><path d="M323.32983,156.05254c-1.74201,14.56091 -18.50628,24.52308 -37.44404,22.25111c-18.93777,-2.27196 -32.87771,-15.91773 -31.13568,-30.47866c1.74201,-14.56091 18.50627,-24.52308 37.44404,-22.25111c18.93777,2.27196 32.8777,15.91773 31.13568,30.47865z" fill="#e6e7e8" stroke="#7a7a7b" stroke-width="1.2" stroke-linecap="butt"/><path d="M264.11089,172.20941l1.36893,2.87651l2.084,2.17485l-1.73009,0.1424l-3.69824,-1.49358l-3.11967,-2.56159l-1.04434,-2.57508l-3.78946,-2.9919l-2.74348,-2.69143l-0.34841,2.17707c-2.84045,-9.62302 -8.6238,-20.18402 -3.72926,-31.71246c29.62746,-21.90817 71.36455,-19.47783 79.58755,12.72302c0.10995,0.43059 0.20776,0.85765 0.29389,1.28132c-0.00435,0.60736 -0.03576,1.16893 -0.10425,1.6693c-0.77455,5.66012 -2.2767,11.0877 -3.53378,16.69198c-0.08282,0.36923 -0.23382,0.76844 -0.42638,1.18189l-1.01491,1.04254l0.02224,-1.35717l-3.048,4.39376l-5.05609,3.60891l-2.92336,1.00913l0.87955,-3.838l0.77968,-5.3458l0.09877,-4.33963l-0.95099,-0.25007l0.57483,-1.29088l1.62824,-3.06827l0.58722,-3.7371l-0.0554,-4.22214l-2.40394,-4.50389l-4.64635,-4.50097l-6.55456,-3.778l-7.92621,-2.85469l1.94392,1.32109l2.85664,3.06239l1.27286,3.4163l-14.71514,-5.84491l-14.14652,-5.91266l-1.01151,2.59832l-3.28237,5.18153l-3.09613,4.79593l-0.59341,4.96021l1.77115,5.10791l3.17488,3.91645l-2.96525,0.1882l-2.48668,-0.29833l-0.38494,3.21744l1.10263,3.66787l1.42704,3.29881l1.75146,2.9298z" fill="#be1e2d" stroke="#8c8c8c" stroke-width="0" stroke-linecap="butt"/><path d="M269.86564,131.93568c-2.32392,7.08769 -7.17317,10.15022 -7.62784,14.01055c-0.93583,7.94589 4.92478,12.3281 4.92478,12.3281c0,0 -5.18286,1.68742 -10.02726,-2.57364" fill="none" stroke="#6f121b" stroke-width="1.2" stroke-linecap="round"/><path d="M254.48259,147.37226c-0.37408,-1.56902 -0.68155,-3.34782 -0.90408,-5.36327" fill="none" stroke="#6f121b" stroke-width="1.2" stroke-linecap="round"/><path d="M264.56206,128.83598c12.75058,7.25865 34.68961,14.59506 34.68961,14.59506c0,0 -1.63029,-4.40659 -6.28008,-7.41917c0,0 31.85878,7.53025 18.28676,28.13227c0,0 3.50926,-1.09525 6.32891,-4.03108" fill="none" stroke="#6f121b" stroke-width="1.2" stroke-linecap="round"/><path d="M320.89327,152.25839c-0.09671,1.66932 -0.11576,2.44924 -0.70125,3.71818" fill="none" stroke="#6f121b" stroke-width="1.2" stroke-linecap="round"/><path d="M321.24906,169.25524c-2.76973,5.83378 -10.54965,8.29823 -10.54965,8.29823c0,0 2.42707,-8.70217 1.6407,-13.71426" fill="none" stroke="#6f121b" stroke-width="1.2" stroke-linecap="round"/><path d="M254.08075,147.05127c-5.10889,6.26466 -2.83434,19.94699 -2.83434,19.94699c0,0 -10.52115,-21.95044 -3.26251,-32.29796" fill="none" stroke="#6f121b" stroke-width="1.2" stroke-linecap="round"/><path d="M324.20819,167.75181c-1.6398,1.95438 -2.8356,2.96732 -2.8356,2.96732c0,0 2.40018,-8.68521 -1.23519,-14.63892" fill="none" stroke="#6f121b" stroke-width="1.2" stroke-linecap="round"/><path d="M261.77743,158.35279c-2.05247,5.98044 3.94292,13.22487 3.94292,13.22487c0,0 -9.73048,0.59848 -14.53066,-7.10481" fill="none" stroke="#6f121b" stroke-width="1.2" stroke-linecap="round"/><path d="M263.6176,171.58335c0.54195,3.13781 4.05995,5.69317 4.05995,5.69317c0,0 -7.74949,0.44543 -10.37023,-7.17666" fill="none" stroke="#6f121b" stroke-width="1.2" stroke-linecap="round"/></g><g fill="#000000" stroke="none" stroke-width="0.5" stroke-linecap="butt"><path d="M309.92572,152.2753c0.49784,0.02899 0.71302,0.823 0.80003,1.15792c0.32625,1.2558 0.16116,2.6636 -0.784,3.4133l-0.3744,0.00184c-0.16968,0.03945 -0.40598,0.02179 -0.72719,-0.07747c-2.70245,-0.83521 -5.06803,-1.62304 -7.87903,-1.19894c-0.80647,0.12168 -2.29418,1.09318 -2.96723,1.07532c-0.86331,-0.0229 -1.15771,-0.30785 -1.23649,-1.19677c-0.07689,-0.86742 1.54582,-1.22473 2.13314,-1.38475c2.04471,-0.55711 4.29953,-0.61243 6.50281,-0.30017c0.49217,-0.35352 0.78474,-0.84041 1.12432,-1.44499c0.09767,-0.17389 0.49766,-0.84745 0.57969,-0.84155c0.92139,0.06663 0.92559,1.63943 0.76982,2.77499c0.23751,0.06328 0.47702,0.13533 0.69595,0.21575c0.46145,-0.9104 1.00631,-2.21527 1.36258,-2.19453z"/><path d="M274.62881,152.06989c0.19934,-0.06853 0.41824,-0.12565 0.63576,-0.17318c-0.2035,-1.28357 -0.28089,-3.03994 0.57212,-3.02458c0.07595,0.00136 0.48257,0.79268 0.58235,0.99644c0.34689,0.7084 0.64401,1.28073 1.11978,1.72355c2.03186,-0.13413 4.13067,0.14738 6.06009,0.96886c0.55422,0.23594 2.08102,0.79313 2.0544,1.75454c-0.02729,0.98523 -0.28622,1.27483 -1.0875,1.2163c-0.62468,-0.04564 -2.05781,-1.2757 -2.81372,-1.49018c-2.63483,-0.74759 -4.793,-0.0981 -7.26184,0.57153c-0.29345,0.07959 -0.51218,0.07633 -0.67193,0.01571l-0.34813,-0.03857c-0.91729,-0.92946 -1.14351,-2.51801 -0.90517,-3.88892c0.06357,-0.36561 0.22258,-1.23154 0.68381,-1.21542c0.33009,0.01154 0.90399,1.52212 1.38,2.58396z"/></g><path d="M315.3435,169.00473" fill="none" stroke="#000000" stroke-width="1.2" stroke-linecap="round"/><g stroke-width="1.2" stroke-linecap="round"><path d="M242.88654,151.86491c-13.56368,-6.36399 -16.81271,-36.65653 -16.81271,-36.65653c9.35907,1.13785 12.2316,5.54566 12.63098,6.00086c0.3993,0.456 7.43863,10.16641 7.43863,10.16641c-3.79341,11.8042 -3.25692,20.48926 -3.25692,20.48926zM247.13782,128.91596c0,0 -0.77901,1.7332 -1.07453,2.70938M242.88654,151.86491c0.05339,0.87378 0.46237,2.31566 0.46237,2.31566" fill="#be1e2d" stroke="#6f121b"/><path d="M237.7638,147.40331c-2.23278,-2.49633 -4.80169,-6.15968 -6.84164,-11.2688c-1.81871,-4.55549 -3.21562,-11.27899 -4.02883,-15.86985l0.07205,-0.04502c5.86411,0.33555 8.27978,4.91194 8.27978,4.91194l0.13375,0.35044c0.8374,2.54974 1.76962,5.13252 2.61255,6.84505c0.49729,1.01237 1.06498,1.9301 1.61127,2.71291c0,0 0.51756,4.1738 0.14693,6.91801c-0.54269,4.06051 -2.08166,5.35535 -2.08166,5.35535z" fill="#929497" stroke="#4a4b4c"/></g><path d="M271.19531,153.7188c0,0 2.91799,0.16023 4.54133,1.99453" fill="none" stroke="#000000" stroke-width="1.2" stroke-linecap="round"/><path d="M307.41201,157.29597c1.56872,-1.15559 3.31395,-0.67942 3.31395,-0.67942" fill="none" stroke="#000000" stroke-width="1.2" stroke-linecap="round"/><path d="M297.7068,168.0312c-3.16738,1.01918 -5.7464,-0.29203 -10.88867,-1.15292c-5.14228,-0.8609 -10.04962,0.68542 -12.67716,-2.79239" fill="none" stroke="#000000" stroke-width="1.2" stroke-linecap="round"/></g><g fill-rule="nonzero" stroke-width="1.2" stroke-linejoin="miter"><path d="M185.30297,180.97896c-2.31347,3.15557 -2.84457,6.53186 -5.32165,9.41733c-5.50036,6.40716 -12.41129,3.04729 -14.40853,-1.58805c-1.18742,-2.75585 0.63775,-6.7918 4.23623,-8.01564c2.7366,-0.93071 5.8032,1.52362 6.16766,1.40143c0.04757,-0.01594 6.15012,-11.78214 10.04651,-8.69289c3.06308,2.42858 -0.30435,6.9106 -0.72021,7.47783z" fill="#ffab19" stroke="#b83312" stroke-linecap="butt"/><g><path d="M161.88626,179.57782l1.35416,-4.2283l5.91485,-0.07114l2.82862,3.944l-4.39219,4.40379" fill="#ffab19" stroke="#b83312" stroke-linecap="round"/><path d="M146.48625,180.21577c0.52477,-4.9503 4.64352,-9.18563 9.1995,-9.45988c4.55598,-0.27424 7.82393,3.51643 7.29916,8.46671c-0.52477,4.9503 -4.64351,9.18563 -9.19951,9.45988c-4.55598,0.27424 -7.82393,-3.51643 -7.29917,-8.46671z" fill="#5c5e5f" stroke="#2c2d2d" stroke-linecap="butt"/><path d="M155.10351,184.15755l4.14636,-7.49037l2.99082,-11.65535l2.95616,-1.45709l2.61624,1.18826l0.23367,3.00602l-1.36958,2.66667l-2.32526,7.38667l4.17751,0.20559l1.4721,1.46115l3.29718,-9.84916l3.21934,-1.00342l1.58523,2.08585l-0.21433,4.05156l-1.75237,2.46838l-2.27949,6.41418l0.47455,3.58391l-4.62092,3.90646l-10.95389,-1.85049z" fill="#ffab19" stroke="#b83312" stroke-linecap="round"/><path d="M172.30284,182.45265l3.49269,1.1545l-0.04025,4.04227l-3.05369,2.94521l-2.69395,-1.05876l-0.59877,-4.11886z" fill="#5c5e5f" stroke="#2c2d2d" stroke-linecap="round"/><path d="M163.07475,179.12478l-1.70901,1.0882" fill="none" stroke="#f77a19" stroke-linecap="round"/><path d="M168.80771,180.97904l-1.39344,1.07707" fill="none" stroke="#f77a19" stroke-linecap="round"/></g></g><g><path d="M202.53133,185.18283c-0.95774,-0.85974 -2.19363,-2.25293 -3.45806,-3.55613c-2.11694,-2.14203 -4.76298,-6.49316 1.01412,-7.06673c4.63881,-0.51282 7.62777,2.75883 11.26776,6.44673c1.82975,1.98934 3.99481,4.33221 2.1616,6.93264c-2.05276,2.93935 -10.06797,10.91025 -15.33489,6.7078c-3.69715,-3.508 0.8817,-5.94544 3.99747,-8.0041c0.45866,-0.38705 0.52485,-0.94769 0.35198,-1.4602z" fill="#ffab19" fill-rule="evenodd" stroke="#b83312" stroke-width="1.2" stroke-linecap="round" stroke-linejoin="round"/><path d="M187.54405,198.32125c-12.35835,-0.80018 -9.00081,-10.70521 -8.31772,-13.55815c1.2202,-5.09627 2.21633,-8.35124 4.39153,-10.70355c3.54487,-3.83351 16.84598,-3.94326 20.28551,1.91954c2.84319,4.84632 -2.25939,13.15357 -2.25939,13.15357c0,0 3.81353,10.34845 -14.09994,9.18857z" fill="#ffab19" fill-rule="nonzero" stroke="#b83312" stroke-width="1.2" stroke-linecap="butt" stroke-linejoin="miter"/><path d="M187.62352,191.86314c-8.4986,-0.22237 -3.49811,-17.1732 3.85329,-16.8476c3.27243,0.14494 5.35359,3.18117 4.5799,8.03413c-0.91275,5.72536 -3.00687,8.95547 -8.43321,8.81348z" fill="#ffffff" fill-rule="nonzero" stroke="none" stroke-width="0.5" stroke-linecap="butt" stroke-linejoin="miter"/></g><path d="M239.48274,277.55267h-74.89773l4.05497,-84.72222c0,0 43.08063,-2.38968 70.84276,-2.10526" fill="#868995" fill-rule="nonzero" stroke="#46484e" stroke-width="1.2" stroke-linecap="round" stroke-linejoin="miter"/><path d="M239.30213,190.72519c21.7095,-0.28442 70.84276,2.10526 70.84276,2.10526l4.05497,84.72222h-74.89773" fill="#868995" fill-rule="nonzero" stroke="#46484e" stroke-width="1.2" stroke-linecap="round" stroke-linejoin="miter"/><g fill-rule="nonzero" stroke-width="1.2" stroke-linecap="butt" stroke-linejoin="miter"><g fill="#868995" stroke="#323337"><path d="M238.57625,238.48377c0,0 -55.70679,0.46905 -59.46593,-2.59653c-2.90068,-2.36551 -0.15383,-33.66038 2.76116,-35.95238c2.99246,-2.3529 55.95908,-2.39679 55.95908,-2.39679"/><path d="M237.39559,197.53807c0,0 52.96662,0.04389 55.95908,2.39679c2.915,2.292 5.66184,33.58687 2.76116,35.95238c-3.75914,3.06558 -59.46594,2.59653 -59.46594,2.59653"/></g><g fill="#4e4f56" stroke="#262629"><path d="M238.53172,236.57823c0,0 -53.13189,0.42538 -56.71728,-2.35469c-2.7666,-2.14521 -0.14672,-30.52542 2.63354,-32.60395c2.85414,-2.13376 53.3725,-2.17357 53.3725,-2.17357"/><path d="M237.40564,199.44602c0,0 50.51839,0.03981 53.37253,2.17357c2.78026,2.07853 5.40014,30.45874 2.63353,32.60395c-3.5854,2.78007 -56.71728,2.35469 -56.71728,2.35469"/></g><g fill="#9497a4" stroke="#56585f"><path d="M237.9148,225.14563c0,0 -17.45115,0.16327 -18.62876,-0.90382c-0.90869,-0.8234 -0.04819,-11.71672 0.86498,-12.51453c0.93742,-0.81901 17.53016,-0.83428 17.53016,-0.83428"/><path d="M237.54493,210.893c0,0 16.59271,0.01527 17.53016,0.83428c0.91317,0.79782 1.77368,11.69113 0.86499,12.51453c-1.17761,1.06709 -18.62876,0.90382 -18.62876,0.90382"/></g></g><g fill-rule="nonzero" stroke-width="1.2" stroke-linecap="butt" stroke-linejoin="miter"><g fill="#868995" stroke="#323337"><path d="M238.50678,287.32073c0,0 -51.6893,0.43523 -55.17735,-2.40927c-2.69149,-2.19493 -0.14274,-31.23285 2.56203,-33.35955c2.77665,-2.18322 51.9234,-2.22394 51.9234,-2.22394"/><path d="M237.41127,249.32797c0,0 49.14676,0.04073 51.92339,2.22394c2.70477,2.1267 5.25352,31.16462 2.56202,33.35955c-3.48803,2.8445 -55.17734,2.40927 -55.17734,2.40927"/></g><g fill="#4e4f56" stroke="#262629"><path d="M238.46546,285.55262c0,0 -49.30009,0.3947 -52.6269,-2.18489c-2.56708,-1.9905 -0.13614,-28.32396 2.44361,-30.2526c2.6483,-1.97987 49.52337,-2.01681 49.52337,-2.01681"/><path d="M237.42059,251.09832c0,0 46.87506,0.03694 49.52337,2.01681c2.57975,1.92863 5.01068,28.26211 2.44361,30.2526c-3.32682,2.57957 -52.62691,2.18489 -52.62691,2.18489"/></g><g fill="#9497a4" stroke="#56585f"><path d="M237.89303,274.9445c0,0 -16.19258,0.15151 -17.28526,-0.83863c-0.84316,-0.76403 -0.04471,-10.87172 0.8026,-11.612c0.86982,-0.75994 16.26591,-0.77412 16.26591,-0.77412"/><path d="M237.54986,261.71977c0,0 15.3961,0.01418 16.26592,0.77411c0.84731,0.74028 1.64576,10.84798 0.80259,11.61201c-1.09269,0.99013 -17.28526,0.83863 -17.28526,0.83863"/></g></g><path d="M240.90417,173.80615" fill="none" fill-rule="nonzero" stroke="#000000" stroke-width="1.2" stroke-linecap="round" stroke-linejoin="miter"/><g fill-rule="nonzero" stroke-width="1.2" stroke-linejoin="miter"><path d="M289.39113,175.62791c0.95933,0.31831 6.54679,7.04915 6.76288,8.11024c0.59871,2.93986 -3.78648,4.29326 -5.73493,3.64678c-2.29767,-0.76236 -8.75754,-11.77554 -2.4176,-11.93563c0.28899,-0.05376 0.57661,-0.03995 0.84034,0.03596c0.16188,0.01659 0.3302,0.03879 0.50511,0.06678z" fill="#be1e2d" stroke="#6f121b" stroke-linecap="butt"/><g><path d="M295.41454,191.43137c-2.77646,2.67677 -6.44826,2.96254 -14.70246,2.03754c-5.44073,-0.60971 -9.03362,-17.26378 5.25628,-19.11668c4.37846,-0.56773 6.2611,8.73677 6.2611,8.73677c0,0 0.75749,-0.76169 4.09836,-2.69103c8.1389,-4.70022 8.48067,4.44643 10.20707,9.99527c0.57036,-0.03323 1.09434,-0.05081 1.50866,-0.01895c0,0 2.13896,0.166 1.72645,2.3239c-0.41249,2.1579 -2.55143,1.9919 -2.55143,1.9919c-1.86872,-0.14649 -5.48212,0.38548 -7.07202,-0.30389c-2.93638,-1.27317 -1.80196,-5.93581 -1.80196,-5.93581c0,0 -2.702,2.76112 -2.93004,2.98097z" fill="#be1e2d" stroke="#6f121b" stroke-linecap="butt"/><path d="M283.5439,188.24783c-1.15223,-2.71868 -2.43757,-7.99932 1.38793,-10.44347c4.85985,-3.10497 6.20038,7.02379 5.34796,9.99193c-0.92386,3.21696 -5.43884,3.51197 -6.73591,0.45154z" fill="#e6e7e8" stroke="#7a7a7b" stroke-linecap="round"/></g><path d="M277.98784,183.86075c-1.00593,2.32844 -2.19411,3.3511 -2.82169,5.90034c-0.27661,1.12366 0.44635,1.88522 -1.01679,3.31508c-1.46314,1.42986 -3.52195,2.18088 -4.39404,2.6598c-2.12628,1.16765 -4.3396,0.87933 -2.72986,-1.35381c-2.08123,-0.0701 -7.44477,-0.51202 -7.53507,-1.49766c-0.3766,-4.11096 4.89925,-3.21371 8.06227,-4.02707c1.7725,-1.4589 3.10112,-4.13516 3.89076,-6.55624c0.90783,-2.78341 1.30935,-5.28753 4.28712,-6.18282c1.05051,-0.31585 3.53327,-0.6835 4.45303,0.78464" fill="#be1e2d" stroke="#6f121b" stroke-linecap="butt"/><path d="M297.60611,177.89677c0.37338,-0.63788 0.48351,-1.61578 1.1552,-1.81251c2.00209,-0.58641 5.45638,1.79502 5.45638,1.79502c4.19925,2.17704 2.42776,7.99338 -2.07918,6.98682c-3.34556,-0.74717 -4.17764,-3.00416 -4.17764,-3.00416c0,0 -1.36408,-0.33222 -1.46963,-1.51178c-0.10553,-1.17956 0.36587,-1.17384 1.11486,-2.45339z" fill="#be1e2d" stroke="#6f121b" stroke-linecap="butt"/></g><path d="M252.07137,178.40394" fill="none" fill-rule="nonzero" stroke="#000000" stroke-width="1.2" stroke-linecap="round" stroke-linejoin="miter"/><path d="M279.16267,185.60213c3.77635,-2.04604 10.24557,1.04254 8.80625,5.22143c-0.73927,2.14633 -3.21247,3.8819 -4.54275,5.72369c-1.43319,1.98427 -2.15895,4.15809 -3.56039,6.15896c-0.89401,0.3878 -1.71032,1.12832 -2.68203,1.16341c-6.35311,0.22942 -3.15875,-10.28859 0.73019,-14.38352" fill="#be1e2d" fill-rule="nonzero" stroke="#6f121b" stroke-width="1.2" stroke-linecap="butt" stroke-linejoin="miter"/><g fill="#ffab19" fill-rule="nonzero" stroke="#b83312" stroke-width="1.2" stroke-linecap="butt" stroke-linejoin="miter"><path d="M198.70001,193.53109c-0.30026,2.51993 -0.07514,11.25338 -0.07514,11.25338l-3.62596,8.91295l-11.4482,0.47535c0,0 -1.90813,-1.5936 -1.39525,-4.28206c0.1315,-0.68938 3.07801,-8.84138 3.10088,-9.19069c0.16132,-2.46502 -6.28713,-21.05541 6.7245,-23.51462c5.34182,-1.00961 6.90246,1.21377 7.72705,4.50435c1.14111,4.55374 -0.71977,9.42378 -1.00783,11.84132z"/><path d="M179.13477,189.7722c-0.90097,4.27641 -3.31737,5.89993 -3.43924,6.36612c-1.23694,4.73132 -2.58829,9.47581 -2.58829,9.47581l-7.64943,6.21715l-9.88185,-1.02557c0,0 -2.08088,-4.00272 0.47275,-5.97475c2.7229,-2.10277 7.83522,-4.14843 7.83522,-4.14843c0,0 -2.33922,-22.78563 11.32375,-22.91046c3.66806,0.14249 5.12367,1.93038 5.4107,4.19616"/></g></g></g></svg>