<svg version="1.1" xmlns="http://www.w3.org/2000/svg" xmlns:xlink="http://www.w3.org/1999/xlink" width="89.77017" height="125.39504" viewBox="0,0,89.77017,125.39504"><g transform="translate(-201.67771,-116.15822)"><g stroke-miterlimit="10"><g fill-rule="evenodd"><path d="M256.77495,203.73455c2.02736,-1.35471 4.40545,-3.17349 5.81095,-6.10663c3.27274,-6.59028 1.87531,-14.74186 6.1431,-14.2019c4.35987,0.50284 9.05984,12.70327 -0.71244,20.94378c-3.35584,2.85821 -6.85542,4.2681 -9.74691,5.32544c-0.73676,0.29682 -7.34734,2.20696 -10.80135,-0.05948c-3.45401,-2.26643 -2.21762,-3.73283 -1.62719,-4.40106c0.64595,-0.79817 8.02215,0.31846 10.93387,-1.50012z" fill="#ffab19" stroke="#001026" stroke-width="1.2" stroke-linecap="round" stroke-linejoin="round"/><path d="M268.24959,183.83433c2.06136,-0.18494 4.5187,3.34371 4.87808,6.9645c0.35937,3.62077 -0.45567,5.8857 -1.17735,7.57508c-0.07187,-0.72416 -0.50827,-2.91525 -2.54943,-3.49157c-2.55585,-0.79929 -5.63412,1.40915 -5.63412,1.40915c0,0 1.46486,-4.67846 1.95069,-7.77905c0.63216,-2.72918 0.54393,-4.30746 2.53212,-4.67811z" fill="#ffffff" stroke="none" stroke-width="1" stroke-linecap="butt" stroke-linejoin="miter"/></g><g fill-rule="nonzero" stroke-linecap="round" stroke-linejoin="miter"><path d="M222.58565,227.17028l10.86984,-22.49542c0,0 1.47435,-4.45315 4.3083,-11.5098c1.3769,-3.42855 2.55977,-9.83464 5.03828,-12.11038c3.8222,-3.50951 10.85481,-3.09312 10.85481,-3.09312c0,0 7.7809,0.99244 8.2832,6.27953c0.39966,4.20678 -1.9829,7.88379 -3.30133,12.29762c-1.25791,4.21124 -1.44576,9.26093 -1.44576,9.26093l2.38157,24.18257c0,0 3.91825,0.78099 4.37057,2.81193c0.45232,2.03095 -1.99074,7.87339 -1.99074,7.87339l-17.19373,0.28119l-4.56423,-5.34266l0.91568,-6.28462c0,0 3.87361,-25.86138 1.88232,-20.65426c-0.88852,2.32346 -6.0259,18.51388 -6.0259,18.51388l-1.69871,8.42848l-18.1287,1.60484l-3.49972,-0.76474c0,0 -2.59965,-4.0619 0.15232,-6.91698c2.75196,-2.85507 8.79192,-2.36239 8.79192,-2.36239z" fill="#ffab19" stroke="#001026" stroke-width="1.2"/><path d="M245.43491,208.2369c0,0 -3.21156,-0.13731 -4.33667,-1.51935" fill="none" stroke="#001026" stroke-width="1.2"/><path d="M243.83333,201.3122c-3.95084,-0.65398 -3.05643,-4.90464 -2.02234,-8.97955c1.15991,-4.57068 2.70294,-9.42706 7.17165,-8.82045c4.90234,0.66547 4.31412,5.43964 2.96623,10.44496c0,0 -2.42202,8.29748 -8.11554,7.35504z" fill="#ffffff" stroke="#000000" stroke-width="0"/></g><path d="M246.76748,232.51216c0,0 1.94652,-2.71583 12.57883,-2.6" fill="none" fill-rule="nonzero" stroke="#001026" stroke-width="1.2" stroke-linecap="round" stroke-linejoin="miter"/><g><g><g><path d="M221.53837,149.99399c0,0 -7.95607,-26.41807 -6.89332,-26.59561c1.43175,-0.23918 28.33073,6.10687 28.33073,6.10687" fill="#ffab19" fill-rule="nonzero" stroke="#001026" stroke-width="1.2" stroke-linecap="round" stroke-linejoin="miter"/><path d="M275.75677,143.83807l14.99518,12.73046l-1.92584,5.8661l-30.09679,4.357z" fill="#9b7f41" fill-rule="nonzero" stroke="#001026" stroke-width="1.2" stroke-linecap="round" stroke-linejoin="miter"/><path d="M214.78807,170.87845c0,0 -6.96185,1.8392 -12.51036,-0.55745" fill="none" fill-rule="evenodd" stroke="#001026" stroke-width="1.2" stroke-linecap="round" stroke-linejoin="round"/><path d="M215.98884,176.66882c0,0 -3.24567,2.87846 -9.44818,4.09046" fill="none" fill-rule="evenodd" stroke="#001026" stroke-width="1.2" stroke-linecap="round" stroke-linejoin="round"/><path d="M236.49051,137.41244c10.507,-4.4547 41.41743,-2.44489 39.81929,25.46272c-0.02084,0.36383 -0.12569,0.71832 -0.22903,1.07126c-3.77408,12.88901 -16.94723,21.8605 -36.04984,23.35056c-19.10261,1.49006 -26.24393,-7.72957 -26.62038,-13.54233c-0.37646,-5.81277 5.89765,-9.74411 5.89765,-9.74411c0,0 -1.11338,-4.36124 0.4903,-10.51901c0,0 1.34102,-9.57063 16.69203,-16.07908z" fill="#ffab19" fill-rule="evenodd" stroke="#001026" stroke-width="1.2" stroke-linecap="butt" stroke-linejoin="miter"/><path d="M236.91456,164.59921c8.25208,-1.68019 16.88248,-13.53669 26.21225,-5.03167c9.30289,8.4087 2.09725,25.37009 -22.55605,27.05965c-18.88308,1.53262 -26.27528,-7.09788 -26.65174,-12.91065c-0.37646,-5.81277 5.78566,-9.40138 5.78566,-9.40138c7.67635,-4.11506 10.14048,1.73799 17.20987,0.28406z" fill="#ffffff" fill-rule="evenodd" stroke="none" stroke-width="1" stroke-linecap="butt" stroke-linejoin="miter"/><path d="M241.38102,162.00295c0.43012,1.54111 -2.94322,5.07814 -4.73073,5.36938c-1.56799,0.33379 -3.76547,-1.9599 -4.04551,-3.33524c-0.09185,-0.70111 1.9734,-1.48516 3.9961,-2.04968c1.92638,-0.53764 4.55387,-1.16715 4.78014,0.01556z" fill="#001026" fill-rule="evenodd" stroke="#001026" stroke-width="1.2" stroke-linecap="round" stroke-linejoin="round"/><path d="M271.26367,154.46451c-2.43139,5.53338 -8.78218,8.9271 -8.78218,8.9271" fill="none" fill-rule="evenodd" stroke="#001026" stroke-width="1.2" stroke-linecap="round" stroke-linejoin="round"/><path d="M275.2496,165.01163c-5.36762,3.33599 -9.7046,3.4381 -9.7046,3.4381" fill="none" fill-rule="evenodd" stroke="#001026" stroke-width="1.2" stroke-linecap="round" stroke-linejoin="round"/><path d="M263.10296,144.12289l-43.11208,6.69837l-2.47327,-22.66634l47.77415,-6.44294l15.61567,16.28222l-4.4809,16.63977z" fill="#c58600" fill-rule="nonzero" stroke="#001026" stroke-width="1.2" stroke-linecap="round" stroke-linejoin="miter"/><path d="M263.07959,143.9243l2.03704,-21.99023" fill="none" fill-rule="nonzero" stroke="#001026" stroke-width="0.75" stroke-linecap="round" stroke-linejoin="miter"/><path d="M272.21139,129.15235l-6.47549,-7.09c0,0 14.80524,-5.50513 15.88856,-5.29845c1.21403,0.23162 -7.60839,27.68235 -7.60839,27.68235z" fill="#ffab19" fill-rule="nonzero" stroke="#001026" stroke-width="1.2" stroke-linecap="round" stroke-linejoin="miter"/></g><g><g fill-rule="evenodd"><path d="M230.81685,146.47112c3.18082,0.98103 4.45549,5.92018 2.87194,11.03413c-1.67987,5.14082 -5.54601,8.4001 -8.72682,7.41906c-3.18082,-0.98103 -4.45548,-5.92018 -2.87194,-11.03413c1.58355,-5.11393 5.51913,-8.49642 8.72682,-7.41907z" fill="#ffffff" stroke="#001026" stroke-width="1.2" stroke-linecap="round" stroke-linejoin="round"/><path d="M221.22787,158.48769c-0.2957,-1.0595 0.23291,-2.14143 1.1961,-2.41025c0.96319,-0.26882 1.97568,0.38299 2.27138,1.44249c0.2957,1.0595 -0.2329,2.14143 -1.19609,2.41025c-0.96319,0.26882 -1.97568,-0.38299 -2.27138,-1.44249" fill="#001026" stroke="none" stroke-width="1" stroke-linecap="butt" stroke-linejoin="miter"/></g><g fill-rule="evenodd"><path d="M254.8949,144.21368c3.57731,1.28566 4.91694,6.82962 3.11387,11.90101c-0.29793,0.88053 -0.66149,1.6845 -1.07836,2.40678c-3.21149,0.39516 -6.43726,0.86812 -9.71985,1.40168c-0.39042,0.06346 -0.79093,0.12263 -1.19878,0.18065c-1.12759,-2.22408 -1.39014,-5.45891 -0.30963,-8.65248c1.70676,-5.0445 5.58856,-8.61962 9.19275,-7.23764z" fill="#ffffff" stroke="#001026" stroke-width="1.2" stroke-linecap="round" stroke-linejoin="round"/><path d="M245.05951,156.09134c-0.2957,-1.0595 0.25979,-2.04512 1.19609,-2.41027c0.96319,-0.26882 1.97567,0.38299 2.27138,1.44249c0.2957,1.0595 -0.2329,2.14144 -1.19609,2.41026c-0.96319,0.26882 -1.97568,-0.383 -2.27138,-1.4425" fill="#001026" stroke="none" stroke-width="1" stroke-linecap="butt" stroke-linejoin="miter"/></g><g fill="none" fill-rule="nonzero" stroke="none" stroke-width="1" stroke-linecap="butt" stroke-linejoin="miter" font-family="sans-serif" font-weight="normal" font-size="12" text-anchor="start"/></g></g><path d="M247.51551,180.60277c4.76858,3.10162 7.97517,6.62932 7.16213,7.87934c-0.81305,1.25002 -5.33784,-0.251 -10.10642,-3.35263c-4.76858,-3.10162 -7.97517,-6.62932 -7.16213,-7.87934c0.81305,-1.25002 5.33784,0.251 10.10642,3.35263z" fill="#ffffff" fill-rule="nonzero" stroke="#001026" stroke-width="1.2" stroke-linecap="butt" stroke-linejoin="miter"/></g><path d="M249.90004,187.00073c-0.4761,1.37741 -0.39712,3.13656 -1.20794,4.28378c-0.12365,0.17496 -0.26801,0.33569 -0.43818,0.47866c-2.02347,1.70002 -9.08879,3.09594 -10.59372,3.07214c-3.25083,-0.05143 -6.38376,-3.65003 -5.29539,-6.96571c1.17896,-3.59168 6.94951,-3.69845 9.557,-4.2492c1.23857,-0.26161 3.77372,-1.5561 4.76018,-0.39792z" fill="#ffab19" fill-rule="nonzero" stroke="#000000" stroke-width="1.2" stroke-linecap="butt" stroke-linejoin="miter"/><path d="M261.66373,193.12811c-4.57825,3.09672 -8.38591,4.89348 -11.32113,9.9196c-1.03392,1.77042 -1.70503,5.26375 -4.20019,5.60981c-3.36011,0.46602 -7.15743,-2.14104 -6.67495,-5.65752c0.63787,-4.64895 5.78462,-10.84978 9.0813,-13.94018c1.11913,-1.04911 3.13976,-1.08979 4.26002,-2.14209c1.24507,-1.16955 6.41861,-5.01174 8.17849,-2.44738c1.54023,0.74565 2.6574,2.26313 2.80829,4.09204c0.13378,1.62163 -0.52197,3.12625 -1.6463,4.13517c-0.14116,0.16117 -0.30142,0.30604 -0.48552,0.43057z" fill="#ffab19" fill-rule="nonzero" stroke="#000000" stroke-width="1.2" stroke-linecap="butt" stroke-linejoin="miter"/><g fill-rule="nonzero" stroke="#000000" stroke-width="1.2" stroke-linejoin="miter"><path d="M254.96225,187.02752c-2.05413,-4.26498 -0.26189,-9.38764 4.00308,-11.44176c4.26498,-2.05413 9.38764,-0.26188 11.44177,4.00309c2.05413,4.26498 0.26189,9.38764 -4.00309,11.44177c-4.26498,2.05413 -9.38762,0.26188 -11.44176,-4.00309z" fill="#5c5e5f" stroke-linecap="butt"/><g stroke-linecap="round"><path d="M257.65718,191.43783l-1.90445,4.3422l-2.37977,0.19479l-4.01566,1.93406l-2.09986,-3.1747z" fill="#ffab19"/><path d="M260.03067,186.48918l-1.77838,6.18424l-4.0787,1.01304l-1.31565,0.82392l-3.76981,0.86426l-0.77792,0.75521l-3.52962,0.17775l-3.3701,-5.41704l0.25092,-6.5902l12.71647,-4.41214z" fill="#ffab19"/><path d="M253.73861,191.99319l1.26964,-2.8948" fill="none"/><path d="M248.9564,193.91589l1.20659,-3.81581" fill="none"/></g><path d="M245.1349,193.09258l-3.84986,1.0931l-2.56319,-2.95155l0.82332,-3.82149l3.07763,-0.72116l3.18099,2.65399z" fill="#5c5e5f" stroke-linecap="round"/></g><path d="M227.07287,215.3493c0,0 4.92453,-9.30753 10.48244,-12.71603c9.93324,-6.09174 11.64497,4.55121 11.64497,4.55121c0.25335,2.01724 -0.7371,3.29511 -0.7371,3.29511c0,0 4.59494,3.5041 1.48533,6.39163c-2.09688,1.94713 -7.12358,-1.41834 -7.12358,-1.41834l-1.64496,1.14839c0,0 6.23653,3.30108 1.63939,6.02103c-3.3741,1.99633 -7.78509,-2.89201 -7.78509,-2.89201l-2.69998,1.02812c0,0 0.11408,4.38002 -4.03783,3.26148c-3.21164,-0.86523 -1.22359,-8.6706 -1.22359,-8.6706z" fill="#ffab19" fill-rule="nonzero" stroke="#001026" stroke-width="1.2" stroke-linecap="round" stroke-linejoin="miter"/></g></g></svg>