<svg version="1.1" xmlns="http://www.w3.org/2000/svg" xmlns:xlink="http://www.w3.org/1999/xlink" width="113.36327" height="120.02263" viewBox="0,0,113.36327,120.02263"><g transform="translate(-189.55652,-118.20689)"><g stroke-width="1.2" stroke-miterlimit="10"><path d="M257.61033,214.01007c2.46049,1.4536 5.45406,7.47406 2.01604,9.46031c-0.98162,0.56711 -2.24323,0.34725 -3.2817,0.08858c-0.45282,-0.11279 -2.23327,-2.63935 -3.21528,-4.56693c-0.1016,-0.13199 -0.19315,-0.27479 -0.27315,-0.42804c-0.15723,-0.3012 -0.25816,-0.62035 -0.30662,-0.94584c-0.19831,-1.33199 0.4821,-2.77023 1.77901,-3.5195c0.95094,-0.54939 2.02114,-0.60577 2.90369,-0.2456c0.13173,0.03519 0.25816,0.08621 0.37801,0.15702z" fill="#9a8479" stroke="#000000" stroke-linecap="butt"/><g fill="#9a8479" stroke="#000000" stroke-linecap="butt"><path d="M252.81873,224.98085c0,0 -0.68058,5.22774 -0.81951,7.13847c-0.13532,1.91063 -0.14461,3.68822 -0.14461,3.68822c0,0 0.62158,0.34929 0.21425,1.09892c-0.40662,0.75337 -2.84212,0.71688 -5.95734,0.8829c-3.11618,0.16691 -5.47246,-0.36213 -5.7457,-1.15826c-0.27401,-0.78714 0.71187,-1.06708 0.71187,-1.06708c0,0 2.36489,-5.17305 2.12386,-7.52882c-0.32104,-3.14189 1.27775,-3.95998 5.28687,-5.46209v0v0v0v0v0v0c4.00912,-1.50211 4.3303,2.40773 4.3303,2.40773z"/><path d="M244.98999,208.67383v0v0v0v0v0v0c8.25644,-0.62376 10.21554,4.05299 10.21396,4.0521c0.36607,1.20795 0.77108,2.91231 0.73305,4.46855c-0.0107,0.42988 -0.07047,0.91356 -0.18219,1.43237c0,0 -0.48581,1.80207 -0.7955,2.35221c-1.29827,2.30475 -3.11342,4.82759 -6.26545,5.96827c-4.95059,1.79848 -9.70099,1.57773 -14.11841,-0.78533c-1.49131,-0.79518 -2.15995,-2.15035 -2.32369,-3.69306c-0.11457,-1.11025 0.07311,-2.55784 0.07311,-2.55784c0.34881,-2.40793 1.34335,-4.75845 1.81736,-5.78064c0,0 2.59233,-4.83296 10.84775,-5.45663z"/><path d="M241.45343,227.60244c-0.12497,0.33101 -0.23121,0.53673 -0.23121,0.53673c0,0 -1.51894,3.23453 -2.00623,4.99083c-0.48829,1.7564 -0.60338,2.48244 -0.60338,2.48244c0,0 0.50713,0.05919 0.20382,0.72783c-0.29992,0.66954 -2.0608,1.39557 -6.47858,1.27629c-4.41817,-0.12475 -5.01857,-1.12546 -4.89964,-1.63701c0.11704,-0.51154 1.22316,-1.03037 1.22316,-1.03037c0,0 1.32381,-3.27125 2.75327,-6.11542c0.8113,-1.6128 1.84819,-3.18902 2.59441,-4.25212"/></g><g><path d="M286.92329,161.23295c0,0 11.8896,-11.41808 14.63677,-3.77213c2.74724,7.64585 -2.09787,17.90013 -12.2413,28.10206c0,0 0.18366,-14.10824 -2.39548,-24.32995zM286.92329,161.23295c-0.21654,-1.20982 -0.92696,-3.47581 -0.92696,-3.47581M289.06077,187.79649l0.12116,-2.29649" fill="#9a8479" stroke="#000000" stroke-linecap="round"/><path d="M289.18191,185.4991c0.05851,-2.61689 0.04358,-6.90787 -0.38562,-12.20006c-0.24738,-3.08044 -0.71742,-6.22348 -1.19824,-8.9261l0.00128,0.00339c6.97314,-3.64349 13.21245,4.52145 13.21245,4.52145l0.00253,-0.00041c-3.46516,8.78456 -11.57715,16.36534 -11.57715,16.36534l-0.05526,0.23638v0v0v0v0z" fill="#ee4036" stroke="#000000" stroke-linecap="butt"/><path d="M205.69871,195.17329v0v0v0v0v0v0c-0.04803,-0.08287 -1.45098,-2.41071 -1.45098,-2.41171c-3.89056,-6.20527 -4.78951,-20.26233 -4.46561,-24.65129l0.02919,-0.21029c1.04641,-18.6022 9.66717,-28.55418 14.76015,-33.82292c11.55985,-11.96678 29.13277,-12.503 29.13277,-12.503l0.65761,12.07134c0,0 -0.04344,-3.47219 7.00917,-9.563c7.05081,-6.09082 17.50604,-5.23425 17.50604,-5.23425l-5.50293,15.14548c0,0 3.25606,-4.72213 5.93067,-6.45208c4.74186,-3.06192 8.76263,-1.76365 8.76263,-1.76365l-1.08015,9.38706c0,0 7.09668,9.14511 12.53286,17.74203c1.16331,1.83425 2.51068,3.69055 3.36787,5.82789c3.11717,7.76562 3.60394,21.62087 0.1546,28.49427c-0.59568,1.21603 -1.24477,2.39701 -1.91832,3.55816c-0.17514,0.2982 -0.35118,0.59462 -0.52993,0.88743c-0.61705,1.02119 -1.26126,2.02256 -1.93895,2.99342c-0.09163,0.12927 -0.17523,0.2666 -0.26686,0.39597c-0.76858,1.08023 -1.57957,2.12088 -2.42325,3.13282c-0.2014,0.24418 -0.41371,0.48019 -0.61971,0.72259c-0.72319,0.83569 -1.47264,1.64796 -2.24198,2.4296c-0.17727,0.18282 -0.35004,0.36822 -0.52913,0.54464c-0.92607,0.91028 -1.89096,1.77818 -2.88497,2.60735c-0.22148,0.18204 -0.44837,0.3559 -0.67176,0.53424c-0.83467,0.67001 -1.69742,1.31031 -2.58006,1.92087c-0.2549,0.17394 -0.50347,0.35685 -0.76018,0.52721c-1.07824,0.71312 -2.18281,1.38302 -3.32362,2.00242c-0.20357,0.11159 -0.41989,0.20961 -0.62628,0.31761c-0.97503,0.51072 -1.97277,0.98091 -2.99221,1.41686c-4.31229,1.84288 -8.99723,3.04813 -14.03035,3.42538c-5.75217,0.43074 -10.96106,0.27159 -15.66752,-0.32819c-1.16373,-0.14824 -2.29595,-0.32626 -3.39854,-0.52607c-0.20952,-0.0418 -0.41814,-0.08179 -0.62575,-0.12179c-1.11793,-0.21687 -2.21521,-0.44999 -3.26828,-0.71675c-0.00631,-0.00178 -0.01441,-0.00356 -0.02161,-0.00534c-1.05497,-0.26395 -2.06933,-0.56052 -3.06024,-0.87525c-0.17346,-0.0545 -0.35142,-0.10899 -0.52397,-0.16449c-0.95209,-0.30845 -1.87995,-0.63866 -2.77437,-0.98878c-0.15728,-0.05905 -0.30907,-0.12631 -0.46535,-0.18716c-0.88283,-0.35295 -1.74389,-0.72036 -2.56992,-1.10947c-0.03165,-0.01791 -0.06688,-0.02961 -0.09763,-0.04572c-0.84586,-0.40165 -1.65399,-0.82152 -2.43943,-1.25145c-0.14653,-0.08068 -0.29206,-0.15966 -0.4348,-0.24045c-0.75573,-0.42631 -1.48809,-0.8618 -2.1861,-1.31078c-0.1067,-0.06739 -0.208,-0.1375 -0.31379,-0.20569c-0.66276,-0.43469 -1.30395,-0.87854 -1.91716,-1.33146c-0.06322,-0.04312 -0.13286,-0.08892 -0.1935,-0.13654c-0.63948,-0.47715 -1.2437,-0.96531 -1.82632,-1.45702c-0.11317,-0.09447 -0.22445,-0.18975 -0.33302,-0.28414c-0.56813,-0.49185 -1.11465,-0.98458 -1.62882,-1.48919c-0.05876,-0.05493 -0.11223,-0.11338 -0.17009,-0.16911c-0.48429,-0.4795 -0.94408,-0.96257 -1.37869,-1.44582c-0.06071,-0.07012 -0.1295,-0.13853 -0.1911,-0.20685c-0.44547,-0.50841 -1.40837,-1.71453 -1.48264,-1.81082c-0.38768,-0.50948 -0.75745,-1.01812 -1.09191,-1.52415c-0.02079,-0.03154 -0.04078,-0.06309 -0.05977,-0.09452c-0.32091,-0.48718 -0.6129,-0.96713 -0.88598,-1.44544z" fill="#9a8479" stroke="#000000" stroke-linecap="butt"/><path d="M282.25556,166.64671v0v0v0v0v0v0c0,0 13.58452,13.42485 6.86005,24.19696c-8.01952,12.84671 -21.12067,17.61015 -35.05859,16.71315c-18.42528,-1.18712 -26.99959,-12.90088 -24.00049,-24.11219c3.00331,-11.21133 27.37669,-16.51864 27.37669,-16.51864l-3.98162,8.06025c0,0 3.15317,-0.53052 5.69678,-2.09679c2.54287,-1.56346 5.33051,-3.64733 5.33051,-3.64733l-5.80965,8.86213c0,0 7.70662,-0.11069 14.37203,-2.98787c6.66541,-2.87358 9.21428,-8.46968 9.21428,-8.46968z" fill="#e6e7e8" stroke="#000000" stroke-linecap="butt"/><path d="M210.07938,193.55539c-14.07251,-5.55253 -21.67896,-13.09396 -19.57744,-21.04518c2.10242,-7.95201 18.50929,-1.93354 18.50929,-1.93354c-1.47313,10.229 1.06816,22.9787 1.06816,22.9787zM209.57412,167.08024c0,0 -0.4969,2.31715 -0.56199,3.49644M210.23617,193.44663l0.52571,2.04269" fill="#9a8479" stroke="#000000" stroke-linecap="round"/><path d="M210.13001,193.25304c0,0 -11.15997,-3.91635 -16.8381,-10.62625l0.0027,-0.0009c0,0 6.28498,-9.70161 15.4061,-8.94589l0.0009,-0.0027c-0.144,2.63013 -0.20204,5.65781 0.00211,8.54593c0.34466,4.96523 1.03105,8.86855 1.53246,11.22342z" fill="#ee4036" stroke="#000000" stroke-linecap="butt"/><path d="M279.65825,187.20894c-0.58222,0.00169 -1.09275,-0.47044 -1.19105,-1.13686c-0.1074,-0.73759 0.33792,-1.43358 0.99454,-1.55359c0.59714,-0.10733 5.88993,-1.05093 7.84222,-0.78408c0.66044,0.09189 1.13133,0.76713 1.05401,1.50526c-0.0814,0.74364 -0.69104,1.26141 -1.34094,1.18299c-1.22837,-0.16425 -5.04305,0.38089 -7.16768,0.76593c-0.06421,0.01459 -0.12843,0.02017 -0.19108,0.02036z" fill="#231f20" stroke="none" stroke-linecap="butt"/><path d="M258.61052,188.54074c-0.0848,0.00025 -0.17063,-0.00851 -0.25907,-0.02365c-3.12713,-0.59536 -8.62153,0.03583 -8.67561,0.04138c-0.72996,0.08331 -1.41288,-0.44161 -1.50164,-1.18466c-0.08694,-0.74135 0.44351,-1.41409 1.18697,-1.50104c0.24363,-0.025 5.95905,-0.68293 9.49701,-0.01117c0.7332,0.13858 1.21725,0.84718 1.07678,1.58459c-0.12365,0.64176 -0.68994,1.0927 -1.32444,1.09454z" fill="#231f20" stroke="none" stroke-linecap="butt"/></g><path d="M247.32733,194.01296c0,0 10.22503,0.05154 14.32304,0.48396c3.22494,0.3403 8.27933,1.90107 8.27933,1.90107c0,0 -7.86653,11.04804 -17.46605,10.03509c-9.59952,-1.01295 -5.13632,-12.42013 -5.13632,-12.42013z" fill="#706d6d" stroke="#231f20" stroke-linecap="round"/><g stroke="#000000"><path d="M239.33992,223.79386l-1.05295,0.21837c-1.48618,0.1332 -3.1772,1.01376 -4.45855,0.3996c-3.51962,-1.68699 -2.9916,-4.35133 -3.10752,-7.40946c0,0 -0.02026,-3.23066 3.24698,-3.58477c3.26724,-0.35411 3.2875,2.87654 3.2875,2.87654c-0.11189,2.08036 -0.85566,2.38693 0.34105,1.35932l1.05295,-0.21837c0,0 3.24902,-0.67381 3.59428,2.50557c0.34526,3.17938 -2.90375,3.85319 -2.90375,3.85319z" fill="#9a8479" stroke-linecap="butt"/><g><path d="M246.70537,208.89789c2.87758,-0.48081 5.36319,1.42187 5.55177,4.24976c0.18858,2.82789 -1.99128,5.51012 -4.86885,5.99093c-2.87758,0.48081 -5.36319,-1.42187 -5.55177,-4.24976c-0.18858,-2.82789 1.99128,-5.51012 4.86885,-5.99093z" fill="#5c5e5f" stroke-linecap="butt"/><path d="M244.26165,220.04451l-0.95448,2.55454l-1.95284,0.23418l-2.43616,1.42035l-0.88743,-2.06254" fill="#9a8479" stroke-linecap="round"/><path d="M245.29906,215.60067l-0.51546,4.28586l-6.9763,3.52801l-3.87123,-1.97799l-0.52383,-3.84972l7.73412,-4.17961z" fill="#9a8479" stroke-linecap="round"/><path d="M242.48585,220.72474l0.09712,-2.44513" fill="none" stroke-linecap="round"/><path d="M239.1241,221.03078l0.09275,1.39071" fill="none" stroke-linecap="round"/><path d="M234.84713,219.31652l1.35395,0.79646l0.10117,1.51714l-2.11117,1.50328l-1.73989,-0.73198l-0.11803,-1.77z" fill="#5c5e5f" stroke-linecap="round"/></g></g><path d="M255.54107,218.405c0.01377,-0.06744 0.33489,-1.69346 0.34905,-1.75926c0.00756,-0.17355 0.02922,-0.34998 0.06585,-0.52805c0.07199,-0.34998 0.19646,-0.68027 0.36336,-0.98348c0.68299,-1.24084 2.0767,-2.02835 3.49416,-1.8567c1.03932,0.12586 1.8595,0.73928 2.28293,1.58661c0.07475,0.11087 0.13577,0.23178 0.17965,0.36523c0.90093,2.73968 -0.6476,9.64304 -4.40518,9.18803c-0.87465,-0.10591 -2.19403,-1.45895 -2.74322,-2.1643" fill="#9a8479" stroke="#000000" stroke-linecap="butt"/></g></g></svg>