<svg version="1.1" xmlns="http://www.w3.org/2000/svg" xmlns:xlink="http://www.w3.org/1999/xlink" width="95.37983" height="124.70988" viewBox="0,0,95.37983,124.70988"><g transform="translate(-187.20868,-117.31269)"><g stroke-miterlimit="10"><g fill-rule="evenodd"><path d="M243.15401,207.93395c2.15852,1.19694 4.89812,2.49851 8.1971,2.43902c7.4651,-0.03163 14.19034,-4.90856 15.66814,-0.87624c1.55377,4.09759 -7.31031,13.71422 -19.26116,8.7076c-4.12963,-1.70664 -7.0162,-4.18689 -9.30396,-6.28416c-0.60771,-0.52217 -5.37954,-5.54314 -4.92176,-9.62249c0.45776,-4.07935 2.35291,-3.63491 3.22896,-3.40839c1.01909,0.2179 3.40744,7.26894 6.39268,9.04467z" fill="#ff7e19" stroke="#001026" stroke-width="1.2" stroke-linecap="round" stroke-linejoin="round"/><path d="M266.4293,209.25293c1.11673,1.74885 -0.94119,5.50567 -4.04879,7.43975c-3.1076,1.93407 -5.53051,2.22009 -7.39014,2.33238c0.62152,-0.38681 2.40124,-1.7517 1.98198,-3.8221c-0.45478,-2.62709 -3.86916,-4.37692 -3.86916,-4.37692c0,0 4.90407,-0.78511 7.93076,-1.73631c2.75835,-0.65555 4.14445,-1.43782 5.39536,0.1632z" fill="#ffffff" stroke="none" stroke-width="1" stroke-linecap="butt" stroke-linejoin="miter"/></g><path d="M228.27884,196.31072c-2.55436,2.77249 -3.37796,10.31695 -9.57676,7.89726c-3.26565,-1.27475 -3.63174,-3.93241 -2.81605,-6.41138c1.99604,-6.06628 4.38605,-8.84 9.55376,-11.29881c1.37433,-0.65389 4.20216,-3.69756 5.86358,-2.73488c0.59987,0.01011 1.20803,0.1248 1.79799,0.3551c2.59732,1.01386 3.8581,3.88433 2.81605,6.41137c0.67839,1.91025 -6.26968,4.29556 -7.63857,5.78134z" fill="#ff7e19" fill-rule="nonzero" stroke="#000000" stroke-width="1.2" stroke-linecap="butt" stroke-linejoin="miter"/><g fill-rule="nonzero" stroke-linecap="round" stroke-linejoin="miter"><path d="M217.91083,226.97482l3.64929,-22.09571c0,0 0.03611,-4.39152 0.59747,-11.33765c0.27274,-3.37486 -0.62565,-9.71651 1.14045,-11.91621c2.72358,-3.39224 9.98458,-2.79643 9.98458,-2.79643c0,0 8.20764,1.18813 10.44703,6.46023c1.78182,4.19485 0.57154,7.79088 0.68053,12.14731c0.10399,4.15648 1.56647,9.17461 1.56647,9.17461l10.3279,24.11616c0,0 4.22519,0.87805 5.34818,2.90993c1.12299,2.03189 0.5602,7.78033 0.5602,7.78033l-17.32689,-0.16433l-6.37269,-5.43227l-1.12932,-6.22773c0,0 -4.54027,-25.62455 -4.85332,-20.49639c-0.13968,2.28822 -0.04509,18.26033 -0.04509,18.26033l1.03774,8.34003l-17.84085,1.12817l-3.79587,-0.85108c0,0 -3.96318,-4.10755 -2.10966,-6.87646c1.85352,-2.7689 8.13384,-2.12284 8.13384,-2.12284z" fill="#ff7e19" stroke="#001026" stroke-width="1.2"/><path d="M234.86232,208.73168c0,0 -3.29858,-0.21952 -4.89077,-1.62331" fill="none" stroke="#001026" stroke-width="1.2"/><path d="M230.97326,201.80225c-4.21664,-0.75255 -4.7018,-4.95763 -4.98791,-8.98428c-0.32093,-4.51655 -0.34721,-9.30739 4.37858,-8.58858c5.18436,0.78855 6.15106,5.52228 6.4238,10.46631c0,0 0.26208,8.19104 -5.81447,7.10655z" fill="#ffffff" stroke="#000000" stroke-width="0"/></g><path d="M243.87157,232.90565c0,0 1.64321,-2.63692 12.4288,-2.24773" fill="none" fill-rule="nonzero" stroke="#001026" stroke-width="1.2" stroke-linecap="round" stroke-linejoin="miter"/><path d="M237.80763,187.84952c1.25165,-1.42755 1.92633,-3.85738 3.58337,-4.58682c0.19029,-0.08376 0.39355,-0.14511 0.61212,-0.17993c5.68351,-0.90555 8.64357,5.18316 11.6415,6.96562c2.52008,1.49835 9.58397,-5.7915 13.88062,-2.69895c1.14463,0.82385 2.36349,3.01796 2.41662,4.37696c0.06819,1.74424 -6.25249,9.40562 -8.5536,9.90342c-10.28183,2.22425 -10.6952,-1.0353 -17.15631,-7.47313c-0.83235,-0.82936 -5.06284,-1.89657 -5.26573,-3.03836z" fill="#ff7e19" fill-rule="nonzero" stroke="#000000" stroke-width="1.2" stroke-linecap="butt" stroke-linejoin="miter"/><g><g><path d="M209.45457,144.85689c0,0 4.90704,-27.0818 5.98975,-26.94367c1.45861,0.18608 20.84673,13.78334 20.84673,13.78334" fill="#ff7e19" fill-rule="nonzero" stroke="#001026" stroke-width="1.2" stroke-linecap="round" stroke-linejoin="miter"/><path d="M263.83302,154.64067l10.774,16.31871l-3.60053,4.97899l-30.46337,-4.54459z" fill="#9c6041" fill-rule="nonzero" stroke="#001026" stroke-width="1.2" stroke-linecap="round" stroke-linejoin="miter"/><path d="M196.73879,162.61354c0,0 -7.55888,0.21928 -8.93011,-3.79909" fill="none" fill-rule="evenodd" stroke="#001026" stroke-width="1.2" stroke-linecap="round" stroke-linejoin="round"/><path d="M196.19156,168.42013c0,0 -3.51702,2.78024 -8.34835,1.43935" fill="none" fill-rule="evenodd" stroke="#001026" stroke-width="1.2" stroke-linecap="round" stroke-linejoin="round"/><path d="M227.6674,137.28963c11.50196,-1.18037 40.87249,9.60315 31.07561,35.4653c-0.12772,0.33717 -0.33413,0.64136 -0.53862,0.94452c-7.4677,11.07135 -22.88911,15.74523 -41.84748,11.65787c-18.95837,-4.08735 -23.15644,-14.83646 -21.80351,-20.42714c1.35293,-5.59068 8.59688,-7.49457 8.59688,-7.49457c0,0 0.20958,-4.43354 3.58401,-9.78026c0,0 4.12843,-8.64116 20.9331,-10.36573z" fill="#ff7e19" fill-rule="evenodd" stroke="#001026" stroke-width="1.2" stroke-linecap="butt" stroke-linejoin="miter"/><path d="M220.04387,163.05337c8.4961,0.78809 20.36637,-7.91306 26.89711,2.79131c6.53315,10.6058 -5.46464,24.53141 -29.8628,19.03618c-18.75815,-3.98409 -23.37351,-14.2497 -22.02058,-19.84038c1.35293,-5.59068 8.38703,-7.20351 8.38703,-7.20351c8.65757,-1.67397 9.31653,4.555 16.59924,5.21642z" fill="#ffffff" fill-rule="evenodd" stroke="none" stroke-width="1" stroke-linecap="butt" stroke-linejoin="miter"/><path d="M225.14091,161.88892c-0.03849,1.57721 -4.35391,3.94328 -6.17279,3.70398c-1.61865,-0.13603 -3.07102,-2.93123 -2.93603,-4.30895c0.11816,-0.68768 2.35193,-0.83333 4.47955,-0.78417c2.02631,0.04682 4.75944,0.20859 4.62925,1.38915z" fill="#001026" fill-rule="evenodd" stroke="#001026" stroke-width="1.2" stroke-linecap="round" stroke-linejoin="round"/><path d="M258.3565,163.66936c-5.73202,3.24251 -13.17124,5.5965 -13.17124,5.5965" fill="none" fill-rule="evenodd" stroke="#001026" stroke-width="1.2" stroke-linecap="round" stroke-linejoin="round"/><path d="M258.85679,174.51036c-6.42926,1.10371 -12.19662,0.40708 -12.19662,0.40708" fill="none" fill-rule="evenodd" stroke="#001026" stroke-width="1.2" stroke-linecap="round" stroke-linejoin="round"/><path d="M251.48227,151.27085l-43.77232,-6.07867l4.30109,-22.08942l48.21621,7.6601l10.32584,19.84704l-9.26137,14.40573z" fill="#c46a00" fill-rule="nonzero" stroke="#001026" stroke-width="1.2" stroke-linecap="round" stroke-linejoin="miter"/><path d="M251.51829,151.07681l8.47355,-20.15485" fill="none" fill-rule="nonzero" stroke="#001026" stroke-width="0.75" stroke-linecap="round" stroke-linejoin="miter"/><path d="M264.73625,139.77008l-4.18198,-8.54905c0,0 20.44514,2.63092 21.43424,3.13735c1.10843,0.56753 -20.02266,20.35539 -20.02266,20.35539z" fill="#ff7e19" fill-rule="nonzero" stroke="#001026" stroke-width="1.2" stroke-linecap="round" stroke-linejoin="miter"/></g><g stroke-linecap="butt" stroke-linejoin="miter"><g fill="#001026" fill-rule="evenodd" stroke="#000000" stroke-width="0.5"><path d="M207.05215,153.30657c0.02647,-1.08433 0.85865,-1.95278 1.87181,-1.92936c1.01316,0.02341 1.80203,0.92931 1.77556,2.01364c-0.02647,1.08433 -0.85864,1.95278 -1.87179,1.92936c-1.01316,-0.02341 -1.80204,-0.92931 -1.77557,-2.01363"/></g><g fill="#001026" fill-rule="evenodd" stroke="#000000" stroke-width="0.5"><path d="M235.00432,159.94892c0.02647,-1.08433 0.85624,-1.8542 1.8718,-1.92937c1.01316,0.02341 1.80203,0.92931 1.77557,2.01364c-0.02647,1.08433 -0.85865,1.95278 -1.8718,1.92937c-1.01316,-0.02341 -1.80203,-0.92932 -1.77556,-2.01365"/></g><g fill="none" fill-rule="nonzero" stroke="none" stroke-width="1" font-family="sans-serif" font-weight="normal" font-size="12" text-anchor="start"/></g></g><path d="M231.60342,193.68706c0.03829,1.43653 0.73914,3.03336 0.37791,4.37323c-0.05509,0.20433 -0.13489,0.40271 -0.2455,0.59361c-1.31527,2.27004 -7.52313,6.00466 -8.9597,6.50366c-3.10312,1.07787 -7.35646,-1.16005 -7.50338,-4.59806c-0.15915,-3.7242 5.27873,-5.82038 7.55711,-7.23151c1.08224,-0.6703 3.02735,-2.74306 4.37551,-2.01524z" fill="#ff7e19" fill-rule="nonzero" stroke="#000000" stroke-width="1.2" stroke-linecap="butt" stroke-linejoin="miter"/><g fill-rule="nonzero" stroke="#000000" stroke-width="1.2" stroke-linejoin="miter"><path d="M234.32201,194.32134c-3.6216,-3.06132 -4.00679,-8.39951 -0.86034,-11.92313c3.14644,-3.52362 8.63304,-3.89839 12.25464,-0.83706c3.6216,3.06132 4.00679,8.39951 0.86033,11.92313c-3.14644,3.52362 -8.63303,3.89839 -12.25464,0.83706z" fill="#5c5e5f" stroke-linecap="butt"/><g stroke-linecap="round"><path d="M238.59833,197.26438l-0.0321,4.67513l-2.13701,1.10453l-2.96251,3.31765l-3.22712,-2.05613z" fill="#ff7e19"/><path d="M238.82392,191.8571l0.82362,6.29414l-3.39039,2.50814l-0.89433,1.25928l-3.1625,2.25293l-0.42136,0.98733l-3.21412,1.53754l-5.3083,-3.59143l-2.40812,-6.06608l10.06791,-8.95521z" fill="#ff7e19"/><path d="M235.17354,199.29557l0.0214,-3.11675" fill="none"/><path d="M231.08649,198.97565l0.40646,3.92626" fill="none"/></g><path d="M227.60588,203.6467l-3.14529,2.49139l-3.56896,-1.67333l-0.7655,-3.7819l2.57559,-1.85339l4.02473,1.16291z" fill="#5c5e5f" stroke-linecap="round"/></g><g fill-rule="nonzero" stroke-linejoin="miter"><path d="M253.2489,178.74662c0,0 -1.91324,-8.11113 1.50429,-8.43413c5.96851,-0.5641 4.50947,8.0226 4.50947,8.0226l2.80023,0.3538c0,0 -0.32953,-8.04917 4.53318,-7.08605c5.4393,1.07733 1.82926,7.95427 1.82926,7.95427l1.47835,2.0146c0,0 6.11132,-1.07156 6.16641,3.40497c0.05737,4.66145 -6.38301,4.63836 -6.38301,4.63836c0,0 -4.26193,11.2964 -17.28347,1.67286c0,0 -6.41926,0.89376 -6.64614,-4.6834c-0.2112,-5.19178 6.21358,-3.08939 6.21358,-3.08939z" fill="#ff7e19" stroke="#000000" stroke-width="1.2" stroke-linecap="round"/><path d="M257.80884,174.6969c0.21443,1.92193 -0.62669,3.58715 -1.87867,3.71938c-1.252,0.13223 -2.44076,-1.31861 -2.65519,-3.24054c-0.21443,-1.92193 0.62669,-3.58715 1.87867,-3.71938c1.252,-0.13223 2.44076,1.31861 2.65519,3.24054z" fill="#ffffff" stroke="none" stroke-width="0" stroke-linecap="butt"/><path d="M267.80304,176.53123c-0.23673,1.8373 -1.50821,3.18877 -2.83994,3.01858c-1.33173,-0.17018 -2.21939,-1.79757 -1.98265,-3.63487c0.23673,-1.8373 1.5082,-3.18877 2.83993,-3.01858c1.33173,0.17018 2.21939,1.79757 1.98266,3.63487z" fill="#ffffff" stroke="none" stroke-width="0" stroke-linecap="butt"/><path d="M271.91641,187.27507c-1.64183,0.76756 -3.50329,0.36669 -4.15769,-0.89536c-0.6544,-1.26206 0.14608,-2.90737 1.78791,-3.67493c1.64183,-0.76756 3.50329,-0.36669 4.15768,0.89535c0.6544,1.26206 -0.14608,2.90738 -1.78791,3.67493z" fill="#ffffff" stroke="none" stroke-width="0" stroke-linecap="butt"/><path d="M250.47159,186.77133c-1.79612,-0.07427 -3.39865,-0.81371 -3.57935,-1.65159c-0.18069,-0.83788 1.12887,-1.4569 2.92499,-1.38264c1.79612,0.07427 3.39865,0.81371 3.57935,1.65159c0.18069,0.83788 -1.12887,1.4569 -2.92499,1.38264z" fill="#ffffff" stroke="none" stroke-width="0" stroke-linecap="butt"/><path d="M266.79297,188.21697c-0.86815,3.22241 -3.65859,3.2433 -6.94925,2.70659c-3.29065,-0.53671 -5.83541,-1.42779 -4.96726,-4.65021c0.43557,-1.61679 2.48954,-0.95546 3.85905,-1.83524c1.36006,-0.87371 2.03149,-3.29507 3.67113,-3.02764c1.79761,0.29319 1.18586,3.12586 1.94621,4.53676c0.63151,1.17185 2.83402,0.80766 2.44013,2.26974z" fill="#ffffff" stroke="none" stroke-width="0" stroke-linecap="butt"/></g><path d="M212.03886,180.47295c0,0 -1.48834,-8.35677 5.22827,-8.61666c6.71661,-0.25989 15.97787,7.79613 15.97787,7.79613c0,0 -1.32721,2.58762 -13.89519,2.9585c-7.21404,0.21288 -7.31095,-2.13796 -7.31095,-2.13796z" fill="none" fill-rule="nonzero" stroke="#001026" stroke-width="1.2" stroke-linecap="round" stroke-linejoin="miter"/></g></g></svg>