<svg version="1.1" xmlns="http://www.w3.org/2000/svg" xmlns:xlink="http://www.w3.org/1999/xlink" width="89.24164" height="123.11205" viewBox="0,0,89.24164,123.11205"><g transform="translate(-189.02164,-114.82999)"><g stroke-miterlimit="10"><g fill-rule="evenodd"><path d="M244.58671,201.5884c2.34226,-0.72372 5.15408,-1.79318 7.33631,-4.20935c5.01427,-5.39602 5.94417,-13.62009 9.925,-11.88715c4.08038,1.72351 5.21409,14.77475 -6.55517,19.90553c-4.04955,1.78919 -7.83267,2.14692 -10.92831,2.33921c-0.79645,0.07531 -7.7317,0.02801 -10.44113,-3.13095c-2.70944,-3.15895 -1.10169,-4.21501 -0.3429,-4.68855c0.84893,-0.5825 7.67781,2.5887 11.00621,1.67128z" fill="#ffab19" stroke="#001026" stroke-width="1.2" stroke-linecap="round" stroke-linejoin="round"/><path d="M261.2695,185.74749c2.0476,0.40906 3.43856,4.49625 2.77249,8.07486c-0.66607,3.5786 -2.0895,5.52123 -3.26134,6.93784c0.13322,-0.71571 0.32432,-2.9436 -1.49051,-4.0778c-2.25071,-1.49474 -5.84955,-0.25043 -5.84955,-0.25043c0,0 2.7285,-4.07496 4.0672,-6.91359c1.37637,-2.44041 1.73294,-3.98083 3.7617,-3.77089z" fill="#ffffff" stroke="none" stroke-width="1" stroke-linecap="butt" stroke-linejoin="miter"/></g><path d="M217.19862,175.70208c2.75709,-0.15444 5.11737,1.95545 5.2718,4.71256c0.03509,0.62625 -0.04666,1.23202 -0.22628,1.79613c0.40064,1.86555 -3.41651,3.5219 -4.4786,4.59462c-3.9937,4.03362 -7.41327,5.36823 -13.87228,5.26642c-2.63948,-0.0416 -5.07763,-1.24599 -5.2718,-4.71255c-0.36857,-6.58016 7.14076,-4.90273 10.61103,-6.39138c1.85973,-0.79778 6.34471,-6.51969 7.96613,-5.26579z" fill="#ffab19" fill-rule="nonzero" stroke="#000000" stroke-width="1.2" stroke-linecap="butt" stroke-linejoin="miter"/><path d="M247.75836,194.06705c4.29966,2.57683 5.91067,-0.055 10.1396,4.68308c1.11491,1.24914 -0.68741,4.44753 -1.58778,4.82942c-3.3738,1.43095 -7.28837,1.0645 -10.7955,-0.50116c-4.76792,-2.12851 -8.0988,-6.10416 -10.42399,-10.75007c-0.1233,-0.24636 -0.25188,-0.59553 -0.36354,-1.00127c-0.0509,-0.1459 -0.09524,-0.29528 -0.13259,-0.44785c-0.07539,-0.30803 -0.11875,-0.61471 -0.13223,-0.91663c-0.16606,-1.44576 0.03669,-2.98091 1.24195,-3.28513c0.5877,-0.59597 1.3579,-1.02472 2.25534,-1.19758c2.47181,-0.4761 4.97283,1.16936 5.58617,3.67523c0.09063,0.37028 0.13497,0.73862 0.13675,1.09905c1.12903,1.35975 1.90838,2.51393 4.07582,3.81291z" fill="#ffab19" fill-rule="nonzero" stroke="#000000" stroke-width="1.2" stroke-linecap="butt" stroke-linejoin="miter"/><g fill-rule="nonzero" stroke-linecap="round" stroke-linejoin="miter"><g><g><path d="M217.53348,227.29246l1.95787,-22.49542c0,0 -0.28984,-4.45315 -0.25152,-11.5098c0.0186,-3.42855 -1.33641,-9.83464 0.24052,-12.11038c2.43184,-3.50951 9.62941,-3.09312 9.62941,-3.09312c0,0 8.17407,0.99244 10.77096,6.27953c2.06627,4.20678 1.1404,7.88379 1.57058,12.29762c0.41045,4.21124 2.22314,9.26093 2.22314,9.26093c0,0 0.74922,0.74258 1.02094,1.0119c0.18057,0.17897 0.45084,0.44685 0.45084,0.44685l14.37423,-1.03561l2.89206,4.51049l-5.22592,16.04249l-12.51809,0.52201l-2.54323,-3.96319c0,0 -11.58494,-19.87453 -11.51334,-14.66741c0.03196,2.32346 1.30872,18.51388 1.30872,18.51388l1.64038,8.42848l-17.49291,1.60484l-3.80269,-0.76474c0,0 -4.20884,-4.0619 -2.58796,-6.91698c1.62088,-2.85507 7.85601,-2.36239 7.85601,-2.36239z" fill="#ffab19" stroke="#001026" stroke-width="1.2"/><path d="M232.86863,208.2369c0,0 -3.26597,-0.13731 -4.9386,-1.51935" fill="none" stroke="#001026" stroke-width="1.2"/><path d="M230.52613,200.94077c-4.20993,-0.65398 -4.99951,-4.90464 -5.57976,-8.97955c-0.65087,-4.57068 -1.03176,-9.42706 3.67727,-8.82045c5.16598,0.66547 6.46913,5.43964 7.10419,10.44496c0,0 0.86518,8.29748 -5.20171,7.35504z" fill="#ffffff" stroke="#000000" stroke-width="0"/></g></g><path d="M244.82348,207.10385l-1.89589,3.90978" fill="none" stroke="#001026" stroke-width="1.2"/></g><g><g><path d="M238.38327,129.47706c0,0 27.10008,-5.42345 28.52282,-5.13548c1.05607,0.21374 -7.79783,26.34462 -7.79783,26.34462" fill="#ffab19" fill-rule="nonzero" stroke="#001026" stroke-width="1.2" stroke-linecap="round" stroke-linejoin="miter"/><path d="M221.36517,166.20353l-29.93039,-5.3826l-1.72431,-5.92846l15.42131,-12.21078z" fill="#9b7f41" fill-rule="nonzero" stroke="#001026" stroke-width="1.2" stroke-linecap="round" stroke-linejoin="miter"/><path d="M277.66328,171.65929c-5.62716,2.20571 -12.52211,0.12975 -12.52211,0.12975" fill="none" fill-rule="evenodd" stroke="#001026" stroke-width="1.2" stroke-linecap="round" stroke-linejoin="round"/><path d="M273.04625,181.94585c-6.1575,-1.42317 -9.30294,-4.41083 -9.30294,-4.41083" fill="none" fill-rule="evenodd" stroke="#001026" stroke-width="1.2" stroke-linecap="round" stroke-linejoin="round"/><path d="M244.59464,137.60118c15.11971,7.02905 16.13301,16.6399 16.13301,16.6399c1.39239,6.20897 0.13067,10.5296 0.13067,10.5296c0,0 6.13615,4.14338 5.56134,9.9399c-0.57481,5.79651 -8.02693,14.7668 -27.06747,12.62505c-19.04056,-2.14175 -31.89956,-11.55801 -35.23112,-24.56843c-0.09123,-0.35626 -0.1839,-0.71411 -0.1923,-1.07845c-0.64386,-27.94592 30.31719,-28.89861 40.66588,-24.08757z" fill="#ffab19" fill-rule="evenodd" stroke="#001026" stroke-width="1.2" stroke-linecap="butt" stroke-linejoin="miter"/><path d="M243.2421,164.75761c7.01559,1.69457 9.67824,-4.07089 17.20953,0.30402c0,0 6.03594,3.79702 5.46113,9.59354c-0.57481,5.79651 -8.25752,14.16946 -27.07723,11.99267c-24.5812,-2.53076 -31.20321,-19.7284 -21.6185,-27.81441c9.61488,-8.18133 17.83519,3.96307 26.02507,5.92418z" fill="#ffffff" fill-rule="evenodd" stroke="none" stroke-width="1" stroke-linecap="butt" stroke-linejoin="miter"/><path d="M238.86695,162.01028c0.26654,-1.17429 2.87099,-0.4554 4.77788,0.14774c2.00223,0.6333 4.03949,1.48744 3.92374,2.18499c-0.32686,1.36499 -2.60141,3.58227 -4.15708,3.1951c-1.7765,-0.35213 -5.02706,-4.00235 -4.54454,-5.52784z" fill="#001026" fill-rule="evenodd" stroke="#001026" stroke-width="1.2" stroke-linecap="round" stroke-linejoin="round"/><path d="M217.73135,162.67731c0,0 -6.23115,-3.60869 -8.47209,-9.22191" fill="none" fill-rule="evenodd" stroke="#001026" stroke-width="1.2" stroke-linecap="round" stroke-linejoin="round"/><path d="M214.49684,167.62783c0,0 -4.33097,-0.25021 -9.5815,-3.76762" fill="none" fill-rule="evenodd" stroke="#001026" stroke-width="1.2" stroke-linecap="round" stroke-linejoin="round"/><path d="M204.09362,153.44838l-3.90985,-16.78311l16.16279,-15.73927l47.52615,8.0712l-3.24612,22.56862l-42.8581,-8.16722z" fill="#c58600" fill-rule="nonzero" stroke="#001026" stroke-width="1.2" stroke-linecap="round" stroke-linejoin="miter"/><path d="M217.79864,143.20092l-1.28464,-22.04698" fill="none" fill-rule="nonzero" stroke="#001026" stroke-width="0.75" stroke-linecap="round" stroke-linejoin="miter"/><path d="M206.8507,143.34897c0,0 -7.87952,-27.7361 -6.65829,-27.92611c1.08976,-0.16955 15.69829,5.83813 15.69829,5.83813l-6.71391,6.86466z" fill="#ffab19" fill-rule="nonzero" stroke="#001026" stroke-width="1.2" stroke-linecap="round" stroke-linejoin="miter"/></g><g><g fill-rule="evenodd"><path d="M249.95553,146.84838c3.24263,-0.96714 7.06035,2.54781 8.46828,7.71286c1.40793,5.16506 -0.03473,10.05778 -3.24719,10.92959c-3.21247,0.87181 -6.96502,-2.51765 -8.46828,-7.71287c-1.40793,-5.16505 0.03474,-10.05776 3.24721,-10.92956z" fill="#ffffff" stroke="#001026" stroke-width="1.2" stroke-linecap="round" stroke-linejoin="round"/><path d="M250.01497,157.51675c-0.33171,1.04878 -1.36588,1.66563 -2.31933,1.36405c-0.95344,-0.30157 -1.44478,-1.40091 -1.11306,-2.4497c0.33171,-1.04878 1.36589,-1.66563 2.31934,-1.36406c0.95345,0.30156 1.44477,1.40092 1.11306,2.44971" fill="#001026" stroke="none" stroke-width="1" stroke-linecap="butt" stroke-linejoin="miter"/></g><g fill-rule="evenodd"><path d="M222.45005,155.55742c-0.85696,-2.69914 -0.83999,-5.4993 -0.10433,-7.71633c4.35955,2.59139 8.70217,5.218 13.10421,7.73633c-0.09285,2.08594 -0.71828,3.94678 -1.70615,5.2397c-3.64661,-1.37381 -7.29223,-2.75172 -10.92215,-4.18005c-0.13525,-0.34656 -0.2594,-0.70658 -0.37158,-1.07964z" fill="#ffffff" stroke="#001026" stroke-width="1.2" stroke-linecap="round" stroke-linejoin="round"/><path d="M226.40757,154.19213c-0.33171,1.04878 -1.36589,1.66564 -2.31933,1.36406c-0.95344,-0.30157 -1.44477,-1.40092 -1.11305,-2.44971c0.33173,-1.04878 1.36589,-1.66565 2.31934,-1.36407c0.92328,0.39692 1.44477,1.40093 1.11305,2.44972" fill="#001026" stroke="none" stroke-width="1" stroke-linecap="butt" stroke-linejoin="miter"/></g><g fill="#ffffff" fill-rule="nonzero" stroke="#001026" stroke-width="1.2" stroke-linecap="round" stroke-linejoin="miter"><path d="M222.69674,181.65708c-7.46013,-4.44007 2.65516,-16.90394 3.69338,-16.92912c0.5626,-0.01363 0.70964,2.12096 12.67246,8.93633c5.28411,3.01042 12.32331,2.79788 12.0934,2.94788c0,0 -21.28483,9.31493 -28.45926,5.0449z"/></g></g></g><g fill-rule="nonzero" stroke="#000000" stroke-width="1.2" stroke-linejoin="miter"><path d="M218.20038,186.46977c-1.44974,-4.50641 1.02819,-9.33483 5.53459,-10.78457c4.50641,-1.44974 9.33483,1.0282 10.78457,5.5346c1.44974,4.50641 -1.02819,9.33483 -5.5346,10.78456c-4.50641,1.44974 -9.33483,-1.02819 -10.78457,-5.5346z" fill="#5c5e5f" stroke-linecap="butt"/><g stroke-linecap="round"><path d="M220.26493,191.20804l-2.48203,4.03994l-2.38399,-0.13346l-4.24298,1.36499l-1.64456,-3.43272z" fill="#ffab19"/><path d="M223.29474,186.6317l-2.60979,5.88186l-4.1791,0.44403l-1.41622,0.63569l-3.85272,0.33903l-0.87415,0.64138l-3.52064,-0.30805l-2.59525,-5.82809l1.15246,-6.4935l13.20145,-2.62626z" fill="#ffab19"/><path d="M217.96191,188.52737l-1.65468,2.6933" fill="none"/><path d="M213.02505,188.85502l-1.71857,3.61425" fill="none"/></g><path d="M207.63403,191.12959l-3.9634,0.55472l-2.13414,-3.27522l1.33969,-3.67245l3.14746,-0.29221l2.78691,3.06521z" fill="#5c5e5f" stroke-linecap="round"/></g><g fill-rule="nonzero" stroke-linejoin="miter"><path d="M263.14998,205.31778c0,0 -9.57473,5.41109 -14.00151,-3.99339c-4.70814,-10.00225 7.0972,-14.03281 7.0972,-14.03281c0,0 4.42833,-5.76918 8.73408,-1.96697c1.47891,1.30597 0.78611,4.25613 0.78611,4.25613c0,0 2.98693,0.90074 3.73604,2.47449c1.48145,3.11224 -3.54037,6.19331 -3.54037,6.19331l0.5099,1.82629c0,0 7.14996,0.12541 5.12564,4.65874c-2.40428,5.38424 -8.44707,0.58422 -8.44707,0.58422z" fill="#ffab19" stroke="#000000" stroke-width="1.2" stroke-linecap="round"/><path d="M263.22697,190.55089c-1.36483,1.08531 -3.11058,1.17808 -3.89925,0.20724c-0.78866,-0.97085 -0.32157,-2.63768 1.04326,-3.72299c1.36483,-1.08531 3.11058,-1.17808 3.89925,-0.20724c0.78866,0.97085 0.32157,2.63768 -1.04326,3.72299z" fill="#ffffff" stroke="none" stroke-width="0" stroke-linecap="butt"/><path d="M266.81989,196.33135c-1.52752,0.85197 -3.28164,0.6729 -3.91796,-0.39998c-0.63632,-1.07288 0.08615,-2.6333 1.61366,-3.48528c1.52752,-0.85197 3.28164,-0.6729 3.91796,0.39998c0.63632,1.07288 -0.08615,2.6333 -1.61366,3.48528z" fill="#ffffff" stroke="none" stroke-width="0" stroke-linecap="butt"/><path d="M270.4539,204.49171c-0.17725,1.12593 -1.5666,1.77513 -3.10323,1.45001c-1.53663,-0.32511 -2.63864,-1.50141 -2.4614,-2.62734c0.17725,-1.12593 1.5666,-1.77513 3.10323,-1.45001c1.53663,0.32511 2.63864,1.50141 2.4614,2.62734z" fill="#ffffff" stroke="none" stroke-width="0" stroke-linecap="butt"/><path d="M259.96091,205.16015c-2.56986,1.55704 -4.54513,-0.45579 -6.22345,-3.55677c-1.67832,-3.10097 -2.42417,-6.11582 0.14568,-7.67286c1.58312,-0.9592 2.40703,1.35108 4.03644,2.2994c1.01557,0.59106 3.01117,-0.69452 3.65558,0.49613c0.74169,1.37039 -1.48746,2.71733 -1.63578,4.10162c-0.18732,1.74815 1.45572,3.46353 0.02154,4.33247z" fill="#ffffff" stroke="none" stroke-width="0" stroke-linecap="butt"/><path d="M254.12788,191.45318c0,0 4.95046,1.28517 3.46401,5.3295c-1.70506,4.63916 -6.72842,1.89031 -6.72842,1.89031" fill="#ffab19" stroke="#000000" stroke-width="1.2" stroke-linecap="round"/></g></g></g></svg>