<svg version="1.1" xmlns="http://www.w3.org/2000/svg" xmlns:xlink="http://www.w3.org/1999/xlink" width="120.81936" height="120.73118" viewBox="0,0,120.81936,120.73118"><g transform="translate(-187.47828,-120.43829)"><g stroke-miterlimit="10"><path d="M263.34984,214.68388c1.07369,-0.85895 1.93265,0.21474 1.93265,0.21474c0.71785,0.89731 1.4787,2.27623 2.53794,2.83294c3.31364,1.74158 7.40151,1.88979 9.2348,5.8745c0.24097,0.52375 0.23262,1.12962 0.32803,1.69819c0.09457,0.56358 0.32175,1.13141 0.24177,1.69724c-0.60734,4.29653 -5.08848,2.61496 -7.11527,5.29686c-0.97267,1.2014 -1.4751,2.86752 -2.70926,3.84669c-2.98635,2.36934 -8.88765,1.18221 -9.05761,-3.11474c-0.0312,-0.78881 0.52307,-2.8978 0.92894,-3.51372c0.53545,-0.81255 1.86568,-1.3078 1.58635,-2.64546c-0.8653,-4.14364 -3.36836,-6.79342 -0.18654,-10.8192c0.53772,-0.28079 1.07544,-0.56157 1.61315,-0.84236l0.22595,0.01498c0.08193,-0.18187 0.22044,-0.36571 0.43911,-0.54065z" fill="#9a8479" stroke="#000000" stroke-width="1.2" stroke-linecap="butt"/><path d="M255.57121,212.35404c11.05049,1.63668 13.17057,11.93243 11.5361,20.01691c-0.77565,1.37986 -1.11901,2.71915 -2.38079,3.85239c-6.77549,6.08524 -20.00759,5.58702 -26.80834,-0.28631c-2.5947,-3.39578 -4.9543,-8.71568 -3.42608,-12.84455c2.07627,-5.60953 7.80755,-9.59776 14.37601,-10.55219c2.02728,0 3.73145,-0.03871 5.47724,0.13421c0.47759,-0.42939 1.22585,-0.32047 1.22585,-0.32047z" fill="#9a8479" stroke="#000000" stroke-width="1.2" stroke-linecap="butt"/><path d="M206.41809,173.26047c0.2554,0.25356 0.50597,0.51042 0.75156,0.77019c0.35208,7.14535 1.3311,14.41616 2.64912,21.59925c-2.78949,-0.09984 -6.41699,-1.98114 -10.07236,-5.6102c-6.4349,-6.3886 -13.20284,-17.57485 -11.3605,-22.20279c1.84233,-4.62794 11.59728,-0.94506 18.03219,5.44355z" fill="#9a8479" stroke="#000000" stroke-width="1.2" stroke-linecap="butt"/><path d="M208.67818,166.41135l0.3143,5.5236" fill="none" stroke="#000000" stroke-width="1.2" stroke-linecap="round"/><path d="M211.38228,191.70795l0.9072,5.28391" fill="none" stroke="#000000" stroke-width="1.2" stroke-linecap="round"/><path d="M207.46941,178.9505c0.26734,5.35446 1.17202,10.95553 2.14265,16.22195c-2.03099,0.26112 -4.67485,-0.72219 -7.34168,-3.02224c-4.69468,-4.04901 -12.58112,-13.46017 -11.24697,-17.17794c1.24692,-3.4747 16.44599,3.97823 16.44599,3.97823z" fill="#ee4036" stroke="#000000" stroke-width="1.2" stroke-linecap="butt"/><path d="M199.16039,177.94676c-0.52622,-23.01144 19.69804,-42.1128 45.17214,-42.66409c25.4741,-0.5513 46.55155,17.65625 47.07776,40.66769c0.52622,23.01144 -19.69804,42.1128 -45.17215,42.6641c-25.47411,0.55129 -46.55154,-17.65625 -47.07776,-40.66769z" fill="#9a8479" stroke="#000000" stroke-width="1.2" stroke-linecap="butt"/><path d="M215.23897,145.42168c0,0 0.88213,-15.45755 1.00946,-15.50224c4.98,-1.74804 14.6935,6.31647 14.6935,6.31647c0,0 -3.01591,-15.19981 -2.84815,-15.19762c14.59248,0.19067 29.89198,14.8335 29.89198,14.8335l0.59548,-13.7241c0,0 33.02403,5.42971 32.776,51.48174" fill="#9a8479" stroke="#000000" stroke-width="1.2" stroke-linecap="round"/><path d="M240.27077,171.25513c17.67688,-0.38292 32.92929,6.27336 33.78181,18.96933c0.85252,12.69597 -12.78633,23.29849 -30.46322,23.68141c-17.67688,0.38292 -29.66114,-8.42018 -32.78122,-20.75629c-2.9679,-11.73443 11.78575,-21.51153 29.46263,-21.89445z" fill="#e6e7e8" stroke="#000000" stroke-width="1.2" stroke-linecap="butt"/><path d="M222.11357,173.18349c0,0 10.31502,-3.88322 15.65038,-4.26633c5.19278,-0.37287 15.9456,1.99753 15.9456,1.99753c0,0 2.13131,8.61063 2.0247,8.64129c-4.48465,1.28972 -9.61035,-3.59113 -9.61035,-3.59113l0.73363,7.97062c0,0 -19.21948,-1.47566 -24.74395,-10.752z" fill="#9a8479" stroke="#000000" stroke-width="0" stroke-linecap="round"/><path d="M253.70956,170.91469c0,0 2.13131,8.61063 2.0247,8.64128c-4.48465,1.28972 -9.61036,-3.59114 -9.61036,-3.59114l0.73364,7.97062c0,0 -19.21948,-1.47565 -24.74395,-10.75199" fill="none" stroke="#000000" stroke-width="1.2" stroke-linecap="round"/><path d="M286.19834,171.23321c7.28553,-5.41684 18.62943,-7.60538 21.03745,-2.67641c2.40803,4.92897 -5.0317,15.10896 -12.31723,20.52579c-4.13857,3.07704 -8.33141,4.40446 -11.62282,4.07362c1.19915,-7.00481 1.99334,-14.15003 2.05291,-21.26622c0.27725,-0.22274 0.56052,-0.44178 0.84969,-0.65678z" fill="#9a8479" stroke="#000000" stroke-width="1.2" stroke-linecap="butt"/><path d="M285.39158,172.29868l0.09583,-5.49455" fill="none" stroke="#000000" stroke-width="1.2" stroke-linecap="round"/><path d="M282.61397,196.93466l0.80845,-5.16239" fill="none" stroke="#000000" stroke-width="1.2" stroke-linecap="round"/><path d="M304.47599,175.32988c1.76208,3.93707 -7.08798,12.16285 -12.43378,15.50073c-3.0367,1.89609 -6.11193,2.47435 -8.52503,1.89846c0.88426,-5.13504 1.6739,-10.61612 1.72269,-15.94818c0,0 17.58925,-5.13067 19.23612,-1.45101z" fill="#ee4036" stroke="#000000" stroke-width="1.2" stroke-linecap="butt"/><path d="M233.35113,208.64454c0,0 -3.01973,-5.88271 15.83186,-1.76729" fill="none" stroke="#000000" stroke-width="1.2" stroke-linecap="round"/><path d="M260.89074,198.37909l-1.19757,-0.18668c-3.08152,-0.1535 -6.19769,-0.1146 -9.26853,0.20685c0,0 -1.48072,0.15422 -1.63494,-1.3265c-0.15422,-1.48072 1.3265,-1.63494 1.3265,-1.63494c3.22414,-0.3342 6.48713,-0.37487 9.72243,-0.21932l1.49276,0.21591c0,0 1.47234,0.22032 1.25201,1.69266c-0.22032,1.47234 -1.69266,1.25201 -1.69266,1.25201z" fill="#000000" stroke="none" stroke-width="0.5" stroke-linecap="butt"/><path d="M223.29038,197.914c0,0 -1.38828,0.11581 -1.59602,-1.37217c-0.20775,-1.48798 1.18053,-1.60378 1.18053,-1.60378l1.40753,-0.10994c3.05058,0.07412 6.12727,0.34642 9.16733,0.90949c0,0 1.39618,0.25933 1.25076,1.7291c-0.14541,1.46977 -1.54159,1.21044 -1.54159,1.21044c-2.89551,-0.53944 -5.83376,-0.79955 -8.73935,-0.8648l-1.1292,0.10167z" fill="#000000" stroke="none" stroke-width="0.5" stroke-linecap="butt"/><path d="M278.04496,193.94079l-33.68421,0.52632l-1.44737,-1.84211l2.10526,-0.92105l-0.52632,-1.05263" fill="none" stroke="#000000" stroke-width="1.2" stroke-linecap="round"/><path d="M242.93155,219.59399c0.46866,1.81579 0.19638,3.16129 -1.84908,4.93967c-3.16014,2.74751 -6.17836,2.21435 -10.36183,2.03029c-1.67592,-0.07374 -1.69885,0.76112 -3.61039,0.24926c-2.77783,-0.74382 -4.42315,-3.81179 -2.75534,-6.51246c1.23624,-2.00184 2.28084,-1.52694 4.07206,-1.92834c0.50858,-0.11397 5.9135,-0.92101 5.9135,-0.92101c0,0 -1.77869,-2.31509 -0.21401,-3.33828c1.42005,-0.92861 4.74992,2.67508 5.67693,2.47203c4.69801,-1.02902 8.23323,-3.18346 8.62605,-0.87335c0.45825,2.69491 -5.4979,3.88219 -5.4979,3.88219z" fill="#9a8479" stroke="#000000" stroke-width="1.2" stroke-linecap="butt"/></g></g></svg>