<svg version="1.1" xmlns="http://www.w3.org/2000/svg" xmlns:xlink="http://www.w3.org/1999/xlink" width="94.0951" height="94.0951" viewBox="0,0,94.0951,94.0951"><defs><radialGradient cx="239.99999" cy="180" r="47.04755" gradientUnits="userSpaceOnUse" id="color-1"><stop offset="0" stop-color="#ff6666"/><stop offset="1" stop-color="#ff6666" stop-opacity="0"/></radialGradient><radialGradient cx="239.99999" cy="180" r="32.17303" gradientUnits="userSpaceOnUse" id="color-2"><stop offset="0" stop-color="#ffb4b4"/><stop offset="1" stop-color="#ffb4b4" stop-opacity="0"/></radialGradient></defs><g transform="translate(-192.95245,-132.95245)"><g stroke-width="0" stroke-miterlimit="10"><path d="M279.97811,183.2559l-37.73636,38.11l-6.61854,-0.2135l-16.4396,-13.34384l-1.65463,-7.36579l5.97804,-3.41602l-16.4396,3.41602l-8.11305,-4.91053v-31.5982l8.11305,-4.91053l16.43961,3.41602l-5.97804,-3.41602l1.65463,-7.3658l16.4396,-13.34383l6.61854,-0.2135l37.73636,38.3235z" fill="#000000" stroke="#000000" stroke-linecap="round"/><path d="M192.95245,180c0,-25.98364 21.06391,-47.04755 47.04755,-47.04755c25.98364,0 47.04755,21.06391 47.04755,47.04755c0,25.98364 -21.06391,47.04755 -47.04755,47.04755c-25.98364,0 -47.04755,-21.06391 -47.04755,-47.04755z" fill="url(#color-1)" stroke="none" stroke-linecap="butt"/><path d="M278.16336,182.53533l-37.09586,36.82898l-4.80378,-0.26688l-15.21197,-12.81008l-1.06751,-4.27003l8.54006,-6.93879l-20.28263,3.46939l-6.67192,-4.00314v-29.35644l6.67192,-4.00315l20.28263,3.4694l-8.54006,-6.93879l1.06751,-4.27003l15.21197,-12.81009l4.80378,-0.26688l37.09586,36.82898z" fill="#ffcdcd" stroke="#ffffff" stroke-linecap="round"/><path d="M207.82696,180c0,-17.76867 14.40436,-32.17303 32.17303,-32.17303c17.76867,0 32.17303,14.40436 32.17303,32.17303c0,17.76867 -14.40436,32.17303 -32.17303,32.17303c-17.76867,0 -32.17303,-14.40436 -32.17303,-32.17303z" fill="url(#color-2)" stroke="none" stroke-linecap="butt"/><path d="M275.80678,181.26439l-35.90522,36.11959l-2.30132,0.02397l-13.98748,-12.33268l-0.24675,-3.42102l14.59784,-10.19912l-29.31723,4.46762l-4.13316,-2.74818v-26.6348l4.13317,-2.74819l29.31722,4.46764l-14.59781,-10.19912l0.24674,-3.15414l13.98748,-12.84764l2.30132,0.02398l35.9052,36.36767z" fill="#ff5252" stroke="#ffffff" stroke-linecap="round"/></g></g></svg>