<svg version="1.1" xmlns="http://www.w3.org/2000/svg" xmlns:xlink="http://www.w3.org/1999/xlink" width="112.15742" height="123.34966" viewBox="0,0,112.15742,123.34966"><g transform="translate(-180.20483,-115.24808)"><g stroke-miterlimit="10"><g fill="#9a8479" stroke="#000000" stroke-width="1.2" stroke-linecap="butt"><path d="M245.02454,224.95186l2.04134,10.82669c0,0 0.71854,0.34929 0.51931,1.09892c-0.19749,0.75337 -2.64311,0.71688 -5.71224,0.8829c-3.06984,0.16691 -5.57299,-0.36213 -6.06724,-1.15826c-0.49252,-0.78714 0.41565,-1.06708 0.41565,-1.06708c0,0 0.92886,-5.17305 0.03388,-7.52882c-1.19323,-3.14189 0.17847,-3.95998 3.77061,-5.46209v0v0v0v0v0v0c3.59214,-1.50211 4.99869,2.40773 4.99869,2.40773z"/><path d="M234.08862,208.73949v0v0v0v0v0v0c8.08328,-0.62376 11.34064,4.05299 11.33882,4.0521c0.70139,1.20795 1.57952,2.91231 1.97351,4.46855c0.10864,0.42988 0.18314,0.91356 0.21544,1.43237c0,0 0.01444,1.80207 -0.14252,2.35221c-0.65847,2.30475 -1.77329,4.82759 -4.60867,5.96827c-4.45134,1.79848 -9.26301,1.57773 -14.33641,-0.78533c-1.71205,-0.79518 -2.75688,-2.15035 -3.34887,-3.69306c-0.42278,-1.11025 -0.63694,-2.55784 -0.63694,-2.55784c-0.31963,-2.40793 0.02241,-4.75845 0.21267,-5.78064c0,0 1.25071,-4.83296 9.333,-5.45663z"/><path d="M236.74466,227.51079l-0.29065,8.24934c0,0 0.52555,0.03761 0.43546,0.71052c-0.08642,0.67366 -1.61457,1.46321 -6.06661,1.52709c-4.45416,0.05849 -5.37277,-0.90525 -5.41687,-1.41542c-0.04599,-0.51008 0.89396,-1.06804 0.89396,-1.06804c0,0 1.35025,-9.00102 1.75725,-10.08178"/></g><path d="M241.08209,214.23675c1.14293,0.02062 3.57814,-2.42051 4.59862,-2.03603c1.89024,-0.316 3.69662,0.86019 4.03468,2.62708c0.0114,0.05958 0.02098,0.1191 0.0288,0.17847c1.17739,1.47623 -2.11557,3.96105 -3.15842,4.53333c-2.93462,1.61041 -10.90643,2.40457 -13.77033,-0.11534c-1.13687,-1.00032 -1.02072,-1.04384 -1.04789,-2.6211c-0.09691,-5.62768 5.80277,-2.62983 9.31454,-2.56643z" fill="#9a8479" stroke="#000000" stroke-width="1.2" stroke-linecap="butt"/><path d="M230.45728,213.81483c2.92994,1.26375 8.91314,0.56947 6.76786,6.01653c-0.60126,1.52665 -0.52109,1.61289 -1.82914,2.15849c-3.29513,1.37443 -9.60195,-2.40838 -11.44,-5.08525c-0.65316,-0.95126 -2.46692,-4.61541 -0.9507,-5.60945c0.02824,-0.05489 0.05801,-0.10927 0.08932,-0.16303c0.92817,-1.59407 2.85491,-2.05833 4.3035,-1.03695c0.98573,0.01055 2.10557,3.30837 3.05914,3.71967z" fill="#9a8479" stroke="#000000" stroke-width="1.2" stroke-linecap="butt"/><g><g stroke="#000000" stroke-width="1.2"><path d="M275.76255,164.68478c0,0 14.11513,-10.16767 15.75357,-1.63595c1.63851,8.53163 -4.99748,18.60143 -17.11231,27.76335c0,0 2.41666,-14.89747 1.35876,-26.12739zM275.76255,164.68478c-0.03332,-1.31488 -0.41145,-3.82669 -0.41145,-3.82669M273.78412,193.1339l0.48788,-2.41027" fill="#9a8479" stroke-linecap="round"/><path d="M274.27214,190.72267c0.47357,-2.75935 1.13526,-7.30175 1.52596,-12.97014c0.22993,-3.29903 0.23917,-6.70011 0.16773,-9.63693l0.00078,0.00381c7.79658,-2.73295 12.96966,6.90977 12.96966,6.90977l0.00269,-0.00001c-4.97495,8.73684 -14.5723,15.45232 -14.5723,15.45232l-0.09452,0.2412v0v0v0v0z" fill="#ee4036" stroke-linecap="butt"/></g><path d="M186.55583,164.30077c1.28318,-18.61111 10.41376,-28.48525 15.8018,-33.70738c12.22963,-11.86097 30.64325,-12.21771 30.64325,-12.21771l0.5675,12.09083c0,0 -0.0106,-3.47629 7.43848,-9.50129c7.4472,-6.025 18.39078,-5.0604 18.39078,-5.0604l-5.91677,15.10507c0,0 3.45831,-4.69376 6.27744,-6.39813c4.99805,-3.01656 9.19687,-1.67573 9.19687,-1.67573l-1.50533,11.88677c0,0 14.57149,21.43881 14.66593,36.08788c0.09444,14.64908 -4.69877,40.73811 -40.27741,41.37747c-61.65679,-0.67735 -55.28255,-47.98737 -55.28255,-47.98737z" fill="#9a8479" stroke="#000000" stroke-width="1.2" stroke-linecap="butt"/><g stroke="#000000" stroke-width="1.2"><path d="M201.48092,191.67377c-14.68289,-6.08903 -22.57139,-14.23895 -20.28619,-22.72599c2.28616,-8.48788 19.40944,-1.87583 19.40944,-1.87583c-1.65094,10.93117 0.87675,24.60182 0.87675,24.60182zM201.23065,163.3361c0,0 -0.54493,2.47451 -0.62554,3.73585M201.64631,191.55902l0.52917,2.19147" fill="#9a8479" stroke-linecap="round"/><path d="M201.53713,191.35074c0,0 -11.64914,-4.30765 -17.52644,-11.54756l0.00284,-0.00094c0,0 6.68595,-10.31653 16.23265,-9.41251l0.00096,-0.00288c-0.17856,2.81313 -0.27127,6.0526 -0.08785,9.14545c0.30871,5.31713 0.98659,9.50145 1.48702,12.02674z" fill="#ee4036" stroke-linecap="butt"/></g><g><path d="M273.20985,184.24394c-0.08995,12.81821 -14.76071,23.10699 -32.76809,22.98063c-18.00737,-0.12636 -32.53231,-10.62001 -32.44236,-23.43822c0.08995,-12.81821 14.76072,-23.10699 32.76809,-22.98063c18.00737,0.12636 32.53231,10.62001 32.44236,23.43822z" fill="#e6e7e8" stroke="#000000" stroke-width="1.2" stroke-linecap="butt"/><g stroke="#000000"><path d="M266.70428,164.8745c0,0 -2.63086,4.40429 -6.0966,6.66014c-1.55113,1.00962 -5.79585,3.28047 -7.98286,3.80899c-5.66373,1.36873 -11.79287,1.05686 -11.79287,1.05686l4.8519,-6.89069c0,0 -4.28588,1.94064 -7.89025,2.94908c-4.89321,1.36903 -8.91131,-0.66432 -8.91131,-0.66432l13.35734,-12.51976" fill="#9a8479" stroke-width="0" stroke-linecap="butt"/><path d="M264.32474,168.07223c0,0 -4.53045,5.06031 -9.73292,6.88388c-5.20247,1.82357 -14.02174,1.44255 -14.02174,1.44255l5.11379,-6.88886c0,0 -3.44634,1.73249 -7.0507,2.74092c-4.89322,1.36902 -10.38091,-0.24654 -10.38091,-0.24654l12.40687,-11.43355" fill="none" stroke-width="1.2" stroke-linecap="round"/></g><g fill="none" stroke="#ee4036" stroke-width="1.2" stroke-linecap="round"><path d="M209.92257,145.90141l-3.55389,5.568l-5.53544,-2.33643"/><path d="M199.26516,151.98427l4.49578,3.13802l-1.92587,6.33505"/><path d="M215.16638,156.78828l-4.91827,-3.3642l2.34836,-6.10887"/><path d="M204.53278,162.88385l3.55485,-5.04511l5.53449,1.81353"/></g><g stroke-width="1.2"><path d="M263.47982,184.37757c-2.17403,0.63876 -6.00957,1.92589 -7.08692,2.6663c-0.57395,0.3836 -1.38681,0.17619 -1.80845,-0.49853c-0.41525,-0.67137 -0.28645,-1.54253 0.29114,-1.94405c1.70957,-1.18232 7.11822,-2.78856 7.72881,-2.96895c0.67235,-0.19646 1.41364,0.25988 1.65515,1.01839c0.21703,0.68591 -0.04326,1.38106 -0.59083,1.65569c-0.05891,0.02956 -0.12184,0.05467 -0.1889,0.07114z" fill="#231f20" stroke="none" stroke-linecap="butt"/><path d="M242.04225,187.56841c-0.08714,-0.02744 -0.17254,-0.06441 -0.25862,-0.10877c-3.02514,-1.62946 -8.86328,-2.77862 -8.92055,-2.79061c-0.77546,-0.15323 -1.31296,-0.9126 -1.1724,-1.70081c0.14189,-0.7859 0.89629,-1.30008 1.68673,-1.14616c0.25795,0.05401 6.33137,1.24802 9.75448,3.08971c0.7096,0.38101 0.98566,1.26312 0.61151,1.97073c-0.32706,0.61537 -1.0491,0.89123 -1.70114,0.68591z" fill="#231f20" stroke="none" stroke-linecap="butt"/><path d="M243.49532,182.49466l1.58515,1.74399l-1.49893,1.14471c0,0 -17.08564,-11.73727 -24.34114,-12.54839" fill="none" stroke="#231f20" stroke-linecap="round"/><path d="M266.26574,175.73107c-3.51806,1.07364 -10.75082,8.77334 -10.75082,8.77334l-2.52584,-0.71249l2.09194,-2.49267" fill="none" stroke="#231f20" stroke-linecap="round"/><path d="M224.7331,197.5522c0,0 3.20009,-0.30029 6.80373,1.68432" fill="none" stroke="#231f20" stroke-linecap="round"/></g></g></g><g stroke="#000000" stroke-width="1.2"><path d="M239.91879,207.48384c2.86748,-0.07521 5.25303,2.18837 5.32824,5.05585c0.07521,2.86748 -2.18837,5.25303 -5.05585,5.32824c-2.86748,0.07521 -5.25302,-2.18837 -5.32824,-5.05585c-0.07521,-2.86748 2.18837,-5.25302 5.05585,-5.32824z" fill="#5c5e5f" stroke-linecap="butt"/><path d="M237.06039,218.33492l-1.04553,2.43091l-1.94236,-0.04149l-2.46756,1.08159l-0.79718,-2.19769" fill="#9a8479" stroke-linecap="round"/><path d="M238.26249,214.01786l-0.67919,4.23233l-7.04494,2.55545l-3.7542,-2.53558l-0.36679,-3.94147l7.82081,-3.10262z" fill="#9a8479" stroke-linecap="round"/><path d="M235.46821,216.3241l-0.19251,2.4425" fill="none" stroke-linecap="round"/><path d="M231.93581,218.59764l0.03699,1.41018" fill="none" stroke-linecap="round"/><path d="M227.76957,216.26948l1.30889,0.99196l0.04036,1.53838l-2.14911,1.21095l-1.69348,-0.98187l-0.04707,-1.79478z" fill="#5c5e5f" stroke-linecap="round"/></g></g></g></svg>