<svg version="1.1" xmlns="http://www.w3.org/2000/svg" xmlns:xlink="http://www.w3.org/1999/xlink" width="294.68541" height="124.87443" viewBox="0,0,294.68541,124.87443"><g transform="translate(-108.93024,-121.81593)"><g stroke-miterlimit="10"><path d="M156.31172,191.51302c0.49221,4.88389 0.85384,11.48022 0.85384,11.48022c0,0 1.78347,11.76035 0.22516,13.64752c-1.06946,1.29517 -2.44563,2.7448 -4.11767,2.90439c-3.42288,0.32671 -5.03106,-1.89753 -5.45246,-4.50229c-1.20192,-7.42934 -1.33968,-17.84087 -1.74138,-25.00659c-0.04122,-0.43185 -0.02621,-0.85611 0.03903,-1.26552c0.05748,-0.44403 0.16677,-0.87912 0.34561,-1.28256c0.09007,-0.20319 0.20437,-0.38651 0.33809,-0.55391c0.79458,-1.28478 2.15979,-2.19587 3.77958,-2.35048c0.54715,-0.05223 1.0821,-0.0142 1.5901,0.1019" fill="#ffab19" fill-rule="nonzero" stroke="#000000" stroke-width="1.2" stroke-linecap="butt" stroke-linejoin="miter"/><path d="M234.77286,181.29004c2.68779,-0.63341 5.38017,1.032 6.01358,3.7198c0.14388,0.61051 0.16914,1.22125 0.09077,1.80805c0.72019,1.76695 -2.74916,4.06428 -3.60766,5.30595c-3.22815,4.66891 -6.3622,6.58003 -12.73979,7.60743c-2.6062,0.41985 -5.21718,-0.34038 -6.01358,-3.7198c-1.51171,-6.41476 6.17515,-6.0741 9.33222,-8.14575c1.69189,-1.11021 5.10903,-7.52725 6.92446,-6.57568z" fill="#ffab19" fill-rule="nonzero" stroke="#000000" stroke-width="1.2" stroke-linecap="butt" stroke-linejoin="miter"/><g fill-rule="evenodd"><path d="M179.10879,202.75538c1.32494,-2.06265 2.7862,-4.69225 2.89826,-7.94608c0.35788,-7.35744 -4.22994,-14.24597 -0.06903,-15.48565c4.23098,-1.31102 13.50722,7.93945 7.81255,19.44644c-1.94409,3.97751 -4.60673,6.68864 -6.85024,8.8303c-0.56056,0.57077 -5.89479,5.00315 -10.00223,4.33308c-4.10744,-0.67007 -3.55835,-2.51358 -3.28319,-3.36463c0.2739,-0.99246 7.53958,-2.9673 9.49386,-5.81347z" fill="#ffab19" stroke="#001026" stroke-width="1.2" stroke-linecap="round" stroke-linejoin="round"/><path d="M181.66031,179.8919c1.82947,-1.0065 5.52669,1.22297 7.32311,4.38888c1.7964,3.1659 1.95952,5.56868 1.97611,7.40708c-0.35928,-0.63318 -1.64861,-2.46009 -3.7673,-2.15813c-2.68434,0.30708 -4.63481,3.5775 -4.63481,3.5775c0,0 -0.53898,-4.87437 -1.34421,-7.90779c-0.51984,-2.75314 -1.23969,-4.16092 0.44709,-5.30755z" fill="#ffffff" stroke="none" stroke-width="1" stroke-linecap="butt" stroke-linejoin="miter"/></g><path d="M252.64811,192.78995c-0.91292,-0.9309 -2.10223,-2.4394 -3.31418,-3.85049c-2.02747,-2.31935 -4.62819,-7.03063 0.64953,-7.65167c4.23576,-0.55527 7.10822,2.98719 10.59455,6.98036c1.75791,2.15401 3.83749,4.69081 2.2589,7.50649c-1.76657,3.18265 -8.80371,11.81333 -13.8032,7.26304c-3.53162,-3.79837 0.5726,-6.43756 3.3495,-8.66665c0.40543,-0.41908 0.44389,-1.02614 0.2649,-1.58108z" fill="#ffab19" fill-rule="evenodd" stroke="#001026" stroke-width="1.2" stroke-linecap="round" stroke-linejoin="round"/><g fill-rule="nonzero" stroke-linecap="round" stroke-linejoin="miter"><path d="M149.086,199.95047c0.1028,-3.53753 -1.06099,-9.84196 0.5336,-12.53372c2.45909,-4.15107 9.47057,-5.30297 9.47057,-5.30297c0,0 7.94993,-0.77274 10.35287,4.10567c1.91195,3.8816 0.91793,7.87448 1.22866,12.32885c0.29647,4.24992 1.94023,9.05592 1.94023,9.05592c0,0 5.1684,8.86663 -10.08747,10.53786c-12.72318,1.39378 -13.43846,-18.19161 -13.43846,-18.19161z" fill="#ffab19" stroke="#001026" stroke-width="1.2"/><path d="M157.95496,206.30462c-4.09096,0.25078 -4.75632,-3.95649 -5.22181,-8.0286c-0.52213,-4.56755 -0.77385,-9.48883 3.80519,-9.89806c5.02338,-0.44894 6.17685,4.18503 6.67284,9.20398c0,0 0.63922,8.36129 -5.25622,8.72268z" fill="#ffffff" stroke="#000000" stroke-width="0"/></g><path d="M245.5382,232.51217c0,0 1.55081,-2.71583 12.2,-2.6" fill="none" fill-rule="nonzero" stroke="#001026" stroke-width="1.2" stroke-linecap="round" stroke-linejoin="miter"/><path d="M233.94047,201.69219c-1.2658,0.72228 -2.36565,2.09748 -3.73152,2.42605c-0.2083,0.05011 -0.4228,0.07587 -0.64501,0.07127c-2.64225,-0.05476 -8.87635,-3.66077 -9.99261,-4.67041c-2.41123,-2.18094 -2.39625,-6.95221 0.60736,-8.72889c3.25364,-1.92458 7.66433,1.79784 9.9885,3.10189c1.10399,0.61943 3.86387,1.3164 3.84261,2.83759z" fill="#ffab19" fill-rule="nonzero" stroke="#000000" stroke-width="1.2" stroke-linecap="butt" stroke-linejoin="miter"/><g fill-rule="nonzero" stroke="#000000" stroke-width="1.2" stroke-linejoin="miter"><path d="M236.66167,198.43737c-2.21422,-4.1841 -0.61733,-9.37098 3.56677,-11.5852c4.1841,-2.21422 9.37098,-0.61732 11.5852,3.56678c2.21422,4.1841 0.61733,9.37098 -3.56678,11.5852c-4.1841,2.21422 -9.37097,0.61732 -11.5852,-3.56678z" fill="#5c5e5f" stroke-linecap="butt"/><g stroke-linecap="round"><path d="M239.52175,202.74244l-1.7386,4.41123l-2.37068,0.2848l-3.93951,2.08479l-2.21861,-3.09288z" fill="#ffab19"/><path d="M241.70606,197.70743l-1.54283,6.24716l-4.0374,1.16682l-1.28349,0.87318l-3.73436,1.00645l-0.74875,0.78414l-3.52035,0.31134l-3.57289,-5.28549l0.00109,-6.59498l12.5402,-4.8907z" fill="#ffab19"/><path d="M236.78609,200.50503l-1.15906,2.94082" fill="none"/><path d="M230.92107,205.54832l1.06118,-3.85878" fill="none"/></g><path d="M227.07113,204.87037l-3.80569,1.23815l-2.67317,-2.85233l0.67796,-3.84993l3.0481,-0.83723l3.27925,2.53159z" fill="#5c5e5f" stroke-linecap="round"/></g><g fill-rule="nonzero" stroke-linecap="round" stroke-linejoin="miter"><path d="M321.013,211.47135l11.2,10.8l-5,11c0,0 6.26144,-0.06508 7.2,2.8c0.93856,2.86508 -3.4,8.8 -3.4,8.8l-18.4,1.2l-6.6,-8.2l-1,-6l4.2,-7.4l-4,-10l-6.8,7l4.8,10.2l-1,7.2l-16.4,2.4l-6.2,-1.4c0,0 -5.44971,-5.42171 -3.12026,-7.91756c2.32945,-2.49585 11.52026,-1.08244 11.52026,-1.08244l-4.6,-10.8l10,-7.8c0,0 -6.29334,-6.71721 -5,-11.4c3.0618,-11.08585 18.76396,-13.21689 27.2,-5.4c4.84621,4.49053 5.4,16 5.4,16z" fill="#ffab19" stroke="#001026" stroke-width="1.2"/><path d="M306.70664,212.31094c-5.14191,1.00381 -7.59191,-1.74428 -9.73471,-4.44039c-2.4035,-3.02413 -4.5952,-6.34568 1.11136,-7.55734c6.2603,-1.32924 9.49727,1.61203 12.03878,4.95084c0,0 3.99452,5.60031 -3.41543,7.04689z" fill="#ffffff" stroke="#000000" stroke-width="0"/><path d="M315.53825,235.84551c0,0 1.55081,-2.71583 12.2,-2.6" fill="none" stroke="#001026" stroke-width="1.2"/><path d="M307.46871,214.37026c0,0 -3.23157,-0.13731 -4.55805,-1.51935" fill="none" stroke="#001026" stroke-width="1.2"/></g><g fill-rule="nonzero" stroke-linecap="round" stroke-linejoin="miter"><path d="M390.94992,200.80422l6.61669,31.89834c0,0 4.76143,1.44973 5.44904,4.11592c0.68761,2.66619 -2.52991,7.20285 -2.52991,7.20285h-16.93095l-2.72452,-3.29273l-3.11374,-12.34775l-0.58383,-26.13606l-2.91913,26.54765l-9.1466,11.31877l-8.95199,0.61739l-4.08678,-1.23477c0,0 -4.5859,-5.54126 -2.52991,-8.02603c2.05599,-2.48478 10.70347,-1.85216 10.70347,-1.85216l8.56278,-31.48675c0,0 1.53573,-5.63943 2.48521,-11.60183c0.76665,-4.81429 0.71024,-10.20938 1.99078,-11.03571c5.14755,-3.32163 17.52016,-4.43962 20.04468,3.91012c0.74141,2.45219 -0.39688,6.87705 -1.03386,11.06957c-0.81378,5.35618 -1.30145,10.33318 -1.30145,10.33318z" fill="#ffab19" stroke="#001026" stroke-width="1.2"/><path d="M379.91142,202.82671c0,0 -3.14446,-0.14129 -4.43518,-1.56338" fill="none" stroke="#001026" stroke-width="1.2"/><path d="M377.89415,195.69704c-3.6475,-0.71047 -3.39953,-5.3283 -3.00255,-9.7552c0.44527,-4.96549 1.19842,-10.24136 5.30655,-9.58235c4.50676,0.72295 4.60357,5.90952 4.04591,11.3472c0,0 -1.09354,9.01421 -6.34991,7.99037z" fill="#ffffff" stroke="#000000" stroke-width="0"/><path d="M385.81733,235.21414c0,0 1.509,-2.79453 11.87112,-2.67534" fill="none" stroke="#001026" stroke-width="1.2"/></g><path d="M167.72491,184.61202c0.44576,-0.2699 0.94164,-0.47416 1.47747,-0.59657c1.58628,-0.36239 3.16868,0.07337 4.32684,1.04326c0.17956,0.11688 0.34569,0.25498 0.49507,0.41956c0.29659,0.32678 0.53711,0.70546 0.73125,1.10891c0.19062,0.36815 0.33823,0.76618 0.43485,1.1891c1.87113,6.92876 5.01312,16.85584 6.20747,24.2864c0.41875,2.60519 -0.40875,5.2222 -3.76082,5.988c-1.63745,0.37409 -3.39954,-0.56948 -4.82191,-1.46282c-2.07253,-1.30167 -4.07622,-13.02651 -4.07622,-13.02651c0,0 -1.7302,-6.37564 -2.79814,-11.16669" fill="#ffab19" fill-rule="nonzero" stroke="#000000" stroke-width="1.2" stroke-linecap="butt" stroke-linejoin="miter"/><g><g><path d="M130.95942,149.01906c0,0 -4.92755,-27.14651 -3.85155,-27.20313c1.44958,-0.07628 27.46182,9.26136 27.46182,9.26136" fill="#ffab19" fill-rule="nonzero" stroke="#001026" stroke-width="1.2" stroke-linecap="round" stroke-linejoin="miter"/><path d="M185.5262,149.01384l13.46464,14.33957l-2.57478,5.61164l-30.39609,0.93675z" fill="#9b7f41" fill-rule="nonzero" stroke="#001026" stroke-width="1.2" stroke-linecap="round" stroke-linejoin="miter"/><path d="M121.89804,169.00955c0,0 -7.12479,1.04275 -12.3678,-1.96405" fill="none" fill-rule="evenodd" stroke="#001026" stroke-width="1.2" stroke-linecap="round" stroke-linejoin="round"/><path d="M122.43849,174.89834c0,0 -3.54945,2.49427 -9.84905,2.9994" fill="none" fill-rule="evenodd" stroke="#001026" stroke-width="1.2" stroke-linecap="round" stroke-linejoin="round"/><path d="M147.23445,138.2031c10.94217,-3.24197 41.42906,2.23922 36.69538,29.78883c-0.06171,0.35917 -0.20586,0.69957 -0.34832,1.03861c-5.20285,12.38145 -19.30332,19.8109 -38.45214,19.13823c-19.14882,-0.67266 -25.20541,-10.6385 -24.92425,-16.45665c0.28115,-5.81815 6.95842,-9.01723 6.95842,-9.01723c0,0 -0.6147,-4.45894 1.67287,-10.3967c0,0 2.41126,-9.35848 18.39807,-14.09509z" fill="#ffab19" fill-rule="evenodd" stroke="#001026" stroke-width="1.2" stroke-linecap="butt" stroke-linejoin="miter"/><path d="M144.59131,165.26439c8.38888,-0.73932 18.30073,-11.54743 26.61237,-2.04498c8.29579,9.40373 -0.7758,25.44481 -25.46244,24.3447c-18.9355,-0.60563 -25.30776,-10.01438 -25.02661,-15.83254c0.28115,-5.81815 6.80851,-8.68931 6.80851,-8.68931c8.09127,-3.22356 9.87996,2.86993 17.06817,2.22213z" fill="#ffffff" fill-rule="evenodd" stroke="none" stroke-width="1" stroke-linecap="butt" stroke-linejoin="miter"/><path d="M149.32196,163.18813c0.25367,1.57976 -3.49687,4.71402 -5.30581,4.80192c-1.59562,0.15493 -3.52056,-2.37185 -3.64378,-3.77c-0.01224,-0.707 2.12823,-1.25326 4.20167,-1.58619c1.9747,-0.31708 4.65641,-0.6464 4.74792,0.55428z" fill="#001026" fill-rule="evenodd" stroke="#001026" stroke-width="1.2" stroke-linecap="round" stroke-linejoin="round"/><path d="M179.8639,159.06607c-3.03961,5.22406 -9.73247,7.88029 -9.73247,7.88029" fill="none" fill-rule="evenodd" stroke="#001026" stroke-width="1.2" stroke-linecap="round" stroke-linejoin="round"/><path d="M182.63559,169.99528c-5.70944,2.70969 -10.0303,2.3223 -10.0303,2.3223" fill="none" fill-rule="evenodd" stroke="#001026" stroke-width="1.2" stroke-linecap="round" stroke-linejoin="round"/><path d="M172.92092,147.87051l-43.59236,1.79612l0.09743,-22.80067l48.19591,-1.01682l13.68084,17.93864l-6.32796,16.02863z" fill="#c58600" fill-rule="nonzero" stroke="#001026" stroke-width="1.2" stroke-linecap="round" stroke-linejoin="miter"/><path d="M172.92005,147.67053l4.50278,-21.62047" fill="none" fill-rule="nonzero" stroke="#001026" stroke-width="0.75" stroke-linecap="round" stroke-linejoin="miter"/><path d="M183.65876,134.02209l-5.63504,-7.77473c0,0 15.33142,-3.80122 16.38454,-3.47374c1.18018,0.36698 -10.68023,26.64832 -10.68023,26.64832z" fill="#ffab19" fill-rule="nonzero" stroke="#001026" stroke-width="1.2" stroke-linecap="round" stroke-linejoin="miter"/></g><g><g fill-rule="evenodd"><path d="M140.57584,146.56451c3.04996,1.33332 3.75978,6.38467 1.60988,11.28752c-2.24864,4.91871 -6.45752,7.72143 -9.50748,6.3881c-3.04996,-1.33332 -3.75977,-6.38467 -1.60987,-11.28753c2.1499,-4.90285 6.44167,-7.82016 9.50748,-6.3881z" fill="#ffffff" stroke="#001026" stroke-width="1.2" stroke-linecap="round" stroke-linejoin="round"/><path d="M138.82493,157.7225c-0.17439,-1.08609 0.4728,-2.10154 1.46016,-2.26007c0.98736,-0.15854 1.91992,0.60324 2.09431,1.68933c0.17439,1.08609 -0.4728,2.10154 -1.46015,2.26007c-0.98736,0.15854 -1.91992,-0.60324 -2.09431,-1.68933" fill="#001026" stroke="none" stroke-width="1" stroke-linecap="butt" stroke-linejoin="miter"/></g><g fill-rule="evenodd"><path d="M166.50748,159.21164c-0.42195,0.89812 -0.9084,1.7011 -1.4437,2.40447c-3.80775,0.00593 -7.24961,-0.01755 -11.03456,-0.10352c-0.70961,-2.18422 -0.60949,-5.07168 0.56437,-7.84805c4.40443,0.03377 8.89051,0.02817 13.29725,-0.00224c-0.04008,1.79602 -0.49471,3.73092 -1.38335,5.54934z" fill="#ffffff" stroke="#001026" stroke-width="1.2" stroke-linecap="round" stroke-linejoin="round"/><path d="M162.77483,158.02772c-0.17439,-1.08609 0.48867,-2.00281 1.46016,-2.26008c0.98736,-0.15854 1.91991,0.60325 2.09431,1.68934c0.17439,1.08609 -0.4728,2.10154 -1.46015,2.26007c-0.98736,0.15854 -1.91992,-0.60325 -2.09431,-1.68934" fill="#001026" stroke="none" stroke-width="1" stroke-linecap="butt" stroke-linejoin="miter"/></g><g fill="none" fill-rule="nonzero" stroke="none" stroke-width="1" stroke-linecap="butt" stroke-linejoin="miter" font-family="sans-serif" font-weight="normal" font-size="12" text-anchor="start"/></g></g><path d="M176.77578,153.5377h-23.66065l-0.67602,-2.02805l1.80272,-1.57738" fill="none" fill-rule="nonzero" stroke="#001026" stroke-width="1.2" stroke-linecap="round" stroke-linejoin="miter"/><path d="M135.95885,181.1955l8.06777,1.60271l-5.74423,-3.56673z" fill="none" fill-rule="nonzero" stroke="#001026" stroke-width="1.2" stroke-linecap="round" stroke-linejoin="miter"/></g></g></svg>