<svg version="1.1" xmlns="http://www.w3.org/2000/svg" xmlns:xlink="http://www.w3.org/1999/xlink" width="77.3826" height="77.74799" viewBox="0,0,77.3826,77.74799"><g transform="translate(-201.3087,-141.12601)"><g stroke="#000000" stroke-width="0" stroke-linecap="round" stroke-linejoin="round" stroke-miterlimit="10"><path d="M278.69128,180.00452c0.00002,1.18516 -36.38743,39.01494 -37.92122,38.86906c-1.32284,-0.12582 -19.10948,-14.20269 -19.12266,-15.69258c-0.01243,-1.40558 19.55394,-14.28246 13.07255,-11.78301c-3.79474,1.46339 -29.93307,7.4639 -31.06655,6.49396c-1.14521,-0.97999 -2.56055,-13.12924 -2.31708,-17.87514v-0.03361c-0.24347,-4.7459 1.17188,-16.89516 2.31709,-17.87514c1.13348,-0.96993 27.27181,5.03058 31.06655,6.49396c6.4814,2.49945 -13.08498,-10.37743 -13.07254,-11.78301c0.01317,-1.4899 17.79983,-15.56677 19.12266,-15.69258c1.53379,-0.14588 37.92125,37.6839 37.92122,38.86906z" fill="#000000"/><path d="M275.66513,180.00416c0.00002,1.09247 -33.54145,35.96346 -34.95528,35.82899c-1.21937,-0.11597 -15.81249,-11.16073 -15.82464,-12.53409c-0.01147,-1.29564 20.59938,-16.77015 14.62492,-14.46618c-3.49795,1.34893 -32.09787,7.49052 -33.14269,6.59645c-1.05564,-0.90333 -2.23155,-11.03913 -2.00712,-15.41384v-0.03098c-0.22442,-4.37471 0.694,-14.63925 1.74964,-15.54258c1.04483,-0.89407 29.64475,4.99004 33.14269,6.33896c5.97447,2.30397 -14.3789,-13.04179 -14.36744,-14.33743c0.01214,-1.37337 14.60528,-12.16064 15.82465,-12.27661c1.41383,-0.13447 34.95531,34.73652 34.95528,35.82899z" fill="#ffffff"/><path d="M272.90798,180.00385c0.00002,1.00789 -30.94475,33.17924 -32.24912,33.05518c-1.12497,-0.107 -13.02787,-8.56285 -13.03907,-9.82989c-0.01058,-1.19534 19.69816,-18.0726 14.18623,-15.94701c-3.22714,1.2445 -32.21369,6.56642 -33.17762,5.74156c-0.97391,-0.83339 -1.71201,-8.97338 -1.50496,-13.0094l0.00001,-0.02858c-0.20705,-4.03602 0.46688,-12.64154 1.4408,-13.47493c0.96393,-0.82486 29.60371,4.43289 32.83085,5.67738c5.51193,2.12559 -14.30604,-14.45951 -14.29546,-15.65485c0.0112,-1.26704 12.43426,-9.48534 13.55923,-9.59233c1.30437,-0.12406 32.24914,32.04729 32.24912,33.05518z" fill="#d4ecff"/></g></g></svg>