<svg version="1.1" xmlns="http://www.w3.org/2000/svg" xmlns:xlink="http://www.w3.org/1999/xlink" width="196.88243" height="237.21594" viewBox="0,0,196.88243,237.21594"><g transform="translate(-141.74153,-64.30461)"><g stroke-miterlimit="10"><g stroke-linecap="butt"><path d="M287.05093,300.69278l5.87524,-70.72106l45.02252,-0.10549l-8.36991,70.82655z" fill="#868995" stroke="#000000" stroke-width="1.2"/><g><g><g><g fill="#868995" stroke="#000000" stroke-width="1.2"><path d="M314.91629,263.73469c0,0 -14.72229,0.34976 -16.50098,-1.93606c-1.3725,-1.76382 0.99403,-25.0985 2.72753,-26.8075c1.77956,-1.75441 16.48082,-1.78714 16.48082,-1.78714"/></g><g fill="none" stroke="none" stroke-width="1" font-family="sans-serif" font-weight="normal" font-size="12" text-anchor="start"/><g fill="none" stroke="none" stroke-width="1" font-family="sans-serif" font-weight="normal" font-size="12" text-anchor="start"/></g><g><g fill="#868995" stroke="#000000" stroke-width="1.2"><path d="M317.51561,233.20399c0,0 14.69461,0.03272 16.11716,1.78714c1.38572,1.709 -0.9961,25.04367 -2.72752,26.80749c-2.24382,2.28582 -16.89495,1.93608 -16.89495,1.93608"/></g><g fill="none" stroke="none" stroke-width="1" font-family="sans-serif" font-weight="normal" font-size="12" text-anchor="start"/><g fill="none" stroke="none" stroke-width="1" font-family="sans-serif" font-weight="normal" font-size="12" text-anchor="start"/></g></g><g><g><g fill="#4e4f56" stroke="#000000" stroke-width="1.2"><path d="M315.04573,261.93812c0,0 -12.98855,0.30856 -14.55777,-1.70807c-1.21087,-1.5561 0.87697,-22.14282 2.40632,-23.65056c1.56999,-1.54781 14.53999,-1.57668 14.53999,-1.57668"/></g><g fill="none" stroke="none" stroke-width="1" font-family="sans-serif" font-weight="normal" font-size="12" text-anchor="start"/><g fill="none" stroke="none" stroke-width="1" font-family="sans-serif" font-weight="normal" font-size="12" text-anchor="start"/></g><g><g fill="#4e4f56" stroke="#000000" stroke-width="1.2"><path d="M317.33894,235.00281c0,0 12.96413,0.02887 14.21915,1.57668c1.22254,1.50775 -0.87881,22.09446 -2.40633,23.65056c-1.97958,2.01664 -14.90534,1.70807 -14.90534,1.70807"/></g><g fill="none" stroke="none" stroke-width="1" font-family="sans-serif" font-weight="normal" font-size="12" text-anchor="start"/><g fill="none" stroke="none" stroke-width="1" font-family="sans-serif" font-weight="normal" font-size="12" text-anchor="start"/></g></g><g><g><g fill="#9497a4" stroke="#000000" stroke-width="1.2"><path d="M315.69296,252.95531c0,0 -4.31985,0.10263 -4.84175,-0.56808c-0.40272,-0.51755 0.29167,-7.36444 0.80032,-7.86589c0.52216,-0.51478 4.83583,-0.52438 4.83583,-0.52438"/></g><g fill="none" stroke="none" stroke-width="1" font-family="sans-serif" font-weight="normal" font-size="12" text-anchor="start"/><g fill="none" stroke="none" stroke-width="1" font-family="sans-serif" font-weight="normal" font-size="12" text-anchor="start"/></g><g><g fill="#9497a4" stroke="#000000" stroke-width="1.2"><path d="M316.45565,243.99694c0,0 4.31171,0.0096 4.72913,0.52438c0.40661,0.50145 -0.29228,7.34836 -0.80032,7.86589c-0.65839,0.67071 -4.95734,0.56808 -4.95734,0.56808"/></g><g fill="none" stroke="none" stroke-width="1" font-family="sans-serif" font-weight="normal" font-size="12" text-anchor="start"/><g fill="none" stroke="none" stroke-width="1" font-family="sans-serif" font-weight="normal" font-size="12" text-anchor="start"/></g></g></g><g><g><g><g fill="#868995" stroke="#000000" stroke-width="1.2"><path d="M311.72024,294.71302c0,0 -11.16835,0.26533 -12.51766,-1.4687c-1.04118,-1.33803 0.75407,-19.03976 2.0691,-20.33621c1.34997,-1.3309 12.50238,-1.35573 12.50238,-1.35573"/></g><g fill="none" stroke="none" stroke-width="1" font-family="sans-serif" font-weight="normal" font-size="12" text-anchor="start"/><g fill="none" stroke="none" stroke-width="1" font-family="sans-serif" font-weight="normal" font-size="12" text-anchor="start"/></g><g><g fill="#868995" stroke="#000000" stroke-width="1.2"><path d="M313.6921,271.55238c0,0 11.14736,0.02483 12.22651,1.35573c1.05122,1.29645 -0.75565,18.99818 -2.06911,20.33621c-1.70216,1.73403 -12.81654,1.46871 -12.81654,1.46871"/></g><g fill="none" stroke="none" stroke-width="1" font-family="sans-serif" font-weight="normal" font-size="12" text-anchor="start"/><g fill="none" stroke="none" stroke-width="1" font-family="sans-serif" font-weight="normal" font-size="12" text-anchor="start"/></g></g><g><g><g fill="#4e4f56" stroke="#000000" stroke-width="1.2"><path d="M311.81844,293.35014c0,0 -9.85313,0.23408 -11.04354,-1.29574c-0.91857,-1.18047 0.66527,-16.79758 1.82543,-17.94135c1.19099,-1.17417 11.03006,-1.19608 11.03006,-1.19608"/></g><g fill="none" stroke="none" stroke-width="1" font-family="sans-serif" font-weight="normal" font-size="12" text-anchor="start"/><g fill="none" stroke="none" stroke-width="1" font-family="sans-serif" font-weight="normal" font-size="12" text-anchor="start"/></g><g><g fill="#4e4f56" stroke="#000000" stroke-width="1.2"><path d="M313.55809,272.91697c0,0 9.83461,0.02191 10.78667,1.19608c0.92741,1.14378 -0.66667,16.76089 -1.82544,17.94135c-1.50172,1.52982 -11.30722,1.29574 -11.30722,1.29574"/></g><g fill="none" stroke="none" stroke-width="1" font-family="sans-serif" font-weight="normal" font-size="12" text-anchor="start"/><g fill="none" stroke="none" stroke-width="1" font-family="sans-serif" font-weight="normal" font-size="12" text-anchor="start"/></g></g><g><g><g fill="#9497a4" stroke="#000000" stroke-width="1.2"><path d="M312.30942,286.53577c0,0 -3.27703,0.07784 -3.67296,-0.43095c-0.3055,-0.39261 0.22127,-5.58668 0.60713,-5.96708c0.39611,-0.39051 3.66846,-0.39781 3.66846,-0.39781"/></g><g fill="none" stroke="none" stroke-width="1" font-family="sans-serif" font-weight="normal" font-size="12" text-anchor="start"/><g fill="none" stroke="none" stroke-width="1" font-family="sans-serif" font-weight="normal" font-size="12" text-anchor="start"/></g><g><g fill="#9497a4" stroke="#000000" stroke-width="1.2"><path d="M312.88801,279.73993c0,0 3.27087,0.00728 3.58752,0.39781c0.30845,0.3804 -0.22173,5.57447 -0.60712,5.96708c-0.49944,0.5088 -3.76065,0.43095 -3.76065,0.43095"/></g><g fill="none" stroke="none" stroke-width="1" font-family="sans-serif" font-weight="normal" font-size="12" text-anchor="start"/><g fill="none" stroke="none" stroke-width="1" font-family="sans-serif" font-weight="normal" font-size="12" text-anchor="start"/></g></g></g></g><g stroke-linecap="butt"><path d="M150.4212,300.69278l-8.00783,-70.82655l45.02199,0.10549l5.5137,70.72106z" fill="#868995" stroke="#000000" stroke-width="1.2"/><g><g><g><g fill="#868995" stroke="#000000" stroke-width="1.2"><path d="M162.72135,233.20399c0,0 14.70109,0.03272 16.47168,1.78714c1.72475,1.709 3.97199,25.04367 2.59049,26.80749c-1.79037,2.28582 -16.51087,1.93607 -16.51087,1.93607"/></g><g fill="none" stroke="none" stroke-width="1" font-family="sans-serif" font-weight="normal" font-size="12" text-anchor="start"/><g fill="none" stroke="none" stroke-width="1" font-family="sans-serif" font-weight="normal" font-size="12" text-anchor="start"/></g><g><g fill="#868995" stroke="#000000" stroke-width="1.2"><path d="M166.17864,263.73469c0,0 -14.65291,0.34976 -16.88505,-1.93606c-1.7224,-1.76382 -3.98495,-25.09849 -2.59049,-26.80749c1.43152,-1.75441 16.1263,-1.78714 16.1263,-1.78714"/></g><g fill="none" stroke="none" stroke-width="1" font-family="sans-serif" font-weight="normal" font-size="12" text-anchor="start"/><g fill="none" stroke="none" stroke-width="1" font-family="sans-serif" font-weight="normal" font-size="12" text-anchor="start"/></g></g><g><g><g fill="#4e4f56" stroke="#000000" stroke-width="1.2"><path d="M162.90154,235.00281c0,0 12.96986,0.02887 14.53193,1.57668c1.52165,1.50775 3.50423,22.09446 2.28541,23.65056c-1.57953,2.01664 -14.5665,1.70807 -14.5665,1.70807"/></g><g fill="none" stroke="none" stroke-width="1" font-family="sans-serif" font-weight="normal" font-size="12" text-anchor="start"/><g fill="none" stroke="none" stroke-width="1" font-family="sans-serif" font-weight="normal" font-size="12" text-anchor="start"/></g><g><g fill="#4e4f56" stroke="#000000" stroke-width="1.2"><path d="M165.95168,261.93812c0,0 -12.92733,0.30856 -14.89661,-1.70807c-1.51956,-1.5561 -3.51567,-22.14282 -2.28541,-23.65056c1.26295,-1.54781 14.22721,-1.57668 14.22721,-1.57668"/></g><g fill="none" stroke="none" stroke-width="1" font-family="sans-serif" font-weight="normal" font-size="12" text-anchor="start"/><g fill="none" stroke="none" stroke-width="1" font-family="sans-serif" font-weight="normal" font-size="12" text-anchor="start"/></g></g><g><g><g fill="#9497a4" stroke="#000000" stroke-width="1.2"><path d="M163.80247,243.99694c0,0 4.31363,0.0096 4.83315,0.52438c0.50609,0.50145 1.16547,7.34836 0.7601,7.86589c-0.52534,0.67071 -4.84464,0.56808 -4.84464,0.56808"/></g><g fill="none" stroke="none" stroke-width="1" font-family="sans-serif" font-weight="normal" font-size="12" text-anchor="start"/><g fill="none" stroke="none" stroke-width="1" font-family="sans-serif" font-weight="normal" font-size="12" text-anchor="start"/></g><g><g fill="#9497a4" stroke="#000000" stroke-width="1.2"><path d="M164.81691,252.95531c0,0 -4.29948,0.10263 -4.95444,-0.56808c-0.50538,-0.51755 -1.16927,-7.36444 -0.7601,-7.86589c0.42004,-0.51478 4.7318,-0.52438 4.7318,-0.52438"/></g><g fill="none" stroke="none" stroke-width="1" font-family="sans-serif" font-weight="normal" font-size="12" text-anchor="start"/><g fill="none" stroke="none" stroke-width="1" font-family="sans-serif" font-weight="normal" font-size="12" text-anchor="start"/></g></g></g><g><g><g><g fill="#868995" stroke="#000000" stroke-width="1.2"><path d="M166.37489,271.55238c0,0 11.15229,0.02483 12.49545,1.35573c1.3084,1.29645 3.01316,18.99818 1.96514,20.33621c-1.35818,1.73403 -12.52517,1.46871 -12.52517,1.46871"/></g><g fill="none" stroke="none" stroke-width="1" font-family="sans-serif" font-weight="normal" font-size="12" text-anchor="start"/><g fill="none" stroke="none" stroke-width="1" font-family="sans-serif" font-weight="normal" font-size="12" text-anchor="start"/></g><g><g fill="#868995" stroke="#000000" stroke-width="1.2"><path d="M168.99761,294.71302c0,0 -11.11573,0.26533 -12.80903,-1.4687c-1.3066,-1.33803 -3.02298,-19.03976 -1.96514,-20.3362c1.08595,-1.3309 12.23344,-1.35573 12.23344,-1.35573"/></g><g fill="none" stroke="none" stroke-width="1" font-family="sans-serif" font-weight="normal" font-size="12" text-anchor="start"/><g fill="none" stroke="none" stroke-width="1" font-family="sans-serif" font-weight="normal" font-size="12" text-anchor="start"/></g></g><g><g><g fill="#4e4f56" stroke="#000000" stroke-width="1.2"><path d="M166.51159,272.91697c0,0 9.83895,0.02191 11.02394,1.19608c1.15433,1.14378 2.65833,16.76089 1.73372,17.94135c-1.19823,1.52982 -11.05017,1.29574 -11.05017,1.29574"/></g><g fill="none" stroke="none" stroke-width="1" font-family="sans-serif" font-weight="normal" font-size="12" text-anchor="start"/><g fill="none" stroke="none" stroke-width="1" font-family="sans-serif" font-weight="normal" font-size="12" text-anchor="start"/></g><g><g fill="#4e4f56" stroke="#000000" stroke-width="1.2"><path d="M168.82543,293.35014c0,0 -9.8067,0.23408 -11.3006,-1.29574c-1.15275,-1.18047 -2.667,-16.79758 -1.73372,-17.94135c0.95807,-1.17417 10.79279,-1.19608 10.79279,-1.19608"/></g><g fill="none" stroke="none" stroke-width="1" font-family="sans-serif" font-weight="normal" font-size="12" text-anchor="start"/><g fill="none" stroke="none" stroke-width="1" font-family="sans-serif" font-weight="normal" font-size="12" text-anchor="start"/></g></g><g><g><g fill="#9497a4" stroke="#000000" stroke-width="1.2"><path d="M167.19503,279.73993c0,0 3.27232,0.00729 3.66644,0.3978c0.38391,0.3804 0.88413,5.57448 0.57662,5.96708c-0.39852,0.5088 -3.67516,0.43095 -3.67516,0.43095"/></g><g fill="none" stroke="none" stroke-width="1" font-family="sans-serif" font-weight="normal" font-size="12" text-anchor="start"/><g fill="none" stroke="none" stroke-width="1" font-family="sans-serif" font-weight="normal" font-size="12" text-anchor="start"/></g><g><g fill="#9497a4" stroke="#000000" stroke-width="1.2"><path d="M167.9646,286.53577c0,0 -3.26159,0.07785 -3.75844,-0.43095c-0.38339,-0.39261 -0.88701,-5.58668 -0.57661,-5.96708c0.31865,-0.39051 3.58955,-0.3978 3.58955,-0.3978"/></g><g fill="none" stroke="none" stroke-width="1" font-family="sans-serif" font-weight="normal" font-size="12" text-anchor="start"/><g fill="none" stroke="none" stroke-width="1" font-family="sans-serif" font-weight="normal" font-size="12" text-anchor="start"/></g></g></g></g><path d="M187.3461,300.92055l-3.94905,-103.37655h113.20589l-3.94904,103.37655z" fill="#868995" stroke="#000000" stroke-width="1.2" stroke-linecap="butt"/><g stroke="#000000" stroke-width="1.2" stroke-linecap="butt"><g fill="#868995"><path d="M240.80288,245.80576c0,0 -44.85313,0.45399 -48.0377,-2.51313c-2.45732,-2.28954 -2.46945,-32.57923 0,-34.79762c2.53508,-2.27732 47.40598,-2.31981 47.40598,-2.31981"/><path d="M239.82882,206.17521c0,0 44.87091,0.04248 47.40598,2.31981c2.46946,2.21839 2.45734,32.50809 0,34.79762c-3.18457,2.96712 -48.0377,2.51313 -48.0377,2.51313"/></g><g fill="#4e4f56"><path d="M240.76191,243.54599c0,0 -42.56392,0.40218 -45.58596,-2.22635c-2.33192,-2.02826 -2.34342,-28.8615 0,-30.82673c2.40569,-2.01745 44.98648,-2.05509 44.98648,-2.05509"/><path d="M239.83756,208.43782c0,0 42.5808,0.03764 44.98649,2.05509c2.34342,1.96524 2.33191,28.79847 0,30.82673c-3.02204,2.62853 -45.58597,2.22635 -45.58597,2.22635"/></g><g fill="#9497a4"><path d="M240.24829,231.83058c0,0 -13.87108,0.13359 -14.85592,-0.73958c-0.75994,-0.67378 -0.7637,-9.58753 0,-10.24036c0.78398,-0.67018 14.66055,-0.68268 14.66055,-0.68268"/><path d="M239.94707,220.16797c0,0 13.87656,0.01251 14.66055,0.68268c0.76369,0.65283 0.75994,9.56659 0,10.24036c-0.98485,0.87317 -14.85592,0.73957 -14.85592,0.73957"/></g></g><g stroke="#000000" stroke-width="1.2" stroke-linecap="butt"><g fill="#868995"><path d="M240.69234,286.48518c0,0 -38.67744,0.39148 -41.42353,-2.16711c-2.11899,-1.97429 -2.12944,-28.0935 0,-30.00643c2.18603,-1.96376 40.87879,-2.0004 40.87879,-2.0004"/><path d="M239.85239,252.31124c0,0 38.69277,0.03663 40.8788,2.0004c2.12944,1.91293 2.11899,28.03214 0,30.00643c-2.7461,2.55858 -41.42354,2.1671 -41.42354,2.1671"/></g><g fill="#4e4f56"><path d="M240.65701,284.53654c0,0 -36.70342,0.34681 -39.30935,-1.91981c-2.01084,-1.74899 -2.02077,-24.88765 0,-26.5823c2.07446,-1.73968 38.79241,-1.77213 38.79241,-1.77213"/><path d="M239.85993,254.26232c0,0 36.71797,0.03246 38.79242,1.77213c2.02076,1.69465 2.01083,24.8333 0,26.58229c-2.60595,2.26662 -39.30936,1.91981 -39.30936,1.91981"/></g><g fill="#9497a4"><path d="M240.21411,274.43419c0,0 -11.9612,0.1152 -12.81044,-0.63774c-0.65531,-0.581 -0.65854,-8.26744 0,-8.83038c0.67604,-0.5779 12.64198,-0.58869 12.64198,-0.58869"/><path d="M239.95435,264.37737c0,0 11.96594,0.01079 12.64198,0.58869c0.65854,0.56294 0.65531,8.24938 0,8.83039c-0.84924,0.75295 -12.81044,0.63774 -12.81044,0.63774"/></g></g><path d="M192.35431,176.07741" fill="none" stroke="#000000" stroke-width="1.2" stroke-linecap="round"/><path d="M200.34226,180.47577" fill="none" stroke="#000000" stroke-width="1.2" stroke-linecap="round"/><g stroke="#000000" stroke-width="1.2" stroke-linecap="round"><path d="M197.30123,160.22023c-15.68585,-2.22586 -25.41943,-32.57676 -25.41943,-32.57676c10.14754,-1.83619 14.10519,1.80689 14.62269,2.15002c0.51759,0.34398 9.98939,8.14055 9.98939,8.14055c-1.56502,13.45712 0.80734,22.28618 0.80734,22.28618zM197.03594,135.0642c0,0 -0.46492,2.04744 -0.57508,3.15445M197.30123,160.22023c0.23804,0.88847 0.97071,2.25117 0.97071,2.25117" fill="#be1e2d"/><path d="M190.94945,157.24643c-2.88307,-1.86799 -6.36453,-4.83729 -9.58619,-9.47551c-2.87234,-4.13568 -5.74838,-10.6544 -7.56326,-15.15074l0.06695,-0.06987c6.27974,-1.54166 9.78861,2.42334 9.78861,2.42334l0.21443,0.32013c1.41645,2.37295 2.94024,4.74958 4.18864,6.25301c0.73693,0.88908 1.52875,1.65739 2.26987,2.29272c0,0 1.41516,4.15931 1.59274,7.12306c0.26882,4.3835 -1.09196,6.22146 -1.09196,6.22146z" fill="#929497"/></g><path d="M259.04535,169.01187l-10.30179,9.10244l-24.19153,1.81162l-10.00402,5.1188l-15.68832,-3.62262l-7.11099,-7.8663l-6.28159,-9.55609l-4.11548,-12.24189l-0.1439,-12.31014l2.48561,-9.53629l4.28923,-9.44344l6.10297,-8.67243l7.0283,-7.85294l7.90897,-7.31746l5.59896,-4.25791l2.3635,-2.96391l2.49671,-4.78647l1.58773,-4.59422l1.19951,-6.14765l-0.80647,-8.14848l4.87081,5.39025l5.12537,7.00887l0.00172,-3.92474l1.10136,2.0836l4.27857,6.5439l5.91475,6.12479l3.8509,2.84049l5.6139,4.21186l6.83184,5.06883l6.19331,5.92819l5.18365,6.39556l4.54512,7.25491l3.41976,6.98654l1.33103,7.47982l0.72765,7.57869l-0.81511,6.62405l-2.11531,8.19561l-2.7521,5.13022l-4.80832,6.9734z" fill="#be1e2d" stroke="#8c8c8c" stroke-width="0" stroke-linecap="round"/><path d="M269.87194,169.75044l-10.87494,-0.65899l-10.27888,9.26021l-24.13469,1.54073l-10.01386,5.07573l-14.91079,-2.93206c0,0 -50.14895,-40.2395 14.67834,-89.10163c0,0 11.25612,-12.02054 6.62708,-27.94741c-0.37649,-1.29539 10.30602,13.10866 10.30602,13.10866c0,0 -0.32699,-5.30555 -0.07214,-4.65271c2.82435,7.23519 12.1346,16.18671 12.1346,16.18671c57.40493,34.96646 31.28603,74.1692 31.28603,74.1692z" fill="none" stroke="#000000" stroke-width="1.2" stroke-linecap="round"/><g stroke="#000000" stroke-width="1.2" stroke-linecap="round"><path d="M272.90255,125.41156c0,0 8.34343,-11.52281 8.81304,-12.07745c0.46967,-0.55382 3.89157,-5.7208 14.53005,-8.75064c0,0 -4.84732,32.26401 -20.44719,41.57729c0,0 0.94259,-9.17254 -2.89592,-20.7492zM272.98366,125.65642c-0.29685,-0.96094 -1.11179,-2.61704 -1.11179,-2.61704M275.18564,148.66928c0,0 0.51865,-1.58578 0.61281,-2.5085" fill="#be1e2d"/><path d="M281.88162,140.38196c0,0 -1.69216,-1.0489 -2.14974,-5.18115c-0.31363,-2.79192 0.43341,-7.25113 0.43341,-7.25113c0.64861,-0.92472 1.32666,-1.99453 1.92868,-3.14929c1.02031,-1.95374 2.1753,-4.83356 3.22165,-7.66022l0.16494,-0.39216c0,0 2.91123,-5.25303 9.56239,-6.75746l0.07984,0.03281c-1.09778,4.95279 -2.93864,12.24684 -5.17328,17.36058c-2.50649,5.73525 -5.55592,10.06531 -8.17981,13.11081z" fill="#929497"/></g><g><path d="M267.96658,147.91943c2.5086,15.62689 -12.34997,31.00674 -33.18755,34.35182c-20.83759,3.34509 -39.76344,-6.61127 -42.27204,-22.23817c-2.5086,-15.62689 12.34995,-31.00674 33.18755,-34.35183c20.83759,-3.3451 39.76344,6.61127 42.27205,22.23818z" fill="#e6e7e8" stroke="#000000" stroke-width="1.2" stroke-linecap="butt"/><path d="M209.77644,182.5061l2.31892,2.57135l2.86977,1.62832l-1.7988,0.66858l-4.38381,-0.43571l-4.08799,-1.71762l-1.88311,-2.35644l-4.92984,-1.96229l-3.72649,-1.96555l0.28146,2.36292c-5.90655,-9.12573 -15.22649,-18.3383 -13.47106,-31.76907c24.97054,-31.64281 70.12258,-41.68781 88.52295,-10.76511c0.24606,0.4135 0.47809,0.827 0.69673,1.24048c0.17735,0.63125 0.31217,1.22317 0.38921,1.76277c0.87149,6.10383 0.89883,12.18547 1.24002,18.37664c0.02248,0.4079 -0.01863,0.86743 -0.0997,1.35421l-0.76788,1.38688l-0.38297,-1.41433l-1.92775,5.47482l-4.30025,5.26534l-2.80918,1.92678l-0.21377,-4.24554l-0.77185,-5.77935l-1.1951,-4.53076l-1.08716,0.02692l0.22507,-1.51193l0.81375,-3.67258l-0.49468,-4.05287l-1.32402,-4.36248l-3.90814,-3.94764l-6.29405,-3.26948l-8.10846,-1.94512l-9.29178,-0.57451l2.46489,0.78496l3.95808,2.31624l2.37839,3.16014l-17.41366,-1.63199l-16.82873,-1.87349l-0.29811,2.99949l-1.94117,6.36246l-1.85848,5.90644l0.85457,5.32332l3.41559,4.76463l4.5527,3.10626l-3.09975,1.08794l-2.73613,0.43923l0.5543,3.45297l2.27257,3.4723l2.50731,2.99187l2.74203,2.51145z" fill="#be1e2d" stroke="#8c8c8c" stroke-width="0" stroke-linecap="butt"/><path d="M203.83481,139.00203c-0.34989,8.05094 -4.59373,12.68732 -3.92102,16.8281c1.38467,8.52315 8.93555,11.30387 8.93555,11.30387c0,0 -5.01091,3.31058 -11.44387,0.34952" fill="none" stroke="#000000" stroke-width="1.2" stroke-linecap="round"/><path d="M192.08662,159.64405c-0.86827,-1.51475 -1.72849,-3.26713 -2.56922,-5.29054" fill="none" stroke="#000000" stroke-width="1.2" stroke-linecap="round"/><path d="M197.2611,137.38381c15.74623,3.6898 41.29569,4.69389 41.29569,4.69389c0,0 -3.05554,-4.07964 -8.90729,-5.80434c0,0 36.16586,-1.78136 27.89294,23.67292c0,0 3.407,-2.19252 5.52853,-6.08642" fill="none" stroke="#000000" stroke-width="1.2" stroke-linecap="round"/><path d="M264.23637,144.71776c0.39724,1.7605 0.61061,2.57517 0.36765,4.06758" fill="none" stroke="#000000" stroke-width="1.2" stroke-linecap="round"/><path d="M269.70766,162.23958c-1.20012,6.88463 -8.74246,11.78301 -8.74246,11.78301c0,0 -0.02406,-9.75651 -2.36276,-14.71825" fill="none" stroke="#000000" stroke-width="1.2" stroke-linecap="round"/><path d="M191.56274,159.43211c-3.56074,8.03576 2.95972,21.54212 2.95972,21.54212c0,0 -17.77523,-19.59916 -13.14966,-32.51686" fill="none" stroke="#000000" stroke-width="1.2" stroke-linecap="round"/><path d="M272.40684,159.78934c-1.15976,2.52076 -2.12907,3.93139 -2.12907,3.93139c0,0 -0.04759,-9.73081 -5.70082,-14.81144" fill="none" stroke="#000000" stroke-width="1.2" stroke-linecap="round"/><path d="M203.14106,168.8367c-0.39272,6.82077 8.15919,12.52961 8.15919,12.52961c0,0 -10.17756,3.55027 -17.5948,-2.99431" fill="none" stroke="#000000" stroke-width="1.2" stroke-linecap="round"/><path d="M209.06383,182.00527c1.51698,3.09133 6.02709,4.68258 6.02709,4.68258c0,0 -8.11488,2.79512 -13.18808,-4.3214" fill="none" stroke="#000000" stroke-width="1.2" stroke-linecap="round"/></g><path d="M251.87358,149.16716c0.53697,-0.11942 0.90285,0.6644 1.05317,0.99615c0.56359,1.24396 0.62816,2.79881 -0.25356,3.88584l-0.39981,0.11511c-0.17458,0.09345 -0.43011,0.14595 -0.79037,0.13687c-3.03096,-0.07638 -5.69381,-0.20391 -8.6252,1.09876c-0.84101,0.37374 -2.26457,1.86181 -2.98688,2.04606c-0.9265,0.23635 -1.2899,0.02066 -1.52624,-0.90583c-0.23063,-0.9041 1.44232,-1.77633 2.04256,-2.12485c2.08973,-1.21335 4.4899,-1.95375 6.89789,-2.2856c0.46546,-0.52663 0.69476,-1.13553 0.95415,-1.88444c0.07461,-0.21541 0.38676,-1.05633 0.47546,-1.07478c0.99606,-0.20715 1.26976,1.47299 1.29767,2.73403c0.26466,-0.00412 0.53294,0.00053 0.78065,0.02038c0.3373,-1.11267 0.69622,-2.67226 1.0805,-2.75771z" fill="#000000" stroke="#000000" stroke-width="0.5" stroke-linecap="butt"/><path d="M214.1182,159.61184c0.20129,-0.13349 0.42545,-0.26069 0.64977,-0.37723c-0.43717,-1.31071 -0.82054,-3.16498 0.09367,-3.40629c0.08141,-0.02149 0.65139,0.70162 0.7929,0.8893c0.49196,0.6525 0.90744,1.1746 1.49167,1.50423c2.14839,-0.75728 4.43948,-1.09044 6.64198,-0.79518c0.63263,0.0848 2.35966,0.21917 2.49578,1.255c0.13949,1.06151 -0.08765,1.44932 -0.95397,1.62885c-0.67539,0.13996 -2.41743,-0.74207 -3.26197,-0.74296c-2.94369,-0.00314 -5.13886,1.34325 -7.66258,2.80501c-0.29997,0.17374 -0.53429,0.23632 -0.71538,0.2198l-0.37862,0.06394c-1.13938,-0.71651 -1.65302,-2.34638 -1.63299,-3.88397c0.00534,-0.41007 0.02704,-1.3838 0.52271,-1.50593c0.35474,-0.08739 1.2266,1.35411 1.91704,2.34545z" fill="#000000" stroke="#000000" stroke-width="0.5" stroke-linecap="butt"/><g stroke="#000000" stroke-width="1.2"><path d="M226.83533,186.64908c0.08883,0.17819 0.16927,0.35039 0.24157,0.51674c0.16986,0.2634 0.28161,0.5614 0.32181,0.87136c1.96828,6.64108 -11.94709,1.61342 -13.53465,-0.66575c-1.34626,-1.93275 -1.38343,-6.71958 1.95137,-6.55224c1.20364,0.0604 10.2613,4.84399 10.92414,5.7956z" fill="#be1e2d" stroke-linecap="butt"/><g><path d="M214.97074,172.58374c2.98958,-0.22026 2.34396,4.28019 2.47012,7.01086c0.02749,0.59504 0.58155,3.21777 0.46527,3.40711c0.60771,2.85657 -0.39114,5.94258 -3.71409,6.17263c-2.80504,0.19419 -4.62014,-2.08906 -5.35844,-4.69645c-0.33835,-0.07645 -0.32226,-1.68632 -0.64414,-1.59591c-2.58469,0.72598 -5.62731,2.59578 -6.8023,-0.26279c-0.95216,-2.31647 2.89539,-5.262 6.01166,-4.60832c0.59968,0.12579 4.62592,0.39342 5.60206,0.61437c0.16242,-1.82713 -0.62962,-5.84999 1.96985,-6.0415z" fill="#be1e2d" stroke-linecap="butt"/><path d="M209.96704,182.00765c0,0 4.5442,-1.34348 4.65098,0.26551c0.02484,0.37429 -0.28449,1.53769 -0.28449,1.53769c0,0 0.35697,0.69733 0.38763,1.06183c0.08176,0.97193 -0.84587,1.94329 -0.84587,1.94329" fill="none" stroke-linecap="round"/></g></g><path d="M266.95966,164.10718" fill="none" stroke="#000000" stroke-width="1.2" stroke-linecap="round"/><g stroke="#000000" stroke-width="1.2"><path d="M222.44495,195.77212c-0.24366,-0.23725 -3.12906,-3.21691 -3.12906,-3.21691c0,0 1.17277,5.03168 -2.01004,6.40562c-1.72335,0.74393 -5.61685,0.16986 -7.63512,0.32794c0,0 -2.31007,0.17914 -2.73141,-2.14956c-0.42134,-2.3287 1.88873,-2.50783 1.88873,-2.50783c0.44745,-0.03438 1.01272,-0.01541 1.62786,0.02045c1.92424,-5.98803 2.39395,-15.85863 11.12517,-10.78639c3.58399,2.08205 4.39305,2.90403 4.39305,2.90403c0,0 2.13428,-10.04095 6.85301,-9.42828c15.40049,1.99956 11.33955,19.97177 5.46146,20.62974c-8.91771,0.99821 -12.87697,0.68982 -15.84366,-2.19881z" fill="#be1e2d" stroke-linecap="butt"/><path d="M228.02614,191.84932c-0.88714,-3.20306 0.67122,-14.1335 5.88145,-10.78277c4.10134,2.63759 2.656,8.33619 1.3826,11.27005c-1.43346,3.30266 -6.30256,2.98429 -7.26407,-0.48728z" fill="#e6e7e8" stroke-linecap="round"/></g><path d="M239.48375,180.09384c1.05267,-1.58434 3.71688,-1.18759 4.83761,-0.84674c3.17677,0.96615 3.50752,3.66846 4.37322,6.67218c0.75301,2.61271 2.07718,5.50079 3.93022,7.07516c3.38007,0.87774 9.11022,-0.09053 8.53546,4.34581c-0.13781,1.06366 -5.94398,1.54055 -8.19281,1.6162c1.64569,2.40989 -0.75464,2.72103 -3.00137,1.46096c-0.92149,-0.51682 -3.11249,-1.32729 -4.63288,-2.87032c-1.52039,-1.54303 -0.709,-2.36486 -0.9615,-3.57746c-0.57287,-2.75101 -1.81318,-3.85461 -2.80339,-6.36734" fill="#be1e2d" stroke="#000000" stroke-width="1.2" stroke-linecap="butt"/><path d="M239.28667,197.18615c4.11196,4.52307 7.39637,16.01569 0.59475,15.6493c-1.0403,-0.05604 -1.905,-0.87606 -2.85747,-1.3141c-1.47498,-2.2009 -2.22401,-4.57736 -3.7332,-6.76078c-1.40083,-2.02664 -4.0272,-3.95887 -4.79106,-6.30569c-1.4872,-4.56923 5.482,-7.80759 9.50008,-5.51387" fill="#be1e2d" stroke="#000000" stroke-width="1.2" stroke-linecap="butt"/><path d="M245.05171,163.24978c0,0 2.25627,13.90142 -2.87702,16.6679c-4.7446,2.557 -15.87381,-7.1893 -15.87381,-7.1893c0,0 9.63915,0.74077 18.75082,-9.47861z" fill="#706d6d" stroke="#000000" stroke-width="1.2" stroke-linecap="round"/></g></g></svg>