<svg version="1.1" xmlns="http://www.w3.org/2000/svg" xmlns:xlink="http://www.w3.org/1999/xlink" width="323.92859" height="323.92859" viewBox="0,0,323.92859,323.92859"><g transform="translate(-78.0357,-18.03569)"><g stroke-miterlimit="10"><g stroke-linecap="butt"><path d="M287.05093,300.69278l4.37749,-69.80064l45.02029,-0.10411l-6.86993,69.90475z" fill="#868995" stroke="#000000" stroke-width="1.2"/><g><g><g><g fill="#868995" stroke="#000000" stroke-width="1.2"><path d="M314.13359,264.2157c0,0 -14.71488,0.3452 -16.54198,-1.91087c-1.40985,-1.74086 0.46249,-24.77184 2.15979,-26.4586c1.7424,-1.73158 16.44297,-1.76388 16.44297,-1.76388"/></g><g fill="none" stroke="none" stroke-width="1" font-family="sans-serif" font-weight="normal" font-size="12" text-anchor="start"/><g fill="none" stroke="none" stroke-width="1" font-family="sans-serif" font-weight="normal" font-size="12" text-anchor="start"/></g><g><g fill="#868995" stroke="#000000" stroke-width="1.2"><path d="M316.08632,234.08235c0,0 14.6953,0.0323 16.15501,1.76388c1.42192,1.68676 -0.46573,24.71773 -2.15979,26.45859c-2.19541,2.25607 -16.85394,1.91088 -16.85394,1.91088"/></g><g fill="none" stroke="none" stroke-width="1" font-family="sans-serif" font-weight="normal" font-size="12" text-anchor="start"/><g fill="none" stroke="none" stroke-width="1" font-family="sans-serif" font-weight="normal" font-size="12" text-anchor="start"/></g></g><g><g><g fill="#4e4f56" stroke="#000000" stroke-width="1.2"><path d="M314.22497,262.44251c0,0 -12.98201,0.30455 -14.59394,-1.68584c-1.24382,-1.53585 0.40802,-21.85463 1.90544,-23.34275c1.53721,-1.52767 14.5066,-1.55616 14.5066,-1.55616"/></g><g fill="none" stroke="none" stroke-width="1" font-family="sans-serif" font-weight="normal" font-size="12" text-anchor="start"/><g fill="none" stroke="none" stroke-width="1" font-family="sans-serif" font-weight="normal" font-size="12" text-anchor="start"/></g><g><g fill="#4e4f56" stroke="#000000" stroke-width="1.2"><path d="M315.94775,235.85776c0,0 12.96474,0.0285 14.25254,1.55616c1.25447,1.48812 -0.41089,21.8069 -1.90545,23.34275c-1.93687,1.99039 -14.86917,1.68584 -14.86917,1.68584"/></g><g fill="none" stroke="none" stroke-width="1" font-family="sans-serif" font-weight="normal" font-size="12" text-anchor="start"/><g fill="none" stroke="none" stroke-width="1" font-family="sans-serif" font-weight="normal" font-size="12" text-anchor="start"/></g></g><g><g><g fill="#9497a4" stroke="#000000" stroke-width="1.2"><path d="M314.68197,253.57661c0,0 -4.31767,0.10129 -4.85378,-0.56069c-0.41368,-0.51081 0.1357,-7.26859 0.63373,-7.76352c0.51126,-0.50808 4.82472,-0.51756 4.82472,-0.51756"/></g><g fill="none" stroke="none" stroke-width="1" font-family="sans-serif" font-weight="normal" font-size="12" text-anchor="start"/><g fill="none" stroke="none" stroke-width="1" font-family="sans-serif" font-weight="normal" font-size="12" text-anchor="start"/></g><g><g fill="#9497a4" stroke="#000000" stroke-width="1.2"><path d="M315.25494,244.73483c0,0 4.31192,0.00948 4.74023,0.51756c0.41723,0.49493 -0.13665,7.25272 -0.63373,7.76352c-0.64418,0.66198 -4.94531,0.56069 -4.94531,0.56069"/></g><g fill="none" stroke="none" stroke-width="1" font-family="sans-serif" font-weight="normal" font-size="12" text-anchor="start"/><g fill="none" stroke="none" stroke-width="1" font-family="sans-serif" font-weight="normal" font-size="12" text-anchor="start"/></g></g></g><g><g><g><g fill="#868995" stroke="#000000" stroke-width="1.2"><path d="M311.59361,294.79085c0,0 -11.16273,0.26187 -12.54877,-1.44959c-1.06951,-1.32062 0.35084,-18.79196 1.63841,-20.07154c1.32179,-1.31358 12.47367,-1.33808 12.47367,-1.33808"/></g><g fill="none" stroke="none" stroke-width="1" font-family="sans-serif" font-weight="normal" font-size="12" text-anchor="start"/><g fill="none" stroke="none" stroke-width="1" font-family="sans-serif" font-weight="normal" font-size="12" text-anchor="start"/></g><g><g fill="#868995" stroke="#000000" stroke-width="1.2"><path d="M313.07496,271.93164c0,0 11.14788,0.0245 12.25522,1.33808c1.07867,1.27958 -0.3533,18.75092 -1.63842,20.07154c-1.66544,1.71146 -12.78544,1.44959 -12.78544,1.44959"/></g><g fill="none" stroke="none" stroke-width="1" font-family="sans-serif" font-weight="normal" font-size="12" text-anchor="start"/><g fill="none" stroke="none" stroke-width="1" font-family="sans-serif" font-weight="normal" font-size="12" text-anchor="start"/></g></g><g><g><g fill="#4e4f56" stroke="#000000" stroke-width="1.2"><path d="M311.66294,293.4457c0,0 -9.84817,0.23103 -11.07098,-1.27888c-0.94357,-1.1651 0.30953,-16.57896 1.44547,-17.70785c1.16613,-1.15889 11.00473,-1.18051 11.00473,-1.18051"/></g><g fill="none" stroke="none" stroke-width="1" font-family="sans-serif" font-weight="normal" font-size="12" text-anchor="start"/><g fill="none" stroke="none" stroke-width="1" font-family="sans-serif" font-weight="normal" font-size="12" text-anchor="start"/></g><g><g fill="#4e4f56" stroke="#000000" stroke-width="1.2"><path d="M312.96985,273.27847c0,0 9.83507,0.02162 10.812,1.18051c0.95164,1.12889 -0.3117,16.54275 -1.44547,17.70785c-1.46932,1.50991 -11.27978,1.27888 -11.27978,1.27888"/></g><g fill="none" stroke="none" stroke-width="1" font-family="sans-serif" font-weight="normal" font-size="12" text-anchor="start"/><g fill="none" stroke="none" stroke-width="1" font-family="sans-serif" font-weight="normal" font-size="12" text-anchor="start"/></g></g><g><g><g fill="#9497a4" stroke="#000000" stroke-width="1.2"><path d="M312.00961,286.72002c0,0 -3.27538,0.07683 -3.68208,-0.42534c-0.31382,-0.3875 0.10295,-5.51397 0.48075,-5.88942c0.38784,-0.38543 3.66004,-0.39263 3.66004,-0.39263"/></g><g fill="none" stroke="none" stroke-width="1" font-family="sans-serif" font-weight="normal" font-size="12" text-anchor="start"/><g fill="none" stroke="none" stroke-width="1" font-family="sans-serif" font-weight="normal" font-size="12" text-anchor="start"/></g><g><g fill="#9497a4" stroke="#000000" stroke-width="1.2"><path d="M312.44426,280.01263c0,0 3.27103,0.00719 3.59595,0.39263c0.31651,0.37545 -0.10367,5.50192 -0.48075,5.88942c-0.48867,0.50218 -3.75152,0.42534 -3.75152,0.42534"/></g><g fill="none" stroke="none" stroke-width="1" font-family="sans-serif" font-weight="normal" font-size="12" text-anchor="start"/><g fill="none" stroke="none" stroke-width="1" font-family="sans-serif" font-weight="normal" font-size="12" text-anchor="start"/></g></g></g></g><g stroke-linecap="butt"><path d="M150.4212,300.69278l-6.86992,-69.90475l45.02029,0.10411l4.37749,69.80064z" fill="#868995" stroke="#000000" stroke-width="1.2"/><g><g><g><g fill="#868995" stroke="#000000" stroke-width="1.2"><path d="M163.80563,234.08235c0,0 14.70057,0.0323 16.44297,1.76388c1.6973,1.68676 3.56964,24.71773 2.15979,26.45859c-1.82709,2.25607 -16.54198,1.91087 -16.54198,1.91087"/></g><g fill="none" stroke="none" stroke-width="1" font-family="sans-serif" font-weight="normal" font-size="12" text-anchor="start"/><g fill="none" stroke="none" stroke-width="1" font-family="sans-serif" font-weight="normal" font-size="12" text-anchor="start"/></g><g><g fill="#868995" stroke="#000000" stroke-width="1.2"><path d="M166.77241,264.2157c0,0 -14.65853,0.3452 -16.85394,-1.91087c-1.69406,-1.74086 -3.58171,-24.77183 -2.15979,-26.45859c1.45971,-1.73158 16.15501,-1.76388 16.15501,-1.76388"/></g><g fill="none" stroke="none" stroke-width="1" font-family="sans-serif" font-weight="normal" font-size="12" text-anchor="start"/><g fill="none" stroke="none" stroke-width="1" font-family="sans-serif" font-weight="normal" font-size="12" text-anchor="start"/></g></g><g><g><g fill="#4e4f56" stroke="#000000" stroke-width="1.2"><path d="M163.95692,235.85776c0,0 12.96939,0.0285 14.5066,1.55616c1.49742,1.48812 3.14926,21.8069 1.90544,23.34275c-1.61193,1.99039 -14.59394,1.68584 -14.59394,1.68584"/></g><g fill="none" stroke="none" stroke-width="1" font-family="sans-serif" font-weight="normal" font-size="12" text-anchor="start"/><g fill="none" stroke="none" stroke-width="1" font-family="sans-serif" font-weight="normal" font-size="12" text-anchor="start"/></g><g><g fill="#4e4f56" stroke="#000000" stroke-width="1.2"><path d="M166.57432,262.44251c0,0 -12.93229,0.30455 -14.86917,-1.68584c-1.49456,-1.53585 -3.15992,-21.85463 -1.90544,-23.34275c1.28781,-1.52766 14.25254,-1.55616 14.25254,-1.55616"/></g><g fill="none" stroke="none" stroke-width="1" font-family="sans-serif" font-weight="normal" font-size="12" text-anchor="start"/><g fill="none" stroke="none" stroke-width="1" font-family="sans-serif" font-weight="normal" font-size="12" text-anchor="start"/></g></g><g><g><g fill="#9497a4" stroke="#000000" stroke-width="1.2"><path d="M164.71335,244.73483c0,0 4.31347,0.00948 4.82472,0.51756c0.49803,0.49493 1.04741,7.25272 0.63373,7.76352c-0.53611,0.66198 -4.85377,0.56069 -4.85377,0.56069"/></g><g fill="none" stroke="none" stroke-width="1" font-family="sans-serif" font-weight="normal" font-size="12" text-anchor="start"/><g fill="none" stroke="none" stroke-width="1" font-family="sans-serif" font-weight="normal" font-size="12" text-anchor="start"/></g><g><g fill="#9497a4" stroke="#000000" stroke-width="1.2"><path d="M165.58387,253.57661c0,0 -4.30113,0.10129 -4.94531,-0.56069c-0.49707,-0.51081 -1.05095,-7.26859 -0.63373,-7.76352c0.42831,-0.50808 4.74023,-0.51756 4.74023,-0.51756"/></g><g fill="none" stroke="none" stroke-width="1" font-family="sans-serif" font-weight="normal" font-size="12" text-anchor="start"/><g fill="none" stroke="none" stroke-width="1" font-family="sans-serif" font-weight="normal" font-size="12" text-anchor="start"/></g></g></g><g><g><g><g fill="#868995" stroke="#000000" stroke-width="1.2"><path d="M166.84307,271.93164c0,0 11.15188,0.0245 12.47367,1.33808c1.28757,1.27958 2.70793,18.75092 1.63842,20.07154c-1.38604,1.71146 -12.54877,1.44959 -12.54877,1.44959"/></g><g fill="none" stroke="none" stroke-width="1" font-family="sans-serif" font-weight="normal" font-size="12" text-anchor="start"/><g fill="none" stroke="none" stroke-width="1" font-family="sans-serif" font-weight="normal" font-size="12" text-anchor="start"/></g><g><g fill="#868995" stroke="#000000" stroke-width="1.2"><path d="M169.09368,294.79085c0,0 -11.11999,0.26187 -12.78543,-1.44959c-1.28511,-1.32062 -2.71709,-18.79196 -1.63842,-20.07153c1.10733,-1.31358 12.25522,-1.33808 12.25522,-1.33808"/></g><g fill="none" stroke="none" stroke-width="1" font-family="sans-serif" font-weight="normal" font-size="12" text-anchor="start"/><g fill="none" stroke="none" stroke-width="1" font-family="sans-serif" font-weight="normal" font-size="12" text-anchor="start"/></g></g><g><g><g fill="#4e4f56" stroke="#000000" stroke-width="1.2"><path d="M166.95783,273.27847c0,0 9.8386,0.02162 11.00473,1.18051c1.13595,1.12889 2.38904,16.54275 1.44547,17.70785c-1.22281,1.50991 -11.07099,1.27888 -11.07099,1.27888"/></g><g fill="none" stroke="none" stroke-width="1" font-family="sans-serif" font-weight="normal" font-size="12" text-anchor="start"/><g fill="none" stroke="none" stroke-width="1" font-family="sans-serif" font-weight="normal" font-size="12" text-anchor="start"/></g><g><g fill="#4e4f56" stroke="#000000" stroke-width="1.2"><path d="M168.9434,293.4457c0,0 -9.81046,0.23103 -11.27978,-1.27888c-1.13378,-1.1651 -2.39712,-16.57896 -1.44547,-17.70785c0.97693,-1.15889 10.812,-1.18051 10.812,-1.18051"/></g><g fill="none" stroke="none" stroke-width="1" font-family="sans-serif" font-weight="normal" font-size="12" text-anchor="start"/><g fill="none" stroke="none" stroke-width="1" font-family="sans-serif" font-weight="normal" font-size="12" text-anchor="start"/></g></g><g><g><g fill="#9497a4" stroke="#000000" stroke-width="1.2"><path d="M167.53167,280.01263c0,0 3.2722,0.00719 3.66005,0.39262c0.3778,0.37545 0.79457,5.50193 0.48075,5.88942c-0.40669,0.50218 -3.68208,0.42534 -3.68208,0.42534"/></g><g fill="none" stroke="none" stroke-width="1" font-family="sans-serif" font-weight="normal" font-size="12" text-anchor="start"/><g fill="none" stroke="none" stroke-width="1" font-family="sans-serif" font-weight="normal" font-size="12" text-anchor="start"/></g><g><g fill="#9497a4" stroke="#000000" stroke-width="1.2"><path d="M168.19205,286.72002c0,0 -3.26285,0.07684 -3.75152,-0.42534c-0.37708,-0.3875 -0.79725,-5.51397 -0.48074,-5.88942c0.32492,-0.38543 3.59594,-0.39262 3.59594,-0.39262"/></g><g fill="none" stroke="none" stroke-width="1" font-family="sans-serif" font-weight="normal" font-size="12" text-anchor="start"/><g fill="none" stroke="none" stroke-width="1" font-family="sans-serif" font-weight="normal" font-size="12" text-anchor="start"/></g></g></g></g><path d="M187.3461,300.92055l-3.94905,-103.37655h113.20589l-3.94904,103.37655z" fill="#868995" stroke="#000000" stroke-width="1.2" stroke-linecap="butt"/><path d="M192.35429,176.0774" fill="none" stroke="#000000" stroke-width="1.2" stroke-linecap="round"/><path d="M200.34224,180.47576" fill="none" stroke="#000000" stroke-width="1.2" stroke-linecap="round"/><g><g stroke-linecap="round"><g stroke="#000000" stroke-width="1.2"><path d="M204.55102,156.82253c-15.74997,-3.01522 -26.61201,-33.94641 -26.61201,-33.94641c10.0659,-1.33576 14.15554,2.5161 14.68529,2.88611c0.52987,0.37087 10.28287,8.66425 10.28287,8.66425c-1.05736,13.42109 1.64384,22.39605 1.64384,22.39605zM203.34071,131.5747c0,0 -0.38739,2.03064 -0.45582,3.13562M204.55102,156.82253c0.27114,0.90312 1.0541,2.30662 1.0541,2.30662" fill="#be1e2d"/><path d="M198.09539,153.52262c-2.94968,-2.01762 -6.53839,-5.16985 -9.93034,-9.98326c-3.02418,-4.29188 -6.14161,-10.9744 -8.1232,-15.57531l0.06424,-0.06675c6.21398,-1.23325 9.86749,2.91916 9.86749,2.91916l0.22619,0.33182c1.50387,2.45102 3.11506,4.91108 4.41841,6.48147c0.76943,0.92862 1.58913,1.73881 2.3532,2.4131c0,0 1.5697,4.24289 1.85844,7.22475c0.43321,4.4106 -0.8568,6.18643 -0.8568,6.18643z" fill="#929497"/></g><path d="M265.97665,168.69284l-10.743,8.57726l-24.25178,0.6027l-10.2469,4.61343l-15.4881,-4.40064l-6.70977,-8.2112l-5.79712,-9.85752l-3.49973,-12.43194l0.4703,-12.30199l2.95819,-9.40044l4.75493,-9.21774l6.52794,-8.35721l7.41125,-7.49259l8.26412,-6.91386l5.80437,-3.97334l2.5084,-2.84233l2.73235,-4.65598l1.81491,-4.50931l1.50465,-6.08016l-0.39901,-8.17857l4.59589,5.62649l4.76939,7.2558l0.19749,-3.91976l0.99605,2.13594l3.94684,6.74916l5.60188,6.41219l3.70442,3.02903l5.39683,4.48664l6.5705,5.40329l5.8899,6.22973l4.85819,6.64615l4.17759,7.47259l3.06702,7.14843l0.95629,7.5369l0.34872,7.60556l-1.1445,6.57515l-2.52147,8.0799l-3.00458,4.98656l-5.15017,6.72488z" fill="#be1e2d" stroke="#8c8c8c" stroke-width="0"/><path d="M276.75293,169.97051l-10.82854,-1.2006l-10.72798,8.73598l-24.1815,0.33498l-10.25457,4.56992l-14.74597,-3.67216c0,0 -48.07939,-42.69083 19.10443,-88.25857c0,0 11.84169,-11.44412 8.01284,-27.58206c-0.31141,-1.31256 9.63933,13.6064 9.63933,13.6064c0,0 -0.06195,-5.31526 0.16002,-4.65051c2.45995,7.36706 11.31211,16.77183 11.31211,16.77183c55.58936,37.78628 27.54755,75.63741 27.54755,75.63741z" fill="none" stroke="#000000" stroke-width="1.2"/><g stroke="#000000" stroke-width="1.2"><path d="M280.4989,125.76346c0,0 8.16836,-11.12923 8.62946,-11.66153c0.46117,-0.53148 3.80497,-5.5379 14.3869,-8.04304c0,0 -4.38017,32.08547 -19.82752,40.63889c0,0 0.81033,-9.1435 -3.18885,-20.93432zM280.5834,126.01285c-0.31021,-0.97763 -1.14781,-2.67762 -1.14781,-2.67762M283.11154,149.18064c0,0 0.49534,-1.56302 0.57619,-2.48285" fill="#be1e2d"/><path d="M289.68075,141.21108c0,0 -1.70504,-1.13536 -2.22111,-5.29853c-0.35314,-2.81304 0.32923,-7.24372 0.32923,-7.24372c0.63459,-0.89418 1.29651,-1.93226 1.88127,-3.05926c0.99112,-1.90668 2.10351,-4.73453 3.10816,-7.51454l0.15913,-0.3847c0,0 2.83253,-5.11812 9.45392,-6.29373l0.0802,0.03686c-1.02563,4.90774 -2.75995,12.12427 -4.91873,17.13657c-2.4214,5.62147 -5.40516,9.8079 -7.98226,12.7285z" fill="#929497"/></g></g><g><g><path d="M276.2598,148.08766c1.72602,15.73257 -13.8812,30.35213 -34.8597,32.65368c-20.97851,2.30156 -39.38417,-8.58643 -41.11019,-24.31901c-1.72602,-15.73257 13.88119,-30.35213 34.8597,-32.65368c20.97851,-2.30156 39.38417,8.58643 41.11019,24.31901z" fill="#e6e7e8" stroke="#000000" stroke-width="1.2" stroke-linecap="butt"/><path d="M216.41691,179.72878l2.18777,2.68381l2.78498,1.76943l-1.82991,0.57802l-4.35662,-0.65383l-3.99723,-1.91939l-1.76323,-2.44743l-4.82583,-2.20574l-3.62382,-2.14899l0.16325,2.37402c-5.44401,-9.40899 -14.29283,-19.07497 -11.86965,-32.40145c26.51779,-30.3579 72.11467,-38.13822 88.94972,-6.33621c0.22512,0.42526 0.43625,0.84981 0.63398,1.27369c0.14565,0.63931 0.25077,1.23722 0.3008,1.77999c0.56594,6.13969 0.28991,12.21513 0.32185,18.41562c0.0021,0.40852 -0.06187,0.86542 -0.16713,1.34755l-0.8361,1.34685l-0.31195,-1.43168l-2.19844,5.37185l-4.55753,5.0443l-2.90179,1.78426l-0.00174,-4.25092l-0.48261,-5.81065l-0.96763,-4.58473l-1.08714,-0.02733l0.3002,-1.49883l0.99593,-3.62742l-0.29191,-4.0725l-1.10477,-4.42309l-3.70637,-4.13766l-6.12313,-3.57935l-8.00135,-2.34715l-9.25155,-1.03727l2.42266,0.90693l3.83763,2.51078l2.2178,3.27484l-17.31058,-2.49856l-16.71434,-2.71056l-0.44735,2.98089l-2.25612,6.25771l-2.15077,5.80639l0.58798,5.35932l3.17368,4.92907l4.39209,3.32948l-3.15017,0.93197l-2.75463,0.30221l0.38138,3.47632l2.09655,3.58133l2.35495,3.11321l2.61335,2.64509z" fill="#be1e2d" stroke="#8c8c8c" stroke-width="0" stroke-linecap="butt"/><path d="M212.65264,135.98251c-0.75103,8.02346 -5.22085,12.44239 -4.75552,16.61157c0.95782,8.5816 8.3606,11.7355 8.3606,11.7355c0,0 -5.1698,3.05652 -11.44706,-0.22172" fill="none" stroke="#000000" stroke-width="1.2" stroke-linecap="round"/><path d="M199.88946,156.01283c-0.79163,-1.55617 -1.56338,-3.34928 -2.30213,-5.4121" fill="none" stroke="#000000" stroke-width="1.2" stroke-linecap="round"/><path d="M206.16783,134.03839c15.54258,4.47062 41.01015,6.74787 41.01015,6.74787c0,0 -2.84825,-4.22697 -8.60668,-6.24141c0,0 36.2097,0.0248 26.67742,25.03475c0,0 3.51212,-2.01985 5.82524,-5.80309" fill="none" stroke="#000000" stroke-width="1.2" stroke-linecap="round"/><path d="M272.69392,144.70392c0.30894,1.77813 0.48141,2.60242 0.1643,4.08086" fill="none" stroke="#000000" stroke-width="1.2" stroke-linecap="round"/><path d="M277.28443,162.47684c-1.54203,6.8162 -9.31931,11.33226 -9.31931,11.33226c0,0 0.46263,-9.74556 -1.62567,-14.81778" fill="none" stroke="#000000" stroke-width="1.2" stroke-linecap="round"/><path d="M199.3768,155.77502c-3.95713,7.84815 1.88153,21.66294 1.88153,21.66294c0,0 -16.77551,-20.46139 -11.51137,-33.13229" fill="none" stroke="#000000" stroke-width="1.2" stroke-linecap="round"/><path d="M280.10245,160.16428c-1.28406,2.45977 -2.32252,3.82029 -2.32252,3.82029c0,0 0.43783,-9.72107 -4.95494,-15.07736" fill="none" stroke="#000000" stroke-width="1.2" stroke-linecap="round"/><path d="M210.47161,165.74543c-0.73245,6.79269 7.52406,12.92099 7.52406,12.92099c0,0 -10.34198,3.0382 -17.42354,-3.86821" fill="none" stroke="#000000" stroke-width="1.2" stroke-linecap="round"/><path d="M215.73016,179.19303c1.3609,3.16315 5.78602,4.97738 5.78602,4.97738c0,0 -8.2442,2.38688 -12.95611,-4.97384" fill="none" stroke="#000000" stroke-width="1.2" stroke-linecap="round"/></g><g><path d="M259.80366,148.51511c0.54226,-0.09248 0.86859,0.7086 1.00217,1.04744c0.50085,1.27052 0.48777,2.82667 -0.44707,3.86836l-0.40505,0.09503c-0.17902,0.08462 -0.43686,0.12432 -0.79621,0.09728c-3.02337,-0.22747 -5.67655,-0.48766 -8.66927,0.66718c-0.8586,0.33132 -2.35462,1.74653 -3.08522,1.89453c-0.93714,0.18984 -1.28932,-0.0437 -1.47916,-0.98083c-0.18525,-0.91447 1.52913,-1.70218 2.14601,-2.02032c2.14765,-1.1076 4.58177,-1.72737 7.00331,-1.93869c0.49115,-0.50276 0.75054,-1.09946 1.04696,-1.83451c0.08526,-0.21142 0.43897,-1.03573 0.52847,-1.04973c1.00515,-0.15721 1.19471,1.53449 1.15968,2.79535c0.26453,0.00909 0.53225,0.02712 0.77867,0.0593c0.39238,-1.09446 0.82864,-2.63421 1.2167,-2.70039z" fill="#000000" stroke="none" stroke-width="0.5" stroke-linecap="butt"/><path d="M221.57429,157.06356c0.2077,-0.12328 0.43792,-0.23914 0.66777,-0.34435c-0.37125,-1.33089 -0.66164,-3.20197 0.26346,-3.39738c0.08238,-0.0174 0.61558,0.73324 0.74755,0.92774c0.4588,0.67623 0.84772,1.2184 1.41478,1.57677c2.1835,-0.64918 4.48835,-0.86765 6.67338,-0.46289c0.62762,0.11626 2.34579,0.33659 2.43007,1.37792c0.08637,1.06714 -0.15984,1.44315 -1.03403,1.57924c-0.68153,0.1061 -2.37742,-0.86173 -3.22085,-0.90475c-2.93987,-0.14997 -5.19946,1.08525 -7.79295,2.41931c-0.30826,0.15857 -0.5454,0.20938 -0.72545,0.18385l-0.38135,0.04498c-1.10222,-0.77245 -1.53393,-2.42592 -1.43723,-3.96059c0.02579,-0.40929 0.09604,-1.38074 0.59718,-1.47799c0.35865,-0.06959 1.15753,1.4136 1.79766,2.43815z" fill="#000000" stroke="none" stroke-width="0.5" stroke-linecap="butt"/><path d="M253.05407,164.07508c-9.61007,9.75217 -22.56601,5.99857 -22.56601,5.99857" fill="none" stroke="#000000" stroke-width="1.2" stroke-linecap="round"/></g></g></g><path d="M266.95966,164.10718" fill="none" stroke="#000000" stroke-width="1.2" stroke-linecap="round"/><g stroke="#000000" stroke-width="1.2"><path d="M231.65979,178.63595c0.19222,-0.0302 0.3766,-0.05415 0.55333,-0.07206c0.29395,-0.08192 0.60604,-0.09682 0.91128,-0.0388c6.82199,0.17276 -1.50678,12.05761 -4.0803,12.88031c-2.18236,0.69765 -6.74777,-0.76286 -5.73928,-3.93541c0.364,-1.14508 7.22344,-8.40866 8.29794,-8.75216z" fill="#be1e2d" stroke-linecap="butt"/><g><path d="M223.15447,195.77211c-0.21898,-0.23725 -2.79447,-3.21691 -2.79447,-3.21691c0,0 0.64942,5.03168 -2.6763,6.40562c-1.80073,0.74393 -5.63452,0.16986 -7.66923,0.32794c0,0 -2.3287,0.17914 -2.50783,-2.14956c-0.17913,-2.3287 2.14957,-2.50783 2.14957,-2.50783c0.45103,-0.03438 1.01433,-0.01541 1.62573,0.02045c2.54706,-5.98803 4.04342,-15.85863 12.24708,-10.78639c3.36744,2.08205 4.091,2.90403 4.091,2.90403c0,0 3.17865,-10.04095 7.83366,-9.42828c15.19251,1.99956 9.26225,19.97177 3.31573,20.62974c-9.02153,0.99821 -12.94872,0.68982 -15.61496,-2.19881z" fill="#be1e2d" stroke-linecap="butt"/><path d="M229.14369,191.84931c-0.55398,-3.20306 2.14127,-14.1335 7.00299,-10.78277c3.827,2.63759 1.78894,8.33619 0.21039,11.27005c-1.77698,3.30266 -6.61296,2.98429 -7.21338,-0.48728z" fill="#e6e7e8" stroke-linecap="round"/></g><path d="M241.38188,180.09383c1.17353,-1.58434 3.80747,-1.18759 4.9022,-0.84674c3.10307,0.96615 3.22768,3.66846 3.86425,6.67218c0.5537,2.61271 1.65756,5.50079 3.39051,7.07516c3.31311,0.87774 9.11712,-0.09053 8.20395,4.34581c-0.21895,1.06366 -6.06149,1.54055 -8.31609,1.6162c1.46186,2.40989 -0.9622,2.72103 -3.11282,1.46096c-0.88207,-0.51682 -3.01125,-1.32729 -4.41393,-2.87032c-1.40268,-1.54303 -0.5286,-2.36486 -0.6886,-3.57746c-0.36301,-2.75101 -1.51914,-3.85461 -2.31767,-6.36734" fill="#be1e2d" stroke-linecap="butt"/><path d="M223.35852,183.81383c-0.2593,1.27292 -1.77231,1.63144 -1.77231,1.63144c0,0 -1.17618,2.43562 -4.87863,3.24193c-4.98774,1.08622 -6.18244,-5.19047 -1.38245,-7.53982c0,0 4.02127,-2.56991 6.10953,-1.93709c0.70059,0.2123 0.69889,1.26761 1.0232,1.95597c0.65055,1.38082 1.15996,1.37465 0.90066,2.64757z" fill="#be1e2d" stroke-linecap="butt"/></g><g stroke="#000000" stroke-width="1.2" stroke-linecap="butt"><g fill="#868995"><path d="M240.75084,244.52207c0,0 -41.94558,0.42456 -44.92372,-2.35022c-2.29803,-2.14112 -2.30937,-30.46732 0,-32.5419c2.37074,-2.1297 44.33295,-2.16943 44.33295,-2.16943"/><path d="M239.83992,207.46052c0,0 41.96221,0.03973 44.33295,2.16943c2.30938,2.07458 2.29804,30.40079 0,32.5419c-2.97814,2.77478 -44.92372,2.35022 -44.92372,2.35022"/></g><g fill="#4e4f56"><path d="M240.71252,242.40879c0,0 -39.80476,0.37611 -42.6309,-2.08203c-2.18075,-1.89678 -2.19151,-26.99059 0,-28.82843c2.24974,-1.88667 42.07028,-1.92187 42.07028,-1.92187"/><path d="M239.84809,209.57646c0,0 39.82055,0.0352 42.07029,1.92187c2.19151,1.83784 2.18075,26.93165 0,28.82843c-2.82614,2.45814 -42.63091,2.08203 -42.63091,2.08203"/></g><g fill="#9497a4"><path d="M240.2322,231.45281c0,0 -12.9719,0.12494 -13.8929,-0.69163c-0.71068,-0.6301 -0.71419,-8.96603 0,-9.57654c0.73316,-0.62673 13.7102,-0.63843 13.7102,-0.63843"/><path d="M239.9505,220.54622c0,0 12.97703,0.0117 13.7102,0.63843c0.71418,0.61051 0.71068,8.94644 0,9.57654c-0.92101,0.81657 -13.8929,0.69163 -13.8929,0.69163"/></g></g><g stroke="#000000" stroke-width="1.2" stroke-linecap="butt"><g fill="#868995"><path d="M240.65981,285.68287c0,0 -36.86021,0.37309 -39.47728,-2.06529c-2.01943,-1.88153 -2.02939,-26.77355 0,-28.59661c2.08332,-1.8715 38.95814,-1.90641 38.95814,-1.90641"/><path d="M239.85933,253.11456c0,0 36.87483,0.03491 38.95815,1.90641c2.02939,1.82306 2.01943,26.71508 0,28.59661c-2.61708,2.43837 -39.47729,2.06528 -39.47729,2.06528"/></g><g fill="#4e4f56"><path d="M240.62614,283.82579c0,0 -34.97894,0.33051 -37.46244,-1.82961c-1.91636,-1.66682 -1.92582,-23.71832 0,-25.33335c1.97699,-1.65794 36.96979,-1.68887 36.96979,-1.68887"/><path d="M239.86651,254.97397c0,0 34.99281,0.03093 36.9698,1.68887c1.92582,1.61503 1.91636,23.66653 0,25.33335c-2.48351,2.16012 -37.46245,1.82961 -37.46245,1.82961"/></g><g fill="#9497a4"><path d="M240.20405,274.19809c0,0 -11.39922,0.10979 -12.20856,-0.60778c-0.62452,-0.5537 -0.6276,-7.87901 0,-8.4155c0.64428,-0.55075 12.04801,-0.56103 12.04801,-0.56103"/><path d="M239.9565,264.61377c0,0 11.40373,0.01028 12.04801,0.56103c0.6276,0.53649 0.62452,7.8618 0,8.41551c-0.80934,0.71757 -12.20856,0.60777 -12.20856,0.60777"/></g></g><path d="M238.89696,198.14484c3.29344,4.84297 4.54711,16.5247 -2.14392,15.56921c-1.02339,-0.14614 -1.73887,-1.03454 -2.60829,-1.55181c-1.08029,-2.31077 -1.40892,-4.73242 -2.52625,-7.02884c-1.0371,-2.13153 -3.30785,-4.27614 -3.65638,-6.66969c-0.67857,-4.66021 6.8088,-7.26451 10.39856,-4.64028" fill="#be1e2d" stroke="#000000" stroke-width="1.2" stroke-linecap="butt"/><path d="M78.0357,341.96429v-323.92859h323.92859v323.92859z" fill="none" stroke="#000000" stroke-width="0" stroke-linecap="butt"/></g></g></svg>