<svg version="1.1" xmlns="http://www.w3.org/2000/svg" xmlns:xlink="http://www.w3.org/1999/xlink" width="323.92859" height="323.92859" viewBox="0,0,323.92859,323.92859"><g transform="translate(-78.0357,-18.0357)"><g stroke-miterlimit="10"><g stroke-linecap="butt"><path d="M287.05093,300.69278l4.37749,-69.80064l45.02029,-0.10411l-6.86993,69.90475z" fill="#868995" stroke="#000000" stroke-width="1.2"/><g><g><g><g fill="#868995" stroke="#000000" stroke-width="1.2"><path d="M314.13359,264.2157c0,0 -14.71488,0.3452 -16.54198,-1.91087c-1.40985,-1.74086 0.46249,-24.77184 2.15979,-26.4586c1.7424,-1.73158 16.44297,-1.76388 16.44297,-1.76388"/></g><g fill="none" stroke="none" stroke-width="1" font-family="sans-serif" font-weight="normal" font-size="12" text-anchor="start"/><g fill="none" stroke="none" stroke-width="1" font-family="sans-serif" font-weight="normal" font-size="12" text-anchor="start"/></g><g><g fill="#868995" stroke="#000000" stroke-width="1.2"><path d="M316.08632,234.08235c0,0 14.6953,0.0323 16.15501,1.76388c1.42192,1.68676 -0.46573,24.71773 -2.15979,26.45859c-2.19541,2.25607 -16.85394,1.91088 -16.85394,1.91088"/></g><g fill="none" stroke="none" stroke-width="1" font-family="sans-serif" font-weight="normal" font-size="12" text-anchor="start"/><g fill="none" stroke="none" stroke-width="1" font-family="sans-serif" font-weight="normal" font-size="12" text-anchor="start"/></g></g><g><g><g fill="#4e4f56" stroke="#000000" stroke-width="1.2"><path d="M314.22497,262.44251c0,0 -12.98201,0.30455 -14.59394,-1.68584c-1.24382,-1.53585 0.40802,-21.85463 1.90544,-23.34275c1.53721,-1.52767 14.5066,-1.55616 14.5066,-1.55616"/></g><g fill="none" stroke="none" stroke-width="1" font-family="sans-serif" font-weight="normal" font-size="12" text-anchor="start"/><g fill="none" stroke="none" stroke-width="1" font-family="sans-serif" font-weight="normal" font-size="12" text-anchor="start"/></g><g><g fill="#4e4f56" stroke="#000000" stroke-width="1.2"><path d="M315.94775,235.85776c0,0 12.96474,0.0285 14.25254,1.55616c1.25447,1.48812 -0.41089,21.8069 -1.90545,23.34275c-1.93687,1.99039 -14.86917,1.68584 -14.86917,1.68584"/></g><g fill="none" stroke="none" stroke-width="1" font-family="sans-serif" font-weight="normal" font-size="12" text-anchor="start"/><g fill="none" stroke="none" stroke-width="1" font-family="sans-serif" font-weight="normal" font-size="12" text-anchor="start"/></g></g><g><g><g fill="#9497a4" stroke="#000000" stroke-width="1.2"><path d="M314.68197,253.57661c0,0 -4.31767,0.10129 -4.85378,-0.56069c-0.41368,-0.51081 0.1357,-7.26859 0.63373,-7.76352c0.51126,-0.50808 4.82472,-0.51756 4.82472,-0.51756"/></g><g fill="none" stroke="none" stroke-width="1" font-family="sans-serif" font-weight="normal" font-size="12" text-anchor="start"/><g fill="none" stroke="none" stroke-width="1" font-family="sans-serif" font-weight="normal" font-size="12" text-anchor="start"/></g><g><g fill="#9497a4" stroke="#000000" stroke-width="1.2"><path d="M315.25494,244.73483c0,0 4.31192,0.00948 4.74023,0.51756c0.41723,0.49493 -0.13665,7.25272 -0.63373,7.76352c-0.64418,0.66198 -4.94531,0.56069 -4.94531,0.56069"/></g><g fill="none" stroke="none" stroke-width="1" font-family="sans-serif" font-weight="normal" font-size="12" text-anchor="start"/><g fill="none" stroke="none" stroke-width="1" font-family="sans-serif" font-weight="normal" font-size="12" text-anchor="start"/></g></g></g><g><g><g><g fill="#868995" stroke="#000000" stroke-width="1.2"><path d="M311.59361,294.79085c0,0 -11.16273,0.26187 -12.54877,-1.44959c-1.06951,-1.32062 0.35084,-18.79196 1.63841,-20.07154c1.32179,-1.31358 12.47367,-1.33808 12.47367,-1.33808"/></g><g fill="none" stroke="none" stroke-width="1" font-family="sans-serif" font-weight="normal" font-size="12" text-anchor="start"/><g fill="none" stroke="none" stroke-width="1" font-family="sans-serif" font-weight="normal" font-size="12" text-anchor="start"/></g><g><g fill="#868995" stroke="#000000" stroke-width="1.2"><path d="M313.07496,271.93164c0,0 11.14788,0.0245 12.25522,1.33808c1.07867,1.27958 -0.3533,18.75092 -1.63842,20.07154c-1.66544,1.71146 -12.78544,1.44959 -12.78544,1.44959"/></g><g fill="none" stroke="none" stroke-width="1" font-family="sans-serif" font-weight="normal" font-size="12" text-anchor="start"/><g fill="none" stroke="none" stroke-width="1" font-family="sans-serif" font-weight="normal" font-size="12" text-anchor="start"/></g></g><g><g><g fill="#4e4f56" stroke="#000000" stroke-width="1.2"><path d="M311.66294,293.44571c0,0 -9.84817,0.23103 -11.07098,-1.27888c-0.94357,-1.1651 0.30953,-16.57896 1.44547,-17.70785c1.16613,-1.15889 11.00473,-1.18051 11.00473,-1.18051"/></g><g fill="none" stroke="none" stroke-width="1" font-family="sans-serif" font-weight="normal" font-size="12" text-anchor="start"/><g fill="none" stroke="none" stroke-width="1" font-family="sans-serif" font-weight="normal" font-size="12" text-anchor="start"/></g><g><g fill="#4e4f56" stroke="#000000" stroke-width="1.2"><path d="M312.96985,273.27847c0,0 9.83507,0.02162 10.812,1.18051c0.95164,1.12889 -0.3117,16.54275 -1.44547,17.70785c-1.46932,1.50991 -11.27978,1.27888 -11.27978,1.27888"/></g><g fill="none" stroke="none" stroke-width="1" font-family="sans-serif" font-weight="normal" font-size="12" text-anchor="start"/><g fill="none" stroke="none" stroke-width="1" font-family="sans-serif" font-weight="normal" font-size="12" text-anchor="start"/></g></g><g><g><g fill="#9497a4" stroke="#000000" stroke-width="1.2"><path d="M312.00961,286.72002c0,0 -3.27538,0.07683 -3.68208,-0.42534c-0.31382,-0.3875 0.10295,-5.51397 0.48075,-5.88942c0.38784,-0.38543 3.66004,-0.39263 3.66004,-0.39263"/></g><g fill="none" stroke="none" stroke-width="1" font-family="sans-serif" font-weight="normal" font-size="12" text-anchor="start"/><g fill="none" stroke="none" stroke-width="1" font-family="sans-serif" font-weight="normal" font-size="12" text-anchor="start"/></g><g><g fill="#9497a4" stroke="#000000" stroke-width="1.2"><path d="M312.44426,280.01263c0,0 3.27103,0.00719 3.59595,0.39263c0.31651,0.37545 -0.10367,5.50192 -0.48075,5.88942c-0.48867,0.50218 -3.75152,0.42534 -3.75152,0.42534"/></g><g fill="none" stroke="none" stroke-width="1" font-family="sans-serif" font-weight="normal" font-size="12" text-anchor="start"/><g fill="none" stroke="none" stroke-width="1" font-family="sans-serif" font-weight="normal" font-size="12" text-anchor="start"/></g></g></g></g><g stroke-linecap="butt"><path d="M150.4212,300.69278l-6.86992,-69.90475l45.02029,0.10411l4.37749,69.80064z" fill="#868995" stroke="#000000" stroke-width="1.2"/><g><g><g><g fill="#868995" stroke="#000000" stroke-width="1.2"><path d="M163.80563,234.08235c0,0 14.70057,0.0323 16.44297,1.76388c1.6973,1.68676 3.56964,24.71773 2.15979,26.45859c-1.82709,2.25607 -16.54198,1.91087 -16.54198,1.91087"/></g><g fill="none" stroke="none" stroke-width="1" font-family="sans-serif" font-weight="normal" font-size="12" text-anchor="start"/><g fill="none" stroke="none" stroke-width="1" font-family="sans-serif" font-weight="normal" font-size="12" text-anchor="start"/></g><g><g fill="#868995" stroke="#000000" stroke-width="1.2"><path d="M166.77241,264.2157c0,0 -14.65853,0.3452 -16.85394,-1.91087c-1.69406,-1.74086 -3.58171,-24.77183 -2.15979,-26.45859c1.45971,-1.73158 16.15501,-1.76388 16.15501,-1.76388"/></g><g fill="none" stroke="none" stroke-width="1" font-family="sans-serif" font-weight="normal" font-size="12" text-anchor="start"/><g fill="none" stroke="none" stroke-width="1" font-family="sans-serif" font-weight="normal" font-size="12" text-anchor="start"/></g></g><g><g><g fill="#4e4f56" stroke="#000000" stroke-width="1.2"><path d="M163.95692,235.85776c0,0 12.96939,0.0285 14.5066,1.55616c1.49742,1.48812 3.14926,21.8069 1.90544,23.34275c-1.61193,1.99039 -14.59394,1.68584 -14.59394,1.68584"/></g><g fill="none" stroke="none" stroke-width="1" font-family="sans-serif" font-weight="normal" font-size="12" text-anchor="start"/><g fill="none" stroke="none" stroke-width="1" font-family="sans-serif" font-weight="normal" font-size="12" text-anchor="start"/></g><g><g fill="#4e4f56" stroke="#000000" stroke-width="1.2"><path d="M166.57432,262.44251c0,0 -12.93229,0.30455 -14.86917,-1.68584c-1.49456,-1.53585 -3.15992,-21.85463 -1.90544,-23.34275c1.28781,-1.52766 14.25254,-1.55616 14.25254,-1.55616"/></g><g fill="none" stroke="none" stroke-width="1" font-family="sans-serif" font-weight="normal" font-size="12" text-anchor="start"/><g fill="none" stroke="none" stroke-width="1" font-family="sans-serif" font-weight="normal" font-size="12" text-anchor="start"/></g></g><g><g><g fill="#9497a4" stroke="#000000" stroke-width="1.2"><path d="M164.71335,244.73483c0,0 4.31347,0.00948 4.82472,0.51756c0.49803,0.49493 1.04741,7.25272 0.63373,7.76352c-0.53611,0.66198 -4.85377,0.56069 -4.85377,0.56069"/></g><g fill="none" stroke="none" stroke-width="1" font-family="sans-serif" font-weight="normal" font-size="12" text-anchor="start"/><g fill="none" stroke="none" stroke-width="1" font-family="sans-serif" font-weight="normal" font-size="12" text-anchor="start"/></g><g><g fill="#9497a4" stroke="#000000" stroke-width="1.2"><path d="M165.58387,253.57661c0,0 -4.30113,0.10129 -4.94531,-0.56069c-0.49707,-0.51081 -1.05095,-7.26859 -0.63373,-7.76352c0.42831,-0.50808 4.74023,-0.51756 4.74023,-0.51756"/></g><g fill="none" stroke="none" stroke-width="1" font-family="sans-serif" font-weight="normal" font-size="12" text-anchor="start"/><g fill="none" stroke="none" stroke-width="1" font-family="sans-serif" font-weight="normal" font-size="12" text-anchor="start"/></g></g></g><g><g><g><g fill="#868995" stroke="#000000" stroke-width="1.2"><path d="M166.84307,271.93164c0,0 11.15188,0.0245 12.47367,1.33808c1.28757,1.27958 2.70793,18.75092 1.63842,20.07154c-1.38604,1.71146 -12.54877,1.44959 -12.54877,1.44959"/></g><g fill="none" stroke="none" stroke-width="1" font-family="sans-serif" font-weight="normal" font-size="12" text-anchor="start"/><g fill="none" stroke="none" stroke-width="1" font-family="sans-serif" font-weight="normal" font-size="12" text-anchor="start"/></g><g><g fill="#868995" stroke="#000000" stroke-width="1.2"><path d="M169.09368,294.79085c0,0 -11.11999,0.26187 -12.78543,-1.44959c-1.28511,-1.32062 -2.71709,-18.79196 -1.63842,-20.07153c1.10733,-1.31358 12.25522,-1.33808 12.25522,-1.33808"/></g><g fill="none" stroke="none" stroke-width="1" font-family="sans-serif" font-weight="normal" font-size="12" text-anchor="start"/><g fill="none" stroke="none" stroke-width="1" font-family="sans-serif" font-weight="normal" font-size="12" text-anchor="start"/></g></g><g><g><g fill="#4e4f56" stroke="#000000" stroke-width="1.2"><path d="M166.95783,273.27847c0,0 9.8386,0.02162 11.00473,1.18051c1.13595,1.12889 2.38904,16.54275 1.44547,17.70785c-1.22281,1.50991 -11.07099,1.27888 -11.07099,1.27888"/></g><g fill="none" stroke="none" stroke-width="1" font-family="sans-serif" font-weight="normal" font-size="12" text-anchor="start"/><g fill="none" stroke="none" stroke-width="1" font-family="sans-serif" font-weight="normal" font-size="12" text-anchor="start"/></g><g><g fill="#4e4f56" stroke="#000000" stroke-width="1.2"><path d="M168.9434,293.44571c0,0 -9.81046,0.23103 -11.27978,-1.27888c-1.13378,-1.1651 -2.39712,-16.57896 -1.44547,-17.70785c0.97693,-1.15889 10.812,-1.18051 10.812,-1.18051"/></g><g fill="none" stroke="none" stroke-width="1" font-family="sans-serif" font-weight="normal" font-size="12" text-anchor="start"/><g fill="none" stroke="none" stroke-width="1" font-family="sans-serif" font-weight="normal" font-size="12" text-anchor="start"/></g></g><g><g><g fill="#9497a4" stroke="#000000" stroke-width="1.2"><path d="M167.53167,280.01263c0,0 3.2722,0.00719 3.66005,0.39262c0.3778,0.37545 0.79457,5.50193 0.48075,5.88942c-0.40669,0.50218 -3.68208,0.42534 -3.68208,0.42534"/></g><g fill="none" stroke="none" stroke-width="1" font-family="sans-serif" font-weight="normal" font-size="12" text-anchor="start"/><g fill="none" stroke="none" stroke-width="1" font-family="sans-serif" font-weight="normal" font-size="12" text-anchor="start"/></g><g><g fill="#9497a4" stroke="#000000" stroke-width="1.2"><path d="M168.19205,286.72002c0,0 -3.26285,0.07684 -3.75152,-0.42534c-0.37708,-0.3875 -0.79725,-5.51397 -0.48074,-5.88942c0.32492,-0.38543 3.59594,-0.39262 3.59594,-0.39262"/></g><g fill="none" stroke="none" stroke-width="1" font-family="sans-serif" font-weight="normal" font-size="12" text-anchor="start"/><g fill="none" stroke="none" stroke-width="1" font-family="sans-serif" font-weight="normal" font-size="12" text-anchor="start"/></g></g></g></g><path d="M187.3461,300.92055l-3.94905,-103.37655h113.20589l-3.94904,103.37655z" fill="#868995" stroke="#000000" stroke-width="1.2" stroke-linecap="butt"/><path d="M192.35429,176.0774" fill="none" stroke="#000000" stroke-width="1.2" stroke-linecap="round"/><path d="M200.34224,180.47576" fill="none" stroke="#000000" stroke-width="1.2" stroke-linecap="round"/><g><g stroke-linecap="round"><g stroke="#000000" stroke-width="1.2"><path d="M208.94304,160.41698c-15.92764,-1.861 -29.01195,-31.91966 -29.01195,-31.91966c9.94199,-2.06479 14.30113,1.47923 14.85639,1.80971c0.55546,0.33132 10.88616,7.89292 10.88616,7.89292c-0.07781,13.46245 3.2694,22.21703 3.2694,22.21703zM205.89847,135.32417c0,0 -0.23858,2.05345 -0.22642,3.16047M208.94304,160.41698c0.33615,0.88099 1.21917,2.22379 1.21917,2.22379" fill="#be1e2d"/><path d="M202.26437,157.59564c-3.0887,-1.7976 -6.89729,-4.68031 -10.63056,-9.23409c-3.32851,-4.0604 -6.92401,-10.49834 -9.23518,-14.94283l0.05921,-0.07125c6.10775,-1.68222 10.05377,2.19329 10.05377,2.19329l0.24975,0.31449c1.67826,2.33507 3.46422,4.67135 4.87839,6.14272c0.83498,0.87016 1.71146,1.61855 2.52258,2.23544c0,0 1.87432,4.1174 2.3793,7.07034c0.75306,4.36737 -0.4043,6.23238 -0.4043,6.23238z" fill="#929497"/></g><path d="M271.06965,167.78544l-10.09028,9.33636l-24.14361,2.36607l-9.88398,5.34692l-15.76729,-3.26179l-7.28957,-7.70111l-6.49914,-9.40948l-4.3952,-12.14428l-0.42625,-12.3036l2.26621,-9.5908l4.07149,-9.53935l5.90242,-8.81013l6.8463,-8.01209l7.73903,-7.49697l5.49982,-4.38523l2.2949,-3.01734l2.38625,-4.84248l1.48193,-4.62943l1.05817,-6.17353l-0.99316,-8.12785l4.99318,5.27709l5.28479,6.88946l-0.08831,-3.92374l1.14886,2.05779l4.42756,6.44403l6.05368,5.98749l3.91504,2.7514l5.70905,4.08198l6.94632,4.91077l6.32767,5.78456l5.32899,6.27497l4.71035,7.14874l3.57914,6.90627l1.50226,7.44731l0.90131,7.56001l-0.66295,6.64101l-1.92675,8.24197l-2.6337,5.192l-4.6471,7.08186z" fill="#be1e2d" stroke="#8c8c8c" stroke-width="0"/><path d="M281.91036,168.27547l-10.8872,-0.40934l-10.06375,9.49356l-24.093,2.09395l-9.8948,5.30409l-14.97412,-2.58925c0,0 -51.05881,-39.07856 12.63058,-89.41489c0,0 10.97742,-12.27558 5.98426,-28.09207c-0.4061,-1.28641 10.604,12.8688 10.604,12.8688c0,0 -0.44861,-5.29666 -0.17885,-4.64983c2.98957,7.1685 12.50271,15.90409 12.50271,15.90409c58.19193,33.64045 32.97916,73.43201 32.97916,73.43201z" fill="none" stroke="#000000" stroke-width="1.2"/><g stroke="#000000" stroke-width="1.2"><path d="M282.42914,123.91302c0,0 7.33675,-11.69419 7.75789,-12.25863c0.42127,-0.56364 3.39185,-5.80013 13.7634,-9.06874c0,0 -2.03347,32.31916 -16.81737,41.97411c0,0 0.14274,-9.17824 -4.70393,-20.64673zM282.53157,124.1556c-0.38053,-0.95246 -1.33964,-2.58698 -1.33964,-2.58698M286.73908,147.07797c0,0 0.38027,-1.59492 0.39398,-2.5182" fill="#be1e2d"/><path d="M292.71088,138.65145c0,0 -1.78315,-1.00826 -2.60083,-5.12284c-0.55693,-2.77988 -0.19881,-7.24847 -0.19881,-7.24847c0.56783,-0.93799 1.15244,-2.02149 1.65364,-3.18805c0.84973,-1.97375 1.75337,-4.87506 2.55304,-7.72082l0.13071,-0.39527c0,0 2.45254,-5.31069 8.97081,-6.96507l0.08267,0.03093c-0.66574,4.96937 -1.87026,12.29298 -3.65854,17.4491c-2.00587,5.78279 -4.67704,10.17527 -7.03475,13.27568z" fill="#929497"/></g></g><g><g><path d="M279.82598,146.48654c2.8664,15.56524 -11.63546,31.28187 -32.39082,35.10408c-20.75539,3.82221 -39.90462,-5.69741 -42.77105,-21.26264c-2.8664,-15.56524 11.63545,-31.28187 32.39082,-35.10408c20.75539,-3.82221 39.90462,5.69741 42.77105,21.26264z" fill="#e6e7e8" stroke="#000000" stroke-width="1.2" stroke-linecap="butt"/><path d="M222.44452,182.39893l2.37728,2.51748l2.90637,1.56206l-1.78299,0.70966l-4.39265,-0.33503l-4.12632,-1.62339l-1.93667,-2.31262l-4.97356,-1.84869l-3.7706,-1.87957l0.33559,2.35585c-6.11432,-8.98785 -15.64314,-17.9842 -14.19625,-31.4517c24.23812,-32.20728 69.14785,-43.28536 88.25271,-12.7929c0.25547,0.40775 0.49694,0.8158 0.72499,1.22418c0.19179,0.62701 0.34015,1.21569 0.42954,1.75337c1.01127,6.08222 1.17812,12.16164 1.66123,18.34336c0.03183,0.40728 0.00128,0.86763 -0.06862,1.35614l-0.73586,1.40412l-0.41531,-1.40518l-1.80166,5.5176l-4.17834,5.36261l-2.76424,1.99071l-0.31111,-4.23951l-0.90422,-5.76012l-1.29872,-4.50216l-1.08625,0.05187l0.19032,-1.5167l0.7293,-3.69028l-0.58752,-4.04045l-1.42374,-4.33095l-3.99768,-3.85695l-6.36739,-3.12424l-8.15096,-1.75861l-9.30251,-0.36122l2.48224,0.72821l4.01018,2.22482l2.45025,3.10475l-17.44652,-1.23213l-16.86729,-1.48696l-0.22922,3.00554l-1.79473,6.40532l-1.7225,5.94752l0.97645,5.30232l3.52399,4.68503l4.62276,3.00101l-3.07399,1.15876l-2.72534,0.50188l0.63336,3.43935l2.35163,3.41926l2.57528,2.93357l2.79891,2.44788z" fill="#be1e2d" stroke="#8c8c8c" stroke-width="0" stroke-linecap="butt"/><path d="M215.50651,139.04261c-0.16511,8.05684 -4.30148,12.78936 -3.53396,16.91361c1.57983,8.48914 9.19251,11.09592 9.19251,11.09592c0,0 -4.93365,3.42466 -11.43285,0.61195" fill="none" stroke="#000000" stroke-width="1.2" stroke-linecap="round"/><path d="M204.23492,159.94868c-0.90279,-1.49443 -1.80299,-3.22662 -2.6899,-5.2302" fill="none" stroke="#000000" stroke-width="1.2" stroke-linecap="round"/><path d="M208.89741,137.57559c15.82673,3.32763 41.39249,3.74539 41.39249,3.74539c0,0 -3.14833,-4.00847 -9.03809,-5.59849c0,0 36.11549,-2.61049 28.42863,23.02687c0,0 3.35582,-2.2701 5.38746,-6.21165" fill="none" stroke="#000000" stroke-width="1.2" stroke-linecap="round"/><path d="M276.02328,143.37127c0.43753,1.75093 0.66952,2.56048 0.46086,4.05809" fill="none" stroke="#000000" stroke-width="1.2" stroke-linecap="round"/><path d="M281.89509,160.76297c-1.04188,6.91035 -8.46987,11.98044 -8.46987,11.98044c0,0 -0.24784,-9.75338 -2.69975,-14.66018" fill="none" stroke="#000000" stroke-width="1.2" stroke-linecap="round"/><path d="M203.7063,159.74881c-3.37547,8.11533 3.4531,21.46856 3.4531,21.46856c0,0 -18.22015,-19.18626 -13.89212,-32.20667" fill="none" stroke="#000000" stroke-width="1.2" stroke-linecap="round"/><path d="M284.53732,158.25147c-1.10164,2.5467 -2.03833,3.97918 -2.03833,3.97918c0,0 -0.2708,-9.72716 -6.03909,-14.67677" fill="none" stroke="#000000" stroke-width="1.2" stroke-linecap="round"/><path d="M215.49731,168.88533c-0.23616,6.82798 8.44446,12.33915 8.44446,12.33915c0,0 -10.09344,3.7828 -17.65885,-2.58993" fill="none" stroke="#000000" stroke-width="1.2" stroke-linecap="round"/><path d="M221.72059,181.91458c1.58749,3.05572 6.13291,4.5431 6.13291,4.5431c0,0 -8.04863,2.98054 -13.28374,-4.01774" fill="none" stroke="#000000" stroke-width="1.2" stroke-linecap="round"/></g><g><path d="M263.44456,148.11048c0.53409,-0.1317 0.91785,0.64352 1.07574,0.97173c0.59199,1.2307 0.69219,2.78367 -0.16436,3.89064l-0.39707,0.12425c-0.17238,0.09743 -0.42665,0.15578 -0.78702,0.15497c-3.0319,-0.00683 -5.69699,-0.07324 -8.59773,1.29634c-0.8322,0.39292 -2.22128,1.91327 -2.93917,2.11404c-0.92084,0.25753 -1.28908,0.05025 -1.54661,-0.87058c-0.25131,-0.89856 1.4012,-1.80895 1.99328,-2.17114c2.06135,-1.26096 4.44391,-2.05624 6.84365,-2.44323c0.45326,-0.53717 0.66854,-1.15116 0.91067,-1.90584c0.06964,-0.21707 0.36243,-1.06493 0.45068,-1.08541c0.99105,-0.22994 1.30322,1.44347 1.36004,2.70354c0.26448,-0.01018 0.53281,-0.01168 0.78093,0.00248c0.31169,-1.12012 0.63473,-2.68753 1.01695,-2.78177z" fill="#000000" stroke="none" stroke-width="0.5" stroke-linecap="butt"/><path d="M225.93871,159.41847c0.19818,-0.13807 0.41936,-0.27037 0.64094,-0.39203c-0.46712,-1.30034 -0.89292,-3.14533 0.01551,-3.40754c0.08089,-0.02335 0.66731,0.68649 0.81309,0.87088c0.50679,0.64105 0.93415,1.15346 1.52578,1.46963c2.13046,-0.80636 4.4133,-1.19199 6.622,-0.94733c0.63441,0.07027 2.36407,0.16498 2.52391,1.19741c0.1638,1.05802 -0.05439,1.45096 -0.91636,1.65031c-0.672,0.15542 -2.43382,-0.68643 -3.27816,-0.66795c-2.94299,0.06439 -5.10669,1.46077 -7.59621,2.98004c-0.2959,0.18058 -0.52872,0.24852 -0.71014,0.23616l-0.37707,0.07262c-1.15551,-0.69019 -1.70641,-2.30785 -1.72166,-3.84549c-0.00406,-0.41008 -0.0047,-1.38406 0.48803,-1.51753c0.35263,-0.0955 1.25734,1.32561 1.97033,2.30085z" fill="#000000" stroke="none" stroke-width="0.5" stroke-linecap="butt"/><path d="M257.84529,164.12039c-8.87486,10.4257 -22.06961,7.62495 -22.06961,7.62495" fill="none" stroke="#000000" stroke-width="1.2" stroke-linecap="round"/></g></g></g><path d="M268.81322,163.85674" fill="none" stroke="#000000" stroke-width="1.2" stroke-linecap="round"/><g stroke="#000000" stroke-width="1.2" stroke-linecap="butt"><g fill="#868995"><path d="M240.75084,244.52207c0,0 -41.94558,0.42456 -44.92372,-2.35022c-2.29803,-2.14112 -2.30937,-30.46732 0,-32.5419c2.37074,-2.1297 44.33295,-2.16943 44.33295,-2.16943"/><path d="M239.83992,207.46052c0,0 41.96221,0.03973 44.33295,2.16943c2.30938,2.07458 2.29804,30.40079 0,32.5419c-2.97814,2.77478 -44.92372,2.35022 -44.92372,2.35022"/></g><g fill="#4e4f56"><path d="M240.71252,242.40879c0,0 -39.80476,0.37611 -42.6309,-2.08203c-2.18075,-1.89678 -2.19151,-26.99059 0,-28.82843c2.24974,-1.88667 42.07028,-1.92187 42.07028,-1.92187"/><path d="M239.84809,209.57646c0,0 39.82055,0.0352 42.07029,1.92187c2.19151,1.83784 2.18075,26.93165 0,28.82843c-2.82614,2.45814 -42.63091,2.08203 -42.63091,2.08203"/></g><g fill="#9497a4"><path d="M240.2322,231.45281c0,0 -12.9719,0.12494 -13.8929,-0.69163c-0.71068,-0.6301 -0.71419,-8.96603 0,-9.57654c0.73316,-0.62673 13.7102,-0.63843 13.7102,-0.63843"/><path d="M239.9505,220.54622c0,0 12.97703,0.0117 13.7102,0.63843c0.71418,0.61051 0.71068,8.94644 0,9.57654c-0.92101,0.81657 -13.8929,0.69163 -13.8929,0.69163"/></g></g><g stroke="#000000" stroke-width="1.2" stroke-linecap="butt"><g fill="#868995"><path d="M240.65981,285.68287c0,0 -36.86021,0.37309 -39.47728,-2.06529c-2.01943,-1.88153 -2.02939,-26.77355 0,-28.59661c2.08332,-1.8715 38.95814,-1.90641 38.95814,-1.90641"/><path d="M239.85933,253.11456c0,0 36.87483,0.03491 38.95815,1.90641c2.02939,1.82306 2.01943,26.71508 0,28.59661c-2.61708,2.43837 -39.47729,2.06528 -39.47729,2.06528"/></g><g fill="#4e4f56"><path d="M240.62614,283.82579c0,0 -34.97894,0.33051 -37.46244,-1.82961c-1.91636,-1.66682 -1.92582,-23.71832 0,-25.33335c1.97699,-1.65794 36.96979,-1.68887 36.96979,-1.68887"/><path d="M239.86651,254.97397c0,0 34.99281,0.03093 36.9698,1.68887c1.92582,1.61503 1.91636,23.66653 0,25.33335c-2.48351,2.16012 -37.46245,1.82961 -37.46245,1.82961"/></g><g fill="#9497a4"><path d="M240.20405,274.19809c0,0 -11.39922,0.10979 -12.20856,-0.60778c-0.62452,-0.5537 -0.6276,-7.87901 0,-8.4155c0.64428,-0.55075 12.04801,-0.56103 12.04801,-0.56103"/><path d="M239.9565,264.61378c0,0 11.40373,0.01028 12.04801,0.56103c0.6276,0.53649 0.62452,7.8618 0,8.41551c-0.80934,0.71757 -12.20856,0.60777 -12.20856,0.60777"/></g></g><g stroke="#000000" stroke-width="1.2"><path d="M235.9701,178.63595c0.19654,-0.0302 0.38434,-0.05415 0.56363,-0.07206c0.30566,-0.08192 0.61988,-0.09682 0.91681,-0.0388c6.7973,0.17276 -3.23023,12.05761 -5.92134,12.88031c-2.28208,0.69765 -6.63872,-0.76286 -5.17677,-3.93541c0.52767,-1.14508 8.42532,-8.40866 9.54892,-8.75216z" fill="#be1e2d" stroke-linecap="butt"/><g><path d="M225.01542,195.77211c-0.18507,-0.23725 -2.33467,-3.21691 -2.33467,-3.21691c0,0 -0.06978,5.03168 -3.59189,6.40562c-1.90707,0.74393 -5.6588,0.16986 -7.71611,0.32794c0,0 -2.3543,0.17914 -2.20057,-2.14956c0.15372,-2.3287 2.50803,-2.50783 2.50803,-2.50783c0.45594,-0.03438 1.01653,-0.01541 1.62281,0.02045c3.40295,-5.98803 6.31018,-15.85863 13.78884,-10.78639c3.06984,2.08205 3.67591,2.90403 3.67591,2.90403c0,0 4.61385,-10.04095 9.18129,-9.42828c14.90671,1.99956 6.40759,19.97177 0.36702,20.62974c-9.16421,0.99821 -13.04732,0.68982 -15.30067,-2.19881z" fill="#be1e2d" stroke-linecap="butt"/><path d="M231.56534,191.84931c-0.09615,-3.20306 4.16144,-14.1335 8.54423,-10.78277c3.45,2.63759 0.59741,8.33619 -1.40049,11.27005c-2.24905,3.30266 -7.03952,2.98429 -7.14374,-0.48728z" fill="#e6e7e8" stroke-linecap="round"/></g><path d="M245.4838,180.09383c1.39998,-1.58434 3.97722,-1.18759 5.02323,-0.84674c2.96498,0.96615 2.70333,3.66846 2.91056,6.67218c0.18024,2.61271 0.87131,5.50079 2.37921,7.07516c3.18765,0.87774 9.13006,-0.09053 7.58278,4.34581c-0.37099,1.06366 -6.28169,1.54055 -8.5471,1.6162c1.1174,2.40989 -1.35114,2.72103 -3.32164,1.46096c-0.8082,-0.51682 -2.82154,-1.32729 -4.00365,-2.87032c-1.18211,-1.54303 -0.19058,-2.36486 -0.17726,-3.57746c0.03021,-2.75101 -0.96819,-3.85461 -1.40755,-6.36734" fill="#be1e2d" stroke-linecap="butt"/><path d="M226.92872,183.81383c-0.44125,1.27292 -2.0055,1.63144 -2.0055,1.63144c0,0 -1.52431,2.43562 -5.34202,3.24193c-5.14299,1.08622 -5.44054,-5.19047 -0.30474,-7.53982c0,0 4.38859,-2.56991 6.3864,-1.93709c0.67024,0.2123 0.51771,1.26761 0.74363,1.95597c0.45318,1.38082 0.96347,1.37465 0.52224,2.64757z" fill="#be1e2d" stroke-linecap="butt"/></g><path d="M240.09873,197.90949c-0.89963,0.48356 -1.9973,0.23003 -2.99044,0.36555c-2.63765,0.3883 -5.32039,0.46091 -7.93529,0.87223c-2.69608,0.42409 -5.40742,1.56553 -7.60427,-0.57523c-2.40902,-2.34751 -2.87795,-8.9093 0.88268,-11.07896c2.16147,-1.24703 3.99913,-0.19743 5.72934,0.47965c3.466,1.35636 7.41407,3.04733 11.34166,2.80959c0,0 0.54153,-0.02721 1.04676,0.22364c0.61746,0.09337 1.00142,0.44203 1.20722,0.70029" fill="#be1e2d" stroke="#000000" stroke-width="1.2" stroke-linecap="butt"/><path d="M78.0357,341.9643v-323.92859h323.92859v323.92859z" fill="none" stroke="#000000" stroke-width="0" stroke-linecap="butt"/></g></g></svg>