<svg version="1.1" xmlns="http://www.w3.org/2000/svg" xmlns:xlink="http://www.w3.org/1999/xlink" width="125.97144" height="144.55537" viewBox="0,0,125.97144,144.55537"><g transform="translate(-180.56592,-93.1779)"><g stroke-miterlimit="10"><path d="M243.71281,209.74069l0.59433,-0.03805c1.05312,2.16732 0.74122,4.48191 1.08029,6.85465c0.36036,2.52168 1.19341,5.75811 0.89032,8.30196c-0.59492,4.99327 -6.17935,3.97669 -8.41627,1.03687c-1.28408,-3.26831 -5.56443,-2.90023 -6.21968,-6.32704c-0.90869,-4.75227 4.04694,-4.59142 6.04437,-7.3614c1.51482,-2.1007 1.7522,-3.30159 4.68935,-3.6014c0,0 1.23327,-0.09129 1.33728,1.1344z" fill="#ffffff" stroke="#000000" stroke-width="1.2" stroke-linecap="butt"/><g stroke-linecap="round"><g fill="#ffffff" stroke="#000000" stroke-width="1.2"><path d="M291.43985,173.88354c0,0 -0.28139,-9.36842 -5.53633,-21.76314c0,0 6.62308,-10.95609 7.00816,-11.47573c0.38523,-0.51878 3.04387,-5.46789 13.01442,-7.39001c0,0 -0.50291,32.7791 -14.48626,40.62888zM286.01457,152.38256c-0.41498,-1.02638 -1.42576,-2.82968 -1.42576,-2.82968M291.17082,176.40529c0,0 0.29797,-1.57926 0.26902,-2.52176"/><path d="M296.61177,168.60454c0,0 -1.78617,-1.27565 -2.77264,-5.59629c-0.67084,-2.91973 -0.52623,-7.44137 -0.52623,-7.44137c0.51108,-0.88163 1.03188,-1.90978 1.46747,-3.03433c0.73868,-1.90242 1.48748,-4.74621 2.13735,-7.54742l0.10941,-0.38639c0,0 2.14975,-5.096 8.43434,-5.89499l0.08208,0.04296c-0.42185,4.9917 -1.26155,12.31765 -2.77019,17.34655c-1.69224,5.64009 -4.09739,9.7669 -6.25591,12.6151z"/></g><path d="M226.99238,209.14148l-7.01543,-4.74679l-4.42964,-3.77778l-4.95144,-6.86483l-3.16867,-5.87384l-2.07882,-7.32425l-1.48081,-7.45162l0.64427,-7.75188l1.59493,-8.41118l2.5023,-7.84295l3.61279,-7.77484l4.52017,-7.20661l3.69736,-5.96533l2.55394,-4.04662l3.28181,-7.85666l1.60526,-7.65192l0.26803,-2.34148l1.42917,3.65527l2.22493,-8.39306l2.57656,-6.79271l2.21267,7.88367l3.35345,5.29025l3.15005,3.70202l4.0667,3.55047l3.27969,1.9012l6.76419,1.92972l10.02884,3.93948l9.40326,4.75859l8.83938,5.85852l7.43034,7.23645l5.78404,7.97898l4.34357,11.51927l0.61923,12.9003l-2.37544,11.18635l-3.76267,9.91399l-13.29604,9.08086l-11.18067,-1.12936l-23.19342,7.11177l-12.90703,-4.73183z" fill="#ffffff" stroke="#8c8c8c" stroke-width="0"/><path d="M220.53644,205.4118c0,0 -38.58921,-27.0171 2.16513,-80.46861c0,0 5.41654,-11.72482 5.41575,-19.49174c-0.00007,-0.70083 1.62515,4.36025 1.62515,4.36025c0,0 4.71154,-17.30301 4.83201,-15.95941c1.48119,16.51966 16.33858,23.62259 16.33858,23.62259c78.15963,21.93528 46.08225,77.65939 46.08225,77.65939l-12.82294,8.15479l-11.17415,-1.08567l-23.04194,7.34343l-12.94306,-4.88713l-9.89035,4.56944z" fill="none" stroke="#000000" stroke-width="1.2"/><g fill="#ffffff" stroke="#000000" stroke-width="1.2"><path d="M209.56426,168.48614c-0.05761,12.45045 3.60781,20.8662 3.60781,20.8662c-17.36148,-3.21879 -31.68129,-32.2637 -31.68129,-32.2637c10.83049,-0.97646 15.58816,2.71268 16.19396,3.07067c0.60599,0.35879 11.87951,8.32682 11.87951,8.32682zM209.80346,165.84613c0,0 -0.25586,1.87779 -0.24036,2.90333M213.17206,189.35235c0.36811,0.84683 1.33312,2.1724 1.33312,2.1724"/><path d="M205.88803,186.11399c-3.36965,-1.95367 -7.52604,-4.97914 -11.60369,-9.54388c-3.63556,-4.07016 -7.56687,-10.36547 -10.09453,-14.69545l0.06439,-0.06037c6.65275,-0.98273 10.96088,2.97434 10.96088,2.97434l0.27282,0.31447c1.83365,2.31851 3.78466,4.64826 5.32879,6.14272c0.91169,0.88368 1.8684,1.65858 2.75359,2.30564c0,0 2.05094,3.98625 2.60721,6.76626c0.82948,4.11221 -0.42802,5.72927 -0.42802,5.72927z"/></g></g><g><path d="M246.87423,153.63596c19.59872,-4.11992 38.26869,5.0574 41.70056,20.4981c3.43187,15.44071 -9.67396,31.29773 -29.27268,35.41764c-19.59871,4.11992 -38.26869,-5.0574 -41.70056,-20.4981c-3.43187,-15.44071 9.67396,-31.29773 29.27268,-35.41764z" fill="#ffffff" stroke="#000000" stroke-width="1.2" stroke-linecap="butt"/><path d="M279.63705,200.66295l1.51262,-3.294l1.13188,-3.66037l0.75115,-4.02674l-0.75832,-3.41183l-2.57346,0.54098l-3.12875,0.0625l2.89572,-4.47755l1.29301,-5.62867l-1.16907,-5.2599l-3.77412,-4.86109l-4.01187,-5.25751l-1.34678,-2.69293l-14.02679,8.03729l-12.80235,7.56952l0.0678,-3.96956l1.81636,-3.58333l1.49637,-1.78548l-7.99287,3.76343l-6.05733,5.81582l-3.48406,5.43172l-0.63987,4.24664l0.20959,3.93436l1.27427,3.2091l1.94665,3.83314l0.84389,1.62783l-3.19313,-0.38723l0.92808,4.68847l2.44424,5.3098l2.1846,3.09314l-5.99179,-0.86817l-5.40017,-2.03184l-3.87673,-4.03921l0.17299,1.45165l-1.17875,-1.02627c-0.24743,-0.42567 -0.44971,-0.83981 -0.57725,-1.22792c-1.9357,-5.89068 -4.10879,-11.57022 -5.54492,-17.56366c-0.12695,-0.52984 -0.22183,-1.12854 -0.29337,-1.77867c0.04356,-0.46145 0.09895,-0.92756 0.16672,-1.39855c5.06716,-35.22179 48.54514,-41.54168 82.01506,-20.7148c6.40166,11.91194 1.50477,23.73859 -0.41101,34.29852l-0.6053,-2.30077l-2.57868,3.12705l-3.64187,3.54202l-0.81058,2.85111l-2.98729,3.02147l-3.71151,1.92908l-1.82907,0.00154l1.94442,-2.51502l1.11755,-3.20286z" fill="#ffffff" stroke="#8c8c8c" stroke-width="0" stroke-linecap="butt"/><path d="M286.94344,182.78192c-4.6076,4.99534 -10.22605,3.64952 -10.22605,3.64952c0,0 5.65937,-5.21557 3.80209,-13.64287c-0.90232,-4.09422 -6.32279,-6.94257 -9.5403,-14.32707" fill="none" stroke="#000000" stroke-width="1.2" stroke-linecap="round"/><path d="M291.72961,166.11881c-0.01094,2.17851 1.2466,4.3079 1.02758,6.02175" fill="none" stroke="#000000" stroke-width="1.2" stroke-linecap="round"/><path d="M224.06841,192.89133c3.27918,2.89338 9.64769,4.04884 9.64769,4.04884c-16.49762,-20.85765 13.49454,-32.0551 13.49454,-32.0551c-4.54132,3.64076 -3.58931,9.59141 -3.58931,9.59141c0,0 20.01111,-10.89726 32.57482,-19.80728" fill="none" stroke="#000000" stroke-width="1.2" stroke-linecap="round"/><path d="M220.88204,188.69282c-0.75363,-1.30701 -0.85964,-2.14065 -1.14511,-3.92" fill="none" stroke="#000000" stroke-width="1.2" stroke-linecap="round"/><path d="M229.97914,196.41503c-0.27139,5.43835 6.04813,13.60233 6.04813,13.60233c0,0 -11.24202,-1.00621 -14.78853,-7.00799" fill="none" stroke="#000000" stroke-width="1.2" stroke-linecap="round"/><path d="M294.21909,159.47399c8.74931,10.43658 0.14279,34.88406 0.14279,34.88406c0,0 4.43175,-16.04541 -1.61401,-22.30037" fill="none" stroke="#000000" stroke-width="1.2" stroke-linecap="round"/><path d="M220.95073,188.79896c-3.15366,6.7006 0.31997,15.78936 0.31997,15.78936c0,0 -1.36511,-0.97844 -3.29938,-2.9257" fill="none" stroke="#000000" stroke-width="1.2" stroke-linecap="round"/><path d="M294.14279,191.64812c-4.18158,8.67826 -14.44644,8.90378 -14.44644,8.90378c0,0 5.48493,-8.29325 2.67406,-14.51595" fill="none" stroke="#000000" stroke-width="1.2" stroke-linecap="round"/><path d="M288.35135,198.21985c-1.90621,8.39722 -10.07784,8.61024 -10.07784,8.61024c0,0 3.40549,-3.05028 3.62743,-6.45936" fill="none" stroke="#000000" stroke-width="1.2" stroke-linecap="round"/></g><path d="M239.9894,176.32862c0.1249,-0.01451 1.56533,1.29846 2.60159,2.16828c2.43206,-0.93678 5.26558,-0.8536 7.9837,0.18717l1.40307,1.06594c0,0 1.06068,0.87497 0.18572,1.93565c-0.87497,1.06068 -1.93566,0.18572 -1.93566,0.18572l-0.64243,-0.62141c-3.62944,-1.41047 -7.70947,-0.68698 -9.53104,3.07951c0,0 -0.61405,1.23027 -1.84432,0.61621c-0.2025,-0.10107 -0.35503,-0.21884 -0.46856,-0.34507c-1.38513,-0.46601 -2.04891,-2.41581 -2.51335,-3.73778c-0.13402,-0.38146 -0.61673,-1.46617 -0.10593,-1.79468c0.72852,-0.46854 2.63031,1.48114 3.78063,2.0556c0.31566,-0.37239 0.65271,-0.7124 1.00839,-1.02036c-0.77894,-1.30526 -1.45805,-3.59633 0.07819,-3.77479z" fill="#000000" stroke="none" stroke-width="0.5" stroke-linecap="butt"/><path d="M243.73226,194.81629c-2.56484,-0.38066 -3.66114,-6.30176 -2.91838,-8.37873c0.52997,-1.48194 1.92356,-1.1397 2.74347,-0.18167c1.41744,1.78052 2.33746,6.2308 1.26573,8.28418l-0.37035,0.13191c-0.13427,0.14017 -0.33358,0.1593 -0.33358,0.1593c-0.04222,0.00287 -0.08409,0.00428 -0.1256,0.00426l-0.02994,0.01066c0,0 -0.10989,0.01054 -0.23135,-0.02992z" fill="#ffffff" stroke="#000000" stroke-width="1.2" stroke-linecap="butt"/><path d="M275.89189,173.70336c0.35673,0.2069 0.70333,0.44993 1.0375,0.73013c0.87508,-0.86177 2.14437,-3.2613 2.84626,-2.99567c0.49212,0.18624 0.27461,1.37027 0.22847,1.77729c-0.1599,1.41053 -0.3777,3.4854 -1.47145,4.30305c-0.07403,0.15283 -0.18267,0.30765 -0.33673,0.4593c-0.93595,0.92135 -1.67577,-0.11686 -1.67577,-0.11686c-2.21541,-3.19382 -5.80906,-2.82874 -8.64138,-0.50162l-0.43537,0.77431c0,0 -0.74563,1.1312 -1.67696,0.32676c-0.93133,-0.80444 -0.18572,-1.93565 -0.18572,-1.93565l1.00253,-1.40719c2.12391,-1.72765 4.51573,-2.55209 6.74755,-2.27691c0.72579,-1.11978 1.71622,-2.77759 1.82487,-2.79621c1.33643,-0.22905 1.16617,2.18251 0.73619,3.65926z" fill="#000000" stroke="none" stroke-width="0.5" stroke-linecap="butt"/><path d="M269.77174,189.3898l-0.03167,0.00265c-0.0378,0.01715 -0.07651,0.03315 -0.11615,0.04798c0,0 -0.18943,0.06488 -0.36959,-0.00735l-0.39177,0.03277c-1.82394,-1.42767 -2.8235,-5.86076 -2.26769,-8.06768c0.35119,-1.21109 1.47914,-2.0982 2.57371,-0.9673c1.53406,1.58498 2.98036,7.43046 0.80153,8.83616c-0.09392,0.087 -0.19836,0.12277 -0.19836,0.12277z" fill="#ffffff" stroke="#000000" stroke-width="1.2" stroke-linecap="butt"/><path d="M255.06404,187.03171c-0.03849,2.63231 -0.88049,5.05961 -2.28053,6.9375" fill="none" stroke="#000000" stroke-width="1.2" stroke-linecap="butt"/><path d="M245.75824,197.7609c-3.27746,0.08453 -6.29939,-1.71834 -8.2013,-4.58655" fill="none" stroke="#000000" stroke-width="1.2" stroke-linecap="butt"/><path d="M268.28665,191.42775c-1.47337,-1.45783 -2.5859,-3.59939 -3.07664,-6.15433" fill="none" stroke="#000000" stroke-width="1.2" stroke-linecap="butt"/><path d="M280.60885,186.60551c-1.05607,3.30064 -3.21457,5.86084 -5.91147,6.6497" fill="none" stroke="#000000" stroke-width="1.2" stroke-linecap="butt"/><path d="M262.6706,200.05581l10.26045,-2.83964l0.5183,10.31013l-16.91494,3.66348z" fill="#ffffff" stroke="#000000" stroke-width="1.2" stroke-linecap="round"/><path d="M256.91003,211.61973c0.09981,8.40243 -0.18227,18.37858 -2.80619,22.59525c-3.23297,5.1954 -18.12383,2.54126 -17.63076,-0.91085c1.8634,-13.04634 0.79666,-21.29957 6.27119,-24.67437c2.29002,-1.41169 14.12682,-0.28888 14.16577,2.98998z" fill="#ffffff" stroke="#000000" stroke-width="1.2" stroke-linecap="butt"/><path d="M247.29959,236.57927c-2.51373,-0.73602 -1.30883,-4.97007 -0.13334,-7.51066c1.78647,-3.86112 4.10378,-10.44975 7.02499,-8.79948c2.56292,1.44787 2.03096,9.01923 0.67759,12.38042c-1.72159,4.27571 -7.56924,3.92972 -7.56924,3.92972z" fill="#ffffff" stroke="#000000" stroke-width="1.2" stroke-linecap="butt"/><path d="M254.1673,209.73273c2.19569,-0.03612 3.882,4.6827 5.88684,3.7866c0.59584,-0.26632 3.44008,-4.29684 6.56793,-4.70963c5.79068,-0.76421 7.07879,7.27534 2.76313,9.5278c-1.35007,0.90958 -3.03698,1.95341 -4.13748,3.15824c-1.11343,1.21898 -1.54761,2.82293 -3.14423,3.6164c-4.97617,2.47299 -6.23905,-3.01745 -8.72004,-5.54958c-1.45323,-1.48318 -4.46037,-3.8032 -5.66251,-5.58146" fill="#ffffff" stroke="#000000" stroke-width="1.2" stroke-linecap="butt"/><path d="M199.78125,157.23407l1.875,-31.09375" fill="none" stroke="#000000" stroke-width="1.2" stroke-linecap="round"/><path d="M206.65625,158.95282l2.65625,-33.4375" fill="none" stroke="#000000" stroke-width="1.2" stroke-linecap="round"/><path d="M214.46875,159.42157l-0.9375,-30" fill="none" stroke="#000000" stroke-width="1.2" stroke-linecap="round"/><path d="M220.71875,128.01532l-3.90625,29.375" fill="none" stroke="#000000" stroke-width="1.2" stroke-linecap="round"/><path d="M240.5625,204.89032l-0.9375,-8.75" fill="none" stroke="#000000" stroke-width="1.2" stroke-linecap="round"/><path d="M244.78125,197.54657l1.09375,7.65625" fill="none" stroke="#000000" stroke-width="1.2" stroke-linecap="round"/><path d="M254.15625,201.92157l-0.46875,-9.0625" fill="none" stroke="#000000" stroke-width="1.2" stroke-linecap="round"/></g></g></svg>