<svg version="1.1" xmlns="http://www.w3.org/2000/svg" xmlns:xlink="http://www.w3.org/1999/xlink" width="159.81676" height="159.81676" viewBox="0,0,159.81676,159.81676"><g transform="translate(-160.09163,-100.09164)"><g stroke-miterlimit="10"><path d="M160.09164,259.90839v-159.81675h159.81676v159.81676z" fill="none" stroke="#ffe8e8" stroke-width="0" stroke-linecap="butt"/><path d="M233.09742,180.01199c1.65726,-2.36501 0.87567,3.28145 6.88515,3.33069c6.00948,0.04924 6.30318,-7.11475 7.13105,-3.21584c2.56589,12.08433 2.27582,26.48427 2.58194,31.00989c0.30613,4.52562 4.12013,9.26489 0.2459,10.79604c-3.87424,1.53115 -2.01067,-6.75767 -3.44257,-9.53267c-1.4319,-2.775 -3.41771,-5.75205 -4.91796,-6.43168c-0.88853,-0.40251 -1.24881,1.91427 -0.73769,3.90495c0.2997,1.16727 1.54375,5.1593 -1.47539,4.96162c-2.71513,-0.17777 -1.34024,-3.005 -1.22949,-4.04281c0.22876,-2.14354 0.76257,-4.3188 -0.49179,-3.5407c-2.49757,1.54927 -2.54168,2.66525 -4.05732,5.83773c-1.51564,3.17248 0.61957,7.63992 -2.58194,7.92475c-3.20151,0.28483 -0.21338,-3.95769 0,-7.69504c0.21337,-3.73735 -0.21362,-0.25087 0.36885,-9.53268c0.58247,-9.28181 -0.30025,-20.88938 1.72128,-23.77424z" fill="#ff0000" stroke="#ffe8e8" stroke-width="5" stroke-linecap="round"/><path d="M233.09742,180.01199c1.65726,-2.36501 0.87567,3.28145 6.88515,3.33069c6.00948,0.04924 6.30318,-7.11475 7.13105,-3.21584c2.56589,12.08433 2.27582,26.48427 2.58194,31.00989c0.30613,4.52562 4.12013,9.26489 0.2459,10.79604c-3.87424,1.53115 -2.01067,-6.75767 -3.44257,-9.53267c-1.4319,-2.775 -3.41771,-5.75205 -4.91796,-6.43168c-0.88853,-0.40251 -1.24881,1.91427 -0.73769,3.90495c0.2997,1.16727 1.54375,5.1593 -1.47539,4.96162c-2.71513,-0.17777 -1.34024,-3.005 -1.22949,-4.04281c0.22876,-2.14354 0.76257,-4.3188 -0.49179,-3.5407c-2.49757,1.54927 -2.54168,2.66525 -4.05732,5.83773c-1.51564,3.17248 0.61957,7.63992 -2.58194,7.92475c-3.20151,0.28483 -0.21338,-3.95769 0,-7.69504c0.21337,-3.73735 -0.21362,-0.25087 0.36885,-9.53268c0.58247,-9.28181 -0.30025,-20.88938 1.72128,-23.77424z" fill="#ff0000" stroke="#000000" stroke-width="0" stroke-linecap="round"/></g></g></svg>