<svg version="1.1" xmlns="http://www.w3.org/2000/svg" xmlns:xlink="http://www.w3.org/1999/xlink" width="113.16222" height="116.58292" viewBox="0,0,113.16222,116.58292"><g transform="translate(-183.35533,-122.03936)"><g stroke-miterlimit="10"><path d="M244.87466,221.43746c3.08398,-7.72062 -2.01819,5.05247 0,0z" fill="#9a8479" stroke="#000000" stroke-width="1.2" stroke-linecap="butt"/><path d="M245.21976,219.10881c-1.05658,-3.88719 3.76828,-3.45965 5.34544,-2.67038c0.0678,0.03393 5.56161,2.61613 6.0407,3.90286c1.23093,3.30608 -0.32441,6.59147 -3.52318,5.35919c-1.20999,-0.46613 -6.80639,-2.70448 -7.86297,-6.59167z" fill="#9a8479" stroke="#000000" stroke-width="1.2" stroke-linecap="butt"/><path d="M247.81107,226.14107c0,0 0.84407,4.76316 1.27286,6.50409c0.43273,1.74083 0.96302,3.36045 0.96302,3.36045c0,0 0.78702,0.31825 0.5688,1.00126c-0.21631,0.68642 -2.89501,0.65318 -6.25663,0.80444c-3.3624,0.15207 -6.10411,-0.32995 -6.64546,-1.05532c-0.53946,-0.71719 0.45526,-0.97225 0.45526,-0.97225c0,0 1.01738,-4.71332 0.03711,-6.85975c-1.30695,-2.86268 0.19548,-3.60806 4.12995,-4.97669v0v0v0v0v0v0c3.93448,-1.36862 5.47508,2.19376 5.47508,2.19376z" fill="#9a8479" stroke="#000000" stroke-width="1.2" stroke-linecap="butt"/><path d="M233.91995,228.06412c-0.03624,0.32873 -0.09005,0.53304 -0.09005,0.53304c0,0 -0.68023,3.21231 -0.67994,4.95653c-0.00079,1.74433 0.09391,2.46538 0.09391,2.46538c0,0 0.57346,0.05878 0.44455,0.72282c-0.12493,0.66494 -1.83287,1.38598 -6.70795,1.26752c-4.87716,-0.12389 -5.83905,-1.11773 -5.86433,-1.62576c-0.02735,-0.50802 1.02644,-1.02329 1.02644,-1.02329c0,0 0.45533,-3.24877 1.15624,-6.07339c0.39825,-1.60171 1.05469,-3.1671 1.54878,-4.2229" fill="#9a8479" stroke="#000000" stroke-width="1.2" stroke-linecap="butt"/><path d="M233.31811,211.28323v0v0v0v0v0v0c8.85364,-0.56832 12.42143,3.6928 12.41944,3.692c0.76823,1.1006 1.73006,2.6535 2.16159,4.07144c0.11899,0.39167 0.20059,0.83237 0.23597,1.30508c0,0 0.01582,1.64192 -0.1561,2.14317c-0.72122,2.09993 -1.94229,4.39857 -5.04789,5.43788c-4.87556,1.63866 -10.1458,1.43752 -15.70271,-0.71554c-1.87521,-0.72452 -3.01962,-1.95925 -3.66803,-3.36486c-0.46307,-1.01159 -0.69764,-2.33053 -0.69764,-2.33053c-0.35009,-2.19394 0.02454,-4.33557 0.23294,-5.26692c0,0 1.36991,-4.40346 10.22245,-4.97171z" fill="#9a8479" stroke="#000000" stroke-width="1.2" stroke-linecap="butt"/><g stroke="#000000" stroke-width="1.2"><g><path d="M279.96791,167.7033c0,0 14.59499,-9.46599 15.81468,-0.8644c1.21977,8.60149 -5.90023,18.33509 -18.44818,26.89422c0,0 3.14155,-14.76163 2.63351,-26.02982zM279.96791,167.7033c0.03095,-1.31493 -0.22401,-3.84223 -0.22401,-3.84223M276.60204,196.02178l0.60505,-2.38355" fill="#9a8479" stroke-linecap="round"/><path d="M277.20727,193.63727c0.60781,-2.73293 1.49061,-7.23758 2.15776,-12.88011c0.39083,-3.28386 0.56619,-6.68042 0.63831,-9.61723l0.00059,0.00383c7.92078,-2.34881 12.61663,7.53511 12.61663,7.53511l0.00269,0.00012c-5.39582,8.48336 -15.30977,14.72198 -15.30977,14.72198l-0.10619,0.2363v0v0v0v0z" fill="#ee4036" stroke-linecap="butt"/></g><path d="M190.60451,166.46364c2.48317,-18.48929 12.23275,-27.75275 17.947,-32.61578c12.97054,-11.04588 31.36872,-10.21195 31.36872,-10.21195l-0.21501,12.10223c0,0 0.21407,-3.46971 8.03692,-9.00074c7.82098,-5.53116 18.67935,-3.86138 18.67935,-3.86138l-6.88051,14.69115c0,0 3.75441,-4.46047 6.67778,-5.97909c5.18254,-2.68727 9.28594,-1.0779 9.28594,-1.0779l-2.27032,11.76465c0,0 13.15563,22.33563 12.30323,36.96018c-0.8524,14.62456 -7.32152,40.34932 -42.8671,38.6882c-61.48415,-4.6603 -52.06598,-51.45951 -52.06598,-51.45951z" fill="#9a8479" stroke-linecap="butt"/><g><path d="M203.32952,194.74739c-14.25871,-7.02513 -21.60407,-15.66779 -18.77521,-23.98941c2.82987,-8.3224 19.49009,-0.61764 19.49009,-0.61764c-2.35388,10.80164 -0.71489,24.60705 -0.71489,24.60705zM204.91101,166.45279c0,0 -0.70369,2.43413 -0.86565,3.68762M203.50198,194.64357l0.38644,2.22108" fill="#9a8479" stroke-linecap="round"/><path d="M203.40649,194.42868c0,0 -11.34643,-5.05143 -16.74359,-12.65601l0.00289,-0.00076c0,0 7.33865,-9.86291 16.80697,-8.34385l0.00115,-0.00282c-0.35998,2.79571 -0.66183,6.02242 -0.67866,9.12065c-0.03553,5.32597 0.37053,9.54534 0.70672,12.0977z" fill="#ee4036" stroke-linecap="butt"/></g></g><path d="M277.4277,190.44029c0.11225,12.81804 -14.39441,23.33694 -32.40154,23.49463c-18.00712,0.15769 -32.69577,-10.10555 -32.80802,-22.92359c-0.11225,-12.81804 14.39442,-23.33694 32.40154,-23.49463c18.00712,-0.15769 32.69577,10.10555 32.80802,22.92359z" fill="#e6e7e8" stroke="#000000" stroke-width="1.2" stroke-linecap="butt"/><g stroke="#000000"><path d="M270.61743,171.17588c0,0 -2.56106,4.44524 -5.99079,6.75548c-1.53501,1.03396 -5.74339,3.37148 -7.92179,3.93443c-5.64144,1.4579 -11.77473,1.24273 -11.77473,1.24273l4.74261,-6.96637c0,0 -4.25474,2.008 -7.84275,3.07316c-4.871,1.44604 -8.92068,-0.52368 -8.92068,-0.52368l13.1582,-12.72889" fill="#9a8479" stroke-width="0" stroke-linecap="butt"/><path d="M268.28863,174.41073c0,0 -4.45007,5.13114 -9.62313,7.03655c-5.17306,1.9054 -13.99724,1.66353 -13.99724,1.66353l5.0045,-6.96866c0,0 -3.41859,1.78663 -7.00659,2.85179c-4.87101,1.44603 -10.3835,-0.08277 -10.3835,-0.08277l12.22499,-11.62782" fill="none" stroke-width="1.2" stroke-linecap="round"/></g><g fill="none" stroke="#ee4036" stroke-width="1.2" stroke-linecap="round"><path d="M215.09615,147.68696l-3.46562,5.62336l-5.57161,-2.24883"/><path d="M204.53602,153.93716l4.54472,3.06672l-1.82571,6.36464"/><path d="M220.51104,158.48976l-4.97073,-3.28621l2.25172,-6.14515"/><path d="M209.9749,164.7523l3.47483,-5.10055l5.56241,1.72601"/></g><path d="M259.54455,190.79853c2.16368,-0.67297 5.97845,-2.02044 7.04399,-2.77775c0.56782,-0.39261 1.38386,-0.19805 1.81608,0.46995c0.42579,0.66474 0.31075,1.53782 -0.26044,1.94841c-1.69071,1.20914 -7.07335,2.90049 -7.68102,3.09049c-0.66916,0.20704 -1.41756,-0.23755 -1.67101,-0.99216c-0.22782,-0.6824 0.02147,-1.38157 0.56464,-1.66481c0.05844,-0.03048 0.12096,-0.05658 0.18776,-0.07411z" fill="#231f20" stroke="none" stroke-width="1.2" stroke-linecap="butt"/><path d="M233.31312,187.72298c0.08756,0.02606 0.17354,0.06168 0.26031,0.10467c3.05047,1.58154 8.90601,2.63847 8.96345,2.64956c0.77778,0.14097 1.32719,0.89177 1.19909,1.6821c-0.12947,0.78804 -0.87568,1.31406 -1.66845,1.17262c-0.25877,-0.04994 -6.35027,-1.148 -9.802,-2.93547c-0.71553,-0.36977 -1.00546,-1.24741 -0.64251,-1.96084c0.31731,-0.62045 1.03491,-0.90767 1.69011,-0.71266z" fill="#231f20" stroke="none" stroke-width="1.2" stroke-linecap="butt"/><path d="M243.38352,188.5226l1.61246,1.71877l-1.48069,1.16821c0,0 -17.26865,-11.46632 -24.53604,-12.16289" fill="none" stroke="#231f20" stroke-width="1.2" stroke-linecap="round"/><path d="M270.49162,183.66787c-3.59841,0.76216 -11.47623,7.80047 -11.47623,7.80047l-2.45393,-0.93045l2.30172,-2.30036" fill="none" stroke="#231f20" stroke-width="1.2" stroke-linecap="round"/><path d="M218.80597,215.71455c0.11797,-0.21185 0.26028,-0.41309 0.42705,-0.59933c1.19739,-1.33717 3.20255,-1.3952 4.47867,-0.12963c0.26116,0.259 0.47154,0.55337 0.63073,0.86922c1.2387,1.22847 3.91446,3.10226 3.9642,4.74658c0.10094,3.3374 -2.50962,5.63884 -5.22043,3.3939c-1.3008,-1.07724 -3.56645,-3.15186 -4.40809,-5.17691c-0.07887,-0.1761 -0.1424,-0.35802 -0.19053,-0.54351c-0.09202,-0.32601 -0.14082,-0.64823 -0.13621,-0.96218c0.00914,-0.62112 0.1774,-1.15653 0.4546,-1.59814z" fill="#9a8479" stroke="#000000" stroke-width="1.2" stroke-linecap="butt"/><g stroke="#000000" stroke-width="1.2"><path d="M233.36546,211.14849c2.86349,-0.16897 5.32179,2.01537 5.49075,4.87887c0.16897,2.86349 -2.01537,5.32179 -4.87887,5.49075c-2.86349,0.16897 -5.32179,-2.01537 -5.49075,-4.87887c-0.16897,-2.86349 2.01537,-5.32179 4.87887,-5.49075z" fill="#5c5e5f" stroke-linecap="butt"/><path d="M230.86352,222.08724l-0.96547,2.46381l-1.94268,0.02206l-2.43086,1.16172l-0.86864,-2.17044" fill="#9a8479" stroke-linecap="round"/><path d="M231.92377,217.73318l-0.54039,4.25228l-6.95759,2.78452l-3.83513,-2.41143l-0.49553,-3.92737l7.71514,-3.35677z" fill="#9a8479" stroke-linecap="round"/><path d="M229.20642,220.12957l-0.11252,2.4475" fill="none" stroke-linecap="round"/><path d="M225.83336,223.92566l-0.0831,-1.40822" fill="none" stroke-linecap="round"/><path d="M221.51011,220.32679l1.34064,0.94862l0.09066,1.53624l-2.10836,1.2806l-1.72469,-0.92595l-0.10576,-1.79229z" fill="#5c5e5f" stroke-linecap="round"/></g><path d="M252.61711,210.42482c-2.2878,2.00733 -5.44471,2.91089 -7.05116,2.01816c-1.60644,-0.89273 -1.05409,-3.2437 1.23371,-5.25103c2.2878,-2.00733 5.44471,-2.91089 7.05116,-2.01816c1.60644,0.89273 1.05409,3.2437 -1.23371,5.25103z" fill="#706d6d" stroke="#231f20" stroke-width="1.2" stroke-linecap="butt"/></g></g></svg>