<svg version="1.1" xmlns="http://www.w3.org/2000/svg" xmlns:xlink="http://www.w3.org/1999/xlink" width="96.91445" height="120.08918" viewBox="0,0,96.91445,120.08918"><g transform="translate(-183.6107,-121.46245)"><g stroke-miterlimit="10"><g fill-rule="evenodd"><path d="M252.24249,213.3626c1.63554,1.82619 3.78129,3.9347 6.8879,4.90886c6.99672,2.30344 14.85795,-0.28521 14.94531,4.05558c0.13749,4.42731 -11.24848,10.90649 -20.82445,2.35424c-3.31651,-2.93272 -5.22106,-6.22097 -6.68825,-8.95361c-0.40096,-0.69227 -3.25351,-7.01389 -1.51426,-10.79477c1.73924,-3.78088 3.37009,-2.76088 4.11719,-2.2691c0.88374,0.5282 0.85328,8.05742 3.07656,10.69882z" fill="#ffab19" stroke="#001026" stroke-width="1.2" stroke-linecap="round" stroke-linejoin="round"/><path d="M273.60191,221.90807c0.48319,2.03138 -2.64999,5.00175 -6.17986,5.89062c-3.52986,0.88886 -5.88937,0.4065 -7.66586,-0.06687c0.70597,-0.17777 2.81018,-0.93428 3.08308,-3.05691c0.41854,-2.66923 -2.21469,-5.41988 -2.21469,-5.41988c0,0 4.84198,0.77798 7.98029,0.80926c2.79218,0.23177 4.34079,-0.08736 4.99705,1.84377z" fill="#ffffff" stroke="none" stroke-width="1" stroke-linecap="butt" stroke-linejoin="miter"/></g><path d="M227.04162,187.30326c2.68779,-0.63341 5.38017,1.032 6.01358,3.7198c0.14388,0.61051 0.16914,1.22125 0.09077,1.80805c0.72019,1.76695 -2.74916,4.06428 -3.60766,5.30595c-3.22815,4.66891 -6.3622,6.58003 -12.73979,7.60743c-2.6062,0.41985 -5.21718,-0.34038 -6.01358,-3.7198c-1.51171,-6.41476 6.17515,-6.0741 9.33222,-8.14575c1.69189,-1.11021 5.10903,-7.52725 6.92446,-6.57568z" fill="#ffab19" fill-rule="nonzero" stroke="#000000" stroke-width="1.2" stroke-linecap="butt" stroke-linejoin="miter"/><g fill-rule="nonzero" stroke-linecap="round" stroke-linejoin="miter"><g><path d="M217.95206,228.10963l-5.39266,-11.73941l12.33906,-9.2224c0,0 0.62635,-4.14956 2.16893,-10.72513c0.74947,-3.19481 0.61372,-9.16416 2.84046,-11.28476c3.43396,-3.27025 11.30069,-2.88225 11.30069,-2.88225c0,0 8.82358,0.92478 10.56982,5.85143c1.38944,3.91998 -0.41562,7.34632 -0.8785,11.45924c-0.44163,3.92414 0.48833,8.62957 0.48833,8.62957l5.27055,7.80812l2.80951,14.72581c0,0 4.50666,0.72775 5.46412,2.62023c0.95746,1.89249 -0.42662,7.33662 -0.42662,7.33662l-18.94038,0.26202l-6.24827,-4.97842l-0.4037,-5.85617l0.26379,-11.50395c0,0 -2.31069,-10.22312 -2.83625,-7.74222c-0.2138,1.00923 -10.08132,7.32551 -10.08132,7.32551l7.59183,9.9262l0.02121,7.85387l-19.67558,1.49543l-4.04042,-0.71261c0,0 -3.78837,-3.78498 -1.38988,-6.44541c2.39848,-2.66043 9.18525,-2.20134 9.18525,-2.20134z" fill="#ffab19" stroke="#001026" stroke-width="1.2"/><path d="M238.94142,210.46702c0,0 -3.58057,-0.12795 -5.13547,-1.41577" fill="none" stroke="#001026" stroke-width="1.2"/><path d="M235.61127,204.01441c-4.51407,-0.6094 -4.4831,-4.57027 -4.25813,-8.36738c0.25233,-4.25907 0.86377,-8.78438 5.93957,-8.21912c5.56833,0.6201 5.99369,5.06879 5.63149,9.73288c0,0 -0.80775,7.73181 -7.31293,6.85362z" fill="#ffffff" stroke="#000000" stroke-width="0"/></g><path d="M245.88292,233.08733c0,0 1.53962,-2.53068 13.31728,-2.42275" fill="none" stroke="#001026" stroke-width="1.2"/></g><g><g><path d="M204.37163,156.6963c0,0 -3.3161,-31.47578 -2.24639,-31.60504c1.4411,-0.17414 24.58917,12.10756 24.58917,12.10756" fill="#ffab19" fill-rule="nonzero" stroke="#001026" stroke-width="1.2" stroke-linecap="round" stroke-linejoin="miter"/><path d="M258.81309,153.00063l14.40362,13.39611l-2.18936,5.77293l-30.26314,2.99034z" fill="#9b7f41" fill-rule="nonzero" stroke="#001026" stroke-width="1.2" stroke-linecap="round" stroke-linejoin="miter"/><path d="M196.68301,177.25383c0,0 -7.03796,1.52222 -12.47231,-1.1231" fill="none" fill-rule="evenodd" stroke="#001026" stroke-width="1.2" stroke-linecap="round" stroke-linejoin="round"/><path d="M197.62047,183.09262c0,0 -3.37263,2.72862 -9.62364,3.65863" fill="none" fill-rule="evenodd" stroke="#001026" stroke-width="1.2" stroke-linecap="round" stroke-linejoin="round"/><path d="M219.87789,144.80438c10.69785,-3.97458 41.48565,-0.56781 38.62602,27.23887c-0.03728,0.36252 -0.15807,0.71189 -0.27728,1.05979c-4.35357,12.70498 -17.91929,21.07105 -37.06976,21.69499c-19.15047,0.62394 -25.8672,-8.90946 -25.98017,-14.73331c-0.11298,-5.82385 6.33264,-9.4672 6.33264,-9.4672c0,0 -0.91485,-4.40716 0.96589,-10.48603c0,0 1.77282,-9.50013 17.40267,-15.3071z" fill="#ffab19" fill-rule="evenodd" stroke="#001026" stroke-width="1.2" stroke-linecap="butt" stroke-linejoin="miter"/><path d="M219.07102,171.98249c8.31967,-1.30497 17.47786,-12.7587 26.41313,-3.84013c8.91278,8.82114 0.94684,25.43902 -23.75767,26.01102c-18.9331,0.67639 -25.9271,-8.27985 -26.04008,-14.1037c-0.11298,-5.82385 6.20525,-9.12988 6.20525,-9.12988c7.85473,-3.76341 10.05144,2.19517 17.17938,1.0627z" fill="#ffffff" fill-rule="evenodd" stroke="none" stroke-width="1" stroke-linecap="butt" stroke-linejoin="miter"/><path d="M223.65041,169.59104c0.35993,1.55899 -3.17005,4.93972 -4.9689,5.14976c-1.58149,0.26249 -3.67291,-2.12832 -3.8904,-3.51493c-0.06003,-0.70456 2.0386,-1.39432 4.08477,-1.86672c1.94874,-0.4499 4.60203,-0.95984 4.77454,0.2319z" fill="#001026" fill-rule="evenodd" stroke="#001026" stroke-width="1.2" stroke-linecap="round" stroke-linejoin="round"/><path d="M253.84364,163.41283c-2.67934,5.41767 -9.17723,8.52047 -9.17723,8.52047" fill="none" fill-rule="evenodd" stroke="#001026" stroke-width="1.2" stroke-linecap="round" stroke-linejoin="round"/><path d="M257.34811,174.12955c-5.51311,3.08963 -9.85028,2.99534 -9.85028,2.99534" fill="none" fill-rule="evenodd" stroke="#001026" stroke-width="1.2" stroke-linecap="round" stroke-linejoin="round"/><path d="M246.15935,152.71245l-43.37108,4.74022l-1.44483,-22.75505l48.01679,-4.27405l14.86273,16.97231l-5.22943,16.4199z" fill="#c58600" fill-rule="nonzero" stroke="#001026" stroke-width="1.2" stroke-linecap="round" stroke-linejoin="miter"/><path d="M249.17524,130.63751l-3.03025,21.8755" fill="none" fill-rule="nonzero" stroke="#001026" stroke-width="0.75" stroke-linecap="round" stroke-linejoin="miter"/><path d="M255.93602,138.16951l-6.14796,-7.37582c0,0 11.31676,-8.98139 12.38962,-8.72589c1.2023,0.28633 -5.13104,31.46161 -5.13104,31.46161z" fill="#ffab19" fill-rule="nonzero" stroke="#001026" stroke-width="1.2" stroke-linecap="round" stroke-linejoin="miter"/></g><g><g fill-rule="evenodd" stroke="#001026"><path d="M213.80005,153.59697c3.13315,1.124 4.18298,6.11577 2.36959,11.1528c-1.91083,5.05952 -5.92052,8.14048 -9.05367,7.01648c-3.13315,-1.124 -4.18297,-6.11577 -2.36958,-11.15281c1.81339,-5.03703 5.89803,-8.23791 9.05367,-7.01648z" fill="#ffffff" stroke-width="1.2" stroke-linecap="round" stroke-linejoin="round"/><path d="M205.30696,163.93428c-0.24744,-1.07181 0.32959,-2.1287 1.30396,-2.35365c0.97437,-0.22496 1.95633,0.47201 2.20377,1.54382c0.24744,1.07181 -0.32959,2.1287 -1.30395,2.35365c-0.97437,0.22496 -1.95633,-0.47201 -2.20377,-1.54382" fill="#001026" stroke-width="0.5" stroke-linecap="butt" stroke-linejoin="miter"/></g><g fill-rule="evenodd" stroke="#001026"><path d="M237.9556,152.43165c3.51545,1.44626 4.6028,7.04516 2.57204,12.02974c-1.93332,4.96208 -5.90561,7.31599 -9.54844,6.20703c-3.0582,-1.24392 -4.46782,-6.46054 -2.53451,-11.42262c1.93332,-4.96208 5.97296,-8.35785 9.51091,-6.81415z" fill="#ffffff" stroke-width="1.2" stroke-linecap="round" stroke-linejoin="round"/><path d="M229.22264,162.61904c-0.24744,-1.07181 0.35209,-2.03127 1.30396,-2.35366c0.97437,-0.22496 1.95632,0.47202 2.20377,1.54383c0.24744,1.07181 -0.32959,2.1287 -1.30395,2.35365c-0.97437,0.22496 -1.95633,-0.47202 -2.20377,-1.54383" fill="#001026" stroke-width="0.5" stroke-linecap="butt" stroke-linejoin="miter"/></g><g fill="none" fill-rule="nonzero" stroke="none" stroke-width="1" stroke-linecap="butt" stroke-linejoin="miter" font-family="sans-serif" font-weight="normal" font-size="12" text-anchor="start"/></g></g><path d="M215.27594,191.01678c1.69483,6.27559 2.36893,11.80713 1.50564,12.35503c-0.86329,0.54791 -2.93705,-4.09528 -4.63187,-10.37086c-1.69483,-6.27559 -2.36892,-11.80713 -1.50563,-12.35503c0.86329,-0.54791 2.93705,4.09528 4.63187,10.37086z" fill="#ffffff" fill-rule="nonzero" stroke="#001026" stroke-width="1.2" stroke-linecap="butt" stroke-linejoin="miter"/><path d="M228.20324,200.07669c-0.65302,1.30288 -0.80595,3.05715 -1.76053,4.08785c-0.14558,0.15719 -0.30981,0.29755 -0.49729,0.41691c-2.22936,1.4193 -9.41686,1.87444 -10.90562,1.65303c-3.21586,-0.47828 -5.84862,-4.45746 -4.33387,-7.60131c1.64083,-3.40556 7.37535,-2.7529 10.0326,-2.95614c1.26221,-0.09654 3.94551,-1.04658 4.77117,0.23121z" fill="#ffab19" fill-rule="nonzero" stroke="#000000" stroke-width="1.2" stroke-linecap="butt" stroke-linejoin="miter"/><g fill-rule="nonzero" stroke="#000000" stroke-width="1.2" stroke-linejoin="miter"><path d="M228.84101,197.99229c-3.2307,-3.46006 -3.04479,-8.88401 0.41527,-12.11471c3.46006,-3.2307 8.88401,-3.04478 12.11472,0.41528c3.2307,3.46006 3.04479,8.88401 -0.41528,12.11472c-3.46006,3.2307 -8.884,3.04478 -12.11472,-0.41528z" fill="#5c5e5f" stroke-linecap="butt"/><g stroke-linecap="round"><path d="M232.72673,201.40033l-0.5254,4.71229l-2.21387,0.89443l-3.25779,3.04185l-2.94977,-2.40561z" fill="#ffab19"/><path d="M233.51935,195.96946l0.14335,6.43326l-3.59217,2.18137l-1.0107,1.17825l-3.34157,1.94737l-0.51781,0.95256l-3.31665,1.22049l-4.82999,-4.16811l-1.72241,-6.36609l10.82634,-7.99787z" fill="#ffab19"/><path d="M229.15118,203.09709l0.35026,-3.14152" fill="none"/><path d="M225.17409,202.35431l-0.01589,4.002" fill="none"/></g><path d="M221.26487,206.70803l-3.34988,2.18966l-3.32567,-2.05463l-0.3517,-3.89331l2.72338,-1.6047l3.82687,1.58665z" fill="#5c5e5f" stroke-linecap="round"/></g><path d="M248.83381,186.52671c0.35386,-0.65167 0.75883,-1.12803 1.2527,-1.56408c0.6965,-0.61496 1.56982,-1.14975 2.72597,-1.98306c1.57687,-1.13654 3.36755,-2.03823 5.1808,-2.69317c5.37961,-1.94309 11.8665,0.71002 8.90024,7.13656c-1.75683,3.80625 -7.57639,4.39398 -11.08812,4.5771c-0.68221,0.03557 -2.79704,0.67438 -3.71203,0.52029" fill="#ffab19" fill-rule="nonzero" stroke="#000000" stroke-width="1.2" stroke-linecap="butt" stroke-linejoin="miter"/><g fill-rule="nonzero" stroke-linejoin="miter"><path d="M275.86399,178.81106c0,0 -1.32822,8.04702 -7.79967,9.34043c-6.47145,1.29341 -14.57643,-4.25814 -14.57643,-4.25814c0,0 -9.67392,-6.05742 -4.85881,-10.30195c3.85581,-3.3989 6.26531,2.06039 6.26531,2.06039l1.02291,-4.94494c0,0 -2.37435,-8.27066 2.42941,-9.34043c4.62831,-1.0307 4.21949,7.55476 4.21949,7.55476l2.42941,0.13736c0,0 0.37767,-7.72205 5.11454,-6.59325c3.75991,0.89599 1.4065,7.82948 1.4065,7.82948l1.27863,1.37359c0,0 4.58536,-3.80472 6.6489,0c2.14508,3.95507 -3.58018,7.14269 -3.58018,7.14269z" fill="#ffab19" stroke="#001026" stroke-width="1.2" stroke-linecap="round"/><path d="M261.37883,166.11059c0.19934,1.92697 -0.49982,3.57814 -1.56162,3.68798c-1.0618,0.10984 -2.08416,-1.36324 -2.2835,-3.29021c-0.19934,-1.92697 0.49982,-3.57814 1.56162,-3.68798c1.0618,-0.10984 2.08416,1.36324 2.2835,3.29021z" fill="#ffffff" stroke="none" stroke-width="0" stroke-linecap="butt"/><path d="M270.90651,167.34419c-0.52391,1.82397 -1.78034,3.06369 -2.80632,2.76899c-1.02598,-0.2947 -1.433,-2.01222 -0.90909,-3.83619c0.52391,-1.82397 1.78034,-3.06369 2.80632,-2.76899c1.02598,0.2947 1.433,2.01222 0.90909,3.83619z" fill="#ffffff" stroke="none" stroke-width="0" stroke-linecap="butt"/><path d="M276.75829,174.99952c-1.31389,1.1401 -2.94615,1.41075 -3.64575,0.6045c-0.69961,-0.80625 -0.20164,-2.38408 1.11225,-3.52418c1.31389,-1.1401 2.94615,-1.41075 3.64575,-0.6045c0.69961,0.80625 0.20164,2.38408 -1.11225,3.52418z" fill="#ffffff" stroke="none" stroke-width="0" stroke-linecap="butt"/><path d="M273.35767,181.01904c-0.73188,3.27988 -4.69869,3.5472 -9.21336,2.5398c-4.51466,-1.0074 -7.86757,-2.90805 -7.13569,-6.18793c0.41579,-1.86336 3.543,-0.39926 5.63411,-1.07568c1.58966,-0.51421 1.91579,-3.47409 3.86559,-3.03901c2.39706,0.53488 1.66561,3.05409 2.89441,4.58183c1.08555,1.34963 4.29822,1.64256 3.95493,3.181z" fill="#ffffff" stroke="none" stroke-width="0" stroke-linecap="butt"/><path d="M253.68008,174.92677c0.7381,1.26296 0.58932,2.72343 -0.3323,3.26204c-0.92162,0.53861 -2.26709,-0.04859 -3.00518,-1.31156c-0.7381,-1.26296 -0.58932,-2.72343 0.3323,-3.26204c0.92162,-0.53861 2.26709,0.04859 3.00518,1.31156z" fill="#ffffff" stroke="none" stroke-width="0" stroke-linecap="butt"/></g></g></g></svg>