<svg version="1.1" xmlns="http://www.w3.org/2000/svg" xmlns:xlink="http://www.w3.org/1999/xlink" width="308.98668" height="420.90683" viewBox="0,0,308.98668,420.90683"><g transform="translate(-85.63371,30.50748)"><g data-paper-data="{&quot;isPaintingLayer&quot;:true}" stroke-miterlimit="10" stroke-dasharray="" stroke-dashoffset="0" style="mix-blend-mode: normal"><path d="M298.23683,273.90691c0,0 27.18173,-17.72581 47.16715,-28.58967c5.74408,-3.12242 4.0578,-25.18399 2.18008,-45.67919c-1.73929,-18.98418 -3.48451,-36.62445 -3.48451,-36.62445l39.75582,-3.6159c0,0 0.28019,64.93722 -5.38885,88.41017c-1.85634,7.68628 -62.47477,58.76137 -62.47477,58.76137z" fill="#2b2b2b" fill-rule="nonzero" stroke="#001026" stroke-width="1.2" stroke-linecap="butt" stroke-linejoin="miter"/><path d="M278.18371,330.77209c0,-32.46476 12.04693,-58.78267 26.90756,-58.78267c14.86064,0 26.90756,26.3179 26.90756,58.78267c0,32.46477 -12.04692,58.78268 -26.90756,58.78268c-14.86064,0 -26.90756,-26.31791 -26.90756,-58.78268z" fill="#d5d5d5" fill-rule="nonzero" stroke="#001026" stroke-width="1.2" stroke-linecap="butt" stroke-linejoin="miter"/><path d="M93.59336,331.01668c0,-32.46476 12.04693,-58.78267 26.90756,-58.78267c14.86065,0 26.90756,26.31791 26.90756,58.78267c0,32.46477 -12.04691,58.78267 -26.90756,58.78267c-14.86065,0 -26.90756,-26.3179 -26.90756,-58.78267z" fill="#d5d5d5" fill-rule="nonzero" stroke="#001026" stroke-width="1.2" stroke-linecap="butt" stroke-linejoin="miter"/><path d="M117.40143,272.86719v-261.30412h210.99958v261.30412z" fill="#2b2b2b" fill-rule="nonzero" stroke="#001026" stroke-width="1.2" stroke-linecap="butt" stroke-linejoin="miter"/><path d="M86.65975,296.73923l31.44033,-55.19526l210.09594,0.48658l19.06916,57.50338z" fill="#2b2b2b" fill-rule="nonzero" stroke="#001026" stroke-width="1.2" stroke-linecap="butt" stroke-linejoin="miter"/><g fill-rule="evenodd"><path d="M198.60563,189.20442c2.69099,-1.25427 8.53932,-3.81637 12.42523,9.44015c3.88592,13.25652 -8.53487,32.63952 -10.18596,34.71932c-6.13799,8.26561 -13.98062,18.14468 -26.28848,26.17424c-35.57805,23.46156 -69.84119,-3.31495 -67.25164,-17.78809c2.38317,-14.21317 26.94971,-1.91551 51.03971,-6.10127c10.6727,-1.69892 18.7377,-7.58713 24.99084,-12.7946c8.57695,-7.60085 12.11296,-32.3419 15.27031,-33.64974z" fill="#ffab19" stroke="#001026" stroke-width="1.2" stroke-linecap="round" stroke-linejoin="round"/><path d="M126.36403,236.96106c10.32151,1.4128 26.59851,1.19622 26.59851,1.19622c0,0 -9.97604,7.76162 -9.89056,16.72965c-0.12887,7.10258 6.41613,10.60318 8.64872,11.52793c-6.06269,0.69666 -14.04441,1.14132 -25.20741,-3.4824c-11.16299,-4.62374 -20.0181,-15.8917 -17.45024,-22.3295c3.08781,-6.02504 8.01937,-4.22913 17.30098,-3.64187z" fill="#ffffff" stroke="none" stroke-width="1" stroke-linecap="butt" stroke-linejoin="miter"/></g><path d="M210.23731,262.80838c-2.12381,5.33056 -7.34123,19.45275 -16.39598,36.0256c-4.96526,9.0879 -11.08442,18.91273 -18.48006,28.42888l-1.11931,1.27064c-1.1193,1.27062 -0.62988,3.42744 0.97885,4.31362c11.34298,4.15145 33.0146,13.15371 18.38174,31.7237c-13.95665,18.10372 -80.30079,-6.48997 -74.72594,-28.79149c3.16028,-9.163 10.54007,-10.75942 14.51556,-11.50516c2.1568,-0.48942 3.84737,-1.65508 5.30479,-3.15884c3.12481,-4.15001 8.69819,-11.98372 12.3479,-18.98992c9.40989,-17.46298 10.69282,-22.83727 13.95808,-32.5715c3.26526,-9.73424 10.19255,-32.96827 30.16275,-30.77453c17.11403,1.66883 18.02193,16.00847 15.07161,24.02898z" fill="#ffab19" fill-rule="evenodd" stroke="#001026" stroke-width="2.5" stroke-linecap="round" stroke-linejoin="round"/><path d="M250.54714,242.03414c19.97021,-2.19373 26.89748,21.04029 30.16274,30.77452c3.26526,9.73424 4.5482,15.10852 13.95809,32.57151c3.6497,7.00619 9.2231,14.83991 12.3479,18.98991c1.45742,1.50376 3.14798,2.66941 5.30478,3.15884c3.9755,0.74572 11.35528,2.34215 14.51556,11.50516c5.57484,22.3015 -60.76932,46.89523 -74.72595,28.7915c-14.63286,-18.56998 7.03876,-27.57225 18.38175,-31.7237c1.60873,-0.88618 2.09816,-3.04299 0.97885,-4.31362l-1.1193,-1.27062c-20.88245,-26.86997 -31.5876,-56.20084 -34.87604,-64.45449c-2.95032,-8.02052 -2.04242,-22.36017 15.07161,-24.02898z" fill="#ffab19" fill-rule="evenodd" stroke="#001026" stroke-width="2.5" stroke-linecap="round" stroke-linejoin="round"/><path d="M263.12892,155.46757c1.85471,1.70974 74.79393,50.32343 82.21279,42.62956c8.90265,-8.97619 21.14379,-26.50116 34.49777,-12.39572c13.35397,14.10546 -11.87019,38.04197 -22.62757,44.45353c-25.59512,13.25058 -96.03459,-28.69153 -100.48592,-35.53054c-4.45133,-6.839 -12.24116,-18.37982 -12.24116,-29.49321c0.37095,-11.96827 18.64408,-9.66364 18.64408,-9.66364z" fill="#ffab19" fill-rule="evenodd" stroke="#001026" stroke-width="2.5" stroke-linecap="round" stroke-linejoin="round"/><path d="M174.59437,226.12139c10.83991,13.93261 27.61208,31.36371 6.22692,45.63831c-29.32637,16.21965 -53.3808,-33.46965 -58.25536,-50.844c-4.38832,-15.38905 8.54813,-25.24222 19.49446,-33.61769c21.38986,-15.26606 39.30256,-29.06146 59.09643,-21.53084c24.74411,9.04148 6.80307,28.7857 -5.63283,37.64976c-7.46203,5.41756 -14.92644,11.33092 -20.39604,14.77504c-1.49904,2.47156 -2.00897,5.44364 -0.5336,7.92937z" fill="#ffab19" fill-rule="evenodd" stroke="#001026" stroke-width="2.5" stroke-linecap="round" stroke-linejoin="round"/><path d="M195.57259,179.44154c0.23338,-1.41068 0.47948,-2.70117 0.74612,-3.88379c3.08086,-13.66384 8.90638,-12.92891 29.59281,-16.82608c12.48507,-3.02347 19.83745,-4.78162 27.32351,-8.20609c11.29903,-4.96338 15.9345,12.51448 16.31233,22.43944c0,0 0.32347,14.78409 -1.52463,23.18885c-1.2052,5.28523 9.33475,57.75604 -9.38754,54.47278c-5.57994,-0.97854 -67.96644,0.57758 -72.77045,-8.2383c-10.2185,-18.75205 8.84033,-56.24774 9.70785,-62.94683z" fill="#ffab19" fill-rule="evenodd" stroke="#001026" stroke-width="2.5" stroke-linecap="round" stroke-linejoin="round"/><path d="M265.02937,250.17299c0,0 -10.17648,-0.52647 -21.71237,-2.03578c-14.1877,-1.56356 -27.44679,-1.83473 -28.4266,-21.38028c0.3254,-15.91089 -2.25634,-34.95866 26.10626,-36.39484c26.88195,-1.6787 26.43529,14.97254 26.43529,14.97254c4.45177,26.19584 -2.4026,44.83838 -2.4026,44.83838z" fill="#ffffff" fill-rule="evenodd" stroke="none" stroke-width="1" stroke-linecap="butt" stroke-linejoin="miter"/><g><path d="M259.30032,-29.46742c0.99581,-0.66387 2.65551,-0.33195 2.98744,0.99582l8.63036,35.51725c0,0 21.24397,15.60104 27.55077,26.55497c10.62198,18.25652 10.95393,33.1937 10.95393,33.1937c0,0 23.56751,6.97068 27.55076,25.89108c3.98325,18.92041 -10.62198,54.7696 -73.02612,67.05127c-62.40415,12.28168 -112.52662,-4.64712 -136.09413,-42.48793c-23.56752,-37.84082 13.60941,-82.98424 11.61778,-80.32874l-6.97066,-59.4167c-0.33193,-1.32776 1.32774,-2.32355 2.6555,-1.65968l40.16438,26.22303c0,0 14.93716,-5.64293 30.5382,-6.3068c9.29424,-0.66387 17.26071,0 24.89527,1.32775z" fill="#ffab19" fill-rule="evenodd" stroke="#001026" stroke-width="2.5" stroke-linecap="butt" stroke-linejoin="miter"/><path d="M308.08387,68.12205c0,0 22.90363,5.97486 26.88688,24.89528c3.98325,18.92041 -11.94973,53.10991 -73.69,65.05963c-80.32873,16.59685 -118.50149,-31.20205 -96.26171,-66.38737c22.23977,-35.51725 60.41252,-5.311 88.29523,-7.30261c23.89946,-1.65967 26.55496,-22.5717 54.7696,-16.26491z" fill="#ffffff" fill-rule="evenodd" stroke="none" stroke-width="1" stroke-linecap="butt" stroke-linejoin="miter"/><path d="M179.08079,107.07203c0,-1.32776 7.14692,-15.78044 8.47468,-15.4485c6.30681,2.32356 18.41221,21.09142 38.32842,22.41917c17.9246,0.99581 28.54657,0 33.52563,-0.99582c1.65967,-0.33193 30.03622,-2.66306 29.37235,-1.00337c-1.09754,3.29263 -32.93189,11.83447 -45.88602,22.90842c-22.30602,19.06849 -33.06992,43.03076 -55.1186,41.77084c-30.20626,-3.31936 -9.69227,-53.38583 -8.69647,-69.65073z" fill="#ffffff" fill-rule="evenodd" stroke="#001026" stroke-width="2.5" stroke-linecap="round" stroke-linejoin="round"/><path d="M369.16027,71.77335c-15.60104,12.6136 -39.50049,12.94553 -39.50049,12.94553" fill="none" fill-rule="evenodd" stroke="#001026" stroke-width="2.5" stroke-linecap="round" stroke-linejoin="round"/><path d="M364.84508,108.95028c-20.91203,1.65967 -33.85757,-4.64712 -33.85757,-4.64712" fill="none" fill-rule="evenodd" stroke="#001026" stroke-width="2.5" stroke-linecap="round" stroke-linejoin="round"/><path d="M244.13518,79.06242c6.97066,0 14.27328,0.66388 14.60522,2.98744c0.33195,4.64712 -4.64711,13.94135 -9.95812,14.27329c-5.97487,0.66387 -19.91621,-7.63454 -19.91621,-12.94554c-0.33193,-3.98325 8.63035,-4.31517 15.2691,-4.31517z" fill="#001026" fill-rule="evenodd" stroke="#001026" stroke-width="1.2" stroke-linecap="round" stroke-linejoin="round"/><path d="M102.61491,70.77755c0,0 28.54656,9.29423 40.16438,19.58427" fill="none" fill-rule="evenodd" stroke="#001026" stroke-width="2.5" stroke-linecap="round" stroke-linejoin="round"/><path d="M143.77509,101.97962c-14.27328,5.64292 -38.83663,1.99162 -38.83663,1.99162" fill="none" fill-rule="evenodd" stroke="#001026" stroke-width="2.5" stroke-linecap="round" stroke-linejoin="round"/><g fill="none" fill-rule="nonzero" stroke="none" stroke-width="1" stroke-linecap="butt" stroke-linejoin="miter" font-family="sans-serif" font-weight="normal" font-size="12" text-anchor="start"/><g fill="none" fill-rule="nonzero" stroke="none" stroke-width="1" stroke-linecap="butt" stroke-linejoin="miter" font-family="sans-serif" font-weight="normal" font-size="12" text-anchor="start"/></g><path d="M205.50022,141.68478c0,0 -13.03458,-4.5178 -17.12324,-8.85681c-4.90386,-5.20409 -10.30143,-20.24693 -10.30143,-20.24693" fill="none" fill-rule="nonzero" stroke="#001026" stroke-width="2.5" stroke-linecap="round" stroke-linejoin="miter"/><path d="M172.64279,-16.22038c0,0 7.52048,-6.63179 15.57308,-6.56034c5.39131,0.04783 11.30766,5.39264 14.30147,9.23376c10.08423,12.93827 26.21121,58.60545 26.21121,58.60545" fill="none" fill-rule="nonzero" stroke="#001026" stroke-width="2.5" stroke-linecap="round" stroke-linejoin="miter"/><path d="M319.37893,19.22012c0,0 -35.84836,17.48927 -48.83767,20.14402c-9.84051,2.0112 -22.30812,-5.60328 -22.30812,-5.60328" fill="none" fill-rule="nonzero" stroke="#001026" stroke-width="2.5" stroke-linecap="round" stroke-linejoin="miter"/><path d="M160.34919,57.47675c0,-18.88137 15.30637,-34.18773 34.18773,-34.18773c18.88137,0 34.18773,15.30638 34.18773,34.18773c0,18.88137 -15.30638,34.18773 -34.18773,34.18773c-18.88136,0 -34.18773,-15.30636 -34.18773,-34.18773z" fill="#ffffff" fill-rule="nonzero" stroke="#001026" stroke-width="2.5" stroke-linecap="butt" stroke-linejoin="miter"/><path d="M245.38729,49.09651c0,-18.88137 10.94198,-7.63768 29.82335,-7.63768c18.88137,0 38.91582,-14.51698 38.91582,4.36439c0,18.88137 -15.67006,37.46103 -34.55142,37.46103c-18.88137,0 -34.18773,-15.30636 -34.18773,-34.18773z" fill="#ffffff" fill-rule="nonzero" stroke="#001026" stroke-width="2.5" stroke-linecap="butt" stroke-linejoin="miter"/><path d="M187.84842,58.69274c0,-4.72033 3.82659,-8.54695 8.54694,-8.54695c4.72033,0 8.54694,3.82659 8.54694,8.54695c0,4.72033 -3.82659,8.54694 -8.54694,8.54694c-4.72033,0 -8.54694,-3.82658 -8.54694,-8.54694z" fill="#001026" fill-rule="nonzero" stroke="#001026" stroke-width="2.5" stroke-linecap="butt" stroke-linejoin="miter"/><path d="M254.20731,57.36621c0,-6.86291 3.25669,-12.4264 7.27399,-12.4264c4.01732,0 7.27397,5.56348 7.27397,12.4264c0,6.86291 -3.25667,12.42639 -7.27397,12.42639c-4.01732,0 -7.27399,-5.56348 -7.27399,-12.42639z" fill="#001026" fill-rule="nonzero" stroke="#001026" stroke-width="2.5" stroke-linecap="butt" stroke-linejoin="miter"/><path d="M338.40999,144.94796c0,-15.02332 12.17881,-27.20213 27.20213,-27.20213c15.02333,0 27.20213,12.17881 27.20213,27.20213c0,15.02333 -12.17881,27.20212 -27.20213,27.20212c-15.02332,0 -27.20213,-12.1788 -27.20213,-27.20212z" fill="#ffab19" fill-rule="nonzero" stroke="#001026" stroke-width="2.5" stroke-linecap="butt" stroke-linejoin="miter"/><g fill-rule="nonzero" stroke="#001026" stroke-width="2.5" stroke-linecap="round" stroke-linejoin="miter"><path d="M349.47921,220.36869l-13.22841,-3.90076l2.43288,-15.96532l-1.85384,-8.45056l13.01797,-11.21076z" fill="#ffab19"/><path d="M393.34026,179.92924l-1.77224,48.73815l-22.56204,7.87147l-22.34558,-5.91836l-3.1345,-12.41556l1.78952,-3.49719l-1.0117,-13.97702l1.45621,-5.43291l-0.82448,-15.20511l19.53276,-12.73126z" fill="#ffab19"/><path d="M352.0876,195.00543l8.67864,-7.47382" fill="none"/><path d="M350.50848,213.6141l11.93597,-8.2341" fill="none"/></g></g></g></svg>