<svg version="1.1" xmlns="http://www.w3.org/2000/svg" xmlns:xlink="http://www.w3.org/1999/xlink" width="90.67649" height="125.80772" viewBox="0,0,90.67649,125.80772"><g transform="translate(-187.00349,-115.74477)"><g stroke-miterlimit="10"><g fill-rule="nonzero" stroke="#000000" stroke-width="1.2" stroke-linejoin="miter"><path d="M226.26642,184.57205c2.01111,-1.89232 5.17548,-1.79602 7.0678,0.21508c0.42984,0.4568 0.75705,0.97311 0.98254,1.52049c1.5071,1.17022 -0.349,4.89433 -0.47175,6.39889c-0.46155,5.65744 -2.22036,8.87943 -7.23007,12.95768c-2.04722,1.66657 -4.68854,2.31352 -7.0678,-0.21508c-4.51627,-4.79977 2.3113,-8.34776 4.00979,-11.72029c0.91023,-1.80736 0.66148,-9.07326 2.70948,-9.15677z" fill="#ffab19" stroke-linecap="butt"/><g><path d="M213.71171,204.06301c-0.3794,4.71863 -4.51218,8.2363 -9.23082,7.85688c-4.71863,-0.3794 -8.23629,-4.51219 -7.85688,-9.23083c0.3794,-4.71863 4.51218,-8.2363 9.23083,-7.85688c4.71863,0.3794 8.23628,4.51219 7.85688,9.23083z" fill="#5c5e5f" stroke-linecap="butt"/><g stroke-linecap="round"><path d="M213.61127,198.89548l3.83573,-2.78726l2.15271,1.033l4.4428,0.35723l0.21036,3.80051z" fill="#ffab19"/><path d="M209.06456,201.96953l4.65662,-4.44107l4.03236,1.18413l1.55163,-0.04723l3.6906,1.15666l1.05274,-0.25931l3.13674,1.62807l0.17515,6.37741l-3.54292,5.5625l-13.20476,-2.60956z" fill="#ffab19"/><path d="M214.71724,202.25207l2.55715,-1.85818" fill="none"/><path d="M222.37323,201.14782l-2.9676,2.68508" fill="none"/></g><path d="M225.25666,203.78741l3.87521,0.99952l0.72299,3.84174l-2.63958,2.88343l-3.02083,-0.93083l-1.4065,-3.89669z" fill="#5c5e5f" stroke-linecap="round"/></g></g><g fill-rule="evenodd"><path d="M247.40009,203.45225c2.36033,-0.52845 5.19764,-1.36281 7.42985,-3.59114c5.12613,-4.96493 6.21419,-13.08452 10.16935,-11.02977c4.05507,2.05357 4.94257,15.15383 -6.94587,19.29833c-4.09101,1.44975 -7.88788,1.49484 -10.99286,1.43163c-0.79935,0.00949 -7.74642,-0.60857 -10.40072,-3.97985c-2.65431,-3.37128 -1.02353,-4.29139 -0.25434,-4.70086c0.86157,-0.51064 7.64265,3.21195 10.99461,2.57164z" fill="#ffab19" stroke="#001026" stroke-width="1.2" stroke-linecap="round" stroke-linejoin="round"/><path d="M264.41484,189.03848c2.04358,0.57623 3.35933,4.76406 2.62397,8.27569c-0.73537,3.51162 -2.19837,5.33048 -3.39931,6.64581c0.14707,-0.70232 0.38091,-2.90691 -1.41567,-4.18666c-2.22641,-1.67495 -5.85552,-0.73112 -5.85552,-0.73112c0,0 2.81102,-3.83652 4.20618,-6.55532c1.42533,-2.31883 1.81185,-3.82466 3.84034,-3.44842z" fill="#ffffff" stroke="none" stroke-width="1" stroke-linecap="butt" stroke-linejoin="miter"/></g><g fill-rule="nonzero" stroke-linecap="round" stroke-linejoin="miter"><g><path d="M218.97266,227.17027l4.97114,-22.49542c0,0 0.30666,-4.45315 1.29021,-11.5098c0.47787,-3.42855 -0.01904,-9.83464 1.86272,-12.11038c2.90194,-3.50951 10.04374,-3.09312 10.04374,-3.09312c0,0 8.04114,0.99244 9.92981,6.27953c1.50276,4.20678 0.08436,7.88379 -0.07668,12.29762c-0.15364,4.21124 0.98263,9.26093 0.98263,9.26093l8.72267,24.18257c0,0 4.12304,0.78099 5.10791,2.81193c0.98487,2.03095 0.07379,7.87339 0.07379,7.87339l-17.11999,0.28119l-5.96516,-5.34266l-0.73226,-6.28462c0,0 -2.9077,-25.86138 -3.5336,-20.65426c-0.27928,2.32346 -1.17123,18.51388 -1.17123,18.51388l0.51139,8.42848l-17.70788,1.60484l-3.70026,-0.76474c0,0 -3.66476,-4.0619 -1.66143,-6.91698c2.00331,-2.85507 8.17245,-2.36239 8.17245,-2.36239z" fill="#ffab19" stroke="#001026" stroke-width="1.2"/><path d="M236.85726,208.23689c0,0 -3.24757,-0.13731 -4.73508,-1.51935" fill="none" stroke="#001026" stroke-width="1.2"/><path d="M233.43988,201.31218c-4.12233,-0.65398 -4.34252,-4.90464 -4.37695,-8.97955c-0.03861,-4.57068 0.23099,-9.42706 4.85878,-8.82045c5.07683,0.66547 5.74049,5.43964 5.70508,10.44496c0,0 -0.24628,8.29748 -6.18691,7.35504z" fill="#ffffff" stroke="#000000" stroke-width="0"/></g><path d="M244.55521,232.51218c0,0 1.23437,-2.71583 11.89706,-2.6" fill="none" stroke="#001026" stroke-width="1.2"/></g><path d="M254.78386,189.30966c3.40313,-1.0482 7.89038,-2.9651 9.05344,2.08933c0.96202,6.69138 -10.13045,7.6749 -13.75614,7.35179c-3.21645,-0.27285 -4.14978,-3.41752 -4.94668,-6.08115c-1.34972,-5.12623 -2.67073,-9.49143 0.16523,-12.68632c3.47495,-4.02053 5.91596,0.77544 6.69851,3.75498c0.4882,1.7949 1.06974,3.62571 1.32819,4.90367c0.35897,0.4595 0.88308,0.76822 1.45745,0.66771z" fill="#ffab19" fill-rule="evenodd" stroke="#001026" stroke-width="1.2" stroke-linecap="round" stroke-linejoin="round"/><g><g><g><path d="M210.80464,143.80188c0,0 -2.05402,-27.51354 -0.97802,-27.45702c1.44959,0.07613 26.33937,12.08974 26.33937,12.08974" fill="#ffab19" fill-rule="nonzero" stroke="#001026" stroke-width="1.2" stroke-linecap="round" stroke-linejoin="miter"/><path d="M265.07119,149.51812l11.88689,15.67232l-3.14898,5.31073l-30.32677,-2.25551z" fill="#9b7f41" fill-rule="nonzero" stroke="#001026" stroke-width="1.2" stroke-linecap="round" stroke-linejoin="miter"/><path d="M199.69718,162.73206c0,0 -7.19486,0.28995 -12.09369,-3.25002" fill="none" fill-rule="evenodd" stroke="#001026" stroke-width="1.2" stroke-linecap="round" stroke-linejoin="round"/><path d="M199.61719,168.64506c0,0 -3.79141,2.10836 -10.10925,1.95017" fill="none" fill-rule="evenodd" stroke="#001026" stroke-width="1.2" stroke-linecap="round" stroke-linejoin="round"/><path d="M228.12404,134.752c11.22177,-2.07678 40.96591,6.57081 33.36968,33.47223c-0.09903,0.35072 -0.27807,0.67413 -0.4553,0.99636c-6.47239,11.76767 -21.27413,17.6777 -40.24687,15.00096c-18.97274,-2.67675 -23.95101,-13.2227 -23.06135,-18.9793c0.88964,-5.7566 7.86554,-8.23792 7.86554,-8.23792c0,0 -0.14378,-4.49881 2.75376,-10.16398c0,0 3.37923,-9.05407 19.77456,-12.08832z" fill="#ffab19" fill-rule="evenodd" stroke="#001026" stroke-width="1.2" stroke-linecap="butt" stroke-linejoin="miter"/><path d="M222.65804,161.38699c8.42015,0.14435 19.41063,-9.56491 26.6801,0.75666c7.26406,10.22173 -3.43947,25.22321 -27.87468,21.54072c-18.76762,-2.58772 -24.11823,-12.61276 -23.22858,-18.36936c0.88964,-5.7566 7.68207,-7.92752 7.68207,-7.92752c8.38467,-2.35741 9.52458,3.89005 16.74109,3.99951z" fill="#ffffff" fill-rule="evenodd" stroke="none" stroke-width="1" stroke-linecap="butt" stroke-linejoin="miter"/><path d="M227.58031,159.81819c0.08663,1.59765 -3.97187,4.32138 -5.78006,4.21913c-1.60307,-0.01323 -3.25246,-2.72791 -3.2284,-4.13128c0.06196,-0.70439 2.24791,-1.0232 4.34482,-1.13689c1.99707,-0.10828 4.69852,-0.15461 4.66363,1.04905z" fill="#001026" fill-rule="evenodd" stroke="#001026" stroke-width="1.2" stroke-linecap="round" stroke-linejoin="round"/><path d="M258.3861,158.92124c-3.57061,4.87655 -10.50509,6.81638 -10.50509,6.81638" fill="none" fill-rule="evenodd" stroke="#001026" stroke-width="1.2" stroke-linecap="round" stroke-linejoin="round"/><path d="M259.99657,170.08082c-5.96208,2.09611 -10.21851,1.25779 -10.21851,1.25779" fill="none" fill-rule="evenodd" stroke="#001026" stroke-width="1.2" stroke-linecap="round" stroke-linejoin="round"/><path d="M252.65528,147.05941l-43.5404,-2.78453l2.4876,-22.66478l48.03686,4.04222l11.72452,19.27422l-7.97372,15.27677z" fill="#c58600" fill-rule="nonzero" stroke="#001026" stroke-width="1.2" stroke-linecap="round" stroke-linejoin="miter"/><path d="M252.67537,146.86044l6.74492,-21.02917" fill="none" fill-rule="nonzero" stroke="#001026" stroke-width="0.75" stroke-linecap="round" stroke-linejoin="miter"/><path d="M264.78596,134.41321l-4.78879,-8.32272c0,0 15.64547,-2.17273 16.65846,-1.73664c1.1352,0.48871 -13.41549,25.38158 -13.41549,25.38158z" fill="#ffab19" fill-rule="nonzero" stroke="#001026" stroke-width="1.2" stroke-linecap="round" stroke-linejoin="miter"/></g><g><g fill-rule="evenodd"><path d="M220.46496,142.37041c2.89335,1.64577 3.06961,6.7437 0.41749,11.39411c-2.75198,4.65582 -7.23153,7.00178 -10.12487,5.35601c-2.89335,-1.64577 -3.0696,-6.7437 -0.41748,-11.39411c2.65212,-4.6504 7.22611,-7.10163 10.12487,-5.35601z" fill="#ffffff" stroke="#001026" stroke-width="1.2" stroke-linecap="round" stroke-linejoin="round"/><path d="M214.11054,152.92881c-0.05955,-1.09839 0.69055,-2.04038 1.68909,-2.09451c0.99854,-0.05414 1.84609,0.80122 1.90563,1.89961c0.05955,1.09839 -0.69055,2.04038 -1.68908,2.09451c-0.99854,0.05414 -1.84609,-0.80122 -1.90563,-1.89961" fill="#001026" stroke="none" stroke-width="1" stroke-linecap="butt" stroke-linejoin="miter"/></g><g fill-rule="evenodd"><path d="M244.62184,145.37276c3.21456,2.02894 3.32345,7.7314 0.46621,12.29279c-1.15721,1.91203 -2.58925,3.30981 -4.1128,4.16117c-2.18336,0.05878 -4.36775,0.12043 -6.55501,0.18216c-2.6257,-1.8748 -3.03111,-7.10978 -0.33893,-11.55802c2.75739,-4.55596 7.32055,-7.20691 10.54054,-5.07811z" fill="#ffffff" stroke="#001026" stroke-width="1.2" stroke-linecap="round" stroke-linejoin="round"/><path d="M237.89642,155.74356c-0.05955,-1.09839 0.69597,-1.94053 1.68909,-2.09452c0.99854,-0.05414 1.84608,0.80123 1.90563,1.89962c0.05955,1.09839 -0.69055,2.04038 -1.68908,2.09451c-0.99854,0.05414 -1.84609,-0.80123 -1.90563,-1.89962" fill="#001026" stroke="none" stroke-width="1" stroke-linecap="butt" stroke-linejoin="miter"/></g><g fill="#ffffff" fill-rule="nonzero" stroke="#001026" stroke-width="1.2" stroke-linecap="round" stroke-linejoin="miter"><path d="M217.88758,171.39763c-0.06746,-0.07381 0.88682,0.53985 1.99341,0.05169c1.93138,-0.85199 4.99882,-3.09526 8.72946,-4.11041c6.35258,-1.72862 10.65691,-1.85866 12.80204,-2.33904c2.34091,-0.52423 2.23422,-1.31349 2.51674,-1.23334c0.9991,0.28343 2.27069,14.00253 -8.14124,17.25946c-10.41193,3.25695 -17.32201,-8.9956 -17.90039,-9.62836z"/></g></g></g><path d="M237.40673,161.98672c6.40425,-0.30846 9.07215,0.80726 9.07215,0.80726" fill="none" fill-rule="nonzero" stroke="#001026" stroke-width="1.2" stroke-linecap="round" stroke-linejoin="miter"/></g><g fill-rule="nonzero" stroke-linejoin="miter"><g fill="#ffab19" stroke="#000000" stroke-width="1.2" stroke-linecap="round"><path d="M262.43904,189.27416c0,0 0.03577,2.1136 -0.67541,2.54422c-6.10092,3.69411 -13.85453,4.46088 -18.37103,-0.33923c-3.43186,-3.64735 -0.94556,-14.41731 -0.94556,-14.41731c0,0 -3.04828,-10.59326 1.89114,-11.36421c5.61466,-0.87635 4.45768,9.66807 4.45768,9.66807l3.78227,0.67846c0,0 0.45447,-11.66508 5.67342,-10.85537c5.88248,0.91264 1.35081,12.21229 1.35081,12.21229l2.56654,1.86577c0,0 3.56815,0.52825 3.6472,2.31473c0.07904,1.78648 0.95659,5.61006 -3.24195,6.8445c-3.50021,1.02912 -4.72783,-3.90115 -4.72783,-3.90115"/><path d="M245.689,193.34491c-4.13765,-3.021 -9.96108,1.65161 -11.07666,-5.59728c-1.07682,-6.99707 7.83471,-3.90116 7.83471,-3.90116"/></g><path d="M247.79716,171.72004c0.08516,2.19967 -0.85324,4.01909 -2.096,4.06378c-1.24275,0.04469 -2.31926,-1.70228 -2.40442,-3.90196c-0.08516,-2.19967 0.85324,-4.01909 2.096,-4.06378c1.24275,-0.04469 2.31926,1.70228 2.40442,3.90196z" fill="#ffffff" stroke="none" stroke-width="0" stroke-linecap="butt"/><path d="M259.47531,172.32946c-0.25134,2.18311 -1.54293,3.79556 -2.88483,3.60151c-1.3419,-0.19406 -2.22598,-2.12113 -1.97463,-4.30424c0.25134,-2.18311 1.54293,-3.79556 2.88483,-3.6015c1.3419,0.19406 2.22598,2.12113 1.97463,4.30423z" fill="#ffffff" stroke="none" stroke-width="0" stroke-linecap="butt"/><path d="M243.90059,186.13787c-0.20466,1.51178 -1.13725,1.52725 -3.39234,1.24005c-2.25508,-0.2872 -4.00329,-1.30803 -3.90474,-2.28008c0.09857,-0.97207 2.00657,-1.26154 4.26166,-0.97434c0,0 3.28707,0.15555 3.03543,2.01438z" fill="#ffffff" stroke="none" stroke-width="0" stroke-linecap="butt"/><path d="M251.34989,191.23388c-3.91986,-0.54555 -6.93994,-1.69156 -6.54191,-5.28374c0.17016,-1.53559 2.8202,-0.72558 3.91461,-1.70307c1.46574,-1.30915 1.65944,-4.12565 3.90363,-3.81331c1.83009,0.25471 1.10656,3.38679 2.24975,4.60433c0.7014,0.74701 1.9018,0.97207 2.82956,1.31747c0.38698,0.58865 0.81853,1.22679 1.28908,1.73103c-0.4346,3.52342 -3.75131,3.68917 -7.64473,3.14731z" fill="#ffffff" stroke="none" stroke-width="0" stroke-linecap="butt"/></g></g></g></svg>