<svg version="1.1" xmlns="http://www.w3.org/2000/svg" xmlns:xlink="http://www.w3.org/1999/xlink" width="94.30875" height="124.75957" viewBox="0,0,94.30875,124.75957"><g transform="translate(-191.59363,-119.59737)"><g stroke-miterlimit="10"><path d="M227.39897,217.63055c0,-7.85536 6.36803,-14.2234 14.2234,-14.2234c7.85536,0 14.2234,6.36803 14.2234,14.2234c0,7.85536 -6.36803,14.2234 -14.2234,14.2234c-7.85536,0 -14.2234,-6.36803 -14.2234,-14.2234z" fill="#d5d5d5" fill-rule="nonzero" stroke="#001026" stroke-width="1.2" stroke-linecap="butt" stroke-linejoin="miter"/><path d="M195.95564,225.31866c0,-8.22195 6.66521,-14.88716 14.88716,-14.88716c8.22195,0 14.88716,6.66521 14.88716,14.88716c0,8.22195 -6.66521,14.88716 -14.88716,14.88716c-8.22195,0 -14.88716,-6.66521 -14.88716,-14.88716z" fill="#d5d5d5" fill-rule="nonzero" stroke="#001026" stroke-width="1.2" stroke-linecap="butt" stroke-linejoin="miter"/><path d="M248.31942,215.10536c0,0 9.22422,-7.87816 14.23369,-12.15663c5.60194,-4.78447 3.63631,-25.98817 3.63631,-25.98817l10.55573,2.43517c0,0 -0.06309,23.61071 -4.9988,28.58886c-5.63831,5.68679 -18.11886,18.27461 -18.11886,18.27461z" fill="#2b2b2b" fill-rule="nonzero" stroke="#001026" stroke-width="1.2" stroke-linecap="butt" stroke-linejoin="miter"/><path d="M196.63841,211.73011l-0.78849,-4.75156c0,0 44.54056,-0.4483 57.22032,0.5058c6.07868,0.4574 14.96231,4.92568 14.96231,4.92568l-1.2276,7.16955c0,0 -25.32442,2.075 -37.30304,0.73497c-11.37947,-1.27301 -32.8635,-8.58443 -32.8635,-8.58443z" fill="#2b2b2b" fill-rule="nonzero" stroke="#001026" stroke-width="1.2" stroke-linecap="butt" stroke-linejoin="miter"/><path d="M195.84992,207.60218l0.98208,-67.27224c0,0 9.80035,-20.13257 16.94082,-20.13257c10.60422,0 39.52858,0 39.52858,0v87.40481z" fill="#2b2b2b" fill-rule="nonzero" stroke="#001026" stroke-width="1.2" stroke-linecap="butt" stroke-linejoin="miter"/><path d="M258.51194,230.53022c2.94029,0.05882 8.64178,0.38251 6.72259,5.02849c-1.7998,4.50862 -19.02176,4.10294 -19.48316,-0.67219c0.01094,-2.02026 4.48789,-9.09069 4.7806,-10.7181c0.54848,-2.78937 -12.36582,-0.72015 -17.37624,-3.90465c-2.31348,-1.47039 1.05111,-9.14825 1.04808,-9.82424c-0.00959,-2.14004 17.81601,4.353 26.65855,5.97828c-1.57903,3.58552 -2.79073,14.04539 -2.35042,14.11242z" fill="#ffab19" fill-rule="evenodd" stroke="#001026" stroke-width="1.2" stroke-linecap="round" stroke-linejoin="round"/><path d="M273.63156,199.11724c-2.36045,2.95396 -21.39489,8.41723 -27.53552,4.88852c-2.15911,-1.24074 -10.37541,-24.73448 -2.782,-25.16449c7.5934,-0.43001 8.08552,7.2708 9.244,11.86952c0.92001,3.88909 15.24676,1.33316 16.24846,1.33972c2.10711,-0.08158 2.9369,1.21302 3.83206,3.02271c0.60568,1.22447 1.96733,2.72303 0.99301,4.04403z" fill="#ffab19" fill-rule="evenodd" stroke="#001026" stroke-width="1.2" stroke-linecap="round" stroke-linejoin="round"/><g fill-rule="evenodd"><path d="M224.98181,206.44125c0.5731,1.01202 1.75465,3.21654 -3.30182,5.14436c-5.05648,1.92782 -13.01015,-2.32257 -13.87343,-2.90295c-3.41778,-2.14106 -7.51839,-4.89787 -11.03497,-9.45561c-10.26319,-13.16722 -0.86739,-27.37608 4.86464,-26.81284c5.6241,0.49069 1.58223,10.46476 3.96249,19.74249c0.99381,4.11518 3.54283,7.08234 5.76996,9.36303c3.23369,3.11408 13.00468,3.72905 13.61314,4.92153z" fill="#ffab19" stroke="#001026" stroke-width="1.2" stroke-linecap="round" stroke-linejoin="round"/><path d="M204.09629,179.70871c-0.23222,4.07435 0.35622,10.42392 0.35622,10.42392c0,0 -3.33977,-3.65545 -6.83919,-3.34447c-2.7776,0.16953 -3.942,2.83376 -4.23401,3.73424c-0.45972,-2.34595 -0.88043,-5.4491 0.57961,-9.95145c1.46005,-4.50235 5.58616,-8.30912 8.17965,-7.50564c2.4484,1.0193 1.89975,3.00071 1.95772,6.64342z" fill="#ffffff" stroke="none" stroke-width="1" stroke-linecap="butt" stroke-linejoin="miter"/></g><g fill-rule="evenodd"><path d="M231.34743,216.75381c-14.95548,-6.87044 -7.58304,-14.65037 -6.29578,-22.1704c1.35232,-6.5136 3.16007,-5.98212 11.54715,-7.2108c4.66885,-0.93111 7.418,-1.47115 10.24177,-2.62618c4.25896,-1.66735 5.7116,4.87466 5.70166,8.55558c0,0 -0.10342,5.47943 -0.91466,8.56381c-0.59988,2.21092 -3.99355,11.62905 -9.59407,15.18136c-3.8885,2.46643 -10.68607,-0.29336 -10.68607,-0.29336z" fill="#ffab19" stroke="#001026" stroke-width="1.2" stroke-linecap="round" stroke-linejoin="round"/><path d="M247.37681,210.14945c0,0 -2.51593,-0.86707 -5.30203,-2.07896c-3.44772,-1.41703 -6.7557,-2.44265 -5.59003,-7.41868c1.23074,-3.9696 1.95844,-8.93636 9.1802,-7.24847c6.86768,1.52011 5.55304,5.66673 5.55304,5.66673c-0.77461,6.89576 -3.84118,11.07936 -3.84118,11.07936z" fill="#ffffff" stroke="none" stroke-width="1" stroke-linecap="butt" stroke-linejoin="miter"/></g><path d="M230.72147,221.85627c0,7.22227 -2.91687,13.07709 -6.51502,13.07709c-3.59815,0 -6.51502,-5.85482 -6.51502,-13.07709c0,-7.22227 5.93888,-16.31496 9.53703,-16.31496c3.59815,0 3.49301,9.09269 3.49301,16.31496z" fill="#ffab19" fill-rule="nonzero" stroke="#001026" stroke-width="1.2" stroke-linecap="butt" stroke-linejoin="miter"/><path d="M243.96263,237.65574c0,3.36961 -9.13169,6.1012 -20.39619,6.1012c-11.26451,0 -20.39619,-2.73159 -20.39619,-6.1012c0,-3.36961 9.13169,-6.1012 20.39619,-6.1012c11.26451,0 20.39619,2.73159 20.39619,6.1012z" fill="#ffab19" fill-rule="nonzero" stroke="#001026" stroke-width="1.2" stroke-linecap="butt" stroke-linejoin="miter"/><path d="M262.31609,180.46938c1.6977,-4.32029 6.57624,-6.44635 10.89654,-4.74866c4.3203,1.69769 6.44635,6.57625 4.74865,10.89655c-1.6977,4.32029 -6.57625,6.44635 -10.89655,4.74865c-4.3203,-1.69769 -6.44636,-6.57625 -4.74866,-10.89654z" fill="#ffab19" fill-rule="nonzero" stroke="#001026" stroke-width="1.2" stroke-linecap="butt" stroke-linejoin="miter"/><path d="M202.98031,188.83316c3.01847,-2.96239 28.44241,-6.47663 32.38052,-1.68807c1.28127,8.89874 -8.93101,5.96777 -13.37939,6.41522c-2.68355,0.29361 -5.43967,0.71287 -7.33019,0.79414c-0.2252,0.12497 0.43109,13.59705 -3.18732,19.4188c-2.24711,3.61545 -9.22262,0.77365 -9.73365,0.59631c-6.57685,-2.28228 0.87567,-24.04221 1.25002,-25.53641z" fill="#ffab19" fill-rule="evenodd" stroke="#001026" stroke-width="1.2" stroke-linecap="round" stroke-linejoin="round"/><g fill-rule="nonzero" stroke="#001026" stroke-width="1.2" stroke-linecap="round" stroke-linejoin="miter"><path d="M265.32868,202.0799l-3.53586,-1.4092l1.07558,-4.32541l-0.29402,-2.36956l3.86327,-2.74897z" fill="#ffab19"/><path d="M278.41307,192.08488l-1.72951,13.34856l-6.40095,1.58799l-5.98992,-2.19608l-0.54488,-3.49183l0.58093,-0.91544l0.07829,-3.86682l0.53868,-1.4559l0.16105,-4.19954l5.69236,-3.00073z" fill="#ffab19"/><path d="M266.69208,195.17631l2.57551,-1.83264" fill="none"/><path d="M269.27377,198.29138l-3.49004,1.95853" fill="none"/></g><g><path d="M258.25678,132.83044c0.33083,-0.14337 0.80502,0.04408 0.83218,0.45549l0.65271,10.992c0,0 5.46059,5.76472 6.74246,9.35037c2.16926,5.98199 1.46618,10.42785 1.46618,10.42785c0,0 6.61247,3.33096 6.77808,9.15356c0.16561,5.8226 -6.08757,15.66626 -25.24597,15.95873c-19.1584,0.29247 -33.10865,-7.41536 -38.06474,-19.89764c-4.95609,-12.48227 8.48707,-23.87006 7.75418,-23.18971l1.12165,-17.98782c-0.02716,-0.41141 0.51828,-0.61757 0.87626,-0.34953l10.49951,9.92876c0,0 4.73083,-0.87134 9.39129,-0.23105c2.79086,0.30189 5.11686,0.92614 7.30885,1.72939z" fill="#ffab19" fill-rule="evenodd" stroke="#001026" stroke-width="1.2" stroke-linecap="butt" stroke-linejoin="miter"/><path d="M267.58387,164.39628c0,0 6.46909,3.00015 6.63472,8.82273c0.16561,5.8226 -6.39213,15.10301 -25.33592,15.3327c-24.7036,0.60993 -33.45503,-15.60805 -24.97424,-24.84527c8.49859,-9.33562 18.19398,1.66709 26.56654,2.57276c7.17394,0.79035 9.08321,-5.26644 17.10892,-1.88293z" fill="#ffffff" fill-rule="evenodd" stroke="none" stroke-width="1" stroke-linecap="butt" stroke-linejoin="miter"/><path d="M224.60542,150.84806c1.18358,-6.53921 7.44414,-10.88078 13.98333,-9.6972c6.53921,1.18358 10.88078,7.44414 9.6972,13.98334c-1.18358,6.53921 -7.44413,10.88078 -13.98334,9.6972c-6.53921,-1.18358 -10.88076,-7.44413 -9.69718,-13.98334z" fill="#ffffff" fill-rule="nonzero" stroke="#001026" stroke-width="1.2" stroke-linecap="butt" stroke-linejoin="miter"/><path d="M285.30238,168.88855c-5.30164,2.90215 -12.40435,1.71819 -12.40435,1.71819" fill="none" fill-rule="evenodd" stroke="#001026" stroke-width="1.2" stroke-linecap="round" stroke-linejoin="round"/><path d="M282.02843,179.67788c-6.28833,-0.63005 -9.78757,-3.19429 -9.78757,-3.19429" fill="none" fill-rule="evenodd" stroke="#001026" stroke-width="1.2" stroke-linecap="round" stroke-linejoin="round"/><path d="M250.66397,163.67116c2.06643,0.37402 4.19563,0.96265 4.16936,1.66927c-0.15094,1.39542 -2.12565,3.8835 -3.71789,3.69694c-1.80685,-0.12379 -5.49442,-3.33185 -5.20946,-4.90627c0.11533,-1.19862 2.78998,-0.81614 4.75798,-0.45993z" fill="#001026" fill-rule="evenodd" stroke="#001026" stroke-width="1.2" stroke-linecap="round" stroke-linejoin="round"/><path d="M206.65061,154.18042c0,0 7.9638,4.28693 10.85572,7.96074" fill="none" fill-rule="evenodd" stroke="#001026" stroke-width="1.2" stroke-linecap="round" stroke-linejoin="round"/><path d="M217.17814,165.63868c-4.53402,0.90696 -11.6198,-1.49342 -11.6198,-1.49342" fill="none" fill-rule="evenodd" stroke="#001026" stroke-width="1.2" stroke-linecap="round" stroke-linejoin="round"/><path d="M248.25261,155.37714c-0.34795,1.92241 -3.59239,6.89735 -5.34004,6.58105c-1.74764,-0.31631 -1.29944,-5.79739 -0.95148,-7.71979c0.34795,-1.92241 2.03076,-3.24224 3.77841,-2.92591c1.71601,0.49108 2.86107,2.14225 2.51313,4.06468" fill="#001026" fill-rule="evenodd" stroke="none" stroke-width="1" stroke-linecap="butt" stroke-linejoin="miter"/><path d="M252.14841,146.10799c0,0 -2.07039,5.16737 -3.55371,3.00713c-2.81244,-4.09588 -12.26637,-18.5358 -12.26637,-18.5358" fill="none" fill-rule="nonzero" stroke="#001026" stroke-width="2.5" stroke-linecap="round" stroke-linejoin="miter"/><path d="M253.8061,154.67223c1.088,-6.0111 7.27106,-9.92458 13.81026,-8.74099c6.53921,1.18358 10.95826,7.01603 9.87027,13.02713c-1.088,6.0111 -7.27106,9.92458 -13.81027,8.74099c-6.53921,-1.18358 -10.95824,-7.01602 -9.87025,-13.02713z" fill="#ffffff" fill-rule="nonzero" stroke="#001026" stroke-width="1.2" stroke-linecap="butt" stroke-linejoin="miter"/><path d="M277.39545,159.52087c-0.31985,1.76716 -3.50187,6.3972 -5.2495,6.08089c-1.74764,-0.31631 -1.36186,-5.45248 -1.04201,-7.21964c0.31985,-1.76716 1.97967,-2.95996 3.72731,-2.64364c1.71857,0.47697 2.88406,2.01524 2.56421,3.78239" fill="#001026" fill-rule="evenodd" stroke="none" stroke-width="1" stroke-linecap="butt" stroke-linejoin="miter"/><path d="M255.42741,149.19505c0,0 4.0953,-3.59252 6.62929,-3.54431c4.26615,0.08116 17.26157,0.34279 17.26157,0.34279" fill="none" fill-rule="nonzero" stroke="#001026" stroke-width="2.5" stroke-linecap="round" stroke-linejoin="miter"/><g stroke="#001026" stroke-width="1.2" stroke-linecap="round"><g><path d="M220.78738,162.46274c0.16389,-0.50278 0.78957,-0.71599 1.25139,-0.42641c2.10143,1.6583 8.23347,5.88183 15.61133,8.84285c6.66467,2.58948 10.80984,3.52345 12.81819,3.76091c0.66944,0.07915 0.96738,0.87152 0.51114,1.41806c-2.23746,3.02505 -10.08667,10.89536 -23.03891,5.8393c-11.02861,-4.98525 -9.53777,-13.39851 -7.15314,-19.4347z" fill="#ffffff" fill-rule="evenodd" stroke-linejoin="round"/><path d="M226.36535,174.10436c0,0 -2.22915,-2.82686 -3.01141,-4.53599c-0.90976,-1.9877 -2.12265,-6.6812 -2.12265,-6.6812" fill="none" fill-rule="nonzero" stroke-linejoin="miter"/></g><path d="M262.14738,175.92647c-1.64698,-0.13823 -4.14076,-0.30667 -5.87751,-0.59566c-2.49869,-0.41574 -6.59934,-0.90557 -6.59934,-0.90557" fill="none" fill-rule="nonzero" stroke-linejoin="miter"/></g></g></g></g></svg>