<svg version="1.1" xmlns="http://www.w3.org/2000/svg" xmlns:xlink="http://www.w3.org/1999/xlink" width="93.3334" height="124.15611" viewBox="0,0,93.3334,124.15611"><g transform="translate(-171.831,-105.88335)"><g stroke-miterlimit="10"><path d="M216.17174,184.23121c2.6728,0.69395 4.27699,3.42325 3.58304,6.09606c-0.15762,0.60711 -0.42026,1.15907 -0.76339,1.6415c-0.18751,1.89885 -4.32799,2.31188 -5.66668,3.00949c-5.03376,2.62315 -8.69747,2.85105 -14.81759,0.78384c-2.50099,-0.84476 -4.45555,-2.73548 -3.58304,-6.09606c1.6562,-6.37898 8.29595,-2.49085 12.05492,-2.85c2.01445,-0.19247 8.03108,-4.27358 9.19273,-2.58484z" fill="#ffab19" fill-rule="nonzero" stroke="#000000" stroke-width="1.2" stroke-linecap="butt" stroke-linejoin="miter"/><g fill-rule="evenodd"><path d="M244.14828,190.84214c2.36453,-0.64727 5.2096,-1.62484 7.46915,-3.96886c5.18689,-5.23032 6.3834,-13.41984 10.30584,-11.55854c4.02224,1.85513 4.73147,14.9363 -7.19821,19.68212c-4.10552,1.65672 -7.89826,1.89139 -10.99852,1.98304c-0.79847,0.04941 -7.72853,-0.22312 -10.33394,-3.46841c-2.60541,-3.24529 -0.96422,-4.24856 -0.19045,-4.69721c0.8674,-0.55462 7.58969,2.83669 10.94613,2.02785z" fill="#ffab19" stroke="#001026" stroke-width="1.2" stroke-linecap="round" stroke-linejoin="round"/><path d="M261.33675,175.55145c2.03323,0.47535 3.29072,4.60556 2.50878,8.16065c-0.78195,3.55507 -2.26772,5.45045 -3.48494,6.82825c0.15639,-0.71102 0.41976,-2.93152 -1.35728,-4.12406c-2.20099,-1.56706 -5.83834,-0.44028 -5.83834,-0.44028c0,0 2.85941,-3.98419 4.2896,-6.77785c1.4549,-2.39443 1.8613,-3.92245 3.88219,-3.64673z" fill="#ffffff" stroke="none" stroke-width="1" stroke-linecap="butt" stroke-linejoin="miter"/></g><g fill-rule="nonzero" stroke-linecap="butt" stroke-linejoin="miter"><path d="M244.07939,211.59957c2.67692,1.52142 0.15454,17.63914 0.15454,17.63914c0,0 -6.68633,1.3728 -7.74269,-3.06141c-0.49227,-2.06638 -3.26759,-8.64754 -4.52783,-9.63068c-4.4161,-3.44511 -9.33028,-4.26586 -12.40278,-9.47869c-0.56601,-0.96029 -1.91337,-3.03959 -2.38013,-4.86083c-1.52499,-2.30457 1.10847,-6.18234 3.8229,-6.70054c7.77969,-1.4852 7.63286,7.31592 23.07601,16.09301z" fill="#ffab19" stroke="#001026" stroke-width="1.2"/><g><path d="M217.3873,202.15518c-2.95701,-2.64353 -3.01664,-9.49027 -3.01664,-9.49027c0,0 -2.29488,-2.57168 -2.39829,-5.375c-0.21378,-5.79477 11.77331,-14.56898 17.24635,-8.69891c2.05356,2.20254 2.31275,5.84744 2.31275,5.84744c0,0 4.0928,4.06699 4.80751,7.11196c0.60788,2.58979 -2.39558,10.10826 -7.29353,12.21722c-0.50876,0.21907 -1.00127,0.40081 -1.4775,0.54923" fill="#ffab19" stroke="#001026" stroke-width="1.2"/><path d="M215.01999,186.73643c1.39155,-3.81446 7.06795,-3.78523 9.61513,-0.77155c0.3074,0.3637 0.65681,0.79802 0.95846,1.26478c1.84272,1.19932 2.84069,6.11466 1.76106,7.41143c-3.73726,4.48893 -12.70195,3.2975 -11.32168,-3.27575c-0.98499,-1.42 -1.48724,-3.32885 -1.01298,-4.6289z" fill="#ffffff" stroke="none" stroke-width="0.5"/></g><path d="M235.38093,192.65802c2.63925,1.42337 10.42536,12.96757 10.42536,12.96757c0,0 5.94786,7.3473 6.55134,8.76415c2.74678,6.44886 -1.26577,15.32479 -9.39372,8.34078c-1.91197,-1.64288 -2.25422,-3.65725 -3.1541,-5.53105c-0.41032,-0.85439 -6.06056,-7.77817 -8.57736,-9.49453c-4.37646,-2.98458 -10.44163,-5.63211 -13.53942,-9.9133c-5.51414,-7.62064 13.23841,-8.22796 14.23019,-7.81321" fill="#ffab19" stroke="#001026" stroke-width="1.2"/></g><g><g><g><path d="M196.36242,143.00398c0,0 -1.92788,-27.52265 -0.85216,-27.46121c1.44922,0.08277 26.28369,12.21035 26.28369,12.21035" fill="#ffab19" fill-rule="nonzero" stroke="#001026" stroke-width="1.2" stroke-linecap="round" stroke-linejoin="miter"/><path d="M250.6022,148.96891l0.45383,-1.13808l5.10665,0.00069l2.87199,5.34849l-3.08454,8.02179l-27.02238,6.39551z" fill="#9b7f41" fill-rule="nonzero" stroke="#001026" stroke-width="1.2" stroke-linecap="round" stroke-linejoin="miter"/><path d="M185.1683,161.88307c0,0 -7.19611,0.25697 -12.07867,-3.30542" fill="none" fill-rule="evenodd" stroke="#001026" stroke-width="1.2" stroke-linecap="round" stroke-linejoin="round"/><path d="M185.06122,167.79564c0,0 -3.80103,2.09095 -10.11809,1.90382" fill="none" fill-rule="evenodd" stroke="#001026" stroke-width="1.2" stroke-linecap="round" stroke-linejoin="round"/><path d="M213.7231,134.03361c11.23118,-2.02533 40.93536,6.7585 33.21591,33.62482c-0.10063,0.35026 -0.28116,0.67285 -0.45987,0.99427c-6.52626,11.73788 -21.35494,17.58001 -40.31521,14.81631c-18.96027,-2.76368 -23.89014,-13.33235 -22.97413,-19.0848c0.91602,-5.75246 7.9032,-8.20179 7.9032,-8.20179c0,0 -0.12315,-4.49943 2.80032,-10.15127c0,0 3.4207,-9.03849 19.82974,-11.99756z" fill="#ffab19" fill-rule="evenodd" stroke="#001026" stroke-width="1.2" stroke-linecap="butt" stroke-linejoin="miter"/><path d="M208.13508,160.64326c8.41941,0.18294 19.45427,-9.47584 26.67635,0.87894c7.21714,10.25491 -3.55505,25.20717 -27.97312,21.41273c-18.75557,-2.67371 -24.06016,-12.72317 -23.14414,-18.47564c0.91602,-5.75246 7.71832,-7.89223 7.71832,-7.89223c8.39539,-2.31896 9.50664,3.93367 16.72258,4.07621z" fill="#ffffff" fill-rule="evenodd" stroke="none" stroke-width="1" stroke-linecap="butt" stroke-linejoin="miter"/><path d="M213.06451,159.09702c0.07931,1.59803 -3.99164,4.30313 -5.79934,4.19259c-1.603,-0.02057 -3.2399,-2.7428 -3.20942,-4.14602c0.06519,-0.70409 2.25258,-1.01289 4.34998,-1.11696c1.99755,-0.09912 4.69917,-0.13306 4.65877,1.07042z" fill="#001026" fill-rule="evenodd" stroke="#001026" stroke-width="1.2" stroke-linecap="round" stroke-linejoin="round"/><path d="M243.87407,158.34129c-3.59291,4.86013 -10.53622,6.76816 -10.53622,6.76816" fill="none" fill-rule="evenodd" stroke="#001026" stroke-width="1.2" stroke-linecap="round" stroke-linejoin="round"/><path d="M245.43338,169.50814c-5.97164,2.06875 -10.22416,1.21095 -10.22416,1.21095" fill="none" fill-rule="evenodd" stroke="#001026" stroke-width="1.2" stroke-linecap="round" stroke-linejoin="round"/><path d="M238.19767,146.45332l-43.52718,-2.98408l2.59145,-22.65314l48.01783,4.26236l11.63606,19.32775l-8.04365,15.24007z" fill="#c58600" fill-rule="nonzero" stroke="#001026" stroke-width="1.2" stroke-linecap="round" stroke-linejoin="miter"/><path d="M245.05991,125.2564l-6.84124,20.99803" fill="none" fill-rule="nonzero" stroke="#001026" stroke-width="0.75" stroke-linecap="round" stroke-linejoin="miter"/><path d="M250.3862,133.86283l-4.75059,-8.34459c0,0 12.26672,11.01705 13.27769,11.45778c1.13295,0.4939 -10.14313,12.20177 -10.14313,12.20177z" fill="#ffab19" fill-rule="nonzero" stroke="#001026" stroke-width="1.2" stroke-linecap="round" stroke-linejoin="miter"/></g><path d="M172.63781,150.67293c-2.3273,-21.67097 15.25531,-41.32959 39.27183,-43.90878c24.01652,-2.57919 45.37241,12.89774 47.69969,34.56872c2.3273,21.67097 -15.25531,41.32959 -39.27183,43.90878c-24.01652,2.57919 -45.37241,-12.89774 -47.69969,-34.56871z" fill="none" fill-rule="nonzero" stroke="#ffffff" stroke-width="1.2" stroke-linecap="butt" stroke-linejoin="miter"/><path d="M245.485,119.58677l-1.39718,7.14391l-8.26083,1.05839l-8.46019,-5.18174l6.44361,-10.2571z" fill="#ffffff" fill-rule="nonzero" stroke="#001026" stroke-width="0" stroke-linecap="round" stroke-linejoin="miter"/><path d="M250.20773,133.48734l6.50281,3.14022l-6.53681,-2.89704" fill="#000000" fill-rule="nonzero" stroke="none" stroke-width="0" stroke-linecap="round" stroke-linejoin="miter"/></g><g stroke="#001026"><g fill-rule="evenodd"><path d="M206.18965,141.6163c2.88578,1.65902 3.03867,6.75769 0.36525,11.39589c-2.77329,4.64316 -7.26355,6.96856 -10.14932,5.30954c-2.88578,-1.65902 -3.03866,-6.75769 -0.36523,-11.3959c2.67342,-4.63821 7.25859,-7.06844 10.14932,-5.30954z" fill="#ffffff" stroke-width="1.2" stroke-linecap="round" stroke-linejoin="round"/><path d="M194.86295,151.67748c-0.05452,-1.09864 0.69989,-2.0372 1.69867,-2.08674c0.99877,-0.04957 1.8424,0.80967 1.89691,1.90833c0.05452,1.09864 -0.69989,2.0372 -1.69866,2.08675c-0.99877,0.04957 -1.8424,-0.80966 -1.89691,-1.90833" fill="#001026" stroke-width="0.5" stroke-linecap="butt" stroke-linejoin="miter"/></g><g fill-rule="evenodd"><path d="M230.17206,144.72985c3.20524,2.04366 3.28798,7.74656 0.40986,12.29479c-2.77824,4.54327 -7.10344,6.15963 -10.49355,4.42553c-2.79085,-1.76385 -3.25824,-7.14729 -0.48,-11.69057c2.77824,-4.54327 7.35351,-7.17327 10.56371,-5.02974z" fill="#ffffff" stroke-width="1.2" stroke-linecap="round" stroke-linejoin="round"/><path d="M217.88566,154.60123c-0.05452,-1.09864 0.70484,-1.93732 1.69868,-2.08676c0.99877,-0.04957 1.84239,0.80968 1.89691,1.90834c0.05452,1.09864 -0.69989,2.0372 -1.69866,2.08675c-0.99877,0.04957 -1.8424,-0.80967 -1.89691,-1.90834" fill="#001026" stroke-width="0.5" stroke-linecap="butt" stroke-linejoin="miter"/></g><g fill="#ffffff" fill-rule="nonzero" stroke-width="1.2" stroke-linecap="round" stroke-linejoin="miter"><path d="M203.325,172.55767c-0.18426,-0.20346 5.67459,-0.51649 11.54996,-2.08638c13.30139,-3.55407 11.7357,-7.83135 12.27638,-7.67529c0.99781,0.28801 15.16004,14.37107 6.81693,16.77112c-8.0236,2.30814 -30.0678,-6.37404 -30.64326,-7.00947z"/></g></g></g><g fill-rule="nonzero" stroke="#000000" stroke-width="1.2" stroke-linejoin="miter"><path d="M194.95981,186.08051c-4.29727,-1.98568 -6.1712,-7.07903 -4.18552,-11.3763c1.98568,-4.29727 7.07903,-6.17119 11.3763,-4.18552c4.29727,1.98568 6.17121,7.07902 4.18552,11.3763c-1.98568,4.29727 -7.07902,6.17119 -11.3763,4.18552z" fill="#5c5e5f" stroke-linecap="butt"/><g stroke-linecap="round"><path d="M199.84408,187.7709l1.29107,4.56232l-1.71289,1.66351l-1.8696,4.04607l-3.63932,-1.11511z" fill="#ffab19"/><path d="M198.52942,182.44229l2.55962,5.90386l-2.50388,3.3753l-0.49155,1.47247l-2.36007,3.06406l-0.12022,1.07753l-2.6112,2.38147l-6.04549,-2.03812l-3.99668,-5.24598l7.00937,-11.49106z" fill="#ffab19"/><path d="M196.31207,187.64959l0.86072,3.04155" fill="none"/><path d="M193.20934,191.50356l1.49498,3.71231" fill="none"/></g><path d="M191.23132,197.01029l-2.27636,3.29158l-3.85505,-0.64826l-1.79441,-3.47299l1.91682,-2.51349l4.14267,0.02578z" fill="#5c5e5f" stroke-linecap="round"/></g><g fill-rule="nonzero" stroke="#000000" stroke-width="1.2" stroke-linejoin="miter"><path d="M229.25716,184.30246c0,0 -0.93608,-1.63456 0.47724,-2.81246c5.57426,-4.64572 8.46845,-0.67406 11.51662,-0.69615c3.5236,-0.02553 7.50124,-0.76297 8.48315,0.49029c1.40738,1.7963 0.21314,3.80097 -0.66089,6.50434c-1.17724,3.64127 -2.79771,7.94704 -6.38457,9.01424c-2.80149,0.83353 -3.82666,-6.57241 -3.81062,-6.62821c-2.61577,-0.33875 -5.14575,-1.45344 -6.58824,-2.91367" fill="#ffab19" stroke-linecap="butt"/><g stroke-linecap="round"><path d="M247.39324,195.43888l-2.06867,4.76507l-2.25311,1.57753l-1.80686,-1.08935l-1.27223,0.52223l-2.95978,-2.88224" fill="#ffab19"/><path d="M234.42976,185.86491l13.34949,-1.72241l3.16376,5.78657l-0.60041,6.35149l-3.23842,1.41508l-1.03308,-0.329l-3.75957,0.90775l-1.54502,-0.15068l-4.1024,0.91236l-5.0766,-4.17172z" fill="#ffab19"/><path d="M237.69428,194.19578l2.42743,2.02471l-3.27356,-1.07589z" fill="none"/><path d="M242.75666,193.12509l2.78177,2.87716" fill="none"/></g></g></g></g></svg>