<svg version="1.1" xmlns="http://www.w3.org/2000/svg" xmlns:xlink="http://www.w3.org/1999/xlink" width="160.30378" height="214.66865" viewBox="0,0,160.30378,214.66865"><defs><radialGradient cx="233.90485" cy="159.61373" r="38.25582" gradientUnits="userSpaceOnUse" id="color-1"><stop offset="0" stop-color="#180036"/><stop offset="1" stop-color="#1d1d1d"/></radialGradient></defs><g transform="translate(-164.61893,-85.60235)"><g stroke-miterlimit="10"><g stroke="#000000"><g stroke-width="0" stroke-linecap="round"><path d="M253.13318,201.06271l1.10219,10.5269l-3.86372,-1.01381l0.55848,7.45095l-14.75276,15.8567l-9.7358,-17.68108l2.13324,-7.54989l-4.82227,0.92025l5.93253,-10.57904" fill="#0063eb"/><path d="M249.59323,199.46018l0.75715,7.23152l-2.65421,-0.69645l-0.15282,8.70469l-10.13451,10.89287l-6.68807,-12.14612l2.00193,-8.77266l-3.31269,0.63218l4.07537,-7.26735" fill="#629beb"/></g><path d="M226.46441,200.39171l7.97661,-51.08586c0,0 2.47074,-16.41426 16.08737,-15.08846c14.28004,1.39039 11.86081,17.55454 11.86081,17.55454l-7.64636,51.11499c0,0 -3.47166,2.55984 -14.85477,1.71722c-11.70792,-0.86666 -13.42365,-4.21242 -13.42365,-4.21242z" fill="#5d5d5d" stroke-width="1.2" stroke-linecap="butt"/></g><g stroke="#000000"><g stroke-width="0" stroke-linecap="round"><path d="M194.63385,196.88846l-2.2708,10.55048l-3.27914,-2.18381l-1.81359,7.39876l-18.69901,10.79162l-3.5255,-20.17093l4.35027,-6.65821l-4.77715,-0.60623l8.8356,-8.4149" fill="#0063eb"/><path d="M191.84044,194.23438l-1.55994,7.2477l-2.25263,-1.50018l-2.86837,8.39348l-12.8454,7.41337l-2.42186,-13.85655l4.61096,-7.88474l-3.2817,-0.41646l6.06968,-5.78067" fill="#629beb"/></g><path d="M170.0186,187.95003l23.42429,-47.05919c0,0 7.44056,-15.14912 19.70078,-9.63191c12.85756,5.78601 5.54327,20.7086 5.54327,20.7086l-23.12598,47.19008c0,0 -4.03337,1.40341 -14.36579,-2.95117c-10.62725,-4.47883 -11.17655,-8.25641 -11.17655,-8.25641z" fill="#5d5d5d" stroke-width="1.2" stroke-linecap="butt"/></g><g stroke="#000000" stroke-width="1.2"><path d="M275.91108,211.03557l-7.66775,-1.6417l-2.98241,-13.2724l-4.4394,-10.69609l2.3532,-4.00904l4.12714,-1.9075l11.04791,5.98934l12.04785,4.79727l0.11975,7.81849l-5.6569,7.5172z" fill="#707070" stroke-linecap="round"/><path d="M295.36639,230.90178l-20.97889,-25.48428l-1.75641,2.17429l6.24212,-7.69162l8.98446,-6.42491l-2.62482,1.93269l22.82018,24.55711" fill="#5d5d5d" stroke-linecap="round"/><path d="M310.2926,235.19814c-4.18307,3.60607 -10.49742,3.13833 -14.10349,-1.04474c-3.60607,-4.18307 -3.13833,-10.49742 1.04474,-14.10349c4.18307,-3.60607 10.49742,-3.13834 14.10349,1.04474c3.60607,4.18307 3.13834,10.49742 -1.04473,14.10349z" fill="#707070" stroke-linecap="butt"/></g><g stroke="#000000" stroke-width="1.2"><path d="M191.75917,124.25917c3.44066,8.81333 3.65776,16.65465 0.48493,17.51408c-3.17284,0.85944 -8.53413,-5.58845 -11.97478,-14.40179c-3.44066,-8.81333 -3.65776,-16.65466 -0.48493,-17.51408c3.17284,-0.85944 8.53413,5.58846 11.97478,14.4018z" fill="#454545" stroke-linecap="butt"/><path d="M202.90547,153.66951l-12.97976,-34.56612l2.04415,6.21344l-6.67563,1.52447l-6.87583,-16.63823l6.70394,-13.98765l7.33682,-1.36218l19.30864,53.89181" fill="#5d5d5d" stroke-linecap="round"/></g><g stroke="#000000" stroke-width="1.2"><path d="M261.05648,114.06982c1.27162,9.11025 -0.44915,16.49399 -3.84342,16.49207c-1.4769,-0.00084 -3.02728,-1.39982 -4.41233,-3.73054c-1.79818,-3.0259 -3.31772,-7.62223 -4.03603,-12.7685c-1.27163,-9.11025 0.44915,-16.494 3.84342,-16.49206c3.39428,0.00193 7.17674,7.3888 8.44835,16.49904z" fill="#454545" stroke-linecap="butt"/><path d="M260.75435,144.43938l-4.47125,-35.60004l0.5139,6.32595l-3.32827,-0.93819l-2.78208,-17.29529l6.43772,-10.70297l7.69434,0.58875l6.04049,55.26829" fill="#5d5d5d" stroke-linecap="round"/></g><g stroke="#000000" stroke-width="1.2"><g fill="#5d5d5d" stroke-linecap="round"><path d="M199.08546,237.11618l12.14318,30.42479l-5.85241,4.12302l-7.65985,1.3276l-14.04137,-29.31188"/><g><path d="M207.36972,261.03262l5.01753,2.21066l2.87929,4.20829l5.80122,4.05071l-0.48139,9.71562l-5.29871,6.06105l-13.23375,-12.56953l-4.09749,-2.60251"/><path d="M216.02102,271.47791l2.47132,2.2082l1.48948,2.89812l5.47175,3.96853l1.17712,2.70262l3.6405,7.27869l-4.75114,2.02358l-1.78558,-0.59815l-2.91468,-6.77263l-4.53154,-3.497l-2.15961,0.9198l1.32744,5.06004l1.48949,4.69001l-0.41409,2.62196l-5.79087,1.37949l-2.05802,-5.92136l-2.64246,-4.65685l-2.08168,1.7018l2.72436,5.89751l0.15365,4.55397l-4.41719,1.60961l-1.41155,-2.1161l-4.46988,-7.59964l-1.30918,-7.86606l-2.93889,-6.9002l-0.41945,-5.25598l3.58353,-4.00888"/></g></g><g><path d="M199.58108,211.49021l-8.31839,-4.39467l-3.21932,-7.12595l8.86035,-9.46882l7.44813,-10.12196l4.54653,-0.03047l3.83574,2.62624l0.53519,11.56843l2.95015,13.27961l-6.23985,4.74908z" fill="#707070" stroke-linecap="round"/><path d="M184.69479,234.33216l10.19818,-31.93446l-3.1978,-0.63174l10.86462,1.98999l8.92219,4.30343l-2.51479,-1.21996l-8.13738,31.98977" fill="#5d5d5d" stroke-linecap="round"/><path d="M182.20359,236.75219c1.48277,-5.32008 6.99758,-8.43082 12.31766,-6.94805c5.32008,1.48277 8.43082,6.99757 6.94804,12.31766c-1.48277,5.32008 -6.99757,8.43082 -12.31765,6.94806c-5.32008,-1.48277 -8.43082,-6.99757 -6.94806,-12.31765z" fill="#707070" stroke-linecap="butt"/></g></g><g><g stroke-linecap="butt"><g><path d="M195.47683,170.23292c-2.28322,-25.45395 16.50036,-47.93935 41.95431,-50.22257c25.45395,-2.28322 47.93935,16.50036 50.22257,41.95431c2.28322,25.45395 -16.50036,47.93935 -41.95431,50.22257c-25.45395,2.28322 -47.93935,-16.50036 -50.22257,-41.95431z" fill="#5d5d5d" stroke="#000000" stroke-width="1.2"/><path d="M237.80784,120.62056c0,0 1.48754,-0.11537 2.22701,-0.14595c24.17289,-1.00018 45.11466,17.16266 47.2994,41.5187c2.16627,24.15013 -14.89793,45.59049 -38.54891,49.18563c-0.93133,0.14158 -2.82385,0.34077 -2.82385,0.34077z" fill="#686868" stroke="#000000" stroke-width="0"/><path d="M201.54587,169.68853c-2.03004,-22.63133 14.67063,-42.62331 37.30196,-44.65333c22.63133,-2.03004 42.62332,14.67063 44.65334,37.30196c2.03004,22.63133 -14.67063,42.62331 -37.30197,44.65333c-22.63133,2.03004 -42.62331,-14.67062 -44.65333,-37.30196z" fill="#707070" stroke="#838383" stroke-width="0"/><path d="M204.42068,169.43066c-1.88761,-21.04361 13.6414,-39.63304 34.685,-41.52065c21.04361,-1.88761 39.63305,13.6414 41.52066,34.685c1.88761,21.04361 -13.64141,39.63305 -34.68501,41.52067c-21.04361,1.88761 -39.63304,-13.64141 -41.52066,-34.68501z" fill="url(#color-1)" stroke="#000000" stroke-width="1.2"/></g><g stroke="#000000"><path d="M206.38903,180.69131c0,0 -3.17532,-6.5846 -3.54399,-11.19083c-0.36866,-4.60624 1.71059,-11.71643 1.71059,-11.71643c0.34534,-0.01472 1.20802,-0.04597 1.68063,-0.01411c5.59119,0.37684 10.23466,4.77219 10.75115,10.53021c0.53987,6.01868 -3.62234,11.37479 -9.4535,12.43741c-0.34629,0.0631 -1.05586,0.14312 -1.05586,0.14312c0,0 -0.03155,-0.06622 -0.08902,-0.18934z" fill="#707070" stroke-width="0"/><path d="M204.55564,157.78401c0.34534,-0.01472 1.20802,-0.04597 1.68063,-0.01411c5.59118,0.37684 10.23466,4.77219 10.75115,10.53021c0.53987,6.01868 -3.62234,11.37479 -9.4535,12.43741c-0.34629,0.0631 -1.05586,0.14312 -1.05586,0.14312c0,0 -0.03155,-0.06621 -0.08902,-0.18934" fill="none" stroke-width="1.2"/></g><g stroke="#000000"><path d="M280.63168,173.81764c-0.01942,0.13003 -0.03028,0.20006 -0.03028,0.20006c0,0 -0.47749,0.02646 -0.71406,0.01562c-3.98398,-0.18221 -7.51072,-4.8486 -8.05059,-10.86727c-0.5165,-5.75801 1.87737,-10.78461 5.49006,-11.98704c0.30537,-0.10164 0.87605,-0.19898 1.10485,-0.23575c0,0 2.23938,4.3854 2.86297,11.30619c0.60568,6.72202 -0.66292,11.5682 -0.66292,11.5682z" fill="#707070" stroke-width="0"/><path d="M280.63168,173.81764c-0.01942,0.13003 -0.03028,0.20006 -0.03028,0.20006c0,0 -0.47749,0.02646 -0.71406,0.01562c-3.98398,-0.18221 -7.51072,-4.8486 -8.05059,-10.86727c-0.5165,-5.75801 1.87737,-10.78461 5.49006,-11.98704c0.30537,-0.10164 0.87605,-0.19898 1.10485,-0.23575" fill="none" stroke-width="1.2"/></g><path d="M204.67108,172.48672l-0.55954,-6.23784l4.38686,-1.96552l4.5335,1.16537l0.55954,6.23784l-4.3752,2.09547z" fill="#21cc26" stroke="#17921c" stroke-width="1.2"/><path d="M274.52591,166.22074l-0.55954,-6.23784l2.9498,-1.83662l3.13868,1.29048l0.55954,6.23784l-2.93813,1.96656z" fill="#21cc26" stroke="#17921c" stroke-width="1.2"/></g><g stroke-linecap="round"><path d="M233.35788,138.5647l2.19202,-0.19663l0.24419,-1.12673l1.58166,-0.07283l1.08554,-1.75461l0.54982,-1.56846l0.70004,-2.2034l0.88777,2.19908l1.38047,1.53342l1.4244,1.25327l2.62669,0.80017l1.29445,0.57441l-1.01613,0.98883l-1.23915,0.0421l-1.5457,1.24348l-1.04162,1.47446l-0.8616,1.94169l-0.44445,1.97331l-0.93351,-0.39962l-0.40828,-2.24209l-0.75351,0.06759l-0.17909,-1.22686l-1.69841,-1.2287l-1.77396,-0.53139l-1.76168,-0.3944z" fill="#eee796" stroke="#eee796" stroke-width="0.25"/><path d="M233.48339,139.7843l-0.12166,-1.35632l2.26052,-0.20276l-0.0811,-0.90421l1.80842,-0.16222l-0.10139,-1.13026l1.2056,-0.10815l-0.70098,0.06288" fill="none" stroke="#cec344" stroke-width="0.75"/><path d="M238.36577,134.93913l0.08803,0.98127l-0.16222,-1.80842l0.90421,-0.0811l-0.20276,-2.26053l1.35632,-0.12166" fill="none" stroke="#cec344" stroke-width="0.75"/><path d="M242.37431,135.56872l-0.70098,0.06288l1.2056,-0.10815l0.10139,1.13026l1.80842,-0.16222l0.0811,0.90421l2.26052,-0.20276l0.12166,1.35632" fill="none" stroke="#cec344" stroke-width="0.75"/><path d="M239.04782,131.76543l1.35632,-0.12166l0.20276,2.26053l0.90421,-0.0811l0.16222,1.80842l-0.08803,-0.98128" fill="none" stroke="#cec344" stroke-width="0.75"/><path d="M238.25113,141.53868l0.70098,-0.06288l-1.2056,0.10815l-0.10139,-1.13026l-1.80842,0.16222l-0.0811,-0.90421l-2.26052,0.20276l-0.12166,-1.35632" fill="none" stroke="#cec344" stroke-width="0.75"/><path d="M241.57762,145.34197l-1.35632,0.12166l-0.20276,-2.26053l-0.90421,0.0811l-0.16222,-1.80841l0.08803,0.98127" fill="none" stroke="#cec344" stroke-width="0.75"/><path d="M247.14203,137.3231l0.12166,1.35632l-2.26052,0.20276l0.0811,0.90421l-1.80842,0.16222l0.10139,1.13026l-1.2056,0.10815l0.70098,-0.06288" fill="none" stroke="#cec344" stroke-width="0.75"/><path d="M242.25966,142.16827l-0.08803,-0.98127l0.16222,1.80842l-0.90421,0.0811l0.20276,2.26053l-1.35632,0.12166" fill="none" stroke="#cec344" stroke-width="0.75"/></g><g stroke-linecap="round"><path d="M238.30144,193.67676l2.19202,-0.19663l0.24419,-1.12673l1.58166,-0.07283l1.08554,-1.75461l0.54982,-1.56846l0.70004,-2.2034l0.88777,2.19908l1.38047,1.53342l1.4244,1.25327l2.62669,0.80017l1.29445,0.57441l-1.01613,0.98883l-1.23915,0.0421l-1.5457,1.24348l-1.04162,1.47447l-0.8616,1.94169l-0.44445,1.97331l-0.93351,-0.39962l-0.40828,-2.24209l-0.75351,0.06759l-0.17909,-1.22686l-1.69841,-1.22869l-1.77396,-0.5314l-1.76168,-0.39439z" fill="#eee796" stroke="#eee796" stroke-width="0.25"/><path d="M238.42695,194.89637l-0.12166,-1.35632l2.26052,-0.20276l-0.0811,-0.90421l1.80842,-0.16222l-0.10139,-1.13025l1.2056,-0.10815l-0.70098,0.06288" fill="none" stroke="#cec344" stroke-width="0.75"/><path d="M243.30933,190.05119l0.08803,0.98127l-0.16222,-1.80842l0.90421,-0.0811l-0.20276,-2.26053l1.35632,-0.12166" fill="none" stroke="#cec344" stroke-width="0.75"/><path d="M247.31786,190.68078l-0.70098,0.06288l1.2056,-0.10815l0.10139,1.13025l1.80842,-0.16222l0.0811,0.90421l2.26052,-0.20276l0.12166,1.35632" fill="none" stroke="#cec344" stroke-width="0.75"/><path d="M243.99137,186.8775l1.35632,-0.12166l0.20276,2.26053l0.90421,-0.0811l0.16222,1.80842l-0.08803,-0.98128" fill="none" stroke="#cec344" stroke-width="0.75"/><path d="M243.19468,196.65074l0.70098,-0.06288l-1.2056,0.10815l-0.10139,-1.13025l-1.80842,0.16222l-0.0811,-0.90421l-2.26052,0.20276l-0.12166,-1.35632" fill="none" stroke="#cec344" stroke-width="0.75"/><path d="M246.52117,200.45402l-1.35632,0.12166l-0.20276,-2.26053l-0.90421,0.0811l-0.16222,-1.80842l0.08803,0.98128" fill="none" stroke="#cec344" stroke-width="0.75"/><path d="M252.08558,192.43515l0.12166,1.35632l-2.26052,0.20276l0.0811,0.90421l-1.80842,0.16222l0.10139,1.13025l-1.2056,0.10815l0.70098,-0.06288" fill="none" stroke="#cec344" stroke-width="0.75"/><path d="M247.20321,197.28033l-0.08803,-0.98128l0.16222,1.80842l-0.90421,0.0811l0.20276,2.26053l-1.35632,0.12166" fill="none" stroke="#cec344" stroke-width="0.75"/></g><g stroke-linecap="round"><path d="M255.68983,139.95387l1.68902,1.41096l0.9694,-0.62406l1.16989,1.06691l2.00829,-0.47311l1.49786,-0.72028l2.05303,-1.06304l-0.92723,2.18272l-0.10815,2.06045l0.12102,1.89338l1.29156,2.42316l0.50915,1.32148l-1.41772,-0.0193l-0.90598,-0.84644l-1.97225,-0.21371l-1.77914,0.30607l-1.98223,0.76373l-1.70963,1.08107l-0.37753,-0.94268l1.2967,-1.87408l-0.58061,-0.48501l0.74088,-0.99416l-0.33213,-2.06977l-0.87864,-1.63013l-0.96681,-1.52457z" fill="#eee796" stroke="#eee796" stroke-width="0.25"/><path d="M254.9162,140.90499l0.87304,-1.04508l1.74181,1.45504l0.58202,-0.69672l1.39345,1.16404l0.72752,-0.87091l0.92896,0.77603l-0.54013,-0.45121" fill="none" stroke="#cec344" stroke-width="0.75"/><path d="M261.79461,140.9313l-0.63161,0.75609l1.16404,-1.39345l0.69673,0.58203l1.45504,-1.7418l1.04508,0.87304" fill="none" stroke="#cec344" stroke-width="0.75"/><path d="M264.18389,144.21096l-0.54013,-0.45122l0.92896,0.77603l-0.72752,0.8709l1.39345,1.16404l-0.58202,0.69672l1.74181,1.45505l-0.87304,1.04508" fill="none" stroke="#cec344" stroke-width="0.75"/><path d="M264.52103,139.16943l1.04508,0.87304l-1.45505,1.74181l0.69673,0.58203l-1.16404,1.39345l0.63162,-0.7561" fill="none" stroke="#cec344" stroke-width="0.75"/><path d="M257.04695,145.51682l0.54013,0.45121l-0.92895,-0.77603l0.72752,-0.8709l-1.39345,-1.16404l0.58203,-0.69673l-1.74181,-1.45505l0.87304,-1.04508" fill="none" stroke="#cec344" stroke-width="0.75"/><path d="M256.70981,150.55834l-1.04508,-0.87304l1.45505,-1.74181l-0.69673,-0.58203l1.16403,-1.39344l-0.63162,0.7561" fill="none" stroke="#cec344" stroke-width="0.75"/><path d="M266.31465,148.82278l-0.87304,1.04508l-1.7418,-1.45505l-0.58203,0.69673l-1.39345,-1.16404l-0.72752,0.8709l-0.92896,-0.77603l0.54014,0.45122" fill="none" stroke="#cec344" stroke-width="0.75"/><path d="M259.43623,148.79648l0.63162,-0.7561l-1.16404,1.39345l-0.69673,-0.58203l-1.45504,1.7418l-1.04508,-0.87304" fill="none" stroke="#cec344" stroke-width="0.75"/></g><g stroke-linecap="round"><path d="M220.21532,182.41959l1.68903,1.41096l0.9694,-0.62406l1.16989,1.06691l2.00829,-0.47311l1.49786,-0.72028l2.05303,-1.06304l-0.92723,2.18272l-0.10815,2.06044l0.12102,1.89339l1.29156,2.42316l0.50916,1.32148l-1.41773,-0.0193l-0.90598,-0.84645l-1.97225,-0.21371l-1.77914,0.30606l-1.98223,0.76374l-1.70963,1.08107l-0.37753,-0.94268l1.2967,-1.87409l-0.5806,-0.48502l0.74088,-0.99416l-0.33214,-2.06977l-0.87864,-1.63013l-0.96681,-1.52457z" fill="#eee796" stroke="#eee796" stroke-width="0.25"/><path d="M219.4417,183.37073l0.87304,-1.04508l1.7418,1.45504l0.58203,-0.69673l1.39345,1.16404l0.72752,-0.8709l0.92896,0.77603l-0.54013,-0.45121" fill="none" stroke="#cec344" stroke-width="0.75"/><path d="M226.32011,183.39703l-0.63162,0.7561l1.16404,-1.39345l0.69673,0.58203l1.45505,-1.74181l1.04508,0.87304" fill="none" stroke="#cec344" stroke-width="0.75"/><path d="M228.70938,186.67669l-0.54013,-0.45121l0.92896,0.77603l-0.72752,0.8709l1.39345,1.16404l-0.58203,0.69673l1.74181,1.45505l-0.87304,1.04508" fill="none" stroke="#cec344" stroke-width="0.75"/><path d="M229.04653,181.63517l1.04508,0.87304l-1.45505,1.74181l0.69673,0.58203l-1.16404,1.39344l0.63162,-0.7561" fill="none" stroke="#cec344" stroke-width="0.75"/><path d="M221.57246,187.98255l0.54013,0.45121l-0.92896,-0.77603l0.72752,-0.8709l-1.39345,-1.16403l0.58203,-0.69673l-1.74181,-1.45505l0.87304,-1.04508" fill="none" stroke="#cec344" stroke-width="0.75"/><path d="M221.23532,193.02407l-1.04508,-0.87304l1.45505,-1.74181l-0.69673,-0.58203l1.16404,-1.39345l-0.63163,0.7561" fill="none" stroke="#cec344" stroke-width="0.75"/><path d="M230.84015,191.28851l-0.87304,1.04508l-1.74181,-1.45505l-0.58203,0.69673l-1.39345,-1.16404l-0.72752,0.8709l-0.92895,-0.77603l0.54013,0.45121" fill="none" stroke="#cec344" stroke-width="0.75"/><path d="M223.96173,191.2622l0.63162,-0.7561l-1.16404,1.39345l-0.69673,-0.58203l-1.45505,1.74181l-1.04508,-0.87304" fill="none" stroke="#cec344" stroke-width="0.75"/></g><g stroke-linecap="round"><path d="M216.58453,153.37349l1.41096,-1.68903l-0.62406,-0.9694l1.06691,-1.16989l-0.47311,-2.00829l-0.72028,-1.49786l-1.06304,-2.05302l2.18272,0.92723l2.06044,0.10815l1.89339,-0.12102l2.42315,-1.29156l1.32149,-0.50916l-0.01931,1.41773l-0.84644,0.90598l-0.21371,1.97225l0.30606,1.77914l0.76373,1.98223l1.08107,1.70963l-0.94268,0.37753l-1.87408,-1.2967l-0.48502,0.5806l-0.99416,-0.74088l-2.06977,0.33214l-1.63013,0.87864l-1.52457,0.96681z" fill="#eee796" stroke="#eee796" stroke-width="0.25"/><path d="M217.53565,154.14712l-1.04508,-0.87304l1.45505,-1.74181l-0.69673,-0.58203l1.16404,-1.39345l-0.8709,-0.72752l0.77603,-0.92896l-0.45121,0.54013" fill="none" stroke="#cec344" stroke-width="0.75"/><path d="M217.56197,147.26869l0.7561,0.63162l-1.39345,-1.16404l0.58203,-0.69673l-1.7418,-1.45505l0.87304,-1.04508" fill="none" stroke="#cec344" stroke-width="0.75"/><path d="M220.84163,144.87943l-0.45121,0.54013l0.77603,-0.92896l0.8709,0.72752l1.16404,-1.39345l0.69673,0.58203l1.45504,-1.74181l1.04508,0.87304" fill="none" stroke="#cec344" stroke-width="0.75"/><path d="M215.80011,144.54229l0.87304,-1.04508l1.74181,1.45505l0.58203,-0.69673l1.39345,1.16404l-0.7561,-0.63162" fill="none" stroke="#cec344" stroke-width="0.75"/><path d="M222.14749,152.01635l0.45121,-0.54013l-0.77603,0.92896l-0.8709,-0.72752l-1.16404,1.39345l-0.69673,-0.58203l-1.45505,1.7418l-1.04508,-0.87304" fill="none" stroke="#cec344" stroke-width="0.75"/><path d="M227.18901,152.3535l-0.87304,1.04508l-1.74181,-1.45505l-0.58203,0.69673l-1.39344,-1.16403l0.7561,0.63162" fill="none" stroke="#cec344" stroke-width="0.75"/><path d="M225.45345,142.74867l1.04508,0.87304l-1.45505,1.74181l0.69673,0.58203l-1.16404,1.39345l0.8709,0.72752l-0.77602,0.92896l0.45121,-0.54013" fill="none" stroke="#cec344" stroke-width="0.75"/><path d="M225.42713,149.62709l-0.7561,-0.63162l1.39344,1.16404l-0.58202,0.69673l1.74181,1.45504l-0.87304,1.04508" fill="none" stroke="#cec344" stroke-width="0.75"/></g><g stroke-linecap="round"><path d="M259.05026,188.84798l1.41096,-1.68902l-0.62406,-0.9694l1.06691,-1.16989l-0.47311,-2.00829l-0.72028,-1.49786l-1.06304,-2.05302l2.18272,0.92723l2.06044,0.10815l1.89339,-0.12103l2.42316,-1.29156l1.32148,-0.50915l-0.01931,1.41772l-0.84645,0.90597l-0.21371,1.97226l0.30607,1.77914l0.76373,1.98224l1.08108,1.70962l-0.94269,0.37753l-1.87408,-1.29671l-0.48502,0.5806l-0.99416,-0.74088l-2.06976,0.33213l-1.63013,0.87864l-1.52457,0.96681z" fill="#eee796" stroke="#eee796" stroke-width="0.25"/><path d="M260.00139,189.62163l-1.04508,-0.87304l1.45504,-1.74181l-0.69673,-0.58203l1.16404,-1.39345l-0.8709,-0.72752l0.77603,-0.92896l-0.45121,0.54013" fill="none" stroke="#cec344" stroke-width="0.75"/><path d="M260.0277,182.7432l0.7561,0.63162l-1.39345,-1.16404l0.58203,-0.69673l-1.7418,-1.45505l0.87304,-1.04508" fill="none" stroke="#cec344" stroke-width="0.75"/><path d="M263.30735,180.35393l-0.45121,0.54013l0.77603,-0.92895l0.8709,0.72752l1.16404,-1.39345l0.69673,0.58203l1.45505,-1.7418l1.04508,0.87304" fill="none" stroke="#cec344" stroke-width="0.75"/><path d="M258.26584,180.01679l0.87304,-1.04508l1.74181,1.45504l0.58203,-0.69673l1.39345,1.16404l-0.7561,-0.63162" fill="none" stroke="#cec344" stroke-width="0.75"/><path d="M264.6132,187.49086l0.45122,-0.54013l-0.77603,0.92895l-0.8709,-0.72752l-1.16404,1.39345l-0.69673,-0.58203l-1.45505,1.74181l-1.04508,-0.87304" fill="none" stroke="#cec344" stroke-width="0.75"/><path d="M269.65473,187.828l-0.87304,1.04508l-1.74181,-1.45505l-0.58203,0.69673l-1.39345,-1.16404l0.7561,0.63162" fill="none" stroke="#cec344" stroke-width="0.75"/><path d="M267.91917,178.22317l1.04508,0.87304l-1.45505,1.74181l0.69673,0.58203l-1.16404,1.39345l0.8709,0.72752l-0.77602,0.92896l0.45121,-0.54014" fill="none" stroke="#cec344" stroke-width="0.75"/><path d="M267.89287,185.10158l-0.7561,-0.63162l1.39344,1.16403l-0.58203,0.69673l1.74181,1.45505l-0.87304,1.04508" fill="none" stroke="#cec344" stroke-width="0.75"/></g></g><g stroke-linecap="round"><g><g><path d="M259.84521,165.079l-0.8991,-11.81674l1.52761,-0.16088l-0.28097,-3.69273l1.85494,-0.19537l-0.24351,-3.20037l4.25548,-0.44821l0.24351,3.20037l1.52761,-0.16088l0.28097,3.69273l1.52761,-0.16088l0.8991,11.81674" fill="#bc79ff" stroke="#00a8c1" stroke-width="0"/><path d="M259.3617,158.72443l0.48351,6.35458l-0.8991,-11.81674l1.52761,-0.16088l-0.28097,-3.69273l1.85494,-0.19537l-0.24351,-3.20037l4.25548,-0.44821l0.24351,3.20037l1.52761,-0.16088l0.28097,3.69273l1.52761,-0.16088l0.8991,11.81674l-0.38938,-5.11766" fill="none" stroke="#9562c7" stroke-width="1.5"/></g><g><path d="M270.50303,163.48738l0.8991,11.81674l-1.52761,0.16088l0.28097,3.69273l-1.52761,0.16088l0.24351,3.20037l-4.25548,0.44821l-0.24351,-3.20037l-1.85494,0.19537l-0.28097,-3.69273l-1.52761,0.16088l-0.8991,-11.81674" fill="#bc79ff" stroke="#00a8c1" stroke-width="0"/><path d="M270.89242,168.60504l-0.38938,-5.11766l0.8991,11.81674l-1.52761,0.16088l0.28097,3.69273l-1.52761,0.16088l0.24351,3.20037l-4.25548,0.44821l-0.24351,-3.20037l-1.85494,0.19537l-0.28097,-3.69273l-1.52761,0.16088l-0.8991,-11.81674l0.48351,6.35458" fill="none" stroke="#9562c7" stroke-width="1.5"/></g></g><g><g><path d="M235.6433,167.62806l-0.8991,-11.81674l1.99065,-0.20967l-0.28097,-3.69273l2.41722,-0.25458l-0.24351,-3.20037l5.54539,-0.58407l0.24351,3.20037l1.99065,-0.20967l0.28097,3.69273l1.99065,-0.20967l0.8991,11.81674" fill="#bc79ff" stroke="#00a8c1" stroke-width="0"/><path d="M235.1598,161.2735l0.48351,6.35458l-0.8991,-11.81674l1.99065,-0.20967l-0.28097,-3.69273l2.41722,-0.25458l-0.24351,-3.20037l5.54539,-0.58407l0.24351,3.20037l1.99065,-0.20967l0.28097,3.69273l1.99065,-0.20967l0.8991,11.81674l-0.38938,-5.11766" fill="none" stroke="#9562c7" stroke-width="1.5"/></g><g><path d="M249.54246,165.69505l0.8991,11.81674l-1.99065,0.20967l0.28097,3.69273l-1.99065,0.20967l0.24351,3.20037l-5.54539,0.58407l-0.24351,-3.20037l-2.41722,0.25458l-0.28097,-3.69273l-1.99065,0.20967l-0.8991,-11.81674" fill="#bc79ff" stroke="#00a8c1" stroke-width="0"/><path d="M249.93185,170.8127l-0.38938,-5.11766l0.8991,11.81674l-1.99065,0.20967l0.28097,3.69273l-1.99065,0.20967l0.24351,3.20037l-5.54539,0.58407l-0.24351,-3.20037l-2.41722,0.25458l-0.28097,-3.69273l-1.99065,0.20967l-0.8991,-11.81674l0.48351,6.35458" fill="none" stroke="#9562c7" stroke-width="1.5"/></g></g></g><g stroke="#000000" stroke-width="1.2"><path d="M287.30281,201.22756c-3.23957,-6.31317 -0.74793,-14.05719 5.56523,-17.29677c6.31318,-3.23957 14.0572,-0.74794 17.29677,5.56524c3.23957,6.31317 0.74795,14.0572 -5.56523,17.29677c-6.31318,3.23957 -14.0572,0.74794 -17.29677,-5.56524z" fill="#5c5e5f" stroke-linecap="butt"/><g stroke-linecap="round"><path d="M304.80176,226.11875l-9.39089,1.143l-1.11022,-6.25695l-4.85675,-4.85956l3.47312,-7.55862" fill="#5d5d5d"/><path d="M312.37427,197.64159l3.01095,1.51612l0.57149,4.69543l4.61065,1.30996l-0.2216,8.77831l3.25699,1.74202l0.70001,6.99257l-7.10752,9.68614l-12.95144,0.34443l-3.08739,-5.50494l0.59073,-3.45389l-3.04914,-1.84868l-2.45295,-4.78024l1.33181,-2.52135l-3.04915,-1.84868l-1.71733,-4.37003l9.71914,-9.71348z" fill="#5d5d5d"/><path d="M298.92505,213.64309l6.6289,-5.50209" fill="none"/><path d="M303.30319,222.68673l6.63437,-4.97978" fill="none"/></g><path d="M313.17017,236.79839l-3.32968,-6.48878l3.62747,-4.69942l6.0867,0.09305l3.38382,6.08259l-3.8126,5.36202z" fill="#5c5e5f" stroke-linecap="round"/></g></g></g></svg>