<svg version="1.1" xmlns="http://www.w3.org/2000/svg" xmlns:xlink="http://www.w3.org/1999/xlink" width="86.5107" height="121.74982" viewBox="0,0,86.5107,121.74982"><g transform="translate(-220.83193,-103.63585)"><g stroke-miterlimit="10"><path d="M261.95,178.57699c2.70538,-0.63341 5.35151,1.032 5.91028,3.7198c0.12693,0.61051 0.13522,1.22125 0.04056,1.80805c0.67112,1.76695 -2.86203,4.06428 -3.75501,5.30595c-3.35781,4.66891 -6.54494,6.58003 -12.95106,7.60743c-2.61786,0.41985 -5.20773,-0.34038 -5.91028,-3.7198c-1.33356,-6.41476 6.34384,-6.0741 9.55844,-8.14575c1.72272,-1.11021 5.31807,-7.52725 7.10708,-6.57568z" fill="#ffab19" fill-rule="nonzero" stroke="#000000" stroke-width="1.2" stroke-linecap="butt" stroke-linejoin="miter"/><g fill-rule="evenodd"><path d="M284.2018,196.8087c2.12181,-1.28777 4.62409,-3.02794 6.21111,-5.914c3.6815,-6.4807 2.74769,-14.67527 7.01694,-13.99558c4.3642,0.64563 8.39038,12.99595 -1.93679,20.91319c-3.54803,2.74719 -7.15664,4.04184 -10.13196,5.004c-0.7597,0.27256 -7.53239,1.96528 -10.88113,-0.41362c-3.34874,-2.3789 -2.01748,-3.80425 -1.38361,-4.45289c0.69737,-0.77671 8.06545,0.58138 11.10543,-1.14111z" fill="#ffab19" stroke="#001026" stroke-width="1.2" stroke-linecap="round" stroke-linejoin="round"/><path d="M296.92298,177.29161c2.08802,-0.11728 4.35894,3.49072 4.51037,7.12203c0.15141,3.6313 -0.80172,5.86873 -1.62727,7.53385c-0.03028,-0.72627 -0.34252,-2.93092 -2.36588,-3.57396c-2.52904,-0.88282 -5.75955,1.22392 -5.75955,1.22392c0,0 1.74843,-4.62882 2.41844,-7.7124c0.79585,-2.70752 0.79878,-4.28813 2.82389,-4.59347z" fill="#ffffff" stroke="none" stroke-width="1" stroke-linecap="butt" stroke-linejoin="miter"/></g><g fill-rule="nonzero" stroke-linecap="butt" stroke-linejoin="miter"><path d="M248.26651,215.52696c-1.71606,2.68062 -17.5649,0.05898 -17.5649,0.05898c0,0 -0.86142,-6.72379 3.63093,-7.76068c2.09349,-0.4832 8.85206,-3.23504 9.92554,-4.49557c3.76167,-4.41709 4.94936,-9.3488 10.36871,-12.40663c0.99833,-0.56331 3.16921,-1.90536 5.01682,-2.36428c2.40845,-1.51926 6.06855,1.14717 6.37934,3.87659c0.89074,7.82264 -7.85643,7.62714 -17.75645,23.0916z" fill="#ffab19" stroke="#001026" stroke-width="1.2"/><g><path d="M258.04066,190.06363c1.11656,-3.95296 7.19322,-7.47508 7.19322,-7.47508c0,0 1.33003,-3.33136 3.78493,-4.84327c5.07457,-3.1253 17.91786,3.02279 14.98037,10.83441c-1.1022,2.93103 -4.24182,5.00707 -4.24182,5.00707c0,0 -1.90909,5.67808 -4.32317,7.85271c-2.05321,1.84957 -10.01228,3.0049 -13.94451,-0.25526c-0.40846,-0.33863 -0.77683,-0.68182 -1.10869,-1.0275" fill="#ffab19" stroke="#001026" stroke-width="1.2"/><path d="M270.78939,180.15831c3.98258,-0.70304 6.33555,4.32861 4.71736,8.10691c-0.19528,0.45597 -0.43591,0.98486 -0.72544,1.48799c-0.2965,2.23632 -4.25869,5.60906 -5.86683,5.31201c-5.56675,-1.02834 -8.26214,-9.5551 -1.82572,-11.66605c0.85266,-1.5901 2.34329,-3.00125 3.70062,-3.24086z" fill="#ffffff" stroke="none" stroke-width="0.5"/></g><path d="M264.13641,218.52199c-0.74822,2.99096 -17.25757,6.19225 -17.25757,6.19225c0,0 -3.20478,-5.69656 0.85073,-8.19172c1.88989,-1.16278 7.57338,-5.97983 8.18739,-7.47944c2.15162,-5.25492 1.59082,-10.06919 5.84964,-14.69106c0.78455,-0.85143 2.44946,-2.80736 4.10601,-3.86253c1.83648,-2.19703 6.37173,-1.09792 7.63439,1.2281c3.61888,6.6665 -5.05408,9.54959 -9.37059,26.80443z" fill="#ffab19" stroke="#001026" stroke-width="1.2"/></g><g><g><g><path d="M244.91083,151.19406c0,0 -13.41827,-23.72856 -12.41756,-24.15652c1.34817,-0.57656 28.99251,-0.88733 28.99251,-0.88733" fill="#ffab19" fill-rule="nonzero" stroke="#001026" stroke-width="1.2" stroke-linecap="round" stroke-linejoin="miter"/><path d="M296.58463,132.17681l-0.07143,-1.22069l4.6272,-2.29167l4.87032,3.49016l0.60703,8.55279l-21.77165,17.84492z" fill="#9b7f41" fill-rule="nonzero" stroke="#001026" stroke-width="1.2" stroke-linecap="round" stroke-linejoin="miter"/><path d="M242.77438,173.08909c0,0 -6.41111,3.45985 -12.34567,2.46826" fill="none" fill-rule="evenodd" stroke="#001026" stroke-width="1.2" stroke-linecap="round" stroke-linejoin="round"/><path d="M245.18469,178.42057c0,0 -2.55723,3.57468 -8.36019,6.2431" fill="none" fill-rule="evenodd" stroke="#001026" stroke-width="1.2" stroke-linecap="round" stroke-linejoin="round"/><path d="M256.83651,135.38527c9.31719,-6.85133 39.95577,-12.33597 44.3547,15.13663c0.05736,0.35816 0.03059,0.72747 0.00497,1.0949c-0.93548,13.41839 -11.89363,25.29523 -30.24468,31.33661c-18.35105,6.04139 -27.29963,-1.18971 -28.90911,-6.74123c-1.60948,-5.55153 3.68262,-10.87665 3.68262,-10.87665c0,0 -2.01966,-3.96536 -1.7676,-10.32808c0,0 -0.7336,-9.6122 12.87906,-19.62217z" fill="#ffab19" fill-rule="evenodd" stroke="#001026" stroke-width="1.2" stroke-linecap="butt" stroke-linejoin="miter"/><path d="M263.05779,161.67176c7.70603,-3.61588 13.60824,-17.20025 24.54298,-11.18921c10.88792,5.924 7.46851,24.12066 -16.26473,31.69091c-18.12742,6.0299 -27.19534,-0.56903 -28.80482,-6.12056c-1.60948,-5.55153 3.64637,-10.51705 3.64637,-10.51705c6.62329,-5.84076 10.28169,-0.75231 16.88018,-3.86407z" fill="#ffffff" fill-rule="evenodd" stroke="none" stroke-width="1" stroke-linecap="butt" stroke-linejoin="miter"/><path d="M266.86842,158.07731c0.74953,1.39238 -1.79182,5.63702 -3.47657,6.34969c-1.46113,0.70117 -4.09868,-0.9966 -4.66612,-2.26417c-0.23952,-0.65843 1.61143,-1.91625 3.46766,-2.95075c1.76785,-0.98524 4.20128,-2.22829 4.67503,-1.13473z" fill="#001026" fill-rule="evenodd" stroke="#001026" stroke-width="1.2" stroke-linecap="round" stroke-linejoin="round"/><path d="M294.46309,143.57203c-1.19434,5.95577 -6.67623,10.77751 -6.67623,10.77751" fill="none" fill-rule="evenodd" stroke="#001026" stroke-width="1.2" stroke-linecap="round" stroke-linejoin="round"/><path d="M300.61144,152.85066c-4.53333,4.5292 -8.75014,5.67157 -8.75014,5.67157" fill="none" fill-rule="evenodd" stroke="#001026" stroke-width="1.2" stroke-linecap="round" stroke-linejoin="round"/><path d="M284.27865,135.49712l-40.70351,16.87217l-7.25851,-21.40587l45.31435,-17.74569l18.73921,12.04781l-0.82515,17.22904z" fill="#c58600" fill-rule="nonzero" stroke="#001026" stroke-width="1.2" stroke-linecap="round" stroke-linejoin="miter"/><path d="M281.50726,113.47541l2.70608,21.83456" fill="none" fill-rule="nonzero" stroke="#001026" stroke-width="0.75" stroke-linecap="round" stroke-linejoin="miter"/><path d="M289.98289,118.77514l-7.84298,-5.32417c0,0 15.78633,4.33836 16.88921,4.27839c1.23597,-0.06723 -4.01585,15.45646 -4.01585,15.45646z" fill="#ffab19" fill-rule="nonzero" stroke="#001026" stroke-width="1.2" stroke-linecap="round" stroke-linejoin="miter"/></g><path d="M226.66718,168.69659c-11.29865,-18.32026 -3.70445,-43.77956 16.9621,-56.86496c20.66655,-13.0854 46.57946,-8.84173 57.8781,9.47854c11.29865,18.32026 3.70445,43.77956 -16.9621,56.86496c-20.66655,13.0854 -46.57946,8.84173 -57.8781,-9.47853z" fill="none" fill-rule="nonzero" stroke="#ffffff" stroke-width="1.2" stroke-linecap="butt" stroke-linejoin="miter"/><path d="M279.4881,108.21829l1.76359,7.01089l-7.03595,4.65393l-9.86281,-0.83269l1.48854,-12.05807z" fill="#ffffff" fill-rule="nonzero" stroke="#001026" stroke-width="0" stroke-linecap="round" stroke-linejoin="miter"/><path d="M289.66196,118.51971l7.22359,-0.11295l-7.15125,0.34551" fill="#000000" fill-rule="nonzero" stroke="none" stroke-width="0" stroke-linecap="round" stroke-linejoin="miter"/></g><g stroke="#001026"><g fill-rule="evenodd"><path d="M253.22637,145.54275c3.31821,0.1871 5.61893,4.67459 5.16358,10.01929c-0.54373,5.39396 -3.62602,9.48754 -6.94424,9.30043c-3.31821,-0.1871 -5.61892,-4.67459 -5.16358,-10.01931c0.45534,-5.34472 3.57917,-9.57456 6.94424,-9.30043z" fill="#ffffff" stroke-width="1.2" stroke-linecap="round" stroke-linejoin="round"/><path d="M246.15201,158.3235c-0.51531,-0.95727 -0.22978,-2.13459 0.65416,-2.6272c0.88392,-0.49263 2.01267,-0.1035 2.52797,0.85376c0.51531,0.95727 0.22978,2.13459 -0.65415,2.6272c-0.88392,0.49263 -2.01266,0.10351 -2.52797,-0.85376" fill="#001026" stroke-width="0.5" stroke-linecap="butt" stroke-linejoin="miter"/></g><g fill-rule="evenodd"><path d="M276.27614,137.55963c3.77077,0.3874 6.26417,5.44632 5.5852,10.80252c-0.22695,2.03936 -0.84417,3.79503 -1.73425,5.18231c-2.62018,0.6805 -5.46101,1.47222 -8.29781,2.41846c-2.06396,-1.70938 -3.42786,-5.24533 -2.99145,-9.16687c0.59058,-5.30693 3.62072,-9.71084 7.43835,-9.23642z" fill="#ffffff" stroke-width="1.2" stroke-linecap="round" stroke-linejoin="round"/><path d="M268.93129,150.26491c-0.51531,-0.95727 -0.18294,-2.04756 0.65416,-2.62722c0.88392,-0.49263 2.01267,-0.10349 2.52797,0.85377c0.51531,0.95727 0.22978,2.13459 -0.65415,2.6272c-0.88392,0.49263 -2.01267,0.1035 -2.52797,-0.85377" fill="#001026" stroke-width="0.5" stroke-linecap="butt" stroke-linejoin="miter"/></g><g fill="#000000" fill-rule="nonzero" stroke-width="1" stroke-linecap="round" stroke-linejoin="miter" font-family="&quot;Times New Roman&quot;" font-weight="400" font-size="16" text-anchor="start"/></g></g><path d="M267.20677,178.19827c5.95033,1.15059 10.50098,2.63455 10.16419,3.3145c-0.3368,0.67994 -5.43353,0.29842 -11.38384,-0.85218c-5.95033,-1.15059 -10.50098,-2.63455 -10.16419,-3.3145c0.3368,-0.67994 5.43353,-0.29842 11.38384,0.85218z" fill="#ffffff" fill-rule="nonzero" stroke="#001026" stroke-width="1.2" stroke-linecap="butt" stroke-linejoin="miter"/><g fill-rule="nonzero" stroke="#000000" stroke-width="1.2" stroke-linejoin="miter"><path d="M258.2538,185.60087c-4.47836,-1.41435 -6.86054,-6.22319 -5.32073,-10.74083c1.53981,-4.51764 6.41852,-7.03337 10.89688,-5.61902c4.47836,1.41435 6.86055,6.22318 5.32073,10.74083c-1.53981,4.51764 -6.4185,7.03336 -10.89688,5.61902z" fill="#5c5e5f" stroke-linecap="butt"/><g stroke-linecap="round"><path d="M263.28637,186.64663l1.74819,4.35749l-1.53578,1.8707l-1.4498,4.25355l-3.73516,-0.636z" fill="#ffab19"/><path d="M261.43689,181.5323l3.1469,5.52406l-2.14916,3.67028l-0.33967,1.5236l-2.03764,3.34308l-0.01023,1.08403l-2.35688,2.69862l-6.22354,-1.24068l-4.51028,-4.68618l5.80897,-12.29972z" fill="#ffab19"/><path d="M259.75892,186.98227l1.16546,2.905" fill="none"/><path d="M257.06238,191.20451l1.86481,3.48827" fill="none"/></g><path d="M255.65302,196.92051l-1.93123,3.55789l-3.90245,-0.1452l-2.13851,-3.2123l1.65242,-2.7399l4.12548,-0.50919z" fill="#5c5e5f" stroke-linecap="round"/></g><path d="M282.30467,191.11072c-4.89262,2.70981 -8.87615,4.18742 -12.34709,8.95518c-1.22262,1.67942 -2.27384,5.10574 -4.79288,5.24547c-3.39228,0.18817 -6.88156,-2.72228 -6.01535,-6.18718c1.14516,-4.58076 6.9442,-10.33743 10.56181,-13.14631c1.22808,-0.95354 3.24172,-0.82795 4.47128,-1.78458c1.36655,-1.06322 6.93301,-4.46703 8.40108,-1.76665c1.44956,0.86976 2.39362,2.47396 2.34266,4.30908c-0.04519,1.62714 -0.86258,3.07275 -2.09141,3.98581c-0.15807,0.14902 -0.33334,0.28022 -0.53009,0.38919z" fill="#ffab19" fill-rule="nonzero" stroke="#000000" stroke-width="1.2" stroke-linecap="butt" stroke-linejoin="miter"/><path d="M245.46785,210.41258c0,0 5.91949,-8.87112 11.82048,-11.8111c10.54639,-5.2544 11.07878,5.49326 11.07878,5.49326c0.03022,2.03124 -1.09505,3.22335 -1.09505,3.22335c0,0 3.58496,5.40091 0.17564,8.02299c-2.29897,1.76813 -6.32848,-3.53012 -6.32848,-3.53012l-1.76184,1.00925c0,0 4.16672,5.96319 -0.70327,8.29595c-3.57437,1.71215 -5.75146,-5.68283 -5.75146,-5.68283l-2.79766,0.80264c0,0 -4.88825,5.61376 -7.45131,2.23292c-1.96859,-2.5967 2.81418,-8.05632 2.81418,-8.05632z" fill="#ffab19" fill-rule="nonzero" stroke="#001026" stroke-width="1.2" stroke-linecap="round" stroke-linejoin="miter"/></g></g></svg>