<svg version="1.1" xmlns="http://www.w3.org/2000/svg" xmlns:xlink="http://www.w3.org/1999/xlink" width="87.79785" height="119.33715" viewBox="0,0,87.79785,119.33715"><g transform="translate(-189.91784,-114.26854)"><g stroke-miterlimit="10"><g fill-rule="evenodd" stroke="#000000"><path d="M247.19115,210.73783c0.04807,-3.4522 -4.74332,-9.26018 -4.39383,-10.2286c0.26681,-0.85371 0.8831,-2.67587 4.6234,-0.851c3.74031,1.82486 5.53568,8.52386 5.66373,9.31355c0.59488,3.04402 1.20311,6.79502 0.4934,11.16496c-1.99572,12.68295 -14.91082,14.87844 -17.60797,11.36484c-2.68116,-3.41489 5.04231,-6.38946 8.99882,-12.60283c1.78749,-2.72119 2.11301,-5.71186 2.22242,-8.16094z" fill="#7e5765" stroke-width="1.2" stroke-linecap="round" stroke-linejoin="round"/><path d="M236.07127,230.87729c-0.71496,-1.91018 0.68568,-2.64383 2.69993,-4.59133c2.4091,-2.01152 5.66392,-5.67978 5.66392,-5.67978c0,0 -0.29617,3.79635 1.71803,5.59717c1.55535,1.47001 3.66297,0.72304 4.32193,0.41357c-1.07516,1.49131 -2.59586,3.35878 -5.89068,4.9061c-3.29483,1.54732 -7.60073,1.23245 -8.51311,-0.64572z" fill="#6f6fca" stroke-width="0" stroke-linecap="butt" stroke-linejoin="miter"/></g><path d="M233.17191,185.51307c2.48387,-1.20656 5.47558,-0.17109 6.68214,2.31279c0.27407,0.56419 0.43244,1.15458 0.48446,1.7443c1.08961,1.56638 -1.79253,4.56761 -2.35832,5.96713c-2.1275,5.26245 -4.76704,7.81343 -10.76491,10.21235c-2.45103,0.98032 -5.16511,0.81024 -6.68214,-2.31279c-0.54269,-1.11719 -0.71406,-2.07181 -0.61723,-2.90362c0.41698,-3.58195 5.80759,-4.88643 7.93939,-7.08786c1.40774,-1.45373 3.33687,-8.46327 5.31661,-7.9323z" fill="#7e5765" fill-rule="nonzero" stroke="#000000" stroke-width="1.2" stroke-linecap="butt" stroke-linejoin="miter"/><g fill-rule="nonzero" stroke="#000000" stroke-width="1.2" stroke-linejoin="miter"><path d="M213.34702,201.68449c0.97529,4.63231 -1.9893,9.17818 -6.6216,10.15348c-4.63231,0.97529 -9.17818,-1.98931 -10.15347,-6.62161c-0.97529,-4.63231 1.9893,-9.17818 6.62161,-10.15347c4.63231,-0.97529 9.17817,1.9893 10.15347,6.62161z" fill="#323388" stroke-linecap="butt"/><g stroke-linecap="round"><path d="M211.78423,196.7579l2.88703,-3.76121l2.35736,0.37961l4.36152,-0.91829l1.28026,3.58456z" fill="#7e5765"/><path d="M208.29682,200.99589l3.20484,-5.57999l4.20262,-0.00889l1.47444,-0.48562l3.86711,0.06175l0.93587,-0.54741l3.46982,0.67095l1.97779,6.0655l-1.81868,6.33926l-13.40244,1.2451z" fill="#7e5765"/><path d="M215.72196,197.15516l-1.92468,2.50748" fill="none"/><path d="M220.82512,196.43111l-2.08359,3.41686" fill="none"/></g><path d="M224.3391,198.14387l3.99954,-0.14132l1.78351,3.47861l-1.71277,3.51397l-3.16079,-0.03528l-2.45452,-3.33733z" fill="#323388" stroke-linecap="round"/></g><g fill-rule="nonzero" stroke-linejoin="miter"><path d="M217.08783,204.12202c5.35744,-1.92827 7.90379,4.25453 7.90379,4.25453c0,0 7.16003,-8.92535 11.46507,-11.79859c-1.69842,-2.17174 -2.87918,-4.66955 -3.13607,-7.62416c-0.36779,-4.23005 3.05121,-11.52255 7.97303,-13.87675c0.26861,-0.20219 0.56836,-0.36117 0.88501,-0.46467c2.31508,-1.31208 5.7209,-0.87066 8.0895,0.04823c0.38149,0.11124 0.76205,0.23065 1.14007,0.3515c7.27997,2.32735 9.18598,8.35106 8.8085,15.6448c-0.03844,0.74283 -0.00441,2.37867 -0.18735,3.99517c3.76184,0.79442 5.11356,5.50386 4.89247,8.55988c3.16953,0.69224 8.56759,1.4794 9.48696,2.69292c1.32966,1.75509 -1.25883,8.59223 -2.10995,10.56122c-1.30805,3.02604 -4.60526,7.24888 -4.60526,7.24888l-12.83606,-0.16402l-8.80603,-19.87899c0,0 -12.12868,9.94791 -18.63637,17.47499c-2.97901,3.44566 -7.30233,6.89629 -10.21398,4.31477c-2.69137,-2.38622 -8.95599,-8.74446 -10.46752,-12.04435c0,0 4.99674,-7.36708 10.35418,-9.29536z" fill="#7e5765" stroke="#000000" stroke-width="1.2" stroke-linecap="butt"/><path d="M242.13231,197.13931c-2.7752,-1.96823 -5.55852,-3.64605 -5.89462,-7.51159c-0.53565,-6.16066 7.44971,-7.97521 11.43333,-5.80851c6.42664,3.49546 1.06967,17.57148 -5.0936,13.47692z" fill="#6f6fca" stroke="none" stroke-width="0.5" stroke-linecap="butt"/><path d="M256.78589,212.2894c0.78297,-6.69791 2.07069,-7.81742 2.07069,-7.81742c0,0 2.06604,-1.63176 6.12628,-1.21305" fill="none" stroke="#000000" stroke-width="1.2" stroke-linecap="round"/></g><path d="M254.49192,189.76507c-0.18486,0.34588 -0.34352,0.71798 -0.49086,1.10308c0.19807,3.90729 -1.10455,10.01982 -3.30995,13.09793c-1.96305,2.73987 -9.10919,5.37168 -10.10338,0.20252c-0.70855,-3.68402 0.36201,-6.32783 1.4667,-9.77467c0.9151,-2.85528 1.99205,-5.53229 3.55179,-8.09716c0.64556,-1.06157 5.70662,-10.85428 8.32581,-8.89205l2.65308,1.98761c-0.00963,0.08678 -0.01961,0.17192 -0.02994,0.2555c2.46873,2.18494 0.08625,6.09549 -2.06324,10.11723z" fill="#7e5765" fill-rule="nonzero" stroke="#000000" stroke-width="1.2" stroke-linecap="butt" stroke-linejoin="miter"/><g><g><g stroke="#000000"><path d="M207.52354,154.26068c0,0 -10.70219,-25.42984 -9.66413,-25.71866c1.39847,-0.38909 28.81732,3.08004 28.81732,3.08004" fill="#7e5765" fill-rule="nonzero" stroke-width="1.2" stroke-linecap="round" stroke-linejoin="miter"/><path d="M260.78834,142.41194l16.25604,11.07525l-1.2954,6.03672l-29.46816,7.51184z" fill="#4a3e7c" fill-rule="nonzero" stroke-width="1.2" stroke-linecap="round" stroke-linejoin="miter"/><path d="M203.0171,175.74134c0,0 -6.72861,2.56432 -12.49926,0.76718" fill="none" fill-rule="evenodd" stroke-width="1.2" stroke-linecap="round" stroke-linejoin="round"/><path d="M204.8228,181.37248c0,0 -2.92345,3.20521 -8.96324,5.06561" fill="none" fill-rule="evenodd" stroke-width="1.2" stroke-linecap="round" stroke-linejoin="round"/><path d="M221.06299,140.17007c9.97765,-5.53966 40.92745,-6.80627 42.28621,21.11402c0.01771,0.364 -0.04911,0.72758 -0.11459,1.08945c-2.39145,13.21556 -14.54323,23.52838 -33.38155,27.02797c-18.83833,3.49959 -26.91361,-4.91409 -27.90197,-10.65457c-0.98837,-5.74048 4.83536,-10.31258 4.83536,-10.31258c0,0 -1.56785,-4.21922 -0.6236,-10.51195c0,0 0.32254,-9.65874 14.90016,-17.75234z" fill="#7e5765" fill-rule="evenodd" stroke-width="1.2" stroke-linecap="butt" stroke-linejoin="miter"/><path d="M224.3565,167.15995c8.02843,-2.54248 15.3581,-15.2443 25.53409,-7.7724c10.13909,7.37896 4.76545,25.00661 -19.57146,29.29093c-18.61554,3.51872 -26.87805,-4.28264 -27.86642,-10.02312c-0.98837,-5.74048 4.7602,-9.95994 4.7602,-9.95994c7.19871,-4.90291 10.26735,0.65709 17.14359,-1.53546z" fill="#6f6fca" fill-rule="evenodd" stroke-width="0" stroke-linecap="butt" stroke-linejoin="miter"/><path d="M228.52371,164.10641c0.59051,1.48705 -2.39034,5.36063 -4.13708,5.83906c-1.52395,0.49756 -3.95143,-1.55117 -4.37518,-2.88925c-0.1654,-0.68749 1.80548,-1.68531 3.75722,-2.46034c1.85881,-0.73812 4.4051,-1.64166 4.75504,-0.48947z" fill="#000000" fill-rule="evenodd" stroke-width="1.2" stroke-linecap="round" stroke-linejoin="round"/><path d="M257.3081,153.31876c-1.83328,5.75926 -7.79005,9.80485 -7.79005,9.80485" fill="none" fill-rule="evenodd" stroke-width="1.2" stroke-linecap="round" stroke-linejoin="round"/><path d="M262.52064,163.5206c-4.9852,3.88432 -9.28714,4.444 -9.28714,4.444" fill="none" fill-rule="evenodd" stroke-width="1.2" stroke-linecap="round" stroke-linejoin="round"/><path d="M248.23541,144.03183l-42.16331,11.21496l-4.85374,-22.27827l46.82626,-11.45343l17.24825,14.54159l-2.69812,17.01999z" fill="#5d4262" fill-rule="nonzero" stroke-width="1.2" stroke-linecap="round" stroke-linejoin="miter"/><path d="M248.19118,143.83681l-0.29725,-22.08238" fill="none" fill-rule="nonzero" stroke-width="0.75" stroke-linecap="round" stroke-linejoin="miter"/><path d="M255.71149,128.1829l-7.1882,-6.36631c0,0 14.14088,-7.03826 15.23998,-6.94717c1.2317,0.10208 -4.64165,28.33117 -4.64165,28.33117z" fill="#7e5765" fill-rule="nonzero" stroke-width="1.2" stroke-linecap="round" stroke-linejoin="miter"/></g><g fill="none" fill-rule="nonzero" stroke="none" stroke-width="1" stroke-linecap="butt" stroke-linejoin="miter" font-family="sans-serif" font-weight="normal" font-size="12" text-anchor="start"><g/><g/><g/></g></g><g fill="none" fill-rule="nonzero" stroke="none" stroke-width="1" stroke-linecap="butt" stroke-linejoin="miter" font-family="sans-serif" font-weight="normal" font-size="12" text-anchor="start"/><g fill="none" fill-rule="nonzero" stroke="none" stroke-width="1" stroke-linecap="butt" stroke-linejoin="miter" font-family="sans-serif" font-weight="normal" font-size="12" text-anchor="start"/></g><g fill-rule="nonzero" stroke="#000000" stroke-width="1.2" stroke-linecap="round" stroke-linejoin="miter"><path d="M231.23167,164.30664l14.69135,-25.20443l7.00872,9.30003l-4.85219,6.60437l7.41307,0.67392l0.53913,7.68263z" fill="#000000"/><path d="M229.61428,163.63272l-1.61739,2.42609h12.40004" fill="none"/><path d="M248.88825,165.3849l7.41306,-0.26957" fill="none"/></g><g fill-rule="nonzero" stroke="#000000" stroke-width="1.2" stroke-linecap="round" stroke-linejoin="miter"><path d="M202.86422,173.5983l-1.53246,-7.48892l4.61837,-2.9142l-4.74732,-4.80884l2.2462,-11.01339l15.64846,19.52466z" fill="#000000"/><path d="M219.97616,165.75953l1.63742,1.81709l-8.00116,3.80005" fill="none"/><path d="M203.11913,175.35123l4.84928,-2.01479" fill="none"/></g><path d="M212.7664,188.4328c0,0 -0.72757,-7.30427 3.77393,-7.1435c4.50149,0.16077 15.0957,7.81742 15.0957,7.81742" fill="none" fill-rule="nonzero" stroke="#000000" stroke-width="1.2" stroke-linecap="round" stroke-linejoin="miter"/><path d="M224.6273,185.06322l2.02175,4.44784" fill="none" fill-rule="nonzero" stroke="#000000" stroke-width="1.2" stroke-linecap="round" stroke-linejoin="miter"/></g></g></svg>