<svg version="1.1" xmlns="http://www.w3.org/2000/svg" xmlns:xlink="http://www.w3.org/1999/xlink" width="87.85312" height="132.66495" viewBox="0,0,87.85312,132.66495"><g transform="translate(-186.26515,-116.89258)"><g stroke-miterlimit="10"><path d="M239.44133,197.87998c2.75451,-0.19525 5.14577,1.87944 5.34102,4.63395c0.04436,0.62566 -0.02842,1.23258 -0.19965,1.79928c0.42823,1.85941 -3.36396,3.57212 -4.41005,4.66045c-3.93351,4.09233 -7.33294,5.47744 -13.79275,5.47131c-2.6398,-0.0025 -5.09553,-1.17065 -5.34102,-4.63395c-0.46599,-6.57398 7.06736,-5.00795 10.51519,-6.54784c1.84771,-0.82524 6.24745,-6.61295 7.88726,-5.3832z" fill="#ffab19" fill-rule="nonzero" stroke="#000000" stroke-width="1.2" stroke-linecap="butt" stroke-linejoin="miter"/><g fill-rule="evenodd"><path d="M254.68918,202.35767c1.33062,-1.97062 2.79864,-4.49794 2.91551,-7.73726c0.36899,-7.31773 -4.21877,-14.49427 -0.0474,-15.45639c4.24169,-1.02867 13.52437,8.81438 7.80157,19.92005c-1.95375,3.8404 -4.62579,6.36971 -6.87701,8.35849c-0.56253,0.53249 -5.91418,4.60282 -10.02929,3.66289c-4.11511,-0.93993 -3.56228,-2.74315 -3.28533,-3.57416c0.27587,-0.97219 7.55956,-2.46277 9.52194,-5.17363z" fill="#ffab19" stroke="#001026" stroke-width="1.2" stroke-linecap="round" stroke-linejoin="round"/><path d="M257.2782,179.71268c1.83472,-0.88343 5.53656,1.58538 7.33228,4.86304c1.79571,3.27765 1.95579,5.68597 1.96983,7.52144c-0.35914,-0.65554 -1.64861,-2.56363 -3.77216,-2.40228c-2.69041,0.12909 -4.64956,3.26352 -4.64956,3.26352c0,0 -0.53325,-4.89933 -1.3359,-7.97931c-0.51706,-2.78147 -1.23644,-4.23372 0.45549,-5.26643z" fill="#ffffff" stroke="none" stroke-width="1" stroke-linecap="butt" stroke-linejoin="miter"/></g><g fill-rule="nonzero" stroke-linecap="butt" stroke-linejoin="miter"><path d="M255.19977,235.26111c1.06208,2.89009 -11.2698,13.57037 -11.2698,13.57037c0,0 -5.99247,-3.26831 -3.93646,-7.3366c0.95812,-1.89586 3.08747,-8.71348 2.75976,-10.27789c-1.14831,-5.48198 -4.37127,-9.28135 -3.35227,-15.24588c0.18772,-1.09877 0.50116,-3.55653 1.3205,-5.24872c0.32322,-2.74448 4.83782,-4.00568 7.24531,-2.64898c6.90001,3.88835 1.10588,10.51476 7.23296,27.1877z" fill="#ffab19" stroke="#001026" stroke-width="1.2"/><g><path d="M240.59188,213.82805c-3.11235,-2.45875 -3.58837,-9.28918 -3.58837,-9.28918c0,0 -2.44707,-2.42732 -2.72082,-5.21915c-0.5659,-5.77103 10.86523,-15.2582 16.68523,-9.73195c2.18375,2.07353 2.66418,5.69592 2.66418,5.69592c0,0 4.33262,3.81048 5.23125,6.80634c0.7643,2.54802 -1.77623,10.23527 -6.53682,12.63828c-0.49449,0.24961 -0.97503,0.46097 -1.44134,0.6381" fill="#ffab19" stroke="#001026" stroke-width="1.2"/><path d="M237.29099,198.58187c1.15693,-3.89205 6.8246,-4.20819 9.55038,-1.35503c0.32895,0.34432 0.70413,0.75659 1.03362,1.20413c1.91226,1.085 3.20739,5.93053 2.20866,7.29057c-3.45726,4.70797 -12.47783,4.06408 -11.49999,-2.58095c-1.06955,-1.35745 -1.68699,-3.23222 -1.29269,-4.55871z" fill="#ffffff" stroke="none" stroke-width="0.5"/></g><path d="M256.20527,208.77344c2.24335,1.28929 4.34568,4.85517 4.34568,4.85517c0,0 3.91849,7.12212 4.13164,8.5286c0.97015,6.4017 -5.47325,15.6868 -11.66759,9.06734c-1.45713,-1.55712 -1.24538,-3.58814 -1.62884,-5.44204c-0.17484,-0.84532 -3.91262,-7.55414 -5.95326,-9.14932c-3.54847,-2.77386 -8.87512,-5.10166 -10.7911,-9.27403c-3.41049,-7.42692 15.47417,-9.18631 16.35018,-8.82418" fill="#ffab19" stroke="#001026" stroke-width="1.2"/></g><g><g><g><path d="M210.22764,159.41302c0,0 -8.58075,-26.22182 -7.52251,-26.42453c1.42566,-0.2731 28.46769,5.43284 28.46769,5.43284" fill="#ffab19" fill-rule="nonzero" stroke="#001026" stroke-width="1.2" stroke-linecap="round" stroke-linejoin="miter"/><path d="M264.28473,151.9722l0.16262,-1.21439l4.95268,-1.24452l4.08947,4.48675l-1.03542,8.53178l-24.64727,12.79155z" fill="#9b7f41" fill-rule="nonzero" stroke="#001026" stroke-width="1.2" stroke-linecap="round" stroke-linejoin="miter"/><path d="M203.97483,180.45181c0,0 -6.91624,2.00389 -12.52007,-0.26041" fill="none" fill-rule="evenodd" stroke="#001026" stroke-width="1.2" stroke-linecap="round" stroke-linejoin="round"/><path d="M205.31269,186.21202c0,0 -3.17644,2.95467 -9.34846,4.31353" fill="none" fill-rule="evenodd" stroke="#001026" stroke-width="1.2" stroke-linecap="round" stroke-linejoin="round"/><path d="M224.87699,146.48021c10.39833,-4.70278 41.34775,-3.42708 40.41232,24.5106c-0.01219,0.36423 -0.10861,0.7211 -0.20354,1.07639c-3.46713,12.97494 -16.4237,22.25652 -35.48557,24.19946c-19.06187,1.94296 -26.41997,-7.10461 -26.93427,-12.90679c-0.51429,-5.80219 5.66475,-9.88132 5.66475,-9.88132c0,0 -1.21657,-4.33359 0.24053,-10.52768c0,0 1.11352,-9.59977 16.30575,-16.47066z" fill="#ffab19" fill-rule="evenodd" stroke="#001026" stroke-width="1.2" stroke-linecap="butt" stroke-linejoin="miter"/><path d="M225.94607,173.64925c3.28783,-0.7511 6.59758,-3.13524 9.99642,-5.1921c5.08825,-3.07924 10.37616,-5.42502 16.08905,-0.46019c9.49983,8.18557 2.69871,25.31317 -21.90755,27.58731c-18.8414,1.9803 -26.43632,-6.47236 -26.95061,-12.27456c-0.51429,-5.80219 5.56093,-9.53603 5.56093,-9.53603c7.57653,-4.29607 10.17887,1.49685 17.21176,-0.12442z" fill="#ffffff" fill-rule="evenodd" stroke="none" stroke-width="1" stroke-linecap="butt" stroke-linejoin="miter"/><path d="M230.34969,170.9477c0.46658,1.53046 -2.82189,5.14656 -4.60198,5.48014c-1.55963,0.37092 -3.81091,-1.87 -4.12351,-3.2383c-0.10847,-0.69874 1.9376,-1.53158 3.94633,-2.14394c1.91308,-0.5832 4.52488,-1.27488 4.77915,-0.09787z" fill="#001026" fill-rule="evenodd" stroke="#001026" stroke-width="1.2" stroke-linecap="round" stroke-linejoin="round"/><path d="M260.04501,162.70226c-2.29938,5.58952 -8.56786,9.133 -8.56786,9.133" fill="none" fill-rule="evenodd" stroke="#001026" stroke-width="1.2" stroke-linecap="round" stroke-linejoin="round"/><path d="M264.28016,173.15183c-5.28695,3.46242 -9.62029,3.66743 -9.62029,3.66743" fill="none" fill-rule="evenodd" stroke="#001026" stroke-width="1.2" stroke-linecap="round" stroke-linejoin="round"/><path d="M251.64121,152.55723l-42.94099,7.71956l-3.01046,-22.60127l47.60778,-7.57485l15.99767,15.90705l-4.08476,16.74141z" fill="#c58600" fill-rule="nonzero" stroke="#001026" stroke-width="1.2" stroke-linecap="round" stroke-linejoin="miter"/><path d="M253.12772,130.32684l-1.51464,22.03238" fill="none" fill-rule="nonzero" stroke="#001026" stroke-width="0.75" stroke-linecap="round" stroke-linejoin="miter"/><path d="M260.39181,137.37475l-6.64192,-6.93435c0,0 14.58284,7.69342 15.67075,7.87434c1.21918,0.20274 -6.86172,14.30675 -6.86172,14.30675z" fill="#ffab19" fill-rule="nonzero" stroke="#001026" stroke-width="1.2" stroke-linecap="round" stroke-linejoin="miter"/></g><path d="M189.08911,172.63544c-7.54125,-20.44937 4.71713,-43.80191 27.37984,-52.15939c22.66271,-8.35748 47.14784,1.44493 54.68908,21.89432c7.54125,20.44937 -4.71713,43.80191 -27.37984,52.15939c-22.66271,8.35748 -47.14784,-1.44493 -54.68908,-21.89431z" fill="none" fill-rule="nonzero" stroke="#ffffff" stroke-width="1.2" stroke-linecap="butt" stroke-linejoin="miter"/><path d="M252.15751,124.72469l0.38695,7.26897l-7.75342,3.04074l-9.46833,-2.96242l3.74805,-11.51869z" fill="#ffffff" fill-rule="nonzero" stroke="#001026" stroke-width="0" stroke-linecap="round" stroke-linejoin="miter"/><path d="M260.12717,137.05411l7.07224,1.4598l-7.04591,-1.21568" fill="#000000" fill-rule="nonzero" stroke="none" stroke-width="0" stroke-linecap="round" stroke-linejoin="miter"/></g><g fill="#000000" stroke-width="1" stroke-linejoin="miter" font-family="&quot;Times New Roman&quot;" font-weight="400" font-size="16" text-anchor="start"><g fill-rule="evenodd" stroke="none" stroke-linecap="butt"/><g fill-rule="evenodd" stroke="none" stroke-linecap="butt"/><g fill-rule="nonzero" stroke="#001026" stroke-linecap="round"/></g></g><path d="M205.66204,168.8205l3.42208,-1.11112c0,0 4.08987,6.25556 7.52549,5.30744c2.769,-0.76416 4.21049,-8.10221 4.21049,-8.10221c0,0 -0.19721,11.17517 -4.39173,12.3951c-6.00568,1.74669 -10.76634,-8.4892 -10.76634,-8.4892z" fill="#001026" fill-rule="nonzero" stroke="#001026" stroke-width="0.5" stroke-linecap="round" stroke-linejoin="miter"/><path d="M223.96819,192.17268c6.04038,2.51146 10.1541,4.91858 9.18831,5.37644c-0.96581,0.45786 -6.64543,-1.20692 -12.68579,-3.71839c-6.04038,-2.51146 -10.1541,-4.91858 -9.18831,-5.37644c0.96581,-0.45786 6.64543,1.20692 12.68579,3.71839z" fill="#ffffff" fill-rule="nonzero" stroke="#001026" stroke-width="1.2" stroke-linecap="butt" stroke-linejoin="miter"/><g fill-rule="nonzero" stroke="#000000" stroke-width="1.2" stroke-linejoin="miter"><path d="M232.96422,208.0312c-4.52573,-1.38823 -7.06919,-6.18248 -5.68094,-10.70821c1.38823,-4.52573 6.18247,-7.06918 10.70821,-5.68094c4.52573,1.38823 7.06919,6.18246 5.68094,10.70821c-1.38823,4.52573 -6.18246,7.06918 -10.70821,5.68094z" fill="#5c5e5f" stroke-linecap="butt"/><g stroke-linecap="round"><path d="M238.03177,209.04771l1.89433,4.34663l-1.473,1.87924l-1.30708,4.26117l-3.75643,-0.61431z" fill="#ffab19"/><path d="M236.01076,203.94497l3.33216,5.50491l-2.026,3.68204l-0.28857,1.52529l-1.92547,3.35425l0.02614,1.08389l-2.26632,2.71175l-6.26506,-1.20452l-4.66741,-4.65931l5.39628,-12.33109z" fill="#ffab19"/><path d="M234.51565,209.40366l1.26289,2.89775" fill="none"/><path d="M231.96079,213.64073l1.98179,3.47689" fill="none"/></g><path d="M230.74319,219.36385l-1.81185,3.5684l-3.90725,-0.12264l-2.24623,-3.19938l1.56048,-2.74895l4.10833,-0.53292z" fill="#5c5e5f" stroke-linecap="round"/></g><g fill-rule="nonzero" stroke="#000000" stroke-width="1.2" stroke-linejoin="miter"><path d="M248.76486,192.3769c0,0 -1.40172,-1.12491 -0.64689,-2.95385c2.97712,-7.21346 6.90686,-4.78239 9.47531,-6.29043c2.96905,-1.74323 6.05605,-4.39669 7.35412,-3.66304c1.86052,1.05153 1.59964,3.57354 1.87038,6.61536c0.36468,4.09713 0.60284,9.05335 -2.03067,11.83526c-2.05688,2.17279 -5.68923,-4.49255 -5.69651,-4.55436c-2.33768,0.94802 -4.89262,1.10347 -6.65731,0.3942" fill="#ffab19" stroke-linecap="butt"/><g stroke-linecap="round"><path d="M268.25463,194.30619l0.03081,5.6192l-1.31548,2.62516l-1.9342,-0.17271l-0.88041,1.12575l-3.57835,-1.34505" fill="#ffab19"/><path d="M253.72089,191.3658l10.64142,-8.17726l4.83539,4.05554l1.86442,6.43798l-2.20905,2.94854l-0.99616,0.18555l-2.83906,2.71188l-1.36231,0.60775l-3.12714,2.88354l-5.84929,-1.56022z" fill="#ffab19"/><path d="M259.59163,197.83385l2.80809,0.77503l-3.16901,0.55564z" fill="none"/><path d="M263.47113,194.32891l3.42597,1.42696" fill="none"/></g></g><path d="M232.46945,171.2517l9,-16.75l8,4.25l-5,7l9.75,1l-1.75,7.25z" fill="#001026" fill-rule="nonzero" stroke="#001026" stroke-width="0" stroke-linecap="round" stroke-linejoin="miter"/></g></g></svg>