<svg version="1.1" xmlns="http://www.w3.org/2000/svg" xmlns:xlink="http://www.w3.org/1999/xlink" width="125.25" height="125.25" viewBox="0,0,125.25,125.25"><defs><radialGradient cx="240" cy="180" r="62.625" gradientUnits="userSpaceOnUse" id="color-1"><stop offset="0" stop-color="#ff6666"/><stop offset="1" stop-color="#ff6666" stop-opacity="0"/></radialGradient><radialGradient cx="240" cy="180" r="42.82553" gradientUnits="userSpaceOnUse" id="color-2"><stop offset="0" stop-color="#ffb4b4"/><stop offset="1" stop-color="#ffb4b4" stop-opacity="0"/></radialGradient></defs><g transform="translate(-177.375,-117.375)"><g stroke-width="0" stroke-miterlimit="10"><path d="M283.94016,183.57857l-41.47623,41.88689l-7.27447,-0.23466l-18.06885,-14.66628l-1.81862,-8.09578l6.57049,-3.75457l-18.06885,3.75457l-8.9171,-5.39719v-34.72974l8.9171,-5.39719l18.06885,3.75457l-6.57049,-3.75457l1.81862,-8.09578l18.06885,-14.66628l7.27447,-0.23466l41.47623,42.12155z" fill="#000000" stroke="#000000" stroke-linecap="round"/><path d="M177.375,180c0,-34.58683 28.03817,-62.625 62.625,-62.625c34.58683,0 62.625,28.03817 62.625,62.625c0,34.58683 -28.03817,62.625 -62.625,62.625c-34.58683,0 -62.625,-28.03817 -62.625,-62.625z" fill="url(#color-1)" stroke="none" stroke-linecap="butt"/><path d="M281.94555,182.78659l-40.77225,40.47892l-5.27986,-0.29333l-16.71956,-14.07963l-1.1733,-4.69321l9.38642,-7.62646l-22.29274,3.81323l-7.33314,-4.39988v-32.26581l7.33314,-4.39988l22.29274,3.81323l-9.38642,-7.62646l1.1733,-4.69321l16.71956,-14.07963l5.27986,-0.29333l40.77225,40.47892z" fill="#ffcdcd" stroke="#ffffff" stroke-linecap="round"/><path d="M197.17447,180c0,-23.65188 19.17365,-42.82553 42.82553,-42.82553c23.65188,0 42.82553,19.17365 42.82553,42.82553c0,23.65188 -19.17365,42.82553 -42.82553,42.82553c-23.65188,0 -42.82553,-19.17365 -42.82553,-42.82553z" fill="url(#color-2)" stroke="none" stroke-linecap="butt"/><path d="M279.35542,181.38969l-39.46361,39.69922l-2.52939,0.02635l-15.37371,-13.55492l-0.2712,-3.76006l16.04455,-11.2099l-32.22271,4.91039l-4.54278,-3.02054l-0.00001,-29.27445l4.54279,-3.02055l32.2227,4.9104l-16.04453,-11.2099l0.27119,-3.46673l15.37372,-14.12091l2.52939,0.02635l39.46359,39.9719z" fill="#ff5252" stroke="#ffffff" stroke-linecap="round"/></g></g></svg>