<svg version="1.1" xmlns="http://www.w3.org/2000/svg" xmlns:xlink="http://www.w3.org/1999/xlink" width="94.70277" height="128.17056" viewBox="0,0,94.70277,128.17056"><g transform="translate(-175.62722,-120.52441)"><g stroke-miterlimit="10"><path d="M224.99063,219.69938c-1.25256,-7.75485 4.01859,-15.05683 11.77345,-16.30939c7.75485,-1.25256 15.05682,4.01859 16.30938,11.77346c1.25256,7.75485 -4.01859,15.05683 -11.77345,16.30938c-7.75485,1.25256 -15.05683,-4.01859 -16.30938,-11.77345z" fill="#d5d5d5" fill-rule="nonzero" stroke="#001026" stroke-width="1.2" stroke-linecap="butt" stroke-linejoin="miter"/><path d="M195.1755,232.30286c-1.31101,-8.11676 4.20612,-15.75947 12.32288,-17.07049c8.11676,-1.31101 15.75947,4.20613 17.07049,12.32288c1.31101,8.11676 -4.20613,15.75948 -12.32288,17.07049c-8.11676,1.31101 -15.75947,-4.20613 -17.07048,-12.32289z" fill="#d5d5d5" fill-rule="nonzero" stroke="#001026" stroke-width="1.2" stroke-linecap="butt" stroke-linejoin="miter"/><path d="M246.45059,211.97368c0,0 3.92379,-11.47848 6.05471,-17.71219c2.38295,-6.97098 -10.11089,-24.21524 -10.11089,-24.21524l10.32377,-3.28227c0,0 11.97441,20.34905 10.26342,27.14725c-1.95454,7.76594 -6.28101,24.95604 -6.28101,24.95604z" fill="#2b2b2b" fill-rule="nonzero" stroke="#001026" stroke-width="1.2" stroke-linecap="butt" stroke-linejoin="miter"/><path d="M193.68279,218.7793l-1.53605,-4.56504c0,0 43.8992,-7.54469 56.56887,-8.62463c6.07384,-0.51772 15.55629,2.47688 15.55629,2.47688l4.30275,10.65149c0,0 -27.84876,9.86183 -39.88779,10.44897c-11.43686,0.55777 -35.00405,-10.38766 -35.00405,-10.38766z" fill="#2b2b2b" fill-rule="nonzero" stroke="#001026" stroke-width="1.2" stroke-linecap="butt" stroke-linejoin="miter"/><path d="M188.32839,212.69377l-4.14284,-67.15173c0,0 8.23901,-20.82032 15.35876,-21.36399c10.57344,-0.8074 39.41384,-3.00969 39.41384,-3.00969l6.65496,87.15109z" fill="#2b2b2b" fill-rule="nonzero" stroke="#001026" stroke-width="1.2" stroke-linecap="butt" stroke-linejoin="miter"/><path d="M261.21857,216.67696c2.7258,-1.10455 8.10863,-3.02163 8.50252,2.72161c0.43975,5.54856 -15.55427,11.95263 -18.19291,7.01628c-0.92717,-2.17034 -0.09832,-11.52863 -0.58464,-13.38968c-0.79062,-3.20839 -11.68306,4.1385 -17.75878,2.71397c-2.80536,-0.65776 -3.27921,-10.22556 -3.59558,-10.94911c-1.00157,-2.2906 18.37038,-2.4079 27.23977,-4.17686c0.21414,4.47122 3.95443,16.16679 4.38963,16.0638z" fill="#ffab19" fill-rule="evenodd" stroke="#001026" stroke-width="1.2" stroke-linecap="round" stroke-linejoin="round"/><path d="M258.21432,191.37426c-1.9528,3.23791 -20.10668,11.14953 -26.65695,8.45634c-2.30313,-0.94696 -13.52865,-23.16073 -6.05714,-24.58256c7.4715,-1.42182 8.96897,6.148 10.72036,10.55515c1.42194,3.73489 15.28993,-0.67725 16.28385,-0.80208c2.07824,-0.35713 3.07059,0.81751 4.19527,2.49423c0.76098,1.13449 2.30734,2.4416 1.51463,3.87893z" fill="#ffab19" fill-rule="evenodd" stroke="#001026" stroke-width="1.2" stroke-linecap="round" stroke-linejoin="round"/><g fill-rule="evenodd"><path d="M222.63378,207.06042c0.96851,0.6439 3.01864,2.0767 -0.62126,6.08115c-3.6399,4.00445 -12.65585,3.80626 -13.68822,3.67855c-4.01641,-0.36584 -8.92018,-0.97247 -14.11663,-3.4496c-15.10512,-7.10946 -13.14289,-24.03053 -7.77483,-26.11791c5.23901,-2.10334 6.13972,8.6208 12.45505,15.8221c2.74592,3.22216 6.36054,4.71749 9.37785,5.74585c4.2918,1.31705 13.28646,-2.54906 14.36805,-1.76015z" fill="#ffab19" stroke="#001026" stroke-width="1.2" stroke-linecap="round" stroke-linejoin="round"/><path d="M191.92331,192.6486c1.63371,3.73968 5.02753,9.13832 5.02753,9.13832c0,0 -4.63105,-1.75208 -7.61241,0.10646c-2.40132,1.40622 -2.23634,4.30911 -2.09,5.24436c-1.47007,-1.88513 -3.24747,-4.4634 -3.9792,-9.13966c-0.73173,-4.67627 1.22923,-9.93659 3.90594,-10.39159c2.64478,-0.19691 3.05057,1.81861 4.74813,5.04211z" fill="#ffffff" stroke="none" stroke-width="1" stroke-linecap="butt" stroke-linejoin="miter"/></g><g fill-rule="evenodd"><path d="M228.84036,215.80375c-16.24408,2.77764 -14.4685,-8.32012 -17.59723,-15.62585c-2.51306,-6.46704 -0.71641,-7.06327 5.55731,-13.04811c3.35448,-3.54689 5.33426,-5.62824 7.03275,-8.2891c2.60346,-3.94814 7.45987,0.90009 9.50591,4.11274c0,0 2.97221,4.83428 4.02042,7.99675c0.73613,2.27765 3.17633,12.47124 0.51164,18.84766c-1.85012,4.42722 -9.0308,6.00592 -9.0308,6.00592z" fill="#ffab19" stroke="#001026" stroke-width="1.2" stroke-linecap="round" stroke-linejoin="round"/><path d="M238.45539,200.65762c0,0 -2.57157,0.71883 -5.55976,1.29554c-3.65167,0.78567 -6.96896,1.83047 -8.77879,-3.18769c-1.19415,-4.17946 -3.36225,-8.93291 3.57222,-11.69401c6.54702,-2.6998 7.77036,1.68305 7.77036,1.68305c3.20571,6.46147 2.99597,11.90309 2.99597,11.90309z" fill="#ffffff" stroke="none" stroke-width="1" stroke-linecap="butt" stroke-linejoin="miter"/></g><path d="M242.30683,174.33212c-0.74016,-4.5825 2.37467,-8.89738 6.95717,-9.63754c4.5825,-0.74016 8.89738,2.37467 9.63754,6.95717c0.74016,4.5825 -2.37467,8.89738 -6.95717,9.63754c-4.5825,0.74016 -8.89738,-2.37467 -9.63754,-6.95717z" fill="#ffab19" fill-rule="nonzero" stroke="#001026" stroke-width="1.2" stroke-linecap="butt" stroke-linejoin="miter"/><path d="M229.69987,129.2637c0.3338,-0.13629 0.8039,0.06123 0.82228,0.47312l0.41838,11.00341c0,0 5.33653,5.87975 6.54172,9.49189c2.04132,6.02686 1.2437,10.45673 1.2437,10.45673c0,0 6.54,3.47109 6.58153,9.29589c0.04153,5.8248 -6.41995,15.53301 -25.58024,15.41724c-19.16029,-0.11576 -32.94315,-8.11906 -37.63218,-20.70409c-4.68903,-12.58503 8.99368,-23.68383 8.24647,-23.01925l1.50462,-17.95984c-0.01839,-0.4119 0.53132,-0.60638 0.88351,-0.33077l10.2856,10.15019c0,0 4.74832,-0.77036 9.3941,-0.03093c2.78379,0.36128 5.09596,1.03495 7.27034,1.88471z" fill="#ffab19" fill-rule="evenodd" stroke="#001026" stroke-width="1.2" stroke-linecap="butt" stroke-linejoin="miter"/><path d="M238.35235,161.0211c0,0 6.4037,3.13728 6.44523,8.96208c0.04153,5.8248 -6.71244,14.9634 -25.65682,14.78944c-24.71099,0.08348 -33.11491,-16.31725 -24.43925,-25.3717c8.69556,-9.15244 18.15433,2.05433 26.5057,3.13817c7.15547,0.94301 9.19334,-5.07173 17.14514,-1.518z" fill="#ffffff" fill-rule="evenodd" stroke="none" stroke-width="1" stroke-linecap="butt" stroke-linejoin="miter"/><path d="M195.55326,146.53612c1.32264,-6.5125 7.67426,-10.71972 14.18675,-9.39708c6.5125,1.32264 10.71971,7.67427 9.39708,14.18676c-1.32264,6.5125 -7.67425,10.71972 -14.18676,9.39708c-6.5125,-1.32264 -10.7197,-7.67426 -9.39706,-14.18676z" fill="#ffffff" fill-rule="nonzero" stroke="#001026" stroke-width="1.2" stroke-linecap="butt" stroke-linejoin="miter"/><path d="M255.97114,165.88984c-5.36228,2.78854 -12.43814,1.45354 -12.43814,1.45354" fill="none" fill-rule="evenodd" stroke="#001026" stroke-width="1.2" stroke-linecap="round" stroke-linejoin="round"/><path d="M252.46806,176.60697c-6.27348,-0.76388 -9.7173,-3.40208 -9.7173,-3.40208" fill="none" fill-rule="evenodd" stroke="#001026" stroke-width="1.2" stroke-linecap="round" stroke-linejoin="round"/><path d="M221.33269,159.91148c2.05798,0.41796 4.17417,1.05182 4.13285,1.75772c-0.18064,1.39189 -2.20791,3.83734 -3.79581,3.61689c-1.80379,-0.16225 -5.4222,-3.44816 -5.10375,-5.01615c0.14083,-1.19589 2.80672,-0.75652 4.76671,-0.35846z" fill="#001026" fill-rule="evenodd" stroke="#001026" stroke-width="1.2" stroke-linecap="round" stroke-linejoin="round"/><path d="M177.53152,149.4852c0,0 7.87067,4.45563 10.68366,8.19021" fill="none" fill-rule="evenodd" stroke="#001026" stroke-width="1.2" stroke-linecap="round" stroke-linejoin="round"/><path d="M187.81256,161.16517c-4.55232,0.81016 -11.58534,-1.74063 -11.58534,-1.74063" fill="none" fill-rule="evenodd" stroke="#001026" stroke-width="1.2" stroke-linecap="round" stroke-linejoin="round"/><path d="M219.09859,151.56799c-0.38883,1.91456 -3.73853,6.81925 -5.47904,6.46577c-1.74051,-0.35348 -1.17562,-5.82375 -0.7868,-7.73831c0.38883,-1.91456 2.09937,-3.19823 3.83987,-2.84475c1.70516,0.52753 2.81479,2.20272 2.42596,4.11729" fill="#001026" fill-rule="evenodd" stroke="none" stroke-width="1" stroke-linecap="butt" stroke-linejoin="miter"/><path d="M224.66583,150.98153c1.21582,-5.98657 7.48086,-9.76741 13.99335,-8.44478c6.5125,1.32264 10.80631,7.24791 9.59049,13.23446c-1.21582,5.98657 -7.48086,9.76742 -13.99336,8.44478c-6.5125,-1.32264 -10.80628,-7.2479 -9.59047,-13.23446z" fill="#ffffff" fill-rule="nonzero" stroke="#001026" stroke-width="1.2" stroke-linecap="butt" stroke-linejoin="miter"/><path d="M248.14654,156.33164c-0.35743,1.75994 -3.63736,6.32114 -5.37786,5.96766c-1.74051,-0.35348 -1.24539,-5.48025 -0.88796,-7.2402c0.35743,-1.75994 2.04228,-2.91711 3.78279,-2.56363c1.70802,0.51348 2.84047,2.07622 2.48304,3.83616" fill="#001026" fill-rule="evenodd" stroke="none" stroke-width="1" stroke-linecap="butt" stroke-linejoin="miter"/><path d="M228.59265,221.10052c0.44398,8.79479 -2.10927,16.07144 -5.70284,16.25285c-3.59357,0.18141 -6.86664,-6.80112 -7.31062,-15.59591c-0.44398,-8.79479 2.10926,-16.07144 5.70284,-16.25285c3.59357,-0.18141 6.86665,6.80112 7.31063,15.59591z" fill="#ffab19" fill-rule="nonzero" stroke="#001026" stroke-width="1.2" stroke-linecap="butt" stroke-linejoin="miter"/><g stroke="#001026" stroke-width="1.2" stroke-linecap="round"><g fill="#ffffff" fill-rule="evenodd" stroke-linejoin="round"><path d="M191.60447,158.06683c0.17456,-0.49918 0.80465,-0.699 1.2602,-0.39965c2.06562,1.7027 8.1063,6.05592 15.4194,9.17344c6.60799,2.73088 10.73232,3.75295 12.73516,4.03314c0.66761,0.0934 0.9486,0.89193 0.48081,1.42863c-2.3014,2.9767 -19.46778,15.7749 -32.30937,10.44405c-10.9199,-5.21909 -0.09889,-18.69559 2.4138,-24.6796z"/></g><path d="M232.5524,172.40868c-1.64366,-0.17329 -4.13329,-0.39483 -5.86349,-0.72074c-2.48926,-0.46888 -6.57856,-1.04595 -6.57856,-1.04595" fill="none" fill-rule="nonzero" stroke-linejoin="miter"/></g><path d="M194.15796,207.67791c0.46793,-4.20333 17.95384,-22.99079 24.03185,-21.76737c6.6156,6.08794 -3.1519,10.26853 -6.31716,13.42597c-1.89452,1.92311 -3.76593,3.9895 -5.17993,5.24696c-0.0956,0.23916 8.92515,10.26682 9.79882,17.06552c0.54257,4.22215 -6.65972,6.42678 -7.16787,6.61221c-6.53978,2.38644 -14.5118,-19.18859 -15.16572,-20.58328z" fill="#ffab19" fill-rule="evenodd" stroke="#001026" stroke-width="1.2" stroke-linecap="round" stroke-linejoin="round"/><g fill-rule="nonzero" stroke="#001026" stroke-width="1.2" stroke-linecap="round" stroke-linejoin="miter"><path d="M255.90882,191.39307l-3.76052,0.58877l-1.27809,-4.26997l-1.46019,-1.8892l1.92383,-4.33364z" fill="#ffab19"/><path d="M262.07581,176.12642l5.31232,12.36749l-4.69896,4.62747l-6.27312,1.1619l-2.24782,-2.7271l0.03351,-1.08369l-1.90261,-3.36727l-0.27819,-1.52722l-2.00093,-3.69572l3.3695,-5.48214z" fill="#ffab19"/><path d="M253.56492,184.75797l1.28256,-2.88909" fill="none"/><path d="M255.36809,189.58655l2.00538,-3.46334" fill="none"/></g><path d="M243.49032,239.63702c0.20714,4.10327 -8.74501,7.89003 -19.99518,8.45796c-11.25018,0.56793 -20.53817,-2.29802 -20.74532,-6.4013c-0.20714,-4.10327 8.74501,-7.89003 19.99519,-8.45796c11.25018,-0.56793 20.53817,2.29803 20.74531,6.4013z" fill="#ffab19" fill-rule="nonzero" stroke="#001026" stroke-width="1.2" stroke-linecap="butt" stroke-linejoin="miter"/><path d="M246.60706,137.74663c0,0 -7.66069,-6.08381 -12.5702,-4.21055c-4.51612,1.72316 -7.90729,8.33472 -10.95433,7.35437c-2.89696,-0.93206 -6.36188,-9.05318 -10.48749,-11.44534c-5.72265,-3.31817 -11.86019,-0.96559 -11.86019,-0.96559" fill="none" fill-rule="nonzero" stroke="#001026" stroke-width="2.5" stroke-linecap="round" stroke-linejoin="miter"/></g></g></svg>