<svg version="1.1" xmlns="http://www.w3.org/2000/svg" xmlns:xlink="http://www.w3.org/1999/xlink" width="128.24242" height="148.2774" viewBox="0,0,128.24242,148.2774"><g transform="translate(-183.47793,-94.77971)"><g stroke-miterlimit="10"><path d="M237.12727,219.70396c-0.44187,1.96295 -0.92013,3.57845 -0.94629,3.74248c-0.73281,4.59361 -0.03749,13.11148 -3.99343,16.2776c-3.06951,2.45666 -6.07493,-1.45578 -4.53603,-4.70952c0.00584,-0.05461 0.01318,-0.10954 0.02207,-0.16472c0.06677,-0.4148 0.21292,-0.79655 0.4154,-1.12387c0.45987,-2.43016 1.1075,-4.93011 1.41424,-7.38391c0.49935,-3.9946 -0.6552,-10.40828 1.75987,-13.86245c1.61714,-2.31292 5.32146,-2.80838 6.26225,-0.26948" fill="#be1e2d" stroke="#000000" stroke-width="1.2" stroke-linecap="butt"/><path d="M248.52184,212.44316c4.5774,4.0851 1.54246,11.53073 0.23918,23.92534c-0.34485,3.27966 -15.64147,3.11309 -17.57448,-2.26128c-1.56886,-4.36192 0.55268,-13.63852 2.67168,-21.39237c0.82689,-3.02577 12.74887,-1.9805 14.66362,-0.27169z" fill="#be1e2d" stroke="#000000" stroke-width="1.2" stroke-linecap="butt"/><path d="M247.94351,213.67825c1.46506,-2.40538 5.90281,-1.50617 7.5742,0.95863c2.4961,3.68099 0.27986,9.89246 0.37989,13.89581c0.06145,2.45918 0.5312,5.00165 0.78169,7.45439c0.20448,0.34589 0.33363,0.73936 0.36214,1.15672c0.00379,0.05552 0.00575,0.11062 0.00592,0.16524c1.457,3.38603 -2.69071,6.92073 -6.10844,4.1533c-4.40472,-3.56663 -2.47956,-11.90858 -2.78724,-16.52979c-0.01098,-0.16501 -0.38714,-1.8146 -0.67502,-3.80357" fill="#be1e2d" stroke="#000000" stroke-width="1.2" stroke-linecap="butt"/><g stroke-linecap="round"><g stroke="#000000" stroke-width="1.2"><path d="M206.32272,185.01342c-15.24196,-4.98354 -22.10358,-37.04037 -22.10358,-37.04037c10.15401,-0.05158 13.72348,4.28672 14.20217,4.72077c0.47869,0.43492 9.10413,9.89553 9.10413,9.89553c-2.74678,13.17949 -1.20272,22.42407 -1.20272,22.42407zM208.31627,159.81533c0,0 -0.64117,1.96532 -0.84885,3.05276M206.32272,185.01342c0.15471,0.93016 0.75382,2.42144 0.75382,2.42144" fill="#be1e2d"/><path d="M200.33644,180.92331c-2.67073,-2.37457 -5.83182,-5.95549 -8.58756,-11.15935c-2.45691,-4.63999 -4.70388,-11.66321 -6.08748,-16.47785l0.07216,-0.05809c6.32007,-0.43721 9.4189,4.14406 9.4189,4.14406l0.1824,0.35777c1.1817,2.62159 2.46873,5.26571 3.56293,6.98837c0.64577,1.0185 1.35638,1.92588 2.02901,2.69142c0,0 1.02032,4.40739 0.9295,7.40181c-0.12826,4.42997 -1.63257,6.02833 -1.63257,6.02833z" fill="#929497"/></g><path d="M265.75306,204.55938l-11.7418,7.14924l-24.13317,-2.47027l-10.74822,3.28001l-14.80693,-6.3247l-5.61705,-8.99409l-4.50345,-10.51172l-1.89883,-12.7748l2.02286,-12.14365l4.12368,-8.95066l5.88288,-8.54212l7.53277,-7.46421l8.2996,-6.49478l9.0724,-5.8128l6.26041,-3.2071l2.84783,-2.50215l3.29943,-4.2729l2.37081,-4.24347l2.26176,-5.84095l0.63888,-8.16334l3.84715,6.16272l3.81312,7.80088l0.6918,-3.86328l0.71783,2.24479l3.06128,7.19425l4.74566,7.06937l3.29144,3.47335l4.78586,5.13335l5.83413,6.19111l5.05444,6.92482l3.97834,7.20736l3.19866,7.94106l2.13802,7.47901l-0.0049,7.59732l-0.61627,7.58857l-1.96713,6.37752l-3.52341,7.69599l-3.61129,4.56638l-5.95956,6.01929z" fill="#be1e2d" stroke="#8c8c8c" stroke-width="0"/><path d="M276.28112,207.19011l-10.58964,-2.56089l-11.74698,7.30858l-24.02958,-2.72695l-10.75033,3.23588l-14.16292,-5.50819c0,0 -42.2922,-48.4304 30.11664,-85.1325c0,0 13.19436,-9.85406 11.4379,-26.34673c-0.14285,-1.34141 7.84051,14.71656 7.84051,14.71656c0,0 0.61099,-5.28039 0.74708,-4.5929c1.50817,7.61908 9.0994,18.06818 9.0994,18.06818c50.36232,44.51536 17.75722,78.51476 17.75722,78.51476z" fill="none" stroke="#000000" stroke-width="1.2"/><g stroke="#000000" stroke-width="1.2"><path d="M285.58967,163.81216c0,0 9.5107,-10.00642 10.03544,-10.47611c0.5247,-0.46886 4.47501,-5.01203 15.28884,-6.15831c0,0 -8.40415,31.27353 -24.80948,37.80396c0,0 1.96057,-8.96752 -0.51481,-21.16954zM285.64196,164.07024c-0.18403,-1.00902 -0.79983,-2.80132 -0.79983,-2.80132M285.2188,187.37172c0,0 0.6891,-1.4878 0.88567,-2.39001" fill="#be1e2d"/><path d="M292.74347,180.29727c0,0 -1.54771,-1.34195 -1.53294,-5.53696c0.00558,-2.83512 1.243,-7.14387 1.243,-7.14387c0.74262,-0.80671 1.53054,-1.75272 2.25318,-2.79668c1.22438,-1.76597 2.68558,-4.43037 4.03386,-7.06095l0.20652,-0.36147c0,0 3.45727,-4.71865 10.17419,-5.04713l0.07489,0.04671c-1.63828,4.73855 -4.27163,11.67769 -7.04717,16.37661c-3.11313,5.26997 -6.60255,9.04528 -9.52843,11.61638z" fill="#929497"/></g></g><g><path d="M276.93701,184.71276c-0.36668,15.81324 -16.89796,28.44288 -36.92366,28.20908c-20.0257,-0.23379 -35.96251,-13.24249 -35.59583,-29.05574c0.36668,-15.81324 16.89795,-28.44288 36.92366,-28.20907c20.02571,0.23379 35.96251,13.24249 35.59583,29.05574z" fill="#e6e7e8" stroke="#000000" stroke-width="1.2" stroke-linecap="butt"/><path d="M216.6397,209.27724l1.71851,2.92472l2.39598,2.08934l-1.79452,0.35384l-4.01557,-1.17126l-3.51738,-2.38353l-1.34904,-2.63931l-4.26062,-2.76699l-3.13707,-2.56649l-0.14677,2.37454c-3.93085,-9.98652 -11.03211,-20.63647 -7.06666,-33.56516c28.78597,-26.93255 72.66336,-29.17995 84.47682,4.3863c0.15798,0.44885 0.30287,0.89532 0.43525,1.33952c0.05613,0.65165 0.07938,1.25736 0.05778,1.80177c-0.24436,6.15825 -1.27264,12.15177 -2.02702,18.30627c-0.04971,0.40549 -0.16768,0.85104 -0.32769,1.31667l-0.95691,1.23572l-0.11233,-1.45761l-3.01813,4.71541l-4.90254,3.04227l-5.70896,2.01571l1.54204,-3.45862l1.36608,-5.68349l-0.00047,-4.77945l-3.05706,1.00021l0.51155,-1.76076l1.16487,-4.1383l0.62653,-3.39552l-0.55876,-3.90011l-1.45272,-4.04142l-4.47294,-4.65135l-7.07182,-4.52819l-8.57173,-2.13888l1.81474,1.46075l2.47792,3.16217l0.83771,3.88076l-14.02901,-4.93807l-15.321,-5.15904l-0.79793,2.90326l-2.91401,5.93676l-2.7578,5.5017l-0.12491,5.3868l2.36191,5.27023l3.71044,3.82966l-3.08128,0.54655l-2.62953,-0.0307l-0.08103,3.49415l1.51915,3.80408l1.82145,3.37073l2.12375,2.93737z" fill="#be1e2d" stroke="#8c8c8c" stroke-width="0" stroke-linecap="butt"/><path d="M218.63304,165.43085c-1.72155,7.86889 -6.48537,11.71606 -6.57507,15.90757c-0.18464,8.62756 6.38016,12.64425 6.38016,12.64425c0,0 -5.24993,2.41173 -10.74023,-1.59328" fill="none" stroke="#000000" stroke-width="1.2" stroke-linecap="round"/><path d="M199.92753,183.08027c-0.54782,-1.63864 0.27207,-3.97177 -0.1619,-6.10665" fill="none" stroke="#000000" stroke-width="1.2" stroke-linecap="round"/><path d="M212.7787,162.72434c14.05536,6.2994 35.80229,13.10128 35.80229,13.10128c0,0 -0.22222,-6.02222 -5.38433,-8.71133c0,0 31.59613,5.15725 19.46505,28.82263c0,0 6.02268,-2.37071 8.67726,-5.84604" fill="none" stroke="#000000" stroke-width="1.2" stroke-linecap="round"/><path d="M274.01066,181.28554c0.06567,1.80091 0.12363,2.63926 -0.36172,4.06778" fill="none" stroke="#000000" stroke-width="1.2" stroke-linecap="round"/><path d="M276.08045,199.46639c-2.31291,6.57643 -13.14525,9.74756 -13.14525,9.74756c0,0 4.61301,-9.23618 3.29024,-14.51818" fill="none" stroke="#000000" stroke-width="1.2" stroke-linecap="round"/><path d="M199.92058,182.99716c-4.71536,7.31034 2.74922,22.18903 2.74922,22.18903c0,0 -13.19217,-22.3096 -6.63717,-34.24714" fill="none" stroke="#000000" stroke-width="1.2" stroke-linecap="round"/><path d="M279.02396,197.51051c-1.51911,2.28596 -2.66811,3.51095 -2.66811,3.51095c0,0 1.64169,-9.59044 -2.75367,-15.55068" fill="none" stroke="#000000" stroke-width="1.2" stroke-linecap="round"/><path d="M212.81598,194.69296c-1.54837,6.65024 5.44324,13.71986 5.44324,13.71986c0,0 -10.11309,1.77302 -15.90099,-5.9275" fill="none" stroke="#000000" stroke-width="1.2" stroke-linecap="round"/><path d="M216.06145,208.6634c0.88002,3.30101 4.81323,5.63156 4.81323,5.63156c0,0 -8.05731,1.37862 -11.5586,-6.48826" fill="none" stroke="#000000" stroke-width="1.2" stroke-linecap="round"/></g><path d="M234.93384,236.53038c-1.17371,-0.32428 -3.38196,-2.3219 -3.66244,-3.92318c-0.58426,-3.33557 2.21121,-11.95409 6.72064,-10.78125c3.2268,0.83925 6.50867,6.24632 7.33866,10.13197c0.54613,2.55673 0.17036,5.6803 -2.48112,5.91852c-2.60392,0.23395 -5.60538,-0.70772 -7.91574,-1.34605z" fill="#e6e7e8" stroke="#000000" stroke-width="1.2" stroke-linecap="butt"/><path d="M253.40748,188.00859l-0.04071,-0.02035l0.23325,-0.4665c0.08017,-0.16913 0.25246,-0.28608 0.45206,-0.28608c0.27614,0 0.5,0.22386 0.5,0.5v0.59524c-0.00267,0.70557 -0.18159,1.28741 -0.37065,1.90265c0.05211,-0.01046 0.10404,-0.02101 0.1558,-0.03165c0.0198,-0.01649 0.03274,-0.02513 0.03274,-0.02513l0.3345,-0.22207c0.6762,-0.50477 2.3926,-3.21076 3.25777,-2.78725c1.09559,0.53629 0.27797,2.62646 -0.28178,3.82033c-0.03661,0.50559 -0.42719,0.86618 -0.42719,0.86618l-0.6911,0.41386c-4.49665,1.03156 -10.04135,1.86335 -12.61118,-2.73501c0,0 -0.59982,-1.09668 0.49686,-1.69651c1.09668,-0.59983 1.69651,0.49685 1.69651,0.49685c0.99931,1.88029 2.94152,2.36252 5.01948,2.29283c0.80049,-0.84034 1.47352,-1.77464 2.24366,-2.6174zM257.38167,188.26392c-0.01036,0.01374 -0.02122,0.0281 -0.03255,0.04303c0.00656,0.00072 0.01315,0.00159 0.01978,0.00261c0.00408,-0.01576 0.00833,-0.031 0.01277,-0.04564z" fill="#000000" stroke="none" stroke-width="0.5" stroke-linecap="butt"/><path d="M226.36841,191.74654c1.64089,0.02726 3.17458,-0.49462 3.9637,-2.39532c0,0 0.47366,-1.10893 1.33967,-0.53149c0.86601,0.57744 0.39234,1.68636 0.39234,1.68636c-2.0293,4.65084 -6.40775,3.93226 -9.95859,2.99252l-0.54574,-0.39976c0,0 -0.30843,-0.35261 -0.33734,-0.85745c-0.44202,-1.18243 -1.08766,-3.25591 -0.22251,-3.81457c0.6832,-0.44117 2.03858,2.22975 2.57254,2.72072l0.26414,0.21524c0,0 0.01022,0.00837 0.02585,0.02446c0.04087,0.00958 0.08188,0.01907 0.12303,0.02847c-0.1493,-0.61139 -0.29058,-1.18957 -0.29269,-1.89508v-0.59524c0,-0.27614 0.17677,-0.50457 0.39483,-0.51021c0.15761,-0.00408 0.29366,0.10936 0.35697,0.27685l0.18419,0.46174l-0.03214,0.02119c0.60815,0.82703 1.13962,1.74759 1.77174,2.57158zM221.46848,189.55682c0.00523,-0.00116 0.01044,-0.00216 0.01562,-0.00302c-0.00895,-0.0147 -0.01752,-0.02883 -0.0257,-0.04236c0.0035,0.01455 0.00687,0.02971 0.01009,0.04538z" fill="#000000" stroke="none" stroke-width="0.5" stroke-linecap="butt"/><g stroke="#000000"><path d="M227.31663,223.46679c-3.74042,-1.38571 -7.61067,-4.8605 -5.55221,-8.66076c0.62899,-1.13045 1.8486,-3.54465 2.89642,-4.14555c0.86874,-0.49821 1.61291,0.46265 2.3642,0.22695c1.1288,-0.35413 2.18549,-0.58461 3.00782,0.99879c1.35631,1.24862 3.75356,-1.94245 4.78178,-2.34551c1.4965,-0.5866 2.39426,1.12145 2.11579,2.6536c-0.11396,0.62703 -0.28902,1.09715 -0.57978,1.61479c-0.89957,0.86971 -1.90589,1.74541 -3.09865,2.08346c-0.11316,0.03207 -1.06536,0.128 -1.51959,0.14558c0.27387,0.32579 0.60821,1.3914 0.61157,1.40618c0.23387,1.02901 0.4912,3.29261 0.34984,4.18771c-0.33133,0.94772 -1.00734,0.90102 -1.23493,0.99371c-0.22759,0.0927 -1.48577,0.11431 -1.48577,0.11431c0,0 -1.29113,1.23255 -2.65649,0.72673z" fill="#be1e2d" stroke-width="1.2" stroke-linecap="butt"/><path d="M226.91469,212.57017c1.70338,-0.50551 3.49363,-0.27607 3.49363,-0.27607" fill="none" stroke-width="1" stroke-linecap="round"/></g><g stroke="#000000"><path d="M243.71918,222.58665c0,0 -1.46019,-0.03842 -1.73228,-0.13337c-0.2721,-0.09495 -1.0514,-0.05777 -1.52044,-1.00174c-0.24414,-0.88925 -0.14894,-3.12973 0.02981,-4.14665c0.00256,-0.01461 0.29449,-1.06646 0.58269,-1.38574c-0.52805,-0.02355 -1.64026,-0.1315 -1.77429,-0.16482c-1.41276,-0.35121 -2.65765,-1.23289 -3.77829,-2.10718c-0.38343,-0.51707 -0.6285,-0.98547 -0.81685,-1.6086c-0.46019,-1.52262 0.42713,-3.20373 2.21421,-2.60204c1.22788,0.41342 4.29259,3.60915 5.75256,2.38966c0.81106,-1.55856 2.05645,-1.31583 3.39652,-0.94953c0.89189,0.24378 1.66821,-0.69868 2.71979,-0.19309c1.26835,0.60983 2.89845,3.01952 3.72887,4.14864c2.72669,3.79506 -1.44729,7.18748 -5.65819,8.5107c-1.5371,0.48301 -3.14412,-0.75626 -3.14412,-0.75626z" fill="#be1e2d" stroke-width="1.2" stroke-linecap="butt"/><path d="M242.27773,212.22548c0,0 2.05435,-0.2033 4.07394,0.3208" fill="none" stroke-width="1" stroke-linecap="round"/></g><path d="M275.75086,151.34504c-2.3944,5.3093 4.11869,12.82733 -1.70514,12.88123c-5.1177,0.04736 0.63357,-5.31758 -2.30807,-9.45378" fill="none" stroke="#000000" stroke-width="1.2" stroke-linecap="round"/><path d="M275.59705,160.35999c0.12418,1.17499 -0.14706,2.17845 -0.60584,2.24127c-0.45877,0.06283 -0.93134,-0.83877 -1.05552,-2.01377c-0.12418,-1.17499 0.14706,-2.17845 0.60583,-2.24127c0.45877,-0.06283 0.93135,0.83877 1.05553,2.01377z" fill="#ffffff" stroke="none" stroke-width="0" stroke-linecap="butt"/><path d="M227.80246,204.64167c1.27052,-1.89304 4.45053,-0.10792 10.60968,-0.83837c3.87457,-0.45951 8.85879,-2.95087 13.43614,-1.19274" fill="none" stroke="#000000" stroke-width="1.2" stroke-linecap="round"/><path d="M265.00446,185.59279c0,0 -23.57725,-1.22822 -22.38095,-10.11905" fill="none" stroke="#000000" stroke-width="1.2" stroke-linecap="round"/></g></g></svg>