<svg version="1.1" xmlns="http://www.w3.org/2000/svg" xmlns:xlink="http://www.w3.org/1999/xlink" width="150.15416" height="232.8372" viewBox="0,0,150.15416,232.8372"><defs><radialGradient cx="225.35146" cy="141.08587" r="38.25582" gradientUnits="userSpaceOnUse" id="color-1"><stop offset="0" stop-color="#180036"/><stop offset="1" stop-color="#1d1d1d"/></radialGradient></defs><g transform="translate(-165.94542,-78.83828)"><g stroke-miterlimit="10"><g stroke="#000000"><g stroke-width="0" stroke-linecap="round"><path d="M253.90975,179.16033l2.39641,10.39934l-3.98126,-0.77071l1.47494,7.37427l-12.77228,16.67273l-11.89469,-16.98252l1.1995,-7.63799l-4.69984,1.21123l4.61861,-10.8833" fill="#0063eb"/><path d="M250.17914,177.78435l1.64623,7.1439l-2.73496,-0.52945l0.91939,8.66458l-8.774,11.45345l-8.17114,-11.66625l0.91786,-8.84574l-3.22858,0.83207l3.17277,-7.47636" fill="#629beb"/></g><path d="M227.20871,180.13128l1.67075,-51.28533c0,0 0.44479,-16.47268 14.19898,-15.99084c14.42429,0.50533 14.0001,16.72616 14.0001,16.72616l-1.33753,51.29401c0,0 -3.14988,2.75853 -14.61526,2.61992c-11.79253,-0.14257 -13.91703,-3.36391 -13.91703,-3.36391z" fill="#5d5d5d" stroke-width="1.2" stroke-linecap="butt"/></g><g stroke="#000000"><g stroke-width="0" stroke-linecap="round"><path d="M210.40626,183.80317l1.90571,10.50034l-3.9407,-0.95672l1.12724,7.43537l-13.54068,16.05492l-11.08456,-17.52203l1.55665,-7.57329l-4.75151,0.98932l5.12428,-10.65455" fill="#0063eb"/><path d="M206.74431,182.25364l1.30914,7.21327l-2.7071,-0.65723l0.51173,8.69818l-9.30186,11.02904l-7.61461,-12.03687l1.332,-8.79292l-3.26409,0.67962l3.52017,-7.31921" fill="#629beb"/></g><path d="M183.68906,183.51993l4.07582,-51.1504c0,0 1.21739,-16.43367 14.93381,-15.30685c14.38469,1.18171 13.19971,17.36478 13.19971,17.36478l-3.74339,51.17472c0,0 -3.27585,2.60767 -14.72212,1.93111c-11.77287,-0.69584 -13.74383,-4.01336 -13.74383,-4.01336z" fill="#5d5d5d" stroke-width="1.2" stroke-linecap="butt"/></g><g stroke="#000000" stroke-width="1.2"><path d="M273.1006,194.83533l-7.51472,2.24018l-8.98695,-10.21205l-9.02855,-7.25259l0.14012,-4.64654l2.70507,-3.65438l12.56687,-0.04852l12.87191,-1.57425l3.85781,6.8015l-1.35452,9.30989z" fill="#707070" stroke-linecap="round"/><path d="M299.70378,202.92523l-30.63637,-12.28721l-0.49724,2.75051l1.78421,-9.7438l4.798,-9.94883l-1.37503,2.95538l31.80666,10.59003" fill="#5d5d5d" stroke-linecap="round"/><path d="M314.86039,199.52998c-1.93885,5.17133 -7.70279,7.79179 -12.87412,5.85294c-5.17133,-1.93885 -7.79179,-7.70279 -5.85294,-12.87412c1.93885,-5.17133 7.70278,-7.7918 12.87412,-5.85294c5.17133,1.93885 7.7918,7.70278 5.85295,12.87412z" fill="#707070" stroke-linecap="butt"/></g><g stroke="#000000" stroke-width="1.2"><path d="M181.83631,113.6414c4.71985,7.02302 6.19268,14.52531 3.28968,16.75682c-2.90301,2.23152 -9.08254,-1.65275 -13.80238,-8.67578c-4.71985,-7.02302 -6.19268,-14.52531 -3.28966,-16.75682c2.90301,-2.23152 9.08253,1.65276 13.80237,8.67578z" fill="#454545" stroke-linecap="butt"/><path d="M197.26516,137.22522l-18.01804,-27.77134l2.96176,5.11946l-6.15368,4.42012l-9.275,-13.09071l4.17067,-16.50905l6.8137,-4.55436l27.20217,43.70723" fill="#5d5d5d" stroke-linecap="round"/></g><g stroke="#000000" stroke-width="1.2"><path d="M265.60469,102.29751c-4.0705,7.4479 -9.83177,11.83152 -12.86815,9.79109c-1.32117,-0.88782 -1.90877,-2.84557 -1.81573,-5.3876c0.12078,-3.30024 1.38875,-7.5853 3.68813,-11.79253c4.07049,-7.4479 9.83178,-11.83152 12.86815,-9.79108c3.03638,2.04043 2.19809,9.73223 -1.87241,17.18013z" fill="#454545" stroke-linecap="butt"/><path d="M247.97165,124.39759l16.35175,-28.80504l-3.15675,4.94993l-2.44205,-2.68769l7.39831,-14.36048l11.88004,-3.98529l6.54895,5.0541l-26.19207,44.17794" fill="#5d5d5d" stroke-linecap="round"/></g><g fill="#5d5d5d" stroke="#000000" stroke-width="1.2" stroke-linecap="round"><path d="M217.18197,243.93468l-7.55441,33.11167l-6.88017,-0.00313l-6.72636,-3.45967l5.44853,-33.30323"/><g><path d="M210.71267,270.81942l5.28182,7.92324l-1.33465,6.63176l0.54295,5.83294l-2.04799,5.39906l-13.26723,2.75087l-6.37895,-5.03089l6.61341,-20.71186"/><path d="M211.61523,285.37185l-0.57405,4.2443l-2.23684,2.61978l-1.19997,10.26389l-4.78753,4.42838l-2.57108,4.04711l-5.98087,-1.71083l-1.33874,-1.9326l1.99613,-3.62377l4.75605,-4.8916l0.71014,-3.5107l-1.75631,0.8068l-6.72339,-2.48431l-1.0147,-2.24068l-1.54708,1.34758l-4.97727,-2.17186l-0.72212,-3.01198l2.25723,-4.85828l1.149,-4.66764l3.9404,-5.47225l6.56893,-4.72358"/></g></g><g stroke="#000000" stroke-width="1.2"><g stroke-linecap="round"><path d="M208.40988,210.86583l-9.28505,-1.51543l-5.32188,-5.72894l5.38187,-11.7983l3.83516,-11.96747l4.2999,-1.4774l4.47258,1.26732l4.193,10.79508l7.02729,11.64768l-4.40163,6.48962z" fill="#707070"/><path d="M201.57675,237.26024l-0.50756,-33.51947l-3.23243,0.42l10.93247,-1.57517l9.82832,1.23657l-2.77242,-0.35517l2.47859,32.91533" fill="#5d5d5d"/></g><path d="M199.98639,240.34785c-0.28948,-5.51525 3.94688,-10.22091 9.46213,-10.51039c5.51525,-0.28948 10.22091,3.94687 10.51038,9.46213c0.28948,5.51525 -3.94687,10.22091 -9.46212,10.51038c-5.51525,0.28948 -10.22091,-3.94687 -10.51038,-9.46212z" fill="#707070" stroke-linecap="butt"/></g><g><g stroke-linecap="butt"><g><path d="M186.69256,150.83109c-1.70553,-25.49917 17.58302,-47.55293 43.08219,-49.25846c25.49917,-1.70553 47.55293,17.58301 49.25846,43.08218c1.70553,25.49917 -17.58301,47.55293 -43.08218,49.25847c-25.49917,1.70553 -47.55293,-17.58301 -49.25846,-43.08218z" fill="#5d5d5d" stroke="#000000" stroke-width="1.2"/><path d="M230.13751,102.19122c0,0 1.48977,-0.08162 2.22975,-0.09543c24.18935,-0.45188 44.71396,18.1811 46.34593,42.58041c1.61818,24.19304 -15.92773,45.241 -39.65415,48.299c-0.9343,0.12043 -2.83085,0.27666 -2.83085,0.27666z" fill="#686868" stroke="#000000" stroke-width="0"/><path d="M192.77238,150.42444c-1.51641,-22.67154 15.63322,-42.27975 38.30476,-43.79614c22.67154,-1.51641 42.27976,15.63322 43.79615,38.30476c1.51641,22.67154 -15.63322,42.27975 -38.30477,43.79614c-22.67154,1.51641 -42.27975,-15.63321 -43.79614,-38.30475z" fill="#707070" stroke="#838383" stroke-width="0"/><path d="M195.6523,150.23181c-1.41002,-21.08099 14.53646,-39.31357 35.61745,-40.7236c21.081,-1.41002 39.31358,14.53646 40.72361,35.61744c1.41002,21.081 -14.53647,39.31359 -35.61746,40.72361c-21.08099,1.41002 -39.31358,-14.53647 -40.7236,-35.61746z" fill="url(#color-1)" stroke="#000000" stroke-width="1.2"/></g><g stroke="#000000"><path d="M197.36484,161.53419c0,0 -3.02522,-6.6549 -3.28936,-11.2683c-0.26414,-4.61342 1.97579,-11.67464 1.97579,-11.67464c0.34558,-0.00689 1.20875,-0.01857 1.68051,0.024c5.58121,0.50351 10.12384,5.00301 10.50964,10.77126c0.40328,6.02937 -3.87929,11.28973 -9.73305,12.21988c-0.34763,0.05523 -1.05884,0.11915 -1.05884,0.11915c0,0 -0.03005,-0.06691 -0.0847,-0.19132z" fill="#707070" stroke-width="0"/><path d="M196.05128,138.59122c0.34558,-0.00689 1.20875,-0.01857 1.68051,0.024c5.5812,0.50351 10.12384,5.00301 10.50964,10.77126c0.40328,6.02937 -3.8793,11.28974 -9.73305,12.21988c-0.34763,0.05523 -1.05884,0.11915 -1.05884,0.11915c0,0 -0.03004,-0.0669 -0.0847,-0.19131" fill="none" stroke-width="1.2"/></g><g stroke="#000000"><path d="M271.74424,156.34553c-0.02236,0.12956 -0.03481,0.19932 -0.03481,0.19932c0,0 -0.47796,0.01562 -0.71422,-0.00057c-3.97882,-0.27248 -7.39886,-5.01764 -7.80214,-11.047c-0.38581,-5.76824 2.1214,-10.73927 5.76042,-11.85949c0.3076,-0.09469 0.88034,-0.17907 1.10991,-0.21064c0,0 2.13938,4.43505 2.6059,11.36819c0.45312,6.73403 -0.92503,11.5502 -0.92503,11.5502z" fill="#707070" stroke-width="0"/><path d="M271.74424,156.34553c-0.02236,0.12956 -0.03481,0.19932 -0.03481,0.19932c0,0 -0.47796,0.01562 -0.71422,-0.00057c-3.97882,-0.27248 -7.39886,-5.01764 -7.80214,-11.047c-0.38581,-5.76824 2.1214,-10.73927 5.76042,-11.85949c0.3076,-0.09469 0.88034,-0.17907 1.10991,-0.21064" fill="none" stroke-width="1.2"/></g><path d="M195.83335,153.29276l-0.41797,-6.24892l4.43029,-1.86556l4.50591,1.26785l0.41797,6.24892l-4.42158,1.99573z" fill="#21cc26" stroke="#17921c" stroke-width="1.2"/><path d="M265.81228,148.61215l-0.41796,-6.24893l2.99068,-1.76927l3.10862,1.36131l0.41797,6.24893l-2.98197,1.89944z" fill="#21cc26" stroke="#17921c" stroke-width="1.2"/></g><g stroke-linecap="round"><path d="M225.28186,120.02985l2.19591,-0.14688l0.26968,-1.1209l1.58291,-0.03695l1.12505,-1.72955l0.58524,-1.55559l0.74982,-2.18696l0.83768,2.21864l1.34535,1.56432l1.39561,1.28524l2.60788,0.85952l1.28109,0.60361l-1.03829,0.96554l-1.23979,0.014l-1.57349,1.20812l-1.07478,1.45046l-0.9054,1.92166l-0.48908,1.96272l-0.92421,-0.42068l-0.35735,-2.25077l-0.75485,0.05049l-0.15123,-1.2306l-1.67012,-1.2669l-1.76145,-0.57147l-1.75229,-0.43424z" fill="#eee796" stroke="#eee796" stroke-width="0.25"/><path d="M225.37969,121.25199l-0.09088,-1.35873l2.26453,-0.15146l-0.06058,-0.90582l1.81163,-0.12117l-0.07574,-1.13227l1.20775,-0.08078l-0.70223,0.04698" fill="none" stroke="#cec344" stroke-width="0.75"/><path d="M230.37066,116.51876l0.06576,0.98301l-0.12118,-1.81162l0.90582,-0.06059l-0.15146,-2.26454l1.35873,-0.09088" fill="none" stroke="#cec344" stroke-width="0.75"/><path d="M234.3639,117.23906l-0.70223,0.04698l1.20775,-0.08078l0.07574,1.13227l1.81163,-0.12117l0.06059,0.90581l2.26453,-0.15146l0.09088,1.35873" fill="none" stroke="#cec344" stroke-width="0.75"/><path d="M231.1245,113.36134l1.35872,-0.09088l0.15146,2.26454l0.90581,-0.06058l0.12117,1.81163l-0.06575,-0.98302" fill="none" stroke="#cec344" stroke-width="0.75"/><path d="M230.10643,123.11401l0.70222,-0.04697l-1.20774,0.08078l-0.07574,-1.13227l-1.81163,0.12117l-0.06058,-0.90582l-2.26453,0.15146l-0.09088,-1.35872" fill="none" stroke="#cec344" stroke-width="0.75"/><path d="M233.34583,126.99174l-1.35873,0.09088l-0.15146,-2.26454l-0.90582,0.06058l-0.12117,-1.81162l0.06575,0.98301" fill="none" stroke="#cec344" stroke-width="0.75"/><path d="M239.09062,119.10109l0.09088,1.35873l-2.26453,0.15146l0.06058,0.90581l-1.81162,0.12118l0.07574,1.13227l-1.20775,0.08079l0.70222,-0.04698" fill="none" stroke="#cec344" stroke-width="0.75"/><path d="M234.09966,123.83432l-0.06576,-0.98302l0.12117,1.81163l-0.90581,0.06058l0.15147,2.26454l-1.35873,0.09088" fill="none" stroke="#cec344" stroke-width="0.75"/></g><g stroke-linecap="round"><path d="M228.97464,175.23983l2.19591,-0.14688l0.26968,-1.1209l1.58291,-0.03696l1.12504,-1.72955l0.58524,-1.55558l0.74982,-2.18697l0.83768,2.21865l1.34535,1.56432l1.39561,1.28524l2.60788,0.85952l1.28109,0.6036l-1.0383,0.96554l-1.23979,0.014l-1.57349,1.20811l-1.07478,1.45048l-0.9054,1.92165l-0.48908,1.96273l-0.92422,-0.42068l-0.35734,-2.25077l-0.75485,0.05049l-0.15123,-1.2306l-1.67012,-1.26689l-1.76145,-0.57148l-1.75229,-0.43423z" fill="#eee796" stroke="#eee796" stroke-width="0.25"/><path d="M229.07246,176.46197l-0.09088,-1.35872l2.26453,-0.15146l-0.06058,-0.90582l1.81163,-0.12117l-0.07574,-1.13226l1.20774,-0.08079l-0.70222,0.04698" fill="none" stroke="#cec344" stroke-width="0.75"/><path d="M234.06344,171.72873l0.06575,0.98301l-0.12117,-1.81163l0.90581,-0.06058l-0.15146,-2.26454l1.35872,-0.09088" fill="none" stroke="#cec344" stroke-width="0.75"/><path d="M238.05667,172.44904l-0.70222,0.04698l1.20774,-0.08078l0.07574,1.13226l1.81163,-0.12118l0.06058,0.90582l2.26453,-0.15146l0.09088,1.35873" fill="none" stroke="#cec344" stroke-width="0.75"/><path d="M234.81726,168.57132l1.35873,-0.09088l0.15146,2.26454l0.90581,-0.06059l0.12118,1.81163l-0.06576,-0.98302" fill="none" stroke="#cec344" stroke-width="0.75"/><path d="M233.79919,178.32398l0.70223,-0.04698l-1.20774,0.08078l-0.07574,-1.13226l-1.81163,0.12117l-0.06059,-0.90581l-2.26453,0.15146l-0.09088,-1.35873" fill="none" stroke="#cec344" stroke-width="0.75"/><path d="M237.0386,182.20171l-1.35872,0.09087l-0.15146,-2.26454l-0.90582,0.06059l-0.12117,-1.81163l0.06575,0.98302" fill="none" stroke="#cec344" stroke-width="0.75"/><path d="M242.78339,174.31106l0.09088,1.35872l-2.26453,0.15146l0.06058,0.90582l-1.81163,0.12117l0.07573,1.13226l-1.20774,0.08079l0.70223,-0.04698" fill="none" stroke="#cec344" stroke-width="0.75"/><path d="M237.79242,179.0443l-0.06575,-0.98302l0.12117,1.81163l-0.90581,0.06058l0.15146,2.26454l-1.35872,0.09088" fill="none" stroke="#cec344" stroke-width="0.75"/></g><g stroke-linecap="round"><path d="M247.57657,121.92498l1.6566,1.44888l0.98329,-0.60192l1.1454,1.09315l2.0185,-0.42745l1.5138,-0.68614l2.07661,-1.01622l-0.97648,2.16114l-0.15483,2.05747l0.07806,1.89564l1.23628,2.45182l0.47906,1.33268l-1.41691,-0.05144l-0.88656,-0.86677l-1.96689,-0.25837l-1.78562,0.26565l-1.99903,0.71859l-1.7337,1.04202l-0.35606,-0.95099l1.33885,-1.8442l-0.56946,-0.49805l0.76323,-0.97711l-0.28512,-2.07676l-0.84145,-1.64964l-0.932,-1.54609z" fill="#eee796" stroke="#eee796" stroke-width="0.25"/><path d="M246.78157,122.85831l0.89651,-1.02502l1.70837,1.49415l0.59767,-0.68335l1.3667,1.19533l0.74707,-0.85419l0.91113,0.79689l-0.52976,-0.46334" fill="none" stroke="#cec344" stroke-width="0.75"/><path d="M253.65763,123.04057l-0.64859,0.74157l1.19533,-1.3667l0.68335,0.59767l1.49416,-1.70836l1.02503,0.89651" fill="none" stroke="#cec344" stroke-width="0.75"/><path d="M255.97193,126.37355l-0.52976,-0.46335l0.91113,0.79689l-0.74708,0.85418l1.3667,1.19533l-0.59767,0.68334l1.70837,1.49416l-0.89651,1.02502" fill="none" stroke="#cec344" stroke-width="0.75"/><path d="M256.42329,121.34097l1.02502,0.89651l-1.49416,1.70838l0.68335,0.59767l-1.19533,1.3667l0.6486,-0.74159" fill="none" stroke="#cec344" stroke-width="0.75"/><path d="M248.80723,127.51727l0.52976,0.46334l-0.91112,-0.79689l0.74707,-0.85418l-1.3667,-1.19533l0.59768,-0.68335l-1.70837,-1.49416l0.89651,-1.02502" fill="none" stroke="#cec344" stroke-width="0.75"/><path d="M248.35587,132.54985l-1.02502,-0.89651l1.49416,-1.70837l-0.68336,-0.59768l1.19532,-1.36669l-0.6486,0.74159" fill="none" stroke="#cec344" stroke-width="0.75"/><path d="M257.99758,131.0325l-0.89651,1.02502l-1.70836,-1.49417l-0.59767,0.68335l-1.36671,-1.19533l-0.74707,0.85419l-0.91113,-0.79689l0.52978,0.46335" fill="none" stroke="#cec344" stroke-width="0.75"/><path d="M251.12153,130.85025l0.6486,-0.74159l-1.19533,1.36671l-0.68335,-0.59768l-1.49416,1.70836l-1.02502,-0.89651" fill="none" stroke="#cec344" stroke-width="0.75"/></g><g stroke-linecap="round"><path d="M211.1484,163.57551l1.65661,1.44889l0.98329,-0.60192l1.14541,1.09315l2.0185,-0.42746l1.5138,-0.68613l2.0766,-1.01622l-0.97648,2.16114l-0.15483,2.05746l0.07806,1.89565l1.23629,2.45183l0.47906,1.33268l-1.41692,-0.05144l-0.88656,-0.86678l-1.96689,-0.25837l-1.78562,0.26564l-1.99904,0.7186l-1.73369,1.04202l-0.35606,-0.95099l1.33886,-1.84421l-0.56946,-0.49805l0.76324,-0.97711l-0.28513,-2.07676l-0.84145,-1.64963l-0.932,-1.5461z" fill="#eee796" stroke="#eee796" stroke-width="0.25"/><path d="M210.35341,164.50885l0.89651,-1.02502l1.70836,1.49415l0.59768,-0.68335l1.3667,1.19533l0.74707,-0.85418l0.91113,0.79689l-0.52976,-0.46334" fill="none" stroke="#cec344" stroke-width="0.75"/><path d="M217.22945,164.6911l-0.6486,0.74159l1.19533,-1.3667l0.68335,0.59767l1.49417,-1.70837l1.02502,0.89651" fill="none" stroke="#cec344" stroke-width="0.75"/><path d="M219.54376,168.02408l-0.52976,-0.46334l0.91112,0.79689l-0.74707,0.85418l1.3667,1.19533l-0.59767,0.68336l1.70837,1.49416l-0.89651,1.02502" fill="none" stroke="#cec344" stroke-width="0.75"/><path d="M219.99512,162.9915l1.02502,0.89651l-1.49416,1.70837l0.68335,0.59768l-1.19533,1.36669l0.6486,-0.74159" fill="none" stroke="#cec344" stroke-width="0.75"/><path d="M212.37906,169.1678l0.52976,0.46334l-0.91112,-0.79689l0.74707,-0.85418l-1.3667,-1.19532l0.59767,-0.68336l-1.70837,-1.49416l0.89651,-1.02502" fill="none" stroke="#cec344" stroke-width="0.75"/><path d="M211.9277,174.20038l-1.02502,-0.89651l1.49416,-1.70837l-0.68335,-0.59768l1.19533,-1.3667l-0.64861,0.74159" fill="none" stroke="#cec344" stroke-width="0.75"/><path d="M221.56942,172.68303l-0.89651,1.02502l-1.70837,-1.49416l-0.59768,0.68336l-1.3667,-1.19533l-0.74707,0.85418l-0.91112,-0.79689l0.52976,0.46334" fill="none" stroke="#cec344" stroke-width="0.75"/><path d="M214.69336,172.50078l0.6486,-0.74159l-1.19533,1.36671l-0.68335,-0.59768l-1.49417,1.70837l-1.02502,-0.89651" fill="none" stroke="#cec344" stroke-width="0.75"/></g><g stroke-linecap="round"><path d="M208.17708,134.45455l1.44888,-1.65661l-0.60192,-0.98329l1.09315,-1.14541l-0.42746,-2.01849l-0.68614,-1.5138l-1.01622,-2.07659l2.16114,0.97648l2.05746,0.15483l1.89565,-0.07806l2.45182,-1.23629l1.33269,-0.47906l-0.05145,1.41692l-0.86677,0.88656l-0.25837,1.96689l0.26564,1.78562l0.71859,1.99904l1.04202,1.73369l-0.95099,0.35607l-1.8442,-1.33886l-0.49806,0.56946l-0.97711,-0.76324l-2.07676,0.28513l-1.64964,0.84145l-1.54609,0.932z" fill="#eee796" stroke="#eee796" stroke-width="0.25"/><path d="M209.11041,135.24955l-1.02502,-0.89651l1.49417,-1.70837l-0.68336,-0.59768l1.19533,-1.3667l-0.85418,-0.74707l0.79689,-0.91113l-0.46334,0.52976" fill="none" stroke="#cec344" stroke-width="0.75"/><path d="M209.29267,128.37348l0.74159,0.6486l-1.3667,-1.19533l0.59768,-0.68335l-1.70837,-1.49416l0.89651,-1.02502" fill="none" stroke="#cec344" stroke-width="0.75"/><path d="M212.62565,126.05919l-0.46334,0.52976l0.79689,-0.91112l0.85418,0.74707l1.19533,-1.3667l0.68335,0.59767l1.49416,-1.70837l1.02502,0.89651" fill="none" stroke="#cec344" stroke-width="0.75"/><path d="M207.59308,125.60783l0.8965,-1.02502l1.70838,1.49417l0.59767,-0.68336l1.3667,1.19533l-0.74158,-0.6486" fill="none" stroke="#cec344" stroke-width="0.75"/><path d="M213.76937,133.22389l0.46334,-0.52976l-0.79689,0.91112l-0.85418,-0.74707l-1.19533,1.3667l-0.68336,-0.59768l-1.49417,1.70836l-1.02502,-0.89651" fill="none" stroke="#cec344" stroke-width="0.75"/><path d="M218.80196,133.67525l-0.89651,1.02502l-1.70837,-1.49416l-0.59768,0.68335l-1.36669,-1.19532l0.74159,0.6486" fill="none" stroke="#cec344" stroke-width="0.75"/><path d="M217.2846,124.03354l1.02502,0.89651l-1.49417,1.70837l0.68336,0.59768l-1.19533,1.3667l0.85418,0.74708l-0.79688,0.91113l0.46334,-0.52976" fill="none" stroke="#cec344" stroke-width="0.75"/><path d="M217.10234,130.90959l-0.74159,-0.6486l1.36669,1.19533l-0.59766,0.68336l1.70837,1.49415l-0.89651,1.02502" fill="none" stroke="#cec344" stroke-width="0.75"/></g><g stroke-linecap="round"><path d="M249.82761,170.88271l1.44888,-1.6566l-0.60192,-0.98329l1.09316,-1.1454l-0.42746,-2.0185l-0.68614,-1.5138l-1.01622,-2.07659l2.16114,0.97648l2.05745,0.15483l1.89565,-0.07807l2.45182,-1.23629l1.33268,-0.47905l-0.05145,1.41691l-0.86677,0.88655l-0.25837,1.9669l0.26565,1.78562l0.71859,1.99904l1.04203,1.7337l-0.951,0.35607l-1.8442,-1.33887l-0.49806,0.56946l-0.97711,-0.76324l-2.07676,0.28512l-1.64963,0.84145l-1.5461,0.932z" fill="#eee796" stroke="#eee796" stroke-width="0.25"/><path d="M250.76096,171.67772l-1.02502,-0.89651l1.49416,-1.70837l-0.68336,-0.59768l1.19533,-1.3667l-0.85418,-0.74708l0.79689,-0.91113l-0.46334,0.52977" fill="none" stroke="#cec344" stroke-width="0.75"/><path d="M250.9432,164.80166l0.74159,0.6486l-1.3667,-1.19533l0.59768,-0.68335l-1.70836,-1.49417l0.8965,-1.02502" fill="none" stroke="#cec344" stroke-width="0.75"/><path d="M254.27618,162.48737l-0.46334,0.52976l0.79689,-0.91112l0.85418,0.74707l1.19533,-1.3667l0.68336,0.59767l1.49416,-1.70836l1.02503,0.89651" fill="none" stroke="#cec344" stroke-width="0.75"/><path d="M249.24361,162.036l0.8965,-1.02502l1.70838,1.49416l0.59767,-0.68336l1.3667,1.19533l-0.74158,-0.6486" fill="none" stroke="#cec344" stroke-width="0.75"/><path d="M255.41989,169.65206l0.46335,-0.52976l-0.79689,0.91112l-0.85418,-0.74708l-1.19533,1.3667l-0.68336,-0.59768l-1.49416,1.70837l-1.02502,-0.8965" fill="none" stroke="#cec344" stroke-width="0.75"/><path d="M260.45248,170.10342l-0.89651,1.02502l-1.70837,-1.49416l-0.59768,0.68335l-1.3667,-1.19533l0.74159,0.6486" fill="none" stroke="#cec344" stroke-width="0.75"/><path d="M258.93513,160.46171l1.02502,0.89651l-1.49417,1.70837l0.68336,0.59768l-1.19533,1.3667l0.85418,0.74708l-0.79688,0.91112l0.46334,-0.52978" fill="none" stroke="#cec344" stroke-width="0.75"/><path d="M258.75288,167.33775l-0.74159,-0.6486l1.3667,1.19532l-0.59768,0.68335l1.70837,1.49416l-0.8965,1.02502" fill="none" stroke="#cec344" stroke-width="0.75"/></g></g><g stroke-linecap="round"><g><g><path d="M245.54046,134.91696l-0.41463,-6.85283l2.04536,-0.14489l-0.12958,-2.14151l2.48363,-0.17594l-0.1123,-1.85598l5.69777,-0.40364l0.1123,1.85598l2.04536,-0.14489l0.12958,2.14151l2.04536,-0.14489l0.41463,6.85283" fill="#a6ffca" stroke="#00a8c1" stroke-width="0"/><path d="M245.31748,131.23177l0.22298,3.68518l-0.41463,-6.85283l2.04536,-0.14489l-0.12958,-2.14151l2.48363,-0.17594l-0.1123,-1.85598l5.69777,-0.40364l0.1123,1.85598l2.04536,-0.14489l0.12958,2.14151l2.04536,-0.14489l0.41463,6.85283l-0.17957,-2.96786" fill="none" stroke="#6ead87" stroke-width="1.5"/></g><g><path d="M259.84157,133.63283l0.41463,6.85283l-2.04536,0.14489l0.12958,2.14151l-2.04536,0.14489l0.1123,1.85597l-5.69777,0.40363l-0.1123,-1.85597l-2.48363,0.17594l-0.12958,-2.14151l-2.04536,0.14489l-0.41463,-6.85283" fill="#a6ffca" stroke="#00a8c1" stroke-width="0"/><path d="M260.02116,136.60069l-0.17957,-2.96786l0.41463,6.85283l-2.04536,0.14489l0.12959,2.14151l-2.04536,0.14489l0.1123,1.85597l-5.69777,0.40363l-0.1123,-1.85598l-2.48363,0.17594l-0.12958,-2.14151l-2.04536,0.14489l-0.41463,-6.85283l0.22298,3.68518" fill="none" stroke="#6ead87" stroke-width="1.5"/></g></g><g><g><path d="M213.13587,137.21251l-0.41463,-6.85283l2.66534,-0.18882l-0.12959,-2.14151l3.23648,-0.22927l-0.1123,-1.85598l7.42487,-0.52598l0.1123,1.85598l2.66534,-0.18882l0.12958,2.14151l2.66534,-0.18882l0.41463,6.85283" fill="#a6ffca" stroke="#00a8c1" stroke-width="0"/><path d="M212.9129,133.52732l0.22298,3.68519l-0.41463,-6.85283l2.66533,-0.18882l-0.12958,-2.14151l3.23647,-0.22927l-0.1123,-1.85597l7.42488,-0.52598l0.1123,1.85598l2.66534,-0.18882l0.12958,2.14151l2.66534,-0.18882l0.41463,6.85283l-0.17957,-2.96787" fill="none" stroke="#6ead87" stroke-width="1.5"/></g><g><path d="M231.7769,135.62094l0.41463,6.85283l-2.66533,0.18882l0.12958,2.14151l-2.66533,0.18882l0.1123,1.85598l-7.42488,0.52598l-0.1123,-1.85598l-3.23647,0.22927l-0.12958,-2.14151l-2.66534,0.18882l-0.41463,-6.85283" fill="#a6ffca" stroke="#00a8c1" stroke-width="0"/><path d="M231.95648,138.5888l-0.17957,-2.96787l0.41463,6.85283l-2.66534,0.18882l0.12958,2.14151l-2.66533,0.18882l0.1123,1.85598l-7.42488,0.52599l-0.11229,-1.85598l-3.23648,0.22927l-0.12958,-2.14151l-2.66534,0.18882l-0.41463,-6.85283l0.22298,3.68519" fill="none" stroke="#6ead87" stroke-width="1.5"/></g></g></g><g stroke="#000000" stroke-width="1.2"><path d="M278.91137,171.91247c-1.91716,-6.83194 2.06706,-13.92449 8.899,-15.84165c6.83195,-1.91716 13.9245,2.06706 15.84164,8.89901c1.91716,6.83194 -2.06705,13.92449 -8.899,15.84165c-6.83195,1.91716 -13.9245,-2.06706 -15.84164,-8.89901z" fill="#5c5e5f" stroke-linecap="butt"/><g stroke-linecap="round"><path d="M291.10168,199.79043l-9.43039,-0.75044l0.15832,-6.35271l-3.79147,-5.72958l4.9091,-6.71535" fill="#5d5d5d"/><path d="M304.19471,173.39225l2.64862,2.08548l-0.37522,4.71518l4.25734,2.20209l-1.96568,8.55827l2.84474,2.35586l-0.70685,6.99189l-8.89444,8.07633l-12.76051,-2.24222l-1.92902,-6.00959l1.26686,-3.26701l-2.61981,-2.41898l-1.45163,-5.17304l1.80734,-2.20555l-2.61982,-2.41899l-0.81246,-4.62453l11.45917,-7.58291z" fill="#5d5d5d"/><path d="M295.41972,182.32275l-7.59201,4.07146" fill="none"/><path d="M290.31675,196.12868l7.49333,-3.55852" fill="none"/></g><path d="M297.17515,211.92294l-1.97048,-7.02197l4.49084,-3.88271l5.9462,1.30357l2.10444,6.63471l-4.80424,4.49516z" fill="#5c5e5f" stroke-linecap="round"/></g></g></g></svg>