<svg version="1.1" xmlns="http://www.w3.org/2000/svg" xmlns:xlink="http://www.w3.org/1999/xlink" width="148.40681" height="225.94805" viewBox="0,0,148.40681,225.94805"><defs><radialGradient cx="227.5919" cy="162.60227" r="38.25582" gradientUnits="userSpaceOnUse" id="color-1"><stop offset="0" stop-color="#180036"/><stop offset="1" stop-color="#1d1d1d"/></radialGradient></defs><g transform="translate(-173.1713,-92.83494)"><g stroke-miterlimit="10"><g stroke="#000000" stroke-width="1.2"><path d="M269.00568,220.95633l-7.51201,-2.24926l-1.91212,-13.4683l-3.57035,-11.01668l2.66608,-3.80815l4.26639,-1.57156l10.53389,6.85315l11.6259,5.74481l-0.5055,7.80305l-6.23959,7.04104z" fill="#707070" stroke-linecap="round"/><path d="M286.81102,242.31389l-18.87504,-27.07943l-1.92457,2.02696l6.83688,-7.16813l9.46921,-5.6863l-2.77089,1.71673l20.78454,26.30238" fill="#5d5d5d" stroke-linecap="round"/><path d="M301.3461,247.78944c-4.45789,3.26022 -10.71466,2.28932 -13.97488,-2.16857c-3.26022,-4.45789 -2.28932,-10.71466 2.16857,-13.97488c4.45789,-3.26022 10.71466,-2.28933 13.97488,2.16857c3.26022,4.45789 2.28933,10.71466 -2.16856,13.97488z" fill="#707070" stroke-linecap="butt"/></g><g stroke="#000000" stroke-width="1.2"><path d="M295.99356,222.54102c1.8164,-6.77886 8.78421,-10.80172 15.56308,-8.98533c6.77886,1.81641 10.80173,8.78423 8.98532,15.56309c-1.8164,6.77886 -8.78421,10.80173 -15.56308,8.98533c-6.77886,-1.81641 -10.80173,-8.78423 -8.98532,-15.56309z" fill="#5c5e5f" stroke-linecap="butt"/><g stroke-linecap="round"><path d="M292.29666,252.40597l-7.64319,-5.39666l3.34008,-5.32397l-0.33418,-6.78688l7.56425,-3.23534" fill="#5d5d5d"/><path d="M316.75388,236.55704l1.20074,3.11041l-2.69833,3.82159l2.51034,4.02131l-5.99034,6.28816l1.23114,3.43937l-4.12918,5.5909l-11.64104,2.38215l-9.72323,-8.34592l1.39138,-6.08533l2.72609,-2.13983l-1.00796,-3.37956l1.37536,-5.13284l2.65026,-0.96419l-1.00797,-3.37956l1.6423,-4.34376l13.57374,-0.66834z" fill="#5d5d5d"/><path d="M296.27105,239.35868l8.51241,0.36738" fill="none"/><path d="M293.47658,248.89509l8.16965,0.75391" fill="none"/></g><path d="M291.34126,265.79085l1.86692,-6.96741l5.77919,-1.03683l4.40033,4.10915l-1.55757,6.70559l-6.35479,1.39968z" fill="#5c5e5f" stroke-linecap="round"/></g><g stroke="#000000"><g stroke-width="0" stroke-linecap="round"><path d="M257.2575,196.46353l3.58989,10.12301l-4.04475,-0.38706l2.32272,7.19976l-10.74979,17.81605l-13.79129,-15.76921l0.30351,-7.71764l-4.52815,1.65445l3.32281,-11.27456" fill="#0063eb"/><path d="M253.39138,195.45004l2.4661,6.95407l-2.77857,-0.2659l1.92084,8.53722l-7.38464,12.23886l-9.47403,-10.83275l-0.11672,-8.89298l-3.11064,1.13653l2.28262,-7.74513" fill="#629beb"/></g><path d="M230.84462,199.97946l-4.30354,-51.21055c0,0 -1.47353,-16.43989 12.24642,-17.2735c14.38839,-0.87422 15.85309,15.31301 15.85309,15.31301l4.63558,51.18737c0,0 -2.80845,3.04667 -14.2147,4.00341c-11.73172,0.98404 -14.21684,-2.01976 -14.21684,-2.01976z" fill="#5d5d5d" stroke-width="1.2" stroke-linecap="butt"/></g><g stroke="#000000"><g stroke-width="0" stroke-linecap="round"><path d="M202.91746,198.60693l0.31394,10.65867l-3.75407,-1.45865l0.00254,7.51873l-15.79279,14.16759l-8.34109,-18.80917l2.67235,-7.30815l-4.84704,0.3661l6.66149,-9.90181" fill="#0063eb"/><path d="M199.52775,196.59651l0.21567,7.32204l-2.57889,-1.00203l-0.79507,8.69127l-10.84895,9.73251l-5.72995,-12.92108l2.6326,-8.54661l-3.32971,0.25149l4.57614,-6.80211" fill="#629beb"/></g><path d="M176.53765,194.86851l11.68229,-50.1928c0,0 3.66222,-16.13793 17.05863,-13.2455c14.04908,3.03335 10.45639,18.92697 10.45639,18.92697l-11.35715,50.25994c0,0 -3.62977,2.1618 -14.84843,0.00964c-11.53877,-2.21356 -12.99172,-5.75825 -12.99172,-5.75825z" fill="#5d5d5d" stroke-width="1.2" stroke-linecap="butt"/></g><g stroke="#000000" stroke-width="1.2"><path d="M190.0725,121.832c2.43389,9.06143 1.71714,16.69159 -1.60089,17.04245c-3.31806,0.35086 -7.98094,-6.71048 -10.41484,-15.77192c-2.43389,-9.06143 -1.71714,-16.6916 1.60089,-17.04245c3.31806,-0.35086 7.98094,6.71049 10.41484,15.77193z" fill="#454545" stroke-linecap="butt"/><path d="M197.85475,152.01939l-9.02434,-35.46108l1.32927,6.33042l-6.94727,0.46324l-4.98033,-17.16439l8.46487,-12.5341l7.59793,-0.20558l13.12934,55.14619" fill="#5d5d5d" stroke-linecap="round"/></g><g stroke="#000000" stroke-width="1.2"><g fill="#5d5d5d" stroke-linecap="round"><path d="M211.03311,258.93371l1.12473,32.75854l-6.90721,1.64893l-7.66185,-1.61834l-3.28903,-32.43197"/><g><path d="M210.72968,284.21528l3.97517,3.91913l1.2851,4.97754l4.08959,5.91867l-3.74509,8.83864l-7.04252,3.65381l-8.20126,-16.5916l-2.97616,-3.94045"/><path d="M215.33614,297.12988l1.57865,2.96929l0.42046,3.24426l4.35844,6.41344l-1.26395,2.52946l-1.03506,5.78192l-5.159,0.11012l-1.47852,-1.21968l1.54698,-5.0421l-2.1764,-5.20876l-2.34499,0.05004l-0.88639,5.02389l0.42047,2.49763l-1.27826,2.27953l-5.91971,-0.87464l0.41739,-4.26725l-1.44431,-4.72389l-2.53658,0.80488l1.9276,4.96383l-1.39831,3.53743l-4.70431,-0.14984l-0.61206,-1.74278l-2.99435,-7.19329l1.43253,-7.78828l-0.42915,-7.49829l1.3859,-5.03456l4.73231,-2.38734"/></g></g><g><path d="M203.30203,227.51987l-9.14364,-2.5648l-4.85972,-6.29867l6.2939,-11.10729l4.76421,-11.45181l4.40529,-0.97721l4.36233,1.76929l3.33634,11.20295l6.09688,12.37333l-4.89978,5.9451z" fill="#707070" stroke-linecap="round"/><path d="M194.4159,252.96242l2.12199,-33.35853l-3.2575,0.04849l11.02939,-0.31768l9.70745,2.34974l-2.73782,-0.66914l-0.10837,32.9832" fill="#5d5d5d" stroke-linecap="round"/><path d="M192.5873,255.84844c0.14369,-5.51227 4.73872,-9.70391 10.26325,-9.3623c5.52453,0.34161 9.88656,5.08713 9.74287,10.59941c-0.14369,5.51227 -4.7387,9.70391 -10.26324,9.3623c-5.52453,-0.34161 -9.88657,-5.08713 -9.74288,-10.5994z" fill="#707070" stroke-linecap="butt"/></g></g><g stroke="#000000" stroke-width="1.2"><path d="M263.26988,122.35622c-0.68796,9.00379 -3.99754,15.88344 -7.39215,15.36611c-1.47704,-0.22509 -2.7268,-1.81351 -3.61076,-4.27792c-1.14762,-3.19948 -1.6787,-7.87543 -1.29008,-12.96158c0.68794,-9.0038 3.99754,-15.88346 7.39215,-15.36611c3.39462,0.51733 5.58879,8.23571 4.90082,17.2395z" fill="#454545" stroke-linecap="butt"/><path d="M256.43438,151.68131l3.18629,-35.10847l-0.84687,6.19598l-3.12717,-1.41277l0.93799,-17.14909l8.74163,-9.37338l7.56935,1.73786l-5.84787,54.36832" fill="#5d5d5d" stroke-linecap="round"/></g><g><g stroke-linecap="butt"><g><path d="M187.99693,167.26256c1.60873,-25.50546 23.58912,-44.87757 49.09459,-43.26884c25.50546,1.60873 44.87757,23.58912 43.26884,49.09458c-1.60873,25.50546 -23.58912,44.87757 -49.09459,43.26884c-25.50546,-1.60873 -44.87757,-23.58912 -43.26884,-49.09458z" fill="#5d5d5d" stroke="#000000" stroke-width="1.2"/><path d="M237.37118,124.65407c0,0 1.48781,0.11186 2.22334,0.19393c24.04441,2.68235 41.98507,23.81478 40.44572,48.22011c-1.52633,24.19901 -21.64857,42.7993 -45.57122,42.76108c-0.94202,-0.0015 -2.84284,-0.09202 -2.84284,-0.09202z" fill="#686868" stroke="#000000" stroke-width="0"/><path d="M194.07825,167.64614c1.43034,-22.67714 20.97331,-39.90105 43.65044,-38.47071c22.67714,1.43034 39.90106,20.9733 38.47072,43.65043c-1.43034,22.67714 -20.97331,39.90105 -43.65045,38.47071c-22.67714,-1.43034 -39.90105,-20.9733 -38.47071,-43.65043z" fill="#707070" stroke="#838383" stroke-width="0"/><path d="M196.95888,167.82783c1.33,-21.0862 19.50191,-37.10176 40.58811,-35.77178c21.0862,1.33 37.10177,19.50191 35.77179,40.58811c-1.33,21.0862 -19.50192,37.10177 -40.58812,35.77178c-21.0862,-1.33 -37.10176,-19.50192 -35.77178,-40.58812z" fill="url(#color-1)" stroke="#000000" stroke-width="1.2"/></g><g stroke="#000000"><path d="M197.19435,179.25679c0,0 -2.13855,-6.99044 -1.80344,-11.59924c0.33513,-4.60879 3.47003,-11.32078 3.47003,-11.32078c0.34357,0.03789 1.201,0.13801 1.66328,0.24127c5.46911,1.22156 9.39124,6.2711 9.02732,12.04077c-0.38039,6.03087 -5.30772,10.69277 -11.23261,10.85753c-0.35185,0.00978 -1.06535,-0.01888 -1.06535,-0.01888c0,0 -0.02113,-0.07024 -0.05922,-0.20067z" fill="#707070" stroke-width="0"/><path d="M198.86095,156.33676c0.34357,0.03789 1.201,0.13801 1.66329,0.24127c5.4691,1.22156 9.39124,6.2711 9.02732,12.04077c-0.38039,6.03087 -5.30772,10.69277 -11.23261,10.85753c-0.35185,0.00978 -1.06535,-0.01888 -1.06535,-0.01888c0,0 -0.02114,-0.07023 -0.05922,-0.20067" fill="none" stroke-width="1.2"/></g><g stroke="#000000"><path d="M271.61977,183.73744c-0.03894,0.12558 -0.06031,0.19313 -0.06031,0.19313c0,0 -0.47596,-0.04636 -0.70815,-0.09299c-3.9101,-0.78511 -6.68728,-5.93295 -6.30689,-11.96381c0.36392,-5.76967 3.49336,-10.37444 7.24675,-11.01429c0.31726,-0.05409 0.89611,-0.06363 1.12783,-0.06523c0,0 1.54742,4.67462 1.11278,11.60984c-0.42216,6.73605 -2.41199,11.33336 -2.41199,11.33336z" fill="#707070" stroke-width="0"/><path d="M271.61977,183.73744c-0.03894,0.12558 -0.06031,0.19313 -0.06031,0.19313c0,0 -0.47596,-0.04636 -0.70815,-0.09299c-3.9101,-0.78511 -6.68728,-5.93295 -6.30689,-11.96381c0.36392,-5.76967 3.49336,-10.37444 7.24675,-11.01429c0.31726,-0.05409 0.89611,-0.06363 1.12783,-0.06523" fill="none" stroke-width="1.2"/></g><path d="M196.74229,170.88647l0.39424,-6.25046l4.63447,-1.27653l4.30394,1.84031l-0.39424,6.25046l-4.64268,1.40673z" fill="#21cc26" stroke="#17921c" stroke-width="1.2"/><path d="M266.73847,175.30142l0.39424,-6.25046l3.19451,-1.36735l2.9063,1.75215l-0.39424,6.25046l-3.20271,1.49757z" fill="#21cc26" stroke="#17921c" stroke-width="1.2"/></g><g stroke-linecap="round"><path d="M230.24782,141.7143l2.19645,0.13854l0.41246,-1.07658l1.57438,0.16821l1.33941,-1.56941l0.78163,-1.46678l1.02653,-2.07154l0.54352,2.3084l1.13159,1.72528l1.21757,1.45504l2.47471,1.18978l1.19221,0.76432l-1.15451,0.82305l-1.23117,-0.14657l-1.71662,0.99432l-1.25345,1.29919l-1.14648,1.78832l-0.73898,1.88292l-0.86199,-0.53675l-0.06304,-2.27809l-0.75504,-0.04762l0.0093,-1.23983l-1.49212,-1.47237l-1.67268,-0.79462l-1.68136,-0.65736z" fill="#eee796" stroke="#eee796" stroke-width="0.25"/><path d="M230.18665,142.93881l0.08573,-1.35906l2.26509,0.14287l0.05714,-0.90604l1.81208,0.11429l0.07143,-1.13254l1.20805,0.0762l-0.70241,-0.0443" fill="none" stroke="#cec344" stroke-width="0.75"/><path d="M235.74821,138.89128l-0.06202,0.98325l0.1143,-1.81208l0.90604,0.05715l0.14287,-2.2651l1.35906,0.08572" fill="none" stroke="#cec344" stroke-width="0.75"/><path d="M239.61465,140.12232l-0.70241,-0.04431l1.20805,0.0762l-0.07143,1.13255l1.81208,0.1143l-0.05714,0.90603l2.26509,0.14287l-0.08573,1.35906" fill="none" stroke="#cec344" stroke-width="0.75"/><path d="M236.9043,135.85797l1.35906,0.08572l-0.14287,2.26509l0.90604,0.05715l-0.11429,1.81208l0.06202,-0.98326" fill="none" stroke="#cec344" stroke-width="0.75"/><path d="M234.63267,145.39688l0.70241,0.0443l-1.20805,-0.0762l0.07143,-1.13255l-1.81208,-0.11429l0.05715,-0.90604l-2.26509,-0.14287l0.08572,-1.35906" fill="none" stroke="#cec344" stroke-width="0.75"/><path d="M237.34302,149.66122l-1.35906,-0.08572l0.14287,-2.2651l-0.90604,-0.05715l0.1143,-1.81207l-0.06202,0.98325" fill="none" stroke="#cec344" stroke-width="0.75"/><path d="M244.06064,142.58037l-0.08572,1.35906l-2.26509,-0.14287l-0.05715,0.90604l-1.81208,-0.11429l-0.07143,1.13254l-1.20805,-0.0762l0.70241,0.0443" fill="none" stroke="#cec344" stroke-width="0.75"/><path d="M238.49911,146.62792l0.06202,-0.98326l-0.11429,1.81208l-0.90604,-0.05714l-0.14287,2.26509l-1.35906,-0.08573" fill="none" stroke="#cec344" stroke-width="0.75"/></g><g stroke-linecap="round"><path d="M226.76464,196.93791l2.19645,0.13854l0.41247,-1.07658l1.57437,0.16821l1.33941,-1.56941l0.78163,-1.46678l1.02653,-2.07154l0.54352,2.30839l1.13159,1.72527l1.21757,1.45504l2.47471,1.18978l1.19221,0.76431l-1.15451,0.82305l-1.23117,-0.14657l-1.71662,0.99432l-1.25345,1.29919l-1.14648,1.78832l-0.73898,1.88292l-0.86199,-0.53675l-0.06304,-2.27809l-0.75504,-0.04762l0.0093,-1.23984l-1.49212,-1.47236l-1.67268,-0.79463l-1.68136,-0.65735z" fill="#eee796" stroke="#eee796" stroke-width="0.25"/><path d="M226.70348,198.16241l0.08572,-1.35906l2.2651,0.14287l0.05714,-0.90604l1.81208,0.1143l0.07143,-1.13254l1.20805,0.0762l-0.70241,-0.04431" fill="none" stroke="#cec344" stroke-width="0.75"/><path d="M232.26503,194.11487l-0.06202,0.98325l0.1143,-1.81208l0.90604,0.05715l0.14287,-2.2651l1.35906,0.08572" fill="none" stroke="#cec344" stroke-width="0.75"/><path d="M236.13146,195.34591l-0.70241,-0.04431l1.20805,0.0762l-0.07143,1.13253l1.81208,0.1143l-0.05714,0.90604l2.26509,0.14287l-0.08573,1.35906" fill="none" stroke="#cec344" stroke-width="0.75"/><path d="M233.42112,191.08157l1.35906,0.08572l-0.14287,2.2651l0.90604,0.05714l-0.11429,1.81208l0.06202,-0.98326" fill="none" stroke="#cec344" stroke-width="0.75"/><path d="M231.14949,200.62047l0.70241,0.04431l-1.20805,-0.0762l0.07143,-1.13254l-1.81208,-0.11429l0.05715,-0.90604l-2.26509,-0.14287l0.08572,-1.35906" fill="none" stroke="#cec344" stroke-width="0.75"/><path d="M233.85983,204.88481l-1.35906,-0.08572l0.14287,-2.2651l-0.90603,-0.05715l0.1143,-1.81208l-0.06202,0.98326" fill="none" stroke="#cec344" stroke-width="0.75"/><path d="M240.57746,197.80397l-0.08572,1.35906l-2.26509,-0.14287l-0.05715,0.90603l-1.81208,-0.11429l-0.07143,1.13253l-1.20805,-0.0762l0.7024,0.04431" fill="none" stroke="#cec344" stroke-width="0.75"/><path d="M235.01593,201.85152l0.06202,-0.98327l-0.11429,1.81208l-0.90604,-0.05714l-0.14287,2.26509l-1.35906,-0.08572" fill="none" stroke="#cec344" stroke-width="0.75"/></g><g stroke-linecap="round"><path d="M252.10979,146.47872l1.45517,1.65109l1.05293,-0.4696l0.99431,1.2322l2.05685,-0.16264l1.58987,-0.48446l2.19066,-0.73893l-1.24796,2.0166l-0.4198,2.02012l-0.16792,1.88981l0.90859,2.59118l0.30256,1.38348l-1.39834,-0.23438l-0.76693,-0.9742l-1.91692,-0.51073l-1.80499,0.03234l-2.07522,0.45384l-1.85397,0.8089l-0.22999,-0.98907l1.56626,-1.65543l-0.50023,-0.56756l0.88326,-0.87013l-0.01397,-2.09621l-0.62089,-1.74466l-0.72407,-1.65371z" fill="#eee796" stroke="#eee796" stroke-width="0.25"/><path d="M251.20068,147.30133l1.02162,-0.90039l1.50065,1.70268l0.68107,-0.60025l1.20052,1.36215l0.85133,-0.75033l0.80035,0.90811l-0.46535,-0.528" fill="none" stroke="#cec344" stroke-width="0.75"/><path d="M257.99532,148.3719l-0.73912,0.6514l1.36216,-1.20052l0.60026,0.68108l1.70268,-1.50063l0.90039,1.02161" fill="none" stroke="#cec344" stroke-width="0.75"/><path d="M259.85884,151.97635l-0.46534,-0.52801l0.80034,0.9081l-0.85134,0.75032l1.20052,1.36215l-0.68107,0.60025l1.50064,1.70269l-1.02161,0.90039" fill="none" stroke="#cec344" stroke-width="0.75"/><path d="M260.95768,147.0445l0.90039,1.02162l-1.70269,1.50064l0.60025,0.68108l-1.36214,1.20051l0.73912,-0.65141" fill="none" stroke="#cec344" stroke-width="0.75"/><path d="M252.60638,152.18325l0.46534,0.528l-0.80033,-0.90811l0.85133,-0.75031l-1.20051,-1.36216l0.68108,-0.60026l-1.50064,-1.70269l1.02161,-0.90039" fill="none" stroke="#cec344" stroke-width="0.75"/><path d="M251.50753,157.11509l-0.90038,-1.02161l1.70269,-1.50064l-0.60025,-0.68108l1.36214,-1.20051l-0.73913,0.65141" fill="none" stroke="#cec344" stroke-width="0.75"/><path d="M261.26453,156.85826l-1.02161,0.90039l-1.50064,-1.70269l-0.68108,0.60025l-1.20051,-1.36215l-0.85134,0.75031l-0.80035,-0.9081l0.46536,0.52801" fill="none" stroke="#cec344" stroke-width="0.75"/><path d="M254.46988,155.7877l0.73913,-0.65141l-1.36215,1.20052l-0.60025,-0.68108l-1.70268,1.50064l-0.90039,-1.02163" fill="none" stroke="#cec344" stroke-width="0.75"/></g><g stroke-linecap="round"><path d="M210.59783,183.06471l1.45518,1.65109l1.05292,-0.4696l0.99431,1.2322l2.05684,-0.16264l1.58987,-0.48446l2.19066,-0.73893l-1.24795,2.0166l-0.41979,2.02011l-0.16793,1.88982l0.90859,2.59119l0.30258,1.38348l-1.39835,-0.23438l-0.76693,-0.97422l-1.91693,-0.51073l-1.80498,0.03233l-2.07522,0.45385l-1.85397,0.8089l-0.23,-0.98907l1.56626,-1.65544l-0.50021,-0.56757l0.88326,-0.87013l-0.01397,-2.09621l-0.62089,-1.74466l-0.72407,-1.65371z" fill="#eee796" stroke="#eee796" stroke-width="0.25"/><path d="M209.68872,183.88733l1.02161,-0.90039l1.50063,1.70268l0.68108,-0.60026l1.20051,1.36216l0.85134,-0.75032l0.80035,0.90811l-0.46535,-0.528" fill="none" stroke="#cec344" stroke-width="0.75"/><path d="M216.48337,184.95789l-0.73913,0.65141l1.36215,-1.20052l0.60025,0.68108l1.70269,-1.50064l0.90038,1.02161" fill="none" stroke="#cec344" stroke-width="0.75"/><path d="M218.34688,188.56235l-0.46535,-0.528l0.80035,0.9081l-0.85134,0.75032l1.20051,1.36215l-0.68108,0.60025l1.50064,1.70269l-1.02161,0.90039" fill="none" stroke="#cec344" stroke-width="0.75"/><path d="M219.44573,183.63051l0.90039,1.02161l-1.70269,1.50064l0.60026,0.68108l-1.36215,1.20051l0.73913,-0.65141" fill="none" stroke="#cec344" stroke-width="0.75"/><path d="M211.09442,188.76924l0.46535,0.528l-0.80035,-0.9081l0.85135,-0.75032l-1.20052,-1.36213l0.68108,-0.60026l-1.50065,-1.70269l1.02162,-0.90038" fill="none" stroke="#cec344" stroke-width="0.75"/><path d="M209.99558,193.7011l-0.90039,-1.02162l1.70269,-1.50064l-0.60026,-0.68108l1.36215,-1.20052l-0.73913,0.65141" fill="none" stroke="#cec344" stroke-width="0.75"/><path d="M219.75257,193.44427l-1.02161,0.90038l-1.50064,-1.70269l-0.68108,0.60025l-1.20052,-1.36215l-0.85133,0.75032l-0.80034,-0.90809l0.46535,0.528" fill="none" stroke="#cec344" stroke-width="0.75"/><path d="M212.95793,192.37371l0.73912,-0.65141l-1.36214,1.20052l-0.60026,-0.68108l-1.70269,1.50064l-0.90038,-1.02161" fill="none" stroke="#cec344" stroke-width="0.75"/></g><g stroke-linecap="round"><path d="M211.42013,153.8041l1.65109,-1.45518l-0.4696,-1.05292l1.2322,-0.99431l-0.16264,-2.05684l-0.48446,-1.58987l-0.73893,-2.19065l2.0166,1.24796l2.02011,0.41979l1.88982,0.16793l2.59119,-0.90859l1.38349,-0.30257l-0.23439,1.39835l-0.97422,0.76693l-0.51073,1.91692l0.03233,1.80499l0.45385,2.07522l0.8089,1.85397l-0.98906,0.23l-1.65543,-1.56626l-0.56757,0.50022l-0.87012,-0.88326l-2.09621,0.01397l-1.74466,0.62089l-1.65372,0.72407z" fill="#eee796" stroke="#eee796" stroke-width="0.25"/><path d="M212.24273,154.71321l-0.90039,-1.02162l1.70269,-1.50064l-0.60025,-0.68108l1.36215,-1.20051l-0.75031,-0.85135l0.9081,-0.80034l-0.528,0.46534" fill="none" stroke="#cec344" stroke-width="0.75"/><path d="M213.3133,147.91855l0.65141,0.73913l-1.20052,-1.36215l0.68108,-0.60026l-1.50063,-1.70269l1.02163,-0.90039" fill="none" stroke="#cec344" stroke-width="0.75"/><path d="M216.91776,146.05505l-0.528,0.46535l0.90811,-0.80035l0.75031,0.85134l1.36216,-1.20051l0.60026,0.68108l1.70268,-1.50064l0.90039,1.02161" fill="none" stroke="#cec344" stroke-width="0.75"/><path d="M211.98592,144.95622l1.02161,-0.90039l1.50064,1.70269l0.68108,-0.60026l1.20051,1.36216l-0.65141,-0.73913" fill="none" stroke="#cec344" stroke-width="0.75"/><path d="M217.12465,153.30752l0.528,-0.46535l-0.9081,0.80035l-0.75032,-0.85134l-1.36215,1.20051l-0.60026,-0.68108l-1.70269,1.50063l-0.90039,-1.02162" fill="none" stroke="#cec344" stroke-width="0.75"/><path d="M222.0565,154.40636l-1.02162,0.90039l-1.50064,-1.70269l-0.68108,0.60025l-1.2005,-1.36214l0.65141,0.73912" fill="none" stroke="#cec344" stroke-width="0.75"/><path d="M221.79968,144.64937l0.90039,1.02162l-1.70269,1.50064l0.60026,0.68108l-1.36215,1.20052l0.75031,0.85133l-0.90809,0.80035l0.528,-0.46535" fill="none" stroke="#cec344" stroke-width="0.75"/><path d="M220.72911,151.44401l-0.65141,-0.73913l1.20051,1.36216l-0.68107,0.60025l1.50065,1.70268l-1.02162,0.90039" fill="none" stroke="#cec344" stroke-width="0.75"/></g><g stroke-linecap="round"><path d="M248.00613,195.31607l1.65109,-1.45517l-0.4696,-1.05291l1.23219,-0.99431l-0.16264,-2.05685l-0.48446,-1.58987l-0.73893,-2.19065l2.0166,1.24795l2.02011,0.41979l1.88982,0.16791l2.5912,-0.90858l1.38347,-0.30257l-0.23439,1.39834l-0.97421,0.76692l-0.51073,1.91693l0.03234,1.80499l0.45385,2.07522l0.80891,1.85397l-0.98908,0.23l-1.65543,-1.56627l-0.56757,0.50021l-0.87013,-0.88326l-2.0962,0.01397l-1.74466,0.62089l-1.65371,0.72407z" fill="#eee796" stroke="#eee796" stroke-width="0.25"/><path d="M248.82874,196.22518l-0.90039,-1.02161l1.70268,-1.50064l-0.60026,-0.68108l1.36215,-1.20052l-0.75031,-0.85134l0.90809,-0.80035l-0.528,0.46535" fill="none" stroke="#cec344" stroke-width="0.75"/><path d="M249.89929,189.43053l0.65141,0.73912l-1.20051,-1.36215l0.68108,-0.60025l-1.50063,-1.70269l1.02161,-0.90039" fill="none" stroke="#cec344" stroke-width="0.75"/><path d="M253.50376,187.56703l-0.528,0.46535l0.9081,-0.80034l0.75031,0.85134l1.36215,-1.20052l0.60026,0.68108l1.70269,-1.50063l0.90039,1.02162" fill="none" stroke="#cec344" stroke-width="0.75"/><path d="M248.57191,186.46817l1.02161,-0.90038l1.50065,1.70268l0.68108,-0.60025l1.20052,1.36215l-0.65141,-0.73912" fill="none" stroke="#cec344" stroke-width="0.75"/><path d="M253.71065,194.81948l0.52801,-0.46535l-0.9081,0.80033l-0.75031,-0.85134l-1.36215,1.20052l-0.60026,-0.68108l-1.70269,1.50064l-0.90039,-1.02162" fill="none" stroke="#cec344" stroke-width="0.75"/><path d="M258.6425,195.91833l-1.02161,0.90039l-1.50064,-1.70269l-0.68108,0.60026l-1.20052,-1.36215l0.65141,0.73912" fill="none" stroke="#cec344" stroke-width="0.75"/><path d="M258.38567,186.16133l0.90039,1.02161l-1.70269,1.50064l0.60026,0.68108l-1.36215,1.20052l0.75031,0.85135l-0.90808,0.80034l0.528,-0.46536" fill="none" stroke="#cec344" stroke-width="0.75"/><path d="M257.31512,192.95597l-0.65141,-0.73912l1.2005,1.36214l-0.68108,0.60026l1.50064,1.70269l-1.02161,0.90039" fill="none" stroke="#cec344" stroke-width="0.75"/></g></g><g stroke-linecap="round"><g><g><path d="M247.25979,171.37785l0.60137,-9.53445l1.76384,0.11124l0.18794,-2.97952l2.1418,0.13509l0.16287,-2.58224l4.91354,0.30992l-0.16288,2.58224l1.76384,0.11126l-0.18793,2.97952l1.76384,0.11125l-0.60138,9.53445" fill="#7ee5f5" stroke="#00a8c1" stroke-width="0"/><path d="M247.58318,166.2506l-0.32339,5.12725l0.60137,-9.53445l1.76384,0.11124l0.18794,-2.97952l2.1418,0.13509l0.16287,-2.58224l4.91354,0.30992l-0.16288,2.58224l1.76384,0.11126l-0.18793,2.97952l1.76384,0.11125l-0.60138,9.53445l0.26045,-4.12924" fill="none" stroke="#3db0c2" stroke-width="1.5"/></g><g><path d="M259.6303,171.78114l-0.60138,9.53444l-1.76384,-0.11124l-0.18794,2.97952l-1.76384,-0.11126l-0.16288,2.58224l-4.91353,-0.30991l0.16287,-2.58224l-2.14179,-0.13509l0.18794,-2.97952l-1.76384,-0.11126l0.60138,-9.53445" fill="#5efccd" stroke="#00a8c1" stroke-width="0"/><path d="M259.36985,175.91038l0.26046,-4.12924l-0.60138,9.53444l-1.76384,-0.11124l-0.18794,2.97952l-1.76384,-0.11126l-0.16288,2.58224l-4.91353,-0.30991l0.16287,-2.58224l-2.14179,-0.13509l0.18794,-2.97952l-1.76384,-0.11126l0.60138,-9.53445l-0.3234,5.12726" fill="none" stroke="#37a684" stroke-width="1.5"/></g></g><g><g><path d="M219.31533,169.61528l0.60137,-9.53445l2.29848,0.14497l0.18794,-2.97952l2.79101,0.17605l0.16288,-2.58224l6.40293,0.40387l-0.16288,2.58224l2.29848,0.14497l-0.18794,2.97952l2.29848,0.14498l-0.60137,9.53445" fill="#7ee5f5" stroke="#00a8c1" stroke-width="0"/><path d="M219.63871,164.48803l-0.3234,5.12725l0.60137,-9.53445l2.29848,0.14497l0.18794,-2.97952l2.79101,0.17605l0.16288,-2.58224l6.40293,0.40387l-0.16288,2.58224l2.29848,0.14497l-0.18794,2.97952l2.29848,0.14498l-0.60137,9.53445l0.26044,-4.12924" fill="none" stroke="#3db0c2" stroke-width="1.5"/></g><g><path d="M235.42839,170.25464l-0.60137,9.53445l-2.29848,-0.14497l-0.18793,2.97952l-2.29848,-0.14498l-0.16288,2.58224l-6.40293,-0.40386l0.16287,-2.58224l-2.79101,-0.17604l0.18793,-2.97952l-2.29848,-0.14498l0.60137,-9.53445" fill="#5efccd" stroke="#00a8c1" stroke-width="0"/><path d="M235.16794,174.38387l0.26045,-4.12923l-0.60137,9.53445l-2.29848,-0.14497l-0.18793,2.97952l-2.29848,-0.14498l-0.16288,2.58224l-6.40293,-0.40386l0.16287,-2.58224l-2.79101,-0.17604l0.18793,-2.97952l-2.29848,-0.14498l0.60137,-9.53445l-0.3234,5.12725" fill="none" stroke="#37a684" stroke-width="1.5"/></g></g></g></g></g></svg>