<svg version="1.1" xmlns="http://www.w3.org/2000/svg" xmlns:xlink="http://www.w3.org/1999/xlink" width="95.18738" height="130.35748" viewBox="0,0,95.18738,130.35748"><g transform="translate(-197.81409,-111.19556)"><g stroke-miterlimit="10"><path d="M232.5407,179.88722c2.73201,-0.40193 5.27259,1.48699 5.67452,4.219c0.0913,0.62055 0.06439,1.23122 -0.06373,1.8092c0.56691,1.82192 -3.08569,3.81507 -4.04693,4.97902c-3.61449,4.37666 -6.90007,6.0136 -13.34204,6.49348c-2.63251,0.1961 -5.16916,-0.78398 -5.67451,-4.219c-0.95925,-6.5203 6.67056,-5.52546 9.99277,-7.32038c1.78039,-0.96191 5.73224,-7.06421 7.45992,-5.96132z" fill="#ffab19" fill-rule="nonzero" stroke="#000000" stroke-width="1.2" stroke-linecap="butt" stroke-linejoin="miter"/><g fill-rule="evenodd"><path d="M245.65211,210.96289c1.15576,1.99812 2.74022,4.33075 5.52715,5.6188c6.25079,3.01093 14.50167,1.19083 13.55703,5.56242c-0.91645,4.46353 -13.51423,9.84347 -20.78865,0.29541c-2.52633,-3.27746 -3.59668,-6.77184 -4.37391,-9.66429c-0.22534,-0.73567 -1.4972,-7.37314 1.08913,-11.00032c2.58632,-3.62718 3.92873,-2.43982 4.53788,-1.87124c0.73326,0.61876 -1.08203,8.1833 0.45135,11.05924z" fill="#ffab19" stroke="#001026" stroke-width="1.2" stroke-linecap="round" stroke-linejoin="round"/><path d="M264.37539,221.67589c-0.01238,2.08978 -3.76064,4.76371 -7.40061,5.30608c-3.63996,0.54238 -5.81775,-0.17707 -7.43129,-0.82952c0.72799,-0.10848 2.95158,-0.65959 3.72012,-2.76589c1.03966,-2.64121 -0.86607,-5.66771 -0.86607,-5.66771c0,0 4.51932,1.26343 7.56067,1.60695c2.65755,0.5106 4.23766,0.34386 4.41719,2.35007z" fill="#ffffff" stroke="none" stroke-width="1" stroke-linecap="butt" stroke-linejoin="miter"/></g><g><path d="M223.29316,135.02703c0,0 -3.96921,-23.41265 -2.90724,-23.23041c1.43068,0.24551 29.89498,10.94164 29.89498,10.94164" fill="#ffab19" fill-rule="nonzero" stroke="#001026" stroke-width="1.2" stroke-linecap="round" stroke-linejoin="miter"/><path d="M276.51566,147.06438l9.96801,16.95756l-3.74975,4.90504l-29.85336,-5.79454z" fill="#9b7f41" fill-rule="nonzero" stroke="#001026" stroke-width="1.2" stroke-linecap="round" stroke-linejoin="miter"/><path d="M210.04349,152.52481c0,0 -7.17925,-0.55535 -11.6294,-4.64512" fill="none" fill-rule="evenodd" stroke="#001026" stroke-width="1.2" stroke-linecap="round" stroke-linejoin="round"/><path d="M209.27097,158.38771c0,0 -4.01239,1.64944 -10.26814,0.75183" fill="none" fill-rule="evenodd" stroke="#001026" stroke-width="1.2" stroke-linecap="round" stroke-linejoin="round"/><path d="M241.55392,128.06951c11.38785,-0.74717 39.91338,11.3271 29.21642,37.15275c-0.13945,0.33669 -0.35517,0.63689 -0.56894,0.93613c-7.80706,10.92793 -23.19949,15.06232 -41.72772,10.18024c-18.52822,-4.88208 -22.23609,-15.93884 -20.67784,-21.55148c1.55824,-5.61265 8.77688,-7.25924 8.77688,-7.25924c0,0 0.38451,-4.48466 3.9261,-9.77116c0,0 4.41716,-8.59558 21.05512,-9.68723z" fill="#ffab19" fill-rule="evenodd" stroke="#001026" stroke-width="1.2" stroke-linecap="butt" stroke-linejoin="miter"/><path d="M233.00373,153.88026c8.3452,1.13028 20.39793,-7.22387 26.40751,3.8786c6.01591,11.00268 -6.37216,24.64621 -30.20732,18.12507c-18.33496,-4.76962 -22.47366,-15.3527 -20.91542,-20.96535c1.55824,-5.61265 8.55831,-6.97246 8.55831,-6.97246c8.60318,-1.3584 9.00298,4.9796 16.15692,5.93416z" fill="#ffffff" fill-rule="evenodd" stroke="none" stroke-width="1" stroke-linecap="butt" stroke-linejoin="miter"/><path d="M238.07595,152.89921c-0.10123,1.59679 -4.451,3.82605 -6.23474,3.51256c-1.59046,-0.20103 -2.9103,-3.09033 -2.72192,-4.4812c0.14409,-0.69227 2.35235,-0.75267 4.44814,-0.6198c1.99599,0.12654 4.68425,0.39717 4.50852,1.58844z" fill="#001026" fill-rule="evenodd" stroke="#001026" stroke-width="1.2" stroke-linecap="round" stroke-linejoin="round"/><path d="M268.77454,155.61918c-4.11757,4.42443 -11.23162,5.5381 -11.23162,5.5381" fill="none" fill-rule="evenodd" stroke="#001026" stroke-width="1.2" stroke-linecap="round" stroke-linejoin="round"/><path d="M269.06588,166.89058c-6.16667,1.38285 -10.2955,0.05142 -10.2955,0.05142" fill="none" fill-rule="evenodd" stroke="#001026" stroke-width="1.2" stroke-linecap="round" stroke-linejoin="round"/><path d="M264.4735,143.16738l-42.91391,-7.86868l5.12697,-22.21698l47.23197,9.64473l9.38459,20.51559l-9.70933,14.23688z" fill="#c58600" fill-rule="nonzero" stroke="#001026" stroke-width="1.2" stroke-linecap="round" stroke-linejoin="miter"/><path d="M264.5168,142.97215l9.16325,-20.09365" fill="none" fill-rule="nonzero" stroke="#001026" stroke-width="0.75" stroke-linecap="round" stroke-linejoin="miter"/><path d="M278.00284,132.03016l-3.78028,-8.82664c0,0 17.22402,6.5483 18.17891,7.10012c1.07009,0.6184 -17.7297,16.76195 -17.7297,16.76195z" fill="#ffab19" fill-rule="nonzero" stroke="#001026" stroke-width="1.2" stroke-linecap="round" stroke-linejoin="miter"/></g><g fill-rule="nonzero" stroke-linecap="round" stroke-linejoin="miter"><g><path d="M221.44934,226.77307l7.25164,-23.14393c0,0 0.78848,-4.58153 2.51325,-11.84161c0.838,-3.52739 -0.5647,-11.00195 1.48591,-13.34329c3.16234,-3.61068 17.91767,-4.07614 19.13324,1.36337c0.96719,4.32806 0.70744,8.25837 0.06241,12.79944c-0.61542,4.33265 0.86517,9.08601 0.86517,9.08601l4.40941,26.79461c0,0 3.16743,2.12919 3.8821,4.21868c0.71467,2.0895 -0.12198,7.95307 -0.12198,7.95307l-16.38334,0.28929l-2.98678,-2.9226l-2.25298,-9.62907c0,0 0.23755,-26.01773 -0.93976,-20.66049c-0.52532,2.39044 -3.17908,19.04761 -3.17908,19.04761l-0.44955,8.67146l-17.09216,1.65111l-3.44916,-0.78679c0,0 -4.33687,-3.03362 -2.10567,-5.97101c2.23119,-2.93738 9.35732,-3.57587 9.35732,-3.57587z" fill="#ffab19" stroke="#001026" stroke-width="1.2"/><path d="M240.50201,207.29387c0,0 -3.08661,-0.14127 -4.35359,-1.56315" fill="none" stroke="#001026" stroke-width="1.2"/><path d="M238.00858,200.16954c-3.86463,-0.67283 -3.6019,-5.04603 -3.18129,-9.23842c0.47179,-4.70245 1.26975,-9.69883 5.62244,-9.07473c4.77505,0.68465 4.87761,5.59645 4.28677,10.74607c0,0 -1.15864,8.53668 -6.72792,7.56707z" fill="#ffffff" stroke="#000000" stroke-width="0"/></g><path d="M245.1531,231.38515c0,0 1.3445,-3.38333 11.516,-3.26416" fill="none" stroke="#001026" stroke-width="1.2"/></g><path d="M247.30847,177.75944c1.79863,-3.45882 9.85522,-5.92902 16.11107,-5.92902c1.275,0 2.22736,0.53383 2.98076,1.39018c0.79843,0.81431 1.25044,1.96463 1.15975,3.23963c-0.09827,1.38156 -0.81292,2.61672 -1.85597,3.43664c-1.18302,1.48333 -2.53912,3.05886 -2.66727,4.29668c-0.25935,2.50507 0.48437,7.01219 -1.36695,8.74057c-3.36525,3.14179 -8.17269,2.62062 -8.22196,-2.23491c-0.02294,-2.26094 0.19598,-5.1158 0.84806,-7.90397c-1.06648,0.49851 -2.13836,0.97331 -3.13078,1.13599" fill="#ffab19" fill-rule="nonzero" stroke="#000000" stroke-width="1.2" stroke-linecap="butt" stroke-linejoin="miter"/><path d="M261.68699,189.41966c2.99591,2.76452 4.22229,9.04764 4.22229,9.04764c0,0 4.39232,3.58087 2.57172,5.32148c-2.19076,2.09451 -5.63012,-1.46149 -5.63012,-1.46149l-0.80482,0.95456c0,0 3.5421,4.21347 0.88221,5.96329c-2.57934,1.69682 -4.7444,-3.47542 -4.7444,-3.47542l-1.52865,0.68356c0,0 1.3044,6.09254 -2.89791,4.73271c-3.32446,-1.07576 -1.44533,-5.86015 -1.44533,-5.86015l-0.8035,-2.0369c0,0 -0.271,4.14598 -2.09309,3.77815c-3.83284,-0.77373 -2.08819,-7.35671 -2.08819,-7.35671c0,0 2.82019,-7.44677 7.39888,-10.40214" fill="#ffab19" fill-rule="nonzero" stroke="#000000" stroke-width="1.2" stroke-linecap="round" stroke-linejoin="miter"/><g stroke="#001026"><g fill-rule="evenodd"><path d="M232.29333,146.11976c-1.38331,1.81469 -3.02383,3.185 -4.65958,4.01467c-2.57883,-1.11837 -5.16599,-2.21543 -7.75455,-3.27321c-0.22828,-2.34 0.68322,-5.30564 2.65217,-7.9736c0.72696,-0.98504 1.54024,-1.84409 2.39434,-2.55846c2.96021,2.35419 5.9902,4.65898 9.09712,6.79475c-0.43292,1.00834 -1.01076,2.02193 -1.7295,2.99585z" fill="#ffffff" stroke-width="1.2" stroke-linecap="round" stroke-linejoin="round"/><path d="M221.57135,145.27893c0.0696,-1.09779 0.92494,-1.94538 1.92294,-1.8821c0.998,0.06327 1.73945,1.01208 1.66985,2.10988c-0.0696,1.09779 -0.92494,1.94537 -1.92292,1.8821c-0.998,-0.06327 -1.73945,-1.01208 -1.66985,-2.10987" fill="#001026" stroke-width="0.5" stroke-linecap="butt" stroke-linejoin="miter"/></g><g fill-rule="evenodd"><path d="M255.71531,152.81348c-0.12015,0.15426 -0.24193,0.30436 -0.36521,0.45031c-0.87411,0.05507 -1.74779,0.09288 -2.62057,0.11067c-3.16857,0.06459 -6.41837,-0.11711 -9.55126,-0.1523c-0.56209,-2.54657 0.21087,-5.98663 2.45179,-8.86373c0.05827,-0.07481 0.11704,-0.14896 0.17629,-0.22242c3.99364,-0.75396 7.98243,-1.53398 11.96941,-2.32385c1.64474,2.77697 0.81297,7.42675 -2.06045,11.00132z" fill="#ffffff" stroke-width="1.2" stroke-linecap="round" stroke-linejoin="round"/><path d="M244.29066,150.57584c0.0696,-1.09779 0.91862,-1.84558 1.92294,-1.88211c0.998,0.06327 1.73944,1.01209 1.66985,2.10988c-0.0696,1.09779 -0.92494,1.94538 -1.92293,1.8821c-0.998,-0.06327 -1.73945,-1.01209 -1.66985,-2.10988" fill="#001026" stroke-width="0.5" stroke-linecap="butt" stroke-linejoin="miter"/></g><g fill="#ffffff" fill-rule="nonzero" stroke-width="1.2" stroke-linecap="round" stroke-linejoin="miter"><path d="M225.87984,163.17255c-0.16018,-0.22292 5.69665,0.12607 11.71148,-0.77191c13.61711,-2.03296 14.52544,-3.97025 15.0451,-3.75427c0.95899,0.39858 -1.97858,21.71465 -10.53897,23.15953c-8.23254,1.38954 -15.71737,-17.93715 -16.2176,-18.63335z"/></g></g><g fill-rule="nonzero" stroke="#000000" stroke-width="1.2" stroke-linejoin="miter"><path d="M217.52864,191.99174l-2.67538,2.97636l-3.74172,-1.13188l-1.33954,-3.67249l2.22008,-2.25015l4.10596,0.55089z" fill="#5c5e5f" stroke-linecap="round"/><g fill="#ffab19" stroke-linecap="round"><path d="M225.63245,185.86061l1.03552,4.28742l-1.66501,1.13761l-1.9015,3.21463l-3.36214,-1.69582z"/><path d="M224.60378,180.89074l2.1715,5.72141l-2.46949,2.49764l-0.51535,1.2067l-2.32323,2.25037l-0.1531,0.92972l-2.53238,1.59762l-5.57805,-2.98132l-3.54055,-5.41958l6.99016,-8.79844z"/></g><path d="M218.5739,187.38752c-4.01078,-2.51457 -5.22374,-7.80443 -2.70917,-11.81521c2.51457,-4.01078 7.80443,-5.22372 11.81521,-2.70915c4.01078,2.51457 5.22373,7.80442 2.70915,11.81521c-2.51457,4.01078 -7.80442,5.22372 -11.81521,2.70916z" fill="#5c5e5f" stroke-linecap="butt"/></g></g></g></svg>