<svg version="1.1" xmlns="http://www.w3.org/2000/svg" xmlns:xlink="http://www.w3.org/1999/xlink" width="115.04416" height="119.58449" viewBox="0,0,115.04416,119.58449"><g transform="translate(-169.21136,-118.36296)"><g stroke-miterlimit="10"><path d="M252.21707,216.26807c0.01109,1.57705 0.21451,5.06797 -13.79058,2.63815c-0.45301,-0.2655 -4.63484,-1.76487 -4.42353,-4.05567c0.21131,-2.29079 4.13882,-3.45496 5.0999,-3.27703c0.94517,-0.3777 13.07461,-0.93234 13.1142,4.69455z" fill="#9a8479" stroke="#000000" stroke-width="1.2" stroke-linecap="butt"/><path d="M246.45803,235.62548c0,0 0.8071,0.34929 0.79794,1.09892c-0.00648,0.75337 -2.46135,0.71688 -5.48838,0.8829c-3.02752,0.16691 -5.66481,-0.36213 -6.36091,-1.15826c-0.6921,-0.78714 0.1451,-1.06708 0.1451,-1.06708l-4.39318,-8.12882l7.1979,-2.95436z" fill="#9a8479" stroke="#000000" stroke-width="1.2" stroke-linecap="butt"/><path d="M222.17841,208.39177v0v0v0v0v0v0c7.92513,-0.62376 12.36827,4.05299 12.36622,4.0521c1.00766,1.20795 2.31793,2.91231 3.1065,4.46855c0.21763,0.42988 0.41477,0.91356 0.57862,1.43237c0,0 0.47135,1.80207 0.45388,2.35221c-0.0741,2.30475 -0.54927,4.82759 -3.09543,5.96827c-3.99534,1.79848 -8.86298,1.57773 -14.53553,-0.78533c-1.91367,-0.79518 -3.3021,-2.15035 -4.28524,-3.69306c-0.70428,-1.11025 -1.28548,-2.55784 -1.28548,-2.55784c-0.93016,-2.40793 -1.18408,-4.75845 -1.253,-5.78064c0,0 0.02532,-4.83296 7.94948,-5.45663z" fill="#9a8479" stroke="#000000" stroke-width="1.2" stroke-linecap="butt"/><path d="M228.69572,227.32037c0.05085,0.33101 0.05387,0.53673 0.05387,0.53673c0,0 0.19907,3.23453 0.64464,4.99083c0.44461,1.7564 0.71516,2.48244 0.71516,2.48244c0,0 0.53857,0.05919 0.59041,0.72783c0.0557,0.66954 -1.31955,1.39557 -5.80069,1.27629c-4.48443,-0.12475 -5.61635,-1.12546 -5.76913,-1.63701c-0.15467,-0.51154 0.67588,-1.03037 0.67588,-1.03037c0,0 -0.41371,-3.27125 -0.49491,-6.11542c-0.04533,-1.6128 0.15434,-3.18902 0.3359,-4.25212" fill="#9a8479" stroke="#000000" stroke-width="1.2" stroke-linecap="butt"/><g stroke="#000000" stroke-width="1.2"><path d="M267.8374,171.85684c0,0 15.55976,-4.61848 15.81241,4.11679c0.25276,8.7352 -7.90849,15.95619 -21.33281,20.33557c0,0 4.76844,-13.35054 5.52043,-24.45233zM267.8374,171.85684c0.17743,-1.26723 0.20594,-3.8014 0.20594,-3.8014M261.33392,198.30219l0.86714,-2.12506" fill="#9a8479" stroke-linecap="round"/><path d="M262.20134,196.17627c0.90885,-2.46347 2.28859,-6.56129 3.58093,-11.8317c0.75466,-3.06649 1.30779,-6.30994 1.70702,-9.13929l0.00017,0.0039c8.13334,0.20138 11.69743,11.27135 11.69743,11.27135l0.00265,0.00096c-6.30837,6.54722 -16.85632,9.4986 -16.85632,9.4986l-0.1319,0.19619v0v0v0v0z" fill="#ee4036" stroke-linecap="butt"/></g><path d="M179.93442,157.18027c4.24356,-18.16624 14.83599,-26.45277 20.98996,-30.74583c13.96936,-9.75208 32.20296,-7.15892 32.20296,-7.15892l-1.37377,12.02593c0,0 0.54558,-3.43323 8.86246,-8.18914c8.31504,-4.75622 18.96341,-2.05358 18.96341,-2.05358l-8.25669,13.96418c0,0 4.16457,-4.08016 7.22001,-5.31165c5.41621,-2.17826 9.34651,-0.18308 9.34651,-0.18308l-3.38727,11.49295c0,0 10.95466,23.49354 8.70472,37.9691c-2.24994,14.47558 -16.45187,38.28642 -46.37728,34.40222c-60.54252,-6.85516 -46.89503,-56.21212 -46.89503,-56.21212z" fill="#9a8479" stroke="#000000" stroke-width="1.2" stroke-linecap="butt"/><g stroke="#000000" stroke-width="1.2"><path d="M187.18937,182.32983c-13.51988,-9.81205 -20.00321,-19.81552 -16.3899,-27.43948c3.61438,-7.62451 19.45959,3.34405 19.45959,3.34405c-3.37816,10.16334 -3.06968,24.09542 -3.06968,24.09542zM191.47502,154.77755c0,0 -0.93372,2.25514 -1.21506,3.45713M187.37098,182.26253l0.17182,2.26635" fill="#9a8479" stroke-linecap="round"/><path d="M187.29654,182.03149c0,0 -10.81013,-7.27716 -15.45372,-15.86295l0.00295,-0.00015c0,0 8.25002,-8.22771 17.52922,-4.81116l0.00141,-0.00254c-0.62623,2.68106 -1.23591,5.79847 -1.54956,8.84713c-0.54576,5.2394 -0.54589,9.47826 -0.45585,12.06075z" fill="#ee4036" stroke-linecap="butt"/></g><g fill="none" stroke="#ee4036" stroke-width="1.2" stroke-linecap="round"><path d="M206.6172,141.54215l-4.39875,4.92786l-5.09045,-3.19175"/><path d="M195.12404,145.84201l3.93596,3.81673l-2.91438,5.94544"/><path d="M210.05211,153.1276l-4.31683,-4.10759l3.29526,-5.65459"/><path d="M198.58041,157.44383l4.31607,-4.41154l5.17315,2.67544"/></g><path d="M258.63474,190.10493c-2.13912,12.63879 -18.26669,20.44845 -36.02201,17.44339c-17.75529,-3.00506 -30.41473,-15.68692 -28.27563,-28.32571c2.1391,-12.63879 18.2667,-20.44846 36.02202,-17.4434c17.75529,3.00506 30.41473,15.68693 28.27563,28.32572z" fill="#e6e7e8" stroke="#000000" stroke-width="1.2" stroke-linecap="butt"/><path d="M220.04855,201.87637l-22.63664,-6.94974c0,0 -0.7032,-10.52671 5.81223,-7.07606c6.51543,3.45064 16.82441,14.0258 16.82441,14.0258z" fill="#706d6d" stroke="#231f20" stroke-width="1.2" stroke-linecap="round"/><path d="M255.31666,169.77773c0,0 -3.30146,3.92676 -7.08342,5.59922c-1.69266,0.74851 -6.24595,2.31117 -8.48934,2.48307c-5.80975,0.44518 -11.81007,-0.84307 -11.81007,-0.84307l5.89162,-6.0259c0,0 -4.54112,1.2301 -8.26037,1.64904c-5.04918,0.56872 -8.69031,-2.08116 -8.69031,-2.08116l15.18795,-10.22202" fill="#9a8479" stroke="#000000" stroke-width="0" stroke-linecap="butt"/><path d="M252.45628,172.55365c0,0 -5.28153,4.27049 -10.70871,5.23844c-5.42718,0.96795 -14.07194,-0.81885 -14.07194,-0.81885l6.14984,-5.9822c0,0 -3.6791,1.15893 -7.39834,1.57785c-5.04919,0.56871 -10.20782,-1.90383 -10.20782,-1.90383l14.07597,-9.30182" fill="none" stroke="#000000" stroke-width="1.2" stroke-linecap="round"/><path d="M253.32859,189.15675c-2.2482,0.2828 -6.24024,0.93983 -7.42216,1.49839c-0.62791,0.28686 -1.39714,-0.04789 -1.70542,-0.78138c-0.30252,-0.72915 -0.03603,-1.56848 0.59835,-1.87247c1.87667,-0.89365 7.47262,-1.61407 8.10419,-1.69446c0.69511,-0.08638 1.35388,0.48264 1.47094,1.27002c0.10453,0.71179 -0.26361,1.35635 -0.84806,1.53987c-0.06287,0.01976 -0.129,0.03448 -0.19785,0.04001z" fill="#231f20" stroke="#231f20" stroke-width="0.5" stroke-linecap="butt"/><path d="M227.66983,188.41226c-0.08163,-0.04102 -0.16002,-0.09119 -0.2379,-0.14874c-2.72556,-2.09236 -8.30471,-4.16057 -8.35932,-4.18156c-0.74098,-0.27529 -1.15009,-1.11085 -0.88527,-1.86644c0.26577,-0.7531 1.09271,-1.13998 1.84836,-0.86161c0.24598,0.09457 6.05024,2.24469 9.13468,4.61021c0.63952,0.4896 0.77093,1.40451 0.2884,2.04316c-0.42128,0.55514 -1.17815,0.71195 -1.78896,0.40498z" fill="#231f20" stroke="#231f20" stroke-width="0.5" stroke-linecap="butt"/><path d="M229.91576,183.63625l1.28579,1.97508l-1.66273,0.89022c0,0 -14.98823,-14.31905 -22.02056,-16.28027" fill="none" stroke="#231f20" stroke-width="1.2" stroke-linecap="round"/><path d="M257.62823,181.07271c-3.6445,0.4971 -12.01572,6.94076 -12.01572,6.94076l-2.37936,-1.10733l2.46372,-2.12597" fill="none" stroke="#231f20" stroke-width="1.2" stroke-linecap="round"/><g stroke="#000000" stroke-width="1.2"><path d="M207.33924,212.4056c2.31617,-2.20996 4.59817,0.17303 4.59817,0.17303l0.73955,0.77227c0.34336,1.46827 -0.08188,0.80735 1.15171,-0.83338c0,0 2.07762,-2.4361 4.57875,-0.28485c2.50113,2.15126 0.4235,4.58737 0.4235,4.58737c-2.04741,2.25027 -3.30619,4.57327 -7.3199,3.82306c-1.46124,-0.27313 -2.31096,-1.91486 -3.46644,-2.87229l-0.73955,-0.77227c0,0 -2.28199,-2.38297 0.03419,-4.59293z" fill="#9a8479" stroke-linecap="butt"/><g><path d="M211.85136,205.35201c1.81396,-2.16697 5.0872,-2.40004 7.31097,-0.52059c2.22378,1.87946 2.55601,5.15975 0.74206,7.32671c-1.81396,2.16697 -5.0872,2.40004 -7.31097,0.52059c-2.22378,-1.87946 -2.55601,-5.15975 -0.74206,-7.32671z" fill="#5c5e5f" stroke-linecap="butt"/><path d="M218.21574,214.78379l1.16141,2.41198l-1.29884,1.40547l-0.78977,2.55092l-2.18688,-0.89468" fill="#9a8479" stroke-linecap="round"/><path d="M215.72603,210.98351l2.76664,3.35721l-2.6587,6.92361l-4.37256,1.0596l-3.22855,-2.38899l2.74996,-7.86542z" fill="#9a8479" stroke-linecap="round"/><path d="M217.37862,216.39219l-1.72677,-1.79026" fill="none" stroke-linecap="round"/><path d="M216.16486,219.66732l-1.09362,-0.92429" fill="none" stroke-linecap="round"/><path d="M210.58714,220.24669l1.60633,-0.2966l1.19304,1.00832l-0.48389,2.4032l-1.84963,0.58723l-1.39189,-1.17637z" fill="#5c5e5f" stroke-linecap="round"/></g></g></g></g></svg>