<svg version="1.1" xmlns="http://www.w3.org/2000/svg" xmlns:xlink="http://www.w3.org/1999/xlink" width="112.11197" height="123.66573" viewBox="0,0,112.11197,123.66573"><g transform="translate(-179.92784,-114.93201)"><g stroke-miterlimit="10"><g fill="#9a8479" stroke="#000000" stroke-width="1.2" stroke-linecap="butt"><path d="M245.02454,224.95186l2.04134,10.82669c0,0 0.71854,0.34929 0.51931,1.09892c-0.19749,0.75337 -2.64311,0.71688 -5.71224,0.8829c-3.06984,0.16691 -5.57299,-0.36213 -6.06724,-1.15826c-0.49252,-0.78714 0.41565,-1.06708 0.41565,-1.06708c0,0 0.92886,-5.17305 0.03388,-7.52882c-1.19323,-3.14189 0.17847,-3.95998 3.77061,-5.46209v0v0v0v0v0v0c3.59214,-1.50211 4.99869,2.40773 4.99869,2.40773z"/><path d="M234.08862,208.73949v0v0v0v0v0v0c8.08328,-0.62376 11.34064,4.05299 11.33882,4.0521c0.70139,1.20795 1.57952,2.91231 1.97351,4.46855c0.10864,0.42988 0.18314,0.91356 0.21544,1.43237c0,0 0.01444,1.80207 -0.14252,2.35221c-0.65847,2.30475 -1.77329,4.82759 -4.60867,5.96827c-4.45134,1.79848 -9.26301,1.57773 -14.33641,-0.78533c-1.71205,-0.79518 -2.75688,-2.15035 -3.34887,-3.69306c-0.42278,-1.11025 -0.63694,-2.55784 -0.63694,-2.55784c-0.31963,-2.40793 0.02241,-4.75845 0.21267,-5.78064c0,0 1.25071,-4.83296 9.333,-5.45663z"/><path d="M236.74466,227.51079l-0.29065,8.24934c0,0 0.52555,0.03761 0.43546,0.71052c-0.08642,0.67366 -1.61457,1.46321 -6.06661,1.52709c-4.45416,0.05849 -5.37277,-0.90525 -5.41687,-1.41542c-0.04599,-0.51008 0.89396,-1.06804 0.89396,-1.06804c0,0 1.35025,-9.00102 1.75725,-10.08178"/></g><path d="M241.08209,214.07007c1.14293,0.02062 3.57814,-2.42051 4.59862,-2.03603c1.89024,-0.316 3.69662,0.86019 4.03468,2.62708c0.0114,0.05958 0.02098,0.1191 0.0288,0.17847c1.17739,1.47623 -2.11557,3.96105 -3.15842,4.53333c-2.93462,1.61041 -10.90643,2.40457 -13.77033,-0.11534c-1.13687,-1.00032 -1.02072,-1.04384 -1.04789,-2.6211c-0.09691,-5.62768 5.80277,-2.62983 9.31454,-2.56643z" fill="#9a8479" stroke="#000000" stroke-width="1.2" stroke-linecap="butt"/><path d="M230.45728,213.64815c2.92994,1.26375 8.91314,0.56947 6.76786,6.01653c-0.60126,1.52665 -0.52109,1.61289 -1.82914,2.15849c-3.29513,1.37443 -9.60195,-2.40838 -11.44,-5.08525c-0.65316,-0.95126 -2.46692,-4.61541 -0.9507,-5.60945c0.02824,-0.05489 0.05801,-0.10927 0.08932,-0.16303c0.92817,-1.59407 2.85491,-2.05833 4.3035,-1.03695c0.98573,0.01055 2.10557,3.30837 3.05914,3.71967z" fill="#9a8479" stroke="#000000" stroke-width="1.2" stroke-linecap="butt"/><g><g stroke="#000000" stroke-width="1.2"><path d="M275.43323,164.24131c0,0 14.04344,-10.26647 15.7417,-1.74645c1.69834,8.51992 -4.86683,18.63604 -16.91707,27.88274c0,0 2.31207,-14.91406 1.17539,-26.13628zM275.43323,164.24131c-0.04255,-1.31461 -0.43829,-3.82371 -0.43829,-3.82371M273.65448,192.70361l0.47096,-2.41363" fill="#9a8479" stroke-linecap="round"/><path d="M274.12557,190.28902c0.4542,-2.76261 1.084,-7.30954 1.43491,-12.98053c0.20678,-3.30056 0.19215,-6.70162 0.1001,-9.63787l0.00081,0.0038c7.77721,-2.78759 13.01783,6.81859 13.01783,6.81859l0.00269,-0.00003c-4.91352,8.77153 -14.46351,15.55419 -14.46351,15.55419l-0.09283,0.24186v0v0v0v0z" fill="#ee4036" stroke-linecap="butt"/></g><path d="M186.22602,164.48328c1.15255,-18.61966 10.21362,-28.55762 15.56489,-33.81743c12.1461,-11.94649 30.55676,-12.43243 30.55676,-12.43243l0.65233,12.08655c0,0 -0.03499,-3.47613 7.37163,-9.55325c7.40474,-6.07711 18.35482,-5.18932 18.35482,-5.18932l-5.81063,15.14622c0,0 3.42529,-4.71791 6.23239,-6.44202c4.97676,-3.05156 9.18489,-1.74022 9.18489,-1.74022l-1.42188,11.89704c0,0 14.72157,21.33603 14.9188,35.98408c0.19723,14.64806 -4.4128,40.77008 -39.98607,41.65908c-61.66002,-0.24469 -55.61791,-47.59827 -55.61791,-47.59827z" fill="#9a8479" stroke="#000000" stroke-width="1.2" stroke-linecap="butt"/><g stroke="#000000" stroke-width="1.2"><path d="M201.34281,191.75086c-14.72525,-5.98585 -22.67075,-14.08022 -20.44516,-22.58308c2.22654,-8.50371 19.3958,-2.01198 19.3958,-2.01198c-1.5742,10.94249 1.04936,24.59506 1.04936,24.59506zM200.89371,163.41566c0,0 -0.52755,2.47827 -0.59931,3.74015M201.50739,191.63496l0.54453,2.1877" fill="#9a8479" stroke-linecap="round"/><path d="M201.39676,191.42744c0,0 -11.67908,-4.2258 -17.60704,-11.42429l0.00283,-0.00096c0,0 6.61339,-10.36319 16.1662,-9.52618l0.00094,-0.00289c-0.15882,2.81431 -0.22879,6.05435 -0.02367,9.14584c0.34601,5.31483 1.05324,9.49429 1.57137,12.01601z" fill="#ee4036" stroke-linecap="butt"/></g><g><path d="M273.01784,183.8179c0,12.81853 -14.59821,23.21 -32.60603,23.21c-18.00781,0 -32.60603,-10.39147 -32.60603,-23.21c0,-12.81853 14.59822,-23.21 32.60603,-23.21c18.00781,0 32.60603,10.39147 32.60603,23.21z" fill="#e6e7e8" stroke="#000000" stroke-width="1.2" stroke-linecap="butt"/><g stroke="#000000"><path d="M266.37652,164.49459c0,0 -2.59989,4.42264 -6.04972,6.70276c-1.54401,1.02048 -5.77269,3.32106 -7.95594,3.86491c-5.65399,1.40844 -11.78516,1.13958 -11.78516,1.13958l4.80343,-6.92457c0,0 -4.27216,1.97067 -7.86936,3.00437c-4.88348,1.40333 -8.91575,-0.60177 -8.91575,-0.60177l13.26916,-12.61318" fill="#9a8479" stroke-width="0" stroke-linecap="butt"/><path d="M264.01948,167.70893c0,0 -4.49483,5.09198 -9.68438,6.95201c-5.18955,1.86003 -14.01127,1.5409 -14.01127,1.5409l5.06533,-6.92457c0,0 -3.4341,1.75663 -7.03129,2.79033c-4.88349,1.40332 -10.38238,-0.17369 -10.38238,-0.17369l12.32634,-11.52033" fill="none" stroke-width="1.2" stroke-linecap="round"/></g><g fill="none" stroke="#ee4036" stroke-width="1.2" stroke-linecap="round"><path d="M209.46307,145.92041l-3.51473,5.5928l-5.5517,-2.29753"/><path d="M198.84861,152.07788l4.51769,3.1064l-1.88137,6.34841"/><path d="M214.78315,156.7702l-4.94176,-3.32961l2.30544,-6.1252"/><path d="M204.19258,162.94025l3.51936,-5.06993l5.54708,1.77465"/></g><g stroke-width="1.2"><path d="M263.28899,184.0198c-2.16949,0.654 -5.99591,1.96801 -7.06804,2.71596c-0.57124,0.38762 -1.38554,0.18592 -1.8119,-0.48583c-0.41995,-0.66844 -0.29727,-1.54048 0.27749,-1.94605c1.70123,-1.19429 7.09848,-2.83844 7.70779,-3.02311c0.67095,-0.20117 1.41543,0.24995 1.66226,1.00675c0.22184,0.68437 -0.03357,1.38133 -0.5792,1.6598c-0.0587,0.02997 -0.12145,0.05552 -0.1884,0.07246z" fill="#231f20" stroke="none" stroke-linecap="butt"/><path d="M241.87434,187.36099c-0.08733,-0.02683 -0.17299,-0.0632 -0.25938,-0.10695c-3.0365,-1.60819 -8.88256,-2.71636 -8.93991,-2.72795c-0.77652,-0.14778 -1.31933,-0.90336 -1.18431,-1.69254c0.13637,-0.78688 0.88715,-1.30634 1.67865,-1.15797c0.25832,0.0522 6.33997,1.20356 9.77592,3.02119c0.71226,0.37602 0.9945,1.25617 0.62532,1.96639c-0.32273,0.61765 -1.04282,0.89857 -1.69629,0.69783z" fill="#231f20" stroke="none" stroke-linecap="butt"/><path d="M243.29177,182.27717l1.59735,1.73282l-1.49086,1.1552c0,0 -17.16758,-11.61709 -24.42859,-12.37728" fill="none" stroke="#231f20" stroke-linecap="round"/><path d="M266.01417,175.35397c-3.51044,1.0983 -10.68899,8.84856 -10.68899,8.84856l-2.53078,-0.69475l2.0744,-2.50729" fill="none" stroke="#231f20" stroke-linecap="round"/><path d="M224.63567,197.46599c0,0 3.1979,-0.32274 6.81538,1.63654" fill="none" stroke="#231f20" stroke-linecap="round"/></g></g></g><g stroke="#000000" stroke-width="1.2"><path d="M239.91879,207.31718c2.86748,-0.07521 5.25303,2.18837 5.32824,5.05585c0.07521,2.86748 -2.18837,5.25303 -5.05585,5.32824c-2.86748,0.07521 -5.25302,-2.18837 -5.32824,-5.05585c-0.07521,-2.86748 2.18837,-5.25302 5.05585,-5.32824z" fill="#5c5e5f" stroke-linecap="butt"/><path d="M237.06039,218.16825l-1.04553,2.43091l-1.94236,-0.04149l-2.46756,1.08159l-0.79718,-2.19769" fill="#9a8479" stroke-linecap="round"/><path d="M238.26249,213.85119l-0.67919,4.23233l-7.04494,2.55545l-3.7542,-2.53558l-0.36679,-3.94147l7.82081,-3.10262z" fill="#9a8479" stroke-linecap="round"/><path d="M235.46821,216.15743l-0.19251,2.4425" fill="none" stroke-linecap="round"/><path d="M231.9728,219.84115l-0.03699,-1.41018" fill="none" stroke-linecap="round"/><path d="M227.76957,216.10281l1.30889,0.99196l0.04036,1.53838l-2.14911,1.21095l-1.69348,-0.98187l-0.04707,-1.79478z" fill="#5c5e5f" stroke-linecap="round"/></g></g></g></svg>