<svg version="1.1" xmlns="http://www.w3.org/2000/svg" xmlns:xlink="http://www.w3.org/1999/xlink" width="87.20721" height="130.23733" viewBox="0,0,87.20721,130.23733"><g transform="translate(-205.52441,-111.31619)"><g data-paper-data="{&quot;isPaintingLayer&quot;:true}" stroke-miterlimit="10" stroke-dasharray="" stroke-dashoffset="0" style="mix-blend-mode: normal"><g fill-rule="evenodd"><path d="M258.54535,202.2317c1.86215,-1.57411 4.02062,-3.64878 5.08735,-6.72138c2.51085,-6.91652 0.20558,-14.85924 4.50702,-14.80265c4.38876,0.00935 10.43095,11.60384 1.64736,20.89104c-3.01313,3.21747 -6.33195,5.01197 -9.0862,6.38777c-0.69871,0.37779 -7.05254,3.01922 -10.73952,1.15559c-3.68698,-1.86362 -2.62334,-3.45976 -2.1118,-4.19015c0.55209,-0.86575 8.00708,-0.58571 10.69581,-2.7202z" fill="#ff7e19" stroke="#001026" stroke-width="1.2" stroke-linecap="round" stroke-linejoin="round"/><path d="M267.70926,181.1673c2.02749,-0.41558 4.86606,2.81434 5.63035,6.37174c0.76427,3.55739 0.20911,5.89961 -0.31801,7.65943c-0.15285,-0.71148 -0.83289,-2.8396 -2.92591,-3.18272c-2.62952,-0.5068 -5.43991,2.03381 -5.43991,2.03381c0,0 0.92944,-4.81352 1.0635,-7.94907c0.32123,-2.78296 0.05607,-4.3413 1.98997,-4.93319z" fill="#ffffff" stroke="none" stroke-width="1" stroke-linecap="butt" stroke-linejoin="miter"/></g><g fill-rule="nonzero" stroke-linecap="round" stroke-linejoin="miter"><path d="M223.53793,227.17029l12.42452,-22.49542c0,0 1.78211,-4.45315 5.10375,-11.5098c1.61385,-3.42855 3.23945,-9.83464 5.87524,-12.11038c4.06475,-3.50951 11.06858,-3.09312 11.06858,-3.09312c0,0 7.71231,0.99244 7.84922,6.27953c0.10893,4.20678 -2.52776,7.88379 -4.15123,12.29762c-1.54895,4.21124 -2.08579,9.26093 -2.08579,9.26093l0.71029,24.18257c0,0 3.86428,0.78099 4.17624,2.81193c0.31196,2.03095 -2.53488,7.87339 -2.53488,7.87339l-17.21316,0.28119l-4.19499,-5.34266l1.35002,-6.28462c0,0 5.66091,-25.86138 3.30975,-20.65426c-1.0491,2.32346 -7.30541,18.51388 -7.30541,18.51388l-2.28121,8.42848l-18.23961,1.60484l-3.44687,-0.76474c0,0 -2.31893,-4.0619 0.63036,-6.91698c2.94928,-2.85507 8.95519,-2.36239 8.95519,-2.36239z" fill="#ff7e19" stroke="#001026" stroke-width="1.2"/><path d="M247.6957,208.23691c0,0 -3.20207,-0.13731 -4.23167,-1.51935" fill="none" stroke="#001026" stroke-width="1.2"/><path d="M246.57267,201.31221c-3.90564,-0.65398 -2.71747,-4.90464 -1.40176,-8.97955c1.47579,-4.57068 3.35445,-9.42706 7.78124,-8.82045c4.85635,0.66547 3.93818,5.43964 2.24437,10.44496c0,0 -2.99547,8.29748 -8.62385,7.35504z" fill="#ffffff" stroke="#000000" stroke-width="0"/></g><path d="M247.35058,232.51217c0,0 2.13421,-2.71583 12.75852,-2.6" fill="none" fill-rule="nonzero" stroke="#001026" stroke-width="1.2" stroke-linecap="round" stroke-linejoin="miter"/><g><g><path d="M222.53219,150.87864c0,0 -15.23761,-23.6204 -14.19447,-23.89027c1.40532,-0.36357 33.75649,1.60398 33.75649,1.60398" fill="#ff7e19" fill-rule="nonzero" stroke="#001026" stroke-width="1.2" stroke-linecap="round" stroke-linejoin="miter"/><path d="M276.00374,140.00124l16.05179,11.36926l-1.40506,6.01214l-29.59999,6.9743z" fill="#9c6041" fill-rule="nonzero" stroke="#001026" stroke-width="1.2" stroke-linecap="round" stroke-linejoin="miter"/><path d="M206.12442,174.41331c4.93697,-2.49814 11.51114,-2.13957 11.51114,-2.13957" fill="none" fill-rule="evenodd" stroke="#001026" stroke-width="1.2" stroke-linecap="round" stroke-linejoin="round"/><path d="M210.68451,183.43845c3.47264,-4.15018 8.65394,-5.50165 8.65394,-5.50165" fill="none" fill-rule="evenodd" stroke="#001026" stroke-width="1.2" stroke-linecap="round" stroke-linejoin="round"/><path d="M236.3258,137.03678c10.07682,-5.35716 41.04454,-6.06029 41.89495,21.8801c0.01108,0.36426 -0.06234,0.72656 -0.1344,1.08719c-2.63157,13.16985 -14.96901,23.25981 -33.86791,26.41598c-18.8989,3.15617 -26.81971,-5.40309 -27.70344,-11.1606c-0.88374,-5.75752 5.02223,-10.22287 5.02223,-10.22287c0,0 -1.4908,-4.24706 -0.43219,-10.52156c0,0 0.49827,-9.65127 15.22077,-17.47824z" fill="#ff7e19" fill-rule="evenodd" stroke="#001026" stroke-width="1.2" stroke-linecap="butt" stroke-linejoin="miter"/><path d="M239.12756,164.08211c8.07337,-2.39595 15.63299,-14.96227 25.67131,-7.30641c10.00311,7.56226 4.30955,25.08919 -20.10129,28.92989c-18.67649,3.17935 -26.79565,-4.77108 -27.67939,-10.5286c-0.88374,-5.75752 4.94067,-9.87166 4.94067,-9.87166c7.28675,-4.77109 10.25368,0.84384 17.16869,-1.22321z" fill="#ffffff" fill-rule="evenodd" stroke="none" stroke-width="1" stroke-linecap="butt" stroke-linejoin="miter"/><path d="M243.3497,161.10493c0.56334,1.49755 -2.4875,5.31624 -4.24266,5.7628c-1.53276,0.46974 -3.92255,-1.62283 -4.32188,-2.96839c-0.15286,-0.69038 1.83585,-1.65217 3.80138,-2.39155c1.87194,-0.70417 4.43425,-1.56122 4.76316,-0.40285z" fill="#001026" fill-rule="evenodd" stroke="#001026" stroke-width="1.2" stroke-linecap="round" stroke-linejoin="round"/><path d="M264.49071,160.64157c0,0 5.82941,-6.33651 8.1672,-5.46145" fill="none" fill-rule="evenodd" stroke="#001026" stroke-width="1.2" stroke-linecap="round" stroke-linejoin="round"/><path d="M267.98515,165.41217c0,0 4.91141,-2.88129 8.56647,-1.87424" fill="none" fill-rule="evenodd" stroke="#001026" stroke-width="1.2" stroke-linecap="round" stroke-linejoin="round"/><path d="M263.42341,141.39241l-42.36043,10.44576l-4.4475,-22.36291l47.02696,-10.59933l16.98074,14.85309l-3.00742,16.96808z" fill="#c46a00" fill-rule="nonzero" stroke="#001026" stroke-width="1.2" stroke-linecap="round" stroke-linejoin="miter"/><path d="M263.48744,119.11249l-0.10468,22.08413" fill="none" fill-rule="nonzero" stroke="#001026" stroke-width="0.75" stroke-linecap="round" stroke-linejoin="miter"/><path d="M271.1867,125.68216l-7.07115,-6.49607c0,0 10.86663,-7.37974 11.96388,-7.26866c1.22964,0.12448 -1.75648,28.842 -1.75648,28.842z" fill="#ff7e19" fill-rule="nonzero" stroke="#001026" stroke-width="1.2" stroke-linecap="round" stroke-linejoin="miter"/></g><g stroke-linecap="butt" stroke-linejoin="miter"><g fill="#001026" fill-rule="evenodd" stroke="#000000" stroke-width="0.5"><path d="M222.9662,159.36692c-0.38729,-1.02956 0.0446,-2.1536 0.98057,-2.50568c0.93597,-0.35209 2.00162,0.20861 2.38891,1.23817c0.38729,1.02956 -0.04459,2.1536 -0.98056,2.50568c-0.93597,0.35209 -2.00162,-0.20861 -2.38891,-1.23817"/></g><g fill="#001026" fill-rule="evenodd" stroke="#000000" stroke-width="0.5"><path d="M254.69668,156.49407c-0.38729,-1.02956 0.07981,-2.06001 0.98056,-2.5057c0.93597,-0.35209 2.00161,0.20861 2.38891,1.23817c0.38729,1.02956 -0.04459,2.15361 -0.98056,2.50569c-0.93597,0.35209 -2.00162,-0.20862 -2.38891,-1.23818"/></g><g fill="none" fill-rule="nonzero" stroke="none" stroke-width="1" font-family="sans-serif" font-weight="normal" font-size="12" text-anchor="start"/></g></g><path d="M253.70053,185.85228c-0.28028,1.43016 0.04213,3.16132 -0.60158,4.40999c-0.09817,0.19043 -0.21882,0.36964 -0.36749,0.53485c-1.76789,1.96445 -8.57102,4.32764 -10.06469,4.51298c-3.22649,0.40034 -6.82864,-2.72852 -6.21108,-6.16318c0.66896,-3.72057 6.36882,-4.62735 8.87461,-5.53473c1.19026,-0.43101 3.52117,-2.06489 4.65885,-1.05486z" fill="#ff7e19" fill-rule="nonzero" stroke="#000000" stroke-width="1.2" stroke-linecap="butt" stroke-linejoin="miter"/><path d="M264.37145,193.61072c-4.81736,2.70981 -8.75986,4.18742 -12.09839,8.95518c-1.17598,1.67942 -2.13205,5.10574 -4.64721,5.24547c-3.38705,0.18817 -6.95716,-2.72228 -6.18718,-6.18718c1.01795,-4.58076 6.65711,-10.33743 10.19672,-13.14631c1.2016,-0.95354 3.21873,-0.82795 4.42172,-1.78458c1.33702,-1.06322 6.80895,-4.46703 8.35202,-1.76665c1.47371,0.86976 2.46233,2.47396 2.46233,4.30908c0,1.62714 -0.77725,3.07275 -1.98072,3.98581c-0.15393,0.14902 -0.32556,0.28022 -0.51928,0.38919z" fill="#ff7e19" fill-rule="nonzero" stroke="#000000" stroke-width="1.2" stroke-linecap="butt" stroke-linejoin="miter"/><g fill-rule="nonzero" stroke="#000000" stroke-width="1.2" stroke-linejoin="miter"><path d="M258.71745,185.17609c-2.62629,-3.93854 -1.56252,-9.26039 2.37601,-11.88668c3.93854,-2.62629 9.2604,-1.56251 11.88669,2.37602c2.62629,3.93854 1.56252,9.26039 -2.37602,11.88669c-3.93854,2.62629 -9.26038,1.56251 -11.88668,-2.37602z" fill="#5c5e5f" stroke-linecap="butt"/><g stroke-linecap="round"><path d="M261.99848,189.1696l-1.28324,4.56453l-2.32969,0.52326l-3.7083,2.47278l-2.52023,-2.85247z" fill="#ff7e19"/><path d="M263.66209,183.93938l-0.90269,6.37123l-3.89858,1.56942l-1.18854,0.99858l-3.61334,1.37921l-0.66555,0.85589l-3.47077,0.666l-4.08945,-4.89677l-0.66634,-6.56123l11.98087,-6.13468z" fill="#ff7e19"/><path d="M258.19496,190.26354l0.8555,-3.04302" fill="none"/><path d="M253.72596,192.83148l0.66521,-3.94636" fill="none"/></g><path d="M249.82721,192.54663l-3.66085,1.61694l-2.9481,-2.56716l0.28486,-3.89878l2.94772,-1.1414l3.51861,2.18672z" fill="#5c5e5f" stroke-linecap="round"/></g><path d="M228.0707,212.91258c0,0 5.67313,-8.87112 11.49247,-11.8111c10.40047,-5.2544 11.23134,5.49326 11.23134,5.49326c0.08663,2.03124 -1.00553,3.22335 -1.00553,3.22335c0,0 3.73495,5.40091 0.39845,8.02299c-2.24987,1.76813 -6.42652,-3.53012 -6.42652,-3.53012l-1.73381,1.00925c0,0 4.33233,5.96319 -0.47288,8.29595c-3.52682,1.71215 -5.90928,-5.68283 -5.90928,-5.68283l-2.77537,0.80264c0,0 -4.73235,5.61376 -7.3893,2.23292c-2.0407,-2.5967 2.59044,-8.05632 2.59044,-8.05632z" fill="#ff7e19" fill-rule="nonzero" stroke="#001026" stroke-width="1.2" stroke-linecap="round" stroke-linejoin="miter"/><path d="M222.92,176.38l2.4,1.2l29.8,-8.4l1,3.8l-24.2,6.4l-0.8,2.2" fill="none" fill-rule="nonzero" stroke="#001026" stroke-width="1.2" stroke-linecap="round" stroke-linejoin="miter"/></g></g></svg>