<svg version="1.1" xmlns="http://www.w3.org/2000/svg" xmlns:xlink="http://www.w3.org/1999/xlink" width="88.48932" height="130.44117" viewBox="0,0,88.48932,130.44117"><g transform="translate(-201.81701,-111.55255)"><g stroke-miterlimit="10"><g fill-rule="evenodd"><path d="M256.88066,202.47713c1.85775,-1.61973 4.00361,-3.74588 5.00262,-6.83254c2.36093,-6.95137 -0.236,-14.78261 4.1662,-14.85192c4.49011,-0.11884 11.01969,11.23476 2.31278,20.72677c-2.98588,3.28755 -6.32723,5.16897 -9.10358,6.61753c-0.70345,0.39609 -7.12426,3.20834 -10.95212,1.46272c-3.82786,-1.74561 -2.78767,-3.36393 -2.28629,-4.10519c0.5388,-0.87705 8.17388,-0.81623 10.86041,-3.01735z" fill="#ff7e19" stroke="#001026" stroke-width="1.2" stroke-linecap="round" stroke-linejoin="round"/><path d="M265.62291,181.26231c2.0617,-0.47246 5.06265,2.65662 5.95139,6.17192c0.88872,3.51529 0.39113,5.8607 -0.09527,7.62612c-0.17774,-0.70306 -0.93736,-2.79949 -3.08889,-3.07959c-2.7053,-0.42721 -5.5041,2.18133 -5.5041,2.18133c0,0 0.80626,-4.81389 0.84923,-7.93592c0.24504,-2.77686 -0.07303,-4.3188 1.88762,-4.96386z" fill="#ffffff" stroke="none" stroke-width="1" stroke-linecap="butt" stroke-linejoin="miter"/></g><g fill-rule="nonzero" stroke-linecap="round" stroke-linejoin="miter"><path d="M221.81613,228.29914l12.03497,-22.73308c0,0 1.68939,-4.48042 4.87557,-11.59481c1.54803,-3.4566 3.01866,-9.87453 5.64679,-12.21457c4.05294,-3.60867 11.23057,-3.39908 11.23057,-3.39908c0,0 7.91972,0.76175 8.21859,6.01544c0.23779,4.18021 -2.34917,7.91375 -3.87746,12.35044c-1.45813,4.23305 -1.85566,9.27033 -1.85566,9.27033l1.45299,24.02736c0,0 3.97673,0.66382 4.35687,2.67436c0.38015,2.01055 -2.35677,7.90362 -2.35677,7.90362l-17.60111,0.78219l-4.45207,-5.19047l1.19234,-6.28909c0,0 5.0145,-25.88285 2.7656,-20.63604c-1.00347,2.34117 -6.91756,18.62422 -6.91756,18.62422l-2.08058,8.44821l-18.61144,2.12845l-3.54922,-0.65985c0,0 -2.49433,-3.97161 0.43712,-6.89692c2.93144,-2.9253 9.09046,-2.61071 9.09046,-2.61071z" fill="#ff7e19" stroke="#001026" stroke-width="1.2"/><path d="M245.96153,208.76572c0,0 -3.27993,-0.04306 -4.37475,-1.38735" fill="none" stroke="#001026" stroke-width="1.2"/><path d="M244.60465,201.91231c-4.01522,-0.53631 -2.92736,-4.79803 -1.70375,-8.88869c1.37249,-4.58835 3.14855,-9.47258 7.6955,-8.99859c4.98817,0.51998 4.19226,5.29441 2.60978,10.32135c0,0 -2.81523,8.3388 -8.60153,7.56593z" fill="#ffffff" stroke="#000000" stroke-width="0"/></g><path d="M246.3376,232.91606c0,0 2.10178,-2.76304 12.97424,-2.95805" fill="none" fill-rule="nonzero" stroke="#001026" stroke-width="1.2" stroke-linecap="round" stroke-linejoin="miter"/><g><g><path d="M218.49574,152.4611c0,0 -16.29797,-23.04416 -15.23891,-23.34299c1.42676,-0.40258 34.58203,0.60949 34.58203,0.60949" fill="#ff7e19" fill-rule="nonzero" stroke="#001026" stroke-width="1.2" stroke-linecap="round" stroke-linejoin="miter"/><path d="M272.87194,140.083l16.76292,10.83738l-1.25684,6.01973l-30.07215,7.79974z" fill="#9c6041" fill-rule="nonzero" stroke="#001026" stroke-width="1.2" stroke-linecap="round" stroke-linejoin="miter"/><path d="M202.41701,176.34395c4.97563,-2.62839 11.71196,-2.46376 11.71196,-2.46376" fill="none" fill-rule="evenodd" stroke="#001026" stroke-width="1.2" stroke-linecap="round" stroke-linejoin="round"/><path d="M207.35319,185.18576c3.42795,-4.22849 8.68798,-5.72372 8.68798,-5.72372" fill="none" fill-rule="evenodd" stroke="#001026" stroke-width="1.2" stroke-linecap="round" stroke-linejoin="round"/><path d="M232.19124,138.29348c10.14797,-5.62158 41.8077,-7.22495 43.51692,20.53524c0.02228,0.36191 -0.04195,0.72434 -0.10484,1.08507c-2.2966,13.17345 -14.61509,23.56751 -33.8544,27.25791c-19.23931,3.6904 -27.59961,-4.59 -28.67663,-10.28969c-1.07702,-5.6997 4.83083,-10.31265 4.83083,-10.31265c0,0 -1.6527,-4.17992 -0.75817,-10.45043c0,0 0.21986,-9.61215 15.0463,-17.82544z" fill="#ff7e19" fill-rule="evenodd" stroke="#001026" stroke-width="1.2" stroke-linecap="butt" stroke-linejoin="miter"/><path d="M235.86985,165.10662c8.18732,-2.61834 15.54359,-15.3355 26.04302,-8.0153c10.46061,7.22815 5.16237,24.82385 -19.69525,29.3559c-19.01109,3.70696 -27.55602,-3.96221 -28.63304,-9.66191c-1.07702,-5.6997 4.75794,-9.96102 4.75794,-9.96102c7.31125,-4.95731 10.51515,0.53977 17.52732,-1.71768z" fill="#ffffff" fill-rule="evenodd" stroke="none" stroke-width="1" stroke-linecap="butt" stroke-linejoin="miter"/><path d="M240.0998,162.02272c0.62129,1.47277 -2.3851,5.3593 -4.16727,5.85463c-1.55395,0.51188 -4.06162,-1.49928 -4.51056,-2.8257c-0.17712,-0.68208 1.8285,-1.69658 3.81709,-2.48924c1.8939,-0.75491 4.48947,-1.682 4.86075,-0.53968z" fill="#001026" fill-rule="evenodd" stroke="#001026" stroke-width="1.2" stroke-linecap="round" stroke-linejoin="round"/><path d="M261.71373,160.94469c0,0 5.77333,-6.47147 8.19124,-5.66953" fill="none" fill-rule="evenodd" stroke="#001026" stroke-width="1.2" stroke-linecap="round" stroke-linejoin="round"/><path d="M265.43194,165.58674c0,0 4.93797,-3.00866 8.70745,-2.11393" fill="none" fill-rule="evenodd" stroke="#001026" stroke-width="1.2" stroke-linecap="round" stroke-linejoin="round"/><path d="M260.04369,141.83373l-43.02218,11.62445l-5.22161,-22.1087l47.79156,-11.91342l17.81791,14.27471l-2.56702,16.96153z" fill="#c46a00" fill-rule="nonzero" stroke="#001026" stroke-width="1.2" stroke-linecap="round" stroke-linejoin="miter"/><path d="M259.43999,119.67584l0.55623,21.96438" fill="none" fill-rule="nonzero" stroke="#001026" stroke-width="0.75" stroke-linecap="round" stroke-linejoin="miter"/><path d="M267.51388,125.98418l-7.4291,-6.25349c0,0 10.89521,-7.65597 12.02107,-7.57754c1.2617,0.08789 -0.93063,28.7329 -0.93063,28.7329z" fill="#ff7e19" fill-rule="nonzero" stroke="#001026" stroke-width="1.2" stroke-linecap="round" stroke-linejoin="miter"/></g><g stroke-linecap="butt" stroke-linejoin="miter"><g fill="#001026" fill-rule="evenodd" stroke="#000000" stroke-width="0.5"><path d="M219.19469,160.8895c-0.42713,-1.01253 -0.01906,-2.14293 0.92789,-2.52038c0.94695,-0.37746 2.05398,0.14901 2.48111,1.16154c0.42713,1.01253 0.01907,2.14293 -0.92788,2.52038c-0.94695,0.37746 -2.05398,-0.14901 -2.48111,-1.16154"/></g><g fill="#001026" fill-rule="evenodd" stroke="#000000" stroke-width="0.5"><path d="M251.56959,157.10621c-0.42713,-1.01253 0.01977,-2.05088 0.92788,-2.5204c0.94695,-0.37746 2.05397,0.14901 2.48111,1.16154c0.42713,1.01253 0.01907,2.14294 -0.92788,2.52039c-0.94695,0.37746 -2.05398,-0.14902 -2.48111,-1.16155"/></g><g fill="none" fill-rule="nonzero" stroke="none" stroke-width="1" font-family="sans-serif" font-weight="normal" font-size="12" text-anchor="start"/></g></g><path d="M251.4323,186.33024c-0.24378,1.43039 0.13805,3.14251 -0.48298,4.40303c-0.09471,0.19224 -0.21276,0.37397 -0.35989,0.54261c-1.7496,2.00514 -8.63841,4.55382 -10.16091,4.78174c-3.28877,0.49232 -7.06785,-2.51397 -6.53923,-5.94757c0.57261,-3.71941 6.3765,-4.78757 8.91274,-5.76306c1.20472,-0.46336 3.54024,-2.15621 4.73445,-1.18502z" fill="#ff7e19" fill-rule="nonzero" stroke="#000000" stroke-width="1.2" stroke-linecap="butt" stroke-linejoin="miter"/><path d="M262.58199,193.73399c-4.8469,2.83539 -8.83581,4.41989 -12.10802,9.25861c-1.15262,1.70442 -2.02779,5.1396 -4.59668,5.35198c-3.4594,0.28601 -7.19914,-2.50402 -6.5155,-5.97213c0.9038,-4.58501 6.49992,-10.47431 10.03667,-13.37092c1.20063,-0.98332 3.26798,-0.91732 4.46994,-1.90376c1.33587,-1.09634 6.83158,-4.64099 8.49129,-2.00068c1.53377,0.8219 2.59334,2.38831 2.64846,4.21323c0.04887,1.61809 -0.70286,3.07836 -1.90662,4.02148c-0.153,0.15269 -0.32464,0.28817 -0.51955,0.40219z" fill="#ff7e19" fill-rule="nonzero" stroke="#000000" stroke-width="1.2" stroke-linecap="butt" stroke-linejoin="miter"/><g fill-rule="nonzero" stroke="#000000" stroke-width="1.2" stroke-linejoin="miter"><path d="M256.54444,185.51134c-2.80507,-3.83996 -1.87665,-9.16327 2.0737,-11.88995c3.95036,-2.72668 9.42672,-1.82419 12.23179,2.01576c2.80507,3.83996 1.87665,9.16327 -2.07371,11.88996c-3.95036,2.72668 -9.4267,1.82419 -12.23178,-2.01576z" fill="#5c5e5f" stroke-linecap="butt"/><g stroke-linecap="round"><path d="M260.02098,189.38685l-1.17569,4.57661l-2.36762,0.58837l-3.71942,2.5673l-2.66394,-2.76303z" fill="#ff7e19"/><path d="M261.56581,184.13714l-0.73211,6.36216l-3.94122,1.67452l-1.18592,1.02773l-3.65512,1.47704l-0.65517,0.87056l-3.53069,0.76363l-4.3307,-4.75014l-0.87876,-6.50529l12.07251,-6.45037z" fill="#ff7e19"/><path d="M256.16273,190.58575l0.7838,-3.05108" fill="none"/><path d="M252.22994,189.32605l-0.562,3.94384" fill="none"/></g><path d="M247.67086,193.10046l-3.69659,1.71483l-3.0931,-2.46681l0.17432,-3.88542l2.98132,-1.22112l3.66532,2.07183z" fill="#5c5e5f" stroke-linecap="round"/></g><path d="M226.02504,213.98837c0,0 5.53732,-8.98743 11.40237,-12.08096c10.48216,-5.52884 11.65498,5.1348 11.65498,5.1348c0.14964,2.01742 -0.93187,3.23478 -0.93187,3.23478c0,0 3.98318,5.26183 0.6486,7.96674c-2.24857,1.82399 -6.68054,-3.32286 -6.68054,-3.32286l-1.74342,1.05426c0,0 4.61121,5.80354 -0.23459,8.26362c-3.55661,1.8056 -6.21605,-5.4787 -6.21605,-5.4787l-2.81517,0.87921c0,0 -4.67271,5.72071 -7.4924,2.43625c-2.16569,-2.52268 2.40811,-8.08715 2.40811,-8.08715z" fill="#ff7e19" fill-rule="nonzero" stroke="#001026" stroke-width="1.2" stroke-linecap="round" stroke-linejoin="miter"/><path d="M219.65844,177.80933l2.49131,1.12326l30.23394,-9.22335l1.13717,3.74967l-24.56506,7.07097l-0.75234,2.21112" fill="none" fill-rule="nonzero" stroke="#001026" stroke-width="1.2" stroke-linecap="round" stroke-linejoin="miter"/></g></g></svg>