<svg version="1.1" xmlns="http://www.w3.org/2000/svg" xmlns:xlink="http://www.w3.org/1999/xlink" width="128.80896" height="226.47961" viewBox="0,0,128.80896,226.47961"><defs><radialGradient cx="224.12609" cy="159.79679" r="38.25582" gradientUnits="userSpaceOnUse" id="color-1"><stop offset="0" stop-color="#180036"/><stop offset="1" stop-color="#1d1d1d"/></radialGradient></defs><g transform="translate(-173.0651,-89.57007)"><g stroke-miterlimit="10"><g stroke="#000000"><g stroke-width="0" stroke-linecap="round"><path d="M253.911,192.36611l3.82509,9.96281l-4.04988,-0.20722l2.49023,7.09607l-10.31897,18.29289l-14.14958,-15.15515l0.12119,-7.73066l-4.48466,1.85565l3.05361,-11.42161" fill="#0063eb"/><path d="M250.0248,191.52455l2.62767,6.84402l-2.78209,-0.14235l2.12029,8.45131l-7.08868,12.56643l-9.72015,-10.41092l-0.32635,-8.88725l-3.08076,1.27475l2.09769,-7.84615" fill="#629beb"/></g><path d="M227.60715,197.05607l-5.50709,-51.01616c0,0 -1.85981,-16.3734 11.82691,-17.81691c14.35353,-1.51383 16.19857,14.60731 16.19857,14.60731l5.83825,50.97822c0,0 -2.73382,3.17135 -14.10622,4.63512c-11.69691,1.50554 -14.25042,-1.38759 -14.25042,-1.38759z" fill="#5d5d5d" stroke-width="1.2" stroke-linecap="butt"/></g><g stroke="#000000"><g stroke-width="0" stroke-linecap="round"><path d="M202.44917,196.80174l1.00413,10.62453l-3.84486,-1.28899l0.48963,7.50438l-14.85935,14.84286l-9.55135,-18.40274l2.19625,-7.41312l-4.81852,0.58089l6.01343,-10.17921" fill="#0063eb"/><path d="M198.93257,194.94583l0.68979,7.29858l-2.64126,-0.88548l-0.23123,8.71016l-10.20773,10.1964l-6.56136,-12.64188l2.07632,-8.64746l-3.31012,0.39904l4.13097,-6.99267" fill="#629beb"/></g><path d="M175.85326,194.24317l8.41911,-50.61714c0,0 2.61314,-16.27018 16.18368,-13.97879c14.2317,2.40302 11.67219,18.42627 11.67219,18.42627l-8.08995,50.66969c0,0 -3.48613,2.31907 -14.83312,0.66974c-11.67077,-1.69639 -13.35191,-5.16976 -13.35191,-5.16976z" fill="#5d5d5d" stroke-width="1.2" stroke-linecap="butt"/></g><g stroke="#000000" stroke-width="1.2"><path d="M264.57653,213.99626l-7.51201,-2.24926l-1.91212,-13.4683l-3.57035,-11.01668l2.66608,-3.80815l4.26639,-1.57156l10.53389,6.85315l11.6259,5.74481l-0.5055,7.80305l-6.23959,7.04104z" fill="#707070" stroke-linecap="round"/><path d="M282.38187,235.35382l-18.87504,-27.07943l-1.92457,2.02696l6.83688,-7.16813l9.46921,-5.6863l-2.77089,1.71673l20.78454,26.30238" fill="#5d5d5d" stroke-linecap="round"/><path d="M296.91696,240.82937c-4.45789,3.26022 -10.71466,2.28932 -13.97488,-2.16857c-3.26022,-4.45789 -2.28932,-10.71466 2.16857,-13.97488c4.45789,-3.26022 10.71466,-2.28933 13.97488,2.16857c3.26022,4.45789 2.28933,10.71466 -2.16856,13.97488z" fill="#707070" stroke-linecap="butt"/></g><g stroke="#000000" stroke-width="1.2"><path d="M189.79733,120.51385c1.34366,9.01061 -0.28839,16.72095 -3.64527,17.22153c-3.3569,0.50058 -7.16745,-6.39815 -8.5111,-15.40877c-1.34366,-9.01061 0.28839,-16.72096 3.64527,-17.22153c3.3569,-0.50058 7.16745,6.39816 8.5111,15.40878z" fill="#454545" stroke-linecap="butt"/><path d="M193.94786,150.5464l-4.75828,-35.28442l0.56798,6.31141l-6.99601,0.77502l-2.9148,-17.05167l9.96124,-12.98979l7.6151,-0.54467l6.496,54.91169" fill="#5d5d5d" stroke-linecap="round"/></g><g stroke="#000000" stroke-width="1.2"><path d="M260.2593,117.90295c-0.98695,9.05663 -4.52223,16.1004 -7.89626,15.73272c-1.46809,-0.15998 -2.66375,-1.69677 -3.46481,-4.12798c-1.04,-3.15636 -1.41492,-7.82026 -0.8574,-12.93625c0.98694,-9.05663 4.52223,-16.10041 7.89626,-15.73271c3.37404,0.36769 5.30915,8.0076 4.3222,17.06422z" fill="#454545" stroke-linecap="butt"/><path d="M252.45455,147.60438l4.35163,-35.33687l-1.05225,6.24894l-3.07706,-1.27724l1.50783,-17.23316l9.04495,-9.78518l7.50404,1.40565l-7.6516,54.76263" fill="#5d5d5d" stroke-linecap="round"/></g><g stroke="#000000" stroke-width="1.2"><g fill="#5d5d5d" stroke-linecap="round"><path d="M203.67995,255.45367l-0.05149,32.75854l-6.96642,1.64893l-7.60374,-1.61834l-2.12453,-32.43197"/><g><path d="M202.46877,280.73524l3.83445,3.91913l1.10638,4.97754l3.87708,5.91867l-4.06245,8.83864l-7.17372,3.65381l-7.60552,-16.5916l-2.83467,-3.94045"/><path d="M206.61151,293.64984l1.47204,2.96929l0.30397,3.24426l4.12815,6.41344l-1.35477,2.52946l-1.26947,6.52855l-5.16295,0.11012l-1.43473,-1.21968l1.75483,-5.78873l-1.98938,-5.20876l-2.34679,0.05004l-1.06678,5.02389l0.30398,3.24426l-1.3601,2.27953l-5.88831,-0.87464l0.59742,-5.01388l-1.27469,-4.72389l-2.56548,0.80488l1.74937,4.96383l-1.55213,4.28406l-4.69893,-0.14984l-0.52267,-2.48941l-2.73607,-7.19329l1.71218,-7.78828l-0.15992,-7.49829l1.56667,-5.03456l4.81803,-2.38734"/></g></g><g><path d="M197.07681,224.03983l-9.05155,-2.5648l-4.63356,-6.29867l6.69272,-11.10729l5.1754,-11.45181l4.44037,-0.97721l4.2988,1.76929l2.93409,11.20295l5.65261,12.37333l-5.11325,5.9451z" fill="#707070" stroke-linecap="round"/><path d="M187.27715,249.48238l3.31975,-33.35853l-3.25924,0.04849l11.04079,-0.31768l9.62308,2.34974l-2.7138,-0.66914l-1.29266,32.9832" fill="#5d5d5d" stroke-linecap="round"/><path d="M185.34493,252.3684c0.34161,-5.51227 5.08714,-9.70391 10.59941,-9.3623c5.51227,0.34161 9.70391,5.08713 9.36229,10.59941c-0.34161,5.51227 -5.08713,9.70391 -10.5994,9.3623c-5.51227,-0.34161 -9.70391,-5.08713 -9.3623,-10.5994z" fill="#707070" stroke-linecap="butt"/></g></g><g><g stroke-linecap="butt"><g><path d="M184.77745,166.21276c0.47324,-25.55176 21.57067,-45.88191 47.12243,-45.40866c25.55176,0.47324 45.88191,21.57067 45.40866,47.12243c-0.47324,25.55176 -21.57067,45.88191 -47.12243,45.40866c-25.55176,-0.47324 -45.88191,-21.57067 -45.40866,-47.12243z" fill="#5d5d5d" stroke="#000000" stroke-width="1.2"/><path d="M232.20863,121.45135c0,0 1.49131,0.04561 2.22977,0.0949c24.13989,1.61074 43.0023,21.9247 42.54947,46.37433c-0.449,24.24294 -19.72443,43.71942 -43.62512,44.74477c-0.94116,0.04038 -2.84413,0.03446 -2.84413,0.03446z" fill="#686868" stroke="#000000" stroke-width="0"/><path d="M190.86981,166.3256c0.42076,-22.7183 19.17868,-40.79402 41.89698,-40.37325c22.7183,0.42076 40.79403,19.17868 40.37326,41.89698c-0.42076,22.7183 -19.17868,40.79402 -41.89699,40.37325c-22.7183,-0.42076 -40.79402,-19.17867 -40.37325,-41.89698z" fill="#707070" stroke="#838383" stroke-width="0"/><path d="M193.75567,166.37905c0.39125,-21.12448 17.83319,-37.93208 38.95766,-37.54084c21.12448,0.39125 37.93209,17.83319 37.54085,38.95766c-0.39125,21.12448 -17.8332,37.93209 -38.95767,37.54085c-21.12448,-0.39125 -37.93208,-17.8332 -37.54084,-38.95767z" fill="url(#color-1)" stroke="#000000" stroke-width="1.2"/></g><g stroke="#000000"><path d="M194.499,177.78624c0,0 -2.44721,-6.88846 -2.31732,-11.50759c0.1299,-4.61914 2.96331,-11.46385 2.96331,-11.46385c0.34492,0.02258 1.20594,0.08449 1.67236,0.16709c5.51801,0.97721 9.66075,5.84739 9.55369,11.62753c-0.1119,6.04181 -4.8271,10.91816 -10.73881,11.34617c-0.35107,0.02541 -1.06514,0.0285 -1.06514,0.0285c0,0 -0.02423,-0.06923 -0.06809,-0.19783z" fill="#707070" stroke-width="0"/><path d="M195.145,154.81478c0.34492,0.02258 1.20594,0.08449 1.67236,0.16709c5.518,0.97721 9.66075,5.84739 9.55369,11.62753c-0.1119,6.04181 -4.8271,10.91816 -10.73881,11.34617c-0.35107,0.02541 -1.06514,0.0285 -1.06514,0.0285c0,0 -0.02423,-0.06922 -0.06809,-0.19783" fill="none" stroke-width="1.2"/></g><g stroke="#000000"><path d="M269.05003,178.95371c-0.03332,0.12718 -0.05166,0.19563 -0.05166,0.19563c0,0 -0.47756,-0.02516 -0.71158,-0.06142c-3.94114,-0.6105 -6.94444,-5.62979 -6.83254,-11.67159c0.10705,-5.78014 3.02869,-10.51948 6.74992,-11.32557c0.31455,-0.06814 0.8924,-0.1034 1.12382,-0.11531c0,0 1.75372,4.6012 1.62783,11.54888c-0.12228,6.74815 -1.90576,11.42938 -1.90576,11.42938z" fill="#707070" stroke-width="0"/><path d="M269.05003,178.95371c-0.03332,0.12718 -0.05166,0.19563 -0.05166,0.19563c0,0 -0.47756,-0.02516 -0.71158,-0.06142c-3.94114,-0.6105 -6.94444,-5.62979 -6.83254,-11.67159c0.10705,-5.78014 3.02869,-10.51948 6.74992,-11.32557c0.31455,-0.06814 0.8924,-0.1034 1.12382,-0.11531" fill="none" stroke-width="1.2"/></g><path d="M193.67527,169.4443l0.11597,-6.26181l4.57313,-1.4813l4.3815,1.64715l-0.11597,6.26181l-4.57555,1.61175z" fill="#21cc26" stroke="#17921c" stroke-width="1.2"/><path d="M263.79853,170.74304l0.11597,-6.26181l3.13055,-1.50802l2.98133,1.62122l-0.11597,6.26181l-3.13296,1.63847z" fill="#21cc26" stroke="#17921c" stroke-width="1.2"/></g><g stroke-linecap="round"><path d="M225.85076,138.81141l2.20044,0.04075l0.3642,-1.09385l1.5803,0.09805l1.26831,-1.6274l0.71565,-1.50007l0.93342,-2.11513l0.64561,2.28195l1.20717,1.67326l1.28104,1.39947l2.52516,1.07859l1.22501,0.71056l-1.11678,0.87356l-1.23647,-0.09169l-1.67071,1.06966l-1.19445,1.35362l-1.06584,1.83752l-0.65453,1.91392l-0.88501,-0.4979l-0.16427,-2.27303l-0.75641,-0.01401l-0.04583,-1.23902l-1.5561,-1.40458l-1.70636,-0.71947l-1.70892,-0.58196z" fill="#eee796" stroke="#eee796" stroke-width="0.25"/><path d="M225.8441,140.03743l0.02522,-1.36153l2.2692,0.04203l0.01681,-0.90768l1.81537,0.03362l0.02101,-1.13461l1.21024,0.02241l-0.70368,-0.01303" fill="none" stroke="#cec344" stroke-width="0.75"/><path d="M231.2202,135.74665l-0.01824,0.98504l0.03362,-1.81537l0.90768,0.01681l0.04203,-2.26921l1.36153,0.02522" fill="none" stroke="#cec344" stroke-width="0.75"/><path d="M235.13755,136.80457l-0.70368,-0.01303l1.21024,0.02241l-0.02101,1.13461l1.81537,0.03362l-0.01681,0.90768l2.2692,0.04203l-0.02522,1.36153" fill="none" stroke="#cec344" stroke-width="0.75"/><path d="M232.24031,132.66494l1.36153,0.02522l-0.04203,2.26921l0.90768,0.01681l-0.03362,1.81537l0.01824,-0.98505" fill="none" stroke="#cec344" stroke-width="0.75"/><path d="M230.395,142.29541l0.70368,0.01303l-1.21024,-0.02241l0.02101,-1.13461l-1.81537,-0.03362l0.01681,-0.90768l-2.2692,-0.04203l0.02522,-1.36153" fill="none" stroke="#cec344" stroke-width="0.75"/><path d="M233.29224,146.43504l-1.36153,-0.02522l0.04203,-2.26921l-0.90768,-0.01681l0.03362,-1.81536l-0.01824,0.98504" fill="none" stroke="#cec344" stroke-width="0.75"/><path d="M239.68843,139.06255l-0.02522,1.36153l-2.2692,-0.04203l-0.01681,0.90768l-1.81537,-0.03362l-0.02101,1.13461l-1.21024,-0.02241l0.70368,0.01303" fill="none" stroke="#cec344" stroke-width="0.75"/><path d="M234.31234,143.35333l0.01824,-0.98504l-0.03362,1.81537l-0.90768,-0.01681l-0.04203,2.26921l-1.36153,-0.02522" fill="none" stroke="#cec344" stroke-width="0.75"/></g><g stroke-linecap="round"><path d="M224.82611,194.13526l2.20044,0.04075l0.3642,-1.09385l1.5803,0.09805l1.26831,-1.6274l0.71565,-1.50007l0.93342,-2.11513l0.64561,2.28195l1.20717,1.67326l1.28104,1.39947l2.52516,1.07859l1.22501,0.71056l-1.11678,0.87356l-1.23647,-0.09169l-1.67071,1.06966l-1.19445,1.35363l-1.06584,1.83752l-0.65453,1.91392l-0.88501,-0.4979l-0.16427,-2.27303l-0.75641,-0.01401l-0.04583,-1.23902l-1.5561,-1.40457l-1.70636,-0.71948l-1.70892,-0.58195z" fill="#eee796" stroke="#eee796" stroke-width="0.25"/><path d="M224.81945,195.36128l0.02522,-1.36153l2.2692,0.04203l0.01681,-0.90768l1.81537,0.03362l0.02101,-1.1346l1.21024,0.02241l-0.70368,-0.01303" fill="none" stroke="#cec344" stroke-width="0.75"/><path d="M230.19556,191.07049l-0.01824,0.98504l0.03362,-1.81537l0.90768,0.01681l0.04203,-2.26921l1.36153,0.02522" fill="none" stroke="#cec344" stroke-width="0.75"/><path d="M234.1129,192.12842l-0.70368,-0.01303l1.21024,0.02241l-0.02101,1.1346l1.81537,0.03362l-0.01681,0.90768l2.2692,0.04203l-0.02522,1.36153" fill="none" stroke="#cec344" stroke-width="0.75"/><path d="M231.21566,187.98879l1.36153,0.02522l-0.04203,2.26921l0.90768,0.01681l-0.03362,1.81537l0.01824,-0.98505" fill="none" stroke="#cec344" stroke-width="0.75"/><path d="M229.37035,197.61925l0.70368,0.01303l-1.21024,-0.02241l0.02101,-1.1346l-1.81537,-0.03362l0.01681,-0.90768l-2.2692,-0.04203l0.02522,-1.36153" fill="none" stroke="#cec344" stroke-width="0.75"/><path d="M232.26759,201.75888l-1.36153,-0.02522l0.04203,-2.26921l-0.90768,-0.01681l0.03362,-1.81537l-0.01824,0.98505" fill="none" stroke="#cec344" stroke-width="0.75"/><path d="M238.66378,194.38639l-0.02522,1.36153l-2.2692,-0.04203l-0.01681,0.90768l-1.81537,-0.03362l-0.02101,1.1346l-1.21024,-0.02241l0.70368,0.01303" fill="none" stroke="#cec344" stroke-width="0.75"/><path d="M233.28769,198.67718l0.01824,-0.98505l-0.03362,1.81537l-0.90768,-0.01681l-0.04203,2.26921l-1.36153,-0.02522" fill="none" stroke="#cec344" stroke-width="0.75"/></g><g stroke-linecap="round"><path d="M247.90293,142.59919l1.52713,1.58476l1.031,-0.51595l1.0481,1.18677l2.04758,-0.25392l1.56676,-0.55466l2.15564,-0.8356l-1.15706,2.07009l-0.32957,2.03679l-0.08374,1.8954l1.02289,2.54824l0.36377,1.36865l-1.40738,-0.17198l-0.80949,-0.93915l-1.93773,-0.42501l-1.80176,0.11255l-2.05299,0.54566l-1.81617,0.89052l-0.27374,-0.97787l1.49112,-1.72342l-0.52496,-0.54476l0.84371,-0.90853l-0.10714,-2.09351l-0.69784,-1.71533l-0.79688,-1.61988z" fill="#eee796" stroke="#eee796" stroke-width="0.25"/><path d="M247.0313,143.4614l0.98058,-0.94491l1.57486,1.63428l0.65371,-0.62993l1.25989,1.30743l0.81714,-0.78743l0.83992,0.87162l-0.48836,-0.50679" fill="none" stroke="#cec344" stroke-width="0.75"/><path d="M253.86682,144.22884l-0.70942,0.68362l1.30743,-1.25989l0.62994,0.65372l1.63428,-1.57485l0.94491,0.98058" fill="none" stroke="#cec344" stroke-width="0.75"/><path d="M255.88873,147.74689l-0.48836,-0.5068l0.83992,0.87162l-0.81714,0.78742l1.25989,1.30743l-0.65371,0.62993l1.57486,1.63429l-0.98058,0.94491" fill="none" stroke="#cec344" stroke-width="0.75"/><path d="M256.76723,142.77106l0.94491,0.98058l-1.63429,1.57486l0.62994,0.65372l-1.30743,1.25989l0.70943,-0.68363" fill="none" stroke="#cec344" stroke-width="0.75"/><path d="M248.65263,148.276l0.48836,0.50679l-0.83991,-0.87162l0.81714,-0.78742l-1.25989,-1.30743l0.65372,-0.62994l-1.57486,-1.63429l0.98058,-0.94491" fill="none" stroke="#cec344" stroke-width="0.75"/><path d="M247.77413,153.25182l-0.94491,-0.98058l1.63429,-1.57486l-0.62994,-0.65372l1.30742,-1.25988l-0.70943,0.68363" fill="none" stroke="#cec344" stroke-width="0.75"/><path d="M257.51007,152.56148l-0.98058,0.94491l-1.57485,-1.63429l-0.65372,0.62994l-1.25989,-1.30743l-0.81714,0.78742l-0.83992,-0.87162l0.48837,0.5068" fill="none" stroke="#cec344" stroke-width="0.75"/><path d="M250.67454,151.79405l0.70943,-0.68363l-1.30743,1.25989l-0.62994,-0.65372l-1.63428,1.57485l-0.94491,-0.98058" fill="none" stroke="#cec344" stroke-width="0.75"/></g><g stroke-linecap="round"><path d="M208.05852,180.99452l1.52714,1.58476l1.031,-0.51595l1.0481,1.18677l2.04758,-0.25392l1.56676,-0.55466l2.15564,-0.8356l-1.15706,2.07009l-0.32957,2.03678l-0.08374,1.89541l1.02289,2.54824l0.36378,1.36865l-1.40739,-0.17198l-0.80949,-0.93916l-1.93773,-0.42501l-1.80176,0.11254l-2.05299,0.54567l-1.81617,0.89052l-0.27374,-0.97787l1.49112,-1.72343l-0.52495,-0.54476l0.84371,-0.90853l-0.10715,-2.09351l-0.69784,-1.71533l-0.79688,-1.61988z" fill="#eee796" stroke="#eee796" stroke-width="0.25"/><path d="M207.18689,181.85674l0.98058,-0.94491l1.57485,1.63428l0.65372,-0.62994l1.25989,1.30743l0.81714,-0.78742l0.83992,0.87162l-0.48836,-0.50679" fill="none" stroke="#cec344" stroke-width="0.75"/><path d="M214.02241,182.62417l-0.70943,0.68363l1.30743,-1.25989l0.62994,0.65372l1.63429,-1.57486l0.94491,0.98058" fill="none" stroke="#cec344" stroke-width="0.75"/><path d="M216.04432,186.14222l-0.48836,-0.50679l0.83992,0.87162l-0.81714,0.78742l1.25989,1.30743l-0.65372,0.62994l1.57486,1.63429l-0.98058,0.94491" fill="none" stroke="#cec344" stroke-width="0.75"/><path d="M216.92283,181.1664l0.94491,0.98058l-1.63429,1.57486l0.62994,0.65372l-1.30743,1.25988l0.70943,-0.68363" fill="none" stroke="#cec344" stroke-width="0.75"/><path d="M208.80823,186.67133l0.48836,0.50679l-0.83992,-0.87162l0.81714,-0.78742l-1.25989,-1.30742l0.65372,-0.62994l-1.57486,-1.63429l0.98058,-0.94491" fill="none" stroke="#cec344" stroke-width="0.75"/><path d="M207.92973,191.64715l-0.94491,-0.98058l1.63429,-1.57486l-0.62994,-0.65372l1.30743,-1.25989l-0.70944,0.68363" fill="none" stroke="#cec344" stroke-width="0.75"/><path d="M217.66566,190.95681l-0.98058,0.94491l-1.57486,-1.63429l-0.65372,0.62994l-1.25989,-1.30743l-0.81714,0.78742l-0.83991,-0.87162l0.48836,0.50679" fill="none" stroke="#cec344" stroke-width="0.75"/><path d="M210.83014,190.18938l0.70943,-0.68363l-1.30743,1.25989l-0.62994,-0.65372l-1.63429,1.57486l-0.94491,-0.98058" fill="none" stroke="#cec344" stroke-width="0.75"/></g><g stroke-linecap="round"><path d="M207.57916,151.72629l1.58476,-1.52714l-0.51595,-1.031l1.18677,-1.0481l-0.25392,-2.04758l-0.55466,-1.56676l-0.8356,-2.15563l2.07009,1.15706l2.03678,0.32957l1.89541,0.08374l2.54823,-1.02289l1.36866,-0.36378l-0.17199,1.40739l-0.93915,0.80949l-0.42501,1.93773l0.11254,1.80176l0.54566,2.05299l0.89052,1.81617l-0.97787,0.27374l-1.72342,-1.49112l-0.54476,0.52495l-0.90853,-0.84371l-2.09351,0.10715l-1.71533,0.69784l-1.61988,0.79688z" fill="#eee796" stroke="#eee796" stroke-width="0.25"/><path d="M208.44137,152.59792l-0.94491,-0.98058l1.63429,-1.57486l-0.62994,-0.65372l1.30743,-1.25989l-0.78742,-0.81714l0.87162,-0.83992l-0.50679,0.48836" fill="none" stroke="#cec344" stroke-width="0.75"/><path d="M209.20881,145.76239l0.68363,0.70943l-1.25989,-1.30743l0.65372,-0.62994l-1.57485,-1.63429l0.98058,-0.94491" fill="none" stroke="#cec344" stroke-width="0.75"/><path d="M212.72686,143.74049l-0.50679,0.48836l0.87162,-0.83992l0.78742,0.81714l1.30743,-1.25989l0.62994,0.65372l1.63428,-1.57486l0.94491,0.98058" fill="none" stroke="#cec344" stroke-width="0.75"/><path d="M207.75104,142.86199l0.98058,-0.94491l1.57486,1.63429l0.65372,-0.62994l1.25989,1.30743l-0.68363,-0.70943" fill="none" stroke="#cec344" stroke-width="0.75"/><path d="M213.25597,150.97658l0.50679,-0.48836l-0.87162,0.83992l-0.78742,-0.81714l-1.30743,1.25989l-0.62994,-0.65372l-1.63429,1.57485l-0.94491,-0.98058" fill="none" stroke="#cec344" stroke-width="0.75"/><path d="M218.2318,151.85509l-0.98058,0.94491l-1.57486,-1.63429l-0.65372,0.62994l-1.25988,-1.30742l0.68363,0.70943" fill="none" stroke="#cec344" stroke-width="0.75"/><path d="M217.54145,142.11915l0.94491,0.98058l-1.63429,1.57486l0.62994,0.65372l-1.30743,1.25989l0.78742,0.81714l-0.87161,0.83992l0.50679,-0.48836" fill="none" stroke="#cec344" stroke-width="0.75"/><path d="M216.77401,148.95467l-0.68363,-0.70943l1.25988,1.30743l-0.65371,0.62994l1.57486,1.63428l-0.98058,0.94491" fill="none" stroke="#cec344" stroke-width="0.75"/></g><g stroke-linecap="round"><path d="M245.97449,191.57069l1.58476,-1.52713l-0.51595,-1.031l1.18677,-1.0481l-0.25392,-2.04758l-0.55466,-1.56676l-0.8356,-2.15563l2.07009,1.15706l2.03678,0.32957l1.89541,0.08373l2.54824,-1.02289l1.36865,-0.36377l-0.17199,1.40738l-0.93915,0.80948l-0.42501,1.93774l0.11255,1.80176l0.54566,2.053l0.89053,1.81617l-0.97788,0.27374l-1.72342,-1.49113l-0.54476,0.52495l-0.90853,-0.84371l-2.0935,0.10714l-1.71533,0.69784l-1.61988,0.79688z" fill="#eee796" stroke="#eee796" stroke-width="0.25"/><path d="M246.83671,192.44233l-0.94491,-0.98058l1.63428,-1.57486l-0.62994,-0.65372l1.30743,-1.25989l-0.78742,-0.81714l0.87162,-0.83992l-0.50679,0.48836" fill="none" stroke="#cec344" stroke-width="0.75"/><path d="M247.60414,185.6068l0.68363,0.70943l-1.25989,-1.30743l0.65372,-0.62994l-1.57485,-1.63429l0.98058,-0.94491" fill="none" stroke="#cec344" stroke-width="0.75"/><path d="M251.12219,183.5849l-0.50679,0.48836l0.87162,-0.83991l0.78742,0.81714l1.30743,-1.25989l0.62994,0.65372l1.63429,-1.57485l0.94491,0.98058" fill="none" stroke="#cec344" stroke-width="0.75"/><path d="M246.14637,182.70639l0.98058,-0.94491l1.57486,1.63428l0.65372,-0.62994l1.25989,1.30743l-0.68363,-0.70943" fill="none" stroke="#cec344" stroke-width="0.75"/><path d="M251.65129,190.82099l0.5068,-0.48836l-0.87162,0.83991l-0.78742,-0.81714l-1.30743,1.25989l-0.62994,-0.65372l-1.63429,1.57486l-0.94491,-0.98058" fill="none" stroke="#cec344" stroke-width="0.75"/><path d="M256.62712,191.69949l-0.98058,0.94491l-1.57486,-1.63429l-0.65372,0.62994l-1.25989,-1.30743l0.68363,0.70943" fill="none" stroke="#cec344" stroke-width="0.75"/><path d="M255.93678,181.96356l0.94491,0.98058l-1.63429,1.57486l0.62994,0.65372l-1.30743,1.25989l0.78742,0.81714l-0.87161,0.83992l0.50679,-0.48837" fill="none" stroke="#cec344" stroke-width="0.75"/><path d="M255.16935,188.79908l-0.68363,-0.70943l1.25988,1.30742l-0.65372,0.62994l1.57486,1.63429l-0.98058,0.94491" fill="none" stroke="#cec344" stroke-width="0.75"/></g></g><g stroke-linecap="round"><g><g stroke="#00a8c1"><path d="M244.16467,167.68933l0.17691,-9.55176l1.76704,0.03273l0.05528,-2.98493l2.14568,0.03974l0.04791,-2.58693l4.92246,0.09117l-0.04791,2.58693l1.76704,0.03273l-0.05528,2.98493l1.76704,0.03273l-0.17691,9.55176" fill="#00d4f5" stroke-width="0"/><path d="M244.2598,162.55277l-0.09513,5.13656l0.17691,-9.55176l1.76704,0.03273l0.05528,-2.98493l2.14568,0.03974l0.04791,-2.58693l4.92246,0.09117l-0.04791,2.58693l1.76704,0.03273l-0.05528,2.98493l1.76704,0.03273l-0.17691,9.55176l0.07662,-4.13673" fill="none" stroke-width="1.5"/></g><g><path d="M256.54087,167.54226l-0.17691,9.55176l-1.76704,-0.03273l-0.05528,2.98493l-1.76704,-0.03273l-0.04791,2.58693l-4.92246,-0.09117l0.04791,-2.58693l-2.14568,-0.03974l0.05528,-2.98493l-1.76704,-0.03273l0.17691,-9.55176" fill="#00fdb0" stroke="#00a8c1" stroke-width="0"/><path d="M256.46426,171.67899l0.07662,-4.13673l-0.17691,9.55176l-1.76704,-0.03273l-0.05528,2.98493l-1.76704,-0.03273l-0.04791,2.58693l-4.92246,-0.09117l0.04791,-2.58693l-2.14568,-0.03974l0.05528,-2.98493l-1.76704,-0.03273l0.17691,-9.55176l-0.09513,5.13656" fill="none" stroke="#00a674" stroke-width="1.5"/></g></g><g><g stroke="#00a8c1"><path d="M216.16947,167.17083l0.17691,-9.55176l2.30266,0.04265l0.05528,-2.98493l2.79608,0.05179l0.04791,-2.58693l6.41455,0.1188l-0.04791,2.58693l2.30266,0.04265l-0.05528,2.98493l2.30266,0.04265l-0.17691,9.55176" fill="#00d4f5" stroke-width="0"/><path d="M216.2646,162.03427l-0.09513,5.13656l0.17691,-9.55176l2.30266,0.04265l0.05528,-2.98493l2.79608,0.05179l0.04791,-2.58693l6.41455,0.1188l-0.04791,2.58693l2.30266,0.04265l-0.05528,2.98493l2.30266,0.04265l-0.17691,9.55176l0.07662,-4.13673" fill="none" stroke-width="1.5"/></g><g><path d="M232.29503,167.0932l-0.17691,9.55176l-2.30266,-0.04265l-0.05528,2.98493l-2.30266,-0.04265l-0.04791,2.58693l-6.41455,-0.1188l0.04791,-2.58693l-2.79608,-0.05179l0.05528,-2.98493l-2.30266,-0.04265l0.17691,-9.55176" fill="#00fdb0" stroke="#00a8c1" stroke-width="0"/><path d="M232.21842,171.22993l0.07662,-4.13673l-0.17691,9.55176l-2.30266,-0.04265l-0.05528,2.98493l-2.30266,-0.04265l-0.04791,2.58693l-6.41455,-0.1188l0.04791,-2.58693l-2.79608,-0.05179l0.05528,-2.98493l-2.30266,-0.04265l0.17691,-9.55176l-0.09513,5.13656" fill="none" stroke="#00a674" stroke-width="1.5"/></g></g></g><g stroke="#000000" stroke-width="1.2"><path d="M262.07497,223.94667c-3.92445,-5.91182 -2.31337,-13.88569 3.59845,-17.81014c5.91183,-3.92445 13.8857,-2.31337 17.81014,3.59846c3.92445,5.91182 2.31338,13.88569 -3.59845,17.81014c-5.91183,3.92445 -13.8857,2.31337 -17.81014,-3.59846z" fill="#5c5e5f" stroke-linecap="butt"/><g stroke-linecap="round"><path d="M282.24464,246.72756l-9.20447,2.18477l-1.80214,-6.09379l-5.36915,-4.28668l2.60713,-7.89925" fill="#5d5d5d"/><path d="M286.58902,217.58279l3.16145,1.17033l1.09237,4.60222l4.72812,0.78678l0.76028,8.74813l3.43118,1.36733l1.47666,6.87063l-5.98115,10.41941l-12.83192,1.78888l-3.68295,-5.12565l0.20125,-3.49826l-3.23655,-1.49654l-2.97152,-4.47635l1.04186,-2.65433l-3.23656,-1.49654l-2.19469,-4.15087l8.57338,-10.73827z" fill="#5d5d5d"/><path d="M275.01124,234.98637l5.97287,-6.20808" fill="none"/><path d="M280.3721,243.48439l6.03664,-5.68964" fill="none"/></g><path d="M291.75354,256.40567l-4.03361,-6.07626l3.07987,-5.07519l6.05901,-0.58739l4.04204,5.66657l-3.18983,5.75431z" fill="#5c5e5f" stroke-linecap="round"/></g></g></g></svg>