<svg version="1.1" xmlns="http://www.w3.org/2000/svg" xmlns:xlink="http://www.w3.org/1999/xlink" width="91.50734" height="122.34213" viewBox="0,0,91.50734,122.34213"><g transform="translate(-186.44279,-109.76324)"><g stroke-miterlimit="10"><g fill-rule="evenodd"><path d="M256.93402,202.28196c2.36453,-0.31378 5.2096,-0.89008 7.46915,-2.91542c5.18689,-4.49876 6.3834,-12.51953 10.30584,-10.10501c4.02224,2.42242 4.73147,15.60363 -7.19821,18.6669c-4.10552,1.07768 -7.89826,0.77744 -10.99852,0.43182c-0.79847,-0.0632 -7.72853,-1.31315 -10.33394,-4.9259c-2.60541,-3.61275 -0.96422,-4.38455 -0.19045,-4.72407c0.8674,-0.43229 7.58969,3.90713 10.94613,3.57168z" fill="#ffab19" stroke="#001026" stroke-width="1.2" stroke-linecap="round" stroke-linejoin="round"/><path d="M274.12249,189.41552c2.03323,0.76211 3.29072,5.06968 2.50878,8.51449c-0.78195,3.44478 -2.26772,5.13061 -3.48494,6.33674c0.15639,-0.68897 0.41976,-2.87233 -1.35728,-4.31549c-2.20099,-1.87749 -5.83834,-1.26371 -5.83834,-1.26371c0,0 2.85941,-3.5809 4.2896,-6.17285c1.4549,-2.18923 1.8613,-3.65994 3.88219,-3.09919z" fill="#ffffff" stroke="none" stroke-width="1" stroke-linecap="butt" stroke-linejoin="miter"/></g><g fill-rule="nonzero" stroke="#000000" stroke-width="1.2" stroke-linejoin="miter"><path d="M237.18391,188.29573c2.80551,-0.63341 5.18836,1.032 5.3222,3.7198c0.03041,0.61051 -0.05785,1.22125 -0.24529,1.80805c0.39177,1.76695 -3.50458,4.06428 -4.59385,5.30595c-4.09594,4.66891 -7.58519,6.58003 -14.15375,7.60743c-2.68424,0.41985 -5.15392,-0.34038 -5.3222,-3.7198c-0.31942,-6.41476 7.30411,-6.0741 10.84623,-8.14575c1.89824,-1.11021 6.50808,-7.52725 8.14666,-6.57568z" fill="#ffab19" stroke-linecap="butt"/><g><path d="M215.27762,203.84208c-0.55361,4.72275 -4.87979,8.81413 -9.6628,9.13832c-4.783,0.3242 -8.21163,-3.24154 -7.65804,-7.96429c0.55361,-4.72275 4.87978,-8.81413 9.6628,-9.13832c4.783,-0.3242 8.21162,3.24153 7.65804,7.96429z" fill="#5c5e5f" stroke-linecap="butt"/><g stroke-linecap="round"><path d="M215.35941,198.74652l3.99823,-3.32502l2.15148,0.7025l4.50342,-0.30525l0.07859,3.72735z" fill="#ffab19"/><path d="M210.62826,202.46054l4.89152,-5.08224l4.05677,0.57336l1.57892,-0.27669l3.71035,0.59685l1.07935,-0.41249l3.13056,1.14515l-0.04894,6.28099l-3.79935,6.02621l-13.32982,-0.62348z" fill="#ffab19"/><path d="M216.36419,201.9021l2.66548,-2.21669" fill="none"/><path d="M221.07369,202.77053l3.11213,-3.09528" fill="none"/></g><path d="M227.02289,201.85829l3.9036,0.41409l0.59821,3.69213l-2.78577,3.24283l-3.03756,-0.47279l-1.29104,-3.64516z" fill="#5c5e5f" stroke-linecap="round"/></g></g><g fill-rule="nonzero" stroke-linecap="butt" stroke-linejoin="miter"><path d="M228.56217,227.51951c-1.08606,2.94229 -17.42996,3.9597 -17.42996,3.9597c0,0 -2.40596,-6.23217 1.81626,-8.22108c1.9676,-0.92685 8.04493,-5.05776 8.82031,-6.50056c2.7171,-5.05582 2.75934,-10.03129 7.43615,-14.15691c0.86155,-0.76001 2.70795,-2.52457 4.43696,-3.37358c2.04147,-1.98664 6.29117,-0.25263 7.22921,2.28587c2.68847,7.27546 -6.04336,9.03251 -12.30894,26.00657z" fill="#ffab19" stroke="#001026" stroke-width="1.2"/><g><path d="M231.51084,201.61833c-0.75133,-3.84225 3.35829,-9.56287 3.35829,-9.56287c0,0 -0.26731,-3.41392 1.35237,-5.80015c3.34805,-4.9326 18.22783,-5.54725 19.0251,2.37602c0.29914,2.97293 -1.70738,6.14497 -1.70738,6.14497c0,0 0.79215,5.65704 -0.48712,8.58435c-1.08803,2.48972 -8.04643,7.06294 -13.23004,6.08784c-0.53844,-0.10128 -1.04125,-0.22452 -1.51087,-0.36637" fill="#ffab19" stroke="#001026" stroke-width="1.2"/><path d="M238.98617,187.49233c3.42494,-2.39383 7.93064,0.79082 8.13062,4.71237c0.02414,0.47326 0.03887,1.02858 -0.00415,1.58425c0.74026,2.02219 -1.44893,6.66087 -3.09662,7.13698c-5.70371,1.64811 -12.12416,-4.33273 -7.03316,-9.0245c0.07726,-1.72796 0.83601,-3.59323 2.00329,-4.4091z" fill="#ffffff" stroke="none" stroke-width="0.5"/></g><path d="M246.66157,207.06428c0.85765,2.38538 0.11827,6.49576 0.11827,6.49576c0,0 -1.6895,8.03961 -2.4484,9.28737c-3.45421,5.67923 -14.41867,9.15703 -14.78436,0.13742c-0.08602,-2.12172 1.40392,-3.60855 2.32651,-5.31538c0.42067,-0.77826 1.97672,-8.37963 1.47302,-10.88538c-0.87588,-4.35724 -3.3924,-9.43779 -2.11473,-13.91752c2.27432,-7.97403 17.74942,2.07573 18.17683,2.89481" fill="#ffab19" stroke="#001026" stroke-width="1.2"/></g><g><g><g><path d="M210.48734,150.73598c0,0 -6.76573,-26.74768 -5.69611,-26.87748c1.44101,-0.17487 28.02904,7.36872 28.02904,7.36872" fill="#ffab19" fill-rule="nonzero" stroke="#001026" stroke-width="1.2" stroke-linecap="round" stroke-linejoin="miter"/><path d="M264.92696,147.01284l0.24536,-1.20041l5.02624,-0.90259l3.77275,4.75615l-1.617,8.44089l-25.46505,11.07444z" fill="#9b7f41" fill-rule="nonzero" stroke="#001026" stroke-width="1.2" stroke-linecap="round" stroke-linejoin="miter"/><path d="M202.80909,171.29741c0,0 -7.03719,1.52578 -12.47287,-1.11681" fill="none" fill-rule="evenodd" stroke="#001026" stroke-width="1.2" stroke-linecap="round" stroke-linejoin="round"/><path d="M203.74952,177.13569c0,0 -3.37124,2.73032 -9.62179,3.66351" fill="none" fill-rule="evenodd" stroke="#001026" stroke-width="1.2" stroke-linecap="round" stroke-linejoin="round"/><path d="M225.98759,138.83625c10.69585,-3.97997 41.48536,-0.58878 38.63978,27.21935c-0.03708,0.36254 -0.15771,0.71197 -0.27675,1.05993c-4.34714,12.70717 -17.90865,21.08011 -37.0588,21.7137c-19.15015,0.63362 -25.87169,-8.89639 -25.98762,-14.72018c-0.11593,-5.82379 6.32784,-9.47039 6.32784,-9.47039c0,0 -0.91708,-4.40671 0.96059,-10.48653c0,0 1.76802,-9.50103 17.39493,-15.31589z" fill="#ffab19" fill-rule="evenodd" stroke="#001026" stroke-width="1.2" stroke-linecap="butt" stroke-linejoin="miter"/><path d="M225.19444,166.01475c8.31901,-1.30917 17.47141,-12.76753 26.41118,-3.85347c8.91724,8.81664 0.95969,25.43853 -23.74453,26.02302c-18.93275,0.68596 -25.93127,-8.26675 -26.04721,-14.09055c-0.11593,-5.82379 6.20063,-9.13301 6.20063,-9.13301c7.85283,-3.76738 10.05254,2.19009 17.1799,1.05402z" fill="#ffffff" fill-rule="evenodd" stroke="none" stroke-width="1" stroke-linecap="butt" stroke-linejoin="miter"/><path d="M229.77263,163.62096c0.36072,1.55881 -3.16755,4.94133 -4.9663,5.15227c-1.58136,0.26329 -3.67397,-2.12648 -3.89218,-3.51295c-0.06039,-0.70452 2.0379,-1.39536 4.08381,-1.86878c1.94852,-0.45089 4.60154,-0.96217 4.77465,0.22949z" fill="#001026" fill-rule="evenodd" stroke="#001026" stroke-width="1.2" stroke-linecap="round" stroke-linejoin="round"/><path d="M259.96272,157.42751c-2.6766,5.41902 -9.17293,8.52511 -9.17293,8.52511" fill="none" fill-rule="evenodd" stroke="#001026" stroke-width="1.2" stroke-linecap="round" stroke-linejoin="round"/><path d="M263.47266,168.14247c-5.51155,3.09241 -9.84877,3.00031 -9.84877,3.00031" fill="none" fill-rule="evenodd" stroke="#001026" stroke-width="1.2" stroke-linecap="round" stroke-linejoin="round"/><path d="M252.27306,146.73104l-43.36868,4.76214l-1.45633,-22.75433l48.01463,-4.29832l14.8713,16.96479l-5.22114,16.42254z" fill="#c58600" fill-rule="nonzero" stroke="#001026" stroke-width="1.2" stroke-linecap="round" stroke-linejoin="miter"/><path d="M255.27775,124.65455l-3.01921,21.87703" fill="none" fill-rule="nonzero" stroke="#001026" stroke-width="0.75" stroke-linecap="round" stroke-linejoin="miter"/><path d="M262.04238,132.18315l-6.15169,-7.37272c0,0 14.02201,8.67358 15.095,8.92854c1.20244,0.28572 -7.82493,13.80351 -7.82493,13.80351z" fill="#ffab19" fill-rule="nonzero" stroke="#001026" stroke-width="1.2" stroke-linecap="round" stroke-linejoin="miter"/></g><path d="M188.49332,162.48044c-6.12379,-20.91761 7.70432,-43.37629 30.88594,-50.16289c23.18162,-6.7866 46.93835,4.66884 53.06214,25.58645c6.12379,20.91761 -7.70432,43.37629 -30.88594,50.16289c-23.18162,6.7866 -46.93835,-4.66884 -53.06214,-25.58644z" fill="none" fill-rule="nonzero" stroke="#ffffff" stroke-width="1.2" stroke-linecap="butt" stroke-linejoin="miter"/><path d="M254.69329,118.99913l-0.11152,7.27841l-7.94337,2.50288l-9.24334,-3.60359l4.52771,-11.23512z" fill="#ffffff" fill-rule="nonzero" stroke="#001026" stroke-width="0" stroke-linecap="round" stroke-linejoin="miter"/><path d="M261.80031,131.84514l6.95572,1.94048l-6.94617,-1.69513" fill="#000000" fill-rule="nonzero" stroke="none" stroke-width="0" stroke-linecap="round" stroke-linejoin="miter"/></g><g><g fill-rule="evenodd"><path d="M219.91417,147.63192c3.13372,1.12242 4.18606,6.11366 2.37521,11.1516c-1.90827,5.06049 -5.91641,8.14347 -9.05013,7.02105c-3.13372,-1.12242 -4.18605,-6.11366 -2.3752,-11.15161c1.81084,-5.03795 5.89385,-8.2409 9.05013,-7.02105z" fill="#ffffff" stroke="#001026" stroke-width="1.2" stroke-linecap="round" stroke-linejoin="round"/><path d="M211.28387,159.40528c-0.24799,-1.07168 0.32851,-2.12888 1.30279,-2.35431c0.97425,-0.22545 1.95656,0.47101 2.20455,1.54271c0.24799,1.07168 -0.32851,2.12888 -1.30278,2.35431c-0.97425,0.22545 -1.95656,-0.47101 -2.20455,-1.54271" fill="#001026" stroke="none" stroke-width="1" stroke-linecap="butt" stroke-linejoin="miter"/></g><g fill-rule="evenodd"><path d="M244.06915,146.45433c3.51618,1.44448 4.60636,7.04283 2.57812,12.02843c-1.93081,4.96306 -5.90191,7.31897 -9.5453,6.21186c-3.05883,-1.24239 -4.47109,-6.45828 -2.54027,-11.42133c1.93081,-4.96306 5.96874,-8.36086 9.50747,-6.81895z" fill="#ffffff" stroke="#001026" stroke-width="1.2" stroke-linecap="round" stroke-linejoin="round"/><path d="M235.19889,158.07797c-0.24799,-1.07168 0.35105,-2.03144 1.30279,-2.35432c0.97425,-0.22545 1.95655,0.47102 2.20455,1.54272c0.24799,1.07168 -0.32851,2.12888 -1.30278,2.35431c-0.97425,0.22545 -1.95656,-0.47102 -2.20455,-1.54272" fill="#001026" stroke="none" stroke-width="1" stroke-linecap="butt" stroke-linejoin="miter"/></g><g fill-rule="nonzero" stroke="#001026" stroke-linecap="round" stroke-linejoin="miter"><path d="M222.56764,178.5921c-0.21735,-0.16765 5.49377,-1.51208 10.9988,-4.09645c12.46301,-5.85081 12.77793,-7.96716 13.3377,-7.9092c1.03302,0.10698 5.07733,10.38676 -2.70971,14.22471c-7.48881,3.69097 -20.94799,-1.69546 -21.62678,-2.21908z" fill="#ffffff" stroke-width="1.2"/><path d="M247.28667,177.64268l-2.7316,-7.22069l3.3155,6.97764" fill="#000000" stroke-width="0"/><path d="M244.65382,180.0402l-1.30237,-4.11628l1.67227,3.6883" fill="#000000" stroke-width="0"/><path d="M223.69088,178.55869l9.33547,1.52606l4.14921,1.90369l-7.29719,-1.07289z" fill="#000000" stroke-width="0"/></g></g></g><g fill-rule="nonzero" stroke="#000000" stroke-width="1.2" stroke-linejoin="miter"><path d="M250.70526,185.26958c0,0 -0.03751,-1.88802 1.76757,-2.01468c7.11939,-0.49957 7.75432,4.45417 10.43969,6.23751c3.1042,2.06151 6.94824,3.80997 7.20883,5.41369c0.37351,2.29861 -1.63583,3.22991 -3.69926,4.921c-2.7793,2.27781 -6.26621,4.83635 -9.92548,3.5881c-2.85805,-0.97492 -0.20591,-7.62861 -0.16508,-7.6647c-2.13288,-1.82248 -3.81836,-4.22791 -4.38385,-6.27282" fill="#ffab19" stroke-linecap="butt"/><g stroke-linecap="round"><path d="M261.27888,205.08171l-4.10048,2.66873l-2.73365,-0.04328l-1.06309,-1.95738l-1.36683,-0.32538l-1.21495,-4.10283" fill="#ffab19"/><path d="M254.4949,189.60237l12.5402,6.48261l0.00109,6.59511l-3.57289,4.83193l-3.52035,-0.75822l-0.74875,-0.87919l-3.73436,-1.4805l-1.28349,-1.03612l-4.0374,-1.67935l-2.45405,-6.40684z" fill="#ffab19"/><path d="M253.36421,198.33476l1.15906,3.08796l-2.35657,-2.81318z" fill="none"/><path d="M259.38111,204.44562l-1.06118,-3.9935" fill="none"/></g></g></g></g></svg>