<svg version="1.1" xmlns="http://www.w3.org/2000/svg" xmlns:xlink="http://www.w3.org/1999/xlink" width="89.15133" height="123.45909" viewBox="0,0,89.15133,123.45909"><g transform="translate(-190.51755,-106.92626)"><g stroke-miterlimit="10"><g fill-rule="nonzero" stroke="#000000" stroke-width="1.2" stroke-linejoin="miter"><path d="M239.16909,187.06806c2.70699,-0.63341 5.34888,1.032 5.9008,3.7198c0.12537,0.61051 0.13211,1.22125 0.03595,1.80805c0.66662,1.76695 -2.87239,4.06428 -3.76853,5.30595c-3.36971,4.66891 -6.5617,6.58003 -12.97044,7.60743c-2.61893,0.41985 -5.20686,-0.34038 -5.9008,-3.7198c-1.31722,-6.41476 6.35931,-6.0741 9.57919,-8.14575c1.72555,-1.11021 5.33725,-7.52725 7.12383,-6.57568z" fill="#ffab19" stroke-linecap="butt"/><g><path d="M219.68098,202.61441c0.18101,4.72275 -3.50878,8.81413 -8.24136,9.13832c-4.73258,0.3242 -8.71584,-3.24154 -8.89685,-7.96429c-0.18101,-4.72275 3.50877,-8.81413 8.24136,-9.13832c4.73258,-0.3242 8.71583,3.24153 8.89685,7.96429z" fill="#5c5e5f" stroke-linecap="butt"/><g stroke-linecap="round"><path d="M218.97019,197.51885l3.48103,-3.32502l2.26075,0.7025l4.45593,-0.30525l0.65836,3.72735z" fill="#ffab19"/><path d="M214.81673,201.23287l4.101,-5.08224l4.14595,0.57336l1.53588,-0.27669l3.80318,0.59685l1.01519,-0.41249l3.30869,1.14515l0.92805,6.28099l-2.862,6.02621l-13.4268,-0.62348z" fill="#ffab19"/><path d="M222.78648,198.45774l-2.32069,2.21669" fill="none"/><path d="M225.31038,201.54286l2.63067,-3.09528" fill="none"/></g><path d="M231.11769,200.63062l3.96801,0.41409l1.17251,3.69213l-2.28136,3.24283l-3.1111,-0.47279l-1.85803,-3.64516z" fill="#5c5e5f" stroke-linecap="round"/></g></g><g fill-rule="evenodd"><path d="M258.65275,199.5947c2.36453,-0.59734 5.2096,-1.51483 7.46915,-3.81113c5.18689,-5.12079 6.3834,-13.28504 10.30584,-11.3409c4.02224,1.94007 4.73147,15.03622 -7.19821,19.53011c-4.10552,1.57002 -7.89826,1.7246 -10.99852,1.75078c-0.79847,0.03255 -7.72853,-0.38633 -10.33394,-3.68664c-2.60541,-3.30031 -0.96422,-4.26892 -0.19045,-4.70123c0.8674,-0.5363 7.58969,2.99697 10.94613,2.25901z" fill="#ffab19" stroke="#001026" stroke-width="1.2" stroke-linecap="round" stroke-linejoin="round"/><path d="M275.84122,184.66699c2.03323,0.51829 3.29072,4.67505 2.50878,8.21363c-0.78195,3.53856 -2.26772,5.40256 -3.48494,6.75466c0.15639,-0.70772 0.41976,-2.92266 -1.35728,-4.15272c-2.20099,-1.61354 -5.83834,-0.56357 -5.83834,-0.56357c0,0 2.85941,-3.92381 4.2896,-6.68726c1.4549,-2.36371 1.8613,-3.88314 3.88219,-3.56475z" fill="#ffffff" stroke="none" stroke-width="1" stroke-linecap="butt" stroke-linejoin="miter"/></g><g fill-rule="nonzero" stroke-linecap="butt" stroke-linejoin="miter"><path d="M232.84181,225.80078c-0.91833,2.94229 -17.20422,3.9597 -17.20422,3.9597c0,0 -2.76126,-6.23217 1.34757,-8.22108c1.91475,-0.92685 7.75658,-5.05776 8.44971,-6.50056c2.42887,-5.05582 2.18746,-10.03129 6.62905,-14.15691c0.81822,-0.76001 2.56402,-2.52457 4.24463,-3.37358c1.92822,-1.98664 6.27677,-0.25263 7.35953,2.28587c3.10325,7.27546 -5.52841,9.03251 -10.82628,26.00657z" fill="#ffab19" stroke="#001026" stroke-width="1.2"/><g><path d="M234.31385,199.8996c-0.97038,-3.84225 2.8131,-9.56287 2.8131,-9.56287c0,0 -0.46194,-3.41392 1.0217,-5.80015c3.06684,-4.9326 17.91158,-5.54725 19.16056,2.37602c0.46863,2.97293 -1.35706,6.14497 -1.35706,6.14497c0,0 1.11465,5.65704 0.00227,8.58435c-0.94609,2.48972 -7.64377,7.06294 -12.88297,6.08784c-0.54421,-0.10128 -1.05405,-0.22452 -1.53176,-0.36637" fill="#ffab19" stroke="#001026" stroke-width="1.2"/><path d="M240.98384,185.7736c3.28846,-2.39383 7.97572,0.79082 8.39928,4.71237c0.05112,0.47326 0.09751,1.02858 0.08617,1.58425c0.85554,2.02219 -1.06919,6.66087 -2.68974,7.13698c-5.60975,1.64811 -12.37117,-4.33273 -7.54765,-9.0245c-0.02125,-1.72796 0.63116,-3.59323 1.75193,-4.4091z" fill="#ffffff" stroke="none" stroke-width="0.5"/></g><path d="M249.77505,205.34555c0.99365,2.38538 0.4886,6.49576 0.4886,6.49576c0,0 -1.23116,8.03961 -1.91893,9.28737c-3.13044,5.67923 -13.89662,9.15703 -14.77652,0.13742c-0.20698,-2.12172 1.1982,-3.60855 2.02347,-5.31538c0.37629,-0.77826 1.49899,-8.37963 0.85244,-10.88538c-1.12429,-4.35724 -3.93046,-9.43779 -2.90817,-13.91752c1.81971,-7.97403 17.86775,2.07573 18.34186,2.89481" fill="#ffab19" stroke="#001026" stroke-width="1.2"/></g><g><g><g><path d="M214.6591,146.79409c0,0 -5.42809,-27.05086 -4.35333,-27.12735c1.44792,-0.10304 27.6282,8.75258 27.6282,8.75258" fill="#ffab19" fill-rule="nonzero" stroke="#001026" stroke-width="1.2" stroke-linecap="round" stroke-linejoin="miter"/><path d="M269.21648,145.78105l0.30471,-1.18673l5.06489,-0.65168l3.53173,4.93777l-2.03449,8.3501l-25.98395,9.79521z" fill="#9b7f41" fill-rule="nonzero" stroke="#001026" stroke-width="1.2" stroke-linecap="round" stroke-linejoin="miter"/><path d="M205.96849,166.94853c0,0 -7.10432,1.17416 -12.40196,-1.73529" fill="none" fill-rule="evenodd" stroke="#001026" stroke-width="1.2" stroke-linecap="round" stroke-linejoin="round"/><path d="M206.61761,172.82633c0,0 -3.50276,2.5594 -9.79197,3.1808" fill="none" fill-rule="evenodd" stroke="#001026" stroke-width="1.2" stroke-linecap="round" stroke-linejoin="round"/><path d="M230.73158,135.67939c10.88043,-3.44351 41.46335,1.47366 37.2393,29.106c-0.05506,0.36025 -0.1929,0.70325 -0.32909,1.04487c-4.97328,12.47543 -18.93414,20.16404 -38.09211,19.84516c-19.15798,-0.31888 -25.3976,-10.17116 -25.22396,-15.9935c0.17364,-5.82236 6.79068,-9.14421 6.79068,-9.14421c0,0 -0.69694,-4.44684 1.48055,-10.42584c0,0 2.23801,-9.40143 18.13459,-14.43249z" fill="#ffab19" fill-rule="evenodd" stroke="#001026" stroke-width="1.2" stroke-linecap="butt" stroke-linejoin="miter"/><path d="M228.58871,162.78489c8.37379,-0.89413 18.08434,-11.88347 26.57006,-2.53615c8.46806,9.2489 -0.30572,25.45479 -25.00846,24.81083c-18.94345,-0.25579 -25.4884,-9.54525 -25.31476,-15.36761c0.17364,-5.82236 6.64686,-8.81358 6.64686,-8.81358c8.03035,-3.37246 9.93128,2.68696 17.10629,1.90651z" fill="#ffffff" fill-rule="evenodd" stroke="none" stroke-width="1" stroke-linecap="butt" stroke-linejoin="miter"/><path d="M233.28021,160.62159c0.2828,1.57481 -3.40921,4.77781 -5.21622,4.8991c-1.59249,0.18438 -3.56375,-2.30643 -3.71278,-3.70205c-0.0253,-0.70665 2.10473,-1.29235 4.17165,-1.66352c1.96851,-0.35349 4.64367,-0.73229 4.75734,0.46649z" fill="#001026" fill-rule="evenodd" stroke="#001026" stroke-width="1.2" stroke-linecap="round" stroke-linejoin="round"/><path d="M263.7408,155.93615c-2.9426,5.27931 -9.58527,8.05871 -9.58527,8.05871" fill="none" fill-rule="evenodd" stroke="#001026" stroke-width="1.2" stroke-linecap="round" stroke-linejoin="round"/><path d="M266.71389,166.8123c-5.65842,2.81468 -9.9857,2.50715 -9.9857,2.50715" fill="none" fill-rule="evenodd" stroke="#001026" stroke-width="1.2" stroke-linecap="round" stroke-linejoin="round"/><path d="M256.59222,144.87073l-43.55175,2.60094l-0.3237,-22.79858l48.16891,-1.90681l14.00982,17.68289l-6.03084,16.14277z" fill="#c58600" fill-rule="nonzero" stroke="#001026" stroke-width="1.2" stroke-linecap="round" stroke-linejoin="miter"/><path d="M260.69035,122.97085l-4.1027,21.69995" fill="none" fill-rule="nonzero" stroke="#001026" stroke-width="0.75" stroke-linecap="round" stroke-linejoin="miter"/><path d="M267.07246,130.82633l-5.77768,-7.66933c0,0 13.57364,9.35972 14.63262,9.66769c1.18676,0.34512 -8.50126,13.39757 -8.50126,13.39757z" fill="#ffab19" fill-rule="nonzero" stroke="#001026" stroke-width="1.2" stroke-linecap="round" stroke-linejoin="miter"/></g><path d="M192.10859,157.431c-5.07668,-21.19609 9.85048,-42.9398 33.34073,-48.56596c23.49025,-5.62615 46.64832,6.99577 51.725,28.19188c5.07668,21.19609 -9.85048,42.9398 -33.34073,48.56596c-23.49025,5.62615 -46.64832,-6.99577 -51.725,-28.19187z" fill="none" fill-rule="nonzero" stroke="#ffffff" stroke-width="1.2" stroke-linecap="butt" stroke-linejoin="miter"/><path d="M260.38766,117.29337l-0.4731,7.26387l-8.05794,2.10503l-9.05283,-4.0585l5.08047,-10.99623z" fill="#ffffff" fill-rule="nonzero" stroke="#001026" stroke-width="0" stroke-linecap="round" stroke-linejoin="miter"/><path d="M266.84749,130.47671l6.85069,2.28376l-6.85334,-2.03824" fill="#000000" fill-rule="nonzero" stroke="none" stroke-width="0" stroke-linecap="round" stroke-linejoin="miter"/></g><g><g fill-rule="evenodd"><path d="M224.22854,144.16235c3.07407,1.27677 3.87706,6.31414 1.81807,11.25586c-2.1574,4.9594 -6.31381,7.83938 -9.38787,6.56261c-3.07407,-1.27677 -3.87705,-6.31414 -1.81806,-11.25587c2.05898,-4.94173 6.29613,-7.9378 9.38787,-6.56261z" fill="#ffffff" stroke="#001026" stroke-width="1.2" stroke-linecap="round" stroke-linejoin="round"/><path d="M215.0238,155.49226c-0.19442,-1.08268 0.4339,-2.10992 1.41817,-2.28666c0.98425,-0.17676 1.93074,0.56767 2.12516,1.65036c0.19442,1.08268 -0.4339,2.10992 -1.41816,2.28666c-0.98425,0.17676 -1.93074,-0.56767 -2.12516,-1.65036" fill="#001026" stroke="none" stroke-width="1" stroke-linecap="butt" stroke-linejoin="miter"/></g><g fill-rule="evenodd"><path d="M248.4122,144.18666c3.44005,1.61744 4.25065,7.26305 1.97715,12.1417c-2.17508,4.86096 -6.25835,7.01661 -9.84222,5.72981c-2.99331,-1.39287 -4.14461,-6.6725 -1.96953,-11.53346c2.17508,-4.86096 6.37688,-8.0539 9.8346,-6.33803z" fill="#ffffff" stroke="#001026" stroke-width="1.2" stroke-linecap="round" stroke-linejoin="round"/><path d="M238.97524,155.35511c-0.19442,-1.08268 0.45158,-2.01149 1.41818,-2.28667c0.98425,-0.17676 1.93073,0.56768 2.12516,1.65037c0.19442,1.08268 -0.4339,2.10992 -1.41816,2.28666c-0.98425,0.17676 -1.93074,-0.56768 -2.12516,-1.65037" fill="#001026" stroke="none" stroke-width="1" stroke-linecap="butt" stroke-linejoin="miter"/></g><g fill-rule="nonzero" stroke="#001026" stroke-linecap="round" stroke-linejoin="miter"><path d="M225.3401,175.21616c-0.20875,-0.17825 5.56212,-1.23719 11.1888,-3.54478c12.73838,-5.22419 13.15809,-7.32229 13.71428,-7.23658c1.02642,0.15818 4.55486,10.62625 -3.41329,14.07247c-7.66299,3.31423 -20.83785,-2.73443 -21.48978,-3.29113z" fill="#ffffff" stroke-width="1.2"/><path d="M250.07577,175.49637l-2.36938,-7.34752l2.96463,7.1338" fill="#000000" stroke-width="0"/><path d="M247.32702,177.76009l-1.09619,-4.17592l1.48691,3.76685" fill="#000000" stroke-width="0"/><path d="M226.46361,175.2386l9.2481,1.98812l4.04947,2.10755l-7.23485,-1.43421z" fill="#000000" stroke-width="0"/></g></g></g><g fill-rule="nonzero" stroke="#000000" stroke-width="1.2" stroke-linejoin="miter"><path d="M252.42398,183.42436c0,0 -0.03751,-1.88339 1.76757,-2.23239c7.11939,-1.37645 7.75432,3.49907 10.43969,4.95166c3.1042,1.67916 6.94824,2.95416 7.20883,4.52578c0.37351,2.25261 -1.63583,3.43139 -3.69926,5.37664c-2.7793,2.62014 -6.26621,5.60815 -9.92548,4.81062c-2.85805,-0.6229 -0.20591,-7.60325 -0.16508,-7.64436c-2.13288,-1.55977 -3.81836,-3.7576 -4.38385,-5.73287" fill="#ffab19" stroke-linecap="butt"/><g stroke-linecap="round"><path d="M262.9976,201.93415l-4.10048,3.17378l-2.73365,0.29342l-1.06309,-1.82644l-1.36683,-0.15703l-1.21495,-3.9532" fill="#ffab19"/><path d="M256.21362,187.29038l12.5402,4.93805l0.00109,6.59498l-3.57289,5.272l-3.52035,-0.32463l-0.74875,-0.78697l-3.73436,-1.02055l-1.28349,-0.87803l-4.0374,-1.18207l-2.45405,-6.10457z" fill="#ffab19"/><path d="M255.08293,196.16204l1.15906,2.9452l-2.35657,-2.52292z" fill="none"/><path d="M261.09983,201.53181l-1.06118,-3.86279" fill="none"/></g></g></g></g></svg>