<svg version="1.1" xmlns="http://www.w3.org/2000/svg" xmlns:xlink="http://www.w3.org/1999/xlink" width="251.73636" height="219.74048" viewBox="0,0,251.73636,219.74048"><g transform="translate(-113.52426,-72.24534)"><g stroke-miterlimit="10"><g fill-rule="evenodd"><path d="M198.56929,187.07166c1.72761,-1.2346 3.73083,-2.91216 4.72637,-5.75919c2.34244,-6.39007 0.23055,-14.61141 4.21121,-13.82349c4.0616,0.75623 9.62197,13.2131 1.46792,20.87221c-2.79726,2.65851 -5.87356,3.86241 -8.42624,4.7497c-0.64765,0.25345 -6.53502,1.77555 -9.94213,-0.68895c-3.4071,-2.46449 -2.41841,-3.85672 -1.94303,-4.48958c0.51328,-0.75937 7.41182,0.78557 9.90592,-0.8607z" fill="#ffab19" stroke="#b83312" stroke-width="1.2" stroke-linecap="round" stroke-linejoin="round"/><path d="M207.10724,167.86878c1.8775,-0.06453 4.49572,3.60229 5.19339,7.23882c0.69767,3.63652 0.17752,5.8507 -0.31507,7.49559c-0.13953,-0.7273 -0.76311,-2.9407 -2.69919,-3.63515c-2.43214,-0.94711 -5.03993,1.07874 -5.03993,1.07874c0,0 0.87321,-4.58638 1.00578,-7.6542c0.30482,-2.68842 0.06366,-4.26957 1.85502,-4.52381z" fill="#ffffff" stroke="none" stroke-width="1" stroke-linecap="butt" stroke-linejoin="miter"/></g><g><path d="M183.64821,135.88508c0,0 1.9913,-28.9457 3.06877,-28.9405c1.45157,0.00701 21.53201,12.38293 21.53201,12.38293" fill="#ffab19" fill-rule="nonzero" stroke="#b83312" stroke-width="1.2" stroke-linecap="round" stroke-linejoin="miter"/><path d="M235.15201,137.93078l9.28453,20.84121l-2.8925,5.45467l-30.52421,-0.94711z" fill="#9b7f41" fill-rule="nonzero" stroke="#7d5034" stroke-width="1.2" stroke-linecap="round" stroke-linejoin="miter"/><path d="M171.26449,149.40912c0,0 -7.78115,-0.32231 -9.87578,-4.91724" fill="none" fill-rule="evenodd" stroke="#929292" stroke-width="1.2" stroke-linecap="round" stroke-linejoin="round"/><path d="M170.6778,155.27749c0,0 -4.92493,3.27506 -10.01106,0.05731" fill="none" fill-rule="evenodd" stroke="#929292" stroke-width="1.2" stroke-linecap="round" stroke-linejoin="round"/><path d="M197.54362,124.94089c11.11015,-2.60882 41.23234,4.61252 34.9258,31.84516c-0.08222,0.35504 -0.24565,0.68661 -0.40734,1.01691c-5.90466,12.06254 -20.40818,18.67074 -39.48686,16.90052c-19.07868,-1.77022 -24.74671,-13.39499 -24.1322,-19.18743c0.87115,-8.15059 7.78277,-9.64039 7.78277,-9.64039c0,0 -0.4831,-2.12175 2.14137,-7.91848c0,0 2.94423,-9.20472 19.17647,-13.01628z" fill="#ffab19" fill-rule="evenodd" stroke="#b83312" stroke-width="1.2" stroke-linecap="butt" stroke-linejoin="miter"/><path d="M221.29022,150.03992c7.74258,9.8642 -3.48656,26.60971 -28.06941,24.09502c-18.86955,-1.69106 -24.69729,-12.76095 -24.27019,-18.57022c0.32469,-7.78424 7.61429,-9.3216 7.61429,-9.3216c8.2629,-2.75402 9.47102,2.76118 16.68456,2.52687c7.21354,-0.23432 20.288,-8.69375 28.04075,1.26993z" fill="#ffffff" fill-rule="evenodd" stroke="none" stroke-width="1" stroke-linecap="butt" stroke-linejoin="miter"/><path d="M197.35384,147.52462c-0.14798,1.35432 -4.59536,3.40995 -6.38378,3.21473c-1.5969,-0.1077 -2.8437,-2.49937 -2.61383,-3.68296c0.16513,-0.59108 2.39209,-0.72867 4.50016,-0.69841c2.00769,0.02882 4.70883,0.15235 4.49746,1.16666z" fill="#001026" fill-rule="evenodd" stroke="#001026" stroke-width="1.2" stroke-linecap="round" stroke-linejoin="round"/><path d="M228.74384,143.54751c-2.32493,5.88509 -9.41499,8.00763 -9.41499,8.00763" fill="none" fill-rule="evenodd" stroke="#929292" stroke-width="1.2" stroke-linecap="round" stroke-linejoin="round"/><path d="M230.50361,154.33407c-4.47974,3.76814 -9.7119,3.47895 -9.7119,3.47895" fill="none" fill-rule="evenodd" stroke="#929292" stroke-width="1.2" stroke-linecap="round" stroke-linejoin="round"/><path d="M224.59787,133.79844l-26.29631,-1.9027l-18.16437,2.07278l6.23923,-21.97448l19.81884,-0.07128l27.60163,3.6261l12.62907,18.69402l-12.48682,17.73289z" fill="#c58600" fill-rule="nonzero" stroke="#aa5300" stroke-width="1.2" stroke-linecap="round" stroke-linejoin="miter"/><path d="M224.58762,133.99295l8.81929,-18.14549" fill="none" fill-rule="nonzero" stroke="#aa5300" stroke-width="0.75" stroke-linecap="round" stroke-linejoin="miter"/><path d="M240.24021,125.53594l-5.17969,-8.08524c0,0 17.20374,0.20418 18.23634,0.59154c1.15719,0.43409 -13.87106,22.87214 -13.87106,22.87214z" fill="#ffab19" fill-rule="nonzero" stroke="#b83312" stroke-width="1.2" stroke-linecap="round" stroke-linejoin="miter"/><path d="M214.75095,143.6707c-3.09001,3.89728 -7.51701,5.03964 -10.776,3.22644c-2.0697,-1.39796 -2.5817,-4.67189 -1.25018,-7.89223c4.65963,-1.51509 9.31922,-3.15482 13.9452,-4.81937c1.33563,2.51053 0.61272,6.39431 -1.91902,9.48516z" fill="#ffffff" fill-rule="evenodd" stroke="#929292" stroke-width="1.2" stroke-linecap="round" stroke-linejoin="round"/><path d="M188.71272,131.66797c2.5667,2.0533 2.50722,7.22027 0.06042,11.15407c-2.3653,3.93565 -5.92618,5.12388 -8.65044,3.339c-2.23522,-1.77372 -2.49632,-6.67598 -0.13103,-10.61164c1.51472,-2.52037 3.61259,-4.28375 5.6001,-4.66298c1.11605,-0.21295 2.19731,0.01055 3.12096,0.78154z" fill="#ffffff" fill-rule="evenodd" stroke="#929292" stroke-width="1.2" stroke-linecap="round" stroke-linejoin="round"/><path d="M206.3335,143.56291c-0.11178,-1.0943 0.59259,-2.07094 1.58742,-2.17257c0.99482,-0.10163 1.88216,0.7124 1.99394,1.8067c0.11178,1.0943 -0.5926,2.07095 -1.58741,2.17257c-0.99482,0.10163 -1.88215,-0.7124 -1.99393,-1.8067" fill="#001026" fill-rule="evenodd" stroke="none" stroke-width="1" stroke-linecap="butt" stroke-linejoin="miter"/><path d="M183.17322,142.99523c-0.11178,-1.0943 0.5926,-2.07095 1.58742,-2.17257c0.99482,-0.10163 1.88215,0.7124 1.99394,1.8067c0.11178,1.0943 -0.5926,2.07095 -1.58741,2.17257c-0.99482,0.10163 -1.88216,-0.7124 -1.99394,-1.8067" fill="#001026" fill-rule="evenodd" stroke="none" stroke-width="1" stroke-linecap="butt" stroke-linejoin="miter"/><path d="M231.9181,130.03304c0.86466,-1.81632 -30.16167,9.33633 -30.16167,9.33633l-2.70022,-1.50581l2.11704,-2.65491l-1.65942,-1.01022" fill="none" fill-rule="nonzero" stroke="#001026" stroke-width="1.2" stroke-linecap="round" stroke-linejoin="miter"/><path d="M210.20159,155.75242c0,0 -1.64064,3.47742 -7.40067,2.90216c-5.76003,-0.57526 -10.37627,-2.87233 -13.80956,-2.97129c-3.43329,-0.09896 -5.65686,2.29549 -8.02981,2.34179c-1.89944,0.03706 -2.5444,-1.7159 -2.5444,-1.7159" fill="none" fill-rule="nonzero" stroke="#001026" stroke-width="1.2" stroke-linecap="round" stroke-linejoin="miter"/><path d="M209.64201,156.01692c0.34386,-1.59142 0.22407,-2.39917 0.22407,-2.39917c0,0 1.28784,1.40319 0.90812,2.28411" fill="#001026" fill-rule="nonzero" stroke="#000000" stroke-width="0" stroke-linecap="round" stroke-linejoin="miter"/></g><g fill-rule="nonzero" stroke-linejoin="miter"><g stroke-width="1.2" stroke-linecap="round"><path d="M319.16543,134.87499c0,0 9.44528,-8.41486 9.96104,-8.80312c0.51567,-0.3875 4.464,-4.23967 14.53715,-4.3676c0,0 -9.80716,28.1323 -25.40087,32.74726c0,0 2.39676,-8.10541 0.90267,-19.57655zM319.19695,135.1176c-0.10445,-0.94681 -0.5571,-2.65343 -0.5571,-2.65343M317.28819,156.58056c0,0 0.73403,-1.31349 0.97454,-2.12902" fill="#be1e2d" stroke="#6f121b"/><path d="M324.70624,150.70017c0,0 -1.34361,-1.37122 -1.05676,-5.24052c0.1898,-2.61536 1.61451,-6.4845 1.61451,-6.4845c0.73916,-0.68048 1.5293,-1.48557 2.26544,-2.38667c1.24707,-1.52413 2.77161,-3.85684 4.18955,-6.16805l0.21449,-0.31577c0,0 3.5039,-4.05648 9.73577,-3.78209l0.06621,0.04953c-1.82335,4.23122 -4.71006,10.40729 -7.58236,14.50418c-3.22161,4.59475 -6.6938,7.77809 -9.56652,9.89879z" fill="#929497" stroke="#4a4b4c"/></g><path d="M298.70652,175.2297l-11.32209,5.58684l-22.15271,-4.354l-10.15144,2.10228l-13.27863,-7.10853l-4.6078,-8.7814l-3.47933,-10.08591l-0.92371,-11.95005l2.6612,-11.03054l4.39567,-7.9039l5.99562,-7.37571l7.45092,-6.23931l8.0968,-5.27893l8.76692,-4.58327l5.99724,-2.42084l2.79606,-2.0638l3.32893,-3.65877l2.46841,-3.71146l2.47163,-5.19476l1.12234,-7.47706l3.15574,6.01684l3.0176,7.52539l0.89123,-3.50502l0.51752,2.13289l2.36195,6.90103l3.92745,6.93062l2.81709,3.48769l4.09071,5.14779l4.99106,6.21387l4.22237,6.82379l3.20901,6.99197l2.44033,7.60189l1.48976,7.08439l-0.4993,7.00932l-1.06401,6.94869l-2.23415,5.71517l-3.75895,6.79786l-3.63639,3.90274l-5.90223,5.0414z" fill="#be1e2d" stroke="#8c8c8c" stroke-width="0" stroke-linecap="round"/><path d="M308.26946,178.56208l-9.62444,-3.27324l-11.33725,5.73341l-22.04021,-4.58192l-10.15051,2.06139l-12.73635,-6.2998c0,0 -35.94947,-48.32075 33.39012,-75.95914c0,0 12.84127,-7.95759 12.29133,-23.32572c-0.04473,-1.24994 6.29095,14.25245 6.29095,14.25245c0,0 0.9088,-4.81948 0.98986,-4.17346c0.89827,7.15948 7.23664,17.45308 7.23664,17.45308c43.66608,45.4023 11.30514,73.96903 11.30514,73.96903z" fill="none" stroke="#6f121b" stroke-width="1.2" stroke-linecap="round"/><g><path d="M318.94221,154.66942c-1.25586,14.61088 -17.67888,25.12611 -36.68183,23.48641c-19.00296,-1.63969 -33.38983,-14.81339 -32.13396,-29.42428c1.25586,-14.61088 17.67887,-25.12611 36.68183,-23.48641c19.00296,1.63969 33.38983,14.81339 32.13396,29.42428z" fill="#e6e7e8" stroke="#7a7a7b" stroke-width="1.2" stroke-linecap="butt"/><path d="M260.29451,172.79052l1.46401,2.8293l2.1553,2.10421l-1.72439,0.19997l-3.74595,-1.36953l-3.20328,-2.45621l-1.12956,-2.53886l-3.88705,-2.86398l-2.83164,-2.59853l-0.27567,2.18747c-3.15951,-9.52304 -9.29155,-19.88547 -4.78388,-31.57059c28.88101,-22.88321 70.67592,-21.84493 79.96729,10.06404c0.12424,0.42669 0.23621,0.85025 0.33642,1.27081c0.0159,0.60717 0.00321,1.16948 -0.04856,1.67185c-0.58552,5.68279 -1.90599,11.15739 -2.97562,16.80046c-0.07047,0.37179 -0.20809,0.77581 -0.38676,1.19544l-0.97961,1.07579l-0.023,-1.35716l-2.89991,4.49288l-4.93302,3.77538l-2.8881,1.10597l0.75118,-3.86518l0.60112,-5.36881l-0.04588,-4.34051l-0.9588,-0.21825l0.5315,-1.30931l1.52511,-3.12081l0.46238,-3.75458l-0.19606,-4.21795l-2.55267,-4.42129l-4.79375,-4.34364l-6.67681,-3.55749l-8.01693,-2.589l1.98686,1.25558l2.95709,2.96551l1.38598,3.37199l-14.90172,-5.35134l-14.33568,-5.43801l-0.92437,2.63059l-3.1079,5.28803l-2.9346,4.89644l-0.42781,4.97722l1.94036,5.04605l3.30361,3.80849l-2.95735,0.2869l-2.49523,-0.21531l-0.27751,3.22847l1.22423,3.62909l1.53617,3.24944l1.84811,2.86981z" fill="#be1e2d" stroke="#8c8c8c" stroke-width="0" stroke-linecap="butt"/><path d="M264.70412,132.3474c-2.08646,7.16119 -6.83098,10.3836 -7.15677,14.25694c-0.67055,7.97266 5.33283,12.15715 5.33283,12.15715c0,0 -5.12376,1.85919 -10.10745,-2.2381" fill="none" stroke="#6f121b" stroke-width="1.2" stroke-linecap="round"/><path d="M249.84397,148.28799c-0.42615,-1.55568 -0.79272,-3.32325 -1.08228,-5.33016" fill="none" stroke="#6f121b" stroke-width="1.2" stroke-linecap="round"/><path d="M259.30021,129.42614c12.98536,6.82976 35.15666,13.43108 35.15666,13.43108c0,0 -1.77622,-4.34982 -6.52381,-7.20579c0,0 32.092,6.46453 19.21398,27.50732c0,0 3.47082,-1.21159 6.19108,-4.23973" fill="none" stroke="#6f121b" stroke-width="1.2" stroke-linecap="round"/><path d="M316.38058,150.95857c-0.04102,1.67161 -0.03409,2.45173 -0.57697,3.73949" fill="none" stroke="#6f121b" stroke-width="1.2" stroke-linecap="round"/><path d="M317.30252,167.93412c-2.57382,5.92284 -10.2673,8.64514 -10.2673,8.64514c0,0 2.13576,-8.7782 1.18283,-13.76131" fill="none" stroke="#6f121b" stroke-width="1.2" stroke-linecap="round"/><path d="M249.43166,147.98057c-4.89731,6.43141 -2.16813,20.03035 -2.16813,20.03035c0,0 -11.24671,-21.58767 -4.33688,-32.17132" fill="none" stroke="#6f121b" stroke-width="1.2" stroke-linecap="round"/><path d="M320.20991,166.33293c-1.57376,2.00794 -2.73516,3.06016 -2.73516,3.06016c0,0 2.10944,-8.76036 -1.72228,-14.58963" fill="none" stroke="#6f121b" stroke-width="1.2" stroke-linecap="round"/><path d="M257.50065,159.01936c-1.85205,6.0455 4.38139,13.08615 4.38139,13.08615c0,0 -9.70514,0.92237 -14.75932,-6.61669" fill="none" stroke="#6f121b" stroke-width="1.2" stroke-linecap="round"/><path d="M259.78064,172.18125c0.6462,3.118 4.24739,5.55473 4.24739,5.55473c0,0 -7.73034,0.70341 -10.60361,-6.82713" fill="none" stroke="#6f121b" stroke-width="1.2" stroke-linecap="round"/></g><g fill="#000000" stroke="none" stroke-width="0.5" stroke-linecap="butt"><path d="M305.41968,151.34091c0.49852,0.01239 0.74005,0.79877 0.83818,1.13061c0.36791,1.24424 0.24982,2.65675 -0.66983,3.43752l-0.37414,0.01433c-0.16827,0.04509 -0.40502,0.03531 -0.72936,-0.0532c-2.72878,-0.7447 -5.1193,-1.45328 -7.91461,-0.93574c-0.80196,0.14848 -2.25648,1.16902 -2.92975,1.1736c-0.86359,0.00588 -1.16733,-0.26911 -1.27569,-1.15491c-0.10574,-0.86438 1.50416,-1.27555 2.08582,-1.45505c2.02501,-0.62493 4.27675,-0.75536 6.4892,-0.51668c0.48013,-0.36972 0.7563,-0.86609 1.07553,-1.48165c0.09182,-0.17705 0.46914,-0.86357 0.55133,-0.86038c0.9231,0.03589 0.9797,1.60768 0.86185,2.7478c0.23949,0.05533 0.48127,0.11935 0.70275,0.19245c0.43086,-0.92526 0.93194,-2.24757 1.2887,-2.2387z"/><path d="M270.13554,152.31173c0.19695,-0.07513 0.41382,-0.13951 0.62964,-0.19428c-0.24615,-1.27607 -0.38203,-3.02889 0.47102,-3.04197c0.07596,-0.00116 0.50872,0.77616 0.61523,0.97648c0.3703,0.69644 0.68632,1.25857 1.17658,1.68528c2.02627,-0.20176 4.13328,0.00966 6.089,0.76639c0.56176,0.21736 2.10629,0.72335 2.11172,1.68511c0.00556,0.98559 -0.24358,1.28365 -1.04637,1.25186c-0.62586,-0.02479 -2.09916,-1.20643 -2.86181,-1.3956c-2.65828,-0.65938 -4.7936,0.06167 -7.23876,0.81318c-0.29063,0.08933 -0.50935,0.09334 -0.67104,0.03809l-0.34922,-0.02695c-0.94776,-0.89839 -1.22677,-2.47851 -1.03425,-3.8566c0.05135,-0.36753 0.18141,-1.23827 0.64293,-1.23753c0.33029,0.00054 0.95421,1.49116 1.46533,2.53655z"/></g><path d="M311.39189,167.88053" fill="none" stroke="#000000" stroke-width="1.2" stroke-linecap="round"/><g stroke-width="1.2" stroke-linecap="round"><path d="M238.40405,153.16453c-13.7682,-5.9085 -18.02479,-36.07596 -18.02479,-36.07596c9.39178,0.82537 12.4096,5.13502 12.82393,5.57667c0.41427,0.44244 7.77325,9.91291 7.77325,9.91291c-3.39799,11.92404 -2.5724,20.58639 -2.5724,20.58639zM241.88831,130.08666c0,0 -0.72082,1.7582 -0.98366,2.74368M238.40405,153.16453c0.08247,0.87152 0.53928,2.29897 0.53928,2.29897" fill="#be1e2d" stroke="#6f121b"/><path d="M233.13549,148.8761c-2.31472,-2.42054 -5.00426,-5.99627 -7.21333,-11.03457c-1.96949,-4.49236 -3.58965,-11.16558 -4.55539,-15.7268l0.07051,-0.04739c5.87203,0.13996 8.43885,4.63332 8.43885,4.63332l0.14535,0.34578c0.92188,2.52042 1.93966,5.0707 2.83917,6.7542c0.53075,0.99525 1.12869,1.89355 1.70075,2.65771c0,0 0.65635,4.15424 0.37737,6.90927c-0.40709,4.07633 -1.90207,5.42174 -1.90207,5.42174z" fill="#929497" stroke="#4a4b4c"/></g><path d="M266.75888,154.07413c0,0 2.9217,0.06291 4.60526,1.84211" fill="none" stroke="#000000" stroke-width="1.2" stroke-linecap="round"/><path d="M303.07467,156.44255c1.52934,-1.20722 3.28947,-0.78948 3.28947,-0.78948" fill="none" stroke="#000000" stroke-width="1.2" stroke-linecap="round"/><path d="M293.73256,167.49519c-3.13166,1.12416 -5.75294,-0.10039 -10.92105,-0.78947c-5.1681,-0.68908 -10.0212,1.0199 -12.76316,-2.36843" fill="none" stroke="#000000" stroke-width="1.2" stroke-linecap="round"/></g><g fill-rule="nonzero" stroke-width="1.2" stroke-linejoin="miter"><path d="M187.83179,181.14359c-1.91008,3.0127 -1.99995,6.36639 -4.10997,9.09699c-4.68528,6.06327 -12.07204,2.22741 -14.6885,-2.55958c-1.55557,-2.84601 -0.25192,-6.7752 3.20345,-7.76263c2.62778,-0.75093 6.03217,1.91832 6.38237,1.82008c0.04571,-0.01282 4.63167,-11.41539 8.95341,-8.05319c3.39748,2.64316 0.6026,6.91679 0.25925,7.45834z" fill="#ffab19" stroke="#b83312" stroke-linecap="butt"/><g><path d="M164.11515,178.16806l0.80501,-4.15384l5.93473,0.32491l3.36106,4.1487l-3.83499,4.12644" fill="#ffab19" stroke="#b83312" stroke-linecap="round"/><path d="M148.72291,177.7766c-0.12339,-4.93418 3.45895,-8.90984 8.00138,-8.87987c4.54244,0.02997 8.32485,4.05419 8.44824,8.98837c0.12339,4.93418 -3.45894,8.90984 -8.00139,8.87987c-4.54244,-0.02997 -8.32485,-4.05419 -8.44825,-8.98837z" fill="#5c5e5f" stroke="#2c2d2d" stroke-linecap="butt"/><path d="M157.90094,182.31093l3.18219,-7.24137l1.47341,-11.49979l2.77921,-1.26463l2.78538,1.36813l0.62999,3.03324l-1.02579,2.58516l-1.36572,7.25929l4.22518,0.4863l1.67146,1.56541l2.01873,-9.66612l3.10334,-0.79157l1.86726,2.20008l0.31721,4.05279l-1.43653,2.36047l-1.44757,6.28612l0.94803,3.62949l-4.13021,3.61187l-11.25129,-2.59157z" fill="#ffab19" stroke="#b83312" stroke-linecap="round"/><path d="M174.96113,181.75189l3.66172,1.39297l0.49094,4.05512l-2.68161,2.75193l-2.84644,-1.24334l-1.14318,-4.17482z" fill="#5c5e5f" stroke="#2c2d2d" stroke-linecap="round"/><path d="M165.24997,177.79291l-1.5744,0.97787" fill="none" stroke="#f77a19" stroke-linecap="round"/><path d="M171.25502,180.03843l-1.25874,0.98785" fill="none" stroke="#f77a19" stroke-linecap="round"/></g></g><g><path d="M202.03224,185.08778c-0.87874,-0.9309 -2.01266,-2.4394 -3.1728,-3.85049c-1.94232,-2.31935 -4.37006,-7.03063 0.93046,-7.65167c4.25615,-0.55527 6.99854,2.98719 10.33826,6.98036c1.67882,2.15401 3.66527,4.69081 1.98329,7.50649c-1.88342,3.18265 -9.23745,11.81333 -14.06987,7.26304c-3.39216,-3.79837 0.80896,-6.43756 3.66771,-8.66665c0.42082,-0.41908 0.48156,-1.02614 0.32295,-1.58108z" fill="#ffab19" fill-rule="evenodd" stroke="#b83312" stroke-width="1.2" stroke-linecap="round" stroke-linejoin="round"/><path d="M188.28129,199.31374c-11.33888,-0.86642 -8.25831,-11.59134 -7.63158,-14.68042c1.11954,-5.51811 2.0335,-9.04251 4.02926,-11.58953c3.25244,-4.15084 15.45631,-4.26965 18.61212,2.07844c2.60865,5.24747 -2.073,14.24236 -2.073,14.24236c0,0 3.49894,11.20504 -12.9368,9.94915z" fill="#ffab19" fill-rule="nonzero" stroke="#b83312" stroke-width="1.2" stroke-linecap="butt" stroke-linejoin="miter"/><path d="M188.35421,192.32107c-7.79752,-0.24078 -3.20955,-18.59472 3.53543,-18.24217c3.00248,0.15694 4.91196,3.44449 4.2021,8.69915c-0.83746,6.19928 -2.75883,9.69676 -7.73753,9.54302z" fill="#ffffff" fill-rule="nonzero" stroke="none" stroke-width="0.5" stroke-linecap="butt" stroke-linejoin="miter"/></g><g fill-rule="nonzero" stroke-width="1.2" stroke-linejoin="miter"><g fill="#868995" stroke="#46484e" stroke-linecap="round"><g><path d="M114.12426,282.99712l6.56674,-55.55556l42.30719,-3.88888l9.70479,16.11111l-4.50833,42.22222"/><path d="M239.48274,278.55267h-74.89773l4.05497,-84.72222h70.84276"/></g><g><path d="M310.59022,281.88601l-4.50833,-42.22222l9.70479,-16.11111l42.30719,3.88888l6.56675,55.55556"/><path d="M239.30213,193.83045h70.84276l4.05497,84.72222h-74.89773"/></g></g><g stroke-linecap="butt"><g fill="#868995" stroke="#323337"><path d="M238.48488,237.54292c0,0 -50.42238,0.42456 -53.82493,-2.35022c-2.62552,-2.14112 -0.13924,-30.46732 2.49923,-32.5419c2.70859,-2.1297 50.65074,-2.16943 50.65074,-2.16943"/><path d="M237.41622,200.48137c0,0 47.94215,0.03973 50.65074,2.16943c2.63848,2.07458 5.12475,30.40078 2.49923,32.5419c-3.40255,2.77478 -53.82494,2.35022 -53.82494,2.35022"/></g><g fill="#4e4f56" stroke="#262629"><path d="M238.44458,235.81814c0,0 -48.09174,0.38502 -51.33702,-2.13133c-2.50416,-1.94171 -0.1328,-27.62974 2.38372,-29.5111c2.58339,-1.93135 48.30953,-1.96738 48.30953,-1.96738"/><path d="M237.42532,202.20833c0,0 45.72616,0.03603 48.30955,1.96738c2.51652,1.88136 4.88788,27.56939 2.38371,29.5111c-3.24528,2.51635 -51.33702,2.13133 -51.33702,2.13133"/></g><g fill="#9497a4" stroke="#56585f"><path d="M237.88618,225.47005c0,0 -15.79571,0.14779 -16.86161,-0.81808c-0.82249,-0.74529 -0.04362,-10.60526 0.78293,-11.32739c0.8485,-0.74132 15.86723,-0.75514 15.86723,-0.75514"/><path d="M237.5514,212.56944c0,0 15.01871,0.01382 15.86723,0.75514c0.82655,0.72214 1.60542,10.5821 0.78293,11.32739c-1.0659,0.96587 -16.86161,0.81808 -16.86161,0.81808"/></g></g><g stroke-linecap="butt"><g fill="#868995" stroke="#323337"><path d="M238.41004,286.26571c0,0 -46.09405,0.38812 -49.20452,-2.14847c-2.40014,-1.95733 -0.12729,-27.85196 2.28469,-29.74845c2.47608,-1.94689 46.3028,-1.9832 46.3028,-1.9832"/><path d="M237.43312,252.38558c0,0 43.82673,0.03632 46.3028,1.9832c2.41198,1.89649 4.68484,27.79112 2.28469,29.74845c-3.11046,2.53659 -49.20452,2.14847 -49.20452,2.14847"/></g><g fill="#4e4f56" stroke="#262629"><path d="M238.37319,284.68899c0,0 -43.96347,0.35197 -46.93016,-1.94838c-2.2892,-1.77503 -0.1214,-25.25795 2.1791,-26.97782c2.36163,-1.76556 44.16257,-1.7985 44.16257,-1.7985"/><path d="M237.44143,253.96429c0,0 41.80094,0.03294 44.16257,1.7985c2.3005,1.71986 4.46829,25.20279 2.1791,26.97782c-2.9667,2.30034 -46.93017,1.94838 -46.93017,1.94838"/></g><g fill="#9497a4" stroke="#56585f"><path d="M237.86273,275.22918c0,0 -14.43977,0.13511 -15.41417,-0.74785c-0.75189,-0.68132 -0.03987,-9.69489 0.71572,-10.35503c0.77567,-0.67768 14.50516,-0.69032 14.50516,-0.69032"/><path d="M237.5567,263.43599c0,0 13.7295,0.01264 14.50517,0.69032c0.75559,0.66015 1.46761,9.67371 0.71572,10.35503c-0.97441,0.88295 -15.41417,0.74785 -15.41417,0.74785"/></g></g><g stroke-linecap="butt"><g fill="#868995" stroke="#323337"><path d="M140.80152,258.67283c0,0 -18.01248,1.53988 -19.1037,-0.65232c-0.84203,-1.69158 1.30094,-24.95052 2.33447,-26.71206c1.06099,-1.80834 18.17131,-2.97438 18.17131,-2.97438"/><path d="M142.06311,228.34337c0,0 17.1068,-1.10096 17.97898,0.5793c0.8496,1.63678 0.48114,24.77815 -0.55072,26.59388c-1.33723,2.35309 -19.31207,3.19751 -19.31207,3.19751"/></g><g fill="#4e4f56" stroke="#262629"><path d="M140.86359,257.26112c0,0 -17.17902,1.45238 -18.22557,-0.53187c-0.80756,-1.53112 1.17745,-22.6266 2.1589,-24.227c1.00753,-1.64292 17.32689,-2.75355 17.32689,-2.75355"/><path d="M141.98979,229.75759c0,0 16.31616,-1.0516 17.15246,0.46917c0.81463,1.4814 0.52212,22.46475 -0.45758,24.11428c-1.26966,2.13771 -18.41454,2.9594 -18.41454,2.9594"/></g><g fill="#9497a4" stroke="#56585f"><path d="M141.12304,248.79887c0,0 -5.64338,0.4945 -5.98094,-0.27137c-0.26047,-0.59098 0.45457,-8.68505 0.78154,-9.29605c0.33566,-0.62723 5.69584,-0.99364 5.69584,-0.99364"/><path d="M141.57546,238.24073c0,0 5.35895,-0.34377 5.62888,0.24334c0.26295,0.57191 0.1038,8.62916 -0.22275,9.25903c-0.42319,0.81628 -6.05347,1.06869 -6.05347,1.06869"/></g></g><g stroke-linecap="butt"><g fill="#868995" stroke="#323337"><path d="M139.94133,290.94209c0,0 -15.20971,1.30027 -16.13114,-0.55082c-0.71101,-1.42837 1.09851,-21.0682 1.97122,-22.55564c0.89589,-1.52696 15.34385,-2.51157 15.34385,-2.51157"/><path d="M141.00662,265.33193c0,0 14.44496,-0.92965 15.18142,0.48916c0.71741,1.38209 0.40626,20.92265 -0.46504,22.45585c-1.12917,1.98694 -16.3071,2.69997 -16.3071,2.69997"/></g><g fill="#4e4f56" stroke="#262629"><path d="M139.99374,289.75005c0,0 -14.50594,1.22639 -15.38966,-0.44912c-0.68189,-1.29288 0.99423,-19.10588 1.82296,-20.45725c0.85076,-1.38729 14.63081,-2.32509 14.63081,-2.32509"/><path d="M140.94472,266.52609c0,0 13.77737,-0.88796 14.48352,0.39617c0.68788,1.2509 0.44087,18.96921 -0.3864,20.36208c-1.07209,1.80508 -15.54922,2.49892 -15.54922,2.49892"/></g><g fill="#9497a4" stroke="#56585f"><path d="M140.21284,282.60454c0,0 -4.76526,0.41756 -5.05031,-0.22915c-0.21994,-0.49902 0.38383,-7.33365 0.65993,-7.84958c0.28343,-0.52963 4.80956,-0.83903 4.80956,-0.83903"/><path d="M140.59487,273.68925c0,0 4.5251,-0.29027 4.75303,0.20548c0.22204,0.48292 0.08766,7.28645 -0.18809,7.81831c-0.35734,0.68926 -5.11155,0.9024 -5.11155,0.9024"/></g></g><g stroke-linecap="butt"><g fill="#868995" stroke="#323337"><path d="M337.96959,228.33406c0,0 17.11032,1.16605 18.17131,2.97439c1.03352,1.76154 3.17649,25.02047 2.33447,26.71206c-1.09122,2.1922 -19.1037,0.65233 -19.1037,0.65233"/><path d="M339.9939,258.71405c0,0 -17.97485,-0.84441 -19.31207,-3.1975c-1.03186,-1.81573 -1.40033,-24.9571 -0.55072,-26.59388c0.87218,-1.68026 17.97899,-0.5793 17.97899,-0.5793"/></g><g fill="#4e4f56" stroke="#262629"><path d="M338.04938,229.74871c0,0 16.31937,1.11061 17.3269,2.75354c0.98143,1.6004 2.96645,22.69588 2.15888,24.227c-1.04656,1.98426 -18.22557,0.53187 -18.22557,0.53187"/><path d="M339.90306,257.30044c0,0 -17.14488,-0.82169 -18.41454,-2.9594c-0.97971,-1.64953 -1.27222,-22.63288 -0.45758,-24.11428c0.83628,-1.52077 17.15245,-0.46917 17.15245,-0.46917"/></g><g fill="#9497a4" stroke="#56585f"><path d="M338.5537,238.23781c0,0 5.36016,0.36641 5.69583,0.99364c0.32698,0.611 1.04202,8.70507 0.78154,9.29605c-0.33756,0.76587 -5.98094,0.27137 -5.98094,0.27137"/><path d="M339.24505,248.81179c0,0 -5.63028,-0.25241 -6.05347,-1.06869c-0.32655,-0.62987 -0.4857,-8.68712 -0.22276,-9.25903c0.26994,-0.58711 5.62889,-0.24334 5.62889,-0.24334"/></g></g><g stroke-linecap="butt"><g fill="#868995" stroke="#323337"><path d="M339.04794,265.32406c0,0 14.44794,0.98461 15.34383,2.51157c0.8727,1.48744 2.68223,21.12727 1.97123,22.55563c-0.92142,1.85109 -16.13115,0.55083 -16.13115,0.55083"/><path d="M340.75724,290.9769c0,0 -15.17793,-0.71302 -16.3071,-2.69997c-0.8713,-1.5332 -1.18243,-21.07376 -0.46504,-22.45585c0.73646,-1.41881 15.18144,-0.48916 15.18144,-0.48916"/></g><g fill="#4e4f56" stroke="#262629"><path d="M339.1153,266.5186c0,0 13.78006,0.9378 14.63082,2.32509c0.82873,1.35137 2.50486,19.16438 1.82296,20.45725c-0.88371,1.6755 -15.38964,0.44911 -15.38964,0.44911"/><path d="M340.68056,289.78325c0,0 -14.47713,-0.69383 -15.54922,-2.49891c-0.82727,-1.39286 -1.07426,-19.11119 -0.38638,-20.36208c0.70616,-1.28413 14.48351,-0.39616 14.48351,-0.39616"/></g><g fill="#9497a4" stroke="#56585f"><path d="M339.54116,273.68679c0,0 4.52612,0.3094 4.80955,0.83903c0.2761,0.51592 0.87989,7.35055 0.65994,7.84958c-0.28503,0.6467 -5.05031,0.22915 -5.05031,0.22915"/><path d="M340.12492,282.61544c0,0 -4.7542,-0.21314 -5.11154,-0.90241c-0.27574,-0.53186 -0.41012,-7.3354 -0.18809,-7.81832c0.22793,-0.49575 4.75302,-0.20547 4.75302,-0.20547"/></g></g></g><path d="M240.90417,174.80615" fill="none" fill-rule="nonzero" stroke="#000000" stroke-width="1.2" stroke-linecap="round" stroke-linejoin="miter"/><g fill-rule="nonzero" stroke-width="1.2" stroke-linejoin="miter"><path d="M287.01721,176.62791c0.99569,0.31831 7.35204,7.04915 7.68934,8.11024c0.93453,2.93986 -3.29605,4.29326 -5.31835,3.64678c-2.38477,-0.76236 -10.10267,-11.77554 -3.78103,-11.93563c0.28285,-0.05376 0.57206,-0.03995 0.84445,0.03596c0.16377,0.01659 0.33463,0.03879 0.51274,0.06678z" fill="#be1e2d" stroke="#6f121b" stroke-linecap="butt"/><g><path d="M294.84589,192.43137c-2.47069,2.67677 -6.10985,2.96254 -14.46971,2.03754c-5.51038,-0.60971 -11.00569,-17.26378 3.07255,-19.11668c4.3136,-0.56773 7.25911,8.73677 7.25911,8.73677c0,0 0.67049,-0.76169 3.79095,-2.69103c7.60197,-4.70022 8.98859,4.44643 11.34884,9.99527c0.56656,-0.03323 1.08854,-0.05081 1.50649,-0.01895c0,0 2.15791,0.166 1.99192,2.3239c-0.16599,2.1579 -2.32389,1.9919 -2.32389,1.9919c-1.88547,-0.14649 -5.43809,0.38548 -7.10674,-0.30389c-3.0818,-1.27317 -2.48001,-5.93581 -2.48001,-5.93581c0,0 -2.38659,2.76112 -2.58952,2.98097z" fill="#be1e2d" stroke="#6f121b" stroke-linecap="butt"/><path d="M282.61159,189.24783c-1.46278,-2.71868 -3.35135,-7.99932 0.19496,-10.44347c4.50515,-3.10497 7.00271,7.02379 6.48936,9.99193c-0.55638,3.21696 -5.03767,3.51197 -6.68433,0.45154z" fill="#e6e7e8" stroke="#7a7a7b" stroke-linecap="round"/></g><path d="M276.5544,184.86075c-0.73996,2.32844 -1.8113,3.3511 -2.14768,5.90034c-0.14826,1.12366 0.66171,1.88522 -0.6381,3.31508c-1.2998,1.42986 -3.27282,2.18088 -4.0902,2.6598c-1.99289,1.16765 -4.23916,0.87933 -2.88452,-1.35381c-2.08924,-0.0701 -7.50326,-0.51202 -7.70615,-1.49766c-0.8462,-4.11096 4.53213,-3.21371 7.60224,-4.02707c1.60585,-1.4589 2.62875,-4.13516 3.14184,-6.55624c0.58988,-2.78341 0.70535,-5.28753 3.58083,-6.18282c1.01444,-0.31585 3.4552,-0.6835 4.54266,0.78464" fill="#be1e2d" stroke="#6f121b" stroke-linecap="butt"/><path d="M295.49138,178.89677c0.30052,-0.63788 0.29895,-1.61578 0.94816,-1.81251c1.9351,-0.58641 5.66143,1.79502 5.66143,1.79502c4.44794,2.17704 3.34087,7.99338 -1.28105,6.98682c-3.4309,-0.74717 -4.52082,-3.00416 -4.52082,-3.00416c0,0 -1.40204,-0.33222 -1.64232,-1.51178c-0.24028,-1.17956 0.23177,-1.17384 0.8346,-2.45339z" fill="#be1e2d" stroke="#6f121b" stroke-linecap="butt"/></g><path d="M248.30626,178.88192" fill="none" fill-rule="nonzero" stroke="#000000" stroke-width="1.2" stroke-linecap="round" stroke-linejoin="miter"/><path d="M279.50493,186.87562c3.32648,-2.43176 10.2647,-0.01847 9.6359,4.29995c-0.32297,2.218 -2.42717,4.20531 -3.38821,6.18051c-1.03538,2.12799 -1.33991,4.37203 -2.34097,6.51332c-0.80566,0.47933 -1.46866,1.30257 -2.41699,1.438c-6.20029,0.88541 -5.03857,-9.93954 -1.98668,-14.42731" fill="#be1e2d" fill-rule="nonzero" stroke="#6f121b" stroke-width="1.2" stroke-linecap="butt" stroke-linejoin="miter"/><g fill="#ffab19" fill-rule="nonzero" stroke="#b83312" stroke-width="1.2" stroke-linecap="butt" stroke-linejoin="miter"><path d="M200.91993,195.70124c0.06471,2.72297 1.51254,12.16011 1.51254,12.16011l-2.2496,9.63111l-10.99962,0.51365c0,0 -2.069,-1.72201 -1.95193,-4.62708c0.03001,-0.74493 1.72999,-9.55377 1.70288,-9.93122c-0.19128,-2.66364 -9.04346,-22.75194 3.18802,-25.40929c5.02154,-1.09096 6.84335,1.31157 8.10396,4.86729c1.74452,4.92065 0.63167,10.18309 0.69375,12.79543z"/><path d="M181.47742,191.63948c-0.26854,4.62097 -2.37571,6.37531 -2.42786,6.87906c-0.52923,5.11254 -1.16722,10.23931 -1.16722,10.23931l-6.51867,6.71809l-9.69691,-1.1082c0,0 -2.57534,-4.32524 -0.38463,-6.45616c2.33594,-2.27219 6.98968,-4.48269 6.98968,-4.48269c0,0 -5.47087,-24.62156 7.71907,-24.75646c3.56585,0.15397 5.22479,2.08592 5.82141,4.53426"/></g></g></g></svg>