<svg version="1.1" xmlns="http://www.w3.org/2000/svg" xmlns:xlink="http://www.w3.org/1999/xlink" width="95.4913" height="129.90621" viewBox="0,0,95.4913,129.90621"><g transform="translate(-192.25436,-114.87215)"><g stroke-miterlimit="10"><g stroke-linecap="butt"><path d="M266.96074,221.12365c3.90092,-10.11581 -1.09724,-14.43708 -0.15295,-22.75756c0.52447,-4.62126 6.51918,-6.32208 10.16577,-3.6794c2.58031,1.86995 3.36257,7.58754 3.68324,10.82596c1.29382,13.06631 -4.86147,25.3996 -16.06174,31.82213c-0.03432,0.01968 -3.68195,1.84867 -6.54604,3.2265c-0.82512,0.91385 -2.01567,1.49139 -3.3413,1.50227c-0.0127,0.0001 -0.02542,0.00016 -0.03815,0.00016c-1.93944,0 -3.59558,-1.21295 -4.25122,-2.92164c-0.29135,-0.46006 -0.42083,-0.9624 -0.29907,-1.51033c-0.00103,-0.03983 -0.00155,-0.07979 -0.00155,-0.11987c0,-1.53165 0.7565,-2.88661 1.91624,-3.71162c4.01803,-4.73356 12.33847,-5.96466 14.92677,-12.67661z" fill="#ffab19" stroke="none" stroke-width="0.5"/><path d="M266.80778,198.3661c0.52447,-4.62125 6.51918,-6.32209 10.16577,-3.6794c2.58032,1.86996 3.36257,7.58755 3.68324,10.82596c0.20426,2.06284 0.22286,4.10741 0.06525,6.11334c-2.01939,0.43731 -4.15323,0.57994 -6.36793,0.40679c-1.9674,-0.15381 -4.0203,-0.16364 -5.9859,-0.45718c-0.4442,-4.4233 -2.14638,-8.04646 -1.56042,-13.20951z" fill="#ffffff" stroke="none" stroke-width="0.5"/><path d="M266.96074,221.12365c3.90092,-10.11581 -1.09724,-14.43708 -0.15295,-22.75755c0.52447,-4.62125 6.51918,-6.32209 10.16577,-3.6794c2.58031,1.86995 3.36257,7.58754 3.68324,10.82596c1.29382,13.06631 -4.86146,25.3996 -16.06174,31.82213c-0.03432,0.01968 -3.68196,1.84867 -6.54604,3.2265c-0.82512,0.91385 -2.01567,1.49139 -3.3413,1.50228c-0.0127,0.0001 -0.02542,0.00016 -0.03815,0.00016c-1.93944,0 -3.59558,-1.21295 -4.25121,-2.92164c-0.29135,-0.46006 -0.42083,-0.9624 -0.29907,-1.51033c-0.00103,-0.03983 -0.00155,-0.07978 -0.00155,-0.11987c0,-1.53165 0.7565,-2.88662 1.91624,-3.71163c4.01803,-4.73356 12.33847,-5.96466 14.92677,-12.67661z" fill="none" stroke="#000000" stroke-width="1.2"/></g><g><g stroke="#000000" stroke-width="1.2"><path d="M226.7563,204.71571c1.70805,-5.65164 2.80153,-12.06966 7.09796,-8.02009c1.02876,-0.75875 2.16181,-1.48881 3.27833,-2.21858c5.12144,-3.34742 11.4286,-1.69684 15.43316,2.46233c0.47577,0.49414 1.02064,1.09163 1.56982,1.757c3.84983,-2.69219 8.93829,-2.63479 11.19615,2.43032c0.85067,1.90833 0.96077,4.86567 0.69671,7.22945c-0.16132,1.44406 -1.29934,15.64683 -0.70797,17.01725c0.57246,1.32661 1.29433,3.42301 1.4681,4.73541c0.09501,0.71751 0.23962,1.57169 0.33489,2.46536c0.12221,0.57381 0.15887,1.19246 0.09509,1.83108c-0.02167,1.20731 -0.25089,2.3681 -0.92433,3.24996c-0.28271,0.37021 -0.60402,0.67126 -0.95011,0.90686c-2.87252,2.77941 -8.61618,4.16203 -12.23849,3.69354c-5.19776,3.0152 -16.03688,1.87505 -18.66944,0.6732c-1.00271,-0.45777 -2.76444,-1.72425 -4.41615,-3.297c-1.27764,0.45745 -6.07609,1.21688 -8.06317,-6.84061c-2.23227,-9.05176 4.79946,-28.07548 4.79946,-28.07548z" fill="#ffab19" stroke-linecap="butt"/><path d="M252.92555,242.23118c-8.09243,-1.84286 -4.53819,-15.80485 -4.53819,-15.80485c0,0 2.80694,-11.85243 3.26923,-18.08549" fill="none" stroke-linecap="round"/></g><path d="M229.68107,239.5427c-3.34174,-8.84459 2.3889,-20.70504 3.75,-34.75" fill="none" stroke="#000000" stroke-width="1.2" stroke-linecap="round"/><path d="M233.86227,216.97623c0.03791,-2.46209 0.1813,-4.90356 0.87407,-7.19161c0.79442,-2.62379 2.38839,-7.03053 5.99143,-6.22985c8.07186,1.79375 8.34174,7.84696 6.8655,15.44737c-1.33969,6.89737 -2.98591,14.01705 -10.01218,14.01705c-1.34376,0 -2.54326,-0.61769 -3.33004,-1.58462c-3.8268,-3.284 -0.46267,-9.65897 -0.38877,-14.45834z" fill="#ffffff" stroke="none" stroke-width="0.5" stroke-linecap="butt"/></g><path d="M204.13532,176.57972c0,0 -6.64758,-1.91267 -9.20517,-7.526" fill="none" stroke="#001026" stroke-width="1.2" stroke-linecap="round"/><path d="M202.53008,183.6657c0,0 -6.35945,1.3767 -9.67571,-3.84164" fill="none" stroke="#001026" stroke-width="1.2" stroke-linecap="round"/><path d="M212.67899,157.02165l-9.33333,-17.2l9.66666,-22.8l12.33334,12.2z" fill="#ffab19" stroke="#001026" stroke-width="1.2" stroke-linecap="round"/><path d="M275.34567,161.62165l11.8,26.4v7.2l-36.6,1z" fill="#9b7f41" stroke="#001026" stroke-width="1.2" stroke-linecap="round"/><g stroke="#001026" stroke-linecap="butt"><path d="M273.16857,164.53952c5.64322,23.77721 -17.94525,36.99895 -44.28841,38.88937c-7.34346,0.52697 -24.54448,1.67941 -31.26643,-12.26038c-5.51558,-11.43804 8.35531,-17.76221 8.35531,-17.76221c0,0 -1.93288,-26.64082 26.8427,-30.96927c17.91352,-2.69456 36.42563,5.53875 40.35683,22.10249z" fill="#ffab19" stroke-width="1.2"/><path d="M228.88016,203.42889c-7.34346,0.52697 -24.54448,1.67941 -31.26643,-12.26038c-1.9907,-4.12826 -1.44417,-7.88642 0.06743,-11.00386c2.23297,-4.60515 6.48098,-5.53942 7.85778,-6.47589c1.47843,-0.0403 3.04859,-2.36677 4.52527,-2.33837c4.47743,0.08611 7.54872,3.38724 17.2,3.4c12.64904,0.01673 16.26587,-7.3606 27.013,-4.53899c7.98352,2.09604 12.73447,15.2863 8.05607,22.74485c-0.20362,0.50656 -2.65232,1.20844 -2.93166,1.70614c-8.22424,5.00478 -19.1146,7.94795 -30.52146,8.76651z" fill="#ffffff" stroke-width="0"/><path d="M273.16857,164.53952c5.64322,23.77721 -17.94525,36.99895 -44.28841,38.88937c-7.34346,0.52697 -24.54448,1.67941 -31.26643,-12.26038c-5.51558,-11.43804 8.35531,-17.76221 8.35531,-17.76221c0,0 -1.93288,-26.64082 26.8427,-30.96927c17.91352,-2.69456 36.42563,5.53875 40.35683,22.10249z" fill="none" stroke-width="1.2"/></g><path d="M206.5157,146.26674l-2.5048,-15.39637c0,0 16.54138,-1.81583 29.55565,-2.81146c13.01427,-0.99562 33.11101,-0.52187 33.11101,-0.52187c0,0 6.50901,10.34534 9.44,14.25333c2.93099,3.908 8.56,9.74667 8.56,9.74667c0,0 -3.02399,4.14761 -5.30448,9.53785c-2.28049,5.39025 -5.02886,14.12882 -5.02886,14.12882l-13.66666,-16.66666l-54.33334,3z" fill="#c58600" stroke="#001026" stroke-width="1.2" stroke-linecap="round"/><path d="M223.46421,175.95038c0.79217,-1.21542 8.59258,-1.58086 9.2,-0.8c0.14452,0.18579 -3.28374,4.98033 -5.4,5.2c-1.89677,0.19689 -4.50022,-3.32566 -3.8,-4.4z" fill="#000000" stroke="#000000" stroke-width="1.2" stroke-linecap="round"/><path d="M257.34731,168.85943c-1.02053,6.54837 -6.18311,11.18125 -11.53095,10.34782c-5.21796,-0.81319 -8.68434,-6.52992 -7.90167,-12.88988c5.65859,-2.46704 11.22772,-5.14207 16.77898,-7.85996c2.18825,2.53343 3.28353,6.36024 2.65365,10.40201z" fill="#ffffff" stroke="#001026" stroke-width="1.2" stroke-linecap="butt"/><path d="M224.35422,168.36853c-0.87562,6.54837 -5.30515,11.18125 -9.89363,10.34782c-4.58848,-0.83343 -7.59835,-6.81756 -6.72273,-13.36593c0.41278,-3.08703 1.61538,-5.74837 3.2521,-7.61201c4.16554,3.20999 8.89935,6.6723 13.48025,9.46105c-0.02506,0.38701 -0.06356,0.77704 -0.11598,1.16908z" fill="#ffffff" stroke="#001026" stroke-width="1.2" stroke-linecap="butt"/><path d="M260.54564,127.42165l19.4,-11.6l6.4,31.4l-14.2,14l3.6,-20c0,0 -3.024,-4.26739 -4.48681,-6.47785c-1.53382,-2.31779 -4.51319,-7.12215 -4.51319,-7.12215z" fill="#ffab19" stroke="#001026" stroke-width="1.2" stroke-linecap="round"/><path d="M272.64527,169.88787c-3.97597,5.61333 -14.31014,7.526 -14.31014,7.526" fill="none" stroke="#001026" stroke-width="1.2" stroke-linecap="round"/><path d="M275.87219,180.65821c-5.15536,5.21834 -15.04161,3.84164 -15.04161,3.84164" fill="none" stroke="#001026" stroke-width="1.2" stroke-linecap="round"/><path d="M210.16921,168.84192c0,-1.03554 0.83946,-1.875 1.875,-1.875c1.03554,0 1.875,0.83946 1.875,1.875c0,1.03554 -0.83946,1.875 -1.875,1.875c-1.03553,0 -1.875,-0.83946 -1.875,-1.875z" fill="#000000" stroke="#000000" stroke-width="1.2" stroke-linecap="butt"/><path d="M238.62267,169.27805c0,-1.03554 0.83947,-1.875 1.875,-1.875c1.03553,0 1.875,0.83946 1.875,1.875c0,1.03554 -0.83947,1.875 -1.875,1.875c-1.03553,0 -1.875,-0.83946 -1.875,-1.875z" fill="#000000" stroke="#000000" stroke-width="1.2" stroke-linecap="butt"/><path d="M252.18015,182.82353c-0.36345,0.05907 -6.54234,2.5311 -15.24506,4.35211c-9.22554,1.93042 -20.99605,3.22026 -21.07847,3.442c-0.19006,0.51131 17.82861,7.97947 29.70588,5.44118c11.87728,-2.53829 6.72958,-13.25349 6.61765,-13.23529z" fill="none" stroke="#000000" stroke-width="1.2" stroke-linecap="round"/><path d="M247.32721,195.76471l-0.73529,-8.52941l1.47059,7.94118" fill="#000000" stroke="#000000" stroke-width="0" stroke-linecap="round"/><path d="M268.50368,151.5l-31.17647,14.41176l-1.17647,-1.17647l1.02941,-1.47059l-0.88235,-0.73529" fill="none" stroke="#001026" stroke-width="1.2" stroke-linecap="round"/></g></g></svg>