<svg version="1.1" xmlns="http://www.w3.org/2000/svg" xmlns:xlink="http://www.w3.org/1999/xlink" width="90.29869" height="123.85659" viewBox="0,0,90.29869,123.85659"><g transform="translate(-208.53999,-117.69571)"><g stroke-miterlimit="10"><g fill-rule="evenodd"><path d="M257.0676,208.80936c2.40092,0.4955 5.37993,0.91455 8.45681,-0.14978c6.99485,-2.30912 11.77538,-9.06534 14.42709,-5.62753c2.74346,3.47756 -2.55707,15.45772 -15.34167,14.27702c-4.41039,-0.38542 -7.89707,-1.89636 -10.70172,-3.22071c-0.73404,-0.3181 -6.78682,-3.70393 -7.63705,-7.77789c-0.85024,-4.07395 1.06747,-4.2238 1.96056,-4.27273c1.0246,-0.10092 5.47775,5.97029 8.83599,6.77164z" fill="#ffab19" stroke="#001026" stroke-width="1.2" stroke-linecap="round" stroke-linejoin="round"/><path d="M279.32144,202.97698c1.59652,1.34577 0.8441,5.59709 -1.46512,8.41092c-2.30921,2.81381 -4.49299,3.82922 -6.20271,4.50514c0.46184,-0.56276 1.70362,-2.42233 0.66068,-4.2911c-1.25091,-2.39482 -5.0037,-3.04021 -5.0037,-3.04021c0,0 4.35536,-2.25408 6.89699,-4.09529c2.3826,-1.47418 3.43781,-2.65171 5.11385,-1.48946z" fill="#ffffff" stroke="none" stroke-width="1" stroke-linecap="butt" stroke-linejoin="miter"/></g><path d="M241.78831,184.15347c2.68779,-0.63341 5.38017,1.032 6.01358,3.7198c0.14388,0.61051 0.16914,1.22125 0.09077,1.80805c0.72019,1.76695 -2.74916,4.06428 -3.60766,5.30595c-3.22815,4.66891 -6.3622,6.58003 -12.73979,7.60743c-2.6062,0.41985 -5.21718,-0.34038 -6.01358,-3.7198c-1.51171,-6.41476 6.17515,-6.0741 9.33222,-8.14575c1.69189,-1.11021 5.10903,-7.52725 6.92446,-6.57568z" fill="#ffab19" fill-rule="nonzero" stroke="#000000" stroke-width="1.2" stroke-linecap="butt" stroke-linejoin="miter"/><path d="M264.08494,194.42401c-1.15767,-0.59984 -2.75804,-1.66231 -4.34955,-2.62517c-2.64957,-1.57156 -6.58961,-5.23708 -1.76863,-7.47275c3.85147,-1.8483 7.68526,0.62194 12.24286,3.329c2.3419,1.49851 5.10878,3.26043 4.48681,6.42795c-0.68615,3.5748 -4.68143,13.96941 -10.85047,11.2048c-4.53989,-2.50786 -1.46317,-6.29517 0.48026,-9.27897c0.25455,-0.5246 0.10181,-1.11339 -0.24129,-1.58486z" fill="#ffab19" fill-rule="evenodd" stroke="#001026" stroke-width="1.2" stroke-linecap="round" stroke-linejoin="round"/><g fill-rule="nonzero" stroke-linecap="round" stroke-linejoin="miter"><g><path d="M222.558,227.85913l10.39056,-21.37077c0,0 1.3324,-4.23052 3.97599,-10.93438c1.28441,-3.25714 2.19792,-9.34296 4.72374,-11.50492c3.89516,-3.33406 11.43921,-2.93848 11.43921,-2.93848c0,0 8.37594,0.94282 9.20328,5.96558c0.6583,3.99647 -1.68804,7.48964 -2.85584,11.68281c-1.11421,4.0007 -1.03798,8.79794 -1.03798,8.79794l4.61587,10.52517l-0.74178,12.4484c0,0 4.23333,0.74194 4.82853,2.67135c0.59521,1.92942 -1.69699,7.47977 -1.69699,7.47977l-18.37284,0.26713l-5.17451,-5.07555l0.63442,-5.97043l3.13705,-10.27536c0,0 -1.24281,-12.06821 -2.25739,-9.34629c-0.82275,2.2073 -5.42857,17.58828 -5.42857,17.58828l-1.35421,8.0071l-19.30014,1.52461l-3.78484,-0.72651c0,0 -3.00316,-3.85883 -0.21668,-6.57117c2.78648,-2.71233 9.2731,-2.24428 9.2731,-2.24428z" fill="#ffab19" stroke="#001026" stroke-width="1.2"/><path d="M245.95573,209.87231c0,0 -3.44223,-0.13044 -4.72135,-1.44339" fill="none" stroke="#001026" stroke-width="1.2"/><path d="M243.86287,203.29381c-4.26122,-0.62129 -3.53794,-4.65944 -2.65562,-8.53063c0.98966,-4.34217 2.37341,-8.95576 7.18588,-8.37947c5.27945,0.6322 4.91236,5.16769 3.7455,9.92277c0,0 -2.13496,7.88266 -8.27575,6.98733z" fill="#ffffff" stroke="#000000" stroke-width="0"/></g><path d="M248.71302,232.93394c0,0 1.93271,-2.58006 13.31007,-2.47002" fill="none" stroke="#001026" stroke-width="1.2"/></g><g><g><path d="M229.27857,151.85557c0,0 -13.08254,-21.87547 -12.01298,-22.00596c1.4409,-0.1758 34.33334,2.48282 34.33334,2.48282" fill="#ffab19" fill-rule="nonzero" stroke="#001026" stroke-width="1.2" stroke-linecap="round" stroke-linejoin="miter"/><path d="M283.71576,148.09735l14.41901,13.37955l-2.18273,5.77544l-30.25969,3.02511z" fill="#9b7f41" fill-rule="nonzero" stroke="#001026" stroke-width="1.2" stroke-linecap="round" stroke-linejoin="miter"/><path d="M221.61358,172.42192c0,0 -7.0362,1.53031 -12.47359,-1.10877" fill="none" fill-rule="evenodd" stroke="#001026" stroke-width="1.2" stroke-linecap="round" stroke-linejoin="round"/><path d="M222.55774,178.25962c0,0 -3.36948,2.73249 -9.61943,3.66969" fill="none" fill-rule="evenodd" stroke="#001026" stroke-width="1.2" stroke-linecap="round" stroke-linejoin="round"/><path d="M244.77116,139.94583c10.69328,-3.98687 41.48497,-0.61549 38.6573,27.19446c-0.03686,0.36256 -0.15725,0.71207 -0.27606,1.0601c-4.33896,12.70997 -17.89506,21.09163 -37.0448,21.73757c-19.14974,0.64595 -25.87742,-8.87974 -25.99709,-14.70345c-0.11968,-5.82371 6.32175,-9.47446 6.32175,-9.47446c0,0 -0.91992,-4.4061 0.95384,-10.48714c0,0 1.76189,-9.50216 17.38507,-15.32709z" fill="#ffab19" fill-rule="evenodd" stroke="#001026" stroke-width="1.2" stroke-linecap="butt" stroke-linejoin="miter"/><path d="M243.99552,167.12486c8.31816,-1.31454 17.46319,-12.77877 26.4087,-3.87048c8.92291,8.81089 0.97607,25.43791 -23.72777,26.0383c-18.93231,0.69815 -25.93659,-8.25005 -26.05627,-14.07376c-0.11968,-5.82371 6.19475,-9.13701 6.19475,-9.13701c7.8504,-3.77243 10.05396,2.18362 17.18059,1.04296z" fill="#ffffff" fill-rule="evenodd" stroke="none" stroke-width="1" stroke-linecap="butt" stroke-linejoin="miter"/><path d="M248.57215,164.72815c0.36172,1.55857 -3.16436,4.94336 -4.96298,5.15547c-1.58119,0.26431 -3.67535,-2.12409 -3.89444,-3.51046c-0.06084,-0.70449 2.03699,-1.39666 4.08262,-1.87141c1.94822,-0.45214 4.60092,-0.96514 4.7748,0.22641z" fill="#001026" fill-rule="evenodd" stroke="#001026" stroke-width="1.2" stroke-linecap="round" stroke-linejoin="round"/><path d="M278.75827,158.51524c-2.67311,5.42075 -9.16743,8.53101 -9.16743,8.53101" fill="none" fill-rule="evenodd" stroke="#001026" stroke-width="1.2" stroke-linecap="round" stroke-linejoin="round"/><path d="M282.27507,169.22793c-5.50955,3.09596 -9.84683,3.00666 -9.84683,3.00666" fill="none" fill-rule="evenodd" stroke="#001026" stroke-width="1.2" stroke-linecap="round" stroke-linejoin="round"/><path d="M271.0617,147.8237l-43.3656,4.79006l-1.47099,-22.75338l48.01186,-4.32923l14.88222,16.95522l-5.21056,16.4259z" fill="#c58600" fill-rule="nonzero" stroke="#001026" stroke-width="1.2" stroke-linecap="round" stroke-linejoin="miter"/><path d="M274.05221,125.7453l-3.00511,21.87897" fill="none" fill-rule="nonzero" stroke="#001026" stroke-width="0.75" stroke-linecap="round" stroke-linejoin="miter"/><path d="M280.82164,133.26953l-6.15643,-7.36875c0,0 11.31119,-7.8533 12.38435,-7.59902c1.20263,0.28494 -5.09965,30.3264 -5.09965,30.3264z" fill="#ffab19" fill-rule="nonzero" stroke="#001026" stroke-width="1.2" stroke-linecap="round" stroke-linejoin="miter"/></g><g><g fill-rule="evenodd"><path d="M238.70342,148.74542c3.13444,1.1204 4.19,6.11096 2.38241,11.15007c-1.28027,3.40174 -3.50954,5.91095 -5.78542,6.85078c-1.74262,-0.65059 -3.62942,-1.30994 -5.56673,-1.89326c-1.20807,-2.17675 -1.31823,-5.61727 -0.07585,-9.08071c1.80759,-5.03911 5.88856,-8.24468 9.0456,-7.02688z" fill="#ffffff" stroke="#001026" stroke-width="1.2" stroke-linecap="round" stroke-linejoin="round"/><path d="M230.08069,160.52436c-0.24867,-1.07152 0.32714,-2.12908 1.30125,-2.35515c0.97412,-0.22608 1.95687,0.46977 2.20554,1.54129c0.24867,1.07152 -0.32714,2.12908 -1.30124,2.35514c-0.97412,0.22608 -1.95687,-0.46976 -2.20554,-1.54128" fill="#001026" stroke="#001026" stroke-width="0.5" stroke-linecap="butt" stroke-linejoin="miter"/></g><g fill="none" fill-rule="nonzero" stroke="none" stroke-width="1" stroke-linecap="butt" stroke-linejoin="miter" font-family="sans-serif" font-weight="normal" font-size="12" text-anchor="start"/><g fill="none" fill-rule="nonzero" stroke="none" stroke-width="1" stroke-linecap="butt" stroke-linejoin="miter" font-family="sans-serif" font-weight="normal" font-size="12" text-anchor="start"/></g></g><path d="M243.11498,197.30203c-0.70579,1.27507 -0.93039,3.0216 -1.92635,4.01237c-0.15188,0.15109 -0.32173,0.28462 -0.51394,0.39621c-2.28558,1.32688 -9.48569,1.48748 -10.96413,1.20533c-3.19359,-0.60949 -5.66129,-4.69308 -4.01916,-7.77231c1.77883,-3.33556 7.48183,-2.44876 10.14517,-2.54308c1.2651,-0.0448 3.98504,-0.88423 4.75772,0.42628z" fill="#ffab19" fill-rule="nonzero" stroke="#000000" stroke-width="1.2" stroke-linecap="butt" stroke-linejoin="miter"/><g fill-rule="nonzero" stroke="#000000" stroke-width="1.2" stroke-linejoin="miter"><path d="M244.96566,199.72594c-2.21422,-4.1841 -0.61733,-9.37098 3.56677,-11.5852c4.1841,-2.21422 9.37098,-0.61732 11.5852,3.56678c2.21422,4.1841 0.61733,9.37098 -3.56678,11.5852c-4.1841,2.21422 -9.37097,0.61732 -11.5852,-3.56678z" fill="#5c5e5f" stroke-linecap="butt"/><g stroke-linecap="round"><path d="M247.82573,204.031l-1.7386,4.41123l-2.37068,0.2848l-3.93951,2.08479l-2.21861,-3.09288z" fill="#ffab19"/><path d="M250.01005,198.99599l-1.54283,6.24716l-4.0374,1.16682l-1.28349,0.87318l-3.73436,1.00645l-0.74875,0.78414l-3.52035,0.31134l-3.57289,-5.28549l0.00109,-6.59498l12.5402,-4.8907z" fill="#ffab19"/><path d="M243.93102,204.7344l1.15906,-2.94082" fill="none"/><path d="M240.28624,202.9781l-1.06118,3.85878" fill="none"/></g><path d="M235.37512,206.15893l-3.80569,1.23815l-2.67317,-2.85233l0.67796,-3.84993l3.0481,-0.83723l3.27925,2.53159z" fill="#5c5e5f" stroke-linecap="round"/></g><path d="M248.93312,161.51322l22.04849,-19.75773l3.5793,8.44715l-6.29957,4.29516l7.58812,2.14758l-1.5749,7.73128z" fill="#000000" fill-rule="nonzero" stroke="#001026" stroke-width="0" stroke-linecap="round" stroke-linejoin="miter"/><path d="M265.40495,188.94511c-8.89563,3.13555 -25.34849,-11.98911 -25.34849,-11.98911c1.54639,2.76124 6.56922,-0.99352 12.68296,-3.29186c5.87512,-2.20863 13.62154,-2.60326 13.95869,-5.70818c0,0 7.60246,17.8536 -1.29316,20.98915z" fill="#ffffff" fill-rule="nonzero" stroke="#001026" stroke-width="1.2" stroke-linecap="round" stroke-linejoin="miter"/></g></g></svg>