<svg version="1.1" xmlns="http://www.w3.org/2000/svg" xmlns:xlink="http://www.w3.org/1999/xlink" width="91.70776" height="122.14521" viewBox="0,0,91.70776,122.14521"><g transform="translate(-186.48791,-109.71454)"><g stroke-miterlimit="10"><g fill-rule="evenodd"><path d="M257.17955,201.73273c2.36453,-0.37278 5.2096,-1.02007 7.46915,-3.10179c5.18689,-4.62818 6.3834,-12.67881 10.30584,-10.36216c4.02224,2.32206 4.73147,15.48557 -7.19821,18.84651c-4.10552,1.18012 -7.89826,0.97451 -10.99852,0.70625c-0.79847,-0.04328 -7.72853,-1.12031 -10.33394,-4.66805c-2.60541,-3.54774 -0.96422,-4.36049 -0.19045,-4.71932c0.8674,-0.45393 7.58969,3.71776 10.94613,3.29856z" fill="#ffab19" stroke="#001026" stroke-width="1.2" stroke-linecap="round" stroke-linejoin="round"/><path d="M274.36802,188.43741c2.03323,0.71138 3.29072,4.98757 2.50878,8.45189c-0.78195,3.46429 -2.26772,5.18719 -3.48494,6.42369c0.15639,-0.69287 0.41976,-2.8828 -1.35728,-4.28162c-2.20099,-1.82257 -5.83834,-1.11803 -5.83834,-1.11803c0,0 2.85941,-3.65225 4.2896,-6.27988c1.4549,-2.22553 1.8613,-3.70638 3.88219,-3.19606z" fill="#ffffff" stroke="none" stroke-width="1" stroke-linecap="butt" stroke-linejoin="miter"/></g><g fill-rule="nonzero" stroke="#000000" stroke-width="1.2" stroke-linejoin="miter"><path d="M237.43367,188.0502c2.7856,-0.63341 5.2208,1.032 5.43914,3.7198c0.0496,0.61051 -0.01946,1.22125 -0.18845,1.80805c0.44732,1.76695 -3.37681,4.06428 -4.42705,5.30595c-3.94917,4.66891 -7.37834,6.58003 -13.9146,7.60743c-2.67104,0.41985 -5.16462,-0.34038 -5.43914,-3.7198c-0.52108,-6.41476 7.11316,-6.0741 10.59016,-8.14575c1.86334,-1.11021 6.27145,-7.52725 7.93994,-6.57568z" fill="#ffab19" stroke-linecap="butt"/><g><path d="M216.0161,203.59655c-0.40514,4.72275 -4.60271,8.81413 -9.37552,9.13832c-4.77281,0.3242 -8.31353,-3.24154 -7.90841,-7.96429c0.40514,-4.72275 4.6027,-8.81413 9.37552,-9.13832c4.77281,-0.3242 8.31352,3.24153 7.90841,7.96429z" fill="#5c5e5f" stroke-linecap="butt"/><g stroke-linecap="round"><path d="M215.93771,198.50099l3.8937,-3.32502l2.17356,0.7025l4.49382,-0.30525l0.19576,3.72735z" fill="#ffab19"/><path d="M211.32331,202.21501l4.73175,-5.08224l4.07479,0.57336l1.57022,-0.27669l3.72911,0.59685l1.06638,-0.41249l3.16656,1.14515l0.14851,6.28099l-3.60991,6.02621l-13.34942,-0.62348z" fill="#ffab19"/><path d="M219.63749,199.43988l-2.5958,2.21669" fill="none"/><path d="M221.77849,202.525l3.01483,-3.09528" fill="none"/></g><path d="M227.69901,201.61276l3.91662,0.41409l0.71428,3.69213l-2.68383,3.24283l-3.05242,-0.47279l-1.40563,-3.64516z" fill="#5c5e5f" stroke-linecap="round"/></g></g><g fill-rule="nonzero" stroke-linecap="butt" stroke-linejoin="miter"><path d="M228.9679,227.27398c-1.07557,2.94229 -17.41584,3.9597 -17.41584,3.9597c0,0 -2.42819,-6.23217 1.78694,-8.22108c1.96429,-0.92685 8.02689,-5.05776 8.79713,-6.50056c2.69907,-5.05582 2.72357,-10.03129 7.38566,-14.15691c0.85884,-0.76001 2.69895,-2.52457 4.42493,-3.37358c2.03439,-1.98664 6.29027,-0.25263 7.23736,2.28587c2.71442,7.27546 -6.01115,9.03251 -12.21619,26.00657z" fill="#ffab19" stroke="#001026" stroke-width="1.2"/><g><path d="M231.8242,201.3728c-0.76503,-3.84225 3.32419,-9.56287 3.32419,-9.56287c0,0 -0.27948,-3.41392 1.33169,-5.80015c3.33046,-4.9326 18.20805,-5.54725 19.03357,2.37602c0.30974,2.97293 -1.68547,6.14497 -1.68547,6.14497c0,0 0.81232,5.65704 -0.45651,8.58435c-1.07915,2.48972 -8.02124,7.06294 -13.20833,6.08784c-0.5388,-0.10128 -1.04205,-0.22452 -1.51218,-0.36637" fill="#ffab19" stroke="#001026" stroke-width="1.2"/><path d="M239.24915,187.2468c3.4164,-2.39383 7.93346,0.79082 8.14743,4.71237c0.02583,0.47326 0.04254,1.02858 0.0015,1.58425c0.74747,2.02219 -1.42518,6.66087 -3.07117,7.13698c-5.69783,1.64811 -12.13961,-4.33273 -7.06534,-9.0245c0.0711,-1.72796 0.8232,-3.59323 1.98757,-4.4091z" fill="#ffffff" stroke="none" stroke-width="0.5"/></g><path d="M246.99435,206.81875c0.86616,2.38538 0.14144,6.49576 0.14144,6.49576c0,0 -1.66083,8.03961 -2.41528,9.28737c-3.43396,5.67923 -14.38601,9.15703 -14.78387,0.13742c-0.09359,-2.12172 1.39105,-3.60855 2.30755,-5.31538c0.41789,-0.77826 1.94684,-8.37963 1.4342,-10.88538c-0.89142,-4.35724 -3.42606,-9.43779 -2.16436,-13.91752c2.24588,-7.97403 17.75682,2.07573 18.18715,2.89481" fill="#ffab19" stroke="#001026" stroke-width="1.2"/></g><g><g><g><path d="M210.50222,151.13685c0,0 -7.29977,-26.60689 -6.23296,-26.75808c1.43722,-0.20368 28.17092,6.8062 28.17092,6.8062" fill="#ffab19" fill-rule="nonzero" stroke="#001026" stroke-width="1.2" stroke-linecap="round" stroke-linejoin="miter"/><path d="M264.85641,146.32477l0.22128,-1.20508l5.00717,-1.00302l3.8672,4.67968l-1.44772,8.47157l-25.23828,11.58194z" fill="#9b7f41" fill-rule="nonzero" stroke="#001026" stroke-width="1.2" stroke-linecap="round" stroke-linejoin="miter"/><path d="M203.23707,171.84786c0,0 -7.00524,1.66633 -12.49273,-0.86692" fill="none" fill-rule="evenodd" stroke="#001026" stroke-width="1.2" stroke-linecap="round" stroke-linejoin="round"/><path d="M204.29418,177.66614c0,0 -3.31591,2.79725 -9.54653,3.85537" fill="none" fill-rule="evenodd" stroke="#001026" stroke-width="1.2" stroke-linecap="round" stroke-linejoin="round"/><path d="M225.76117,138.92925c10.61404,-4.19327 41.46526,-1.41905 39.17687,26.44046c-0.02982,0.36321 -0.14343,0.71498 -0.25548,1.06526c-4.09192,12.79164 -17.48311,21.43435 -36.61674,22.45114c-19.13363,1.01681 -26.04458,-8.37675 -26.27706,-14.19705c-0.23248,-5.8203 6.13701,-9.59515 6.13701,-9.59515c0,0 -1.0051,-4.38747 0.75049,-10.50366c0,0 1.57749,-9.53452 17.08487,-15.66101z" fill="#ffab19" fill-rule="evenodd" stroke="#001026" stroke-width="1.2" stroke-linecap="butt" stroke-linejoin="miter"/><path d="M225.5122,166.11818c8.29114,-1.47543 17.21235,-13.11469 26.32876,-4.38136c9.09193,8.63638 1.46869,25.41422 -23.21888,26.49309c-18.91523,1.06479 -26.09155,-7.74604 -26.32403,-13.56635c-0.23248,-5.8203 6.01658,-9.2553 6.01658,-9.2553c7.77585,-3.92381 10.09436,1.98843 17.19756,0.70993z" fill="#ffffff" fill-rule="evenodd" stroke="none" stroke-width="1" stroke-linecap="butt" stroke-linejoin="miter"/><path d="M230.04156,163.63323c0.39185,1.55128 -3.06801,5.00374 -4.86217,5.25065c-1.57577,0.29489 -3.7158,-2.05251 -3.96172,-3.43434c-0.07448,-0.70317 2.00956,-1.43587 4.04559,-1.95015c1.9391,-0.4898 4.58136,-1.05408 4.77829,0.13387z" fill="#001026" fill-rule="evenodd" stroke="#001026" stroke-width="1.2" stroke-linecap="round" stroke-linejoin="round"/><path d="M260.10163,156.83672c-2.56759,5.47151 -9.00045,8.70701 -9.00045,8.70701" fill="none" fill-rule="evenodd" stroke="#001026" stroke-width="1.2" stroke-linecap="round" stroke-linejoin="round"/><path d="M263.82534,167.47928c-5.44855,3.20211 -9.78674,3.19685 -9.78674,3.19685" fill="none" fill-rule="evenodd" stroke="#001026" stroke-width="1.2" stroke-linecap="round" stroke-linejoin="round"/><path d="M252.1994,146.29631l-43.26467,5.62927l-1.9115,-22.72062l47.91897,-5.25854l15.2079,16.66372l-4.89137,16.52376z" fill="#c58600" fill-rule="nonzero" stroke="#001026" stroke-width="1.2" stroke-linecap="round" stroke-linejoin="miter"/><path d="M254.7616,124.1641l-2.5807,21.93308" fill="none" fill-rule="nonzero" stroke="#001026" stroke-width="0.75" stroke-linecap="round" stroke-linejoin="miter"/><path d="M261.67557,131.55579l-6.29803,-7.24811c0,0 14.19282,8.39117 15.27069,8.6246c1.20792,0.26159 -7.54706,13.95737 -7.54706,13.95737z" fill="#ffab19" fill-rule="nonzero" stroke="#001026" stroke-width="1.2" stroke-linecap="round" stroke-linejoin="miter"/></g><path d="M188.74769,163.3192c-6.54126,-20.79084 6.83454,-43.52181 29.87567,-50.77107c23.04113,-7.24926 47.0224,3.72836 53.56366,24.51921c6.54126,20.79084 -6.83454,43.52181 -29.87567,50.77107c-23.04113,7.24926 -47.0224,-3.72836 -53.56366,-24.5192z" fill="none" fill-rule="nonzero" stroke="#ffffff" stroke-width="1.2" stroke-linecap="butt" stroke-linejoin="miter"/><path d="M254.06405,118.52151l0.03419,7.27918l-7.89168,2.66138l-9.31362,-3.41785l4.30192,-11.3235z" fill="#ffffff" fill-rule="nonzero" stroke="#001026" stroke-width="0" stroke-linecap="round" stroke-linejoin="miter"/><path d="M261.42678,131.22269l6.99317,1.80086l-6.97871,-1.55575" fill="#000000" fill-rule="nonzero" stroke="none" stroke-width="0" stroke-linecap="round" stroke-linejoin="miter"/></g><g><g fill-rule="evenodd"><path d="M219.86503,147.84472c3.15556,1.05947 4.3076,6.02864 2.59795,11.10182c-1.80659,5.09767 -5.75222,8.26026 -8.90778,7.2008c-3.15556,-1.05947 -4.30759,-6.02864 -2.59794,-11.10183c1.70964,-5.07319 5.72772,-8.35722 8.90778,-7.2008z" fill="#ffffff" stroke="#001026" stroke-width="1.2" stroke-linecap="round" stroke-linejoin="round"/><path d="M211.47212,159.78847c-0.26939,-1.0665 0.28583,-2.13503 1.2554,-2.37992c0.96954,-0.24491 1.9656,0.43175 2.23499,1.49827c0.26939,1.0665 -0.28583,2.13503 -1.25539,2.37992c-0.96954,0.24491 -1.9656,-0.43175 -2.23499,-1.49827" fill="#001026" stroke="none" stroke-width="1" stroke-linecap="butt" stroke-linejoin="miter"/></g><g fill-rule="evenodd"><path d="M243.9916,146.18387c3.54439,1.37381 4.74641,6.94922 2.81837,11.97442c-1.83108,5.00071 -5.75423,7.43564 -9.41905,6.40168c-3.08309,-1.18091 -4.59947,-6.36749 -2.76838,-11.36819c1.83108,-5.00071 5.80019,-8.47866 9.36907,-7.00789z" fill="#ffffff" stroke="#001026" stroke-width="1.2" stroke-linecap="round" stroke-linejoin="round"/><path d="M235.35578,157.98273c-0.26939,-1.0665 0.31032,-2.03806 1.2554,-2.37993c0.96954,-0.24491 1.96559,0.43176 2.23499,1.49828c0.26939,1.0665 -0.28583,2.13503 -1.25539,2.37992c-0.96954,0.24491 -1.9656,-0.43176 -2.23499,-1.49828" fill="#001026" stroke="none" stroke-width="1" stroke-linecap="butt" stroke-linejoin="miter"/></g><g fill-rule="nonzero" stroke="#001026" stroke-linecap="round" stroke-linejoin="miter"><path d="M223.13768,178.74559c-0.22066,-0.16327 5.4624,-1.62174 10.9146,-4.31579c12.3434,-6.0991 12.6159,-8.22133 13.17671,-8.17459c1.03495,0.08628 5.28422,10.28305 -2.42444,14.2761c-7.41343,3.84013 -20.97773,-1.27582 -21.66687,-1.78574z" fill="#ffffff" stroke-width="1.2"/><path d="M247.83275,177.30157l-2.87559,-7.16457l3.4545,6.90988" fill="#000000" stroke-width="0"/><path d="M245.24842,179.75131l-1.3845,-4.08939l1.74576,3.65409" fill="#000000" stroke-width="0"/><path d="M224.26003,178.6897l9.36415,1.33889l4.18648,1.82026l-7.3172,-0.92661z" fill="#000000" stroke-width="0"/></g></g></g><g fill-rule="nonzero" stroke="#000000" stroke-width="1.2" stroke-linejoin="miter"><path d="M250.95079,184.93573c0,0 -0.03751,-1.88692 1.76757,-2.06636c7.11939,-0.70774 7.75432,4.22743 10.43969,5.93226c3.1042,1.97074 6.94824,3.6068 7.20883,5.2029c0.37351,2.28769 -1.63583,3.27774 -3.69926,5.02917c-2.7793,2.35908 -6.26621,5.01957 -9.92548,3.87832c-2.85805,-0.89135 -0.20591,-7.62259 -0.16508,-7.65987c-2.13288,-1.76011 -3.81836,-4.11626 -4.38385,-6.14464" fill="#ffab19" stroke-linecap="butt"/><g stroke-linecap="round"><path d="M261.52441,204.43869l-4.10048,2.78863l-2.73365,0.03665l-1.06309,-1.9263l-1.36683,-0.28541l-1.21495,-4.06731" fill="#ffab19"/><path d="M254.74043,189.15771l12.5402,6.11594l0.00109,6.59508l-3.57289,4.9364l-3.52035,-0.65529l-0.74875,-0.8573l-3.73436,-1.37131l-1.28349,-0.99859l-4.0374,-1.5613l-2.45405,-6.33508z" fill="#ffab19"/><path d="M253.60974,197.92316l1.15906,3.05407l-2.35657,-2.74427z" fill="none"/><path d="M258.56546,199.89562l1.06118,3.96247" fill="none"/></g></g></g></g></svg>