<svg version="1.1" xmlns="http://www.w3.org/2000/svg" xmlns:xlink="http://www.w3.org/1999/xlink" width="115.73074" height="129.95551" viewBox="0,0,115.73074,129.95551"><g transform="translate(-203.24245,-115.36368)"><g stroke-miterlimit="10"><path d="M247.86893,222.08492c0,-9.5124 7.71133,-17.22374 17.22374,-17.22374c9.5124,0 17.22374,7.71133 17.22374,17.22374c0,9.5124 -7.71133,17.22374 -17.22374,17.22374c-9.5124,0 -17.22374,-7.71133 -17.22374,-17.22374z" fill="#d5d5d5" fill-rule="nonzero" stroke="#001026" stroke-width="1.2" stroke-linecap="butt" stroke-linejoin="miter"/><path d="M204.05477,224.4282c0,-10.06837 8.16203,-18.23039 18.23039,-18.23039c10.06837,0 18.23039,8.16203 18.23039,18.23039c0,10.06837 -8.16203,18.23039 -18.23039,18.23039c-10.06837,0 -18.23039,-8.16203 -18.23039,-18.23039z" fill="#d5d5d5" fill-rule="nonzero" stroke="#001026" stroke-width="1.2" stroke-linecap="butt" stroke-linejoin="miter"/><path d="M275.40667,208.62282c0,0 5.70386,-10.70596 8.8015,-16.52013c3.464,-6.50182 -6.12033,-25.51763 -6.12033,-25.51763l10.71505,-1.59412c0,0 8.57648,21.99805 5.80339,28.43645c-3.16784,7.35492 -10.17996,23.63521 -10.17996,23.63521z" fill="#2b2b2b" fill-rule="nonzero" stroke="#001026" stroke-width="1.2" stroke-linecap="butt" stroke-linejoin="miter"/><path d="M204.73754,207.49642l-0.78849,-4.75156c0,0 44.54056,-0.4483 57.22032,0.5058c6.07868,0.4574 14.96231,4.92568 14.96231,4.92568l-1.2276,7.16955c0,0 -25.32442,2.075 -37.30304,0.73497c-11.37947,-1.27301 -32.8635,-8.58443 -32.8635,-8.58443z" fill="#2b2b2b" fill-rule="nonzero" stroke="#001026" stroke-width="1.2" stroke-linecap="butt" stroke-linejoin="miter"/><path d="M203.94905,203.36849l0.98208,-67.27224c0,0 9.80035,-20.13257 16.94082,-20.13257c10.60422,0 39.52858,0 39.52858,0v87.40481z" fill="#2b2b2b" fill-rule="nonzero" stroke="#001026" stroke-width="1.2" stroke-linecap="butt" stroke-linejoin="miter"/><path d="M279.965,223.60506c2.89265,-0.53158 8.55165,-1.32262 7.77811,4.38191c-0.68934,5.52311 -17.64683,8.56678 -19.23471,3.19941c-0.46997,-2.31282 2.23087,-11.31115 2.13023,-13.23206c-0.12669,-3.30194 -12.27796,1.69496 -17.94105,-0.92669c-2.61484,-1.21051 -1.14757,-10.677 -1.31137,-11.44952c-0.51857,-2.44562 18.47828,1.34992 27.52217,1.40776c-0.69283,4.4224 0.60959,16.63222 1.05662,16.6192z" fill="#ffab19" fill-rule="evenodd" stroke="#001026" stroke-width="1.2" stroke-linecap="round" stroke-linejoin="round"/><path d="M294.66966,184.01962c-1.11656,3.61259 -16.83419,15.65889 -23.83997,14.62048c-2.4633,-0.36512 -18.70281,-19.22625 -11.79273,-22.40363c6.91008,-3.17737 10.18453,3.80994 12.94465,7.66637c2.27863,3.28317 14.67804,-4.33543 15.61274,-4.69568c1.9313,-0.84657 3.17708,0.05486 4.67208,1.41179c1.01154,0.91812 2.82693,1.81486 2.40325,3.40068z" fill="#ffab19" fill-rule="evenodd" stroke="#001026" stroke-width="1.2" stroke-linecap="round" stroke-linejoin="round"/><g fill-rule="evenodd"><path d="M247.06337,201.17625c1.04024,0.52012 3.25076,1.69039 0.13003,6.11142c-3.12073,4.42103 -12.09281,5.33124 -13.13305,5.33124c-4.03094,0.13003 -8.97209,0.13003 -14.43335,-1.69039c-15.86369,-5.20121 -15.99372,-22.23517 -10.92254,-24.9658c4.94115,-2.73063 7.15166,7.80181 14.30332,14.17329c3.12073,2.86066 6.8916,3.90091 10.01233,4.55106c4.42103,0.78018 12.87299,-4.16097 14.04326,-3.51082z" fill="#ffab19" stroke="#001026" stroke-width="1.2" stroke-linecap="round" stroke-linejoin="round"/><path d="M214.81587,190.64381c2.08048,3.51082 6.11142,8.45196 6.11142,8.45196c0,0 -4.81112,-1.17027 -7.54175,1.04024c-2.21051,1.69039 -1.69039,4.55106 -1.43033,5.46127c-1.69039,-1.69039 -3.77088,-4.03094 -5.07118,-8.58199c-1.3003,-4.55106 0,-10.01233 2.6006,-10.79251c2.6006,-0.52012 3.25076,1.43033 5.33124,4.42103z" fill="#ffffff" stroke="none" stroke-width="1" stroke-linecap="butt" stroke-linejoin="miter"/></g><g fill-rule="evenodd"><path d="M250.61773,210.67309c-16.27048,-2.47805 -11.33039,-11.98992 -12.16764,-19.57326c-0.49707,-6.6339 1.38715,-6.62176 9.10982,-10.1165c4.23081,-2.18297 6.72429,-3.46046 9.11984,-5.34968c3.63372,-2.77757 6.83473,3.10984 7.84063,6.65066c0,0 1.41221,5.29533 1.48333,8.48382c0.03333,2.29061 -0.63045,12.27948 -5.03367,17.23897c-3.0572,3.44343 -10.35232,2.66599 -10.35232,2.66599z" fill="#ffab19" stroke="#001026" stroke-width="1.2" stroke-linecap="round" stroke-linejoin="round"/><path d="M264.20315,199.903c0,0 -2.6575,-0.13935 -5.66981,-0.53561c-3.70484,-0.41092 -7.1674,-0.48416 -7.4197,-5.58868c0.08789,-4.15508 -0.58285,-9.12987 6.82431,-9.49974c7.02053,-0.43347 6.90084,3.91491 6.90084,3.91491c1.15779,6.84186 -0.63565,11.7091 -0.63565,11.7091z" fill="#ffffff" stroke="none" stroke-width="1" stroke-linecap="butt" stroke-linejoin="miter"/></g><path d="M277.31799,170.80213c0,-4.64189 3.763,-8.40489 8.40489,-8.40489c4.64189,0 8.40489,3.763 8.40489,8.40489c0,4.64189 -3.763,8.40489 -8.40489,8.40489c-4.64189,0 -8.40489,-3.763 -8.40489,-8.40489z" fill="#ffab19" fill-rule="nonzero" stroke="#001026" stroke-width="1.2" stroke-linecap="butt" stroke-linejoin="miter"/><path d="M266.0487,127.88934c0.3,-0.2 0.8,-0.1 0.9,0.3l2.6,10.7c0,0 6.4,4.7 8.3,8c3.2,5.5 3.3,10 3.3,10c0,0 7.1,2.1 8.3,7.8c1.2,5.7 -3.2,16.5 -22,20.2c-18.8,3.7 -33.9,-1.4 -41,-12.8c-7.1,-11.4 4.1,-25 3.5,-24.2l-2.1,-17.9c-0.1,-0.4 0.4,-0.7 0.8,-0.5l12.1,7.9c0,0 4.5,-1.7 9.2,-1.9c2.8,-0.2 5.2,0 7.5,0.4z" fill="#ffab19" fill-rule="evenodd" stroke="#001026" stroke-width="1.2" stroke-linecap="butt" stroke-linejoin="miter"/><path d="M280.8487,157.28931c0,0 6.9,1.8 8.1,7.5c1.2,5.7 -3.6,16 -22.2,19.6c-24.2,5 -35.7,-9.4 -29,-20c6.7,-10.7 18.2,-1.6 26.6,-2.2c7.2,-0.5 8,-6.8 16.5,-4.9z" fill="#ffffff" fill-rule="evenodd" stroke="none" stroke-width="1" stroke-linecap="butt" stroke-linejoin="miter"/><path d="M242.56384,153.31867c0,-6.64545 5.3872,-12.03265 12.03264,-12.03265c6.64545,0 12.03265,5.3872 12.03265,12.03265c0,6.64545 -5.38719,12.03265 -12.03265,12.03265c-6.64545,0 -12.03263,-5.3872 -12.03263,-12.03265z" fill="#ffffff" fill-rule="nonzero" stroke="#001026" stroke-width="1.2" stroke-linecap="butt" stroke-linejoin="miter"/><path d="M299.08402,158.554c-4.7,3.8 -11.9,3.9 -11.9,3.9" fill="none" fill-rule="evenodd" stroke="#001026" stroke-width="1.2" stroke-linecap="round" stroke-linejoin="round"/><path d="M297.78404,169.75394c-6.3,0.5 -10.2,-1.4 -10.2,-1.4" fill="none" fill-rule="evenodd" stroke="#001026" stroke-width="1.2" stroke-linecap="round" stroke-linejoin="round"/><path d="M272.05373,160.86902c2.1,0 4.3,0.2 4.4,0.9c0.1,1.4 -1.4,4.2 -3,4.3c-1.8,0.2 -6,-2.3 -6,-3.9c-0.1,-1.2 2.6,-1.3 4.6,-1.3z" fill="#001026" fill-rule="evenodd" stroke="#001026" stroke-width="1.2" stroke-linecap="round" stroke-linejoin="round"/><path d="M218.9487,158.08928c0,0 8.6,2.8 12.1,5.9" fill="none" fill-rule="evenodd" stroke="#001026" stroke-width="1.2" stroke-linecap="round" stroke-linejoin="round"/><path d="M231.3487,167.48934c-4.3,1.7 -11.7,0.6 -11.7,0.6" fill="none" fill-rule="evenodd" stroke="#001026" stroke-width="1.2" stroke-linecap="round" stroke-linejoin="round"/><path d="M266.6396,153.56368c0,1.95364 -2.30651,7.4269 -4.08255,7.4269c-1.77604,0 -2.3112,-5.47326 -2.3112,-7.4269c0,-1.95364 1.42083,-3.55208 3.19687,-3.55208c1.77604,0.1776 3.19688,1.59843 3.19688,3.55208" fill="#001026" fill-rule="evenodd" stroke="none" stroke-width="1" stroke-linecap="butt" stroke-linejoin="miter"/><path d="M269.391,145.45518c0,0 -1.11696,5.4535 -2.96131,3.59199c-3.49696,-3.52949 -15.37157,-16.05474 -15.37157,-16.05474" fill="none" fill-rule="nonzero" stroke="#001026" stroke-width="2.5" stroke-linecap="round" stroke-linejoin="miter"/><path d="M273.54286,150.17458c0,-6.10878 3.57362,-11.06091 7.98189,-11.06091c4.40828,0 7.9819,4.95214 7.9819,11.06091c0,6.10878 -3.57362,11.06091 -7.9819,11.06091c-4.40828,0 -7.98188,-4.95213 -7.98188,-11.06091z" fill="#ffffff" fill-rule="nonzero" stroke="#001026" stroke-width="1.2" stroke-linecap="butt" stroke-linejoin="miter"/><path d="M289.51361,150.74432c0,1.79587 -1.53003,6.91862 -2.70817,6.91862c-1.17814,0 -1.53314,-5.12275 -1.53314,-6.91862c0,-1.79587 0.94252,-3.26522 2.12065,-3.26522c1.17814,0.16326 2.12065,1.46935 2.12065,3.26522" fill="#001026" fill-rule="evenodd" stroke="none" stroke-width="1" stroke-linecap="butt" stroke-linejoin="miter"/><path d="M272.45642,141.51017c0,0 3.38998,-4.26447 5.89204,-4.66835c4.21239,-0.67996 17.04664,-2.73705 17.04664,-2.73705" fill="none" fill-rule="nonzero" stroke="#001026" stroke-width="2.5" stroke-linecap="round" stroke-linejoin="miter"/><path d="M237.74585,160.57248c0.07172,-0.52393 0.64943,-0.84517 1.15544,-0.64247c2.36318,1.25752 9.14942,4.32138 16.93669,5.92101c7.01931,1.36107 14.32595,3.11626 16.34448,2.99223c0.67284,-0.04134 -23.14865,18.8077 -36.79431,16.13934c-11.74018,-2.9413 1.08626,-18.04571 2.3577,-24.4101z" fill="#ffffff" fill-rule="evenodd" stroke="#001026" stroke-width="1.2" stroke-linecap="round" stroke-linejoin="round"/><path d="M250.44723,235.43819c2.21467,1.93527 6.35234,5.87604 1.40324,8.81651c-4.75465,2.89366 -17.68077,-8.49651 -14.4638,-13.07703c1.5194,-1.80594 10.24661,-5.28451 11.68863,-6.55752c2.50756,-2.15198 -8.96055,-8.56328 -10.4277,-14.62884c-0.67743,-2.80068 7.64959,-7.53651 8.15285,-8.14507c1.59321,-1.92658 10.43018,15.31275 16.00726,22.43254c-3.89466,2.20664 -12.64861,10.81737 -12.3605,11.15941z" fill="#ffab19" fill-rule="evenodd" stroke="#001026" stroke-width="1.2" stroke-linecap="round" stroke-linejoin="round"/><g fill-rule="nonzero" stroke="#001026" stroke-width="1.2" stroke-linecap="round" stroke-linejoin="miter"><path d="M288.02553,189.81368l-3.80629,-0.01839l-0.58088,-4.41913l-1.14027,-2.09786l2.59023,-3.97144z" fill="#ffab19"/><path d="M296.54793,175.7257l3.27232,13.05632l-5.37671,3.819l-6.37812,0.14677l-1.78422,-3.05063l0.20588,-1.06448l-1.34135,-3.62756l-0.03111,-1.55204l-1.38603,-3.96749l4.20053,-4.87472z" fill="#ffab19"/><path d="M286.76961,182.88973l1.72682,-2.64762" fill="none"/><path d="M287.77978,187.94404l2.53196,-3.09926" fill="none"/></g><path d="M318.37319,188.73874c0,4.94747 -19.79893,8.95819 -44.22214,8.95819c-24.42321,0 -35.54835,-4.15291 -35.54835,-9.10038c0,-4.94747 11.12514,-2.70167 35.54835,-2.70167c24.42322,0 44.22214,-2.1036 44.22214,2.84387z" fill="#ffab19" fill-rule="nonzero" stroke="#001026" stroke-width="1.2" stroke-linecap="butt" stroke-linejoin="miter"/></g></g></svg>