<svg version="1.1" xmlns="http://www.w3.org/2000/svg" xmlns:xlink="http://www.w3.org/1999/xlink" width="88.17419" height="124.41973" viewBox="0,0,88.17419,124.41973"><g transform="translate(-168.7148,-105.61973)"><g stroke-miterlimit="10"><path d="M218.6891,184.98121c2.65093,0.69395 4.16909,3.42325 3.39089,6.09606c-0.17676,0.60711 -0.4568,1.15907 -0.81513,1.6415c-0.24736,1.89885 -4.40086,2.31188 -5.76154,3.00949c-5.11644,2.62315 -8.78734,2.85105 -14.8423,0.78384c-2.47436,-0.84476 -4.36932,-2.73548 -3.39089,-6.09606c1.85727,-6.37898 8.37446,-2.49085 12.14475,-2.85c2.02052,-0.19247 8.16579,-4.27358 9.27421,-2.58484z" fill="#ffab19" fill-rule="nonzero" stroke="#000000" stroke-width="1.2" stroke-linecap="butt" stroke-linejoin="miter"/><g fill-rule="evenodd"><path d="M233.50623,184.86272c1.45277,-2.01999 3.07734,-4.60237 3.394,-7.85108c0.82035,-7.34256 -3.32717,-14.37185 0.90558,-15.48017c4.30719,-1.17742 12.98753,8.35999 6.57719,19.68234c-2.1915,3.91445 -5.02081,6.54057 -7.39576,8.61067c-0.59564,0.55287 -6.20088,4.81544 -10.26006,4.01663c-4.05918,-0.7988 -3.39489,-2.62416 -3.06657,-3.46614c0.33595,-0.98336 7.71513,-2.72891 9.84561,-5.51227z" fill="#ffab19" stroke="#001026" stroke-width="1.2" stroke-linecap="round" stroke-linejoin="round"/><path d="M237.49276,162.09071c1.8901,-0.9485 5.44154,1.39603 7.03605,4.61683c1.5945,3.22079 1.60617,5.62751 1.50705,7.46552c-0.31891,-0.64416 -1.49135,-2.51069 -3.6259,-2.27545c-2.69969,0.22258 -4.85307,3.43009 -4.85307,3.43009c0,0 -0.23143,-4.8889 -0.84457,-7.94612c-0.34582,-2.76812 -0.97601,-4.19782 0.78042,-5.29089z" fill="#ffffff" stroke="none" stroke-width="1" stroke-linecap="butt" stroke-linejoin="miter"/></g><g fill-rule="nonzero" stroke-linecap="butt" stroke-linejoin="miter"><path d="M237.36385,211.59957c2.74783,1.52142 0.97671,17.63914 0.97671,17.63914c0,0 -6.62234,1.3728 -7.88538,-3.06141c-0.58859,-2.06638 -3.67066,-8.64754 -4.97672,-9.63068c-4.57668,-3.44511 -9.52912,-4.26586 -12.84458,-9.47869c-0.61077,-0.96029 -2.05505,-3.03959 -2.60669,-4.86083c-1.63241,-2.30457 0.8203,-6.18234 3.51059,-6.70054c7.71046,-1.4852 7.97385,7.31592 23.82611,16.09301z" fill="#ffab19" stroke="#001026" stroke-width="1.2"/><g><path d="M210.23156,202.15518c-3.08022,-2.64353 -3.45899,-9.49027 -3.45899,-9.49027c0,0 -2.41475,-2.57168 -2.64882,-5.375c-0.48387,-5.79477 11.09424,-14.56898 16.84089,-8.69891c2.15622,2.20254 2.5853,5.84744 2.5853,5.84744c0,0 4.28236,4.06699 5.139,7.11196c0.72859,2.58979 -1.92443,10.10826 -6.72408,12.21722c-0.49855,0.21907 -0.98258,0.40081 -1.4519,0.54923" fill="#ffab19" stroke="#001026" stroke-width="1.2"/><path d="M207.14557,186.73643c1.21376,-3.81446 6.89151,-3.78523 9.57917,-0.77155c0.32436,0.3637 0.69401,0.79802 1.01741,1.26478c1.89862,1.19932 3.1257,6.11466 2.10651,7.41143c-3.52803,4.48893 -12.54825,3.2975 -11.47437,-3.27575c-1.05118,-1.42 -1.6424,-3.32885 -1.22873,-4.6289z" fill="#ffffff" stroke="none" stroke-width="0.5"/></g><path d="M227.78252,192.65802c2.70559,1.42337 11.02979,12.96757 11.02979,12.96757c0,0 6.29033,7.3473 6.95985,8.76415c3.04737,6.44886 -0.55147,15.32479 -9.00495,8.34078c-1.98854,-1.64288 -2.42469,-3.65725 -3.41191,-5.53105c-0.45014,-0.85439 -6.4231,-7.77817 -9.0199,-9.49453c-4.51557,-2.98458 -10.70415,-5.63211 -14.00148,-9.9133c-5.86934,-7.62064 12.8549,-8.22796 13.86601,-7.81321" fill="#ffab19" stroke="#001026" stroke-width="1.2"/></g><g><g><g><path d="M210.74324,127.08742c0,0 26.68985,-8.061 28.12938,-7.91428c1.06853,0.10891 -6.02108,26.98351 -6.02108,26.98351" fill="#ffab19" fill-rule="nonzero" stroke="#001026" stroke-width="1.2" stroke-linecap="round" stroke-linejoin="miter"/><path d="M196.21277,165.30884l-25.34296,-10.57539l-1.51639,-8.40774l3.83143,-4.82887l5.01756,0.80434l0.23107,1.19539z" fill="#9b7f41" fill-rule="nonzero" stroke="#001026" stroke-width="1.2" stroke-linecap="round" stroke-linejoin="miter"/><path d="M252.77787,165.20435c-5.46971,2.74815 -12.49158,1.35999 -12.49158,1.35999" fill="none" fill-rule="evenodd" stroke="#001026" stroke-width="1.2" stroke-linecap="round" stroke-linejoin="round"/><path d="M248.85732,175.89491c-6.24201,-0.81104 -9.58192,-3.47504 -9.58192,-3.47504" fill="none" fill-rule="evenodd" stroke="#001026" stroke-width="1.2" stroke-linecap="round" stroke-linejoin="round"/><path d="M217.48755,134.56167c15.56376,5.50881 17.21851,14.97353 17.21851,14.97353c1.8055,6.04203 0.83516,10.46579 0.83516,10.46579c0,0 6.40274,3.52017 6.21687,9.34511c-0.18588,5.82492 -7.02463,15.4843 -26.17531,15.2245c-19.15068,-0.25978 -32.61746,-8.36647 -36.81395,-20.98639c-0.11492,-0.34557 -0.2314,-0.69259 -0.26415,-1.05433c-2.51307,-27.7473 28.33022,-31.7387 38.98284,-27.96819z" fill="#ffab19" fill-rule="evenodd" stroke="#001026" stroke-width="1.2" stroke-linecap="butt" stroke-linejoin="miter"/><path d="M217.95485,161.71953c7.11677,0.99677 9.38889,-5.0025 17.19985,-1.38907c0,0 6.27952,3.18534 6.09366,9.01027c-0.18587,5.82495 -7.29479,14.91253 -26.22737,14.59616c-24.7077,-0.1023 -32.46915,-16.56575 -23.44232,-25.55471c9.05055,-9.08681 18.06933,2.19075 26.37616,3.33734z" fill="#ffffff" fill-rule="evenodd" stroke="none" stroke-width="1" stroke-linecap="butt" stroke-linejoin="miter"/><path d="M213.40342,159.41556c0.18748,-1.1948 2.83549,-0.7354 4.77943,-0.32262c2.04111,0.43341 4.13199,1.08317 4.06313,1.78873c-0.23494,1.39048 -2.35711,3.82063 -3.93597,3.58824c-1.79698,-0.17581 -5.28617,-3.48884 -4.90658,-5.05438z" fill="#001026" fill-rule="evenodd" stroke="#001026" stroke-width="1.2" stroke-linecap="round" stroke-linejoin="round"/><path d="M192.34935,162.15687c0,0 -6.46182,-2.97873 -9.07451,-8.34448" fill="none" fill-rule="evenodd" stroke="#001026" stroke-width="1.2" stroke-linecap="round" stroke-linejoin="round"/><path d="M189.45176,167.40136c0,0 -4.34014,0.1767 -9.81693,-2.80756" fill="none" fill-rule="evenodd" stroke="#001026" stroke-width="1.2" stroke-linecap="round" stroke-linejoin="round"/><path d="M178.11771,154.31316l-5.02627,-16.31753l15.08121,-17.25176l47.98343,3.36053l-1.73002,22.77841l-43.32995,-3.91491z" fill="#c58600" fill-rule="nonzero" stroke="#001026" stroke-width="1.2" stroke-linecap="round" stroke-linejoin="miter"/><path d="M188.3551,120.95425l2.75794,21.81394" fill="none" fill-rule="nonzero" stroke="#001026" stroke-width="0.75" stroke-linecap="round" stroke-linejoin="miter"/><path d="M180.19407,143.99164c0,0 -8.86899,-13.33906 -7.6626,-13.64818c1.07651,-0.27585 15.20856,-9.2214 15.20856,-9.2214l-6.24278,7.49136z" fill="#ffab19" fill-rule="nonzero" stroke="#001026" stroke-width="1.2" stroke-linecap="round" stroke-linejoin="miter"/></g><path d="M254.71396,157.4697c-6.37741,21.03313 -30.28171,32.94997 -53.39173,26.61704c-23.11002,-6.33294 -36.6745,-28.5175 -30.29707,-49.55063c6.37741,-21.03314 30.28171,-32.94998 53.39173,-26.61705c23.11002,6.33294 36.6745,28.5175 30.29707,49.55063z" fill="none" fill-rule="nonzero" stroke="#ffffff" stroke-width="1.2" stroke-linecap="butt" stroke-linejoin="miter"/><path d="M201.84431,109.98283l4.39481,11.14463l-9.29051,3.78327l-7.9167,-2.3474l-0.02423,-7.27484z" fill="#ffffff" fill-rule="nonzero" stroke="#001026" stroke-width="0" stroke-linecap="round" stroke-linejoin="miter"/><path d="M181.73098,128.51626l-6.96946,1.83035l6.98196,-2.07584" fill="#000000" fill-rule="nonzero" stroke="none" stroke-width="0" stroke-linecap="round" stroke-linejoin="miter"/></g><g stroke="#001026"><g fill-rule="evenodd"><path d="M223.45794,143.23713c3.17225,-1.28121 7.21856,1.84145 8.96971,6.8431c1.75117,5.00166 0.6385,10.01248 -2.51003,11.19584c-3.14852,1.18336 -7.12136,-1.82081 -8.96971,-6.8431c-1.75116,-5.00165 -0.63848,-10.01246 2.51005,-11.19582z" fill="#ffffff" stroke-width="1.2" stroke-linecap="round" stroke-linejoin="round"/><path d="M224.71116,154.20809c-0.26095,1.07634 -1.25204,1.79184 -2.22399,1.58544c-0.97196,-0.20638 -1.53602,-1.25213 -1.27507,-2.32844c0.26095,-1.07633 1.25204,-1.79184 2.22399,-1.58544c0.97198,0.20637 1.53603,1.25212 1.27508,2.32843" fill="#001026" stroke-width="0.5" stroke-linecap="butt" stroke-linejoin="miter"/></g><g fill-rule="evenodd"><path d="M199.30682,142.53115c3.55874,-1.61067 7.55761,1.7077 9.42968,6.63213c1.87207,4.92444 0.39663,10.16689 -2.67842,11.46873c-3.65822,1.178 -7.60273,-1.09998 -9.4748,-6.02441c-1.96927,-4.94507 -0.81145,-10.56362 2.72356,-12.07645z" fill="#ffffff" stroke-width="1.2" stroke-linecap="round" stroke-linejoin="round"/><path d="M201.53879,153.46593c-0.26095,1.07634 -1.25204,1.79185 -2.224,1.58545c-0.97196,-0.20638 -1.53602,-1.25213 -1.27507,-2.32844c0.26096,-1.07633 1.25204,-1.79185 2.224,-1.58545c0.94827,0.30424 1.53604,1.25214 1.27508,2.32845" fill="#001026" stroke-width="0.5" stroke-linecap="butt" stroke-linejoin="miter"/></g><g fill="#ffffff" fill-rule="nonzero" stroke-width="1.2" stroke-linecap="round" stroke-linejoin="miter"><path d="M220.43181,174.2432c-0.68535,0.53677 -23.9833,5.63531 -31.43101,2.09118c-7.74428,-3.68526 8.82893,-15.35968 9.86367,-15.48679c0.56069,-0.06888 -1.78506,3.90811 10.61303,9.51459c5.47637,2.47646 11.17375,3.70917 10.95431,3.88104z"/></g></g></g><g fill-rule="nonzero" stroke="#000000" stroke-width="1.2" stroke-linejoin="miter"><path d="M221.17677,185.61761c0,0 -1.32335,-1.29875 -0.25742,-2.83152c4.20413,-6.04535 8.01903,-3.06679 10.96181,-3.95934c3.40178,-1.03175 7.06074,-2.8755 8.33093,-1.95524c1.82057,1.31901 1.17793,3.58142 1.02366,6.42183c-0.20778,3.82585 -0.6744,8.41518 -3.87106,10.46321c-2.49672,1.5996 -5.38177,-5.20421 -5.38052,-5.26227c-2.61679,0.42315 -5.34897,0.07822 -7.11759,-0.90871" fill="#ffab19" stroke-linecap="butt"/><g stroke-linecap="round"><path d="M241.5666,191.10476l-0.78273,5.15759l-1.77607,2.15579l-2.02625,-0.52737l-1.09709,0.86413l-3.59982,-1.91585" fill="#ffab19"/><path d="M226.57957,185.63617l12.47234,-5.46673l4.53965,4.64067l1.04308,6.25807l-2.77067,2.28179l-1.08339,-0.01995l-3.40448,1.94461l-1.53299,0.29728l-3.73491,2.04703l-5.97705,-2.54639z" fill="#ffab19"/><path d="M231.86718,192.68616l2.86565,1.24629l-3.44151,-0.09518z" fill="none"/><path d="M239.91651,192.17485l-3.42633,-1.96187" fill="none"/></g></g><g fill-rule="nonzero" stroke="#000000" stroke-width="1.2" stroke-linejoin="miter"><path d="M211.06643,190.08051c-4.23468,-1.98568 -5.94806,-7.07903 -3.82693,-11.3763c2.12113,-4.29727 7.27355,-6.17119 11.50823,-4.18552c4.23468,1.98568 5.94807,7.07902 3.82693,11.3763c-2.12113,4.29727 -7.27354,6.17119 -11.50823,4.18552z" fill="#5c5e5f" stroke-linecap="butt"/><g stroke-linecap="round"><path d="M215.89742,191.7709l1.14726,4.56232l-1.76533,1.66351l-1.99714,4.04607l-3.60417,-1.11511z" fill="#ffab19"/><path d="M214.75072,186.44229l2.37352,5.90386l-2.61027,3.3753l-0.53796,1.47247l-2.45665,3.06406l-0.15418,1.07753l-2.68627,2.38147l-5.98125,-2.03812l-3.83132,-5.24598l7.37158,-11.49106z" fill="#ffab19"/><path d="M213.13408,194.69114l-0.76485,-3.04155" fill="none"/><path d="M209.14502,195.50356l1.37796,3.71231" fill="none"/></g><path d="M206.99342,201.01029l-2.38011,3.29158l-3.83462,-0.64826l-1.68494,-3.47299l1.99605,-2.51349l4.14186,0.02578z" fill="#5c5e5f" stroke-linecap="round"/></g></g></g></svg>