<svg version="1.1" xmlns="http://www.w3.org/2000/svg" xmlns:xlink="http://www.w3.org/1999/xlink" width="112.31573" height="121.45933" viewBox="0,0,112.31573,121.45933"><g transform="translate(-182.80717,-117.13851)"><g stroke-miterlimit="10"><g fill="#9a8479" stroke="#000000" stroke-width="1.2" stroke-linecap="butt"><path d="M245.4127,225.47109l2.1293,10.39586c0,0 0.7495,0.33539 0.54169,1.05519c-0.206,0.72339 -2.75699,0.68835 -5.95837,0.84777c-3.20211,0.16027 -5.81312,-0.34772 -6.32866,-1.11217c-0.51374,-0.75582 0.43356,-1.02461 0.43356,-1.02461c0,0 0.96888,-4.96719 0.03534,-7.22922c-1.24465,-3.01686 0.18616,-3.8024 3.93308,-5.24474v0v0v0v0v0v0c3.74692,-1.44234 5.21408,2.31192 5.21408,2.31192z"/><path d="M234.00557,209.90387v0v0v0v0v0v0c8.43158,-0.59893 11.82929,3.89171 11.82739,3.89085c0.73161,1.15988 1.64758,2.79642 2.05855,4.29073c0.11332,0.41278 0.19103,0.87721 0.22472,1.37537c0,0 0.01506,1.73036 -0.14866,2.25861c-0.68684,2.21304 -1.8497,4.63549 -4.80725,5.73077c-4.64314,1.72692 -9.66214,1.51495 -14.95414,-0.75408c-1.78582,-0.76354 -2.87567,-2.06478 -3.49317,-3.5461c-0.44099,-1.06607 -0.66439,-2.45606 -0.66439,-2.45606c-0.3334,-2.31211 0.02337,-4.5691 0.22183,-5.55061c0,0 1.3046,-4.64064 9.73515,-5.23949z"/><path d="M236.77606,227.9282l-0.30317,7.92107c0,0 0.5482,0.03612 0.45422,0.68225c-0.09014,0.64685 -1.68414,1.40498 -6.32801,1.46632c-4.64608,0.05616 -5.60428,-0.86922 -5.65027,-1.35909c-0.04797,-0.48978 0.93248,-1.02554 0.93248,-1.02554c0,0 1.40843,-8.64284 1.83297,-9.68059"/></g><path d="M241.08209,215.23674c1.14293,0.02062 3.57814,-2.42051 4.59862,-2.03603c1.89024,-0.316 3.69662,0.86019 4.03468,2.62708c0.0114,0.05958 0.02098,0.1191 0.0288,0.17847c1.17739,1.47623 -2.11557,3.96105 -3.15842,4.53333c-2.93462,1.61041 -10.90643,2.40457 -13.77033,-0.11534c-1.13687,-1.00032 -1.02072,-1.04384 -1.04789,-2.6211c-0.09691,-5.62768 5.80277,-2.62983 9.31454,-2.56643z" fill="#9a8479" stroke="#000000" stroke-width="1.2" stroke-linecap="butt"/><path d="M230.45728,214.81482c2.92994,1.26375 8.91314,0.56947 6.76786,6.01653c-0.60126,1.52665 -0.52109,1.61289 -1.82914,2.15849c-3.29513,1.37443 -9.60195,-2.40838 -11.44,-5.08525c-0.65316,-0.95126 -2.46692,-4.61541 -0.9507,-5.60945c0.02824,-0.05489 0.05801,-0.10927 0.08932,-0.16303c0.92817,-1.59407 2.85491,-2.05833 4.3035,-1.03695c0.98573,0.01055 2.10557,3.30837 3.05914,3.71967z" fill="#9a8479" stroke="#000000" stroke-width="1.2" stroke-linecap="butt"/><g><g stroke="#000000" stroke-width="1.2"><path d="M278.55696,167.16936c0,0 14.44645,-9.69115 15.79937,-1.10952c1.35299,8.58154 -5.61521,18.42437 -18.02892,27.17706c0,0 2.91227,-14.80856 2.22957,-26.06752zM278.55696,167.16936c0.01056,-1.31526 -0.28357,-3.83828 -0.28357,-3.83828M275.63061,195.53664l0.56801,-2.39265" fill="#9a8479" stroke-linecap="round"/><path d="M276.1988,193.14303c0.56535,-2.74202 1.3782,-7.25982 1.95778,-12.91202c0.33986,-3.28952 0.46254,-6.68841 0.48911,-9.62597l0.00066,0.00383c7.88341,-2.47135 12.73194,7.33857 12.73194,7.33857l0.00269,0.00008c-5.26362,8.56602 -15.07965,14.95761 -15.07965,14.95761l-0.10251,0.23791v0v0v0v0z" fill="#ee4036" stroke-linecap="butt"/></g><path d="M189.41269,163.80977c1.9033,-18.55795 11.35818,-28.12202 16.91743,-33.1615c12.61849,-11.4464 31.03375,-11.18871 31.03375,-11.18871l0.16386,12.10303c0,0 0.10537,-3.4747 7.75129,-9.24787c7.64404,-5.77322 18.54935,-4.4441 18.54935,-4.4441l-6.41735,14.89929c0,0 3.61296,-4.57579 6.48737,-6.18516c5.0959,-2.84815 9.24765,-1.368 9.24765,-1.368l-1.90101,11.82994c0,0 13.84822,21.91296 13.45394,36.55702c-0.39428,14.64408 -6.05511,40.55869 -41.63527,40.01086c-61.59988,-2.73374 -53.651,-49.8048 -53.651,-49.8048z" fill="#9a8479" stroke="#000000" stroke-width="1.2" stroke-linecap="butt"/><g stroke="#000000" stroke-width="1.2"><path d="M203.41636,191.66541c-14.4716,-6.57543 -22.08384,-14.98397 -19.5168,-23.39006c2.56803,-8.40689 19.46121,-1.22732 19.46121,-1.22732c-2.01467,10.87001 0.05559,24.61737 0.05559,24.61737zM204.11153,163.33517c0,0 -0.62717,2.45495 -0.74981,3.7129M203.58549,191.55624l0.45577,2.20791" fill="#9a8479" stroke-linecap="round"/><path d="M203.48332,191.34443c0,0 -11.49896,-4.69384 -17.13148,-12.12578l0.00287,-0.00085c0,0 7.02637,-10.08775 16.5376,-8.86578l0.00106,-0.00285c-0.27231,2.80561 -0.47303,6.04018 -0.39288,9.13743c0.13117,5.32447 0.66909,9.52907 1.085,12.06965z" fill="#ee4036" stroke-linecap="butt"/></g><g><path d="M275.35322,186.63247c-0.5175,12.80807 -15.52331,22.60174 -33.51645,21.87475c-17.99313,-0.72699 -32.15994,-11.69932 -31.64244,-24.5074c0.5175,-12.80807 15.52332,-22.60174 33.51645,-21.87475c17.99313,0.72699 32.15994,11.69932 31.64244,24.5074z" fill="#e6e7e8" stroke="#000000" stroke-width="1.2" stroke-linecap="butt"/><g stroke="#000000"><path d="M269.4974,167.05679c0,0 -2.77631,4.31407 -6.31538,6.45306c-1.58395,0.95732 -5.90206,3.0853 -8.10547,3.54058c-5.70623,1.17903 -11.82156,0.66289 -11.82156,0.66289l5.07906,-6.725c0,0 -4.34824,1.79659 -7.98424,2.68423c-4.93615,1.20504 -8.88419,-0.96122 -8.88419,-0.96122l13.76754,-12.06722" fill="#9a8479" stroke-width="0" stroke-linecap="butt"/><path d="M267.01252,170.17337c0,0 -4.69673,4.90637 -9.95714,6.55538c-5.2604,1.64901 -14.06206,0.974 -14.06206,0.974l5.34074,-6.71444c0,0 -3.50221,1.61656 -7.13821,2.5042c-4.93616,1.20503 -10.36691,-0.59269 -10.36691,-0.59269l12.78137,-11.01332" fill="none" stroke-width="1.2" stroke-linecap="round"/></g><g fill="none" stroke="#ee4036" stroke-width="1.2" stroke-linecap="round"><path d="M213.3802,146.20013l-3.73765,5.44635l-5.45442,-2.51978"/><path d="M202.52581,151.92408l4.3886,3.28624l-2.13613,6.26728"/><path d="M218.25793,157.25585l-4.80331,-3.5264l2.55083,-6.02713"/><path d="M207.42691,162.99333l3.72117,-4.92371l5.47092,1.99714"/></g><g stroke-width="1.2"><path d="M265.62414,186.44145c-2.19413,0.56588 -6.07047,1.72435 -7.17191,2.42841c-0.58642,0.36424 -1.39191,0.12983 -1.79082,-0.55858c-0.39262,-0.68485 -0.23483,-1.55123 0.35582,-1.93325c1.74806,-1.12464 7.20728,-2.54955 7.82355,-2.70948c0.67853,-0.17392 1.40418,0.30689 1.62025,1.07304c0.19403,0.69277 -0.0893,1.37885 -0.64573,1.63506c-0.05987,0.02758 -0.1236,0.05058 -0.19117,0.0648z" fill="#231f20" stroke="none" stroke-linecap="butt"/><path d="M244.09206,188.91539c-0.08618,-0.03033 -0.17029,-0.07013 -0.25485,-0.11734c-2.9691,-1.72946 -8.76566,-3.07274 -8.82249,-3.08663c-0.76992,-0.17901 -1.28178,-0.95589 -1.11501,-1.73897c0.16803,-0.78073 0.93915,-1.26946 1.72402,-1.08925c0.25601,0.06258 6.28622,1.45853 9.64598,3.41339c0.6965,0.40447 0.94298,1.29529 0.54543,1.99003c-0.34741,0.60412 -1.07824,0.85574 -1.72307,0.62878z" fill="#231f20" stroke="none" stroke-linecap="butt"/><path d="M245.71358,183.89293l1.52609,1.7959l-1.53628,1.09407c0,0 -16.6846,-12.30068 -23.909,-13.35339" fill="none" stroke="#231f20" stroke-linecap="round"/><path d="M268.69695,177.89269c-3.55191,0.95569 -11.0375,8.40983 -11.0375,8.40983l-2.50067,-0.79635l2.17393,-2.4215" fill="none" stroke="#231f20" stroke-linecap="round"/><path d="M226.45951,198.31622c0,0 3.20833,-0.19337 6.74376,1.91034" fill="none" stroke="#231f20" stroke-linecap="round"/></g></g></g><g stroke="#000000" stroke-width="1.2"><path d="M239.91879,208.48384c2.86748,-0.07521 5.25303,2.18837 5.32824,5.05585c0.07521,2.86748 -2.18837,5.25303 -5.05585,5.32824c-2.86748,0.07521 -5.25302,-2.18837 -5.32824,-5.05585c-0.07521,-2.86748 2.18837,-5.25302 5.05585,-5.32824z" fill="#5c5e5f" stroke-linecap="butt"/><path d="M237.06039,219.33491l-1.04553,2.43091l-1.94236,-0.04149l-2.46756,1.08159l-0.79718,-2.19769" fill="#9a8479" stroke-linecap="round"/><path d="M238.26249,215.01785l-0.67919,4.23233l-7.04494,2.55545l-3.7542,-2.53558l-0.36679,-3.94147l7.82081,-3.10262z" fill="#9a8479" stroke-linecap="round"/><path d="M235.46821,217.32409l-0.19251,2.4425" fill="none" stroke-linecap="round"/><path d="M231.9728,221.00781l-0.03699,-1.41018" fill="none" stroke-linecap="round"/><path d="M227.76957,217.26947l1.30889,0.99196l0.04036,1.53838l-2.14911,1.21095l-1.69348,-0.98187l-0.04707,-1.79478z" fill="#5c5e5f" stroke-linecap="round"/></g></g></g></svg>