<svg version="1.1" xmlns="http://www.w3.org/2000/svg" xmlns:xlink="http://www.w3.org/1999/xlink" width="199.5828" height="166.38124" viewBox="0,0,199.5828,166.38124"><defs><radialGradient cx="212.96017" cy="155.88638" r="38.25582" gradientUnits="userSpaceOnUse" id="color-1"><stop offset="0" stop-color="#180036"/><stop offset="1" stop-color="#1d1d1d"/></radialGradient></defs><g transform="translate(-92.86308,-83.28105)"><g stroke-miterlimit="10"><g stroke="#000000"><g stroke-width="0" stroke-linecap="round"><path d="M225.78807,189.74638l9.19363,7.43335l-4.71739,1.14095l4.6501,6.1769l-2.51229,20.58101l-19.11196,-8.70885l-2.16577,-7.20174l-3.15127,2.55225l-2.77495,-10.30478" fill="#0063eb"/><path d="M221.98801,190.43079l6.31562,5.10641l-3.24065,0.78378l4.96945,7.37524l-1.72583,14.13826l-13.12909,-5.98261l-3.26279,-8.07925l-2.16478,1.75328l-1.90629,-7.07894" fill="#629beb"/></g><path d="M218.51907,199.23002c-10.05363,5.51351 -14.13066,4.56008 -14.13066,4.56008l-25.29958,-44.64073c0,0 -8.00162,-14.11629 4.49096,-21.34476c11.91222,-6.89265 20.05045,7.43621 20.05045,7.43621l25.58958,44.4764c0,0 -0.36026,3.84198 -10.70076,9.51282z" fill="#5d5d5d" stroke-width="1.2" stroke-linecap="butt"/></g><g stroke="#000000"><g stroke-width="0" stroke-linecap="round"><path d="M273.64811,162.82977l11.24223,3.65925l-3.99869,2.75065l6.54966,4.10852l5.00457,20.12072l-20.96187,-1.30797l-4.59521,-5.95309l-2.03177,3.50945l-6.27257,-8.63388" fill="#0063eb"/><path d="M270.34319,164.8263l7.72293,2.51373l-2.74692,1.88959l7.27594,5.11375l3.43792,13.82205l-14.39988,-0.89851l-5.93333,-6.38091l-1.39575,2.41085l-4.30897,-5.93108" fill="#629beb"/></g><path d="M270.24601,174.28416c-7.42113,8.74079 -11.56978,9.30648 -11.56978,9.30648l-39.57552,-32.65951c0,0 -12.51586,-10.32709 -3.4292,-21.54085c8.66453,-10.6928 21.3839,-0.21596 21.3839,-0.21596l39.78768,32.40242c0,0 1.0358,3.71721 -6.5971,12.70741z" fill="#5d5d5d" stroke-width="1.2" stroke-linecap="butt"/></g><g stroke="#000000" stroke-width="1.2"><path d="M244.66061,208.13838l-7.11598,-3.29429l0.02189,-13.60334l-1.96801,-11.41234l3.18035,-3.39048l4.44647,-0.94911l9.4527,8.281l10.69118,7.33915l-1.60961,7.65195l-7.17714,6.08255z" fill="#707070" stroke-linecap="round"/><path d="M259.24904,231.81016l-14.83388,-29.4876l-2.19317,1.73279l7.78643,-6.12344l10.18138,-4.28246l-2.98679,1.3054l16.83445,28.98989" fill="#5d5d5d" stroke-linecap="round"/><path d="M272.85814,239.29634c-4.87607,2.5934 -10.93128,0.74293 -13.52468,-4.13315c-2.5934,-4.87607 -0.74293,-10.93128 4.13315,-13.52468c4.87607,-2.5934 10.93129,-0.74294 13.52468,4.13315c2.5934,4.87607 0.74294,10.93129 -4.13314,13.52469z" fill="#707070" stroke-linecap="butt"/></g><g stroke="#000000" stroke-width="1.2"><path d="M240.80149,111.76752c-0.06587,-9.11002 2.63206,-16.51502 6.02599,-16.53955c3.39392,-0.02455 6.19862,7.34069 6.26447,16.4507c0.06587,9.11002 -2.63206,16.51501 -6.02598,16.53954c-3.39392,0.02453 -6.19862,-7.34068 -6.26448,-16.45069z" fill="#454545" stroke-linecap="butt"/><path d="M230.89487,139.79668l-2.0734,-55.2557l7.60772,-0.63944l11.8501,11.29319l-0.24296,17.2973l-7.03171,0.31614l-0.41483,-6.32332l0.75516,35.59581" fill="#5d5d5d" stroke-linecap="round"/></g><g stroke="#000000" stroke-width="1.2"><path d="M170.78333,120.08391c-2.37555,-8.79507 -1.64511,-16.64233 1.63149,-17.52734c3.27657,-0.88502 7.85856,5.52735 10.2341,14.32243c1.34193,4.96823 1.69271,9.63402 1.15331,12.91323c-0.41548,2.52583 -1.3591,4.22903 -2.7848,4.61411c-3.27659,0.885 -7.85856,-5.52736 -10.23412,-14.32245z" fill="#454545" stroke-linecap="butt"/><path d="M172.39943,148.66394l-16.02779,-52.92071l7.19642,-2.54913l10.44928,8.26883l4.15454,16.79271l-2.84254,1.7377l-2.0059,-6.01106l9.76361,34.23891" fill="#5d5d5d" stroke-linecap="round"/></g><path d="M160.11544,245.37352l-30.76896,-11.24256l0.83088,-7.11053l4.11926,-6.593l31.20564,9.08594" fill="#5d5d5d" stroke="#000000" stroke-width="1.2" stroke-linecap="round"/><g stroke="#000000" stroke-width="1.2"><path d="M174.69974,211.15008l-7.16151,-6.10095l-1.58996,-7.65606l10.70999,-7.31167l9.47393,-8.25672l4.44401,0.96052l3.17165,3.39864l-1.99731,11.40727l-0.01304,13.60335l-7.12442,3.276z" fill="#707070" stroke-linecap="round"/><path d="M155.19574,230.20135l16.90881,-28.94658l-2.98342,-1.31307l10.17035,4.30858l7.77068,6.14341l-2.18871,-1.7384l-14.90953,29.44942" fill="#5d5d5d" stroke-linecap="round"/><path d="M152.23727,232.02069c2.60591,-4.8694 8.66586,-6.70431 13.53526,-4.0984c4.8694,2.60591 6.70431,8.66585 4.09839,13.53526c-2.60591,4.8694 -8.66585,6.70431 -13.53525,4.0984c-4.8694,-2.60591 -6.70431,-8.66585 -4.0984,-13.53525z" fill="#707070" stroke-linecap="butt"/></g><g><g stroke-linecap="butt"><g><path d="M215.25194,209.71789c-25.17124,4.41875 -49.15865,-12.40446 -53.5774,-37.57569c-4.41875,-25.17124 12.40446,-49.15865 37.57569,-53.5774c25.17124,-4.41875 49.15865,12.40445 53.5774,37.5757c4.41875,25.17124 -12.40445,49.15865 -37.57569,53.5774z" fill="#5d5d5d" stroke="#000000" stroke-width="1.2"/><path d="M214.82517,209.14156c0,0 -1.87916,0.30012 -2.81524,0.40576c-23.77176,2.68287 -45.82708,-13.57869 -50.01949,-37.46059c-4.22815,-24.08552 11.26613,-47.07192 34.86657,-52.39617c0.72196,-0.16289 2.18827,-0.43856 2.18827,-0.43856z" fill="#686868" stroke="#000000" stroke-width="0"/><path d="M213.41711,204.83022c-22.37998,3.92876 -43.70741,-11.02891 -47.63615,-33.40888c-3.92876,-22.37997 11.02892,-43.70741 33.40889,-47.63615c22.37997,-3.92875 43.70741,11.02892 47.63615,33.40889c3.92876,22.37998 -11.02892,43.7074 -33.40889,47.63615z" fill="#707070" stroke="#838383" stroke-width="0"/><path d="M212.91805,201.98733c-20.80987,3.65311 -40.64108,-10.2552 -44.2942,-31.06508c-3.65311,-20.80987 10.2552,-40.64107 31.06509,-44.29419c20.80987,-3.65311 40.64106,10.25519 44.29418,31.06508c3.65311,20.80987 -10.25519,40.64108 -31.06507,44.2942z" fill="url(#color-1)" stroke="#000000" stroke-width="1.2"/></g><g stroke="#000000"><path d="M245.0127,169.07808c-0.02344,0.13384 -0.03668,0.20598 -0.03668,0.20598c0,0 -0.70596,0.10738 -1.05673,0.13656c-5.90679,0.49129 -11.31933,-3.59727 -12.36416,-9.54909c-0.99959,-5.69406 2.34022,-11.14628 7.64075,-12.965c0.44804,-0.15374 1.28913,-0.34804 1.62641,-0.42369c0,0 3.85776,6.32422 4.70037,10.86772c0.8426,4.54349 -0.50997,11.72751 -0.50997,11.72751z" fill="#707070" stroke-width="0"/><path d="M245.01268,169.07805c-0.02344,0.13385 -0.03668,0.20599 -0.03668,0.20599c0,0 -0.70596,0.10738 -1.05673,0.13656c-5.90679,0.49129 -11.31933,-3.59728 -12.36416,-9.5491c-0.99959,-5.69406 2.34024,-11.14628 7.64076,-12.96501c0.44804,-0.15374 1.28913,-0.34804 1.6264,-0.42369" fill="none" stroke-width="1.2"/></g><g stroke="#000000"><path d="M171.53888,181.75969c0,0 -2.48591,-4.34914 -3.65022,-10.9972c-1.19873,-6.84465 -0.17762,-11.66169 -0.17762,-11.66169c0.23048,-0.02402 0.80683,-0.07854 1.12814,-0.05986c3.80112,0.22097 7.42049,4.45151 8.42006,10.14557c1.04483,5.95181 -1.1462,11.37515 -4.94552,12.58775c-0.2256,0.07202 -0.69353,0.17072 -0.69353,0.17072c0,0 -0.02871,-0.06479 -0.08129,-0.18529z" fill="#707070" stroke-width="0"/><path d="M167.71105,159.1008c0.23048,-0.02402 0.80683,-0.07854 1.12814,-0.05986c3.80112,0.22097 7.42049,4.45151 8.42006,10.14557c1.04483,5.95181 -1.1462,11.37515 -4.94552,12.58775c-0.2256,0.07202 -0.69353,0.17072 -0.69353,0.17072c0,0 -0.02871,-0.06479 -0.08129,-0.18529" fill="none" stroke-width="1.2"/></g><path d="M240.48502,163.14245l-4.76975,-0.88483l-1.08287,-6.16855l4.0741,-2.30488l4.74718,0.75632l1.08288,6.16856z" fill="#21cc26" stroke="#17921c" stroke-width="1.2"/><path d="M172.78536,175.02694l-3.34863,-1.1343l-1.08288,-6.16856l2.69477,-2.06273l3.32609,1.00579l1.08288,6.16856z" fill="#21cc26" stroke="#17921c" stroke-width="1.2"/></g><g stroke-linecap="round"><path d="M208.0101,136.60738l-1.59837,0.83921l-1.57458,0.97468l-1.32019,1.62832l0.14632,1.2312l-0.74515,0.13081l0.18919,2.27109l-0.79736,0.62876l-0.94261,-1.78969l-1.33716,-1.6506l-1.3894,-1.15263l-1.81601,-0.79844l-1.20742,0.28179l-1.23844,-0.69036l1.10039,-0.89145l2.328,-1.45609l1.04922,-1.58073l0.9339,-1.83981l0.28497,-2.35434l1.24927,1.94535l0.939,1.37137l1.50471,1.41169l1.54613,-0.34123l0.52897,1.02437l2.16767,-0.38052z" fill="#eee796" stroke="#eee796" stroke-width="0.25"/><path d="M203.09594,134.07118l-0.69319,0.12168l1.19221,-0.20929l0.19621,1.11771l1.78833,-0.31393l0.15697,0.89416l2.23541,-0.39242l0.23545,1.34125" fill="none" stroke="#cec344" stroke-width="0.75"/><path d="M199.46095,130.56156l1.34125,-0.23545l0.39243,2.23541l0.89417,-0.15697l0.31393,1.78833l-0.17034,-0.97037" fill="none" stroke="#cec344" stroke-width="0.75"/><path d="M194.59163,139.02055l-0.23546,-1.34125l2.23542,-0.39242l-0.15698,-0.89417l1.78833,-0.31393l-0.1962,-1.11772l1.19221,-0.20929l-0.6932,0.12168" fill="none" stroke="#cec344" stroke-width="0.75"/><path d="M199.04861,133.78141l0.17034,0.97038l-0.31393,-1.78833l0.89417,-0.15697l-0.39243,-2.23541l1.34124,-0.23546" fill="none" stroke="#cec344" stroke-width="0.75"/><path d="M207.99445,135.41781l0.23545,1.34125l-2.23541,0.39242l0.15697,0.89417l-1.78833,0.31394l0.19621,1.11771l-1.19221,0.20929l0.6932,-0.12168" fill="none" stroke="#cec344" stroke-width="0.75"/><path d="M203.53748,140.65696l-0.17034,-0.97037l0.31394,1.78832l-0.89417,0.15697l0.39243,2.23541l-1.34126,0.23545" fill="none" stroke="#cec344" stroke-width="0.75"/><path d="M199.49016,140.36718l0.6932,-0.12168l-1.19221,0.20929l-0.19621,-1.11771l-1.78833,0.31393l-0.15697,-0.89417l-2.23541,0.39243l-0.23545,-1.34125" fill="none" stroke="#cec344" stroke-width="0.75"/><path d="M203.12514,143.8768l-1.34125,0.23546l-0.39243,-2.23541l-0.89416,0.15697l-0.31394,-1.78833l0.17034,0.97037" fill="none" stroke="#cec344" stroke-width="0.75"/></g><g stroke-linecap="round"><path d="M217.57742,191.10734l-1.59838,0.83921l-1.57458,0.97469l-1.32019,1.62831l0.14632,1.2312l-0.74514,0.1308l0.18919,2.27109l-0.79736,0.62876l-0.94261,-1.78968l-1.33716,-1.6506l-1.3894,-1.15263l-1.81602,-0.79844l-1.20742,0.28179l-1.23844,-0.69037l1.1004,-0.89145l2.328,-1.45609l1.04922,-1.58074l0.93391,-1.8398l0.28496,-2.35434l1.24927,1.94535l0.93901,1.37136l1.50471,1.4117l1.54613,-0.34124l0.52897,1.02437l2.16767,-0.38052z" fill="#eee796" stroke="#eee796" stroke-width="0.25"/><path d="M212.66327,188.57115l-0.6932,0.12168l1.19221,-0.20928l0.19621,1.1177l1.78833,-0.31394l0.15697,0.89417l2.23542,-0.39242l0.23545,1.34125" fill="none" stroke="#cec344" stroke-width="0.75"/><path d="M209.02827,185.06151l1.34125,-0.23545l0.39242,2.23542l0.89417,-0.15697l0.31394,1.78833l-0.17034,-0.97037" fill="none" stroke="#cec344" stroke-width="0.75"/><path d="M204.15896,193.52049l-0.23545,-1.34125l2.23541,-0.39242l-0.15697,-0.89417l1.78833,-0.31394l-0.19621,-1.1177l1.19221,-0.20929l-0.6932,0.12168" fill="none" stroke="#cec344" stroke-width="0.75"/><path d="M208.61594,188.28135l0.17034,0.97039l-0.31394,-1.78833l0.89417,-0.15697l-0.39242,-2.23542l1.34125,-0.23546" fill="none" stroke="#cec344" stroke-width="0.75"/><path d="M217.56178,189.91776l0.23546,1.34125l-2.23541,0.39243l0.15698,0.89417l-1.78833,0.31394l0.19621,1.1177l-1.19221,0.20929l0.69319,-0.12169" fill="none" stroke="#cec344" stroke-width="0.75"/><path d="M213.10481,195.15689l-0.17034,-0.97038l0.31393,1.78833l-0.89417,0.15698l0.39243,2.23541l-1.34126,0.23545" fill="none" stroke="#cec344" stroke-width="0.75"/><path d="M209.05749,194.86711l0.6932,-0.12168l-1.19221,0.20929l-0.19621,-1.1177l-1.78833,0.31393l-0.15697,-0.89417l-2.2354,0.39243l-0.23546,-1.34125" fill="none" stroke="#cec344" stroke-width="0.75"/><path d="M212.69247,198.37673l-1.34126,0.23545l-0.39242,-2.23542l-0.89417,0.15697l-0.31394,-1.78833l0.17035,0.97038" fill="none" stroke="#cec344" stroke-width="0.75"/></g><g stroke-linecap="round"><path d="M187.64875,143.41261l-0.5368,1.72362l-0.42421,1.80261l0.21788,2.08489l0.97405,0.76713l-0.4344,0.61939l1.73968,1.47211l-0.11923,1.00844l-1.93203,-0.59897l-2.11268,-0.22163l-1.79749,0.16742l-1.84869,0.71955l-0.65452,1.05303l-1.36387,0.38754l0.14775,-1.40844l0.61655,-2.67577l-0.37582,-1.85965l-0.64058,-1.96133l-1.46325,-1.86626l2.25892,0.49221l1.63369,0.30572l2.0622,-0.06575l0.85198,-1.33457l1.09839,0.35032l1.26371,-1.80186z" fill="#eee796" stroke="#eee796" stroke-width="0.25"/><path d="M182.38053,145.09411l-0.40413,0.57622l0.69504,-0.99102l0.92908,0.6516l1.04256,-1.48653l0.74326,0.52127l1.3032,-1.85814l1.1149,0.78191" fill="none" stroke="#cec344" stroke-width="0.75"/><path d="M177.32854,145.18277l0.78191,-1.1149l1.85814,1.30319l0.52128,-0.74327l1.48653,1.04256l-0.8066,-0.5657" fill="none" stroke="#cec344" stroke-width="0.75"/><path d="M179.8668,154.60727l-1.1149,-0.78191l1.3032,-1.85815l-0.74326,-0.52127l1.04256,-1.48652l-0.92908,-0.65159l0.69504,-0.99101l-0.40413,0.57622" fill="none" stroke="#cec344" stroke-width="0.75"/><path d="M179.31375,147.75112l0.80661,0.56571l-1.48652,-1.04256l0.52127,-0.74327l-1.85815,-1.3032l0.78191,-1.1149" fill="none" stroke="#cec344" stroke-width="0.75"/><path d="M186.79652,142.58255l1.1149,0.78191l-1.3032,1.85815l0.74328,0.52128l-1.04257,1.48652l0.92908,0.65159l-0.69503,0.99101l0.40412,-0.57621" fill="none" stroke="#cec344" stroke-width="0.75"/><path d="M187.34961,149.43872l-0.8066,-0.56571l1.48651,1.04255l-0.52127,0.74327l1.85815,1.3032l-0.78191,1.1149" fill="none" stroke="#cec344" stroke-width="0.75"/><path d="M184.28281,152.09574l0.40412,-0.57623l-0.69503,0.99101l-0.92908,-0.65159l-1.04256,1.48653l-0.74327,-0.52128l-1.30319,1.85815l-1.1149,-0.78191" fill="none" stroke="#cec344" stroke-width="0.75"/><path d="M189.33479,152.00707l-0.78191,1.1149l-1.85814,-1.30319l-0.52128,0.74327l-1.48653,-1.04256l0.80661,0.56571" fill="none" stroke="#cec344" stroke-width="0.75"/></g><g stroke-linecap="round"><path d="M232.95115,175.18476l-0.5368,1.72362l-0.4242,1.80261l0.21786,2.08489l0.97406,0.76713l-0.43439,0.61938l1.73969,1.47212l-0.11924,1.00844l-1.93203,-0.59897l-2.11268,-0.22163l-1.79748,0.16743l-1.8487,0.71954l-0.65452,1.05304l-1.36387,0.38755l0.14776,-1.40844l0.61654,-2.67577l-0.37582,-1.85967l-0.64056,-1.96131l-1.46326,-1.86626l2.25893,0.49221l1.63368,0.30572l2.06221,-0.06576l0.85197,-1.33457l1.09839,0.35031l1.26371,-1.80185z" fill="#eee796" stroke="#eee796" stroke-width="0.25"/><path d="M227.68294,176.86627l-0.40413,0.57622l0.69504,-0.99101l0.92907,0.65159l1.04256,-1.48653l0.74327,0.52128l1.30319,-1.85815l1.1149,0.78191" fill="none" stroke="#cec344" stroke-width="0.75"/><path d="M222.63096,176.95493l0.78191,-1.1149l1.85816,1.3032l0.52128,-0.74327l1.48652,1.04256l-0.80661,-0.56571" fill="none" stroke="#cec344" stroke-width="0.75"/><path d="M225.16923,186.37945l-1.1149,-0.78191l1.3032,-1.85816l-0.74327,-0.52127l1.04256,-1.48653l-0.92907,-0.65159l0.69504,-0.99101l-0.40413,0.57622" fill="none" stroke="#cec344" stroke-width="0.75"/><path d="M224.61616,179.52328l0.80661,0.56571l-1.48653,-1.04255l0.52128,-0.74327l-1.85816,-1.3032l0.78192,-1.1149" fill="none" stroke="#cec344" stroke-width="0.75"/><path d="M232.09894,174.35472l1.1149,0.78191l-1.3032,1.85815l0.74327,0.52128l-1.04256,1.48652l0.92907,0.65159l-0.69503,0.99101l0.40412,-0.57621" fill="none" stroke="#cec344" stroke-width="0.75"/><path d="M232.65201,181.21088l-0.80662,-0.56571l1.48653,1.04256l-0.52128,0.74327l1.85816,1.3032l-0.78191,1.1149" fill="none" stroke="#cec344" stroke-width="0.75"/><path d="M229.58522,183.86788l0.40413,-0.57621l-0.69503,0.99101l-0.92907,-0.65158l-1.04256,1.48652l-0.74327,-0.52127l-1.3032,1.85815l-1.1149,-0.78191" fill="none" stroke="#cec344" stroke-width="0.75"/><path d="M234.63721,183.77924l-0.78192,1.1149l-1.85815,-1.3032l-0.52127,0.74327l-1.48653,-1.04256l0.8066,0.56571" fill="none" stroke="#cec344" stroke-width="0.75"/></g><g stroke-linecap="round"><path d="M227.21984,146.193l-1.72362,-0.53681l-1.80261,-0.4242l-2.08489,0.21787l-0.76713,0.97405l-0.61938,-0.43439l-1.47211,1.73968l-1.00844,-0.11923l0.59897,-1.93204l0.22163,-2.11267l-0.16743,-1.79749l-0.71954,-1.84869l-1.05303,-0.65452l-0.38756,-1.36386l1.40845,0.14776l2.67576,0.61655l1.85967,-0.37582l1.96131,-0.64056l1.86626,-1.46325l-0.49221,2.25891l-0.30572,1.63368l0.06576,2.06221l1.33457,0.85197l-0.35032,1.09839l1.80186,1.26371z" fill="#eee796" stroke="#eee796" stroke-width="0.25"/><path d="M225.53833,140.92477l-0.57621,-0.40413l0.99101,0.69504l-0.65159,0.92908l1.48653,1.04256l-0.52128,0.74328l1.85816,1.30319l-0.78191,1.1149" fill="none" stroke="#cec344" stroke-width="0.75"/><path d="M225.44967,135.87278l1.1149,0.78191l-1.30318,1.85815l0.74327,0.52128l-1.04256,1.48652l0.56571,-0.8066" fill="none" stroke="#cec344" stroke-width="0.75"/><path d="M216.02515,138.41105l0.78191,-1.1149l1.85815,1.3032l0.52127,-0.74328l1.48652,1.04256l0.65159,-0.92908l0.99102,0.69504l-0.57622,-0.40413" fill="none" stroke="#cec344" stroke-width="0.75"/><path d="M222.88132,137.85799l-0.56571,0.80661l1.04256,-1.48653l0.74327,0.52128l1.3032,-1.85815l1.1149,0.78191" fill="none" stroke="#cec344" stroke-width="0.75"/><path d="M228.04988,145.34076l-0.78192,1.1149l-1.85815,-1.30319l-0.52128,0.74327l-1.48653,-1.04256l-0.65159,0.92908l-0.99101,-0.69504l0.57621,0.40412" fill="none" stroke="#cec344" stroke-width="0.75"/><path d="M221.1937,145.89385l0.56571,-0.80661l-1.04255,1.48652l-0.74327,-0.52127l-1.3032,1.85815l-1.1149,-0.78191" fill="none" stroke="#cec344" stroke-width="0.75"/><path d="M218.53671,142.82706l0.57621,0.40412l-0.991,-0.69504l0.65159,-0.92907l-1.48653,-1.04256l0.52128,-0.74327l-1.85816,-1.3032l0.78191,-1.1149" fill="none" stroke="#cec344" stroke-width="0.75"/><path d="M218.62537,147.87904l-1.1149,-0.78191l1.3032,-1.85815l-0.74326,-0.52127l1.04255,-1.48653l-0.56571,0.80661" fill="none" stroke="#cec344" stroke-width="0.75"/></g><g stroke-linecap="round"><path d="M195.44766,191.49539l-1.72363,-0.53681l-1.8026,-0.4242l-2.08488,0.21788l-0.76714,0.97405l-0.61938,-0.43439l-1.47211,1.73969l-1.00845,-0.11923l0.59898,-1.93204l0.22163,-2.11268l-0.16743,-1.79749l-0.71955,-1.8487l-1.05302,-0.65451l-0.38756,-1.36386l1.40844,0.14775l2.67577,0.61654l1.85966,-0.37581l1.96132,-0.64057l1.86626,-1.46326l-0.49222,2.25892l-0.30572,1.63368l0.06577,2.06221l1.33457,0.85198l-0.35032,1.09839l1.80185,1.26371z" fill="#eee796" stroke="#eee796" stroke-width="0.25"/><path d="M193.76617,186.22718l-0.57621,-0.40412l0.99101,0.69503l-0.65159,0.92908l1.48653,1.04256l-0.52128,0.74327l1.85814,1.3032l-0.78191,1.1149" fill="none" stroke="#cec344" stroke-width="0.75"/><path d="M193.67751,181.17519l1.1149,0.78191l-1.30319,1.85815l0.74327,0.52128l-1.04256,1.48652l0.56571,-0.80661" fill="none" stroke="#cec344" stroke-width="0.75"/><path d="M184.25299,183.71349l0.78191,-1.1149l1.85815,1.30319l0.52128,-0.74327l1.48653,1.04256l0.65159,-0.92908l0.99101,0.69503l-0.57621,-0.40413" fill="none" stroke="#cec344" stroke-width="0.75"/><path d="M191.10915,183.16039l-0.56571,0.80661l1.04256,-1.48653l0.74328,0.52128l1.3032,-1.85814l1.1149,0.78191" fill="none" stroke="#cec344" stroke-width="0.75"/><path d="M196.27773,190.64317l-0.78191,1.1149l-1.85815,-1.3032l-0.52127,0.74327l-1.48652,-1.04256l-0.65159,0.92908l-0.99101,-0.69502l0.57623,0.40411" fill="none" stroke="#cec344" stroke-width="0.75"/><path d="M189.42157,191.19625l0.56571,-0.8066l-1.04256,1.48652l-0.74328,-0.52127l-1.3032,1.85815l-1.1149,-0.78191" fill="none" stroke="#cec344" stroke-width="0.75"/><path d="M186.76454,188.12947l0.57622,0.40413l-0.99101,-0.69504l0.65159,-0.92908l-1.48653,-1.04256l0.52128,-0.74327l-1.85815,-1.3032l0.78191,-1.1149" fill="none" stroke="#cec344" stroke-width="0.75"/><path d="M186.85321,193.18144l-1.1149,-0.78192l1.3032,-1.85815l-0.74327,-0.52127l1.04255,-1.48652l-0.56571,0.80661" fill="none" stroke="#cec344" stroke-width="0.75"/></g></g><g stroke-linecap="round"><g><path d="M212.69487,163.41537l-1.65182,-9.40951l2.26837,-0.39821l-0.51619,-2.94048l2.26837,-0.3982l-0.44736,-2.54841l6.31902,-1.10929l0.44737,2.54841l2.75443,-0.48355l0.51619,2.94048l2.26837,-0.39821l1.65182,9.40952" fill="#ffd452" stroke="#00a8c1" stroke-width="0"/><path d="M211.97947,159.34025l0.71537,4.07513l-1.65182,-9.40952l2.26837,-0.3982l-0.51618,-2.94048l2.26836,-0.39821l-0.44736,-2.54841l6.31902,-1.10929l0.44737,2.54841l2.75443,-0.48354l0.51619,2.94048l2.26837,-0.3982l1.65182,9.40952l-0.88828,-5.06008" fill="none" stroke="#c7a640" stroke-width="1.5"/></g><g><path d="M228.50839,160.25737l1.65181,9.40952l-2.26836,0.3982l0.51618,2.94048l-2.75443,0.48355l0.44736,2.54841l-6.31902,1.10929l-0.44737,-2.54841l-2.26837,0.3982l-0.51618,-2.94048l-2.26837,0.3982l-1.65181,-9.40952" fill="#ffd452" stroke="#00a8c1" stroke-width="0"/><path d="M229.39665,165.31743l-0.88827,-5.06007l1.65182,9.40951l-2.26837,0.39821l0.51618,2.94048l-2.75443,0.48354l0.44736,2.54841l-6.31902,1.10929l-0.44737,-2.54841l-2.26837,0.3982l-0.51618,-2.94048l-2.26837,0.39821l-1.65182,-9.40952l0.71538,4.07513" fill="none" stroke="#c7a640" stroke-width="1.5"/></g></g><g stroke-linecap="round"><g><path d="M188.22865,168.24169l-1.65182,-9.40951l2.26837,-0.39821l-0.51618,-2.94048l2.26836,-0.3982l-0.44736,-2.54841l6.31902,-1.10929l0.44737,2.54841l2.75444,-0.48355l0.51618,2.94048l2.26837,-0.39821l1.65182,9.40952" fill="#ffd452" stroke="#00a8c1" stroke-width="0"/><path d="M187.51326,164.16657l0.71538,4.07513l-1.65182,-9.40952l2.26837,-0.3982l-0.51618,-2.94048l2.26837,-0.39821l-0.44737,-2.54841l6.31902,-1.10929l0.44737,2.54841l2.75444,-0.48354l0.51618,2.94048l2.26837,-0.3982l1.65182,9.40952l-0.88828,-5.06008" fill="none" stroke="#c7a640" stroke-width="1.5"/></g><g><path d="M204.04217,165.08369l1.65182,9.40952l-2.26837,0.3982l0.51618,2.94048l-2.75443,0.48355l0.44736,2.54841l-6.31902,1.10929l-0.44737,-2.54841l-2.26837,0.3982l-0.51618,-2.94048l-2.26837,0.3982l-1.65182,-9.40952" fill="#ffd452" stroke="#00a8c1" stroke-width="0"/><path d="M204.93043,170.14375l-0.88827,-5.06007l1.65182,9.40951l-2.26837,0.39821l0.51618,2.94048l-2.75443,0.48354l0.44737,2.54841l-6.31902,1.10929l-0.44737,-2.54841l-2.26837,0.3982l-0.51618,-2.94048l-2.26837,0.39821l-1.65182,-9.40952l0.71538,4.07513" fill="none" stroke="#c7a640" stroke-width="1.5"/></g></g><g fill="#5d5d5d" stroke="#000000" stroke-width="1.2" stroke-linecap="round"><path d="M139.93043,234.87382l0.19537,6.3764l-14.94436,6.74505l-5.43225,0.99098l-2.16411,-5.03556l0.63247,-2.90529l-2.83329,0.03527l-2.79514,-7.12913l-5.27202,3.48124l-10.10418,2.45743l-3.52719,-6.58468l4.7028,-2.30429l2.86674,0.33011l5.29037,-4.56402l14.18627,-6.25801l-2.18247,-3.95279l-0.15789,-4.23999l-0.33705,-3.71546l6.81746,-3.79446l1.40146,5.11525l4.38564,4.92375l3.89826,5.34874"/><path d="M114.70103,232.23775l7.11078,-1.71236l1.86118,-2.00397l5.42731,3.72064l-1.69298,4.87022l5.01577,3.91751l-2.85543,3.79056"/></g><g stroke="#000000" stroke-width="1.2"><path d="M241.3911,217.78168c-5.77427,-4.12416 -7.11195,-12.14842 -2.98779,-17.9227c4.12417,-5.77427 12.14843,-7.11195 17.9227,-2.98778c5.77427,4.12416 7.11196,12.14843 2.98779,17.9227c-4.12417,5.77427 -12.14843,7.11195 -17.9227,2.98778z" fill="#5c5e5f" stroke-linecap="butt"/><g stroke-linecap="round"><path d="M268.35731,231.87454l-7.82068,5.32283l-3.85631,-5.05082l-6.54463,-2.09074l-0.38047,-8.30966" fill="#5d5d5d"/><path d="M262.02533,203.09612l3.37095,-0.03372l2.6614,3.91033l4.69792,-0.95062l3.82925,7.90219l3.69319,0.05418l3.82918,5.89267l-1.87332,11.86713l-11.35089,6.24623l-5.26835,-3.47575l-1.0592,-3.34013l-3.55741,-0.24428l-4.37219,-3.12276l0.02706,-2.85135l-3.55742,-0.24428l-3.53036,-3.09563l4.18152,-13.08924z" fill="#5d5d5d"/><path d="M257.4132,223.48381l3.36702,-7.9296" fill="none"/><path d="M269.06299,222.04413l-3.61145,7.46797" fill="none"/></g><path d="M280.69182,237.52649l-5.93489,-4.23888l1.06804,-5.83973l5.45143,-2.70898l5.7967,3.85311l-0.92864,6.51342z" fill="#5c5e5f" stroke-linecap="round"/></g></g></g></svg>