<svg version="1.1" xmlns="http://www.w3.org/2000/svg" xmlns:xlink="http://www.w3.org/1999/xlink" width="113.61778" height="119.90673" viewBox="0,0,113.61778,119.90673"><g transform="translate(-180.64874,-118.32279)"><g stroke-width="1.2" stroke-miterlimit="10"><g fill="#9a8479" stroke="#000000" stroke-linecap="butt"><path d="M248.56998,225.99023c-2.63259,0 -2.71881,-3.23324 -2.71881,-3.23324l0.68217,-3.33409c0.39558,-0.4631 1.03764,-1.67188 1.82421,-2.25282c-0.51109,-0.60799 -0.9344,-1.33089 -1.41679,-1.97645c0,0 -1.79846,-2.43327 0.12602,-4.56237c1.92447,-2.12911 3.72293,0.30416 3.72293,0.30416c2.53822,3.48238 6.92176,5.22171 3.23744,10.58798c-0.61534,0.89623 -1.29001,1.33383 -2.46614,2.20493c-1.25303,0.92803 -2.99098,2.26194 -2.99098,2.26194z"/><path d="M249.35571,224.98085c0,0 0.72945,5.22774 1.10588,7.13847c0.38002,1.91063 0.85018,3.68822 0.85018,3.68822c0,0 0.71579,0.34929 0.51065,1.09892c-0.20342,0.75337 -2.64876,0.71688 -5.71919,0.8829c-3.07115,0.16691 -5.57014,-0.36213 -6.05812,-1.15826c-0.48632,-0.78714 0.42406,-1.06708 0.42406,-1.06708c0,0 0.96961,-5.17305 0.09318,-7.52882c-1.16848,-3.14189 0.20966,-3.95998 3.81363,-5.46209v0v0v0v0v0v0c3.60397,-1.50211 4.97972,2.40773 4.97972,2.40773z"/><path d="M237.12862,208.67383v0v0v0v0v0v0c8.08819,-0.62376 11.30872,4.05299 11.3069,4.0521c0.69188,1.20795 1.55658,2.91231 1.93831,4.46855c0.10525,0.42988 0.17594,0.91356 0.20416,1.43237c0,0 0.00025,1.80207 -0.16105,2.35221c-0.67662,2.30475 -1.81132,4.82759 -4.65568,5.96827c-4.46551,1.79848 -9.27544,1.57773 -14.33022,-0.78533c-1.70579,-0.79518 -2.73994,-2.15035 -3.31978,-3.69306c-0.41403,-1.11025 -0.61679,-2.55784 -0.61679,-2.55784c-0.30066,-2.40793 0.05989,-4.75845 0.2582,-5.78064c0,0 1.28878,-4.83296 9.37598,-5.45663z"/><path d="M238.69751,227.60244c-0.03569,0.33101 -0.08644,0.53673 -0.08644,0.53673c0,0 -0.64652,3.23453 -0.66009,4.99083c-0.01455,1.7564 0.06619,2.48244 0.06619,2.48244c0,0 0.52309,0.05919 0.40014,0.72783c-0.11933,0.66954 -1.68438,1.39557 -6.13434,1.27629c-4.45182,-0.12475 -5.32213,-1.12546 -5.34118,-1.63701c-0.02094,-0.51154 0.94525,-1.03037 0.94525,-1.03037c0,0 0.44148,-3.27125 1.10381,-6.11542c0.37629,-1.6128 0.98804,-3.18902 1.44751,-4.25212"/></g><g><path d="M278.28573,161.74957c0,0 12.12461,-11.16821 14.71209,-3.46675c2.58756,7.70136 -2.46987,17.8526 -12.82338,27.84127c0,0 0.47717,-14.10136 -1.88871,-24.37452zM278.28573,161.74957c-0.19132,-1.21406 -0.85443,-3.49435 -0.85443,-3.49435M279.87002,188.35184l0.16892,-2.29347" fill="#9a8479" stroke="#000000" stroke-linecap="round"/><path d="M280.03893,186.05747c0.11295,-2.61511 0.1873,-6.90546 -0.13169,-12.20544c-0.18323,-3.08492 -0.58777,-6.23706 -1.01225,-8.9491l0.00121,0.00342c7.04745,-3.49761 13.11551,4.79539 13.11551,4.79539l0.00255,-0.00035c-3.6472,8.71056 -11.91517,16.1209 -11.91517,16.1209l-0.06016,0.23517v0v0v0v0z" fill="#ee4036" stroke="#000000" stroke-linecap="butt"/><path d="M196.37252,193.99249v0v0v0v0v0v0c-0.04631,-0.08384 -1.4005,-2.44038 -1.40048,-2.44138c-3.7606,-6.28488 -4.36687,-20.35761 -3.95171,-24.73887l0.03356,-0.20963c1.43325,-18.5764 10.25922,-28.34684 15.46073,-33.50848c11.80634,-11.72366 29.38661,-11.89411 29.38661,-11.89411l0.40629,12.08242c0,0 0.02882,-3.47234 7.20664,-9.4151c7.17602,-5.94279 17.61116,-4.86886 17.61116,-4.86886l-5.81687,15.0277c0,0 3.35361,-4.65336 6.06363,-6.32728c4.80455,-2.9626 8.79744,-1.58094 8.79744,-1.58094l-1.27525,9.36256c0,0 6.90485,9.2908 12.16098,17.99897c1.12489,1.85805 2.43335,3.742 3.24587,5.8967c2.95491,7.8288 3.15328,21.69118 -0.43833,28.49132c-0.62086,1.20337 -1.29438,2.37059 -1.99194,3.51748c-0.18131,0.2945 -0.36348,0.58718 -0.54829,0.87622c-0.63816,1.00813 -1.30307,1.99587 -2.00082,2.95243c-0.0943,0.12733 -0.18074,0.2629 -0.27504,0.39034c-0.79089,1.064 -1.62336,2.08755 -2.48791,3.08172c-0.20643,0.23994 -0.42362,0.47149 -0.63461,0.70954c-0.74042,0.82047 -1.50661,1.61697 -2.29205,2.38242c-0.18104,0.17909 -0.35762,0.36085 -0.54035,0.5335c-0.94481,0.89082 -1.92756,1.73844 -2.9386,2.54676c-0.22521,0.17739 -0.45568,0.34649 -0.68273,0.52015c-0.84843,0.6525 -1.72431,1.27471 -2.61947,1.86677c-0.25846,0.1686 -0.51079,0.3463 -0.77098,0.51127c-1.09285,0.69053 -2.21111,1.3373 -3.36457,1.93283c-0.20586,0.10733 -0.42417,0.20083 -0.63276,0.30451c-0.98544,0.49032 -1.99275,0.93965 -3.02105,1.35429c-4.3497,1.75275 -9.0587,2.86026 -14.09859,3.13271c-5.7599,0.31095 -10.96434,0.04347 -15.65729,-0.65413c-1.1604,-0.17242 -2.28867,-0.37396 -3.38685,-0.59668c-0.20861,-0.04614 -0.41635,-0.09047 -0.62309,-0.13478c-1.11318,-0.24008 -2.20537,-0.49599 -3.25266,-0.7846c-0.00627,-0.00191 -0.01433,-0.00386 -0.0215,-0.00579c-1.04925,-0.28584 -2.05722,-0.60345 -3.04137,-0.93874c-0.17229,-0.0581 -0.34907,-0.11627 -0.52044,-0.17535c-0.94547,-0.32819 -1.86626,-0.67765 -2.7532,-1.04629c-0.15601,-0.06231 -0.30637,-0.13271 -0.46135,-0.1968c-0.87529,-0.37124 -1.72852,-0.75649 -2.54628,-1.16271c-0.03127,-0.01856 -0.06626,-0.03099 -0.09666,-0.04774c-0.83732,-0.41917 -1.63653,-0.85576 -2.41286,-1.30194c-0.14482,-0.08371 -0.28868,-0.1657 -0.4297,-0.24944c-0.7467,-0.44195 -1.46984,-0.89258 -2.15835,-1.35599c-0.10527,-0.0696 -0.20509,-0.1418 -0.30945,-0.21218c-0.65357,-0.44838 -1.28538,-0.90547 -1.88904,-1.37106c-0.06231,-0.04442 -0.13098,-0.09166 -0.19061,-0.14054c-0.62942,-0.49036 -1.22334,-0.99098 -1.79561,-1.49471c-0.11118,-0.09681 -0.22045,-0.19438 -0.32704,-0.29101c-0.55777,-0.50357 -1.09392,-1.00756 -1.59747,-1.52277c-0.0576,-0.05614 -0.10984,-0.11569 -0.16653,-0.17261c-0.47421,-0.48947 -0.92385,-0.98201 -1.3483,-1.47419c-0.05923,-0.07137 -0.12659,-0.14119 -0.18675,-0.21078c-0.4348,-0.51757 -1.37238,-1.74347 -1.44464,-1.84128c-0.37699,-0.51744 -0.7361,-1.03365 -1.05996,-1.54654c-0.02013,-0.03197 -0.03946,-0.06392 -0.05779,-0.09575c-0.3107,-0.49375 -0.59264,-0.97968 -0.85572,-1.46357z" fill="#9a8479" stroke="#000000" stroke-linecap="butt"/><path d="M268.7761,168.15144v0v0v0v0v0v0c0,0 9.61207,12.06055 6.35509,24.33447c-3.25523,12.27025 -21.48252,17.16687 -35.39875,15.98005c-18.39659,-1.57025 -26.72531,-13.45988 -23.49358,-24.60637c3.23594,-11.14641 27.71447,-15.94542 27.71447,-15.94542l-4.14847,7.97566c0,0 3.16353,-0.4648 5.73918,-1.97779c2.57485,-1.51021 5.40525,-3.53563 5.40525,-3.53563l-5.99279,8.73933c0,0 7.70726,0.04969 14.43109,-2.68818c6.72377,-2.73427 9.38852,-8.27612 9.38852,-8.27612z" fill="#e6e7e8" stroke="#000000" stroke-linecap="butt"/><path d="M200.7859,192.46608c-13.95393,-5.84414 -21.40181,-13.54221 -19.1353,-21.44798c2.26742,-7.90655 18.54551,-1.54798 18.54551,-1.54798c-1.68565,10.19614 0.58979,22.99596 0.58979,22.99596zM200.83163,165.98615c0,0 -0.54501,2.30631 -0.63462,3.48399M200.94492,192.36061l0.48309,2.05318" fill="#9a8479" stroke="#000000" stroke-linecap="round"/><path d="M200.84281,192.16485c0,0 -11.07607,-4.14771 -16.61335,-10.97431l0.00272,-0.00085c0,0 6.48548,-9.56874 15.5889,-8.62339l0.00095,-0.00268c-0.19869,2.62656 -0.31972,5.65238 -0.17571,8.54412c0.24127,4.97132 0.84629,8.88809 1.2986,11.25287z" fill="#ee4036" stroke="#000000" stroke-linecap="butt"/><path d="M262.75565,188.49761c-0.58213,-0.01043 -1.08273,-0.49308 -1.16713,-1.1614c-0.09203,-0.73967 0.36767,-1.42624 1.02664,-1.53255c0.59924,-0.09488 5.91053,-0.92815 7.85683,-0.62073c0.65838,0.10561 1.11513,0.79051 1.02246,1.52686c-0.09686,0.74178 -0.71714,1.24675 -1.36527,1.15482c-1.22469,-0.18977 -5.04989,0.27587 -7.18207,0.61662c-0.0645,0.01325 -0.12882,0.01749 -0.19146,0.01637z" fill="#231f20" stroke="none" stroke-linecap="butt"/><path d="M241.68477,189.39116c-0.08479,-0.00152 -0.17041,-0.01206 -0.25852,-0.02904c-3.11407,-0.6603 -8.62041,-0.14357 -8.6746,-0.13914c-0.73154,0.0681 -1.40339,-0.47092 -1.47666,-1.21565c-0.0715,-0.743 0.47284,-1.40455 1.21794,-1.47602c0.2441,-0.01993 5.97197,-0.55879 9.49518,0.18645c0.73016,0.15381 1.19936,0.87233 1.04358,1.60665c-0.13697,0.63905 -0.71253,1.07811 -1.34693,1.06674z" fill="#231f20" stroke="none" stroke-linecap="butt"/><path d="M260.32494,197.18246c0,0 -4.58816,4.06711 -12.59141,2.3831c-8.00138,-1.68363 -9.47748,-5.3019 -9.47748,-5.3019" fill="none" stroke="#231f20" stroke-linecap="round"/></g><g stroke="#000000"><path d="M220.02719,220.95848c0.69184,-3.17551 3.86736,-2.48367 3.86736,-2.48367l1.02912,0.22421c1.08467,1.03378 0.37433,0.72317 0.48922,-1.35657c0,0 0.37243,-3.2286 3.60102,-2.85616c3.2286,0.37243 2.85616,3.60103 2.85616,3.60103c-0.44928,3.05563 -0.21171,5.72136 -3.91517,7.38737c-1.34829,0.60652 -2.94328,-0.2831 -4.41492,-0.42465l-1.02912,-0.22421c0,0 -3.17551,-0.69184 -2.48367,-3.86735z" fill="#9a8479" stroke-linecap="butt"/><g><path d="M217.38393,211.52562c0.10483,-2.86655 2.51361,-5.10538 5.38016,-5.00056c2.86655,0.10483 5.10538,2.51361 5.00056,5.38016c-0.10483,2.86655 -2.51361,5.10538 -5.38016,5.00056c-2.86655,-0.10483 -5.10538,-2.51361 -5.00056,-5.38016z" fill="#5c5e5f" stroke-linecap="butt"/><path d="M228.03429,215.05914l2.36053,1.19598l-0.16327,1.93594l0.92465,2.53055l-2.24337,0.65774" fill="#9a8479" stroke-linecap="round"/><path d="M223.80115,213.58858l4.18138,0.94337l2.10845,7.19139l-2.76612,3.58773l-3.95672,0.1188l-2.60587,-8.00005z" fill="#9a8479" stroke-linecap="round"/><path d="M225.92754,216.52204l2.42561,0.34536" fill="none" stroke-linecap="round"/><path d="M229.38472,220.24166l-1.40973,-0.05155" fill="none" stroke-linecap="round"/><path d="M225.39005,224.20209l1.07212,-1.24408l1.53788,0.05624l1.07374,2.22085l-1.08618,1.62854l-1.7942,-0.06561z" fill="#5c5e5f" stroke-linecap="round"/></g></g></g></g></svg>