<svg version="1.1" xmlns="http://www.w3.org/2000/svg" xmlns:xlink="http://www.w3.org/1999/xlink" width="94.63378" height="124.75958" viewBox="0,0,94.63378,124.75958"><g transform="translate(-189.66286,-119.59737)"><g stroke-miterlimit="10"><path d="M227.39897,217.63055c0,-7.85536 6.36803,-14.2234 14.2234,-14.2234c7.85536,0 14.2234,6.36803 14.2234,14.2234c0,7.85536 -6.36803,14.2234 -14.2234,14.2234c-7.85536,0 -14.2234,-6.36803 -14.2234,-14.2234z" fill="#d5d5d5" fill-rule="nonzero" stroke="#001026" stroke-width="1.2" stroke-linecap="butt" stroke-linejoin="miter"/><path d="M195.95564,225.31866c0,-8.22195 6.66521,-14.88716 14.88716,-14.88716c8.22195,0 14.88716,6.66521 14.88716,14.88716c0,8.22195 -6.66521,14.88716 -14.88716,14.88716c-8.22195,0 -14.88716,-6.66521 -14.88716,-14.88716z" fill="#d5d5d5" fill-rule="nonzero" stroke="#001026" stroke-width="1.2" stroke-linecap="butt" stroke-linejoin="miter"/><path d="M250.77021,214.51947c0,0 8.45709,-8.69651 13.04994,-13.41941c5.13605,-5.28146 1.22026,-26.21295 1.22026,-26.21295l10.73554,1.44973c0,0 2.11808,23.5156 -2.3367,28.92837c-5.08892,6.18328 -16.35339,19.87011 -16.35339,19.87011z" fill="#2b2b2b" fill-rule="nonzero" stroke="#001026" stroke-width="1.2" stroke-linecap="butt" stroke-linejoin="miter"/><path d="M196.63841,211.73011l-0.78849,-4.75156c0,0 44.54056,-0.4483 57.22032,0.5058c6.07868,0.4574 14.96231,4.92568 14.96231,4.92568l-1.2276,7.16955c0,0 -25.32442,2.075 -37.30304,0.73497c-11.37947,-1.27301 -32.8635,-8.58443 -32.8635,-8.58443z" fill="#2b2b2b" fill-rule="nonzero" stroke="#001026" stroke-width="1.2" stroke-linecap="butt" stroke-linejoin="miter"/><path d="M195.84992,207.60218l0.98208,-67.27224c0,0 9.80035,-20.13257 16.94082,-20.13257c10.60422,0 39.52858,0 39.52858,0v87.40481z" fill="#2b2b2b" fill-rule="nonzero" stroke="#001026" stroke-width="1.2" stroke-linecap="butt" stroke-linejoin="miter"/><path d="M258.51194,230.34721c2.94029,0.06014 8.64178,0.39106 6.72259,5.14092c-1.7998,4.60942 -19.02176,4.19467 -19.48316,-0.68722c0.01094,-2.06543 4.48789,-9.29394 4.7806,-10.95774c0.54848,-2.85174 -12.36582,-0.73625 -17.37624,-3.99195c-2.31348,-1.50327 1.05111,-9.35279 1.04808,-10.04389c-0.00959,-2.18789 17.81601,4.45033 26.65855,6.11194c-1.57903,3.66569 -2.79073,14.35942 -2.35042,14.42795z" fill="#ffab19" fill-rule="evenodd" stroke="#001026" stroke-width="1.2" stroke-linecap="round" stroke-linejoin="round"/><path d="M273.29199,196.24647c-2.0775,3.15936 -20.52593,10.35747 -26.96625,7.41106c-2.26449,-1.036 -12.61576,-23.67037 -5.09453,-24.79994c7.52122,-1.12957 8.72255,6.49286 10.30086,10.96491c1.27531,3.78748 15.30472,-0.08087 16.30274,-0.16687c2.09057,-0.27586 3.03639,0.93655 4.09488,2.65582c0.71619,1.16329 2.21044,2.52967 1.36231,3.93502z" fill="#ffab19" fill-rule="evenodd" stroke="#001026" stroke-width="1.2" stroke-linecap="round" stroke-linejoin="round"/><g fill-rule="evenodd"><path d="M225.24204,206.949c0.68642,0.93886 2.11526,2.99175 -2.684,5.49205c-4.79927,2.5003 -13.19156,-0.80063 -14.11623,-1.27715c-3.64269,-1.73095 -8.03491,-3.99445 -12.05554,-8.11438c-11.71868,-11.89039 -4.03118,-27.09154 1.72751,-27.19575c5.64309,-0.16377 2.78321,10.21119 6.22164,19.15094c1.46359,3.97244 4.339,6.62452 6.81521,8.63201c3.57249,2.71874 13.34897,2.19828 14.09141,3.31229z" fill="#ffab19" stroke="#001026" stroke-width="1.2" stroke-linecap="round" stroke-linejoin="round"/><path d="M201.40187,182.81438c0.24107,4.07384 1.56071,10.31257 1.56071,10.31257c0,0 -3.74054,-3.24419 -7.18042,-2.53013c-2.73929,0.48998 -3.58739,3.27111 -3.77318,4.19934c-0.72824,-2.27695 -1.50541,-5.31052 -0.57647,-9.95163c0.92895,-4.64112 4.58656,-8.90001 7.25563,-8.40221c2.54995,0.72897 2.2344,2.76057 2.71373,6.37208z" fill="#ffffff" stroke="none" stroke-width="1" stroke-linecap="butt" stroke-linejoin="miter"/></g><g fill-rule="evenodd"><path d="M230.62718,215.03002c-15.19113,-6.33238 -8.10101,-14.37044 -7.08292,-21.93162c1.11902,-6.55771 2.94459,-6.09108 11.28248,-7.61827c4.63265,-1.09712 7.36078,-1.73492 10.14153,-2.98998c4.19675,-1.81827 5.88191,4.66774 6.00333,8.34667c0,0 0.09218,5.47963 -0.60848,8.591c-0.5206,2.23092 -3.57602,11.76415 -9.04621,15.51405c-3.79801,2.60362 -10.68973,0.08816 -10.68973,0.08816z" fill="#ffab19" stroke="#001026" stroke-width="1.2" stroke-linecap="round" stroke-linejoin="round"/><path d="M246.41068,207.85786c0,0 -2.54527,-0.77674 -5.37284,-1.88843c-3.49609,-1.2931 -6.83856,-2.20002 -5.8512,-7.21448c1.0883,-4.01099 1.6383,-9.00056 8.91569,-7.57145c6.91755,1.27407 5.75172,5.46496 5.75172,5.46496c-0.52804,6.91901 -3.44337,11.20938 -3.44337,11.20938z" fill="#ffffff" stroke="none" stroke-width="1" stroke-linecap="butt" stroke-linejoin="miter"/></g><path d="M230.73684,220.75432c0.11273,7.55272 -2.71242,13.71895 -6.31017,13.77265c-3.59775,0.0537 -6.60568,-6.02546 -6.71842,-13.57818c-0.11273,-7.55272 5.48605,-15.91917 9.08379,-15.97287c3.59775,-0.0537 3.83206,8.22568 3.94479,15.7784z" fill="#ffab19" fill-rule="nonzero" stroke="#001026" stroke-width="1.2" stroke-linecap="butt" stroke-linejoin="miter"/><path d="M243.96263,237.37588c0,3.52418 -9.13169,6.38107 -20.39619,6.38107c-11.26451,0 -20.39619,-2.85689 -20.39619,-6.38107c0,-3.52418 9.13169,-6.38106 20.39619,-6.38106c11.26451,0 20.39619,2.85689 20.39619,6.38106z" fill="#ffab19" fill-rule="nonzero" stroke="#001026" stroke-width="1.2" stroke-linecap="butt" stroke-linejoin="miter"/><path d="M260.3024,178.72354c1.29138,-4.45864 5.95268,-7.02623 10.41133,-5.73486c4.45864,1.29137 7.02623,5.95269 5.73486,10.41134c-1.29138,4.45864 -5.95269,7.02623 -10.41134,5.73486c-4.45864,-1.29137 -7.02624,-5.95269 -5.73486,-10.41133z" fill="#ffab19" fill-rule="nonzero" stroke="#001026" stroke-width="1.2" stroke-linecap="butt" stroke-linejoin="miter"/><path d="M202.20629,191.87023c2.64234,-3.30227 27.46316,-9.83323 31.94593,-5.55027c2.3368,8.68151 -8.15281,6.99349 -12.51569,7.96998c-2.62914,0.61259 -5.3153,1.3586 -7.18251,1.66549c-0.20863,0.15102 2.05488,13.44779 -0.84097,19.66066c-1.79838,3.85834 -9.0638,1.87158 -9.59238,1.75666c-6.80268,-1.47896 -2.00727,-23.97427 -1.81439,-25.50252z" fill="#ffab19" fill-rule="evenodd" stroke="#001026" stroke-width="1.2" stroke-linecap="round" stroke-linejoin="round"/><g fill-rule="nonzero" stroke="#001026" stroke-width="1.2" stroke-linecap="round" stroke-linejoin="miter"><path d="M265.29826,199.9634l-3.65091,-1.07657l0.67145,-4.40627l-0.51164,-2.33227l3.59283,-3.09406z" fill="#ffab19"/><path d="M277.40348,188.80251l-0.48912,13.45125l-6.2269,2.17245l-6.16716,-1.63341l-0.86509,-3.42657l0.49389,-0.96519l-0.27922,-3.85752l0.4019,-1.49943l-0.22755,-4.19646l5.39085,-3.5137z" fill="#ffab19"/><path d="M266.01815,192.96339l2.39522,-2.0627" fill="none"/><path d="M268.87654,195.82667l-3.29421,2.27253" fill="none"/></g><g><path d="M254.71065,130.26251c0.32245,-0.16133 0.80623,-0.00022 0.85595,0.40908l1.25569,10.93953c0,0 5.76909,5.45597 7.24604,8.96577c2.49467,5.85376 2.03694,10.33154 2.03694,10.33154c0,0 6.7855,2.9626 7.27079,8.7673c0.48529,5.8047 -5.21757,15.97708 -24.33096,17.32179c-19.11339,1.34471 -33.46608,-5.58497 -39.10053,-17.77607c-5.63446,-12.1911 7.16268,-24.30033 6.46828,-23.58074l0.13159,-18.02228c-0.04972,-0.4093 0.48356,-0.64511 0.85573,-0.39715l11.0292,9.33685c0,0 4.67581,-1.12996 9.36441,-0.74672c2.80323,0.14809 5.16002,0.64359 7.39283,1.32518z" fill="#ffab19" fill-rule="evenodd" stroke="#001026" stroke-width="1.2" stroke-linecap="butt" stroke-linejoin="miter"/><path d="M265.75807,161.26817c0,0 6.62416,2.64017 7.10947,8.44485c0.48529,5.8047 -5.55262,15.43142 -24.45517,16.70165c-24.63277,1.96638 -34.26209,-13.74625 -26.30166,-23.4355c7.9728,-9.78848 18.25809,0.66488 26.66777,1.10914c7.20653,0.39498 8.78012,-5.75757 16.97961,-2.82015z" fill="#ffffff" fill-rule="evenodd" stroke="none" stroke-width="1" stroke-linecap="butt" stroke-linejoin="miter"/><path d="M222.10013,150.10192c0.82249,-6.59436 6.83504,-11.27337 13.42938,-10.45088c6.59436,0.82249 11.27337,6.83504 10.45088,13.42939c-0.82249,6.59436 -6.83503,11.27337 -13.42939,10.45088c-6.59436,-0.82249 -11.27335,-6.83503 -10.45086,-13.42939z" fill="#ffffff" fill-rule="nonzero" stroke="#001026" stroke-width="1.2" stroke-linecap="butt" stroke-linejoin="miter"/><path d="M283.69665,164.78009c-5.13417,3.18907 -12.2912,2.39717 -12.2912,2.39717" fill="none" fill-rule="evenodd" stroke="#001026" stroke-width="1.2" stroke-linecap="round" stroke-linejoin="round"/><path d="M281.02048,175.73302c-6.31345,-0.28358 -9.9483,-2.65168 -9.9483,-2.65168" fill="none" fill-rule="evenodd" stroke="#001026" stroke-width="1.2" stroke-linecap="round" stroke-linejoin="round"/><path d="M248.82389,161.47383c2.08386,0.25991 4.24219,0.73066 4.25478,1.43766c-0.07404,1.40161 -1.90906,3.99443 -3.50914,3.89564c-1.81092,-0.02432 -5.66919,-3.02492 -5.47117,-4.61262c0.0493,-1.20315 2.74092,-0.96821 4.72552,-0.72067z" fill="#001026" fill-rule="evenodd" stroke="#001026" stroke-width="1.2" stroke-linecap="round" stroke-linejoin="round"/><path d="M204.35554,154.41579c0,0 8.18732,3.84287 11.27673,7.35223" fill="none" fill-rule="evenodd" stroke="#001026" stroke-width="1.2" stroke-linecap="round" stroke-linejoin="round"/><path d="M215.49676,165.2783c-4.47734,1.15472 -11.6843,-0.8527 -11.6843,-0.8527" fill="none" fill-rule="evenodd" stroke="#001026" stroke-width="1.2" stroke-linecap="round" stroke-linejoin="round"/><path d="M245.96045,153.32484c-0.2418,1.93862 -3.20798,7.08432 -4.97037,6.86452c-1.76238,-0.21981 -1.61602,-5.71723 -1.37422,-7.65585c0.2418,-1.93862 1.84954,-3.34892 3.61193,-3.1291c1.7404,0.39605 2.97446,1.98181 2.73267,3.92045" fill="#001026" fill-rule="evenodd" stroke="none" stroke-width="1" stroke-linecap="butt" stroke-linejoin="miter"/><path d="M249.34106,143.85563c0,0 -1.78334,5.27332 -3.38311,3.19785c-3.03324,-3.93516 -13.26631,-17.83381 -13.26631,-17.83381" fill="none" fill-rule="nonzero" stroke="#001026" stroke-width="2.5" stroke-linecap="round" stroke-linejoin="miter"/><path d="M251.46682,152.31585c0.75607,-6.0618 6.71476,-10.3091 13.30911,-9.48661c6.59436,0.82249 11.32721,6.40332 10.57115,12.46512c-0.75607,6.0618 -6.71476,10.3091 -13.30912,9.48661c-6.59436,-0.82249 -11.32719,-6.40331 -10.57113,-12.46512z" fill="#ffffff" fill-rule="nonzero" stroke="#001026" stroke-width="1.2" stroke-linecap="butt" stroke-linejoin="miter"/><path d="M275.28695,155.86102c-0.22227,1.78206 -3.14508,6.57995 -4.90745,6.36014c-1.76238,-0.21981 -1.6594,-5.36941 -1.43713,-7.15148c0.22227,-1.78206 1.81404,-3.06426 3.57642,-2.84445c1.74218,0.38182 2.99043,1.85373 2.76816,3.63578" fill="#001026" fill-rule="evenodd" stroke="none" stroke-width="1" stroke-linecap="butt" stroke-linejoin="miter"/><path d="M252.78473,146.75786c0,0 3.89172,-3.81211 6.42453,-3.90321c4.26416,-0.15337 17.25433,-0.60618 17.25433,-0.60618" fill="none" fill-rule="nonzero" stroke="#001026" stroke-width="2.5" stroke-linecap="round" stroke-linejoin="miter"/><g stroke="#001026" stroke-width="1.2" stroke-linecap="round"><g><path d="M218.92604,161.90884c0.13602,-0.51103 0.74904,-0.75829 1.22607,-0.49452c2.18937,1.54033 8.54422,5.42055 16.07363,7.97171c6.79688,2.21937 10.98711,2.92417 13.00547,3.05092c0.67278,0.04225 1.01381,0.81705 0.58828,1.38783c-2.06787,3.14342 -9.47277,11.43312 -22.68326,7.09638c-11.28587,-4.37174 -10.25956,-12.85421 -8.2102,-19.0123z" fill="#ffffff" fill-rule="evenodd" stroke-linejoin="round"/><path d="M225.13524,173.22639c0,0 -2.38111,-2.70011 -3.2561,-4.36367c-1.0176,-1.93471 -2.48655,-6.55448 -2.48655,-6.55448" fill="none" fill-rule="nonzero" stroke-linejoin="miter"/></g><path d="M260.96334,173.07966c-1.65209,-0.04753 -4.15136,-0.07869 -5.90136,-0.27181c-2.51776,-0.27782 -6.63913,-0.54159 -6.63913,-0.54159" fill="none" fill-rule="nonzero" stroke-linejoin="miter"/></g></g></g></g></svg>