<svg version="1.1" xmlns="http://www.w3.org/2000/svg" xmlns:xlink="http://www.w3.org/1999/xlink" width="91.90136" height="111.79779" viewBox="0,0,91.90136,111.79779"><g transform="translate(-183.3142,-132.08995)"><g data-paper-data="{&quot;isPaintingLayer&quot;:true}" stroke-miterlimit="10" stroke-dasharray="" stroke-dashoffset="0" style="mix-blend-mode: normal"><g fill-rule="evenodd"><path d="M253.46054,211.24313c2.38939,-0.37188 5.28754,-1.02157 7.77208,-3.13263c5.6858,-4.69294 7.81177,-12.88078 11.43317,-10.51123c3.71977,2.37535 2.88824,15.77159 -9.33947,19.1539c-4.21084,1.18789 -7.94973,0.96675 -10.99428,0.68407c-0.78714,-0.04655 -7.53702,-1.16419 -9.70817,-4.78225c-2.17114,-3.61805 -0.44809,-4.43988 0.36144,-4.80255c0.91351,-0.45915 7.09634,3.8067 10.47525,3.39071z" fill="#ff7e19" stroke="#001026" stroke-width="1.2" stroke-linecap="round" stroke-linejoin="round"/><path d="M272.06422,197.76897c1.93426,0.73022 2.68314,5.08524 1.50334,8.60776c-1.1798,3.52251 -2.85479,5.27091 -4.20665,6.52523c0.23596,-0.7045 0.75265,-2.93194 -0.84726,-4.36085c-1.97109,-1.86139 -5.66198,-1.15596 -5.66198,-1.15596c0,0 3.26284,-3.70722 4.9882,-6.37638c1.703,-2.25993 2.27891,-3.76542 4.22435,-3.23983z" fill="#ffffff" stroke="none" stroke-width="1" stroke-linecap="butt" stroke-linejoin="miter"/></g><path d="M223.10229,199.65936c2.49098,-1.13952 5.39878,0.03639 6.49471,2.62646c0.24894,0.58832 0.38297,1.19897 0.41228,1.80485c1.01484,1.64604 -1.93504,4.60789 -2.54425,6.0191c-2.29076,5.30644 -4.98501,7.81662 -10.98093,10.04131c-2.45023,0.90911 -5.11677,0.63008 -6.49471,-2.62647c-2.61557,-6.18153 4.89449,-7.27195 7.58225,-9.94816c1.44039,-1.4342 3.60071,-8.5373 5.53064,-7.9171z" fill="#ff7e19" fill-rule="nonzero" stroke="#000000" stroke-width="1.2" stroke-linecap="butt" stroke-linejoin="miter"/><path d="M245.3025,232.2463c0,0 1.52834,-2.78294 12.02326,-2.66425" fill="none" fill-rule="nonzero" stroke="#001026" stroke-width="1.2" stroke-linecap="round" stroke-linejoin="miter"/><g fill-rule="nonzero" stroke-linecap="round" stroke-linejoin="miter"><path d="M254.60948,210.12572l11.71546,10.34602l-5.23012,10.53761c0,0 6.54961,-0.06235 7.53136,2.6823c0.98176,2.74465 -3.55647,8.4301 -3.55647,8.4301l-19.24682,1.14955l-6.90375,-7.85531l-1.04602,-5.74779l4.3933,-7.08894l-4.18409,-9.57965l-7.11296,6.70575l5.02091,9.77124l-1.04602,6.89735l-17.15477,2.29912l-6.48534,-1.34115c0,0 -5.70052,-5.19381 -3.26387,-7.58474c2.43666,-2.39093 12.05046,-1.03695 12.05046,-1.03695l-4.81171,-10.34602l10.46023,-7.47213c0,0 -6.58297,-6.43486 -5.23011,-10.92079c3.20272,-10.61985 19.62752,-12.66132 28.45182,-5.17301c5.06925,4.30178 5.64853,15.32744 5.64853,15.32744z" fill="#ff7e19" stroke="#001026" stroke-width="1.2"/><path d="M239.64474,210.93003c-5.37856,0.96161 -7.94131,-1.67096 -10.18272,-4.25373c-2.51411,-2.89701 -4.80669,-6.07894 1.1625,-7.23967c6.54842,-1.27337 9.93435,1.54427 12.59283,4.74273c0,0 4.17836,5.3649 -3.57261,6.75068z" fill="#ffffff" stroke="#000000" stroke-width="0"/><path d="M248.88277,233.47533c0,0 1.62218,-2.60167 12.76147,-2.4907" fill="none" stroke="#001026" stroke-width="1.2"/><path d="M240.44187,212.90278c0,0 -3.38029,-0.13154 -4.76782,-1.45549" fill="none" stroke="#001026" stroke-width="1.2"/></g><g><g><path d="M205.1073,162.19051c0,0 0.67471,-29.57091 1.73442,-29.50043c1.42764,0.09494 23.43055,14.05072 23.43055,14.05072" fill="#ff7e19" fill-rule="nonzero" stroke="#001026" stroke-width="1.2" stroke-linecap="round" stroke-linejoin="miter"/><path d="M258.51994,168.68159l11.53783,16.19742l-3.16283,5.40483l-29.86013,-2.66539z" fill="#9c6041" fill-rule="nonzero" stroke="#001026" stroke-width="1.2" stroke-linecap="round" stroke-linejoin="miter"/><path d="M193.9488,181.45745c0,0 -8.07102,-0.46461 -10.0346,-4.14905" fill="none" fill-rule="evenodd" stroke="#001026" stroke-width="1.2" stroke-linecap="round" stroke-linejoin="round"/><path d="M193.80349,187.51526c0,0 -3.75993,2.3419 -9.11507,0.63775" fill="none" fill-rule="evenodd" stroke="#001026" stroke-width="1.2" stroke-linecap="round" stroke-linejoin="round"/><path d="M222.27636,153.11993c11.08181,-1.99687 40.29597,7.21132 32.50802,34.68695c-0.10154,0.35821 -0.2816,0.6875 -0.45987,1.0156c-6.51043,11.98207 -21.1632,17.86482 -39.82977,14.90045c-18.66659,-2.96437 -23.45392,-13.82837 -22.51254,-19.71645c0.94138,-5.88808 7.84365,-8.34905 7.84365,-8.34905c0,0 -0.09114,-4.61136 2.82789,-10.3823c0,0 3.43179,-9.23772 19.62263,-12.1552z" fill="#ff7e19" fill-rule="evenodd" stroke="#001026" stroke-width="1.2" stroke-linecap="butt" stroke-linejoin="miter"/><path d="M216.59065,180.34749c8.29601,0.24628 19.23564,-9.57386 26.28337,1.08699c7.04351,10.55849 -3.67282,25.80463 -27.71109,21.74592c-18.46545,-2.87075 -23.62556,-13.20535 -22.68418,-19.09342c0.94138,-5.88808 7.65936,-8.03315 7.65936,-8.03315c8.28915,-2.31755 9.34228,4.09718 16.45254,4.29366z" fill="#ffffff" fill-rule="evenodd" stroke="none" stroke-width="1" stroke-linecap="butt" stroke-linejoin="miter"/><path d="M221.45891,178.79753c0.06742,1.63804 -3.96263,4.38147 -5.74335,4.25557c-1.57959,-0.03229 -3.17448,-2.83313 -3.135,-4.2708c0.06897,-0.72102 2.2267,-1.02215 4.29437,-1.11415c1.96922,-0.08761 4.63189,-0.10353 4.58398,1.12939z" fill="#001026" fill-rule="evenodd" stroke="#001026" stroke-width="1.2" stroke-linecap="round" stroke-linejoin="round"/><path d="M250.95754,177.33482c-2.59583,5.40679 -9.55983,7.7652 -9.55983,7.7652" fill="none" fill-rule="evenodd" stroke="#001026" stroke-width="1.2" stroke-linecap="round" stroke-linejoin="round"/><path d="M252.52777,188.56232c-4.1609,3.09461 -9.32359,2.29886 -9.32359,2.29886" fill="none" fill-rule="evenodd" stroke="#001026" stroke-width="1.2" stroke-linecap="round" stroke-linejoin="round"/><path d="M246.31231,166.01723l-42.87555,-3.36182l2.70605,-23.19427l47.29245,4.70303l11.33736,19.8862l-8.02933,15.56011z" fill="#c46a00" fill-rule="nonzero" stroke="#001026" stroke-width="1.2" stroke-linecap="round" stroke-linejoin="miter"/><path d="M253.21743,144.345l-6.88305,21.46862" fill="none" fill-rule="nonzero" stroke="#001026" stroke-width="0.75" stroke-linecap="round" stroke-linejoin="miter"/><path d="M258.40858,153.20108l-4.62559,-8.58378c0,0 13.81288,-4.30237 14.80621,-3.84369c1.11319,0.51402 -11.87611,28.10923 -11.87611,28.10923z" fill="#ff7e19" fill-rule="nonzero" stroke="#001026" stroke-width="1.2" stroke-linecap="round" stroke-linejoin="miter"/></g><g fill="none" fill-rule="nonzero" stroke="none" stroke-width="1" stroke-linecap="butt" stroke-linejoin="miter" font-family="sans-serif" font-weight="normal" font-size="12" text-anchor="start"><g/><g/><g/></g></g><path d="M226.98587,214.22511c-0.61909,1.34753 -0.73697,3.1478 -1.65828,4.22233c-0.1405,0.16387 -0.2997,0.31087 -0.4822,0.4368c-2.17013,1.49745 -9.24373,2.10347 -10.71479,1.90556c-3.17765,-0.42749 -5.84618,-4.45309 -4.41243,-7.70349c1.5531,-3.52098 7.21573,-2.96379 9.83021,-3.22368c1.24189,-0.12344 3.86809,-1.14895 4.70553,0.14414z" fill="#ff7e19" fill-rule="nonzero" stroke="#000000" stroke-width="1.2" stroke-linecap="butt" stroke-linejoin="miter"/><g fill-rule="nonzero" stroke="#000000" stroke-width="1.2" stroke-linejoin="miter"><path d="M228.47362,210.69504c-4.3623,-1.71963 -6.55797,-6.79066 -4.90413,-11.32647c1.65385,-4.53581 6.53089,-6.81878 10.8932,-5.09918c4.3623,1.71963 6.55796,6.79066 4.90412,11.32647c-1.65385,4.53581 -6.53089,6.8188 -10.8932,5.09919z" fill="#5c5e5f" stroke-linecap="butt"/><g stroke-linecap="round"><path d="M233.39247,212.07049l1.58581,4.57029l-1.56844,1.82398l-1.55716,4.27067l-3.65507,-0.87723z" fill="#ff7e19"/><path d="M231.73029,206.71861l2.92598,5.85005l-2.22724,3.63079l-0.38104,1.54058l-2.10746,3.30227l-0.04341,1.11009l-2.4017,2.62269l-6.08457,-1.64708l-4.29305,-5.07389l6.09324,-12.25156z" fill="#ff7e19"/><path d="M230.96908,215.2482l-1.05722,-3.04687" fill="none"/><path d="M227.12913,216.3646l1.7273,3.68675" fill="none"/></g><path d="M225.56676,222.13614l-2.00939,3.5288l-3.83475,-0.38446l-2.00504,-3.4205l1.70993,-2.70752l4.07432,-0.27255z" fill="#5c5e5f" stroke-linecap="round"/></g><g fill-rule="nonzero" stroke-linejoin="miter"><path d="M246.36164,208.84103c0.17703,-2.19988 2.67955,-4.06536 5.66677,-5.06628c4.26862,-1.43028 9.52697,-1.09521 10.40394,2.5522c2.8194,11.72619 -12.41138,14.76011 -15.78146,4.24776z" fill="#ff7e19" stroke="#000000" stroke-width="1.2" stroke-linecap="butt"/><path d="M264.8895,203.92087c-4.43945,7.27324 -10.01009,8.22336 -14.56339,6.79916c-4.55331,-1.42419 -9.334,-7.25857 -9.334,-7.25857c0,0 -4.58602,-3.73681 -1.158,-8.02687c2.47817,-3.10135 5.54921,0.97299 5.54921,0.97299l3.32018,-5.33342c0,0 0.30969,-8.62873 4.43892,-7.52301c1.22671,0.32849 2.91038,0.98225 2.91038,0.98225c0,0 3.59708,-0.41473 5.03255,0.21339c5.78574,2.53165 1.22599,10.11501 1.22599,10.11501c0,0 5.4324,4.38293 2.57818,9.05906z" fill="#ff7e19" stroke="#000000" stroke-width="1.2" stroke-linecap="round"/><path d="M253.72643,190.54869l1.1071,-3.25886" fill="none" stroke="#000000" stroke-width="1.2" stroke-linecap="round"/><path d="M260.76002,190.79717c-0.81593,2.34112 -2.72187,3.77005 -4.25702,3.19161c-1.70498,-0.64243 -1.19588,-2.94694 -0.55134,-5.00718c0.6956,-2.22347 1.01429,-4.1641 2.85434,-3.47077c1.53516,0.57844 2.76994,2.94522 1.95402,5.28634z" fill="#ffffff" stroke="none" stroke-width="0" stroke-linecap="butt"/><path d="M253.40794,188.37401c-0.69018,1.80967 -2.11352,2.98539 -3.1791,2.62606c-1.18344,-0.39909 -0.71336,-2.16558 -0.15828,-3.75442c0.59905,-1.71471 1.05461,-3.00378 2.33181,-2.57307c1.06558,0.35934 1.69575,1.89177 1.00557,3.70144z" fill="#ffffff" stroke="none" stroke-width="0" stroke-linecap="butt"/><path d="M245.61281,200.4279c-0.65815,0.67624 -2.15311,0.21284 -3.33909,-1.03505c-1.18599,-1.24788 -1.61388,-2.80771 -0.95572,-3.48395c0.65815,-0.67624 2.15311,-0.21284 3.33909,1.03505c1.18599,1.24788 1.61388,2.80771 0.95572,3.48395z" fill="#ffffff" stroke="none" stroke-width="0" stroke-linecap="butt"/><path d="M249.03146,206.05347c-3.5539,-2.07667 -4.47784,-4.02406 -2.56978,-7.55434c0.85368,-1.57948 2.85183,0.04405 4.41036,-0.51296c1.92492,-0.68796 2.31612,-4.12467 4.27997,-2.97712c2.08731,1.21968 -0.13897,3.50263 -0.12328,5.73953c-0.50698,1.50734 1.53181,4.67342 2.4623,4.9285c0.09675,0.02652 0.19088,0.05031 0.28245,0.07147c-1.98217,2.87089 -5.39957,2.25804 -8.74202,0.30493z" fill="#ffffff" stroke="none" stroke-width="0" stroke-linecap="butt"/><path d="M259.88581,205.92408c0,0 -3.89081,1.25203 -4.91519,-3.79632c-0.47876,-2.35947 3.70947,-4.82729 3.70947,-4.82729" fill="none" stroke="#000000" stroke-width="1.2" stroke-linecap="round"/></g><path d="M232.60096,181.7412c0,-0.70742 0.55153,-1.28089 1.23189,-1.28089c0.68036,0 1.23189,0.57347 1.23189,1.28089c0,0.70742 -0.55153,1.28089 -1.23189,1.28089c-0.68036,0 -1.23189,-0.57347 -1.23189,-1.28089z" fill="#000000" fill-rule="nonzero" stroke="#000000" stroke-width="1.2" stroke-linecap="butt" stroke-linejoin="miter"/><path d="M199.58628,181.22884c0,-0.70742 0.55153,-1.28089 1.23189,-1.28089c0.68036,0 1.23189,0.57347 1.23189,1.28089c0,0.70742 -0.55153,1.28089 -1.23189,1.28089c-0.68036,0 -1.23189,-0.57347 -1.23189,-1.28089z" fill="#000000" fill-rule="nonzero" stroke="#000000" stroke-width="1.2" stroke-linecap="butt" stroke-linejoin="miter"/><path d="M210.18055,196.08715l4.18843,-9.47858l9.85513,8.45386" fill="none" fill-rule="nonzero" stroke="#001026" stroke-width="1.2" stroke-linecap="round" stroke-linejoin="miter"/></g></g></svg>