<svg version="1.1" xmlns="http://www.w3.org/2000/svg" xmlns:xlink="http://www.w3.org/1999/xlink" width="145.4292" height="226.27123" viewBox="0,0,145.4292,226.27123"><defs><radialGradient cx="227.27284" cy="162.60469" r="38.25582" gradientUnits="userSpaceOnUse" id="color-1"><stop offset="0" stop-color="#180036"/><stop offset="1" stop-color="#1d1d1d"/></radialGradient></defs><g transform="translate(-173.73055,-92.62569)"><g stroke-miterlimit="10"><g stroke="#000000" stroke-width="1.2"><path d="M268.6893,220.63997l-7.51201,-2.24926l-1.91212,-13.4683l-3.57035,-11.01668l2.66608,-3.80815l4.26639,-1.57156l10.53389,6.85315l11.6259,5.74481l-0.5055,7.80305l-6.23959,7.04104z" fill="#707070" stroke-linecap="round"/><path d="M286.49464,241.99753l-18.87504,-27.07943l-1.92457,2.02696l6.83688,-7.16813l9.46921,-5.6863l-2.77089,1.71673l20.78454,26.30238" fill="#5d5d5d" stroke-linecap="round"/><path d="M301.02972,247.47308c-4.45789,3.26022 -10.71466,2.28932 -13.97488,-2.16857c-3.26022,-4.45789 -2.28932,-10.71466 2.16857,-13.97488c4.45789,-3.26022 10.71466,-2.28933 13.97488,2.16857c3.26022,4.45789 2.28933,10.71466 -2.16856,13.97488z" fill="#707070" stroke-linecap="butt"/></g><g stroke="#000000" stroke-width="1.2"><path d="M293.3707,222.10802c1.32253,-6.89225 7.98191,-11.40739 14.87417,-10.08487c6.89226,1.32254 11.4074,7.98192 10.08486,14.87418c-1.32253,6.89225 -7.98191,11.4074 -14.87417,10.08487c-6.89226,-1.32254 -11.4074,-7.98192 -10.08486,-14.87418z" fill="#5c5e5f" stroke-linecap="butt"/><g stroke-linecap="round"><path d="M291.83836,252.16188l-8.01267,-4.83109l2.94722,-5.5511l-0.82302,-6.74507l7.31109,-3.77271" fill="#5d5d5d"/><path d="M315.08824,234.58954l1.42205,3.01567l-2.41555,4.00632l2.79396,3.8297l-5.521,6.70401l1.4761,3.34157l-3.71501,5.87427l-11.43881,3.2159l-10.30008,-7.62258l0.94866,-6.16986l2.56458,-2.33095l-1.24919,-3.29803l1.00142,-5.2187l2.57379,-1.15291l-1.2492,-3.29803l1.3246,-4.45093l13.49013,-1.64602z" fill="#5d5d5d"/><path d="M294.86095,238.86182l8.51673,-0.2478" fill="none"/><path d="M292.76186,248.57501l8.20275,0.16246" fill="none"/></g><path d="M291.85124,265.58081l1.35932,-7.08396l5.68931,-1.45113l4.68536,3.78093l-1.06967,6.80049l-6.23723,1.85456z" fill="#5c5e5f" stroke-linecap="round"/></g><g stroke="#000000"><g stroke-width="0" stroke-linecap="round"><path d="M255.89276,196.72444l3.38263,10.15361l-4.03701,-0.42411l2.1753,7.21941l-11.11534,17.71318l-13.46881,-15.89215l0.46165,-7.71304l-4.56226,1.61248l3.55397,-11.24142" fill="#0063eb"/><path d="M252.04722,195.67569l2.32372,6.97509l-2.77324,-0.29135l1.74601,8.55286l-7.63575,12.16819l-9.2525,-10.91721l0.06548,-8.89197l-3.13408,1.1077l2.44142,-7.72236" fill="#629beb"/></g><path d="M229.40662,199.99704l-3.25442,-51.23808c0,0 -1.13674,-16.44957 12.60091,-17.15701c14.40695,-0.7419 15.54005,15.45498 15.54005,15.45498l3.58696,51.21796c0,0 -2.871,3.02018 -14.29737,3.87195c-11.75242,0.87609 -14.17611,-2.14982 -14.17611,-2.14982z" fill="#5d5d5d" stroke-width="1.2" stroke-linecap="butt"/></g><g stroke="#000000"><g stroke-width="0" stroke-linecap="round"><path d="M203.4332,198.3939l0.39985,10.66309l-3.76557,-1.49333l0.06315,7.51984l-15.67744,14.02463l-8.49214,-18.88848l2.61324,-7.28467l-4.84374,0.32165l6.58119,-9.84208" fill="#0063eb"/><path d="M200.02752,196.35207l0.27469,7.32507l-2.58679,-1.02585l-0.72494,8.68523l-10.76972,9.63431l-5.83372,-12.97556l2.56351,-8.52367l-3.32744,0.22095l4.52098,-6.76108" fill="#629beb"/></g><path d="M177.02512,194.41273l11.2768,-50.0928c0,0 3.53185,-16.10663 16.95064,-13.09078c14.07255,3.16278 10.60824,19.02572 10.60824,19.02572l-10.95115,50.16293c0,0 -3.61208,2.12879 -14.8473,-0.12669c-11.55581,-2.31983 -13.03722,-5.87836 -13.03722,-5.87836z" fill="#5d5d5d" stroke-width="1.2" stroke-linecap="butt"/></g><g stroke="#000000" stroke-width="1.2"><path d="M196.02782,121.53729c0.58002,9.0697 -1.6969,16.68142 -5.08562,17.00126c-3.38873,0.31984 -6.60604,-6.77333 -7.18605,-15.84303c-0.58002,-9.0697 1.6969,-16.68143 5.08562,-17.00126c3.38873,-0.31984 6.60604,6.77334 7.18605,15.84304z" fill="#454545" stroke-linecap="butt"/><path d="M197.63412,151.74922l-1.7695,-35.48882l0.03425,6.33278l-7.03975,0.39873l-1.46853,-17.18345l11.0254,-12.43689l7.63751,-0.1355l1.84749,55.18104" fill="#5d5d5d" stroke-linecap="round"/></g><g stroke="#000000" stroke-width="1.2"><path d="M265.96643,122.70888c-1.58365,8.99066 -5.5772,15.83471 -8.91979,15.28661c-1.45442,-0.23848 -2.54594,-1.83717 -3.18457,-4.30784c-0.82911,-3.20759 -0.89489,-7.88488 -0.0003,-12.96361c1.58364,-8.99067 5.5772,-15.83473 8.91979,-15.28661c3.3426,0.54811 4.76852,8.2808 3.18485,17.27146z" fill="#454545" stroke-linecap="butt"/><path d="M256.21438,151.94901l6.67881,-35.05265l-1.46318,6.18351l-2.98612,-1.44041l2.64405,-17.1275l9.67283,-9.28603l7.39526,1.80605l-11.25618,54.27348" fill="#5d5d5d" stroke-linecap="round"/></g><g stroke="#000000" stroke-width="1.2"><g fill="#5d5d5d" stroke-linecap="round"><path d="M208.94131,258.30097l0.70054,32.75854l-6.92856,1.64893l-7.64089,-1.61834l-2.86907,-32.43197"/><g><path d="M208.31052,283.58254l3.92442,3.91913l1.22065,4.97754l4.01295,5.91867l-3.85955,8.83864l-7.08984,3.65381l-7.98641,-16.5916l-2.92513,-3.94045"/><path d="M212.74973,296.49714l1.5402,2.96929l0.37845,3.24426l4.27539,6.41344l-1.2967,2.52946l-1.11959,6.52855l-5.16042,0.11012l-1.46273,-1.21968l1.62194,-5.78873l-2.10896,-5.20876l-2.34564,0.05004l-0.95145,5.02389l0.37846,3.24426l-1.30777,2.27953l-5.90839,-0.87464l0.48232,-5.01388l-1.38314,-4.72389l-2.547,0.80488l1.86332,4.96383l-1.45378,4.28406l-4.70237,-0.14984l-0.57982,-2.48941l-2.9012,-7.19329l1.53339,-7.78828l-0.33205,-7.49829l1.45109,-5.03456l4.76323,-2.38734"/></g></g><g><path d="M201.61701,226.88713l-9.11043,-2.5648l-4.77816,-6.29867l6.43773,-11.10729l4.9125,-11.45181l4.41794,-0.97721l4.33942,1.76929l3.19127,11.20295l5.93666,12.37333l-4.97677,5.9451z" fill="#707070" stroke-linecap="round"/><path d="M192.40143,252.32968l2.55395,-33.35853l-3.25813,0.04849l11.0335,-0.31768l9.67702,2.34974l-2.72916,-0.66914l-0.53547,32.9832" fill="#5d5d5d" stroke-linecap="round"/><path d="M190.53546,255.2157c0.21507,-5.51227 4.86437,-9.70391 10.38448,-9.3623c5.52011,0.34161 9.82069,5.08713 9.60562,10.59941c-0.21507,5.51227 -4.86436,9.70391 -10.38447,9.3623c-5.52011,-0.34161 -9.82069,-5.08713 -9.60563,-10.5994z" fill="#707070" stroke-linecap="butt"/></g></g><g><g stroke-linecap="butt"><g><path d="M187.63675,166.90124c1.84284,-25.48961 24.00018,-44.65909 49.4898,-42.81624c25.48961,1.84284 44.65909,24.00018 42.81625,49.48979c-1.84284,25.48961 -24.00018,44.65909 -49.4898,42.81624c-25.48961,-1.84284 -44.65909,-24.00018 -42.81625,-49.48979z" fill="#5d5d5d" stroke="#000000" stroke-width="1.2"/><path d="M237.40014,124.74788c0,0 1.48672,0.12552 2.22147,0.21434c24.01877,2.903 41.76464,24.19927 40.00128,48.58944c-1.74845,24.18398 -22.04063,42.59873 -45.96192,42.34086c-0.94197,-0.01015 -2.84188,-0.11811 -2.84188,-0.11811z" fill="#686868" stroke="#000000" stroke-width="0"/><path d="M193.71429,167.34064c1.6385,-22.66305 21.33878,-39.7068 44.00183,-38.0683c22.66305,1.6385 39.70681,21.33878 38.06831,44.00182c-1.6385,22.66305 -21.33878,39.7068 -44.00184,38.0683c-22.66305,-1.6385 -39.7068,-21.33877 -38.0683,-44.00182z" fill="#707070" stroke="#838383" stroke-width="0"/><path d="M196.59313,167.54877c1.52355,-21.07309 19.84175,-36.92114 40.91484,-35.3976c21.07309,1.52355 36.92115,19.84175 35.39761,40.91484c-1.52355,21.07309 -19.84176,36.92115 -40.91485,35.3976c-21.07309,-1.52355 -36.92114,-19.84176 -35.3976,-40.91485z" fill="url(#color-1)" stroke="#000000" stroke-width="1.2"/></g><g stroke="#000000"><path d="M196.72365,178.97941c0,0 -2.07427,-7.00978 -1.69686,-11.61531c0.37743,-4.60552 3.57383,-11.28844 3.57383,-11.28844c0.34321,0.04104 1.19968,0.14903 1.66099,0.25653c5.45766,1.27172 9.33326,6.35706 8.91638,12.12314c-0.43575,6.02712 -5.40567,10.64359 -11.33182,10.75394c-0.35192,0.00655 -1.06514,-0.02867 -1.06514,-0.02867c0,0 -0.02048,-0.07043 -0.05738,-0.20121z" fill="#707070" stroke-width="0"/><path d="M198.60063,156.07565c0.34321,0.04104 1.19968,0.14903 1.661,0.25653c5.45765,1.27172 9.33326,6.35706 8.91638,12.12314c-0.43575,6.02712 -5.40567,10.64359 -11.33182,10.75394c-0.35192,0.00655 -1.06514,-0.02867 -1.06514,-0.02867c0,0 -0.02049,-0.07042 -0.05738,-0.20121" fill="none" stroke-width="1.2"/></g><g stroke="#000000"><path d="M271.10479,184.14322c-0.04009,0.12522 -0.06208,0.19257 -0.06208,0.19257c0,0 -0.47552,-0.05073 -0.70727,-0.09949c-3.90273,-0.82098 -6.63253,-5.99411 -6.19678,-12.02122c0.41688,-5.76609 3.58847,-10.34192 7.34757,-10.94729c0.31775,-0.05117 0.89666,-0.0554 1.12838,-0.05488c0,0 1.50444,4.68863 1.00614,11.61957c-0.48399,6.73188 -2.51595,11.31073 -2.51595,11.31073z" fill="#707070" stroke-width="0"/><path d="M271.10479,184.14322c-0.04009,0.12522 -0.06208,0.19257 -0.06208,0.19257c0,0 -0.47552,-0.05073 -0.70727,-0.09949c-3.90273,-0.82098 -6.63253,-5.99411 -6.19678,-12.02122c0.41688,-5.76609 3.58847,-10.34192 7.34757,-10.94729c0.31775,-0.05117 0.89666,-0.0554 1.12838,-0.05488" fill="none" stroke-width="1.2"/></g><path d="M196.34847,170.6053l0.45161,-6.24657l4.64599,-1.23392l4.28686,1.87975l-0.45161,6.24657l-4.6554,1.36404z" fill="#21cc26" stroke="#17921c" stroke-width="1.2"/><path d="M266.30116,175.66274l0.45161,-6.24657l3.20692,-1.33797l2.89009,1.77876l-0.45161,6.24657l-3.21632,1.4681z" fill="#21cc26" stroke="#17921c" stroke-width="1.2"/></g><g stroke-linecap="round"><path d="M230.12043,141.742l2.19509,0.1587l0.42233,-1.07275l1.57277,0.18266l1.35376,-1.55705l0.79506,-1.45954l1.04551,-2.06203l0.52231,2.31329l1.1157,1.73559l1.20416,1.46616l2.46368,1.21245l1.18515,0.77523l-1.16202,0.81241l-1.22977,-0.15787l-1.72568,0.97852l-1.26533,1.28762l-1.16285,1.77772l-0.75623,1.87606l-0.85703,-0.54465l-0.04213,-2.27857l-0.75457,-0.05455l0.02068,-1.2397l-1.47854,-1.48601l-1.66531,-0.80995l-1.67525,-0.67276z" fill="#eee796" stroke="#eee796" stroke-width="0.25"/><path d="M230.04803,142.96589l0.0982,-1.35822l2.26369,0.16366l0.06546,-0.90548l1.81095,0.13093l0.08183,-1.13184l1.2073,0.08729l-0.70197,-0.05075" fill="none" stroke="#cec344" stroke-width="0.75"/><path d="M235.64651,138.96959l-0.07105,0.98264l0.13093,-1.81095l0.90548,0.06546l0.16366,-2.2637l1.35822,0.0982" fill="none" stroke="#cec344" stroke-width="0.75"/><path d="M239.50148,140.23608l-0.70197,-0.05076l1.2073,0.08729l-0.08183,1.13184l1.81095,0.13093l-0.06546,0.90547l2.26369,0.16366l-0.0982,1.35822" fill="none" stroke="#cec344" stroke-width="0.75"/><path d="M236.83041,135.94703l1.35822,0.0982l-0.16366,2.26369l0.90548,0.06546l-0.13093,1.81095l0.07105,-0.98265" fill="none" stroke="#cec344" stroke-width="0.75"/><path d="M234.47129,145.46468l0.70197,0.05075l-1.2073,-0.08729l0.08183,-1.13184l-1.81095,-0.13093l0.06546,-0.90548l-2.26369,-0.16366l0.0982,-1.35822" fill="none" stroke="#cec344" stroke-width="0.75"/><path d="M237.14236,149.75373l-1.35822,-0.0982l0.16366,-2.2637l-0.90548,-0.06546l0.13093,-1.81094l-0.07105,0.98264" fill="none" stroke="#cec344" stroke-width="0.75"/><path d="M243.92473,142.73485l-0.0982,1.35822l-2.26369,-0.16366l-0.06546,0.90548l-1.81095,-0.13093l-0.08183,1.13184l-1.2073,-0.08729l0.70197,0.05075" fill="none" stroke="#cec344" stroke-width="0.75"/><path d="M238.32626,146.73116l0.07105,-0.98264l-0.13093,1.81095l-0.90548,-0.06546l-0.16366,2.26369l-1.35822,-0.0982" fill="none" stroke="#cec344" stroke-width="0.75"/></g><g stroke-linecap="round"><path d="M226.13035,196.93129l2.19509,0.1587l0.42234,-1.07275l1.57276,0.18266l1.35376,-1.55705l0.79506,-1.45954l1.04551,-2.06203l0.52231,2.31328l1.1157,1.73559l1.20416,1.46616l2.46368,1.21245l1.18515,0.77522l-1.16202,0.81241l-1.22977,-0.15787l-1.72568,0.97852l-1.26533,1.28762l-1.16285,1.77772l-0.75623,1.87606l-0.85703,-0.54465l-0.04213,-2.27857l-0.75457,-0.05455l0.02068,-1.2397l-1.47854,-1.486l-1.66531,-0.80996l-1.67525,-0.67275z" fill="#eee796" stroke="#eee796" stroke-width="0.25"/><path d="M226.05796,198.15518l0.0982,-1.35822l2.26369,0.16366l0.06546,-0.90548l1.81095,0.13093l0.08183,-1.13183l1.2073,0.08729l-0.70197,-0.05076" fill="none" stroke="#cec344" stroke-width="0.75"/><path d="M231.65643,194.15887l-0.07105,0.98264l0.13093,-1.81095l0.90548,0.06546l0.16366,-2.2637l1.35822,0.0982" fill="none" stroke="#cec344" stroke-width="0.75"/><path d="M235.51139,195.42536l-0.70197,-0.05076l1.2073,0.08729l-0.08183,1.13183l1.81095,0.13093l-0.06546,0.90548l2.26369,0.16366l-0.0982,1.35822" fill="none" stroke="#cec344" stroke-width="0.75"/><path d="M232.84033,191.13632l1.35822,0.0982l-0.16366,2.26369l0.90548,0.06546l-0.13093,1.81095l0.07105,-0.98265" fill="none" stroke="#cec344" stroke-width="0.75"/><path d="M230.48121,200.65395l0.70197,0.05076l-1.2073,-0.08729l0.08183,-1.13183l-1.81095,-0.13093l0.06546,-0.90548l-2.26369,-0.16366l0.0982,-1.35822" fill="none" stroke="#cec344" stroke-width="0.75"/><path d="M233.15229,204.94301l-1.35822,-0.0982l0.16366,-2.2637l-0.90547,-0.06546l0.13093,-1.81095l-0.07105,0.98265" fill="none" stroke="#cec344" stroke-width="0.75"/><path d="M239.93465,197.92414l-0.0982,1.35822l-2.26369,-0.16366l-0.06546,0.90547l-1.81095,-0.13093l-0.08183,1.13183l-1.2073,-0.08729l0.70197,0.05076" fill="none" stroke="#cec344" stroke-width="0.75"/><path d="M234.33618,201.92045l0.07105,-0.98265l-0.13093,1.81095l-0.90548,-0.06546l-0.16366,2.26369l-1.35822,-0.0982" fill="none" stroke="#cec344" stroke-width="0.75"/></g><g stroke-linecap="round"><path d="M251.93774,146.70694l1.43994,1.66438l1.05719,-0.45991l0.98295,1.24127l2.05825,-0.14374l1.59425,-0.46984l2.19735,-0.71879l-1.26642,2.00506l-0.43833,2.01618l-0.18527,1.88819l0.88476,2.59942l0.28985,1.38619l-1.39613,-0.24721l-0.75796,-0.98121l-1.91215,-0.52831l-1.80521,0.01577l-2.07929,0.43477l-1.86132,0.79184l-0.2209,-0.99114l1.58139,-1.64098l-0.495,-0.57213l0.89121,-0.86198l0.00528,-2.09625l-0.60484,-1.75028l-0.70886,-1.66028z" fill="#eee796" stroke="#eee796" stroke-width="0.25"/><path d="M251.02112,147.52117l1.02984,-0.89097l1.48496,1.71639l0.68655,-0.59397l1.18796,1.37312l0.85819,-0.74248l0.79198,0.91542l-0.46048,-0.53225" fill="none" stroke="#cec344" stroke-width="0.75"/><path d="M257.80564,148.65408l-0.74506,0.64459l1.37312,-1.18796l0.59398,0.68656l1.71639,-1.48494l0.89097,1.02984" fill="none" stroke="#cec344" stroke-width="0.75"/><path d="M259.63598,152.27549l-0.46047,-0.53226l0.79197,0.91541l-0.85819,0.74247l1.18796,1.37312l-0.68655,0.59397l1.48495,1.7164l-1.02984,0.89097" fill="none" stroke="#cec344" stroke-width="0.75"/><path d="M260.78007,147.35394l0.89097,1.02984l-1.7164,1.48495l0.59397,0.68656l-1.37311,1.18796l0.74507,-0.6446" fill="none" stroke="#cec344" stroke-width="0.75"/><path d="M252.38193,152.41579l0.46047,0.53225l-0.79196,-0.91542l0.85819,-0.74246l-1.18796,-1.37312l0.68656,-0.59398l-1.48495,-1.7164l1.02984,-0.89097" fill="none" stroke="#cec344" stroke-width="0.75"/><path d="M251.23784,157.33733l-0.89096,-1.02984l1.7164,-1.48495l-0.59397,-0.68656l1.3731,-1.18795l-0.74507,0.6446" fill="none" stroke="#cec344" stroke-width="0.75"/><path d="M260.99679,157.1701l-1.02984,0.89097l-1.48494,-1.7164l-0.68656,0.59397l-1.18796,-1.37311l-0.85819,0.74246l-0.79198,-0.91541l0.46049,0.53226" fill="none" stroke="#cec344" stroke-width="0.75"/><path d="M254.21226,156.0372l0.74507,-0.6446l-1.37312,1.18796l-0.59397,-0.68656l-1.71639,1.48495l-0.89097,-1.02985" fill="none" stroke="#cec344" stroke-width="0.75"/></g><g stroke-linecap="round"><path d="M210.09161,182.91024l1.43995,1.66438l1.05718,-0.45991l0.98295,1.24127l2.05825,-0.14374l1.59425,-0.46984l2.19735,-0.71879l-1.26641,2.00506l-0.43833,2.01617l-0.18528,1.8882l0.88477,2.59942l0.28986,1.38619l-1.39614,-0.24721l-0.75796,-0.98122l-1.91216,-0.52831l-1.8052,0.01576l-2.07929,0.43478l-1.86132,0.79184l-0.22091,-0.99114l1.5814,-1.64099l-0.49498,-0.57213l0.89121,-0.86198l0.00527,-2.09625l-0.60484,-1.75028l-0.70886,-1.66028z" fill="#eee796" stroke="#eee796" stroke-width="0.25"/><path d="M209.17499,183.72448l1.02984,-0.89097l1.48494,1.71639l0.68656,-0.59398l1.18796,1.37312l0.85819,-0.74247l0.79198,0.91542l-0.46048,-0.53225" fill="none" stroke="#cec344" stroke-width="0.75"/><path d="M215.95951,184.85738l-0.74507,0.6446l1.37312,-1.18796l0.59397,0.68656l1.7164,-1.48495l0.89096,1.02984" fill="none" stroke="#cec344" stroke-width="0.75"/><path d="M217.78985,188.4788l-0.46048,-0.53225l0.79198,0.91541l-0.8582,0.74247l1.18796,1.37312l-0.68656,0.59397l1.48495,1.7164l-1.02984,0.89097" fill="none" stroke="#cec344" stroke-width="0.75"/><path d="M218.93394,183.55725l0.89097,1.02984l-1.7164,1.48495l0.59398,0.68656l-1.37312,1.18795l0.74507,-0.6446" fill="none" stroke="#cec344" stroke-width="0.75"/><path d="M210.5358,188.61909l0.46048,0.53225l-0.79198,-0.91542l0.8582,-0.74247l-1.18796,-1.3731l0.68656,-0.59398l-1.48495,-1.7164l1.02984,-0.89096" fill="none" stroke="#cec344" stroke-width="0.75"/><path d="M209.39172,193.54064l-0.89097,-1.02984l1.7164,-1.48495l-0.59398,-0.68656l1.37312,-1.18796l-0.74508,0.6446" fill="none" stroke="#cec344" stroke-width="0.75"/><path d="M219.15066,193.37341l-1.02984,0.89096l-1.48495,-1.7164l-0.68656,0.59397l-1.18796,-1.37312l-0.85819,0.74247l-0.79197,-0.91541l0.46048,0.53225" fill="none" stroke="#cec344" stroke-width="0.75"/><path d="M212.36613,192.24051l0.74507,-0.6446l-1.37311,1.18796l-0.59398,-0.68656l-1.7164,1.48495l-0.89096,-1.02984" fill="none" stroke="#cec344" stroke-width="0.75"/></g><g stroke-linecap="round"><path d="M211.18254,153.65841l1.66438,-1.43995l-0.45991,-1.05718l1.24127,-0.98295l-0.14374,-2.05825l-0.46984,-1.59425l-0.71879,-2.19734l2.00506,1.26642l2.01617,0.43833l1.8882,0.18528l2.59942,-0.88477l1.3862,-0.28985l-0.24722,1.39614l-0.98122,0.75796l-0.52831,1.91215l0.01576,1.80521l0.43478,2.07929l0.79184,1.86132l-0.99113,0.22091l-1.64098,-1.58139l-0.57213,0.49499l-0.86197,-0.89121l-2.09625,-0.00527l-1.75028,0.60484l-1.66029,0.70886z" fill="#eee796" stroke="#eee796" stroke-width="0.25"/><path d="M211.99676,154.57503l-0.89097,-1.02984l1.7164,-1.48495l-0.59397,-0.68656l1.37311,-1.18796l-0.74246,-0.8582l0.91541,-0.79197l-0.53225,0.46047" fill="none" stroke="#cec344" stroke-width="0.75"/><path d="M213.12966,147.7905l0.6446,0.74507l-1.18796,-1.37312l0.68656,-0.59398l-1.48494,-1.7164l1.02985,-0.89097" fill="none" stroke="#cec344" stroke-width="0.75"/><path d="M216.75108,145.96017l-0.53225,0.46048l0.91542,-0.79198l0.74246,0.8582l1.37312,-1.18796l0.59398,0.68656l1.71639,-1.48495l0.89097,1.02984" fill="none" stroke="#cec344" stroke-width="0.75"/><path d="M211.82954,144.8161l1.02984,-0.89097l1.48495,1.7164l0.68656,-0.59398l1.18796,1.37312l-0.6446,-0.74507" fill="none" stroke="#cec344" stroke-width="0.75"/><path d="M216.89138,153.21423l0.53225,-0.46048l-0.91541,0.79198l-0.74247,-0.85819l-1.37312,1.18796l-0.59398,-0.68656l-1.7164,1.48494l-0.89097,-1.02985" fill="none" stroke="#cec344" stroke-width="0.75"/><path d="M221.81293,154.35831l-1.02984,0.89097l-1.48495,-1.7164l-0.68656,0.59397l-1.18795,-1.37311l0.6446,0.74507" fill="none" stroke="#cec344" stroke-width="0.75"/><path d="M221.6457,144.59937l0.89097,1.02984l-1.7164,1.48495l0.59398,0.68656l-1.37312,1.18796l0.74246,0.85819l-0.9154,0.79198l0.53225,-0.46048" fill="none" stroke="#cec344" stroke-width="0.75"/><path d="M220.51279,151.38389l-0.6446,-0.74507l1.18795,1.37312l-0.68655,0.59397l1.48495,1.71639l-1.02984,0.89097" fill="none" stroke="#cec344" stroke-width="0.75"/></g><g stroke-linecap="round"><path d="M247.38584,195.50456l1.66438,-1.43994l-0.45991,-1.05718l1.24127,-0.98295l-0.14374,-2.05825l-0.46984,-1.59425l-0.71879,-2.19734l2.00506,1.26641l2.01617,0.43833l1.8882,0.18526l2.59943,-0.88476l1.38619,-0.28985l-0.24722,1.39613l-0.98122,0.75795l-0.52831,1.91216l0.01577,1.80521l0.43478,2.0793l0.79185,1.86132l-0.99115,0.22091l-1.64098,-1.5814l-0.57213,0.49498l-0.86198,-0.89121l-2.09624,-0.00528l-1.75028,0.60484l-1.66029,0.70886z" fill="#eee796" stroke="#eee796" stroke-width="0.25"/><path d="M248.20007,196.42118l-0.89097,-1.02984l1.71639,-1.48495l-0.59398,-0.68656l1.37312,-1.18796l-0.74246,-0.85819l0.91541,-0.79198l-0.53225,0.46048" fill="none" stroke="#cec344" stroke-width="0.75"/><path d="M249.33297,189.63664l0.6446,0.74507l-1.18796,-1.37312l0.68656,-0.59397l-1.48494,-1.7164l1.02984,-0.89097" fill="none" stroke="#cec344" stroke-width="0.75"/><path d="M252.95439,187.80631l-0.53225,0.46048l0.91542,-0.79197l0.74246,0.85819l1.37312,-1.18796l0.59398,0.68656l1.7164,-1.48494l0.89097,1.02984" fill="none" stroke="#cec344" stroke-width="0.75"/><path d="M248.03284,186.66222l1.02984,-0.89096l1.48496,1.71639l0.68656,-0.59397l1.18796,1.37312l-0.6446,-0.74507" fill="none" stroke="#cec344" stroke-width="0.75"/><path d="M253.09468,195.06036l0.53226,-0.46048l-0.91542,0.79196l-0.74246,-0.85819l-1.37312,1.18796l-0.59398,-0.68656l-1.7164,1.48495l-0.89097,-1.02984" fill="none" stroke="#cec344" stroke-width="0.75"/><path d="M258.01623,196.20444l-1.02984,0.89097l-1.48495,-1.7164l-0.68656,0.59398l-1.18796,-1.37312l0.6446,0.74507" fill="none" stroke="#cec344" stroke-width="0.75"/><path d="M257.849,186.4455l0.89097,1.02984l-1.7164,1.48495l0.59398,0.68656l-1.37312,1.18796l0.74246,0.8582l-0.9154,0.79197l0.53225,-0.46049" fill="none" stroke="#cec344" stroke-width="0.75"/><path d="M256.7161,193.23003l-0.6446,-0.74507l1.18795,1.37311l-0.68656,0.59398l1.48495,1.7164l-1.02984,0.89097" fill="none" stroke="#cec344" stroke-width="0.75"/></g></g><g stroke-linecap="round"><g><g stroke="#00a8c1"><path d="M246.85933,171.56049l0.68889,-9.52853l1.76274,0.12744l0.21528,-2.97767l2.14047,0.15475l0.18658,-2.58064l4.91048,0.35503l-0.18658,2.58064l1.76274,0.12745l-0.21528,2.97767l1.76274,0.12745l-0.6889,9.52852" fill="#1ad8f5" stroke-width="0"/><path d="M247.22978,166.43643l-0.37045,5.12407l0.68889,-9.52853l1.76274,0.12744l0.21528,-2.97767l2.14047,0.15475l0.18658,-2.58064l4.91048,0.35503l-0.18658,2.58064l1.76274,0.12745l-0.21528,2.97767l1.76274,0.12745l-0.6889,9.52852l0.29835,-4.12667" fill="none" stroke-width="1.5"/></g><g><path d="M259.22561,172.07734l-0.6889,9.52852l-1.76274,-0.12744l-0.21528,2.97767l-1.76274,-0.12745l-0.18658,2.58064l-4.91048,-0.35502l0.18658,-2.58064l-2.14046,-0.15475l0.21528,-2.97767l-1.76274,-0.12745l0.6889,-9.52852" fill="#00fdb0" stroke="#00a8c1" stroke-width="0"/><path d="M258.92725,176.20401l0.29836,-4.12667l-0.6889,9.52852l-1.76274,-0.12744l-0.21528,2.97767l-1.76274,-0.12745l-0.18658,2.58064l-4.91048,-0.35502l0.18658,-2.58064l-2.14046,-0.15475l0.21528,-2.97767l-1.76274,-0.12745l0.6889,-9.52852l-0.37046,5.12407" fill="none" stroke="#00a674" stroke-width="1.5"/></g></g><g><g stroke="#00a8c1"><path d="M218.93222,169.54142l0.68889,-9.52853l2.29705,0.16607l0.21528,-2.97767l2.78928,0.20166l0.18658,-2.58064l6.39895,0.46264l-0.18658,2.58064l2.29705,0.16607l-0.21528,2.97767l2.29705,0.16607l-0.68889,9.52853" fill="#1ad8f5" stroke-width="0"/><path d="M219.30268,164.41735l-0.37046,5.12407l0.68889,-9.52853l2.29705,0.16607l0.21528,-2.97767l2.78928,0.20166l0.18658,-2.58064l6.39895,0.46264l-0.18658,2.58064l2.29705,0.16607l-0.21528,2.97767l2.29705,0.16607l-0.68889,9.52853l0.29835,-4.12667" fill="none" stroke-width="1.5"/></g><g><path d="M235.03874,170.32869l-0.68889,9.52853l-2.29705,-0.16607l-0.21528,2.97767l-2.29705,-0.16607l-0.18658,2.58064l-6.39895,-0.46263l0.18658,-2.58064l-2.78928,-0.20166l0.21528,-2.97767l-2.29705,-0.16607l0.68889,-9.52853" fill="#00fdb0" stroke="#00a8c1" stroke-width="0"/><path d="M234.74039,174.45536l0.29835,-4.12667l-0.68889,9.52853l-2.29705,-0.16607l-0.21528,2.97767l-2.29705,-0.16607l-0.18658,2.58064l-6.39895,-0.46263l0.18658,-2.58064l-2.78928,-0.20166l0.21528,-2.97767l-2.29705,-0.16607l0.68889,-9.52853l-0.37046,5.12407" fill="none" stroke="#00a674" stroke-width="1.5"/></g></g></g></g></g></svg>