<svg version="1.1" xmlns="http://www.w3.org/2000/svg" xmlns:xlink="http://www.w3.org/1999/xlink" width="81.32795" height="129.14709" viewBox="0,0,81.32795,129.14709"><g transform="translate(-195.11667,-108.79493)"><g stroke-miterlimit="10"><g fill-rule="evenodd"><path d="M242.78116,201.5884c2.34226,-0.72372 5.15408,-1.79318 7.33631,-4.20935c5.01427,-5.39602 5.94417,-13.62009 9.925,-11.88715c4.08038,1.72351 5.21409,14.77475 -6.55517,19.90553c-4.04955,1.78919 -7.83267,2.14692 -10.92831,2.33921c-0.79645,0.07531 -7.7317,0.02801 -10.44113,-3.13095c-2.70944,-3.15895 -1.10169,-4.21501 -0.3429,-4.68855c0.84893,-0.5825 7.67781,2.5887 11.00621,1.67128z" fill="#ffab19" stroke="#001026" stroke-width="1.2" stroke-linecap="round" stroke-linejoin="round"/><path d="M259.46395,185.74749c2.0476,0.40906 3.43856,4.49625 2.77249,8.07486c-0.66607,3.5786 -2.0895,5.52123 -3.26134,6.93784c0.13322,-0.71571 0.32432,-2.9436 -1.49051,-4.0778c-2.25071,-1.49474 -5.84955,-0.25043 -5.84955,-0.25043c0,0 2.7285,-4.07496 4.0672,-6.91359c1.37637,-2.44041 1.73294,-3.98083 3.7617,-3.77089z" fill="#ffffff" stroke="none" stroke-width="1" stroke-linecap="butt" stroke-linejoin="miter"/></g><path d="M245.39204,193.25888c3.61002,3.30477 5.82898,1.05157 8.84891,6.44075c0.79617,1.4208 -1.74748,4.18812 -2.72536,4.39045c-3.66423,0.75813 -7.42768,-0.32933 -10.50142,-2.50454c-4.17873,-2.95718 -6.49865,-7.4385 -7.66761,-12.38234c-0.06199,-0.26216 -0.10441,-0.62509 -0.11656,-1.03976c-0.01495,-0.15112 -0.0226,-0.30439 -0.0226,-0.45945c0,-0.31306 0.0312,-0.61882 0.09065,-0.91437c0.18479,-1.43425 0.754,-2.88631 2.01317,-2.95627c0.72179,-0.46856 1.58288,-0.74071 2.50753,-0.74071c2.54677,0 4.61134,2.06457 4.61134,4.61134c0,0.37632 -0.04508,0.74211 -0.13013,1.09227c0.78342,1.53079 1.27229,2.79669 3.09209,4.46262z" fill="#ffab19" fill-rule="nonzero" stroke="#000000" stroke-width="1.2" stroke-linecap="butt" stroke-linejoin="miter"/><path d="M216.19554,175.70208c2.75709,-0.15444 5.11737,1.95545 5.2718,4.71256c0.03509,0.62625 -0.04666,1.23202 -0.22628,1.79613c0.40064,1.86555 -3.41651,3.5219 -4.4786,4.59462c-3.9937,4.03362 -7.41327,5.36823 -13.87228,5.26642c-2.63948,-0.0416 -5.07763,-1.24599 -5.2718,-4.71255c-0.36857,-6.58016 7.14076,-4.90273 10.61103,-6.39138c1.85973,-0.79778 6.34471,-6.51969 7.96613,-5.26579z" fill="#ffab19" fill-rule="nonzero" stroke="#000000" stroke-width="1.2" stroke-linecap="butt" stroke-linejoin="miter"/><g fill-rule="nonzero" stroke-linecap="round" stroke-linejoin="miter"><g><g><path d="M217.12439,227.29246l1.04164,-22.49542c0,0 -0.47122,-4.45315 -0.72031,-11.5098c-0.12104,-3.42855 -1.73697,-9.83464 -0.25273,-12.11038c2.2889,-3.50951 9.50343,-3.09312 9.50343,-3.09312c0,0 8.21449,0.99244 11.02672,6.27953c2.23761,4.20678 1.4615,7.88379 2.07146,12.29762c0.58197,4.21124 2.60033,9.26093 2.60033,9.26093c0,0 0.77946,0.74258 1.06215,1.0119c0.18786,0.17897 0.46904,0.44685 0.46904,0.44685l14.33205,-1.03561l3.07577,4.51049l-4.57252,16.04249l-12.49683,0.52201l-2.70465,-3.96319c0,0 -12.39442,-19.87453 -12.11074,-14.66741c0.12659,2.32346 2.06278,18.51388 2.06278,18.51388l1.98367,8.42848l-17.42755,1.60484l-3.83384,-0.76474c0,0 -4.37428,-4.0619 -2.86969,-6.91698c1.50459,-2.85507 7.75979,-2.36239 7.75979,-2.36239z" fill="#ffab19" stroke="#001026" stroke-width="1.2"/><path d="M231.68342,208.2369c0,0 -3.27156,-0.13731 -5.00048,-1.51935" fill="none" stroke="#001026" stroke-width="1.2"/><path d="M229.04375,200.94077c-4.23657,-0.65398 -5.19927,-4.90464 -5.94549,-8.97955c-0.83703,-4.57068 -1.41572,-9.42706 3.31802,-8.82045c5.19308,0.66547 6.69068,5.43964 7.52961,10.44496c0,0 1.20313,8.29748 -4.90214,7.35504z" fill="#ffffff" stroke="#000000" stroke-width="0"/></g></g><path d="M241.85547,211.01363l1.73665,-3.90978" fill="none" stroke="#001026" stroke-width="1.2"/></g><g><g><path d="M239.3416,129.87175c0,0 33.61051,3.94357 35.01193,4.3219c1.04025,0.28082 -15.68519,18.16876 -15.68519,18.16876" fill="#ffab19" fill-rule="nonzero" stroke="#001026" stroke-width="1.2" stroke-linecap="round" stroke-linejoin="miter"/><path d="M220.01045,165.43516l-22.90469,-6.28189l-1.34179,-6.02657l9.55,-12.20304z" fill="#9b7f41" fill-rule="nonzero" stroke="#001026" stroke-width="1.2" stroke-linecap="round" stroke-linejoin="miter"/><path d="M275.84463,174.47879c-5.75666,1.84146 -12.50479,-0.67103 -12.50479,-0.67103" fill="none" fill-rule="evenodd" stroke="#001026" stroke-width="1.2" stroke-linecap="round" stroke-linejoin="round"/><path d="M270.57944,184.44915c-6.05392,-1.8139 -9.00193,-4.99653 -9.00193,-4.99653" fill="none" fill-rule="evenodd" stroke="#001026" stroke-width="1.2" stroke-linecap="round" stroke-linejoin="round"/><path d="M245.0209,138.37633c14.63943,7.98125 15.03625,17.63722 15.03625,17.63722c0.99261,6.28528 -0.54273,10.51642 -0.54273,10.51642c0,0 5.85872,4.52718 4.91453,10.27509c-0.94419,5.74791 -8.95452,14.22345 -27.8192,10.86885c-18.86469,-3.3546 -31.09543,-13.57365 -33.58844,-26.77043c-0.06827,-0.36136 -0.13787,-0.72441 -0.12296,-1.08854c1.14399,-27.92992 32.10261,-26.90138 42.12257,-21.43861z" fill="#ffab19" fill-rule="evenodd" stroke="#001026" stroke-width="1.2" stroke-linecap="butt" stroke-linejoin="miter"/><path d="M241.93507,165.39075c6.89291,2.1396 9.91869,-3.44385 17.15489,1.40357c0,0 5.78086,4.17512 4.83666,9.92304c-0.94419,5.74791 -9.14646,13.61259 -27.78851,10.23714c-24.36913,-4.09701 -29.87819,-21.68281 -19.79616,-29.13954c10.11823,-7.54993 17.54536,5.09513 25.59311,7.57579z" fill="#ffffff" fill-rule="evenodd" stroke="none" stroke-width="1" stroke-linecap="butt" stroke-linejoin="miter"/><path d="M237.7445,162.36935c0.34106,-1.15485 2.89423,-0.27093 4.75866,0.45288c1.95765,0.76 3.93614,1.74263 3.77603,2.43136c-0.41345,1.3413 -2.8251,3.40864 -4.35283,2.92281c-1.75036,-0.46498 -4.76091,-4.31553 -4.18186,-5.80706z" fill="#001026" fill-rule="evenodd" stroke="#001026" stroke-width="1.2" stroke-linecap="round" stroke-linejoin="round"/><path d="M216.60949,161.68385c0,0 -5.98771,-3.99965 -7.86522,-9.74465" fill="none" fill-rule="evenodd" stroke="#001026" stroke-width="1.2" stroke-linecap="round" stroke-linejoin="round"/><path d="M213.06512,166.41747c0,0 -4.30612,-0.52657 -9.32104,-4.37244" fill="none" fill-rule="evenodd" stroke="#001026" stroke-width="1.2" stroke-linecap="round" stroke-linejoin="round"/><path d="M203.58964,151.60197l-2.82894,-16.99873l17.13591,-14.67382l46.91296,11.09295l-4.68225,22.31494l-42.24832,-10.89035z" fill="#c58600" fill-rule="nonzero" stroke="#001026" stroke-width="1.2" stroke-linecap="round" stroke-linejoin="miter"/><path d="M218.04914,120.16759l-0.12741,22.08401" fill="none" fill-rule="nonzero" stroke="#001026" stroke-width="0.75" stroke-linecap="round" stroke-linejoin="miter"/><path d="M206.98672,141.69947c0,0 -2.67979,-32.19544 -1.44891,-32.30699c1.09837,-0.09954 11.88246,10.8421 11.88246,10.8421l-7.13902,6.42141z" fill="#ffab19" fill-rule="nonzero" stroke="#001026" stroke-width="1.2" stroke-linecap="round" stroke-linejoin="miter"/></g><g stroke="#001026"><g fill-rule="evenodd"><path d="M249.77967,147.94733c3.29782,-0.75787 6.88303,2.99395 7.95789,8.23844c1.07486,5.2445 -0.67763,10.03499 -3.93926,10.69965c-3.26163,0.66466 -6.78982,-2.95776 -7.95789,-8.23845c-1.07486,-5.24449 0.67764,-10.03497 3.93927,-10.69962z" fill="#ffffff" stroke-width="1.2" stroke-linecap="round" stroke-linejoin="round"/><path d="M249.15698,158.59768c-0.39808,1.02543 -1.46957,1.5749 -2.40179,1.21299c-0.93221,-0.3619 -1.35227,-1.49041 -0.95418,-2.51585c0.39808,-1.02543 1.46958,-1.5749 2.4018,-1.213c0.93222,0.3619 1.35226,1.49042 0.95418,2.51586" fill="#001026" stroke-width="0.5" stroke-linecap="butt" stroke-linejoin="miter"/></g><g fill-rule="evenodd"><path d="M221.7737,154.88018c-0.68266,-2.7484 -0.48671,-5.54175 0.38917,-7.70722c4.18497,2.86479 8.35079,5.76364 12.58284,8.55823c-0.22601,2.07574 -0.96912,3.89279 -2.03762,5.11991c-3.55133,-1.60412 -7.1014,-3.21227 -10.63259,-4.86973c-0.11282,-0.3545 -0.2137,-0.72172 -0.3018,-1.10119z" fill="#ffffff" stroke-width="1.2" stroke-linecap="round" stroke-linejoin="round"/><path d="M225.8104,153.77068c-0.39808,1.02543 -1.46958,1.57491 -2.40179,1.213c-0.93221,-0.3619 -1.35226,-1.49042 -0.95417,-2.51585c0.3981,-1.02543 1.46958,-1.57492 2.4018,-1.21301c0.89602,0.45513 1.35226,1.49043 0.95417,2.51586" fill="#001026" stroke-width="0.5" stroke-linecap="butt" stroke-linejoin="miter"/></g><g fill="#ffffff" fill-rule="nonzero" stroke-width="1.2" stroke-linecap="round" stroke-linejoin="miter"><path d="M225.11945,164.28385c0.56232,0.02236 0.5726,2.16199 12.07526,9.72818c5.08085,3.34207 12.11924,3.57996 11.88021,3.71496c0,0 -18.42628,12.75 -25.31306,8.03006c-6.88678,-4.71994 0.31988,-21.51444 1.35759,-21.4732z"/></g></g></g><g fill-rule="nonzero" stroke="#000000" stroke-width="1.2" stroke-linejoin="miter"><path d="M217.1973,186.46977c-1.44974,-4.50641 1.02819,-9.33483 5.53459,-10.78457c4.50641,-1.44974 9.33483,1.0282 10.78457,5.5346c1.44974,4.50641 -1.02819,9.33483 -5.5346,10.78456c-4.50641,1.44974 -9.33483,-1.02819 -10.78457,-5.5346z" fill="#5c5e5f" stroke-linecap="butt"/><g stroke-linecap="round"><path d="M219.26185,191.20804l-2.48203,4.03994l-2.38399,-0.13346l-4.24298,1.36499l-1.64456,-3.43272z" fill="#ffab19"/><path d="M222.29166,186.6317l-2.60979,5.88186l-4.1791,0.44403l-1.41622,0.63569l-3.85272,0.33903l-0.87415,0.64138l-3.52064,-0.30805l-2.59525,-5.82809l1.15246,-6.4935l13.20145,-2.62626z" fill="#ffab19"/><path d="M216.95883,188.52737l-1.65468,2.6933" fill="none"/><path d="M210.3034,192.46927l1.71857,-3.61425" fill="none"/></g><path d="M206.63095,191.12959l-3.9634,0.55472l-2.13414,-3.27522l1.33969,-3.67245l3.14746,-0.29221l2.78691,3.06521z" fill="#5c5e5f" stroke-linecap="round"/></g><g fill-rule="nonzero" stroke-linejoin="miter"><path d="M257.82692,207.0558c0,0 -10.72412,3.46191 -12.81489,-6.49332c-2.22366,-10.588 10.36277,-12.29302 10.36277,-12.29302c0,0 5.74661,-4.77154 9.06751,-0.27631c1.14064,1.544 -0.25153,4.27781 -0.25153,4.27781c0,0 2.72203,1.43261 3.0801,3.10008c0.70813,3.29758 -4.97506,5.34918 -4.97506,5.34918l0.06188,1.86786c0,0 7.00492,1.45834 3.92134,5.47981c-3.66236,4.77631 -8.4521,-1.01208 -8.4521,-1.01208z" fill="#ffab19" stroke="#000000" stroke-width="1.2" stroke-linecap="round"/><path d="M261.45902,192.73794c-1.60429,0.79822 -3.34434,0.56191 -3.88653,-0.52779c-0.54218,-1.08971 0.31883,-2.62016 1.92312,-3.41838c1.60429,-0.79822 3.34434,-0.56191 3.88653,0.52779c0.54218,1.08971 -0.31883,2.62016 -1.92312,3.41838z" fill="#ffffff" stroke="none" stroke-width="0" stroke-linecap="butt"/><path d="M263.60211,199.01993c-1.70817,0.54134 -3.39099,0.03962 -3.7587,-1.12064c-0.36771,-1.16026 0.71895,-2.53969 2.42711,-3.08104c1.70817,-0.54134 3.39099,-0.03962 3.7587,1.12064c0.36771,1.16026 -0.71895,2.53969 -2.42711,3.08104z" fill="#ffffff" stroke="none" stroke-width="0" stroke-linecap="butt"/><path d="M265.21248,207.61945c-0.44556,1.05966 -1.96895,1.43002 -3.4026,0.82721c-1.43365,-0.6028 -2.23467,-1.95049 -1.78912,-3.01015c0.44556,-1.05966 1.96895,-1.43002 3.4026,-0.82721c1.43365,0.6028 2.23467,1.95049 1.78912,3.01015z" fill="#ffffff" stroke="none" stroke-width="0" stroke-linecap="butt"/><path d="M254.72703,206.30664c-2.90357,1.0308 -4.36236,-1.29205 -5.26691,-4.6155c-0.90455,-3.32345 -0.91235,-6.38899 1.99121,-7.41979c1.7887,-0.63502 2.04299,1.76129 3.41784,2.9863c0.85691,0.76351 3.13007,-0.11117 3.47738,1.16491c0.39974,1.46871 -2.11799,2.35928 -2.59731,3.6751c-0.60532,1.66168 0.59821,3.63372 -1.02221,4.20898z" fill="#ffffff" stroke="none" stroke-width="0" stroke-linecap="butt"/><path d="M252.28877,191.91268c0,0 4.56144,2.17279 2.12486,5.8202c-2.79493,4.18387 -7.0756,0.57685 -7.0756,0.57685" fill="#ffab19" stroke="#000000" stroke-width="1.2" stroke-linecap="round"/></g></g></g></svg>