<svg version="1.1" xmlns="http://www.w3.org/2000/svg" xmlns:xlink="http://www.w3.org/1999/xlink" width="221.06502" height="182.59106" viewBox="0,0,221.06502,182.59106"><g transform="translate(-191.5196,-106.41445)"><g stroke-miterlimit="10"><g fill-rule="nonzero" stroke="#000000" stroke-width="1.2" stroke-linejoin="miter"><path d="M239.4187,186.57699c2.68779,-0.63341 5.38017,1.032 6.01358,3.7198c0.14388,0.61051 0.16914,1.22125 0.09077,1.80805c0.72019,1.76695 -2.74916,4.06428 -3.60766,5.30595c-3.22815,4.66891 -6.3622,6.58003 -12.73979,7.60743c-2.6062,0.41985 -5.21718,-0.34038 -6.01358,-3.7198c-1.51171,-6.41476 6.17515,-6.0741 9.33222,-8.14575c1.69189,-1.11021 5.10903,-7.52725 6.92446,-6.57568z" fill="#ffab19" stroke-linecap="butt"/><g><path d="M220.40194,202.12334c0.3242,4.72275 -3.24154,8.81413 -7.96429,9.13832c-4.72275,0.3242 -8.81412,-3.24154 -9.13832,-7.96429c-0.3242,-4.72275 3.24153,-8.81413 7.96429,-9.13832c4.72275,-0.3242 8.81411,3.24153 9.13832,7.96429z" fill="#5c5e5f" stroke-linecap="butt"/><g stroke-linecap="round"><path d="M219.53666,197.02778l3.38022,-3.32502l2.28205,0.7025l4.44667,-0.30525l0.77137,3.72735z" fill="#ffab19"/><path d="M215.49581,200.7418l3.94691,-5.08224l4.16333,0.57336l1.52749,-0.27669l3.82128,0.59685l1.00268,-0.41249l3.34341,1.14515l1.11849,6.28099l-2.67929,6.02621l-13.4457,-0.62348z" fill="#ffab19"/><path d="M223.38141,197.96667l-2.25348,2.21669" fill="none"/><path d="M225.99885,201.05179l2.53682,-3.09528" fill="none"/></g><path d="M231.77851,200.13955l3.98056,0.41409l1.28445,3.69213l-2.18304,3.24283l-3.12543,-0.47279l-1.96855,-3.64516z" fill="#5c5e5f" stroke-linecap="round"/></g></g><g fill-rule="evenodd"><path d="M258.89828,199.09214c2.36453,-0.64727 5.2096,-1.62484 7.46915,-3.96886c5.18689,-5.23032 6.3834,-13.41984 10.30584,-11.55854c4.02224,1.85513 4.73147,14.9363 -7.19821,19.68212c-4.10552,1.65672 -7.89826,1.89139 -10.99852,1.98304c-0.79847,0.04941 -7.72853,-0.22312 -10.33394,-3.46841c-2.60541,-3.24529 -0.96422,-4.24856 -0.19045,-4.69721c0.8674,-0.55462 7.58969,2.83669 10.94613,2.02785z" fill="#ffab19" stroke="#001026" stroke-width="1.2" stroke-linecap="round" stroke-linejoin="round"/><path d="M276.08675,183.80145c2.03323,0.47535 3.29072,4.60556 2.50878,8.16065c-0.78195,3.55507 -2.26772,5.45045 -3.48494,6.82825c0.15639,-0.71102 0.41976,-2.93152 -1.35728,-4.12406c-2.20099,-1.56706 -5.83834,-0.44028 -5.83834,-0.44028c0,0 2.85941,-3.98419 4.2896,-6.77785c1.4549,-2.39443 1.8613,-3.92245 3.88219,-3.64673z" fill="#ffffff" stroke="none" stroke-width="1" stroke-linecap="butt" stroke-linejoin="miter"/></g><g fill-rule="nonzero" stroke-linecap="butt" stroke-linejoin="miter"><path d="M233.25263,225.55524c-0.9075,2.94229 -17.18965,3.9597 -17.18965,3.9597c0,0 -2.78419,-6.23217 1.31732,-8.22108c1.91134,-0.92685 7.73797,-5.05776 8.42579,-6.50056c2.41027,-5.05582 2.15055,-10.03129 6.57696,-14.15691c0.81542,-0.76001 2.55473,-2.52457 4.23222,-3.37358c1.92091,-1.98664 6.27584,-0.25263 7.36794,2.28587c3.13002,7.27546 -5.49517,9.03251 -10.73058,26.00657z" fill="#ffab19" stroke="#001026" stroke-width="1.2"/><g><path d="M234.62936,199.65406c-0.98452,-3.84225 2.77791,-9.56287 2.77791,-9.56287c0,0 -0.4745,-3.41392 1.00036,-5.80015c3.04869,-4.9326 17.89117,-5.54725 19.1693,2.37602c0.47957,2.97293 -1.33445,6.14497 -1.33445,6.14497c0,0 1.13547,5.65704 0.03386,8.58435c-0.93693,2.48972 -7.61778,7.06294 -12.86057,6.08784c-0.54458,-0.10128 -1.05488,-0.22452 -1.53311,-0.36637" fill="#ffab19" stroke="#001026" stroke-width="1.2"/><path d="M241.24737,185.52806c3.27965,-2.39383 7.97863,0.79082 8.41662,4.71237c0.05286,0.47326 0.10129,1.02858 0.092,1.58425c0.86298,2.02219 -1.04468,6.66087 -2.66348,7.13698c-5.60369,1.64811 -12.38711,-4.33273 -7.58086,-9.0245c-0.02761,-1.72796 0.61794,-3.59323 1.73571,-4.4091z" fill="#ffffff" stroke="none" stroke-width="0.5"/></g><path d="M250.1106,205.10001c1.00243,2.38538 0.5125,6.49576 0.5125,6.49576c0,0 -1.20158,8.03961 -1.88476,9.28737c-3.10954,5.67923 -13.86293,9.15703 -14.77601,0.13742c-0.21479,-2.12172 1.18492,-3.60855 2.00391,-5.31538c0.37343,-0.77826 1.46816,-8.37963 0.81239,-10.88538c-1.14032,-4.35724 -3.96519,-9.43779 -2.95938,-13.91752c1.79037,-7.97403 17.87539,2.07573 18.35251,2.89481" fill="#ffab19" stroke="#001026" stroke-width="1.2"/></g><g fill-rule="nonzero" stroke="#000000" stroke-width="1.2" stroke-linejoin="miter"><path d="M252.66951,183.16742c0,0 -0.03751,-1.88325 1.76757,-2.23906c7.11939,-1.40333 7.75432,3.46979 10.43969,4.91224c3.1042,1.66744 6.94824,2.92792 7.20883,4.49856c0.37351,2.2512 -1.63583,3.43757 -3.69926,5.39061c-2.7793,2.63063 -6.26621,5.63181 -9.92548,4.8481c-2.85805,-0.61211 -0.20591,-7.60247 -0.16508,-7.64374c-2.13288,-1.55172 -3.81836,-3.74318 -4.38385,-5.71632" fill="#ffab19" stroke-linecap="butt"/><g stroke-linecap="round"><path d="M263.24313,201.63728l-4.10048,3.18926l-2.73365,0.30374l-1.06309,-1.82243l-1.36683,-0.15187l-1.21495,-3.94861" fill="#ffab19"/><path d="M256.45915,187.01913l12.5402,4.8907l0.00109,6.59498l-3.57289,5.28549l-3.52035,-0.31134l-0.74875,-0.78414l-3.73436,-1.00645l-1.28349,-0.87318l-4.0374,-1.16682l-2.45405,-6.0953z" fill="#ffab19"/><path d="M255.32846,195.89506l1.15906,2.94082l-2.35657,-2.51402z" fill="none"/><path d="M260.28418,197.38333l1.06118,3.85878" fill="none"/></g></g><g><g><g><path d="M215.63749,146.52026c0,0 -5.71933,-26.99079 -4.64545,-27.07886c1.44673,-0.11864 27.72092,8.4543 27.72092,8.4543" fill="#ffab19" fill-rule="nonzero" stroke="#001026" stroke-width="1.2" stroke-linecap="round" stroke-linejoin="miter"/><path d="M270.18078,144.91926l0.2919,-1.18995l5.05757,-0.70624l3.58475,4.89942l-1.94437,8.37155l-25.87688,10.07469z" fill="#9b7f41" fill-rule="nonzero" stroke="#001026" stroke-width="1.2" stroke-linecap="round" stroke-linejoin="miter"/><path d="M207.1646,166.76719c0,0 -7.09125,1.25067 -12.41995,-1.60152" fill="none" fill-rule="evenodd" stroke="#001026" stroke-width="1.2" stroke-linecap="round" stroke-linejoin="round"/><path d="M207.87704,172.63766c0,0 -3.47498,2.59701 -9.75712,3.28615" fill="none" fill-rule="evenodd" stroke="#001026" stroke-width="1.2" stroke-linecap="round" stroke-linejoin="round"/><path d="M231.58925,135.23297c10.84268,-3.56058 41.47683,1.02669 37.55084,28.70295c-0.05118,0.36082 -0.18531,0.70529 -0.3178,1.04835c-4.83854,12.52831 -18.71571,20.36694 -37.87601,20.25456c-19.1603,-0.11238 -25.50575,-9.89683 -25.39486,-15.72072c0.11088,-5.82389 6.69173,-9.21687 6.69173,-9.21687c0,0 -0.74483,-4.43906 1.3681,-10.44118c0,0 2.13655,-9.425 17.97799,-14.6271z" fill="#ffab19" fill-rule="evenodd" stroke="#001026" stroke-width="1.2" stroke-linecap="butt" stroke-linejoin="miter"/><path d="M229.73864,162.35999c8.36367,-0.98433 17.9552,-12.07769 26.54118,-2.82237c8.56725,9.1571 -0.03135,25.45661 -24.7396,25.07893c-18.94511,-0.05161 -25.5898,-9.26999 -25.47892,-15.09387c0.11088,-5.82389 6.55148,-8.8847 6.55148,-8.8847c7.99354,-3.45881 9.95966,2.57977 17.12585,1.72203z" fill="#ffffff" fill-rule="evenodd" stroke="none" stroke-width="1" stroke-linecap="butt" stroke-linejoin="miter"/><path d="M234.40655,160.14626c0.29976,1.57167 -3.35751,4.81427 -5.16311,4.95503c-1.59041,0.20153 -3.58841,-2.26788 -3.75247,-3.66182c-0.03291,-0.70634 2.09067,-1.31496 4.15348,-1.70838c1.96459,-0.37469 4.63551,-0.7823 4.7621,0.41519z" fill="#001026" fill-rule="evenodd" stroke="#001026" stroke-width="1.2" stroke-linecap="round" stroke-linejoin="round"/><path d="M264.81487,155.13279c-2.88553,5.31071 -9.49785,8.16154 -9.49785,8.16154" fill="none" fill-rule="evenodd" stroke="#001026" stroke-width="1.2" stroke-linecap="round" stroke-linejoin="round"/><path d="M267.90501,165.97627c-5.62775,2.8755 -9.9581,2.61463 -9.9581,2.61463" fill="none" fill-rule="evenodd" stroke="#001026" stroke-width="1.2" stroke-linecap="round" stroke-linejoin="round"/><path d="M257.54745,144.14506l-43.52119,3.07019l-0.56941,-22.79377l48.14556,-2.42586l14.19959,17.53087l-5.8565,16.20683z" fill="#c58600" fill-rule="nonzero" stroke="#001026" stroke-width="1.2" stroke-linecap="round" stroke-linejoin="miter"/><path d="M261.4093,122.20228l-3.86858,21.74291" fill="none" fill-rule="nonzero" stroke="#001026" stroke-width="0.75" stroke-linecap="round" stroke-linejoin="miter"/><path d="M267.87571,129.98853l-5.86,-7.60661c0,0 13.67372,9.21288 14.73597,9.50942c1.19041,0.33231 -8.35637,13.48842 -8.35637,13.48842z" fill="#ffab19" fill-rule="nonzero" stroke="#001026" stroke-width="1.2" stroke-linecap="round" stroke-linejoin="miter"/></g><path d="M193.20293,157.3996c-5.30483,-21.14014 9.38711,-43.04348 32.81536,-48.92248c23.42825,-5.879 46.72101,6.4926 52.02584,27.63275c5.30483,21.14014 -9.38711,43.04348 -32.81536,48.92248c-23.42825,5.879 -46.72101,-6.4926 -52.02584,-27.63274z" fill="none" fill-rule="nonzero" stroke="#ffffff" stroke-width="1.2" stroke-linecap="butt" stroke-linejoin="miter"/><path d="M261.04544,116.5284l-0.39478,7.26855l-8.03478,2.19176l-9.09605,-3.9607l4.96166,-11.05034z" fill="#ffffff" fill-rule="nonzero" stroke="#001026" stroke-width="0" stroke-linecap="round" stroke-linejoin="miter"/><path d="M267.64698,129.64135l6.87491,2.20979l-6.87491,-1.96426" fill="#000000" fill-rule="nonzero" stroke="none" stroke-width="0" stroke-linecap="round" stroke-linejoin="miter"/></g><g><g fill-rule="evenodd"><path d="M225.17802,143.78553c3.08765,1.24356 3.94489,6.27199 1.93929,11.23561c-2.10383,4.98236 -6.22895,7.90697 -9.3166,6.66341c-3.08765,-1.24356 -3.94488,-6.27199 -1.93928,-11.23562c2.00559,-4.96363 6.21021,-8.0052 9.3166,-6.66341z" fill="#ffffff" stroke="#001026" stroke-width="1.2" stroke-linecap="round" stroke-linejoin="round"/><path d="M216.09591,155.214c-0.20608,-1.08052 0.41114,-2.11447 1.39344,-2.30181c0.9823,-0.18735 1.93674,0.54683 2.14282,1.62736c0.20608,1.08052 -0.41114,2.11447 -1.39343,2.30181c-0.9823,0.18735 -1.93674,-0.54683 -2.14282,-1.62736" fill="#001026" stroke="none" stroke-width="1" stroke-linecap="butt" stroke-linejoin="miter"/></g><g fill-rule="evenodd"><path d="M249.36053,143.54919c3.45728,1.58027 4.32869,7.21682 2.1079,12.11969c-2.12256,4.88413 -6.18236,7.08366 -9.77989,5.83555c-3.00815,-1.36052 -4.21628,-6.62744 -2.09372,-11.51157c2.12256,-4.88413 6.2897,-8.12216 9.76572,-6.44366z" fill="#ffffff" stroke="#001026" stroke-width="1.2" stroke-linecap="round" stroke-linejoin="round"/><path d="M240.04449,154.8187c-0.20608,-1.08052 0.42988,-2.01624 1.39344,-2.30182c0.9823,-0.18735 1.93673,0.54684 2.14282,1.62737c0.20608,1.08052 -0.41114,2.11447 -1.39343,2.30181c-0.9823,0.18735 -1.93674,-0.54684 -2.14282,-1.62737" fill="#001026" stroke="none" stroke-width="1" stroke-linecap="butt" stroke-linejoin="miter"/></g><g fill-rule="nonzero" stroke="#001026" stroke-linecap="round" stroke-linejoin="miter"><path d="M226.6242,174.82555c-0.21066,-0.17599 5.54846,-1.29706 11.14994,-3.66516c12.68133,-5.36118 13.07841,-7.46368 13.63549,-7.38397c1.02806,0.14711 4.66912,10.57654 -3.26143,14.10845c-7.62682,3.39664 -20.86611,-2.50969 -21.524,-3.05932z" fill="#ffffff" stroke-width="1.2"/><path d="M251.36145,174.83915l-2.44843,-7.32156l3.04134,7.10143" fill="#000000" stroke-width="0"/><path d="M248.63726,177.13237l-1.14114,-4.16387l1.52742,3.7506" fill="#000000" stroke-width="0"/><path d="M227.74789,174.83589l9.26899,1.88833l4.07195,2.06378l-7.24989,-1.35615z" fill="#000000" stroke-width="0"/></g></g></g><g fill-rule="nonzero" stroke-linecap="butt" stroke-linejoin="miter"><path d="M295.1281,276.87536c0.54281,3.03084 -13.45984,11.40158 -13.45984,11.40158c0,0 -5.33211,-4.26148 -2.59935,-7.9098c1.27349,-1.70015 4.55702,-8.04305 4.50662,-9.64062c-0.17658,-5.59817 -2.68902,-9.90055 -0.64738,-15.59665c0.3761,-1.04932 1.11256,-3.41501 2.21394,-4.93875c0.796,-2.64632 5.46121,-3.10245 7.5958,-1.34741c6.11786,5.03002 -0.74121,10.54674 2.39022,28.03166z" fill="#ffab19" stroke="#001026" stroke-width="1.2"/><g><path d="M280.78946,248.02395c-0.98452,-3.84225 2.77791,-9.56287 2.77791,-9.56287c0,0 -0.4745,-3.41392 1.00036,-5.80015c3.04869,-4.9326 17.89117,-5.54725 19.1693,2.37602c0.47957,2.97293 -1.33445,6.14497 -1.33445,6.14497c0,0 1.13547,5.65704 0.03386,8.58435c-0.93693,2.48972 -7.61778,7.06294 -12.86057,6.08784c-0.54458,-0.10128 -1.05488,-0.22452 -1.53311,-0.36637" fill="#ffab19" stroke="#001026" stroke-width="1.2"/><path d="M287.40747,233.89795c3.27965,-2.39383 7.97863,0.79082 8.41662,4.71237c0.05286,0.47326 0.10129,1.02858 0.092,1.58425c0.86298,2.02219 -1.04468,6.66087 -2.66348,7.13698c-5.60369,1.64811 -12.38711,-4.33273 -7.58086,-9.0245c-0.02761,-1.72796 0.61794,-3.59323 1.73571,-4.4091z" fill="#ffffff" stroke="none" stroke-width="0.5"/></g><path d="M296.2707,253.80085c1.00243,2.22442 0.5125,6.41347 0.5125,6.41347c0,0 -1.20158,8.23254 -1.88476,9.59c-3.10954,6.17852 -13.86293,11.38295 -14.77601,2.50996c-0.21479,-2.08723 1.18492,-3.79881 2.00391,-5.63714c0.37343,-0.83822 1.46816,-8.61537 0.81239,-11.01582c-1.14032,-4.17414 -3.96519,-8.80111 -2.95938,-13.44234c1.79037,-8.2615 17.87539,-0.79446 18.35251,-0.05199" fill="#ffab19" stroke="#001026" stroke-width="1.2"/></g><g fill-rule="nonzero" stroke-linecap="butt" stroke-linejoin="miter"><path d="M342.3294,219.34956c2.67692,1.52142 0.15454,17.63914 0.15454,17.63914c0,0 -6.68633,1.3728 -7.74269,-3.06141c-0.49227,-2.06638 -3.26759,-8.64754 -4.52783,-9.63068c-4.4161,-3.44511 -9.33028,-4.26586 -12.40278,-9.47869c-0.56601,-0.96029 -1.91337,-3.03959 -2.38013,-4.86083c-1.52499,-2.30457 1.10847,-6.18234 3.8229,-6.70054c7.77969,-1.4852 7.63286,7.31592 23.07601,16.09301z" fill="#ffab19" stroke="#001026" stroke-width="1.2"/><g><path d="M315.6373,209.90517c-2.95701,-2.64353 -3.01664,-9.49027 -3.01664,-9.49027c0,0 -2.29488,-2.57168 -2.39829,-5.375c-0.21378,-5.79477 11.77331,-14.56898 17.24635,-8.69891c2.05356,2.20254 2.31275,5.84744 2.31275,5.84744c0,0 4.0928,4.06699 4.80751,7.11196c0.60788,2.58979 -2.39558,10.10826 -7.29353,12.21722c-0.50876,0.21907 -1.00127,0.40081 -1.4775,0.54923" fill="#ffab19" stroke="#001026" stroke-width="1.2"/><path d="M313.26999,194.48642c1.39155,-3.81446 7.06795,-3.78523 9.61513,-0.77155c0.3074,0.3637 0.65681,0.79802 0.95846,1.26478c1.84272,1.19932 2.84069,6.11466 1.76106,7.41143c-3.73726,4.48893 -12.70195,3.2975 -11.32168,-3.27575c-0.98499,-1.42 -1.48724,-3.32885 -1.01298,-4.6289z" fill="#ffffff" stroke="none" stroke-width="0.5"/></g><path d="M333.63093,200.40801c2.63925,1.42337 10.42536,12.96757 10.42536,12.96757c0,0 5.94786,7.3473 6.55134,8.76415c2.74678,6.44886 -1.26577,15.32479 -9.39372,8.34078c-1.91197,-1.64288 -2.25422,-3.65725 -3.1541,-5.53105c-0.41032,-0.85439 -6.06056,-7.77817 -8.57736,-9.49453c-4.37646,-2.98458 -10.44163,-5.63211 -13.53942,-9.9133c-5.51414,-7.62064 13.23841,-8.22796 14.23019,-7.81321" fill="#ffab19" stroke="#001026" stroke-width="1.2"/></g><g fill-rule="nonzero" stroke-linecap="butt" stroke-linejoin="miter"><path d="M386.45997,226.831c-0.74027,2.90895 -17.16436,3.98059 -17.16436,3.98059c0,0 -3.19728,-6.14217 0.83482,-8.1229c1.879,-0.92304 7.52779,-5.02589 8.13665,-6.45334c2.13356,-5.00203 1.56861,-9.91373 5.79999,-14.00559c0.77949,-0.75379 2.43346,-2.50328 4.08041,-3.3485c1.82436,-1.96952 6.33902,-0.27529 7.59885,2.22672c3.61076,7.17088 -5.01569,8.94131 -9.28636,25.72303z" fill="#ffab19" stroke="#001026" stroke-width="1.2"/><g><path d="M387.10615,200.65721c-0.29182,-3.97369 4.42008,-8.64986 4.42008,-8.64986c0,0 0.13471,-3.43577 2.0071,-5.40875c3.87043,-4.07839 18.58885,-1.15604 18.45031,6.85989c-0.05199,3.0077 -2.39674,5.66517 -2.39674,5.66517c0,0 0.12051,5.77607 -1.47986,8.3643c-1.36113,2.20133 -8.7435,5.06833 -13.73231,2.87553c-0.5182,-0.22776 -0.99879,-0.46877 -1.44452,-0.72029" fill="#ffab19" stroke="#001026" stroke-width="1.2"/><path d="M396.11056,188.47634c3.65026,-1.55229 7.7143,2.66236 7.45417,6.5836c-0.03139,0.47322 -0.08161,1.02528 -0.1887,1.56398c0.49301,2.17316 -2.20245,6.23609 -3.87983,6.31557c-5.80646,0.27511 -11.4294,-7.15586 -5.87138,-10.58292c0.27741,-1.6886 1.24165,-3.35118 2.48573,-3.88024z" fill="#ffffff" stroke="none" stroke-width="0.5"/></g><path d="M403.03543,226.10643c0.31532,2.98506 -14.71597,9.69023 -14.71597,9.69023c0,0 -5.13025,-4.65074 -2.0362,-7.90774c1.44185,-1.51779 5.3156,-7.32609 5.3912,-8.87612c0.26494,-5.4316 -1.96955,-9.84193 0.5787,-15.14799c0.46943,-0.97747 1.41342,-3.19224 2.66465,-4.55651c1.02742,-2.48026 5.84946,-2.4582 7.89933,-0.54894c5.87505,5.47202 -1.60076,10.12629 0.21828,27.34709z" fill="#ffab19" stroke="#001026" stroke-width="1.2"/></g></g></g></svg>