<svg version="1.1" xmlns="http://www.w3.org/2000/svg" xmlns:xlink="http://www.w3.org/1999/xlink" width="90.7773" height="90.7773" viewBox="0,0,90.7773,90.7773"><defs><radialGradient cx="240" cy="180" r="45.38865" gradientUnits="userSpaceOnUse" id="color-1"><stop offset="0.21698" stop-color="#f00000"/><stop offset="1" stop-color="#f00000" stop-opacity="0"/></radialGradient><radialGradient cx="240" cy="180" r="42.21538" gradientUnits="userSpaceOnUse" id="color-2"><stop offset="0.16745" stop-color="#ffe0e0" stop-opacity="0.89804"/><stop offset="0.55189" stop-color="#ffb8b8" stop-opacity="0.74902"/><stop offset="0.95991" stop-color="#ffffff" stop-opacity="0"/></radialGradient></defs><g transform="translate(-194.61135,-134.61135)"><g stroke-width="0" stroke-miterlimit="10"><path d="M194.61135,180c0,-25.06746 20.32119,-45.38865 45.38865,-45.38865c25.06746,0 45.38865,20.32119 45.38865,45.38865c0,25.06746 -20.32119,45.38865 -45.38865,45.38865c-25.06746,0 -45.38865,-20.32119 -45.38865,-45.38865z" fill="url(#color-1)" stroke="none" stroke-linecap="butt" stroke-linejoin="miter"/><path d="M283.70863,180.00511c0.00002,1.33884 -41.10602,44.07425 -42.8387,43.90945c-1.49438,-0.14214 -21.58752,-16.04444 -21.60241,-17.72753c-0.01404,-1.58785 22.08962,-16.13456 14.76775,-13.31099c-4.28683,1.65316 -33.81467,8.43179 -35.09514,7.33608c-1.29372,-1.10707 -2.89259,-14.83179 -2.61755,-20.19313v-0.03797c-0.27504,-5.36133 1.32385,-19.08607 2.61756,-20.19313c1.28047,-1.09571 30.80832,5.68293 35.09514,7.33608c7.32189,2.82357 -14.78179,-11.72314 -14.76774,-13.31099c0.01487,-1.6831 20.10804,-17.5854 21.60241,-17.72753c1.73268,-0.1648 42.83873,42.57061 42.8387,43.90945z" fill="#440000" stroke="#000000" stroke-linecap="round" stroke-linejoin="round"/><path d="M280.29006,180.0047c0.00002,1.23414 -37.89098,40.62707 -39.48814,40.47516c-1.3775,-0.13101 -17.86299,-12.60801 -17.87672,-14.15946c-0.01295,-1.46365 23.27063,-18.94484 16.52142,-16.3421c-3.95155,1.52385 -36.2602,8.46186 -37.44051,7.45185c-1.19254,-1.02047 -2.52093,-12.47064 -2.2674,-17.41265v-0.035c-0.25352,-4.942 0.78399,-16.53761 1.97652,-17.55808c1.18032,-1.01001 33.48896,5.63713 37.44051,7.16097c6.74922,2.60274 -16.2435,-14.73301 -16.23055,-16.19666c0.01371,-1.55147 16.49924,-13.73758 17.87673,-13.86859c1.59717,-0.15191 39.48817,39.24102 39.48814,40.47516z" fill="#ffeaea" stroke="#000000" stroke-linecap="round" stroke-linejoin="round"/><path d="M277.17537,180.00435c0.00002,1.13859 -34.95754,37.4818 -36.43106,37.34165c-1.27085,-0.12088 -14.71728,-9.67325 -14.72993,-11.10459c-0.01195,-1.35035 22.25255,-20.41618 16.02585,-18.01496c-3.64562,1.40589 -36.39104,7.41793 -37.47997,6.4861c-1.1002,-0.94146 -1.93402,-10.13701 -1.70011,-14.6964l0.00001,-0.03229c-0.2339,-4.5594 0.52742,-14.28085 1.62763,-15.22231c1.08893,-0.93182 33.44261,5.00773 37.08823,6.4136c6.2267,2.40123 -16.16119,-16.33457 -16.14924,-17.68491c0.01265,-1.43135 14.04669,-10.71535 15.31755,-10.83622c1.47352,-0.14015 36.43108,36.20306 36.43106,37.34165z" fill="#ff0000" stroke="#000000" stroke-linecap="round" stroke-linejoin="round"/><path d="M197.78462,180c0,-23.31491 18.90047,-42.21538 42.21538,-42.21538c23.31491,0 42.21538,18.90047 42.21538,42.21538c0,23.31491 -18.90047,42.21538 -42.21538,42.21538c-23.31491,0 -42.21538,-18.90047 -42.21538,-42.21538z" fill="url(#color-2)" stroke="none" stroke-linecap="butt" stroke-linejoin="miter"/></g></g></svg>