<svg version="1.1" xmlns="http://www.w3.org/2000/svg" xmlns:xlink="http://www.w3.org/1999/xlink" width="127.09967" height="146.92546" viewBox="0,0,127.09967,146.92546"><g transform="translate(-178.23132,-96.13165)"><g stroke-miterlimit="10"><path d="M237.12729,219.70395c-0.44187,1.96295 -0.92013,3.57845 -0.94629,3.74248c-0.73281,4.59361 -0.03749,13.11148 -3.99343,16.2776c-3.06951,2.45666 -6.07493,-1.45578 -4.53603,-4.70952c0.00584,-0.05461 0.01318,-0.10954 0.02207,-0.16472c0.06677,-0.4148 0.21292,-0.79655 0.4154,-1.12387c0.45987,-2.43016 1.1075,-4.93011 1.41424,-7.38391c0.49935,-3.9946 -0.6552,-10.40828 1.75987,-13.86245c1.61714,-2.31292 5.32146,-2.80838 6.26225,-0.26948" fill="#be1e2d" stroke="#000000" stroke-width="1.2" stroke-linecap="butt"/><path d="M248.52186,212.44315c4.5774,4.0851 1.54246,11.53073 0.23918,23.92534c-0.34485,3.27966 -15.64147,3.11309 -17.57448,-2.26128c-1.56886,-4.36192 0.55268,-13.63852 2.67168,-21.39237c0.82689,-3.02577 12.74887,-1.9805 14.66362,-0.27169z" fill="#be1e2d" stroke="#000000" stroke-width="1.2" stroke-linecap="butt"/><path d="M247.94353,213.67824c1.46506,-2.40538 5.90281,-1.50617 7.5742,0.95863c2.4961,3.68099 0.27986,9.89246 0.37989,13.89581c0.06145,2.45918 0.5312,5.00165 0.78169,7.45439c0.20448,0.34589 0.33363,0.73936 0.36214,1.15672c0.00379,0.05552 0.00575,0.11062 0.00592,0.16524c1.457,3.38603 -2.69071,6.92073 -6.10844,4.1533c-4.40472,-3.56663 -2.47956,-11.90858 -2.78724,-16.52979c-0.01098,-0.16501 -0.38714,-1.8146 -0.67502,-3.80357" fill="#be1e2d" stroke="#000000" stroke-width="1.2" stroke-linecap="butt"/><g stroke-linecap="round"><g stroke="#000000" stroke-width="1.2"><path d="M205.65402,190.73797c-15.74997,-3.01522 -26.61201,-33.94641 -26.61201,-33.94641c10.0659,-1.33576 14.15554,2.5161 14.68529,2.88611c0.52987,0.37087 10.28287,8.66425 10.28287,8.66425c-1.05736,13.42109 1.64384,22.39605 1.64384,22.39605zM204.44372,165.49014c0,0 -0.38739,2.03064 -0.45582,3.13562M205.65402,190.73797c0.27114,0.90312 1.0541,2.30662 1.0541,2.30662" fill="#be1e2d"/><path d="M199.19838,187.43806c-2.94968,-2.01762 -6.53839,-5.16985 -9.93034,-9.98326c-3.02418,-4.29188 -6.14161,-10.9744 -8.1232,-15.57531l0.06424,-0.06675c6.21398,-1.23325 9.86749,2.91916 9.86749,2.91916l0.22619,0.33182c1.50387,2.45102 3.11506,4.91108 4.41841,6.48147c0.76943,0.92862 1.58913,1.73881 2.3532,2.4131c0,0 1.5697,4.24289 1.85844,7.22475c0.43321,4.4106 -0.8568,6.18643 -0.8568,6.18643z" fill="#929497"/></g><path d="M267.07962,202.60828l-10.743,8.57726l-24.25178,0.6027l-10.2469,4.61343l-15.4881,-4.40064l-6.70977,-8.2112l-5.79712,-9.85752l-3.49973,-12.43194l0.4703,-12.30199l2.95819,-9.40044l4.75493,-9.21774l6.52794,-8.35721l7.41125,-7.49259l8.26412,-6.91386l5.80437,-3.97334l2.5084,-2.84233l2.73235,-4.65598l1.81491,-4.50931l1.50465,-6.08016l-0.39901,-8.17857l4.59589,5.62649l4.76939,7.2558l0.19749,-3.91976l0.99605,2.13594l3.94684,6.74916l5.60188,6.41219l3.70442,3.02903l5.39683,4.48664l6.5705,5.40329l5.8899,6.22973l4.85819,6.64615l4.17759,7.47259l3.06702,7.14843l0.95629,7.5369l0.34872,7.60556l-1.1445,6.57515l-2.52147,8.0799l-3.00458,4.98656l-5.15017,6.72488z" fill="#be1e2d" stroke="#8c8c8c" stroke-width="0"/><path d="M277.85593,203.88595l-10.82854,-1.2006l-10.72798,8.73598l-24.1815,0.33498l-10.25457,4.56992l-14.74597,-3.67216c0,0 -48.07939,-42.69083 19.10443,-88.25857c0,0 11.84169,-11.44412 8.01284,-27.58206c-0.31141,-1.31256 9.63933,13.6064 9.63933,13.6064c0,0 -0.06195,-5.31526 0.16002,-4.65051c2.45995,7.36706 11.31211,16.77183 11.31211,16.77183c55.58936,37.78628 27.54755,75.63741 27.54755,75.63741z" fill="none" stroke="#000000" stroke-width="1.2"/><g stroke="#000000" stroke-width="1.2"><path d="M281.60186,159.6789c0,0 8.16836,-11.12923 8.62946,-11.66153c0.46117,-0.53148 3.80497,-5.5379 14.3869,-8.04304c0,0 -4.38017,32.08547 -19.82752,40.63889c0,0 0.81033,-9.1435 -3.18885,-20.93432zM281.68638,159.92829c-0.31021,-0.97763 -1.14781,-2.67762 -1.14781,-2.67762M284.21452,183.09608c0,0 0.49534,-1.56302 0.57619,-2.48285" fill="#be1e2d"/><path d="M290.78373,175.12652c0,0 -1.70504,-1.13536 -2.22111,-5.29853c-0.35314,-2.81304 0.32923,-7.24372 0.32923,-7.24372c0.63459,-0.89418 1.29651,-1.93226 1.88127,-3.05926c0.99112,-1.90668 2.10351,-4.73453 3.10816,-7.51454l0.15913,-0.3847c0,0 2.83253,-5.11812 9.45392,-6.29373l0.0802,0.03686c-1.02563,4.90774 -2.75995,12.12427 -4.91873,17.13657c-2.4214,5.62147 -5.40516,9.8079 -7.98226,12.7285z" fill="#929497"/></g></g><g><path d="M273.81138,182.41977c1.63682,15.73257 -13.16385,30.35213 -33.05822,32.65368c-19.89438,2.30156 -37.34888,-8.58643 -38.9857,-24.31901c-1.63682,-15.73257 13.16384,-30.35213 33.05822,-32.65368c19.89438,-2.30156 37.34888,8.58643 38.9857,24.31901z" fill="#e6e7e8" stroke="#000000" stroke-width="1.2" stroke-linecap="butt"/><path d="M217.06103,214.06089l2.07471,2.68381l2.64106,1.76943l-1.73534,0.57802l-4.13148,-0.65383l-3.79066,-1.91939l-1.67211,-2.44743l-4.57644,-2.20574l-3.43655,-2.14899l0.15481,2.37402c-5.16267,-9.40899 -13.55421,-19.07497 -11.25625,-32.40145c25.14741,-30.3579 68.38793,-38.13822 84.35298,-6.33621c0.21349,0.42526 0.41371,0.84981 0.60122,1.27369c0.13812,0.63931 0.23781,1.23722 0.28526,1.77999c0.53669,6.13969 0.27493,12.21513 0.30522,18.41562c0.00199,0.40852 -0.05867,0.86542 -0.15849,1.34755l-0.79289,1.34685l-0.29583,-1.43168l-2.39733,5.05935l-4.47826,3.63805l-5.40808,2.72176l1.0921,-3.62592l0.63608,-5.81065l-0.60512,-4.74098l-2.90596,1.37892l0.28469,-1.81133l0.63196,-4.25242l0.19193,-3.4475l-1.04768,-3.79809l-1.95233,-3.82516l-5.02545,-4.0481l-7.58786,-3.59715l-8.77345,-1.03727l1.98496,1.21943l2.85806,2.82328l1.32194,3.74359l-14.54101,-3.12356l-15.85058,-3.17931l-0.42423,2.98089l-2.13953,6.25771l-2.03962,5.80639l0.55759,5.35932l3.00967,4.92907l4.16512,3.32948l-2.98738,0.93197l-2.61228,0.30221l0.36167,3.47632l1.9882,3.58133l2.23325,3.11321l2.4783,2.64509z" fill="#be1e2d" stroke="#8c8c8c" stroke-width="0" stroke-linecap="butt"/><path d="M213.49129,170.31462c-0.71222,8.02346 -4.95105,12.44239 -4.50976,16.61157c0.90832,8.5816 7.92854,11.7355 7.92854,11.7355c0,0 -4.90264,3.05652 -10.8555,-0.22172" fill="none" stroke="#000000" stroke-width="1.2" stroke-linecap="round"/><path d="M197.16893,190.18869c-0.75072,-1.55617 -0.23259,-3.97428 -0.93316,-6.0371" fill="none" stroke="#000000" stroke-width="1.2" stroke-linecap="round"/><path d="M207.34161,168.3705c14.73937,4.47062 37.17208,8.46662 37.17208,8.46662c0,0 -0.98231,-5.94572 -6.44315,-7.96016c0,0 31.99471,1.11855 22.95504,26.1285c0,0 5.67437,-3.1136 7.86795,-6.89684" fill="none" stroke="#000000" stroke-width="1.2" stroke-linecap="round"/><path d="M270.42976,179.03603c0.29297,1.77813 0.45653,2.60242 0.15581,4.08086" fill="none" stroke="#000000" stroke-width="1.2" stroke-linecap="round"/><path d="M274.78301,196.80895c-1.46234,6.8162 -11.80646,11.33226 -11.80646,11.33226c0,0 3.40747,-9.74556 1.42709,-14.81778" fill="none" stroke="#000000" stroke-width="1.2" stroke-linecap="round"/><path d="M197.15154,190.10713c-3.75263,7.84815 5.5343,21.66294 5.5343,21.66294c0,0 -15.90859,-20.46139 -10.91649,-33.13229" fill="none" stroke="#000000" stroke-width="1.2" stroke-linecap="round"/><path d="M277.45543,194.49639c-1.2177,2.45977 -2.2025,3.82029 -2.2025,3.82029c0,0 0.4152,-9.72107 -4.69888,-15.07736" fill="none" stroke="#000000" stroke-width="1.2" stroke-linecap="round"/><path d="M211.42296,200.07754c-0.6946,6.79269 7.13523,12.92099 7.13523,12.92099c0,0 -9.80753,3.0382 -16.52313,-3.86821" fill="none" stroke="#000000" stroke-width="1.2" stroke-linecap="round"/><path d="M216.40979,213.52514c1.29057,3.16315 5.48701,4.97738 5.48701,4.97738c0,0 -7.81816,2.38688 -12.28657,-4.97384" fill="none" stroke="#000000" stroke-width="1.2" stroke-linecap="round"/></g><path d="M234.93386,236.53037c-1.17371,-0.32428 -3.38196,-2.3219 -3.66244,-3.92318c-0.58426,-3.33557 2.21121,-11.95409 6.72064,-10.78125c3.2268,0.83925 6.50867,6.24632 7.33866,10.13197c0.54613,2.55673 0.17036,5.6803 -2.48112,5.91852c-2.60392,0.23395 -5.60538,-0.70772 -7.91574,-1.34605z" fill="#e6e7e8" stroke="#000000" stroke-width="1.2" stroke-linecap="butt"/><path d="M230.10937,207.39342c1.85579,2.02967 3.05448,4.30717 2.67737,5.08696c-0.37711,0.77977 -2.18722,-0.23345 -4.04301,-2.26313c-1.85579,-2.02967 -3.05449,-4.30717 -2.67738,-5.08695c0.37711,-0.77977 2.18723,0.23345 4.04302,2.26311z" fill="#706d6d" stroke="#000000" stroke-width="1.2" stroke-linecap="butt"/><path d="M244.04511,186.01594l0.17879,-0.33955c0.93236,-1.24315 2.11053,-3.35789 2.11053,-3.35789c0,0 0.5,0.22386 0.5,0.5v0.48036c0.23701,0.96768 0.01222,1.96292 0.21215,2.92726c0.10344,0.01633 0.20641,0.03361 0.30884,0.05182l0.20441,-0.12878c1.09875,-1.09875 3.0904,-2.67276 3.0904,-2.67276v0.78947c-0.00768,1.20347 -0.36822,2.51164 -1.10344,3.48804c-0.12482,1.05144 -1.23867,1.05144 -1.23867,1.05144l-1.1662,-0.02427c-2.46318,-0.50544 -6.12256,-0.46353 -7.70222,1.76112c0,0 -0.75,1 -1.75,0.25c-1,-0.75 -0.25,-1.75 -0.25,-1.75c1.58182,-2.03422 4.05508,-2.876 6.59126,-2.99295c0.00812,-0.0212 0.01416,-0.03329 0.01416,-0.03329z" fill="#000000" stroke="none" stroke-width="0.5" stroke-linecap="butt"/><path d="M218.2144,191.09667c1.9908,-0.87438 4.2283,-1.04416 6.26795,0.25091c0,0 0.98151,0.64736 0.52046,1.73917c-0.46105,1.09181 -1.44257,0.44446 -1.44257,0.44446c-2.11547,-1.4746 -4.93634,-0.09398 -6.61798,1.3361l-0.88367,0.4753c0,0 -0.85343,0.4322 -1.37686,-0.506c-0.96059,-0.63094 -1.76909,-1.7186 -2.26462,-2.84493l-0.32121,-0.74082c0,0 2.16641,0.7042 3.45531,1.30889l0.20902,0.04153c0.07107,-0.05683 0.14294,-0.113 0.21555,-0.16846c-0.23917,-0.9825 -0.81633,-1.82919 -1.02845,-2.8292l-0.19544,-0.45076c-0.11235,-0.25912 0.17967,-0.6632 0.17967,-0.6632c0,0 1.76312,1.52727 2.98329,2.33203l0.27514,0.24925c0,0 0.00955,0.009 0.02439,0.02574z" fill="#000000" stroke="none" stroke-width="0.5" stroke-linecap="butt"/></g></g></svg>