<svg version="1.1" xmlns="http://www.w3.org/2000/svg" xmlns:xlink="http://www.w3.org/1999/xlink" width="127.09969" height="146.63134" viewBox="0,0,127.09969,146.63134"><g transform="translate(-178.2313,-96.13165)"><g stroke-miterlimit="10"><path d="M248.52184,212.44316c4.5774,4.0851 1.54246,11.53073 0.23918,23.92534c-0.34485,3.27966 -15.64147,3.11309 -17.57448,-2.26128c-1.56886,-4.36192 0.55268,-13.63852 2.67168,-21.39237c0.82689,-3.02577 12.74887,-1.9805 14.66362,-0.27169z" fill="#be1e2d" stroke="#000000" stroke-width="1.2" stroke-linecap="butt"/><path d="M248.23763,213.38413c1.46506,-2.40538 5.90281,-1.50617 7.5742,0.95863c2.4961,3.68099 0.27986,9.89246 0.37989,13.89581c0.06145,2.45918 0.5312,5.00165 0.78169,7.45439c0.20448,0.34589 0.33363,0.73936 0.36214,1.15672c0.00379,0.05552 0.00575,0.11062 0.00592,0.16524c1.457,3.38603 -2.69071,6.92073 -6.10844,4.1533c-4.40472,-3.56663 -2.47956,-11.90858 -2.78724,-16.52979c-0.01098,-0.16501 -0.38714,-1.8146 -0.67502,-3.80357" fill="#be1e2d" stroke="#000000" stroke-width="1.2" stroke-linecap="butt"/><g stroke-linecap="round"><g stroke="#000000" stroke-width="1.2"><path d="M205.654,190.73798c-15.74997,-3.01522 -26.61201,-33.94641 -26.61201,-33.94641c10.0659,-1.33576 14.15554,2.5161 14.68529,2.88611c0.52987,0.37087 10.28287,8.66425 10.28287,8.66425c-1.05736,13.42109 1.64384,22.39605 1.64384,22.39605zM204.4437,165.49015c0,0 -0.38739,2.03064 -0.45582,3.13562M205.654,190.73798c0.27114,0.90312 1.0541,2.30662 1.0541,2.30662" fill="#be1e2d"/><path d="M199.19838,187.43807c-2.94968,-2.01762 -6.53839,-5.16985 -9.93034,-9.98326c-3.02418,-4.29188 -6.14161,-10.9744 -8.1232,-15.57531l0.06424,-0.06675c6.21398,-1.23325 9.86749,2.91916 9.86749,2.91916l0.22619,0.33182c1.50387,2.45102 3.11506,4.91108 4.41841,6.48147c0.76943,0.92862 1.58913,1.73881 2.3532,2.4131c0,0 1.5697,4.24289 1.85844,7.22475c0.43321,4.4106 -0.8568,6.18643 -0.8568,6.18643z" fill="#929497"/></g><path d="M267.07962,202.60829l-10.743,8.57726l-24.25178,0.6027l-10.2469,4.61343l-15.4881,-4.40064l-6.70977,-8.2112l-5.79712,-9.85752l-3.49973,-12.43194l0.4703,-12.30199l2.95819,-9.40044l4.75493,-9.21774l6.52794,-8.35721l7.41125,-7.49259l8.26412,-6.91386l5.80437,-3.97334l2.5084,-2.84233l2.73235,-4.65598l1.81491,-4.50931l1.50465,-6.08016l-0.39901,-8.17857l4.59589,5.62649l4.76939,7.2558l0.19749,-3.91976l0.99605,2.13594l3.94684,6.74916l5.60188,6.41219l3.70442,3.02903l5.39683,4.48664l6.5705,5.40329l5.8899,6.22973l4.85819,6.64615l4.17759,7.47259l3.06702,7.14843l0.95629,7.5369l0.34872,7.60556l-1.1445,6.57515l-2.52147,8.0799l-3.00458,4.98656l-5.15017,6.72488z" fill="#be1e2d" stroke="#8c8c8c" stroke-width="0"/><path d="M277.85591,203.88596l-10.82854,-1.2006l-10.72798,8.73598l-24.1815,0.33498l-10.25457,4.56992l-14.74597,-3.67216c0,0 -48.07939,-42.69083 19.10443,-88.25857c0,0 11.84169,-11.44412 8.01284,-27.58206c-0.31141,-1.31256 9.63933,13.6064 9.63933,13.6064c0,0 -0.06195,-5.31526 0.16002,-4.65051c2.45995,7.36706 11.31211,16.77183 11.31211,16.77183c55.58936,37.78628 27.54755,75.63741 27.54755,75.63741z" fill="none" stroke="#000000" stroke-width="1.2"/><g stroke="#000000" stroke-width="1.2"><path d="M281.60186,159.67891c0,0 8.16836,-11.12923 8.62946,-11.66153c0.46117,-0.53148 3.80497,-5.5379 14.3869,-8.04304c0,0 -4.38017,32.08547 -19.82752,40.63889c0,0 0.81033,-9.1435 -3.18885,-20.93432zM281.68638,159.9283c-0.31021,-0.97763 -1.14781,-2.67762 -1.14781,-2.67762M284.21452,183.09609c0,0 0.49534,-1.56302 0.57619,-2.48285" fill="#be1e2d"/><path d="M290.78373,175.12653c0,0 -1.70504,-1.13536 -2.22111,-5.29853c-0.35314,-2.81304 0.32923,-7.24372 0.32923,-7.24372c0.63459,-0.89418 1.29651,-1.93226 1.88127,-3.05926c0.99112,-1.90668 2.10351,-4.73453 3.10816,-7.51454l0.15913,-0.3847c0,0 2.83253,-5.11812 9.45392,-6.29373l0.0802,0.03686c-1.02563,4.90774 -2.75995,12.12427 -4.91873,17.13657c-2.4214,5.62147 -5.40516,9.8079 -7.98226,12.7285z" fill="#929497"/></g></g><g><path d="M275.87019,185.06684c1.63682,15.73257 -13.16385,30.35213 -33.05822,32.65368c-19.89438,2.30156 -37.34888,-8.58643 -38.9857,-24.31901c-1.63682,-15.73257 13.16384,-30.35213 33.05822,-32.65368c19.89438,-2.30156 37.34888,8.58643 38.9857,24.31901z" fill="#e6e7e8" stroke="#000000" stroke-width="1.2" stroke-linecap="butt"/><path d="M219.11985,216.70796l2.07471,2.68381l2.64106,1.76943l-1.73534,0.57802l-4.13148,-0.65383l-3.79066,-1.91939l-1.67211,-2.44743l-4.57644,-2.20574l-3.43655,-2.14899l0.15481,2.37402c-5.16267,-9.40899 -13.55421,-19.07497 -11.25625,-32.40145c25.14741,-30.3579 68.38793,-38.13822 84.35298,-6.33621c0.21349,0.42526 0.41371,0.84981 0.60122,1.27369c0.13812,0.63931 0.23781,1.23722 0.28526,1.77999c0.53669,6.13969 0.27493,12.21513 0.30522,18.41562c0.00199,0.40852 -0.05867,0.86542 -0.15849,1.34755l-0.79289,1.34685l-0.29583,-1.43168l-2.39733,5.05935l-4.47826,3.63805l-5.40808,2.72176l1.0921,-3.62592l0.63608,-5.81065l-0.60512,-4.74098l-2.90596,1.37892l0.28469,-1.81133l0.63196,-4.25242l0.19193,-3.4475l-1.04768,-3.79809l-1.95233,-3.82516l-5.02545,-4.0481l-7.58786,-3.59715l-8.77345,-1.03727l1.98496,1.21943l2.85806,2.82328l1.32194,3.74359l-14.54101,-3.12356l-15.85058,-3.17931l-0.42423,2.98089l-2.13953,6.25771l-2.03962,5.80639l0.55759,5.35932l3.00967,4.92907l4.16512,3.32948l-2.98738,0.93197l-2.61228,0.30221l0.36167,3.47632l1.9882,3.58133l2.23325,3.11321l2.4783,2.64509z" fill="#be1e2d" stroke="#8c8c8c" stroke-width="0" stroke-linecap="butt"/><path d="M215.55011,172.96169c-0.71222,8.02346 -4.95105,12.44239 -4.50976,16.61157c0.90832,8.5816 7.92854,11.7355 7.92854,11.7355c0,0 -4.90264,3.05652 -10.8555,-0.22172" fill="none" stroke="#000000" stroke-width="1.2" stroke-linecap="round"/><path d="M199.22775,192.83576c-0.75072,-1.55617 -0.23259,-3.97428 -0.93316,-6.0371" fill="none" stroke="#000000" stroke-width="1.2" stroke-linecap="round"/><path d="M209.40041,171.01757c14.73937,4.47062 37.17208,8.46662 37.17208,8.46662c0,0 -0.98231,-5.94572 -6.44315,-7.96016c0,0 31.99471,1.11855 22.95504,26.1285c0,0 5.67437,-3.1136 7.86795,-6.89684" fill="none" stroke="#000000" stroke-width="1.2" stroke-linecap="round"/><path d="M272.48858,181.6831c0.29297,1.77813 0.45653,2.60242 0.15581,4.08086" fill="none" stroke="#000000" stroke-width="1.2" stroke-linecap="round"/><path d="M276.84183,199.45602c-1.46234,6.8162 -11.80646,11.33226 -11.80646,11.33226c0,0 3.40747,-9.74556 1.42709,-14.81778" fill="none" stroke="#000000" stroke-width="1.2" stroke-linecap="round"/><path d="M199.21034,192.7542c-3.75263,7.84815 5.5343,21.66294 5.5343,21.66294c0,0 -15.90859,-20.46139 -10.91649,-33.13229" fill="none" stroke="#000000" stroke-width="1.2" stroke-linecap="round"/><path d="M279.51425,197.14346c-1.2177,2.45977 -2.2025,3.82029 -2.2025,3.82029c0,0 0.4152,-9.72107 -4.69888,-15.07736" fill="none" stroke="#000000" stroke-width="1.2" stroke-linecap="round"/><path d="M213.48178,202.72461c-0.6946,6.79269 7.13523,12.92099 7.13523,12.92099c0,0 -9.80753,3.0382 -16.52313,-3.86821" fill="none" stroke="#000000" stroke-width="1.2" stroke-linecap="round"/><path d="M218.46859,216.17221c1.29057,3.16315 5.48701,4.97738 5.48701,4.97738c0,0 -7.81816,2.38688 -12.28657,-4.97384" fill="none" stroke="#000000" stroke-width="1.2" stroke-linecap="round"/></g><path d="M234.93384,236.53038c-1.17371,-0.32428 -3.38196,-2.3219 -3.66244,-3.92318c-0.58426,-3.33557 2.21121,-11.95409 6.72064,-10.78125c3.2268,0.83925 6.50867,6.24632 7.33866,10.13197c0.54613,2.55673 0.17036,5.6803 -2.48112,5.91852c-2.60392,0.23395 -5.60538,-0.70772 -7.91574,-1.34605z" fill="#e6e7e8" stroke="#000000" stroke-width="1.2" stroke-linecap="butt"/><path d="M253.12348,197.31528l-0.10723,-0.05362l0.28927,-0.57855c0.08017,-0.16912 0.25246,-0.28608 0.45206,-0.28608c0.23795,0 0.43708,0.16622 0.48761,0.38888l0.14452,0.57809l-0.02047,0.00512l0.03165,0.05506c0.00395,0.68422 0.00425,1.36844 0.00404,2.05266c0.13584,-0.02787 0.27151,-0.05643 0.40698,-0.08568c0.47628,-0.81462 0.79909,-1.70284 1.1755,-2.57757l-0.07307,-0.01461l0.14524,-0.72621c0.04197,-0.23369 0.24633,-0.41102 0.49211,-0.41102c0.23795,0 0.43708,0.16622 0.48761,0.38888l0.14452,0.57809l-0.02347,0.00587l0.03465,0.05431c0,1.6031 0.0902,2.79256 -0.60687,4.14808c-0.05389,0.29533 -0.21511,0.50318 -0.39096,0.6467c-0.04879,0.05565 -0.14631,0.14734 -0.2805,0.1786c-0.16653,0.08209 -0.29746,0.11124 -0.29746,0.11124c-3.93592,0.8755 -8.00924,1.20123 -12.02656,0.76195l-0.00902,0.00765c0,0 -1.25,0.00047 -1.25047,-1.24953c-0.00047,-1.25 1.24953,-1.25047 1.24953,-1.25047l0.2851,0.00754c2.60309,0.29223 5.23896,0.22535 7.83603,-0.11758c0.47839,-0.87747 0.89131,-1.79681 1.41966,-2.61778z" fill="#000000" stroke="none" stroke-width="0.5" stroke-linecap="butt"/><path d="M222.21419,198.85475c2.23739,0.64178 4.5082,1.01199 6.75078,1.0193l0.24562,0.02527c0,0 1.07688,0.14432 1.07648,1.39426c-0.0004,1.24995 -1.07729,1.10563 -1.07729,1.10563l-0.00777,-0.00868c-3.46094,-0.023 -6.97012,-0.81746 -10.36094,-2.14588c0,0 -0.1128,-0.04422 -0.25627,-0.14547c-0.11561,-0.0467 -0.19962,-0.14961 -0.24166,-0.21088c-0.15149,-0.16376 -0.29038,-0.39017 -0.33681,-0.69169c-0.60053,-1.43574 -0.52282,-2.61482 -0.52282,-4.21792l0.02985,-0.05032l-0.02022,-0.00857l0.1245,-0.56145c0.04353,-0.21685 0.21508,-0.36015 0.42008,-0.33277c0.21174,0.02828 0.38779,0.22913 0.42395,0.46765l0.12513,0.74292l-0.06295,0.00621c0.32427,0.91804 0.60239,1.84342 1.0127,2.71284c0.11671,0.04483 0.23359,0.08901 0.35062,0.13251c-0.00018,-0.68425 0.00008,-1.36844 0.00348,-2.0522l0.02727,-0.05141l-0.01764,-0.00748l0.12451,-0.56146c0.04353,-0.21685 0.21508,-0.36015 0.42007,-0.33276c0.17196,0.02297 0.32039,0.15975 0.38945,0.3381l0.24921,0.61183l-0.09238,0.04128c0.45517,0.88177 0.81091,1.84862 1.22304,2.78115z" fill="#000000" stroke="none" stroke-width="0.5" stroke-linecap="butt"/><path d="M240.96347,212.33822c0,0 5.52153,-1.00851 7.35294,0.88235" fill="none" stroke="#000000" stroke-width="1.2" stroke-linecap="round"/><path d="M243.10396,202.25657c2.46894,4.21959 -5.25781,28.04044 -13.96918,24.14001c-4.46041,-1.99711 1.60573,-12.31271 1.60573,-12.31271c0,0 -2.31753,-2.16386 -3.5825,-3.11466c-1.09463,-0.82276 -2.60373,-0.87097 -3.37032,-2.18114c-0.73812,-1.2615 -0.14041,-2.3568 -0.06702,-3.60768c0.91159,-1.69619 2.91514,-0.68456 4.25198,0.39505c-0.06334,-3.06162 -1.05983,-6.30471 -2.56663,-8.87992c-0.75305,-2.62223 1.62494,-4.85415 4.30719,-4.2221c0.5755,0.13561 1.29249,0.73829 1.90328,0.64042c1.22221,-0.19583 2.31608,-0.85336 3.51613,-1.14917c0.85834,0.3775 1.75066,0.74115 2.62444,1.11029c0.69945,0.29549 1.4526,-0.62556 2.27348,-0.25827c2.62361,1.17389 1.668,4.64755 2.28353,6.6954c0.0636,0.96586 0.29202,1.66969 0.5539,2.52876c0.15269,0.07335 0.236,0.21572 0.236,0.21572z" fill="#be1e2d" stroke="#000000" stroke-width="1.2" stroke-linecap="butt"/></g></g></svg>