<svg version="1.1" xmlns="http://www.w3.org/2000/svg" xmlns:xlink="http://www.w3.org/1999/xlink" width="71.75" height="74" viewBox="0,0,71.75,74"><g transform="translate(-204.5,-143.125)"><g stroke="#ffffff" stroke-width="0" stroke-linecap="round" stroke-miterlimit="10"><path d="M276.25,182.625l-34.75,34.5l-4.5,-0.25l-14.25,-12l-1,-4l8,-6.5l-19,3.25l-6.25,-3.75v-27.5l6.25,-3.75l19,3.25l-8,-6.5l1,-4l14.25,-12l4.5,-0.25l34.75,34.5z" fill="#ffe9e9"/><path d="M274.04244,181.43443l-33.63465,33.83546l-2.15579,0.02246l-13.10294,-11.5528l-0.23114,-3.20468l13.6747,-9.55415l-27.46327,4.1851l-3.87179,-2.57439l-0.00001,-24.95048l3.8718,-2.5744l27.46326,4.18511l-13.67468,-9.55415l0.23113,-2.95468l13.10295,-12.03519l2.15579,0.02246l33.63464,34.06787z" fill="#ff0000"/></g></g></svg>