<svg version="1.1" xmlns="http://www.w3.org/2000/svg" xmlns:xlink="http://www.w3.org/1999/xlink" width="159.81676" height="159.81675" viewBox="0,0,159.81676,159.81675"><g transform="translate(-160.09162,-100.09162)"><g stroke-miterlimit="10"><path d="M227.78563,232.25826c1.2413,0.19599 1.80243,1.35263 1.65672,2.76119c-0.14572,1.40856 -0.88227,2.78659 -2.20896,2.57711c-1.32669,-0.20947 -1.41353,-1.92129 -1.28856,-3.12935c0.12498,-1.20807 0.5995,-2.40495 1.8408,-2.20896z" fill="#ff0000" stroke="#ffe8e8" stroke-width="5" stroke-linecap="round"/><path d="M239.38265,226.91995c0.58387,-0.17516 0.94559,0.09815 1.10448,1.10448c0.15889,1.00632 0.29815,2.13791 -0.55224,2.39303c-0.8504,0.25511 -1.17369,-1.11331 -1.28856,-1.8408c-0.11487,-0.7275 0.15245,-1.48156 0.73632,-1.65672z" fill="#ff0000" stroke="#ffe8e8" stroke-width="5" stroke-linecap="round"/><path d="M252.08413,233.36273c0.60483,-0.44354 1.34962,-0.85991 1.8408,0.55224c0.49118,1.41214 0.57366,2.99092 -0.36816,3.68159c-0.94182,0.69067 -2.03676,-0.63244 -2.39303,-1.65672c-0.35627,-1.02428 0.31558,-2.13357 0.9204,-2.57711z" fill="#ff0000" stroke="#ffe8e8" stroke-width="5" stroke-linecap="round"/><path d="M236.25329,214.03437c0.20273,-1.82455 0.91357,2.13711 2.57711,2.39303c1.66354,0.25593 2.33935,-2.8303 2.20896,-1.65672c-0.1304,1.17358 -0.79623,3.55909 -2.39303,3.31343c-1.5968,-0.24566 -2.59576,-2.2252 -2.39303,-4.04975z" fill="#ff0000" stroke="#ffe8e8" stroke-width="5" stroke-linecap="round"/><path d="M227.78562,232.25826c1.2413,0.19599 1.80243,1.35263 1.65672,2.76119c-0.14572,1.40856 -0.88227,2.78659 -2.20896,2.57711c-1.32669,-0.20947 -1.41353,-1.92129 -1.28856,-3.12935c0.12498,-1.20807 0.5995,-2.40495 1.8408,-2.20896z" fill="#ff0000" stroke="#000000" stroke-width="0" stroke-linecap="round"/><path d="M239.38264,226.91995c0.58387,-0.17516 0.94559,0.09815 1.10448,1.10448c0.15889,1.00632 0.29815,2.13791 -0.55224,2.39303c-0.8504,0.25511 -1.17369,-1.11331 -1.28856,-1.8408c-0.11487,-0.7275 0.15245,-1.48156 0.73632,-1.65672z" fill="#ff0000" stroke="#000000" stroke-width="0" stroke-linecap="round"/><path d="M252.08412,233.36273c0.60483,-0.44354 1.34962,-0.85991 1.8408,0.55224c0.49118,1.41214 0.57366,2.99092 -0.36816,3.68159c-0.94182,0.69067 -2.03676,-0.63244 -2.39303,-1.65672c-0.35627,-1.02428 0.31558,-2.13357 0.9204,-2.57711z" fill="#ff0000" stroke="#000000" stroke-width="0" stroke-linecap="round"/><path d="M236.25328,214.03437c0.20273,-1.82455 0.91357,2.13711 2.57711,2.39303c1.66354,0.25593 2.33935,-2.8303 2.20896,-1.65672c-0.1304,1.17358 -0.79623,3.55909 -2.39303,3.31343c-1.5968,-0.24566 -2.59576,-2.2252 -2.39303,-4.04975z" fill="#ff0000" stroke="#000000" stroke-width="0" stroke-linecap="round"/><path d="M160.09163,259.90837v-159.81675h159.81676v159.81675z" fill="none" stroke="#ffe8e8" stroke-width="0" stroke-linecap="butt"/></g></g></svg>