<svg version="1.1" xmlns="http://www.w3.org/2000/svg" xmlns:xlink="http://www.w3.org/1999/xlink" width="87.90683" height="135.16379" viewBox="0,0,87.90683,135.16379"><g transform="translate(-192.49214,-91.91744)"><g stroke-miterlimit="10"><path d="M236.97586,174.54214c2.49568,-1.11647 5.41316,0.02591 6.51638,2.55158c0.25059,0.57368 0.38601,1.16939 0.41643,1.76059c1.02032,1.60455 -1.9324,4.5002 -2.54084,5.87847c-2.28788,5.18255 -4.98504,7.63696 -10.99313,9.81865c-2.4552,0.89155 -5.12929,0.62399 -6.51638,-2.55158c-2.63296,-6.02781 4.89522,-7.10528 7.58559,-9.72172c1.44179,-1.40216 3.59586,-8.3378 5.53196,-7.73599z" fill="#ffab19" fill-rule="nonzero" stroke="#000000" stroke-width="1.2" stroke-linecap="butt" stroke-linejoin="miter"/><g fill-rule="evenodd"><path d="M254.35752,197.99396c1.6386,1.82344 3.78788,3.92836 6.89611,4.89731c7.00058,2.29173 14.85745,-0.31009 14.95209,4.03053c0.1449,4.42706 -11.23019,10.92532 -20.82047,2.38913c-3.32142,-2.92715 -5.23147,-6.21221 -6.70324,-8.9424c-0.40212,-0.69159 -3.26525,-7.00843 -1.53235,-10.79223c1.7329,-3.78379 3.36546,-2.76653 4.11338,-2.27599c0.88462,0.52672 0.86679,8.05598 3.09449,10.69365z" fill="#ffab19" stroke="#001026" stroke-width="1.2" stroke-linecap="round" stroke-linejoin="round"/><path d="M275.7312,206.50363c0.48659,2.03057 -2.6416,5.00619 -6.16998,5.90098c-3.52837,0.89477 -5.88869,0.41635 -7.66595,-0.05403c0.70568,-0.17896 2.80861,-0.93899 3.07796,-3.06206c0.41406,-2.66994 -2.22376,-5.41617 -2.22376,-5.41617c0,0 4.84327,0.76986 7.98163,0.79589c2.79257,0.22709 4.34063,-0.09465 5.00014,1.8354z" fill="#ffffff" stroke="none" stroke-width="1" stroke-linecap="butt" stroke-linejoin="miter"/></g><g fill-rule="nonzero" stroke-linecap="butt" stroke-linejoin="miter"><path d="M243.41769,216.45505c0.21772,3.07136 -14.59504,9.90697 -14.59504,9.90697c0,0 -4.84915,-4.80388 -1.74424,-8.1412c1.44692,-1.55522 5.38577,-7.51335 5.5054,-9.10724c0.41921,-5.58524 -1.62189,-10.13021 1.01339,-15.57715c0.48546,-1.00342 1.4691,-3.27748 2.72613,-4.67557c1.07266,-2.54677 5.75993,-2.50465 7.69597,-0.53275c5.5488,5.65156 -1.85758,10.40829 -0.6016,28.12695z" fill="#ffab19" stroke="#001026" stroke-width="1.2"/><g><path d="M232.2256,186.24351c-0.57072,-3.92511 3.77821,-9.21359 3.77821,-9.21359c0,0 -0.10909,-3.44501 1.61095,-5.66103c3.55551,-4.58077 18.37928,-3.61496 18.80835,4.39926c0.16099,3.00706 -1.97979,5.9684 -1.97979,5.9684c0,0 0.528,5.74565 -0.87839,8.53936c-1.19616,2.37608 -8.32508,6.21359 -13.4346,4.68698c-0.53073,-0.15857 -1.02505,-0.33533 -1.4855,-0.52719" fill="#ffab19" stroke="#001026" stroke-width="1.2"/><path d="M240.307,172.90061c3.51542,-2.03182 7.84945,1.63405 7.8683,5.57994c0.00228,0.47619 -0.00857,1.03352 -0.07684,1.58506c0.64325,2.10244 -1.74647,6.51217 -3.40669,6.81359c-5.74708,1.04341 -11.85666,-5.6243 -6.57912,-9.77886c0.15614,-1.72111 0.99622,-3.50724 2.19434,-4.19973z" fill="#ffffff" stroke="none" stroke-width="0.5"/></g><path d="M247.00543,193.63255c0.76041,2.31833 -0.17182,6.43162 -0.17182,6.43162c0,0 -2.06946,8.05828 -2.893,9.33547c-3.74839,5.81317 -14.99387,9.84562 -14.95905,0.92584c0.00819,-2.09823 1.58183,-3.65141 2.5915,-5.39232c0.46037,-0.7938 2.37521,-8.41062 1.97819,-10.86715c-0.69037,-4.27167 -3.00765,-9.17258 -1.51442,-13.68068c2.658,-8.02452 17.85862,1.10925 18.25415,1.89821" fill="#ffab19" stroke="#001026" stroke-width="1.2"/></g><g><g><g><path d="M216.4617,134.23895c0,0 -8.3511,-26.29585 -7.29114,-26.4893c1.42799,-0.26063 28.41908,5.68158 28.41908,5.68158" fill="#ffab19" fill-rule="nonzero" stroke="#001026" stroke-width="1.2" stroke-linecap="round" stroke-linejoin="miter"/><path d="M270.58179,127.27116l0.17323,-1.21292l4.96337,-1.20116l4.05007,4.52234l-1.10999,8.5224l-24.75819,12.57551z" fill="#9b7f41" fill-rule="nonzero" stroke="#001026" stroke-width="1.2" stroke-linecap="round" stroke-linejoin="miter"/><path d="M210.02515,155.22225c0,0 -6.93351,1.94333 -12.51732,-0.36989" fill="none" fill-rule="evenodd" stroke="#001026" stroke-width="1.2" stroke-linecap="round" stroke-linejoin="round"/><path d="M211.31258,160.99395c0,0 -3.20216,2.92677 -9.38582,4.23161" fill="none" fill-rule="evenodd" stroke="#001026" stroke-width="1.2" stroke-linecap="round" stroke-linejoin="round"/><path d="M231.22359,121.43475c10.43906,-4.61167 41.37613,-3.06536 40.19643,24.86307c-0.01537,0.3641 -0.11491,0.72012 -0.21295,1.07457c-3.58047,12.94412 -16.6177,22.11204 -35.69583,23.88821c-19.07813,1.77619 -26.35683,-7.33538 -26.82037,-13.14184c-0.46354,-5.80647 5.75095,-9.83141 5.75095,-9.83141c0,0 -1.17862,-4.34407 0.33259,-10.52517c0,0 1.19743,-9.58966 16.44916,-16.32744z" fill="#ffab19" fill-rule="evenodd" stroke="#001026" stroke-width="1.2" stroke-linecap="butt" stroke-linejoin="miter"/><path d="M232.05503,148.6121c8.22598,-1.80369 16.67772,-13.78818 26.13391,-5.42396c9.42788,8.26833 2.47724,25.3358 -22.14797,27.39467c-18.858,1.81546 -26.3787,-6.7033 -26.84223,-12.50977c-0.46354,-5.80647 5.64411,-9.48703 5.64411,-9.48703c7.61381,-4.22965 10.16539,1.58581 17.21219,0.02611z" fill="#ffffff" fill-rule="evenodd" stroke="none" stroke-width="1" stroke-linecap="butt" stroke-linejoin="miter"/><path d="M236.4821,145.94917c0.45317,1.53448 -2.86679,5.12168 -4.64972,5.43968c-1.56281,0.35727 -3.79441,-1.90326 -4.09503,-3.27423c-0.10235,-0.69966 1.95092,-1.51457 3.96492,-2.10934c1.91811,-0.56645 4.53585,-1.23526 4.77982,-0.05608z" fill="#001026" fill-rule="evenodd" stroke="#001026" stroke-width="1.2" stroke-linecap="round" stroke-linejoin="round"/><path d="M266.2484,137.96373c-2.34818,5.5692 -8.6474,9.05772 -8.6474,9.05772" fill="none" fill-rule="evenodd" stroke="#001026" stroke-width="1.2" stroke-linecap="round" stroke-linejoin="round"/><path d="M270.392,148.44993c-5.31703,3.41605 -9.65198,3.58316 -9.65198,3.58316" fill="none" fill-rule="evenodd" stroke="#001026" stroke-width="1.2" stroke-linecap="round" stroke-linejoin="round"/><path d="M257.93364,127.74559l-43.00686,7.34374l-2.81269,-22.62673l47.67221,-7.15822l15.85795,16.04634l-4.23101,16.70505z" fill="#c58600" fill-rule="nonzero" stroke="#001026" stroke-width="1.2" stroke-linecap="round" stroke-linejoin="miter"/><path d="M259.6145,105.52905l-1.70726,22.01829" fill="none" fill-rule="nonzero" stroke="#001026" stroke-width="0.75" stroke-linecap="round" stroke-linejoin="miter"/><path d="M266.81667,112.64022l-6.58102,-6.99216c0,0 14.515,7.82066 15.60129,8.01108c1.21736,0.2134 -6.98657,14.2462 -6.98657,14.2462z" fill="#ffab19" fill-rule="nonzero" stroke="#001026" stroke-width="1.2" stroke-linecap="round" stroke-linejoin="miter"/></g><path d="M195.20835,147.27601c-7.36212,-20.51454 5.1,-43.75899 27.83493,-51.91796c22.73493,-8.15897 47.1334,1.85719 54.49552,22.37174c7.36212,20.51454 -5.10001,43.75899 -27.83493,51.91796c-22.73493,8.15897 -47.13341,-1.85719 -54.49552,-22.37173z" fill="none" fill-rule="nonzero" stroke="#ffffff" stroke-width="1.2" stroke-linecap="butt" stroke-linejoin="miter"/><path d="M258.69331,99.91864l0.32337,7.27208l-7.77971,2.97282l-9.44206,-3.04511l3.84864,-11.48547z" fill="#ffffff" fill-rule="nonzero" stroke="#001026" stroke-width="0" stroke-linecap="round" stroke-linejoin="miter"/><path d="M266.55485,112.31728l7.0592,1.5216l-7.03501,-1.27725" fill="#000000" fill-rule="nonzero" stroke="none" stroke-width="0" stroke-linecap="round" stroke-linejoin="miter"/></g><g stroke="#001026"><g fill-rule="evenodd"><path d="M225.68631,130.57744c3.19517,0.93326 4.54372,5.85273 3.03698,10.98984c-1.60263,5.16542 -5.4195,8.48228 -8.61465,7.54901c-3.19517,-0.93326 -4.54371,-5.85273 -3.03697,-10.98985c1.50673,-5.13711 5.39117,-8.57818 8.61465,-7.54901z" fill="#ffffff" stroke-width="1.2" stroke-linecap="round" stroke-linejoin="round"/><path d="M217.77456,142.8452c-0.31154,-1.05496 0.20078,-2.14469 1.15985,-2.42791c0.95906,-0.28323 1.9812,0.35332 2.29275,1.40829c0.31154,1.05496 -0.20078,2.14469 -1.15984,2.42791c-0.95906,0.28323 -1.9812,-0.35331 -2.29275,-1.40829" fill="#001026" stroke-width="0.5" stroke-linecap="butt" stroke-linejoin="miter"/></g><g fill-rule="evenodd"><path d="M249.72785,127.95934c3.59618,1.23191 5.01876,6.75515 3.2919,11.85299c-0.23346,0.72567 -0.51184,1.4005 -0.82837,2.02159c-2.6931,0.5318 -5.37981,1.04276 -8.03041,1.53798c-0.95694,0.17879 -2.03896,0.29396 -3.18904,0.38746c-1.06787,-2.19835 -1.32581,-5.32176 -0.3273,-8.42541c1.63096,-5.0695 5.45875,-8.70242 9.08326,-7.37459z" fill="#ffffff" stroke-width="1.2" stroke-linecap="round" stroke-linejoin="round"/><path d="M240.81763,140.34199c-0.31154,-1.05496 0.2291,-2.04877 1.15985,-2.42792c0.95906,-0.28323 1.9812,0.35333 2.29275,1.4083c0.31154,1.05496 -0.20078,2.14469 -1.15984,2.42791c-0.95906,0.28323 -1.9812,-0.35333 -2.29275,-1.40831" fill="#001026" stroke-width="0.5" stroke-linecap="butt" stroke-linejoin="miter"/></g><g fill="#ffffff" fill-rule="nonzero" stroke-width="1.2" stroke-linecap="round" stroke-linejoin="miter"><path d="M230.18409,161.32388c-0.22697,-0.15438 5.39364,-1.83749 10.73451,-4.74603c12.09133,-6.58469 12.2793,-8.71607 12.84153,-8.69164c1.03757,0.04509 3.68859,15.81499 -3.85533,20.11115c-7.25501,4.13163 -19.01186,-6.19135 -19.72071,-6.6735z"/></g></g></g><g fill-rule="nonzero" stroke="#000000" stroke-width="1.2" stroke-linejoin="miter"><path d="M254.04648,172.58575c0,0 0.46336,-1.82574 2.29816,-1.69002c7.23661,0.53531 6.55623,5.4023 8.76281,7.50536c2.55073,2.43108 5.92275,4.66603 5.7574,6.24953c-0.23699,2.26963 -2.48903,2.88055 -4.99659,4.21632c-3.37751,1.79921 -7.53556,3.76801 -10.85589,2.04177c-2.59332,-1.34826 1.81797,-7.38477 1.86829,-7.41374c-1.6449,-2.06187 -2.68873,-4.6219 -2.7106,-6.67436" fill="#ffab19" stroke-linecap="butt"/><g stroke-linecap="round"><path d="M259.34234,193.19864l-4.79953,1.98739l-2.7163,-0.43222l-0.54163,-2.03913l-1.27758,-0.50897l-0.12409,-4.12944" fill="#ffab19"/><path d="M256.67873,177.30468l10.7938,8.04173l-1.74823,6.35905l-4.84686,4.14848l-3.31167,-1.23394l-0.51394,-0.95466l-3.33365,-1.96091l-1.00591,-1.18234l-3.58329,-2.19592l-0.7494,-6.5279z" fill="#ffab19"/><path d="M253.23425,185.56278l0.33751,3.14292l-1.60533,-3.04904z" fill="none"/><path d="M257.61771,188.31221l-0.00035,4.00204" fill="none"/></g></g><g fill-rule="nonzero" stroke="#000000" stroke-width="1.2" stroke-linejoin="miter"><path d="M225.40443,178.85992c-4.46353,-1.57683 -6.80367,-6.47354 -5.22682,-10.93706c1.57683,-4.46353 6.47353,-6.80365 10.93705,-5.22682c4.46353,1.57683 6.80366,6.47352 5.22682,10.93705c-1.57683,4.46353 -6.47351,6.80365 -10.93705,5.22682z" fill="#5c5e5f" stroke-linecap="butt"/><g stroke-linecap="round"><path d="M230.4249,180.08808l1.71035,4.42225l-1.55052,1.81581l-1.48466,4.2026l-3.72736,-0.77132z" fill="#ffab19"/><path d="M228.61969,174.90506l3.09833,5.63982l-2.17864,3.59382l-0.35228,1.51185l-2.06446,3.27054l-0.01934,1.08404l-2.37805,2.61431l-6.20903,-1.46623l-4.46787,-4.85097l5.90872,-12.09391z" fill="#ffab19"/><path d="M228.03718,183.24441l-1.14024,-2.94817" fill="none"/><path d="M224.16662,184.42242l1.83422,3.55695" fill="none"/></g><path d="M222.71005,190.08944l-1.95992,3.48927l-3.89867,-0.28642l-2.11006,-3.29078l1.67441,-2.68109l4.12707,-0.36014z" fill="#5c5e5f" stroke-linecap="round"/></g></g></g></svg>