<svg version="1.1" xmlns="http://www.w3.org/2000/svg" xmlns:xlink="http://www.w3.org/1999/xlink" width="90.69644" height="118.46079" viewBox="0,0,90.69644,118.46079"><g transform="translate(-205.63972,-123.09142)"><g stroke-miterlimit="10"><g fill-rule="evenodd"><path d="M256.13811,209.54478c2.36332,0.65167 5.30849,1.26491 8.44846,0.40437c7.13106,-1.84608 12.34378,-8.27472 14.76466,-4.67064c2.50983,3.64976 -3.56389,15.25708 -16.24372,13.24167c-4.37568,-0.67342 -7.75593,-2.40946 -10.46783,-3.91464c-0.71163,-0.36549 -6.52969,-4.14044 -7.11129,-8.26133c-0.58162,-4.12089 1.34179,-4.14483 2.23617,-4.13516c1.02901,-0.0336 5.075,6.3162 8.37356,7.33576z" fill="#ffab19" stroke="#001026" stroke-width="1.2" stroke-linecap="round" stroke-linejoin="round"/><path d="M278.72613,205.18229c1.50496,1.44744 0.47574,5.64035 -2.0128,8.29692c-2.48853,2.65654 -4.73412,3.52676 -6.48443,4.08926c0.4977,-0.53131 1.8586,-2.30556 0.94028,-4.23862c-1.09139,-2.4716 -4.79386,-3.36137 -4.79386,-3.36137c0,0 4.49363,-1.96401 7.15038,-3.63482c2.47403,-1.31498 3.60409,-2.42088 5.20041,-1.15136z" fill="#ffffff" stroke="none" stroke-width="1" stroke-linecap="butt" stroke-linejoin="miter"/></g><path d="M238.13779,183.67832c2.59807,-0.93567 5.46274,0.41197 6.39841,3.01005c0.21254,0.59013 0.30725,1.19401 0.29628,1.78592c0.91691,1.67334 -2.26794,4.35117 -2.97931,5.68261c-2.67489,5.00646 -5.57066,7.26238 -11.78956,9.01008c-2.54135,0.7142 -5.22197,0.25656 -6.39841,-3.01005c-2.23309,-6.20062 5.4425,-6.73843 8.34284,-9.15646c1.55431,-1.29584 4.21768,-8.06058 6.12975,-7.32215z" fill="#ffab19" fill-rule="nonzero" stroke="#000000" stroke-width="1.2" stroke-linecap="butt" stroke-linejoin="miter"/><path d="M261.09396,195.38244c-1.01044,-0.71708 -2.35284,-1.93697 -3.70968,-3.05824c-2.26623,-1.83592 -5.32615,-5.86809 -0.01349,-7.52123c4.2588,-1.38168 7.4921,1.46716 11.38942,4.62888c1.97753,1.72999 4.31591,3.76557 2.95854,6.80058c-1.5162,3.42701 -7.91256,13.16868 -13.39783,9.77074c-3.92622,-2.96451 0.01522,-6.33303 2.64291,-9.04051c0.3754,-0.48574 0.36103,-1.07985 0.13011,-1.58021z" fill="#ffab19" fill-rule="evenodd" stroke="#001026" stroke-width="1.2" stroke-linecap="round" stroke-linejoin="round"/><g fill-rule="nonzero" stroke-linecap="round" stroke-linejoin="miter"><g><path d="M222.02083,227.85914l9.51355,-21.37077c0,0 1.15879,-4.23052 3.52727,-10.93438c1.15074,-3.25714 1.81451,-9.34296 4.2516,-11.50492c3.75834,-3.33406 11.31862,-2.93848 11.31862,-2.93848c0,0 8.41463,0.94282 9.44809,5.96558c0.82231,3.99647 -1.38068,7.48964 -2.3764,11.68281c-0.95003,4.0007 -0.67693,8.79794 -0.67693,8.79794l5.0478,10.52517l-0.23092,12.4484c0,0 4.26378,0.74194 4.93816,2.67135c0.67439,1.92942 -1.39004,7.47977 -1.39004,7.47977l-18.36188,0.26713l-5.3828,-5.07555l0.38941,-5.97043l2.71537,-10.27536c0,0 -1.73806,-12.06821 -2.64094,-9.34629c-0.73217,2.2073 -4.70679,17.58828 -4.70679,17.58828l-1.02562,8.0071l-19.23757,1.52461l-3.81465,-0.72651c0,0 -3.16152,-3.85883 -0.48635,-6.57117c2.67517,-2.71233 9.181,-2.24428 9.181,-2.24428z" fill="#ffab19" stroke="#001026" stroke-width="1.2"/><path d="M244.68042,209.87232c0,0 -3.44758,-0.13044 -4.78058,-1.44339" fill="none" stroke="#001026" stroke-width="1.2"/><path d="M242.31759,203.29382c-4.28672,-0.62129 -3.72915,-4.65944 -3.0057,-8.53063c0.81147,-4.34217 2.00589,-8.95576 6.842,-8.37947c5.30539,0.6322 5.12443,5.16769 4.15271,9.92277c0,0 -1.81147,7.88266 -7.98901,6.98733z" fill="#ffffff" stroke="#000000" stroke-width="0"/></g><path d="M248.38411,232.93395c0,0 1.82683,-2.58006 13.20871,-2.47002" fill="none" stroke="#001026" stroke-width="1.2"/></g><g><g><path d="M227.3595,151.02794c0,0 -5.38807,-27.05887 -4.31318,-27.13376c1.44807,-0.1009 27.61521,8.79345 27.61521,8.79345" fill="#ffab19" fill-rule="nonzero" stroke="#001026" stroke-width="1.2" stroke-linecap="round" stroke-linejoin="miter"/><path d="M281.9183,150.09561l13.70633,14.10874l-2.47907,5.65458l-30.37579,1.45304z" fill="#9b7f41" fill-rule="nonzero" stroke="#001026" stroke-width="1.2" stroke-linecap="round" stroke-linejoin="miter"/><path d="M218.6391,171.16948c0,0 -7.10604,1.16365 -12.39938,-1.75364" fill="none" fill-rule="evenodd" stroke="#001026" stroke-width="1.2" stroke-linecap="round" stroke-linejoin="round"/><path d="M219.27949,177.04826c0,0 -3.50655,2.55422 -9.79666,3.1663" fill="none" fill-rule="evenodd" stroke="#001026" stroke-width="1.2" stroke-linecap="round" stroke-linejoin="round"/><path d="M243.44842,139.937c10.88551,-3.42741 41.46113,1.53501 37.1962,29.16108c-0.0556,0.36016 -0.19394,0.70296 -0.33062,1.04437c-4.99174,12.46806 -18.96395,20.136 -38.12143,19.78877c-19.15748,-0.34722 -25.38252,-10.20873 -25.20026,-16.03082c0.18225,-5.82209 6.80421,-9.13415 6.80421,-9.13415c0,0 -0.69037,-4.44785 1.49598,-10.42362c0,0 2.25191,-9.3981 18.15594,-14.40564z" fill="#ffab19" fill-rule="evenodd" stroke="#001026" stroke-width="1.2" stroke-linecap="butt" stroke-linejoin="miter"/><path d="M241.26545,167.03931c8.3751,-0.88174 18.1019,-11.85669 26.57378,-2.49683c8.45436,9.26142 -0.34339,25.45431 -25.04515,24.77379c-18.94305,-0.28383 -25.47424,-9.58295 -25.29199,-15.40504c0.18225,-5.82209 6.65989,-8.80373 6.65989,-8.80373c8.03533,-3.36057 9.9273,2.70166 17.10346,1.93183z" fill="#ffffff" fill-rule="evenodd" stroke="none" stroke-width="1" stroke-linecap="butt" stroke-linejoin="miter"/><path d="M245.96013,164.88299c0.28047,1.57522 -3.41626,4.77275 -5.22346,4.89137c-1.59276,0.18202 -3.56035,-2.31169 -3.7073,-3.70755c-0.02425,-0.7067 2.10663,-1.28923 4.17411,-1.65734c1.96903,-0.35058 4.64475,-0.72543 4.75665,0.47353z" fill="#001026" fill-rule="evenodd" stroke="#001026" stroke-width="1.2" stroke-linecap="round" stroke-linejoin="round"/><path d="M276.42764,160.24261c-2.95041,5.27495 -9.59718,8.04451 -9.59718,8.04451" fill="none" fill-rule="evenodd" stroke="#001026" stroke-width="1.2" stroke-linecap="round" stroke-linejoin="round"/><path d="M279.3846,171.12315c-5.66258,2.80631 -9.9894,2.49238 -9.9894,2.49238" fill="none" fill-rule="evenodd" stroke="#001026" stroke-width="1.2" stroke-linecap="round" stroke-linejoin="round"/><path d="M269.29542,149.16661l-43.55555,2.5365l-0.28997,-22.79904l48.17169,-1.83553l13.98364,17.70361l-6.05472,16.13383z" fill="#c58600" fill-rule="nonzero" stroke="#001026" stroke-width="1.2" stroke-linecap="round" stroke-linejoin="miter"/><path d="M273.42598,127.27284l-4.1348,21.69386" fill="none" fill-rule="nonzero" stroke="#001026" stroke-width="0.75" stroke-linecap="round" stroke-linejoin="miter"/><path d="M279.79642,135.13774l-5.76632,-7.67787c0,0 15.26462,-4.06115 16.32316,-3.75161c1.18625,0.34688 -10.22594,26.82593 -10.22594,26.82593z" fill="#ffab19" fill-rule="nonzero" stroke="#001026" stroke-width="1.2" stroke-linecap="round" stroke-linejoin="miter"/></g><g><g fill-rule="evenodd"><path d="M236.93285,148.41035c3.07217,1.28132 3.86771,6.31987 1.80143,11.25854c-1.45482,3.33083 -3.81112,5.72115 -6.13264,6.54179c-1.70657,-0.74002 -3.55667,-1.49625 -5.46115,-2.17917c-1.09365,-2.23643 -1.02538,-5.67803 0.3948,-9.07244c2.06628,-4.93867 6.30787,-7.92847 9.39757,-6.54871z" fill="#ffffff" stroke="#001026" stroke-width="1.2" stroke-linecap="round" stroke-linejoin="round"/><path d="M227.71134,159.72664c-0.19281,-1.08297 0.43703,-2.10927 1.42154,-2.28456c0.98453,-0.1753 1.9299,0.57054 2.12271,1.65351c0.19281,1.08297 -0.43703,2.10927 -1.42153,2.28455c-0.98453,0.1753 -1.9299,-0.57053 -2.12271,-1.6535" fill="#001026" stroke="none" stroke-width="1" stroke-linecap="butt" stroke-linejoin="miter"/></g><g fill="none" fill-rule="nonzero" stroke="none" stroke-width="1" stroke-linecap="butt" stroke-linejoin="miter" font-family="sans-serif" font-weight="normal" font-size="12" text-anchor="start"/><g fill="none" fill-rule="nonzero" stroke="none" stroke-width="1" stroke-linecap="butt" stroke-linejoin="miter" font-family="sans-serif" font-weight="normal" font-size="12" text-anchor="start"/></g></g><path d="M240.95465,196.58995c-0.55584,1.34721 -0.57989,3.10796 -1.45641,4.20581c-0.13367,0.16742 -0.28719,0.31944 -0.46543,0.45221c-2.11943,1.57877 -9.2543,2.55908 -10.75526,2.4473c-3.24225,-0.24147 -6.15936,-4.01714 -4.87895,-7.26349c1.38701,-3.51659 7.15392,-3.28567 9.78915,-3.68298c1.25175,-0.18872 3.85827,-1.33273 4.7753,-0.11884z" fill="#ffab19" fill-rule="nonzero" stroke="#000000" stroke-width="1.2" stroke-linecap="butt" stroke-linejoin="miter"/><g fill-rule="nonzero" stroke="#000000" stroke-width="1.2" stroke-linejoin="miter"><path d="M243.06957,198.78709c-2.67674,-3.90442 -1.68153,-9.23953 2.2229,-11.91627c3.90442,-2.67674 9.23953,-1.68152 11.91627,2.22291c2.67674,3.90442 1.68153,9.23953 -2.22291,11.91627c-3.90442,2.67674 -9.23952,1.68152 -11.91627,-2.22291z" fill="#5c5e5f" stroke-linecap="butt"/><g stroke-linecap="round"><path d="M246.40174,202.73806l-1.22442,4.58066l-2.32276,0.55318l-3.67618,2.52027l-2.55671,-2.81981z" fill="#ffab19"/><path d="M247.99787,197.48688l-0.82064,6.38231l-3.87807,1.61945l-1.17559,1.0138l-3.59529,1.42558l-0.65448,0.86438l-3.46191,0.7106l-4.15211,-4.84375l-0.75069,-6.55212l11.90096,-6.28831z" fill="#ffab19"/><path d="M242.6126,203.88085l0.81627,-3.05377" fill="none"/><path d="M238.79137,202.55147l-0.61439,3.95459" fill="none"/></g><path d="M234.27486,206.2714l-3.63974,1.6639l-2.98089,-2.52902l0.23468,-3.90212l2.93279,-1.17923l3.54646,2.14128z" fill="#5c5e5f" stroke-linecap="round"/></g><path d="M246.48721,161.69108l23.04268,-18.58867l3.13678,8.62127l-6.51367,3.96296l7.46664,2.5379l-1.97341,7.63928z" fill="#000000" fill-rule="nonzero" stroke="#001026" stroke-width="0" stroke-linecap="round" stroke-linejoin="miter"/><path d="M255.53052,186.47508c-9.04616,2.67038 -18.70827,-9.82194 -18.70827,-9.82194c1.40123,2.83766 6.61188,-0.65178 12.8365,-2.63023c5.98167,-1.90122 13.73814,-1.89392 14.23572,-4.9772c0,0 0.6822,14.75899 -8.36396,17.42937z" fill="#ffffff" fill-rule="nonzero" stroke="#001026" stroke-width="1.2" stroke-linecap="round" stroke-linejoin="miter"/></g></g></svg>