<svg version="1.1" xmlns="http://www.w3.org/2000/svg" xmlns:xlink="http://www.w3.org/1999/xlink" width="87.54046" height="137.30993" viewBox="0,0,87.54046,137.30993"><g transform="translate(-190.6331,-87.51933)"><g stroke-miterlimit="10"><path d="M236.38301,167.33437c2.95438,1.46986 3.46618,4.54588 1.14313,6.8705c-0.52765,0.52802 -1.1562,0.97184 -1.84715,1.32527c-1.26944,1.74424 -6.65765,0.87876 -8.70741,1.13399c-7.70749,0.9597 -12.40023,0.06338 -18.90428,-3.75591c-2.65788,-1.56074 -4.06395,-3.94773 -1.14313,-6.8705c5.54423,-5.54797 11.70313,0.15638 16.58624,0.95713c2.61688,0.42914 12.34511,-1.61508 12.87261,0.33953z" fill="#ffab19" fill-rule="nonzero" stroke="#000000" stroke-width="1.2" stroke-linecap="butt" stroke-linejoin="miter"/><g fill-rule="evenodd"><path d="M261.03801,190.77698c-1.91854,-2.87039 -9.15894,-4.93596 -9.42041,-5.93176c-0.26451,-0.85443 -0.79049,-2.70468 3.325,-3.32331c4.1155,-0.61863 9.39389,3.88011 9.94726,4.45785c2.21655,2.16955 4.84508,4.91377 6.73926,8.91528c5.55031,11.57731 -3.84091,20.71104 -8.05515,19.34721c-4.14507,-1.29163 0.52855,-8.12223 0.2627,-15.48358c-0.07136,-3.25498 -1.49963,-5.90264 -2.79866,-7.9817z" fill="#ffab19" stroke="#001026" stroke-width="1.2" stroke-linecap="round" stroke-linejoin="round"/><path d="M263.30338,213.67061c-1.67231,-1.16766 -0.93491,-2.56631 -0.38067,-5.31274c0.8431,-3.0231 1.443,-7.89035 1.443,-7.89035c0,0 1.90942,3.29454 4.58971,3.63518c2.11474,0.32843 3.42681,-1.48221 3.79399,-2.11085c-0.03959,1.83803 -0.23274,4.23859 -2.06859,7.38178c-1.83588,3.14319 -5.56069,5.32623 -7.37743,4.29694z" fill="#ffffff" stroke="none" stroke-width="1" stroke-linecap="butt" stroke-linejoin="miter"/></g><g fill-rule="nonzero" stroke-linecap="butt" stroke-linejoin="miter"><path d="M246.09627,214.20505c0.38974,3.07136 -14.04018,9.90697 -14.04018,9.90697c0,0 -5.1182,-4.80388 -2.20021,-8.1412c1.35982,-1.55522 4.96497,-7.51335 4.99533,-9.10724c0.1064,-5.58524 -2.18925,-10.13021 0.14096,-15.57715c0.42926,-1.00342 1.28554,-3.27748 2.46426,-4.67557c0.93002,-2.54677 5.61965,-2.50465 7.66613,-0.53275c5.86533,5.65156 -1.27464,10.40829 0.97371,28.12695z" fill="#ffab19" stroke="#001026" stroke-width="1.2"/><g><path d="M233.21212,183.99351c-0.79055,-3.92511 3.26218,-9.21359 3.26218,-9.21359c0,0 -0.30204,-3.44501 1.29389,-5.66103c3.29895,-4.58077 18.17682,-3.61496 19.05474,4.39926c0.32941,3.00706 -1.64552,5.9684 -1.64552,5.9684c0,0 0.8498,5.74565 -0.40012,8.53936c-1.06308,2.37608 -7.97707,6.21359 -13.1721,4.68698c-0.53961,-0.15857 -1.04383,-0.33533 -1.51503,-0.52719" fill="#ffab19" stroke="#001026" stroke-width="1.2"/><path d="M240.54622,170.65061c3.40162,-2.03182 7.94097,1.63405 8.18082,5.57994c0.02895,0.47619 0.04931,1.03352 0.01193,1.58506c0.761,2.10244 -1.38174,6.51217 -3.02508,6.81359c-5.68864,1.04341 -12.17166,-5.6243 -7.12681,-9.77886c0.05975,-1.72111 0.79979,-3.50724 1.95912,-4.19973z" fill="#ffffff" stroke="none" stroke-width="0.5"/></g><path d="M248.40579,191.38255c0.89025,2.31833 0.1884,6.43162 0.1884,6.43162c0,0 -1.61814,8.05828 -2.37015,9.33547c-3.42281,5.81317 -14.44244,9.84562 -14.9072,0.92584c-0.10933,-2.09823 1.37732,-3.65141 2.28949,-5.39232c0.41591,-0.7938 1.90415,-8.41062 1.36955,-10.86715c-0.92961,-4.27167 -3.52138,-9.17258 -2.28064,-13.68068c2.20857,-8.02452 17.92075,1.10925 18.36046,1.89821" fill="#ffab19" stroke="#001026" stroke-width="1.2"/></g><g><g><g><g><path d="M214.57568,131.00123c0,0 -9.6763,-25.83761 -8.62753,-26.08466c1.4129,-0.33284 28.67104,4.23039 28.67104,4.23039" fill="#ffab19" fill-rule="nonzero" stroke="#001026" stroke-width="1.2" stroke-linecap="round" stroke-linejoin="miter"/><path d="M268.27188,121.29282l0.11138,-1.22015l4.89593,-1.45178l4.2746,4.31073l-0.67557,8.56779l-24.08731,13.81713z" fill="#9b7f41" fill-rule="nonzero" stroke="#001026" stroke-width="1.2" stroke-linecap="round" stroke-linejoin="miter"/><path d="M209.21352,152.28444c0,0 -6.82582,2.29308 -12.51995,0.26654" fill="none" fill-rule="evenodd" stroke="#001026" stroke-width="1.2" stroke-linecap="round" stroke-linejoin="round"/><path d="M210.79252,157.98328c0,0 -3.04933,3.08568 -9.15871,4.703" fill="none" fill-rule="evenodd" stroke="#001026" stroke-width="1.2" stroke-linecap="round" stroke-linejoin="round"/><path d="M228.66798,117.46357c10.19128,-5.13608 41.16696,-5.16355 41.40771,22.78875c0.00315,0.36441 -0.07818,0.72503 -0.15808,1.084c-2.91821,13.10931 -15.47282,22.92776 -34.43607,25.67091c-18.96325,2.74318 -26.69547,-5.98683 -27.45341,-11.76224c-0.75794,-5.77542 5.24403,-10.11089 5.24403,-10.11089c0,0 -1.3978,-4.27858 -0.20258,-10.52847c0,0 0.70867,-9.63811 15.59839,-17.14207z" fill="#ffab19" fill-rule="evenodd" stroke="#001026" stroke-width="1.2" stroke-linecap="butt" stroke-linejoin="miter"/><path d="M230.87912,144.56358c8.12372,-2.21929 15.95566,-14.6177 25.82459,-6.74471c9.83578,7.77866 3.76125,25.17722 -20.72756,28.48454c-18.74141,2.77121 -26.6852,-5.35445 -27.44313,-11.12987c-0.75794,-5.77542 5.15482,-9.76153 5.15482,-9.76153c7.38909,-4.61101 10.23283,1.0673 17.19129,-0.8484z" fill="#ffffff" fill-rule="evenodd" stroke="none" stroke-width="1" stroke-linecap="butt" stroke-linejoin="miter"/><path d="M235.16518,141.67917c0.53055,1.50947 -2.60288,5.26072 -4.36735,5.66889c-1.54264,0.43621 -3.88621,-1.70802 -4.25609,-3.06195c-0.13776,-0.69356 1.87145,-1.61173 3.85263,-2.30806c1.88685,-0.66317 4.46723,-1.46411 4.7708,-0.29885z" fill="#001026" fill-rule="evenodd" stroke="#001026" stroke-width="1.2" stroke-linecap="round" stroke-linejoin="round"/><path d="M264.48733,132.19175c-2.0622,5.68131 -8.17605,9.48536 -8.17605,9.48536" fill="none" fill-rule="evenodd" stroke="#001026" stroke-width="1.2" stroke-linecap="round" stroke-linejoin="round"/><path d="M269.15834,142.45388c-5.13661,3.68177 -9.45747,4.06891 -9.45747,4.06891" fill="none" fill-rule="evenodd" stroke="#001026" stroke-width="1.2" stroke-linecap="round" stroke-linejoin="round"/><path d="M255.66417,122.40924l-42.57821,9.51925l-3.95863,-22.45461l47.24696,-9.571l16.65272,15.21994l-3.37683,16.89844z" fill="#c58600" fill-rule="nonzero" stroke="#001026" stroke-width="1.2" stroke-linecap="round" stroke-linejoin="miter"/><path d="M256.21413,100.13599l-0.5864,22.07659" fill="none" fill-rule="nonzero" stroke="#001026" stroke-width="0.75" stroke-linecap="round" stroke-linejoin="miter"/><path d="M263.76828,106.87207l-6.92776,-6.64878c0,0 14.89359,7.07311 15.98815,7.2081c1.22663,0.15128 -6.25376,14.58276 -6.25376,14.58276z" fill="#ffab19" fill-rule="nonzero" stroke="#001026" stroke-width="1.2" stroke-linecap="round" stroke-linejoin="miter"/></g><path d="M194.01214,145.10124c-8.39487,-20.11401 2.8702,-43.96159 25.16125,-53.26509c22.29105,-9.3035 47.16689,-0.53986 55.56176,19.57416c8.39487,20.11401 -2.87021,43.96159 -25.16125,53.26509c-22.29105,9.3035 -47.1669,0.53986 -55.56176,-19.57415z" fill="none" fill-rule="nonzero" stroke="#ffffff" stroke-width="1.2" stroke-linecap="butt" stroke-linejoin="miter"/><path d="M255.00908,94.57963l0.69242,7.24626l-7.61863,3.36424l-9.58458,-2.56147l3.26014,-11.66617z" fill="#ffffff" fill-rule="nonzero" stroke="#001026" stroke-width="0" stroke-linecap="round" stroke-linejoin="miter"/><path d="M263.49039,106.56285l7.12739,1.16099l-7.09082,-0.91818" fill="#000000" fill-rule="nonzero" stroke="none" stroke-width="0" stroke-linecap="round" stroke-linejoin="miter"/></g><g stroke="#001026" stroke-linejoin="miter"><g fill="#000000" fill-rule="evenodd" stroke-width="1" stroke-linecap="butt" font-family="&quot;Times New Roman&quot;" font-weight="400" font-size="16" text-anchor="start"/><g fill="#000000" fill-rule="evenodd" stroke-width="1" stroke-linecap="butt" font-family="&quot;Times New Roman&quot;" font-weight="400" font-size="16" text-anchor="start"/><g fill="#ffffff" fill-rule="nonzero" stroke-width="1.2" stroke-linecap="round"><path d="M240.13595,152.06873c11.74117,-7.1905 9.07062,-13.32867 9.63336,-13.33284c1.03852,-0.00768 7.23732,19.60716 -0.07859,24.28105c-7.03573,4.49489 -23.55186,-7.96744 -22.53429,-9.16296c0.55566,-0.65283 1.23835,5.40524 12.97952,-1.78526z"/></g></g></g><path d="M236.71945,139.0017l5.5,-16.25l14.75,11.75l-2.75,1.25l-10.75,-8.75l-3.25,11.5z" fill="#001026" fill-rule="nonzero" stroke="#001026" stroke-width="0.5" stroke-linecap="round" stroke-linejoin="miter"/><path d="M225.27878,142.82474l-6.44952,-8.82577l-4.18307,12.62873l-2.34872,0.11254l5.83332,-17.09914l9.7374,12.0653z" fill="#001026" fill-rule="nonzero" stroke="#001026" stroke-width="0.5" stroke-linecap="round" stroke-linejoin="miter"/></g><g fill-rule="nonzero" stroke="#000000" stroke-width="1.2" stroke-linejoin="miter"><path d="M212.22618,164.23475c0.96649,-4.63415 5.50674,-7.60739 10.14089,-6.64088c4.63415,0.96649 7.60737,5.50674 6.64088,10.14088c-0.96649,4.63415 -5.50672,7.60738 -10.14088,6.64088c-4.63415,-0.96649 -7.60737,-5.50672 -6.64088,-10.14088z" fill="#5c5e5f" stroke-linecap="butt"/><g stroke-linecap="round"><path d="M211.67963,169.37428l-4.15417,2.28572l-2.00665,-1.29408l-4.36325,-0.91l0.26653,-3.79699z" fill="#ffab19"/><path d="M216.57508,166.89293l-5.17543,3.82389l-3.85262,-1.67908l-1.54536,-0.14718l-3.51699,-1.6091l-1.07691,0.12563l-2.90853,-2.00754l0.62373,-6.34924l4.21071,-5.07579l12.77478,4.24035z" fill="#ffab19"/><path d="M208.23265,167.42956l2.76945,-1.52382" fill="none"/><path d="M206.54819,163.75103l-3.28007,2.2929" fill="none"/></g><path d="M200.73739,163.06448l-3.7198,-1.47628l-0.2369,-3.90199l2.97944,-2.53071l2.88072,1.30128l0.90818,4.04198z" fill="#5c5e5f" stroke-linecap="round"/></g><path d="M257.24555,163.50551c1.09702,0.74531 1.45508,1.33541 1.71769,2.03705c0.1643,0.34335 0.29057,0.70837 0.37335,1.08961c0.0556,0.1528 0.11765,0.31298 0.18969,0.48202c0.22593,0.53015 0.23826,2.18975 0.47224,1.66311c1.72526,-3.88325 2.91096,-13.82446 9.81774,-10.37107c1.50231,0.75116 2.26394,2.59918 2.79508,4.19263c0.52573,1.5772 -2.23653,6.55361 -2.85256,8.09986c-1.30396,3.27294 -1.21252,9.56406 -4.62622,11.83649c-7.44078,4.95318 -13.75291,-6.37815 -15.12058,-12.5327c-0.35875,-0.68959 -0.56151,-1.4733 -0.56151,-2.30437c0,-2.76142 2.23858,-5 5,-5c0.44447,0 0.8754,0.058 1.28563,0.16683c0.53316,0.11475 1.0452,0.32513 1.50945,0.64054z" fill="#ffab19" fill-rule="nonzero" stroke="#000000" stroke-width="1.2" stroke-linecap="butt" stroke-linejoin="miter"/><g fill-rule="nonzero" stroke-linejoin="miter"><path d="M275.12448,154.22863c0,0 3.89475,7.59083 -1.08699,11.80059c-4.20569,3.55397 -12.89797,3.44442 -12.89797,3.44442c0,0 -4.32704,1.70585 -5.72959,-1.9844c-1.85843,-4.88974 3.04796,-5.78036 3.04796,-5.78036l-1.17417,-2.16865c0,0 -6.07722,-6.68777 -1.85678,-10.72176c1.57369,-1.50418 5.53175,-0.48466 5.53175,-0.48466c0,0 1.86858,-1.70287 3.75831,-2.37166c1.44093,-0.50996 4.34073,1.27139 4.34073,1.27139c0,0 2.06782,-1.6752 4.21051,0.26903c3.14479,2.85352 1.85625,6.72607 1.85625,6.72607z" fill="#ffab19" stroke="#001026" stroke-width="1.2" stroke-linecap="round"/><path d="M263.77331,154.24401l-1.4656,-3.71898" fill="none" stroke="#001026" stroke-width="1.2" stroke-linecap="round"/><path d="M271.04365,150.96628l-0.90388,-1.28569" fill="none" stroke="#001026" stroke-width="1.2" stroke-linecap="round"/><path d="M262.21204,152.58559c0.96879,2.07578 0.68757,4.26606 -0.62812,4.89212c-1.31569,0.62606 -3.16762,-0.54917 -4.13641,-2.62495c-0.96878,-2.07578 -0.68757,-4.26606 0.62812,-4.89212c1.31569,-0.62606 3.16762,0.54917 4.13641,2.62495z" fill="#ffffff" stroke="none" stroke-width="0" stroke-linecap="butt"/><path d="M269.006,150.48803c0.574,1.74189 0.06039,3.48287 -1.14718,3.88858c-1.20756,0.40571 -2.65181,-0.67748 -3.2258,-2.41937c-0.574,-1.74189 -0.06039,-3.48287 1.14718,-3.88858c1.20756,-0.40571 2.65181,0.67748 3.2258,2.41937z" fill="#ffffff" stroke="none" stroke-width="0" stroke-linecap="butt"/><path d="M273.88698,150.14479c0.59501,1.44011 0.6013,2.80811 0.01403,3.0555c-0.58727,0.24739 -1.5457,-0.7195 -2.14072,-2.15961c-0.59501,-1.44011 -0.6013,-2.80811 -0.01403,-3.0555c0.58727,-0.24739 1.5457,0.7195 2.14072,2.15961z" fill="#ffffff" stroke="none" stroke-width="0" stroke-linecap="butt"/><path d="M260.8998,168.67869c-1.1305,0.34759 -2.44408,-0.68753 -2.93395,-2.31199c-0.48987,-1.62446 0.02946,-3.22312 1.15997,-3.57071c1.1305,-0.34759 2.90449,5.53511 1.77398,5.88269z" fill="#ffffff" stroke="none" stroke-width="0" stroke-linecap="butt"/><path d="M275.06543,159.16788c0.99547,3.3011 -1.06719,4.85174 -4.20784,6.25372c-3.14065,1.40198 -6.16999,2.12439 -7.16547,-1.17671c-0.49086,-1.62775 1.94403,-2.42021 2.6231,-3.94636c0.69809,-1.5689 -0.33093,-3.85864 1.26109,-4.56932c1.86186,-0.83113 2.46777,1.49686 3.94347,2.48744c1.01356,0.68037 3.14032,-0.3929 3.54565,0.95122z" fill="#ffffff" stroke="none" stroke-width="0" stroke-linecap="butt"/></g></g></g></svg>