<svg version="1.1" xmlns="http://www.w3.org/2000/svg" xmlns:xlink="http://www.w3.org/1999/xlink" width="93.83921" height="124.75958" viewBox="0,0,93.83921,124.75958"><g transform="translate(-187.53953,-119.59736)"><g stroke-miterlimit="10"><path d="M227.39897,217.63054c0,-7.85536 6.36803,-14.2234 14.2234,-14.2234c7.85536,0 14.2234,6.36803 14.2234,14.2234c0,7.85536 -6.36803,14.2234 -14.2234,14.2234c-7.85536,0 -14.2234,-6.36803 -14.2234,-14.2234z" fill="#d5d5d5" fill-rule="nonzero" stroke="#001026" stroke-width="1.2" stroke-linecap="butt" stroke-linejoin="miter"/><path d="M195.95564,225.31865c0,-8.22195 6.66521,-14.88716 14.88716,-14.88716c8.22195,0 14.88716,6.66521 14.88716,14.88716c0,8.22195 -6.66521,14.88716 -14.88716,14.88716c-8.22195,0 -14.88716,-6.66521 -14.88716,-14.88716z" fill="#d5d5d5" fill-rule="nonzero" stroke="#001026" stroke-width="1.2" stroke-linecap="butt" stroke-linejoin="miter"/><path d="M251.84713,213.4091c0,0 7.68445,-9.3862 11.8577,-14.48365c4.66682,-5.70032 -1.02014,-26.2215 -1.02014,-26.2215l10.82007,0.52871c0,0 4.11623,23.24923 0.1394,29.02226c-4.54294,6.59482 -14.59887,21.19263 -14.59887,21.19263z" fill="#2b2b2b" fill-rule="nonzero" stroke="#001026" stroke-width="1.2" stroke-linecap="butt" stroke-linejoin="miter"/><path d="M196.63841,211.7301l-0.78849,-4.75156c0,0 44.54056,-0.4483 57.22032,0.5058c6.07868,0.4574 14.96231,4.92568 14.96231,4.92568l-1.2276,7.16955c0,0 -25.32442,2.075 -37.30304,0.73497c-11.37947,-1.27301 -32.8635,-8.58443 -32.8635,-8.58443z" fill="#2b2b2b" fill-rule="nonzero" stroke="#001026" stroke-width="1.2" stroke-linecap="butt" stroke-linejoin="miter"/><path d="M195.84992,207.60217l0.98208,-67.27224c0,0 9.80035,-20.13257 16.94082,-20.13257c10.60422,0 39.52858,0 39.52858,0v87.40481z" fill="#2b2b2b" fill-rule="nonzero" stroke="#001026" stroke-width="1.2" stroke-linecap="butt" stroke-linejoin="miter"/><path d="M258.51194,229.93542c2.94029,0.0631 8.64178,0.41031 6.72259,5.39388c-1.7998,4.83623 -19.02176,4.40107 -19.48316,-0.72103c0.01094,-2.16706 4.48789,-9.75126 4.7806,-11.49693c0.54848,-2.99206 -12.36582,-0.77247 -17.37624,-4.18837c-2.31348,-1.57724 1.05111,-9.813 1.04808,-10.53811c-0.00959,-2.29555 17.81601,4.66931 26.65855,6.41268c-1.57903,3.84607 -2.79073,15.06599 -2.35042,15.13789z" fill="#ffab19" fill-rule="evenodd" stroke="#001026" stroke-width="1.2" stroke-linecap="round" stroke-linejoin="round"/><path d="M272.71785,192.63698c-1.80044,3.32505 -19.56763,12.07057 -26.23581,9.68425c-2.3446,-0.83906 -14.58885,-22.50798 -7.19138,-24.27499c7.39746,-1.76701 9.2446,5.72517 11.19862,10.04629c1.59373,3.66489 15.24204,-1.38606 16.22909,-1.55687c2.05942,-0.45318 3.10521,0.67414 4.3065,2.29685c0.81281,1.09796 2.41817,2.3319 1.693,3.80447z" fill="#ffab19" fill-rule="evenodd" stroke="#001026" stroke-width="1.2" stroke-linecap="round" stroke-linejoin="round"/><g fill-rule="evenodd"><path d="M225.56031,205.36004c0.81603,0.82869 2.52906,2.65117 -1.85412,5.82483c-4.38319,3.17366 -13.16724,1.13229 -14.15153,0.79575c-3.85623,-1.18105 -8.53166,-2.77961 -13.11028,-6.26895c-13.32787,-10.0537 -7.94011,-26.21367 -2.25823,-27.15683c5.55883,-0.98522 4.24302,9.69594 8.94878,18.03847c2.02743,3.71644 5.25896,5.92069 8.00153,7.54549c3.93087,2.16851 13.52686,0.22745 14.42386,1.22124z" fill="#ffab19" stroke="#001026" stroke-width="1.2" stroke-linecap="round" stroke-linejoin="round"/><path d="M198.45446,184.96134c0.83278,3.99509 3.04839,9.97458 3.04839,9.97458c0,0 -4.17378,-2.66382 -7.4727,-1.4556c-2.63851,0.88434 -3.07184,3.75944 -3.12023,4.70484c-1.05261,-2.14636 -2.264,-5.03411 -2.02202,-9.76108c0.24198,-4.72698 3.23918,-9.47388 5.95232,-9.37076c2.62901,0.34919 2.6132,2.40509 3.61424,5.90804z" fill="#ffffff" stroke="none" stroke-width="1" stroke-linecap="butt" stroke-linejoin="miter"/></g><g fill-rule="evenodd"><path d="M230.26727,213.94604c-15.62577,-5.16765 -9.16261,-13.71796 -8.71816,-21.33442c0.62084,-6.62347 2.47642,-6.29597 10.67525,-8.44816c4.53662,-1.44367 7.20882,-2.28558 9.88691,-3.74696c4.04753,-2.12986 6.21746,4.21044 6.61623,7.86971c0,0 0.50553,5.45704 0.04172,8.61242c-0.35072,2.26385 -2.67783,12.00051 -7.84937,16.15262c-3.59065,2.88287 -10.65258,0.89479 -10.65258,0.89479z" fill="#ffab19" stroke="#001026" stroke-width="1.2" stroke-linecap="round" stroke-linejoin="round"/><path d="M245.46437,205.60297c0,0 -2.59664,-0.5824 -5.50006,-1.47749c-3.58372,-1.02552 -6.98511,-1.67755 -6.37907,-6.75224c0.78244,-4.08169 0.95424,-9.09855 8.31874,-8.22283c6.99398,0.74828 6.14782,5.01522 6.14782,5.01522c-0.00427,6.93913 -2.58744,11.43731 -2.58744,11.43731z" fill="#ffffff" stroke="none" stroke-width="1" stroke-linecap="butt" stroke-linejoin="miter"/></g><path d="M230.05409,219.54669c0.52584,7.96691 -1.95842,14.61747 -5.54876,14.85444c-3.59034,0.23697 -6.92715,-6.02938 -7.45299,-13.99629c-0.52584,-7.96691 4.65896,-16.31001 8.2493,-16.54698c3.59034,-0.23697 4.22661,7.72192 4.75245,15.68883z" fill="#ffab19" fill-rule="nonzero" stroke="#001026" stroke-width="1.2" stroke-linecap="butt" stroke-linejoin="miter"/><path d="M243.96263,237.01205c0,3.72511 -9.13169,6.74489 -20.39619,6.74489c-11.26451,0 -20.39619,-3.01978 -20.39619,-6.74489c0,-3.72511 9.13169,-6.74489 20.39619,-6.74489c11.26451,0 20.39619,3.01978 20.39619,6.74489z" fill="#ffab19" fill-rule="nonzero" stroke="#001026" stroke-width="1.2" stroke-linecap="butt" stroke-linejoin="miter"/><path d="M258.2809,176.28592c0.90635,-4.55255 5.33165,-7.50838 9.8842,-6.60204c4.55255,0.90634 7.50839,5.33166 6.60204,9.88421c-0.90635,4.55255 -5.33166,7.50838 -9.88421,6.60204c-4.55255,-0.90634 -7.50839,-5.33166 -6.60204,-9.88421z" fill="#ffab19" fill-rule="nonzero" stroke="#001026" stroke-width="1.2" stroke-linecap="butt" stroke-linejoin="miter"/><path d="M203.61203,194.2421c1.965,-3.74509 25.08753,-14.88399 30.304,-11.53325c3.94755,8.07751 -6.67155,8.41829 -10.76858,10.20788c-2.46433,1.10213 -4.95923,2.34611 -6.73381,3.00302c-0.17605,0.18799 4.5786,12.81023 2.91909,19.46093c-1.03058,4.13024 -8.54141,3.56366 -9.0822,3.55152c-6.95984,-0.15621 -6.53678,-23.15308 -6.63851,-24.69009z" fill="#ffab19" fill-rule="evenodd" stroke="#001026" stroke-width="1.2" stroke-linecap="round" stroke-linejoin="round"/><g fill-rule="nonzero" stroke="#001026" stroke-width="1.2" stroke-linecap="round" stroke-linejoin="miter"><path d="M265.0703,197.02223l-3.72944,-0.76123l0.29315,-4.44749l-0.70871,-2.28013l3.31581,-3.38925z" fill="#ffab19"/><path d="M276.17938,184.86944l0.66005,13.44395l-6.01889,2.69568l-6.28401,-1.1014l-1.15423,-3.34029l0.40976,-1.0038l-0.60724,-3.81964l0.27253,-1.52824l-0.58468,-4.16176l5.07148,-3.96073z" fill="#ffab19"/><path d="M267.40101,187.72683l-2.21054,2.2595" fill="none"/><path d="M265.19432,195.14059l3.08836,-2.54524" fill="none"/></g><g><path d="M250.15059,126.7305c0.31423,-0.1768 0.80527,-0.03937 0.87481,0.36703l1.78548,10.86564c0,0 6.02725,5.16936 7.67291,8.60329c2.77601,5.7257 2.53629,10.22043 2.53629,10.22043c0,0 6.92137,2.62957 7.68799,8.40385c0.76662,5.77428 -4.43549,16.21162 -23.46102,18.48298c-19.02553,2.27136 -33.69782,-3.95311 -39.91768,-15.85619c-6.21987,-11.90308 5.97409,-24.61951 5.31545,-23.86705l-0.74381,-18.00741c-0.06954,-0.4064 0.45166,-0.66783 0.83543,-0.43824l11.46963,8.7902c0,0 4.61542,-1.35571 9.3171,-1.20062c2.80711,0.01178 5.18519,0.39224 7.44846,0.96459z" fill="#ffab19" fill-rule="evenodd" stroke="#001026" stroke-width="1.2" stroke-linecap="butt" stroke-linejoin="miter"/><path d="M262.69076,157.16306c0,0 6.74456,2.31535 7.5112,8.08962c0.76662,5.77428 -4.79664,15.68287 -23.6152,17.8696c-24.50821,3.16034 -34.88925,-12.0661 -27.40876,-22.13051c7.48802,-10.16413 18.26884,-0.2226 26.69017,-0.18728c7.21721,0.04453 8.49014,-6.17718 16.82261,-3.64143z" fill="#ffffff" fill-rule="evenodd" stroke="none" stroke-width="1" stroke-linecap="butt" stroke-linejoin="miter"/><path d="M218.54205,148.13022c0.50127,-6.62652 6.27949,-11.59201 12.90599,-11.09074c6.62652,0.50127 11.59201,6.27949 11.09074,12.906c-0.50127,6.62652 -6.27948,11.59201 -12.906,11.09074c-6.62652,-0.50127 -11.59199,-6.27948 -11.09072,-12.906z" fill="#ffffff" fill-rule="nonzero" stroke="#001026" stroke-width="1.2" stroke-linecap="butt" stroke-linejoin="miter"/><path d="M280.77873,159.79966c-4.97324,3.43465 -12.16028,2.99126 -12.16028,2.99126" fill="none" fill-rule="evenodd" stroke="#001026" stroke-width="1.2" stroke-linecap="round" stroke-linejoin="round"/><path d="M278.63765,170.86963c-6.31977,0.02337 -10.06534,-2.16541 -10.06534,-2.16541" fill="none" fill-rule="evenodd" stroke="#001026" stroke-width="1.2" stroke-linecap="round" stroke-linejoin="round"/><path d="M245.78655,158.19088c2.09402,0.1584 4.27267,0.52378 4.31958,1.22933c-0.00588,1.40355 -1.71282,4.08243 -3.31581,4.06146c-1.80996,0.06366 -5.80941,-2.74603 -5.68873,-4.34147c-0.00919,-1.20412 2.69066,-1.10018 4.68495,-0.94931z" fill="#001026" fill-rule="evenodd" stroke="#001026" stroke-width="1.2" stroke-linecap="round" stroke-linejoin="round"/><path d="M201.0279,153.30077c0,0 8.36429,3.44072 11.62048,6.7959" fill="none" fill-rule="evenodd" stroke="#001026" stroke-width="1.2" stroke-linecap="round" stroke-linejoin="round"/><path d="M212.68351,163.60939c-4.41598,1.3708 -11.71192,-0.28425 -11.71192,-0.28425" fill="none" fill-rule="evenodd" stroke="#001026" stroke-width="1.2" stroke-linecap="round" stroke-linejoin="round"/><path d="M242.53074,150.19057c-0.14737,1.94808 -2.86015,7.23176 -4.63113,7.0978c-1.77098,-0.13396 -1.89177,-5.632 -1.7444,-7.58008c0.14737,-1.94808 1.68472,-3.43479 3.4557,-3.30082c1.75758,0.31106 3.0672,1.83502 2.91984,3.78311" fill="#001026" fill-rule="evenodd" stroke="none" stroke-width="1" stroke-linecap="butt" stroke-linejoin="miter"/><path d="M245.44749,140.56835c0,0 -1.52514,5.35371 -3.22382,3.35838c-3.22077,-3.78321 -14.11675,-17.16849 -14.11675,-17.16849" fill="none" fill-rule="nonzero" stroke="#001026" stroke-width="2.5" stroke-linecap="round" stroke-linejoin="miter"/><path d="M247.98161,148.91535c0.46079,-6.09137 6.20618,-10.62304 12.83269,-10.12177c6.62652,0.50127 11.62482,5.84566 11.16404,11.93703c-0.46079,6.09137 -6.20618,10.62304 -12.8327,10.12177c-6.62652,-0.50127 -11.6248,-5.84565 -11.16402,-11.93703z" fill="#ffffff" fill-rule="nonzero" stroke="#001026" stroke-width="1.2" stroke-linecap="butt" stroke-linejoin="miter"/><path d="M271.9458,151.29952c-0.13546,1.79075 -2.82181,6.72493 -4.59278,6.59096c-1.77098,-0.13396 -1.91821,-5.28249 -1.78274,-7.07325c0.13546,-1.79075 1.66308,-3.14874 3.43406,-3.01478c1.75867,0.29676 3.07693,1.70631 2.94146,3.49706" fill="#001026" fill-rule="evenodd" stroke="none" stroke-width="1" stroke-linecap="butt" stroke-linejoin="miter"/><path d="M249.02804,143.29992c0,0 3.70199,-3.99661 6.22739,-4.21061c4.25168,-0.36028 17.20453,-1.44342 17.20453,-1.44342" fill="none" fill-rule="nonzero" stroke="#001026" stroke-width="2.5" stroke-linecap="round" stroke-linejoin="miter"/><g stroke="#001026" stroke-width="1.2" stroke-linecap="round"><g><path d="M215.94511,160.07736c0.11104,-0.51703 0.71133,-0.79377 1.20061,-0.55348c2.26159,1.43219 8.79739,4.99921 16.44181,7.18169c6.89664,1.88666 11.11616,2.38713 13.13829,2.41571c0.67404,0.00953 1.05229,0.76685 0.65499,1.35762c-1.91277,3.24014 -8.90635,11.87967 -22.31186,8.18961c-11.48487,-3.81849 -10.87172,-12.34079 -9.12384,-18.59114z" fill="#ffffff" fill-rule="evenodd" stroke-linejoin="round"/><path d="M222.69661,171.08001c0,0 -2.50943,-2.58129 -3.46418,-4.20039c-1.11036,-1.88301 -2.80193,-6.42599 -2.80193,-6.42599" fill="none" fill-rule="nonzero" stroke-linejoin="miter"/></g><path d="M258.47531,169.19347c-1.65245,0.03276 -4.15028,0.12301 -5.9076,0.01511c-2.52828,-0.15522 -6.6576,-0.21852 -6.6576,-0.21852" fill="none" fill-rule="nonzero" stroke-linejoin="miter"/></g></g></g></g></svg>