<svg version="1.1" xmlns="http://www.w3.org/2000/svg" xmlns:xlink="http://www.w3.org/1999/xlink" width="251.73636" height="219.51869" viewBox="0,0,251.73636,219.51869"><g transform="translate(-113.52426,-72.46713)"><g stroke-miterlimit="10"><g fill-rule="evenodd"><path d="M198.56929,187.17887c1.72761,-1.22387 3.73083,-2.88686 4.72637,-5.70916c2.34244,-6.33456 0.23055,-14.48448 4.21121,-13.70341c4.0616,0.74966 9.62197,13.09831 1.46792,20.69089c-2.79726,2.63541 -5.87356,3.82886 -8.42624,4.70844c-0.64765,0.25125 -6.53502,1.76013 -9.94213,-0.68296c-3.4071,-2.44308 -2.41841,-3.82322 -1.94303,-4.45058c0.51328,-0.75278 7.41182,0.77875 9.90592,-0.85322z" fill="#ffab19" stroke="#b83312" stroke-width="1.2" stroke-linecap="round" stroke-linejoin="round"/><path d="M207.10724,168.14281c1.8775,-0.06397 4.49572,3.57099 5.19339,7.17593c0.69767,3.60493 0.17752,5.79987 -0.31507,7.43047c-0.13953,-0.72098 -0.76311,-2.91516 -2.69919,-3.60357c-2.43214,-0.93888 -5.03993,1.06937 -5.03993,1.06937c0,0 0.87321,-4.54654 1.00578,-7.5877c0.30482,-2.66506 0.06366,-4.23248 1.85502,-4.48451z" fill="#ffffff" stroke="none" stroke-width="1" stroke-linecap="butt" stroke-linejoin="miter"/></g><g><path d="M183.08333,136.35986c0,0 1.60998,-28.96941 2.68742,-28.9784c1.45154,-0.0121 21.6932,12.09833 21.6932,12.09833" fill="#ffab19" fill-rule="nonzero" stroke="#b83312" stroke-width="1.2" stroke-linecap="round" stroke-linejoin="miter"/><path d="M234.6096,137.72719l9.55816,20.71715l-2.82042,5.49228l-30.53403,-0.54509z" fill="#9b7f41" fill-rule="nonzero" stroke="#7d5034" stroke-width="1.2" stroke-linecap="round" stroke-linejoin="miter"/><path d="M170.87876,150.04579c0,0 -7.78472,-0.21982 -9.93967,-4.78677" fill="none" fill-rule="evenodd" stroke="#929292" stroke-width="1.2" stroke-linecap="round" stroke-linejoin="round"/><path d="M170.36939,155.92138c0,0 -4.88138,3.33963 -10.00944,0.18913" fill="none" fill-rule="evenodd" stroke="#929292" stroke-width="1.2" stroke-linecap="round" stroke-linejoin="round"/><path d="M196.83342,125.23364c11.07483,-2.75489 41.2895,4.06918 35.3421,31.38251c-0.07754,0.35609 -0.23659,0.68979 -0.39391,1.02219c-5.74531,12.13925 -20.16056,18.93785 -39.26089,17.41901c-19.10034,-1.51884 -24.92095,-13.06797 -24.38276,-18.868c0.76375,-8.16135 7.65515,-9.74204 7.65515,-9.74204c0,0 -0.511,-2.1152 2.03692,-7.94599c0,0 2.82277,-9.24269 19.00341,-13.26766z" fill="#ffab19" fill-rule="evenodd" stroke="#b83312" stroke-width="1.2" stroke-linecap="butt" stroke-linejoin="miter"/><path d="M220.90846,150.01781c7.8718,9.76139 -3.13587,26.65331 -27.7497,24.46254c-18.89018,-1.44244 -24.86318,-12.43464 -24.51261,-18.24903c0.22216,-7.78784 7.49089,-9.42105 7.49089,-9.42105c8.22592,-2.86258 9.50656,2.63623 16.71639,2.30695c7.20983,-0.32929 20.17176,-8.96014 28.05504,0.90059z" fill="#ffffff" fill-rule="evenodd" stroke="none" stroke-width="1" stroke-linecap="butt" stroke-linejoin="miter"/><path d="M196.94103,147.81791c-0.13013,1.35615 -4.55006,3.47016 -6.3409,3.29851c-1.59818,-0.08666 -2.87636,-2.46171 -2.6621,-3.64822c0.15733,-0.5932 2.38229,-0.76011 4.49057,-0.75761c2.0079,0.00238 4.71043,0.09033 4.51243,1.10734z" fill="#001026" fill-rule="evenodd" stroke="#001026" stroke-width="1.2" stroke-linecap="round" stroke-linejoin="round"/><path d="M228.27594,143.42781c-2.24724,5.91519 -9.30873,8.13091 -9.30873,8.13091" fill="none" fill-rule="evenodd" stroke="#929292" stroke-width="1.2" stroke-linecap="round" stroke-linejoin="round"/><path d="M230.17759,154.19027c-4.42973,3.8268 -9.66525,3.60653 -9.66525,3.60653" fill="none" fill-rule="evenodd" stroke="#929292" stroke-width="1.2" stroke-linecap="round" stroke-linejoin="round"/><path d="M224.00196,133.73418l-26.31908,-1.55627l-18.1355,2.31178l5.94933,-22.05473l19.81618,-0.33224l27.64698,3.26233l12.87413,18.5261l-12.25224,17.89578z" fill="#c58600" fill-rule="nonzero" stroke="#aa5300" stroke-width="1.2" stroke-linecap="round" stroke-linejoin="miter"/><path d="M223.99427,133.92881l8.57959,-18.26005" fill="none" fill-rule="nonzero" stroke="#aa5300" stroke-width="0.75" stroke-linecap="round" stroke-linejoin="miter"/><path d="M239.53414,125.26642l-5.28571,-8.01633c0,0 17.20494,-0.02237 18.24255,0.35136c1.16281,0.41881 -13.56868,23.05281 -13.56868,23.05281z" fill="#ffab19" fill-rule="nonzero" stroke="#b83312" stroke-width="1.2" stroke-linecap="round" stroke-linejoin="miter"/><path d="M214.28589,143.73525c-3.03842,3.93763 -7.45,5.13819 -10.73258,3.36806c-2.08793,-1.37059 -2.64299,-4.63749 -1.35399,-7.87508c4.63928,-1.57632 9.27687,-3.27726 13.88053,-5.00258c1.36857,2.49273 0.69687,6.38569 -1.79396,9.50961z" fill="#ffffff" fill-rule="evenodd" stroke="#929292" stroke-width="1.2" stroke-linecap="round" stroke-linejoin="round"/><path d="M188.09187,132.07642c2.59351,2.01932 2.60208,7.18663 0.20729,11.15231c-2.31327,3.96645 -5.8582,5.20147 -8.60572,3.45262c-2.25838,-1.74413 -2.58401,-6.64253 -0.27075,-10.60899c1.4814,-2.5401 3.55587,-4.33095 5.53821,-4.73632c1.11315,-0.22763 2.19726,-0.01838 3.13098,0.74038z" fill="#ffffff" fill-rule="evenodd" stroke="#929292" stroke-width="1.2" stroke-linecap="round" stroke-linejoin="round"/><path d="M205.86775,143.73831c-0.12618,-1.09273 0.56527,-2.07856 1.55867,-2.19328c0.9934,-0.11472 1.89138,0.68755 2.01756,1.78029c0.12618,1.09273 -0.56528,2.07857 -1.55866,2.19328c-0.9934,0.11472 -1.89137,-0.68755 -2.01755,-1.78029" fill="#001026" fill-rule="evenodd" stroke="none" stroke-width="1" stroke-linecap="butt" stroke-linejoin="miter"/><path d="M182.702,143.47564c-0.12618,-1.09273 0.56528,-2.07857 1.55867,-2.19328c0.9934,-0.11472 1.89137,0.68755 2.01756,1.78029c0.12618,1.09273 -0.56528,2.07857 -1.55866,2.19328c-0.9934,0.11472 -1.89138,-0.68755 -2.01756,-1.78029" fill="#001026" fill-rule="evenodd" stroke="none" stroke-width="1" stroke-linecap="butt" stroke-linejoin="miter"/><path d="M231.27197,129.87272c0.84067,-1.82755 -30.03612,9.73268 -30.03612,9.73268l-2.71981,-1.47012l2.0819,-2.68256l-1.67258,-0.98828" fill="none" fill-rule="nonzero" stroke="#001026" stroke-width="1.2" stroke-linecap="round" stroke-linejoin="miter"/><path d="M209.89601,155.87583c0,0 -1.59471,3.49872 -7.36181,2.99936c-5.76711,-0.49936 -10.41319,-2.73545 -13.84749,-2.78919c-3.4343,-0.05374 -5.62614,2.36978 -7.99828,2.44732c-1.89879,0.06207 -2.56677,-1.68225 -2.56677,-1.68225" fill="none" fill-rule="nonzero" stroke="#001026" stroke-width="1.2" stroke-linecap="round" stroke-linejoin="miter"/><path d="M209.33996,156.14767c0.32287,-1.59581 0.19246,-2.40191 0.19246,-2.40191c0,0 1.30621,1.38611 0.93812,2.27195" fill="#001026" fill-rule="nonzero" stroke="#000000" stroke-width="0" stroke-linecap="round" stroke-linejoin="miter"/></g><g fill-rule="nonzero" stroke-linejoin="miter"><g stroke-width="1.2" stroke-linecap="round"><path d="M319.59453,135.36634c0,0 9.51855,-8.33189 10.03768,-8.71563c0.51904,-0.38298 4.50092,-4.20045 14.57481,-4.24024c0,0 -10.05293,28.04542 -25.68642,32.52377c0,0 2.46759,-8.08413 1.07392,-19.5679zM319.62392,135.60921c-0.09616,-0.94769 -0.53386,-2.6582 -0.53386,-2.6582M317.52745,157.05465c0,0 0.7455,-1.30701 0.99313,-2.12041" fill="#be1e2d" stroke="#6f121b"/><path d="M324.99666,151.23939c0,0 -1.33156,-1.38293 -1.01087,-5.24956c0.21267,-2.6136 1.67118,-6.47013 1.67118,-6.47013c0.74509,-0.67398 1.54224,-1.47213 2.28624,-2.36675c1.26036,-1.51316 2.80525,-3.83245 4.24335,-6.13116l0.21725,-0.31388c0,0 3.53926,-4.02567 9.76849,-3.69676l0.06577,0.05011c-1.8603,4.2151 -4.80094,10.36568 -7.70897,14.43728c-3.26169,4.56638 -6.76159,7.71923 -9.65276,9.81471z" fill="#929497" stroke="#4a4b4c"/></g><path d="M298.78332,175.5405l-11.37054,5.48756l-22.11376,-4.54765l-10.16945,2.01338l-13.21592,-7.22443l-4.5308,-8.82138l-3.39095,-10.11596l-0.81912,-11.95767l2.75761,-11.00683l4.46465,-7.86513l6.05992,-7.32297l7.50523,-6.17388l8.14268,-5.20789l8.80669,-4.50639l6.01819,-2.36828l2.81401,-2.03925l3.36081,-3.6295l2.50079,-3.68972l2.51698,-5.17294l1.18772,-7.46695l3.10298,6.04422l2.95164,7.5515l0.92186,-3.49708l0.49883,2.13733l2.30148,6.92143l3.86667,6.96472l2.78646,3.51221l4.04552,5.18338l4.9365,6.2573l4.1625,6.86047l3.14772,7.01978l2.37373,7.62295l1.42772,7.09715l-0.56061,7.00468l-1.12476,6.93911l-2.28407,5.6954l-3.81828,6.76471l-3.6704,3.87078l-5.94611,4.98956z" fill="#be1e2d" stroke="#8c8c8c" stroke-width="0" stroke-linecap="round"/><path d="M308.31674,178.95642l-9.59544,-3.35732l-11.38698,5.63399l-21.99927,-4.77458l-10.16816,1.9725l-12.68075,-6.41099c0,0 -35.52532,-48.63343 34.05344,-75.66409c0,0 12.9104,-7.84493 12.49494,-23.21729c-0.03379,-1.25029 6.16601,14.30695 6.16601,14.30695c0,0 0.95093,-4.81135 1.02634,-4.16464c0.8356,7.16706 7.08366,17.51573 7.08366,17.51573c43.26717,45.78261 10.65753,74.06511 10.65753,74.06511z" fill="none" stroke="#6f121b" stroke-width="1.2" stroke-linecap="round"/><g><path d="M319.19813,155.15806c-1.38365,14.59933 -17.89804,24.97047 -36.88592,23.16457c-18.98789,-1.80589 -33.25895,-15.10496 -31.87529,-29.70431c1.38365,-14.59933 17.89803,-24.97047 36.88592,-23.16457c18.98789,1.80589 33.25894,15.10496 31.87529,29.7043z" fill="#e6e7e8" stroke="#7a7a7b" stroke-width="1.2" stroke-linecap="butt"/><path d="M260.39412,172.76534l1.4392,2.842l2.13681,2.12299l-1.72607,0.18487l-3.73383,-1.40225l-3.18167,-2.48415l-1.1073,-2.54864l-3.86184,-2.89788l-2.8088,-2.6232l-0.2948,2.18498c-3.07607,-9.55032 -9.11721,-19.966 -4.50747,-31.61124c29.08012,-22.62964 70.86434,-21.22572 79.87618,10.76332c0.1205,0.42776 0.22877,0.85228 0.32529,1.27371c0.01058,0.60728 -0.00702,1.16946 -0.06319,1.67136c-0.63522,5.67745 -2.00354,11.14029 -3.1225,16.77378c-0.07372,0.37116 -0.21487,0.77396 -0.3972,1.19201l-0.98899,1.06718l-0.01112,-1.35731l-2.9391,4.46734l-4.96587,3.73207l-2.89767,1.08066l0.78497,-3.85846l0.64807,-5.36335l-0.0079,-4.34074l-0.95685,-0.22663l0.54293,-1.30461l1.55235,-3.10735l0.49521,-3.75039l-0.15914,-4.2195l-2.51389,-4.44345l-4.75556,-4.38542l-6.64543,-3.61577l-7.99397,-2.65904l1.9758,1.27292l2.93103,2.99126l1.35643,3.38399l-14.85433,-5.48152l-14.28755,-5.56323l-0.94735,2.6224l-3.15405,5.26063l-2.97733,4.87058l-0.47134,4.97329l1.89614,5.06283l3.27016,3.83724l-2.95974,0.26102l-2.49326,-0.23713l-0.30575,3.22592l1.19243,3.63966l1.50768,3.26275l1.82294,2.88587z" fill="#be1e2d" stroke="#8c8c8c" stroke-width="0" stroke-linecap="butt"/><path d="M265.15741,132.36235c-2.14904,7.14266 -6.92157,10.32343 -7.28123,14.19377c-0.74028,7.96649 5.22626,12.20335 5.22626,12.20335c0,0 -5.13983,1.81428 -10.08748,-2.32645" fill="none" stroke="#6f121b" stroke-width="1.2" stroke-linecap="round"/><path d="M250.15836,148.17231c-0.41252,-1.55935 -0.76361,-3.33006 -1.0356,-5.33943" fill="none" stroke="#6f121b" stroke-width="1.2" stroke-linecap="round"/><path d="M259.77927,129.39392c12.9251,6.94311 35.0378,13.73816 35.0378,13.73816c0,0 -1.73809,-4.36519 -6.46051,-7.26259c0,0 32.03421,6.74506 18.97258,27.67438c0,0 3.48129,-1.18117 6.22794,-4.1854" fill="none" stroke="#6f121b" stroke-width="1.2" stroke-linecap="round"/><path d="M316.66906,151.42494c-0.05565,1.67119 -0.05554,2.45134 -0.60967,3.7343" fill="none" stroke="#6f121b" stroke-width="1.2" stroke-linecap="round"/><path d="M317.44244,168.4079c-2.62554,5.90009 -10.34254,8.55498 -10.34254,8.55498c0,0 2.21248,-8.75918 1.30318,-13.75043" fill="none" stroke="#6f121b" stroke-width="1.2" stroke-linecap="round"/><path d="M249.74875,147.86129c-4.9534,6.38832 -2.34329,20.01062 -2.34329,20.01062c0,0 -11.0574,-21.68525 -4.05524,-32.20803" fill="none" stroke="#6f121b" stroke-width="1.2" stroke-linecap="round"/><path d="M320.36373,166.83221c-1.59127,1.99409 -2.76183,3.03611 -2.76183,3.03611c0,0 2.18601,-8.74157 -1.59456,-14.60414" fill="none" stroke="#6f121b" stroke-width="1.2" stroke-linecap="round"/><path d="M257.72086,158.97026c-1.90488,6.02907 4.26673,13.12398 4.26673,13.12398c0,0 -9.71284,0.83742 -14.70087,-6.74557" fill="none" stroke="#6f121b" stroke-width="1.2" stroke-linecap="round"/><path d="M259.8856,172.15159c0.6189,3.12354 4.19863,5.59168 4.19863,5.59168c0,0 -7.7362,0.63574 -10.54347,-6.91965" fill="none" stroke="#6f121b" stroke-width="1.2" stroke-linecap="round"/></g><g fill="#000000" stroke="none" stroke-width="0.5" stroke-linecap="butt"><path d="M305.70524,151.71136c0.4984,0.01675 0.73303,0.80522 0.82825,1.1379c0.35701,1.24741 0.22657,2.65884 -0.69988,3.43153l-0.37425,0.01105c-0.16866,0.04361 -0.40532,0.03176 -0.72887,-0.05958c-2.72216,-0.76854 -5.10639,-1.49801 -7.90612,-1.00495c-0.80323,0.14146 -2.26662,1.14923 -2.93991,1.14792c-0.86361,-0.00168 -1.16493,-0.27931 -1.26553,-1.16603c-0.09818,-0.86527 1.51526,-1.26234 2.09847,-1.43675c2.0304,-0.60719 4.28319,-0.71791 6.49347,-0.45988c0.48334,-0.36551 0.76385,-0.85944 1.08846,-1.47218c0.09337,-0.17624 0.47668,-0.85943 0.55883,-0.85553c0.92275,0.04396 0.9656,1.61619 0.83778,2.75523c0.23899,0.05742 0.48021,0.12356 0.70104,0.19859c0.43894,-0.92146 0.95157,-2.23933 1.30824,-2.22734z"/><path d="M270.41395,152.37343c0.1976,-0.07341 0.41502,-0.13589 0.63131,-0.18876c-0.23498,-1.27818 -0.35551,-3.03212 0.49762,-3.03773c0.07596,-0.0005 0.5019,0.78058 0.60666,0.98183c0.36419,0.69966 0.67528,1.26452 1.16179,1.69551c2.02796,-0.18402 4.13304,0.04583 6.08207,0.81964c0.55984,0.22226 2.09988,0.74175 2.0969,1.70352c-0.00306,0.9856 -0.2548,1.28148 -1.05728,1.24266c-0.62562,-0.03027 -2.08853,-1.22475 -2.84949,-1.42058c-2.65241,-0.68261 -4.79396,0.01972 -7.2456,0.74981c-0.2914,0.08678 -0.51015,0.08889 -0.67135,0.03222l-0.34897,-0.03c-0.93986,-0.90665 -1.20504,-2.48915 -1.00047,-3.8655c0.05457,-0.36706 0.19224,-1.23664 0.65373,-1.23186c0.33027,0.00343 0.94112,1.49945 1.44308,2.54927z"/></g><path d="M311.53251,168.3026" fill="none" stroke="#000000" stroke-width="1.2" stroke-linecap="round"/><g stroke-width="1.2" stroke-linecap="round"><path d="M238.67622,152.94857c-13.71598,-6.02874 -17.70846,-36.23228 -17.70846,-36.23228c9.3842,0.90751 12.36419,5.24339 12.77464,5.68865c0.41038,0.44605 7.68622,9.98054 7.68622,9.98054c-3.50218,11.89386 -2.75241,20.5631 -2.75241,20.5631zM242.36225,129.90207c0,0 -0.73618,1.75182 -1.00763,2.73497M238.67622,152.94857c0.07484,0.87221 0.51914,2.3036 0.51914,2.3036" fill="#be1e2d" stroke="#6f121b"/><path d="M233.44538,148.61421c-2.29345,-2.4407 -4.95161,-6.03983 -7.11651,-11.09726c-1.93011,-4.50942 -3.49182,-11.19656 -4.41762,-15.76605l0.07092,-0.04677c5.87058,0.19133 8.39799,4.70698 8.39799,4.70698l0.14232,0.34704c0.8998,2.52839 1.89522,5.08748 2.77997,6.77878c0.52202,0.99985 1.11209,1.90335 1.67744,2.67249c0,0 0.61998,4.15982 0.3169,6.91231c-0.44274,4.07261 -1.94943,5.40489 -1.94943,5.40489z" fill="#929497" stroke="#4a4b4c"/></g><path d="M267.022,154.10622c0,0 2.92104,0.08847 4.58897,1.88233" fill="none" stroke="#000000" stroke-width="1.2" stroke-linecap="round"/><path d="M303.31568,156.79229c1.53985,-1.19379 3.29625,-0.76066 3.29625,-0.76066" fill="none" stroke="#000000" stroke-width="1.2" stroke-linecap="round"/><path d="M293.87722,167.76277c-3.14137,1.09671 -5.75184,-0.15072 -10.91372,-0.88499c-5.16188,-0.73427 -10.02974,0.93218 -12.74195,-2.48001" fill="none" stroke="#000000" stroke-width="1.2" stroke-linecap="round"/></g><g fill-rule="nonzero" stroke-width="1.2" stroke-linejoin="miter"><path d="M187.33872,181.69915c-1.96672,3.0127 -2.11965,6.36639 -4.281,9.09699c-4.79927,6.06327 -12.11391,2.22741 -14.64037,-2.55958c-1.50206,-2.84601 -0.12455,-6.7752 3.34939,-7.76263c2.6419,-0.75093 5.9961,1.91832 6.34815,1.82008c0.04595,-0.01282 4.84628,-11.41539 9.10482,-8.05319c3.34778,2.64316 0.47256,6.91679 0.11903,7.45834z" fill="#ffab19" stroke="#b83312" stroke-linecap="butt"/><g><path d="M163.67803,178.72362l0.88311,-4.15384l5.92862,0.32491l3.28306,4.1487l-3.91257,4.12644" fill="#ffab19" stroke="#b83312" stroke-linecap="round"/><path d="M148.29314,178.33216c-0.03062,-4.93418 3.62646,-8.90984 8.16833,-8.87987c4.54188,0.02997 8.24863,4.05419 8.27926,8.98837c0.03062,4.93418 -3.62645,8.90984 -8.16834,8.87987c-4.54188,-0.02997 -8.24863,-4.05419 -8.27927,-8.98837z" fill="#5c5e5f" stroke="#2c2d2d" stroke-linecap="butt"/><path d="M157.38592,182.86649l3.31833,-7.24137l1.68962,-11.49979l2.80299,-1.26463l2.75966,1.36813l0.57296,3.03324l-1.07439,2.58516l-1.5022,7.25929l4.21604,0.4863l1.64202,1.56541l2.20046,-9.66612l3.11822,-0.79157l1.8259,2.20008l0.24101,4.05279l-1.48091,2.36047l-1.56575,6.28612l0.87979,3.62949l-4.19812,3.61187l-11.20256,-2.59157z" fill="#ffab19" stroke="#b83312" stroke-linecap="round"/><path d="M174.45663,182.30745l3.63553,1.39297l0.4147,4.05512l-2.73335,2.75193l-2.82306,-1.24334l-1.06469,-4.17482z" fill="#5c5e5f" stroke="#2c2d2d" stroke-linecap="round"/><path d="M164.81989,178.34847l-1.59278,0.97787" fill="none" stroke="#f77a19" stroke-linecap="round"/><path d="M169.50542,181.58184l1.27731,-0.98785" fill="none" stroke="#f77a19" stroke-linecap="round"/></g></g><g><path d="M202.03224,185.21222c-0.87874,-0.92282 -2.01266,-2.41821 -3.1728,-3.81704c-1.94232,-2.2992 -4.37006,-6.96956 0.93046,-7.5852c4.25615,-0.55044 6.99854,2.96124 10.33826,6.91972c1.67882,2.1353 3.66527,4.65006 1.98329,7.44128c-1.88342,3.155 -9.23745,11.71071 -14.06987,7.19995c-3.39216,-3.76538 0.80896,-6.38164 3.66771,-8.59136c0.42082,-0.41544 0.48156,-1.01722 0.32295,-1.56734z" fill="#ffab19" fill-rule="evenodd" stroke="#b83312" stroke-width="1.2" stroke-linecap="round" stroke-linejoin="round"/><path d="M188.28129,199.3146c-11.33888,-0.85889 -8.25831,-11.49064 -7.63158,-14.55289c1.11954,-5.47018 2.0335,-8.96396 4.02926,-11.48885c3.25244,-4.11478 15.45631,-4.23256 18.61212,2.06038c2.60865,5.20189 -2.073,14.11864 -2.073,14.11864c0,0 3.49894,11.1077 -12.9368,9.86272z" fill="#ffab19" fill-rule="nonzero" stroke="#b83312" stroke-width="1.2" stroke-linecap="butt" stroke-linejoin="miter"/><path d="M188.35421,192.38267c-7.79752,-0.23869 -3.20955,-18.43318 3.53543,-18.08369c3.00248,0.15557 4.91196,3.41457 4.2021,8.62358c-0.83746,6.14542 -2.75883,9.61252 -7.73753,9.46012z" fill="#ffffff" fill-rule="nonzero" stroke="none" stroke-width="0.5" stroke-linecap="butt" stroke-linejoin="miter"/></g><g fill-rule="nonzero" stroke-width="1.2" stroke-linejoin="miter"><g fill="#868995" stroke="#46484e" stroke-linecap="round"><g><path d="M114.12426,282.99712l6.56674,-55.55556l42.30719,-3.88888l9.70479,16.11111l-4.50833,42.22222"/><path d="M239.48274,278.55267h-74.89773l4.05497,-84.72222h70.84276"/></g><g><path d="M310.59022,281.88601l-4.50833,-42.22222l9.70479,-16.11111l42.30719,3.88888l6.56675,55.55556"/><path d="M239.30213,193.83045h70.84276l4.05497,84.72222h-74.89773"/></g></g><g stroke-linecap="butt"><g fill="#868995" stroke="#323337"><path d="M238.48488,237.54292c0,0 -50.42238,0.42456 -53.82493,-2.35022c-2.62552,-2.14112 -0.13924,-30.46732 2.49923,-32.5419c2.70859,-2.1297 50.65074,-2.16943 50.65074,-2.16943"/><path d="M237.41622,200.48137c0,0 47.94215,0.03973 50.65074,2.16943c2.63848,2.07458 5.12475,30.40078 2.49923,32.5419c-3.40255,2.77478 -53.82494,2.35022 -53.82494,2.35022"/></g><g fill="#4e4f56" stroke="#262629"><path d="M238.44458,235.81814c0,0 -48.09174,0.38502 -51.33702,-2.13133c-2.50416,-1.94171 -0.1328,-27.62974 2.38372,-29.5111c2.58339,-1.93135 48.30953,-1.96738 48.30953,-1.96738"/><path d="M237.42532,202.20833c0,0 45.72616,0.03603 48.30955,1.96738c2.51652,1.88136 4.88788,27.56939 2.38371,29.5111c-3.24528,2.51635 -51.33702,2.13133 -51.33702,2.13133"/></g><g fill="#9497a4" stroke="#56585f"><path d="M237.88618,225.47005c0,0 -15.79571,0.14779 -16.86161,-0.81808c-0.82249,-0.74529 -0.04362,-10.60526 0.78293,-11.32739c0.8485,-0.74132 15.86723,-0.75514 15.86723,-0.75514"/><path d="M237.5514,212.56944c0,0 15.01871,0.01382 15.86723,0.75514c0.82655,0.72214 1.60542,10.5821 0.78293,11.32739c-1.0659,0.96587 -16.86161,0.81808 -16.86161,0.81808"/></g></g><g stroke-linecap="butt"><g fill="#868995" stroke="#323337"><path d="M238.41004,286.26571c0,0 -46.09405,0.38812 -49.20452,-2.14847c-2.40014,-1.95733 -0.12729,-27.85196 2.28469,-29.74845c2.47608,-1.94689 46.3028,-1.9832 46.3028,-1.9832"/><path d="M237.43312,252.38558c0,0 43.82673,0.03632 46.3028,1.9832c2.41198,1.89649 4.68484,27.79112 2.28469,29.74845c-3.11046,2.53659 -49.20452,2.14847 -49.20452,2.14847"/></g><g fill="#4e4f56" stroke="#262629"><path d="M238.37319,284.68899c0,0 -43.96347,0.35197 -46.93016,-1.94838c-2.2892,-1.77503 -0.1214,-25.25795 2.1791,-26.97782c2.36163,-1.76556 44.16257,-1.7985 44.16257,-1.7985"/><path d="M237.44143,253.96429c0,0 41.80094,0.03294 44.16257,1.7985c2.3005,1.71986 4.46829,25.20279 2.1791,26.97782c-2.9667,2.30034 -46.93017,1.94838 -46.93017,1.94838"/></g><g fill="#9497a4" stroke="#56585f"><path d="M237.86273,275.22918c0,0 -14.43977,0.13511 -15.41417,-0.74785c-0.75189,-0.68132 -0.03987,-9.69489 0.71572,-10.35503c0.77567,-0.67768 14.50516,-0.69032 14.50516,-0.69032"/><path d="M237.5567,263.43599c0,0 13.7295,0.01264 14.50517,0.69032c0.75559,0.66015 1.46761,9.67371 0.71572,10.35503c-0.97441,0.88295 -15.41417,0.74785 -15.41417,0.74785"/></g></g><g stroke-linecap="butt"><g fill="#868995" stroke="#323337"><path d="M140.80152,258.67283c0,0 -18.01248,1.53988 -19.1037,-0.65232c-0.84203,-1.69158 1.30094,-24.95052 2.33447,-26.71206c1.06099,-1.80834 18.17131,-2.97438 18.17131,-2.97438"/><path d="M142.06311,228.34337c0,0 17.1068,-1.10096 17.97898,0.5793c0.8496,1.63678 0.48114,24.77815 -0.55072,26.59388c-1.33723,2.35309 -19.31207,3.19751 -19.31207,3.19751"/></g><g fill="#4e4f56" stroke="#262629"><path d="M140.86359,257.26112c0,0 -17.17902,1.45238 -18.22557,-0.53187c-0.80756,-1.53112 1.17745,-22.6266 2.1589,-24.227c1.00753,-1.64292 17.32689,-2.75355 17.32689,-2.75355"/><path d="M141.98979,229.75759c0,0 16.31616,-1.0516 17.15246,0.46917c0.81463,1.4814 0.52212,22.46475 -0.45758,24.11428c-1.26966,2.13771 -18.41454,2.9594 -18.41454,2.9594"/></g><g fill="#9497a4" stroke="#56585f"><path d="M141.12303,248.79887c0,0 -5.64338,0.4945 -5.98094,-0.27137c-0.26047,-0.59098 0.45457,-8.68505 0.78154,-9.29605c0.33566,-0.62723 5.69584,-0.99364 5.69584,-0.99364"/><path d="M141.57546,238.24073c0,0 5.35895,-0.34377 5.62888,0.24334c0.26295,0.57191 0.1038,8.62916 -0.22275,9.25903c-0.42319,0.81628 -6.05347,1.06869 -6.05347,1.06869"/></g></g><g stroke-linecap="butt"><g fill="#868995" stroke="#323337"><path d="M139.94133,290.94209c0,0 -15.20971,1.30027 -16.13114,-0.55082c-0.71101,-1.42837 1.09851,-21.0682 1.97122,-22.55564c0.89589,-1.52696 15.34385,-2.51157 15.34385,-2.51157"/><path d="M141.00662,265.33193c0,0 14.44496,-0.92965 15.18142,0.48916c0.71741,1.38209 0.40626,20.92265 -0.46504,22.45585c-1.12917,1.98694 -16.3071,2.69997 -16.3071,2.69997"/></g><g fill="#4e4f56" stroke="#262629"><path d="M139.99373,289.75005c0,0 -14.50594,1.22639 -15.38966,-0.44912c-0.68189,-1.29288 0.99423,-19.10588 1.82296,-20.45725c0.85076,-1.38729 14.63081,-2.32509 14.63081,-2.32509"/><path d="M140.94472,266.52609c0,0 13.77737,-0.88796 14.48352,0.39617c0.68788,1.2509 0.44087,18.96921 -0.3864,20.36208c-1.07209,1.80508 -15.54922,2.49892 -15.54922,2.49892"/></g><g fill="#9497a4" stroke="#56585f"><path d="M140.21284,282.60454c0,0 -4.76526,0.41756 -5.05031,-0.22915c-0.21994,-0.49902 0.38383,-7.33365 0.65993,-7.84958c0.28343,-0.52963 4.80956,-0.83903 4.80956,-0.83903"/><path d="M140.59487,273.68925c0,0 4.5251,-0.29027 4.75303,0.20548c0.22204,0.48292 0.08766,7.28645 -0.18809,7.81831c-0.35734,0.68926 -5.11155,0.9024 -5.11155,0.9024"/></g></g><g stroke-linecap="butt"><g fill="#868995" stroke="#323337"><path d="M337.96959,228.33406c0,0 17.11032,1.16605 18.17131,2.97439c1.03352,1.76154 3.17649,25.02047 2.33447,26.71206c-1.09122,2.1922 -19.1037,0.65233 -19.1037,0.65233"/><path d="M339.9939,258.71405c0,0 -17.97485,-0.84441 -19.31207,-3.1975c-1.03186,-1.81573 -1.40033,-24.9571 -0.55072,-26.59388c0.87218,-1.68026 17.97899,-0.5793 17.97899,-0.5793"/></g><g fill="#4e4f56" stroke="#262629"><path d="M338.04938,229.74871c0,0 16.31937,1.11061 17.3269,2.75354c0.98143,1.6004 2.96645,22.69588 2.15888,24.227c-1.04656,1.98426 -18.22557,0.53187 -18.22557,0.53187"/><path d="M339.90306,257.30044c0,0 -17.14488,-0.82169 -18.41454,-2.9594c-0.97971,-1.64953 -1.27222,-22.63288 -0.45758,-24.11428c0.83628,-1.52077 17.15245,-0.46917 17.15245,-0.46917"/></g><g fill="#9497a4" stroke="#56585f"><path d="M338.5537,238.23781c0,0 5.36016,0.36641 5.69583,0.99364c0.32698,0.611 1.04202,8.70507 0.78154,9.29605c-0.33756,0.76587 -5.98094,0.27137 -5.98094,0.27137"/><path d="M339.24505,248.81179c0,0 -5.63028,-0.25241 -6.05347,-1.06869c-0.32655,-0.62987 -0.4857,-8.68712 -0.22276,-9.25903c0.26994,-0.58711 5.62889,-0.24334 5.62889,-0.24334"/></g></g><g stroke-linecap="butt"><g fill="#868995" stroke="#323337"><path d="M339.04794,265.32406c0,0 14.44794,0.98461 15.34383,2.51157c0.8727,1.48744 2.68223,21.12727 1.97123,22.55563c-0.92142,1.85109 -16.13115,0.55083 -16.13115,0.55083"/><path d="M340.75724,290.9769c0,0 -15.17793,-0.71302 -16.3071,-2.69997c-0.8713,-1.5332 -1.18243,-21.07376 -0.46504,-22.45585c0.73646,-1.41881 15.18144,-0.48916 15.18144,-0.48916"/></g><g fill="#4e4f56" stroke="#262629"><path d="M339.1153,266.5186c0,0 13.78006,0.9378 14.63082,2.32509c0.82873,1.35137 2.50486,19.16438 1.82296,20.45725c-0.88371,1.6755 -15.38964,0.44911 -15.38964,0.44911"/><path d="M340.68056,289.78325c0,0 -14.47713,-0.69383 -15.54922,-2.49891c-0.82727,-1.39286 -1.07426,-19.11119 -0.38638,-20.36208c0.70616,-1.28413 14.48351,-0.39616 14.48351,-0.39616"/></g><g fill="#9497a4" stroke="#56585f"><path d="M339.54116,273.68679c0,0 4.52612,0.3094 4.80955,0.83903c0.2761,0.51592 0.87989,7.35055 0.65994,7.84958c-0.28503,0.6467 -5.05031,0.22915 -5.05031,0.22915"/><path d="M340.12492,282.61544c0,0 -4.7542,-0.21314 -5.11154,-0.90241c-0.27574,-0.53186 -0.41012,-7.3354 -0.18809,-7.81832c0.22793,-0.49575 4.75302,-0.20547 4.75302,-0.20547"/></g></g></g><path d="M240.90417,174.80615" fill="none" fill-rule="nonzero" stroke="#000000" stroke-width="1.2" stroke-linecap="round" stroke-linejoin="miter"/><g fill-rule="nonzero" stroke-width="1.2" stroke-linejoin="miter"><path d="M287.17663,176.62791c0.99325,0.31831 7.29796,7.04915 7.62712,8.11024c0.91198,2.93986 -3.32898,4.29326 -5.34632,3.64678c-2.37892,-0.76236 -10.01234,-11.77554 -3.68947,-11.93563c0.28326,-0.05376 0.57236,-0.03995 0.84417,0.03596c0.16364,0.01659 0.33434,0.03879 0.51223,0.06678z" fill="#be1e2d" stroke="#6f121b" stroke-linecap="butt"/><g><path d="M294.88408,192.43137c-2.49122,2.67677 -6.13258,2.96254 -14.48534,2.03754c-5.5057,-0.60971 -10.87326,-17.26378 3.2192,-19.11668c4.31795,-0.56773 7.19209,8.73677 7.19209,8.73677c0,0 0.67633,-0.76169 3.81159,-2.69103c7.63803,-4.70022 8.95448,4.44643 11.27217,9.99527c0.56682,-0.03323 1.08893,-0.05081 1.50664,-0.01895c0,0 2.15664,0.166 1.97409,2.3239c-0.18255,2.1579 -2.33917,1.9919 -2.33917,1.9919c-1.88434,-0.14649 -5.44105,0.38548 -7.10441,-0.30389c-3.07204,-1.27317 -2.43448,-5.93581 -2.43448,-5.93581c0,0 -2.40777,2.76112 -2.61238,2.98097z" fill="#be1e2d" stroke="#6f121b" stroke-linecap="butt"/><path d="M282.6742,189.24783c-1.44193,-2.71868 -3.28999,-7.99932 0.27507,-10.44347c4.52897,-3.10497 6.94883,7.02379 6.41271,9.99193c-0.58106,3.21696 -5.06461,3.51197 -6.68779,0.45154z" fill="#e6e7e8" stroke="#7a7a7b" stroke-linecap="round"/></g><path d="M276.65066,184.86075c-0.75782,2.32844 -1.83701,3.3511 -2.19295,5.90034c-0.15688,1.12366 0.64725,1.88522 -0.66353,3.31508c-1.31077,1.42986 -3.28955,2.18088 -4.11061,2.6598c-2.00185,1.16765 -4.2459,0.87933 -2.87413,-1.35381c-2.0887,-0.0701 -7.49934,-0.51202 -7.69467,-1.49766c-0.81466,-4.11096 4.55679,-3.21371 7.63314,-4.02707c1.61704,-1.4589 2.66047,-4.13516 3.19213,-6.55624c0.61123,-2.78341 0.74591,-5.28753 3.62826,-6.18282c1.01686,-0.31585 3.46044,-0.6835 4.53664,0.78464" fill="#be1e2d" stroke="#6f121b" stroke-linecap="butt"/><path d="M295.63339,178.89677c0.30541,-0.63788 0.31134,-1.61578 0.96206,-1.81251c1.9396,-0.58641 5.64766,1.79502 5.64766,1.79502c4.43124,2.17704 3.27955,7.99338 -1.33465,6.98682c-3.42517,-0.74717 -4.49777,-3.00416 -4.49777,-3.00416c0,0 -1.39949,-0.33222 -1.63072,-1.51178c-0.23123,-1.17956 0.24078,-1.17384 0.85342,-2.45339z" fill="#be1e2d" stroke="#6f121b" stroke-linecap="butt"/></g><path d="M248.30626,178.88192" fill="none" fill-rule="nonzero" stroke="#000000" stroke-width="1.2" stroke-linecap="round" stroke-linejoin="miter"/><path d="M279.64638,187.04229c3.38981,-2.43176 10.26518,-0.01847 9.52391,4.29995c-0.38074,2.218 -2.53669,4.20531 -3.54917,6.18051c-1.0908,2.12799 -1.45377,4.37203 -2.5106,6.51332c-0.81815,0.47933 -1.50258,1.30257 -2.45444,1.438c-6.22335,0.88541 -4.77972,-9.93954 -1.61095,-14.42731" fill="#be1e2d" fill-rule="nonzero" stroke="#6f121b" stroke-width="1.2" stroke-linecap="butt" stroke-linejoin="miter"/><g fill="#ffab19" fill-rule="nonzero" stroke="#b83312" stroke-width="1.2" stroke-linecap="butt" stroke-linejoin="miter"><path d="M200.69381,195.70124c0.03037,2.72297 1.35916,12.16011 1.35916,12.16011l-2.37108,9.63111l-11.0061,0.51365c0,0 -2.04728,-1.72201 -1.89357,-4.62708c0.03941,-0.74493 1.85049,-9.55377 1.82815,-9.93122c-0.15768,-2.66364 -8.75648,-22.75194 3.50851,-25.40929c5.0353,-1.09096 6.8268,1.31157 8.04257,4.86729c1.68246,4.92065 0.50323,10.18309 0.53236,12.79543z"/><path d="M181.30253,191.63948c-0.32683,4.62097 -2.45612,6.37531 -2.51462,6.87906c-0.59372,5.11254 -1.29637,10.23931 -1.29637,10.23931l-6.60341,6.71809l-9.68293,-1.1082c0,0 -2.52079,-4.32524 -0.3032,-6.45616c2.3646,-2.27219 7.04622,-4.48269 7.04622,-4.48269c0,0 -5.16031,-24.62156 8.03132,-24.75646c3.56391,0.15397 5.19848,2.08592 5.76422,4.53426"/></g></g></g></svg>