<svg version="1.1" xmlns="http://www.w3.org/2000/svg" xmlns:xlink="http://www.w3.org/1999/xlink" width="90.55461" height="122.46548" viewBox="0,0,90.55461,122.46548"><g transform="translate(-193.22533,-119.08728)"><g stroke-miterlimit="10"><g fill-rule="evenodd"><path d="M247.46989,214.40318c1.27076,2.09646 2.99093,4.56446 5.86464,6.09475c6.45202,3.55408 14.65577,2.45937 13.94123,6.74183c-0.68124,4.37674 -13.06667,8.64535 -20.90147,-1.52598c-2.71887,-3.49396 -3.98444,-7.07702 -4.92259,-10.03335c-0.26644,-0.75433 -1.90442,-7.49355 0.50217,-10.88889c2.40659,-3.39535 3.82138,-2.09212 4.46499,-1.47102c0.77119,0.6821 -0.64706,8.0766 1.05104,11.08265z" fill="#ffab19" stroke="#001026" stroke-width="1.2" stroke-linecap="round" stroke-linejoin="round"/><path d="M266.88734,226.74061c0.10034,2.08565 -3.52683,4.42735 -7.16008,4.6501c-3.63324,0.22274 -5.86334,-0.68643 -7.52208,-1.47925c0.72664,-0.04455 2.93427,-0.40009 3.59388,-2.436c0.90355,-2.54629 -1.17733,-5.73532 -1.17733,-5.73532c0,0 4.6155,1.65746 7.69423,2.26688c2.70157,0.74265 4.28247,0.71454 4.57139,2.73358z" fill="#ffffff" stroke="none" stroke-width="1" stroke-linecap="butt" stroke-linejoin="miter"/></g><path d="M232.29717,182.53544c2.62642,-0.85283 5.44694,0.58496 6.29977,3.21139c0.19372,0.59657 0.26924,1.20315 0.23951,1.79442c0.8634,1.70156 -2.40475,4.27708 -3.15797,5.58529c-2.83227,4.91914 -5.7981,7.08212 -12.06929,8.63178c-2.56272,0.63327 -5.22748,0.09087 -6.29976,-3.21139c-2.03539,-6.2683 5.6534,-6.56249 8.62894,-8.88735c1.59461,-1.24591 4.47111,-7.92281 6.3588,-7.12414z" fill="#ffab19" fill-rule="nonzero" stroke="#000000" stroke-width="1.2" stroke-linecap="butt" stroke-linejoin="miter"/><path d="M252.64808,192.78991c-0.91292,-0.9309 -2.10223,-2.4394 -3.31418,-3.85049c-2.02747,-2.31935 -4.62819,-7.03063 0.64953,-7.65167c4.23576,-0.55527 7.10822,2.98719 10.59455,6.98036c1.75791,2.15401 3.83749,4.69081 2.2589,7.50649c-1.76657,3.18265 -8.80371,11.81333 -13.8032,7.26304c-3.53162,-3.79837 0.5726,-6.43756 3.3495,-8.66665c0.40543,-0.41908 0.44389,-1.02614 0.2649,-1.58108z" fill="#ffab19" fill-rule="evenodd" stroke="#001026" stroke-width="1.2" stroke-linecap="round" stroke-linejoin="round"/><g fill-rule="nonzero" stroke-linecap="round" stroke-linejoin="miter"><path d="M220.57804,227.17023l7.5922,-22.49542c0,0 0.82551,-4.45315 2.63128,-11.5098c0.87735,-3.42855 1.12684,-9.83464 3.27376,-12.11038c3.31086,-3.50951 10.40413,-3.09312 10.40413,-3.09312c0,0 7.9255,0.99244 9.19815,6.27953c1.01261,4.20678 -0.83422,7.88379 -1.50954,12.29762c-0.64432,4.21124 -0.09641,9.26093 -0.09641,9.26093l5.90504,24.18257c0,0 4.03204,0.78099 4.78028,2.81193c0.74824,2.03095 -0.84357,7.87339 -0.84357,7.87339l-17.15276,0.28119l-5.34266,-5.34266v-6.28462c0,0 0.10554,-25.86138 -1.12706,-20.65426c-0.54999,2.32346 -3.32838,18.51388 -3.32838,18.51388l-0.47066,8.42848l-17.89487,1.60484l-3.61115,-0.76474c0,0 -3.19148,-4.0619 -0.8555,-6.91698c2.33597,-2.85507 8.44771,-2.36239 8.44771,-2.36239z" fill="#ffab19" stroke="#001026" stroke-width="1.2"/><path d="M240.66865,208.23685c0,0 -3.23157,-0.13731 -4.55805,-1.51935" fill="none" stroke="#001026" stroke-width="1.2"/><path d="M238.05811,201.31214c-4.04613,-0.65398 -3.77106,-4.90464 -3.33069,-8.97955c0.49394,-4.57068 1.32939,-9.42706 5.88649,-8.82045c4.9993,0.66547 5.10669,5.43964 4.48809,10.44496c0,0 -1.21306,8.29748 -7.04389,7.35504z" fill="#ffffff" stroke="#000000" stroke-width="0"/></g><path d="M245.53817,232.51214c0,0 1.55081,-2.71583 12.2,-2.6" fill="none" fill-rule="nonzero" stroke="#001026" stroke-width="1.2" stroke-linecap="round" stroke-linejoin="miter"/><g><g><path d="M214.52877,148.42178c0,0 -5.99166,-26.93165 -4.91873,-27.03055c1.44546,-0.13325 27.8049,8.17387 27.8049,8.17387" fill="#ffab19" fill-rule="nonzero" stroke="#001026" stroke-width="1.2" stroke-linecap="round" stroke-linejoin="miter"/><path d="M269.05313,146.26994l14.01833,13.79878l-2.35203,5.70858l-30.33571,2.13179z" fill="#9b7f41" fill-rule="nonzero" stroke="#001026" stroke-width="1.2" stroke-linecap="round" stroke-linejoin="miter"/><path d="M206.26083,168.75325c0,0 -7.07826,1.32223 -12.4355,-1.47599" fill="none" fill-rule="evenodd" stroke="#001026" stroke-width="1.2" stroke-linecap="round" stroke-linejoin="round"/><path d="M207.03251,174.61622c0,0 -3.44858,2.63197 -9.72343,3.38453" fill="none" fill-rule="evenodd" stroke="#001026" stroke-width="1.2" stroke-linecap="round" stroke-linejoin="round"/><path d="M230.36571,136.97394c10.80616,-3.66992 41.48509,0.6077 37.83885,28.32221c-0.04754,0.36132 -0.17818,0.70713 -0.30719,1.0515c-4.71175,12.57654 -18.50904,20.55494 -37.6695,20.6361c-19.16046,0.08116 -25.60441,-9.6387 -25.55235,-15.46341c0.05205,-5.82471 6.5983,-9.28399 6.5983,-9.28399c0,0 -0.78963,-4.43131 1.26257,-10.45447c0,0 2.04124,-9.44609 17.82934,-14.80794z" fill="#ffab19" fill-rule="evenodd" stroke="#001026" stroke-width="1.2" stroke-linecap="butt" stroke-linejoin="miter"/><path d="M228.78919,164.11827c8.3533,-1.06876 17.8323,-12.25844 26.51133,-3.09031c8.6593,9.07009 0.22578,25.45564 -24.48503,25.32753c-18.94466,0.13975 -25.68213,-9.01105 -25.63008,-14.83576c0.05205,-5.82471 6.46141,-8.95042 6.46141,-8.95042c7.9582,-3.53937 9.98521,2.47904 17.14237,1.54896z" fill="#ffffff" fill-rule="evenodd" stroke="none" stroke-width="1" stroke-linecap="butt" stroke-linejoin="miter"/><path d="M233.4345,161.85751c0.31562,1.56856 -3.30871,4.84794 -5.1128,5.00693c-1.58829,0.21758 -3.61114,-2.23151 -3.78927,-3.62374c-0.04004,-0.70597 2.07728,-1.33601 4.13602,-1.75025c1.9607,-0.39451 4.62738,-0.82909 4.76605,0.36707z" fill="#001026" fill-rule="evenodd" stroke="#001026" stroke-width="1.2" stroke-linecap="round" stroke-linejoin="round"/><path d="M263.79065,156.53715c-2.83175,5.33959 -9.41493,8.25706 -9.41493,8.25706" fill="none" fill-rule="evenodd" stroke="#001026" stroke-width="1.2" stroke-linecap="round" stroke-linejoin="round"/><path d="M266.99014,167.34887c-5.59842,2.9322 -9.93119,2.71508 -9.93119,2.71508" fill="none" fill-rule="evenodd" stroke="#001026" stroke-width="1.2" stroke-linecap="round" stroke-linejoin="round"/><path d="M256.41264,145.6234l-43.48796,3.50962l-0.7996,-22.78685l48.1186,-2.91203l14.37594,17.38656l-5.69251,16.26516z" fill="#c58600" fill-rule="nonzero" stroke="#001026" stroke-width="1.2" stroke-linecap="round" stroke-linejoin="miter"/><path d="M260.05263,123.64272l-3.64877,21.78088" fill="none" fill-rule="nonzero" stroke="#001026" stroke-width="0.75" stroke-linecap="round" stroke-linejoin="miter"/><path d="M266.59735,131.36326l-5.93653,-7.54703c0,0 15.17001,-4.40141 16.2352,-4.11561c1.19371,0.32027 -9.62363,27.04784 -9.62363,27.04784z" fill="#ffab19" fill-rule="nonzero" stroke="#001026" stroke-width="1.2" stroke-linecap="round" stroke-linejoin="miter"/></g><g><g fill-rule="evenodd"><path d="M224.04119,145.59082c3.10005,1.21231 4.00804,6.23182 2.05268,11.21545c-2.0534,5.00336 -6.14876,7.96948 -9.24881,6.75718c-3.10005,-1.21231 -4.00803,-6.23182 -2.05267,-11.21546c1.95536,-4.98363 6.12904,-8.06752 9.24881,-6.75718z" fill="#ffffff" stroke="#001026" stroke-width="1.2" stroke-linecap="round" stroke-linejoin="round"/><path d="M215.07497,157.11046c-0.21698,-1.07839 0.38976,-2.11851 1.37012,-2.31576c0.98036,-0.19726 1.94217,0.52724 2.15915,1.60563c0.21698,1.07839 -0.38976,2.11851 -1.3701,2.31576c-0.98036,0.19726 -1.94217,-0.52724 -2.15915,-1.60563" fill="#001026" stroke="none" stroke-width="1" stroke-linecap="butt" stroke-linejoin="miter"/></g><g fill-rule="evenodd"><path d="M248.22008,145.11025c3.47306,1.54527 4.40135,7.17273 2.2302,12.09778c-2.07312,4.90532 -6.1105,7.14574 -9.72045,5.93403c-3.02174,-1.33006 -4.283,-6.58452 -2.20989,-11.48984c2.07312,-4.90532 6.20734,-8.18528 9.70013,-6.54197z" fill="#ffffff" stroke="#001026" stroke-width="1.2" stroke-linecap="round" stroke-linejoin="round"/><path d="M239.01834,156.47327c-0.21698,-1.07839 0.4095,-2.02048 1.37011,-2.31577c0.98036,-0.19726 1.94216,0.52725 2.15915,1.60564c0.21698,1.07839 -0.38976,2.11851 -1.37011,2.31576c-0.98036,0.19726 -1.94217,-0.52725 -2.15915,-1.60564" fill="#001026" stroke="none" stroke-width="1" stroke-linecap="butt" stroke-linejoin="miter"/></g><g fill-rule="nonzero" stroke="#001026" stroke-linecap="round" stroke-linejoin="miter"><path d="M225.80082,176.61464c-0.21243,-0.17386 5.53507,-1.35304 11.11235,-3.77759c12.62653,-5.489 13.00235,-7.5954 13.56021,-7.52132c1.02949,0.13672 4.77571,10.52884 -3.11876,14.14067c-7.59212,3.4735 -20.89039,-2.2988 -21.5538,-2.84176z" fill="#ffffff" stroke-width="1.2"/><path d="M250.53694,176.37839l-2.52226,-7.29646l3.11291,7.07034" fill="#000000" stroke-width="0"/><path d="M247.83606,178.699l-1.18314,-4.15213l1.56522,3.73498" fill="#000000" stroke-width="0"/><path d="M226.92455,176.61363l9.28759,1.79461l4.09259,2.02255l-7.26321,-1.28286z" fill="#000000" stroke-width="0"/></g></g></g><path d="M233.14952,202.93677c-1.20195,0.82417 -2.18468,2.28536 -3.51882,2.72541c-0.20346,0.06711 -0.41511,0.11047 -0.63694,0.1242c-2.63777,0.16325 -9.14793,-2.91656 -10.34362,-3.83075c-2.58281,-1.97474 -2.96121,-6.731 -0.11429,-8.74925c3.08391,-2.18625 7.78645,1.15989 10.21021,2.2679c1.15129,0.52631 3.95924,0.99339 4.06346,2.51115z" fill="#ffab19" fill-rule="nonzero" stroke="#000000" stroke-width="1.2" stroke-linecap="butt" stroke-linejoin="miter"/><g fill-rule="nonzero" stroke="#000000" stroke-width="1.2" stroke-linejoin="miter"><path d="M235.59314,199.46873c-2.55161,-3.98732 -1.38775,-9.28819 2.59957,-11.8398c3.98732,-2.55161 9.28819,-1.38774 11.8398,2.59958c2.55161,3.98732 1.38775,9.28819 -2.59958,11.8398c-3.98732,2.55161 -9.28818,1.38774 -11.8398,-2.59958z" fill="#5c5e5f" stroke-linecap="butt"/><g stroke-linecap="round"><path d="M238.79838,203.52333l-1.36903,4.53954l-2.33913,0.47926l-3.75424,2.40246l-2.46603,-2.89946z" fill="#ffab19"/><path d="M240.56018,198.3254l-1.02258,6.35308l-3.92747,1.49568l-1.20714,0.97601l-3.63868,1.31088l-0.68156,0.84319l-3.4827,0.60049l-3.99645,-4.97296l-0.54259,-6.57262l12.09434,-5.90784z" fill="#ffab19"/><path d="M235.88759,201.51906l-0.91268,3.02636" fill="none"/><path d="M230.45829,207.0287l0.73946,-3.93312" fill="none"/></g><path d="M226.56556,206.67043l-3.69066,1.54767l-2.89921,-2.62225l0.35827,-3.89271l2.96871,-1.08566l3.47678,2.25264z" fill="#5c5e5f" stroke-linecap="round"/></g></g></g></svg>