<svg version="1.1" xmlns="http://www.w3.org/2000/svg" xmlns:xlink="http://www.w3.org/1999/xlink" width="159.81675" height="159.81675" viewBox="0,0,159.81675,159.81675"><g transform="translate(-158.15445,-95.24869)"><g stroke-miterlimit="10"><path d="M209.23662,184.17108c-2.94816,1.5439 -4.57394,-0.8662 -8.42725,-3.79556c-4.06393,-3.08948 -8.47993,-4.44445 -6.55319,-7.80475c1.53473,-2.67662 7.97231,2.00239 7.97231,2.00239c0,0 -3.97008,-5.73495 -11.88251,-11.15798c-3.88638,-2.66365 -21.40845,-8.83637 -16.14152,-15.87879c4.45221,-5.95305 11.96195,7.90236 18.67565,12.60918c6.49445,4.55311 10.42554,2.28704 10.42554,2.28704c0,0 0.91472,-1.43947 -1.61739,-3.91705c-0.98818,-0.96689 -6.96357,-1.93534 -3.89621,-6.41909c2.42447,-3.54399 6.28584,1.60573 6.80849,2.03311c2.13659,1.74713 5.75827,4.43173 6.69825,2.26894c0.88543,-2.03727 -4.92481,-5.28432 -8.53074,-7.81609c-3.59063,-2.52103 -15.82109,-8.50115 -12.0889,-14.46642c4.08311,-6.52617 14.22832,8.54162 15.61116,9.02148c6.53554,2.26792 17.71116,4.7598 19.19476,12.42079c0.75321,3.88945 -6.81793,0.10049 -13.10785,9.68047c-6.73759,10.26182 2.6549,15.89733 -3.14059,18.93232z" fill="#ff0000" stroke="#ffe8e8" stroke-width="5" stroke-linecap="round"/><path d="M247.69812,209.32356c1.57375,-3.33777 4.30512,2.56971 9.88337,-0.45261c5.62008,-3.04498 1.49637,-8.31295 6.08646,-7.74992c2.3628,0.28983 5.24973,6.78284 9.09717,11.44065c3.48898,4.22386 14.57911,11.66489 8.72613,15.21287c-5.35999,3.24914 -10.34029,-9.34886 -13.14942,-13.34834c-2.4881,-3.54241 -3.60545,-5.40823 -5.50812,-3.36239c-1.71025,1.83895 -1.93295,2.5227 -0.5338,4.33112c1.02803,1.32874 5.75935,5.91938 3.13487,7.7641c-2.62447,1.84472 -4.82603,-3.61234 -6.28899,-5.46932c-2.20504,-2.7989 -2.24453,-3.87434 -4.13423,-3.08353c-1.88969,0.79081 1.7746,3.48483 -0.90601,5.19279c-1.65597,1.0551 -2.79555,-2.43053 -4.15422,-5.43107c-1.08211,-2.38977 -2.64365,-4.21625 -2.25321,-5.04435z" fill="#ff0000" stroke="#ffe8e8" stroke-width="5" stroke-linecap="round"/><path d="M252.92407,159.27955c-1.61734,-2.14732 -0.21063,-2.53627 1.29024,-4.1874c3.09992,-3.41027 4.45589,-7.67694 7.74142,-6.9092c3.28554,0.76773 -3.07814,7.24244 -2.15039,8.16542c1.0814,1.07583 3.31957,-0.34521 5.16094,-2.30307c5.10117,-5.42389 8.11579,-11.43216 12.90236,-8.58416c4.78657,2.848 -6.28364,7.08115 -9.03165,10.88723c-2.74802,3.80608 -5.52425,10.54692 -7.95646,9.63101c-1.87391,-0.70567 1.40462,-3.19009 -2.469,-6.25671c-3.30483,-2.61633 -4.42637,0.96564 -5.48745,-0.44313z" fill="#ff0000" stroke="#ffe8e8" stroke-width="5" stroke-linecap="round"/><path d="M209.23662,184.17108c-2.94816,1.5439 -4.57394,-0.8662 -8.42725,-3.79556c-4.06393,-3.08948 -8.47993,-4.44445 -6.55319,-7.80475c1.53473,-2.67662 7.97231,2.00239 7.97231,2.00239c0,0 -3.97008,-5.73495 -11.88251,-11.15798c-3.88638,-2.66365 -21.40845,-8.83637 -16.14152,-15.87879c4.45221,-5.95305 11.96195,7.90236 18.67565,12.60918c6.49445,4.55311 10.42554,2.28704 10.42554,2.28704c0,0 0.91472,-1.43947 -1.61739,-3.91705c-0.98818,-0.96689 -6.96357,-1.93534 -3.89621,-6.41909c2.42447,-3.54399 6.28584,1.60573 6.80849,2.03311c2.13659,1.74713 5.75827,4.43173 6.69825,2.26894c0.88543,-2.03727 -4.92481,-5.28432 -8.53074,-7.81609c-3.59063,-2.52103 -15.82109,-8.50115 -12.0889,-14.46642c4.08311,-6.52617 14.22832,8.54162 15.61116,9.02148c6.53554,2.26792 17.71116,4.7598 19.19476,12.42079c0.75321,3.88945 -6.81793,0.10049 -13.10785,9.68047c-6.73759,10.26182 2.6549,15.89733 -3.14059,18.93232z" fill="#ff0000" stroke="#000000" stroke-width="0" stroke-linecap="round"/><path d="M247.69812,209.32356c1.57375,-3.33777 4.30512,2.56971 9.88337,-0.45261c5.62008,-3.04498 1.49637,-8.31295 6.08646,-7.74992c2.3628,0.28983 5.24973,6.78284 9.09717,11.44065c3.48898,4.22386 14.57911,11.66489 8.72613,15.21287c-5.35999,3.24914 -10.34029,-9.34886 -13.14942,-13.34834c-2.4881,-3.54241 -3.60545,-5.40823 -5.50812,-3.36239c-1.71025,1.83895 -1.93295,2.5227 -0.5338,4.33112c1.02803,1.32874 5.75935,5.91938 3.13487,7.7641c-2.62447,1.84472 -4.82603,-3.61234 -6.28899,-5.46932c-2.20504,-2.7989 -2.24453,-3.87434 -4.13423,-3.08353c-1.88969,0.79081 1.7746,3.48483 -0.90601,5.19279c-1.65597,1.0551 -2.79555,-2.43053 -4.15422,-5.43107c-1.08211,-2.38977 -2.64365,-4.21625 -2.25321,-5.04435z" fill="#ff0000" stroke="#000000" stroke-width="0" stroke-linecap="round"/><path d="M252.92407,159.27955c-1.61734,-2.14732 -0.21063,-2.53627 1.29024,-4.1874c3.09992,-3.41027 4.45589,-7.67694 7.74142,-6.9092c3.28554,0.76773 -3.07814,7.24244 -2.15039,8.16542c1.0814,1.07583 3.31957,-0.34521 5.16094,-2.30307c5.10117,-5.42389 8.11579,-11.43216 12.90236,-8.58416c4.78657,2.848 -6.28364,7.08115 -9.03165,10.88723c-2.74802,3.80608 -5.52425,10.54692 -7.95646,9.63101c-1.87391,-0.70567 1.40462,-3.19009 -2.469,-6.25671c-3.30483,-2.61633 -4.42637,0.96564 -5.48745,-0.44313z" fill="#ff0000" stroke="#000000" stroke-width="0" stroke-linecap="round"/><path d="M158.15445,255.06545v-159.81675h159.81675v159.81675z" fill="none" stroke="#ffe8e8" stroke-width="0" stroke-linecap="butt"/></g></g></svg>