<svg version="1.1" xmlns="http://www.w3.org/2000/svg" xmlns:xlink="http://www.w3.org/1999/xlink" width="201.90479" height="167.90461" viewBox="0,0,201.90479,167.90461"><defs><radialGradient cx="206.40227" cy="159.33849" r="38.25582" gradientUnits="userSpaceOnUse" id="color-1"><stop offset="0" stop-color="#180036"/><stop offset="1" stop-color="#1d1d1d"/></radialGradient></defs><g transform="translate(-90.1148,-87.93002)"><g stroke-miterlimit="10"><g stroke="#000000"><g stroke-width="0" stroke-linecap="round"><path d="M223.86242,193.76599l9.71756,7.85881l-4.66271,0.91712l5.07293,6.38941l-1.17907,20.43957l-19.76082,-9.60082l-2.64507,-7.2959l-2.99786,2.40074l-3.45942,-10.42422" fill="#0063eb"/><path d="M220.09108,194.27035l6.67554,5.39868l-3.20308,0.63002l5.47185,7.60148l-0.80997,14.04109l-13.57483,-6.59536l-3.80399,-8.22419l-2.0594,1.6492l-2.37648,-7.16099" fill="#629beb"/></g><path d="M217.18209,202.89613c-9.73585,5.03306 -13.89225,3.88834 -13.89225,3.88834l-28.32045,-45.78461c0,0 -8.95689,-14.47807 3.11619,-21.10912c11.5122,-6.32298 20.62016,8.37388 20.62016,8.37388l28.60094,45.63415c0,0 -0.11093,3.82071 -10.12458,8.99738z" fill="#5d5d5d" stroke-width="1.2" stroke-linecap="butt"/></g><g stroke="#000000"><g stroke-width="0" stroke-linecap="round"><path d="M271.19203,169.13731l11.52175,4.18556l-3.83992,2.55894l6.83846,4.41295l6.30727,20.33442l-21.13166,-2.29546l-4.99349,-6.16326l-1.81654,3.40969l-6.84857,-8.9202" fill="#0063eb"/><path d="M268.0007,170.97569l7.91495,2.87529l-2.63785,1.75789l7.63179,5.45132l4.33281,13.96885l-14.51652,-1.57687l-6.36438,-6.65373l-1.2479,2.34232l-4.70466,-6.12777" fill="#629beb"/></g><path d="M268.50576,180.41844c-6.89479,8.38094 -11.0245,8.75027 -11.0245,8.75027l-41.81974,-34.49025c0,0 -13.2255,-10.90607 -4.81589,-21.67865c8.01894,-10.27212 21.45833,0.79314 21.45833,0.79314l42.01639,34.24346c0,0 1.27692,3.76194 -5.81462,12.38202z" fill="#5d5d5d" stroke-width="1.2" stroke-linecap="butt"/></g><g stroke="#000000" stroke-width="1.2"><path d="M244.68062,210.16562l-7.51201,-2.24926l-1.91212,-13.4683l-3.57035,-11.01668l2.66608,-3.80815l4.26639,-1.57156l10.53389,6.85315l11.6259,5.74481l-0.5055,7.80305l-6.23959,7.04104z" fill="#707070" stroke-linecap="round"/><path d="M262.48596,231.52318l-18.87504,-27.07943l-1.92457,2.02696l6.83688,-7.16813l9.46921,-5.6863l-2.77089,1.71673l20.78454,26.30238" fill="#5d5d5d" stroke-linecap="round"/><path d="M277.02105,236.99873c-4.45789,3.26022 -10.71466,2.28932 -13.97488,-2.16857c-3.26022,-4.45789 -2.28932,-10.71466 2.16857,-13.97488c4.45789,-3.26022 10.71466,-2.28933 13.97488,2.16857c3.26022,4.45789 2.28933,10.71466 -2.16856,13.97488z" fill="#707070" stroke-linecap="butt"/></g><g stroke="#000000" stroke-width="1.2"><path d="M242.50781,116.58227c2.23048,-9.10298 6.7653,-16.37245 10.12881,-16.23684c3.3635,0.1356 4.28197,7.62496 2.05147,16.72793c-2.23048,9.10298 -6.7653,16.37244 -10.1288,16.23683c-3.36349,-0.13562 -4.28197,-7.62495 -2.05148,-16.72792z" fill="#454545" stroke-linecap="butt"/><path d="M225.64497,144.11284l11.87291,-55.29199l7.68679,-0.27981l8.87649,11.83968l-4.59911,17.26658l-7.03552,-0.01596l1.18307,-6.33585l-8.22281,35.5918" fill="#5d5d5d" stroke-linecap="round"/></g><g stroke="#000000" stroke-width="1.2"><path d="M170.93248,121.58606c-0.41618,-8.89735 2.03601,-16.70141 5.47712,-17.43085c3.44108,-0.72945 6.56804,5.89195 6.98421,14.78931c0.2351,5.02601 -0.44512,9.70315 -1.70183,12.95326c-0.96799,2.50342 -2.27802,4.1602 -3.7753,4.47759c-3.44109,0.72943 -6.56804,-5.89196 -6.98421,-14.78933z" fill="#454545" stroke-linecap="butt"/><path d="M166.23818,150.21051l-4.22194,-53.61795l7.69108,-2.20678l8.53083,8.7526l0.41698,16.97002l-3.19891,1.60166l-0.66319,-6.099l2.13103,34.66142" fill="#5d5d5d" stroke-linecap="round"/></g><path d="M157.34633,252.67839l-30.44494,-12.09256l1.02799,-7.08472l4.30073,-6.47608l30.94133,9.94889" fill="#5d5d5d" stroke="#000000" stroke-width="1.2" stroke-linecap="round"/><g stroke="#000000" stroke-width="1.2"><path d="M170.16924,216.43551l-7.76185,-5.31624l-2.38412,-7.44709l9.88412,-8.39456l8.55576,-9.20476l4.52024,0.48916l3.51059,3.04727l-0.78996,11.55383l1.41368,13.5297l-6.74156,4.00511z" fill="#707070" stroke-linecap="round"/><path d="M152.7708,237.4272l13.7798,-30.56026l-3.10468,-0.99294l10.56613,3.21821l8.37212,5.29458l-2.35895,-1.49927l-11.73881,30.85065" fill="#5d5d5d" stroke-linecap="round"/><path d="M150.01944,239.54677c2.08086,-5.11584 7.91496,-7.57617 13.0308,-5.49531c5.11584,2.08086 7.57617,7.91495 5.4953,13.0308c-2.08086,5.11584 -7.91495,7.57617 -13.03079,5.49531c-5.11584,-2.08086 -7.57617,-7.91495 -5.49531,-13.03079z" fill="#707070" stroke-linecap="butt"/></g><g><g stroke-linecap="butt"><g><path d="M206.15181,213.21818c-25.35168,3.22629 -48.51869,-14.70987 -51.74498,-40.06154c-3.22629,-25.35168 14.70987,-48.51869 40.06154,-51.74498c25.35168,-3.22629 48.51869,14.70986 51.74498,40.06155c3.22629,25.35168 -14.70986,48.51869 -40.06154,51.74498z" fill="#5d5d5d" stroke="#000000" stroke-width="1.2"/><path d="M205.75271,212.62236c0,0 -1.89123,0.21113 -2.83125,0.27249c-23.87186,1.55837 -45.13543,-15.72561 -48.19646,-39.77871c-3.08713,-24.25818 13.47436,-46.48799 37.29971,-50.69288c0.72884,-0.12865 2.20652,-0.33483 2.20652,-0.33483z" fill="#686868" stroke="#000000" stroke-width="0"/><path d="M204.54962,208.24939c-22.54041,2.86854 -43.13842,-13.07867 -46.00693,-35.61907c-2.86854,-22.5404 13.07868,-43.13842 35.61908,-46.00693c22.5404,-2.86853 43.13842,13.07868 46.00693,35.61908c2.86854,22.54041 -13.07868,43.13841 -35.61908,46.00693z" fill="#707070" stroke="#838383" stroke-width="0"/><path d="M204.18523,205.38612c-20.95905,2.66727 -40.112,-12.16116 -42.77928,-33.12021c-2.66727,-20.95905 12.16116,-40.11199 33.12022,-42.77927c20.95905,-2.66727 40.11198,12.16115 42.77926,33.12021c2.66727,20.95905 -12.16115,40.112 -33.1202,42.77928z" fill="url(#color-1)" stroke="#000000" stroke-width="1.2"/></g><g stroke="#000000"><path d="M237.79675,174.02769c-0.02973,0.13259 -0.04636,0.20402 -0.04636,0.20402c0,0 -0.71024,0.07395 -1.062,0.08655c-5.92339,0.21207 -11.13701,-4.12729 -11.89988,-10.12178c-0.72984,-5.73488 2.86348,-11.02346 8.24391,-12.59009c0.45479,-0.13243 1.30411,-0.28683 1.64459,-0.34649c0,0 3.5551,6.49918 4.18242,11.07737c0.62731,4.57818 -1.06269,11.69039 -1.06269,11.69039z" fill="#707070" stroke-width="0"/><path d="M237.79673,174.02766c-0.02973,0.1326 -0.04636,0.20403 -0.04636,0.20403c0,0 -0.71024,0.07395 -1.062,0.08655c-5.92339,0.21207 -11.13701,-4.1273 -11.89988,-10.12179c-0.72984,-5.73488 2.8635,-11.02346 8.24392,-12.59009c0.45479,-0.13243 1.30411,-0.28683 1.64458,-0.34649" fill="none" stroke-width="1.2"/></g><g stroke="#000000"><path d="M163.80645,183.2288c0,0 -2.27796,-4.46158 -3.12733,-11.15717c-0.87448,-6.89358 0.37276,-11.65708 0.37276,-11.65708c0.23136,-0.01312 0.80964,-0.04039 1.12971,-0.00657c3.78646,0.40005 7.20221,4.79664 7.93203,10.53152c0.76287,5.99448 -1.68158,11.30841 -5.53388,12.34041c-0.22875,0.0613 -0.70081,0.13781 -0.70081,0.13781c0,0 -0.02562,-0.06607 -0.07246,-0.18892z" fill="#707070" stroke-width="0"/><path d="M161.05189,160.41455c0.23136,-0.01312 0.80964,-0.04039 1.12971,-0.00657c3.78646,0.40005 7.20221,4.79664 7.93203,10.53152c0.76287,5.99448 -1.68158,11.30841 -5.53388,12.34041c-0.22875,0.0613 -0.70081,0.13781 -0.70081,0.13781c0,0 -0.02562,-0.06607 -0.07246,-0.18892" fill="none" stroke-width="1.2"/></g><path d="M233.55414,167.88506l-4.72269,-1.10887l-0.79064,-6.21277l4.1783,-2.1101l4.70621,0.97944l0.79065,6.21278z" fill="#21cc26" stroke="#17921c" stroke-width="1.2"/><path d="M165.36918,176.56236l-3.29139,-1.29102l-0.79065,-6.21278l2.78909,-1.9333l3.27493,1.16159l0.79065,6.21278z" fill="#21cc26" stroke="#17921c" stroke-width="1.2"/></g><g stroke-linecap="round"><path d="M202.36727,139.84742l-1.63618,0.76287l-1.61881,0.89931l-1.39554,1.56422l0.08807,1.23673l-0.75049,0.09551l0.08183,2.27749l-0.82614,0.59044l-0.85713,-1.83217l-1.2578,-1.71185l-1.33347,-1.2169l-1.77632,-0.88323l-1.21937,0.22451l-1.20449,-0.74802l1.14122,-0.83854l2.3941,-1.34464l1.12263,-1.52947l1.01966,-1.7937l0.39573,-2.33827l1.1561,2.00212l0.87326,1.41414l1.43643,1.48111l1.56051,-0.26791l0.48005,1.04819l2.18321,-0.27783z" fill="#eee796" stroke="#eee796" stroke-width="0.25"/><path d="M197.57823,137.08221l-0.69816,0.08884l1.20076,-0.15281l0.14326,1.12572l1.80115,-0.22921l0.11461,0.90057l2.25143,-0.28652l0.17191,1.35086" fill="none" stroke="#cec344" stroke-width="0.75"/><path d="M194.11287,133.405l1.35086,-0.17191l0.28653,2.25144l0.90058,-0.11461l0.22921,1.80115l-0.12437,-0.97733" fill="none" stroke="#cec344" stroke-width="0.75"/><path d="M188.84989,141.62485l-0.17192,-1.35087l2.25144,-0.28652l-0.11462,-0.90058l1.80115,-0.22921l-0.14325,-1.12573l1.20076,-0.15281l-0.69817,0.08884" fill="none" stroke="#cec344" stroke-width="0.75"/><path d="M193.54908,136.60181l0.12437,0.97734l-0.22921,-1.80115l0.90058,-0.11461l-0.28653,-2.25144l1.35086,-0.17192" fill="none" stroke="#cec344" stroke-width="0.75"/><path d="M202.40776,138.65844l0.17191,1.35086l-2.25143,0.28652l0.11461,0.90058l-1.80115,0.22922l0.14326,1.12572l-1.20076,0.15281l0.69817,-0.08884" fill="none" stroke="#cec344" stroke-width="0.75"/><path d="M197.70857,143.68148l-0.12437,-0.97733l0.22922,1.80114l-0.90058,0.11461l0.28653,2.25144l-1.35087,0.17191" fill="none" stroke="#cec344" stroke-width="0.75"/><path d="M193.67943,143.20108l0.69817,-0.08884l-1.20076,0.15281l-0.14326,-1.12572l-1.80115,0.22921l-0.11461,-0.90058l-2.25144,0.28653l-0.17191,-1.35086" fill="none" stroke="#cec344" stroke-width="0.75"/><path d="M197.14479,146.87828l-1.35087,0.17192l-0.28653,-2.25144l-0.90057,0.11461l-0.22922,-1.80115l0.12437,0.97733" fill="none" stroke="#cec344" stroke-width="0.75"/></g><g stroke-linecap="round"><path d="M209.35272,194.73807l-1.63619,0.76287l-1.61881,0.89932l-1.39554,1.56421l0.08807,1.23673l-0.75048,0.0955l0.08183,2.27749l-0.82614,0.59044l-0.85713,-1.83216l-1.2578,-1.71185l-1.33347,-1.2169l-1.77633,-0.88323l-1.21937,0.22451l-1.20449,-0.74803l1.14123,-0.83854l2.3941,-1.34464l1.12263,-1.52948l1.01967,-1.79369l0.39572,-2.33827l1.1561,2.00212l0.87327,1.41413l1.43643,1.48112l1.56051,-0.26792l0.48005,1.04819l2.18321,-0.27783z" fill="#eee796" stroke="#eee796" stroke-width="0.25"/><path d="M204.56369,191.97286l-0.69817,0.08884l1.20076,-0.1528l0.14326,1.12571l1.80115,-0.22922l0.11461,0.90058l2.25144,-0.28652l0.17191,1.35086" fill="none" stroke="#cec344" stroke-width="0.75"/><path d="M201.09832,188.29563l1.35086,-0.17191l0.28652,2.25144l0.90058,-0.11461l0.22922,1.80115l-0.12437,-0.97733" fill="none" stroke="#cec344" stroke-width="0.75"/><path d="M195.83535,196.51547l-0.17191,-1.35086l2.25143,-0.28652l-0.11461,-0.90058l1.80115,-0.22922l-0.14326,-1.12571l1.20076,-0.15281l-0.69817,0.08884" fill="none" stroke="#cec344" stroke-width="0.75"/><path d="M200.53454,191.49244l0.12437,0.97735l-0.22922,-1.80115l0.90058,-0.11461l-0.28652,-2.25144l1.35087,-0.17192" fill="none" stroke="#cec344" stroke-width="0.75"/><path d="M209.39322,193.54907l0.17192,1.35087l-2.25144,0.28653l0.11462,0.90058l-1.80115,0.22922l0.14326,1.12571l-1.20076,0.15281l0.69816,-0.08885" fill="none" stroke="#cec344" stroke-width="0.75"/><path d="M204.69403,198.5721l-0.12437,-0.97734l0.22921,1.80115l-0.90058,0.11462l0.28653,2.25144l-1.35087,0.17191" fill="none" stroke="#cec344" stroke-width="0.75"/><path d="M200.66489,198.09169l0.69817,-0.08884l-1.20076,0.15281l-0.14326,-1.12571l-1.80115,0.22921l-0.11461,-0.90058l-2.25143,0.28653l-0.17192,-1.35087" fill="none" stroke="#cec344" stroke-width="0.75"/><path d="M204.13025,201.7689l-1.35087,0.17191l-0.28652,-2.25144l-0.90058,0.11461l-0.22922,-1.80115l0.12438,0.97734" fill="none" stroke="#cec344" stroke-width="0.75"/></g><g stroke-linecap="round"><path d="M181.70753,145.68446l-0.61752,1.69638l-0.50878,1.78059l0.11928,2.09285l0.93677,0.81223l-0.46314,0.59821l1.66829,1.55255l-0.16667,1.00169l-1.90162,-0.68945l-2.09987,-0.32106l-1.80339,0.08243l-1.88058,0.63153l-0.70347,1.02098l-1.38063,0.32276l0.21403,-1.3999l0.7421,-2.6437l-0.28767,-1.87531l-0.54733,-1.98937l-1.37357,-1.93322l2.23318,0.59823l1.61745,0.38245l2.06301,0.03161l0.91399,-1.29289l1.08064,0.40175l1.34731,-1.74023z" fill="#eee796" stroke="#eee796" stroke-width="0.25"/><path d="M176.36585,147.11554l-0.43086,0.55651l0.74102,-0.95713l0.8973,0.69471l1.11153,-1.43569l0.71784,0.55576l1.38941,-1.79459l1.07677,0.83364" fill="none" stroke="#cec344" stroke-width="0.75"/><path d="M171.3153,146.96576l0.83364,-1.07677l1.79459,1.3894l0.55577,-0.71785l1.43569,1.11153l-0.77901,-0.60312" fill="none" stroke="#cec344" stroke-width="0.75"/><path d="M173.4061,156.49952l-1.07677,-0.83364l1.38941,-1.7946l-0.71784,-0.55576l1.11153,-1.43568l-0.8973,-0.6947l0.74102,-0.95712l-0.43086,0.55651" fill="none" stroke="#cec344" stroke-width="0.75"/><path d="M173.17713,149.62491l0.77902,0.60313l-1.43568,-1.11153l0.55576,-0.71785l-1.7946,-1.38941l0.83364,-1.07677" fill="none" stroke="#cec344" stroke-width="0.75"/><path d="M180.89541,144.81512l1.07677,0.83364l-1.38941,1.7946l0.71786,0.55577l-1.11154,1.43568l0.8973,0.6947l-0.74101,0.95712l0.43085,-0.5565" fill="none" stroke="#cec344" stroke-width="0.75"/><path d="M181.12442,151.68975l-0.77901,-0.60313l1.43567,1.11152l-0.55576,0.71785l1.7946,1.38941l-0.83364,1.07677" fill="none" stroke="#cec344" stroke-width="0.75"/><path d="M177.93568,154.19912l0.43086,-0.55652l-0.74101,0.95712l-0.8973,-0.6947l-1.11153,1.43569l-0.71785,-0.55577l-1.3894,1.7946l-1.07677,-0.83364" fill="none" stroke="#cec344" stroke-width="0.75"/><path d="M182.98622,154.3489l-0.83364,1.07677l-1.79459,-1.3894l-0.55577,0.71785l-1.43569,-1.11153l0.77902,0.60313" fill="none" stroke="#cec344" stroke-width="0.75"/></g><g stroke-linecap="round"><path d="M225.46053,179.55852l-0.61752,1.69638l-0.50877,1.78059l0.11926,2.09285l0.93678,0.81223l-0.46313,0.5982l1.6683,1.55256l-0.16668,1.00169l-1.90162,-0.68945l-2.09987,-0.32106l-1.80338,0.08244l-1.88059,0.63152l-0.70347,1.02099l-1.38064,0.32277l0.21404,-1.3999l0.74209,-2.6437l-0.28767,-1.87533l-0.54732,-1.98935l-1.37358,-1.93322l2.23319,0.59823l1.61744,0.38245l2.06302,0.03161l0.91398,-1.29289l1.08064,0.40174l1.34731,-1.74022z" fill="#eee796" stroke="#eee796" stroke-width="0.25"/><path d="M220.11885,180.98962l-0.43086,0.55651l0.74102,-0.95712l0.89729,0.6947l1.11153,-1.43569l0.71785,0.55577l1.3894,-1.7946l1.07677,0.83364" fill="none" stroke="#cec344" stroke-width="0.75"/><path d="M215.06832,180.83983l0.83364,-1.07677l1.79461,1.38941l0.55577,-0.71785l1.43568,1.11153l-0.77902,-0.60313" fill="none" stroke="#cec344" stroke-width="0.75"/><path d="M217.15913,190.37361l-1.07677,-0.83364l1.38941,-1.79461l-0.71785,-0.55576l1.11153,-1.43569l-0.89729,-0.6947l0.74102,-0.95712l-0.43086,0.55651" fill="none" stroke="#cec344" stroke-width="0.75"/><path d="M216.93013,183.49898l0.77902,0.60313l-1.43569,-1.11152l0.55577,-0.71785l-1.79461,-1.38941l0.83365,-1.07677" fill="none" stroke="#cec344" stroke-width="0.75"/><path d="M224.64843,178.6892l1.07677,0.83364l-1.38941,1.7946l0.71785,0.55577l-1.11153,1.43568l0.89729,0.6947l-0.74101,0.95712l0.43085,-0.5565" fill="none" stroke="#cec344" stroke-width="0.75"/><path d="M224.87742,185.56382l-0.77903,-0.60313l1.43569,1.11153l-0.55577,0.71785l1.79461,1.38941l-0.83364,1.07677" fill="none" stroke="#cec344" stroke-width="0.75"/><path d="M221.68869,188.07318l0.43086,-0.5565l-0.74101,0.95712l-0.89729,-0.69469l-1.11153,1.43568l-0.71785,-0.55576l-1.38941,1.7946l-1.07677,-0.83364" fill="none" stroke="#cec344" stroke-width="0.75"/><path d="M226.73924,188.22298l-0.83365,1.07677l-1.7946,-1.38941l-0.55576,0.71785l-1.43569,-1.11153l0.77901,0.60313" fill="none" stroke="#cec344" stroke-width="0.75"/></g><g stroke-linecap="round"><path d="M221.10338,150.32865l-1.69637,-0.61753l-1.78059,-0.50877l-2.09285,0.11927l-0.81223,0.93677l-0.5982,-0.46313l-1.55255,1.66829l-1.00169,-0.16667l0.68945,-1.90163l0.32106,-2.09986l-0.08244,-1.80339l-0.63152,-1.88058l-1.02098,-0.70347l-0.32278,-1.38063l1.39991,0.21404l2.64369,0.7421l1.87533,-0.28767l1.98935,-0.54732l1.93322,-1.37357l-0.59823,2.23317l-0.38245,1.61744l-0.03161,2.06302l1.29289,0.91398l-0.40175,1.08064l1.74023,1.34731z" fill="#eee796" stroke="#eee796" stroke-width="0.25"/><path d="M219.67229,144.98696l-0.5565,-0.43086l0.95712,0.74102l-0.6947,0.8973l1.43569,1.11153l-0.55577,0.71786l1.79461,1.3894l-0.83364,1.07677" fill="none" stroke="#cec344" stroke-width="0.75"/><path d="M219.82207,139.93641l1.07677,0.83364l-1.38939,1.7946l0.71785,0.55577l-1.11153,1.43568l0.60313,-0.77901" fill="none" stroke="#cec344" stroke-width="0.75"/><path d="M210.2883,142.02722l0.83364,-1.07677l1.7946,1.38941l0.55576,-0.71786l1.43568,1.11153l0.6947,-0.8973l0.95713,0.74102l-0.55651,-0.43086" fill="none" stroke="#cec344" stroke-width="0.75"/><path d="M217.16292,141.79824l-0.60313,0.77902l1.11153,-1.43569l0.71785,0.55577l1.38941,-1.7946l1.07677,0.83364" fill="none" stroke="#cec344" stroke-width="0.75"/><path d="M221.97271,149.51652l-0.83365,1.07677l-1.7946,-1.3894l-0.55577,0.71785l-1.43569,-1.11153l-0.6947,0.8973l-0.95712,-0.74102l0.5565,0.43085" fill="none" stroke="#cec344" stroke-width="0.75"/><path d="M215.09807,149.74553l0.60313,-0.77902l-1.11152,1.43568l-0.71785,-0.55576l-1.38941,1.7946l-1.07677,-0.83364" fill="none" stroke="#cec344" stroke-width="0.75"/><path d="M212.58872,146.55681l0.5565,0.43085l-0.95711,-0.74102l0.6947,-0.89729l-1.43569,-1.11153l0.55577,-0.71785l-1.79461,-1.38941l0.83364,-1.07677" fill="none" stroke="#cec344" stroke-width="0.75"/><path d="M212.43894,151.60734l-1.07677,-0.83364l1.38941,-1.7946l-0.71784,-0.55576l1.11152,-1.43569l-0.60313,0.77902" fill="none" stroke="#cec344" stroke-width="0.75"/></g><g stroke-linecap="round"><path d="M187.22929,194.08164l-1.69638,-0.61753l-1.78058,-0.50877l-2.09284,0.11928l-0.81224,0.93677l-0.5982,-0.46313l-1.55255,1.6683l-1.0017,-0.16667l0.68946,-1.90163l0.32106,-2.09987l-0.08244,-1.80339l-0.63153,-1.88059l-1.02097,-0.70346l-0.32278,-1.38063l1.3999,0.21403l2.6437,0.74209l1.87532,-0.28766l1.98936,-0.54732l1.93322,-1.37358l-0.59824,2.23318l-0.38245,1.61744l-0.0316,2.06302l1.29289,0.91399l-0.40175,1.08064l1.74022,1.34731z" fill="#eee796" stroke="#eee796" stroke-width="0.25"/><path d="M185.79822,188.73997l-0.5565,-0.43085l0.95712,0.74101l-0.6947,0.8973l1.43569,1.11153l-0.55577,0.71785l1.79459,1.38941l-0.83364,1.07677" fill="none" stroke="#cec344" stroke-width="0.75"/><path d="M185.948,183.68942l1.07677,0.83364l-1.3894,1.7946l0.71785,0.55577l-1.11153,1.43568l0.60313,-0.77902" fill="none" stroke="#cec344" stroke-width="0.75"/><path d="M176.41422,185.78026l0.83364,-1.07677l1.7946,1.3894l0.55577,-0.71785l1.43569,1.11153l0.6947,-0.8973l0.95712,0.74101l-0.5565,-0.43086" fill="none" stroke="#cec344" stroke-width="0.75"/><path d="M183.28884,185.55124l-0.60313,0.77902l1.11153,-1.43569l0.71786,0.55577l1.38941,-1.79459l1.07677,0.83364" fill="none" stroke="#cec344" stroke-width="0.75"/><path d="M188.09864,193.26953l-0.83364,1.07677l-1.7946,-1.38941l-0.55576,0.71785l-1.43568,-1.11153l-0.6947,0.8973l-0.95712,-0.741l0.55652,0.43085" fill="none" stroke="#cec344" stroke-width="0.75"/><path d="M181.22402,193.49853l0.60313,-0.77901l-1.11153,1.43568l-0.71786,-0.55576l-1.38941,1.7946l-1.07677,-0.83364" fill="none" stroke="#cec344" stroke-width="0.75"/><path d="M178.71464,190.30981l0.55651,0.43086l-0.95712,-0.74102l0.6947,-0.8973l-1.43569,-1.11153l0.55577,-0.71785l-1.7946,-1.38941l0.83364,-1.07677" fill="none" stroke="#cec344" stroke-width="0.75"/><path d="M178.56486,195.36034l-1.07677,-0.83365l1.38941,-1.7946l-0.71785,-0.55576l1.11152,-1.43568l-0.60313,0.77902" fill="none" stroke="#cec344" stroke-width="0.75"/></g></g><g stroke-linecap="round"><g><path d="M204.78139,168.93247l-1.27643,-8.36121l2.41793,-0.25652l-0.39888,-2.61289l2.41793,-0.25651l-0.34569,-2.2645l6.73564,-0.71457l0.3457,2.2645l2.93604,-0.31149l0.39888,2.61289l2.41793,-0.25652l1.27643,8.36122" fill="#ffebb0" stroke="#00a8c1" stroke-width="0"/><path d="M204.22858,165.31136l0.55279,3.62112l-1.27643,-8.36122l2.41793,-0.25651l-0.39887,-2.61289l2.41792,-0.25652l-0.34569,-2.2645l6.73564,-0.71457l0.3457,2.2645l2.93604,-0.31148l0.39888,2.61289l2.41793,-0.25651l1.27643,8.36122l-0.6864,-4.49634" fill="none" stroke="#c7ba92" stroke-width="1.5"/></g><g><path d="M221.65659,166.8076l1.27642,8.36122l-2.41792,0.25651l0.39887,2.61289l-2.93604,0.31149l0.34569,2.2645l-6.73564,0.71457l-0.3457,-2.2645l-2.41793,0.25651l-0.39887,-2.61289l-2.41793,0.25651l-1.27642,-8.36122" fill="#ffebb0" stroke="#00a8c1" stroke-width="0"/><path d="M222.34298,171.30393l-0.6864,-4.49633l1.27643,8.36121l-2.41793,0.25652l0.39887,2.61289l-2.93604,0.31148l0.34569,2.2645l-6.73564,0.71457l-0.3457,-2.2645l-2.41793,0.25651l-0.39887,-2.61289l-2.41793,0.25652l-1.27643,-8.36122l0.55281,3.62112" fill="none" stroke="#c7ba92" stroke-width="1.5"/></g></g><g stroke-linecap="round"><g><path d="M178.67556,172.16746l-1.27643,-8.36121l2.41793,-0.25652l-0.39887,-2.61289l2.41792,-0.25651l-0.34569,-2.2645l6.73564,-0.71457l0.3457,2.2645l2.93605,-0.31149l0.39887,2.61289l2.41793,-0.25652l1.27643,8.36122" fill="#ffebb0" stroke="#00a8c1" stroke-width="0"/><path d="M178.12274,168.54634l0.55281,3.62112l-1.27643,-8.36122l2.41793,-0.25651l-0.39887,-2.61289l2.41793,-0.25652l-0.3457,-2.2645l6.73564,-0.71457l0.3457,2.2645l2.93605,-0.31148l0.39887,2.61289l2.41793,-0.25651l1.27643,8.36122l-0.6864,-4.49634" fill="none" stroke="#c7ba92" stroke-width="1.5"/></g><g><path d="M195.55075,170.04258l1.27643,8.36122l-2.41793,0.25651l0.39887,2.61289l-2.93604,0.31149l0.34569,2.2645l-6.73564,0.71457l-0.3457,-2.2645l-2.41793,0.25651l-0.39887,-2.61289l-2.41793,0.25651l-1.27643,-8.36122" fill="#ffebb0" stroke="#00a8c1" stroke-width="0"/><path d="M196.23714,174.53891l-0.6864,-4.49633l1.27643,8.36121l-2.41793,0.25652l0.39887,2.61289l-2.93604,0.31148l0.3457,2.2645l-6.73564,0.71457l-0.3457,-2.2645l-2.41793,0.25651l-0.39887,-2.61289l-2.41793,0.25652l-1.27643,-8.36122l0.55281,3.62112" fill="none" stroke="#c7ba92" stroke-width="1.5"/></g></g><g fill="#5d5d5d" stroke="#000000" stroke-width="1.2" stroke-linecap="round"><path d="M137.46063,241.62228l0.01825,6.37937l-15.12588,6.3275l-5.45767,0.83977l-2.02346,-5.09371l0.71289,-2.88661l-2.83318,-0.04341l-2.59611,-7.20399l-9.77005,5.9001l-6.43267,2.13031l-3.0569,-6.22398l3.59949,-2.17372l9.81846,-6.98195l14.35456,-5.8617l-2.07188,-4.01186l2.09525,-5.82664l1.27551,-4.27899l7.04873,-2.85322l-0.24208,5.40926l1.97505,6.17557l3.74824,5.45492"/><path d="M112.31415,238.28671l7.15558,-1.51426l2.67291,-1.96503l5.16217,3.9l-1.99341,5.41426l4.90506,4.05527l-3.3908,3.10031"/></g><g stroke="#000000" stroke-width="1.2"><path d="M239.69486,228.77615c-6.87363,-1.76183 -11.01757,-8.76226 -9.25574,-15.6359c1.76184,-6.87364 8.76227,-11.01757 15.6359,-9.25573c6.87363,1.76183 11.01758,8.76226 9.25574,15.6359c-1.76184,6.87364 -8.76227,11.01757 -15.6359,9.25573z" fill="#5c5e5f" stroke-linecap="butt"/><g stroke-linecap="round"><path d="M269.93,232.18516l-5.37209,7.78692l-5.41947,-3.31833l-6.85807,0.41256l-3.35428,-7.6121" fill="#5d5d5d"/><path d="M253.63705,207.63254l3.13151,-1.24822l3.89344,2.68604l4.03806,-2.58229l6.42346,5.98723l3.46376,-1.28257l5.69804,4.11321l2.53654,11.74326l-8.33099,9.92234l-6.16777,-1.33976l-2.19344,-2.73261l-3.40575,1.05627l-5.20461,-1.33404l-1.00399,-2.66888l-3.40576,1.05628l-4.40975,-1.61261l-0.82509,-13.71614z" fill="#5d5d5d"/><path d="M256.97277,219.70015l-0.27775,8.61036" fill="none"/><path d="M267.03972,222.76279l-0.67233,8.26808" fill="none"/></g><path d="M283.47306,233.0038l-7.06483,-1.81084l-1.11187,-5.83154l4.10607,-4.49409l6.79671,1.50096l1.48505,6.4095z" fill="#5c5e5f" stroke-linecap="round"/></g></g></g></svg>