<svg version="1.1" xmlns="http://www.w3.org/2000/svg" xmlns:xlink="http://www.w3.org/1999/xlink" width="112.56704" height="127.67275" viewBox="0,0,112.56704,127.67275"><g transform="translate(-177.0077,-110.525)"><g stroke-miterlimit="10"><g stroke="#000000" stroke-width="1.2"><path d="M270.69002,153.84489c0,0 14.21537,-11.01989 17.41789,-2.57093c3.20257,8.44888 -2.63501,18.9281 -14.76631,28.8222c0,0 0.33077,-15.06528 -2.65154,-26.25128zM270.69002,153.84489c-0.24758,-1.31509 -1.07344,-3.8087 -1.07344,-3.8087M273.01728,182.45844l0.16225,-2.44315" fill="#9a8479" stroke-linecap="round"/><path d="M273.17953,180.01432c0.09038,-2.79197 0.10687,-7.3811 -0.36074,-13.08203c-0.26929,-3.31812 -0.80259,-6.72541 -1.35221,-9.6629l0.00148,0.00378c8.31283,-3.19888 15.65966,6.15374 15.65966,6.15374l0.00303,-0.00015c-4.18655,9.04578 -13.8837,16.34038 -13.8837,16.34038z" fill="#ee4036" stroke-linecap="butt"/></g><path d="M185.28955,155.79144c2.26642,-18.51711 11.9068,-27.89414 17.56368,-32.82379c12.84026,-11.19707 31.24694,-10.57873 31.24694,-10.57873l-0.07322,12.10391c0,0 0.17341,-3.47198 7.93093,-9.09428c7.75564,-5.6224 18.63284,-4.07994 18.63284,-4.07994l-6.70794,14.77075c0,0 3.70189,-4.50414 6.60727,-6.05692c5.1507,-2.7478 9.27268,-1.18661 9.27268,-1.18661l-2.13235,11.79044c0,0 13.41637,22.17999 12.73535,36.81352c-0.68102,14.63354 -6.84833,40.43232 -42.41095,39.18771c-61.53452,-3.93972 -52.66523,-50.84605 -52.66523,-50.84605z" fill="#9a8479" stroke="#000000" stroke-width="1.2" stroke-linecap="butt"/><g stroke="#000000" stroke-width="1.2"><path d="M196.68444,182.24665c-13.94806,-4.2046 -21.19062,-11.38305 -18.53408,-20.24251c2.65749,-8.86044 18.94901,-4.45014 18.94901,-4.45014c-2.16631,11.24052 -0.41491,24.69265 -0.41491,24.69265zM197.90019,153.70422c0,0 -0.65669,2.56711 -0.7999,3.84966M196.851,182.10913l0.40117,2.14011" fill="#9a8479" stroke-linecap="round"/><path d="M196.75567,181.91349c0,0 -11.09307,-2.80818 -16.42901,-9.3341l0.00281,-0.00133c0,0 7.02518,-11.28443 16.25137,-11.63127l0.00109,-0.00304c-0.31825,2.86026 -0.57507,6.13913 -0.55613,9.23377c0.02613,5.32105 0.46914,9.45112 0.8252,11.93162z" fill="#ee4036" stroke-linecap="butt"/></g><g fill="none" stroke="#ee4036" stroke-width="1.2" stroke-linecap="round"><path d="M210.10932,136.82762l-3.84359,5.37211l-5.40403,-2.62614"/><path d="M199.14493,142.33789l4.32338,3.37157l-2.25847,6.22425"/><path d="M214.76959,147.97678l-4.73333,-3.6198l2.66839,-5.97602"/><path d="M203.82827,153.50101l3.81689,-4.84988l5.43076,2.10391"/></g><g><path d="M272.88694,175.85158c-0.76825,12.79549 -15.96302,22.29336 -33.93845,21.21411c-17.97544,-1.07926 -31.92462,-12.32696 -31.15636,-25.12245c0.76825,-12.79549 15.96303,-22.29336 33.93845,-21.21411c17.97544,1.07926 31.92462,12.32696 31.15636,25.12245z" fill="#e6e7e8" stroke="#000000" stroke-width="1.2" stroke-linecap="butt"/><g stroke="#000000"><path d="M267.41565,156.16496c0,0 -2.86027,4.25888 -6.44057,6.32814c-1.6024,0.9261 -5.96136,2.96911 -8.17327,3.38114c-5.72823,1.06705 -11.83228,0.43122 -11.83228,0.43122l5.2098,-6.62424c0,0 -4.38258,1.71107 -8.03527,2.52733c-4.95882,1.10813 -8.86367,-1.13504 -8.86367,-1.13504l14.00126,-11.79524" fill="#9a8479" stroke-width="0" stroke-linecap="butt"/><path d="M264.87023,159.23226c0,0 -4.79192,4.81344 -10.08362,6.35911c-5.2917,1.54566 -14.07844,0.69839 -14.07844,0.69839l5.47123,-6.60854c0,0 -3.5332,1.54766 -7.18587,2.3639c-4.95882,1.10812 -10.3533,-0.79563 -10.3533,-0.79563l12.99464,-10.76087" fill="none" stroke-width="1.2" stroke-linecap="round"/></g><path d="M234.9513,179.99005c10.96716,0.34884 4.37818,15.44442 4.37818,15.44442l-23.31082,-2.0473c0,0 9.79637,-13.68772 18.93264,-13.39712z" fill="#706d6d" stroke="#231f20" stroke-width="1.2" stroke-linecap="round"/><g stroke="#231f20"><path d="M237.30001,168.4186l1.49062,1.82544l-1.55741,1.06376c0,0 -16.44046,-12.6251 -23.64286,-13.81911" fill="none" stroke-width="1.2" stroke-linecap="round"/><path d="M237.53569,173.43958c-0.60494,1.37262 -1.97754,0.76766 -1.97754,0.76766l-0.75752,-0.41798c-2.26681,-2.09691 -4.02127,-2.24255 -6.80245,-1.05481c0,0 -1.38317,0.58039 -1.96357,-0.80276c-0.58039,-1.38317 0.80276,-1.96357 0.80276,-1.96357c3.89009,-1.6084 6.80326,-1.23893 9.97916,1.59939l-0.04848,-0.10549c0,0 1.37262,0.60494 0.76766,1.97754z" fill="#231f20" stroke-width="0.5" stroke-linecap="butt"/></g><g stroke="#231f20"><path d="M266.628,163.36794c-3.56995,0.88593 -11.2001,8.19204 -11.2001,8.19204l-2.48459,-0.84519l2.22094,-2.37845" fill="none" stroke-width="1.2" stroke-linecap="round"/><path d="M254.27432,174.62893c-0.73511,-1.30751 0.5724,-2.04264 0.5724,-2.04264l-0.03804,0.10969c2.8859,-3.13276 5.74954,-3.78279 9.77718,-2.55898c0,0 1.4329,0.44362 0.98929,1.87652c-0.44362,1.4329 -1.87652,0.98929 -1.87652,0.98929c-2.88319,-0.91261 -4.6153,-0.59762 -6.6682,1.7091l-0.71345,0.48942c0,0 -1.30751,0.73511 -2.04264,-0.5724z" fill="#231f20" stroke-width="0.5" stroke-linecap="butt"/></g></g><path d="M243.83842,204.99005c0.09517,-0.03565 0.19978,-0.06105 0.31309,-0.07672c0.10226,-0.02803 0.20684,-0.05134 0.31353,-0.06964c1.05659,-0.18125 13.60524,5.81753 12.78186,10.07874c-0.16848,3.45151 -3.38299,5.27107 -6.47348,3.52393c-1.59408,-0.90117 -7.39678,-6.79829 -7.81342,-7.8812c-0.58715,-0.47863 -1.01052,-1.16352 -1.14866,-1.96876c-0.24251,-1.41364 0.46741,-2.7705 1.66514,-3.41351c0.10895,-0.07794 0.22894,-0.14301 0.36196,-0.19283z" fill="#9a8479" stroke="#000000" stroke-width="1.2" stroke-linecap="butt"/><path d="M239.33442,222.06655c-1.13477,-5.72505 0.58922,-8.96304 4.27726,-6.00292c6.03477,2.99939 6.38645,12.34138 6.51597,15.28181c0.30622,6.95221 -14.81902,3.51232 -10.79323,-4.10412z" fill="#9a8479" stroke="#000000" stroke-width="1.2" stroke-linecap="butt"/><path d="M233.03972,202.88937v0v0v0v0v0v0c7.29239,-2.24038 11.32242,1.9313 11.32055,1.93075c0.91226,1.10517 2.09693,2.68655 2.80375,4.21112c0.19507,0.42117 0.37067,0.90449 0.51526,1.43233c0,0 0.41236,1.85275 0.38991,2.45026c-0.09489,2.5034 -0.56097,5.32159 -2.91477,7.05672c-3.69359,2.73196 -8.16559,3.45593 -13.35262,2.0257c-1.7499,-0.48032 -3.01047,-1.66918 -3.89631,-3.14068c-0.63451,-1.05965 -1.15196,-2.5079 -1.15196,-2.5079c-0.82708,-2.41627 -1.03321,-4.90424 -1.08469,-5.99441c0,0 0.0794,-5.2238 7.3709,-7.4639z" fill="#9a8479" stroke="#000000" stroke-width="1.2" stroke-linecap="butt"/><g stroke="#000000" stroke-width="1.2"><path d="M217.13562,211.70247c1.08728,-3.06274 4.15001,-1.97546 4.15001,-1.97546l0.99258,0.35236c0.94545,1.16246 0.28002,0.76465 0.6566,-1.28394c0,0 0.77713,-3.15572 3.93284,-2.37859c3.15572,0.77713 2.3786,3.93285 2.3786,3.93285c-0.83151,2.97445 -0.93246,5.64884 -4.81664,6.83387c-1.41408,0.43142 -2.88397,-0.65248 -4.32596,-0.97873l-0.99258,-0.35236c0,0 -3.06273,-1.08727 -1.97546,-4.15z" fill="#9a8479" stroke-linecap="butt"/><g><path d="M221.39724,199.41875c2.24291,-1.78815 5.51074,-1.4195 7.29889,0.82341c1.78815,2.24291 1.4195,5.51073 -0.82341,7.29888c-2.24291,1.78815 -5.51074,1.4195 -7.29889,-0.82341c-1.78815,-2.24291 -1.4195,-5.51073 0.82341,-7.29888z" fill="#5c5e5f" stroke-linecap="butt"/><path d="M225.6558,209.8005l0.63069,2.56996l-1.575,1.13748l-1.31727,2.35021l-1.96062,-1.27331" fill="#9a8479" stroke-linecap="round"/><path d="M224.01332,205.63106l2.00868,3.78669l-4.08176,6.28498l-4.52394,0.23913l-2.66809,-2.92422l4.37113,-7.1892z" fill="#9a8479" stroke-linecap="round"/><path d="M224.49177,211.22055l-1.31838,-2.06512" fill="none" stroke-linecap="round"/><path d="M222.60412,214.20158l-0.87939,-1.10303" fill="none" stroke-linecap="round"/><path d="M216.99699,213.75153l1.64231,0.00276l0.95933,1.2033l-0.98519,2.26152l-1.94313,0.23707l-1.11922,-1.40385z" fill="#5c5e5f" stroke-linecap="round"/></g></g><path d="M237.278,221.9108l-0.49065,13.44934c0,0 0.52555,0.03761 0.43546,0.71052c-0.08642,0.67366 -1.61457,1.46321 -6.06661,1.52709c-4.45416,0.05849 -5.37277,-0.90525 -5.41687,-1.41542c-0.04599,-0.51008 0.89396,-1.06804 0.89396,-1.06804c0,0 1.35025,-15.00102 1.75725,-16.08178" fill="#9a8479" stroke="#000000" stroke-width="1.2" stroke-linecap="butt"/></g></g></svg>