<svg version="1.1" xmlns="http://www.w3.org/2000/svg" xmlns:xlink="http://www.w3.org/1999/xlink" width="323.92859" height="323.92859" viewBox="0,0,323.92859,323.92859"><g transform="translate(-78.03571,-18.03572)"><g stroke-miterlimit="10"><g stroke-linecap="butt"><path d="M287.05093,300.69278l5.87524,-70.72106l45.02252,-0.10549l-8.36991,70.82655z" fill="#868995" stroke="#000000" stroke-width="1.2"/><g><g><g><g fill="#868995" stroke="#000000" stroke-width="1.2"><path d="M314.91629,263.73469c0,0 -14.72229,0.34976 -16.50098,-1.93606c-1.3725,-1.76382 0.99403,-25.0985 2.72753,-26.8075c1.77956,-1.75441 16.48082,-1.78714 16.48082,-1.78714"/></g><g fill="none" stroke="none" stroke-width="1" font-family="sans-serif" font-weight="normal" font-size="12" text-anchor="start"/><g fill="none" stroke="none" stroke-width="1" font-family="sans-serif" font-weight="normal" font-size="12" text-anchor="start"/></g><g><g fill="#868995" stroke="#000000" stroke-width="1.2"><path d="M317.51561,233.20399c0,0 14.69461,0.03272 16.11716,1.78714c1.38572,1.709 -0.9961,25.04367 -2.72752,26.80749c-2.24382,2.28582 -16.89495,1.93608 -16.89495,1.93608"/></g><g fill="none" stroke="none" stroke-width="1" font-family="sans-serif" font-weight="normal" font-size="12" text-anchor="start"/><g fill="none" stroke="none" stroke-width="1" font-family="sans-serif" font-weight="normal" font-size="12" text-anchor="start"/></g></g><g><g><g fill="#4e4f56" stroke="#000000" stroke-width="1.2"><path d="M315.04573,261.93812c0,0 -12.98855,0.30856 -14.55777,-1.70807c-1.21087,-1.5561 0.87697,-22.14282 2.40632,-23.65056c1.56999,-1.54781 14.53999,-1.57668 14.53999,-1.57668"/></g><g fill="none" stroke="none" stroke-width="1" font-family="sans-serif" font-weight="normal" font-size="12" text-anchor="start"/><g fill="none" stroke="none" stroke-width="1" font-family="sans-serif" font-weight="normal" font-size="12" text-anchor="start"/></g><g><g fill="#4e4f56" stroke="#000000" stroke-width="1.2"><path d="M317.33894,235.00281c0,0 12.96413,0.02887 14.21915,1.57668c1.22254,1.50775 -0.87881,22.09446 -2.40633,23.65056c-1.97958,2.01664 -14.90534,1.70807 -14.90534,1.70807"/></g><g fill="none" stroke="none" stroke-width="1" font-family="sans-serif" font-weight="normal" font-size="12" text-anchor="start"/><g fill="none" stroke="none" stroke-width="1" font-family="sans-serif" font-weight="normal" font-size="12" text-anchor="start"/></g></g><g><g><g fill="#9497a4" stroke="#000000" stroke-width="1.2"><path d="M315.69296,252.95531c0,0 -4.31985,0.10263 -4.84175,-0.56808c-0.40272,-0.51755 0.29167,-7.36444 0.80032,-7.86589c0.52216,-0.51478 4.83583,-0.52438 4.83583,-0.52438"/></g><g fill="none" stroke="none" stroke-width="1" font-family="sans-serif" font-weight="normal" font-size="12" text-anchor="start"/><g fill="none" stroke="none" stroke-width="1" font-family="sans-serif" font-weight="normal" font-size="12" text-anchor="start"/></g><g><g fill="#9497a4" stroke="#000000" stroke-width="1.2"><path d="M316.45565,243.99694c0,0 4.31171,0.0096 4.72913,0.52438c0.40661,0.50145 -0.29228,7.34836 -0.80032,7.86589c-0.65839,0.67071 -4.95734,0.56808 -4.95734,0.56808"/></g><g fill="none" stroke="none" stroke-width="1" font-family="sans-serif" font-weight="normal" font-size="12" text-anchor="start"/><g fill="none" stroke="none" stroke-width="1" font-family="sans-serif" font-weight="normal" font-size="12" text-anchor="start"/></g></g></g><g><g><g><g fill="#868995" stroke="#000000" stroke-width="1.2"><path d="M311.72024,294.71302c0,0 -11.16835,0.26533 -12.51766,-1.4687c-1.04118,-1.33803 0.75407,-19.03976 2.0691,-20.33621c1.34997,-1.3309 12.50238,-1.35573 12.50238,-1.35573"/></g><g fill="none" stroke="none" stroke-width="1" font-family="sans-serif" font-weight="normal" font-size="12" text-anchor="start"/><g fill="none" stroke="none" stroke-width="1" font-family="sans-serif" font-weight="normal" font-size="12" text-anchor="start"/></g><g><g fill="#868995" stroke="#000000" stroke-width="1.2"><path d="M313.6921,271.55238c0,0 11.14736,0.02483 12.22651,1.35573c1.05122,1.29645 -0.75565,18.99818 -2.06911,20.33621c-1.70216,1.73403 -12.81654,1.46871 -12.81654,1.46871"/></g><g fill="none" stroke="none" stroke-width="1" font-family="sans-serif" font-weight="normal" font-size="12" text-anchor="start"/><g fill="none" stroke="none" stroke-width="1" font-family="sans-serif" font-weight="normal" font-size="12" text-anchor="start"/></g></g><g><g><g fill="#4e4f56" stroke="#000000" stroke-width="1.2"><path d="M311.81844,293.35014c0,0 -9.85313,0.23408 -11.04354,-1.29574c-0.91857,-1.18047 0.66527,-16.79758 1.82543,-17.94135c1.19099,-1.17417 11.03006,-1.19608 11.03006,-1.19608"/></g><g fill="none" stroke="none" stroke-width="1" font-family="sans-serif" font-weight="normal" font-size="12" text-anchor="start"/><g fill="none" stroke="none" stroke-width="1" font-family="sans-serif" font-weight="normal" font-size="12" text-anchor="start"/></g><g><g fill="#4e4f56" stroke="#000000" stroke-width="1.2"><path d="M313.55809,272.91697c0,0 9.83461,0.02191 10.78667,1.19608c0.92741,1.14378 -0.66667,16.76089 -1.82544,17.94135c-1.50172,1.52982 -11.30722,1.29574 -11.30722,1.29574"/></g><g fill="none" stroke="none" stroke-width="1" font-family="sans-serif" font-weight="normal" font-size="12" text-anchor="start"/><g fill="none" stroke="none" stroke-width="1" font-family="sans-serif" font-weight="normal" font-size="12" text-anchor="start"/></g></g><g><g><g fill="#9497a4" stroke="#000000" stroke-width="1.2"><path d="M312.30942,286.53577c0,0 -3.27703,0.07784 -3.67296,-0.43095c-0.3055,-0.39261 0.22127,-5.58668 0.60713,-5.96708c0.39611,-0.39051 3.66846,-0.39781 3.66846,-0.39781"/></g><g fill="none" stroke="none" stroke-width="1" font-family="sans-serif" font-weight="normal" font-size="12" text-anchor="start"/><g fill="none" stroke="none" stroke-width="1" font-family="sans-serif" font-weight="normal" font-size="12" text-anchor="start"/></g><g><g fill="#9497a4" stroke="#000000" stroke-width="1.2"><path d="M312.88801,279.73993c0,0 3.27087,0.00728 3.58752,0.39781c0.30845,0.3804 -0.22173,5.57447 -0.60712,5.96708c-0.49944,0.5088 -3.76065,0.43095 -3.76065,0.43095"/></g><g fill="none" stroke="none" stroke-width="1" font-family="sans-serif" font-weight="normal" font-size="12" text-anchor="start"/><g fill="none" stroke="none" stroke-width="1" font-family="sans-serif" font-weight="normal" font-size="12" text-anchor="start"/></g></g></g></g><g stroke-linecap="butt"><path d="M150.4212,300.69278l-8.00783,-70.82655l45.02199,0.10549l5.5137,70.72106z" fill="#868995" stroke="#000000" stroke-width="1.2"/><g><g><g><g fill="#868995" stroke="#000000" stroke-width="1.2"><path d="M162.72135,233.20399c0,0 14.70109,0.03272 16.47168,1.78714c1.72475,1.709 3.97199,25.04367 2.59049,26.80749c-1.79037,2.28582 -16.51087,1.93607 -16.51087,1.93607"/></g><g fill="none" stroke="none" stroke-width="1" font-family="sans-serif" font-weight="normal" font-size="12" text-anchor="start"/><g fill="none" stroke="none" stroke-width="1" font-family="sans-serif" font-weight="normal" font-size="12" text-anchor="start"/></g><g><g fill="#868995" stroke="#000000" stroke-width="1.2"><path d="M166.17864,263.73469c0,0 -14.65291,0.34976 -16.88505,-1.93606c-1.7224,-1.76382 -3.98495,-25.09849 -2.59049,-26.80749c1.43152,-1.75441 16.1263,-1.78714 16.1263,-1.78714"/></g><g fill="none" stroke="none" stroke-width="1" font-family="sans-serif" font-weight="normal" font-size="12" text-anchor="start"/><g fill="none" stroke="none" stroke-width="1" font-family="sans-serif" font-weight="normal" font-size="12" text-anchor="start"/></g></g><g><g><g fill="#4e4f56" stroke="#000000" stroke-width="1.2"><path d="M162.90154,235.00281c0,0 12.96986,0.02887 14.53193,1.57668c1.52165,1.50775 3.50423,22.09446 2.28541,23.65056c-1.57953,2.01664 -14.5665,1.70807 -14.5665,1.70807"/></g><g fill="none" stroke="none" stroke-width="1" font-family="sans-serif" font-weight="normal" font-size="12" text-anchor="start"/><g fill="none" stroke="none" stroke-width="1" font-family="sans-serif" font-weight="normal" font-size="12" text-anchor="start"/></g><g><g fill="#4e4f56" stroke="#000000" stroke-width="1.2"><path d="M165.95168,261.93812c0,0 -12.92733,0.30856 -14.89661,-1.70807c-1.51956,-1.5561 -3.51567,-22.14282 -2.28541,-23.65056c1.26295,-1.54781 14.22721,-1.57668 14.22721,-1.57668"/></g><g fill="none" stroke="none" stroke-width="1" font-family="sans-serif" font-weight="normal" font-size="12" text-anchor="start"/><g fill="none" stroke="none" stroke-width="1" font-family="sans-serif" font-weight="normal" font-size="12" text-anchor="start"/></g></g><g><g><g fill="#9497a4" stroke="#000000" stroke-width="1.2"><path d="M163.80247,243.99694c0,0 4.31363,0.0096 4.83315,0.52438c0.50609,0.50145 1.16547,7.34836 0.7601,7.86589c-0.52534,0.67071 -4.84464,0.56808 -4.84464,0.56808"/></g><g fill="none" stroke="none" stroke-width="1" font-family="sans-serif" font-weight="normal" font-size="12" text-anchor="start"/><g fill="none" stroke="none" stroke-width="1" font-family="sans-serif" font-weight="normal" font-size="12" text-anchor="start"/></g><g><g fill="#9497a4" stroke="#000000" stroke-width="1.2"><path d="M164.81691,252.95531c0,0 -4.29948,0.10263 -4.95444,-0.56808c-0.50538,-0.51755 -1.16927,-7.36444 -0.7601,-7.86589c0.42004,-0.51478 4.7318,-0.52438 4.7318,-0.52438"/></g><g fill="none" stroke="none" stroke-width="1" font-family="sans-serif" font-weight="normal" font-size="12" text-anchor="start"/><g fill="none" stroke="none" stroke-width="1" font-family="sans-serif" font-weight="normal" font-size="12" text-anchor="start"/></g></g></g><g><g><g><g fill="#868995" stroke="#000000" stroke-width="1.2"><path d="M166.37489,271.55238c0,0 11.15229,0.02483 12.49545,1.35573c1.3084,1.29645 3.01316,18.99818 1.96514,20.33621c-1.35818,1.73403 -12.52517,1.46871 -12.52517,1.46871"/></g><g fill="none" stroke="none" stroke-width="1" font-family="sans-serif" font-weight="normal" font-size="12" text-anchor="start"/><g fill="none" stroke="none" stroke-width="1" font-family="sans-serif" font-weight="normal" font-size="12" text-anchor="start"/></g><g><g fill="#868995" stroke="#000000" stroke-width="1.2"><path d="M168.99761,294.71302c0,0 -11.11573,0.26533 -12.80903,-1.4687c-1.3066,-1.33803 -3.02298,-19.03976 -1.96514,-20.3362c1.08595,-1.3309 12.23344,-1.35573 12.23344,-1.35573"/></g><g fill="none" stroke="none" stroke-width="1" font-family="sans-serif" font-weight="normal" font-size="12" text-anchor="start"/><g fill="none" stroke="none" stroke-width="1" font-family="sans-serif" font-weight="normal" font-size="12" text-anchor="start"/></g></g><g><g><g fill="#4e4f56" stroke="#000000" stroke-width="1.2"><path d="M166.51159,272.91697c0,0 9.83895,0.02191 11.02394,1.19608c1.15433,1.14378 2.65833,16.76089 1.73372,17.94135c-1.19823,1.52982 -11.05017,1.29574 -11.05017,1.29574"/></g><g fill="none" stroke="none" stroke-width="1" font-family="sans-serif" font-weight="normal" font-size="12" text-anchor="start"/><g fill="none" stroke="none" stroke-width="1" font-family="sans-serif" font-weight="normal" font-size="12" text-anchor="start"/></g><g><g fill="#4e4f56" stroke="#000000" stroke-width="1.2"><path d="M168.82543,293.35014c0,0 -9.8067,0.23408 -11.3006,-1.29574c-1.15275,-1.18047 -2.667,-16.79758 -1.73372,-17.94135c0.95807,-1.17417 10.79279,-1.19608 10.79279,-1.19608"/></g><g fill="none" stroke="none" stroke-width="1" font-family="sans-serif" font-weight="normal" font-size="12" text-anchor="start"/><g fill="none" stroke="none" stroke-width="1" font-family="sans-serif" font-weight="normal" font-size="12" text-anchor="start"/></g></g><g><g><g fill="#9497a4" stroke="#000000" stroke-width="1.2"><path d="M167.19502,279.73993c0,0 3.27232,0.00729 3.66644,0.3978c0.38391,0.3804 0.88413,5.57448 0.57662,5.96708c-0.39852,0.5088 -3.67516,0.43095 -3.67516,0.43095"/></g><g fill="none" stroke="none" stroke-width="1" font-family="sans-serif" font-weight="normal" font-size="12" text-anchor="start"/><g fill="none" stroke="none" stroke-width="1" font-family="sans-serif" font-weight="normal" font-size="12" text-anchor="start"/></g><g><g fill="#9497a4" stroke="#000000" stroke-width="1.2"><path d="M167.9646,286.53577c0,0 -3.26159,0.07785 -3.75844,-0.43095c-0.38339,-0.39261 -0.88701,-5.58668 -0.57661,-5.96708c0.31865,-0.39051 3.58955,-0.3978 3.58955,-0.3978"/></g><g fill="none" stroke="none" stroke-width="1" font-family="sans-serif" font-weight="normal" font-size="12" text-anchor="start"/><g fill="none" stroke="none" stroke-width="1" font-family="sans-serif" font-weight="normal" font-size="12" text-anchor="start"/></g></g></g></g><path d="M187.3461,300.92055l-3.94905,-103.37655h113.20589l-3.94904,103.37655z" fill="#868995" stroke="#000000" stroke-width="1.2" stroke-linecap="butt"/><g stroke="#000000" stroke-width="1.2" stroke-linecap="butt"><g fill="#868995"><path d="M240.80288,245.80576c0,0 -44.85313,0.45399 -48.0377,-2.51313c-2.45732,-2.28954 -2.46945,-32.57923 0,-34.79762c2.53508,-2.27732 47.40598,-2.31981 47.40598,-2.31981"/><path d="M239.82882,206.17521c0,0 44.87091,0.04248 47.40598,2.31981c2.46946,2.21839 2.45734,32.50809 0,34.79762c-3.18457,2.96712 -48.0377,2.51313 -48.0377,2.51313"/></g><g fill="#4e4f56"><path d="M240.76191,243.54599c0,0 -42.56392,0.40218 -45.58596,-2.22635c-2.33192,-2.02826 -2.34342,-28.8615 0,-30.82673c2.40569,-2.01745 44.98648,-2.05509 44.98648,-2.05509"/><path d="M239.83756,208.43782c0,0 42.5808,0.03764 44.98649,2.05509c2.34342,1.96524 2.33191,28.79847 0,30.82673c-3.02204,2.62853 -45.58597,2.22635 -45.58597,2.22635"/></g><g fill="#9497a4"><path d="M240.24829,231.83058c0,0 -13.87108,0.13359 -14.85592,-0.73958c-0.75994,-0.67378 -0.7637,-9.58753 0,-10.24036c0.78398,-0.67018 14.66055,-0.68268 14.66055,-0.68268"/><path d="M239.94707,220.16797c0,0 13.87656,0.01251 14.66055,0.68268c0.76369,0.65283 0.75994,9.56659 0,10.24036c-0.98485,0.87317 -14.85592,0.73957 -14.85592,0.73957"/></g></g><g stroke="#000000" stroke-width="1.2" stroke-linecap="butt"><g fill="#868995"><path d="M240.69234,286.48518c0,0 -38.67744,0.39148 -41.42353,-2.16711c-2.11899,-1.97429 -2.12944,-28.0935 0,-30.00643c2.18603,-1.96376 40.87879,-2.0004 40.87879,-2.0004"/><path d="M239.85239,252.31124c0,0 38.69277,0.03663 40.8788,2.0004c2.12944,1.91293 2.11899,28.03214 0,30.00643c-2.7461,2.55858 -41.42354,2.1671 -41.42354,2.1671"/></g><g fill="#4e4f56"><path d="M240.65701,284.53654c0,0 -36.70342,0.34681 -39.30935,-1.91981c-2.01084,-1.74899 -2.02077,-24.88765 0,-26.5823c2.07446,-1.73968 38.79241,-1.77213 38.79241,-1.77213"/><path d="M239.85993,254.26232c0,0 36.71797,0.03246 38.79242,1.77213c2.02076,1.69465 2.01083,24.8333 0,26.58229c-2.60595,2.26662 -39.30936,1.91981 -39.30936,1.91981"/></g><g fill="#9497a4"><path d="M240.21411,274.43419c0,0 -11.9612,0.1152 -12.81044,-0.63774c-0.65531,-0.581 -0.65854,-8.26744 0,-8.83038c0.67604,-0.5779 12.64198,-0.58869 12.64198,-0.58869"/><path d="M239.95435,264.37737c0,0 11.96594,0.01079 12.64198,0.58869c0.65854,0.56294 0.65531,8.24938 0,8.83039c-0.84924,0.75295 -12.81044,0.63774 -12.81044,0.63774"/></g></g><path d="M192.35431,176.07742" fill="none" stroke="#000000" stroke-width="1.2" stroke-linecap="round"/><path d="M200.34226,180.47578" fill="none" stroke="#000000" stroke-width="1.2" stroke-linecap="round"/><g stroke="#000000" stroke-width="1.2" stroke-linecap="round"><path d="M206.08781,159.56234c-15.82744,-5.33893 -27.542,-38.00101 -27.542,-38.00101c10.02504,0.13482 14.2198,4.6037 14.75959,5.05307c0.53994,0.45024 10.5189,10.21114 10.5189,10.21114c-0.68524,13.32569 2.2635,22.7368 2.2635,22.7368zM204.17869,134.02468c0,0 -0.331,1.98285 -0.3688,3.0827M206.08781,159.56234c0.29605,0.94691 1.11758,2.4715 1.11758,2.4715" fill="#be1e2d"/><path d="M199.54327,155.3008c-3.00443,-2.45927 -6.67907,-6.15194 -10.20303,-11.4843c-3.14189,-4.75457 -6.44321,-11.9241 -8.55147,-16.83615l0.06237,-0.05762c6.17744,-0.32723 9.94456,4.37956 9.94456,4.37956l0.23529,0.36648c1.57118,2.68252 3.24989,5.38986 4.59623,7.15842c0.79485,1.04561 1.63668,1.97965 2.41913,2.76902c0,0 1.68661,4.49202 2.05783,7.5295c0.5552,4.49376 -0.68513,6.08827 -0.68513,6.08827z" fill="#929497"/></g><path d="M267.81865,169.92179l-10.50132,8.87151l-24.22578,1.27416l-10.11519,4.89546l-15.60404,-3.96998l-6.93462,-8.02221l-6.06792,-9.69318l-3.84271,-12.33024l0.1294,-12.3103l2.6967,-9.47877l4.49781,-9.3459l6.29397,-8.53481l7.20089,-7.69498l8.06946,-7.1401l5.6921,-4.13258l2.42871,-2.91071l2.60235,-4.72987l1.68932,-4.55785l1.33567,-6.1195l-0.62538,-8.16438l4.74996,5.49704l4.96852,7.12092l0.08885,-3.92373l1.05483,2.10753l4.13225,6.63726l5.77733,6.25458l3.78689,2.92527l5.51902,4.33545l6.71763,5.21924l6.06018,6.06421l5.0404,6.50905l4.38295,7.35402l3.26383,7.06074l1.16467,7.50752l0.55923,7.59298l-0.96195,6.60433l-2.29672,8.14664l-2.86532,5.06786l-4.96194,6.86494z" fill="#be1e2d" stroke="#8c8c8c" stroke-width="0" stroke-linecap="round"/><path d="M278.62618,170.9005l-10.85764,-0.90023l-10.48191,9.02976l-24.16295,1.0046l-10.12406,4.85218l-14.84202,-3.26234c0,0 -49.24334,-41.34282 16.65264,-88.75384c0,0 11.52018,-11.7677 7.24584,-27.79341c-0.34764,-1.30343 10.01248,13.3342 10.01248,13.3342c0,0 -0.20914,-5.31151 0.03116,-4.65316c2.66305,7.2961 11.77229,16.45209 11.77229,16.45209c56.61459,36.23215 29.63188,74.84542 29.63188,74.84542z" fill="none" stroke="#000000" stroke-width="1.2" stroke-linecap="round"/><g stroke="#000000" stroke-width="1.2" stroke-linecap="round"><path d="M281.14633,126.475c0,0 7.85698,-12.26651 8.30317,-12.86335c0.44627,-0.59604 3.65013,-6.06639 14.15862,-10.08785c0,0 -3.48983,32.60103 -18.69436,43.35028c0,0 0.55678,-9.2273 -3.76744,-20.39908zM281.23771,126.7113c-0.33717,-0.92938 -1.22153,-2.5025 -1.22153,-2.5025M284.40653,149.43102c0,0 0.45186,-1.62878 0.5072,-2.55695" fill="#be1e2d"/><path d="M290.7525,140.5433c0,0 -1.73583,-0.88548 -2.36701,-4.95923c-0.43092,-2.75198 0.12848,-7.26503 0.12848,-7.26503c0.60958,-0.98242 1.2425,-2.11218 1.79582,-3.3194c0.93793,-2.04267 1.97157,-5.02065 2.89884,-7.93545l0.14841,-0.40625c0,0 2.68969,-5.50795 9.27598,-7.63378l0.08119,0.02516c-0.88931,5.03786 -2.42309,12.47834 -4.44222,17.78373c-2.26478,5.95022 -5.13144,10.55164 -7.62666,13.83318z" fill="#929497"/></g><g><g><path d="M277.52716,149.0397c2.1611,15.67873 -13.03522,30.72495 -33.94193,33.60665c-20.90672,2.88171 -39.60688,-7.49233 -41.76797,-23.17107c-2.1611,-15.67873 13.03521,-30.72495 33.94193,-33.60665c20.90672,-2.88171 39.60688,7.49233 41.76797,23.17107z" fill="#e6e7e8" stroke="#000000" stroke-width="1.2" stroke-linecap="butt"/><path d="M218.58358,182.32613l2.26126,2.62219l2.83292,1.69162l-1.8132,0.62848l-4.37306,-0.53292l-4.04886,-1.80794l-1.83034,-2.39766l-4.88507,-2.07123l-3.68195,-2.0478l0.22894,2.36859c-5.70252,-9.2546 -14.81566,-18.67179 -12.76251,-32.06027c25.66681,-31.08071 71.03071,-40.12092 88.74011,-8.79738c0.23681,0.41886 0.45962,0.8374 0.66901,1.25564c0.1633,0.63503 0.28494,1.2298 0.34998,1.77098c0.73577,6.12166 0.62812,12.20241 0.83178,18.39964c0.01341,0.40831 -0.03788,0.8668 -0.12974,1.35166l-0.79848,1.36949l-0.35148,-1.42249l-2.04881,5.43068l-4.41607,5.16859l-2.85126,1.86395l-0.11948,-4.24924l-0.64336,-5.79505l-1.09424,-4.55617l-1.08748,0.00279l0.25857,-1.50657l0.89508,-3.65361l-0.40459,-4.06285l-1.22685,-4.39079l-3.81955,-4.03342l-6.21992,-3.40839l-8.06329,-2.12464l-9.27673,-0.78064l2.44685,0.83948l3.9057,2.40353l2.30765,3.21216l-17.37314,-2.01816l-16.783,-2.24659l-0.36462,2.99214l-2.08194,6.3178l-1.98913,5.86373l0.73619,5.34098l3.30898,4.83928l4.48262,3.20656l-3.12315,1.01886l-2.7452,0.37839l0.47752,3.46442l2.19494,3.52189l2.44027,3.04679l2.68561,2.57169z" fill="#be1e2d" stroke="#8c8c8c" stroke-width="0" stroke-linecap="butt"/><path d="M213.60913,138.7009c-0.52852,8.04118 -4.87424,12.58222 -4.29361,16.73691c1.19513,8.55178 8.68243,11.49944 8.68243,11.49944c0,0 -5.08316,3.19853 -11.44881,0.09541" fill="none" stroke="#000000" stroke-width="1.2" stroke-linecap="round"/><path d="M201.40562,159.07703c-0.83443,-1.53365 -1.65554,-3.30469 -2.45114,-5.34626" fill="none" stroke="#000000" stroke-width="1.2" stroke-linecap="round"/><path d="M207.07295,136.93713c15.66044,4.03843 41.18131,5.60944 41.18131,5.60944c0,0 -2.96423,-4.14646 -8.77624,-6.00064c0,0 36.1965,-0.97809 27.36056,24.28627c0,0 3.45483,-2.11635 5.66228,-5.9622" fill="none" stroke="#000000" stroke-width="1.2" stroke-linecap="round"/><path d="M273.86893,145.75602c0.35807,1.76889 0.5533,2.58809 0.27726,4.07474" fill="none" stroke="#000000" stroke-width="1.2" stroke-linecap="round"/><path d="M278.94993,163.39498c-1.35265,6.85629 -9.00187,11.58603 -9.00187,11.58603c0,0 0.19253,-9.75463 -2.03545,-14.76707" fill="none" stroke="#000000" stroke-width="1.2" stroke-linecap="round"/><path d="M200.88657,158.85351c-3.73825,7.95474 2.4808,21.60252 2.4808,21.60252c0,0 -17.33579,-19.98892 -12.42461,-32.80075" fill="none" stroke="#000000" stroke-width="1.2" stroke-linecap="round"/><path d="M281.70282,161.00526c-1.21544,2.49439 -2.21582,3.88315 -2.21582,3.88315c0,0 0.16842,-9.72947 -5.37063,-14.93434" fill="none" stroke="#000000" stroke-width="1.2" stroke-linecap="round"/><path d="M212.25327,168.51281c-0.54403,6.81037 7.87904,12.70764 7.87904,12.70764c0,0 -10.25386,3.32347 -17.52399,-3.38415" fill="none" stroke="#000000" stroke-width="1.2" stroke-linecap="round"/><path d="M217.88225,181.8096c1.44799,3.12424 5.92166,4.81522 5.92166,4.81522c0,0 -8.17493,2.6143 -13.0889,-4.61309" fill="none" stroke="#000000" stroke-width="1.2" stroke-linecap="round"/></g><g fill="#000000" stroke="none" stroke-width="0.5" stroke-linecap="butt" font-family="&quot;Helvetica Neue&quot;, Helvetica, Arial, sans-serif" font-weight="400" font-size="16" text-anchor="start"/></g><path d="M266.95966,164.10719" fill="none" stroke="#000000" stroke-width="1.2" stroke-linecap="round"/><path d="M233.79663,178.63597c0.19427,-0.0302 0.38027,-0.05415 0.55822,-0.07206c0.2995,-0.08192 0.61261,-0.09682 0.91391,-0.0388c6.81028,0.17276 -2.32438,12.05761 -4.95369,12.88031c-2.22967,0.69765 -6.69604,-0.76286 -5.47243,-3.93541c0.44165,-1.14508 7.79362,-8.40866 8.89141,-8.75216z" fill="#be1e2d" stroke="#000000" stroke-width="1.2" stroke-linecap="butt"/><g stroke="#000000" stroke-width="1.2"><path d="M224.12934,195.77213c-0.20289,-0.23725 -2.57634,-3.21691 -2.57634,-3.21691c0,0 0.30823,5.03168 -3.11065,6.40562c-1.85117,0.74393 -5.64604,0.16986 -7.69147,0.32794c0,0 -2.34085,0.17914 -2.36207,-2.14956c-0.02123,-2.3287 2.31962,-2.50783 2.31962,-2.50783c0.45336,-0.03438 1.01537,-0.01541 1.62434,0.02045c2.9531,-5.98803 5.11876,-15.85863 12.97849,-10.78639c3.22626,2.08205 3.89408,2.90403 3.89408,2.90403c0,0 3.85951,-10.04095 8.47297,-9.42828c15.05692,1.99956 7.908,19.97177 1.91687,20.62974c-9.08922,0.99821 -12.9955,0.68982 -15.46586,-2.19881z" fill="#be1e2d" stroke-linecap="butt"/><path d="M230.38455,191.84933c-0.33679,-3.20306 3.09964,-14.1335 7.73415,-10.78277c3.64815,2.63759 1.22368,8.33619 -0.55381,11.27005c-2.00093,3.30266 -6.81532,2.98429 -7.18034,-0.48728z" fill="#e6e7e8" stroke-linecap="round"/></g><path d="M243.68201,180.21544c1.3558,-1.58434 3.94409,-1.18759 4.99961,-0.84674c2.99192,0.96615 2.80565,3.66846 3.09666,6.67218c0.25313,2.61271 1.02473,5.50079 2.57656,7.07516c3.21213,0.87774 9.12753,-0.09053 7.704,4.34581c-0.34132,1.06366 -6.23872,1.54055 -8.50202,1.6162c1.18462,2.40989 -1.27523,2.72103 -3.28089,1.46096c-0.82261,-0.51682 -2.85855,-1.32729 -4.08372,-2.87032c-1.22517,-1.54303 -0.25654,-2.36486 -0.27704,-3.57746c-0.04653,-2.75101 -1.07569,-3.85461 -1.58515,-6.36734" fill="#be1e2d" stroke="#000000" stroke-width="1.2" stroke-linecap="butt"/><path d="M227.73289,188.34152c-2.17958,0.44631 -3.46262,-2.09927 -3.46262,-2.09927c0,0 -0.08067,-0.01432 -3.86981,-0.04159c-5.10452,-0.03674 -4.89027,-6.42252 0.30874,-7.65929c0,0 4.48782,-1.62311 6.3859,-0.54673c0.63679,0.36111 0.40315,1.39023 0.56822,2.13305c0.33111,1.49005 2.45349,7.72569 0.06956,8.21384z" fill="#be1e2d" stroke="#000000" stroke-width="1.2" stroke-linecap="butt"/><path d="M78.03571,341.96431v-323.92859h323.92859v323.92859z" fill="none" stroke="#000000" stroke-width="0" stroke-linecap="butt"/><path d="M238.85311,195.10977c1.7792,5.44834 -0.35639,17.12001 -6.51096,14.71746c-0.94134,-0.36747 -1.37466,-1.39138 -2.06198,-2.08707c-0.37711,-2.49169 -0.00044,-4.92636 -0.41723,-7.41218c-0.38687,-2.30734 -1.9551,-4.89854 -1.60558,-7.31017c0.68053,-4.69541 8.61789,-5.59062 11.31611,-2.24166" fill="#be1e2d" stroke="#000000" stroke-width="1.2" stroke-linecap="butt"/><path d="M239.452,175.22491c4.40204,2.78756 7.70894,5.42784 7.38619,5.89722c-0.32275,0.46938 -4.15294,-1.40987 -8.55497,-4.19743c-4.40204,-2.78756 -7.70894,-5.42784 -7.38619,-5.89722c0.32275,-0.46938 4.15294,1.40987 8.55497,4.19743z" fill="#706d6d" stroke="#000000" stroke-width="1.2" stroke-linecap="butt"/><path d="M258.52373,153.43078l-0.1868,-0.06516l0.31888,-0.84186c0.05502,-0.15459 0.19567,-0.27519 0.37561,-0.3014c0.23742,-0.03459 0.46032,0.10718 0.52422,0.32321l0.17133,0.54583c0.19352,0.57486 0.18725,1.16192 0.31284,1.72749c0.03356,-0.0138 0.067,-0.02736 0.10025,-0.04065c0.72927,-1.49085 1.91664,-3.83726 2.65005,-3.74751c1.25708,0.15386 0.99959,3.21148 0.68809,4.67846c0.0319,0.24341 -0.04052,0.47747 -0.1846,0.65964c-0.01913,0.04007 -0.13188,0.25436 -0.36632,0.27927c-0.00717,0.00306 -0.01437,0.00605 -0.02162,0.00895l-0.87301,0.37106l-0.00229,-0.00497l-0.0148,0.01202c-4.17817,1.59014 -8.66506,2.66867 -13.14668,3.02034c0,0 -0.63281,0.04831 -0.90131,-0.43261c-0.10186,-0.11224 -0.18191,-0.268 -0.21601,-0.48363c-0.14156,-0.89469 0.79075,-1.03054 0.79075,-1.03054l0.43048,-0.05957c2.7524,-0.62911 5.65676,-0.97454 8.31149,-1.94137c0.1257,-0.04577 0.28991,-0.11926 0.48136,-0.21043c0.29528,-0.79397 0.46684,-1.65645 0.75806,-2.46657z" fill="#000000" stroke="#000000" stroke-width="0.5" stroke-linecap="butt"/><path d="M223.41997,159.30976c0.56685,0.71549 1.04694,1.52925 1.61127,2.22677c0.2052,0.0209 0.37941,0.03401 0.50878,0.03339c2.73246,-0.0131 5.45163,-0.75277 8.14301,-1.14646l0.4062,-0.1011c0,0 0.88234,-0.21201 1.09561,0.75223c0.05141,0.23238 0.03917,0.42107 -0.00901,0.57364c-0.05681,0.5906 -0.63905,0.77921 -0.63905,0.77921c-4.12705,1.32602 -8.53457,1.91385 -12.86106,1.86474l-0.01775,-0.00668l-0.00015,0.00591l-0.91872,-0.04978c-0.00756,-0.00023 -0.01511,-0.00056 -0.02266,-0.00099c-0.21836,0.06273 -0.40013,-0.1131 -0.43238,-0.14672c-0.19749,-0.13135 -0.35083,-0.34249 -0.41475,-0.60233c-0.83412,-1.37673 -2.22355,-4.39345 -1.16173,-5.02251c0.61951,-0.367 2.56777,1.5761 3.78322,2.82014c0.03467,0.00103 0.06961,0.00227 0.10476,0.00371c-0.10264,-0.62312 -0.33094,-1.21854 -0.37659,-1.87663l-0.05439,-0.62018c-0.02501,-0.24399 0.11984,-0.47212 0.34452,-0.52611c0.17029,-0.04093 0.34138,0.02902 0.44906,0.16576l0.60354,0.73742l-0.14175,0.13655z" fill="#000000" stroke="#000000" stroke-width="0.5" stroke-linecap="butt"/><path d="M257.15519,159.27267c0,0 3.7783,-3.47861 7.73944,-2.75526" fill="#e6e7e8" stroke="#000000" stroke-width="1.2" stroke-linecap="round"/></g></g></svg>