<svg version="1.1" xmlns="http://www.w3.org/2000/svg" xmlns:xlink="http://www.w3.org/1999/xlink" width="87.55361" height="133.78355" viewBox="0,0,87.55361,133.78355"><g transform="translate(-187.12625,-115.02352)"><g stroke-miterlimit="10"><path d="M238.45632,196.00546c2.71971,-0.47816 5.3121,1.33898 5.79026,4.05868c0.10862,0.61775 0.09879,1.22894 -0.01311,1.81028c0.61763,1.80536 -2.97781,3.89986 -3.90613,5.09023c-3.4907,4.47601 -6.72923,6.20418 -13.15526,6.86399c-2.62599,0.26964 -5.18906,-0.63914 -5.79026,-4.05868c-1.14119,-6.49092 6.51346,-5.70981 9.78419,-7.59692c1.7528,-1.01131 5.53247,-7.22174 7.29031,-6.16758z" fill="#ffab19" fill-rule="nonzero" stroke="#000000" stroke-width="1.2" stroke-linecap="butt" stroke-linejoin="miter"/><g fill-rule="evenodd"><path d="M254.68918,202.35767c1.33062,-1.97062 2.79864,-4.49794 2.91551,-7.73726c0.36899,-7.31773 -4.21877,-14.49427 -0.0474,-15.45639c4.24169,-1.02867 13.52437,8.81438 7.80157,19.92005c-1.95375,3.8404 -4.62579,6.36971 -6.87701,8.35849c-0.56253,0.53249 -5.91418,4.60282 -10.02929,3.66289c-4.11511,-0.93993 -3.56228,-2.74315 -3.28533,-3.57416c0.27587,-0.97219 7.55956,-2.46277 9.52194,-5.17363z" fill="#ffab19" stroke="#001026" stroke-width="1.2" stroke-linecap="round" stroke-linejoin="round"/><path d="M257.2782,179.71268c1.83472,-0.88343 5.53656,1.58538 7.33228,4.86304c1.79571,3.27765 1.95579,5.68597 1.96983,7.52144c-0.35914,-0.65554 -1.64861,-2.56363 -3.77216,-2.40228c-2.69041,0.12909 -4.64956,3.26352 -4.64956,3.26352c0,0 -0.53325,-4.89933 -1.3359,-7.97931c-0.51706,-2.78147 -1.23644,-4.23372 0.45549,-5.26643z" fill="#ffffff" stroke="none" stroke-width="1" stroke-linecap="butt" stroke-linejoin="miter"/></g><g fill-rule="nonzero" stroke-linecap="butt" stroke-linejoin="miter"><path d="M255.97029,234.51111c1.00447,2.89009 -11.54032,13.57037 -11.54032,13.57037c0,0 -5.92732,-3.26831 -3.79021,-7.3366c0.99591,-1.89586 3.26117,-8.71348 2.96464,-10.27789c-1.03903,-5.48198 -4.18625,-9.28135 -3.04835,-15.24588c0.20962,-1.09877 0.57206,-3.55653 1.42513,-5.24872c0.37793,-2.74448 4.91767,-4.00568 7.29812,-2.64898c6.8225,3.88835 0.89627,10.51476 6.69099,27.1877z" fill="#ffab19" stroke="#001026" stroke-width="1.2"/><g><path d="M241.78965,213.07805c-3.06334,-2.45875 -3.4032,-9.28918 -3.4032,-9.28918c0,0 -2.39868,-2.42732 -2.61678,-5.21915c-0.45086,-5.77103 11.16939,-15.2582 16.87923,-9.73195c2.14242,2.07353 2.55063,5.69592 2.55063,5.69592c0,0 4.25666,3.81048 5.09557,6.80634c0.71351,2.54802 -1.98026,10.23527 -6.78876,12.63828c-0.49947,0.24961 -0.98422,0.46097 -1.45406,0.6381" fill="#ffab19" stroke="#001026" stroke-width="1.2"/><path d="M238.79269,197.83187c1.23452,-3.89205 6.90849,-4.20819 9.57739,-1.35503c0.32209,0.34432 0.68905,0.75659 1.00962,1.20413c1.89063,1.085 3.08917,5.93053 2.06333,7.29057c-3.55111,4.70797 -12.55885,4.06408 -11.44854,-2.58095c-1.04249,-1.35745 -1.62256,-3.23222 -1.20181,-4.55871z" fill="#ffffff" stroke="none" stroke-width="0.5"/></g><path d="M257.5038,208.02344c2.21765,1.28929 4.24889,4.85517 4.24889,4.85517c0,0 3.77651,7.12212 3.96163,8.5286c0.84254,6.4017 -5.78596,15.6868 -11.84834,9.06734c-1.42609,-1.55712 -1.17385,-3.58814 -1.52036,-5.44204c-0.15799,-0.84532 -3.76203,-7.55414 -5.77087,-9.14932c-3.49317,-2.77386 -8.77342,-5.10166 -10.60623,-9.27403c-3.26244,-7.42692 15.65729,-9.18631 16.52609,-8.82418" fill="#ffab19" stroke="#001026" stroke-width="1.2"/></g><g><g><g><path d="M211.06916,158.46984c0,0 -9.63618,-25.8526 -8.58703,-26.09803c1.41342,-0.33064 28.66444,4.2749 28.66444,4.2749" fill="#ffab19" fill-rule="nonzero" stroke="#001026" stroke-width="1.2" stroke-linecap="round" stroke-linejoin="miter"/><path d="M264.78036,148.8448l0.11328,-1.21998l4.89819,-1.44418l4.26791,4.31736l-0.68887,8.56673l-24.10873,13.77973z" fill="#9b7f41" fill-rule="nonzero" stroke="#001026" stroke-width="1.2" stroke-linecap="round" stroke-linejoin="miter"/><path d="M205.67395,179.74471c0,0 -6.82936,2.28248 -12.52034,0.2471" fill="none" fill-rule="evenodd" stroke="#001026" stroke-width="1.2" stroke-linecap="round" stroke-linejoin="round"/><path d="M207.24411,185.44598c0,0 -3.05411,3.08095 -9.166,4.68878" fill="none" fill-rule="evenodd" stroke="#001026" stroke-width="1.2" stroke-linecap="round" stroke-linejoin="round"/><path d="M225.18245,144.95408c10.19924,-5.12025 41.17493,-5.09963 41.37228,22.85301c0.00258,0.36442 -0.0793,0.72491 -0.15976,1.08375c-2.93855,13.10477 -15.5084,22.90371 -34.47589,25.61742c-18.96749,2.71373 -26.68614,-6.02827 -27.43512,-11.80484c-0.74897,-5.77659 5.25972,-10.10273 5.25972,-10.10273c0,0 -1.39116,-4.28074 -0.18624,-10.52878c0,0 0.72363,-9.63701 15.62499,-17.11783z" fill="#ffab19" fill-rule="evenodd" stroke="#001026" stroke-width="1.2" stroke-linecap="butt" stroke-linejoin="miter"/><path d="M227.35151,172.05749c3.2547,-0.8837 6.46513,-3.39999 9.77783,-5.59288c4.9593,-3.28288 10.14782,-5.841 16.05719,-1.11172c9.8237,7.79392 3.72216,25.18303 -20.77175,28.45233c-18.74569,2.74211 -26.67686,-5.39587 -27.42583,-11.17247c-0.74897,-5.77659 5.16997,-9.75352 5.16997,-9.75352c7.39624,-4.59953 10.23116,1.08318 17.19258,-0.82172z" fill="#ffffff" fill-rule="evenodd" stroke="none" stroke-width="1" stroke-linecap="butt" stroke-linejoin="miter"/><path d="M231.64205,169.17972c0.52821,1.5103 -2.61104,5.25667 -4.37615,5.66211c-1.54332,0.43381 -3.88355,-1.71405 -4.25134,-3.06856c-0.13669,-0.69377 1.87395,-1.60883 3.85622,-2.30208c1.88788,-0.66024 4.46951,-1.45718 4.77126,-0.29144z" fill="#001026" fill-rule="evenodd" stroke="#001026" stroke-width="1.2" stroke-linecap="round" stroke-linejoin="round"/><path d="M260.97889,159.73783c-2.07101,5.6781 -8.19076,9.47266 -8.19076,9.47266" fill="none" fill-rule="evenodd" stroke="#001026" stroke-width="1.2" stroke-linecap="round" stroke-linejoin="round"/><path d="M265.63397,170.00722c-5.14231,3.6738 -9.46379,4.05422 -9.46379,4.05422" fill="none" fill-rule="evenodd" stroke="#001026" stroke-width="1.2" stroke-linecap="round" stroke-linejoin="round"/><path d="M252.17093,149.94165l-42.59294,9.45314l-3.92377,-22.46073l47.26176,-9.49765l16.62907,15.24578l-3.40306,16.89317z" fill="#c58600" fill-rule="nonzero" stroke="#001026" stroke-width="1.2" stroke-linecap="round" stroke-linejoin="miter"/><path d="M252.75546,127.66928l-0.62067,22.07566" fill="none" fill-rule="nonzero" stroke="#001026" stroke-width="0.75" stroke-linecap="round" stroke-linejoin="miter"/><path d="M260.29916,134.41707l-6.91744,-6.65953c0,0 14.88259,7.09622 15.97694,7.23291c1.22639,0.15317 -6.27639,14.57303 -6.27639,14.57303z" fill="#ffab19" fill-rule="nonzero" stroke="#001026" stroke-width="1.2" stroke-linecap="round" stroke-linejoin="miter"/></g><path d="M190.48374,172.53791c-8.36364,-20.12701 2.93845,-43.95707 25.24391,-53.22596c22.30546,-9.26889 47.16767,-0.46664 55.5313,19.6604c8.36364,20.12701 -2.93845,43.95707 -25.24391,53.22596c-22.30546,9.26889 -47.16767,0.46664 -55.5313,-19.66039z" fill="none" fill-rule="nonzero" stroke="#ffffff" stroke-width="1.2" stroke-linecap="butt" stroke-linejoin="miter"/><path d="M251.55906,122.11104l0.68116,7.24732l-7.62385,3.3524l-9.58059,-2.57634l3.27825,-11.6611z" fill="#ffffff" fill-rule="nonzero" stroke="#001026" stroke-width="0" stroke-linecap="round" stroke-linejoin="miter"/><path d="M260.02175,134.10742l7.12558,1.17204l-7.08938,-0.92919" fill="#000000" fill-rule="nonzero" stroke="none" stroke-width="0" stroke-linecap="round" stroke-linejoin="miter"/></g><g fill="#000000" stroke-width="1" stroke-linejoin="miter" font-family="&quot;Times New Roman&quot;" font-weight="400" font-size="16" text-anchor="start"><g fill-rule="evenodd" stroke="none" stroke-linecap="butt"/><g fill-rule="evenodd" stroke="none" stroke-linecap="butt"/><g fill-rule="nonzero" stroke="#001026" stroke-linecap="round"/></g></g><path d="M206.88849,168.05459l3.37425,-1.24887c0,0 4.33998,6.08471 7.73436,4.99816c2.73576,-0.87573 3.87874,-8.26616 3.87874,-8.26616c0,0 0.25576,11.17398 -3.88589,12.56287c-5.92997,1.9886 -11.10147,-8.04599 -11.10147,-8.04599z" fill="#001026" fill-rule="nonzero" stroke="#001026" stroke-width="0" stroke-linecap="round" stroke-linejoin="miter"/><path d="M227.03062,189.5764c5.54351,2.76444 9.35241,5.47504 8.50748,6.05426c-0.84495,0.57923 -6.0238,-1.19225 -11.56729,-3.9567c-5.54351,-2.76444 -9.35241,-5.47504 -8.50748,-6.05426c0.84495,-0.57923 6.0238,1.19225 11.56729,3.9567z" fill="#ffffff" fill-rule="nonzero" stroke="#001026" stroke-width="1.2" stroke-linecap="butt" stroke-linejoin="miter"/><g fill-rule="nonzero" stroke="#000000" stroke-width="1.2" stroke-linejoin="miter"><path d="M233.06015,206.7703c-4.64473,-0.9143 -7.66885,-5.42082 -6.75453,-10.06554c0.9143,-4.64473 5.42081,-7.66884 10.06554,-6.75453c4.64473,0.9143 7.66885,5.4208 6.75453,10.06554c-0.9143,4.64473 -5.4208,7.66884 -10.06554,6.75453z" fill="#5c5e5f" stroke-linecap="butt"/><g stroke-linecap="round"><path d="M238.20549,207.259l2.33231,4.1282l-1.27143,2.02107l-0.86085,4.37321l-3.79974,-0.22381z" fill="#ffab19"/><path d="M235.66923,202.39178l3.88188,5.13209l-1.63564,3.87127l-0.1298,1.54691l-1.56944,3.53487l0.13773,1.07542l-1.97471,2.93093l-6.35585,-0.55227l-5.12285,-4.15335l4.09638,-12.82167z" fill="#ffab19"/><path d="M234.7448,207.97551l1.55488,2.75213" fill="none"/><path d="M232.64032,212.45338l2.32965,3.25407" fill="none"/></g><path d="M232.01918,218.27153l-1.43435,3.73616l-3.89908,0.28079l-2.56407,-2.95078l1.26879,-2.89517l4.03151,-0.95359z" fill="#5c5e5f" stroke-linecap="round"/></g><g fill-rule="nonzero" stroke="#000000" stroke-width="1.2" stroke-linejoin="miter"><path d="M249.26486,191.92677c0,0 -1.40172,-1.20524 -0.64689,-2.99092c2.97712,-7.04284 6.90686,-4.38655 9.47531,-5.74738c2.96905,-1.57307 6.05605,-4.04961 7.35412,-3.24156c1.86052,1.15816 1.59964,3.66522 1.87038,6.72255c0.36468,4.11803 0.60284,9.0879 -2.03067,11.71888c-2.05688,2.05491 -5.68923,-4.81861 -5.69651,-4.88084c-2.33768,0.81404 -4.89262,0.82307 -6.65731,0.01266" fill="#ffab19" stroke-linecap="butt"/><g stroke-linecap="round"><path d="M268.75463,194.97305l0.03081,5.62097l-1.31548,2.54977l-1.9342,-0.28356l-0.88041,1.07529l-3.57835,-1.55013" fill="#ffab19"/><path d="M254.22089,191.19971l10.64142,-7.56738l4.83539,4.33266l1.86442,6.54483l-2.20905,2.82194l-0.99616,0.12846l-2.83906,2.54917l-1.36231,0.52967l-3.12714,2.70432l-5.84929,-1.89545z" fill="#ffab19"/><path d="M260.09163,198.00422l2.80809,0.93597l-3.16901,0.37402z" fill="none"/><path d="M263.97113,194.72162l3.42597,1.62331" fill="none"/></g></g><path d="M233.77239,169.39758l8.31392,-17.10091l8.16564,3.92236l-4.71226,7.19685l9.78251,0.60412l-1.4548,7.31495z" fill="#001026" fill-rule="nonzero" stroke="#001026" stroke-width="0" stroke-linecap="round" stroke-linejoin="miter"/></g></g></svg>