<svg version="1.1" xmlns="http://www.w3.org/2000/svg" xmlns:xlink="http://www.w3.org/1999/xlink" width="94.84728" height="131.9152" viewBox="0,0,94.84728,131.9152"><g transform="translate(-195.71241,-108.70614)"><g data-paper-data="{&quot;isPaintingLayer&quot;:true}" stroke-miterlimit="10" stroke-dasharray="" stroke-dashoffset="0" style="mix-blend-mode: normal"><g fill-rule="evenodd"><path d="M247.39925,205.59744c1.18744,2.14475 2.80934,4.67842 5.62073,6.3204c6.30744,3.80475 14.54786,3.0331 13.66567,7.2842c-0.85261,4.34661 -13.39615,8.12545 -20.82541,-2.34576c-2.57954,-3.59806 -3.7034,-7.22806 -4.52471,-10.21894c-0.2366,-0.76422 -1.60862,-7.56256 0.92947,-10.86076c2.53808,-3.2982 3.90061,-1.94041 4.51933,-1.29451c0.7438,0.71186 -0.9638,8.04495 0.61492,11.11539z" fill="#ffab19" stroke="#001026" stroke-width="1.2" stroke-linecap="round" stroke-linejoin="round"/><path d="M266.31714,218.68802c0.01834,2.08798 -3.698,4.28541 -7.33719,4.36528c-3.63918,0.07987 -5.83185,-0.91619 -7.45818,-1.77355c0.72783,-0.01597 2.94772,-0.28453 3.68679,-2.29296c1.00286,-2.50883 -0.95116,-5.77713 -0.95116,-5.77713c0,0 4.54684,1.83747 7.59926,2.56734c2.67031,0.84819 4.2511,0.8822 4.46049,2.91101z" fill="#ffffff" stroke="none" stroke-width="1" stroke-linecap="butt" stroke-linejoin="miter"/></g><path d="M234.27289,176.79004c2.68779,-0.63341 5.38017,1.032 6.01358,3.7198c0.14388,0.61051 0.16914,1.22125 0.09077,1.80805c0.72019,1.76695 -2.74916,4.06428 -3.60766,5.30595c-3.22815,4.66891 -6.3622,6.58003 -12.73979,7.60743c-2.6062,0.41985 -5.21718,-0.34038 -6.01358,-3.7198c-1.51171,-6.41476 6.17515,-6.0741 9.33222,-8.14575c1.69189,-1.11021 5.10903,-7.52725 6.92446,-6.57568z" fill="#ffab19" fill-rule="nonzero" stroke="#000000" stroke-width="1.2" stroke-linecap="butt" stroke-linejoin="miter"/><path d="M245.53824,232.51217c0,0 1.55081,-2.71583 12.2,-2.6" fill="none" fill-rule="nonzero" stroke="#001026" stroke-width="1.2" stroke-linecap="round" stroke-linejoin="miter"/><g fill-rule="nonzero" stroke-linecap="round" stroke-linejoin="miter"><path d="M252.44992,196.80422l6.61669,31.89835c0,0 4.76143,1.44973 5.44904,4.11592c0.68761,2.66619 -2.52991,7.20285 -2.52991,7.20285h-16.93095l-2.72452,-3.29273l-3.11373,-12.34775l-0.58383,-26.13606l-2.91913,26.54765l-9.1466,11.31877l-8.952,0.61739l-4.08678,-1.23478c0,0 -4.5859,-5.54126 -2.52991,-8.02604c2.05599,-2.48478 10.70347,-1.85216 10.70347,-1.85216l8.56278,-31.48675c0,0 1.53573,-5.63944 2.48521,-11.60183c0.76665,-4.81429 0.71024,-10.20938 1.99078,-11.03571c5.14756,-3.32163 17.52016,-4.43962 20.04468,3.91012c0.74141,2.45219 -0.39687,6.87705 -1.03385,11.06957c-0.81377,5.35619 -1.30146,10.33318 -1.30146,10.33318z" fill="#ff7e19" stroke="#001026" stroke-width="1.2"/><path d="M241.41141,198.82672c0,0 -3.14445,-0.14129 -4.43517,-1.56338" fill="none" stroke="#001026" stroke-width="1.2"/><path d="M239.39414,191.69705c-3.6475,-0.71047 -3.39953,-5.3283 -3.00255,-9.7552c0.44528,-4.96549 1.19842,-10.24137 5.30655,-9.58236c4.50677,0.72295 4.60357,5.90952 4.04591,11.3472c0,0 -1.09354,9.01422 -6.34991,7.99037z" fill="#ffffff" stroke="#000000" stroke-width="0"/><path d="M247.31732,231.21412c0,0 1.50901,-2.79453 11.87113,-2.67535" fill="none" stroke="#001026" stroke-width="1.2"/></g><g><g><path d="M220.84643,134.20365c0,0 -2.62333,-25.05117 -1.55696,-24.8968c1.43661,0.20797 28.21367,11.9056 28.21367,11.9056" fill="#ff7e19" fill-rule="nonzero" stroke="#001026" stroke-width="1.2" stroke-linecap="round" stroke-linejoin="miter"/><path d="M274.36585,144.84331l10.40861,16.69074l-3.62003,5.00154l-29.99485,-5.01088z" fill="#9c6041" fill-rule="nonzero" stroke="#001026" stroke-width="1.2" stroke-linecap="round" stroke-linejoin="miter"/><path d="M196.31241,151.00994c4.88637,-1.2085 11.74704,1.03242 11.74704,1.03242" fill="none" fill-rule="evenodd" stroke="#001026" stroke-width="1.2" stroke-linecap="round" stroke-linejoin="round"/><path d="M197.52643,161.58918c5.50557,-3.01397 9.91428,-3.6657 9.91428,-3.6657" fill="none" fill-rule="evenodd" stroke="#001026" stroke-width="1.2" stroke-linecap="round" stroke-linejoin="round"/><path d="M238.91874,126.77038c11.36438,-1.0451 40.19629,10.27813 30.17921,36.37501c-0.1306,0.34023 -0.33837,0.64597 -0.54424,0.9507c-7.51825,11.12861 -22.79715,15.66462 -41.44685,11.26935c-18.6497,-4.39527 -22.64581,-15.35115 -21.23506,-21.00267c1.41075,-5.65153 8.5838,-7.48655 8.5838,-7.48655c0,0 0.26696,-4.49319 3.6689,-9.87061c0,0 4.19058,-8.7083 20.79425,-10.23522z" fill="#ff7e19" fill-rule="evenodd" stroke="#001026" stroke-width="1.2" stroke-linecap="butt" stroke-linejoin="miter"/><path d="M231.04732,152.79616c8.37193,0.91138 20.20179,-7.7555 26.50001,3.18582c6.30194,10.84139 -5.72464,24.80461 -29.72238,18.9098c-18.45355,-4.28791 -22.86794,-14.75899 -21.4572,-20.41051c1.41075,-5.65153 8.3728,-7.19417 8.3728,-7.19417c8.56467,-1.5832 9.13028,4.74216 16.30676,5.50907z" fill="#ffffff" fill-rule="evenodd" stroke="none" stroke-width="1" stroke-linecap="butt" stroke-linejoin="miter"/><path d="M236.0921,151.68264c-0.05938,1.5989 -4.34929,3.94129 -6.14063,3.67461c-1.59519,-0.15932 -2.99022,-3.01306 -2.83832,-4.40839c0.12592,-0.69581 2.33183,-0.81401 4.43037,-0.73606c1.99862,0.07424 4.69305,0.27438 4.54857,1.46985z" fill="#001026" fill-rule="evenodd" stroke="#001026" stroke-width="1.2" stroke-linecap="round" stroke-linejoin="round"/><path d="M255.76863,159.42816c0,0 5.53938,-2.95286 11.3032,-2.96458" fill="none" fill-rule="evenodd" stroke="#001026" stroke-width="1.2" stroke-linecap="round" stroke-linejoin="round"/><path d="M267.43775,164.85777c-6.12835,1.54384 -10.29063,0.32098 -10.29063,0.32098" fill="none" fill-rule="evenodd" stroke="#001026" stroke-width="1.2" stroke-linecap="round" stroke-linejoin="round"/><path d="M262.22578,141.26294l-43.10523,-6.74233l4.54348,-22.34361l47.46831,8.40471l9.91855,20.26283l-9.33323,14.48623z" fill="#c46a00" fill-rule="nonzero" stroke="#001026" stroke-width="1.2" stroke-linecap="round" stroke-linejoin="miter"/><path d="M262.26397,141.06666l8.63397,-20.3267" fill="none" fill-rule="nonzero" stroke="#001026" stroke-width="0.75" stroke-linecap="round" stroke-linejoin="miter"/><path d="M275.45886,129.7753l-4.0101,-8.72463c0,0 17.54192,2.45901 18.51093,2.98564c1.08592,0.59016 -17.43707,20.85648 -17.43707,20.85648z" fill="#ff7e19" fill-rule="nonzero" stroke="#001026" stroke-width="1.2" stroke-linecap="round" stroke-linejoin="miter"/></g><g fill-rule="nonzero" stroke-linejoin="miter" text-anchor="start"><g fill="none" stroke="none" stroke-width="1" stroke-linecap="butt" font-family="sans-serif" font-weight="normal" font-size="12"/><g fill="none" stroke="none" stroke-width="1" stroke-linecap="butt" font-family="sans-serif" font-weight="normal" font-size="12"/><g fill="#ffffff" stroke="#001026" stroke-width="1.2" stroke-linecap="round" font-family="&quot;Helvetica Neue&quot;, Helvetica, Arial, sans-serif" font-weight="400" font-size="16"/></g></g><path d="M234.13394,184.01729c-0.03018,1.45706 0.58512,3.10698 0.16571,4.44775c-0.06396,0.20447 -0.152,0.40176 -0.27005,0.59008c-1.40374,2.23919 -7.69917,5.73704 -9.13872,6.17647c-3.10959,0.9492 -7.19612,-1.51363 -7.17838,-5.00332c0.01921,-3.78019 5.47824,-5.65359 7.79067,-6.97835c1.09841,-0.62927 3.11364,-2.63963 4.40805,-1.84028z" fill="#ff7e19" fill-rule="nonzero" stroke="#000000" stroke-width="1.2" stroke-linecap="butt" stroke-linejoin="miter"/><path d="M255.24555,172.5055c1.09702,0.74531 1.45508,1.33541 1.71769,2.03705c0.1643,0.34335 0.29057,0.70837 0.37335,1.08961c0.0556,0.1528 0.11765,0.31298 0.18969,0.48202c0.22593,0.53015 0.23826,2.18975 0.47224,1.66311c1.72526,-3.88325 2.91096,-13.82446 9.81774,-10.37107c1.50231,0.75116 2.26394,2.59918 2.79508,4.19263c0.52573,1.5772 -2.23653,6.55361 -2.85256,8.09986c-1.30396,3.27294 -1.21252,9.56406 -4.62622,11.83649c-7.44078,4.95318 -13.75291,-6.37815 -15.12058,-12.5327c-0.35875,-0.68959 -0.56151,-1.4733 -0.56151,-2.30437c0,-2.76142 2.23858,-5 5,-5c0.44447,0 0.8754,0.058 1.28563,0.16683c0.53316,0.11475 1.0452,0.32513 1.50945,0.64054z" fill="#ff7e19" fill-rule="nonzero" stroke="#000000" stroke-width="1.2" stroke-linecap="butt" stroke-linejoin="miter"/><g fill-rule="nonzero" stroke-linejoin="miter"><path d="M273.12448,163.22862c0,0 3.89475,7.59083 -1.08699,11.80059c-4.20569,3.55397 -12.89797,3.44442 -12.89797,3.44442c0,0 -4.32704,1.70585 -5.72959,-1.9844c-1.85843,-4.88974 3.04796,-5.78036 3.04796,-5.78036l-1.17417,-2.16865c0,0 -6.07722,-6.68777 -1.85678,-10.72176c1.57369,-1.50418 5.53175,-0.48466 5.53175,-0.48466c0,0 1.86858,-1.70287 3.75831,-2.37166c1.44093,-0.50996 4.34073,1.27139 4.34073,1.27139c0,0 2.06782,-1.6752 4.21051,0.26903c3.14479,2.85352 1.85625,6.72607 1.85625,6.72607z" fill="#ff7e19" stroke="#001026" stroke-width="1.2" stroke-linecap="round"/><path d="M261.77331,163.24401l-1.4656,-3.71898" fill="none" stroke="#001026" stroke-width="1.2" stroke-linecap="round"/><path d="M269.04365,159.96627l-0.90388,-1.28569" fill="none" stroke="#001026" stroke-width="1.2" stroke-linecap="round"/><path d="M260.21204,161.58558c0.96879,2.07578 0.68757,4.26606 -0.62812,4.89212c-1.31569,0.62606 -3.16762,-0.54917 -4.13641,-2.62495c-0.96878,-2.07578 -0.68757,-4.26606 0.62812,-4.89212c1.31569,-0.62606 3.16762,0.54917 4.13641,2.62495z" fill="#ffffff" stroke="none" stroke-width="0" stroke-linecap="butt"/><path d="M267.006,159.48802c0.574,1.74189 0.06039,3.48287 -1.14718,3.88858c-1.20756,0.40571 -2.65181,-0.67748 -3.2258,-2.41937c-0.574,-1.74189 -0.06039,-3.48287 1.14718,-3.88858c1.20756,-0.40571 2.65181,0.67748 3.2258,2.41937z" fill="#ffffff" stroke="none" stroke-width="0" stroke-linecap="butt"/><path d="M271.88698,159.14478c0.59501,1.44011 0.6013,2.80811 0.01403,3.0555c-0.58727,0.24739 -1.5457,-0.7195 -2.14072,-2.15961c-0.59501,-1.44011 -0.6013,-2.80811 -0.01403,-3.0555c0.58727,-0.24739 1.5457,0.7195 2.14072,2.15961z" fill="#ffffff" stroke="none" stroke-width="0" stroke-linecap="butt"/><path d="M258.8998,177.67868c-1.1305,0.34759 -2.44408,-0.68753 -2.93395,-2.31199c-0.48987,-1.62446 0.02946,-3.22312 1.15997,-3.57071c1.1305,-0.34759 2.90449,5.53511 1.77398,5.88269z" fill="#ffffff" stroke="none" stroke-width="0" stroke-linecap="butt"/><path d="M273.06543,168.16787c0.99547,3.3011 -1.06719,4.85174 -4.20784,6.25372c-3.14065,1.40198 -6.16999,2.12439 -7.16547,-1.17671c-0.49086,-1.62775 1.94403,-2.42021 2.6231,-3.94636c0.69809,-1.5689 -0.33093,-3.85864 1.26109,-4.56932c1.86186,-0.83113 2.46777,1.49686 3.94347,2.48744c1.01356,0.68037 3.14032,-0.3929 3.54565,0.95122z" fill="#ffffff" stroke="none" stroke-width="0" stroke-linecap="butt"/></g><path d="M251.78005,152.41848c-0.25774,0.67011 -2.17995,0.5544 -4.29339,-0.25846c-2.11344,-0.81286 -3.61778,-2.01505 -3.36004,-2.68516c0.25774,-0.67011 2.17995,-0.5544 4.29339,0.25846c2.11344,0.81286 3.61778,2.01505 3.36004,2.68516z" fill="#000000" fill-rule="nonzero" stroke="#000000" stroke-width="1.2" stroke-linecap="butt" stroke-linejoin="miter"/><path d="M222.40943,145.74823c0.1048,0.71028 -1.62623,1.55401 -3.86634,1.88452c-2.24011,0.33051 -4.14104,0.02264 -4.24584,-0.68764c-0.1048,-0.71028 1.62623,-1.55401 3.86634,-1.88452c2.24011,-0.33051 4.14104,-0.02264 4.24584,0.68764z" fill="#000000" fill-rule="nonzero" stroke="#000000" stroke-width="1.2" stroke-linecap="butt" stroke-linejoin="miter"/><path d="M222.65333,159.603l18.81429,-0.15634l0.77585,21.73099l-17.2626,0.46901z" fill="#ffffff" fill-rule="nonzero" stroke="#000000" stroke-width="1.2" stroke-linecap="round" stroke-linejoin="miter"/><g fill-rule="nonzero" stroke="#000000" stroke-width="1.2" stroke-linejoin="miter"><path d="M232.23969,180.17714c-4.72734,-0.24845 -8.35822,-4.28212 -8.10977,-9.00946c0.24845,-4.72734 4.28213,-8.35821 9.00947,-8.10976c4.72734,0.24845 8.35822,4.28212 8.10976,9.00947c-0.24845,4.72734 -4.28212,8.3582 -9.00947,8.10976z" fill="#5c5e5f" stroke-linecap="butt"/><g stroke-linecap="round"><path d="M237.40246,179.93349l2.89253,3.75699l-0.97292,2.18052l-0.23392,4.451l-3.79322,0.31564z" fill="#ff7e19"/><path d="M234.20354,175.47373l4.56846,4.53172l-1.07189,4.06363l0.09022,1.54973l-1.0539,3.72125l0.2884,1.04515l-1.54048,3.18068l-6.3701,0.35188l-5.65859,-3.38735l2.24249,-13.27203z" fill="#ff7e19"/><path d="M234.07782,181.13207l1.92836,2.50465" fill="none"/><path d="M232.62756,185.86247l2.76632,2.89202" fill="none"/></g><path d="M232.83525,191.71001l-0.89171,3.90143l-3.82021,0.82922l-2.9555,-2.55863l0.84672,-3.04548l3.8562,-1.51399z" fill="#5c5e5f" stroke-linecap="round"/></g></g></g></svg>