<svg version="1.1" xmlns="http://www.w3.org/2000/svg" xmlns:xlink="http://www.w3.org/1999/xlink" width="115.55274" height="119.62272" viewBox="0,0,115.55274,119.62272"><g transform="translate(-170.99497,-118.32472)"><g stroke-miterlimit="10"><path d="M254.11303,217.44543c-0.03658,1.57468 0.06132,5.07194 -13.87032,1.74013c-0.44498,-0.29431 -4.58149,-2.06149 -4.30094,-4.33413c0.28055,-2.27263 4.24325,-3.18024 5.19896,-2.94043c0.95659,-0.31577 13.10279,-0.08402 12.9723,5.53443z" fill="#9a8479" stroke="#000000" stroke-width="1.2" stroke-linecap="butt"/><path d="M246.67572,235.62548c0,0 0.76932,0.34929 0.67908,1.09892c-0.08796,0.75337 -2.53889,0.71688 -5.58388,0.8829c-3.04558,0.16691 -5.62564,-0.36213 -6.23563,-1.15826c-0.60697,-0.78714 0.26051,-1.06708 0.26051,-1.06708l-3.51397,-8.12882l7.51744,-2.95436z" fill="#9a8479" stroke="#000000" stroke-width="1.2" stroke-linecap="butt"/><path d="M225.3417,208.39177v0v0v0v0v0v0c7.99259,-0.62376 11.9299,4.05299 11.92795,4.0521c0.87701,1.20795 2.00294,2.91231 2.62318,4.46855c0.17114,0.42988 0.31596,0.91356 0.42369,1.43237c0,0 0.27644,1.80207 0.19947,2.35221c-0.32339,2.30475 -1.07142,4.82759 -3.74095,5.96827c-4.18986,1.79848 -9.03363,1.57773 -14.45059,-0.78533c-1.82766,-0.79518 -3.06952,-2.15035 -3.8858,-3.69306c-0.5842,-1.11025 -1.00882,-2.55784 -1.00882,-2.55784c-0.66971,-2.40793 -0.66941,-4.75845 -0.62777,-5.78064c0,0 0.54806,-4.83296 8.53967,-5.45663z" fill="#9a8479" stroke="#000000" stroke-width="1.2" stroke-linecap="butt"/><path d="M229.81169,227.32036c0.01504,0.33101 -0.00418,0.53673 -0.00418,0.53673c0,0 -0.15078,3.23453 0.10483,4.99083c0.25464,1.7564 0.44666,2.48244 0.44666,2.48244c0,0 0.53217,0.05919 0.51169,0.72783c-0.01672,0.66954 -1.47049,1.39557 -5.93873,1.27629c-4.47094,-0.12475 -5.49462,-1.12546 -5.59207,-1.63701c-0.09934,-0.51154 0.78733,-1.03037 0.78733,-1.03037c0,0 -0.05989,-3.27125 0.16653,-6.11542c0.12911,-1.6128 0.49927,-3.18902 0.79581,-4.25212" fill="#9a8479" stroke="#000000" stroke-width="1.2" stroke-linecap="butt"/><g><g stroke="#000000" stroke-width="1.2"><path d="M270.03962,167.98582c0,0 14.94194,-8.90826 15.83604,-0.26677c0.89419,8.6414 -6.58819,18.09929 -19.4503,26.17863c0,0 3.69657,-14.63251 3.61428,-25.91185zM270.03962,167.98582c0.08057,-1.31282 -0.07881,-3.84794 -0.07881,-3.84794M265.60711,196.15706l0.6946,-2.35901" fill="#9a8479" stroke-linecap="round"/><path d="M266.30193,193.7971c0.71054,-2.70804 1.76277,-7.17615 2.64245,-12.78947c0.51451,-3.26676 0.81798,-6.65428 1.00091,-9.58628l0.00045,0.00385c8.00381,-2.04812 12.32317,8.00603 12.32317,8.00603l0.00268,0.00022c-5.71222,8.27363 -15.85463,14.13353 -15.85463,14.13353l-0.11505,0.23212v0v0v0v0z" fill="#ee4036" stroke-linecap="butt"/></g><path d="M181.38971,161.16676c2.88865,-18.4303 12.83933,-27.4774 18.659,-32.21376c13.21001,-10.75835 31.58543,-9.52054 31.58543,-9.52054l-0.48075,12.09459c0,0 0.29022,-3.46417 8.23266,-8.82205c7.94057,-5.35806 18.75965,-3.45021 18.75965,-3.45021l-7.20151,14.53649c0,0 3.85146,-4.37694 6.80748,-5.83099c5.24031,-2.5728 9.30738,-0.8737 9.30738,-0.8737l-2.52816,11.71195c0,0 12.6619,22.61918 11.4885,37.22148c-1.17339,14.60232 -13.57575,39.39814 -43.70645,37.73739c-60.88368,-2.35959 -50.92323,-52.5906 -50.92323,-52.5906z" fill="#9a8479" stroke="#000000" stroke-width="1.2" stroke-linecap="butt"/><g stroke="#000000" stroke-width="1.2"><path d="M190.51853,186.17028c-14.10098,-7.33659 -21.25475,-16.13849 -18.2438,-24.39598c3.01198,-8.25824 19.49896,-0.18943 19.49896,-0.18943c-2.59055,10.74733 -1.25515,24.58541 -1.25515,24.58541zM192.72105,157.91726c0,0 -0.75698,2.41808 -0.94643,3.66772M190.69322,186.07027l0.33757,2.22903" fill="#9a8479" stroke-linecap="round"/><path d="M190.60248,185.85335c0,0 -11.23275,-5.29941 -16.46159,-13.02069l0.00291,-0.00069c0,0 7.55348,-9.69935 16.98617,-7.97271l0.00121,-0.00279c-0.42129,2.78713 -0.79393,6.00642 -0.8788,9.10355c-0.1525,5.3239 0.1608,9.55118 0.44085,12.1103z" fill="#ee4036" stroke-linecap="butt"/></g><g fill="none" stroke="#ee4036" stroke-width="1.2" stroke-linecap="round"><path d="M206.84309,143.59841l-4.02232,5.23963l-5.31252,-2.80661"/><path d="M195.69934,148.73634l4.20741,3.51524l-2.46678,6.14467"/><path d="M211.12528,154.89815l-4.60874,-3.77713l2.86811,-5.88277"/><path d="M200.00414,160.05082l3.97804,-4.71862l5.35682,2.28559"/></g><g><path d="M262.30918,188.18183c-1.19868,12.76237 -16.70464,21.7432 -34.63355,20.05927c-17.9289,-1.68393 -31.49143,-13.39497 -30.29276,-26.15734c1.19867,-12.76237 16.70465,-21.7432 34.63355,-20.05927c17.9289,1.68393 31.49143,13.39497 30.29276,26.15734z" fill="#e6e7e8" stroke="#000000" stroke-width="1.2" stroke-linecap="butt"/><path d="M224.67292,202.27495l-20.92005,-6.87241c0,0 -1.45354,-9.94657 5.29923,-6.98715c6.75276,2.95941 15.62082,13.85956 15.62082,13.85956z" fill="#706d6d" stroke="#231f20" stroke-width="1.2" stroke-linecap="round"/><g stroke="#000000"><path d="M257.49708,168.15563c0,0 -3.00206,4.16014 -6.64999,6.10767c-1.63267,0.87162 -6.05795,2.7667 -8.28249,3.10401c-5.76093,0.87356 -11.84008,0.03253 -11.84008,0.03253l5.42991,-6.44505c0,0 -4.43772,1.56253 -8.11582,2.25533c-4.99331,0.94052 -8.82041,-1.43286 -8.82041,-1.43286l14.3905,-11.3171" fill="#9a8479" stroke-width="0" stroke-linecap="butt"/><path d="M254.84981,171.13545c0,0 -4.9513,4.64935 -10.29204,6.01595c-5.34074,1.36661 -14.09396,0.22394 -14.09396,0.22394l5.69066,-6.42057c0,0 -3.58332,1.42781 -7.26141,2.1206c-4.99332,0.94051 -10.32065,-1.1438 -10.32065,-1.1438l13.34961,-10.3172" fill="none" stroke-width="1.2" stroke-linecap="round"/></g><path d="M256.94744,187.62861c-2.22114,0.44827 -6.15366,1.3987 -7.29104,2.04312c-0.60498,0.33251 -1.39686,0.05555 -1.75853,-0.65314c-0.3556,-0.70478 -0.15192,-1.56153 0.45824,-1.91158c1.80546,-1.02998 7.33281,-2.16221 7.95671,-2.28909c0.68682,-0.13755 1.38585,0.38121 1.56083,1.15777c0.15687,0.70211 -0.16259,1.37213 -0.73187,1.59837c-0.06124,0.02435 -0.12611,0.04392 -0.19435,0.05453z" fill="#231f20" stroke="none" stroke-width="1.2" stroke-linecap="butt"/><path d="M231.30388,188.78348c-0.08444,-0.03488 -0.16632,-0.0791 -0.24825,-0.13074c-2.87282,-1.88509 -8.58963,-3.53508 -8.64564,-3.55198c-0.7593,-0.21974 -1.22908,-1.02277 -1.02086,-1.79587c0.20935,-0.77068 1.00542,-1.21766 1.77958,-0.99593c0.25231,0.07613 6.19965,1.79116 9.45057,3.92212c0.67397,0.44098 0.87267,1.34366 0.4387,2.01624c-0.37908,0.58477 -1.12228,0.79712 -1.75412,0.53616z" fill="#231f20" stroke="none" stroke-width="1.2" stroke-linecap="butt"/><path d="M233.1905,183.85447l1.42831,1.87459l-1.59235,1.01073c0,0 -16.00602,-13.17154 -23.16413,-14.6074" fill="none" stroke="#231f20" stroke-width="1.2" stroke-linecap="round"/><path d="M260.63754,179.24875c-3.59776,0.76523 -11.46959,7.81025 -11.46959,7.81025l-2.45473,-0.92836l2.29977,-2.30233" fill="none" stroke="#231f20" stroke-width="1.2" stroke-linecap="round"/></g></g><g stroke="#000000" stroke-width="1.2"><path d="M210.21169,214.38364c1.92231,-2.62053 4.54286,-0.69821 4.54286,-0.69821l0.84927,0.62298c0.57111,1.38529 0.04823,0.81289 0.99817,-1.04081c0,0 1.65203,-2.7988 4.45083,-1.14678c2.7988,1.65203 1.14677,4.45084 1.14677,4.45084c-1.65197,2.60955 -2.51794,5.14187 -6.57883,5.15954c-1.47841,0.00642 -2.5744,-1.45449 -3.8616,-2.18173l-0.84927,-0.62298c0,0 -2.62053,-1.92231 -0.69822,-4.54284z" fill="#9a8479" stroke-linecap="butt"/><g><path d="M213.51863,206.56405c1.436,-2.48315 4.61311,-3.33203 7.09625,-1.89604c2.48315,1.436 3.33203,4.61311 1.89604,7.09625c-1.436,2.48315 -4.61311,3.33203 -7.09625,1.89604c-2.48315,-1.436 -3.33203,-4.61311 -1.89604,-7.09625z" fill="#5c5e5f" stroke-linecap="butt"/><path d="M221.27105,214.67676l1.52477,2.16276l-1.05149,1.63366l-0.3691,2.66879l-2.29001,-0.47032" fill="#9a8479" stroke-linecap="round"/><path d="M218.22072,211.39385l3.25167,2.79295l-1.50764,7.34089l-4.12492,1.87302l-3.55099,-1.74934l1.4472,-8.28836z" fill="#9a8479" stroke-linecap="round"/><path d="M218.7244,214.98175l1.98089,1.44184" fill="none" stroke-linecap="round"/><path d="M218.81406,219.1816l1.22117,0.7062" fill="none" stroke-linecap="round"/><path d="M214.65036,221.5143l1.53012,-0.59656l1.33219,0.77041l-0.09227,2.46507l-1.72273,0.9296l-1.55423,-0.8988z" fill="#5c5e5f" stroke-linecap="round"/></g></g></g></g></svg>