<svg version="1.1" xmlns="http://www.w3.org/2000/svg" xmlns:xlink="http://www.w3.org/1999/xlink" width="287.52012" height="287.52012" viewBox="0,0,287.52012,287.52012"><defs><radialGradient cx="240" cy="180" r="143.76006" gradientUnits="userSpaceOnUse" id="color-1"><stop offset="0.34515" stop-color="#ffffff" stop-opacity="0"/><stop offset="0.74941" stop-color="#ffffff" stop-opacity="0.6"/><stop offset="0.88416" stop-color="#4f1781" stop-opacity="0"/></radialGradient><radialGradient cx="237.54356" cy="177.66973" r="129.60874" gradientUnits="userSpaceOnUse" id="color-2"><stop offset="0.55792" stop-color="#ffffff" stop-opacity="0"/><stop offset="0.6974" stop-color="#ffffff" stop-opacity="0.49804"/><stop offset="0.98345" stop-color="#ffffff" stop-opacity="0"/></radialGradient></defs><g transform="translate(-96.23994,-36.23994)"><g stroke-miterlimit="10"><g fill-rule="nonzero" stroke="#000000" stroke-width="1.2" stroke-linejoin="miter"><path d="M226.26642,184.57206c2.01111,-1.89232 5.17548,-1.79602 7.0678,0.21508c0.42984,0.4568 0.75705,0.97311 0.98254,1.52049c1.5071,1.17022 -0.349,4.89433 -0.47175,6.39889c-0.46155,5.65744 -2.22036,8.87943 -7.23007,12.95768c-2.04722,1.66657 -4.68854,2.31352 -7.0678,-0.21508c-4.51627,-4.79977 2.3113,-8.34776 4.00979,-11.72029c0.91023,-1.80736 0.66148,-9.07326 2.70948,-9.15677z" fill="#ffab19" stroke-linecap="butt"/><g><path d="M213.71171,204.06302c-0.3794,4.71863 -4.51218,8.2363 -9.23082,7.85688c-4.71863,-0.3794 -8.23629,-4.51219 -7.85688,-9.23083c0.3794,-4.71863 4.51218,-8.2363 9.23083,-7.85688c4.71863,0.3794 8.23628,4.51219 7.85688,9.23083z" fill="#5c5e5f" stroke-linecap="butt"/><g stroke-linecap="round"><path d="M213.61127,198.89549l3.83573,-2.78726l2.15271,1.033l4.4428,0.35723l0.21036,3.80051z" fill="#ffab19"/><path d="M209.06456,201.96954l4.65662,-4.44107l4.03236,1.18413l1.55163,-0.04723l3.6906,1.15666l1.05274,-0.25931l3.13674,1.62807l0.17515,6.37741l-3.54292,5.5625l-13.20476,-2.60956z" fill="#ffab19"/><path d="M214.71724,202.25208l2.55715,-1.85818" fill="none"/><path d="M219.40563,203.83291l2.9676,-2.68508" fill="none"/></g><path d="M225.25666,203.78742l3.87521,0.99952l0.72299,3.84174l-2.63958,2.88343l-3.02083,-0.93083l-1.4065,-3.89669z" fill="#5c5e5f" stroke-linecap="round"/></g></g><g fill-rule="evenodd"><path d="M247.40009,203.45226c2.36033,-0.52845 5.19764,-1.36281 7.42985,-3.59114c5.12613,-4.96493 6.21419,-13.08452 10.16935,-11.02977c4.05507,2.05357 4.94257,15.15383 -6.94587,19.29833c-4.09101,1.44975 -7.88788,1.49484 -10.99286,1.43163c-0.79935,0.00949 -7.74642,-0.60857 -10.40072,-3.97985c-2.65431,-3.37128 -1.02353,-4.29139 -0.25434,-4.70086c0.86157,-0.51064 7.64265,3.21195 10.99461,2.57164z" fill="#ffab19" stroke="#001026" stroke-width="1.2" stroke-linecap="round" stroke-linejoin="round"/><path d="M264.41484,189.03849c2.04358,0.57623 3.35933,4.76406 2.62397,8.27569c-0.73537,3.51162 -2.19837,5.33048 -3.39931,6.64581c0.14707,-0.70232 0.38091,-2.90691 -1.41567,-4.18666c-2.22641,-1.67495 -5.85552,-0.73112 -5.85552,-0.73112c0,0 2.81102,-3.83652 4.20618,-6.55532c1.42533,-2.31883 1.81185,-3.82466 3.84034,-3.44842z" fill="#ffffff" stroke="none" stroke-width="1" stroke-linecap="butt" stroke-linejoin="miter"/></g><g fill-rule="nonzero" stroke-linecap="round" stroke-linejoin="miter"><g><path d="M218.97266,227.17028l4.97114,-22.49542c0,0 0.30666,-4.45315 1.29021,-11.5098c0.47787,-3.42855 -0.01904,-9.83464 1.86272,-12.11038c2.90194,-3.50951 10.04374,-3.09312 10.04374,-3.09312c0,0 8.04114,0.99244 9.92981,6.27953c1.50276,4.20678 0.08436,7.88379 -0.07668,12.29762c-0.15364,4.21124 0.98263,9.26093 0.98263,9.26093l8.72267,24.18257c0,0 4.12304,0.78099 5.10791,2.81193c0.98487,2.03095 0.07379,7.87339 0.07379,7.87339l-17.11999,0.28119l-5.96516,-5.34266l-0.73226,-6.28462c0,0 -2.9077,-25.86138 -3.5336,-20.65426c-0.27928,2.32346 -1.17123,18.51388 -1.17123,18.51388l0.51139,8.42848l-17.70788,1.60484l-3.70026,-0.76474c0,0 -3.66476,-4.0619 -1.66143,-6.91698c2.00331,-2.85507 8.17245,-2.36239 8.17245,-2.36239z" fill="#ffab19" stroke="#001026" stroke-width="1.2"/><path d="M236.85726,208.2369c0,0 -3.24757,-0.13731 -4.73508,-1.51935" fill="none" stroke="#001026" stroke-width="1.2"/><path d="M233.43988,201.31219c-4.12233,-0.65398 -4.34252,-4.90464 -4.37695,-8.97955c-0.03861,-4.57068 0.23099,-9.42706 4.85878,-8.82045c5.07683,0.66547 5.74049,5.43964 5.70508,10.44496c0,0 -0.24628,8.29748 -6.18691,7.35504z" fill="#ffffff" stroke="#000000" stroke-width="0"/></g><path d="M244.55521,232.51219c0,0 1.23437,-2.71583 11.89706,-2.6" fill="none" stroke="#001026" stroke-width="1.2"/></g><path d="M254.78386,189.30967c3.40313,-1.0482 7.89038,-2.9651 9.05344,2.08933c0.96202,6.69138 -10.13045,7.6749 -13.75614,7.35179c-3.21645,-0.27285 -4.14978,-3.41752 -4.94668,-6.08115c-1.34972,-5.12623 -2.67073,-9.49143 0.16523,-12.68632c3.47495,-4.02053 5.91596,0.77544 6.69851,3.75498c0.4882,1.7949 1.06974,3.62571 1.32819,4.90367c0.35897,0.4595 0.88308,0.76822 1.45745,0.66771z" fill="#ffab19" fill-rule="evenodd" stroke="#001026" stroke-width="1.2" stroke-linecap="round" stroke-linejoin="round"/><g><g><g><path d="M210.80464,143.80189c0,0 -2.05402,-27.51354 -0.97802,-27.45702c1.44959,0.07613 26.33937,12.08974 26.33937,12.08974" fill="#ffab19" fill-rule="nonzero" stroke="#001026" stroke-width="1.2" stroke-linecap="round" stroke-linejoin="miter"/><path d="M265.07119,149.51813l11.88689,15.67232l-3.14898,5.31073l-30.32677,-2.25551z" fill="#9b7f41" fill-rule="nonzero" stroke="#001026" stroke-width="1.2" stroke-linecap="round" stroke-linejoin="miter"/><path d="M199.69718,162.73207c0,0 -7.19486,0.28995 -12.09369,-3.25002" fill="none" fill-rule="evenodd" stroke="#001026" stroke-width="1.2" stroke-linecap="round" stroke-linejoin="round"/><path d="M199.61719,168.64507c0,0 -3.79141,2.10836 -10.10925,1.95017" fill="none" fill-rule="evenodd" stroke="#001026" stroke-width="1.2" stroke-linecap="round" stroke-linejoin="round"/><path d="M228.12404,134.75201c11.22177,-2.07678 40.96591,6.57081 33.36968,33.47223c-0.09903,0.35072 -0.27807,0.67413 -0.4553,0.99636c-6.47239,11.76767 -21.27413,17.6777 -40.24687,15.00096c-18.97274,-2.67675 -23.95101,-13.2227 -23.06135,-18.9793c0.88964,-5.7566 7.86554,-8.23792 7.86554,-8.23792c0,0 -0.14378,-4.49881 2.75376,-10.16398c0,0 3.37923,-9.05407 19.77456,-12.08832z" fill="#ffab19" fill-rule="evenodd" stroke="#001026" stroke-width="1.2" stroke-linecap="butt" stroke-linejoin="miter"/><path d="M222.65804,161.387c8.42015,0.14435 19.41063,-9.56491 26.6801,0.75666c7.26406,10.22173 -3.43947,25.22321 -27.87468,21.54072c-18.76762,-2.58772 -24.11823,-12.61276 -23.22858,-18.36936c0.88964,-5.7566 7.68207,-7.92752 7.68207,-7.92752c8.38467,-2.35741 9.52458,3.89005 16.74109,3.99951z" fill="#ffffff" fill-rule="evenodd" stroke="none" stroke-width="1" stroke-linecap="butt" stroke-linejoin="miter"/><path d="M227.58031,159.8182c0.08663,1.59765 -3.97187,4.32138 -5.78006,4.21913c-1.60307,-0.01323 -3.25246,-2.72791 -3.2284,-4.13128c0.06196,-0.70439 2.24791,-1.0232 4.34482,-1.13689c1.99707,-0.10828 4.69852,-0.15461 4.66363,1.04905z" fill="#001026" fill-rule="evenodd" stroke="#001026" stroke-width="1.2" stroke-linecap="round" stroke-linejoin="round"/><path d="M258.3861,158.92125c-3.57061,4.87655 -10.50509,6.81638 -10.50509,6.81638" fill="none" fill-rule="evenodd" stroke="#001026" stroke-width="1.2" stroke-linecap="round" stroke-linejoin="round"/><path d="M259.99657,170.08083c-5.96208,2.09611 -10.21851,1.25779 -10.21851,1.25779" fill="none" fill-rule="evenodd" stroke="#001026" stroke-width="1.2" stroke-linecap="round" stroke-linejoin="round"/><path d="M252.65528,147.05942l-43.5404,-2.78453l2.4876,-22.66478l48.03686,4.04222l11.72452,19.27422l-7.97372,15.27677z" fill="#c58600" fill-rule="nonzero" stroke="#001026" stroke-width="1.2" stroke-linecap="round" stroke-linejoin="miter"/><path d="M259.42029,125.83128l-6.74492,21.02917" fill="none" fill-rule="nonzero" stroke="#001026" stroke-width="0.75" stroke-linecap="round" stroke-linejoin="miter"/><path d="M264.78596,134.41322l-4.78879,-8.32272c0,0 15.64547,-2.17273 16.65846,-1.73664c1.1352,0.48871 -13.41549,25.38158 -13.41549,25.38158z" fill="#ffab19" fill-rule="nonzero" stroke="#001026" stroke-width="1.2" stroke-linecap="round" stroke-linejoin="miter"/></g><g><g fill-rule="evenodd"><path d="M220.46496,142.37042c2.89335,1.64577 3.06961,6.7437 0.41749,11.39411c-2.75198,4.65582 -7.23153,7.00178 -10.12487,5.35601c-2.89335,-1.64577 -3.0696,-6.7437 -0.41748,-11.39411c2.65212,-4.6504 7.22611,-7.10163 10.12487,-5.35601z" fill="#ffffff" stroke="#001026" stroke-width="1.2" stroke-linecap="round" stroke-linejoin="round"/><path d="M214.11054,152.92881c-0.05955,-1.09839 0.69055,-2.04038 1.68909,-2.09451c0.99854,-0.05414 1.84609,0.80122 1.90563,1.89961c0.05955,1.09839 -0.69055,2.04038 -1.68908,2.09451c-0.99854,0.05414 -1.84609,-0.80122 -1.90563,-1.89961" fill="#001026" stroke="none" stroke-width="1" stroke-linecap="butt" stroke-linejoin="miter"/></g><g fill-rule="evenodd"><path d="M244.62184,145.37276c3.21456,2.02894 3.32345,7.7314 0.46621,12.29279c-1.15721,1.91203 -2.58925,3.30981 -4.1128,4.16117c-2.18336,0.05878 -4.36775,0.12043 -6.55501,0.18216c-2.6257,-1.8748 -3.03111,-7.10978 -0.33893,-11.55802c2.75739,-4.55596 7.32055,-7.20691 10.54054,-5.07811z" fill="#ffffff" stroke="#001026" stroke-width="1.2" stroke-linecap="round" stroke-linejoin="round"/><path d="M237.89642,155.74356c-0.05955,-1.09839 0.69597,-1.94053 1.68909,-2.09452c0.99854,-0.05414 1.84608,0.80123 1.90563,1.89962c0.05955,1.09839 -0.69055,2.04038 -1.68908,2.09451c-0.99854,0.05414 -1.84609,-0.80123 -1.90563,-1.89962" fill="#001026" stroke="none" stroke-width="1" stroke-linecap="butt" stroke-linejoin="miter"/></g><g fill="#ffffff" fill-rule="nonzero" stroke="#001026" stroke-width="1.2" stroke-linecap="round" stroke-linejoin="miter"><path d="M217.88758,171.39764c-0.06746,-0.07381 0.88682,0.53985 1.99341,0.05169c1.93138,-0.85199 4.99882,-3.09526 8.72946,-4.11041c6.35258,-1.72862 10.65691,-1.85866 12.80204,-2.33904c2.34091,-0.52423 2.23422,-1.31349 2.51674,-1.23334c0.9991,0.28343 2.27069,14.00253 -8.14124,17.25946c-10.41193,3.25695 -17.32201,-8.9956 -17.90039,-9.62836z"/></g></g></g><path d="M237.40673,161.98673c6.40425,-0.30846 9.07215,0.80726 9.07215,0.80726" fill="none" fill-rule="nonzero" stroke="#001026" stroke-width="1.2" stroke-linecap="round" stroke-linejoin="miter"/></g><g fill-rule="nonzero" stroke-linejoin="miter"><g fill="#ffab19" stroke="#000000" stroke-width="1.2" stroke-linecap="round"><path d="M262.43904,189.27417c0,0 0.03577,2.1136 -0.67541,2.54422c-6.10092,3.69411 -13.85453,4.46088 -18.37103,-0.33923c-3.43186,-3.64735 -0.94556,-14.41731 -0.94556,-14.41731c0,0 -3.04828,-10.59326 1.89114,-11.36421c5.61466,-0.87635 4.45768,9.66807 4.45768,9.66807l3.78227,0.67846c0,0 0.45447,-11.66508 5.67342,-10.85537c5.88248,0.91264 1.35081,12.21229 1.35081,12.21229l2.56654,1.86577c0,0 3.56815,0.52825 3.6472,2.31473c0.07904,1.78648 0.95659,5.61006 -3.24195,6.8445c-3.50021,1.02912 -4.72783,-3.90115 -4.72783,-3.90115"/><path d="M245.689,193.34492c-4.13765,-3.021 -9.96108,1.65161 -11.07666,-5.59728c-1.07682,-6.99707 7.83471,-3.90116 7.83471,-3.90116"/></g><path d="M247.79716,171.72005c0.08516,2.19967 -0.85324,4.01909 -2.096,4.06378c-1.24275,0.04469 -2.31926,-1.70228 -2.40442,-3.90196c-0.08516,-2.19967 0.85324,-4.01909 2.096,-4.06378c1.24275,-0.04469 2.31926,1.70228 2.40442,3.90196z" fill="#ffffff" stroke="none" stroke-width="0" stroke-linecap="butt"/><path d="M259.47531,172.32947c-0.25134,2.18311 -1.54293,3.79556 -2.88483,3.60151c-1.3419,-0.19406 -2.22598,-2.12113 -1.97463,-4.30424c0.25134,-2.18311 1.54293,-3.79556 2.88483,-3.6015c1.3419,0.19406 2.22598,2.12113 1.97463,4.30423z" fill="#ffffff" stroke="none" stroke-width="0" stroke-linecap="butt"/><path d="M243.90059,186.13788c-0.20466,1.51178 -1.13725,1.52725 -3.39234,1.24005c-2.25508,-0.2872 -4.00329,-1.30803 -3.90474,-2.28008c0.09857,-0.97207 2.00657,-1.26154 4.26166,-0.97434c0,0 3.28707,0.15555 3.03543,2.01438z" fill="#ffffff" stroke="none" stroke-width="0" stroke-linecap="butt"/><path d="M251.34989,191.23389c-3.91986,-0.54555 -6.93994,-1.69156 -6.54191,-5.28374c0.17016,-1.53559 2.8202,-0.72558 3.91461,-1.70307c1.46574,-1.30915 1.65944,-4.12565 3.90363,-3.81331c1.83009,0.25471 1.10656,3.38679 2.24975,4.60433c0.7014,0.74701 1.9018,0.97207 2.82956,1.31747c0.38698,0.58865 0.81853,1.22679 1.28908,1.73103c-0.4346,3.52342 -3.75131,3.68917 -7.64473,3.14731z" fill="#ffffff" stroke="none" stroke-width="0" stroke-linecap="butt"/></g><path d="M96.23994,180c0,-79.39645 64.36361,-143.76006 143.76006,-143.76006c79.39645,0 143.76006,64.36361 143.76006,143.76006c0,79.39645 -64.36361,143.76006 -143.76006,143.76006c-79.39645,0 -143.76006,-64.36361 -143.76006,-143.76006z" fill="url(#color-1)" fill-rule="nonzero" stroke="none" stroke-width="NaN" stroke-linecap="butt" stroke-linejoin="miter"/><path d="M179.14526,241.70332c0.04996,0.05602 0.09649,0.11338 0.13984,0.17177c0.16201,-0.2052 0.32334,-0.41103 0.4839,-0.61758zM151.00095,266.91846l-0.03332,0.00372l0.00294,0.00785l-5.19421,1.94784c-0.34454,0.13847 -0.72081,0.21467 -1.11488,0.21467c-1.65206,0 -2.99133,-1.33926 -2.99133,-2.99133c0,-0.68431 0.22978,-1.31495 0.61639,-1.81898l3.57148,-4.76194c0.70732,-1.2433 1.54288,-2.40361 2.59152,-3.40943c3.33786,-3.20159 7.12541,-6.18129 10.98751,-9.06136c-2.91366,0.86294 -5.8104,1.77751 -8.70088,2.81797l-0.14162,0.00462l0.00857,0.03312l-5.12665,1.32672c-0.25908,0.0732 -0.53246,0.11237 -0.81498,0.11237c-1.65206,0 -2.99133,-1.33926 -2.99133,-2.99133c0,-0.58053 0.16537,-1.12245 0.45158,-1.58119l1.94675,-3.24456l0.06405,0.03843c0.07789,-0.1581 0.16057,-0.31414 0.24862,-0.46787c0.77049,-1.34552 2.42908,-1.92905 3.60339,-2.9415c2.89473,-2.49577 5.64102,-5.14418 8.37702,-7.80639c-6.23544,2.38129 -13.1445,3.6798 -19.50967,5.14947l-0.02489,-0.00152l0.00142,0.00663l-5.78813,1.23821c-0.22087,0.05198 -0.45118,0.07947 -0.68791,0.07947c-1.65206,0 -2.99133,-1.33926 -2.99133,-2.99133c0,-1.1037 0.59775,-2.06781 1.48718,-2.58622l5.07007,-3.07279c4.54618,-3.95903 11.21382,-6.7033 16.98068,-9.3735c-0.83977,-0.16016 -1.68108,-0.32087 -2.52562,-0.3106c-3.39301,0.04129 -6.73241,0.85546 -10.1002,1.27039l-0.18513,-0.04952v0.05526l-4.60138,0c-1.65206,0 -2.99133,-1.33926 -2.99133,-2.99133c0,-0.9911 0.482,-1.86961 1.22436,-2.41393l2.60151,-1.95116l0.04578,0.06104c0.13421,-0.12098 0.27353,-0.23694 0.41862,-0.34719c0.53271,-0.40477 1.28371,-0.76118 2.1732,-1.07989c-8.74378,-0.98302 -17.29669,-2.60573 -25.89948,-4.51611l-0.08102,-0.04369l-0.00579,0.02028l-4.53779,-1.29655c-1.28491,-0.33566 -2.23311,-1.5043 -2.23311,-2.89439c0,-0.9911 0.482,-1.86963 1.22437,-2.41394l3.03334,-2.27501c-1.95161,-0.39721 -3.56284,-1.02966 -4.03001,-2.05441c-2.81831,-6.18205 7.30667,-7.57669 9.41935,-8.02431c4.4349,-0.93965 8.9716,-1.59081 13.52777,-2.14726c-1.72279,-0.24687 -3.01244,-0.43238 -3.04638,-0.43934c-2.12364,-0.43572 -4.37081,-0.65076 -6.28701,-1.6646c-2.46957,-1.30661 -6.39355,-2.37175 -6.60713,-5.1575c-0.37792,-4.92933 8.77194,-6.45497 11.98485,-6.8624c-3.87549,-1.12677 -7.87694,-2.55596 -10.25641,-4.7905c-1.50157,-1.41012 -3.64756,-3.43897 -3.00927,-5.39749c1.76678,-5.42114 8.6733,-6.23026 12.95565,-7.28652c2.63285,-0.6494 5.25844,-1.02704 7.88529,-1.21796c-6.10847,-2.46037 -11.8323,-5.53906 -17.63297,-8.95285l-0.1538,-0.20266l-0.04322,0.05187l-3.9265,-3.27209c-0.66787,-0.54861 -1.09387,-1.38087 -1.09387,-2.31262c0,-1.60302 1.26092,-2.91152 2.84503,-2.98781l5.9538,-0.33079c2.07164,-0.40512 4.18233,-0.58581 6.39373,-0.30726c0.27533,0.03468 7.06635,2.15519 10.29566,3.16603c-3.61241,-3.40194 -6.97985,-7.05964 -9.97594,-10.95234c-1.59227,-2.06879 -7.18958,-9.68104 -5.36998,-12.86307c4.07111,-7.11937 10.27325,-2.86331 14.65115,-0.9766c3.61104,1.55623 7.05277,3.44577 10.35432,5.56908c-1.33583,-2.67192 -2.47592,-5.50659 -3.42555,-8.66714l-0.0022,-0.08091l-0.01742,0.00421l-1.36536,-5.64478c-0.06489,-0.24503 -0.09946,-0.50239 -0.09946,-0.76783c0,-1.65206 1.33926,-2.99133 2.99133,-2.99133c0.59891,0 1.15672,0.17601 1.62451,0.47913l5.03417,3.14635l-0.12693,0.20309c3.1896,1.50838 6.0889,3.39011 8.82021,6.34429c0.96048,1.03885 1.9181,2.10415 2.6532,3.31301c0.4205,0.6915 0.17072,1.75343 0.76304,2.30492c0.38912,0.3623 0.0826,-1.0699 -0.00057,-1.59502c-0.25485,-1.60899 -0.71063,-3.18033 -1.00946,-4.78173c-0.72847,-3.90381 -1.83836,-7.74753 -2.27162,-11.69503c-0.25675,-2.33922 -1.71771,-5.33377 -0.11707,-7.05882c1.92383,-2.07334 5.49618,-2.12868 8.30052,-1.76061c2.31501,0.30385 4.00491,2.4019 5.98708,3.63584c0.25535,0.15896 0.50929,0.31949 0.7619,0.4815c-1.44832,-2.87363 -2.62218,-5.86408 -3.09962,-9.08961c-0.27366,-1.84882 -1.37108,-4.12373 -0.22784,-5.60227c3.17256,-4.10303 8.97607,-1.31834 11.9401,0.42348c0.00981,0.00577 0.01961,0.01155 0.02939,0.01735c-1.09028,-2.96603 -2.02291,-6.92645 2.68122,-8.17945c1.62386,-0.43253 3.18049,-0.09912 4.64671,0.70879c-1.36483,-2.25264 -2.68616,-4.63687 -2.96663,-6.33265c-0.34966,-2.11411 -1.03125,-5.17274 0.73477,-6.38637c2.48221,-1.70579 6.26302,0.29083 9.15664,2.23931c-0.877,-2.33735 -3.60062,-9.48077 -1.97552,-11.95246c3.59256,-5.46412 8.74281,-1.70337 12.52792,-0.1666c5.18567,2.1054 10.63718,5.12804 15.53385,8.58502c0.23783,-0.46087 0.57462,-0.93886 1.02644,-1.43389c2.22606,-2.43888 6.22461,-1.54138 9.65085,-0.23567c0.32371,-0.62448 0.76986,-1.33693 1.36014,-2.1496c1.47579,-2.03178 4.76229,-2.26174 7.26074,-2.00912c1.80243,0.18224 2.95669,2.09527 4.40142,3.1883c2.08007,1.5737 4.33663,2.95945 6.16256,4.82203c0.60759,0.61978 0.67777,1.72365 1.41072,2.1885c1.04071,0.66003 4.79544,-0.0914 5.52821,-0.32462c2.93235,-0.93326 5.78475,-2.25508 8.83003,-2.69497l3.16096,-0.63217c0.20841,-0.04597 0.42498,-0.0702 0.6472,-0.0702c1.65206,0 2.99133,1.33926 2.99133,2.99133c0,0.82604 -0.33481,1.57387 -0.87614,2.11519l-2.62939,2.62939l-0.1998,-0.1998c-1.71913,2.72695 -3.58209,5.27207 -5.70927,8.04553c-0.68054,0.8873 2.23057,0.18076 3.3486,0.20214c1.79222,0.03428 3.59647,0.21208 5.37763,0.01034c3.79349,-0.42967 7.45052,-1.66987 11.17741,-2.4984l3.92355,-1.29167c0.31318,-0.11128 0.65037,-0.17185 1.00172,-0.17185c1.65206,0 2.99133,1.33926 2.99133,2.99133c0,1.05479 -0.54594,1.98206 -1.37066,2.51468l-4.93928,3.29282l-0.23996,-0.35995c-0.59105,0.51926 -1.1931,1.00176 -1.84002,1.47435c5.67635,-1.23888 11.31999,-2.6115 16.95902,-4.02029l5.60218,-1.70599c0.29503,-0.09735 0.61037,-0.15002 0.93802,-0.15002c1.65206,0 2.99133,1.33926 2.99133,2.99133c0,1.27508 -0.79779,2.36383 -1.92144,2.79432l-2.89566,1.18652c-1.29025,0.97666 -3.0071,1.20396 -4.46323,1.90989c-1.95783,0.94916 -3.88828,1.95994 -5.79545,3.01454c1.49942,-0.22979 3.04101,-0.4304 4.62251,-0.71438c5.27968,-0.94802 10.40394,-2.41587 15.59416,-3.76751l0.31392,0.0702l-0.00505,-0.10168l4.83961,-0.2405c0.05663,-0.00319 0.11367,-0.00481 0.1711,-0.00481c1.65206,0 2.99133,1.33926 2.99133,2.99133c0,1.09605 -0.58947,2.05441 -1.46869,2.57535l-5.05005,3.10775c-2.56741,2.24772 -6.56808,3.34754 -9.56943,4.47718c-0.18129,0.06823 -0.36255,0.1365 -0.5438,0.20481c6.63876,-0.61748 13.15172,-0.86759 19.90812,-0.85891l0.20643,0.09645l0.01067,-0.07258l4.4238,0.65079c1.46735,0.1915 2.60043,1.44644 2.60043,2.96602c0,1.34561 -0.88848,2.4837 -2.1108,2.85962l-3.87861,1.2929l-0.00477,-0.01433c-0.02741,0.01408 -0.05488,0.02806 -0.08243,0.04193c-4.17096,2.10019 -11.13175,2.99348 -15.64956,4.28373c-4.11149,1.1742 -8.14995,2.5257 -12.17297,3.93404c1.27745,-0.01803 2.57368,-0.0246 3.89417,-0.07386c10.1716,-0.37947 20.30654,-0.86527 30.48625,-0.848l0.17752,0.07837l0.00763,-0.06106l5.2194,0.65241c1.496,0.16501 2.65967,1.43318 2.65967,2.97315c0,1.48736 -1.08553,2.72117 -2.50754,2.9524l-5.83483,1.06087l-0.00242,-0.01332c-0.02684,0.00913 -0.05371,0.0182 -0.0806,0.02721c-3.29165,1.10236 -7.13976,1.47908 -11.06027,1.61321c7.10527,1.6668 14.17144,3.41755 21.23068,5.27933l0.02685,0.0174l0.00261,-0.00914l4.53784,1.2965c1.28493,0.33565 2.23314,1.50429 2.23314,2.89441c0,1.52351 -1.13894,2.781 -2.61182,2.96748l-5.87898,0.83986c-1.70183,0.52294 -5.01256,0.80931 -7.91134,0.99075c3.55874,0.96261 7.11072,1.93295 10.6599,2.9282c5.11346,1.06357 10.19005,2.28025 15.14806,3.7072c1.44276,0.24712 2.83719,0.58569 4.07429,1.23008c0.34342,0.10874 0.68614,0.21861 1.02813,0.3296l0.00462,0.00389l0.00071,-0.00214l3.74345,1.23341c1.22736,0.37285 2.1206,1.51342 2.1206,2.86263c0,1.65206 -1.33926,2.99133 -2.99133,2.99133c-0.22224,0 -0.43883,-0.02424 -0.64725,-0.07021l-3.22614,-0.64526l0.00462,-0.02312c-0.03732,0.00012 -0.07468,-0.00002 -0.11206,-0.00043c-2.03075,-0.02218 -3.91403,-1.08541 -5.87088,-1.62871c-3.61857,-1.00464 -7.1899,-2.16034 -10.77148,-3.27923c-2.91989,-0.64489 -5.85532,-1.23678 -8.78653,-1.79653c1.9812,1.29697 3.96024,2.59614 5.7293,4.16093c4.53719,4.01333 8.57145,9.002 12.73709,13.40129l0.07928,0.24451l0.0675,-0.04562l2.73502,4.04576c0.33749,0.48431 0.53539,1.07314 0.53539,1.7082c0,1.65206 -1.33926,2.99133 -2.99133,2.99133c-0.58053,0 -1.12243,-0.16537 -1.58118,-0.45157l-5.08793,-3.05274c-0.0773,-0.0311 -0.15441,-0.06276 -0.23135,-0.09499c1.5255,2.07417 2.98531,4.21769 4.37612,6.44595l0.02711,0.16712l0.04742,-0.0229l2.48728,5.15096c0.20748,0.40713 0.32448,0.86809 0.32448,1.35637c0,1.65206 -1.33926,2.99133 -2.99133,2.99133c-0.10379,0 -0.20635,-0.00529 -0.30741,-0.0156c2.35468,3.03499 4.74872,6.04438 7.26412,8.98443l0.04693,0.12815l0.03189,-0.02278l3.26648,4.5731c0.36303,0.4951 0.57741,1.10601 0.57741,1.76699c0,1.65206 -1.33926,2.99133 -2.99133,2.99133c-0.59891,0 -1.15672,-0.17601 -1.62452,-0.47914l-5.03416,-3.14637l0.02395,-0.03832c-0.09746,-0.04862 -0.19441,-0.09841 -0.29084,-0.14947c-3.05729,-1.61862 -5.12743,-4.5967 -7.51279,-7.14892c2.85332,4.423 5.48042,9.00711 7.90885,13.86205l2.52561,4.40859c0.26786,0.44818 0.42179,0.97231 0.42179,1.5324c0,1.65206 -1.33926,2.99133 -2.99133,2.99133c-0.95496,0 -1.80542,-0.4475 -2.3531,-1.14423l-2.58133,-3.22665c-0.25033,-0.2826 -7.69407,-8.88206 -7.72704,-8.91768c-3.57247,-3.86107 -7.3741,-7.47904 -11.23961,-11.03331c1.87426,4.17249 2.94254,9.0471 4.8367,13.03708c4.9661,10.46097 11.15915,20.41686 16.69486,30.58043l0.02811,0.17176l0.04024,-0.01636l2.22686,5.47998c0.15794,0.36434 0.24548,0.76628 0.24548,1.18867c0,1.65206 -1.33926,2.99133 -2.99133,2.99133c-0.58564,0 -1.13198,-0.16829 -1.59328,-0.45917l-5.07316,-3.07884l0.00385,-0.00635c-0.01695,-0.00756 -0.03391,-0.01515 -0.05085,-0.02276c-5.49522,-2.46782 -9.48317,-7.83695 -13.43887,-12.13471c-3.09652,-3.36428 -4.1265,-4.58585 -7.49164,-7.81288c-1.02924,-0.98701 -4.06003,-3.79678 -3.47384,-2.49681c6.44065,14.28307 14.31933,27.8915 21.48749,41.85809l0.00237,0.01646l0.00473,-0.00237l1.94509,3.89027c0.21885,0.41567 0.3427,0.88915 0.3427,1.39156c0,1.65206 -1.33926,2.99133 -2.99133,2.99133c-0.7827,0 -1.4952,-0.30062 -2.02832,-0.79268l-4.40312,-4.03623c-3.02428,-1.91569 -5.25643,-4.86167 -7.86337,-7.31524c-5.08614,-4.78689 -10.02044,-10.01913 -15.41375,-14.44783c-2.99195,-2.45682 -6.21448,-4.6235 -9.42753,-6.78312c-1.52102,-1.02234 -3.27888,-1.71502 -4.68456,-2.88439c1.20199,7.21642 1.76276,14.50046 4.31718,21.45899c1.54965,4.22144 3.89792,8.41733 6.14512,12.42069c0.59397,0.60184 0.97171,0.98746 0.9791,1.00219c0.05019,0.10013 0.09894,0.2008 0.14629,0.30202l0.04637,-0.02898l3.14637,5.03416c0.30312,0.4678 0.47914,1.02559 0.47914,1.62452c0,1.65206 -1.33926,2.99133 -2.99133,2.99133c-0.98538,0 -1.85948,-0.47645 -2.40449,-1.21155l-2.99031,-3.94617l0.06458,-0.04894l-0.1862,-0.12395c-0.43757,-0.78582 -0.86888,-1.57114 -1.29301,-2.35673c-0.30817,-0.21814 -0.6085,-0.44695 -0.90244,-0.68492c1.09881,1.74069 2.18415,3.50896 3.26701,5.30964l0.00026,0.00095l0.00023,-0.00013l3.03951,5.0619c0.28652,0.45892 0.4521,1.00112 0.4521,1.58202c0,1.65206 -1.33926,2.99133 -2.99133,2.99133c-0.68431,0 -1.31495,-0.22978 -1.81897,-0.61639l-2.60516,-1.95387l0.04625,-0.06167c-0.11232,-0.05838 -0.22348,-0.11944 -0.33334,-0.18343c-2.97127,-1.73057 -4.2442,-5.42435 -6.6112,-7.91847c-3.9287,-4.1397 -8.35869,-8.48783 -12.73888,-12.14585c-2.26229,-1.88931 -4.70118,-3.56145 -7.14504,-5.20919c-1.13012,-0.76196 -2.36336,-1.37091 -3.45463,-2.18753c-0.02025,-0.01515 -0.0409,-0.03675 -0.06154,-0.063c2.55775,5.76304 4.45924,11.86295 7.19161,17.52947c3.72251,7.71991 8.2962,15.00058 13.02724,22.12134l0.02793,0.19386l0.06038,-0.03019l1.94512,3.89028c0.21885,0.41569 0.34271,0.88917 0.34271,1.39158c0,1.65206 -1.33926,2.99133 -2.99133,2.99133c-0.82604,0 -1.57387,-0.33481 -2.11519,-0.87614l-4.23037,-4.23037l0.01625,-0.01625c-0.03964,-0.03024 -0.07916,-0.06066 -0.11856,-0.09127c-4.27224,-3.31994 -8.0585,-9.84968 -11.42418,-14.09455c-2.94228,-3.71086 -5.77333,-7.46128 -8.51787,-11.26691c1.54833,5.52614 2.75794,11.02321 3.73424,16.81435l-0.09958,0.25231h0.11024l0,3.28671c0,1.65206 -1.33926,2.99133 -2.99133,2.99133c-1.3901,0 -2.55876,-0.94823 -2.89441,-2.23316l-1.29648,-4.53779l0.01792,-0.00512c-0.0152,-0.03232 -0.03026,-0.06471 -0.0452,-0.09718c-0.84818,-1.84377 -0.83775,-3.97162 -1.25615,-5.95751c-1.05325,-4.99901 -1.75277,-10.25752 -2.97568,-15.25466c-1.19066,-3.47712 -2.91641,-6.82071 -3.52713,-10.4351c-0.13337,-0.32809 -0.26746,-0.65578 -0.4019,-0.98317c-0.10182,-0.24796 -0.17745,-0.57301 -0.2498,-0.91554l-0.71616,-1.90981c-0.12241,-0.07762 -0.26835,-0.09833 -0.44542,-0.04232c-1.21631,0.38471 -0.59073,2.49679 -1.10587,3.66386c-1.05447,2.38891 -1.83529,4.78305 -2.40068,7.30069c1.10319,0.44047 1.88267,1.51878 1.88267,2.77916c0,0.22223 -0.02423,0.43882 -0.0702,0.64723l-0.64524,3.22614l-0.05368,-0.01073l0.02684,0.13185c-0.13433,0.46732 -3.02635,10.61142 -3.28494,11.17906l-0.62139,3.10699c-0.24729,1.37681 -1.43669,2.42662 -2.87707,2.45828c-0.66654,2.33502 -1.2725,4.67879 -1.79191,7.0142l-0.14936,0.19539l0.07094,0.02809l-1.30593,3.29778c-0.42156,1.14119 -1.5192,1.9548 -2.80687,1.9548c-1.284,0 -2.37905,-0.80899 -2.80326,-1.94507l-1.28882,-3.22202l0.05822,-0.02328c-0.0918,-0.20882 -0.17216,-0.42334 -0.23917,-0.64455c-0.64972,-2.14458 0.27006,-4.47435 0.47896,-6.70544c0.40053,-4.27766 0.94815,-8.53322 1.61246,-12.77251c-1.82199,3.03677 -4.68383,7.80646 -4.69617,7.827c-3.28464,5.47003 -7.26597,10.53958 -11.10757,15.63302c-0.04404,0.05839 -7.34295,9.60314 -7.35477,9.61447c-1.86653,1.78923 -3.77121,5.53412 -6.2034,4.65676c-2.91082,-1.05002 -3.34055,-5.34189 -4.04735,-8.3545c-0.01847,-0.07876 0.98324,-11.57843 1.09376,-12.18305c0.31941,-1.74728 0.72512,-3.47407 1.16016,-5.19484c-2.09224,3.30954 -4.15397,6.63683 -6.21648,9.9678l-0.03999,0.03387l0.01241,0.00827l-2.60365,3.90545c-0.53262,0.82471 -1.45989,1.37064 -2.51466,1.37064c-1.65206,0 -2.99133,-1.33926 -2.99133,-2.99133c0,-0.06783 0.00226,-0.13514 0.0067,-0.20184l0.34977,-5.94615c-0.70034,-7.28683 1.8127,-15.19371 2.5402,-22.41337c0.32268,-3.20223 -0.14969,-6.47752 0.10008,-9.67482c-0.62513,0.64542 -1.27894,1.26843 -1.8843,1.92834c-1.37917,1.50348 -2.71137,3.05362 -4.16716,4.48303c-6.80864,6.6853 -14.34237,12.63502 -21.8375,18.51201l-0.19287,0.0433l0.03497,0.05829l-3.24456,1.94671c-0.45874,0.2862 -1.00065,0.45157 -1.58117,0.45157c-1.65206,0 -2.99133,-1.33926 -2.99133,-2.99133c0,-0.60367 0.17882,-1.16559 0.48639,-1.63566l3.17051,-5.01996c0.98233,-2.2535 2.30918,-4.38965 3.78967,-6.46211c-0.50972,-0.53643 -0.82252,-1.26178 -0.82252,-2.06017c0,-0.35025 0.0602,-0.68644 0.1708,-0.99878l0.79986,-2.43819c-4.75384,2.20768 -9.80564,3.9343 -14.04015,5.62792zM279.93761,234.11539c1.12321,0.79158 2.33861,1.99543 3.5581,3.36436c4.74332,4.3536 9.69574,8.46338 14.41271,12.82356c-1.62273,-4.49839 -2.84786,-9.15288 -3.51756,-14.09253c-0.60927,-4.49394 -2.46121,-11.17254 2.15488,-14.88472c1.82696,-1.46921 10.10454,4.33529 10.83239,4.82324c9.19264,6.16262 16.98032,13.70959 24.99437,21.26459c-3.89842,-7.1065 -7.80291,-14.20875 -11.04389,-21.64027c-0.72416,-1.66048 -5.04859,-11.94628 -4.68713,-13.09188c2.79795,-8.86781 9.75327,-2.91663 13.04447,-0.44004c4.50855,3.39263 8.19474,8.65557 12.07864,12.71901c1.45372,1.52092 2.98296,2.71024 4.43286,3.89766c-5.87766,-10.49178 -12.07578,-20.89394 -16.70408,-31.98168c-1.52099,-3.64377 -3.46175,-7.66311 -4.02884,-11.63713l-1.58282,-5.69814c-0.08294,-0.27438 -0.12754,-0.56541 -0.12754,-0.86686c0,-1.65206 1.33926,-2.99133 2.99133,-2.99133c0.62857,0 1.21186,0.19387 1.69333,0.52509l3.91002,2.6067l-0.03483,0.05224l0.21259,0.07592c2.40735,2.16378 4.77589,4.34912 7.09782,6.57568c-3.46826,-4.60018 -7.32682,-8.98314 -10.9475,-13.39804c-1.26843,-1.54667 -2.85844,-2.87803 -3.80525,-4.64001c-0.00291,-0.00542 -0.00583,-0.01084 -0.00873,-0.01627l-0.00266,0.00212l-3.72245,-4.65306c-0.41912,-0.5148 -0.67038,-1.17169 -0.67038,-1.88728c0,-1.65206 1.33926,-2.99133 2.99133,-2.99133c0.82604,0 1.57387,0.33481 2.11519,0.87614l3.2457,3.2457c4.26014,3.83956 8.48482,7.71499 12.68741,11.61465c-0.57425,-0.73205 -1.15207,-1.46242 -1.73461,-2.19049c-0.26245,-0.328 -7.68466,-9.58842 -7.7331,-9.72279c-0.05191,-0.14394 -0.10076,-0.28863 -0.14678,-0.43399l-0.05055,0.01947l-2.11636,-5.49751c-0.14459,-0.35098 -0.22434,-0.73551 -0.22434,-1.13865c0,-1.20948 0.71781,-2.25131 1.75067,-2.72272c-2.09396,-1.96457 -4.26003,-3.85389 -6.36755,-5.80442c-1.39451,-1.29063 -3.18392,-2.2581 -4.18993,-3.86745c-0.56123,-0.37932 -1.12353,-0.75715 -1.68665,-1.13376l-3.08742,-2.06087c-0.18212,-0.11777 -0.35063,-0.25481 -0.50265,-0.40822c-1.55207,-0.26824 -3.03231,-0.62848 -4.3738,-1.14346c-0.04593,-0.01764 -0.09175,-0.03549 -0.13747,-0.05357l-0.00538,0.02155l-5.19806,-1.29949c-1.33211,-0.30229 -2.32655,-1.49362 -2.32655,-2.91719c0,-1.50144 1.10618,-2.74452 2.54804,-2.95871l3.89554,-0.6493l0.00875,0.05247l0.13724,-0.07312c6.60529,-0.44631 13.21096,-0.86276 19.81971,-1.25426c0.66442,-0.03937 1.3283,-0.1128 1.99172,-0.20529c-3.90448,-0.96909 -7.81608,-1.90829 -11.74036,-2.82242c-0.19843,-0.04622 -11.8375,-2.75434 -11.8832,-2.77786c-0.07098,-0.03654 -0.1416,-0.07365 -0.21191,-0.11128l-0.01222,0.02985l-5.47287,-2.23897c-1.10953,-0.42435 -1.90173,-1.4904 -1.9226,-2.74415c-3.63058,0.13532 -8.90154,0.32818 -8.9749,0.30955c-0.12363,-0.0314 -0.2466,-0.06462 -0.36896,-0.09959l-0.00903,0.04065l-5.78268,-1.285c-1.36882,-0.2745 -2.39994,-1.48327 -2.39994,-2.93288c0,-1.25796 0.7765,-2.33455 1.87634,-2.77662l4.53804,-1.94489l0.0103,0.02405l0.07725,-0.05995c6.68643,-2.38038 13.33815,-4.68129 20.09725,-6.74727c-2.25944,0.18005 -4.52846,0.40226 -6.82357,0.67113c-1.18715,0.13907 -10.78724,1.37098 -10.97735,1.33335c-0.15756,-0.03119 -0.31295,-0.06848 -0.46641,-0.11122l-0.01102,0.05512l-3.23238,-0.64646c-1.39811,-0.2511 -2.45903,-1.47372 -2.45903,-2.94411c0,-1.19414 0.69971,-2.22484 1.71149,-2.70449l3.88603,-1.94307l0.01918,0.03836l0.1114,-0.09975c1.98025,-0.76402 3.96059,-1.52726 5.94248,-2.28635c-0.95279,0.18331 -1.90917,0.36123 -2.87008,0.53369c-2.01246,0.3612 -3.99328,1.10865 -6.03772,1.08174c-0.05064,-0.00067 -0.10125,-0.00154 -0.15185,-0.00263l0.00139,0.01804l-5.93233,0.45633c-0.08638,0.0075 -0.17381,0.01133 -0.26212,0.01133c-1.65206,0 -2.99133,-1.33926 -2.99133,-2.99133c0,-0.84516 0.3505,-1.60846 0.91408,-2.15246l2.15441,-2.08499l0.08135,0.08406l0.1559,-0.29064c0.0475,-0.02984 0.09502,-0.05967 0.14253,-0.08949c-0.63009,0.12877 -1.26075,0.25467 -1.892,0.37739c-2.14961,0.41788 -4.28602,1.54618 -6.45312,1.23136c-0.19482,-0.0283 -0.38653,-0.06662 -0.57552,-0.11369l-0.01112,0.0556l-3.23238,-0.64646c-1.39811,-0.2511 -2.45903,-1.47372 -2.45903,-2.94411c0,-1.05834 0.54963,-1.98831 1.379,-2.52005l2.62046,-1.73517c-1.69279,0.14687 -3.4086,0.1698 -5.16424,0.00827c-2.04924,-0.18855 -4.39048,0.03647 -6.06331,-1.16207c-5.83323,-4.17936 -1.56879,-7.69593 1.03774,-11.7633c0.1784,-0.2784 0.34876,-0.56568 0.51578,-0.85706c-4.33787,1.49436 -8.63157,3.26715 -13.26561,0.86519c-1.17798,-0.61059 -1.58674,-2.14051 -2.53333,-3.07026c-1.70384,-1.67355 -3.85922,-2.82299 -5.66953,-4.38074c-0.3695,-0.31794 -0.72568,-0.6508 -1.07616,-0.98988l1.09556,2.73887c0.15393,0.36043 0.23915,0.75724 0.23915,1.17394c0,1.65206 -1.33926,2.99133 -2.99133,2.99133c-0.58053,0 -1.12245,-0.16537 -1.58119,-0.45158l-3.11573,-1.86946c-1.31892,-0.57186 -2.67781,-1.05987 -3.95378,-1.72189c-0.96765,-0.50204 -1.89249,-2.42988 -2.75466,-1.76275c-0.83363,0.64505 2.18449,0.97763 2.45155,1.99728c0.01003,0.03828 0.01985,0.07659 0.02948,0.11493l0.01016,-0.00339l1.86977,5.60942c0.11365,0.31612 0.17558,0.65691 0.17558,1.01217c0,1.65206 -1.33926,2.99133 -2.99133,2.99133c-0.95497,0 -1.80543,-0.4475 -2.3531,-1.14424l-2.50431,-3.1304c-3.59027,-3.28901 -7.91322,-5.54933 -12.03233,-8.1281c-1.62541,-1.01758 -3.18862,-2.14142 -4.87384,-3.05656c-1.11314,-0.60449 -2.34501,-0.96049 -3.49626,-1.48878c-3.93374,-1.80516 -5.48411,-3.89137 -4.25924,-0.50972c0.63054,1.74078 1.10703,3.53547 1.7552,5.26977c0.65624,1.75587 1.31036,3.52081 2.15553,5.19397c0.64152,1.26999 1.3561,2.58569 2.13031,3.9146c6.00017,4.73426 11.46177,9.9907 16.57789,15.83336l0.03012,0.08591l0.02386,-0.01856l2.61745,3.36473c0.40483,0.51027 0.64662,1.15575 0.64662,1.85772c0,1.65206 -1.33926,2.99133 -2.99133,2.99133c-0.5919,0 -1.14366,-0.17192 -1.60804,-0.46854l-5.05487,-3.11073c-1.42278,-0.60895 -2.74898,-1.38247 -3.86357,-2.42955c-4.07371,-3.82697 -7.86146,-8.81125 -10.95731,-14.06964c-1.78502,-1.38141 -3.61867,-2.71886 -5.50558,-4.01685c-0.63879,-0.43943 -1.51093,-0.86388 -2.37,-1.31308c0.19889,0.48371 0.40823,0.96182 0.6554,1.41844c2.25843,4.17224 5.80176,9.28178 6.56186,14.1338c0.00692,0.04414 0.01359,0.08829 0.02005,0.13247l0.01929,-0.00552l1.29571,4.53495c0.08714,0.28062 0.13407,0.57894 0.13407,0.88822c0,1.65206 -1.33926,2.99133 -2.99133,2.99133c-0.84236,0 -1.60339,-0.34818 -2.14703,-0.90848l-2.12267,-2.18284l0.06421,-0.06243l-0.21346,-0.10295c-2.01903,-2.80573 -4.45477,-5.63247 -6.53346,-8.54142c0.56778,1.43264 1.46423,2.84884 1.41559,4.38357c-0.00509,0.1605 -0.01554,0.3202 -0.0308,0.47916l0.06942,0v3.28671c0,1.65206 -1.33926,2.99133 -2.99133,2.99133c-0.82604,0 -1.57387,-0.33483 -2.1152,-0.87615l-2.55946,-2.55949c-1.15221,-0.97609 -2.19988,-2.09228 -3.46181,-2.92132c-0.86336,-0.56719 -1.88713,-0.84089 -2.82446,-1.27739c1.43215,1.98897 1.88705,6.01407 2.96816,8.02819c1.62914,3.03507 3.60848,7.0873 5.72473,9.86198c0.71311,0.93498 1.95779,1.4431 2.50489,2.48397c0.02153,0.04095 0.04287,0.08196 0.06407,0.12305l0.02506,-0.02088l3.28671,3.94405l-1.3279,1.10658c0.33739,1.011 0.67072,2.02382 1.04706,3.01728l-2.83111,-1.39492l-1.30124,1.30124l-3.84897,-3.84897c-4.27026,-3.34835 -8.46272,-6.59197 -12.97059,-9.60573c-1.37618,-0.92006 -2.60987,-2.06944 -4.07789,-2.83446c-0.66847,-0.34836 -1.8747,-1.11755 -2.21696,-0.44595c-0.40305,0.79091 0.98114,1.50669 1.24437,2.35446c0.83398,2.686 1.87515,9.04379 2.28798,11.78854c0.35129,2.33566 1.68382,4.77325 0.95764,7.02077c-0.84051,2.6014 -2.57015,5.80123 -5.25935,6.29307c-2.36404,0.43237 -4.01926,-2.66616 -5.81039,-4.2685c-1.93736,-1.73317 -3.14565,-4.23362 -5.23512,-5.78004c-1.07317,-0.79426 -2.35168,-1.30794 -3.49199,-2.00078c1.60669,4.92876 3.55756,8.84149 6.78923,13.2121c0.05497,0.07434 3.47022,4.45893 5.55539,7.139c1.20221,1.07968 2.38879,2.1713 3.56174,3.2679l0.08278,0.44491l0.16132,-0.09679l1.94673,3.24456c0.28621,0.45874 0.45158,1.00065 0.45158,1.58118c0,1.65206 -1.33926,2.99133 -2.99133,2.99133c-0.90373,0 -1.71385,-0.40077 -2.26234,-1.03426l-3.92846,-4.48968l0.01132,-0.00991c-0.02246,-0.01858 -0.04488,-0.03721 -0.06726,-0.05591c-0.78468,-0.65567 -1.41104,-1.46429 -1.99904,-2.30993c-7.06436,-6.09412 -14.5082,-11.50485 -23.02258,-15.54511c-1.46008,-0.69284 -2.77042,-1.74784 -4.324,-2.19313c-0.79034,-0.22653 -2.19484,-0.52985 -2.45374,0.25049c-0.28755,0.86672 1.1185,1.44461 1.64346,2.19182c2.13856,3.04402 4.40996,6.00589 6.88134,8.78649c3.85735,4.33999 7.96815,8.47871 12.50941,12.12528c1.63521,1.31306 3.26875,2.38567 4.8195,3.49104c2.05331,0.73639 4.10398,1.49053 6.15729,2.2623l0.11611,0.11834l0.02595,-0.05191l3.88611,1.94302c1.01181,0.47964 1.71155,1.51036 1.71155,2.70452c0,1.65206 -1.33926,2.99133 -2.99133,2.99133c-0.22223,0 -0.43879,-0.02423 -0.6472,-0.0702l-5.80591,-1.16116l0.01612,-0.08056c-0.20701,-0.02945 -0.41356,-0.06532 -0.61959,-0.10829c-1.84791,-0.38546 -3.18406,-1.95842 -4.65968,-3.20209c-4.38498,-1.55961 -8.78388,-3.03818 -13.25186,-4.43442c-3.63728,-1.13666 -7.11675,-2.97818 -10.89746,-3.45564c-0.93774,-0.11842 -1.8865,0.06504 -2.83336,0.22101c6.57515,3.68958 13.11084,6.88026 20.47757,9.05892c0.72203,0.21353 11.00892,2.52537 11.2338,2.64734c0.06608,0.03584 0.13153,0.07257 0.1964,0.11015l0.014,-0.03499l3.22202,1.28878c1.13608,0.42419 1.94508,1.51925 1.94508,2.80326c0,1.65206 -1.33926,2.99133 -2.99133,2.99133l-3.28671,0v-0.04692l-0.11678,0.04463c-11.56545,-0.89669 -23.48998,-2.30217 -34.39784,2.74123c-0.28592,0.1322 0.63965,-0.24885 0.93478,-0.13873c1.55259,0.57941 2.93999,1.54266 4.47837,2.15883c1.56841,0.62819 3.21429,1.04238 4.82074,1.5657c3.95336,1.28784 8.55859,1.30886 11.87542,3.81609c0.14946,0.11298 0.2936,0.23127 0.43298,0.35428l0.03682,-0.04603l3.26514,2.61212c0.69674,0.54768 1.14423,1.39812 1.14423,2.3531c0,1.65206 -1.33926,2.99133 -2.99133,2.99133c-0.01739,0 -0.03475,-0.00014 -0.05207,-0.00044l-3.88189,-0.05797l0.00057,-0.03829l-0.12188,0.03402c-1.96791,-0.19054 -3.92828,-0.49036 -5.90373,-0.57162c-2.95581,-0.12157 -5.88991,0.46466 -8.83091,0.85861c1.96753,0.42326 3.92765,1.11152 4.24352,1.1741c5.42902,1.07547 12.69075,0.47941 17.7996,2.54488c0.06346,0.02565 0.12664,0.05186 0.18955,0.07859l0.00836,-0.02928l4.53782,1.2965c1.28492,0.33565 2.23314,1.50429 2.23314,2.89441c0,1.50145 -1.1062,2.74453 -2.54806,2.95871l-3.89554,0.64925l-0.00287,-0.01724l-0.04742,0.02519c-1.63481,0.2157 -3.26963,0.43137 -4.90445,0.64701c1.83818,-0.20751 3.67861,-0.40718 5.52211,-0.60123l5.89749,-0.65214c0.12182,-0.0151 0.24591,-0.02288 0.37182,-0.02288c1.65206,0 2.99133,1.33926 2.99133,2.99133c0,0.98476 -0.47585,1.85837 -1.21016,2.40346l-3.35766,2.5472l-0.05229,-0.06893c-0.21104,0.17076 -0.43319,0.329 -0.66842,0.47252c-1.93544,1.18088 -4.50423,0.52385 -6.75932,0.7583c-7.52603,0.78242 -15.0383,0.83929 -22.58257,0.49193c-0.95117,0.1616 -1.88856,0.38089 -2.80327,0.69566c-0.93436,0.32154 -1.43651,1.41143 -2.29836,1.88077c6.58477,1.44894 13.1671,2.82022 19.86411,3.69119c4.75283,0.61812 10.67053,0.05883 15.22345,1.66428l5.87898,0.83988c1.47288,0.18648 2.61181,1.44397 2.61181,2.96748c0,1.4513 -1.03354,2.6612 -2.40474,2.93383l-0.1048,0.0231l5.50399,0.54954c1.52826,0.13381 2.727,1.41681 2.727,2.9798c0,1.0527 -0.54378,1.97838 -1.36576,2.51151l-4.93353,3.30206l-0.02636,-0.03939l-0.13369,0.13935c-2.08148,1.04316 -4.16932,2.08694 -6.24913,3.14841c0.22184,-0.06127 0.44379,-0.12257 0.66589,-0.18387c2.08961,-0.57676 4.10904,-1.80646 6.2746,-1.70922c0.17369,0.0078 0.34675,0.01968 0.51925,0.0353l0.00315,-0.04087l5.93873,0.45682c1.55733,0.10442 2.7882,1.40074 2.7882,2.98454c0,0.82604 -0.33481,1.57387 -0.87614,2.11519l-2.62939,2.62939l-0.00464,-0.00464l-0.01241,0.02156c-2.83611,2.74662 -5.63128,5.53721 -8.54676,8.199c3.82077,-1.19576 7.66592,-2.25734 11.5535,-3.35018c1.57095,-0.4416 3.07616,-1.31824 4.70782,-1.34259c0.04108,-0.00061 0.08214,-0.00096 0.12317,-0.00103l-0.00501,-0.0251l3.22614,-0.64522c0.20841,-0.04597 0.42498,-0.0702 0.6472,-0.0702c1.65206,0 2.99133,1.33926 2.99133,2.99133c0,0.37427 -0.06874,0.7325 -0.19428,1.06273c0.30392,0.07666 0.56573,0.18208 0.79113,0.30842c-0.04195,-0.91539 0.22758,-2.29042 2.03933,-2.89432c1.72524,-0.57506 2.75123,0.24832 3.29055,0.98234l1.77149,-2.48008c0.54032,-0.7767 1.43945,-1.2851 2.45731,-1.2851c1.65206,0 2.99133,1.33926 2.99133,2.99133c0,0.52404 -0.13475,1.01662 -0.37151,1.44495l-2.2997,4.3658l-0.07932,-0.04178l-0.03951,0.24717c-5.40941,7.23085 -10.15938,14.89952 -15.48043,22.20454c-0.02026,0.02781 -0.04045,0.05567 -0.06058,0.08359c4.99823,-4.23734 9.82355,-8.66108 14.33553,-13.46619c1.86975,-1.99122 6.75773,-8.95422 11.23323,-6.13583c1.78665,1.12512 1.23259,10.89501 1.18431,12.37206c-0.19214,5.87892 -1.14124,11.54652 -1.82742,17.37549c-0.18552,1.57595 -0.25779,3.05593 -0.35256,4.46763c2.58167,-4.64862 5.29513,-9.43776 8.64401,-13.00719c0.00474,-0.00505 0.00949,-0.0101 0.01423,-0.01515l-0.00292,-0.00195l2.60365,-3.90545c0.53262,-0.82471 1.45989,-1.37064 2.51466,-1.37064c1.65206,0 2.99133,1.33926 2.99133,2.99133c0,0.19107 -0.01791,0.37796 -0.05216,0.55908l-0.89224,5.2324l-0.00465,-0.00079l0.00185,0.01693c-0.97103,5.3289 -2.73019,10.45446 -3.70089,15.75373c-0.45745,2.49728 -0.07094,6.33953 -0.42374,9.57905c0.82416,-1.1119 1.80212,-2.12531 2.64359,-3.2261c1.91861,-2.50984 3.83316,-5.02317 5.70714,-7.5665c4.21392,-5.71904 8.09959,-11.32858 11.75102,-17.4141c2.02804,-3.37995 2.99956,-7.65149 6.02995,-10.17216c0.15634,-0.13004 0.31828,-0.25084 0.48506,-0.36364l-0.03732,-0.04975l2.60518,-1.95387c0.50403,-0.38661 1.13466,-0.61639 1.81895,-0.61639c1.65206,0 2.99133,1.33926 2.99133,2.99133c0,0.0665 -0.00217,0.1325 -0.00645,0.19793l-0.33557,5.81979l-0.03989,-0.0023l0.02456,0.17785c-0.34153,1.93408 -0.65253,3.86708 -0.93922,5.8017c0.28158,-1.20165 0.49594,-2.31454 0.82738,-3.40543c0.32361,-3.2882 0.694,-6.56399 1.32337,-9.83404c1.01457,-5.27148 0.36028,-5.9079 3.21953,-9.50662c1.73597,-2.18494 2.70945,-6.1552 5.49545,-6.31567c0.75295,-0.04336 1.45057,0.14381 2.10382,0.48477c0.34375,-0.13773 0.71901,-0.2135 1.11197,-0.2135c1.19416,0 2.22488,0.69974 2.70452,1.71155l1.88936,3.7788c4.31329,6.70799 8.80455,13.1854 13.51485,19.52795c-0.27922,-0.65248 -0.55086,-1.30815 -0.81439,-1.96711c-0.10082,-0.2521 -4.50586,-11.27283 -4.52707,-11.36984c-1.29667,-5.93017 -3.24217,-11.14043 5.46014,-10.32807c2.03846,0.1903 6.43746,3.56768 8.48799,5.0639c2.14489,1.56507 4.24719,3.22339 6.30094,4.95317c-1.01863,-1.29241 -2.06826,-2.57656 -3.15515,-3.85534c-2.1879,-2.57416 -8.65936,-8.34205 -10.04849,-11.37575l-0.76397,-0.76397c-0.01474,-0.01473 -0.02949,-0.02947 -0.04424,-0.04421l0,-0.00001v0l-3.37144,-3.37144l1.29974,-1.29974l-1.29974,-2.93063c0.94583,0.47593 1.91745,0.90862 2.88908,1.3413l1.3413,-1.3413v0l3.40949,3.40948c0.30257,0.30228 0.60668,0.6028 0.9122,0.90171zM238.86137,59.59716c0.09104,0.1423 0.17354,0.29089 0.24838,0.44497l0.14302,-0.05721c-0.13072,-0.12901 -0.26105,-0.25841 -0.3914,-0.38776zM157.14341,256.93644c-0.86436,0.66125 -1.62294,1.32089 -2.32993,1.96324c2.92951,-1.24041 5.81083,-2.55374 8.6767,-4.07591c2.60972,-1.38612 6.90533,-3.31781 9.01897,-5.64014c0.67466,-0.74129 1.12233,-3.80813 1.31774,-5.24421l-0.56866,0.3412c-5.42889,4.1447 -10.68776,8.50403 -16.11481,12.65583z" fill="url(#color-2)" fill-rule="nonzero" stroke="none" stroke-width="0.5" stroke-linecap="butt" stroke-linejoin="miter"/></g></g></svg>