<svg version="1.1" xmlns="http://www.w3.org/2000/svg" xmlns:xlink="http://www.w3.org/1999/xlink" width="159.81676" height="159.81675" viewBox="0,0,159.81676,159.81675"><g transform="translate(-160.09162,-100.09162)"><g stroke-miterlimit="10"><path d="M232.20356,226.36771c-0.61361,3.60499 -0.61518,8.1214 -3.86567,7.73134c-3.25049,-0.39006 -1.4338,-4.18591 -0.73632,-8.28358c0.69747,-4.09767 -0.04456,-9.46704 3.68159,-9.0199c3.72615,0.44714 1.53402,5.96715 0.9204,9.57214z" fill="#ff0000" stroke="#ffe8e8" stroke-width="5" stroke-linecap="round"/><path d="M240.8553,220.66125c0.08671,2.428 0.47347,5.12264 -1.47264,5.70647c-1.94612,0.58383 -2.12157,-2.15517 -2.20896,-4.60199c-0.08738,-2.44682 -0.01196,-5.15064 1.8408,-5.70647c1.85276,-0.55583 1.75409,2.17399 1.8408,4.60199z" fill="#ff0000" stroke="#ffe8e8" stroke-width="5" stroke-linecap="round"/><path d="M248.58664,217.90004c2.41907,-0.7741 2.46268,1.80168 3.12935,5.70647c0.66667,3.90479 2.77286,8.32403 -0.55224,9.38806c-3.3251,1.06403 -3.53978,-4.92843 -4.04975,-7.91542c-0.50997,-2.98699 -0.94643,-6.405 1.47264,-7.1791z" fill="#ff0000" stroke="#ffe8e8" stroke-width="5" stroke-linecap="round"/><path d="M233.12612,206.6712c0.22075,-3.2597 2.85431,3.35954 6.35772,3.31343c3.5034,-0.04611 7.83073,-6.47245 7.62926,-3.49751c-0.20147,2.97494 -3.45105,6.56909 -7.84118,6.62687c-4.39013,0.05778 -6.36654,-3.18308 -6.14579,-6.44279z" fill="#ff0000" stroke="#ffe8e8" stroke-width="5" stroke-linecap="round"/><path d="M232.20355,226.3677c-0.61361,3.60499 -0.61518,8.1214 -3.86567,7.73134c-3.25049,-0.39006 -1.4338,-4.18591 -0.73632,-8.28358c0.69747,-4.09767 -0.04456,-9.46704 3.68159,-9.0199c3.72615,0.44714 1.53402,5.96715 0.9204,9.57214z" fill="#ff0000" stroke="#000000" stroke-width="0" stroke-linecap="round"/><path d="M240.85528,220.66124c0.08671,2.428 0.47347,5.12264 -1.47264,5.70647c-1.94612,0.58383 -2.12157,-2.15517 -2.20896,-4.60199c-0.08738,-2.44682 -0.01196,-5.15064 1.8408,-5.70647c1.85276,-0.55583 1.75409,2.17399 1.8408,4.60199z" fill="#ff0000" stroke="#000000" stroke-width="0" stroke-linecap="round"/><path d="M248.58663,217.90003c2.41907,-0.7741 2.46268,1.80168 3.12935,5.70647c0.66667,3.90479 2.77286,8.32403 -0.55224,9.38806c-3.3251,1.06403 -3.53978,-4.92843 -4.04975,-7.91542c-0.50997,-2.98699 -0.94643,-6.405 1.47264,-7.1791z" fill="#ff0000" stroke="#000000" stroke-width="0" stroke-linecap="round"/><path d="M233.12612,206.67119c0.22075,-3.2597 2.85431,3.35954 6.35772,3.31343c3.5034,-0.04611 7.83073,-6.47245 7.62926,-3.49751c-0.20147,2.97494 -3.45105,6.56909 -7.84118,6.62687c-4.39013,0.05778 -6.36654,-3.18308 -6.14579,-6.44279z" fill="#ff0000" stroke="#000000" stroke-width="0" stroke-linecap="round"/><path d="M160.09163,259.90837v-159.81675h159.81676v159.81675z" fill="none" stroke="#ffe8e8" stroke-width="0" stroke-linecap="butt"/></g></g></svg>