<svg version="1.1" xmlns="http://www.w3.org/2000/svg" xmlns:xlink="http://www.w3.org/1999/xlink" width="167.74536" height="141.76823" viewBox="0,0,167.74536,141.76823"><g transform="translate(-179.8786,-117.93726)"><g stroke-width="1.2" stroke-miterlimit="10"><g fill="#9a8479" stroke="#000000" stroke-linecap="butt"><path d="M248.47679,225.99023c-2.63259,0 -2.74428,-3.23324 -2.74428,-3.23324l0.65591,-3.33409c0.39193,-0.4631 1.02447,-1.67188 1.80647,-2.25282c-0.51588,-0.60799 -0.94488,-1.33089 -1.43236,-1.97645c0,0 -1.81763,-2.43327 0.09008,-4.56237c1.9077,-2.12911 3.72533,0.30416 3.72533,0.30416c2.56565,3.48238 6.96289,5.22171 3.32084,10.58798c-0.60828,0.89623 -1.2795,1.33383 -2.44877,2.20493c-1.24572,0.92803 -2.97316,2.26194 -2.97316,2.26194z"/><path d="M249.25457,224.98085c0,0 0.77063,5.22774 1.16211,7.13847c0.39507,1.91063 0.87923,3.68822 0.87923,3.68822c0,0 0.71854,0.34929 0.51931,1.09892c-0.19749,0.75337 -2.64311,0.71688 -5.71224,0.8829c-3.06984,0.16691 -5.57299,-0.36213 -6.06724,-1.15826c-0.49252,-0.78714 0.41565,-1.06708 0.41565,-1.06708c0,0 0.92886,-5.17305 0.03388,-7.52882c-1.19323,-3.14189 0.17847,-3.95998 3.77061,-5.46209v0v0v0v0v0v0c3.59214,-1.50211 4.99869,2.40773 4.99869,2.40773z"/><path d="M236.89903,208.67383v0v0v0v0v0v0c8.08328,-0.62376 11.34064,4.05299 11.33882,4.0521c0.70139,1.20795 1.57952,2.91231 1.97351,4.46855c0.10864,0.42988 0.18314,0.91356 0.21544,1.43237c0,0 0.01444,1.80207 -0.14252,2.35221c-0.65847,2.30475 -1.77329,4.82759 -4.60867,5.96827c-4.45134,1.79848 -9.26301,1.57773 -14.33641,-0.78533c-1.71205,-0.79518 -2.75688,-2.15035 -3.34887,-3.69306c-0.42278,-1.11025 -0.63694,-2.55784 -0.63694,-2.55784c-0.31963,-2.40793 0.02241,-4.75845 0.21267,-5.78064c0,0 1.25071,-4.83296 9.333,-5.45663z"/><path d="M238.61702,227.60244c-0.03308,0.33101 -0.08221,0.53673 -0.08221,0.53673c0,0 -0.62104,3.23453 -0.62078,4.99083c-0.00072,1.7564 0.08574,2.48244 0.08574,2.48244c0,0 0.52356,0.05919 0.40587,0.72783c-0.11406,0.66954 -1.67339,1.39557 -6.12429,1.27629c-4.4528,-0.12475 -5.33099,-1.12546 -5.35407,-1.63701c-0.02497,-0.51154 0.93713,-1.03037 0.93713,-1.03037c0,0 0.41571,-3.27125 1.05564,-6.11542c0.36359,-1.6128 0.96292,-3.18902 1.41402,-4.25212"/></g><g><path d="M277.28517,161.01938c0,0 11.92257,-11.38365 14.64762,-3.72978c2.72512,7.65376 -2.14962,17.89399 -12.32251,28.06655c0,0 0.22445,-14.10765 -2.32511,-24.33677zM277.28517,161.01938c-0.21304,-1.21044 -0.9169,-3.47848 -0.9169,-3.47848M279.34582,187.589l0.1278,-2.29613" fill="#9a8479" stroke="#000000" stroke-linecap="round"/><path d="M279.47361,185.29197c0.06608,-2.61671 0.06355,-6.90771 -0.35034,-12.20112c-0.23847,-3.08114 -0.69942,-6.22553 -1.17242,-8.92953l0.00127,0.0034c6.98365,-3.62331 13.19932,4.55964 13.19932,4.55964l0.00254,-0.0004c-3.49055,8.77451 -11.62443,16.33179 -11.62443,16.33179l-0.05594,0.23621v0v0v0v0z" fill="#ee4036" stroke="#000000" stroke-linecap="butt"/><path d="M195.96278,194.7247v0v0v0v0v0v0c-0.0478,-0.083 -1.444,-2.4149 -1.444,-2.4159c-3.8726,-6.2165 -4.7309,-20.2761 -4.3943,-24.6641l0.0298,-0.2102c1.1002,-18.5991 9.7497,-28.5261 14.8579,-33.7801c11.5944,-11.9333 29.1688,-12.4187 29.1688,-12.4187l0.6227,12.0732c0,0 -0.0334,-3.4723 7.0368,-9.5427c7.0684,-6.0704 17.5211,-5.1836 17.5211,-5.1836l-5.5467,15.1295c0,0 3.2697,-4.7127 5.9493,-6.4349c4.7507,-3.0482 8.7677,-1.7383 8.7677,-1.7383l-1.1073,9.3839c0,0 7.0702,9.1656 12.4815,17.7782c1.158,1.8376 2.5,3.6978 3.351,5.8376c3.0947,7.7746 3.5414,21.6312 0.0722,28.4946c-0.5992,1.2143 -1.2517,2.3934 -1.9286,3.5526c-0.176,0.2977 -0.3529,0.5936 -0.5325,0.8859c-0.62,1.0194 -1.2671,2.0189 -1.9476,2.9878c-0.092,0.129 -0.176,0.2661 -0.268,0.3952c-0.7717,1.078 -1.5857,2.1163 -2.4323,3.1258c-0.2021,0.2436 -0.4151,0.479 -0.6218,0.7208c-0.7256,0.8336 -1.4774,1.6437 -2.249,2.4231c-0.1778,0.1823 -0.3511,0.3672 -0.5307,0.5431c-0.9287,0.9076 -1.8961,1.7727 -2.8925,2.599c-0.222,0.1814 -0.4494,0.3546 -0.6733,0.5323c-0.8366,0.6676 -1.7012,1.3054 -2.5856,1.9134c-0.2554,0.1732 -0.5045,0.3554 -0.7617,0.525c-1.0803,0.71 -2.1868,1.3767 -3.3294,1.9928c-0.2039,0.111 -0.4205,0.2084 -0.6272,0.3158c-0.9765,0.5079 -1.9756,0.9752 -2.9963,1.4082c-4.3176,1.8304 -9.006,3.0221 -14.0402,3.3848c-5.7534,0.4141 -10.9618,0.2399 -15.6665,-0.3735c-1.1633,-0.1516 -2.295,-0.3329 -3.397,-0.5359c-0.2094,-0.0424 -0.4179,-0.083 -0.6254,-0.1236c-1.1173,-0.2201 -2.2139,-0.4564 -3.2662,-0.7262c-0.0063,-0.0018 -0.0144,-0.0036 -0.0216,-0.0054c-1.0542,-0.267 -2.0677,-0.5665 -3.0577,-0.8841c-0.1733,-0.055 -0.3511,-0.11 -0.5235,-0.166c-0.9512,-0.3112 -1.8781,-0.6441 -2.7715,-0.9968c-0.1571,-0.0595 -0.3087,-0.1272 -0.4648,-0.1885c-0.8818,-0.3555 -1.7418,-0.7254 -2.5667,-1.1169c-0.0316,-0.018 -0.0668,-0.0298 -0.0975,-0.046c-0.8447,-0.4041 -1.6516,-0.8263 -2.4358,-1.2585c-0.1463,-0.0811 -0.2916,-0.1605 -0.4341,-0.2417c-0.7545,-0.4285 -1.4856,-0.8661 -2.1823,-1.3171c-0.1065,-0.0677 -0.2076,-0.1381 -0.3132,-0.2066c-0.6615,-0.4366 -1.3014,-0.8823 -1.9133,-1.337c-0.0631,-0.0433 -0.1326,-0.0893 -0.1931,-0.1371c-0.6381,-0.479 -1.2409,-0.9689 -1.8221,-1.4623c-0.1129,-0.0948 -0.2239,-0.1904 -0.3322,-0.2851c-0.5667,-0.4935 -1.1118,-0.9878 -1.6245,-1.4939c-0.0586,-0.0551 -0.1119,-0.1137 -0.1696,-0.1696c-0.4829,-0.4809 -0.9413,-0.9653 -1.3745,-1.4498c-0.0605,-0.0703 -0.1291,-0.1389 -0.1905,-0.2074c-0.444,-0.5097 -1.4034,-1.7186 -1.4774,-1.8151c-0.3862,-0.5106 -0.7545,-1.0203 -1.0875,-1.5273c-0.0207,-0.0316 -0.0406,-0.0632 -0.0595,-0.0947c-0.3195,-0.4881 -0.6101,-0.9689 -0.8818,-1.448z" fill="#9a8479" stroke="#000000" stroke-linecap="butt"/><path d="M267.89177,167.5906v0v0v0v0v0v0c0,0 9.82661,11.8864 6.79005,24.2167c-3.03487,12.3266 -21.17151,17.549 -35.10677,16.6117c-18.42177,-1.2404 -26.96217,-12.9789 -23.93066,-24.1815c3.03572,-11.2026 27.42434,-16.4394 27.42434,-16.4394l-4.00491,8.0487c0,0 3.15469,-0.5214 5.70282,-2.0803c2.54738,-1.5561 5.34104,-3.6319 5.34104,-3.6319l-5.83525,8.8453c0,0 7.70691,-0.0884 14.38061,-2.9463c6.6737,-2.8543 9.23874,-8.443 9.23874,-8.443z" fill="#e6e7e8" stroke="#000000" stroke-linecap="butt"/><path d="M200.34811,193.11947c-14.0564,-5.5932 -21.641,-13.1566 -19.5165,-21.1017c2.1254,-7.9459 18.5148,-1.88 18.5148,-1.88c-1.5027,10.2247 1.0017,22.9817 1.0017,22.9817zM199.91941,166.64297c0,0 -0.5036,2.3157 -0.5721,3.4948M200.50521,193.01117l0.5198,2.0442" fill="#9a8479" stroke="#000000" stroke-linecap="round"/><path d="M200.39961,192.81727c0,0 -11.1486,-3.9486 -16.8073,-10.6749l0.0027,-0.0009c0,0 6.313,-9.6834 15.4319,-8.9013l0.0009,-0.0027c-0.1516,2.6297 -0.2184,5.6572 -0.0226,8.5459c0.3303,4.9662 1.0054,8.8715 1.5,11.2278z" fill="#ee4036" stroke="#000000" stroke-linecap="butt"/><path d="M262.23681,188.04137c-0.58222,0 -1.09139,-0.4736 -1.18775,-1.1403c-0.10527,-0.7379 0.34206,-1.4326 0.99902,-1.5507c0.59744,-0.1056 5.89295,-1.0339 7.84445,-0.7614c0.66017,0.0938 1.12911,0.7704 1.04965,1.5083c-0.08355,0.7434 -0.69469,1.2594 -1.34436,1.1791c-1.22789,-0.1678 -5.04414,0.3663 -7.16987,0.7452c-0.06425,0.0144 -0.12849,0.0198 -0.19114,0.0198z" fill="#231f20" stroke="none" stroke-linecap="butt"/><path d="M241.18532,189.31229c-0.0848,0 -0.1706,-0.009 -0.259,-0.0244c-3.1254,-0.6044 -8.6216,0.0109 -8.6757,0.0163c-0.7302,0.0812 -1.4116,-0.4457 -1.4982,-1.189c-0.0848,-0.7416 0.4476,-1.4128 1.1913,-1.4976c0.2437,-0.0243 5.961,-0.6657 9.497,0.0163c0.7328,0.1407 1.2148,0.8507 1.0722,1.5877c-0.1255,0.6414 -0.6931,1.0907 -1.3276,1.0907z" fill="#231f20" stroke="none" stroke-linecap="butt"/><path d="M259.96209,196.76837c0,0 -4.51456,4.14866 -12.54669,2.60831c-8.03026,-1.54 -9.57095,-5.13125 -9.57095,-5.13125" fill="none" stroke="#231f20" stroke-linecap="round"/></g><g stroke="#000000"><path d="M220.36039,221.12131c0.57533,-3.19867 3.77401,-2.62334 3.77401,-2.62334l1.03663,0.18645c1.12172,0.99345 0.40051,0.70901 0.43932,-1.37354c0,0 0.2542,-3.24005 3.49424,-2.98585c3.24005,0.2542 2.98585,3.49425 2.98585,3.49425c-0.33731,3.07001 -0.00249,5.72528 -3.64259,7.52551c-1.32522,0.65539 -2.95166,-0.17535 -4.42749,-0.26303l-1.03663,-0.18645c0,0 -3.19867,-0.57533 -2.62334,-3.774z" fill="#9a8479" stroke-linecap="butt"/><g><path d="M217.37418,211.79135c0,-2.86847 2.32536,-5.19383 5.19383,-5.19383c2.86847,0 5.19383,2.32536 5.19383,5.19383c0,2.86847 -2.32536,5.19383 -5.19383,5.19383c-2.86847,0 -5.19383,-2.32536 -5.19383,-5.19383z" fill="#5c5e5f" stroke-linecap="butt"/><path d="M228.14656,214.9333l2.40266,1.10892l-0.09241,1.94061l1.01651,2.49507l-2.21784,0.73928" fill="#9a8479" stroke-linecap="round"/><path d="M223.86251,213.61842l4.21306,0.78994l2.36984,7.10954l-2.63316,3.68642l-3.94974,0.26332l-2.89648,-7.89948z" fill="#9a8479" stroke-linecap="round"/><path d="M228.53129,216.7287l-2.43661,-0.25649" fill="none" stroke-linecap="round"/><path d="M228.27481,220.06301h1.41067" fill="none" stroke-linecap="round"/><path d="M225.8382,224.16677l1.02594,-1.28243h1.53891l1.15418,2.18013l-1.02594,1.66715h-1.7954z" fill="#5c5e5f" stroke-linecap="round"/></g></g><path d="M251.0602,245.0628c3.22017,-0.6403 8.12098,-4.56218 9.02255,0.99355c0.25268,1.55711 0.36721,1.58082 -0.50277,2.7526c-2.19158,2.95183 -9.66662,3.48192 -12.65041,2.37958c-1.06032,-0.39173 -4.52777,-2.29586 -3.70429,-3.94279c-0.00327,-0.05972 -0.00492,-0.11988 -0.00492,-0.18042c0,-1.79493 1.45507,-3.25 3.25,-3.25c0.8713,-0.5464 3.54181,1.45587 4.58984,1.24748z" fill="#9a8479" stroke="#000000" stroke-linecap="butt"/><g fill="#9a8479" stroke="#000000" stroke-linecap="butt"><path d="M270.71486,248.67673c2.5853,1.4536 6.09582,7.47406 2.82835,9.46031c-0.93292,0.56711 -2.21341,0.34725 -3.27409,0.08858c-0.4625,-0.11279 -2.4599,-2.63935 -3.60742,-4.56693c-0.11293,-0.13199 -0.21674,-0.27479 -0.3099,-0.42804c-0.18309,-0.3012 -0.31143,-0.62035 -0.38784,-0.94584c-0.31268,-1.33199 0.24423,-2.77023 1.47681,-3.5195c0.90377,-0.54939 1.96913,-0.60577 2.8826,-0.2456c0.13475,0.03519 0.26556,0.08621 0.39149,0.15702z"/><path d="M269.02297,253.07166c0.00798,-0.06744 0.18948,-1.69346 0.19799,-1.75926c-0.00734,-0.17355 -0.00083,-0.34998 0.02051,-0.52805c0.04194,-0.34998 0.13805,-0.68027 0.27891,-0.98348c0.57644,-1.24084 1.90253,-2.02835 3.33473,-1.8567c1.05013,0.12586 1.92298,0.73928 2.41917,1.58661c0.08427,0.11087 0.15567,0.23178 0.21101,0.36523c1.13617,2.73968 0.18041,9.64304 -3.61624,9.18803c-0.88374,-0.10591 -2.3193,-1.45895 -2.92906,-2.1643"/></g><g fill="#9a8479" stroke="#000000" stroke-linecap="butt"><path d="M286.76145,224.09875c-1.13477,-5.72505 3.42255,-8.79637 7.11059,-5.83625c1.8681,1.49939 3.55312,12.17471 3.68264,15.11514c0.30622,6.95221 -14.81902,3.51232 -10.79323,-4.10412z"/><path d="M280.30008,204.08824v0v0v0v0v0v0c7.29239,-2.24038 11.32242,1.9313 11.32055,1.93075c0.91226,1.10517 2.09693,2.68655 2.80375,4.21112c0.19507,0.42117 0.37067,0.90449 0.51526,1.43233c0,0 0.41236,1.85275 0.38991,2.45026c-0.09489,2.5034 -0.56097,5.32159 -2.91477,7.05672c-3.69359,2.73196 -8.16559,3.45593 -13.35262,2.0257c-1.7499,-0.48032 -3.01047,-1.66918 -3.89631,-3.14068c-0.63451,-1.05965 -1.15196,-2.5079 -1.15196,-2.5079c-0.82708,-2.41627 -1.03321,-4.90424 -1.08469,-5.99441c0,0 0.0794,-5.2238 7.3709,-7.4639z"/><path d="M283.84893,223.17351c0.65757,3.96388 0.60666,10.54419 0.36469,12.72316c-0.76718,6.90859 -15.14342,0.6767 -10.00513,-6.07246l0.79566,-5.09947c-0.07958,-1.95783 0.42241,-3.50366 1.24481,-4.55913"/></g><path d="M303.62801,204.90447c0.09983,-0.01905 0.20724,-0.02639 0.32155,-0.02268c0.10553,-0.01034 0.21254,-0.01563 0.32079,-0.01563c1.07202,0 2.02281,0.51903 2.61478,1.31951c3.80719,2.59978 8.81096,8.38127 8.27897,10.77524c-0.74963,3.37334 -4.22549,4.6232 -6.97609,2.37869c-1.41876,-1.15772 -1.43986,-2.16208 -2.57138,-3.49112c-0.74838,-0.87903 -3.56948,-4.45992 -3.79703,-5.59768c-0.49778,-0.57101 -0.79925,-1.31762 -0.79925,-2.13463c0,-1.43429 0.92911,-2.65158 2.21831,-3.08283c0.12056,-0.0584 0.24982,-0.10224 0.38935,-0.12886z" fill="#9a8479" stroke="#000000" stroke-linecap="butt"/><path d="M334.75594,214.72181c1.9018,-0.08904 4.36387,1.66598 6.34082,2.19642c1.13412,0.3043 3.3382,-0.48152 4.30219,0.48247c0.77199,0.77199 1.625,1.75199 1.625,2.84375c0,4.7651 -8.02635,3.43735 -10.95726,1.94575c-1.35441,-0.68929 -3.77273,-0.9135 -3.85703,-2.43088c-0.33024,-0.50871 -0.52204,-1.11559 -0.52204,-1.76727c0,-1.59609 1.15055,-2.92345 2.66751,-3.19795c0.12596,-0.0407 0.25917,-0.06567 0.40081,-0.0723z" fill="#9a8479" stroke="#000000" stroke-linecap="butt"/><path d="M346.04157,222.4284c-0.206,0.22646 -0.45731,0.42113 -0.74334,0.58803c-0.15959,0.09794 -0.32828,0.18248 -0.50451,0.25207c-1.9779,0.8463 -5.04972,0.72378 -6.7374,0.57248c-3.51707,-0.3153 -3.92657,-3.79218 -1.625,-6.09375c1.13397,-1.13397 4.37734,-0.57951 6.11964,-0.57951c0.3293,-0.11232 0.6824,-0.17326 1.04973,-0.17326c1.79493,0 3.25,1.45507 3.25,3.25c0,0.25 -0.02823,0.49341 -0.08167,0.72721c-0.08809,0.50942 -0.31991,1.00871 -0.72745,1.45674z" fill="#9a8479" stroke="#000000" stroke-linecap="butt"/></g></g></svg>