<svg version="1.1" xmlns="http://www.w3.org/2000/svg" xmlns:xlink="http://www.w3.org/1999/xlink" width="112.28673" height="121.38397" viewBox="0,0,112.28673,121.38397"><g transform="translate(-183.10492,-117.21388)"><g stroke-miterlimit="10"><g fill="#9a8479" stroke="#000000" stroke-width="1.2" stroke-linecap="butt"><path d="M245.45837,225.52344l2.13965,10.35241c0,0 0.75314,0.33399 0.54432,1.05078c-0.207,0.72037 -2.77039,0.68547 -5.98733,0.84423c-3.21767,0.1596 -5.84137,-0.34627 -6.35942,-1.10752c-0.51624,-0.75266 0.43567,-1.02033 0.43567,-1.02033c0,0 0.97359,-4.94643 0.03551,-7.19901c-1.2507,-3.00425 0.18706,-3.78651 3.95219,-5.22282v0v0v0v0v0v0c3.76513,-1.43631 5.23942,2.30226 5.23942,2.30226z"/><path d="M233.9958,210.02128v0v0v0v0v0v0c8.47256,-0.59643 11.88678,3.87545 11.88487,3.87459c0.73517,1.15503 1.65559,2.78473 2.06855,4.2728c0.11387,0.41105 0.19196,0.87354 0.22581,1.36962c0,0 0.01513,1.72313 -0.14938,2.24917c-0.69018,2.20379 -1.85869,4.61612 -4.83061,5.70682c-4.6657,1.7197 -9.7091,1.50862 -15.02681,-0.75093c-1.7945,-0.76035 -2.88965,-2.05615 -3.51015,-3.53128c-0.44313,-1.06161 -0.66762,-2.4458 -0.66762,-2.4458c-0.33502,-2.30245 0.02348,-4.55001 0.22291,-5.52741c0,0 1.31094,-4.62125 9.78246,-5.21759z"/><path d="M236.77975,227.97029l-0.30464,7.88797c0,0 0.55086,0.03597 0.45643,0.6794c-0.09058,0.64415 -1.69232,1.39911 -6.35876,1.46019c-4.66866,0.05593 -5.63152,-0.86559 -5.67773,-1.35341c-0.0482,-0.48773 0.93701,-1.02125 0.93701,-1.02125c0,0 1.41527,-8.60672 1.84188,-9.64013"/></g><path d="M241.08209,215.41321c1.14293,0.02062 3.57814,-2.42051 4.59862,-2.03603c1.89024,-0.316 3.69662,0.86019 4.03468,2.62708c0.0114,0.05958 0.02098,0.1191 0.0288,0.17847c1.17739,1.47623 -2.11557,3.96105 -3.15842,4.53333c-2.93462,1.61041 -10.90643,2.40457 -13.77033,-0.11534c-1.13687,-1.00032 -1.02072,-1.04384 -1.04789,-2.6211c-0.09691,-5.62768 5.80277,-2.62983 9.31454,-2.56643z" fill="#9a8479" stroke="#000000" stroke-width="1.2" stroke-linecap="butt"/><path d="M230.45728,214.99129c2.92994,1.26375 8.91314,0.56947 6.76786,6.01653c-0.60126,1.52665 -0.52109,1.61289 -1.82914,2.15849c-3.29513,1.37443 -9.60195,-2.40838 -11.44,-5.08525c-0.65316,-0.95126 -2.46692,-4.61541 -0.9507,-5.60945c0.02824,-0.05489 0.05801,-0.10927 0.08932,-0.16303c0.92817,-1.59407 2.85491,-2.05833 4.3035,-1.03695c0.98573,0.01055 2.10557,3.30837 3.05914,3.71967z" fill="#9a8479" stroke="#000000" stroke-width="1.2" stroke-linecap="butt"/><g><g stroke="#000000" stroke-width="1.2"><path d="M278.81753,167.10503c0,0 14.36907,-9.80552 15.79006,-1.2349c1.42107,8.57053 -5.46878,18.46836 -17.81262,27.31932c0,0 2.79463,-14.83121 2.02258,-26.0844zM278.81753,167.10503c0.00012,-1.3153 -0.31403,-3.83591 -0.31403,-3.83591M276.11645,195.49465l0.549,-2.39708" fill="#9a8479" stroke-linecap="round"/><path d="M276.66562,193.09659c0.54357,-2.74642 1.32053,-7.27053 1.85522,-12.92715c0.31374,-3.29211 0.40943,-6.69187 0.41268,-9.62955l0.00069,0.00382c7.86354,-2.53385 12.78979,7.23727 12.78979,7.23727l0.00269,0.00006c-5.19546,8.60753 -14.96044,15.07684 -14.96044,15.07684l-0.10062,0.23872v0v0v0v0z" fill="#ee4036" stroke-linecap="butt"/></g><path d="M189.6494,164.45317c1.75593,-18.57247 11.13459,-28.21129 16.65366,-33.29475c12.52723,-11.5462 30.94396,-11.4347 30.94396,-11.4347l0.25993,12.10135c0,0 0.07778,-3.47543 7.67764,-9.30911c7.59797,-5.83372 18.51349,-4.5912 18.51349,-4.5912l-6.29888,14.94976c0,0 3.57652,-4.60433 6.43807,-6.23646c5.07313,-2.88851 9.2365,-1.44136 9.2365,-1.44136l-1.80704,11.84466c0,0 14.02173,21.80234 13.7437,36.44907c-0.27802,14.64675 -5.73297,40.60548 -41.31635,40.3401c-61.61964,-2.24468 -54.04466,-49.37735 -54.04466,-49.37735z" fill="#9a8479" stroke="#000000" stroke-width="1.2" stroke-linecap="butt"/><g stroke="#000000" stroke-width="1.2"><path d="M203.87374,192.19677c-14.52334,-6.46035 -22.20209,-14.8082 -19.70185,-23.2344c2.50122,-8.42701 19.45085,-1.38176 19.45085,-1.38176c-1.92832,10.88566 0.251,24.61615 0.251,24.61615zM204.34401,163.8619c0,0 -0.60766,2.45985 -0.72031,3.71873M204.042,192.08627l0.47328,2.20422" fill="#9a8479" stroke-linecap="round"/><path d="M203.93815,191.87528c0,0 -11.53586,-4.60241 -17.22719,-11.98941l0.00286,-0.00087c0,0 6.94607,-10.14321 16.4667,-8.99678l0.00104,-0.00286c-0.25003,2.80768 -0.42507,6.04374 -0.32033,9.14026c0.17343,5.32326 0.74471,9.52346 1.18077,12.06066z" fill="#ee4036" stroke-linecap="butt"/></g><g><path d="M275.76839,186.59296c-0.41581,12.81177 -15.34341,22.72425 -33.34175,22.14011c-17.99833,-0.58414 -32.2518,-11.44367 -31.83598,-24.25545c0.41581,-12.81177 15.34342,-22.72425 33.34175,-22.14011c17.99833,0.58414 32.2518,11.44367 31.83598,24.25545z" fill="#e6e7e8" stroke="#000000" stroke-width="1.2" stroke-linecap="butt"/><g stroke="#000000"><path d="M269.75736,167.06437c0,0 -2.74198,4.33597 -6.26396,6.50299c-1.5763,0.96986 -5.87738,3.13205 -8.07711,3.60481c-5.69669,1.22429 -11.81593,0.75671 -11.81593,0.75671l5.02552,-6.76511c0,0 -4.33384,1.83105 -7.96268,2.74752c-4.92643,1.24419 -8.89154,-0.89067 -8.89154,-0.89067l13.67132,-12.17613" fill="#9a8479" stroke-width="0" stroke-linecap="butt"/><path d="M267.2973,170.20059c0,0 -4.65764,4.9435 -9.90479,6.63421c-5.24714,1.69071 -14.05389,1.08559 -14.05389,1.08559l5.28727,-6.75662c0,0 -3.48927,1.64431 -7.11811,2.56078c-4.92644,1.24418 -10.37129,-0.51038 -10.37129,-0.51038l12.69354,-11.11443" fill="none" stroke-width="1.2" stroke-linecap="round"/></g><g fill="none" stroke="#ee4036" stroke-width="1.2" stroke-linecap="round"><path d="M213.47637,146.65382l-3.6943,5.47585l-5.47425,-2.4764"/><path d="M202.66776,152.46377l4.41455,3.2513l-2.08631,6.28404"/><path d="M218.4417,157.67048l-4.83115,-3.48816l2.50291,-6.04719"/><path d="M207.65657,163.49376l3.68197,-4.95309l5.4866,1.95365"/></g><g stroke-width="1.2"><path d="M266.0381,186.47918c-2.18957,0.58328 -6.05659,1.77248 -7.15241,2.48526c-0.58351,0.36888 -1.39084,0.14087 -1.7952,-0.54435c-0.39804,-0.68171 -0.24714,-1.54932 0.34046,-1.93601c1.73908,-1.13848 7.18681,-2.60668 7.8018,-2.7715c0.67713,-0.1793 1.40657,0.29573 1.62872,1.06014c0.19952,0.69121 -0.07835,1.37952 -0.63273,1.64013c-0.05965,0.02805 -0.12319,0.05156 -0.19065,0.06632z" fill="#231f20" stroke="none" stroke-linecap="butt"/><path d="M244.52633,189.12396c-0.08642,-0.02964 -0.17084,-0.06878 -0.25577,-0.11531c-2.98273,-1.70584 -8.78978,-3.00306 -8.84671,-3.0165c-0.77132,-0.17289 -1.28933,-0.94569 -1.12878,-1.73006c0.16183,-0.78204 0.92904,-1.27687 1.71532,-1.1029c0.2565,0.06055 6.2976,1.40858 9.67277,3.33671c0.69969,0.39893 0.95323,1.28776 0.56121,1.98564c-0.3426,0.60686 -1.07141,0.86427 -1.71802,0.64244z" fill="#231f20" stroke="none" stroke-linecap="butt"/><path d="M246.10793,184.08878l1.5403,1.78373l-1.52755,1.10623c0,0 -16.78172,-12.16785 -24.01425,-13.16318" fill="none" stroke="#231f20" stroke-linecap="round"/><path d="M269.04295,177.90629c-3.54421,0.98385 -10.9704,8.49718 -10.9704,8.49718l-2.50691,-0.77647l2.15464,-2.43868" fill="none" stroke="#231f20" stroke-linecap="round"/><path d="M226.96896,198.66445c0,0 3.20669,-0.21883 6.75871,1.85675" fill="none" stroke="#231f20" stroke-linecap="round"/></g></g></g><g stroke="#000000" stroke-width="1.2"><path d="M239.91879,208.66031c2.86748,-0.07521 5.25303,2.18837 5.32824,5.05585c0.07521,2.86748 -2.18837,5.25303 -5.05585,5.32824c-2.86748,0.07521 -5.25302,-2.18837 -5.32824,-5.05585c-0.07521,-2.86748 2.18837,-5.25302 5.05585,-5.32824z" fill="#5c5e5f" stroke-linecap="butt"/><path d="M237.06039,219.51138l-1.04553,2.43091l-1.94236,-0.04149l-2.46756,1.08159l-0.79718,-2.19769" fill="#9a8479" stroke-linecap="round"/><path d="M238.26249,215.19432l-0.67919,4.23233l-7.04494,2.55545l-3.7542,-2.53558l-0.36679,-3.94147l7.82081,-3.10262z" fill="#9a8479" stroke-linecap="round"/><path d="M235.2757,219.94306l0.19251,-2.4425" fill="none" stroke-linecap="round"/><path d="M231.93581,219.7741l0.03699,1.41018" fill="none" stroke-linecap="round"/><path d="M227.76957,217.44594l1.30889,0.99196l0.04036,1.53838l-2.14911,1.21095l-1.69348,-0.98187l-0.04707,-1.79478z" fill="#5c5e5f" stroke-linecap="round"/></g></g></g></svg>