<svg version="1.1" xmlns="http://www.w3.org/2000/svg" xmlns:xlink="http://www.w3.org/1999/xlink" width="83.65888" height="84.05393" viewBox="0,0,83.65888,84.05393"><defs><radialGradient cx="240" cy="180" r="40.83533" gradientUnits="userSpaceOnUse" id="color-1"><stop offset="0.21698" stop-color="#f00000"/><stop offset="1" stop-color="#f00000" stop-opacity="0"/></radialGradient><radialGradient cx="240" cy="180" r="36.49754" gradientUnits="userSpaceOnUse" id="color-2"><stop offset="0" stop-color="#ffe0e0" stop-opacity="0.89804"/><stop offset="0.55189" stop-color="#ffb8b8" stop-opacity="0.74902"/><stop offset="0.95991" stop-color="#ffffff" stop-opacity="0"/></radialGradient></defs><g transform="translate(-198.17057,-137.97304)"><g stroke-width="0" stroke-miterlimit="10"><path d="M199.16467,180c0,-22.55273 18.2826,-40.83533 40.83533,-40.83533c22.55273,0 40.83533,18.2826 40.83533,40.83533c0,22.55273 -18.2826,40.83533 -40.83533,40.83533c-22.55273,0 -40.83533,-18.2826 -40.83533,-40.83533z" fill="url(#color-1)" stroke="none" stroke-linecap="butt" stroke-linejoin="miter"/><path d="M281.82944,180.00489c0.00002,1.28128 -39.33872,42.17934 -40.99691,42.02162c-1.43013,-0.13603 -20.65939,-15.35463 -20.67364,-16.96536c-0.01344,-1.51958 21.13991,-15.44088 14.13283,-12.7387c-4.10252,1.58208 -32.36085,8.06928 -33.58627,7.02068c-1.2381,-1.05947 -2.76823,-14.19412 -2.50501,-19.32495v-0.03634c-0.26322,-5.13083 1.26693,-18.26549 2.50502,-19.32495c1.22542,-1.0486 29.48376,5.4386 33.58627,7.02068c7.0071,2.70217 -14.14627,-11.21912 -14.13282,-12.7387c0.01423,-1.61074 19.24352,-16.82934 20.67364,-16.96536c1.65819,-0.15771 40.99694,40.74034 40.99691,42.02162z" fill="#440000" stroke="#000000" stroke-linecap="round" stroke-linejoin="round"/><path d="M278.55784,180.0045c0.00002,1.18108 -36.26191,38.88036 -37.7904,38.73499c-1.31828,-0.12538 -17.095,-12.06595 -17.10813,-13.55069c-0.01239,-1.40072 22.27014,-18.13033 15.8111,-15.63949c-3.78166,1.45833 -34.70124,8.09805 -35.83081,7.13147c-1.14127,-0.9766 -2.41255,-11.93448 -2.16992,-16.66402v-0.0335c-0.24262,-4.72953 0.75028,-15.8266 1.89154,-16.80319c1.12957,-0.96659 32.04915,5.39477 35.83081,6.85309c6.45905,2.49084 -15.54513,-14.09958 -15.53274,-15.50031c0.01312,-1.48477 15.78988,-13.14695 17.10814,-13.27233c1.5285,-0.14538 37.79043,37.55391 37.7904,38.73499z" fill="#ffeaea" stroke="#000000" stroke-linecap="round" stroke-linejoin="round"/><path d="M275.57707,180.00416c0.00002,1.08964 -33.45459,35.87032 -34.86476,35.7362c-1.21621,-0.11568 -14.08453,-9.25736 -14.09664,-10.62716c-0.01144,-1.29229 21.29583,-19.53841 15.33684,-17.24043c-3.48888,1.34545 -34.82646,7.09901 -35.86857,6.20724c-1.0529,-0.90098 -1.85087,-9.70118 -1.62702,-14.06455l0.00001,-0.0309c-0.22384,-4.36337 0.50474,-13.66686 1.55765,-14.56785c1.04211,-0.89176 32.00479,4.79243 35.49367,6.13786c5.95899,2.29799 -15.46636,-15.63229 -15.45493,-16.92457c0.01211,-1.36981 13.44277,-10.25466 14.65899,-10.37033c1.41017,-0.13412 34.86478,34.64656 34.86476,35.7362z" fill="#ff0000" stroke="#000000" stroke-linecap="round" stroke-linejoin="round"/><path d="M203.50246,180c0,-20.15704 16.34051,-36.49754 36.49754,-36.49754c20.15704,0 36.49754,16.34051 36.49754,36.49754c0,20.15704 -16.34051,36.49754 -36.49754,36.49754c-20.15704,0 -36.49754,-16.34051 -36.49754,-36.49754z" fill="url(#color-2)" stroke="none" stroke-linecap="butt" stroke-linejoin="miter"/></g></g></svg>