<svg version="1.1" xmlns="http://www.w3.org/2000/svg" xmlns:xlink="http://www.w3.org/1999/xlink" width="127.09969" height="146.92546" viewBox="0,0,127.09969,146.92546"><g transform="translate(-178.2313,-96.13165)"><g stroke-miterlimit="10"><path d="M237.12727,219.70395c-0.44187,1.96295 -0.92013,3.57845 -0.94629,3.74248c-0.73281,4.59361 -0.03749,13.11148 -3.99343,16.2776c-3.06951,2.45666 -6.07493,-1.45578 -4.53603,-4.70952c0.00584,-0.05461 0.01318,-0.10954 0.02207,-0.16472c0.06677,-0.4148 0.21292,-0.79655 0.4154,-1.12387c0.45987,-2.43016 1.1075,-4.93011 1.41424,-7.38391c0.49935,-3.9946 -0.6552,-10.40828 1.75987,-13.86245c1.61714,-2.31292 5.32146,-2.80838 6.26225,-0.26948" fill="#be1e2d" stroke="#000000" stroke-width="1.2" stroke-linecap="butt"/><path d="M248.52184,212.44315c4.5774,4.0851 1.54246,11.53073 0.23918,23.92534c-0.34485,3.27966 -15.64147,3.11309 -17.57448,-2.26128c-1.56886,-4.36192 0.55268,-13.63852 2.67168,-21.39237c0.82689,-3.02577 12.74887,-1.9805 14.66362,-0.27169z" fill="#be1e2d" stroke="#000000" stroke-width="1.2" stroke-linecap="butt"/><path d="M247.94351,213.67824c1.46506,-2.40538 5.90281,-1.50617 7.5742,0.95863c2.4961,3.68099 0.27986,9.89246 0.37989,13.89581c0.06145,2.45918 0.5312,5.00165 0.78169,7.45439c0.20448,0.34589 0.33363,0.73936 0.36214,1.15672c0.00379,0.05552 0.00575,0.11062 0.00592,0.16524c1.457,3.38603 -2.69071,6.92073 -6.10844,4.1533c-4.40472,-3.56663 -2.47956,-11.90858 -2.78724,-16.52979c-0.01098,-0.16501 -0.38714,-1.8146 -0.67502,-3.80357" fill="#be1e2d" stroke="#000000" stroke-width="1.2" stroke-linecap="butt"/><g stroke-linecap="round"><g stroke="#000000" stroke-width="1.2"><path d="M205.654,190.73797c-15.74997,-3.01522 -26.61201,-33.94641 -26.61201,-33.94641c10.0659,-1.33576 14.15554,2.5161 14.68529,2.88611c0.52987,0.37087 10.28287,8.66425 10.28287,8.66425c-1.05736,13.42109 1.64384,22.39605 1.64384,22.39605zM204.4437,165.49014c0,0 -0.38739,2.03064 -0.45582,3.13562M205.654,190.73797c0.27114,0.90312 1.0541,2.30662 1.0541,2.30662" fill="#be1e2d"/><path d="M199.19838,187.43806c-2.94968,-2.01762 -6.53839,-5.16985 -9.93034,-9.98326c-3.02418,-4.29188 -6.14161,-10.9744 -8.1232,-15.57531l0.06424,-0.06675c6.21398,-1.23325 9.86749,2.91916 9.86749,2.91916l0.22619,0.33182c1.50387,2.45102 3.11506,4.91108 4.41841,6.48147c0.76943,0.92862 1.58913,1.73881 2.3532,2.4131c0,0 1.5697,4.24289 1.85844,7.22475c0.43321,4.4106 -0.8568,6.18643 -0.8568,6.18643z" fill="#929497"/></g><path d="M267.07962,202.60828l-10.743,8.57726l-24.25178,0.6027l-10.2469,4.61343l-15.4881,-4.40064l-6.70977,-8.2112l-5.79712,-9.85752l-3.49973,-12.43194l0.4703,-12.30199l2.95819,-9.40044l4.75493,-9.21774l6.52794,-8.35721l7.41125,-7.49259l8.26412,-6.91386l5.80437,-3.97334l2.5084,-2.84233l2.73235,-4.65598l1.81491,-4.50931l1.50465,-6.08016l-0.39901,-8.17857l4.59589,5.62649l4.76939,7.2558l0.19749,-3.91976l0.99605,2.13594l3.94684,6.74916l5.60188,6.41219l3.70442,3.02903l5.39683,4.48664l6.5705,5.40329l5.8899,6.22973l4.85819,6.64615l4.17759,7.47259l3.06702,7.14843l0.95629,7.5369l0.34872,7.60556l-1.1445,6.57515l-2.52147,8.0799l-3.00458,4.98656l-5.15017,6.72488z" fill="#be1e2d" stroke="#8c8c8c" stroke-width="0"/><path d="M277.85591,203.88595l-10.82854,-1.2006l-10.72798,8.73598l-24.1815,0.33498l-10.25457,4.56992l-14.74597,-3.67216c0,0 -48.07939,-42.69083 19.10443,-88.25857c0,0 11.84169,-11.44412 8.01284,-27.58206c-0.31141,-1.31256 9.63933,13.6064 9.63933,13.6064c0,0 -0.06195,-5.31526 0.16002,-4.65051c2.45995,7.36706 11.31211,16.77183 11.31211,16.77183c55.58936,37.78628 27.54755,75.63741 27.54755,75.63741z" fill="none" stroke="#000000" stroke-width="1.2"/><g stroke="#000000" stroke-width="1.2"><path d="M281.60186,159.6789c0,0 8.16836,-11.12923 8.62946,-11.66153c0.46117,-0.53148 3.80497,-5.5379 14.3869,-8.04304c0,0 -4.38017,32.08547 -19.82752,40.63889c0,0 0.81033,-9.1435 -3.18885,-20.93432zM281.68638,159.92829c-0.31021,-0.97763 -1.14781,-2.67762 -1.14781,-2.67762M284.21452,183.09608c0,0 0.49534,-1.56302 0.57619,-2.48285" fill="#be1e2d"/><path d="M290.78373,175.12652c0,0 -1.70504,-1.13536 -2.22111,-5.29853c-0.35314,-2.81304 0.32923,-7.24372 0.32923,-7.24372c0.63459,-0.89418 1.29651,-1.93226 1.88127,-3.05926c0.99112,-1.90668 2.10351,-4.73453 3.10816,-7.51454l0.15913,-0.3847c0,0 2.83253,-5.11812 9.45392,-6.29373l0.0802,0.03686c-1.02563,4.90774 -2.75995,12.12427 -4.91873,17.13657c-2.4214,5.62147 -5.40516,9.8079 -7.98226,12.7285z" fill="#929497"/></g></g><g><path d="M273.81137,182.41977c1.63682,15.73257 -13.16385,30.35213 -33.05822,32.65368c-19.89438,2.30156 -37.34888,-8.58643 -38.9857,-24.31901c-1.63682,-15.73257 13.16384,-30.35213 33.05822,-32.65368c19.89438,-2.30156 37.34888,8.58643 38.9857,24.31901z" fill="#e6e7e8" stroke="#000000" stroke-width="1.2" stroke-linecap="butt"/><path d="M217.06103,214.06089l2.07471,2.68381l2.64106,1.76943l-1.73534,0.57802l-4.13148,-0.65383l-3.79066,-1.91939l-1.67211,-2.44743l-4.57644,-2.20574l-3.43655,-2.14899l0.15481,2.37402c-5.16267,-9.40899 -13.55421,-19.07497 -11.25625,-32.40145c25.14741,-30.3579 68.38793,-38.13822 84.35298,-6.33621c0.21349,0.42526 0.41371,0.84981 0.60122,1.27369c0.13812,0.63931 0.23781,1.23722 0.28526,1.77999c0.53669,6.13969 0.27493,12.21513 0.30522,18.41562c0.00199,0.40852 -0.05867,0.86542 -0.15849,1.34755l-0.79289,1.34685l-0.29583,-1.43168l-2.39733,5.05935l-4.47826,3.63805l-5.40808,2.72176l1.0921,-3.62592l0.63608,-5.81065l-0.60512,-4.74098l-2.90596,1.37892l0.28469,-1.81133l0.63196,-4.25242l0.19193,-3.4475l-1.04768,-3.79809l-1.95233,-3.82516l-5.02545,-4.0481l-7.58786,-3.59715l-8.77345,-1.03727l1.98496,1.21943l2.85806,2.82328l1.32194,3.74359l-14.54101,-3.12356l-15.85058,-3.17931l-0.42423,2.98089l-2.13953,6.25771l-2.03962,5.80639l0.55759,5.35932l3.00967,4.92907l4.16512,3.32948l-2.98738,0.93197l-2.61228,0.30221l0.36167,3.47632l1.9882,3.58133l2.23325,3.11321l2.4783,2.64509z" fill="#be1e2d" stroke="#8c8c8c" stroke-width="0" stroke-linecap="butt"/><path d="M213.49129,170.31462c-0.71222,8.02346 -4.95105,12.44239 -4.50976,16.61157c0.90832,8.5816 7.92854,11.7355 7.92854,11.7355c0,0 -4.90264,3.05652 -10.8555,-0.22172" fill="none" stroke="#000000" stroke-width="1.2" stroke-linecap="round"/><path d="M197.16893,190.18869c-0.75072,-1.55617 -0.23259,-3.97428 -0.93316,-6.0371" fill="none" stroke="#000000" stroke-width="1.2" stroke-linecap="round"/><path d="M207.34159,168.3705c14.73937,4.47062 37.17208,8.46662 37.17208,8.46662c0,0 -0.98231,-5.94572 -6.44315,-7.96016c0,0 31.99471,1.11855 22.95504,26.1285c0,0 5.67437,-3.1136 7.86795,-6.89684" fill="none" stroke="#000000" stroke-width="1.2" stroke-linecap="round"/><path d="M270.42976,179.03603c0.29297,1.77813 0.45653,2.60242 0.15581,4.08086" fill="none" stroke="#000000" stroke-width="1.2" stroke-linecap="round"/><path d="M274.78301,196.80895c-1.46234,6.8162 -11.80646,11.33226 -11.80646,11.33226c0,0 3.40747,-9.74556 1.42709,-14.81778" fill="none" stroke="#000000" stroke-width="1.2" stroke-linecap="round"/><path d="M197.15152,190.10713c-3.75263,7.84815 5.5343,21.66294 5.5343,21.66294c0,0 -15.90859,-20.46139 -10.91649,-33.13229" fill="none" stroke="#000000" stroke-width="1.2" stroke-linecap="round"/><path d="M277.45543,194.49639c-1.2177,2.45977 -2.2025,3.82029 -2.2025,3.82029c0,0 0.4152,-9.72107 -4.69888,-15.07736" fill="none" stroke="#000000" stroke-width="1.2" stroke-linecap="round"/><path d="M211.42296,200.07754c-0.6946,6.79269 7.13523,12.92099 7.13523,12.92099c0,0 -9.80753,3.0382 -16.52313,-3.86821" fill="none" stroke="#000000" stroke-width="1.2" stroke-linecap="round"/><path d="M216.40977,213.52514c1.29057,3.16315 5.48701,4.97738 5.48701,4.97738c0,0 -7.81816,2.38688 -12.28657,-4.97384" fill="none" stroke="#000000" stroke-width="1.2" stroke-linecap="round"/></g><path d="M249.42512,184.62058c0.49917,-0.08643 0.78918,0.71823 0.90776,1.05853c0.4446,1.27601 0.41372,2.8319 -0.45754,3.86309l-0.37318,0.09051c-0.16545,0.08262 -0.40275,0.11944 -0.73248,0.0884c-2.77412,-0.26114 -5.20783,-0.55087 -7.97056,0.57054c-0.79262,0.32173 -2.18383,1.72017 -2.85666,1.86002c-0.86304,0.17938 -1.18367,-0.05806 -1.34667,-0.99724c-0.15905,-0.91647 1.42511,-1.68502 1.99555,-1.99626c1.98599,-1.08359 4.22917,-1.67619 6.45585,-1.86052c0.45721,-0.49725 0.70268,-1.09102 0.98385,-1.82271c0.08087,-0.21045 0.41574,-1.03076 0.49812,-1.04376c0.92511,-0.146 1.07869,1.54769 1.03122,2.80807c0.24285,0.01204 0.48853,0.03305 0.71447,0.06797c0.37366,-1.09001 0.79303,-2.62478 1.15026,-2.68664z" fill="#000000" stroke="none" stroke-width="0.5" stroke-linecap="butt"/><path d="M215.38156,192.91295c0.17229,-0.1212 0.363,-0.23475 0.55328,-0.33766c-0.28914,-1.3345 -0.50523,-3.20833 0.25785,-3.3945c0.06795,-0.01658 0.4973,0.73933 0.60346,0.93513c0.36907,0.68076 0.6823,1.22677 1.14425,1.59077c1.80336,-0.62735 3.70129,-0.82281 5.49313,-0.39629c0.51468,0.12251 1.92486,0.35996 1.98153,1.40206c0.05808,1.06792 -0.14894,1.44145 -0.86944,1.56881c-0.56171,0.09929 -1.9445,-0.88538 -2.63753,-0.93681c-2.41563,-0.17928 -4.28867,1.03331 -6.43748,2.3414c-0.25541,0.15548 -0.45102,0.20392 -0.59877,0.1766l-0.31413,0.04117c-0.89698,-0.78339 -1.23192,-2.44104 -1.13379,-3.97464c0.02617,-0.409 0.09572,-1.37968 0.50899,-1.47192c0.29576,-0.06601 0.93469,1.42504 1.44864,2.4559z" fill="#000000" stroke="none" stroke-width="0.5" stroke-linecap="butt"/><path d="M234.93384,236.53037c-1.17371,-0.32428 -3.38196,-2.3219 -3.66244,-3.92318c-0.58426,-3.33557 2.21121,-11.95409 6.72064,-10.78125c3.2268,0.83925 6.50867,6.24632 7.33866,10.13197c0.54613,2.55673 0.17036,5.6803 -2.48112,5.91852c-2.60392,0.23395 -5.60538,-0.70772 -7.91574,-1.34605z" fill="#e6e7e8" stroke="#000000" stroke-width="1.2" stroke-linecap="butt"/><path d="M246.46601,190.84481c0,0 1.9956,-1.78351 6.05263,-1.97368" fill="none" stroke="#000000" stroke-width="1.2" stroke-linecap="round"/><path d="M245.54495,201.10797c0,0 2.09234,0.11108 0.92105,1.05263c-0.74704,0.60052 -10.70634,2.60321 -13.99799,3.33975c-3.72736,0.83403 -8.7,3.30329 -9.29148,2.97604c-0.63543,-0.35157 0.26316,-1.84211 0.26316,-1.84211" fill="none" stroke="#000000" stroke-width="1.2" stroke-linecap="round"/><path d="M213.57127,195.71323c1.7925,-0.33147 2.89474,0.26316 2.89474,0.26316" fill="none" stroke="#000000" stroke-width="1.2" stroke-linecap="round"/><path d="M250.67654,192.95007l1.18421,-2.10526" fill="none" stroke-opacity="0.48235" stroke="#000000" stroke-width="1.2" stroke-linecap="round"/><path d="M254.75548,190.3185l-1.05263,2.10526" fill="none" stroke-opacity="0.48235" stroke="#000000" stroke-width="1.2" stroke-linecap="round"/></g></g></svg>