<svg version="1.1" xmlns="http://www.w3.org/2000/svg" xmlns:xlink="http://www.w3.org/1999/xlink" width="93.60084" height="124.75959" viewBox="0,0,93.60084,124.75959"><g transform="translate(-186.00162,-119.59736)"><g stroke-miterlimit="10"><path d="M227.39897,217.63054c0,-7.85536 6.36803,-14.2234 14.2234,-14.2234c7.85536,0 14.2234,6.36803 14.2234,14.2234c0,7.85536 -6.36803,14.2234 -14.2234,14.2234c-7.85536,0 -14.2234,-6.36803 -14.2234,-14.2234z" fill="#d5d5d5" fill-rule="nonzero" stroke="#001026" stroke-width="1.2" stroke-linecap="butt" stroke-linejoin="miter"/><path d="M195.95564,225.31865c0,-8.22195 6.66521,-14.88716 14.88716,-14.88716c8.22195,0 14.88716,6.66521 14.88716,14.88716c0,8.22195 -6.66521,14.88716 -14.88716,14.88716c-8.22195,0 -14.88716,-6.66521 -14.88716,-14.88716z" fill="#d5d5d5" fill-rule="nonzero" stroke="#001026" stroke-width="1.2" stroke-linecap="butt" stroke-linejoin="miter"/><path d="M253.74165,211.72277c0,0 6.88124,-9.99 10.61829,-15.41535c4.17903,-6.06701 -3.18685,-26.04711 -3.18685,-26.04711l10.82671,-0.36862c0,0 6.02632,22.82879 2.54093,28.91115c-3.98154,6.94819 -12.79479,22.32819 -12.79479,22.32819z" fill="#2b2b2b" fill-rule="nonzero" stroke="#001026" stroke-width="1.2" stroke-linecap="butt" stroke-linejoin="miter"/><path d="M196.63841,211.7301l-0.78849,-4.75156c0,0 44.54056,-0.4483 57.22032,0.5058c6.07868,0.4574 14.96231,4.92568 14.96231,4.92568l-1.2276,7.16955c0,0 -25.32442,2.075 -37.30304,0.73497c-11.37947,-1.27301 -32.8635,-8.58443 -32.8635,-8.58443z" fill="#2b2b2b" fill-rule="nonzero" stroke="#001026" stroke-width="1.2" stroke-linecap="butt" stroke-linejoin="miter"/><path d="M195.84992,207.60217l0.98208,-67.27224c0,0 9.80035,-20.13257 16.94082,-20.13257c10.60422,0 39.52858,0 39.52858,0v87.40481z" fill="#2b2b2b" fill-rule="nonzero" stroke="#001026" stroke-width="1.2" stroke-linecap="butt" stroke-linejoin="miter"/><path d="M258.51194,229.59545c2.94029,0.06554 8.64178,0.4262 6.72259,5.60273c-1.7998,5.02349 -19.02176,4.57148 -19.48316,-0.74895c0.01094,-2.25097 4.48789,-10.12883 4.7806,-11.94209c0.54848,-3.10791 -12.36582,-0.80238 -17.37624,-4.35054c-2.31348,-1.63831 1.05111,-10.19296 1.04808,-10.94615c-0.00959,-2.38443 17.81601,4.85011 26.65855,6.66098c-1.57903,3.99499 -2.79073,15.64935 -2.35042,15.72403z" fill="#ffab19" fill-rule="evenodd" stroke="#001026" stroke-width="1.2" stroke-linecap="round" stroke-linejoin="round"/><path d="M274.05615,189.19388c-1.51907,3.46265 -18.50148,13.64866 -25.34429,11.82242c-2.406,-0.64213 -16.40166,-21.22332 -9.17581,-23.59652c7.22584,-2.37319 9.68672,4.9404 11.99167,9.08498c1.89158,3.52041 15.07503,-2.6428 16.04456,-2.89472c2.01485,-0.62207 3.15035,0.41483 4.48182,1.93255c0.90089,1.02692 2.60287,2.12376 2.00207,3.6513z" fill="#ffab19" fill-rule="evenodd" stroke="#001026" stroke-width="1.2" stroke-linecap="round" stroke-linejoin="round"/><g fill-rule="evenodd"><path d="M226.26302,204.20328c0.94018,0.68461 2.92733,2.20354 -0.88001,6.04913c-3.80735,3.84559 -12.80665,3.26312 -13.83263,3.0915c-3.99716,-0.53678 -8.8706,-1.35197 -13.95669,-4.04844c-14.78821,-7.74713 -12.1062,-24.56912 -6.65401,-26.42569c5.32394,-1.87802 5.76652,8.87478 11.76901,16.33883c2.60602,3.33632 6.15359,4.98443 9.1243,6.14053c4.23173,1.49887 13.38307,-1.98017 14.43004,-1.14586z" fill="#ffab19" stroke="#001026" stroke-width="1.2" stroke-linecap="round" stroke-linejoin="round"/><path d="M196.19505,188.49498c1.47276,3.80595 4.63327,9.3444 4.63327,9.3444c0,0 -4.55212,-1.94797 -7.61002,-0.21825c-2.4591,1.30254 -2.41806,4.20982 -2.31173,5.15046c-1.38835,-1.94611 -3.05418,-4.59782 -3.58583,-9.30103c-0.53165,-4.70322 1.65183,-9.87513 4.34551,-10.21557c2.65077,-0.08395 2.97024,1.94704 4.5288,5.24z" fill="#ffffff" stroke="none" stroke-width="1" stroke-linecap="butt" stroke-linejoin="miter"/></g><g fill-rule="evenodd"><path d="M230.08522,212.66396c-15.9626,-4.00807 -10.14374,-13.00924 -10.25892,-20.63779c0.13354,-6.65116 2.00814,-6.46059 10.02711,-9.20812c4.41856,-1.77241 7.02184,-2.80797 9.58557,-4.46178c3.88048,-2.42089 6.50943,3.74325 7.17542,7.36343c0,0 0.90428,5.40529 0.67306,8.58618c-0.18379,2.28347 -1.79075,12.16455 -6.64394,16.68466c-3.36962,3.13837 -10.5583,1.67342 -10.5583,1.67342z" fill="#ffab19" stroke="#001026" stroke-width="1.2" stroke-linecap="round" stroke-linejoin="round"/><path d="M244.62971,203.22911c0,0 -2.63235,-0.39045 -5.59358,-1.07025c-3.64926,-0.76 -7.08931,-1.16089 -6.85697,-6.26636c0.48107,-4.12807 0.28457,-9.14403 7.69346,-8.81062c7.03002,0.23347 6.49899,4.55097 6.49899,4.55097c0.50451,6.92077 -1.7419,11.59624 -1.7419,11.59624z" fill="#ffffff" stroke="none" stroke-width="1" stroke-linecap="butt" stroke-linejoin="miter"/></g><path d="M229.3745,218.9117c0.04822,8.39438 -2.82951,15.21614 -6.4276,15.23681c-3.59809,0.02067 -6.554,-6.76757 -6.60223,-15.16195c-0.04822,-8.39438 3.90134,-16.51746 7.49943,-16.53813c3.59809,-0.02067 5.48217,8.0689 5.5304,16.46328z" fill="#ffab19" fill-rule="nonzero" stroke="#001026" stroke-width="1.2" stroke-linecap="butt" stroke-linejoin="miter"/><path d="M243.96263,236.66546c0,3.91653 -9.13169,7.09149 -20.39619,7.09149c-11.26451,0 -20.39619,-3.17496 -20.39619,-7.09149c0,-3.91653 9.13169,-7.09149 20.39619,-7.09149c11.26451,0 20.39619,3.17496 20.39619,7.09149z" fill="#ffab19" fill-rule="nonzero" stroke="#001026" stroke-width="1.2" stroke-linecap="butt" stroke-linejoin="miter"/><path d="M258.31545,174.09378c0.52645,-4.61194 4.69193,-7.92389 9.30387,-7.39745c4.61194,0.52644 7.9239,4.69194 7.39745,9.30388c-0.52645,4.61194 -4.69194,7.92389 -9.30388,7.39745c-4.61194,-0.52644 -7.9239,-4.69194 -7.39745,-9.30388z" fill="#ffab19" fill-rule="nonzero" stroke="#001026" stroke-width="1.2" stroke-linecap="butt" stroke-linejoin="miter"/><path d="M204.72766,194.57396c1.56328,-3.92977 23.39656,-17.42177 28.93434,-14.63394c4.76926,7.62125 -5.75623,9.06879 -9.64404,11.27633c-2.3358,1.35338 -4.6872,2.85103 -6.3835,3.68961c-0.15546,0.20534 5.89096,12.26223 4.93484,19.04984c-0.59376,4.21526 -8.12269,4.4359 -8.66179,4.48029c-6.93812,0.57125 -8.91822,-22.34413 -9.17986,-23.86212z" fill="#ffab19" fill-rule="evenodd" stroke="#001026" stroke-width="1.2" stroke-linecap="round" stroke-linejoin="round"/><g fill-rule="nonzero" stroke="#001026" stroke-width="1.2" stroke-linecap="round" stroke-linejoin="miter"><path d="M266.79778,194.19703l-3.77965,-0.44995l-0.07595,-4.45649l-0.89499,-2.21365l3.02393,-3.65205z" fill="#ffab19"/><path d="M276.86293,181.16649l1.77047,13.3432l-5.77513,3.18458l-6.35361,-0.57753l-1.42673,-3.2333l0.32528,-1.03427l-0.92129,-3.75628l0.14511,-1.54555l-0.92712,-4.09909l4.72627,-4.36688z" fill="#ffab19"/><path d="M266.33522,187.17532l2.01595,-2.4347" fill="none"/><path d="M266.76564,192.31158l2.86711,-2.79211" fill="none"/></g><g><path d="M247.535,123.07129c0.30959,-0.18481 0.80399,-0.06004 0.88395,0.34444l2.06399,10.81619c0,0 6.15804,5.01284 7.89136,8.40336c2.92217,5.65251 2.79798,10.15191 2.79798,10.15191c0,0 6.98663,2.45092 7.90132,8.2036c0.91469,5.75268 -4.01761,16.3202 -22.97852,19.07951c-18.96091,2.75931 -33.78824,-3.08623 -40.3118,-14.82562c-6.52356,-11.73939 5.33973,-24.76484 4.70064,-23.99571l-1.20611,-17.98236c-0.07996,-0.40448 0.43436,-0.67921 0.8239,-0.45955l11.69163,8.49269c0,0 4.57907,-1.47382 9.28319,-1.43955c2.80649,-0.06033 5.19355,0.25892 7.47078,0.77295z" fill="#ffab19" fill-rule="evenodd" stroke="#001026" stroke-width="1.2" stroke-linecap="butt" stroke-linejoin="miter"/><path d="M260.85273,153.1717c0,0 6.80181,2.14134 7.71651,7.89402c0.91469,5.75268 -4.39222,15.8009 -23.1484,18.47029c-24.41895,3.78882 -35.18767,-11.16594 -27.96817,-21.41918c7.22447,-10.35312 18.25709,-0.69179 26.67655,-0.87279c7.21597,-0.14087 8.32867,-6.39322 16.72352,-4.07234z" fill="#ffffff" fill-rule="evenodd" stroke="none" stroke-width="1" stroke-linecap="butt" stroke-linejoin="miter"/><path d="M216.48657,145.27585c0.33089,-6.63721 5.97966,-11.74948 12.61685,-11.41859c6.63721,0.33089 11.74948,5.97966 11.41859,12.61686c-0.33089,6.63721 -5.97965,11.74948 -12.61686,11.41859c-6.63721,-0.33089 -11.74946,-5.97965 -11.41857,-12.61686z" fill="#ffffff" fill-rule="nonzero" stroke="#001026" stroke-width="1.2" stroke-linecap="butt" stroke-linejoin="miter"/><path d="M279.00246,155.34281c-4.88338,3.56126 -12.07943,3.30263 -12.07943,3.30263" fill="none" fill-rule="evenodd" stroke="#001026" stroke-width="1.2" stroke-linecap="round" stroke-linejoin="round"/><path d="M277.14643,166.46413c-6.31708,0.18569 -10.11764,-1.90615 -10.11764,-1.90615" fill="none" fill-rule="evenodd" stroke="#001026" stroke-width="1.2" stroke-linecap="round" stroke-linejoin="round"/><path d="M243.9805,154.63338c2.0974,0.10456 4.28471,0.41386 4.34973,1.11797c0.03017,1.40324 -1.60739,4.12508 -3.21039,4.14529c-1.80773,0.11013 -5.87803,-2.5959 -5.79837,-4.19392c-0.04012,-1.20349 2.66151,-1.16893 4.65902,-1.06934z" fill="#001026" fill-rule="evenodd" stroke="#001026" stroke-width="1.2" stroke-linecap="round" stroke-linejoin="round"/><path d="M199.11101,150.89457c0,0 8.44991,3.22474 11.79121,6.49517" fill="none" fill-rule="evenodd" stroke="#001026" stroke-width="1.2" stroke-linecap="round" stroke-linejoin="round"/><path d="M211.02757,160.9004c-4.37931,1.48378 -11.71536,0.01668 -11.71536,0.01668" fill="none" fill-rule="evenodd" stroke="#001026" stroke-width="1.2" stroke-linecap="round" stroke-linejoin="round"/><path d="M240.52027,146.71934c-0.09728,1.95122 -2.67345,7.30284 -4.44729,7.21441c-1.77384,-0.08843 -2.03581,-5.58155 -1.93853,-7.53277c0.09728,-1.95122 1.59594,-3.47693 3.36977,-3.38849c1.76499,0.26581 3.11332,1.75563 3.01605,3.70686" fill="#001026" fill-rule="evenodd" stroke="none" stroke-width="1" stroke-linecap="butt" stroke-linejoin="miter"/><path d="M243.1889,137.02538c0,0 -1.38712,5.39112 -3.13649,3.44008c-3.31688,-3.69923 -14.55309,-16.80022 -14.55309,-16.80022" fill="none" fill-rule="nonzero" stroke="#001026" stroke-width="2.5" stroke-linecap="round" stroke-linejoin="miter"/><path d="M245.93658,145.30453c0.30417,-6.1012 5.93127,-10.77895 12.56847,-10.44805c6.63721,0.33089 11.77114,5.54513 11.46697,11.64633c-0.30417,6.1012 -5.93127,10.77895 -12.56848,10.44805c-6.63721,-0.33089 -11.77112,-5.54512 -11.46695,-11.64633z" fill="#ffffff" fill-rule="nonzero" stroke="#001026" stroke-width="1.2" stroke-linecap="butt" stroke-linejoin="miter"/><path d="M269.95411,147.07236c-0.08942,1.79364 -2.64814,6.79519 -4.42197,6.70676c-1.77384,-0.08843 -2.05326,-5.23148 -1.96384,-7.02512c0.08942,-1.79364 1.58165,-3.19042 3.35549,-3.10199c1.76571,0.25149 3.11974,1.62671 3.03032,3.42035" fill="#001026" fill-rule="evenodd" stroke="none" stroke-width="1" stroke-linecap="butt" stroke-linejoin="miter"/><path d="M246.83843,139.66407c0,0 3.59811,-4.09038 6.11718,-4.36918c4.24102,-0.46937 17.16178,-1.88486 17.16178,-1.88486" fill="none" fill-rule="nonzero" stroke="#001026" stroke-width="2.5" stroke-linecap="round" stroke-linejoin="miter"/><g stroke="#001026" stroke-width="1.2" stroke-linecap="round"><g><path d="M214.19736,157.28576c0.09772,-0.51971 0.69071,-0.81178 1.186,-0.58414c2.29763,1.37363 8.9229,4.77159 16.62086,6.75699c6.94283,1.70889 11.17381,2.10081 13.19601,2.07744c0.67406,-0.00779 1.07164,0.73957 0.68965,1.34035c-1.82891,3.2882 -8.59827,12.10452 -22.09414,8.76002c-11.57916,-3.52223 -11.18512,-12.05746 -9.59837,-18.35065z" fill="#ffffff" fill-rule="evenodd" stroke-linejoin="round"/><path d="M221.22925,168.11136c0,0 -2.57491,-2.51598 -3.57093,-4.11002c-1.15836,-1.85387 -2.96607,-6.3519 -2.96607,-6.3519" fill="none" fill-rule="nonzero" stroke-linejoin="miter"/></g><path d="M256.94769,165.30642c-1.65106,0.07519 -4.14575,0.22957 -5.90526,0.16685c-2.53143,-0.09023 -6.66102,-0.04744 -6.66102,-0.04744" fill="none" fill-rule="nonzero" stroke-linejoin="miter"/></g></g></g></g></svg>