<svg version="1.1" xmlns="http://www.w3.org/2000/svg" xmlns:xlink="http://www.w3.org/1999/xlink" width="110.35128" height="127.53101" viewBox="0,0,110.35128,127.53101"><g transform="translate(-175.98535,-110.66684)"><g stroke-miterlimit="10"><g stroke="#000000" stroke-width="1.2"><path d="M269.55641,153.16217c0,0 11.86449,-12.72211 15.13326,-4.67289c3.26881,8.04912 -1.27884,19.21854 -11.37723,30.56458c0,0 -0.53115,-15.08287 -3.756,-25.89168zM269.55641,153.16217c-0.28878,-1.28321 -1.14888,-3.67327 -1.14888,-3.67327M273.1568,181.4518l0.0091,-2.45914" fill="#9a8479" stroke-linecap="round"/><path d="M273.16585,178.99171c-0.07293,-2.79874 -0.30862,-7.38304 -1.02941,-13.01897c-0.417,-3.28063 -1.07037,-6.61838 -1.71243,-9.48505l0.00151,0.00358c7.11498,-4.19913 14.06708,4.25139 14.06708,4.25139l0.00264,-0.00053c-3.17803,9.53847 -11.28364,17.99459 -11.28364,17.99459z" fill="#ee4036" stroke-linecap="butt"/></g><path d="M184.51958,159.83214c1.25371,-18.61313 10.36863,-28.5017 15.7484,-33.73236c12.21083,-11.88032 30.62385,-12.26622 30.62385,-12.26622l0.58664,12.08991c0,0 -0.0161,-3.47627 7.42342,-9.51306c7.43765,-6.03679 18.38274,-5.08952 18.38274,-5.08952l-5.89284,15.11443c0,0 3.45086,-4.69923 6.2673,-6.40807c4.99326,-3.02448 9.1942,-1.69028 9.1942,-1.69028l-1.4865,11.88915c0,0 14.60542,21.41571 14.72307,36.0646c0.11765,14.64891 -4.63425,40.7455 -40.21184,41.4412c-61.65778,-0.57971 -55.35846,-47.89976 -55.35846,-47.89976z" fill="#9a8479" stroke="#000000" stroke-width="1.2" stroke-linecap="butt"/><g stroke="#000000" stroke-width="1.2"><path d="M197.29283,185.39787c-14.69251,-6.06576 -22.59391,-14.20319 -20.32215,-22.69383c2.2727,-8.49148 19.40645,-1.90657 19.40645,-1.90657c-1.63363,10.93377 0.91571,24.6004 0.91571,24.6004zM196.99769,157.06063c0,0 -0.54101,2.47537 -0.61962,3.73684M197.45804,185.28285l0.53264,2.19063" fill="#9a8479" stroke-linecap="round"/><path d="M197.34853,185.07473c0,0 -11.65594,-4.28919 -17.54471,-11.51979l0.00284,-0.00095c0,0 6.6696,-10.32711 16.21772,-9.4382l0.00096,-0.00288c-0.1741,2.8134 -0.26168,6.05302 -0.07336,9.14558c0.31713,5.31663 1.00164,9.49987 1.50606,12.02437z" fill="#ee4036" stroke-linecap="butt"/></g><g fill="none" stroke="#ee4036" stroke-width="1.2" stroke-linecap="round"><path d="M208.26876,139.54363l-3.54506,5.57363l-5.53914,-2.32766"/><path d="M197.62101,145.64335l4.50074,3.1309l-1.91584,6.3381"/><path d="M213.52982,150.42217l-4.9236,-3.35641l2.33868,-6.11259"/><path d="M202.90588,156.5346l3.54686,-5.05073l5.53736,1.80476"/></g><path d="M273.08017,175.08766c-0.06964,12.81834 -14.72411,23.13034 -32.73165,23.03249c-18.00754,-0.09785 -32.54908,-10.56847 -32.47943,-23.38682c0.06964,-12.81834 14.72412,-23.13034 32.73165,-23.03249c18.00754,0.09785 32.54908,10.56847 32.47943,23.38682z" fill="#e6e7e8" stroke="#000000" stroke-width="1.2" stroke-linecap="butt"/><g stroke="#000000"><path d="M266.54393,155.72854c0,0 -2.62388,4.40845 -6.08605,6.66979c-1.54954,1.01208 -5.79065,3.28964 -7.97682,3.82162c-5.66156,1.3777 -11.79118,1.07554 -11.79118,1.07554l4.84098,-6.89837c0,0 -4.28281,1.94742 -7.88556,2.96157c-4.89104,1.37678 -8.91236,-0.65021 -8.91236,-0.65021l13.3375,-12.54089" fill="#9a8479" stroke-width="0" stroke-linecap="butt"/><path d="M264.16948,158.93003c0,0 -4.52243,5.06748 -9.72201,6.8993c-5.19957,1.8318 -14.01944,1.46474 -14.01944,1.46474l5.10288,-6.89694c0,0 -3.44359,1.73795 -7.04634,2.75208c-4.89105,1.37677 -10.38128,-0.23011 -10.38128,-0.23011l12.38876,-11.45318" fill="none" stroke-width="1.2" stroke-linecap="round"/></g><path d="M234.54892,181.28699c12.40185,-0.18377 5.89407,11.1836 5.89407,11.1836l-26.44073,-0.56984c0,0 10.2152,-10.46066 20.54664,-10.61375z" fill="#706d6d" stroke="#231f20" stroke-width="1.2" stroke-linecap="round"/><g><path d="M237.141,169.60552l1.58791,1.74148l-1.49711,1.14708c0,0 -17.1042,-11.71019 -24.36097,-12.50983" fill="none" stroke="#231f20" stroke-width="1.2" stroke-linecap="round"/><path d="M237.65001,174.60619c-0.52923,1.40354 -1.93276,0.87432 -1.93276,0.87432l-0.77918,-0.37607c-2.37773,-1.97023 -4.13753,-2.02002 -6.84983,-0.68245c0,0 -1.34947,0.65493 -2.0044,-0.69454c-0.65493,-1.34947 0.69454,-2.0044 0.69454,-2.0044c3.79664,-1.81805 6.72561,-1.60792 10.05151,1.05307l-0.05417,-0.10269c0,0 1.40354,0.52923 0.87432,1.93276z" fill="#231f20" stroke="#000000" stroke-width="0" stroke-linecap="butt"/></g><g><path d="M266.15008,162.96375c-3.51636,1.07921 -10.73691,8.79036 -10.73691,8.79036l-2.52697,-0.70849l2.08799,-2.49598" fill="none" stroke="#231f20" stroke-width="1.2" stroke-linecap="round"/><path d="M254.42857,174.88137c-0.80529,-1.2655 0.46021,-2.0708 0.46021,-2.0708l-0.032,0.1116c2.71084,-3.2854 5.53479,-4.09058 9.62317,-3.08812c0,0 1.45495,0.36486 1.0901,1.8198c-0.36486,1.45495 -1.8198,1.0901 -1.8198,1.0901c-2.92866,-0.75409 -4.64101,-0.34516 -6.56513,2.07003l-0.68572,0.52759c0,0 -1.2655,0.80529 -2.0708,-0.46021z" fill="#231f20" stroke="#000000" stroke-width="0" stroke-linecap="butt"/></g><path d="M243.83842,206.40646c0.09517,-0.02802 0.19978,-0.04502 0.31309,-0.0516c0.10226,-0.01983 0.20684,-0.03475 0.31353,-0.04449c1.05659,-0.09649 13.60524,6.90899 12.78186,11.10415c-0.16848,3.43799 -3.38299,4.99967 -6.47348,3.0046c-1.59408,-1.02905 -7.39678,-7.39169 -7.81342,-8.50802c-0.58715,-0.52573 -1.01052,-1.24459 -1.14866,-2.06091c-0.24251,-1.4331 0.46741,-2.733 1.66514,-3.27993c0.10895,-0.0692 0.22894,-0.12464 0.36196,-0.16379z" fill="#9a8479" stroke="#000000" stroke-width="1.2" stroke-linecap="butt"/><path d="M238.71919,222.06655c-0.64007,-5.72505 1.36371,-8.96304 4.79597,-6.00292c5.7756,2.99939 5.32004,12.34138 5.19548,15.28181c-0.29451,6.95221 -15.12252,3.51232 -10.4386,-4.10412z" fill="#9a8479" stroke="#000000" stroke-width="1.2" stroke-linecap="butt"/><path d="M232.95424,204.36133v0v0v0v0v0v0c7.45516,-2.14537 11.57514,1.8494 11.57323,1.84887c0.93262,1.0583 2.14373,2.57262 2.86633,4.03254c0.19942,0.40331 0.37894,0.86613 0.52676,1.37159c0,0 0.42156,1.77418 0.39861,2.34635c-0.09701,2.39724 -0.57349,5.09592 -2.97983,6.75747c-3.77603,2.61611 -8.34785,3.30938 -13.65065,1.9398c-1.78896,-0.45995 -3.07766,-1.5984 -3.98328,-3.0075c-0.64867,-1.01471 -1.17767,-2.40155 -1.17767,-2.40155c-0.84554,-2.3138 -1.05627,-4.69627 -1.1089,-5.74021c0,0 0.08117,-5.00228 7.53542,-7.14738z" fill="#9a8479" stroke="#000000" stroke-width="1.2" stroke-linecap="butt"/><path d="M237.28712,222.57613l-0.5016,12.879c0,0 0.53728,0.03602 0.44518,0.68039c-0.08835,0.64509 -1.65061,1.40116 -6.20202,1.46233c-4.55358,0.05601 -5.49269,-0.86686 -5.53778,-1.3554c-0.04702,-0.48845 0.91391,-1.02275 0.91391,-1.02275c0,0 1.38039,-14.36488 1.79647,-15.39981" fill="#9a8479" stroke="#000000" stroke-width="1.2" stroke-linecap="butt"/><g stroke="#000000" stroke-width="1.2"><path d="M217.69122,213.08243c0.85174,-3.13641 3.98814,-2.28468 3.98814,-2.28468l1.01646,0.27602c1.03093,1.08737 0.33724,0.7412 0.55728,-1.33006c0,0 0.53543,-3.20559 3.74101,-2.67016c3.20559,0.53543 2.67018,3.74102 2.67018,3.74102c-0.6034,3.02897 -0.50112,5.70331 -4.28418,7.17966c-1.37727,0.53748 -2.92517,-0.43176 -4.38776,-0.64764l-1.01646,-0.27602c0,0 -3.1364,-0.85173 -2.28468,-3.98813z" fill="#9a8479" stroke-linecap="butt"/><g><path d="M221.00844,200.51075c2.10075,-1.95319 5.38714,-1.83357 7.34033,0.26718c1.95319,2.10075 1.83357,5.38713 -0.26718,7.34032c-2.10075,1.95319 -5.38714,1.83357 -7.34033,-0.26718c-1.95319,-2.10075 -1.83357,-5.38713 0.26718,-7.34032z" fill="#5c5e5f" stroke-linecap="butt"/><path d="M226.04251,210.53942l0.82389,2.51469l-1.48414,1.25372l-1.13513,2.44339l-2.05159,-1.12086" fill="#9a8479" stroke-linecap="round"/><path d="M224.08838,206.50664l2.29023,3.62335l-3.59307,6.57659l-4.49275,0.58173l-2.88229,-2.71333l3.81299,-7.50016z" fill="#9a8479" stroke-linecap="round"/><path d="M224.98959,212.04371l-1.47128,-1.95912" fill="none" stroke-linecap="round"/><path d="M223.33359,215.15938l-0.96055,-1.03312" fill="none" stroke-linecap="round"/><path d="M217.70848,215.13611l1.63778,-0.12187l1.04787,1.12703l-0.81074,2.32976l-1.91954,0.38384l-1.22252,-1.31487z" fill="#5c5e5f" stroke-linecap="round"/></g></g></g></g></svg>