<svg version="1.1" xmlns="http://www.w3.org/2000/svg" xmlns:xlink="http://www.w3.org/1999/xlink" width="87.13509" height="110.92242" viewBox="0,0,87.13509,110.92242"><g transform="translate(-188.90567,-141.78704)"><g data-paper-data="{&quot;isPaintingLayer&quot;:true}" stroke-miterlimit="10" stroke-dasharray="" stroke-dashoffset="0" style="mix-blend-mode: normal"><path d="M226.14054,229.53419c0,-7.85536 6.36803,-14.2234 14.2234,-14.2234c7.85536,0 14.2234,6.36803 14.2234,14.2234c0,7.85536 -6.36803,14.2234 -14.2234,14.2234c-7.85536,0 -14.2234,-6.36803 -14.2234,-14.2234z" fill="#d5d5d5" fill-rule="nonzero" stroke="#001026" stroke-width="1.2" stroke-linecap="butt" stroke-linejoin="miter"/><path d="M194.69721,237.2223c0,-8.22195 6.66521,-14.88716 14.88716,-14.88716c8.22195,0 14.88716,6.66521 14.88716,14.88716c0,8.22195 -6.66521,14.88716 -14.88716,14.88716c-8.22195,0 -14.88716,-6.66521 -14.88716,-14.88716z" fill="#d5d5d5" fill-rule="nonzero" stroke="#001026" stroke-width="1.2" stroke-linecap="butt" stroke-linejoin="miter"/><path d="M245.09635,224.64919c0,0 8.01103,-9.10906 12.36166,-14.05599c4.86517,-5.532 -0.09375,-26.24116 -0.09375,-26.24116l10.79465,0.91038c0,0 3.29284,23.38006 -0.88533,29.00909c-4.77293,6.43032 -15.33798,20.66402 -15.33798,20.66402z" fill="#2b2b2b" fill-rule="nonzero" stroke="#001026" stroke-width="1.2" stroke-linecap="butt" stroke-linejoin="miter"/><path d="M195.37998,223.63375l-0.78849,-4.75156c0,0 44.54056,-0.4483 57.22032,0.5058c6.07868,0.4574 14.96231,4.92568 14.96231,4.92568l-1.2276,7.16955c0,0 -25.32442,2.075 -37.30304,0.73497c-11.37947,-1.27301 -32.8635,-8.58443 -32.8635,-8.58443z" fill="#2b2b2b" fill-rule="nonzero" stroke="#001026" stroke-width="1.2" stroke-linecap="butt" stroke-linejoin="miter"/><path d="M194.59149,219.50582l0.98208,-51.95969c0,0 9.80035,-15.54997 16.94082,-15.54997c10.60422,0 39.52858,0 39.52858,0v67.50966z" fill="#2b2b2b" fill-rule="nonzero" stroke="#001026" stroke-width="1.2" stroke-linecap="butt" stroke-linejoin="miter"/><path d="M259.48879,238.12875c3.09675,-0.25901 9.12923,-0.504 7.72433,5.41411c-1.29755,5.73608 -19.444,7.17814 -20.55709,1.3697c-0.25435,-2.48066 3.51866,-11.66237 3.61203,-13.69264c0.20917,-3.48513 -13.08606,0.50911 -18.76895,-2.83478c-2.62399,-1.54399 -0.09954,-11.34588 -0.19167,-12.17518c-0.29168,-2.62535 19.28997,3.33552 28.79363,4.33411c-1.18709,4.57833 -1.08367,17.55203 -0.61226,17.58469z" fill="#ffab19" fill-rule="evenodd" stroke="#001026" stroke-width="1.2" stroke-linecap="round" stroke-linejoin="round"/><path d="M269.49676,205.12998c-1.91671,3.25941 -19.98157,11.37221 -26.56135,8.75195c-2.31351,-0.92131 -13.78511,-23.009 -6.32987,-24.51374c7.45524,-1.50473 9.03672,6.04799 10.83696,10.43541c1.46334,3.71887 15.28146,-0.84707 16.27393,-0.98293c2.07414,-0.38019 3.07949,0.78335 4.22273,2.44747c0.77353,1.12597 2.33433,2.41582 1.55763,3.86187z" fill="#ffab19" fill-rule="evenodd" stroke="#001026" stroke-width="1.2" stroke-linecap="round" stroke-linejoin="round"/><g fill-rule="evenodd"><path d="M224.3873,217.90357c0.68132,0.94257 2.09903,3.00315 -2.71371,5.47742c-4.81275,2.47427 -13.18703,-0.87208 -14.10911,-1.35362c-3.63326,-1.75066 -8.01315,-4.03793 -12.01139,-8.17958c-11.65411,-11.95371 -3.88434,-27.11298 1.87481,-27.18599c5.64389,-0.1332 2.72786,10.22612 6.1178,19.18435c1.44205,3.98031 4.30306,6.64793 6.76835,8.66881c3.5577,2.73805 13.33686,2.27057 14.07325,3.38859z" fill="#ffab19" stroke="#001026" stroke-width="1.2" stroke-linecap="round" stroke-linejoin="round"/><path d="M200.67823,193.64014c0.219,4.07509 1.50482,10.32088 1.50482,10.32088c0,0 -3.72291,-3.26441 -7.16661,-2.56899c-2.7419,0.47513 -3.60507,3.25162 -3.79589,4.17883c-0.7159,-2.28087 -1.47662,-5.31861 -0.52255,-9.95461c0.95408,-4.63601 4.6347,-8.87503 7.30105,-8.36278c2.54596,0.74277 2.21941,2.77264 2.67917,6.38668z" fill="#ffffff" stroke="none" stroke-width="1" stroke-linecap="butt" stroke-linejoin="miter"/></g><g fill-rule="evenodd"><path d="M226.93094,225.36368c-16.03193,-3.72109 -10.37547,-12.82519 -10.62748,-20.45045c0.01421,-6.65248 1.89192,-6.49558 9.86032,-9.3865c4.38606,-1.85138 6.97034,-2.93347 9.50399,-4.63301c3.83643,-2.49011 6.57553,3.62589 7.30634,7.23354c0,0 1.00109,5.3882 0.82697,8.57272c-0.1428,2.28639 -1.57225,12.19472 -6.34358,16.80115c-3.31278,3.19831 -10.52659,1.86254 -10.52659,1.86254z" fill="#ffab19" stroke="#001026" stroke-width="1.2" stroke-linecap="round" stroke-linejoin="round"/><path d="M241.30386,215.66947c0,0 -2.63894,-0.34317 -5.61189,-0.96975c-3.66231,-0.69442 -7.109,-1.03354 -6.96827,-6.14235c0.40695,-4.13604 0.1205,-9.14766 7.53418,-8.9472c7.03308,0.10734 6.57958,4.43366 6.57958,4.43366c0.62858,6.9106 -1.5336,11.62562 -1.5336,11.62562z" fill="#ffffff" stroke="none" stroke-width="1" stroke-linecap="butt" stroke-linejoin="miter"/></g><path d="M253.51521,186.06868c0.37502,-4.62671 4.42973,-8.07341 9.05644,-7.6984c4.62671,0.37501 8.0734,4.42973 7.69839,9.05644c-0.37502,4.62671 -4.42972,8.07341 -9.05643,7.69839c-4.62671,-0.37501 -8.07341,-4.42972 -7.6984,-9.05644z" fill="#ffab19" fill-rule="nonzero" stroke="#001026" stroke-width="1.2" stroke-linecap="butt" stroke-linejoin="miter"/><path d="M242.72151,144.63567c0.31853,-0.16894 0.806,-0.01934 0.86542,0.38867l1.51488,10.90666c0,0 5.8969,5.31757 7.45672,8.79133c2.63285,5.79294 2.2815,10.28031 2.2815,10.28031c0,0 6.85388,2.80078 7.47676,8.59233c0.62288,5.79155 -4.83704,16.09637 -23.91315,17.89418c-19.07611,1.79781 -33.58917,-4.7894 -39.51127,-16.84339c-5.9221,-12.05399 6.58413,-24.46342 5.90699,-23.72756l-0.29603,-18.02034c-0.05942,-0.40801 0.46812,-0.6564 0.84607,-0.41733l11.24761,9.07255c0,0 4.64768,-1.24059 9.34407,-0.96869c2.80595,0.08154 5.17384,0.52099 7.42219,1.14941z" fill="#ffab19" fill-rule="evenodd" stroke="#001026" stroke-width="1.2" stroke-linecap="butt" stroke-linejoin="miter"/><path d="M254.39423,175.44925c0,0 6.68493,2.48225 7.30782,8.2738c0.62288,5.79155 -5.18493,15.55881 -24.05202,17.27716c-24.57918,2.55024 -34.57859,-12.92948 -26.85028,-22.80488c7.73832,-9.97488 18.26873,0.2315 26.68658,0.47612c7.21387,0.22388 8.64104,-5.96426 16.90791,-3.22221z" fill="#ffffff" fill-rule="evenodd" stroke="none" stroke-width="1" stroke-linecap="butt" stroke-linejoin="miter"/><path d="M210.47001,165.23103c0.66581,-6.61202 6.56565,-11.43237 13.17766,-10.76656c6.61202,0.66581 11.43236,6.56565 10.76655,13.17767c-0.66581,6.61202 -6.56564,11.43236 -13.17766,10.76655c-6.61202,-0.66581 -11.43234,-6.56564 -10.76654,-13.17766z" fill="#ffffff" fill-rule="nonzero" stroke="#001026" stroke-width="1.2" stroke-linecap="butt" stroke-linejoin="miter"/><path d="M237.25803,175.76771c2.08944,0.2104 4.25832,0.62981 4.28769,1.33631c-0.04077,1.40297 -1.81375,4.0386 -3.41572,3.97779c-1.81098,0.01865 -5.73937,-2.88957 -5.57907,-4.48152c0.02073,-1.20398 2.71716,-1.03296 4.7071,-0.83258z" fill="#001026" fill-rule="evenodd" stroke="#001026" stroke-width="1.2" stroke-linecap="round" stroke-linejoin="round"/><path d="M192.83276,169.96473c0,0 8.2762,3.64754 11.448,7.08261" fill="none" fill-rule="evenodd" stroke="#001026" stroke-width="1.2" stroke-linecap="round" stroke-linejoin="round"/><path d="M204.22858,180.55984c-4.44869,1.26063 -11.70124,-0.57524 -11.70124,-0.57524" fill="none" fill-rule="evenodd" stroke="#001026" stroke-width="1.2" stroke-linecap="round" stroke-linejoin="round"/><path d="M234.40009,167.88698c-0.19574,1.94381 -3.03901,7.15845 -4.80611,6.9805c-1.7671,-0.17794 -1.7512,-5.67728 -1.55547,-7.62109c0.19574,-1.94381 1.76957,-3.39186 3.53667,-3.21391c1.74931,0.35465 3.02065,1.91068 2.82491,3.8545" fill="#001026" fill-rule="evenodd" stroke="none" stroke-width="1" stroke-linecap="butt" stroke-linejoin="miter"/><path d="M237.35706,158.14221c0,0 -1.65772,5.31415 -3.30629,3.27722c-3.12574,-3.8621 -13.6857,-17.51404 -13.6857,-17.51404" fill="none" fill-rule="nonzero" stroke="#001026" stroke-width="2.5" stroke-linecap="round" stroke-linejoin="miter"/><path d="M239.68294,166.54958c0.61204,-6.07805 6.46829,-10.46551 13.08029,-9.7997c6.61201,0.66581 11.47595,6.13277 10.86391,12.2108c-0.61204,6.07805 -6.46828,10.46551 -13.0803,9.7997c-6.61202,-0.66581 -11.47594,-6.13276 -10.8639,-12.2108z" fill="#ffffff" fill-rule="nonzero" stroke="#001026" stroke-width="1.2" stroke-linecap="butt" stroke-linejoin="miter"/><path d="M263.58048,169.52862c-0.17993,1.78683 -2.98807,6.65272 -4.75517,6.47477c-1.76711,-0.17794 -1.78632,-5.32853 -1.60639,-7.11536c0.17993,-1.78683 1.74082,-3.10644 3.50793,-2.92849c1.75075,0.34038 3.03357,1.78225 2.85364,3.56909" fill="#001026" fill-rule="evenodd" stroke="none" stroke-width="1" stroke-linecap="butt" stroke-linejoin="miter"/><path d="M240.70706,159.19911c0,0 3.16447,-4.43439 5.64225,-4.96737c4.1715,-0.8973 16.88193,-3.6166 16.88193,-3.6166" fill="none" fill-rule="nonzero" stroke="#001026" stroke-width="2.5" stroke-linecap="round" stroke-linejoin="miter"/><path d="M196.16359,212.39165c0.88349,-2.76631 20.03725,-12.72648 25.9178,-10.95077c5.92394,5.1457 -4.14234,6.44423 -7.58512,8.08276c-2.06395,1.0032 -4.11943,2.10678 -5.64208,2.73537c-0.1184,0.14663 7.78619,8.32928 7.96765,13.05834c0.1127,2.93685 -7.22191,3.30125 -7.74238,3.34713c-6.69846,0.59068 -12.4098,-15.22857 -12.91588,-16.27283z" fill="#ffab19" fill-rule="evenodd" stroke="#001026" stroke-width="1.2" stroke-linecap="round" stroke-linejoin="round"/><g fill-rule="nonzero" stroke="#001026" stroke-width="1.2" stroke-linecap="round" stroke-linejoin="miter"><path d="M263.68183,210.16449l-3.79307,0.31748l-0.96847,-4.35066l-1.3209,-1.98908l2.22977,-4.18447z" fill="#ffab19"/><path d="M270.92813,195.37958l4.41141,12.71672l-5.01884,4.27845l-6.34031,0.70889l-2.04639,-2.88134l0.11116,-1.07849l-1.65615,-3.49507l-0.16791,-1.54325l-1.73064,-3.82975l3.7541,-5.22628z" fill="#ffab19"/><path d="M261.81997,203.37834l1.48651,-2.78964" fill="none"/><path d="M263.27209,208.32383l2.24867,-3.31056" fill="none"/></g><path d="M226.87647,218.43505c0,7.61144 -2.91687,13.78173 -6.51502,13.78173c-3.59815,0 -6.51502,-6.1703 -6.51502,-13.78173c0,-7.61144 2.91687,-13.78173 6.51502,-13.78173c3.59815,0 6.51502,6.17029 6.51502,13.78173z" fill="#ffab19" fill-rule="nonzero" stroke="#001026" stroke-width="1.2" stroke-linecap="butt" stroke-linejoin="miter"/><path d="M240.82063,235.08588c0,3.55118 -9.13169,6.42996 -20.39619,6.42996c-11.26451,0 -20.39619,-2.87878 -20.39619,-6.42996c0,-3.55118 9.13169,-6.42997 20.39619,-6.42997c11.26451,0 20.39619,2.87879 20.39619,6.42997z" fill="#ffab19" fill-rule="nonzero" stroke="#001026" stroke-width="1.2" stroke-linecap="butt" stroke-linejoin="miter"/><path d="M247.07618,193.91146c-4.78056,0.6657 -9.00675,-1.31366 -9.43945,-4.42102c-0.4327,-3.10736 3.09192,-6.16604 7.87248,-6.83174c4.78056,-0.6657 9.00675,1.31365 9.43945,4.42102c0.4327,3.10736 -3.09192,6.16604 -7.87248,6.83174z" fill="#ffffff" fill-rule="nonzero" stroke="#001026" stroke-width="1.2" stroke-linecap="butt" stroke-linejoin="miter"/><path d="M262.95324,181.8923c3.1718,-3.43507 11.448,-7.08261 11.448,-7.08261" data-paper-data="{&quot;index&quot;:null}" fill="none" fill-rule="evenodd" stroke="#001026" stroke-width="1.2" stroke-linecap="round" stroke-linejoin="round"/><path d="M274.70666,184.82956c0,0 -7.25255,1.83587 -11.70124,0.57524" data-paper-data="{&quot;index&quot;:null}" fill="none" fill-rule="evenodd" stroke="#001026" stroke-width="1.2" stroke-linecap="round" stroke-linejoin="round"/></g></g></svg>