<svg version="1.1" xmlns="http://www.w3.org/2000/svg" xmlns:xlink="http://www.w3.org/1999/xlink" width="86.77327" height="131.077" viewBox="0,0,86.77327,131.077"><g transform="translate(-189.29864,-110.47545)"><g stroke-miterlimit="10"><g fill-rule="nonzero" stroke="#000000" stroke-width="1.2" stroke-linejoin="miter"><path d="M225.16827,184.57205c2.09291,-1.89232 5.25312,-1.79602 7.0585,0.21508c0.4101,0.4568 0.71498,0.97311 0.91681,1.52049c1.45651,1.17022 -0.56057,4.89433 -0.74836,6.39889c-0.70611,5.65744 -2.60421,8.87943 -7.79021,12.95768c-2.11927,1.66657 -4.78854,2.31352 -7.0585,-0.21508c-4.30879,-4.79977 2.67216,-8.34776 4.51644,-11.72029c0.98836,-1.80736 1.0537,-9.07326 3.10531,-9.15677z" fill="#ffab19" stroke-linecap="butt"/><g><path d="M211.771,204.06301c-0.58338,4.71863 -4.86822,8.2363 -9.57046,7.85688c-4.70223,-0.3794 -8.04124,-4.51219 -7.45785,-9.23083c0.58338,-4.71863 4.86822,-8.2363 9.57047,-7.85688c4.70223,0.3794 8.04123,4.51219 7.45785,9.23083z" fill="#5c5e5f" stroke-linecap="butt"/><g stroke-linecap="round"><path d="M211.89394,198.89548l3.95622,-2.78726l2.10806,1.033l4.42736,0.35723l0.04607,3.80051z" fill="#ffab19"/><path d="M207.21434,201.96953l4.8486,-4.44107l3.98118,1.18413l1.55367,-0.04723l3.6406,1.15666l1.06395,-0.25931l3.06636,1.62807l-0.10054,6.37741l-3.78338,5.5625l-13.09195,-2.60956z" fill="#ffab19"/><path d="M215.49229,200.39389l-2.63748,1.85818" fill="none"/><path d="M220.55853,201.14782l-3.08367,2.68508" fill="none"/></g><path d="M223.32786,203.78741l3.83201,0.99952l0.55692,3.84174l-2.76423,2.88343l-2.98059,-0.93083l-1.23805,-3.89669z" fill="#5c5e5f" stroke-linecap="round"/></g></g><g fill-rule="evenodd"><path d="M247.39165,202.86426c2.39389,-0.64435 5.2842,-1.61866 7.65793,-3.96192c5.44147,-5.22839 7.04522,-13.42563 10.86988,-11.55606c3.92464,1.86355 3.98011,14.96112 -8.17156,19.69397c-4.18309,1.65229 -7.98282,1.88135 -11.08379,1.96828c-0.79995,0.04822 -7.70777,-0.23538 -10.14795,-3.48852c-2.44019,-3.25313 -0.75097,-4.25503 0.04422,-4.703c0.894,-0.55392 7.43865,2.85179 10.83128,2.04722z" fill="#ffab19" stroke="#001026" stroke-width="1.2" stroke-linecap="round" stroke-linejoin="round"/><path d="M265.32185,187.58236c2.00698,0.47906 3.05675,4.61606 2.09836,8.17409c-0.9584,3.55802 -2.53692,5.45331 -3.8214,6.83083c0.19168,-0.7116 0.56554,-2.93429 -1.14976,-4.13099c-2.12003,-1.5723 -5.80908,-0.44986 -5.80908,-0.44986c0,0 3.05469,-3.98442 4.62253,-6.77913c1.5726,-2.39497 2.05476,-3.92415 4.05936,-3.64496z" fill="#ffffff" stroke="none" stroke-width="1" stroke-linecap="butt" stroke-linejoin="miter"/></g><g fill-rule="nonzero" stroke-linecap="round" stroke-linejoin="miter"><g><path d="M218.72327,227.17027l4.56396,-22.49542c0,0 0.22605,-4.45315 1.08188,-11.5098c0.41582,-3.42855 -0.19705,-9.83464 1.64352,-12.11038c2.83842,-3.50951 9.98776,-3.09312 9.98776,-3.09312c0,0 8.0591,0.99244 10.04348,6.27953c1.5789,4.20678 0.22705,7.88379 0.14591,12.29762c-0.07742,4.21124 1.15025,9.26093 1.15025,9.26093l9.16038,24.18257c0,0 4.13718,0.78099 5.15881,2.81193c1.02164,2.03095 0.2163,7.87339 0.2163,7.87339l-17.1149,0.28119l-6.06186,-5.34266l-0.84601,-6.28462c0,0 -3.37579,-25.86138 -3.90744,-20.65426c-0.23722,2.32346 -0.83613,18.51388 -0.83613,18.51388l0.66395,8.42848l-17.67883,1.60484l-3.7141,-0.76474c0,0 -3.73828,-4.0619 -1.78663,-6.91698c1.95164,-2.85507 8.12969,-2.36239 8.12969,-2.36239z" fill="#ffab19" stroke="#001026" stroke-width="1.2"/><path d="M236.26517,208.23689c0,0 -3.25005,-0.13731 -4.76258,-1.51935" fill="none" stroke="#001026" stroke-width="1.2"/><path d="M232.72245,201.31218c-4.13417,-0.65398 -4.4313,-4.90464 -4.53948,-8.97955c-0.12134,-4.57068 0.06036,-9.42706 4.69913,-8.82045c5.08888,0.66547 5.83895,5.43964 5.89414,10.44496c0,0 -0.09609,8.29748 -6.05379,7.35504z" fill="#ffffff" stroke="#000000" stroke-width="0"/></g><path d="M244.40251,232.51218c0,0 1.18521,-2.71583 11.85,-2.6" fill="none" stroke="#001026" stroke-width="1.2"/></g><path d="M254.98211,188.91693c3.35747,-1.18635 7.76266,-3.28496 9.13124,1.71774c1.23457,6.64649 -9.80846,8.08234 -13.44432,7.90762c-3.22491,-0.14122 -4.28593,-3.24514 -5.19098,-5.87399c-1.55801,-5.06681 -3.05624,-9.3744 -0.35317,-12.68248c3.3078,-4.15913 5.9427,0.53311 6.84632,3.4782c0.56112,1.77346 1.21696,3.57898 1.52741,4.84532c0.37744,0.44445 0.91373,0.7315 1.48351,0.60761z" fill="#ffab19" fill-rule="evenodd" stroke="#001026" stroke-width="1.2" stroke-linecap="round" stroke-linejoin="round"/><g><g><g><path d="M212.75061,141.41473c0,0 0.53847,-30.44951 1.56377,-30.33898c1.38128,0.14888 23.33784,15.55261 23.33784,15.55261" fill="#ffab19" fill-rule="nonzero" stroke="#001026" stroke-width="1.2" stroke-linecap="round" stroke-linejoin="miter"/><path d="M264.33384,149.97306l10.66415,16.8923l-3.24173,5.37957l-28.86854,-3.8049z" fill="#9b7f41" fill-rule="nonzero" stroke="#001026" stroke-width="1.2" stroke-linecap="round" stroke-linejoin="miter"/><path d="M201.30731,160.59594c0,0 -6.88523,-0.04345 -11.40867,-3.96527" fill="none" fill-rule="evenodd" stroke="#001026" stroke-width="1.2" stroke-linecap="round" stroke-linejoin="round"/><path d="M200.97054,166.75007c0,0 -3.71436,2.01369 -9.74214,1.54564" fill="none" fill-rule="evenodd" stroke="#001026" stroke-width="1.2" stroke-linecap="round" stroke-linejoin="round"/><path d="M229.69245,132.8214c10.81039,-1.62409 38.84094,8.80975 30.40054,36.461c-0.11004,0.3605 -0.2953,0.68871 -0.47877,1.01578c-6.70054,11.94448 -21.09926,17.38875 -39.10399,13.69025c-18.00473,-3.69851 -22.29555,-14.92036 -21.19229,-20.87275c1.10327,-5.95239 7.87584,-8.2016 7.87584,-8.2016c0,0 0.06076,-4.6921 3.07792,-10.45287c0,0 3.62649,-9.26695 19.42077,-11.63979z" fill="#ffab19" fill-rule="evenodd" stroke="#001026" stroke-width="1.2" stroke-linecap="butt" stroke-linejoin="miter"/><path d="M223.29855,160.29746c8.0365,0.55457 18.96203,-9.0293 25.45127,2.06888c6.48847,10.99395 -4.396,26.10307 -27.57415,21.09492c-17.81272,-3.59594 -22.48214,-14.29317 -21.37888,-20.24556c1.10327,-5.95239 7.68691,-7.88715 7.68691,-7.88715c8.11276,-2.05254 8.9265,4.50848 15.81483,4.96892z" fill="#ffffff" fill-rule="evenodd" stroke="none" stroke-width="1" stroke-linecap="butt" stroke-linejoin="miter"/><path d="M228.06934,158.89998c0.0124,1.668 -3.98417,4.30973 -5.70684,4.11643c-1.53066,-0.09074 -2.9866,-2.99708 -2.90183,-4.45742c0.0902,-0.7306 2.19224,-0.95767 4.2002,-0.97541c1.91234,-0.01689 4.49479,0.06456 4.40847,1.31641z" fill="#001026" fill-rule="evenodd" stroke="#001026" stroke-width="1.2" stroke-linecap="round" stroke-linejoin="round"/><path d="M257.53426,159.44481c-3.62534,4.90717 -10.33451,6.59445 -10.33451,6.59445" fill="none" fill-rule="evenodd" stroke="#001026" stroke-width="1.2" stroke-linecap="round" stroke-linejoin="round"/><path d="M258.58118,171.14404c-5.78722,1.89672 -9.81601,0.81932 -9.81601,0.81932" fill="none" fill-rule="evenodd" stroke="#001026" stroke-width="1.2" stroke-linecap="round" stroke-linejoin="round"/><path d="M253.67465,147.35766l-42.5589,-5.53145l3.37413,-23.48435l46.7985,7.05713l9.25835,20.09436l-8.28911,15.52687z" fill="#c58600" fill-rule="nonzero" stroke="#001026" stroke-width="1.2" stroke-linecap="round" stroke-linejoin="miter"/><path d="M261.07126,125.57483l-7.36866,21.57659" fill="none" fill-rule="nonzero" stroke="#001026" stroke-width="0.75" stroke-linecap="round" stroke-linejoin="miter"/><path d="M265.20477,133.84736l-3.99575,-8.22907c0,0 13.31449,-4.31039 14.26289,-3.8076c1.06281,0.56345 -12.89663,28.30078 -12.89663,28.30078z" fill="#ffab19" fill-rule="nonzero" stroke="#001026" stroke-width="1.2" stroke-linecap="round" stroke-linejoin="miter"/></g><g><g fill-rule="evenodd"><path d="M222.04109,140.38774c2.69123,1.85285 2.63512,7.17045 -0.10293,11.8862c-2.83368,4.7166 -7.2158,6.94469 -9.90703,5.09182c-2.69123,-1.85285 -2.63511,-7.17045 0.10294,-11.8862c2.73805,-4.71575 7.21503,-7.04893 9.90703,-5.09182z" fill="#ffffff" stroke="#001026" stroke-width="1.2" stroke-linecap="round" stroke-linejoin="round"/><path d="M215.5065,151.07851c-0.00852,-1.14675 0.74945,-2.09176 1.70563,-2.1002c0.95618,-0.00845 1.72809,0.92304 1.7366,2.0698c0.00852,1.14675 -0.74945,2.09176 -1.70562,2.1002c-0.95618,0.00845 -1.72809,-0.92304 -1.7366,-2.0698" fill="#001026" stroke="none" stroke-width="1" stroke-linecap="butt" stroke-linejoin="miter"/></g><g fill-rule="evenodd"><path d="M244.98333,144.67421c2.98118,2.26732 2.83409,8.21126 -0.09597,12.82447c-1.18955,1.93569 -2.61898,3.32262 -4.11174,4.13612c-2.08811,-0.0436 -4.17734,-0.08427 -6.2693,-0.12498c-2.42549,-2.07853 -2.58223,-7.54985 0.18519,-12.05313c2.83444,-4.61233 7.30987,-7.15404 10.29183,-4.78246z" fill="#ffffff" stroke="#001026" stroke-width="1.2" stroke-linecap="round" stroke-linejoin="round"/><path d="M238.10262,155.1518c-0.00852,-1.14675 0.75023,-1.98752 1.70563,-2.10021c0.95618,-0.00845 1.72808,0.92305 1.7366,2.06981c0.00852,1.14675 -0.74945,2.09176 -1.70562,2.1002c-0.95618,0.00845 -1.72809,-0.92305 -1.7366,-2.06981" fill="#001026" stroke="none" stroke-width="1" stroke-linecap="butt" stroke-linejoin="miter"/></g><g fill="#ffffff" fill-rule="nonzero" stroke="#001026" stroke-width="1.2" stroke-linecap="round" stroke-linejoin="miter"><path d="M218.30105,170.49382c-0.06119,-0.0801 0.82331,0.60479 1.90181,0.14954c1.88235,-0.79456 4.91112,-2.98351 8.51929,-3.86162c6.14405,-1.49526 10.26122,-1.42404 12.33139,-1.82134c2.25909,-0.43357 2.19194,-1.26064 2.45827,-1.16361c0.94185,0.34313 1.55237,14.69166 -8.53642,17.58367c-10.0888,2.89202 -16.14973,-10.19989 -16.67433,-10.88663z"/></g></g></g><path d="M237.35996,161.6301c6.13086,-0.01378 8.63009,1.27625 8.63009,1.27625" fill="none" fill-rule="nonzero" stroke="#001026" stroke-width="1.2" stroke-linecap="round" stroke-linejoin="miter"/></g><g fill-rule="nonzero" stroke-linejoin="miter"><g fill="#ffab19" stroke="#000000" stroke-width="1.2" stroke-linecap="round"><path d="M263.4632,188.60909c0,0 0.13822,2.38926 -0.64635,2.90928c-6.73054,4.46097 -15.46601,5.68696 -20.79712,0.46593c-4.05083,-3.96719 -1.73643,-16.26522 -1.73643,-16.26522c0,0 -3.93818,-11.84218 1.61367,-12.94273c6.3108,-1.25102 5.48971,10.73041 5.48971,10.73041l4.30991,0.59255c0,0 -0.02542,-13.21663 5.91574,-12.54207c6.69651,0.76031 2.09287,13.75215 2.09287,13.75215l2.98958,1.99187c0,0 4.06075,0.43253 4.23279,2.44976c0.17204,2.01723 1.34157,6.30189 -3.35075,7.89249c-3.91187,1.32603 -5.52858,-4.19434 -5.52858,-4.19434"/><path d="M244.70372,193.98865c-4.82026,-3.226 -11.19165,2.32901 -12.78887,-5.81938c-1.54173,-7.86533 8.68225,-4.77538 8.68225,-4.77538"/></g><path d="M246.08832,169.42895c0.19807,2.48435 -0.7793,4.58589 -2.18305,4.69392c-1.40374,0.10803 -2.70229,-1.81836 -2.90037,-4.30272c-0.19807,-2.48435 0.77931,-4.58589 2.18305,-4.69392c1.40374,-0.10803 2.70229,1.81836 2.90037,4.30272z" fill="#ffffff" stroke="none" stroke-width="0" stroke-linecap="butt"/><path d="M259.3269,169.57821c-0.18335,2.48118 -1.56982,4.36493 -3.09677,4.20748c-1.52694,-0.15746 -2.61615,-2.29648 -2.43279,-4.77766c0.18335,-2.48118 1.56982,-4.36493 3.09677,-4.20747c1.52694,0.15746 2.61615,2.29648 2.43279,4.77765z" fill="#ffffff" stroke="none" stroke-width="0" stroke-linecap="butt"/><path d="M242.34733,185.91871c-0.16159,1.7196 -1.21583,1.78023 -3.78008,1.55965c-2.56425,-0.22058 -4.58905,-1.29449 -4.52252,-2.39865c0.06654,-1.10417 2.2115,-1.51987 4.77575,-1.29929c0,0 3.72554,0.02393 3.52686,2.13829z" fill="#ffffff" stroke="none" stroke-width="0" stroke-linecap="butt"/><path d="M251.00971,191.33882c-4.45941,-0.43584 -7.92874,-1.59253 -7.64463,-5.67443c0.12146,-1.74494 3.15667,-0.95121 4.34947,-2.10758c1.5975,-1.54871 1.68636,-4.74371 4.23944,-4.49419c2.08199,0.20349 1.40839,3.77998 2.75789,5.10439c0.82798,0.81259 2.19629,1.01165 3.26175,1.35946c0.46498,0.64799 0.98266,1.34989 1.53828,1.89854c-0.32866,4.00582 -4.07288,4.34672 -8.50221,3.91383z" fill="#ffffff" stroke="none" stroke-width="0" stroke-linecap="butt"/></g></g></g></svg>