<svg version="1.1" xmlns="http://www.w3.org/2000/svg" xmlns:xlink="http://www.w3.org/1999/xlink" width="87.43071" height="122.93312" viewBox="0,0,87.43071,122.93312"><g transform="translate(-213.67016,-102.22756)"><g stroke-miterlimit="10"><path d="M253.4187,182.57699c2.68779,-0.63341 5.38017,1.032 6.01358,3.7198c0.14388,0.61051 0.16914,1.22125 0.09077,1.80805c0.72019,1.76695 -2.74916,4.06428 -3.60766,5.30595c-3.22815,4.66891 -6.3622,6.58003 -12.73979,7.60743c-2.6062,0.41985 -5.21718,-0.34038 -6.01358,-3.7198c-1.51171,-6.41476 6.17515,-6.0741 9.33222,-8.14575c1.69189,-1.11021 5.10903,-7.52725 6.92446,-6.57568z" fill="#ffab19" fill-rule="nonzero" stroke="#000000" stroke-width="1.2" stroke-linecap="butt" stroke-linejoin="miter"/><g fill-rule="evenodd"><path d="M276.79059,199.85027c2.24528,-0.98421 4.91797,-2.36508 6.81267,-5.01274c4.37125,-5.92894 4.36425,-14.20539 8.51564,-12.93422c4.24924,1.25056 6.85301,14.08958 -4.25982,20.5196c-3.82099,2.23608 -7.5393,3.01974 -10.59328,3.56121c-0.7828,0.16498 -7.67884,0.90302 -10.72844,-1.92894c-3.04961,-2.83196 -1.57174,-4.06321 -0.87142,-4.6196c0.77753,-0.67485 7.9215,1.70296 11.12465,0.41467z" fill="#ffab19" stroke="#001026" stroke-width="1.2" stroke-linecap="round" stroke-linejoin="round"/><path d="M291.57304,182.22279c2.08074,0.17466 3.92542,4.07812 3.66872,7.70912c-0.25672,3.63099 -1.4511,5.72226 -2.45504,7.2624c0.05135,-0.72621 -0.01096,-2.9614 -1.94252,-3.88287c-2.40546,-1.23037 -5.84031,0.41332 -5.84031,0.41332c0,0 2.2497,-4.35762 3.25848,-7.32954c1.09127,-2.58053 1.27118,-4.1514 3.31068,-4.17247z" fill="#ffffff" stroke="none" stroke-width="1" stroke-linecap="butt" stroke-linejoin="miter"/></g><g fill-rule="nonzero" stroke-linecap="butt" stroke-linejoin="miter"><path d="M244.75589,215.32431c-1.27764,2.69002 -17.58641,0.25374 -17.58641,0.25374c0,0 -1.97031,-6.69003 2.35925,-7.77305c2.01763,-0.5047 8.33501,-3.32166 9.2028,-4.58956c3.04089,-4.44295 3.41847,-9.37009 8.34385,-12.47707c0.90733,-0.57236 2.86104,-1.93368 4.63635,-2.41146c2.16253,-1.54052 6.26827,1.07568 7.02913,3.79183c2.18066,7.7846 -6.61425,7.68689 -13.98498,23.20558z" fill="#ffab19" stroke="#001026" stroke-width="1.2"/><g><path d="M250.35378,189.84413c0.46751,-3.95113 5.97492,-7.52802 5.97492,-7.52802c0,0 0.78374,-3.33413 2.99401,-4.86785c4.56888,-3.17038 18.44755,2.81302 16.79136,10.62913c-0.62144,2.93272 -3.42474,5.03614 -3.42474,5.03614c0,0 -0.97734,5.67883 -3.03757,7.87244c-1.75224,1.8657 -9.53519,3.10522 -14.01133,-0.09955c-0.46495,-0.33288 -0.89051,-0.67074 -1.27989,-1.0115" fill="#ffab19" stroke="#001026" stroke-width="1.2"/><path d="M261.49382,179.83296c3.87387,-0.74472 7.05971,4.2427 6.0609,8.02537c-0.12054,0.45649 -0.27448,0.98616 -0.48167,1.49068c0.07128,2.23157 -3.34249,5.63614 -5.00241,5.35801c-5.74601,-0.96285 -9.85049,-9.42899 -3.75028,-11.60379c0.59229,-1.59384 1.85317,-3.01646 3.17346,-3.27027z" fill="#ffffff" stroke="none" stroke-width="0.5"/></g><path d="M261.14727,218.1324c-0.25696,2.9885 -16.26843,6.36152 -16.26843,6.36152c0,0 -4.14866,-5.64048 -0.49689,-8.17168c1.70175,-1.17957 6.602,-6.04237 6.97012,-7.5434c1.28999,-5.25989 -0.06468,-10.0506 3.44052,-14.70311c0.64572,-0.85707 1.99146,-2.82445 3.47717,-3.8942c1.47791,-2.20951 6.20224,-1.1647 7.85023,1.13894c4.72325,6.60234 -3.49031,9.57131 -4.97273,26.81196z" fill="#ffab19" stroke="#001026" stroke-width="1.2"/></g><g fill-rule="nonzero" stroke="#000000" stroke-width="1.2" stroke-linejoin="miter"><path d="M272.41951,181.44546c0,0 -0.03751,-1.88049 1.76757,-2.36895c7.11939,-1.92651 7.75432,2.89995 10.43969,4.14506c3.1042,1.43932 6.94824,2.41731 7.20883,3.9688c0.37351,2.22375 -1.63583,3.55778 -3.69926,5.66246c-2.7793,2.83487 -6.26621,6.0923 -9.92548,5.57749c-2.85805,-0.40208 -0.20591,-7.58734 -0.16508,-7.63161c-2.13288,-1.39498 -3.81836,-3.46258 -4.38385,-5.39416" fill="#ffab19" stroke-linecap="butt"/><g stroke-linecap="round"><path d="M282.99313,199.1383l-4.10048,3.49059l-2.73365,0.50463l-1.06309,-1.74431l-1.36683,-0.05143l-1.21495,-3.85933" fill="#ffab19"/><path d="M276.20915,185.01868l12.5402,3.96916l0.00109,6.5949l-3.57289,5.54805l-3.52035,-0.05264l-0.74875,-0.72912l-3.73436,-0.73202l-1.28349,-0.77886l-4.0374,-0.87012l-2.45405,-5.91496z" fill="#ffab19"/><path d="M275.07846,193.9777l1.15906,2.85564l-2.35657,-2.34084z" fill="none"/><path d="M280.03418,195.10179l1.06118,3.7808" fill="none"/></g></g><g><g><g><g><path d="M237.61142,145.99558c0,0 -9.99786,-25.7149 -8.95226,-25.97501c1.40864,-0.35043 28.72158,3.87241 28.72158,3.87241" fill="#ffab19" fill-rule="nonzero" stroke="#001026" stroke-width="1.2" stroke-linecap="round" stroke-linejoin="miter"/><path d="M291.18232,135.61808l0.09617,-1.22145l4.87744,-1.51273l4.32805,4.25708l-0.56864,8.57555l-23.91308,14.11653z" fill="#9b7f41" fill-rule="nonzero" stroke="#001026" stroke-width="1.2" stroke-linecap="round" stroke-linejoin="miter"/><path d="M232.51517,167.34403c0,0 -6.79668,2.37806 -12.51564,0.4227" fill="none" fill-rule="evenodd" stroke="#001026" stroke-width="1.2" stroke-linecap="round" stroke-linejoin="round"/><path d="M234.16514,173.02272c0,0 -3.0106,3.12349 -9.09932,4.81689" fill="none" fill-rule="evenodd" stroke="#001026" stroke-width="1.2" stroke-linecap="round" stroke-linejoin="round"/><path d="M251.53375,132.28318c10.12641,-5.26281 41.09934,-5.67669 41.68876,22.27043c0.0077,0.36435 -0.06912,0.72596 -0.14455,1.08589c-2.75445,13.14469 -15.18561,23.11899 -34.11317,26.09849c-18.92755,2.97952 -26.76807,-5.65335 -27.598,-11.41886c-0.82992,-5.76552 5.11749,-10.17551 5.11749,-10.17551c0,0 -1.45107,-4.26081 -0.33391,-10.52513c0,0 0.58838,-9.6462 15.38334,-17.33531z" fill="#ffab19" fill-rule="evenodd" stroke="#001026" stroke-width="1.2" stroke-linecap="butt" stroke-linejoin="miter"/><path d="M254.08277,159.3535c8.0954,-2.32045 15.77207,-14.8156 25.73844,-7.06633c9.93205,7.65535 4.07503,25.12834 -20.37062,28.74088c-18.70537,3.00478 -26.74992,-5.02115 -27.57985,-10.78667c-0.82992,-5.76552 5.03265,-9.82508 5.03265,-9.82508c7.33099,-4.70283 10.24535,0.93957 17.17936,-1.0628z" fill="#ffffff" fill-rule="evenodd" stroke="none" stroke-width="1" stroke-linecap="butt" stroke-linejoin="miter"/><path d="M258.33252,156.41585c0.54934,1.50274 -2.53705,5.29278 -4.2963,5.72293c-1.53709,0.45541 -3.90722,-1.65942 -4.29396,-3.00862c-0.14641,-0.69178 1.8512,-1.63496 3.82354,-2.35594c1.87843,-0.68666 4.44864,-1.51972 4.76671,-0.35833z" fill="#001026" fill-rule="evenodd" stroke="#001026" stroke-width="1.2" stroke-linecap="round" stroke-linejoin="round"/><path d="M287.53403,146.56337c-1.99116,5.70659 -8.05709,9.58662 -8.05709,9.58662" fill="none" fill-rule="evenodd" stroke="#001026" stroke-width="1.2" stroke-linecap="round" stroke-linejoin="round"/><path d="M292.3327,156.76645c-5.09027,3.74557 -9.40599,4.18658 -9.40599,4.18658" fill="none" fill-rule="evenodd" stroke="#001026" stroke-width="1.2" stroke-linecap="round" stroke-linejoin="round"/><path d="M278.58953,136.8917l-42.45615,10.04965l-4.23843,-22.40348l47.12389,-10.15963l16.84128,15.01102l-3.16576,16.93924z" fill="#c58600" fill-rule="nonzero" stroke="#001026" stroke-width="1.2" stroke-linecap="round" stroke-linejoin="miter"/><path d="M278.55066,136.69552l0.31094,-22.0822" fill="none" fill-rule="nonzero" stroke="#001026" stroke-width="0.75" stroke-linecap="round" stroke-linejoin="miter"/><path d="M286.4992,121.25464l-7.01017,-6.56185c0,0 14.98067,6.88677 16.07683,7.00809c1.22843,0.13595 -6.07136,14.65962 -6.07136,14.65962z" fill="#ffab19" fill-rule="nonzero" stroke="#001026" stroke-width="1.2" stroke-linecap="round" stroke-linejoin="miter"/></g><path d="M217.22536,160.35102c-8.64513,-20.00772 2.32159,-43.99397 24.49483,-53.57481c22.17325,-9.58084 47.15648,-1.12819 55.80162,18.87954c8.64513,20.00772 -2.32159,43.99397 -24.49483,53.57481c-22.17325,9.58084 -47.15648,1.12819 -55.80162,-18.87953z" fill="none" fill-rule="nonzero" stroke="#ffffff" stroke-width="1.2" stroke-linecap="butt" stroke-linejoin="miter"/><path d="M277.58734,109.07243l0.78274,7.23704l-7.57607,3.45901l-9.61578,-2.4417l3.11435,-11.70593z" fill="#ffffff" fill-rule="nonzero" stroke="#001026" stroke-width="0" stroke-linecap="round" stroke-linejoin="miter"/><path d="M286.21748,120.9489l7.14132,1.07199l-7.10171,-0.82965" fill="#000000" fill-rule="nonzero" stroke="none" stroke-width="0" stroke-linecap="round" stroke-linejoin="miter"/></g><g><g fill-rule="evenodd"><path d="M246.58593,141.75785c3.2478,0.72926 4.90487,5.55358 3.72611,10.7757c-1.27265,5.25645 -4.87204,8.80813 -8.11985,8.07886c-3.2478,-0.72926 -4.90486,-5.55358 -3.72611,-10.77572c1.17874,-5.22215 4.83771,-8.90205 8.11985,-8.07886z" fill="#ffffff" stroke="#001026" stroke-width="1.2" stroke-linecap="round" stroke-linejoin="round"/><path d="M237.61307,153.25c-0.37767,-1.03314 0.0647,-2.1531 1.00393,-2.49641c0.93921,-0.34334 1.99958,0.22729 2.37725,1.26042c0.37767,1.03314 -0.0647,2.1531 -1.00392,2.49641c-0.93921,0.34334 -1.99958,-0.22728 -2.37725,-1.26042" fill="#001026" stroke="none" stroke-width="1" stroke-linecap="butt" stroke-linejoin="miter"/></g><g fill-rule="evenodd"><path d="M270.4137,137.62412c3.6669,1.00194 5.43604,6.42414 4.03512,11.62101c-1.30699,5.16253 -4.95887,7.98808 -8.7106,7.33658c-3.18821,-0.85753 -5.23003,-5.86059 -3.92304,-11.02314c1.30699,-5.16253 4.8973,-9.0303 8.59855,-7.93444z" fill="#ffffff" stroke="#001026" stroke-width="1.2" stroke-linecap="round" stroke-linejoin="round"/><path d="M261.18432,148.99715c-0.37767,-1.03314 0.09903,-2.05917 1.00394,-2.49643c0.93921,-0.34334 1.99958,0.2273 2.37725,1.26043c0.37767,1.03314 -0.0647,2.1531 -1.00392,2.49641c-0.93921,0.34334 -1.99958,-0.22729 -2.37725,-1.26043" fill="#001026" stroke="none" stroke-width="1" stroke-linecap="butt" stroke-linejoin="miter"/></g><g fill="#000000" fill-rule="nonzero" stroke="#001026" stroke-width="1" stroke-linecap="round" stroke-linejoin="miter" font-family="&quot;Times New Roman&quot;" font-weight="400" font-size="16" text-anchor="start"/></g></g><path d="M254.16664,173.99447c5.12448,1.8665 9.01053,4.11579 8.67977,5.02392c-0.33077,0.90813 -4.75313,0.13123 -9.8776,-1.73527c-5.12448,-1.8665 -9.01053,-4.11579 -8.67977,-5.02392c0.33077,-0.90813 4.75313,-0.13123 9.8776,1.73527z" fill="#ffffff" fill-rule="nonzero" stroke="#001026" stroke-width="1.2" stroke-linecap="butt" stroke-linejoin="miter"/></g><g fill-rule="nonzero" stroke="#000000" stroke-width="1.2" stroke-linejoin="miter"><path d="M238.5618,186.594c-4.68115,-0.70449 -7.90488,-5.07042 -7.20039,-9.75157c0.70449,-4.68115 5.07042,-7.90488 9.75157,-7.20039c4.68115,0.70449 7.90489,5.07041 7.20039,9.75157c-0.70449,4.68115 -5.0704,7.90487 -9.75157,7.20039z" fill="#5c5e5f" stroke-linecap="butt"/><g stroke-linecap="round"><path d="M243.72393,186.85081l2.51561,4.01912l-1.17925,2.07621l-0.66331,4.4075l-3.80597,-0.0527z" fill="#ffab19"/><path d="M240.97134,182.10257l4.10876,4.95231l-1.45988,3.94092l-0.06008,1.55118l-1.40887,3.60188l0.18596,1.06815l-1.84089,3.01677l-6.37426,-0.26586l-5.30445,-3.91875l3.51559,-12.99293z" fill="#ffab19"/><path d="M241.97603,190.40166l-1.67708,-2.67942" fill="none"/><path d="M238.39801,192.29021l2.47364,3.146" fill="none"/></g><path d="M238.03916,198.13041l-1.26486,3.7969l-3.88251,0.45587l-2.69419,-2.83248l1.1373,-2.94931l3.98454,-1.13394z" fill="#5c5e5f" stroke-linecap="round"/></g></g></g></svg>