<svg version="1.1" xmlns="http://www.w3.org/2000/svg" xmlns:xlink="http://www.w3.org/1999/xlink" width="71.33889" height="71.66708" viewBox="0,0,71.33889,71.66708"><g transform="translate(-204.32626,-144.16646)"><g stroke="#000000" stroke-width="0" stroke-linecap="round" stroke-linejoin="round" stroke-miterlimit="10"><path d="M275.66514,180.00416c0.00002,1.09247 -33.54145,35.96346 -34.95528,35.82899c-1.21937,-0.11597 -15.81249,-11.16073 -15.82464,-12.53409c-0.01147,-1.29564 20.59938,-16.77015 14.62492,-14.46618c-3.49795,1.34893 -32.09787,7.49052 -33.14269,6.59645c-1.05564,-0.90333 -2.23155,-11.03913 -2.00712,-15.41384v-0.03098c-0.22442,-4.37471 0.694,-14.63925 1.74964,-15.54258c1.04483,-0.89407 29.64475,4.99004 33.14269,6.33896c5.97447,2.30397 -14.3789,-13.04179 -14.36744,-14.33743c0.01214,-1.37337 14.60528,-12.16064 15.82465,-12.27661c1.41383,-0.13447 34.95531,34.73652 34.95528,35.82899z" fill="#ff0000"/><path d="M272.90799,180.00385c0.00002,1.00789 -30.94475,33.17924 -32.24912,33.05518c-1.12497,-0.107 -13.02787,-8.56285 -13.03907,-9.82989c-0.01058,-1.19534 19.69816,-18.0726 14.18623,-15.94701c-3.22714,1.2445 -32.21369,6.56642 -33.17762,5.74156c-0.97391,-0.83339 -1.71201,-8.97338 -1.50496,-13.0094l0.00001,-0.02858c-0.20705,-4.03602 0.46688,-12.64154 1.4408,-13.47493c0.96393,-0.82486 29.60371,4.43289 32.83085,5.67738c5.51193,2.12559 -14.30604,-14.45951 -14.29546,-15.65485c0.0112,-1.26704 12.43426,-9.48534 13.55923,-9.59233c1.30437,-0.12406 32.24914,32.04729 32.24912,33.05518z" fill="#000000"/></g></g></svg>