<svg version="1.1" xmlns="http://www.w3.org/2000/svg" xmlns:xlink="http://www.w3.org/1999/xlink" width="70.3455" height="72.29179" viewBox="0,0,70.3455,72.29179"><g transform="translate(-204.82725,-143.85411)"><g stroke-width="0" stroke-linecap="round" stroke-miterlimit="10"><path d="M275.17276,183.0585l-32.76302,33.08741l-5.74627,-0.18536l-14.273,-11.58523l-1.43657,-6.39504l5.19018,-2.96582l-14.273,2.96582l-7.04382,-4.26336v-27.43381l7.04382,-4.26336l14.273,2.96582l-5.19018,-2.96582l1.43657,-6.39504l14.273,-11.58523l5.74627,-0.18536l32.76302,33.27277z" fill="#3f0f0f" stroke="#000000"/><path d="M273.59717,182.4329l-32.20693,31.97522l-4.17068,-0.2317l-13.20716,-11.12182l-0.92682,-3.70727l7.41454,-6.02432l-17.60954,3.01216l-5.79261,-3.47557v-25.4875l5.79261,-3.47557l17.60954,3.01216l-7.41454,-6.02432l0.92682,-3.70727l13.20716,-11.12182l4.17068,-0.2317l32.20693,31.97522z" fill="#d1b1b1" stroke="#ffffff"/><path d="M271.55116,181.32946l-31.1732,31.35932l-1.99803,0.02082l-12.14404,-10.70734l-0.21422,-2.97016l12.67396,-8.85496l-25.45346,3.87883l-3.58844,-2.38599l-0.00001,-23.12456l3.58845,-2.386l25.45345,3.87884l-12.67394,-8.85496l0.21422,-2.73845l12.14405,-11.15443l1.99803,0.02082l31.17319,31.57472z" fill="#9e5f5f" stroke="#ffffff"/></g></g></svg>