<svg version="1.1" xmlns="http://www.w3.org/2000/svg" xmlns:xlink="http://www.w3.org/1999/xlink" width="116.872" height="120.73118" viewBox="0,0,116.872,120.73118"><g transform="translate(-189.32038,-120.43829)"><g stroke-miterlimit="10"><path d="M240.63511,214.76999l0.15802,-0.01498c0.37607,0.28079 0.75214,0.56157 1.1282,0.84236c2.2253,4.02578 0.47471,6.67556 -0.13046,10.8192c-0.19536,1.33766 0.73498,1.8329 1.10946,2.64546c0.28386,0.61592 0.6715,2.72492 0.64968,3.51372c-0.11888,4.29696 -4.24612,5.48409 -6.3347,3.11475c-0.86314,-0.97917 -1.21453,-2.6453 -1.89479,-3.8467c-1.41749,-2.68189 -4.5515,-1.00033 -4.97626,-5.29686c-0.05594,-0.56583 0.10294,-1.13366 0.16909,-1.69724c0.06673,-0.56858 0.06089,-1.17444 0.22942,-1.69819c1.28216,-3.98471 4.14112,-4.13293 6.45861,-5.8745c0.7408,-0.55671 1.27293,-1.93563 1.77497,-2.83294c0,0 0.60073,-1.07369 1.35166,-0.21474c0.15293,0.17494 0.2498,0.35878 0.3071,0.54065z" fill="#9a8479" stroke="#000000" stroke-width="1.2" stroke-linecap="butt"/><path d="M263.34984,214.68388c1.07369,-0.85895 1.93265,0.21474 1.93265,0.21474c0.71785,0.89731 1.4787,2.27623 2.53794,2.83294c3.31364,1.74158 7.40151,1.88979 9.2348,5.8745c0.24097,0.52375 0.23262,1.12962 0.32803,1.69819c0.09457,0.56358 0.32175,1.13141 0.24177,1.69724c-0.60734,4.29653 -5.08848,2.61496 -7.11527,5.29686c-0.97267,1.2014 -1.4751,2.86752 -2.70926,3.84669c-2.98635,2.36934 -8.88765,1.18221 -9.05761,-3.11474c-0.0312,-0.78881 0.52307,-2.8978 0.92894,-3.51372c0.53545,-0.81255 1.86568,-1.3078 1.58635,-2.64546c-0.8653,-4.14364 -3.36836,-6.79342 -0.18654,-10.8192c0.53772,-0.28079 1.07544,-0.56157 1.61315,-0.84236l0.22595,0.01498c0.08193,-0.18187 0.22044,-0.36571 0.43911,-0.54065z" fill="#9a8479" stroke="#000000" stroke-width="1.2" stroke-linecap="butt"/><path d="M255.57121,212.35404c11.05049,1.63668 13.17057,11.93243 11.5361,20.01691c-0.77565,1.37986 -1.11901,2.71915 -2.38079,3.85239c-6.77549,6.08524 -20.00759,5.58702 -26.80834,-0.28631c-2.5947,-3.39578 -4.9543,-8.71568 -3.42608,-12.84455c2.07627,-5.60953 7.80755,-9.59776 14.37601,-10.55219c2.02728,0 3.73145,-0.03871 5.47724,0.13421c0.47759,-0.42939 1.22585,-0.32047 1.22585,-0.32047z" fill="#9a8479" stroke="#000000" stroke-width="1.2" stroke-linecap="butt"/><path d="M208.26019,170.76047c0.2554,0.25356 0.50597,0.51042 0.75156,0.77019c0.35208,7.14535 1.3311,14.41616 2.64912,21.59925c-2.78949,-0.09984 -6.41699,-1.98114 -10.07236,-5.6102c-6.4349,-6.3886 -13.20284,-17.57485 -11.3605,-22.20279c1.84233,-4.62794 11.59728,-0.94506 18.03219,5.44355z" fill="#9a8479" stroke="#000000" stroke-width="1.2" stroke-linecap="butt"/><path d="M208.99248,171.93495l-0.3143,-5.5236" fill="none" stroke="#000000" stroke-width="1.2" stroke-linecap="round"/><path d="M212.28948,196.99186l-0.9072,-5.28391" fill="none" stroke="#000000" stroke-width="1.2" stroke-linecap="round"/><path d="M209.31151,176.4505c0.26734,5.35446 1.17202,10.95553 2.14265,16.22195c-2.03099,0.26112 -4.67485,-0.72219 -7.34168,-3.02224c-4.69468,-4.04901 -12.58112,-13.46017 -11.24697,-17.17794c1.24692,-3.4747 16.44599,3.97823 16.44599,3.97823z" fill="#ee4036" stroke="#000000" stroke-width="1.2" stroke-linecap="butt"/><path d="M199.16039,177.94676c-0.52622,-23.01144 19.69804,-42.1128 45.17214,-42.66409c25.4741,-0.5513 46.55155,17.65625 47.07776,40.66769c0.52622,23.01144 -19.69804,42.1128 -45.17215,42.6641c-25.47411,0.55129 -46.55154,-17.65625 -47.07776,-40.66769z" fill="#9a8479" stroke="#000000" stroke-width="1.2" stroke-linecap="butt"/><path d="M215.23897,145.42168c0,0 0.88213,-15.45755 1.00946,-15.50224c4.98,-1.74804 14.6935,6.31647 14.6935,6.31647c0,0 -3.01591,-15.19981 -2.84815,-15.19762c14.59248,0.19067 29.89198,14.8335 29.89198,14.8335l0.59548,-13.7241c0,0 33.02403,5.42971 32.776,51.48174" fill="#9a8479" stroke="#000000" stroke-width="1.2" stroke-linecap="round"/><path d="M236.84972,169.01829c17.67688,-0.38292 32.92929,6.27336 33.78181,18.96933c0.85252,12.69597 -12.78633,23.29849 -30.46322,23.68141c-17.67688,0.38292 -29.66114,-8.42018 -32.78122,-20.75629c-2.9679,-11.73443 11.78575,-21.51153 29.46263,-21.89445z" fill="#e6e7e8" stroke="#000000" stroke-width="1.2" stroke-linecap="butt"/><path d="M218.69252,170.94665c0,0 10.31502,-3.88322 15.65038,-4.26633c5.19278,-0.37287 15.9456,1.99753 15.9456,1.99753c0,0 2.13131,8.61063 2.0247,8.64129c-4.48465,1.28972 -9.61035,-3.59113 -9.61035,-3.59113l0.73363,7.97062c0,0 -19.21948,-1.47566 -24.74395,-10.752z" fill="#9a8479" stroke="#000000" stroke-width="0" stroke-linecap="round"/><path d="M250.28851,168.67785c0,0 2.13131,8.61063 2.0247,8.64128c-4.48465,1.28972 -9.61036,-3.59114 -9.61036,-3.59114l0.73364,7.97062c0,0 -19.21948,-1.47565 -24.74395,-10.75199" fill="none" stroke="#000000" stroke-width="1.2" stroke-linecap="round"/><path d="M284.09308,172.02268c7.28553,-5.41684 18.62943,-7.60538 21.03745,-2.67641c2.40803,4.92897 -5.0317,15.10896 -12.31723,20.52579c-4.13857,3.07704 -8.33141,4.40446 -11.62282,4.07362c1.19915,-7.00481 1.99334,-14.15003 2.05291,-21.26622c0.27725,-0.22274 0.56052,-0.44178 0.84969,-0.65678z" fill="#9a8479" stroke="#000000" stroke-width="1.2" stroke-linecap="butt"/><path d="M283.28632,173.08815l0.09583,-5.49455" fill="none" stroke="#000000" stroke-width="1.2" stroke-linecap="round"/><path d="M280.64029,197.72413l0.80845,-5.16239" fill="none" stroke="#000000" stroke-width="1.2" stroke-linecap="round"/><path d="M302.37073,176.11935c1.76208,3.93707 -7.08798,12.16285 -12.43378,15.50073c-3.0367,1.89609 -6.11193,2.47435 -8.52503,1.89846c0.88426,-5.13504 1.6739,-10.61612 1.72269,-15.94818c0,0 17.58925,-5.13067 19.23612,-1.45101z" fill="#ee4036" stroke="#000000" stroke-width="1.2" stroke-linecap="butt"/><path d="M226.64061,208.70017c0,0 3.44163,-7.3905 15.13158,-1.48013l-15.14404,1.54511" fill="#706d6d" stroke="#000000" stroke-width="1.2" stroke-linecap="round"/><path d="M254.75311,193.29333l-1.29474,-0.1217c-3.29651,0.01357 -6.60927,0.22136 -9.84349,0.70912c0,0 -1.55958,0.23442 -1.88249,-1.23735c-0.32291,-1.47178 1.23668,-1.70619 1.23668,-1.70619c3.39603,-0.50881 6.86488,-0.72633 10.32529,-0.74619l1.61208,0.13492c0,0 1.59081,0.14043 1.51414,1.62413c-0.07666,1.4837 -1.66748,1.34325 -1.66748,1.34325z" fill="#000000" stroke="none" stroke-width="0.5" stroke-linecap="butt"/><path d="M214.88915,190.71197c0.09131,-1.49673 1.3973,-1.49231 1.3973,-1.49231l1.3227,0.0119c2.80721,0.33628 5.60082,0.87175 8.30516,1.69307c0,0 1.24185,0.37793 0.8274,1.82616c-0.41445,1.44823 -1.65631,1.0703 -1.65631,1.0703c-2.57516,-0.7854 -5.24305,-1.29685 -7.91784,-1.61182l-1.06369,0.00383c0,0 -1.30601,-0.00442 -1.21471,-1.50114z" fill="#000000" stroke="none" stroke-width="0.5" stroke-linecap="butt"/></g></g></svg>