<svg version="1.1" xmlns="http://www.w3.org/2000/svg" xmlns:xlink="http://www.w3.org/1999/xlink" width="134.76447" height="82.93585" viewBox="0,0,134.76447,82.93585"><g transform="translate(-174.77804,-150.2622)"><g stroke-miterlimit="10"><g fill-rule="evenodd" stroke="#000000"><path d="M209.61101,213.1924c2.87029,-1.84926 3.92769,-7.79544 4.99296,-8.1187c0.90715,-0.30899 2.87958,-0.94123 4.27734,2.22741c1.39775,3.16867 -2.71004,7.85609 -3.25899,8.36002c-2.03762,2.00141 -4.64508,4.39503 -8.7807,6.35835c-11.95327,5.73549 -23.75255,-0.58546 -22.95694,-4.06544c0.727,-3.417 9.14683,-0.54053 17.30861,-1.61708c3.61686,-0.43965 6.32316,-1.87651 8.41772,-3.14459z" fill="#5cb1d6" stroke-width="1.2" stroke-linecap="round" stroke-linejoin="round"/><path d="M184.47548,217.67356c1.01415,-1.45471 2.70048,-1.03869 5.85794,-0.92568c3.51566,0.30794 9.04559,0.20707 9.04559,0.20707c0,0 -3.34477,1.89204 -3.26345,4.04327c-0.00239,1.70434 2.24212,2.52452 3.00618,2.73965c-2.05615,0.18535 -4.7659,0.31599 -8.5862,-0.75974c-3.82035,-1.07573 -6.89511,-3.75239 -6.06003,-5.30457z" fill="#5cb1d6" stroke-width="0" stroke-linecap="butt" stroke-linejoin="miter"/></g><g fill-rule="nonzero" stroke="#000000" stroke-width="1.2" stroke-linejoin="miter"><path d="M224.65186,188.64395c0.93416,2.51756 -0.43692,4.76782 -3.06241,5.02605c-0.59635,0.05866 -1.20613,0.0095 -1.8034,-0.13102c-1.6922,0.44586 -4.3822,-2.97852 -5.72307,-3.90541c-5.04191,-3.48525 -7.30724,-6.55928 -9.04684,-12.47681c-0.71087,-2.41819 -0.23867,-4.70136 3.06241,-5.02604c1.18088,-0.11614 2.15742,0.03629 2.981,0.38105c3.54644,1.48456 4.25577,6.53536 6.22694,9.06243c1.30167,1.66877 8.118,5.53223 7.36539,7.06977z" fill="#ffbf00" stroke-linecap="butt"/><g><path d="M210.63484,166.49467c-4.7547,-0.61598 -8.98483,-4.59671 -9.44825,-8.89124c-0.46343,-4.29453 3.01534,-7.2766 7.77003,-6.66064c4.7547,0.61598 8.98483,4.59672 9.44825,8.89126c0.46343,4.29453 -3.01533,7.27659 -7.77003,6.66063z" fill="#323388" stroke-linecap="butt"/><g stroke-linecap="round"><path d="M215.74998,166.69732l3.45172,3.6674l-0.64274,1.91021l0.43634,4.04349l-3.73767,-0.02419z" fill="#7e5765"/><path d="M211.88678,162.36322l5.24069,4.51254l-0.45815,3.62093l0.32324,1.42198l-0.49171,3.30988l0.44506,0.97772l-1.05859,2.77642l-6.30363,-0.20325l-6.1563,-3.55774l0.24063,-11.92972z" fill="#ffbf00"/><path d="M212.61277,167.51762l2.30115,2.44493" fill="none"/><path d="M211.87737,171.716l3.19563,2.86751" fill="none"/></g><path d="M212.96454,177.07058l-0.30275,3.48771l-3.68734,0.44235l-3.33424,-2.57878l0.38666,-2.71011l3.6202,-1.06447z" fill="#323388" stroke-linecap="round"/></g></g><g fill-rule="nonzero" stroke-linejoin="miter"><path d="M192.42451,189.36447c5.29082,2.37917 2.10819,7.40666 2.10819,7.40666c0,0 12.16561,-0.30484 17.47944,0.88036c0.55616,-2.28181 1.73567,-4.41045 3.92729,-6.19704c3.13771,-2.55782 11.37899,-4.3668 16.70726,-2.50095c0.34993,0.06137 0.68697,0.16644 0.99129,0.31282c2.67055,0.76526 4.69601,3.19287 5.61357,5.21702c0.17728,0.30582 0.34737,0.61557 0.51452,0.92445c3.2189,5.94859 -0.28345,10.47791 -6.40058,14.23914c-0.62299,0.38307 -1.912,1.30279 -3.3371,2.07268c1.99093,2.84981 -0.84401,6.30207 -3.45099,7.83762c1.65908,2.41368 4.79908,6.30935 4.46759,7.56534c-0.47942,1.81652 -7.77499,3.90845 -9.94983,4.44309c-3.34242,0.82165 -9.03513,1.02388 -9.03513,1.02388l-8.83716,-8.32617l9.80032,-16.56163c0,0 -16.45793,-2.32198 -27.04559,-2.36606c-4.84671,-0.02018 -10.63668,-0.9002 -10.59938,-4.18539c0.03447,-3.03667 0.75988,-10.54626 2.35196,-13.32738c0,0 9.40352,-0.83759 14.69436,1.54155z" fill="#cf63cf" stroke="#000000" stroke-width="1.2" stroke-linecap="butt"/><path d="M215.5273,201.60133c-0.35954,-2.86102 -0.95783,-5.56785 1.9095,-7.90525c4.56977,-3.7252 11.6055,0.40255 12.65013,4.14789c1.68524,6.04221 -13.35403,10.33111 -14.37447,4.12904z" fill="#cf63cf" stroke="none" stroke-width="0.5" stroke-linecap="butt"/><path d="M213.60782,219.31937c5.92226,-3.17402 7.72045,-2.96224 7.72045,-2.96224c0,0 2.7531,0.43001 5.25406,3.26505" fill="none" stroke="#000000" stroke-width="1.2" stroke-linecap="round"/></g><path d="M234.73794,202.80688c0.40685,0.51792 0.75877,1.05102 1.03677,1.56992c0.42389,0.79115 0.30643,1.38025 -0.12939,1.77272c0.32893,1.68426 -2.23931,2.77832 -2.6085,3.87129c-2.59673,7.68787 -7.2221,3.61774 -15.47683,-2.37957c-3.60039,-2.61579 -6.84366,-4.92463 -9.98865,-7.82314c-1.61419,-1.48767 -5.37311,-6.95215 -3.13368,-7.16252c0.01174,-0.01548 0.02382,-0.03064 0.03623,-0.04547c0.07227,-0.18358 0.16452,-0.37391 0.27823,-0.57132c1.41615,-2.45844 7.02133,-0.45364 10.61517,2.85852c1.28723,1.18634 3.4213,2.95045 4.29112,4.29396c0.2077,0.32081 2.5441,3.18324 2.62784,3.10014c1.51445,-1.50286 2.30086,-3.31743 4.55464,-3.56811" fill="#cf63cf" fill-rule="nonzero" stroke="#000000" stroke-width="1.2" stroke-linecap="butt" stroke-linejoin="miter"/><g><g><g stroke="#000000"><path d="M245.89725,168.72712c0,0 21.59097,-11.68457 22.30752,-10.94405c0.96532,0.99761 8.57087,22.1394 8.57087,22.1394" fill="#ffbf00" fill-rule="nonzero" stroke-width="1.2" stroke-linecap="round" stroke-linejoin="miter"/><path d="M279.63358,207.14781l-4.69055,13.82027l-6.68455,-0.11483l-19.64012,-21.11942z" fill="#ffab19" fill-rule="nonzero" stroke-width="1.2" stroke-linecap="round" stroke-linejoin="miter"/><path d="M222.15328,168.39614c0,0 -5.3507,-4.70126 -5.86292,-9.30294" fill="none" fill-rule="evenodd" stroke-width="1.2" stroke-linecap="round" stroke-linejoin="round"/><path d="M217.1429,170.55871c0,0 -4.45787,-1.74447 -8.81054,-6.02738" fill="none" fill-rule="evenodd" stroke-width="1.2" stroke-linecap="round" stroke-linejoin="round"/><path d="M265.77412,176.91385c9.70641,6.72368 23.57803,29.8492 -4.35108,34.85294c-0.3641,0.06523 -0.76215,0.06676 -1.1579,0.06904c-14.45314,0.08329 -29.9123,-7.59706 -41.13906,-21.28393c-11.22676,-13.68687 -5.92619,-20.96732 -0.47209,-22.53c5.45413,-1.56269 12.48515,2.17091 12.48515,2.17091c0,0 3.66674,-1.78217 10.46974,-1.96828c0,0 9.98392,-1.13415 24.16524,8.68933z" fill="#ffbf00" fill-rule="evenodd" stroke-width="1.2" stroke-linecap="butt" stroke-linejoin="miter"/><path d="M239.58051,183.24187c5.85672,5.68315 21.79294,9.39174 18.30694,18.11982c-3.4062,8.68705 -23.5722,7.15371 -37.83438,-10.5619c-11.15573,-13.51638 -6.55588,-20.85053 -1.10178,-22.41321c5.45413,-1.56269 12.09486,2.16459 12.09486,2.16459c7.92736,4.72182 3.50286,7.82529 8.53434,12.6907z" fill="#ffab19" fill-rule="evenodd" stroke-width="0" stroke-linecap="butt" stroke-linejoin="miter"/><path d="M244.38918,185.94456c-1.2769,0.65668 -6.43991,-1.03574 -7.63792,-2.28288c-1.12696,-1.07665 -0.02372,-3.1967 1.16902,-3.70655c0.63408,-0.22257 2.45302,1.11932 4.03691,2.47853c1.50847,1.29451 3.46511,3.08312 2.432,3.51091z" fill="#000000" fill-rule="evenodd" stroke-width="1.2" stroke-linecap="round" stroke-linejoin="round"/><path d="M267.01034,206.20277c-6.62015,-0.55943 -13.16816,-4.46827 -13.16816,-4.46827" fill="none" fill-rule="evenodd" stroke-width="1.2" stroke-linecap="round" stroke-linejoin="round"/><path d="M258.80482,211.46172c-5.98863,-3.20022 -8.30806,-6.3599 -8.30806,-6.3599" fill="none" fill-rule="evenodd" stroke-width="1.2" stroke-linecap="round" stroke-linejoin="round"/><path d="M272.87899,197.92604l-28.57761,-30.1513l20.75316,-6.8312l30.71614,33.62863l-7.82327,15.06162l-18.45867,0.39477z" fill="#ffbf00" fill-rule="nonzero" stroke-width="1.2" stroke-linecap="round" stroke-linejoin="miter"/><path d="M273.05996,197.86492l22.40533,-3.37211" fill="none" fill-rule="nonzero" stroke-width="0.75" stroke-linecap="round" stroke-linejoin="miter"/><path d="M292.08508,201.29618l3.57261,-6.32058c0,0 12.92725,9.64505 13.28107,10.4857c0.39648,0.94206 -30.78709,0.54386 -30.78709,0.54386z" fill="#ffbf00" fill-rule="nonzero" stroke-width="1.2" stroke-linecap="round" stroke-linejoin="miter"/></g><g fill="none" fill-rule="nonzero" stroke="none" stroke-width="1" stroke-linecap="butt" stroke-linejoin="miter" font-family="sans-serif" font-weight="normal" font-size="12" text-anchor="start"><g/><g/><g/></g></g><g fill-rule="nonzero" stroke="#000000" stroke-width="1.2" stroke-linejoin="miter"><path d="M263.19796,204.23546c-6.39302,1.08277 -14.21253,-2.4813 -17.46536,-7.96055c-3.25284,-5.47926 -0.70715,-10.79881 5.68586,-11.88157c6.39302,-1.08277 14.21252,2.4813 17.46533,7.96056c3.25284,5.47926 0.70716,10.79881 -5.68586,11.88158z" fill="#ffab19" stroke-linecap="butt"/><path d="M244.03453,196.76984c0,0 -3.15615,-4.47832 -0.68825,-9.36647" fill="none" stroke-linecap="round"/><path d="M258.34374,205.59407c-2.21795,-0.19727 -5.1073,-1.47361 -5.1073,-1.47361" fill="none" stroke-linecap="round"/></g><g fill-rule="nonzero" stroke="#000000" stroke-width="1.2" stroke-linejoin="miter"><path d="M248.51052,169.35894c4.47339,2.82014 3.94343,7.08641 -1.18372,9.52897c-5.12715,2.44257 -12.90992,2.13645 -17.38331,-0.68371c-4.47339,-2.82014 -3.94343,-7.08641 1.18371,-9.52897c5.12715,-2.44257 12.90991,-2.13646 17.38332,0.6837z" fill="#ffab19" stroke-linecap="butt"/><path d="M238.92349,181.54227c-7.22923,-0.22642 -10.58535,-2.74352 -10.58535,-2.74352" fill="none" stroke-linecap="round"/><path d="M225.25467,172.95259c0,0 0.24355,-1.5658 1.34944,-2.56307" fill="none" stroke-linecap="round"/></g></g><path d="M224.67715,180.66253l15.60201,16.04636l-14.54711,6.19254l-11.62824,-16.32255z" fill="#ffab19" fill-rule="nonzero" stroke="#000000" stroke-width="1.2" stroke-linecap="round" stroke-linejoin="miter"/></g></g></svg>