<svg version="1.1" xmlns="http://www.w3.org/2000/svg" xmlns:xlink="http://www.w3.org/1999/xlink" width="91.50116" height="122.10251" viewBox="0,0,91.50116,122.10251"><g transform="translate(-187.18559,-109.0201)"><g stroke-miterlimit="10"><g fill-rule="evenodd"><path d="M257.67062,201.25422c2.36453,-0.41804 5.2096,-1.11979 7.46915,-3.24476c5.18689,-4.72747 6.3834,-12.801 10.30584,-10.55943c4.02224,2.24507 4.73147,15.395 -7.19821,18.98429c-4.10552,1.25871 -7.89826,1.12569 -10.99852,0.91678c-0.79847,-0.028 -7.72853,-0.97237 -10.33394,-4.47024c-2.60541,-3.49787 -0.96422,-4.34203 -0.19045,-4.71567c0.8674,-0.47053 7.58969,3.57248 10.94613,3.08903z" fill="#ffab19" stroke="#001026" stroke-width="1.2" stroke-linecap="round" stroke-linejoin="round"/><path d="M274.85909,187.62988c2.03323,0.67246 3.29072,4.92458 2.50878,8.40387c-0.78195,3.47926 -2.26772,5.2306 -3.48494,6.4904c0.15639,-0.69586 0.41976,-2.89083 -1.35728,-4.25564c-2.20099,-1.78044 -5.83834,-1.00628 -5.83834,-1.00628c0,0 2.85941,-3.70698 4.2896,-6.36199c1.4549,-2.25338 1.8613,-3.74201 3.88219,-3.27037z" fill="#ffffff" stroke="none" stroke-width="1" stroke-linecap="butt" stroke-linejoin="miter"/></g><g fill-rule="nonzero" stroke="#000000" stroke-width="1.2" stroke-linejoin="miter"><path d="M238.17543,187.55912c2.76131,-0.63341 5.26038,1.032 5.5818,3.7198c0.07301,0.61051 0.02738,1.22125 -0.11911,1.80805c0.51509,1.76695 -3.22094,4.06428 -4.22356,5.30595c-3.77011,4.66891 -7.12599,6.58003 -13.62284,7.60743c-2.65494,0.41985 -5.17767,-0.34038 -5.5818,-3.7198c-0.7671,-6.41476 6.88021,-6.0741 10.27776,-8.14575c1.82076,-1.11021 5.98277,-7.52725 7.68775,-6.57568z" fill="#ffab19" stroke-linecap="butt"/><g><path d="M217.35409,203.10547c-0.22401,4.72275 -4.26467,8.81413 -9.02505,9.13832c-4.76038,0.3242 -8.43785,-3.24154 -8.21385,-7.96429c0.22401,-4.72275 4.26466,-8.81413 9.02505,-9.13832c4.76038,-0.3242 8.43784,3.24153 8.21385,7.96429z" fill="#5c5e5f" stroke-linecap="butt"/><g stroke-linecap="round"><path d="M217.08028,198.00991l3.76618,-3.32502l2.2005,0.7025l4.48211,-0.30525l0.33871,3.72735z" fill="#ffab19"/><path d="M212.60832,201.72393l4.53684,-5.08224l4.09678,0.57336l1.55961,-0.27669l3.752,0.59685l1.05056,-0.41249l3.21048,1.14515l0.3894,6.28099l-3.3788,6.02621l-13.37333,-0.62348z" fill="#ffab19"/><path d="M220.81606,198.9488l-2.51079,2.21669" fill="none"/><path d="M223.07538,202.03392l2.89612,-3.09528" fill="none"/></g><path d="M228.96092,201.12168l3.9325,0.41409l0.85588,3.69213l-2.55946,3.24283l-3.07055,-0.47279l-1.54543,-3.64516z" fill="#5c5e5f" stroke-linecap="round"/></g></g><g fill-rule="nonzero" stroke-linecap="butt" stroke-linejoin="miter"><path d="M230.76974,226.53738c-1.0058,2.94229 -17.32194,3.9597 -17.32194,3.9597c0,0 -2.57598,-6.23217 1.59198,-8.22108c1.94231,-0.92685 7.90695,-5.05776 8.64297,-6.50056c2.57918,-5.05582 2.48569,-10.03129 7.04994,-14.15691c0.84082,-0.76001 2.63908,-2.52457 4.34493,-3.37358c1.98728,-1.98664 6.28428,-0.25263 7.29157,2.28587c2.88695,7.27546 -5.79695,9.03251 -11.59946,26.00657z" fill="#ffab19" stroke="#001026" stroke-width="1.2"/><g><path d="M233.01182,200.6362c-0.85615,-3.84225 3.09741,-9.56287 3.09741,-9.56287c0,0 -0.36044,-3.41392 1.19414,-5.80015c3.21349,-4.9326 18.0765,-5.54725 19.08992,2.37602c0.38024,2.97293 -1.53975,6.14497 -1.53975,6.14497c0,0 0.94647,5.65704 -0.25294,8.58435c-1.02011,2.48972 -7.85375,7.06294 -13.06396,6.08784c-0.5412,-0.10128 -1.04737,-0.22452 -1.52087,-0.36637" fill="#ffab19" stroke="#001026" stroke-width="1.2"/><path d="M240.10178,186.5102c3.35963,-2.39383 7.95221,0.79082 8.25918,4.71237c0.03705,0.47326 0.06693,1.02858 0.03907,1.58425c0.79542,2.02219 -1.26722,6.66087 -2.90192,7.13698c-5.65875,1.64811 -12.24236,-4.33273 -7.27935,-9.0245c0.03012,-1.72796 0.73799,-3.59323 1.88301,-4.4091z" fill="#ffffff" stroke="none" stroke-width="0.5"/></g><path d="M248.31111,206.08215c0.92273,2.38538 0.29548,6.49576 0.29548,6.49576c0,0 -1.47018,8.03961 -2.19504,9.28737c-3.29928,5.67923 -14.16886,9.15703 -14.78061,0.13742c-0.1439,-2.12172 1.30548,-3.60855 2.1815,-5.31538c0.39943,-0.77826 1.74812,-8.37963 1.17606,-10.88538c-0.99475,-4.35724 -3.64987,-9.43779 -2.4944,-13.91752c2.05678,-7.97403 17.80604,2.07573 18.2558,2.89481" fill="#ffab19" stroke="#001026" stroke-width="1.2"/></g><g><g><g><path d="M211.22555,150.05628c0,0 -6.84145,-26.72841 -5.77219,-26.86124c1.44051,-0.17895 28.04979,7.28932 28.04979,7.28932" fill="#ffab19" fill-rule="nonzero" stroke="#001026" stroke-width="1.2" stroke-linecap="round" stroke-linejoin="miter"/><path d="M265.65441,146.179l0.24196,-1.2011l5.02367,-0.91682l3.78621,4.74545l-1.59309,8.44544l-25.43359,11.1465z" fill="#9b7f41" fill-rule="nonzero" stroke="#001026" stroke-width="1.2" stroke-linecap="round" stroke-linejoin="miter"/><path d="M203.60555,170.63938c0,0 -7.03284,1.5457 -12.47599,-1.08148" fill="none" fill-rule="evenodd" stroke="#001026" stroke-width="1.2" stroke-linecap="round" stroke-linejoin="round"/><path d="M204.56251,176.47497c0,0 -3.36349,2.73985 -9.61138,3.69074" fill="none" fill-rule="evenodd" stroke="#001026" stroke-width="1.2" stroke-linecap="round" stroke-linejoin="round"/><path d="M226.69204,138.11271c10.68454,-4.01025 41.48352,-0.70625 38.7167,27.10982c-0.03606,0.36264 -0.1557,0.71241 -0.27375,1.06071c-4.31114,12.71943 -17.84888,21.13073 -36.99716,21.81856c-19.14828,0.68784 -25.89678,-8.8231 -26.0292,-14.64653c-0.13242,-5.82344 6.301,-9.48827 6.301,-9.48827c0,0 -0.92955,-4.40409 0.93089,-10.48921c0,0 1.74111,-9.506 17.35149,-15.36509z" fill="#ffab19" fill-rule="evenodd" stroke="#001026" stroke-width="1.2" stroke-linecap="butt" stroke-linejoin="miter"/><path d="M225.97585,165.29335c8.31527,-1.33273 17.43519,-12.81695 26.40017,-3.92825c8.94217,8.79135 1.03172,25.43571 -23.67074,26.09016c-18.93074,0.73957 -25.95458,-8.19329 -26.087,-14.01673c-0.13242,-5.82344 6.17475,-9.15054 6.17475,-9.15054c7.84213,-3.7896 10.0587,2.16161 17.18282,1.00537z" fill="#ffffff" fill-rule="evenodd" stroke="none" stroke-width="1" stroke-linecap="butt" stroke-linejoin="miter"/><path d="M230.54725,162.88661c0.36513,1.55778 -3.15355,4.95028 -4.95169,5.16632c-1.58061,0.26777 -3.67998,-2.11606 -3.90211,-3.50192c-0.06238,-0.70435 2.03394,-1.40112 4.07851,-1.88034c1.94723,-0.4564 4.5988,-0.97519 4.77528,0.21597z" fill="#001026" fill-rule="evenodd" stroke="#001026" stroke-width="1.2" stroke-linecap="round" stroke-linejoin="round"/><path d="M260.71968,156.60769c-2.66124,5.42658 -9.14875,8.55105 -9.14875,8.55105" fill="none" fill-rule="evenodd" stroke="#001026" stroke-width="1.2" stroke-linecap="round" stroke-linejoin="round"/><path d="M264.25994,167.31267c-5.50277,3.108 -9.84023,3.02819 -9.84023,3.02819" fill="none" fill-rule="evenodd" stroke="#001026" stroke-width="1.2" stroke-linecap="round" stroke-linejoin="round"/><path d="M252.99976,145.93303l-43.35502,4.88492l-1.52076,-22.75011l48.00226,-4.43426l14.91928,16.92261l-5.17461,16.43726z" fill="#c58600" fill-rule="nonzero" stroke="#001026" stroke-width="1.2" stroke-linecap="round" stroke-linejoin="miter"/><path d="M255.94193,123.84812l-2.95724,21.88549" fill="none" fill-rule="nonzero" stroke="#001026" stroke-width="0.75" stroke-linecap="round" stroke-linejoin="miter"/><path d="M262.72785,131.35754l-6.17254,-7.35527c0,0 14.04652,8.63384 15.12022,8.88576c1.20325,0.28231 -7.78581,13.82561 -7.78581,13.82561z" fill="#ffab19" fill-rule="nonzero" stroke="#001026" stroke-width="1.2" stroke-linecap="round" stroke-linejoin="miter"/></g><path d="M189.26487,161.86298c-6.183,-20.90018 7.58146,-43.39793 30.74377,-50.25015c23.16231,-6.85222 46.95138,4.5359 53.13438,25.43609c6.183,20.90018 -7.58146,43.39793 -30.74377,50.25015c-23.16231,6.85222 -46.95138,-4.5359 -53.13438,-25.43608z" fill="none" fill-rule="nonzero" stroke="#ffffff" stroke-width="1.2" stroke-linecap="butt" stroke-linejoin="miter"/><path d="M255.34145,118.19438l-0.09091,7.27869l-7.93625,2.52537l-9.25351,-3.5774l4.49588,-11.2479z" fill="#ffffff" fill-rule="nonzero" stroke="#001026" stroke-width="0" stroke-linecap="round" stroke-linejoin="miter"/><path d="M262.48482,131.02022l6.96119,1.92077l-6.95094,-1.67545" fill="#000000" fill-rule="nonzero" stroke="none" stroke-width="0" stroke-linecap="round" stroke-linejoin="miter"/></g><g><g fill-rule="evenodd"><path d="M220.64355,146.92554c3.13689,1.11354 4.20336,6.10178 2.40678,11.14483c-1.89393,5.06587 -5.89333,8.16019 -9.03021,7.04665c-3.13689,-1.11354 -4.20335,-6.10178 -2.40677,-11.14484c1.79657,-5.04306 5.8705,-8.25755 9.03021,-7.04665z" fill="#ffffff" stroke="#001026" stroke-width="1.2" stroke-linecap="round" stroke-linejoin="round"/><path d="M212.04662,158.72329c-0.25102,-1.07097 0.32248,-2.1298 1.29611,-2.35799c0.97361,-0.22821 1.95789,0.46547 2.20891,1.53646c0.25102,1.07097 -0.32248,2.1298 -1.2961,2.35799c-0.97361,0.22821 -1.95789,-0.46547 -2.20891,-1.53646" fill="#001026" stroke="none" stroke-width="1" stroke-linecap="butt" stroke-linejoin="miter"/></g><g fill-rule="evenodd"><path d="M244.7951,145.67956c3.52026,1.43452 4.62628,7.02976 2.61217,12.02109c-1.91675,4.9685 -5.88116,7.33565 -9.52767,6.23887c-3.06234,-1.23372 -4.48936,-6.44559 -2.57261,-11.41409c1.91675,-4.9685 5.94504,-8.37773 9.48812,-6.84585z" fill="#ffffff" stroke="#001026" stroke-width="1.2" stroke-linecap="round" stroke-linejoin="round"/><path d="M235.95779,157.32827c-0.25102,-1.07097 0.3453,-2.03243 1.29611,-2.358c0.97361,-0.22821 1.95788,0.46548 2.20891,1.53647c0.25102,1.07097 -0.32248,2.1298 -1.2961,2.35799c-0.97361,0.22821 -1.95789,-0.46548 -2.20891,-1.53647" fill="#001026" stroke="none" stroke-width="1" stroke-linecap="butt" stroke-linejoin="miter"/></g><g fill-rule="nonzero" stroke="#001026" stroke-linecap="round" stroke-linejoin="miter"><path d="M223.38468,177.87809c-0.21782,-0.16704 5.48946,-1.52763 10.98716,-4.12758c12.44639,-5.88607 12.75532,-8.00331 13.31525,-7.94694c1.03331,0.10405 5.10672,10.37234 -2.66942,14.23233c-7.47833,3.71216 -20.95271,-1.63614 -21.63298,-2.15783z" fill="#ffffff" stroke-width="1.2"/><path d="M248.10092,176.85867l-2.75204,-7.21293l3.33524,6.96823" fill="#000000" stroke-width="0"/><path d="M245.47487,179.26364l-1.31402,-4.11258l1.68271,3.68355" fill="#000000" stroke-width="0"/><path d="M224.50782,177.84149l9.33976,1.49962l4.15458,1.89194l-7.3002,-1.05222z" fill="#000000" stroke-width="0"/></g></g></g><g fill-rule="nonzero" stroke="#000000" stroke-width="1.2" stroke-linejoin="miter"><path d="M251.68739,184.12123c0,0 -0.03751,-1.88595 1.76757,-2.11195c7.11939,-0.89135 7.75432,4.02744 10.43969,5.66301c3.1042,1.89068 6.94824,3.4276 7.20883,5.01698c0.37351,2.27806 -1.63583,3.31993 -3.69926,5.12458c-2.7793,2.43076 -6.26621,5.18118 -9.92548,4.13431c-2.85805,-0.81764 -0.20591,-7.61728 -0.16508,-7.65561c-2.13288,-1.7051 -3.81836,-4.01778 -4.38385,-6.03158" fill="#ffab19" stroke-linecap="butt"/><g stroke-linecap="round"><path d="M262.26101,203.35149l-4.10048,2.89438l-2.73365,0.10715l-1.06309,-1.89888l-1.36683,-0.25016l-1.21495,-4.03598" fill="#ffab19"/><path d="M255.47703,188.24547l12.5402,5.79252l0.00109,6.59505l-3.57289,5.02855l-3.52035,-0.5645l-0.74875,-0.83799l-3.73436,-1.275l-1.28349,-0.96549l-4.0374,-1.45717l-2.45405,-6.27179z" fill="#ffab19"/><path d="M254.34634,197.04009l1.15906,3.02418l-2.35657,-2.68349z" fill="none"/><path d="M260.36324,202.81984l-1.06118,-3.9351" fill="none"/></g></g></g></g></svg>