<svg version="1.1" xmlns="http://www.w3.org/2000/svg" xmlns:xlink="http://www.w3.org/1999/xlink" width="102.26513" height="86.36321" viewBox="0,0,102.26513,86.36321"><g transform="translate(-180.43411,-138.87625)"><g fill="#ff0000" stroke-linecap="round" stroke-miterlimit="10"><path d="M210.83023,185.73943c-6.67862,-3.56193 -7.83172,-4.7145 -6.81095,-7.1791c1.55639,-3.75786 9.73072,5.53934 8.0995,2.20896c-1.63121,-3.33039 -8.03473,-6.59363 -12.70149,-11.22886c-4.66676,-4.63523 -21.01255,-9.09566 -15.2786,-15.27861c3.70783,-3.99816 7.59968,5.5697 14.91045,9.38806c7.31077,3.81836 8.90181,4.18347 14.72637,5.15423c5.82456,0.97076 -0.16682,-0.28014 -1.47264,-2.76119c-1.30581,-2.48105 -6.11937,-3.9648 -4.78607,-6.99502c1.3333,-3.03023 3.78484,1.30027 6.81095,2.39303c3.02611,1.09276 8.51613,3.98197 7.17911,1.65671c-1.33702,-2.32525 -7.38259,-3.97109 -11.04478,-8.28358c-3.66219,-4.31249 -14.05647,-9.61696 -9.0199,-13.43781c5.03656,-3.82084 8.4778,5.17242 14.35821,9.38806c5.88041,4.21564 13.77161,16.29321 26.32338,18.0398c6.87784,0.95705 5.69665,-6.72882 11.59702,-11.59701c1.689,-1.39353 3.4874,-6.68813 5.70647,-4.78607c2.21907,1.90206 -5.16786,7.2003 -1.84079,8.0995c3.32707,0.8992 5.01964,-3.88994 8.65174,-6.2587c3.63209,-2.36876 7.40725,-8.41661 8.28358,-4.78607c0.87633,3.63054 -4.07565,6.11024 -6.99502,10.12438c-2.91938,4.01414 -5.45286,5.70551 -7.73134,10.12438c-2.27848,4.41887 -5.08544,9.19314 -4.41791,13.43782c0.85916,5.46316 8.83478,14.56692 14.72637,25.21891c5.89159,10.65198 14.05034,12.54045 7.91542,14.35821c-6.13492,1.81776 -7.62888,-7.46288 -12.88557,-12.88557c-5.25669,-5.42269 -2.0038,-4.35479 -4.60199,-5.15423c-2.59819,-0.79944 -2.3952,1.12617 -2.57711,2.94528c-0.18191,1.81911 1.239,2.61253 1.84079,4.41791c0.60179,1.80539 4.43068,5.92053 1.8408,6.62686c-2.58988,0.70633 -3.71994,-3.01413 -5.89055,-5.52238c-2.1706,-2.50825 -0.99905,-2.83002 -2.39303,-4.04975c-1.39398,-1.21973 -1.59876,-0.66815 -2.02488,0.18408c-0.42612,0.85224 1.05417,6.45131 -0.73632,5.3383c-1.79048,-1.113 -3.19935,-6.18078 -6.07463,-9.57214c-2.87528,-3.39136 -7.7766,-9.21743 -15.09452,-13.80597c-7.31792,-4.58854 -11.91342,-1.96046 -18.59204,-5.52239z" stroke="#ffe8e8" stroke-width="5"/><path d="M210.83023,185.73943c-6.67862,-3.56193 -7.83172,-4.7145 -6.81095,-7.1791c1.55639,-3.75786 9.73072,5.53934 8.0995,2.20896c-1.63121,-3.33039 -8.03473,-6.59363 -12.70149,-11.22886c-4.66676,-4.63523 -21.01255,-9.09566 -15.2786,-15.27861c3.70783,-3.99816 7.59968,5.5697 14.91045,9.38806c7.31077,3.81836 8.90181,4.18347 14.72637,5.15423c5.82456,0.97076 -0.16682,-0.28014 -1.47264,-2.76119c-1.30581,-2.48105 -6.11937,-3.9648 -4.78607,-6.99502c1.3333,-3.03023 3.78484,1.30027 6.81095,2.39303c3.02611,1.09276 8.51613,3.98197 7.17911,1.65671c-1.33702,-2.32525 -7.38259,-3.97109 -11.04478,-8.28358c-3.66219,-4.31249 -14.05647,-9.61696 -9.0199,-13.43781c5.03656,-3.82084 8.4778,5.17242 14.35821,9.38806c5.88041,4.21564 13.77161,16.29321 26.32338,18.0398c6.87784,0.95705 5.69665,-6.72882 11.59702,-11.59701c1.689,-1.39353 3.4874,-6.68813 5.70647,-4.78607c2.21907,1.90206 -5.16786,7.2003 -1.84079,8.0995c3.32707,0.8992 5.01964,-3.88994 8.65174,-6.2587c3.63209,-2.36876 7.40725,-8.41661 8.28358,-4.78607c0.87633,3.63054 -4.07565,6.11024 -6.99502,10.12438c-2.91938,4.01414 -5.45286,5.70551 -7.73134,10.12438c-2.27848,4.41887 -5.08544,9.19314 -4.41791,13.43782c0.85916,5.46316 8.83478,14.56692 14.72637,25.21891c5.89159,10.65198 14.05034,12.54045 7.91542,14.35821c-6.13492,1.81776 -7.62888,-7.46288 -12.88557,-12.88557c-5.25669,-5.42269 -2.0038,-4.35479 -4.60199,-5.15423c-2.59819,-0.79944 -2.3952,1.12617 -2.57711,2.94528c-0.18191,1.81911 1.239,2.61253 1.84079,4.41791c0.60179,1.80539 4.43068,5.92053 1.8408,6.62686c-2.58988,0.70633 -3.71994,-3.01413 -5.89055,-5.52238c-2.1706,-2.50825 -0.99905,-2.83002 -2.39303,-4.04975c-1.39398,-1.21973 -1.59876,-0.66815 -2.02488,0.18408c-0.42612,0.85224 1.05417,6.45131 -0.73632,5.3383c-1.79048,-1.113 -3.19935,-6.18078 -6.07463,-9.57214c-2.87528,-3.39136 -7.7766,-9.21743 -15.09452,-13.80597c-7.31792,-4.58854 -11.91342,-1.96046 -18.59204,-5.52239z" stroke="#000000" stroke-width="0"/></g></g></svg>