<svg version="1.1" xmlns="http://www.w3.org/2000/svg" xmlns:xlink="http://www.w3.org/1999/xlink" width="61.10366" height="62.79426" viewBox="0,0,61.10366,62.79426"><g transform="translate(-209.44817,-148.60288)"><g stroke-width="0" stroke-linecap="round" stroke-miterlimit="10"><path d="M270.55183,182.65668l-28.45869,28.74046l-4.99134,-0.16101l-12.39785,-10.06318l-1.24783,-5.55488l4.50831,-2.57617l-12.39785,2.57617l-6.11841,-3.70325v-23.82962l6.11841,-3.70325l12.39785,2.57617l-4.50831,-2.57617l1.24783,-5.55488l12.39785,-10.06318l4.99134,-0.16101l28.45869,28.90147z" fill="#3f0f0f" stroke="#000000"/><path d="M269.18324,182.11327l-27.97566,27.77439l-3.62275,-0.20126l-11.47203,-9.66066l-0.80506,-3.22022l6.44044,-5.23285l-15.29604,2.61643l-5.03159,-3.01896v-22.13901l5.03159,-3.01896l15.29604,2.61643l-6.44044,-5.23286l0.80506,-3.22022l11.47203,-9.66066l3.62275,-0.20126l27.97566,27.77439z" fill="#d1b1b1" stroke="#ffffff"/><path d="M267.40603,181.15479l-27.07774,27.2394l-1.73553,0.01808l-10.54858,-9.30064l-0.18608,-2.57994l11.00888,-7.69162l-22.10944,3.36923l-3.117,-2.07252l-0.00001,-20.0865l3.11701,-2.07253l22.10943,3.36924l-11.00887,-7.69162l0.18607,-2.37868l10.54859,-9.68899l1.73553,0.01808l27.07773,27.4265z" fill="#9e5f5f" stroke="#ffffff"/></g></g></svg>