<svg version="1.1" xmlns="http://www.w3.org/2000/svg" xmlns:xlink="http://www.w3.org/1999/xlink" width="159.11974" height="209.67774" viewBox="0,0,159.11974,209.67774"><defs><radialGradient cx="232.42045" cy="160.91118" r="38.25582" gradientUnits="userSpaceOnUse" id="color-1"><stop offset="0" stop-color="#180036"/><stop offset="1" stop-color="#1d1d1d"/></radialGradient></defs><g transform="translate(-165.45676,-88.65672)"><g stroke-miterlimit="10"><g stroke="#000000"><g stroke-width="0" stroke-linecap="round"><path d="M253.55433,203.54168l1.19202,10.6051l-3.86708,-1.22073l0.62237,7.49454l-14.59432,15.10354l-9.87557,-18.23081l2.06469,-7.45083l-4.80749,0.66608l5.83234,-10.28404" fill="#0063eb"/><path d="M250.00546,201.7483l0.81887,7.28524l-2.65651,-0.8386l-0.07703,8.71288l-10.02567,10.37548l-6.78409,-12.52376l1.92295,-8.68285l-3.30253,0.45758l4.00654,-7.0647" fill="#629beb"/></g><path d="M226.91731,201.45426l7.52188,-50.75823c0,0 2.32476,-16.31388 15.93372,-14.26304c14.27199,2.15076 11.9965,18.2168 11.9965,18.2168l-7.19185,50.80494c0,0 -3.44455,2.38041 -14.81893,0.93217c-11.69895,-1.48956 -13.44131,-4.93263 -13.44131,-4.93263z" fill="#5d5d5d" stroke-width="1.2" stroke-linecap="butt"/></g><g stroke="#000000"><g stroke-width="0" stroke-linecap="round"><path d="M195.43813,196.27328l-2.16271,10.45044l-3.29623,-2.36205l-1.73747,7.31687l-18.56537,9.82029l-3.72108,-20.39713l4.27794,-6.44028l-4.77645,-0.8609l8.73948,-7.96236" fill="#0063eb"/><path d="M192.62227,193.46582l-1.48568,7.17898l-2.26438,-1.62262l-2.78088,8.25755l-12.7536,6.74611l-2.55621,-14.01194l4.52606,-7.65535l-3.28122,-0.59141l6.00365,-5.4698" fill="#629beb"/></g><path d="M170.7687,186.01131l22.9234,-45.90745c0,0 7.27946,-14.78367 19.57726,-8.60517c12.89697,6.47951 5.74136,21.04291 5.74136,21.04291l-22.62421,46.05442c0,0 -4.01373,1.1921 -14.37489,-3.71921c-10.65681,-5.05145 -11.2429,-8.8655 -11.2429,-8.8655z" fill="#5d5d5d" stroke-width="1.2" stroke-linecap="butt"/></g><g stroke="#000000" stroke-width="1.2"><path d="M195.98824,123.57075c1.83598,8.92333 0.62939,16.71159 -2.69498,17.39558c-3.32438,0.684 -7.50767,-5.99529 -9.34364,-14.91863c-1.83598,-8.92333 -0.62939,-16.7116 2.69498,-17.39558c3.32438,-0.684 7.50767,5.9953 9.34364,14.91864z" fill="#454545" stroke-linecap="butt"/><path d="M201.78017,153.33036l-6.6869,-34.97023l0.91338,6.27074l-6.94295,1.15768l-3.84591,-16.86607l9.23359,-13.51672l7.57375,-0.96164l9.4988,54.47261" fill="#5d5d5d" stroke-linecap="round"/></g><g stroke="#000000" stroke-width="1.2"><path d="M266.20085,117.09808c-0.48859,9.09714 -3.63212,16.32425 -7.02123,16.14223c-1.47465,-0.0792 -2.75283,-1.54808 -3.68606,-3.93168c-1.2116,-3.09455 -1.84183,-7.73086 -1.56582,-12.86972c0.48858,-9.09714 3.63212,-16.32426 7.02123,-16.14222c3.38913,0.18203 5.74047,7.70427 5.25187,16.8014z" fill="#454545" stroke-linecap="butt"/><path d="M260.03734,147.18296l2.40642,-35.52239l-0.70783,6.29726l-3.14249,-1.1065l0.5601,-17.28993l8.4945,-10.26668l7.56986,0.99184l-4.63568,55.09993" fill="#5d5d5d" stroke-linecap="round"/></g><g stroke="#000000" stroke-width="1.2"><g fill="#5d5d5d" stroke-linecap="round"><path d="M193.36507,237.11618l10.14923,30.42479l-6.12262,4.12302l-7.74686,1.3276l-12.12036,-29.31188"/><g><path d="M200.08192,261.03262l4.87265,2.21066l2.60349,4.20829l5.53575,4.05071l-1.11812,9.71562l-5.69593,6.06105l-12.40998,-12.56953l-3.92693,-2.60251"/><path d="M208.04866,271.47791l2.3266,2.2082l1.29955,2.89812l5.92894,4.41651l-0.50304,2.85195l0.8232,6.53206l-4.88376,2.02358l-1.74638,-0.59815l-0.13054,-6.026l-3.51658,-4.0943l-2.21989,0.9198l0.54784,5.06004l1.29956,2.89811l-0.58593,2.62196l-5.88128,1.37949l-0.99183,-4.87608l-2.68485,-3.91022l-2.19321,1.7018l3.21171,3.95628l-0.1448,4.55397l-4.52268,1.60961l-1.27287,-2.1161l-4.84567,-5.65841l-0.79366,-7.86606l-2.48667,-6.9002l-0.07499,-5.25598l3.84626,-4.00888"/></g></g><g><path d="M195.54014,211.49021l-8.03038,-4.39467l-2.75231,-7.12595l9.48091,-9.46882l8.11149,-10.12196l4.54853,-0.03047l3.66362,2.62624l-0.22297,11.56843l2.07984,13.27961l-6.55109,4.74908z" fill="#707070" stroke-linecap="round"/><path d="M179.15685,234.33216l12.29107,-31.93446l-3.1564,-0.63174l10.7342,1.98999l8.64016,4.30343l-2.43484,-1.21996l-10.23389,31.98977" fill="#5d5d5d" stroke-linecap="round"/><path d="M176.50705,236.75219c1.83143,-5.32008 7.55011,-8.43082 12.77301,-6.94805c5.2229,1.48277 7.97222,6.99757 6.14078,12.31766c-1.83143,5.32008 -7.5501,8.43082 -12.77301,6.94806c-5.2229,-1.48277 -7.97222,-6.99757 -6.1408,-12.31765z" fill="#707070" stroke-linecap="butt"/></g></g><g stroke="#000000" stroke-width="1.2"><path d="M274.9289,213.98254l-7.75747,-0.72573l-3.63637,-12.82792l-4.96888,-10.09772l2.15961,-4.25864l4.03867,-2.38103l11.35476,4.64428l12.2975,3.34257l0.503,7.74978l-5.2954,8.13202z" fill="#707070" stroke-linecap="round"/><path d="M295.3812,231.41503l-22.25301,-22.83161l-1.652,2.3663l5.87279,-8.37426l8.68051,-7.43989l-2.5333,2.22883l24.0511,21.69371" fill="#5d5d5d" stroke-linecap="round"/><path d="M310.536,233.92065c-4.01144,4.07434 -10.35635,4.35473 -14.17175,0.62625c-3.8154,-3.72848 -3.6565,-10.05392 0.35493,-14.12826c4.01144,-4.07434 10.35635,-4.35474 14.17175,-0.62625c3.8154,3.72848 3.65651,10.05392 -0.35492,14.12826z" fill="#707070" stroke-linecap="butt"/></g><g stroke="#000000" stroke-width="1.2"><path d="M285.85383,202.89921c-3.55284,-5.88694 -1.43764,-13.87081 4.72443,-17.8325c6.16208,-3.96167 14.03756,-2.40095 17.5904,3.486c3.55284,5.88694 1.43766,13.87082 -4.72443,17.8325c-6.16208,3.96167 -14.03756,2.40095 -17.5904,-3.486z" fill="#5c5e5f" stroke-linecap="butt"/><g stroke-linecap="round"><path d="M304.59362,225.55237l-9.34625,2.2428l-1.41815,-6.0823l-5.10075,-4.25271l3.10695,-7.91555" fill="#5d5d5d"/><path d="M310.77992,196.38077l3.08888,1.15035l0.80226,4.59523l4.68042,0.75693l0.20827,8.74316l3.34629,1.34565l1.04349,6.86117l-6.6415,10.45694l-12.95024,1.86982l-3.36087,-5.10231l0.4222,-3.49946l-3.14342,-1.47609l-2.69015,-4.45751l1.20988,-2.66085l-3.14343,-1.47609l-1.93354,-4.13694l9.25494,-10.79216z" fill="#5d5d5d"/><path d="M298.09849,213.85705l6.36732,-6.24564" fill="none"/><path d="M302.92507,222.32109l6.39839,-5.72762" fill="none"/></g><path d="M313.49546,235.17028l-3.65166,-6.0507l3.40159,-5.09452l6.09863,-0.62561l3.68596,5.64096l-3.55448,5.77433z" fill="#5c5e5f" stroke-linecap="round"/></g><g><g stroke-linecap="butt"><g><path d="M193.48307,169.47624c-0.9293,-25.53925 19.02099,-46.99622 44.56024,-47.92552c25.53925,-0.9293 46.99622,19.02099 47.92552,44.56024c0.9293,25.53925 -19.02099,46.99622 -44.56024,47.92552c-25.53925,0.9293 -46.99622,-19.02099 -47.92552,-44.56024z" fill="#5d5d5d" stroke="#000000" stroke-width="1.2"/><path d="M238.3871,122.18005c0,0 1.49157,-0.03627 2.23162,-0.02757c24.19191,0.28395 44.14037,19.53247 45.02959,43.97013c0.8817,24.23106 -17.29618,44.7357 -41.10461,47.07075c-0.93753,0.09196 -2.83795,0.19044 -2.83795,0.19044z" fill="#686868" stroke="#000000" stroke-width="0"/><path d="M199.57244,169.25466c-0.82626,-22.70717 16.91175,-41.78477 39.61892,-42.611c22.70717,-0.82626 41.78478,16.91175 42.61101,39.61892c0.82626,22.70717 -16.91175,41.78477 -39.61893,42.611c-22.70717,0.82626 -41.78477,-16.91174 -42.611,-39.61892z" fill="#707070" stroke="#838383" stroke-width="0"/><path d="M202.45689,169.14971c-0.76828,-21.11413 15.72529,-38.85332 36.83941,-39.62161c21.11413,-0.76828 38.85333,15.72529 39.62162,36.83941c0.76828,21.11413 -15.7253,38.85333 -36.83942,39.62162c-21.11413,0.76828 -38.85332,-15.7253 -39.62161,-36.83942z" fill="url(#color-1)" stroke="#000000" stroke-width="1.2"/></g><g stroke="#000000"><path d="M203.82492,180.49894c0,0 -2.82144,-6.74382 -2.94516,-11.36312c-0.12371,-4.61931 2.32991,-11.60915 2.32991,-11.60915c0.34563,0.00363 1.20876,0.0182 1.67901,0.07509c5.56332,0.673 9.96701,5.30856 10.17722,11.08588c0.21973,6.03885 -4.22084,11.16655 -10.10017,11.91824c-0.34915,0.04464 -1.06197,0.08689 -1.06197,0.08689c0,0 -0.02799,-0.0678 -0.07885,-0.1938z" fill="#707070" stroke-width="0"/><path d="M203.20968,157.52663c0.34563,0.00363 1.20876,0.0182 1.67901,0.07509c5.56331,0.673 9.96701,5.30856 10.17722,11.08588c0.21973,6.03885 -4.22084,11.16655 -10.10017,11.91824c-0.34915,0.04464 -1.06197,0.08689 -1.06197,0.08689c0,0 -0.02799,-0.06779 -0.07885,-0.1938" fill="none" stroke-width="1.2"/></g><g stroke="#000000"><path d="M278.32772,177.57461c-0.02629,0.12882 -0.04085,0.19817 -0.04085,0.19817c0,0 -0.47822,0.00108 -0.71388,-0.02229c-3.9687,-0.39336 -7.24285,-5.24032 -7.46258,-11.27916c-0.21023,-5.77731 2.44701,-10.66979 6.11841,-11.67882c0.31033,-0.08529 0.88537,-0.15221 1.1158,-0.17679c0,0 2.00352,4.49805 2.25898,11.44218c0.24813,6.74469 -1.27585,11.51672 -1.27585,11.51672z" fill="#707070" stroke-width="0"/><path d="M278.32772,177.57461c-0.02629,0.12882 -0.04085,0.19817 -0.04085,0.19817c0,0 -0.47822,0.00108 -0.71388,-0.02229c-3.9687,-0.39336 -7.24285,-5.24032 -7.46258,-11.27916c-0.21023,-5.77731 2.44701,-10.66979 6.11841,-11.67882c0.31033,-0.08529 0.88537,-0.15221 1.1158,-0.17679" fill="none" stroke-width="1.2"/></g><path d="M202.54477,172.21475l-0.22774,-6.25874l4.48498,-1.72996l4.46527,1.4043l0.22774,6.25874l-4.48023,1.86035z" fill="#21cc26" stroke="#17921c" stroke-width="1.2"/><path d="M272.63368,169.66442l-0.22774,-6.25874l3.0431,-1.6775l3.06578,1.45521l0.22774,6.25874l-3.03835,1.80788z" fill="#21cc26" stroke="#17921c" stroke-width="1.2"/></g><g stroke-linecap="round"><path d="M232.99121,139.86278l2.19937,-0.08003l0.30364,-1.11218l1.5833,0.0112l1.17712,-1.69453l0.63228,-1.53707l0.81598,-2.16315l0.76983,2.24309l1.29715,1.60451l1.35589,1.32709l2.58053,0.93843l1.26215,0.64229l-1.06717,0.93352l-1.23964,-0.02371l-1.60951,1.15971l-1.11839,1.41711l-0.96342,1.89323l-0.54854,1.94695l-0.91099,-0.44859l-0.28873,-2.2606l-0.75604,0.02751l-0.11373,-1.23463l-1.63082,-1.31709l-1.74326,-0.62478l-1.73827,-0.48733z" fill="#eee796" stroke="#eee796" stroke-width="0.25"/><path d="M233.05182,141.08732l-0.04952,-1.36086l2.26809,-0.08252l-0.033,-0.90724l1.81448,-0.06603l-0.04127,-1.13405l1.20964,-0.04402l-0.70333,0.02559" fill="none" stroke="#cec344" stroke-width="0.75"/><path d="M238.18443,136.50806l0.03584,0.98456l-0.06603,-1.81448l0.90724,-0.033l-0.08252,-2.2681l1.36086,-0.04952" fill="none" stroke="#cec344" stroke-width="0.75"/><path d="M242.15391,137.34947l-0.70333,0.02559l1.20964,-0.04402l0.04127,1.13405l1.81448,-0.06603l0.033,0.90724l2.26809,-0.08252l0.04952,1.36086" fill="none" stroke="#cec344" stroke-width="0.75"/><path d="M239.03393,133.37502l1.36086,-0.04952l0.08252,2.2681l0.90724,-0.033l0.06603,1.81448l-0.03583,-0.98457" fill="none" stroke="#cec344" stroke-width="0.75"/><path d="M237.71975,143.09223l0.70333,-0.02559l-1.20964,0.04402l-0.04127,-1.13405l-1.81448,0.06603l-0.033,-0.90724l-2.26809,0.08252l-0.04952,-1.36086" fill="none" stroke="#cec344" stroke-width="0.75"/><path d="M240.83973,147.06668l-1.36086,0.04952l-0.08252,-2.2681l-0.90724,0.033l-0.06603,-1.81447l0.03584,0.98456" fill="none" stroke="#cec344" stroke-width="0.75"/><path d="M246.82182,139.35438l0.04952,1.36086l-2.26809,0.08252l0.033,0.90724l-1.81448,0.06603l0.04127,1.13405l-1.20964,0.04402l0.70333,-0.02559" fill="none" stroke="#cec344" stroke-width="0.75"/><path d="M241.68922,143.93364l-0.03584,-0.98456l0.06603,1.81448l-0.90724,0.033l0.08252,2.2681l-1.36086,0.04952" fill="none" stroke="#cec344" stroke-width="0.75"/></g><g stroke-linecap="round"><path d="M235.0033,195.15952l2.19937,-0.08003l0.30364,-1.11218l1.5833,0.0112l1.17712,-1.69453l0.63228,-1.53707l0.81598,-2.16315l0.76983,2.24309l1.29715,1.60451l1.35589,1.32709l2.58053,0.93843l1.26215,0.64229l-1.06717,0.93352l-1.23964,-0.02371l-1.60951,1.15971l-1.11839,1.41712l-0.96342,1.89323l-0.54854,1.94695l-0.91099,-0.44859l-0.28873,-2.2606l-0.75604,0.02751l-0.11373,-1.23463l-1.63082,-1.31708l-1.74326,-0.62479l-1.73827,-0.48732z" fill="#eee796" stroke="#eee796" stroke-width="0.25"/><path d="M235.06392,196.38407l-0.04952,-1.36086l2.26809,-0.08252l-0.033,-0.90724l1.81448,-0.06603l-0.04127,-1.13404l1.20964,-0.04402l-0.70333,0.02559" fill="none" stroke="#cec344" stroke-width="0.75"/><path d="M240.19653,191.8048l0.03584,0.98456l-0.06603,-1.81448l0.90724,-0.033l-0.08252,-2.2681l1.36086,-0.04952" fill="none" stroke="#cec344" stroke-width="0.75"/><path d="M244.166,192.64621l-0.70333,0.02559l1.20964,-0.04402l0.04127,1.13404l1.81448,-0.06603l0.033,0.90724l2.26809,-0.08252l0.04952,1.36086" fill="none" stroke="#cec344" stroke-width="0.75"/><path d="M241.04602,188.67177l1.36086,-0.04952l0.08252,2.2681l0.90724,-0.033l0.06603,1.81448l-0.03583,-0.98457" fill="none" stroke="#cec344" stroke-width="0.75"/><path d="M239.73184,198.38896l0.70333,-0.02559l-1.20964,0.04402l-0.04127,-1.13404l-1.81448,0.06603l-0.033,-0.90724l-2.26809,0.08252l-0.04952,-1.36086" fill="none" stroke="#cec344" stroke-width="0.75"/><path d="M242.85182,202.3634l-1.36086,0.04952l-0.08252,-2.2681l-0.90724,0.033l-0.06603,-1.81448l0.03583,0.98457" fill="none" stroke="#cec344" stroke-width="0.75"/><path d="M248.83391,194.65111l0.04952,1.36086l-2.26809,0.08252l0.033,0.90724l-1.81448,0.06603l0.04127,1.13404l-1.20964,0.04402l0.70333,-0.02559" fill="none" stroke="#cec344" stroke-width="0.75"/><path d="M243.70131,199.23038l-0.03583,-0.98457l0.06603,1.81448l-0.90724,0.033l0.08252,2.2681l-1.36086,0.04952" fill="none" stroke="#cec344" stroke-width="0.75"/></g><g stroke-linecap="round"><path d="M255.21798,142.43503l1.61177,1.4986l1.00115,-0.57174l1.11163,1.12749l2.03057,-0.36587l1.53397,-0.63978l2.10655,-0.9526l-1.04175,2.13044l-0.21733,2.05181l0.02038,1.89713l1.16116,2.48828l0.43831,1.34664l-1.4147,-0.0945l-0.85979,-0.89332l-1.95813,-0.31807l-1.79287,0.21123l-2.01996,0.65747l-1.76459,0.98883l-0.32698,-0.96139l1.39432,-1.80263l-0.55406,-0.51514l0.79259,-0.95344l-0.22183,-2.08448l-0.7909,-1.67446l-0.88455,-1.57373z" fill="#eee796" stroke="#eee796" stroke-width="0.25"/><path d="M254.39497,143.34375l0.92727,-0.99728l1.66214,1.54542l0.61817,-0.66485l1.32972,1.23634l0.77271,-0.83108l0.88647,0.82423l-0.51543,-0.47924" fill="none" stroke="#cec344" stroke-width="0.75"/><path d="M261.26229,143.73503l-0.67084,0.72151l1.23634,-1.32972l0.66486,0.61818l1.54542,-1.66213l0.99728,0.92727" fill="none" stroke="#cec344" stroke-width="0.75"/><path d="M263.47417,147.13685l-0.51543,-0.47925l0.88647,0.82423l-0.77271,0.83107l1.32972,1.23634l-0.61817,0.66485l1.66214,1.54543l-0.92727,0.99728" fill="none" stroke="#cec344" stroke-width="0.75"/><path d="M264.07836,142.12031l0.99728,0.92727l-1.54543,1.66214l0.66486,0.61818l-1.23634,1.32972l0.67085,-0.72152" fill="none" stroke="#cec344" stroke-width="0.75"/><path d="M256.27799,148.06215l0.51543,0.47924l-0.88646,-0.82423l0.77271,-0.83107l-1.32972,-1.23634l0.61818,-0.66486l-1.66214,-1.54543l0.92727,-0.99728" fill="none" stroke="#cec344" stroke-width="0.75"/><path d="M255.6738,153.07868l-0.99728,-0.92727l1.54543,-1.66214l-0.66486,-0.61818l1.23633,-1.32971l-0.67085,0.72152" fill="none" stroke="#cec344" stroke-width="0.75"/><path d="M265.3572,151.85524l-0.92727,0.99728l-1.66213,-1.54543l-0.61818,0.66486l-1.32972,-1.23634l-0.77271,0.83107l-0.88647,-0.82423l0.51544,0.47925" fill="none" stroke="#cec344" stroke-width="0.75"/><path d="M258.48987,151.46398l0.67085,-0.72152l-1.23634,1.32972l-0.66486,-0.61818l-1.54542,1.66213l-0.99728,-0.92727" fill="none" stroke="#cec344" stroke-width="0.75"/></g><g stroke-linecap="round"><path d="M217.54002,182.95847l1.61178,1.4986l1.00115,-0.57174l1.11163,1.12749l2.03057,-0.36587l1.53397,-0.63978l2.10655,-0.9526l-1.04175,2.13044l-0.21733,2.0518l0.02038,1.89714l1.16116,2.48828l0.43832,1.34664l-1.41471,-0.0945l-0.85979,-0.89333l-1.95813,-0.31807l-1.79287,0.21122l-2.01996,0.65748l-1.76459,0.98883l-0.32698,-0.96139l1.39432,-1.80264l-0.55404,-0.51515l0.79259,-0.95344l-0.22184,-2.08448l-0.7909,-1.67446l-0.88455,-1.57373z" fill="#eee796" stroke="#eee796" stroke-width="0.25"/><path d="M216.71702,183.86722l0.92727,-0.99728l1.66213,1.54542l0.61818,-0.66486l1.32972,1.23634l0.77271,-0.83107l0.88647,0.82423l-0.51543,-0.47924" fill="none" stroke="#cec344" stroke-width="0.75"/><path d="M223.58434,184.25849l-0.67085,0.72152l1.23634,-1.32972l0.66486,0.61818l1.54543,-1.66214l0.99728,0.92727" fill="none" stroke="#cec344" stroke-width="0.75"/><path d="M225.79621,187.66031l-0.51543,-0.47924l0.88647,0.82423l-0.77271,0.83107l1.32972,1.23634l-0.61818,0.66486l1.66214,1.54543l-0.92727,0.99728" fill="none" stroke="#cec344" stroke-width="0.75"/><path d="M226.40041,182.64378l0.99728,0.92727l-1.54543,1.66214l0.66486,0.61818l-1.23634,1.32971l0.67085,-0.72152" fill="none" stroke="#cec344" stroke-width="0.75"/><path d="M218.60005,188.58561l0.51543,0.47924l-0.88647,-0.82423l0.77271,-0.83107l-1.32972,-1.23633l0.61818,-0.66486l-1.66214,-1.54543l0.92727,-0.99728" fill="none" stroke="#cec344" stroke-width="0.75"/><path d="M217.99586,193.60214l-0.99728,-0.92727l1.54543,-1.66214l-0.66486,-0.61818l1.23634,-1.32972l-0.67086,0.72152" fill="none" stroke="#cec344" stroke-width="0.75"/><path d="M227.67926,192.3787l-0.92727,0.99728l-1.66214,-1.54543l-0.61818,0.66486l-1.32972,-1.23634l-0.77271,0.83107l-0.88646,-0.82423l0.51543,0.47924" fill="none" stroke="#cec344" stroke-width="0.75"/><path d="M220.81192,191.98743l0.67085,-0.72152l-1.23634,1.32972l-0.66486,-0.61818l-1.54543,1.66214l-0.99728,-0.92727" fill="none" stroke="#cec344" stroke-width="0.75"/></g><g stroke-linecap="round"><path d="M215.45567,153.76063l1.4986,-1.61178l-0.57174,-1.00115l1.12749,-1.11163l-0.36587,-2.03057l-0.63978,-1.53397l-0.9526,-2.10654l2.13044,1.04175l2.0518,0.21733l1.89714,-0.02038l2.48827,-1.16116l1.34665,-0.43832l-0.09451,1.41471l-0.89332,0.85979l-0.31807,1.95813l0.21122,1.79287l0.65747,2.01996l0.98883,1.76459l-0.96139,0.32698l-1.80263,-1.39432l-0.51515,0.55404l-0.95344,-0.79259l-2.08448,0.22184l-1.67446,0.7909l-1.57373,0.88455z" fill="#eee796" stroke="#eee796" stroke-width="0.25"/><path d="M216.36439,154.58364l-0.99728,-0.92727l1.54543,-1.66214l-0.66486,-0.61818l1.23634,-1.32972l-0.83107,-0.77271l0.82423,-0.88647l-0.47924,0.51543" fill="none" stroke="#cec344" stroke-width="0.75"/><path d="M216.75568,147.7163l0.72152,0.67085l-1.32972,-1.23634l0.61818,-0.66486l-1.66213,-1.54543l0.92727,-0.99728" fill="none" stroke="#cec344" stroke-width="0.75"/><path d="M220.1575,145.50444l-0.47924,0.51543l0.82423,-0.88647l0.83107,0.77271l1.23634,-1.32972l0.66486,0.61818l1.54542,-1.66214l0.99728,0.92727" fill="none" stroke="#cec344" stroke-width="0.75"/><path d="M215.14098,144.90025l0.92727,-0.99728l1.66214,1.54543l0.61818,-0.66486l1.32972,1.23634l-0.72152,-0.67085" fill="none" stroke="#cec344" stroke-width="0.75"/><path d="M221.08281,152.7006l0.47924,-0.51543l-0.82423,0.88647l-0.83107,-0.77271l-1.23634,1.32972l-0.66486,-0.61818l-1.54543,1.66213l-0.99728,-0.92727" fill="none" stroke="#cec344" stroke-width="0.75"/><path d="M226.09933,153.3048l-0.92727,0.99728l-1.66214,-1.54543l-0.61818,0.66486l-1.32971,-1.23633l0.72152,0.67085" fill="none" stroke="#cec344" stroke-width="0.75"/><path d="M224.87589,143.62141l0.99728,0.92727l-1.54543,1.66214l0.66486,0.61818l-1.23634,1.32972l0.83107,0.77271l-0.82422,0.88647l0.47924,-0.51543" fill="none" stroke="#cec344" stroke-width="0.75"/><path d="M224.48461,150.48874l-0.72152,-0.67085l1.32971,1.23634l-0.61817,0.66486l1.66214,1.54542l-0.92727,0.99728" fill="none" stroke="#cec344" stroke-width="0.75"/></g><g stroke-linecap="round"><path d="M255.97913,191.43857l1.4986,-1.61177l-0.57174,-1.00115l1.12749,-1.11163l-0.36587,-2.03057l-0.63978,-1.53397l-0.9526,-2.10654l2.13044,1.04175l2.0518,0.21733l1.89714,-0.02039l2.48828,-1.16116l1.34664,-0.43831l-0.09451,1.4147l-0.89333,0.85978l-0.31807,1.95814l0.21123,1.79287l0.65747,2.01997l0.98884,1.76458l-0.9614,0.32697l-1.80263,-1.39433l-0.51515,0.55404l-0.95344,-0.79259l-2.08447,0.22183l-1.67446,0.7909l-1.57373,0.88455z" fill="#eee796" stroke="#eee796" stroke-width="0.25"/><path d="M256.88786,192.2616l-0.99728,-0.92727l1.54542,-1.66214l-0.66486,-0.61818l1.23634,-1.32972l-0.83107,-0.77271l0.82423,-0.88647l-0.47924,0.51543" fill="none" stroke="#cec344" stroke-width="0.75"/><path d="M257.27914,185.39426l0.72152,0.67085l-1.32972,-1.23634l0.61818,-0.66486l-1.66213,-1.54543l0.92727,-0.99728" fill="none" stroke="#cec344" stroke-width="0.75"/><path d="M260.68095,183.18239l-0.47924,0.51543l0.82423,-0.88646l0.83107,0.77271l1.23634,-1.32972l0.66486,0.61818l1.54543,-1.66213l0.99728,0.92727" fill="none" stroke="#cec344" stroke-width="0.75"/><path d="M255.66444,182.5782l0.92727,-0.99728l1.66214,1.54542l0.61818,-0.66486l1.32972,1.23634l-0.72152,-0.67085" fill="none" stroke="#cec344" stroke-width="0.75"/><path d="M261.60624,190.37855l0.47925,-0.51543l-0.82423,0.88646l-0.83107,-0.77271l-1.23634,1.32972l-0.66486,-0.61818l-1.54543,1.66214l-0.99728,-0.92727" fill="none" stroke="#cec344" stroke-width="0.75"/><path d="M266.62278,190.98275l-0.92727,0.99728l-1.66214,-1.54543l-0.61818,0.66486l-1.32972,-1.23634l0.72152,0.67085" fill="none" stroke="#cec344" stroke-width="0.75"/><path d="M265.39934,181.29935l0.99728,0.92727l-1.54543,1.66214l0.66486,0.61818l-1.23634,1.32972l0.83107,0.77271l-0.82422,0.88647l0.47924,-0.51544" fill="none" stroke="#cec344" stroke-width="0.75"/><path d="M265.00808,188.16668l-0.72152,-0.67085l1.32971,1.23633l-0.61818,0.66486l1.66214,1.54543l-0.92727,0.99728" fill="none" stroke="#cec344" stroke-width="0.75"/></g></g><g stroke-linecap="round"><g><g><path d="M256.83761,169.46999l-0.41158,-10.8158l1.67889,-0.05774l-0.12863,-3.37994l2.03864,-0.07013l-0.11148,-2.92928l4.67691,-0.16089l0.11148,2.92928l1.67889,-0.05774l0.12863,3.37994l1.67889,-0.05774l0.41158,10.8158" fill="#8000ff" stroke="#00a8c1" stroke-width="0"/><path d="M256.61627,163.65368l0.22134,5.81631l-0.41158,-10.8158l1.67889,-0.05774l-0.12863,-3.37994l2.03864,-0.07013l-0.11148,-2.92928l4.67691,-0.16089l0.11148,2.92928l1.67889,-0.05774l0.12863,3.37994l1.67889,-0.05774l0.41158,10.8158l-0.17825,-4.68417" fill="none" stroke="#6400c7" stroke-width="1.5"/></g><g><path d="M268.5736,168.63978l0.41158,10.8158l-1.67889,0.05774l0.12863,3.37994l-1.67889,0.05774l0.11148,2.92928l-4.67691,0.16089l-0.11148,-2.92928l-2.03864,0.07013l-0.12863,-3.37994l-1.67889,0.05774l-0.41158,-10.8158" fill="#8000ff" stroke="#00a8c1" stroke-width="0"/><path d="M268.75186,173.32395l-0.17825,-4.68417l0.41158,10.8158l-1.67889,0.05774l0.12863,3.37994l-1.67889,0.05774l0.11148,2.92928l-4.67691,0.16089l-0.11148,-2.92928l-2.03864,0.07013l-0.12863,-3.37994l-1.67889,0.05774l-0.41158,-10.8158l0.22134,5.81631" fill="none" stroke="#6400c7" stroke-width="1.5"/></g></g><g><g><path d="M230.23894,170.38497l-0.41158,-10.8158l2.18779,-0.07526l-0.12863,-3.37994l2.6566,-0.09138l-0.11148,-2.92928l6.09456,-0.20965l0.11148,2.92928l2.18779,-0.07526l0.12863,3.37994l2.18779,-0.07526l0.41158,10.8158" fill="#8000ff" stroke="#00a8c1" stroke-width="0"/><path d="M230.01761,164.56867l0.22134,5.81631l-0.41158,-10.8158l2.18779,-0.07526l-0.12863,-3.37994l2.6566,-0.09138l-0.11148,-2.92928l6.09456,-0.20965l0.11148,2.92928l2.18779,-0.07526l0.12863,3.37994l2.18779,-0.07526l0.41158,10.8158l-0.17825,-4.68417" fill="none" stroke="#6400c7" stroke-width="1.5"/></g><g><path d="M245.53726,169.43222l0.41158,10.8158l-2.18779,0.07526l0.12863,3.37994l-2.18779,0.07526l0.11148,2.92928l-6.09456,0.20965l-0.11148,-2.92928l-2.6566,0.09138l-0.12863,-3.37994l-2.18779,0.07526l-0.41158,-10.8158" fill="#8000ff" stroke="#00a8c1" stroke-width="0"/><path d="M245.71552,174.11638l-0.17825,-4.68417l0.41158,10.8158l-2.18779,0.07526l0.12863,3.37994l-2.18779,0.07526l0.11148,2.92928l-6.09456,0.20965l-0.11148,-2.92928l-2.6566,0.09138l-0.12863,-3.37994l-2.18779,0.07526l-0.41158,-10.8158l0.22134,5.81631" fill="none" stroke="#6400c7" stroke-width="1.5"/></g></g></g></g></g></svg>