<svg version="1.1" xmlns="http://www.w3.org/2000/svg" xmlns:xlink="http://www.w3.org/1999/xlink" width="114.6124" height="114.6124" viewBox="0,0,114.6124,114.6124"><defs><radialGradient cx="240" cy="180" r="57.3062" gradientUnits="userSpaceOnUse" id="color-1"><stop offset="0.21698" stop-color="#f00000"/><stop offset="1" stop-color="#f00000" stop-opacity="0"/></radialGradient><radialGradient cx="240" cy="180" r="52.53326" gradientUnits="userSpaceOnUse" id="color-2"><stop offset="0.32783" stop-color="#ffe0e0" stop-opacity="0.89804"/><stop offset="0.55189" stop-color="#ffb8b8" stop-opacity="0.74902"/><stop offset="0.95991" stop-color="#ffffff" stop-opacity="0"/></radialGradient></defs><g transform="translate(-182.6938,-122.6938)"><g stroke-width="0" stroke-miterlimit="10"><path d="M182.6938,180c0,-31.64934 25.65686,-57.3062 57.3062,-57.3062c31.64934,0 57.3062,25.65686 57.3062,57.3062c0,31.64934 -25.65686,57.3062 -57.3062,57.3062c-31.64934,0 -57.3062,-25.65686 -57.3062,-57.3062z" fill="url(#color-1)" stroke="none" stroke-linecap="butt" stroke-linejoin="miter"/><path d="M285.58245,180.00533c0.00002,1.39624 -42.86826,45.96374 -44.67523,45.79188c-1.55845,-0.14823 -22.51299,-16.73228 -22.52852,-18.48752c-0.01464,-1.65592 23.03662,-16.82626 15.40085,-13.88164c-4.47061,1.72403 -35.26433,8.79327 -36.59969,7.65058c-1.34918,-1.15453 -3.0166,-15.46764 -2.72977,-21.05882v-0.0396c-0.28683,-5.59117 1.3806,-19.9043 2.72978,-21.05882c1.33536,-1.14268 32.12909,5.92656 36.59969,7.65058c7.63578,2.94462 -15.4155,-12.22572 -15.40084,-13.88164c0.01551,-1.75526 20.97009,-18.3393 22.52852,-18.48752c1.80696,-0.17186 44.67526,44.39564 44.67523,45.79188z" fill="#440000" stroke="#000000" stroke-linecap="round" stroke-linejoin="round"/><path d="M282.01732,180.0049c0.00002,1.28705 -39.51539,42.36878 -41.18103,42.21036c-1.43655,-0.13663 -18.62879,-13.14852 -18.64311,-14.76649c-0.01351,-1.5264 24.26826,-19.75702 17.22971,-17.0427c-4.12096,1.58918 -37.8147,8.82463 -39.04561,7.77132c-1.24366,-1.06422 -2.629,-13.00527 -2.3646,-18.15914v-0.0365c-0.26439,-5.15387 0.8176,-17.24659 2.06126,-18.31081c1.23092,-1.05331 34.92466,5.8788 39.04561,7.46797c7.03856,2.71432 -16.93987,-15.36462 -16.92637,-16.89102c0.0143,-1.61798 17.20657,-14.32652 18.64312,-14.46315c1.66564,-0.15842 41.18106,40.92331 41.18103,42.21036z" fill="#ffeaea" stroke="#000000" stroke-linecap="round" stroke-linejoin="round"/><path d="M278.76911,180.00454c0.00002,1.1874 -36.4562,39.08867 -37.99289,38.94251c-1.32533,-0.12606 -15.34822,-10.08795 -15.36141,-11.58065c-0.01246,-1.40824 23.20653,-21.29144 16.71289,-18.78727c-3.80191,1.46616 -37.95115,7.73594 -39.08676,6.76416c-1.14737,-0.98182 -2.01693,-10.57159 -1.773,-15.32645l0.00001,-0.03367c-0.24393,-4.75486 0.55003,-14.89308 1.69741,-15.8749c1.13561,-0.97177 34.87632,5.22242 38.67823,6.68856c6.49364,2.50417 -16.85403,-17.03484 -16.84157,-18.44308c0.01319,-1.49271 14.64888,-11.17473 15.97422,-11.30078c1.53669,-0.14616 37.99291,37.75511 37.99289,38.94251z" fill="#ff0000" stroke="#000000" stroke-linecap="round" stroke-linejoin="round"/><path d="M187.46674,180c0,-29.01332 23.51994,-52.53326 52.53326,-52.53326c29.01332,0 52.53326,23.51994 52.53326,52.53326c0,29.01332 -23.51994,52.53326 -52.53326,52.53326c-29.01332,0 -52.53326,-23.51994 -52.53326,-52.53326z" fill="url(#color-2)" stroke="none" stroke-linecap="butt" stroke-linejoin="miter"/></g></g></svg>