<svg version="1.1" xmlns="http://www.w3.org/2000/svg" xmlns:xlink="http://www.w3.org/1999/xlink" width="116.872" height="121.82745" viewBox="0,0,116.872,121.82745"><g transform="translate(-189.32038,-120.43829)"><g stroke-miterlimit="10"><path d="M242.71931,223.94685c0.36628,4.91312 -0.32432,11.27048 -2.89975,14.82833c-3.36072,4.6427 -8.35615,1.2662 -10.12628,-3.05248c0.66713,-3.80005 3.03093,-7.01873 3.4862,-10.8891c0.33335,-2.83387 -1.48751,-6.11053 0.05082,-8.7777c1.92175,-3.33194 4.61937,-2.71173 6.56628,-0.73073" fill="#9a8479" stroke="#000000" stroke-width="1.2" stroke-linecap="butt"/><path d="M255.57121,212.35404c11.05049,1.63668 13.17057,11.93243 11.5361,20.01691c-0.77565,1.37986 -1.11901,2.71915 -2.38079,3.85239c-6.77549,6.08524 -20.00759,5.58702 -26.80834,-0.28631c-2.5947,-3.39578 -4.9543,-8.71568 -3.42608,-12.84455c2.07627,-5.60953 7.80755,-9.59776 14.37601,-10.55219c2.02728,0 3.73145,-0.03871 5.47724,0.13421c0.47759,-0.42939 1.22585,-0.32047 1.22585,-0.32047z" fill="#9a8479" stroke="#000000" stroke-width="1.2" stroke-linecap="butt"/><path d="M208.26019,170.76047c0.2554,0.25356 0.50597,0.51042 0.75156,0.77019c0.35208,7.14535 1.3311,14.41616 2.64912,21.59925c-2.78949,-0.09984 -6.41699,-1.98114 -10.07236,-5.6102c-6.4349,-6.3886 -13.20284,-17.57485 -11.3605,-22.20279c1.84233,-4.62794 11.59728,-0.94506 18.03219,5.44355z" fill="#9a8479" stroke="#000000" stroke-width="1.2" stroke-linecap="butt"/><path d="M208.67818,166.41135l0.3143,5.5236" fill="none" stroke="#000000" stroke-width="1.2" stroke-linecap="round"/><path d="M212.28948,196.99186l-0.9072,-5.28391" fill="none" stroke="#000000" stroke-width="1.2" stroke-linecap="round"/><path d="M209.31151,176.4505c0.26734,5.35446 1.17202,10.95553 2.14265,16.22195c-2.03099,0.26112 -4.67485,-0.72219 -7.34168,-3.02224c-4.69468,-4.04901 -12.58112,-13.46017 -11.24697,-17.17794c1.24692,-3.4747 16.44599,3.97823 16.44599,3.97823z" fill="#ee4036" stroke="#000000" stroke-width="1.2" stroke-linecap="butt"/><path d="M199.16039,177.94676c-0.52622,-23.01144 19.69804,-42.1128 45.17214,-42.66409c25.4741,-0.5513 46.55155,17.65625 47.07776,40.66769c0.52622,23.01144 -19.69804,42.1128 -45.17215,42.6641c-25.47411,0.55129 -46.55154,-17.65625 -47.07776,-40.66769z" fill="#9a8479" stroke="#000000" stroke-width="1.2" stroke-linecap="butt"/><path d="M215.23897,145.42168c0,0 0.88213,-15.45755 1.00946,-15.50224c4.98,-1.74804 14.6935,6.31647 14.6935,6.31647c0,0 -3.01591,-15.19981 -2.84815,-15.19762c14.59248,0.19067 29.89198,14.8335 29.89198,14.8335l0.59548,-13.7241c0,0 33.02403,5.42971 32.776,51.48174" fill="#9a8479" stroke="#000000" stroke-width="1.2" stroke-linecap="round"/><path d="M236.84972,169.01829c17.67688,-0.38292 32.92929,6.27336 33.78181,18.96933c0.85252,12.69597 -12.78633,23.29849 -30.46322,23.68141c-17.67688,0.38292 -29.66114,-8.42018 -32.78122,-20.75629c-2.9679,-11.73443 11.78575,-21.51153 29.46263,-21.89445z" fill="#e6e7e8" stroke="#000000" stroke-width="1.2" stroke-linecap="butt"/><path d="M218.69252,170.94665c0,0 10.31502,-3.88322 15.65038,-4.26633c5.19278,-0.37287 15.9456,1.99753 15.9456,1.99753c0,0 2.13131,8.61063 2.0247,8.64129c-4.48465,1.28972 -9.61035,-3.59113 -9.61035,-3.59113l0.73363,7.97062c0,0 -19.21948,-1.47566 -24.74395,-10.752z" fill="#9a8479" stroke="#000000" stroke-width="0" stroke-linecap="round"/><path d="M250.28851,168.67785c0,0 2.13131,8.61063 2.0247,8.64128c-4.48465,1.28972 -9.61036,-3.59114 -9.61036,-3.59114l0.73364,7.97062c0,0 -19.21948,-1.47565 -24.74395,-10.75199" fill="none" stroke="#000000" stroke-width="1.2" stroke-linecap="round"/><path d="M284.09308,172.02268c7.28553,-5.41684 18.62943,-7.60538 21.03745,-2.67641c2.40803,4.92897 -5.0317,15.10896 -12.31723,20.52579c-4.13857,3.07704 -8.33141,4.40446 -11.62282,4.07362c1.19915,-7.00481 1.99334,-14.15003 2.05291,-21.26622c0.27725,-0.22274 0.56052,-0.44178 0.84969,-0.65678z" fill="#9a8479" stroke="#000000" stroke-width="1.2" stroke-linecap="butt"/><path d="M283.28632,173.08815l0.09583,-5.49455" fill="none" stroke="#000000" stroke-width="1.2" stroke-linecap="round"/><path d="M280.64029,197.72413l0.80845,-5.16239" fill="none" stroke="#000000" stroke-width="1.2" stroke-linecap="round"/><path d="M302.37073,176.11935c1.76208,3.93707 -7.08798,12.16285 -12.43378,15.50073c-3.0367,1.89609 -6.11193,2.47435 -8.52503,1.89846c0.88426,-5.13504 1.6739,-10.61612 1.72269,-15.94818c0,0 17.58925,-5.13067 19.23612,-1.45101z" fill="#ee4036" stroke="#000000" stroke-width="1.2" stroke-linecap="butt"/><path d="M255.36761,188.78398c-0.2037,1.35983 -1.56353,1.15613 -1.56353,1.15613l-0.2321,-0.07979c-3.45899,0.36777 -7.98454,0.58203 -10.54778,3.20437c0,0 -0.97886,0.96564 -1.9445,-0.01322c-0.96564,-0.97886 0.01322,-1.9445 0.01322,-1.9445c3.20869,-3.08426 7.93894,-3.52475 12.18677,-3.98108l0.93179,0.09456c0,0 1.35983,0.2037 1.15613,1.56353z" fill="#000000" stroke="none" stroke-width="0.5" stroke-linecap="butt"/><path d="M215.46797,185.70986l0.79034,0.00021c3.60296,0.8884 7.61512,1.81003 10.33669,5.22066c0,0 0.83026,1.06521 0.01121,1.94585c-0.81904,0.88064 -1.64931,-0.18457 -1.64931,-0.18457c-2.1741,-2.88306 -6.01264,-3.55764 -8.94652,-4.27724l-0.19687,0.05618c0,0 -1.15339,0.06539 -1.32617,-1.31516c-0.17278,-1.38055 0.98062,-1.44594 0.98062,-1.44594z" fill="#000000" stroke="none" stroke-width="0.5" stroke-linecap="butt"/><path d="M261.91783,215.98306c1.94692,-1.981 4.64454,-2.60121 6.56628,0.73073c1.53833,2.66717 -0.28253,5.94384 0.05082,8.7777c0.45527,3.87037 2.81906,7.08906 3.4862,10.88911c-1.77014,4.31868 -6.76557,7.69518 -10.12628,3.05248c-2.57543,-3.55786 -3.26603,-9.91522 -2.89974,-14.82834" fill="#9a8479" stroke="#000000" stroke-width="1.2" stroke-linecap="butt"/><path d="M274.09759,176.57237c-0.54933,-1.22834 -1.50649,-2.65935 -3.36882,-2.44367c-8.97165,1.03904 -30.18382,16.91735 -30.18382,16.91735l-1.8421,-1.57895l1.97368,-2.36842l-2.76316,-1.57895" fill="none" stroke="#000000" stroke-width="1.2" stroke-linecap="round"/><path d="M227.78181,185.51974l-2.5,1.57895l0.52631,2.63158c0,0 -8.86977,-10.59311 -13.20725,-12.09426c-1.04752,-0.36254 -1.70679,0.42474 -2.05591,1.30478" fill="none" stroke="#000000" stroke-width="1.2" stroke-linecap="round"/><path d="M252.51864,213.41447l-17.63158,-1.57895l-9.73685,-10.26315l18.68421,0.92105z" fill="#706d6d" stroke="#000000" stroke-width="0" stroke-linecap="round"/><path d="M249.6239,191.44079c4.46974,-2.67797 8.42105,-2.23684 8.42105,-2.23684" fill="none" stroke="#000000" stroke-width="1.2" stroke-linecap="round"/><g fill="none" stroke="#000000" stroke-width="1" stroke-linecap="round"><path d="M272.66531,150.7628l-1.84045,5.11031l-5.58174,-0.42411"/><path d="M279.22093,158.12203l-5.14754,-1.52128l0.25759,-5.42486"/><path d="M271.45374,165.17289l1.73772,-5.26546l5.48711,0.51347"/><path d="M264.83234,157.87945l5.1106,1.43192l-0.15486,5.58001"/></g><path d="M238.96601,202.36184l4.86842,4.21053l0.26316,-3.68421" fill="#ffffff" stroke="#000000" stroke-width="1.2" stroke-linecap="round"/><path d="M252.51865,213.41447l-17.63158,-1.57895l-9.73685,-10.26315l18.68421,0.92105z" fill="none" stroke="#000000" stroke-width="1.2" stroke-linecap="round"/></g></g></svg>