<svg version="1.1" xmlns="http://www.w3.org/2000/svg" xmlns:xlink="http://www.w3.org/1999/xlink" width="110.42161" height="113.48473" viewBox="0,0,110.42161,113.48473"><g transform="translate(-185.98405,-125.13756)"><g stroke-miterlimit="10"><path d="M245.47657,220.34335c-1.10071,-3.62704 3.92568,-3.25591 5.56872,-2.5275c0.07063,0.03131 5.79392,2.41242 6.29302,3.61227c1.28235,3.08286 -0.33796,6.16283 -3.67034,5.02992c-1.26053,-0.42854 -7.09069,-2.48765 -8.1914,-6.11469z" fill="#9a8479" stroke="#000000" stroke-width="1.2" stroke-linecap="butt"/><path d="M244.87466,221.43746c3.08398,-7.72062 -2.01819,5.05247 0,0z" fill="#9a8479" stroke="#000000" stroke-width="1.2" stroke-linecap="butt"/><path d="M248.17612,226.91715c0,0 0.87933,4.45203 1.32603,6.07924c0.4508,1.62712 1.00325,3.14095 1.00325,3.14095c0,0 0.81989,0.29746 0.59256,0.93586c-0.22535,0.64158 -3.01593,0.61051 -6.51797,0.75189c-3.50285,0.14214 -6.35908,-0.3084 -6.92304,-0.98639c-0.56199,-0.67034 0.47428,-0.90874 0.47428,-0.90874c0,0 1.05988,-4.40545 0.03866,-6.41167c-1.36154,-2.67569 0.20364,-3.37238 4.30246,-4.65161v0v0v0v0v0v0c4.09882,-1.27922 5.70377,2.05046 5.70377,2.05046z" fill="#9a8479" stroke="#000000" stroke-width="1.2" stroke-linecap="butt"/><path d="M233.70478,228.71459c-0.03775,0.30726 -0.09381,0.49822 -0.09381,0.49822c0,0 -0.70864,3.00248 -0.70834,4.63277c-0.00082,1.63039 0.09783,2.30434 0.09783,2.30434c0,0 0.59741,0.05494 0.46312,0.67561c-0.13015,0.62151 -1.90943,1.29545 -6.98814,1.18473c-5.08088,-0.1158 -6.08294,-1.04472 -6.10928,-1.51957c-0.02849,-0.47484 1.06931,-0.95645 1.06931,-0.95645c0,0 0.47435,-3.03656 1.20454,-5.67668c0.41488,-1.49709 1.09874,-2.96023 1.61347,-3.94706" fill="#9a8479" stroke="#000000" stroke-width="1.2" stroke-linecap="butt"/><path d="M233.0778,213.02983v0v0v0v0v0v0c9.22345,-0.5312 12.94027,3.45159 12.93819,3.45084c0.80032,1.02871 1.80232,2.48017 2.25188,3.80549c0.12396,0.36609 0.20897,0.778 0.24583,1.21983c0,0 0.01648,1.53467 -0.16262,2.00318c-0.75135,1.96276 -2.02342,4.11126 -5.25874,5.08268c-5.07921,1.53162 -10.56958,1.34362 -16.3586,-0.6688c-1.95354,-0.67719 -3.14575,-1.83127 -3.82124,-3.14507c-0.48241,-0.94551 -0.72678,-2.1783 -0.72678,-2.1783c-0.36471,-2.05063 0.02557,-4.05237 0.24267,-4.92289c0,0 1.42713,-4.11583 10.64944,-4.64696z" fill="#9a8479" stroke="#000000" stroke-width="1.2" stroke-linecap="butt"/><g stroke="#000000" stroke-width="1.2"><path d="M282.15437,170.43281c0,0 12.70971,-12.00582 13.57282,-3.57388c0.86318,8.43182 -5.44552,19.42765 -16.38151,30.1723c0,0 3.00537,-15.36603 2.80871,-26.59841zM282.15437,170.43281c0.05439,-1.32619 -0.11058,-3.82133 -0.11058,-3.82133M278.66948,199.45556l0.56909,-2.49787" fill="#9a8479" stroke-linecap="round"/><path d="M279.23874,196.9567c0.57885,-2.84931 1.43094,-7.52542 2.12231,-13.30767c0.40456,-3.36562 0.62683,-6.80759 0.75087,-9.77004l0.00043,0.00375c6.83854,-3.71454 10.65383,5.41085 10.65383,5.41085l0.00231,-0.00035c-4.80444,9.44495 -13.43371,17.40792 -13.43371,17.40792l-0.09602,0.25554v0v0v0v0z" fill="#ee4036" stroke-linecap="butt"/></g><path d="M193.42877,167.78094c2.93939,-18.42227 12.91495,-27.44193 18.74764,-32.16225c13.23959,-10.72193 31.61154,-9.43353 31.61154,-9.43353l-0.51407,12.09322c0,0 0.29976,-3.46336 8.25693,-8.79935c7.95529,-5.33617 18.76908,-3.39852 18.76908,-3.39852l-7.24151,14.51661c0,0 3.8635,-4.36631 6.82352,-5.81222c5.24737,-2.55836 9.30974,-0.84807 9.30974,-0.84807l-2.5604,11.70494c0,0 12.59957,22.65396 11.38597,37.25298c-1.2136,14.59903 -8.31655,40.15603 -43.81021,37.61689c-61.35018,-6.17851 -50.7782,-52.73065 -50.7782,-52.73065z" fill="#9a8479" stroke="#000000" stroke-width="1.2" stroke-linecap="butt"/><g stroke="#000000" stroke-width="1.2"><path d="M205.45084,196.03369c-14.08072,-9.45555 -21.21023,-19.33037 -18.17655,-27.13136c3.0347,-7.80159 19.4994,2.74492 19.4994,2.74492c-2.62014,10.35309 -1.32286,24.38644 -1.32286,24.38644zM207.73117,168.12369c0,0 -0.76364,2.30318 -0.95653,3.52379M205.62581,195.95999l0.33143,2.27891" fill="#9a8479" stroke-linecap="round"/><path d="M205.53567,195.72951c0,0 -11.21811,-6.98758 -16.42567,-15.49254l0.00291,-0.00025c0,0 7.58017,-8.5587 17.00806,-5.41329l0.00121,-0.00261c-0.42897,2.72259 -0.81048,5.88449 -0.90388,8.96756c-0.16716,5.29877 0.13449,9.57145 0.4075,12.17167z" fill="#ee4036" stroke-linecap="butt"/></g><path d="M279.63283,193.89618c-0.2046,12.8169 -14.96681,22.97404 -32.97233,22.68662c-18.00552,-0.28742 -32.43602,-10.91057 -32.23142,-23.72747c0.2046,-12.8169 14.96682,-22.97404 32.97233,-22.68662c18.00552,0.28742 32.43602,10.91057 32.23142,23.72747z" fill="#e6e7e8" stroke="#000000" stroke-width="1.2" stroke-linecap="butt"/><g stroke="#000000"><path d="M273.30078,174.46933c0,0 -2.67015,4.38058 -6.15593,6.60535c-1.5601,0.99571 -5.82496,3.2285 -8.01661,3.73743c-5.67575,1.31802 -11.80185,0.95133 -11.80185,0.95133l4.91334,-6.84702c0,0 -4.30307,1.90223 -7.91631,2.87838c-4.90526,1.32521 -8.90501,-0.744 -8.90501,-0.744l13.46879,-12.39978" fill="#9a8479" stroke-width="0" stroke-linecap="butt"/><path d="M270.89275,177.64564c0,0 -4.57553,5.01959 -9.79411,6.79655c-5.21858,1.77696 -14.03408,1.31707 -14.03408,1.31707l5.17521,-6.84284c0,0 -3.4617,1.70159 -7.07493,2.67775c-4.90527,1.3252 -10.37829,-0.33938 -10.37829,-0.33938l12.50865,-11.32212" fill="none" stroke-width="1.2" stroke-linecap="round"/></g><g fill="none" stroke="#ee4036" stroke-width="1.2" stroke-linecap="round"><path d="M218.37702,149.61534l-3.60355,5.53599l-5.51432,-2.38585"/><path d="M207.66563,155.60262l4.46753,3.17811l-1.98246,6.31757"/><path d="M223.52325,160.54867l-4.88799,-3.40806l2.40291,-6.08762"/><path d="M212.83555,166.54889l3.59983,-5.01311l5.51805,1.86296"/></g><path d="M261.74629,193.8123c2.17965,-0.61929 6.02656,-1.87206 7.11049,-2.6028c0.57735,-0.37845 1.38833,-0.16378 1.80391,0.51469c0.40923,0.67506 0.27264,1.54503 -0.30852,1.94137c-1.72008,1.16698 -7.14288,2.72478 -7.75506,2.8997c-0.67408,0.19044 -1.41126,-0.27251 -1.64598,-1.03315c-0.21089,-0.68782 0.05561,-1.38062 0.60562,-1.65034c0.05917,-0.02903 0.12232,-0.05357 0.18953,-0.06944z" fill="#231f20" stroke="#231f20" stroke-width="0.5" stroke-linecap="butt"/><path d="M235.5989,190.08937c0.08689,0.02822 0.17196,0.06595 0.25764,0.11108c3.01044,1.65645 8.83807,2.85779 8.89523,2.87029c0.77406,0.16016 1.30474,0.9243 1.15714,1.71123c-0.14891,0.7846 -0.90789,1.29201 -1.69692,1.13103c-0.25745,-0.05632 -6.31995,-1.3046 -9.72645,-3.17684c-0.70617,-0.38734 -0.97432,-1.27188 -0.59385,-1.97612c0.33255,-0.61242 1.05703,-0.88181 1.70721,-0.67067z" fill="#231f20" stroke="#231f20" stroke-width="0.5" stroke-linecap="butt"/><path d="M245.64645,191.13764l1.56949,1.75809l-1.50911,1.13126c0,0 -16.97997,-11.88962 -24.22792,-12.76561" fill="none" stroke="#231f20" stroke-width="1.2" stroke-linecap="round"/><path d="M272.86626,186.9544c-3.61615,0.67299 -11.66552,7.51444 -11.66552,7.51444l-2.43019,-0.99081l2.35788,-2.24277" fill="none" stroke="#231f20" stroke-width="1.2" stroke-linecap="round"/><path d="M218.80597,217.21455c0.11797,-0.21185 0.26028,-0.41309 0.42705,-0.59933c1.19739,-1.33717 3.20255,-1.3952 4.47867,-0.12963c0.26116,0.259 0.47154,0.55337 0.63073,0.86922c1.2387,1.22847 3.91446,3.10226 3.9642,4.74658c0.10094,3.3374 -2.50962,5.63884 -5.22043,3.3939c-1.3008,-1.07724 -3.56645,-3.15186 -4.40809,-5.17691c-0.07887,-0.1761 -0.1424,-0.35802 -0.19053,-0.54351c-0.09202,-0.32601 -0.14082,-0.64823 -0.13621,-0.96218c0.00914,-0.62112 0.1774,-1.15653 0.4546,-1.59814z" fill="#9a8479" stroke="#000000" stroke-width="1.2" stroke-linecap="butt"/><g stroke="#000000" stroke-width="1.2"><path d="M233.88504,213.99124c2.86821,0.03897 5.16176,2.3957 5.12279,5.26391c-0.03897,2.86821 -2.3957,5.16176 -5.26391,5.12279c-2.86821,-0.03897 -5.16176,-2.3957 -5.12279,-5.26391c0.03897,-2.86821 2.3957,-5.16176 5.26391,-5.12279z" fill="#5c5e5f" stroke-linecap="butt"/><path d="M230.59704,224.71994l-1.14146,2.38737l-1.93917,-0.11877l-2.50865,0.98252l-0.70908,-2.22768" fill="#9a8479" stroke-linecap="round"/><path d="M231.97,220.45415l-0.8471,4.20194l-7.14107,2.27304l-3.65031,-2.68299l-0.20964,-3.95295l7.9381,-2.7889z" fill="#9a8479" stroke-linecap="round"/><path d="M229.08615,222.64734l-0.28957,2.43291" fill="none" stroke-linecap="round"/><path d="M225.46605,224.77849l-0.01916,1.41054" fill="none" stroke-linecap="round"/><path d="M221.39578,222.28635l1.26838,1.04327l-0.0209,1.53877l-2.19561,1.12446l-1.65306,-1.04849l0.02439,-1.79524z" fill="#5c5e5f" stroke-linecap="round"/></g><path d="M254.62442,214.49937c-2.00877,2.39985 -4.72437,3.43532 -6.06548,2.31277c-1.34109,-1.12255 -0.79984,-3.97802 1.20893,-6.37788c2.00877,-2.39985 4.72437,-3.43532 6.06548,-2.31277c1.34109,1.12255 0.79984,3.97802 -1.20893,6.37788z" fill="#706d6d" stroke="#231f20" stroke-width="1.2" stroke-linecap="butt"/></g></g></svg>