<svg version="1.1" xmlns="http://www.w3.org/2000/svg" xmlns:xlink="http://www.w3.org/1999/xlink" width="106.15903" height="130.08764" viewBox="0,0,106.15903,130.08764"><g transform="translate(-203.24245,-115.3637)"><g stroke-miterlimit="10"><path d="M247.86893,222.08495c0,-9.5124 7.71133,-17.22374 17.22374,-17.22374c9.5124,0 17.22374,7.71133 17.22374,17.22374c0,9.5124 -7.71133,17.22374 -17.22374,17.22374c-9.5124,0 -17.22374,-7.71133 -17.22374,-17.22374z" fill="#d5d5d5" fill-rule="nonzero" stroke="#001026" stroke-width="1.2" stroke-linecap="butt" stroke-linejoin="miter"/><path d="M204.05477,224.42823c0,-10.06837 8.16203,-18.23039 18.23039,-18.23039c10.06837,0 18.23039,8.16203 18.23039,18.23039c0,10.06837 -8.16203,18.23039 -18.23039,18.23039c-10.06837,0 -18.23039,-8.16203 -18.23039,-18.23039z" fill="#d5d5d5" fill-rule="nonzero" stroke="#001026" stroke-width="1.2" stroke-linecap="butt" stroke-linejoin="miter"/><path d="M271.60688,210.04957c0,0 7.09146,-9.84189 10.94267,-15.18681c4.3067,-5.97706 -2.634,-26.10881 -2.634,-26.10881l10.83209,-0.13904c0,0 5.54104,22.95141 1.92751,28.95852c-4.12792,6.86224 -13.26522,22.05196 -13.26522,22.05196z" fill="#2b2b2b" fill-rule="nonzero" stroke="#001026" stroke-width="1.2" stroke-linecap="butt" stroke-linejoin="miter"/><path d="M204.73754,207.49645l-0.78849,-4.75156c0,0 44.54056,-0.4483 57.22032,0.5058c6.07868,0.4574 14.96231,4.92568 14.96231,4.92568l-1.2276,7.16955c0,0 -25.32442,2.075 -37.30304,0.73497c-11.37947,-1.27301 -32.8635,-8.58443 -32.8635,-8.58443z" fill="#2b2b2b" fill-rule="nonzero" stroke="#001026" stroke-width="1.2" stroke-linecap="butt" stroke-linejoin="miter"/><path d="M203.94905,203.36852l0.98208,-67.27224c0,0 9.80035,-20.13257 16.94082,-20.13257c10.60422,0 39.52858,0 39.52858,0v87.40481z" fill="#2b2b2b" fill-rule="nonzero" stroke="#001026" stroke-width="1.2" stroke-linecap="butt" stroke-linejoin="miter"/><path d="M277.04086,228.45809c2.94029,0.06872 8.64178,0.44685 6.72259,5.87425c-1.7998,5.26694 -19.02176,4.79302 -19.48316,-0.78525c0.01094,-2.36006 4.48789,-10.61969 4.7806,-12.52083c0.54848,-3.25853 -12.36582,-0.84126 -17.37624,-4.56138c-2.31348,-1.71771 1.05111,-10.68693 1.04808,-11.47662c-0.00959,-2.49998 17.81601,5.08516 26.65855,6.98378c-1.57903,4.18859 -2.79073,16.40775 -2.35042,16.48605z" fill="#ffab19" fill-rule="evenodd" stroke="#001026" stroke-width="1.2" stroke-linecap="round" stroke-linejoin="round"/><path d="M294.0028,188.2596c-1.59212,3.42967 -18.78664,13.25341 -25.5892,11.28253c-2.39185,-0.69299 -15.94809,-21.56623 -8.67356,-23.78572c7.27453,-2.21948 9.57983,5.14463 11.7964,9.33713c1.81653,3.55972 15.12766,-2.32265 16.10231,-2.55396c2.02758,-0.57923 3.14086,0.48151 4.43985,2.02712c0.87892,1.04578 2.55726,2.17845 1.92422,3.69291z" fill="#ffab19" fill-rule="evenodd" stroke="#001026" stroke-width="1.2" stroke-linecap="round" stroke-linejoin="round"/><g fill-rule="evenodd"><path d="M246.92531,201.42808c0.95449,0.6645 2.97344,2.14092 -0.75144,6.06644c-3.72488,3.92552 -12.73451,3.53416 -13.76391,3.38436c-4.00765,-0.45183 -8.89729,-1.16341 -14.03946,-3.75134c-14.94929,-7.43154 -12.62488,-24.30667 -7.21332,-26.27853c5.28289,-1.99058 5.95356,8.7504 12.11311,16.08539c2.67623,3.28026 6.25799,4.85272 9.25256,5.94551c4.26259,1.40873 13.33803,-2.26374 14.40247,-1.45183z" fill="#ffab19" stroke="#001026" stroke-width="1.2" stroke-linecap="round" stroke-linejoin="round"/><path d="M216.53074,186.36143c1.5532,3.77384 4.83054,9.24397 4.83054,9.24397c0,0 -4.59244,-1.85093 -7.61294,-0.0567c-2.4309,1.35443 -2.32817,4.26018 -2.20191,5.19836c-1.42933,-1.9162 -3.15107,-4.53197 -3.78241,-9.22284c-0.63134,-4.69088 1.44189,-9.90796 4.12774,-10.30549c2.64839,-0.14018 3.01089,1.88357 4.63899,5.1427z" fill="#ffffff" stroke="none" stroke-width="1" stroke-linecap="butt" stroke-linejoin="miter"/></g><g fill-rule="evenodd"><path d="M248.77701,210.48904c-16.27048,-2.47805 -11.33039,-11.98992 -12.16764,-19.57326c-0.49707,-6.6339 1.38715,-6.62176 9.10982,-10.1165c4.23081,-2.18297 6.72429,-3.46046 9.11984,-5.34968c3.63372,-2.77757 6.83473,3.10984 7.84063,6.65066c0,0 1.41221,5.29533 1.48333,8.48382c0.03333,2.29061 -0.63045,12.27948 -5.03367,17.23897c-3.0572,3.44343 -10.35232,2.66599 -10.35232,2.66599z" fill="#ffab19" stroke="#001026" stroke-width="1.2" stroke-linecap="round" stroke-linejoin="round"/><path d="M262.36243,199.71895c0,0 -2.6575,-0.13935 -5.66981,-0.53561c-3.70484,-0.41092 -7.1674,-0.48416 -7.4197,-5.58868c0.08789,-4.15508 -0.58285,-9.12987 6.82431,-9.49974c7.02053,-0.43347 6.90084,3.91491 6.90084,3.91491c1.15779,6.84186 -0.63565,11.7091 -0.63565,11.7091z" fill="#ffffff" stroke="none" stroke-width="1" stroke-linecap="butt" stroke-linejoin="miter"/></g><path d="M278.58572,172.82924c0.62409,-4.59975 4.85885,-7.82266 9.45859,-7.19857c4.59975,0.62409 7.82266,4.85885 7.19857,9.45859c-0.62409,4.59975 -4.85885,7.82266 -9.45859,7.19857c-4.59975,-0.62409 -7.82266,-4.85885 -7.19857,-9.45859z" fill="#ffab19" fill-rule="nonzero" stroke="#001026" stroke-width="1.2" stroke-linecap="butt" stroke-linejoin="miter"/><path d="M261.07877,129.546c0.3,-0.2 0.8,-0.1 0.9,0.3l2.6,10.7c0,0 6.4,4.7 8.3,8c3.2,5.5 3.3,10 3.3,10c0,0 7.1,2.1 8.3,7.8c1.2,5.7 -3.2,16.5 -22,20.2c-18.8,3.7 -33.9,-1.4 -41,-12.8c-7.1,-11.4 4.1,-25 3.5,-24.2l-2.1,-17.9c-0.1,-0.4 0.4,-0.7 0.8,-0.5l12.1,7.9c0,0 4.5,-1.7 9.2,-1.9c2.8,-0.2 5.2,0 7.5,0.4z" fill="#ffab19" fill-rule="evenodd" stroke="#001026" stroke-width="1.2" stroke-linecap="butt" stroke-linejoin="miter"/><path d="M275.87877,158.94597c0,0 6.9,1.8 8.1,7.5c1.2,5.7 -3.6,16 -22.2,19.6c-24.2,5 -35.7,-9.4 -29,-20c6.7,-10.7 18.2,-1.6 26.6,-2.2c7.2,-0.5 8,-6.8 16.5,-4.9z" fill="#ffffff" fill-rule="evenodd" stroke="none" stroke-width="1" stroke-linecap="butt" stroke-linejoin="miter"/><path d="M237.59391,154.97534c0,-6.64545 5.3872,-12.03265 12.03264,-12.03265c6.64545,0 12.03265,5.3872 12.03265,12.03265c0,6.64545 -5.38719,12.03265 -12.03265,12.03265c-6.64545,0 -12.03263,-5.3872 -12.03263,-12.03265z" fill="#ffffff" fill-rule="nonzero" stroke="#001026" stroke-width="1.2" stroke-linecap="butt" stroke-linejoin="miter"/><path d="M294.11409,160.21065c-4.7,3.8 -11.9,3.9 -11.9,3.9" fill="none" fill-rule="evenodd" stroke="#001026" stroke-width="1.2" stroke-linecap="round" stroke-linejoin="round"/><path d="M292.81411,171.4106c-6.3,0.5 -10.2,-1.4 -10.2,-1.4" fill="none" fill-rule="evenodd" stroke="#001026" stroke-width="1.2" stroke-linecap="round" stroke-linejoin="round"/><path d="M270.39709,162.70976c2.1,0 4.3,0.2 4.4,0.9c0.1,1.4 -1.4,4.2 -3,4.3c-1.8,0.2 -6,-2.3 -6,-3.9c-0.1,-1.2 2.6,-1.3 4.6,-1.3z" fill="#001026" fill-rule="evenodd" stroke="#001026" stroke-width="1.2" stroke-linecap="round" stroke-linejoin="round"/><path d="M213.97877,159.74593c0,0 8.6,2.8 12.1,5.9" fill="none" fill-rule="evenodd" stroke="#001026" stroke-width="1.2" stroke-linecap="round" stroke-linejoin="round"/><path d="M226.37877,169.146c-4.3,1.7 -11.7,0.6 -11.7,0.6" fill="none" fill-rule="evenodd" stroke="#001026" stroke-width="1.2" stroke-linecap="round" stroke-linejoin="round"/><path d="M261.66967,155.22035c0,1.95364 -2.30651,7.4269 -4.08255,7.4269c-1.77604,0 -2.3112,-5.47326 -2.3112,-7.4269c0,-1.95364 1.42083,-3.55208 3.19687,-3.55208c1.77604,0.1776 3.19688,1.59843 3.19688,3.55208" fill="#001026" fill-rule="evenodd" stroke="none" stroke-width="1" stroke-linecap="butt" stroke-linejoin="miter"/><path d="M264.42106,147.11185c0,0 -1.11696,5.4535 -2.96131,3.59199c-3.49696,-3.52949 -15.37157,-16.05474 -15.37157,-16.05474" fill="none" fill-rule="nonzero" stroke="#001026" stroke-width="2.5" stroke-linecap="round" stroke-linejoin="miter"/><path d="M268.57292,151.83125c0,-6.10878 3.57362,-11.06091 7.98189,-11.06091c4.40828,0 7.9819,4.95214 7.9819,11.06091c0,6.10878 -3.57362,11.06091 -7.9819,11.06091c-4.40828,0 -7.98188,-4.95213 -7.98188,-11.06091z" fill="#ffffff" fill-rule="nonzero" stroke="#001026" stroke-width="1.2" stroke-linecap="butt" stroke-linejoin="miter"/><path d="M284.54368,152.40099c0,1.79587 -1.53003,6.91862 -2.70817,6.91862c-1.17814,0 -1.53314,-5.12275 -1.53314,-6.91862c0,-1.79587 0.94252,-3.26522 2.12065,-3.26522c1.17814,0.16326 2.12065,1.46935 2.12065,3.26522" fill="#001026" fill-rule="evenodd" stroke="none" stroke-width="1" stroke-linecap="butt" stroke-linejoin="miter"/><path d="M267.48649,143.16684c0,0 3.38998,-4.26447 5.89204,-4.66835c4.21239,-0.67996 17.04664,-2.73705 17.04664,-2.73705" fill="none" fill-rule="nonzero" stroke="#001026" stroke-width="2.5" stroke-linecap="round" stroke-linejoin="miter"/><path d="M232.77592,162.22915c0.07172,-0.52393 0.64943,-0.84517 1.15544,-0.64247c2.36318,1.25752 9.14942,4.32138 16.93669,5.92101c7.01931,1.36107 14.32595,3.11626 16.34448,2.99223c0.67284,-0.04134 -22.06936,17.08084 -35.71502,14.41248c-11.74018,-2.9413 0.00697,-16.31885 1.27841,-22.68324z" fill="#ffffff" fill-rule="evenodd" stroke="#001026" stroke-width="1.2" stroke-linecap="round" stroke-linejoin="round"/><path d="M252.773,235.55563c2.54998,1.46548 7.3776,4.52229 3.09807,8.37269c-4.09797,3.76651 -18.99966,-4.87988 -16.7392,-10.00046c1.13745,-2.0679 9.01724,-7.1839 10.18288,-8.71402c2.039,-2.60026 -10.4604,-6.6484 -13.08389,-12.31063c-1.21135,-2.61445 6.03042,-8.88534 6.40514,-9.58047c1.18627,-2.20063 13.21989,12.98089 20.08006,18.87439c-3.38871,2.92477 -10.29243,13.07932 -9.94307,13.35851z" fill="#ffab19" fill-rule="evenodd" stroke="#001026" stroke-width="1.2" stroke-linecap="round" stroke-linejoin="round"/><g fill-rule="nonzero" stroke="#001026" stroke-width="1.2" stroke-linecap="round" stroke-linejoin="miter"><path d="M286.64,193.10777l-3.76926,-0.52997l0.01853,-4.45711l-0.84787,-2.23212l3.10066,-3.58713z" fill="#ffab19"/><path d="M296.97911,180.29351l1.48723,13.37773l-5.84135,3.06144l-6.33994,-0.71208l-1.35787,-3.26282l0.34713,-1.02714l-0.84146,-3.77497l0.17784,-1.54213l-0.84003,-4.11782l4.81778,-4.26571z" fill="#ffab19"/><path d="M288.39349,183.68641l-2.06711,2.39142" fill="none"/><path d="M286.64785,191.22207l2.92566,-2.73071" fill="none"/></g><path d="M308.80148,190.39541c0,4.94747 -17.65167,8.95819 -39.42612,8.95819c-21.77443,0 -31.69302,-4.15291 -31.69302,-9.10038c0,-4.94747 9.91858,-2.70167 31.69302,-2.70167c21.77444,0 39.42612,-2.1036 39.42612,2.84387z" fill="#ffab19" fill-rule="nonzero" stroke="#001026" stroke-width="1.2" stroke-linecap="butt" stroke-linejoin="miter"/></g></g></svg>