<svg version="1.1" xmlns="http://www.w3.org/2000/svg" xmlns:xlink="http://www.w3.org/1999/xlink" width="114.00975" height="117.94465" viewBox="0,0,114.00975,117.94465"><g transform="translate(-185.39223,-120.29278)"><g stroke-width="1.2" stroke-miterlimit="10"><g fill="#9a8479" stroke="#000000" stroke-linecap="butt"><path d="M249.33806,226.48063c-2.71554,0 -2.65643,-3.09921 -2.65643,-3.09921l0.85632,-3.19588c0.42924,-0.4439 1.14688,-1.60257 1.98483,-2.15943c-0.49936,-0.58279 -0.90291,-1.27572 -1.37093,-1.89452c0,0 -1.74371,-2.3324 0.33888,-4.37324c2.08259,-2.04085 3.8263,0.29155 3.8263,0.29155c2.45874,3.33801 6.90076,5.00524 2.85465,10.14905c-0.67576,0.85908 -1.39172,1.27854 -2.6448,2.11352c-1.33501,0.88956 -3.18879,2.16817 -3.18879,2.16817z"/><path d="M250.19477,225.5131c0,0 0.51307,5.01102 0.81388,6.84255c0.30451,1.83143 0.7081,3.53533 0.7081,3.53533c0,0 0.72235,0.33481 0.47642,1.05337c-0.24432,0.72214 -2.76504,0.68717 -5.93981,0.84629c-3.17555,0.16 -5.72906,-0.34712 -6.19596,-1.11025c-0.4656,-0.75451 0.48628,-1.02284 0.48628,-1.02284c0,0 1.23701,-4.9586 0.44083,-7.21671c-1.06144,-3.01165 0.39758,-3.79582 4.18388,-5.23566v0v0v0v0v0v0c3.78629,-1.43984 5.02637,2.30792 5.02637,2.30792z"/><path d="M238.32909,209.88209v0v0v0v0v0v0c8.37158,-0.59791 11.47945,3.88498 11.4776,3.88412c0.65837,1.15787 1.47228,2.79158 1.79478,4.2833c0.08888,0.41205 0.13965,0.87569 0.14501,1.373c0,0 -0.08225,1.72736 -0.27382,2.2547c-0.80346,2.20921 -2.08943,4.62746 -5.07564,5.72086c-4.68856,1.72392 -9.63991,1.51232 -14.74576,-0.75277c-1.72313,-0.76222 -2.72781,-2.06121 -3.25528,-3.53997c-0.37624,-1.06422 -0.51911,-2.45181 -0.51911,-2.45181c-0.19988,-2.3081 0.27965,-4.56118 0.53101,-5.54101c0,0 1.55067,-4.63261 9.92122,-5.23042z"/><path d="M239.08073,228.02601c-0.05197,0.31728 -0.11373,0.51448 -0.11373,0.51448c0,0 -0.81499,3.10045 -0.90939,4.78394c-0.09543,1.68359 -0.04539,2.37953 -0.04539,2.37953c0,0 0.53686,0.05674 0.37942,0.69766c-0.15374,0.64178 -1.80135,1.33772 -6.38605,1.22338c-4.58636,-0.11958 -5.43829,-1.07881 -5.43451,-1.56915c0.00182,-0.49034 1.02221,-0.98765 1.02221,-0.98765c0,0 0.60517,-3.13564 1.41859,-5.8619c0.46199,-1.54594 1.16518,-3.05681 1.6878,-4.07585"/></g><g><path d="M283.45308,164.49663c0,0 12.57471,-10.65888 14.8425,-2.85729c2.26787,7.80149 -3.20375,17.73559 -13.96025,27.28895c0,0 1.0581,-14.06969 -0.88225,-24.43165zM283.45308,164.49663c-0.14111,-1.22092 -0.70965,-3.52661 -0.70965,-3.52661M283.93934,191.1416l0.26333,-2.28456" fill="#9a8479" stroke="#000000" stroke-linecap="round"/><path d="M284.2027,188.85614c0.22067,-2.60823 0.47182,-6.89188 0.37159,-12.2005c-0.0559,-3.08985 -0.33014,-6.25598 -0.64246,-8.98322l0.00107,0.00347c7.18565,-3.20411 12.90667,5.332 12.90667,5.332l0.00256,-0.00025c-4.0032,8.5528 -12.56963,15.61599 -12.56963,15.61599l-0.0698,0.23249v0v0v0v0z" fill="#ee4036" stroke="#000000" stroke-linecap="butt"/><path d="M200.28029,193.33524v0v0v0v0v0v0c-0.04281,-0.08568 -1.2987,-2.49604 -1.29864,-2.49704c-3.49831,-6.43457 -3.52391,-20.52033 -2.92848,-24.88075l0.04217,-0.20807c2.19785,-18.50152 11.41911,-27.89979 16.82899,-32.84262c12.27961,-11.22698 29.85196,-10.67253 29.85196,-10.67253l-0.09216,12.0889c0,0 0.17194,-3.4682 7.58866,-9.11c7.41491,-5.6419 17.79691,-4.1387 17.79691,-4.1387l-6.43145,14.77512c0,0 3.5426,-4.51115 6.31932,-6.07192c4.9226,-2.76201 8.85513,-1.21692 8.85513,-1.21692l-1.66014,9.30203c0,0 6.51596,9.56755 11.40863,18.48501c1.04733,1.90284 2.27702,3.83913 3.00002,6.0255c2.62966,7.94396 2.25637,21.80274 -1.61252,28.44903c-0.66994,1.17675 -1.391,2.31522 -2.13525,3.43237c-0.19329,0.28677 -0.38738,0.57169 -0.58395,0.85287c-0.67918,0.98097 -1.38424,1.94046 -2.12083,2.86744c-0.09947,0.12333 -0.19142,0.25523 -0.2909,0.37867c-0.83409,1.03049 -1.70804,2.01885 -2.61284,2.97654c-0.21615,0.23122 -0.44269,0.45362 -0.66332,0.68277c-0.77361,0.78925 -1.57199,1.55349 -2.38832,2.2859c-0.18827,0.17147 -0.37219,0.3458 -0.56189,0.51077c-0.98073,0.85111 -1.99759,1.6575 -3.04109,2.42345c-0.23233,0.16796 -0.46958,0.32741 -0.70359,0.49156c-0.87461,0.61697 -1.7754,1.20255 -2.6942,1.7572c-0.26519,0.1578 -0.52463,0.32495 -0.7914,0.47905c-1.12039,0.64489 -2.26436,1.24501 -3.44139,1.79248c-0.21011,0.09875 -0.43208,0.18317 -0.64477,0.27816c-1.00482,0.44928 -2.0298,0.8567 -3.07432,1.2286c-4.41826,1.57194 -9.16892,2.48437 -14.21575,2.54882c-5.76782,0.07323 -10.95681,-0.40858 -15.61701,-1.29905c-1.15231,-0.22011 -2.27131,-0.46799 -3.35937,-0.7358c-0.20653,-0.0547 -0.41226,-0.10756 -0.617,-0.16035c-1.10234,-0.28577 -2.18305,-0.58649 -3.21755,-0.91803c-0.00619,-0.00217 -0.01416,-0.00445 -0.02125,-0.00667c-1.03658,-0.32885 -2.03059,-0.68775 -3.00008,-1.06332c-0.16975,-0.06516 -0.34398,-0.13056 -0.51277,-0.19666c-0.93114,-0.36689 -1.83674,-0.75401 -2.70773,-1.1589c-0.15331,-0.06869 -0.30064,-0.14523 -0.45285,-0.21565c-0.85924,-0.40701 -1.69586,-0.8271 -2.49618,-1.26669c-0.03048,-0.01984 -0.06492,-0.03369 -0.09461,-0.05168c-0.81933,-0.45334 -1.59987,-0.9225 -2.35714,-1.4003c-0.14125,-0.08961 -0.2816,-0.17746 -0.41905,-0.26694c-0.72785,-0.47235 -1.4318,-0.95241 -2.10062,-1.44382c-0.10231,-0.07388 -0.19907,-0.15013 -0.30044,-0.22476c-0.63453,-0.47494 -1.24695,-0.95769 -1.83091,-1.44777c-0.06042,-0.04695 -0.12709,-0.09698 -0.18466,-0.14828c-0.60867,-0.51589 -1.18144,-1.04057 -1.73246,-1.56746c-0.10709,-0.10131 -0.21225,-0.2033 -0.31477,-0.30425c-0.53654,-0.52613 -1.05145,-1.0518 -1.53334,-1.58733c-0.05523,-0.05847 -0.10497,-0.12012 -0.15927,-0.17933c-0.45363,-0.50861 -0.88258,-1.01926 -1.28638,-1.52852c-0.05623,-0.07375 -0.12067,-0.14629 -0.1779,-0.2183c-0.41309,-0.53506 -1.29934,-1.79856 -1.36751,-1.89927c-0.35534,-0.53254 -0.69286,-1.06312 -0.9953,-1.58893c-0.01879,-0.03277 -0.0368,-0.06549 -0.0538,-0.09805c-0.29008,-0.50614 -0.55174,-1.00328 -0.79465,-1.4976z" fill="#9a8479" stroke="#000000" stroke-linecap="butt"/><path d="M273.68762,170.50102v0v0v0v0v0v0c0,0 9.1067,12.44655 5.34649,24.57577c-3.75831,12.12562 -22.17197,16.26665 -36.02744,14.50714c-18.31622,-2.32732 -26.1477,-14.5502 -22.4592,-25.55398c3.69271,-11.00353 28.34827,-14.78933 28.34827,-14.78933l-4.47374,7.79786c0,0 3.17999,-0.33399 5.81583,-1.73951c2.63492,-1.40278 5.54642,-3.30979 5.54642,-3.30979l-6.34798,8.48485c0,0 7.69866,0.36738 14.52964,-2.09097c6.83077,-2.45476 9.72172,-7.88204 9.72172,-7.88204z" fill="#e6e7e8" stroke="#000000" stroke-linecap="butt"/><path d="M204.75284,191.99207c-13.70114,-6.41443 -20.82533,-14.413 -18.23483,-22.21861c2.59144,-7.80635 18.59356,-0.78212 18.59356,-0.78212c-2.10456,10.11798 -0.35873,23.00073 -0.35873,23.00073zM205.89017,165.53653c0,0 -0.63963,2.28188 -0.77771,3.45487M204.91607,191.89324l0.39803,2.07135" fill="#9a8479" stroke="#000000" stroke-linecap="round"/><path d="M204.82212,191.69344c0,0 -10.89566,-4.6008 -16.1468,-11.64988l0.00275,-0.00073c0,0 6.87445,-9.29324 15.93116,-7.9734l0.00105,-0.00264c-0.3068,2.61613 -0.55247,5.6344 -0.52779,8.52962c0.03612,4.97704 0.47916,8.91542 0.8336,11.29683z" fill="#ee4036" stroke="#000000" stroke-linecap="butt"/><path d="M266.83351,190.5817c-0.5812,-0.03442 -1.06148,-0.5373 -1.11826,-1.20853c-0.06146,-0.74283 0.42615,-1.40987 1.08895,-1.48892c0.60264,-0.0701 5.94377,-0.6837 7.87574,-0.2963c0.65347,0.13266 1.08159,0.83582 0.95864,1.56772c-0.12736,0.73716 -0.76792,1.21612 -1.41172,1.09755c-1.21582,-0.2401 -5.05697,0.06746 -7.20139,0.32002c-0.06499,0.01058 -0.12943,0.01216 -0.19197,0.00846z" fill="#231f20" stroke="none" stroke-linecap="butt"/><path d="M245.74371,190.60583c-0.08465,-0.00501 -0.16977,-0.01907 -0.2571,-0.03967c-3.0842,-0.78812 -8.60716,-0.49883 -8.66149,-0.49664c-0.73373,0.03789 -1.38279,-0.52837 -1.42529,-1.27549c-0.04081,-0.74532 0.53034,-1.38386 1.27775,-1.42455c0.24472,-0.00985 5.98994,-0.31211 9.47943,0.57774c0.7232,0.18378 1.16237,0.92103 0.97645,1.6483c-0.1632,0.63286 -0.75637,1.04782 -1.38976,1.0103z" fill="#231f20" stroke="none" stroke-linecap="butt"/><path d="M264.04683,199.15895c0,0 -4.75193,3.87451 -12.67895,1.86199c-7.92517,-2.01206 -9.25085,-5.68811 -9.25085,-5.68811" fill="none" stroke="#231f20" stroke-linecap="round"/></g><g stroke="#000000"><path d="M217.85492,221.10701c1.03518,-3.14351 4.12356,-2.31835 4.12356,-2.31835l1.00089,0.26741c0.96804,1.07861 0.29417,0.73832 0.63518,-1.33473c0,0 0.72275,-3.21002 3.89879,-2.70175c3.17605,0.50827 2.45331,3.71829 2.45331,3.71829c-0.78046,3.03397 -0.83416,5.70734 -4.70536,7.21567c-1.40936,0.54912 -2.90153,-0.40697 -4.35229,-0.61047l-1.00089,-0.26741c0,0 -3.08837,-0.82515 -2.05319,-3.96866z" fill="#9a8479" stroke-linecap="butt"/><g><path d="M216.24898,211.57107c0.41669,-2.85959 3.06042,-4.99483 5.90493,-4.7692c2.84451,0.22563 4.81265,2.72669 4.39596,5.58628c-0.41669,2.85959 -3.06042,4.99483 -5.90493,4.7692c-2.84451,-0.22563 -4.81265,-2.72669 -4.39596,-5.58627z" fill="#5c5e5f" stroke-linecap="butt"/><path d="M226.47495,215.55062l2.2215,1.29448l-0.37354,1.92733l0.64557,2.5673l-2.3067,0.56254" fill="#9a8479" stroke-linecap="round"/><path d="M222.41769,213.90284l4.06312,1.11888l1.31726,7.27392l-3.14668,3.46788l-3.955,-0.04817l-1.72475,-8.10284z" fill="#9a8479" stroke-linecap="round"/><path d="M224.21665,216.92336l2.379,0.44735" fill="none" stroke-linecap="round"/><path d="M227.25584,220.78549l-1.39889,-0.11096" fill="none" stroke-linecap="round"/><path d="M222.84456,224.57391l1.20367,-1.19776l1.52606,0.12105l0.82784,2.26416l-1.25955,1.58129l-1.7804,-0.14122z" fill="#5c5e5f" stroke-linecap="round"/></g></g></g></g></svg>