<svg version="1.1" xmlns="http://www.w3.org/2000/svg" xmlns:xlink="http://www.w3.org/1999/xlink" width="323.92859" height="323.92859" viewBox="0,0,323.92859,323.92859"><g transform="translate(-78.03571,-18.03573)"><g stroke-miterlimit="10"><g stroke-linecap="butt"><path d="M287.05093,300.69278l5.87524,-70.72106l45.02252,-0.10549l-8.36991,70.82655z" fill="#868995" stroke="#000000" stroke-width="1.2"/><g><g><g><g fill="#868995" stroke="#000000" stroke-width="1.2"><path d="M314.91629,263.73469c0,0 -14.72229,0.34976 -16.50098,-1.93606c-1.3725,-1.76382 0.99403,-25.0985 2.72753,-26.8075c1.77956,-1.75441 16.48082,-1.78714 16.48082,-1.78714"/></g><g fill="none" stroke="none" stroke-width="1" font-family="sans-serif" font-weight="normal" font-size="12" text-anchor="start"/><g fill="none" stroke="none" stroke-width="1" font-family="sans-serif" font-weight="normal" font-size="12" text-anchor="start"/></g><g><g fill="#868995" stroke="#000000" stroke-width="1.2"><path d="M317.51561,233.20399c0,0 14.69461,0.03272 16.11716,1.78714c1.38572,1.709 -0.9961,25.04367 -2.72752,26.80749c-2.24382,2.28582 -16.89495,1.93608 -16.89495,1.93608"/></g><g fill="none" stroke="none" stroke-width="1" font-family="sans-serif" font-weight="normal" font-size="12" text-anchor="start"/><g fill="none" stroke="none" stroke-width="1" font-family="sans-serif" font-weight="normal" font-size="12" text-anchor="start"/></g></g><g><g><g fill="#4e4f56" stroke="#000000" stroke-width="1.2"><path d="M315.04573,261.93812c0,0 -12.98855,0.30856 -14.55777,-1.70807c-1.21087,-1.5561 0.87697,-22.14282 2.40632,-23.65056c1.56999,-1.54781 14.53999,-1.57668 14.53999,-1.57668"/></g><g fill="none" stroke="none" stroke-width="1" font-family="sans-serif" font-weight="normal" font-size="12" text-anchor="start"/><g fill="none" stroke="none" stroke-width="1" font-family="sans-serif" font-weight="normal" font-size="12" text-anchor="start"/></g><g><g fill="#4e4f56" stroke="#000000" stroke-width="1.2"><path d="M317.33894,235.00281c0,0 12.96413,0.02887 14.21915,1.57668c1.22254,1.50775 -0.87881,22.09446 -2.40633,23.65056c-1.97958,2.01664 -14.90534,1.70807 -14.90534,1.70807"/></g><g fill="none" stroke="none" stroke-width="1" font-family="sans-serif" font-weight="normal" font-size="12" text-anchor="start"/><g fill="none" stroke="none" stroke-width="1" font-family="sans-serif" font-weight="normal" font-size="12" text-anchor="start"/></g></g><g><g><g fill="#9497a4" stroke="#000000" stroke-width="1.2"><path d="M315.69296,252.95531c0,0 -4.31985,0.10263 -4.84175,-0.56808c-0.40272,-0.51755 0.29167,-7.36444 0.80032,-7.86589c0.52216,-0.51478 4.83583,-0.52438 4.83583,-0.52438"/></g><g fill="none" stroke="none" stroke-width="1" font-family="sans-serif" font-weight="normal" font-size="12" text-anchor="start"/><g fill="none" stroke="none" stroke-width="1" font-family="sans-serif" font-weight="normal" font-size="12" text-anchor="start"/></g><g><g fill="#9497a4" stroke="#000000" stroke-width="1.2"><path d="M316.45565,243.99694c0,0 4.31171,0.0096 4.72913,0.52438c0.40661,0.50145 -0.29228,7.34836 -0.80032,7.86589c-0.65839,0.67071 -4.95734,0.56808 -4.95734,0.56808"/></g><g fill="none" stroke="none" stroke-width="1" font-family="sans-serif" font-weight="normal" font-size="12" text-anchor="start"/><g fill="none" stroke="none" stroke-width="1" font-family="sans-serif" font-weight="normal" font-size="12" text-anchor="start"/></g></g></g><g><g><g><g fill="#868995" stroke="#000000" stroke-width="1.2"><path d="M311.72024,294.71302c0,0 -11.16835,0.26533 -12.51766,-1.4687c-1.04118,-1.33803 0.75407,-19.03976 2.0691,-20.33621c1.34997,-1.3309 12.50238,-1.35573 12.50238,-1.35573"/></g><g fill="none" stroke="none" stroke-width="1" font-family="sans-serif" font-weight="normal" font-size="12" text-anchor="start"/><g fill="none" stroke="none" stroke-width="1" font-family="sans-serif" font-weight="normal" font-size="12" text-anchor="start"/></g><g><g fill="#868995" stroke="#000000" stroke-width="1.2"><path d="M313.6921,271.55238c0,0 11.14736,0.02483 12.22651,1.35573c1.05122,1.29645 -0.75565,18.99818 -2.06911,20.33621c-1.70216,1.73403 -12.81654,1.46871 -12.81654,1.46871"/></g><g fill="none" stroke="none" stroke-width="1" font-family="sans-serif" font-weight="normal" font-size="12" text-anchor="start"/><g fill="none" stroke="none" stroke-width="1" font-family="sans-serif" font-weight="normal" font-size="12" text-anchor="start"/></g></g><g><g><g fill="#4e4f56" stroke="#000000" stroke-width="1.2"><path d="M311.81844,293.35014c0,0 -9.85313,0.23408 -11.04354,-1.29574c-0.91857,-1.18047 0.66527,-16.79758 1.82543,-17.94135c1.19099,-1.17417 11.03006,-1.19608 11.03006,-1.19608"/></g><g fill="none" stroke="none" stroke-width="1" font-family="sans-serif" font-weight="normal" font-size="12" text-anchor="start"/><g fill="none" stroke="none" stroke-width="1" font-family="sans-serif" font-weight="normal" font-size="12" text-anchor="start"/></g><g><g fill="#4e4f56" stroke="#000000" stroke-width="1.2"><path d="M313.55809,272.91697c0,0 9.83461,0.02191 10.78667,1.19608c0.92741,1.14378 -0.66667,16.76089 -1.82544,17.94135c-1.50172,1.52982 -11.30722,1.29574 -11.30722,1.29574"/></g><g fill="none" stroke="none" stroke-width="1" font-family="sans-serif" font-weight="normal" font-size="12" text-anchor="start"/><g fill="none" stroke="none" stroke-width="1" font-family="sans-serif" font-weight="normal" font-size="12" text-anchor="start"/></g></g><g><g><g fill="#9497a4" stroke="#000000" stroke-width="1.2"><path d="M312.30942,286.53577c0,0 -3.27703,0.07784 -3.67296,-0.43095c-0.3055,-0.39261 0.22127,-5.58668 0.60713,-5.96708c0.39611,-0.39051 3.66846,-0.39781 3.66846,-0.39781"/></g><g fill="none" stroke="none" stroke-width="1" font-family="sans-serif" font-weight="normal" font-size="12" text-anchor="start"/><g fill="none" stroke="none" stroke-width="1" font-family="sans-serif" font-weight="normal" font-size="12" text-anchor="start"/></g><g><g fill="#9497a4" stroke="#000000" stroke-width="1.2"><path d="M312.88801,279.73993c0,0 3.27087,0.00728 3.58752,0.39781c0.30845,0.3804 -0.22173,5.57447 -0.60712,5.96708c-0.49944,0.5088 -3.76065,0.43095 -3.76065,0.43095"/></g><g fill="none" stroke="none" stroke-width="1" font-family="sans-serif" font-weight="normal" font-size="12" text-anchor="start"/><g fill="none" stroke="none" stroke-width="1" font-family="sans-serif" font-weight="normal" font-size="12" text-anchor="start"/></g></g></g></g><g stroke-linecap="butt"><path d="M150.4212,300.69278l-8.00783,-70.82655l45.02199,0.10549l5.5137,70.72106z" fill="#868995" stroke="#000000" stroke-width="1.2"/><g><g><g><g fill="#868995" stroke="#000000" stroke-width="1.2"><path d="M162.72135,233.20399c0,0 14.70109,0.03272 16.47168,1.78714c1.72475,1.709 3.97199,25.04367 2.59049,26.80749c-1.79037,2.28582 -16.51087,1.93607 -16.51087,1.93607"/></g><g fill="none" stroke="none" stroke-width="1" font-family="sans-serif" font-weight="normal" font-size="12" text-anchor="start"/><g fill="none" stroke="none" stroke-width="1" font-family="sans-serif" font-weight="normal" font-size="12" text-anchor="start"/></g><g><g fill="#868995" stroke="#000000" stroke-width="1.2"><path d="M166.17864,263.73469c0,0 -14.65291,0.34976 -16.88505,-1.93606c-1.7224,-1.76382 -3.98495,-25.09849 -2.59049,-26.80749c1.43152,-1.75441 16.1263,-1.78714 16.1263,-1.78714"/></g><g fill="none" stroke="none" stroke-width="1" font-family="sans-serif" font-weight="normal" font-size="12" text-anchor="start"/><g fill="none" stroke="none" stroke-width="1" font-family="sans-serif" font-weight="normal" font-size="12" text-anchor="start"/></g></g><g><g><g fill="#4e4f56" stroke="#000000" stroke-width="1.2"><path d="M162.90154,235.00281c0,0 12.96986,0.02887 14.53193,1.57668c1.52165,1.50775 3.50423,22.09446 2.28541,23.65056c-1.57953,2.01664 -14.5665,1.70807 -14.5665,1.70807"/></g><g fill="none" stroke="none" stroke-width="1" font-family="sans-serif" font-weight="normal" font-size="12" text-anchor="start"/><g fill="none" stroke="none" stroke-width="1" font-family="sans-serif" font-weight="normal" font-size="12" text-anchor="start"/></g><g><g fill="#4e4f56" stroke="#000000" stroke-width="1.2"><path d="M165.95168,261.93812c0,0 -12.92733,0.30856 -14.89661,-1.70807c-1.51956,-1.5561 -3.51567,-22.14282 -2.28541,-23.65056c1.26295,-1.54781 14.22721,-1.57668 14.22721,-1.57668"/></g><g fill="none" stroke="none" stroke-width="1" font-family="sans-serif" font-weight="normal" font-size="12" text-anchor="start"/><g fill="none" stroke="none" stroke-width="1" font-family="sans-serif" font-weight="normal" font-size="12" text-anchor="start"/></g></g><g><g><g fill="#9497a4" stroke="#000000" stroke-width="1.2"><path d="M163.80247,243.99694c0,0 4.31363,0.0096 4.83315,0.52438c0.50609,0.50145 1.16547,7.34836 0.7601,7.86589c-0.52534,0.67071 -4.84464,0.56808 -4.84464,0.56808"/></g><g fill="none" stroke="none" stroke-width="1" font-family="sans-serif" font-weight="normal" font-size="12" text-anchor="start"/><g fill="none" stroke="none" stroke-width="1" font-family="sans-serif" font-weight="normal" font-size="12" text-anchor="start"/></g><g><g fill="#9497a4" stroke="#000000" stroke-width="1.2"><path d="M164.81691,252.95531c0,0 -4.29948,0.10263 -4.95444,-0.56808c-0.50538,-0.51755 -1.16927,-7.36444 -0.7601,-7.86589c0.42004,-0.51478 4.7318,-0.52438 4.7318,-0.52438"/></g><g fill="none" stroke="none" stroke-width="1" font-family="sans-serif" font-weight="normal" font-size="12" text-anchor="start"/><g fill="none" stroke="none" stroke-width="1" font-family="sans-serif" font-weight="normal" font-size="12" text-anchor="start"/></g></g></g><g><g><g><g fill="#868995" stroke="#000000" stroke-width="1.2"><path d="M166.37489,271.55238c0,0 11.15229,0.02483 12.49545,1.35573c1.3084,1.29645 3.01316,18.99818 1.96514,20.33621c-1.35818,1.73403 -12.52517,1.46871 -12.52517,1.46871"/></g><g fill="none" stroke="none" stroke-width="1" font-family="sans-serif" font-weight="normal" font-size="12" text-anchor="start"/><g fill="none" stroke="none" stroke-width="1" font-family="sans-serif" font-weight="normal" font-size="12" text-anchor="start"/></g><g><g fill="#868995" stroke="#000000" stroke-width="1.2"><path d="M168.99761,294.71302c0,0 -11.11573,0.26533 -12.80903,-1.4687c-1.3066,-1.33803 -3.02298,-19.03976 -1.96514,-20.3362c1.08595,-1.3309 12.23344,-1.35573 12.23344,-1.35573"/></g><g fill="none" stroke="none" stroke-width="1" font-family="sans-serif" font-weight="normal" font-size="12" text-anchor="start"/><g fill="none" stroke="none" stroke-width="1" font-family="sans-serif" font-weight="normal" font-size="12" text-anchor="start"/></g></g><g><g><g fill="#4e4f56" stroke="#000000" stroke-width="1.2"><path d="M166.51159,272.91697c0,0 9.83895,0.02191 11.02394,1.19608c1.15433,1.14378 2.65833,16.76089 1.73372,17.94135c-1.19823,1.52982 -11.05017,1.29574 -11.05017,1.29574"/></g><g fill="none" stroke="none" stroke-width="1" font-family="sans-serif" font-weight="normal" font-size="12" text-anchor="start"/><g fill="none" stroke="none" stroke-width="1" font-family="sans-serif" font-weight="normal" font-size="12" text-anchor="start"/></g><g><g fill="#4e4f56" stroke="#000000" stroke-width="1.2"><path d="M168.82543,293.35014c0,0 -9.8067,0.23408 -11.3006,-1.29574c-1.15275,-1.18047 -2.667,-16.79758 -1.73372,-17.94135c0.95807,-1.17417 10.79279,-1.19608 10.79279,-1.19608"/></g><g fill="none" stroke="none" stroke-width="1" font-family="sans-serif" font-weight="normal" font-size="12" text-anchor="start"/><g fill="none" stroke="none" stroke-width="1" font-family="sans-serif" font-weight="normal" font-size="12" text-anchor="start"/></g></g><g><g><g fill="#9497a4" stroke="#000000" stroke-width="1.2"><path d="M167.19502,279.73993c0,0 3.27232,0.00729 3.66644,0.3978c0.38391,0.3804 0.88413,5.57448 0.57662,5.96708c-0.39852,0.5088 -3.67516,0.43095 -3.67516,0.43095"/></g><g fill="none" stroke="none" stroke-width="1" font-family="sans-serif" font-weight="normal" font-size="12" text-anchor="start"/><g fill="none" stroke="none" stroke-width="1" font-family="sans-serif" font-weight="normal" font-size="12" text-anchor="start"/></g><g><g fill="#9497a4" stroke="#000000" stroke-width="1.2"><path d="M167.9646,286.53577c0,0 -3.26159,0.07785 -3.75844,-0.43095c-0.38339,-0.39261 -0.88701,-5.58668 -0.57661,-5.96708c0.31865,-0.39051 3.58955,-0.3978 3.58955,-0.3978"/></g><g fill="none" stroke="none" stroke-width="1" font-family="sans-serif" font-weight="normal" font-size="12" text-anchor="start"/><g fill="none" stroke="none" stroke-width="1" font-family="sans-serif" font-weight="normal" font-size="12" text-anchor="start"/></g></g></g></g><path d="M187.3461,300.92055l-3.94905,-103.37655h113.20589l-3.94904,103.37655z" fill="#868995" stroke="#000000" stroke-width="1.2" stroke-linecap="butt"/><g stroke="#000000" stroke-width="1.2" stroke-linecap="butt"><g fill="#868995"><path d="M240.80288,245.80576c0,0 -44.85313,0.45399 -48.0377,-2.51313c-2.45732,-2.28954 -2.46945,-32.57923 0,-34.79762c2.53508,-2.27732 47.40598,-2.31981 47.40598,-2.31981"/><path d="M239.82882,206.17521c0,0 44.87091,0.04248 47.40598,2.31981c2.46946,2.21839 2.45734,32.50809 0,34.79762c-3.18457,2.96712 -48.0377,2.51313 -48.0377,2.51313"/></g><g fill="#4e4f56"><path d="M240.76191,243.54599c0,0 -42.56392,0.40218 -45.58596,-2.22635c-2.33192,-2.02826 -2.34342,-28.8615 0,-30.82673c2.40569,-2.01745 44.98648,-2.05509 44.98648,-2.05509"/><path d="M239.83756,208.43782c0,0 42.5808,0.03764 44.98649,2.05509c2.34342,1.96524 2.33191,28.79847 0,30.82673c-3.02204,2.62853 -45.58597,2.22635 -45.58597,2.22635"/></g><g fill="#9497a4"><path d="M240.24829,231.83058c0,0 -13.87108,0.13359 -14.85592,-0.73958c-0.75994,-0.67378 -0.7637,-9.58753 0,-10.24036c0.78398,-0.67018 14.66055,-0.68268 14.66055,-0.68268"/><path d="M239.94707,220.16797c0,0 13.87656,0.01251 14.66055,0.68268c0.76369,0.65283 0.75994,9.56659 0,10.24036c-0.98485,0.87317 -14.85592,0.73957 -14.85592,0.73957"/></g></g><g stroke="#000000" stroke-width="1.2" stroke-linecap="butt"><g fill="#868995"><path d="M240.69234,286.48518c0,0 -38.67744,0.39148 -41.42353,-2.16711c-2.11899,-1.97429 -2.12944,-28.0935 0,-30.00643c2.18603,-1.96376 40.87879,-2.0004 40.87879,-2.0004"/><path d="M239.85239,252.31124c0,0 38.69277,0.03663 40.8788,2.0004c2.12944,1.91293 2.11899,28.03214 0,30.00643c-2.7461,2.55858 -41.42354,2.1671 -41.42354,2.1671"/></g><g fill="#4e4f56"><path d="M240.65701,284.53654c0,0 -36.70342,0.34681 -39.30935,-1.91981c-2.01084,-1.74899 -2.02077,-24.88765 0,-26.5823c2.07446,-1.73968 38.79241,-1.77213 38.79241,-1.77213"/><path d="M239.85993,254.26232c0,0 36.71797,0.03246 38.79242,1.77213c2.02076,1.69465 2.01083,24.8333 0,26.58229c-2.60595,2.26662 -39.30936,1.91981 -39.30936,1.91981"/></g><g fill="#9497a4"><path d="M240.21411,274.43419c0,0 -11.9612,0.1152 -12.81044,-0.63774c-0.65531,-0.581 -0.65854,-8.26744 0,-8.83038c0.67604,-0.5779 12.64198,-0.58869 12.64198,-0.58869"/><path d="M239.95435,264.37737c0,0 11.96594,0.01079 12.64198,0.58869c0.65854,0.56294 0.65531,8.24938 0,8.83039c-0.84924,0.75295 -12.81044,0.63774 -12.81044,0.63774"/></g></g><path d="M192.35432,176.07743" fill="none" stroke="#000000" stroke-width="1.2" stroke-linecap="round"/><path d="M200.34227,180.47579" fill="none" stroke="#000000" stroke-width="1.2" stroke-linecap="round"/><g stroke="#000000" stroke-width="1.2" stroke-linecap="round"><path d="M203.90693,157.3538c-15.86647,0.37615 -28.06696,-27.97449 -28.06696,-27.97449c9.99808,-3.47588 14.25179,-0.53033 14.79717,-0.27663c0.54554,0.25452 10.6509,6.394 10.6509,6.394c-0.47111,13.53466 2.61887,21.85712 2.61887,21.85712zM201.59681,132.57615c0,0 -0.29847,2.09642 -0.31865,3.20677M203.90693,157.3538c0.31026,0.8376 1.15368,2.06201 1.15368,2.06201" fill="#be1e2d"/><path d="M197.31354,155.46126c-3.03485,-1.37031 -6.75761,-3.72915 -10.35623,-7.7773c-3.20845,-3.6096 -6.61431,-9.56988 -8.79465,-13.70874l0.06127,-0.07992c6.15429,-2.55098 9.9854,0.7858 9.9854,0.7858l0.24044,0.28069c1.60932,2.10908 3.32625,4.20419 4.69684,5.48287c0.80919,0.75639 1.66344,1.38461 2.45619,1.88996c0,0 1.75321,3.87187 2.17171,6.76705c0.62512,4.28107 -0.58621,6.31773 -0.58621,6.31773z" fill="#929497"/></g><path d="M265.79175,166.33788l-10.35877,9.03756l-24.20243,1.65964l-10.03598,5.05587l-15.66526,-3.72109l-7.06144,-7.91081l-6.22145,-9.59536l-4.03851,-12.26752l-0.06659,-12.31079l2.54546,-9.52049l4.34846,-9.41631l6.15731,-8.63392l7.07748,-7.80863l7.95477,-7.26765l5.62559,-4.22266l2.38207,-2.949l2.52673,-4.7707l1.61656,-4.58416l1.23809,-6.13998l-0.75527,-8.15339l4.83686,5.42074l5.08125,7.04093l0.02637,-3.92465l1.08824,2.09047l4.23739,6.57064l5.87616,6.16181l3.83298,2.86462l5.58734,4.24704l6.79986,5.11164l6.15594,5.96697l5.14337,6.42798l4.49946,7.28332l3.37581,7.00789l1.28403,7.48802l0.68004,7.58312l-0.85669,6.61881l-2.16674,8.18216l-2.78429,5.11283l-4.85203,6.94306z" fill="#be1e2d" stroke="#8c8c8c" stroke-width="0" stroke-linecap="round"/><path d="M276.61346,167.14442l-10.87059,-0.72727l-10.33684,9.19547l-24.14389,1.38912l-10.04555,5.01273l-14.89206,-3.02566c0,0 -49.89523,-40.55368 15.23767,-89.00768c0,0 11.33139,-11.9496 6.80248,-27.90523c-0.36835,-1.29774 10.22348,13.17313 10.22348,13.17313c0,0 -0.29366,-5.3075 -0.04292,-4.65306c2.77886,7.25278 12.03269,16.2626 12.03269,16.2626c57.18418,35.32632 30.81958,74.36424 30.81958,74.36424z" fill="none" stroke="#000000" stroke-width="1.2" stroke-linecap="round"/><g stroke="#000000" stroke-width="1.2" stroke-linecap="round"><path d="M278.42819,123.11319c0,0 7.67529,-9.52271 8.11274,-9.96335c0.43756,-0.4398 3.55986,-4.79314 14.02249,-5.09629c0,0 -2.97689,31.48882 -18.03657,36.87745c0,0 0.41085,-9.06564 -4.09867,-21.8178zM278.52351,123.38289c-0.35255,-1.05284 -1.26347,-2.94637 -1.26347,-2.94637M282.05949,147.31775c0,0 0.42671,-1.4746 0.46738,-2.38674" fill="#be1e2d"/><path d="M288.27491,140.65013c0,0 -1.75293,-1.50577 -2.45005,-5.81978c-0.47546,-2.91589 0.01306,-7.24786 0.01306,-7.24786c0.595,-0.76967 1.21102,-1.67895 1.74608,-2.69429c0.90704,-1.71739 1.89505,-4.33977 2.77753,-6.93649l0.14221,-0.35511c0,0 2.60665,-4.57379 9.17048,-4.36759l0.08173,0.05412c-0.81065,4.74162 -2.22864,11.66626 -4.1668,16.27498c-2.17396,5.16879 -4.97234,8.76961 -7.41963,11.17737z" fill="#929497"/></g><g><path d="M275.16659,145.30388c2.41041,15.64234 -12.54446,30.92856 -33.40265,34.14271c-20.8582,3.21416 -39.72113,-6.86089 -42.13153,-22.50324c-2.41041,-15.64234 12.54446,-30.92856 33.40266,-34.14271c20.8582,-3.21416 39.72113,6.86089 42.13153,22.50323z" fill="#e6e7e8" stroke="#000000" stroke-width="1.2" stroke-linecap="butt"/><path d="M216.76038,179.52441l2.30272,2.58586l2.85949,1.64631l-1.80297,0.65726l-4.38099,-0.46324l-4.07713,-1.74326l-1.86827,-2.36821l-4.91743,-1.99321l-3.71408,-1.98892l0.26662,2.36464c-5.84912,-9.16265 -15.11101,-18.43357 -13.27125,-31.85305c25.16879,-31.48535 70.38303,-41.24656 88.58882,-10.2089c0.24345,0.41504 0.47289,0.82997 0.68891,1.24483c0.17339,0.63235 0.30448,1.22511 0.37813,1.76518c0.83313,6.10917 0.82228,12.19087 1.12457,18.38407c0.01991,0.40804 -0.02407,0.86729 -0.10821,1.35356l-0.77657,1.38203l-0.37407,-1.41671l-1.96211,5.4626l-4.33323,5.23824l-2.82123,1.9091l-0.18711,-4.2468l-0.73553,-5.78408l-1.16663,-4.53817l-1.08729,0.02011l0.23456,-1.5105l0.83681,-3.6674l-0.46922,-4.05589l-1.29658,-4.37071l-3.88327,-3.9721l-6.27339,-3.30894l-8.09609,-1.99601l-9.28798,-0.63287l2.4599,0.80043l3.94346,2.34105l2.3585,3.17502l-17.40307,-1.74134l-16.81663,-1.97914l-0.31694,2.99756l-1.9811,6.35013l-1.89553,5.89466l0.82112,5.32859l3.38559,4.78599l4.5331,3.13479l-3.10653,1.06845l-2.73884,0.42204l0.53261,3.45638l2.25073,3.4865l2.48846,3.00756l2.7262,2.52862z" fill="#be1e2d" stroke="#8c8c8c" stroke-width="0" stroke-linecap="butt"/><path d="M211.09209,135.9839c-0.40045,8.04858 -4.67332,12.65821 -4.02663,16.80313c1.33111,8.53167 8.86438,11.35977 8.86438,11.35977c0,0 -5.03161,3.27904 -11.44584,0.27765" fill="none" stroke="#000000" stroke-width="1.2" stroke-linecap="round"/><path d="M199.21449,156.55172c-0.85873,-1.52017 -1.70794,-3.27793 -2.53594,-5.30657" fill="none" stroke="#000000" stroke-width="1.2" stroke-linecap="round"/><path d="M204.52867,134.3244c15.72274,3.78862 41.26539,4.95318 41.26539,4.95318c0,0 -3.02987,-4.09875 -8.87065,-5.86017c0,0 36.17634,-1.55417 27.74371,23.84765c0,0 3.4207,-2.17108 5.56665,-6.05158" fill="none" stroke="#000000" stroke-width="1.2" stroke-linecap="round"/><path d="M271.45655,142.07886c0.38618,1.76297 0.59443,2.57895 0.34209,4.06982" fill="none" stroke="#000000" stroke-width="1.2" stroke-linecap="round"/><path d="M276.8177,159.6347c-1.24334,6.87696 -8.81629,11.72786 -8.81629,11.72786c0,0 0.03723,-9.75646 -2.27026,-14.7328" fill="none" stroke="#000000" stroke-width="1.2" stroke-linecap="round"/><path d="M198.69194,156.33648c-3.61114,8.01324 2.82438,21.56029 2.82438,21.56029c0,0 -17.65179,-19.71042 -12.94518,-32.59881" fill="none" stroke="#000000" stroke-width="1.2" stroke-linecap="round"/><path d="M279.53222,157.20147c-1.17557,2.51343 -2.15372,3.91792 -2.15372,3.91792c0,0 0.01352,-9.73092 -5.60768,-14.84696" fill="none" stroke="#000000" stroke-width="1.2" stroke-linecap="round"/><path d="M210.21098,165.8136c-0.43555,6.81817 8.08034,12.5806 8.08034,12.5806c0,0 -10.19966,3.48629 -17.57565,-3.10476" fill="none" stroke="#000000" stroke-width="1.2" stroke-linecap="round"/><path d="M216.05091,179.01912c1.49754,3.1008 5.99756,4.72033 5.99756,4.72033c0,0 -8.13228,2.74411 -13.16068,-4.40415" fill="none" stroke="#000000" stroke-width="1.2" stroke-linecap="round"/></g><g fill="#000000" stroke="#000000" stroke-width="0.5" stroke-linecap="butt"><path d="M258.74476,146.44852c0.53771,-0.11604 0.89865,0.67005 1.04688,1.00275c0.55578,1.24748 0.61057,2.80271 -0.27796,3.88417l-0.40052,0.11261c-0.17516,0.09234 -0.43103,0.14325 -0.79122,0.13191c-3.03041,-0.09542 -5.69241,-0.23967 -8.63192,1.04458c-0.84334,0.36844 -2.27622,1.84754 -2.99967,2.02726c-0.92798,0.23052 -1.29,0.01256 -1.52052,-0.91539c-0.22495,-0.90552 1.45346,-1.76724 2.05588,-2.11197c2.09731,-1.20019 4.50209,-1.92551 6.91211,-2.24223c0.46876,-0.5237 0.70189,-1.13115 0.96598,-1.87842c0.07596,-0.21493 0.39338,-1.05389 0.48219,-1.07178c0.99734,-0.20088 1.26049,1.48093 1.28047,2.74212c0.26467,-0.00245 0.53293,0.00389 0.78052,0.02529c0.34429,-1.11053 0.71298,-2.66783 1.09779,-2.75088z"/><path d="M220.92452,156.65586c0.20212,-0.13222 0.42708,-0.25802 0.65211,-0.37314c-0.42893,-1.31343 -0.80063,-3.17007 0.11507,-3.40563c0.08154,-0.02097 0.64697,0.7057 0.7873,0.89426c0.48785,0.65558 0.90004,1.18028 1.48219,1.51358c2.15312,-0.74377 4.44624,-1.06254 6.64685,-0.75345c0.63209,0.08878 2.35823,0.23398 2.48784,1.27065c0.13282,1.06236 -0.09676,1.44875 -0.96419,1.62283c-0.67626,0.13572 -2.41273,-0.75725 -3.25724,-0.76345c-2.94361,-0.02163 -5.14719,1.31095 -7.68004,2.75683c-0.30105,0.17186 -0.53575,0.23296 -0.71675,0.21531l-0.37903,0.06157c-1.13485,-0.72365 -1.63825,-2.35672 -1.60857,-3.89415c0.00791,-0.41003 0.03573,-1.38361 0.53216,-1.50262c0.35528,-0.08516 1.21807,1.36179 1.90227,2.35745z"/></g><path d="M266.95966,164.10719" fill="none" stroke="#000000" stroke-width="1.2" stroke-linecap="round"/><path d="M229.75579,178.25515c0.18667,0.0503 0.36418,0.10331 0.53278,0.15891c0.29645,0.043 0.58903,0.15705 0.85288,0.33749c6.24236,2.96614 -5.09757,10.8234 -7.7254,10.54702c-2.22842,-0.23437 -5.99244,-3.49564 -4.08639,-6.09205c0.68796,-0.93713 9.25116,-5.01247 10.34834,-4.89708z" fill="#be1e2d" stroke="#000000" stroke-width="1.2" stroke-linecap="butt"/><g stroke="#000000" stroke-width="1.2"><path d="M223.34511,195.61891c-0.22146,-0.24693 -2.8348,-3.34807 -2.8348,-3.34807c0,0 0.85728,5.23683 -2.27542,6.66679c-1.69621,0.77427 -5.40746,0.17679 -7.35569,0.34131c0,0 -2.22981,0.18644 -2.50987,-2.2372c-0.28006,-2.42364 1.94976,-2.61008 1.94976,-2.61008c0.43189,-0.03578 0.97416,-0.01603 1.56344,0.02129c2.17055,-6.23217 3.15137,-16.5052 11.27091,-11.22616c3.33291,2.16694 4.06641,3.02243 4.06641,3.02243c0,0 2.58979,-10.45033 7.0921,-9.81268c14.69415,2.08109 9.82726,20.78605 4.14255,21.47084c-8.62434,1.0389 -12.41304,0.71794 -15.1094,-2.28846z" fill="#be1e2d" stroke-linecap="butt"/><path d="M228.9196,191.53618c-0.68084,-3.33365 1.40314,-14.70974 6.23098,-11.22239c3.80033,2.74513 2.10558,8.67606 0.72437,11.72955c-1.55484,3.43732 -6.21744,3.10597 -6.95535,-0.50715z" fill="#e6e7e8" stroke-linecap="round"/></g><path d="M240.13705,179.3014c1.05447,-1.64893 3.60434,-1.23601 4.67227,-0.88126c3.02712,1.00554 3.27208,3.81803 4.02306,6.94421c0.65321,2.71923 1.84794,5.72506 3.58642,7.36362c3.22489,0.91352 8.75826,-0.09422 8.08616,4.52299c-0.16116,1.10702 -5.75432,1.60337 -7.9177,1.6821c1.51664,2.50815 -0.7987,2.83196 -2.92404,1.52053c-0.8717,-0.53789 -2.9556,-1.3814 -4.3752,-2.98734c-1.4196,-1.60593 -0.6176,-2.46128 -0.82756,-3.72332c-0.47635,-2.86317 -1.63863,-4.01177 -2.52252,-6.62695" fill="#be1e2d" stroke="#000000" stroke-width="1.2" stroke-linecap="butt"/><path d="M236.34391,197.67864c1.54666,5.62931 -0.92237,17.55597 -6.82571,14.95379c-0.90292,-0.39801 -1.2898,-1.45813 -1.93468,-2.1872c-0.28286,-2.56471 0.16528,-5.0541 -0.15636,-7.61369c-0.29854,-2.3758 -1.73619,-5.06919 -1.31523,-7.53554c0.81963,-4.80197 8.5673,-5.54328 11.07815,-2.04727" fill="#be1e2d" stroke="#000000" stroke-width="1.2" stroke-linecap="butt"/><path d="M78.03571,341.96432v-323.92859h323.92859v323.92859z" fill="none" stroke="#000000" stroke-width="0" stroke-linecap="butt"/><g stroke="#000000" stroke-width="1.2" stroke-linecap="round"><path d="M252.42097,162.32395c0,0 -2.48155,12.63888 -6.35219,13.95795c-4.27226,1.45594 -14.4198,-8.87224 -14.4198,-8.87224" fill="#706d6d"/><path d="M253.58418,158.68633c0,0 3.04624,0.97922 0.03145,2.56616c-3.74117,1.96929 -9.21657,2.55472 -13.96655,3.6538c-3.42835,0.79327 -8.56286,3.28658 -11.77387,2.54963c-1.18379,-0.27169 -0.02775,-2.26426 -0.02775,-2.26426" fill="none"/></g><g fill="#be1e2d" stroke="#000000" stroke-width="1.2"><path d="M217.39982,184.47118c-0.00449,0.00096 -0.00687,0.00141 -0.00687,0.00141c-2.5385,0.40289 -5.50216,-1.25558 -4.52747,-4.27334c0.79483,-2.46092 3.1413,-2.11731 4.52533,-3.66295c1.21097,-1.35238 -0.1528,-5.16419 1.03905,-6.40457c1.95588,-2.03551 4.81371,1.73902 5.6917,4.53663c0.49482,1.57671 2.68536,2.6179 0.68801,5.85482c-1.17782,1.90877 -4.09045,3.87741 -7.23159,4.01773z" stroke-linecap="butt"/><path d="M225.38894,179.20639c0,0 -1.796,4.35996 -2.40104,4.91438c-1.57038,1.43895 -3.89682,0.13285 -4.36941,-1.53546c-0.4726,-1.66833 3.09275,-2.85625 3.09275,-2.85625l1.84858,-1.7809" stroke-linecap="round"/></g></g></g></svg>