<svg version="1.1" xmlns="http://www.w3.org/2000/svg" xmlns:xlink="http://www.w3.org/1999/xlink" width="135.5461" height="225.89885" viewBox="0,0,135.5461,225.89885"><defs><radialGradient cx="225.69722" cy="161.03567" r="38.25582" gradientUnits="userSpaceOnUse" id="color-1"><stop offset="0" stop-color="#180036"/><stop offset="1" stop-color="#1d1d1d"/></radialGradient></defs><g transform="translate(-173.57227,-91.73266)"><g stroke-miterlimit="10"><g stroke="#000000" stroke-width="1.2"><path d="M266.47473,217.47629l-7.51201,-2.24926l-1.91212,-13.4683l-3.57035,-11.01668l2.66608,-3.80815l4.26639,-1.57156l10.53389,6.85315l11.6259,5.74481l-0.5055,7.80305l-6.23959,7.04104z" fill="#707070" stroke-linecap="round"/><path d="M284.28007,238.83385l-18.87504,-27.07943l-1.92457,2.02696l6.83688,-7.16813l9.46921,-5.6863l-2.77089,1.71673l20.78454,26.30238" fill="#5d5d5d" stroke-linecap="round"/><path d="M298.81515,244.3094c-4.45789,3.26022 -10.71466,2.28932 -13.97488,-2.16857c-3.26022,-4.45789 -2.28932,-10.71466 2.16857,-13.97488c4.45789,-3.26022 10.71466,-2.28933 13.97488,2.16857c3.26022,4.45789 2.28933,10.71466 -2.16856,13.97488z" fill="#707070" stroke-linecap="butt"/></g><g stroke="#000000" stroke-width="1.2"><path d="M275.83135,221.78934c-2.00174,-6.72646 1.82839,-13.80205 8.55485,-15.8038c6.72647,-2.00174 13.80206,1.82839 15.8038,8.55486c2.00174,6.72646 -1.82838,13.80205 -8.55485,15.8038c-6.72647,2.00174 -13.80206,-1.82839 -15.8038,-8.55486z" fill="#5c5e5f" stroke-linecap="butt"/><g stroke-linecap="round"><path d="M288.31837,249.16921l-9.33741,-0.596l0.05815,-6.2847l-3.83819,-5.60729l4.7506,-6.71693" fill="#5d5d5d"/><path d="M300.85717,222.86099l2.65155,2.02131l-0.29801,4.66869l4.24423,2.11171l-1.81128,8.49379l2.84969,2.28566l-0.59069,6.92528l-8.67065,8.12454l-12.65371,-2.01964l-2.00073,-5.91305l1.20219,-3.25041l-2.62823,-2.35156l-1.51567,-5.09318l1.75313,-2.20909l-2.62824,-2.35156l-0.8751,-4.56066l11.21458,-7.67634z" fill="#5d5d5d"/><path d="M284.87316,235.97231l7.44473,-4.14393" fill="none"/><path d="M287.4854,245.56024l7.35508,-3.63515" fill="none"/></g><path d="M294.51244,261.07304l-2.05742,-6.91356l4.38087,-3.90923l5.90044,1.19698l2.1839,6.52851l-4.68129,4.51973z" fill="#5c5e5f" stroke-linecap="round"/></g><g stroke="#000000"><g stroke-width="0" stroke-linecap="round"><path d="M254.66365,194.33502l3.57635,10.05478l-4.04348,-0.30779l2.31314,7.15576l-10.77033,18.03084l-13.76863,-15.50205l0.31324,-7.72527l-4.52938,1.74365l3.33647,-11.34221" fill="#0063eb"/><path d="M250.79956,193.39716l2.4568,6.9072l-2.77769,-0.21144l1.90964,8.50139l-7.39874,12.38641l-9.45846,-10.64923l-0.10542,-8.89262l-3.11149,1.19781l2.29201,-7.7916" fill="#629beb"/></g><path d="M228.25139,198.36994l-4.23773,-51.13725c0,0 -1.45239,-16.41455 12.26597,-17.51753c14.38672,-1.15671 15.83061,15.0053 15.83061,15.0053l4.56974,51.10755c0,0 -2.81177,3.10244 -14.21704,4.28317c-11.73071,1.21443 -14.21154,-1.74126 -14.21154,-1.74126z" fill="#5d5d5d" stroke-width="1.2" stroke-linecap="butt"/></g><g stroke="#000000"><g stroke-width="0" stroke-linecap="round"><path d="M203.10749,197.49056l0.73982,10.6462l-3.81164,-1.38413l0.303,7.51423l-15.22358,14.46906l-9.09113,-18.63439l2.37978,-7.35626l-4.83147,0.46098l6.26451,-10.02665" fill="#0063eb"/><path d="M199.63809,195.54784l0.50823,7.31347l-2.61844,-0.95084l-0.44759,8.70173l-10.45794,9.93961l-6.2452,-12.80101l2.29055,-8.5932l-3.31901,0.31667l4.30344,-6.88787" fill="#629beb"/></g><path d="M176.58337,194.27193l9.67425,-50.39231c0,0 3.01661,-16.20023 16.52603,-13.57235c14.1676,2.75591 11.21073,18.71062 11.21073,18.71062l-9.34649,50.45303c0,0 -3.54268,2.23174 -14.84518,0.30096c-11.62501,-1.98586 -13.21933,-5.49994 -13.21933,-5.49994z" fill="#5d5d5d" stroke-width="1.2" stroke-linecap="butt"/></g><g stroke="#000000" stroke-width="1.2"><path d="M192.35516,120.91185c1.11935,9.04121 -0.70379,16.70862 -4.07207,17.12564c-3.3683,0.41702 -7.00626,-6.57428 -8.1256,-15.6155c-1.11935,-9.04121 0.70379,-16.70863 4.07207,-17.12564c3.3683,-0.41702 7.00626,6.57429 8.1256,15.61551z" fill="#454545" stroke-linecap="butt"/><path d="M195.75816,151.03827l-3.88006,-35.39176l0.41098,6.32357l-7.01311,0.60095l-2.4902,-17.11883l10.28093,-12.73826l7.62628,-0.35528l5.12955,55.05615" fill="#5d5d5d" stroke-linecap="round"/></g><g stroke="#000000" stroke-width="1.2"><path d="M262.86025,120.05259c-1.21168,9.0293 -4.9209,15.98306 -8.28475,15.53165c-1.46366,-0.19641 -2.62076,-1.76243 -3.36117,-4.21279c-0.96125,-3.18123 -1.22017,-7.853 -0.5357,-12.95356c1.21167,-9.02931 4.9209,-15.98308 8.28475,-15.53165c3.36386,0.45142 5.10854,8.13705 3.89685,17.16635z" fill="#454545" stroke-linecap="butt"/><path d="M254.31988,149.55092l5.22834,-35.21783l-1.2072,6.22086l-3.04437,-1.3533l1.93557,-17.19037l9.2853,-9.5574l7.46679,1.59167l-9.00998,54.55559" fill="#5d5d5d" stroke-linecap="round"/></g><g stroke="#000000" stroke-width="1.2"><g fill="#5d5d5d" stroke-linecap="round"><path d="M206.00974,257.03551l0.17007,32.75854l-6.95527,1.64893l-7.61469,-1.61834l-2.34388,-32.43197"/><g><path d="M204.96955,282.31708l3.86096,3.91913l1.14004,4.97754l3.91711,5.91867l-4.00267,8.83864l-7.14901,3.65381l-7.71773,-16.5916l-2.86132,-3.94045"/><path d="M209.19963,295.23168l1.49212,2.96929l0.32591,3.24426l4.17153,6.41344l-1.33766,2.52946l-1.22532,6.52855l-5.16221,0.11012l-1.44298,-1.21968l1.71568,-5.78873l-2.02461,-5.20876l-2.34645,0.05004l-1.0328,5.02389l0.32592,3.24426l-1.34468,2.27953l-5.89423,-0.87464l0.56351,-5.01388l-1.30664,-4.72389l-2.56004,0.80488l1.78294,4.96383l-1.52316,4.28406l-4.69994,-0.14984l-0.53951,-2.48941l-2.78472,-7.19329l1.65951,-7.78828l-0.21063,-7.49829l1.53262,-5.03456l4.80188,-2.38734"/></g></g><g><path d="M199.19414,225.62167l-9.0689,-2.5648l-4.67616,-6.29867l6.6176,-11.10729l5.09795,-11.45181l4.43376,-0.97721l4.31077,1.76929l3.00986,11.20295l5.73629,12.37333l-5.07304,5.9451z" fill="#707070" stroke-linecap="round"/><path d="M189.56656,251.06422l3.09414,-33.35853l-3.25891,0.04849l11.03864,-0.31768l9.63897,2.34974l-2.71833,-0.66914l-1.06959,32.9832" fill="#5d5d5d" stroke-linecap="round"/><path d="M187.65386,253.95024c0.30433,-5.51227 5.02151,-9.70391 10.53609,-9.3623c5.51458,0.34161 9.73832,5.08713 9.43398,10.59941c-0.30433,5.51227 -5.0215,9.70391 -10.53608,9.3623c-5.51458,-0.34161 -9.73832,-5.08713 -9.43399,-10.5994z" fill="#707070" stroke-linecap="butt"/></g></g><g><g stroke-linecap="butt"><g><path d="M186.2013,166.47192c1.108,-25.53211 22.70408,-45.33175 48.2362,-44.22375c25.53211,1.108 45.33175,22.70408 44.22375,48.23619c-1.108,25.53211 -22.70408,45.33175 -48.2362,44.22375c-25.53211,-1.108 -45.33175,-22.70408 -44.22375,-48.23619z" fill="#5d5d5d" stroke="#000000" stroke-width="1.2"/><path d="M234.73007,122.9029c0,0 1.48972,0.08265 2.22672,0.15027c24.09241,2.21008 42.44424,22.98645 41.38402,47.41728c-1.05125,24.2243 -20.80468,43.21581 -44.72347,43.64696c-0.94187,0.01698 -2.8441,-0.03622 -2.8441,-0.03622z" fill="#686868" stroke="#000000" stroke-width="0"/><path d="M192.28898,166.73611c0.98514,-22.70084 20.18641,-40.30487 42.88724,-39.31973c22.70084,0.98514 40.30488,20.18641 39.31974,42.88723c-0.98514,22.70084 -20.18641,40.30487 -42.88725,39.31973c-22.70084,-0.98514 -40.30487,-20.1864 -39.31973,-42.88723z" fill="#707070" stroke="#838383" stroke-width="0"/><path d="M195.17262,166.86125c0.91603,-21.10823 18.77022,-37.47725 39.87845,-36.56123c21.10823,0.91603 37.47726,18.77022 36.56124,39.87845c-0.91603,21.10823 -18.77023,37.47726 -39.87846,36.56123c-21.10823,-0.91603 -37.47725,-18.77023 -36.56123,-39.87846z" fill="url(#color-1)" stroke="#000000" stroke-width="1.2"/></g><g stroke="#000000"><path d="M195.63228,178.28339c0,0 -2.27529,-6.94714 -2.03067,-11.56162c0.24464,-4.61448 3.24725,-11.38668 3.24725,-11.38668c0.34425,0.03114 1.20347,0.11442 1.66769,0.20859c5.49202,1.11402 9.51247,6.08563 9.26182,11.86133c-0.26199,6.03717 -5.0969,10.79485 -11.01742,11.07583c-0.35159,0.01668 -1.06552,0.00202 -1.06552,0.00202c0,0 -0.0225,-0.06981 -0.06315,-0.19947z" fill="#707070" stroke-width="0"/><path d="M196.84887,155.33507c0.34425,0.03114 1.20347,0.11442 1.6677,0.20859c5.49201,1.11402 9.51247,6.08563 9.26182,11.86133c-0.26199,6.03717 -5.0969,10.79485 -11.01742,11.07583c-0.35159,0.01668 -1.06552,0.00202 -1.06552,0.00202c0,0 -0.02251,-0.0698 -0.06315,-0.19947" fill="none" stroke-width="1.2"/></g><g stroke="#000000"><path d="M270.13128,181.30294c-0.03647,0.12632 -0.05651,0.19428 -0.05651,0.19428c0,0 -0.47678,-0.03701 -0.70984,-0.07908c-3.92475,-0.70824 -6.8024,-5.80061 -6.54041,-11.83777c0.25065,-5.7757 3.28914,-10.44098 7.02925,-11.15435c0.31614,-0.0603 0.89469,-0.0812 1.12633,-0.08735c0,0 1.63884,4.64336 1.34036,11.58577c-0.28992,6.74303 -2.18917,11.3785 -2.18917,11.3785z" fill="#707070" stroke-width="0"/><path d="M270.13128,181.30294c-0.03647,0.12632 -0.05651,0.19428 -0.05651,0.19428c0,0 -0.47678,-0.03701 -0.70984,-0.07908c-3.92475,-0.70824 -6.8024,-5.80061 -6.54041,-11.83777c0.25065,-5.7757 3.28914,-10.44098 7.02925,-11.15435c0.31614,-0.0603 0.89469,-0.0812 1.12633,-0.08735" fill="none" stroke-width="1.2"/></g><path d="M195.01608,169.92355l0.27153,-6.25699l4.60853,-1.36721l4.33922,1.75551l-0.27153,6.25699l-4.61419,1.49755z" fill="#21cc26" stroke="#17921c" stroke-width="1.2"/><path d="M265.08541,172.96432l0.27153,-6.25699l3.16706,-1.42977l2.94012,1.69479l-0.27153,6.25699l-3.17271,1.56012z" fill="#21cc26" stroke="#17921c" stroke-width="1.2"/></g><g stroke-linecap="round"><path d="M227.9428,140.09962l2.19875,0.09542l0.39126,-1.08447l1.57738,0.13729l1.30836,-1.59539l0.7527,-1.48183l0.98569,-2.09128l0.58871,2.29729l1.16522,1.70274l1.24588,1.43087l2.49758,1.141l1.20698,0.74078l-1.13814,0.84554l-1.23381,-0.12239l-1.69678,1.02781l-1.22772,1.32353l-1.11117,1.81047l-0.70189,1.89706l-0.87236,-0.51974l-0.10773,-2.27641l-0.75583,-0.0328l-0.01503,-1.23978l-1.52072,-1.44281l-1.68795,-0.76165l-1.69393,-0.62424z" fill="#eee796" stroke="#eee796" stroke-width="0.25"/><path d="M227.90567,141.32509l0.05904,-1.36048l2.26746,0.0984l0.03936,-0.90699l1.81397,0.07872l0.0492,-1.13373l1.20931,0.05248l-0.70314,-0.03051" fill="none" stroke="#cec344" stroke-width="0.75"/><path d="M233.38674,137.16922l-0.04272,0.98428l0.07872,-1.81397l0.90699,0.03936l0.0984,-2.26747l1.36048,0.05904" fill="none" stroke="#cec344" stroke-width="0.75"/><path d="M237.27659,138.32416l-0.70314,-0.03052l1.20931,0.05248l-0.0492,1.13373l1.81397,0.07872l-0.03936,0.90698l2.26746,0.0984l-0.05904,1.36048" fill="none" stroke="#cec344" stroke-width="0.75"/><path d="M234.4831,134.11381l1.36048,0.05904l-0.0984,2.26746l0.90699,0.03936l-0.07872,1.81397l0.04272,-0.98429" fill="none" stroke="#cec344" stroke-width="0.75"/><path d="M232.39906,143.69546l0.70314,0.03051l-1.20931,-0.05248l0.0492,-1.13373l-1.81397,-0.07872l0.03936,-0.90699l-2.26746,-0.0984l0.05904,-1.36048" fill="none" stroke="#cec344" stroke-width="0.75"/><path d="M235.19255,147.9058l-1.36048,-0.05904l0.0984,-2.26747l-0.90699,-0.03936l0.07872,-1.81396l-0.04272,0.98428" fill="none" stroke="#cec344" stroke-width="0.75"/><path d="M241.76996,140.69451l-0.05904,1.36048l-2.26746,-0.0984l-0.03936,0.90699l-1.81397,-0.07872l-0.0492,1.13373l-1.20931,-0.05248l0.70314,0.03051" fill="none" stroke="#cec344" stroke-width="0.75"/><path d="M236.28891,144.85039l0.04272,-0.98428l-0.07872,1.81397l-0.90699,-0.03936l-0.0984,2.26746l-1.36048,-0.05904" fill="none" stroke="#cec344" stroke-width="0.75"/></g><g stroke-linecap="round"><path d="M225.54378,195.38093l2.19875,0.09542l0.39127,-1.08447l1.57737,0.13729l1.30836,-1.59539l0.7527,-1.48183l0.98569,-2.09128l0.58871,2.29728l1.16522,1.70274l1.24588,1.43087l2.49758,1.141l1.20698,0.74077l-1.13814,0.84554l-1.23381,-0.12239l-1.69678,1.02781l-1.22772,1.32353l-1.11117,1.81047l-0.70189,1.89706l-0.87236,-0.51974l-0.10773,-2.27641l-0.75583,-0.0328l-0.01503,-1.23978l-1.52072,-1.4428l-1.68795,-0.76166l-1.69393,-0.62423z" fill="#eee796" stroke="#eee796" stroke-width="0.25"/><path d="M225.50666,196.6064l0.05904,-1.36048l2.26746,0.0984l0.03936,-0.90699l1.81397,0.07872l0.0492,-1.13372l1.20931,0.05248l-0.70314,-0.03052" fill="none" stroke="#cec344" stroke-width="0.75"/><path d="M230.98772,192.45052l-0.04272,0.98428l0.07872,-1.81397l0.90699,0.03936l0.0984,-2.26747l1.36048,0.05904" fill="none" stroke="#cec344" stroke-width="0.75"/><path d="M234.87756,193.60546l-0.70314,-0.03052l1.20931,0.05248l-0.0492,1.13372l1.81397,0.07872l-0.03936,0.90699l2.26746,0.0984l-0.05904,1.36048" fill="none" stroke="#cec344" stroke-width="0.75"/><path d="M232.08408,189.39512l1.36048,0.05904l-0.0984,2.26746l0.90699,0.03936l-0.07872,1.81397l0.04272,-0.98429" fill="none" stroke="#cec344" stroke-width="0.75"/><path d="M230.00004,198.97675l0.70314,0.03052l-1.20931,-0.05248l0.0492,-1.13372l-1.81397,-0.07872l0.03936,-0.90699l-2.26746,-0.0984l0.05904,-1.36048" fill="none" stroke="#cec344" stroke-width="0.75"/><path d="M232.79353,203.1871l-1.36048,-0.05904l0.0984,-2.26747l-0.90698,-0.03936l0.07872,-1.81397l-0.04272,0.98429" fill="none" stroke="#cec344" stroke-width="0.75"/><path d="M239.37094,195.97582l-0.05904,1.36048l-2.26746,-0.0984l-0.03936,0.90698l-1.81397,-0.07872l-0.0492,1.13372l-1.20931,-0.05248l0.70314,0.03052" fill="none" stroke="#cec344" stroke-width="0.75"/><path d="M233.88989,200.1317l0.04272,-0.98429l-0.07872,1.81397l-0.90699,-0.03936l-0.0984,2.26746l-1.36048,-0.05904" fill="none" stroke="#cec344" stroke-width="0.75"/></g><g stroke-linecap="round"><path d="M249.89404,144.43418l1.48728,1.62222l1.04351,-0.49017l1.01829,1.21245l2.05326,-0.20296l1.58006,-0.51556l2.17574,-0.78177l-1.20815,2.0407l-0.38008,2.02797l-0.13081,1.89274l0.95925,2.57286l0.32965,1.37727l-1.40267,-0.2069l-0.7859,-0.95897l-1.92657,-0.47302l-1.80401,0.06775l-2.06591,0.49447l-1.83774,0.84512l-0.24935,-0.98437l1.53348,-1.68584l-0.51127,-0.55764l0.86602,-0.88729l-0.05509,-2.09553l-0.655,-1.73214l-0.75638,-1.63918z" fill="#eee796" stroke="#eee796" stroke-width="0.25"/><path d="M249.00125,145.27447l1.00375,-0.92026l1.53377,1.67291l0.66916,-0.6135l1.22701,1.33834l0.83645,-0.76689l0.81801,0.89223l-0.47562,-0.51877" fill="none" stroke="#cec344" stroke-width="0.75"/><path d="M255.81559,146.21152l-0.72619,0.66578l1.33834,-1.22701l0.61351,0.66917l1.67291,-1.53375l0.92026,1.00375" fill="none" stroke="#cec344" stroke-width="0.75"/><path d="M257.74946,149.77872l-0.47561,-0.51878l0.818,0.89222l-0.83645,0.76688l1.22701,1.33834l-0.66916,0.6135l1.53376,1.67292l-1.00375,0.92026" fill="none" stroke="#cec344" stroke-width="0.75"/><path d="M258.75134,144.82626l0.92026,1.00375l-1.67292,1.53376l0.6135,0.66917l-1.33833,1.22701l0.7262,-0.66579" fill="none" stroke="#cec344" stroke-width="0.75"/><path d="M250.50246,150.12787l0.47561,0.51877l-0.81799,-0.89223l0.83645,-0.76687l-1.22701,-1.33834l0.66917,-0.61351l-1.53376,-1.67292l1.00375,-0.92026" fill="none" stroke="#cec344" stroke-width="0.75"/><path d="M249.50058,155.08032l-0.92025,-1.00375l1.67292,-1.53376l-0.6135,-0.66917l1.33832,-1.227l-0.7262,0.66579" fill="none" stroke="#cec344" stroke-width="0.75"/><path d="M259.25067,154.63211l-1.00375,0.92026l-1.53375,-1.67292l-0.66917,0.6135l-1.22701,-1.33833l-0.83645,0.76687l-0.81801,-0.89222l0.47563,0.51878" fill="none" stroke="#cec344" stroke-width="0.75"/><path d="M252.43632,153.69507l0.7262,-0.66579l-1.33834,1.22701l-0.6135,-0.66917l-1.67291,1.53376l-0.92026,-1.00376" fill="none" stroke="#cec344" stroke-width="0.75"/></g><g stroke-linecap="round"><path d="M209.10789,181.8276l1.48729,1.62222l1.0435,-0.49017l1.01829,1.21245l2.05326,-0.20296l1.58006,-0.51556l2.17574,-0.78177l-1.20814,2.0407l-0.38008,2.02796l-0.13082,1.89275l0.95926,2.57286l0.32966,1.37727l-1.40268,-0.2069l-0.7859,-0.95898l-1.92658,-0.47302l-1.804,0.06774l-2.06591,0.49448l-1.83774,0.84512l-0.24936,-0.98437l1.53348,-1.68585l-0.51125,-0.55764l0.86602,-0.88729l-0.0551,-2.09553l-0.655,-1.73214l-0.75638,-1.63918z" fill="#eee796" stroke="#eee796" stroke-width="0.25"/><path d="M208.2151,182.6679l1.00375,-0.92026l1.53375,1.67291l0.66917,-0.61351l1.22701,1.33834l0.83645,-0.76688l0.81801,0.89223l-0.47562,-0.51877" fill="none" stroke="#cec344" stroke-width="0.75"/><path d="M215.02944,183.60494l-0.7262,0.66579l1.33834,-1.22701l0.6135,0.66917l1.67292,-1.53376l0.92025,1.00375" fill="none" stroke="#cec344" stroke-width="0.75"/><path d="M216.96331,187.17215l-0.47562,-0.51877l0.81801,0.89222l-0.83646,0.76688l1.22701,1.33834l-0.66917,0.6135l1.53376,1.67292l-1.00375,0.92026" fill="none" stroke="#cec344" stroke-width="0.75"/><path d="M217.96519,182.21969l0.92026,1.00375l-1.67292,1.53376l0.61351,0.66917l-1.33834,1.227l0.7262,-0.66579" fill="none" stroke="#cec344" stroke-width="0.75"/><path d="M209.71631,187.52129l0.47562,0.51877l-0.81801,-0.89223l0.83646,-0.76688l-1.22701,-1.33832l0.66917,-0.61351l-1.53376,-1.67292l1.00375,-0.92025" fill="none" stroke="#cec344" stroke-width="0.75"/><path d="M208.71444,192.47375l-0.92026,-1.00375l1.67292,-1.53376l-0.61351,-0.66917l1.33834,-1.22701l-0.72621,0.66579" fill="none" stroke="#cec344" stroke-width="0.75"/><path d="M218.46452,192.02554l-1.00375,0.92025l-1.53376,-1.67292l-0.66917,0.6135l-1.22701,-1.33834l-0.83645,0.76688l-0.818,-0.89222l0.47562,0.51877" fill="none" stroke="#cec344" stroke-width="0.75"/><path d="M211.65018,191.0885l0.7262,-0.66579l-1.33833,1.22701l-0.61351,-0.66917l-1.67292,1.53376l-0.92025,-1.00375" fill="none" stroke="#cec344" stroke-width="0.75"/></g><g stroke-linecap="round"><path d="M209.35594,152.55649l1.62222,-1.48729l-0.49017,-1.0435l1.21245,-1.01829l-0.20296,-2.05326l-0.51556,-1.58006l-0.78177,-2.17573l2.0407,1.20815l2.02796,0.38008l1.89275,0.13082l2.57286,-0.95926l1.37728,-0.32965l-0.20691,1.40268l-0.95898,0.7859l-0.47302,1.92657l0.06774,1.80401l0.49448,2.06591l0.84512,1.83774l-0.98436,0.24936l-1.68584,-1.53348l-0.55764,0.51126l-0.88728,-0.86602l-2.09553,0.0551l-1.73214,0.655l-1.63919,0.75638z" fill="#eee796" stroke="#eee796" stroke-width="0.25"/><path d="M210.19622,153.44928l-0.92026,-1.00375l1.67292,-1.53376l-0.6135,-0.66917l1.33833,-1.22701l-0.76687,-0.83646l0.89222,-0.818l-0.51877,0.47561" fill="none" stroke="#cec344" stroke-width="0.75"/><path d="M211.13327,146.63493l0.66579,0.7262l-1.22701,-1.33834l0.66917,-0.61351l-1.53375,-1.67292l1.00376,-0.92026" fill="none" stroke="#cec344" stroke-width="0.75"/><path d="M214.70047,144.70107l-0.51877,0.47562l0.89223,-0.81801l0.76687,0.83646l1.33834,-1.22701l0.61351,0.66917l1.67291,-1.53376l0.92026,1.00375" fill="none" stroke="#cec344" stroke-width="0.75"/><path d="M209.74802,143.69921l1.00375,-0.92026l1.53376,1.67292l0.66917,-0.61351l1.22701,1.33834l-0.66579,-0.7262" fill="none" stroke="#cec344" stroke-width="0.75"/><path d="M215.04962,151.94808l0.51877,-0.47562l-0.89222,0.81801l-0.76688,-0.83645l-1.33834,1.22701l-0.61351,-0.66917l-1.67292,1.53375l-0.92026,-1.00376" fill="none" stroke="#cec344" stroke-width="0.75"/><path d="M220.00208,152.94995l-1.00375,0.92026l-1.53376,-1.67292l-0.66917,0.6135l-1.227,-1.33833l0.66579,0.7262" fill="none" stroke="#cec344" stroke-width="0.75"/><path d="M219.55387,143.19987l0.92026,1.00375l-1.67292,1.53376l0.61351,0.66917l-1.33834,1.22701l0.76687,0.83645l-0.89221,0.81801l0.51877,-0.47562" fill="none" stroke="#cec344" stroke-width="0.75"/><path d="M218.61682,150.01421l-0.66579,-0.7262l1.227,1.33834l-0.66916,0.6135l1.53376,1.67291l-1.00375,0.92026" fill="none" stroke="#cec344" stroke-width="0.75"/></g><g stroke-linecap="round"><path d="M246.74936,193.34265l1.62222,-1.48728l-0.49017,-1.0435l1.21245,-1.01829l-0.20296,-2.05326l-0.51556,-1.58006l-0.78177,-2.17573l2.0407,1.20814l2.02796,0.38008l1.89275,0.1308l2.57287,-0.95925l1.37727,-0.32965l-0.20691,1.40267l-0.95898,0.78589l-0.47302,1.92658l0.06775,1.80401l0.49448,2.06592l0.84513,1.83774l-0.98438,0.24936l-1.68584,-1.53349l-0.55764,0.51125l-0.88729,-0.86602l-2.09552,0.05509l-1.73214,0.655l-1.63919,0.75638z" fill="#eee796" stroke="#eee796" stroke-width="0.25"/><path d="M247.58965,194.23544l-0.92026,-1.00375l1.67291,-1.53376l-0.61351,-0.66917l1.33834,-1.22701l-0.76687,-0.83645l0.89222,-0.81801l-0.51877,0.47562" fill="none" stroke="#cec344" stroke-width="0.75"/><path d="M248.52669,187.42109l0.66579,0.7262l-1.22701,-1.33834l0.66917,-0.6135l-1.53375,-1.67292l1.00375,-0.92026" fill="none" stroke="#cec344" stroke-width="0.75"/><path d="M252.0939,185.48723l-0.51877,0.47562l0.89223,-0.818l0.76687,0.83645l1.33834,-1.22701l0.61351,0.66917l1.67292,-1.53375l0.92026,1.00375" fill="none" stroke="#cec344" stroke-width="0.75"/><path d="M247.14144,184.48535l1.00375,-0.92025l1.53377,1.67291l0.66917,-0.6135l1.22701,1.33834l-0.66579,-0.7262" fill="none" stroke="#cec344" stroke-width="0.75"/><path d="M252.44304,192.73423l0.51878,-0.47562l-0.89223,0.81799l-0.76687,-0.83645l-1.33834,1.22701l-0.61351,-0.66917l-1.67292,1.53376l-0.92026,-1.00375" fill="none" stroke="#cec344" stroke-width="0.75"/><path d="M257.3955,193.7361l-1.00375,0.92026l-1.53376,-1.67292l-0.66917,0.61351l-1.22701,-1.33834l0.66579,0.7262" fill="none" stroke="#cec344" stroke-width="0.75"/><path d="M256.94729,183.98602l0.92026,1.00375l-1.67292,1.53376l0.61351,0.66917l-1.33834,1.22701l0.76687,0.83646l-0.89221,0.818l0.51877,-0.47563" fill="none" stroke="#cec344" stroke-width="0.75"/><path d="M256.01025,190.80036l-0.66579,-0.7262l1.227,1.33833l-0.66917,0.61351l1.53376,1.67292l-1.00375,0.92026" fill="none" stroke="#cec344" stroke-width="0.75"/></g></g><g stroke-linecap="round"><g><g stroke="#00a8c1"><path d="M245.5335,169.42368l0.41419,-9.54442l1.76568,0.07662l0.12944,-2.98263l2.14404,0.09304l0.11218,-2.58494l4.91867,0.21346l-0.11218,2.58494l1.76568,0.07663l-0.12944,2.98263l1.76568,0.07663l-0.4142,9.54441" fill="#00d4f5" stroke-width="0"/><path d="M245.75623,164.29107l-0.22273,5.13261l0.41419,-9.54442l1.76568,0.07662l0.12944,-2.98263l2.14404,0.09304l0.11218,-2.58494l4.91867,0.21346l-0.11218,2.58494l1.76568,0.07663l-0.12944,2.98263l1.76568,0.07663l-0.4142,9.54441l0.17938,-4.13355" fill="none" stroke-width="1.5"/></g><g><path d="M257.90954,169.58418l-0.4142,9.54441l-1.76568,-0.07662l-0.12944,2.98263l-1.76568,-0.07663l-0.11218,2.58494l-4.91867,-0.21345l0.11218,-2.58494l-2.14403,-0.09304l0.12944,-2.98263l-1.76568,-0.07663l0.4142,-9.54441" fill="#00fdb0" stroke="#00a8c1" stroke-width="0"/><path d="M257.73015,173.71773l0.17939,-4.13355l-0.4142,9.54441l-1.76568,-0.07662l-0.12944,2.98263l-1.76568,-0.07663l-0.11218,2.58494l-4.91867,-0.21345l0.11218,-2.58494l-2.14403,-0.09304l0.12944,-2.98263l-1.76568,-0.07663l0.4142,-9.54441l-0.22274,5.13261" fill="none" stroke="#00a674" stroke-width="1.5"/></g></g><g><g stroke="#00a8c1"><path d="M217.55983,168.20972l0.41419,-9.54442l2.30088,0.09985l0.12944,-2.98263l2.79393,0.12125l0.11218,-2.58494l6.40962,0.27816l-0.11218,2.58494l2.30088,0.09985l-0.12944,2.98263l2.30088,0.09985l-0.41419,9.54442" fill="#00d4f5" stroke-width="0"/><path d="M217.78256,163.07711l-0.22274,5.13261l0.41419,-9.54442l2.30088,0.09985l0.12944,-2.98263l2.79393,0.12125l0.11218,-2.58494l6.40962,0.27816l-0.11218,2.58494l2.30088,0.09985l-0.12944,2.98263l2.30088,0.09985l-0.41419,9.54442l0.17938,-4.13355" fill="none" stroke-width="1.5"/></g><g><path d="M233.68234,168.53281l-0.41419,9.54442l-2.30088,-0.09985l-0.12944,2.98263l-2.30088,-0.09985l-0.11218,2.58494l-6.40962,-0.27815l0.11218,-2.58494l-2.79393,-0.12125l0.12944,-2.98263l-2.30088,-0.09985l0.41419,-9.54442" fill="#00fdb0" stroke="#00a8c1" stroke-width="0"/><path d="M233.50296,172.66636l0.17938,-4.13355l-0.41419,9.54442l-2.30088,-0.09985l-0.12944,2.98263l-2.30088,-0.09985l-0.11218,2.58494l-6.40962,-0.27815l0.11218,-2.58494l-2.79393,-0.12125l0.12944,-2.98263l-2.30088,-0.09985l0.41419,-9.54442l-0.22274,5.13261" fill="none" stroke="#00a674" stroke-width="1.5"/></g></g></g></g></g></svg>