<svg version="1.1" xmlns="http://www.w3.org/2000/svg" xmlns:xlink="http://www.w3.org/1999/xlink" width="95.87353" height="125.71096" viewBox="0,0,95.87353,125.71096"><g transform="translate(-190.24425,-108.59773)"><g stroke-miterlimit="10"><path d="M230.82036,210.09145c-0.57258,-7.83446 5.31434,-14.64974 13.14881,-15.22232c7.83446,-0.57258 14.64974,5.31434 15.22232,13.14881c0.57258,7.83446 -5.31434,14.64974 -13.14881,15.22232c-7.83446,0.57258 -14.64974,-5.31434 -15.22232,-13.14881z" fill="#d5d5d5" fill-rule="nonzero" stroke="#001026" stroke-width="1.2" stroke-linecap="butt" stroke-linejoin="miter"/><path d="M199.60871,219.94627c-0.5993,-8.20008 5.56234,-15.33339 13.76242,-15.9327c8.20008,-0.5993 15.33339,5.56234 15.9327,13.76242c0.5993,8.20008 -5.56234,15.33339 -13.76242,15.9327c-8.20008,0.5993 -15.33339,-5.56234 -15.9327,-13.76242z" fill="#d5d5d5" fill-rule="nonzero" stroke="#001026" stroke-width="1.2" stroke-linecap="butt" stroke-linejoin="miter"/><path d="M252.89774,204.72007c0,0 15.75133,-21.16796 17.74824,-27.44588c2.23308,-7.02042 -10.62727,-23.99311 -10.62727,-23.99311l10.25109,-3.50266c0,0 12.40754,20.08788 10.84257,26.92117c-1.78775,7.80603 -21.06689,36.20526 -21.06689,36.20526z" fill="#2b2b2b" fill-rule="nonzero" stroke="#001026" stroke-width="1.2" stroke-linecap="butt" stroke-linejoin="miter"/><path d="M199.29918,206.3441l-1.13274,-4.68145c0,0 44.3894,-3.6937 57.10498,-3.66638c6.09585,0.0131 15.28155,3.82196 15.28155,3.82196l-0.70174,7.23996c0,0 -25.10581,3.9154 -37.15024,3.45206c-11.44199,-0.44017 -33.40181,-6.16615 -33.40181,-6.16615z" fill="#2b2b2b" fill-rule="nonzero" stroke="#001026" stroke-width="1.2" stroke-linecap="butt" stroke-linejoin="miter"/><path d="M198.2119,202.28463l-3.92406,-67.16488c0,0 8.3068,-20.79337 15.42828,-21.31385c10.57601,-0.77295 39.42343,-2.88127 39.42343,-2.88127l6.371,87.17231z" fill="#2b2b2b" fill-rule="nonzero" stroke="#001026" stroke-width="1.2" stroke-linecap="butt" stroke-linejoin="miter"/><path d="M267.29204,203.74804c2.78575,-0.94322 8.27149,-2.54215 8.32877,3.2143c0.11443,5.56479 -16.2268,11.02231 -18.57218,5.94008c-0.79861,-2.22086 0.5762,-11.51464 0.19957,-13.40095c-0.60159,-3.24914 -11.90514,3.44803 -17.88713,1.67052c-2.76208,-0.82074 -2.67545,-10.39987 -2.94895,-11.14069c-0.86586,-2.34526 18.47978,-1.32921 27.43746,-2.57632c-0.04777,4.47609 3.00198,16.37042 3.44245,16.29306z" fill="#ffab19" fill-rule="evenodd" stroke="#001026" stroke-width="1.2" stroke-linecap="round" stroke-linejoin="round"/><path d="M279.47601,167.43501c-0.44591,3.75482 -13.73008,18.44114 -20.80821,18.68477c-2.48874,0.08566 -21.86695,-15.53321 -15.64416,-19.90607c6.22278,-4.37285 10.70507,1.90837 14.11615,5.20303c2.834,2.81778 13.65396,-6.91448 14.50825,-7.43758c1.7467,-1.18138 3.13476,-0.5197 4.8502,0.54499c1.16069,0.72038 3.10817,1.27458 2.97779,2.91084z" fill="#ffab19" fill-rule="evenodd" stroke="#001026" stroke-width="1.2" stroke-linecap="round" stroke-linejoin="round"/><g fill-rule="evenodd"><path d="M229.56315,194.82118c0.81119,0.83344 2.51357,2.66586 -1.88803,5.81392c-4.4016,3.14807 -13.17361,1.05554 -14.15593,0.71327c-3.84928,-1.2035 -8.51532,-2.82927 -13.07352,-6.34522c-13.26908,-10.13119 -7.78723,-26.25949 -2.09996,-27.16953c5.56447,-0.95282 4.18644,9.72051 8.84352,18.09031c2.00574,3.72818 5.22438,5.95123 7.95743,7.59198c3.91817,2.19137 13.5253,0.30626 14.41649,1.30527z" fill="#ffab19" stroke="#001026" stroke-width="1.2" stroke-linecap="round" stroke-linejoin="round"/><path d="M202.57663,174.26489c0.80948,3.99988 2.99022,9.99218 2.99022,9.99218c0,0 -4.15819,-2.68809 -7.46409,-1.49912c-2.64362,0.86895 -3.09368,3.74147 -3.14759,4.68657c-1.04009,-2.15246 -2.23463,-5.04722 -1.96511,-9.7727c0.26952,-4.72549 3.29431,-9.45486 6.00682,-9.33592c2.62694,0.36451 2.59914,2.42029 3.57976,5.92899z" fill="#ffffff" stroke="none" stroke-width="1" stroke-linecap="butt" stroke-linejoin="miter"/></g><g fill-rule="evenodd"><path d="M232.80734,203.96794c-16.40283,-2.26544 -12.05343,-14.29928 -13.35575,-23.65669c-0.9042,-8.19753 0.97844,-8.2758 8.47684,-12.98973c4.09144,-2.91514 6.50334,-4.622 8.77984,-7.08217c3.45854,-3.62254 7.01748,3.51585 8.23978,7.85457c0,0 1.73594,6.49316 2.00295,10.44149c0.17407,2.83736 0.12507,15.25057 -3.96792,21.61552c-2.8418,4.41925 -10.17576,3.81701 -10.17576,3.81701z" fill="#ffab19" stroke="#001026" stroke-width="1.2" stroke-linecap="round" stroke-linejoin="round"/><path d="M245.71411,189.94645c0,0 -2.6628,-0.04108 -5.69576,-0.38302c-3.72555,-0.3258 -7.18837,-0.24506 -7.75409,-6.55917c-0.1676,-5.15421 -1.14329,-11.28682 6.23204,-12.11211c6.98528,-0.88497 7.133,4.51038 7.133,4.51038c1.5769,8.42254 0.08481,14.54389 0.08481,14.54389z" fill="#ffffff" stroke="none" stroke-width="1" stroke-linecap="butt" stroke-linejoin="miter"/></g><path d="M260.02296,157.56784c-0.83815,-4.56559 2.18354,-8.9462 6.74914,-9.78436c4.56559,-0.83815 8.9462,2.18354 9.78436,6.74914c0.83815,4.56559 -2.18354,8.9462 -6.74914,9.78436c-4.56559,0.83815 -8.9462,-2.18354 -9.78436,-6.74914z" fill="#ffab19" fill-rule="nonzero" stroke="#001026" stroke-width="1.2" stroke-linecap="butt" stroke-linejoin="miter"/><path d="M238.78857,109.08837c0.29484,-0.20753 0.79721,-0.12021 0.9073,0.27713l2.86991,10.63079c0,0 6.51687,4.53656 8.49977,7.78743c3.33814,5.41727 3.55197,9.9133 3.55197,9.9133c0,0 7.15086,1.91968 8.4947,7.58749c1.34384,5.66781 -2.78148,16.57569 -21.48184,20.75019c-18.70036,4.1745 -33.92457,-0.5418 -41.31075,-11.7585c-7.38618,-11.2167 3.46612,-25.09574 2.88656,-24.28081l-2.55224,-17.84113c-0.11009,-0.39734 0.38216,-0.70989 0.7871,-0.52008l12.29602,7.59131c0,0 4.45555,-1.81332 9.14897,-2.13217c2.79404,-0.27078 5.19834,-0.13157 7.50772,0.21011z" fill="#ffab19" fill-rule="evenodd" stroke="#001026" stroke-width="1.2" stroke-linecap="butt" stroke-linejoin="miter"/><path d="M254.46223,138.10105c0,0 6.94334,1.62484 8.28717,7.29264c1.34384,5.66781 -3.19401,16.08597 -21.69697,20.15544c-24.06574,5.61072 -35.92642,-8.49369 -29.49676,-19.25983c6.42712,-10.86611 18.15369,-2.06 26.53582,-2.87234c7.18504,-0.68201 7.82538,-7.00025 16.37073,-5.31592z" fill="#ffffff" fill-rule="evenodd" stroke="none" stroke-width="1" stroke-linecap="butt" stroke-linejoin="miter"/><path d="M209.50718,133.56011c-0.16814,-6.64332 5.08102,-12.16511 11.72433,-12.33325c6.64332,-0.16814 12.16511,5.08102 12.33325,11.72434c0.16814,6.64332 -5.08101,12.16511 -11.72434,12.33325c-6.64332,0.16814 -12.16509,-5.08102 -12.33323,-11.72434z" fill="#ffffff" fill-rule="nonzero" stroke="#001026" stroke-width="1.2" stroke-linecap="butt" stroke-linejoin="miter"/><path d="M272.71695,139.04597c-4.60234,3.91771 -11.79751,4.19986 -11.79751,4.19986" fill="none" fill-rule="evenodd" stroke="#001026" stroke-width="1.2" stroke-linecap="round" stroke-linejoin="round"/><path d="M271.70077,150.27521c-6.28534,0.65924 -10.23215,-1.14147 -10.23215,-1.14147" fill="none" fill-rule="evenodd" stroke="#001026" stroke-width="1.2" stroke-linecap="round" stroke-linejoin="round"/><path d="M237.49133,140.8313c2.09932,-0.05313 4.30368,0.09114 4.42137,0.78838c0.13539,1.39702 -1.29328,4.23407 -2.89024,4.37453c-1.79436,0.24548 -6.05628,-2.14745 -6.09676,-3.74693c-0.13033,-1.19709 2.56628,-1.36537 4.56564,-1.41598z" fill="#001026" fill-rule="evenodd" stroke="#001026" stroke-width="1.2" stroke-linecap="round" stroke-linejoin="round"/><path d="M192.46779,140.47039c0,0 8.6681,2.5815 12.24541,5.59195" fill="none" fill-rule="evenodd" stroke="#001026" stroke-width="1.2" stroke-linecap="round" stroke-linejoin="round"/><path d="M205.10166,149.55369c-4.25561,1.80826 -11.68107,0.89585 -11.68107,0.89585" fill="none" fill-rule="evenodd" stroke="#001026" stroke-width="1.2" stroke-linecap="round" stroke-linejoin="round"/><path d="M233.58144,133.19587c0.04943,1.95301 -2.11785,7.48289 -3.89333,7.52782c-1.77548,0.04494 -2.44894,-5.41303 -2.49837,-7.36604c-0.04943,-1.95301 1.3305,-3.5869 3.10597,-3.63183c1.77996,0.1326 3.2363,1.51703 3.28573,3.47006" fill="#001026" fill-rule="evenodd" stroke="none" stroke-width="1" stroke-linecap="butt" stroke-linejoin="miter"/><path d="M235.51503,123.32896c0,0 -0.97862,5.48002 -2.86948,3.66577c-3.58515,-3.43988 -15.77287,-15.66066 -15.77287,-15.66066" fill="none" fill-rule="nonzero" stroke="#001026" stroke-width="2.5" stroke-linecap="round" stroke-linejoin="miter"/><path d="M238.87629,131.37854c-0.15456,-6.10682 5.1056,-11.19367 11.74891,-11.36183c6.64332,-0.16814 12.1541,4.6461 12.30867,10.75291c0.15456,6.10682 -5.1056,11.19367 -11.74892,11.36183c-6.64332,0.16814 -12.15408,-4.64609 -12.30865,-10.75291z" fill="#ffffff" fill-rule="nonzero" stroke="#001026" stroke-width="1.2" stroke-linecap="butt" stroke-linejoin="miter"/><path d="M262.95877,131.33892c0.04544,1.79529 -2.1307,6.97477 -3.90618,7.01971c-1.77548,0.04494 -2.44008,-5.06263 -2.48552,-6.85793c-0.04544,-1.79529 1.33776,-3.30013 3.11323,-3.34507c1.77961,0.11827 3.23303,1.38799 3.27846,3.18328" fill="#001026" fill-rule="evenodd" stroke="none" stroke-width="1" stroke-linecap="butt" stroke-linejoin="miter"/><path d="M239.35229,125.68632c0,0 3.28099,-4.34888 5.77204,-4.81594c4.19383,-0.78633 16.97193,-3.16749 16.97193,-3.16749" fill="none" fill-rule="nonzero" stroke="#001026" stroke-width="2.5" stroke-linecap="round" stroke-linejoin="miter"/><path d="M191.76936,174.69516c2.4336,-3.45899 26.80424,-11.50869 31.54269,-7.51045c2.86792,8.52081 -7.70585,7.48311 -12.00018,8.72689c-2.58633,0.77361 -5.22136,1.68392 -7.06609,2.1054c-0.19893,0.1636 2.88056,13.29542 0.3735,19.67509c-1.55694,3.96194 -8.93108,2.42716 -9.46574,2.34507c-6.88096,-1.05647 -3.48241,-23.80478 -3.38418,-25.34202z" fill="#ffab19" fill-rule="evenodd" stroke="#001026" stroke-width="1.2" stroke-linecap="round" stroke-linejoin="round"/><path d="M234.56868,203.75561c0.64188,8.78257 -1.74689,16.11486 -5.33547,16.37713c-3.58858,0.26227 -7.01803,-6.6448 -7.65991,-15.42736c-0.64188,-8.78257 1.74689,-16.11486 5.33547,-16.37713c3.58858,-0.26227 7.01803,6.6448 7.65991,15.42736z" fill="#ffab19" fill-rule="nonzero" stroke="#001026" stroke-width="1.2" stroke-linecap="butt" stroke-linejoin="miter"/><g stroke="#001026" stroke-width="1.2" stroke-linecap="round"><g fill="#ffffff" fill-rule="evenodd" stroke-linejoin="round"><path d="M210.99185,147.44313c-0.02097,-0.5284 0.4917,-0.94567 1.02536,-0.83455c2.54661,0.82508 9.76393,2.65555 17.71092,2.86935c7.14915,0.11316 11.36063,-0.45093 13.32641,-0.92588c0.65525,-0.15831 1.20988,0.48122 0.97189,1.15221c-1.04734,3.6139 -9.90807,21.90288 -23.81008,21.66084c-12.07357,-0.84386 -9.36386,-17.4333 -9.22448,-23.92196z"/></g><path d="M254.45319,145.70143c-1.59244,0.44247 -3.98945,1.15077 -5.71842,1.48308c-2.48751,0.47811 -6.50296,1.44322 -6.50296,1.44322" fill="none" fill-rule="nonzero" stroke-linejoin="miter"/></g><g fill-rule="nonzero" stroke="#001026" stroke-width="1.2" stroke-linecap="round" stroke-linejoin="miter"><path d="M273.98728,174.33352l-3.74704,0.66919l-1.36927,-4.24161l-1.50032,-1.85749l1.83056,-4.37386z" fill="#ffab19"/><path d="M279.82584,158.93827l5.57603,12.25085l-4.59876,4.72706l-6.24678,1.29601l-2.30573,-2.67832l0.0103,-1.08416l-1.97431,-3.32574l-0.31083,-1.52091l-2.07964,-3.65202l3.25129,-5.55306z" fill="#ffab19"/><path d="M272.72217,164.83424l-1.22037,2.9159" fill="none"/><path d="M273.40798,172.53897l1.93074,-3.50549" fill="none"/></g><path d="M249.87992,221.952c0.29947,4.09757 -8.56516,8.08492 -19.79969,8.906c-11.23455,0.82108 -20.5847,-1.83504 -20.88418,-5.93261c-0.29947,-4.09757 8.56516,-8.08492 19.79969,-8.906c11.23455,-0.82108 20.5847,1.83504 20.88418,5.93261z" fill="#ffab19" fill-rule="nonzero" stroke="#001026" stroke-width="1.2" stroke-linecap="butt" stroke-linejoin="miter"/></g></g></svg>