<svg version="1.1" xmlns="http://www.w3.org/2000/svg" xmlns:xlink="http://www.w3.org/1999/xlink" width="92.07858" height="126.24522" viewBox="0,0,92.07858,126.24522"><g transform="translate(-177.28714,-120.52443)"><g stroke-miterlimit="10"><path d="M224.99063,219.69939c-1.25256,-7.75485 4.01859,-15.05683 11.77345,-16.30939c7.75485,-1.25256 15.05682,4.01859 16.30938,11.77346c1.25256,7.75485 -4.01859,15.05683 -11.77345,16.30938c-7.75485,1.25256 -15.05683,-4.01859 -16.30938,-11.77345z" fill="#d5d5d5" fill-rule="nonzero" stroke="#001026" stroke-width="1.2" stroke-linecap="butt" stroke-linejoin="miter"/><path d="M195.1755,232.30287c-1.31101,-8.11676 4.20612,-15.75947 12.32288,-17.07049c8.11676,-1.31101 15.75947,4.20613 17.07049,12.32288c1.31101,8.11676 -4.20613,15.75948 -12.32288,17.07049c-8.11676,1.31101 -15.75947,-4.20613 -17.07048,-12.32289z" fill="#d5d5d5" fill-rule="nonzero" stroke="#001026" stroke-width="1.2" stroke-linecap="butt" stroke-linejoin="miter"/><path d="M244.31009,214.419c0,0 4.76076,-11.15736 7.34622,-17.21668c2.89125,-6.77597 -8.29499,-24.89581 -8.29499,-24.89581l10.53798,-2.51089c0,0 10.43894,21.17779 8.23057,27.83107c-2.52272,7.60039 -8.10685,24.42405 -8.10685,24.42405z" fill="#2b2b2b" fill-rule="nonzero" stroke="#001026" stroke-width="1.2" stroke-linecap="butt" stroke-linejoin="miter"/><path d="M193.68279,218.77931l-1.53605,-4.56504c0,0 43.8992,-7.54469 56.56887,-8.62463c6.07384,-0.51772 15.55629,2.47688 15.55629,2.47688l4.30275,10.65149c0,0 -27.84876,9.86183 -39.88779,10.44897c-11.43686,0.55777 -35.00405,-10.38766 -35.00405,-10.38766z" fill="#2b2b2b" fill-rule="nonzero" stroke="#001026" stroke-width="1.2" stroke-linecap="butt" stroke-linejoin="miter"/><path d="M188.32839,212.69378l-4.14284,-67.15173c0,0 8.23901,-20.82032 15.35876,-21.36399c10.57344,-0.8074 39.41384,-3.00969 39.41384,-3.00969l6.65496,87.15109z" fill="#2b2b2b" fill-rule="nonzero" stroke="#001026" stroke-width="1.2" stroke-linecap="butt" stroke-linejoin="miter"/><path d="M260.22034,220.59387c2.86789,-0.65211 8.48885,-1.67914 7.95457,4.05275c-0.45772,5.5471 -17.27308,9.29738 -19.08406,4.00113c-0.5663,-2.29114 1.75583,-11.39456 1.57494,-13.30958c-0.26469,-3.29375 -12.19631,2.20702 -17.9641,-0.17548c-2.66317,-1.10009 -1.59314,-10.61966 -1.78911,-11.38466c-0.62041,-2.4218 18.51856,0.57587 27.55696,0.25538c-0.50725,4.44751 1.30471,16.59217 1.75081,16.56047z" fill="#ffab19" fill-rule="evenodd" stroke="#001026" stroke-width="1.2" stroke-linecap="round" stroke-linejoin="round"/><path d="M257.56296,194.74458c-2.18659,3.08486 -20.87517,9.63421 -27.20866,6.46464c-2.22691,-1.11446 -11.78129,-24.09657 -4.22518,-24.96275c7.5561,-0.86617 8.49045,6.79357 9.91159,11.31802c1.14223,3.8297 15.29819,0.45376 16.29862,0.40267c2.09894,-0.20267 3.00183,1.04204 3.99961,2.79724c0.67512,1.18759 2.12073,2.60532 1.22404,3.98019z" fill="#ffab19" fill-rule="evenodd" stroke="#001026" stroke-width="1.2" stroke-linecap="round" stroke-linejoin="round"/><g fill-rule="evenodd"><path d="M221.20676,210.36413c0.81928,0.82548 2.53948,2.6412 -1.83121,5.83207c-4.37069,3.19087 -13.16268,1.18403 -14.1483,0.85137c-3.86084,-1.16589 -8.54251,-2.74605 -13.13482,-6.21737c-13.36729,-10.00123 -8.04309,-26.18226 -2.36497,-27.14774c5.55491,-1.00707 4.2811,9.67918 9.01963,18.00315c2.04202,3.70844 5.28219,5.89997 8.03113,7.51397c3.93937,2.15304 13.52765,0.17428 14.42854,1.16454z" fill="#ffab19" stroke="#001026" stroke-width="1.2" stroke-linecap="round" stroke-linejoin="round"/><path d="M194.02094,190.07214c0.84848,3.99178 3.08758,9.96252 3.08758,9.96252c0,0 -4.18422,-2.64739 -7.47837,-1.42622c-2.63501,0.89471 -3.05704,3.77149 -3.10172,4.71707c-1.06104,-2.1422 -2.28377,-5.02517 -2.06038,-9.75306c0.2234,-4.7279 3.20192,-9.48655 5.91545,-9.39409c2.63037,0.33885 2.62264,2.3948 3.63744,5.89378z" fill="#ffffff" stroke="none" stroke-width="1" stroke-linecap="butt" stroke-linejoin="miter"/></g><g fill-rule="evenodd"><path d="M227.1567,213.25251c-16.44517,1.06866 -13.52205,-9.78346 -15.87193,-17.37561c-1.82502,-6.69384 0.02401,-7.09947 6.8876,-12.39749c3.70604,-3.17777 5.89206,-5.04134 7.85875,-7.51058c3.00096,-3.65515 7.32535,1.67306 9.02524,5.08154c0,0 2.45192,5.11785 3.16465,8.37238c0.49462,2.34199 1.85859,12.73447 -1.45647,18.79827c-2.30168,4.21016 -9.60783,5.0315 -9.60783,5.0315z" fill="#ffab19" stroke="#001026" stroke-width="1.2" stroke-linecap="round" stroke-linejoin="round"/><path d="M238.29866,199.19155c0,0 -2.6325,0.44676 -5.66454,0.70874c-3.71369,0.40061 -7.12184,1.09381 -8.39854,-4.08571c-0.75183,-4.28119 -2.41245,-9.23481 4.77213,-11.25777c6.79285,-2.0024 7.5525,2.48412 7.5525,2.48412c2.51447,6.76052 1.73846,12.15061 1.73846,12.15061z" fill="#ffffff" stroke="none" stroke-width="1" stroke-linecap="butt" stroke-linejoin="miter"/></g><path d="M242.95747,176.57421c-0.39972,-4.62465 3.02525,-8.69772 7.6499,-9.09744c4.62465,-0.39972 8.69772,3.02525 9.09744,7.6499c0.39972,4.62465 -3.02525,8.69772 -7.6499,9.09744c-4.62465,0.39972 -8.69772,-3.02525 -9.09744,-7.6499z" fill="#ffab19" fill-rule="nonzero" stroke="#001026" stroke-width="1.2" stroke-linecap="butt" stroke-linejoin="miter"/><path d="M229.42763,127.61316c0.3249,-0.15633 0.80614,0.01225 0.84952,0.42226l1.08643,10.95763c0,0 5.68406,5.5445 7.10658,9.07671c2.40388,5.89164 1.877,10.3618 1.877,10.3618c0,0 6.73889,3.06715 7.1344,8.87865c0.39551,5.81151 -5.46392,15.89452 -24.59582,16.9436c-19.1319,1.04909 -33.37574,-6.10164 -38.82107,-18.37838c-5.44533,-12.27674 7.53746,-24.18671 6.83203,-23.47794l0.41017,-18.01809c-0.04339,-0.41002 0.49348,-0.63755 0.86177,-0.38386l10.88355,9.50622c0,0 4.69271,-1.05756 9.37485,-0.60188c2.8006,0.1914 5.14945,0.72328 7.37146,1.43931z" fill="#ffab19" fill-rule="evenodd" stroke="#001026" stroke-width="1.2" stroke-linecap="butt" stroke-linejoin="miter"/><path d="M239.99444,158.78591c0,0 6.58255,2.74224 6.97806,8.55374c0.39551,5.81151 -5.7905,15.34374 -24.71042,16.32161c-24.66022,1.58535 -34.0455,-14.27423 -25.93625,-23.83928c8.12316,-9.66407 18.24563,0.94704 26.64744,1.52125c7.19956,0.50633 8.86806,-5.62116 17.02117,-2.55734z" fill="#ffffff" fill-rule="evenodd" stroke="none" stroke-width="1" stroke-linecap="butt" stroke-linejoin="miter"/><path d="M196.39404,146.9292c0.92434,-6.58085 7.00849,-11.16637 13.58933,-10.24203c6.58085,0.92434 11.16636,7.0085 10.24203,13.58934c-0.92434,6.58085 -7.00848,11.16637 -13.58934,10.24203c-6.58085,-0.92434 -11.16635,-7.00849 -10.24201,-13.58934z" fill="#ffffff" fill-rule="nonzero" stroke="#001026" stroke-width="1.2" stroke-linecap="butt" stroke-linejoin="miter"/><path d="M255.97114,165.88985c-5.36228,2.78854 -12.43814,1.45354 -12.43814,1.45354" fill="none" fill-rule="evenodd" stroke="#001026" stroke-width="1.2" stroke-linecap="round" stroke-linejoin="round"/><path d="M252.46806,176.60698c-6.27348,-0.76388 -9.7173,-3.40208 -9.7173,-3.40208" fill="none" fill-rule="evenodd" stroke="#001026" stroke-width="1.2" stroke-linecap="round" stroke-linejoin="round"/><path d="M222.93881,158.71286c2.07958,0.2921 4.23039,0.79615 4.23205,1.50326c-0.0957,1.4003 -1.97058,3.96445 -3.56894,3.84093c-1.81032,-0.05231 -5.62177,-3.1122 -5.39921,-4.69665c0.06788,-1.20224 2.75555,-0.92572 4.73611,-0.64754z" fill="#001026" fill-rule="evenodd" stroke="#001026" stroke-width="1.2" stroke-linecap="round" stroke-linejoin="round"/><path d="M178.58488,150.96826c0,0 8.12695,3.96898 11.16174,7.52567" fill="none" fill-rule="evenodd" stroke="#001026" stroke-width="1.2" stroke-linecap="round" stroke-linejoin="round"/><path d="M189.55686,162.00171c-4.49466,1.08537 -11.66972,-1.03321 -11.66972,-1.03321" fill="none" fill-rule="evenodd" stroke="#001026" stroke-width="1.2" stroke-linecap="round" stroke-linejoin="round"/><path d="M220.20169,150.5206c-0.27174,1.93465 -3.31712,7.03388 -5.0759,6.78685c-1.75878,-0.24703 -1.52744,-5.74152 -1.25571,-7.67618c0.27174,-1.93465 1.90109,-3.31992 3.65986,-3.07289c1.73407,0.42291 2.94347,2.02755 2.67174,3.96222" fill="#001026" fill-rule="evenodd" stroke="none" stroke-width="1" stroke-linecap="butt" stroke-linejoin="miter"/><path d="M225.72299,149.59682c0.84969,-6.0494 6.87333,-10.20406 13.45417,-9.27973c6.58085,0.92434 11.22688,6.57766 10.3772,12.62704c-0.84969,6.0494 -6.87333,10.20407 -13.45418,9.27973c-6.58085,-0.92434 -11.22685,-6.57765 -10.37718,-12.62704z" fill="#ffffff" fill-rule="nonzero" stroke="#001026" stroke-width="1.2" stroke-linecap="butt" stroke-linejoin="miter"/><path d="M249.48548,153.5098c-0.24979,1.77841 -3.24641,6.53054 -5.00518,6.28351c-1.75878,-0.24703 -1.5762,-5.39442 -1.3264,-7.17284c0.24979,-1.77841 1.86119,-3.03585 3.61997,-2.78882c1.73607,0.40871 2.96142,1.89973 2.71162,3.67814" fill="#001026" fill-rule="evenodd" stroke="none" stroke-width="1" stroke-linecap="butt" stroke-linejoin="miter"/><path d="M228.11132,219.17519c0.44398,8.79479 -2.10927,16.07144 -5.70284,16.25285c-3.59357,0.18141 -6.86664,-6.80112 -7.31062,-15.59591c-0.44398,-8.79479 2.10926,-16.07144 5.70284,-16.25285c3.59357,-0.18141 6.86665,6.80112 7.31063,15.59591z" fill="#ffab19" fill-rule="nonzero" stroke="#001026" stroke-width="1.2" stroke-linecap="butt" stroke-linejoin="miter"/><g stroke="#001026" stroke-width="1.2" stroke-linecap="round"><g fill="#ffffff" fill-rule="evenodd" stroke-linejoin="round"><path d="M193.15343,158.67862c0.1439,-0.50887 0.76067,-0.74662 1.23358,-0.47551c2.1653,1.574 8.45941,5.55199 15.94848,8.21923c6.76176,2.32417 10.94059,3.09366 12.95676,3.25159c0.67205,0.05265 1.00106,0.83262 0.56676,1.39676c-2.11621,3.11108 -18.47293,16.92906 -31.6148,12.38862c-11.21694,-4.54569 -1.2351,-18.65501 0.90922,-24.78069z"/></g><path d="M234.8974,170.50498c-1.65115,-0.07306 -4.14965,-0.14286 -5.89646,-0.363c-2.51316,-0.31671 -6.62997,-0.64415 -6.62997,-0.64415" fill="none" fill-rule="nonzero" stroke-linejoin="miter"/></g><path d="M197.08986,209.83842c-0.1268,-4.2274 14.54843,-25.2836 20.738,-24.92557c7.40475,5.09891 -1.67911,10.60932 -4.36977,14.17986c-1.60578,2.17003 -3.16856,4.47868 -4.39202,5.9222c-0.06108,0.25021 10.27809,8.91216 12.09756,15.52088c1.12993,4.10416 -5.69153,7.29807 -6.16861,7.553c-6.13999,3.28091 -17.06192,-16.96129 -17.90516,-18.25036z" fill="#ffab19" fill-rule="evenodd" stroke="#001026" stroke-width="1.2" stroke-linecap="round" stroke-linejoin="round"/><g fill-rule="nonzero" stroke="#001026" stroke-width="1.2" stroke-linecap="round" stroke-linejoin="miter"><path d="M255.26237,194.59308l-3.79373,0.30945l-0.95927,-4.3527l-1.31668,-1.99187l2.23861,-4.17973z" fill="#ffab19"/><path d="M262.53996,179.82354l4.38447,12.72603l-5.02786,4.26781l-6.3418,0.69546l-2.04029,-2.88565l0.11345,-1.07826l-1.64874,-3.49858l-0.16464,-1.54359l-1.72254,-3.8334l3.76515,-5.21833z" fill="#ffab19"/><path d="M254.90729,185.01651l-1.49242,2.78648" fill="none"/><path d="M254.85653,192.75156l2.25567,-3.30579" fill="none"/></g><path d="M243.00899,237.71169c0.20714,4.10327 -8.74501,7.89003 -19.99518,8.45796c-11.25018,0.56793 -20.53817,-2.29802 -20.74532,-6.4013c-0.20714,-4.10327 8.74501,-7.89003 19.99519,-8.45796c11.25018,-0.56793 20.53817,2.29803 20.74531,6.4013z" fill="#ffab19" fill-rule="nonzero" stroke="#001026" stroke-width="1.2" stroke-linecap="butt" stroke-linejoin="miter"/><path d="M246.81918,135.05273c0,0 -8.01632,-5.60692 -12.80289,-3.4387c-4.40303,1.99448 -7.38605,8.79994 -10.48705,8.00662c-2.94826,-0.75425 -6.9004,-8.64974 -11.16379,-10.78671c-5.91376,-2.96419 -11.89695,-0.2429 -11.89695,-0.2429" fill="none" fill-rule="nonzero" stroke="#001026" stroke-width="2.5" stroke-linecap="round" stroke-linejoin="miter"/></g></g></svg>