<svg version="1.1" xmlns="http://www.w3.org/2000/svg" xmlns:xlink="http://www.w3.org/1999/xlink" width="323.92859" height="323.92859" viewBox="0,0,323.92859,323.92859"><g transform="translate(-78.0357,-18.0357)"><g stroke-miterlimit="10"><g stroke-linecap="butt"><path d="M287.05094,300.69278l4.37749,-69.80064l45.02029,-0.10411l-6.86993,69.90475z" fill="#868995" stroke="#000000" stroke-width="1.2"/><g><g><g><g fill="#868995" stroke="#000000" stroke-width="1.2"><path d="M314.13359,264.2157c0,0 -14.71488,0.3452 -16.54198,-1.91087c-1.40985,-1.74086 0.46249,-24.77184 2.15979,-26.4586c1.7424,-1.73158 16.44297,-1.76388 16.44297,-1.76388"/></g><g fill="none" stroke="none" stroke-width="1" font-family="sans-serif" font-weight="normal" font-size="12" text-anchor="start"/><g fill="none" stroke="none" stroke-width="1" font-family="sans-serif" font-weight="normal" font-size="12" text-anchor="start"/></g><g><g fill="#868995" stroke="#000000" stroke-width="1.2"><path d="M316.08632,234.08235c0,0 14.6953,0.0323 16.15501,1.76388c1.42192,1.68676 -0.46573,24.71773 -2.15979,26.45859c-2.19541,2.25607 -16.85394,1.91088 -16.85394,1.91088"/></g><g fill="none" stroke="none" stroke-width="1" font-family="sans-serif" font-weight="normal" font-size="12" text-anchor="start"/><g fill="none" stroke="none" stroke-width="1" font-family="sans-serif" font-weight="normal" font-size="12" text-anchor="start"/></g></g><g><g><g fill="#4e4f56" stroke="#000000" stroke-width="1.2"><path d="M314.22498,262.44251c0,0 -12.98201,0.30455 -14.59394,-1.68584c-1.24382,-1.53585 0.40802,-21.85463 1.90544,-23.34275c1.53721,-1.52767 14.5066,-1.55616 14.5066,-1.55616"/></g><g fill="none" stroke="none" stroke-width="1" font-family="sans-serif" font-weight="normal" font-size="12" text-anchor="start"/><g fill="none" stroke="none" stroke-width="1" font-family="sans-serif" font-weight="normal" font-size="12" text-anchor="start"/></g><g><g fill="#4e4f56" stroke="#000000" stroke-width="1.2"><path d="M315.94775,235.85776c0,0 12.96474,0.0285 14.25254,1.55616c1.25447,1.48812 -0.41089,21.8069 -1.90545,23.34275c-1.93687,1.99039 -14.86917,1.68584 -14.86917,1.68584"/></g><g fill="none" stroke="none" stroke-width="1" font-family="sans-serif" font-weight="normal" font-size="12" text-anchor="start"/><g fill="none" stroke="none" stroke-width="1" font-family="sans-serif" font-weight="normal" font-size="12" text-anchor="start"/></g></g><g><g><g fill="#9497a4" stroke="#000000" stroke-width="1.2"><path d="M314.68197,253.57661c0,0 -4.31767,0.10129 -4.85378,-0.56069c-0.41368,-0.51081 0.1357,-7.26859 0.63373,-7.76352c0.51126,-0.50808 4.82472,-0.51756 4.82472,-0.51756"/></g><g fill="none" stroke="none" stroke-width="1" font-family="sans-serif" font-weight="normal" font-size="12" text-anchor="start"/><g fill="none" stroke="none" stroke-width="1" font-family="sans-serif" font-weight="normal" font-size="12" text-anchor="start"/></g><g><g fill="#9497a4" stroke="#000000" stroke-width="1.2"><path d="M315.25494,244.73483c0,0 4.31192,0.00948 4.74023,0.51756c0.41723,0.49493 -0.13665,7.25272 -0.63373,7.76352c-0.64418,0.66198 -4.94531,0.56069 -4.94531,0.56069"/></g><g fill="none" stroke="none" stroke-width="1" font-family="sans-serif" font-weight="normal" font-size="12" text-anchor="start"/><g fill="none" stroke="none" stroke-width="1" font-family="sans-serif" font-weight="normal" font-size="12" text-anchor="start"/></g></g></g><g><g><g><g fill="#868995" stroke="#000000" stroke-width="1.2"><path d="M311.59361,294.79085c0,0 -11.16273,0.26187 -12.54877,-1.44959c-1.06951,-1.32062 0.35084,-18.79196 1.63841,-20.07154c1.32179,-1.31358 12.47367,-1.33808 12.47367,-1.33808"/></g><g fill="none" stroke="none" stroke-width="1" font-family="sans-serif" font-weight="normal" font-size="12" text-anchor="start"/><g fill="none" stroke="none" stroke-width="1" font-family="sans-serif" font-weight="normal" font-size="12" text-anchor="start"/></g><g><g fill="#868995" stroke="#000000" stroke-width="1.2"><path d="M313.07496,271.93164c0,0 11.14788,0.0245 12.25522,1.33808c1.07867,1.27958 -0.3533,18.75092 -1.63842,20.07154c-1.66544,1.71146 -12.78544,1.44959 -12.78544,1.44959"/></g><g fill="none" stroke="none" stroke-width="1" font-family="sans-serif" font-weight="normal" font-size="12" text-anchor="start"/><g fill="none" stroke="none" stroke-width="1" font-family="sans-serif" font-weight="normal" font-size="12" text-anchor="start"/></g></g><g><g><g fill="#4e4f56" stroke="#000000" stroke-width="1.2"><path d="M311.66294,293.44571c0,0 -9.84817,0.23103 -11.07098,-1.27888c-0.94357,-1.1651 0.30953,-16.57896 1.44547,-17.70785c1.16613,-1.15889 11.00473,-1.18051 11.00473,-1.18051"/></g><g fill="none" stroke="none" stroke-width="1" font-family="sans-serif" font-weight="normal" font-size="12" text-anchor="start"/><g fill="none" stroke="none" stroke-width="1" font-family="sans-serif" font-weight="normal" font-size="12" text-anchor="start"/></g><g><g fill="#4e4f56" stroke="#000000" stroke-width="1.2"><path d="M312.96985,273.27847c0,0 9.83507,0.02162 10.812,1.18051c0.95164,1.12889 -0.3117,16.54275 -1.44547,17.70785c-1.46932,1.50991 -11.27978,1.27888 -11.27978,1.27888"/></g><g fill="none" stroke="none" stroke-width="1" font-family="sans-serif" font-weight="normal" font-size="12" text-anchor="start"/><g fill="none" stroke="none" stroke-width="1" font-family="sans-serif" font-weight="normal" font-size="12" text-anchor="start"/></g></g><g><g><g fill="#9497a4" stroke="#000000" stroke-width="1.2"><path d="M312.00961,286.72002c0,0 -3.27538,0.07683 -3.68208,-0.42534c-0.31382,-0.3875 0.10295,-5.51397 0.48075,-5.88942c0.38784,-0.38543 3.66004,-0.39263 3.66004,-0.39263"/></g><g fill="none" stroke="none" stroke-width="1" font-family="sans-serif" font-weight="normal" font-size="12" text-anchor="start"/><g fill="none" stroke="none" stroke-width="1" font-family="sans-serif" font-weight="normal" font-size="12" text-anchor="start"/></g><g><g fill="#9497a4" stroke="#000000" stroke-width="1.2"><path d="M312.44427,280.01263c0,0 3.27103,0.00719 3.59595,0.39263c0.31651,0.37545 -0.10367,5.50192 -0.48075,5.88942c-0.48867,0.50218 -3.75152,0.42534 -3.75152,0.42534"/></g><g fill="none" stroke="none" stroke-width="1" font-family="sans-serif" font-weight="normal" font-size="12" text-anchor="start"/><g fill="none" stroke="none" stroke-width="1" font-family="sans-serif" font-weight="normal" font-size="12" text-anchor="start"/></g></g></g></g><g stroke-linecap="butt"><path d="M150.4212,300.69278l-6.86992,-69.90475l45.02029,0.10411l4.37749,69.80064z" fill="#868995" stroke="#000000" stroke-width="1.2"/><g><g><g><g fill="#868995" stroke="#000000" stroke-width="1.2"><path d="M163.80563,234.08235c0,0 14.70057,0.0323 16.44297,1.76388c1.6973,1.68676 3.56964,24.71773 2.15979,26.45859c-1.82709,2.25607 -16.54198,1.91087 -16.54198,1.91087"/></g><g fill="none" stroke="none" stroke-width="1" font-family="sans-serif" font-weight="normal" font-size="12" text-anchor="start"/><g fill="none" stroke="none" stroke-width="1" font-family="sans-serif" font-weight="normal" font-size="12" text-anchor="start"/></g><g><g fill="#868995" stroke="#000000" stroke-width="1.2"><path d="M166.77241,264.2157c0,0 -14.65853,0.3452 -16.85394,-1.91087c-1.69406,-1.74086 -3.58171,-24.77183 -2.15979,-26.45859c1.45971,-1.73158 16.15501,-1.76388 16.15501,-1.76388"/></g><g fill="none" stroke="none" stroke-width="1" font-family="sans-serif" font-weight="normal" font-size="12" text-anchor="start"/><g fill="none" stroke="none" stroke-width="1" font-family="sans-serif" font-weight="normal" font-size="12" text-anchor="start"/></g></g><g><g><g fill="#4e4f56" stroke="#000000" stroke-width="1.2"><path d="M163.95692,235.85776c0,0 12.96939,0.0285 14.5066,1.55616c1.49742,1.48812 3.14926,21.8069 1.90544,23.34275c-1.61193,1.99039 -14.59394,1.68584 -14.59394,1.68584"/></g><g fill="none" stroke="none" stroke-width="1" font-family="sans-serif" font-weight="normal" font-size="12" text-anchor="start"/><g fill="none" stroke="none" stroke-width="1" font-family="sans-serif" font-weight="normal" font-size="12" text-anchor="start"/></g><g><g fill="#4e4f56" stroke="#000000" stroke-width="1.2"><path d="M166.57432,262.44251c0,0 -12.93229,0.30455 -14.86917,-1.68584c-1.49456,-1.53585 -3.15992,-21.85463 -1.90544,-23.34275c1.28781,-1.52766 14.25254,-1.55616 14.25254,-1.55616"/></g><g fill="none" stroke="none" stroke-width="1" font-family="sans-serif" font-weight="normal" font-size="12" text-anchor="start"/><g fill="none" stroke="none" stroke-width="1" font-family="sans-serif" font-weight="normal" font-size="12" text-anchor="start"/></g></g><g><g><g fill="#9497a4" stroke="#000000" stroke-width="1.2"><path d="M164.71335,244.73483c0,0 4.31347,0.00948 4.82472,0.51756c0.49803,0.49493 1.04741,7.25272 0.63373,7.76352c-0.53611,0.66198 -4.85377,0.56069 -4.85377,0.56069"/></g><g fill="none" stroke="none" stroke-width="1" font-family="sans-serif" font-weight="normal" font-size="12" text-anchor="start"/><g fill="none" stroke="none" stroke-width="1" font-family="sans-serif" font-weight="normal" font-size="12" text-anchor="start"/></g><g><g fill="#9497a4" stroke="#000000" stroke-width="1.2"><path d="M165.58387,253.57661c0,0 -4.30113,0.10129 -4.94531,-0.56069c-0.49707,-0.51081 -1.05095,-7.26859 -0.63373,-7.76352c0.42831,-0.50808 4.74023,-0.51756 4.74023,-0.51756"/></g><g fill="none" stroke="none" stroke-width="1" font-family="sans-serif" font-weight="normal" font-size="12" text-anchor="start"/><g fill="none" stroke="none" stroke-width="1" font-family="sans-serif" font-weight="normal" font-size="12" text-anchor="start"/></g></g></g><g><g><g><g fill="#868995" stroke="#000000" stroke-width="1.2"><path d="M166.84307,271.93164c0,0 11.15188,0.0245 12.47367,1.33808c1.28757,1.27958 2.70793,18.75092 1.63842,20.07154c-1.38604,1.71146 -12.54877,1.44959 -12.54877,1.44959"/></g><g fill="none" stroke="none" stroke-width="1" font-family="sans-serif" font-weight="normal" font-size="12" text-anchor="start"/><g fill="none" stroke="none" stroke-width="1" font-family="sans-serif" font-weight="normal" font-size="12" text-anchor="start"/></g><g><g fill="#868995" stroke="#000000" stroke-width="1.2"><path d="M169.09368,294.79085c0,0 -11.11999,0.26187 -12.78543,-1.44959c-1.28511,-1.32062 -2.71709,-18.79196 -1.63842,-20.07153c1.10733,-1.31358 12.25522,-1.33808 12.25522,-1.33808"/></g><g fill="none" stroke="none" stroke-width="1" font-family="sans-serif" font-weight="normal" font-size="12" text-anchor="start"/><g fill="none" stroke="none" stroke-width="1" font-family="sans-serif" font-weight="normal" font-size="12" text-anchor="start"/></g></g><g><g><g fill="#4e4f56" stroke="#000000" stroke-width="1.2"><path d="M166.95784,273.27847c0,0 9.8386,0.02162 11.00473,1.18051c1.13595,1.12889 2.38904,16.54275 1.44547,17.70785c-1.22281,1.50991 -11.07099,1.27888 -11.07099,1.27888"/></g><g fill="none" stroke="none" stroke-width="1" font-family="sans-serif" font-weight="normal" font-size="12" text-anchor="start"/><g fill="none" stroke="none" stroke-width="1" font-family="sans-serif" font-weight="normal" font-size="12" text-anchor="start"/></g><g><g fill="#4e4f56" stroke="#000000" stroke-width="1.2"><path d="M168.9434,293.44571c0,0 -9.81046,0.23103 -11.27978,-1.27888c-1.13378,-1.1651 -2.39712,-16.57896 -1.44547,-17.70785c0.97693,-1.15889 10.812,-1.18051 10.812,-1.18051"/></g><g fill="none" stroke="none" stroke-width="1" font-family="sans-serif" font-weight="normal" font-size="12" text-anchor="start"/><g fill="none" stroke="none" stroke-width="1" font-family="sans-serif" font-weight="normal" font-size="12" text-anchor="start"/></g></g><g><g><g fill="#9497a4" stroke="#000000" stroke-width="1.2"><path d="M167.53167,280.01263c0,0 3.2722,0.00719 3.66005,0.39262c0.3778,0.37545 0.79457,5.50193 0.48075,5.88942c-0.40669,0.50218 -3.68208,0.42534 -3.68208,0.42534"/></g><g fill="none" stroke="none" stroke-width="1" font-family="sans-serif" font-weight="normal" font-size="12" text-anchor="start"/><g fill="none" stroke="none" stroke-width="1" font-family="sans-serif" font-weight="normal" font-size="12" text-anchor="start"/></g><g><g fill="#9497a4" stroke="#000000" stroke-width="1.2"><path d="M168.19205,286.72002c0,0 -3.26285,0.07684 -3.75152,-0.42534c-0.37708,-0.3875 -0.79725,-5.51397 -0.48074,-5.88942c0.32492,-0.38543 3.59594,-0.39262 3.59594,-0.39262"/></g><g fill="none" stroke="none" stroke-width="1" font-family="sans-serif" font-weight="normal" font-size="12" text-anchor="start"/><g fill="none" stroke="none" stroke-width="1" font-family="sans-serif" font-weight="normal" font-size="12" text-anchor="start"/></g></g></g></g><path d="M187.3461,300.92055l-3.94905,-103.37655h113.20589l-3.94904,103.37655z" fill="#868995" stroke="#000000" stroke-width="1.2" stroke-linecap="butt"/><path d="M192.35429,176.0774" fill="none" stroke="#000000" stroke-width="1.2" stroke-linecap="round"/><path d="M200.34224,180.47576" fill="none" stroke="#000000" stroke-width="1.2" stroke-linecap="round"/><g><g stroke-linecap="round"><g stroke="#000000" stroke-width="1.2"><path d="M203.6947,157.42958c-15.78632,-2.81873 -27.03293,-33.61218 -27.03293,-33.61218c10.04847,-1.46108 14.18579,2.33952 14.72011,2.7029c0.53445,0.36424 10.39003,8.53545 10.39003,8.53545c-0.89005,13.43322 1.92278,22.37383 1.92278,22.37383zM202.16989,132.19879c0,0 -0.36206,2.03531 -0.41671,3.14106M203.6947,157.42958c0.28237,0.89967 1.08276,2.29331 1.08276,2.29331" fill="#be1e2d"/><path d="M197.19845,154.21037c-2.97459,-1.98071 -6.6023,-5.08798 -10.05396,-9.85875c-3.07742,-4.25386 -6.27788,-10.89702 -8.31664,-15.47288l0.0634,-0.06755c6.19813,-1.31058 9.9031,2.79598 9.9031,2.79598l0.23031,0.32898c1.53429,2.43209 3.17601,4.87188 4.49883,6.42591c0.78094,0.91896 1.61067,1.71887 2.38309,2.38359c0,0 1.62245,4.223 1.94832,7.20103c0.48813,4.40486 -0.77965,6.19663 -0.77965,6.19663z" fill="#929497"/></g><path d="M265.26347,168.53358l-10.63529,8.71046l-24.24239,0.90484l-10.18862,4.74075l-15.54173,-4.20731l-6.81156,-8.12696l-5.9195,-9.78452l-3.65437,-12.38737l0.31698,-12.3069l2.84083,-9.43657l4.6397,-9.27627l6.4233,-8.4379l7.31731,-7.58436l8.17733,-7.0163l5.75441,-4.04536l2.47279,-2.87337l2.67412,-4.68966l1.75858,-4.53157l1.42877,-6.09844l-0.50089,-8.17296l4.66564,5.56879l4.85943,7.19581l0.14863,-3.92192l1.02259,2.12336l4.03063,6.69946l5.68134,6.34189l3.74188,2.98264l5.45232,4.41904l6.63732,5.321l5.96707,6.15586l4.94063,6.5851l4.27038,7.41996l3.15585,7.10966l1.05013,7.5244l0.44346,7.60062l-1.06248,6.5889l-2.4206,8.11069l-2.94221,5.02361l-5.06598,6.78853z" fill="#be1e2d" stroke="#8c8c8c" stroke-width="0"/><path d="M276.05484,169.67687l-10.84266,-1.06558l-10.61829,8.86898l-24.17545,0.63627l-10.19683,4.69734l-14.79058,-3.48813c0,0 -48.6076,-42.08843 18.00321,-88.48977c0,0 11.69817,-11.59078 7.66853,-27.67976c-0.32774,-1.30858 9.80812,13.48523 9.80812,13.48523c0,0 -0.12818,-5.31408 0.10206,-4.65214c2.55156,7.33584 11.52022,16.62957 11.52022,16.62957c56.05588,37.09068 28.48789,75.28828 28.48789,75.28828z" fill="none" stroke="#000000" stroke-width="1.2"/><g stroke="#000000" stroke-width="1.2"><path d="M279.24968,125.42658c0,0 8.02905,-11.23015 8.48348,-11.76815c0.45451,-0.53719 3.73567,-5.58488 14.28556,-8.22168c0,0 -3.98003,32.13756 -19.3196,40.88279c0,0 0.69634,-9.15289 -3.44945,-20.89296zM279.33728,125.6749c-0.32237,-0.97369 -1.18109,-2.66311 -1.18109,-2.66311M282.1539,148.80939c0,0 0.47583,-1.56907 0.54521,-2.48984" fill="#be1e2d"/><path d="M288.6233,140.75859c0,0 -1.71905,-1.11403 -2.28696,-5.27044c-0.38816,-2.80842 0.23894,-7.24726 0.23894,-7.24726c0.6234,-0.90202 1.27233,-1.94827 1.843,-3.08246c0.96729,-1.91888 2.04435,-4.76037 3.01428,-7.55269l0.15432,-0.38665c0,0 2.76854,-5.15302 9.37476,-6.41104l0.08065,0.03586c-0.9644,4.92014 -2.60866,12.15772 -4.70482,17.19653c-2.35117,5.65121 -5.28253,9.87449 -7.82304,12.82697z" fill="#929497"/></g></g><g><g><path d="M275.28907,147.80188c1.92192,15.70984 -13.50192,30.52274 -34.45011,33.08551c-20.9482,2.56278 -39.4881,-8.09502 -41.41002,-23.80487c-1.92192,-15.70984 13.50191,-30.52274 34.45011,-33.08551c20.9482,-2.56278 39.4881,8.09502 41.41002,23.80487z" fill="#e6e7e8" stroke="#000000" stroke-width="1.2" stroke-linecap="butt"/><path d="M215.84509,180.1862l2.22104,2.65634l2.80681,1.73459l-1.82257,0.60078l-4.36443,-0.59949l-4.02084,-1.86943l-1.79359,-2.42527l-4.85294,-2.14544l-3.65032,-2.10367l0.19282,2.3718c-5.56083,-9.34042 -14.5294,-18.89539 -12.27246,-32.25103c26.13746,-30.68597 71.63385,-39.03384 88.86386,-7.44407c0.2304,0.42242 0.44681,0.84431 0.6498,1.26569c0.1536,0.63745 0.26617,1.234 0.32296,1.7761c0.6424,6.13216 0.44209,12.21057 0.55129,18.41018c0.00719,0.40846 -0.05108,0.86612 -0.15033,1.34953l-0.81925,1.35716l-0.32977,-1.42768l-2.13133,5.39883l-4.49432,5.1007l-2.87933,1.82028l-0.05471,-4.25057l-0.55498,-5.80419l-1.02468,-4.57232l-1.0874,-0.01378l0.2815,-1.50245l0.95065,-3.63955l-0.34263,-4.06855l-1.1598,-4.40898l-3.75764,-4.09116l-6.16725,-3.50278l-8.02998,-2.24727l-9.26376,-0.92191l2.43377,0.87667l3.86862,2.46277l2.25843,3.24695l-17.34037,-2.28267l-16.74682,-2.50208l-0.41017,2.98623l-2.17797,6.28534l-2.07825,5.83274l0.65471,5.35158l3.23485,4.88914l4.43324,3.27449l-3.13831,0.97115l-2.75065,0.33651l0.42467,3.4713l2.14101,3.55493l2.39356,3.08362l2.64611,2.61232z" fill="#be1e2d" stroke="#8c8c8c" stroke-width="0" stroke-linecap="butt"/><path d="M211.53602,136.49023c-0.651,8.0322 -5.06541,12.50648 -4.54816,16.66954c1.06468,8.569 8.50618,11.63041 8.50618,11.63041c0,0 -5.13131,3.1207 -11.44893,-0.07907" fill="none" stroke="#000000" stroke-width="1.2" stroke-linecap="round"/><path d="M199.02341,156.67803c-0.81096,-1.54619 -1.60499,-3.32954 -2.36939,-5.38299" fill="none" stroke="#000000" stroke-width="1.2" stroke-linecap="round"/><path d="M205.02749,134.62706c15.59708,4.27661 41.09105,6.23634 41.09105,6.23634c0,0 -2.9007,-4.19115 -8.68378,-6.13368c0,0 36.2072,-0.42639 26.98729,24.70039c0,0 3.48668,-2.06346 5.75248,-5.87522" fill="none" stroke="#000000" stroke-width="1.2" stroke-linecap="round"/><path d="M271.68131,144.46282c0.33107,1.77414 0.5138,2.59622 0.21514,4.0785" fill="none" stroke="#000000" stroke-width="1.2" stroke-linecap="round"/><path d="M276.49292,162.17716c-1.45698,6.83489 -9.17738,11.4475 -9.17738,11.4475c0,0 0.34116,-9.75057 -1.81018,-14.79637" fill="none" stroke="#000000" stroke-width="1.2" stroke-linecap="round"/><path d="M198.50783,156.44663c-3.85903,7.89685 2.15131,21.63781 2.15131,21.63781c0,0 -17.02917,-20.25077 -11.92332,-32.98628" fill="none" stroke="#000000" stroke-width="1.2" stroke-linecap="round"/><path d="M279.28191,159.82967c-1.25331,2.47558 -2.27474,3.84893 -2.27474,3.84893c0,0 0.31667,-9.72577 -5.14243,-15.01445" fill="none" stroke="#000000" stroke-width="1.2" stroke-linecap="round"/><path d="M209.72601,166.27802c-0.64775,6.80129 7.68448,12.82623 7.68448,12.82623c0,0 -10.30332,3.16683 -17.47039,-3.6508" fill="none" stroke="#000000" stroke-width="1.2" stroke-linecap="round"/><path d="M215.15172,179.65905c1.40021,3.14595 5.84759,4.9049 5.84759,4.9049c0,0 -8.21382,2.48942 -13.01708,-4.81202" fill="none" stroke="#000000" stroke-width="1.2" stroke-linecap="round"/></g><g><path d="M258.83954,148.43433c0.54107,-0.09923 0.87735,0.69772 1.01514,1.03487c0.51664,1.26418 0.52295,2.82037 -0.39883,3.87363l-0.40383,0.10007c-0.17795,0.08684 -0.43528,0.12975 -0.79494,0.10719c-3.02597,-0.18978 -5.68219,-0.41689 -8.66028,0.77515c-0.8544,0.34199 -2.33267,1.77573 -3.06137,1.93283c-0.9347,0.2015 -1.28976,-0.02763 -1.49127,-0.96232c-0.19663,-0.91209 1.5078,-1.7211 2.12067,-2.0469c2.13368,-1.13427 4.55989,-1.78433 6.97861,-2.0258c0.48485,-0.50884 0.73678,-1.10873 1.02402,-1.84741c0.08262,-0.21247 0.42603,-1.04112 0.51535,-1.05623c1.00311,-0.16972 1.21374,1.51948 1.19442,2.78068c0.26462,0.00579 0.53255,0.02049 0.77935,0.04959c0.37871,-1.09926 0.79575,-2.64433 1.18296,-2.71534z" fill="#000000" stroke="none" stroke-width="0.5" stroke-linecap="butt"/><path d="M220.71965,157.45848c0.20615,-0.12586 0.43491,-0.24458 0.66343,-0.35264c-0.3878,-1.32616 -0.70149,-3.19348 0.22111,-3.4004c0.08216,-0.01843 0.62467,0.72551 0.75905,0.91835c0.46719,0.67046 0.86284,1.20774 1.43432,1.55902c2.17524,-0.67634 4.47719,-0.92351 6.66709,-0.54601c0.62902,0.10843 2.3498,0.30733 2.44705,1.34753c0.09966,1.06598 -0.14185,1.44503 -1.01427,1.592c-0.68016,0.11458 -2.38797,-0.83204 -3.23187,-0.86455c-2.94151,-0.11333 -5.18553,1.14995 -7.7622,2.51623c-0.30626,0.1624 -0.54275,0.21616 -0.7231,0.19288l-0.38076,0.04973c-1.11176,-0.75866 -1.56404,-2.40662 -1.48647,-3.94237c0.02069,-0.40958 0.07883,-1.38183 0.57872,-1.48532c0.35776,-0.07405 1.17505,1.39907 1.8279,2.41556z" fill="#000000" stroke="none" stroke-width="0.5" stroke-linecap="butt"/><path d="M252.28436,164.0772c-9.48781,9.87116 -22.48951,6.27929 -22.48951,6.27929" fill="none" stroke="#000000" stroke-width="1.2" stroke-linecap="round"/></g></g></g><path d="M266.95966,164.10718" fill="none" stroke="#000000" stroke-width="1.2" stroke-linecap="round"/><g stroke="#000000" stroke-width="1.2" stroke-linecap="butt"><g fill="#868995"><path d="M240.75084,244.52207c0,0 -41.94558,0.42456 -44.92372,-2.35022c-2.29803,-2.14112 -2.30937,-30.46732 0,-32.5419c2.37074,-2.1297 44.33295,-2.16943 44.33295,-2.16943"/><path d="M239.83992,207.46052c0,0 41.96221,0.03973 44.33295,2.16943c2.30938,2.07458 2.29804,30.40079 0,32.5419c-2.97814,2.77478 -44.92372,2.35022 -44.92372,2.35022"/></g><g fill="#4e4f56"><path d="M240.71252,242.40879c0,0 -39.80476,0.37611 -42.6309,-2.08203c-2.18075,-1.89678 -2.19151,-26.99059 0,-28.82843c2.24974,-1.88667 42.07028,-1.92187 42.07028,-1.92187"/><path d="M239.84809,209.57646c0,0 39.82055,0.0352 42.07029,1.92187c2.19151,1.83784 2.18075,26.93165 0,28.82843c-2.82614,2.45814 -42.63091,2.08203 -42.63091,2.08203"/></g><g fill="#9497a4"><path d="M240.2322,231.45281c0,0 -12.9719,0.12494 -13.8929,-0.69163c-0.71068,-0.6301 -0.71419,-8.96603 0,-9.57654c0.73316,-0.62673 13.7102,-0.63843 13.7102,-0.63843"/><path d="M239.9505,220.54622c0,0 12.97703,0.0117 13.7102,0.63843c0.71418,0.61051 0.71068,8.94644 0,9.57654c-0.92101,0.81657 -13.8929,0.69163 -13.8929,0.69163"/></g></g><g stroke="#000000" stroke-width="1.2" stroke-linecap="butt"><g fill="#868995"><path d="M240.65981,285.68287c0,0 -36.86021,0.37309 -39.47728,-2.06529c-2.01943,-1.88153 -2.02939,-26.77355 0,-28.59661c2.08332,-1.8715 38.95814,-1.90641 38.95814,-1.90641"/><path d="M239.85933,253.11456c0,0 36.87483,0.03491 38.95815,1.90641c2.02939,1.82306 2.01943,26.71508 0,28.59661c-2.61708,2.43837 -39.47729,2.06528 -39.47729,2.06528"/></g><g fill="#4e4f56"><path d="M240.62614,283.82579c0,0 -34.97894,0.33051 -37.46244,-1.82961c-1.91636,-1.66682 -1.92582,-23.71832 0,-25.33335c1.97699,-1.65794 36.96979,-1.68887 36.96979,-1.68887"/><path d="M239.86651,254.97397c0,0 34.99281,0.03093 36.9698,1.68887c1.92582,1.61503 1.91636,23.66653 0,25.33335c-2.48351,2.16012 -37.46245,1.82961 -37.46245,1.82961"/></g><g fill="#9497a4"><path d="M240.20405,274.19809c0,0 -11.39922,0.10979 -12.20856,-0.60778c-0.62452,-0.5537 -0.6276,-7.87901 0,-8.4155c0.64428,-0.55075 12.04801,-0.56103 12.04801,-0.56103"/><path d="M239.9565,264.61378c0,0 11.40373,0.01028 12.04801,0.56103c0.6276,0.53649 0.62452,7.8618 0,8.41551c-0.80934,0.71757 -12.20856,0.60777 -12.20856,0.60777"/></g></g><g stroke="#000000" stroke-width="1.2"><path d="M230.92636,178.63595c0.19159,-0.0302 0.37547,-0.05415 0.55183,-0.07206c0.29224,-0.08192 0.60402,-0.09682 0.91047,-0.0388c6.8256,0.17276 -1.25507,12.05761 -3.81141,12.88031c-2.1678,0.69765 -6.7637,-0.76286 -5.82143,-3.93541c0.3401,-1.14508 7.0479,-8.40866 8.11523,-8.75216z" fill="#be1e2d" stroke-linecap="butt"/><g><path d="M222.77877,195.77211c-0.22393,-0.23725 -2.86163,-3.21691 -2.86163,-3.21691c0,0 0.75446,5.03168 -2.54258,6.40562c-1.7852,0.74393 -5.63097,0.16986 -7.66238,0.32794c0,0 -2.32496,0.17914 -2.5527,-2.14956c-0.22774,-2.3287 2.09722,-2.50783 2.09722,-2.50783c0.45031,-0.03438 1.01401,-0.01541 1.62616,0.02045c2.42206,-5.98803 3.71236,-15.85863 12.02191,-10.78639c3.4109,2.08205 4.15162,2.90403 4.15162,2.90403c0,0 2.96904,-10.04095 7.63684,-9.42828c15.23425,1.99956 9.67917,19.97177 3.74639,20.62974c-9.00069,0.99821 -12.93432,0.68982 -15.66086,-2.19881z" fill="#be1e2d" stroke-linecap="butt"/><path d="M228.6861,191.84931c-0.62085,-3.20306 1.84622,-14.1335 6.77789,-10.78277c3.88206,2.63759 1.96296,8.33619 0.44566,11.27005c-1.70803,3.30266 -6.55066,2.98429 -7.22355,-0.48728z" fill="#e6e7e8" stroke-linecap="round"/></g><path d="M240.67888,180.09383c1.14046,-1.58434 3.78268,-1.18759 4.88452,-0.84674c3.12324,0.96615 3.30426,3.66846 4.00354,6.67218c0.60824,2.61271 1.77239,5.50079 3.53821,7.07516c3.33143,0.87774 9.11523,-0.09053 8.29467,4.34581c-0.19675,1.06366 -6.02933,1.54055 -8.28235,1.6162c1.51217,2.40989 -0.9054,2.72103 -3.08232,1.46096c-0.89286,-0.51682 -3.03896,-1.32729 -4.47385,-2.87032c-1.43489,-1.54303 -0.57797,-2.36486 -0.76328,-3.57746c-0.42044,-2.75101 -1.59961,-3.85461 -2.45059,-6.36734" fill="#be1e2d" stroke-linecap="butt"/><path d="M222.73318,183.81383c-0.23273,1.27292 -1.73825,1.63144 -1.73825,1.63144c0,0 -1.12533,2.43562 -4.81095,3.24193c-4.96506,1.08622 -6.29079,-5.19047 -1.53985,-7.53982c0,0 3.96762,-2.56991 6.06909,-1.93709c0.70502,0.2123 0.72535,1.26761 1.06403,1.95597c0.67938,1.38082 1.18866,1.37465 0.95593,2.64757z" fill="#be1e2d" stroke-linecap="butt"/></g><path d="M238.82037,197.76912c3.61978,4.71939 5.66062,16.33144 -1.09479,15.60659c-1.03324,-0.11086 -1.80858,-0.97279 -2.71286,-1.45919c-1.236,-2.26857 -1.72781,-4.67343 -2.99989,-6.92642c-1.18073,-2.09122 -3.596,-4.15337 -4.10582,-6.52952c-0.9926,-4.62632 6.31928,-7.48025 10.08588,-4.98462" fill="#be1e2d" stroke="#000000" stroke-width="1.2" stroke-linecap="butt"/><path d="M78.0357,341.9643v-323.92859h323.92859v323.92859z" fill="none" stroke="#000000" stroke-width="0" stroke-linecap="butt"/></g></g></svg>