<svg version="1.1" xmlns="http://www.w3.org/2000/svg" xmlns:xlink="http://www.w3.org/1999/xlink" width="114.3229" height="117.99085" viewBox="0,0,114.3229,117.99085"><g transform="translate(-179.45368,-120.23867)"><g stroke-width="1.2" stroke-miterlimit="10"><path d="M251.17115,214.03714c3.24412,-0.50515 8.30457,-4.21875 8.97314,1.3698c0.18737,1.56631 0.30082,1.59479 -0.61738,2.72918c-2.31305,2.85765 -9.80371,3.07483 -12.73882,1.84875c-1.04302,-0.43571 -4.42785,-2.4831 -3.53625,-4.09417c-0.00077,-0.05981 0.00009,-0.11998 0.00262,-0.18046c0.07503,-1.79336 1.58964,-3.18634 3.383,-3.11131c0.89338,-0.5095 3.47786,1.60263 4.53369,1.43824z" fill="#9a8479" stroke="#000000" stroke-linecap="butt"/><path d="M247.67228,224.98085c0,0 1.41489,5.22774 2.04183,7.13847c0.63053,1.91063 1.33376,3.68822 1.33376,3.68822c0,0 0.76158,0.34929 0.65474,1.09892c-0.10465,0.75337 -2.55477,0.71688 -5.60343,0.8829c-3.04927,0.16691 -5.61762,-0.36213 -6.20998,-1.15826c-0.58953,-0.78714 0.28415,-1.06708 0.28415,-1.06708c0,0 0.29135,-5.17305 -0.89396,-7.52882c-1.58043,-3.14189 -0.30955,-3.95998 3.09748,-5.46209v0v0v0v0v0v0c3.40703,-1.50211 5.29542,2.40773 5.29542,2.40773z" fill="#9a8479" stroke="#000000" stroke-linecap="butt"/><path d="M233.3071,208.67383v0v0v0v0v0v0c8.00641,-0.62376 11.84012,4.05299 11.83819,4.0521c0.85025,1.20795 1.93842,2.91231 2.5242,4.46855c0.16162,0.42988 0.29573,0.91356 0.39196,1.43237c0,0 0.23652,1.80207 0.14736,2.35221c-0.37444,2.30475 -1.17835,4.82759 -3.87316,5.96827c-4.2297,1.79848 -9.06858,1.57773 -14.43319,-0.78533c-1.81005,-0.79518 -3.02188,-2.15035 -3.80399,-3.69306c-0.5596,-1.11025 -0.95216,-2.55784 -0.95216,-2.55784c-0.61638,-2.40793 -0.56401,-4.75845 -0.49972,-5.78064c0,0 0.65511,-4.83296 8.66054,-5.45663z" fill="#9a8479" stroke="#000000" stroke-linecap="butt"/><path d="M237.35781,227.60244c0.00771,0.33101 -0.01607,0.53673 -0.01607,0.53673c0,0 -0.22242,3.23453 -0.00572,4.99083c0.21573,1.7564 0.39167,2.48244 0.39167,2.48244c0,0 0.53086,0.05919 0.49557,0.72783c-0.03155,0.66954 -1.5014,1.39557 -5.96701,1.27629c-4.46817,-0.12475 -5.46969,-1.12546 -5.55581,-1.63701c-0.08801,-0.51154 0.81015,-1.03037 0.81015,-1.03037c0,0 0.01257,-3.27125 0.30199,-6.11542c0.16484,-1.6128 0.56991,-3.18902 0.89,-4.25212" fill="#9a8479" stroke="#000000" stroke-linecap="butt"/><g><path d="M277.88255,165.79134c0,0 13.24896,-9.80817 14.99837,-1.87424c1.7495,7.93382 -4.36407,17.4863 -15.72599,26.311c0,0 1.98179,-13.96957 0.72761,-24.43676zM277.88255,165.79134c-0.06045,-1.22756 -0.47601,-3.56566 -0.47601,-3.56566M276.61413,192.41054l0.41311,-2.26228" fill="#9a8479" stroke="#000000" stroke-linecap="round"/><path d="M277.02734,190.14737c0.39184,-2.58805 0.92439,-6.84588 1.17376,-12.14959c0.14758,-3.08683 0.08231,-6.26415 -0.04984,-9.00603l0.00083,0.00354c7.38094,-2.72423 12.52776,6.16989 12.52776,6.16989l0.00257,-0.00008c-4.55741,8.27079 -13.57014,14.75487 -13.57014,14.75487l-0.08496,0.22739v0v0v0v0z" fill="#ee4036" stroke="#000000" stroke-linecap="butt"/><path d="M192.99209,189.09343v0v0v0v0v0v0c-0.03707,-0.08831 -1.13161,-2.57611 -1.13149,-2.5771c-3.06724,-6.65087 -2.16573,-20.70776 -1.28461,-25.01954l0.05578,-0.20484c3.41075,-18.31677 13.23056,-27.08777 18.95401,-31.66383c12.99189,-10.39445 30.48966,-8.68469 30.48966,-8.68469l-0.88757,12.05662c0,0 0.39982,-3.44937 8.17177,-8.5908c7.77016,-5.14166 18.03071,-2.95842 18.03071,-2.95842l-7.38992,14.3198c0,0 3.83182,-4.26822 6.70524,-5.64286c5.09371,-2.43204 8.91603,-0.63148 8.91603,-0.63148l-2.26875,9.17259c0,0 5.87215,9.97566 10.16731,19.19579c0.91983,1.96765 2.0194,3.98066 2.59695,6.20989c2.10112,8.0998 0.81655,21.90397 -3.48138,28.28122c-0.74594,1.13011 -1.54036,2.21864 -2.35653,3.2844c-0.21175,0.27343 -0.42417,0.54496 -0.63881,0.81259c-0.74227,0.93413 -1.50895,1.84515 -2.30495,2.72163c-0.10737,0.11652 -0.2078,0.24208 -0.31519,0.3587c-0.90009,0.97336 -1.83721,1.90206 -2.80308,2.79812c-0.2309,0.21649 -0.47158,0.4235 -0.70682,0.63764c-0.82388,0.73661 -1.67083,1.44665 -2.53358,2.12376c-0.19914,0.1587 -0.39415,0.32056 -0.59428,0.47269c-1.03463,0.78472 -2.10234,1.52244 -3.194,2.21805c-0.24288,0.15231 -0.49011,0.2958 -0.73442,0.44419c-0.91332,0.55808 -1.85069,1.08309 -2.80401,1.57606c-0.275,0.14 -0.54488,0.28972 -0.82122,0.42592c-1.1604,0.56975 -2.34139,1.09328 -3.5519,1.5621c-0.21615,0.08471 -0.44321,0.15434 -0.66168,0.23513c-1.03221,0.38217 -2.08178,0.72125 -3.14851,1.0236c-4.51214,1.27775 -9.31254,1.87555 -14.35268,1.60769c-5.76013,-0.30653 -10.90616,-1.12881 -15.49766,-2.32406c-1.13532,-0.29547 -2.23557,-0.61646 -3.30367,-0.9553c-0.20248,-0.06818 -0.40429,-0.13446 -0.6051,-0.20062c-1.08113,-0.3577 -2.13971,-0.72889 -3.15016,-1.12779c-0.00602,-0.00257 -0.01384,-0.00537 -0.02076,-0.00805c-1.01268,-0.39637 -1.98092,-0.8199 -2.92359,-1.25847c-0.16509,-0.07618 -0.33465,-0.15292 -0.49872,-0.22998c-0.90497,-0.42738 -1.78313,-0.87326 -2.62558,-1.3346c-0.14846,-0.07862 -0.29043,-0.1647 -0.43767,-0.24498c-0.8306,-0.46268 -1.63776,-0.93693 -2.40741,-1.42823c-0.0291,-0.0218 -0.06256,-0.0379 -0.09101,-0.0578c-0.78772,-0.50627 -1.53567,-1.02579 -2.25986,-1.5524c-0.13504,-0.09871 -0.26931,-0.1956 -0.40058,-0.29394c-0.69519,-0.51923 -1.36601,-1.04458 -2.00104,-1.57893c-0.09723,-0.08045 -0.18876,-0.16291 -0.285,-0.24404c-0.60189,-0.51568 -1.18123,-1.03769 -1.73165,-1.56514c-0.05721,-0.05084 -0.12043,-0.10514 -0.1745,-0.16011c-0.5734,-0.55483 -1.1104,-1.11607 -1.62554,-1.67809c-0.1002,-0.10814 -0.19841,-0.21683 -0.29405,-0.3243c-0.50075,-0.56031 -0.97995,-1.11873 -1.42554,-1.6848c-0.05127,-0.06198 -0.09684,-0.12676 -0.14713,-0.18942c-0.41917,-0.53736 -0.81359,-1.07514 -1.18299,-1.60987c-0.05126,-0.0773 -0.11077,-0.15392 -0.16316,-0.22953c-0.37698,-0.56109 -1.17815,-1.88018 -1.23954,-1.98515c-0.31952,-0.55477 -0.62139,-1.10642 -0.88857,-1.65098c-0.0166,-0.03393 -0.0324,-0.06777 -0.04723,-0.10138c-0.25615,-0.52413 -0.48453,-1.03741 -0.69437,-1.54665z" fill="#9a8479" stroke="#000000" stroke-linecap="butt"/><path d="M265.0816,171.30612v0v0v0v0v0v0c0,0 8.26779,13.01893 3.71745,24.87436c-4.5482,11.85198 -23.19449,14.77215 -36.90411,12.10456c-18.12334,-3.52775 -25.1334,-16.23955 -20.72868,-26.97671c4.40889,-10.73664 29.26016,-12.89153 29.26016,-12.89153l-4.97726,7.48651c0,0 3.19508,-0.12397 5.91771,-1.35298c2.72153,-1.22632 5.75222,-2.93758 5.75222,-2.93758l-6.89264,8.04866c0,0 7.65778,0.87327 14.63575,-1.13017c6.97752,-1.99987 10.2194,-7.22512 10.2194,-7.22512z" fill="#e6e7e8" stroke="#000000" stroke-linecap="butt"/><path d="M197.54335,188.04755c-13.24928,-7.30226 -19.8316,-15.75236 -16.73299,-23.37055c3.0996,-7.61886 18.60472,0.4433 18.60472,0.4433c-2.7659,9.95753 -1.87173,22.92725 -1.87173,22.92725zM200.41938,161.72422c0,0 -0.78841,2.23483 -1.00341,3.39619M197.71273,187.95968l0.26085,2.09307" fill="#9a8479" stroke="#000000" stroke-linecap="round"/><path d="M197.63213,187.75413c0,0 -10.56924,-5.30791 -15.34507,-12.68731l0.00279,-0.00055c0,0 7.47116,-8.82065 16.42138,-6.90762l0.00123,-0.00257c-0.47832,2.59028 -0.9221,5.58582 -1.08802,8.47639c-0.29152,4.96863 -0.10864,8.92763 0.08829,11.32721z" fill="#ee4036" stroke="#000000" stroke-linecap="butt"/><path d="M260.5803,190.66375c-0.57767,-0.0726 -1.02382,-0.60599 -1.0363,-1.2795c-0.01244,-0.74526 0.51803,-1.37877 1.18458,-1.41403c0.60594,-0.03028 5.97588,-0.29103 7.87817,0.22268c0.64332,0.17539 1.02424,0.90517 0.85339,1.62741c-0.17559,0.72718 -0.84631,1.16295 -1.48089,1.00227c-1.19738,-0.3196 -5.05045,-0.26552 -7.20683,-0.15464c-0.06555,0.00628 -0.12996,0.00362 -0.19211,-0.00419z" fill="#231f20" stroke="none" stroke-linecap="butt"/><path d="M239.53463,189.29982c-0.08414,-0.01057 -0.16815,-0.0302 -0.25393,-0.0565c-3.02565,-0.98939 -8.55567,-1.06422 -8.61002,-1.06561c-0.73463,-0.01049 -1.345,-0.61823 -1.33825,-1.36653c0.00833,-0.74639 0.62027,-1.34596 1.36874,-1.33737c0.24483,0.00628 5.99749,0.08278 9.42085,1.20037c0.70954,0.23098 1.09924,0.99554 0.86586,1.709c-0.2045,0.62074 -0.82369,0.99577 -1.45324,0.91665z" fill="#231f20" stroke="none" stroke-linecap="butt"/></g><g stroke="#000000"><path d="M219.69481,209.89566c3.25411,-0.44868 3.45003,2.7702 3.45003,2.7702l0.0635,1.04318c-0.70302,1.37519 -0.59638,0.60127 1.44283,-0.00995c0,0 3.21848,-0.76674 3.73721,2.39152c0.51873,3.15827 -2.69974,3.92501 -2.69974,3.92501c-3.07239,0.63485 -5.58148,1.77937 -8.19748,-1.11973c-0.95238,-1.05545 -0.52737,-2.85966 -0.79106,-4.28949l-0.0635,-1.04318c0,0 -0.19592,-3.21888 3.05819,-3.66756z" fill="#9a8479" stroke-linecap="butt"/><g><path d="M228.083,204.1542c2.79613,-0.89269 5.61298,0.59354 6.29159,3.31957c0.67862,2.72603 -1.03797,5.65959 -3.83409,6.55226c-2.79613,0.89269 -5.61298,-0.59354 -6.29159,-3.31957c-0.67862,-2.72603 1.03797,-5.65959 3.83409,-6.55226z" fill="#5c5e5f" stroke-linecap="butt"/><path d="M227.56881,215.36944l-0.51253,2.62845l-1.91353,0.51611l-2.19166,1.74252l-1.24532,-1.87764" fill="#9a8479" stroke-linecap="round"/><path d="M227.83701,210.88894l0.2267,4.24969l-6.36959,4.46469l-4.2164,-1.35517l-1.19111,-3.67166l7.01501,-5.211z" fill="#9a8479" stroke-linecap="round"/><path d="M225.90971,216.29381l-0.32643,-2.39543" fill="none" stroke-linecap="round"/><path d="M222.5988,217.08773l0.33373,1.34062" fill="none" stroke-linecap="round"/><path d="M218.02209,216.04921l1.4928,0.57589l0.36407,1.46249l-1.8521,1.77534l-1.86782,-0.45617l-0.42475,-1.70625z" fill="#5c5e5f" stroke-linecap="round"/></g></g><path d="M228.95064,199.76057c-9.09178,-2.62799 -4.01986,-9.02017 -4.01986,-9.02017c0,0 5.12136,1.01986 15.10104,4.8456c9.82447,3.76624 14.61093,5.65725 14.61093,5.65725c0,0 -23.01713,-0.70947 -25.69211,-1.48268z" fill="#706d6d" stroke="#231f20" stroke-linecap="round"/></g></g></svg>