<svg version="1.1" xmlns="http://www.w3.org/2000/svg" xmlns:xlink="http://www.w3.org/1999/xlink" width="120.55299" height="109.68341" viewBox="0,0,120.55299,109.68341"><g transform="translate(-209.41967,-130.29337)"><g stroke-miterlimit="10"><g fill="#6c87a1" fill-rule="evenodd" stroke="#000000"><path d="M245.84394,217.59639c2.00163,-2.76914 1.20246,-9.83394 2.0513,-10.44483c0.713,-0.55891 2.27486,-1.72873 4.43718,1.59461c2.16232,3.32336 -0.10667,9.62952 -0.44564,10.33163c-1.21998,2.75642 -2.83003,6.09138 -5.91867,9.27626c-8.90941,9.27519 -21.20112,4.67371 -21.51231,0.49928c-0.35356,-4.08669 7.94075,-2.67921 14.85291,-5.75214c3.07402,-1.31879 5.05081,-3.57755 6.53522,-5.50485z" stroke-width="1.2" stroke-linecap="round" stroke-linejoin="round"/><path d="M224.89703,228.39836c0.47337,-1.89841 2.08784,-1.8003 4.9164,-2.38119c3.2026,-0.4377 8.0693,-1.79811 8.0693,-1.79811c0,0 -2.40924,2.92505 -1.70941,5.37658c0.49529,1.9573 2.72192,2.39378 3.4612,2.46881c-1.7664,0.67557 -4.12745,1.43543 -7.82385,1.0602c-3.69644,-0.37522 -7.19998,-2.75627 -6.91361,-4.72627z" stroke-width="0" stroke-linecap="butt" stroke-linejoin="miter"/></g><g fill-rule="nonzero" stroke="#000000" stroke-width="1.2" stroke-linejoin="miter"><path d="M249.25962,188.60176c2.43048,1.12644 3.44644,4.07023 2.26916,6.57512c-0.2674,0.56897 -0.62496,1.06634 -1.04639,1.4821c-0.54338,1.83053 -4.59338,1.54458 -6.01082,2.00519c-5.32985,1.732 -8.88714,1.34408 -14.36087,-1.70411c-2.23683,-1.24565 -3.74937,-3.42566 -2.26916,-6.57512c0.52951,-1.12664 1.15894,-1.86619 1.85645,-2.32273c3.00356,-1.96593 7.26905,1.31668 10.25049,1.53996c1.96881,0.14744 8.52041,-2.85008 9.31116,-1.00041z" fill="#be8b34" stroke-linecap="butt"/><g><path d="M224.83681,183.78253c-2.96738,3.69841 -8.25364,4.33452 -11.80721,1.42078c-3.55357,-2.91375 -4.02877,-8.27397 -1.06141,-11.97239c2.96738,-3.69841 8.25364,-4.33452 11.80721,-1.42077c3.55357,2.91375 4.02877,8.27396 1.06141,11.97239z" fill="#323388" stroke-linecap="butt"/><g stroke-linecap="round"><path d="M227.67451,179.44805l4.63665,-0.19493l1.13563,2.04137l3.34584,2.74341l-1.97802,3.26303z" fill="#be8b34"/><path d="M222.30819,179.48877l6.22598,-1.1122l2.55118,3.20206l1.26564,0.8157l2.2938,2.99102l0.98703,0.36523l1.58538,3.07626l-3.46119,5.37754l-5.96992,2.65439l-9.07041,-9.43564z" fill="#be8b34"/><path d="M229.75337,182.70689l-3.0911,0.12997" fill="none"/><path d="M229.51327,186.72884l3.88577,-0.58858" fill="none"/></g><path d="M234.211,189.91459l2.52995,2.9626l-1.59198,3.57959l-3.73585,0.93354l-1.88651,-2.43503l1.0772,-4.00166z" fill="#323388" stroke-linecap="round"/></g></g><g fill-rule="nonzero" stroke-linejoin="miter"><path d="M223.6731,194.10761c5.37878,1.54074 4.02818,8.02911 4.02818,8.02911c0,0 10.68233,-3.08804 15.73304,-2.92327c-0.17352,-2.74493 0.24957,-5.45429 1.6686,-7.99873c2.0316,-3.64282 8.8004,-7.57454 14.06253,-6.63156c0.32774,-0.0083 0.65681,0.03647 0.96897,0.13604c2.58781,0.27755 5.08963,2.60883 6.49277,4.72625c0.24621,0.31122 0.48721,0.62856 0.72534,0.94556c4.58605,6.10512 2.80698,12.09349 -1.51136,17.78852c-0.43979,0.58002 -1.31265,1.92606 -2.34972,3.13071c2.59445,2.82378 1.09196,7.42538 -0.76809,9.77508c2.17335,2.39774 6.09041,6.16366 6.16347,7.68027c0.10567,2.19345 -5.74322,6.23718 -7.51277,7.34048c-2.71955,1.69561 -7.70079,3.20902 -7.70079,3.20902l-10.2543,-7.57035l3.84364,-21.22014c0,0 -15.24933,1.03824 -24.6364,3.37055c-4.29711,1.06766 -9.68032,1.36043 -10.60607,-2.4197c-0.85572,-3.49416 -2.4051,-12.27919 -1.80715,-15.83053c0,0 8.08133,-3.07804 13.46012,-1.53733z" fill="#a45d97" stroke="#000000" stroke-width="1.2" stroke-linecap="butt"/><path d="M247.69935,202.95712c-1.15331,-3.20382 -2.47301,-6.17688 -0.61647,-9.50579c2.95884,-5.3054 10.39287,-2.14983 12.41083,1.91509c3.25549,6.55778 -8.80841,14.86668 -11.52195,7.97575z" fill="#9f69cd" stroke="none" stroke-width="0.5" stroke-linecap="butt"/><path d="M251.17081,223.73123c4.31718,-4.97699 5.97108,-5.13856 5.97108,-5.13856c0,0 2.56306,-0.12593 5.60478,2.56611" fill="none" stroke="#000000" stroke-width="1.2" stroke-linecap="round"/></g><path d="M265.55724,197.118c0.61295,0.14025 1.20258,0.3363 1.73664,0.57703c0.81428,0.367 1.15315,0.97511 1.15809,1.65668c1.37936,1.22467 0.55737,4.17092 1.09267,5.4161c3.7653,8.7584 -1.93356,8.76031 -11.21963,9.87585c-4.05022,0.48656 -7.66554,0.96655 -11.63196,0.85278c-2.03579,-0.05839 -8.17333,-1.95073 -6.93727,-3.86681c-0.00356,-0.02267 -0.00668,-0.04532 -0.00938,-0.06793c-0.08357,-0.21708 -0.15953,-0.45553 -0.22717,-0.71679c-0.84233,-3.25364 4.01927,-5.82664 8.55177,-5.69664c1.62343,0.04656 4.17333,-0.05423 5.64875,0.45305c0.35231,0.12113 3.79419,0.82836 3.78787,0.69065c-0.11428,-2.49052 -0.89586,-4.69191 0.32091,-6.65447" fill="#a45d97" fill-rule="nonzero" stroke="#000000" stroke-width="1.2" stroke-linecap="butt" stroke-linejoin="miter"/><g><g><g stroke="#000000"><path d="M259.78373,154.33956c0,0 10.98182,-23.95141 11.94354,-23.43805c1.29561,0.69158 18.53412,21.54039 18.53412,21.54039" fill="#c28d30" fill-rule="nonzero" stroke-width="1.2" stroke-linecap="round" stroke-linejoin="miter"/><path d="M306.94538,182.63204l3.58624,18.2844l-5.37568,3.08774l-26.79537,-15.02414z" fill="#a3734b" fill-rule="nonzero" stroke-width="1.2" stroke-linecap="round" stroke-linejoin="miter"/><path d="M240.72966,165.39658c0,0 -6.74294,-2.87282 -9.58609,-7.96158" fill="none" fill-rule="evenodd" stroke-width="1.2" stroke-linecap="round" stroke-linejoin="round"/><path d="M237.89065,170.31824c0,0 -4.46789,0.12529 -10.19584,-2.74336" fill="none" fill-rule="evenodd" stroke-width="1.2" stroke-linecap="round" stroke-linejoin="round"/><path d="M279.92147,154.25443c11.27673,3.11904 34.54748,23.24869 14.98972,42.50779c-0.25497,0.25107 -0.57065,0.44464 -0.8841,0.63797c-11.44762,7.06067 -27.80479,5.6043 -43.97629,-4.85584c-16.17151,-10.46014 -15.81089,-21.4557 -12.30153,-25.8956c3.50938,-4.43992 11.07612,-3.49872 11.07612,-3.49872c0,0 1.97204,-3.83317 7.2826,-7.32691c0,0 7.33787,-6.12568 23.81348,-1.56868z" fill="#c28d30" fill-rule="evenodd" stroke-width="1.2" stroke-linecap="butt" stroke-linejoin="miter"/><path d="M262.44461,174.21276c7.66504,3.7675 22.29908,0.38881 24.14753,12.18854c1.89018,11.71369 -14.95551,19.6526 -35.67307,5.98381c-16.02478,-10.29668 -16.24974,-21.01686 -12.74037,-25.45677c3.50938,-4.43992 10.76246,-3.318 10.76246,-3.318c8.80253,1.65514 6.92742,7.38545 13.50344,10.60242z" fill="#bd8f69" fill-rule="evenodd" stroke-width="0" stroke-linecap="butt" stroke-linejoin="miter"/><path d="M267.69865,175.02947c-0.66766,1.37667 -5.66865,1.90208 -7.28135,1.0333c-1.46597,-0.70534 -1.71102,-3.69507 -1.03256,-4.86095c0.38634,-0.56359 2.54291,0.11586 4.52176,0.92866c1.88463,0.77412 4.38715,1.90519 3.79217,2.89899z" fill="#000000" fill-rule="evenodd" stroke-width="1.2" stroke-linecap="round" stroke-linejoin="round"/><path d="M296.40837,187.61866c-5.55982,2.54121 -12.83528,1.16408 -12.83528,1.16408" fill="none" fill-rule="evenodd" stroke-width="1.2" stroke-linecap="round" stroke-linejoin="round"/><path d="M292.66795,197.67006c-6.45559,-0.82504 -9.97234,-3.37102 -9.97234,-3.37102" fill="none" fill-rule="evenodd" stroke-width="1.2" stroke-linecap="round" stroke-linejoin="round"/><path d="M296.69329,175.19422l-38.68257,-21.18997l12.8848,-17.92034l42.22363,24.19143l1.75252,21.2332l-14.46754,9.35185z" fill="#b6872d" fill-rule="nonzero" stroke-width="1.2" stroke-linecap="round" stroke-linejoin="miter"/><path d="M296.80482,175.03615l16.02949,-14.70567" fill="none" fill-rule="nonzero" stroke-width="0.75" stroke-linecap="round" stroke-linejoin="miter"/><path d="M313.74804,169.84756l-0.50518,-9.05c0,0 15.38404,4.95437 16.11036,5.7586c0.81392,0.90126 -24.19097,15.46504 -24.19097,15.46504z" fill="#c28d30" fill-rule="nonzero" stroke-width="1.2" stroke-linecap="round" stroke-linejoin="miter"/></g><g fill="none" fill-rule="nonzero" stroke="none" stroke-width="1" stroke-linecap="butt" stroke-linejoin="miter" font-family="sans-serif" font-weight="normal" font-size="12" text-anchor="start"><g/><g/><g/></g></g><g fill-rule="nonzero" stroke="#000000" stroke-width="1.2" stroke-linejoin="miter"><path d="M292.33575,187.17456c-4.50994,4.33586 -12.61387,3.97114 -18.10062,-0.81459c-5.48676,-4.78574 -6.27857,-12.18026 -1.76863,-16.51611c4.50994,-4.33586 12.61387,-3.97114 18.1006,0.81461c5.48676,4.78574 6.27857,12.18026 1.76863,16.51612z" fill="#bd8f69" stroke-linecap="butt"/><path d="M273.14698,187.75204c0,0 -4.88003,-3.67176 -5.50533,-10.5286" fill="none" stroke-linecap="round"/><path d="M289.19533,191.0888c-1.86792,0.83996 -4.84087,0.75228 -4.84087,0.75228" fill="none" stroke-linecap="round"/></g><g fill-rule="nonzero" stroke="#000000" stroke-width="1.2" stroke-linejoin="miter"><path d="M262.19599,153.81296c5.04963,1.11444 6.8866,6.31645 4.10295,11.619c-2.78364,5.30257 -9.13377,8.69769 -14.18341,7.58323c-5.04963,-1.11444 -6.8866,-6.31645 -4.10296,-11.619c2.78364,-5.30257 9.13376,-8.69769 14.18341,-7.58324z" fill="#bd8f69" stroke-linecap="butt"/><path d="M261.02253,172.55869c-5.86782,3.2208 -9.8687,1.91939 -9.8687,1.91939" fill="none" stroke-linecap="round"/><path d="M245.60752,169.18532c0,0 -0.6352,-1.93286 -0.28381,-3.62204" fill="none" stroke-linecap="round"/></g></g><path d="M249.22956,178.40311l20.89926,11.08774l-8.28843,14.1895l-17.88591,-13.32271z" fill="#bd8f69" fill-rule="nonzero" stroke="#000000" stroke-width="1.2" stroke-linecap="round" stroke-linejoin="miter"/></g></g></svg>