<svg version="1.1" xmlns="http://www.w3.org/2000/svg" xmlns:xlink="http://www.w3.org/1999/xlink" width="85.30562" height="121.31575" viewBox="0,0,85.30562,121.31575"><g transform="translate(-213.04426,-97.13142)"><g stroke-miterlimit="10"><g fill-rule="evenodd" stroke="#000000"><path d="M259.60697,197.17459c0.71549,-3.37759 -2.86086,-10.00328 -2.33051,-10.88572c0.42703,-0.78591 1.38443,-2.45429 4.70068,0.06016c3.31626,2.51444 3.78078,9.43429 3.75353,10.23383c-0.00568,3.1016 -0.13513,6.89938 -1.67741,11.04925c-4.41332,12.05665 -17.50912,11.71031 -19.47503,7.74103c-1.96933,-3.86935 6.18389,-5.29242 11.26842,-10.62228c2.28048,-2.32366 3.17882,-5.19473 3.76029,-7.5763z" fill="#7e5765" stroke-width="1.2" stroke-linecap="round" stroke-linejoin="round"/><path d="M244.79856,214.78029c-0.33164,-2.01245 1.18454,-2.46107 3.53771,-3.98178c2.75295,-1.50707 6.65634,-4.47582 6.65634,-4.47582c0,0 -1.02552,3.66719 0.60195,5.82388c1.24134,1.7433 3.4537,1.41849 4.1601,1.24245c-1.34353,1.25495 -3.197,2.7927 -6.72904,3.67288c-3.53205,0.88019 -7.69553,-0.26233 -8.22704,-2.2816z" fill="#6f6fca" stroke-width="0" stroke-linecap="butt" stroke-linejoin="miter"/></g><g fill-rule="nonzero" stroke="#000000" stroke-width="1.2" stroke-linejoin="miter"><path d="M251.67461,170.57828c2.32994,-1.48215 5.42028,-0.79487 6.90243,1.53508c0.33667,0.52923 0.56138,1.09768 0.68036,1.67761c1.26125,1.43179 -1.25954,4.74234 -1.66191,6.19729c-1.51302,5.47087 -3.84418,8.30642 -9.52909,11.37418c-2.32314,1.25364 -5.03889,1.39442 -6.90243,-1.53508c-0.66664,-1.04796 -0.94584,-1.97678 -0.94457,-2.81421c0.00546,-3.60613 5.21198,-5.5173 7.07861,-7.94764c1.23263,-1.60489 2.34919,-8.7888 4.3766,-8.48723z" fill="#7e5765" stroke-linecap="butt"/><g><path d="M233.82482,188.90656c1.49758,4.49074 -0.92884,9.34524 -5.41957,10.84283c-4.49074,1.49758 -9.34524,-0.92885 -10.84282,-5.41958c-1.49758,-4.49074 0.92884,-9.34524 5.41958,-10.84282c4.49074,-1.49758 9.34523,0.92884 10.84282,5.41958z" fill="#323388" stroke-linecap="butt"/><g stroke-linecap="round"><path d="M231.70999,184.19052l2.43892,-4.06612l2.38528,0.1081l4.22822,-1.41005l1.68098,3.41503z" fill="#7e5765"/><path d="M228.72903,188.79882l2.54708,-5.90929l4.17415,-0.48846l1.40938,-0.65072l3.84889,-0.37999l0.86728,-0.65064l3.52372,0.27057l2.6571,5.80015l-1.08333,6.5054l-13.17278,2.76652z" fill="#7e5765"/><path d="M235.66733,184.13579l-1.62594,2.71075" fill="none"/><path d="M238.97448,186.4664l1.68003,-3.63233" fill="none"/></g><path d="M244.341,184.1346l3.95728,-0.59685l2.16885,3.25234l-1.30055,3.68648l-3.14416,0.32568l-2.81936,-3.0354z" fill="#323388" stroke-linecap="round"/></g></g><g fill-rule="nonzero" stroke-linejoin="miter"><path d="M229.86829,181.72557c5.54021,-0.30993 6.91813,6.47807 6.91813,6.47807c0,0 8.5268,-6.61587 13.21277,-8.1581c-1.26426,-2.62051 -1.96849,-5.40748 -1.69536,-8.36931c0.39103,-4.24039 4.99855,-10.36008 10.19131,-11.21408c0.29643,-0.11862 0.61544,-0.18587 0.94104,-0.19396c2.47872,-0.6017 5.70593,0.83002 7.84211,2.42348c0.35055,0.22073 0.69877,0.44918 1.04426,0.67828c6.65349,4.41215 7.43811,10.85664 5.78208,17.87102c-0.16866,0.71438 -0.42488,2.32243 -0.88825,3.84785c3.51029,1.88115 3.98937,6.87889 3.23444,9.79937c2.95354,1.60733 8.05302,3.96204 8.73067,5.4176c0.98007,2.10515 -2.74095,8.02397 -3.9151,9.69746c-1.80449,2.5719 -5.75104,5.72861 -5.75104,5.72861l-12.42804,-3.93094l-5.03099,-22.00668c0,0 -13.52956,6.15523 -21.17604,11.59676c-3.50032,2.49096 -8.30612,4.59187 -10.67533,1.21466c-2.18997,-3.12172 -7.14534,-11.17339 -8.02875,-14.84108c0,0 6.15185,-5.72908 11.69206,-6.03903z" fill="#7e5765" stroke="#000000" stroke-width="1.2" stroke-linecap="butt"/><path d="M255.40797,182.26119c-2.34523,-2.73801 -4.7497,-5.1947 -4.39237,-9.06969c0.5695,-6.17571 8.63992,-5.60258 12.12281,-2.3157c5.61881,5.30261 -2.06892,17.47984 -7.3262,11.66934z" fill="#6f6fca" stroke="none" stroke-width="0.5" stroke-linecap="butt"/><path d="M266.95002,201.36597c1.94418,-6.3132 3.39183,-7.02857 3.39183,-7.02857c0,0 2.29357,-0.98715 6.15989,0.61462" fill="none" stroke="#000000" stroke-width="1.2" stroke-linecap="round"/></g><path d="M269.58708,164.2358c0.37719,-0.38816 0.80791,-0.72922 1.26815,-1.00477c0.70169,-0.42012 1.49932,-0.3542 2.25788,0.00244c1.85815,-0.39286 4.83243,1.78487 6.40838,2.03948c11.08504,1.79082 9.02809,6.09019 6.91152,13.68399c-0.92316,3.31213 -1.69648,6.29275 -3.25592,9.22427c-0.80039,1.50462 -5.11906,5.13332 -6.7999,3.18795c-0.02646,-0.0093 -0.05274,-0.01892 -0.07882,-0.02885c-0.27122,-0.05174 -0.56342,-0.12052 -0.87794,-0.20764c-3.91692,-1.08495 -5.0172,-6.11221 -3.23519,-9.46212c0.63826,-1.19985 1.44766,-3.1764 2.544,-4.02101c0.2618,-0.20168 2.29063,-2.42379 2.13545,-2.49183c-2.80656,-1.2306 -5.53319,-1.80503 -7.27262,-3.76044" fill="#7e5765" fill-rule="nonzero" stroke="#000000" stroke-width="1.2" stroke-linecap="butt" stroke-linejoin="miter"/><g><g><g stroke="#000000"><path d="M228.54644,142.09566c0,0 -12.98054,-24.34583 -11.9732,-24.72827c1.35708,-0.51522 28.9782,0.43461 28.9782,0.43461" fill="#7e5765" fill-rule="nonzero" stroke-width="1.2" stroke-linecap="round" stroke-linejoin="miter"/><path d="M280.5061,125.43055l17.19983,9.5439l-0.73851,6.12982l-28.65871,10.17244z" fill="#4a3e7c" fill-rule="nonzero" stroke-width="1.2" stroke-linecap="round" stroke-linejoin="miter"/><path d="M226.02118,163.89818c0,0 -6.46622,3.16828 -12.37691,1.90582" fill="none" fill-rule="evenodd" stroke-width="1.2" stroke-linecap="round" stroke-linejoin="round"/><path d="M228.33375,169.34082c0,0 -2.61842,3.45888 -8.463,5.86325" fill="none" fill-rule="evenodd" stroke-width="1.2" stroke-linecap="round" stroke-linejoin="round"/><path d="M240.74206,126.8271c9.42987,-6.42798 40.13454,-10.51667 44.03822,17.16275c0.05089,0.36086 0.01757,0.72902 -0.01458,1.09536c-1.17417,13.37876 -12.33303,24.75857 -30.77288,29.96447c-18.43986,5.2059 -27.24998,-2.4349 -28.75862,-8.06108c-1.50865,-5.62618 3.87305,-10.71118 3.87305,-10.71118c0,0 -1.94674,-4.05835 -1.5813,-10.41103c0,0 -0.56116,-9.64781 13.21613,-19.03928z" fill="#7e5765" fill-rule="evenodd" stroke-width="1.2" stroke-linecap="butt" stroke-linejoin="miter"/><path d="M246.48741,153.40325c7.7626,-3.26527 13.90127,-16.58357 24.71729,-10.07252c10.77078,6.42186 7.02996,24.46671 -16.8138,30.95637c-18.21625,5.2046 -27.15689,-1.80934 -28.66554,-7.43552c-1.50865,-5.62618 3.83042,-10.35315 3.83042,-10.35315c6.72071,-5.54003 10.28445,-0.28361 16.93164,-3.09517z" fill="#6f6fca" fill-rule="evenodd" stroke-width="0" stroke-linecap="butt" stroke-linejoin="miter"/><path d="M250.35824,149.98179c0.72389,1.42688 -1.89064,5.55658 -3.58637,6.19258c-1.47213,0.63469 -4.07661,-1.1837 -4.62082,-2.47748c-0.22752,-0.6695 1.64398,-1.84321 3.51675,-2.79329c1.78361,-0.90484 4.23671,-2.03722 4.69044,-0.92181z" fill="#000000" fill-rule="evenodd" stroke-width="1.2" stroke-linecap="round" stroke-linejoin="round"/><path d="M278.18331,136.7316c-1.29949,5.90266 -6.86177,10.4755 -6.86177,10.4755" fill="none" fill-rule="evenodd" stroke-width="1.2" stroke-linecap="round" stroke-linejoin="round"/><path d="M284.1595,146.29271c-4.60951,4.32349 -8.84233,5.27382 -8.84233,5.27382" fill="none" fill-rule="evenodd" stroke-width="1.2" stroke-linecap="round" stroke-linejoin="round"/><path d="M268.15364,128.19042l-40.96249,15.01982l-6.86864,-21.74171l45.58415,-15.68327l18.50455,12.9051l-1.132,17.1953z" fill="#5d4262" fill-rule="nonzero" stroke-width="1.2" stroke-linecap="round" stroke-linejoin="miter"/><path d="M268.09178,128.00026l-2.31331,-21.96289" fill="none" fill-rule="nonzero" stroke-width="0.75" stroke-linecap="round" stroke-linejoin="miter"/><path d="M274.15061,111.7248l-7.73973,-5.68303c0,0 13.43878,-8.30065 14.54161,-8.31034c1.23588,-0.01086 -2.03409,28.63673 -2.03409,28.63673z" fill="#7e5765" fill-rule="nonzero" stroke-width="1.2" stroke-linecap="round" stroke-linejoin="miter"/></g><g fill="none" fill-rule="nonzero" stroke="none" stroke-width="1" stroke-linecap="butt" stroke-linejoin="miter" font-family="sans-serif" font-weight="normal" font-size="12" text-anchor="start"><g/><g/><g/></g></g><g fill-rule="nonzero" stroke="#000000" stroke-width="1.2" stroke-linejoin="miter"><path d="M275.33805,139.51033c0.81376,6.31226 -4.42171,12.18934 -11.69372,13.12683c-7.27202,0.93749 -13.82684,-3.41964 -14.6406,-9.7319c-0.81376,-6.31226 4.42171,-12.18935 11.69373,-13.12683c7.27202,-0.93749 13.82684,3.41964 14.6406,9.73191z" fill="#6f6fca" stroke-linecap="butt"/><path d="M264.12475,154.392c0,0 -5.98766,1.2257 -11.9995,-2.89691" fill="none" stroke-linecap="round"/><path d="M276.63973,144.50555c-0.44793,1.97385 -2.3307,4.16079 -2.3307,4.16079" fill="none" stroke-linecap="round"/></g><g fill-rule="nonzero" stroke="#000000" stroke-width="1.2" stroke-linejoin="miter"><path d="M229.58324,139.92061c3.99085,-3.06754 9.38169,-0.96913 12.04079,4.68694c2.6591,5.65607 1.5795,12.72796 -2.41135,15.79549c-3.99085,3.06754 -9.3817,0.96913 -12.0408,-4.68694c-2.6591,-5.65607 -1.5795,-12.72795 2.41135,-15.79549z" fill="#6f6fca" stroke-linecap="butt"/><path d="M244.26288,153.36901c-0.92899,6.59073 -4.43461,8.74079 -4.43461,8.74079" fill="none" stroke-linecap="round"/><path d="M232.10359,162.75251c0,0 -1.97419,-0.81545 -3.14734,-2.21284" fill="none" stroke-linecap="round"/></g></g><path d="M241.87954,166.1936l21.83485,-8.35655l6.60437,15.76961l-21.83486,4.58263z" fill="#6f6fca" fill-rule="nonzero" stroke="#000000" stroke-width="1.2" stroke-linecap="round" stroke-linejoin="miter"/></g></g></svg>