<svg version="1.1" xmlns="http://www.w3.org/2000/svg" xmlns:xlink="http://www.w3.org/1999/xlink" width="95.34703" height="130.6652" viewBox="0,0,95.34703,130.6652"><g transform="translate(-195.46241,-109.95614)"><g data-paper-data="{&quot;isPaintingLayer&quot;:true}" stroke-miterlimit="10" stroke-dasharray="" stroke-dashoffset="0" style="mix-blend-mode: normal"><g fill-rule="evenodd"><path d="M247.42188,205.92663c1.19378,2.12424 2.82433,4.63368 5.65073,6.25996c6.3411,3.76837 14.6255,3.0041 13.7386,7.21454c-0.85716,4.30504 -13.46764,8.04775 -20.93655,-2.32333c-2.59331,-3.56365 -3.72316,-7.15894 -4.54886,-10.12122c-0.23786,-0.75691 -1.6172,-7.49024 0.93443,-10.7569c2.55162,-3.26666 3.92143,-1.92185 4.54345,-1.28213c0.74777,0.70505 -0.96894,7.96802 0.6182,11.0091z" fill="#ffab19" stroke="#001026" stroke-width="1.2" stroke-linecap="round" stroke-linejoin="round"/><path d="M266.44072,218.89203c0.01844,2.06801 -3.71773,4.24443 -7.37635,4.32354c-3.6586,0.07911 -5.86297,-0.90743 -7.49798,-1.75659c0.73171,-0.01582 2.96345,-0.28181 3.70646,-2.27103c1.00821,-2.48484 -0.95624,-5.72188 -0.95624,-5.72188c0,0 4.5711,1.8199 7.63981,2.54279c2.68456,0.84008 4.27379,0.87376 4.48429,2.88317z" fill="#ffffff" stroke="none" stroke-width="1" stroke-linecap="butt" stroke-linejoin="miter"/></g><path d="M234.22547,177.39471c2.70213,-0.62735 5.40888,1.02213 6.04567,3.68423c0.14465,0.60467 0.17004,1.20957 0.09125,1.79076c0.72403,1.75005 -2.76383,4.02541 -3.62691,5.25521c-3.24538,4.62426 -6.39615,6.51711 -12.80778,7.53468c-2.62011,0.41584 -5.24502,-0.33713 -6.04567,-3.68423c-1.51978,-6.35342 6.2081,-6.01601 9.38202,-8.06785c1.70092,-1.09959 5.13629,-7.45527 6.96141,-6.5128z" fill="#ffab19" fill-rule="nonzero" stroke="#000000" stroke-width="1.2" stroke-linecap="butt" stroke-linejoin="miter"/><path d="M245.55094,232.58398c0,0 1.55909,-2.68986 12.26511,-2.57514" fill="none" fill-rule="nonzero" stroke="#001026" stroke-width="1.2" stroke-linecap="round" stroke-linejoin="miter"/><g fill-rule="nonzero" stroke-linecap="round" stroke-linejoin="miter"><path d="M252.4995,197.2175l6.652,31.59331c0,0 4.78684,1.43587 5.47812,4.07656c0.69128,2.64069 -2.54341,7.13397 -2.54341,7.13397h-17.0213l-2.73906,-3.26124l-3.13035,-12.22967l-0.58695,-25.88613l-2.93471,26.29378l-9.19541,11.21053l-8.99977,0.61149l-4.10859,-1.22297c0,0 -4.61037,-5.48827 -2.54341,-7.94929c2.06696,-2.46102 10.76059,-1.83445 10.76059,-1.83445l8.60848,-31.18565c0,0 1.54393,-5.58551 2.49847,-11.49088c0.77074,-4.76825 0.71403,-10.11175 2.0014,-10.93018c5.17503,-3.28987 17.61366,-4.39716 20.15165,3.87273c0.74537,2.42874 -0.39899,6.81129 -1.03937,10.96371c-0.81811,5.30497 -1.30841,10.23437 -1.30841,10.23437z" fill="#ff7e19" stroke="#001026" stroke-width="1.2"/><path d="M241.40208,199.22066c0,0 -3.16123,-0.13994 -4.45884,-1.54843" fill="none" stroke="#001026" stroke-width="1.2"/><path d="M239.37405,192.15917c-3.66697,-0.70368 -3.41767,-5.27735 -3.01857,-9.66191c0.44766,-4.91801 1.20482,-10.14343 5.33487,-9.49073c4.53082,0.71604 4.62814,5.85301 4.0675,11.23869c0,0 -1.09938,8.92802 -6.3838,7.91396z" fill="#ffffff" stroke="#000000" stroke-width="0"/><path d="M247.33951,231.29834c0,0 1.51706,-2.76781 11.93448,-2.64977" fill="none" stroke="#001026" stroke-width="1.2"/></g><g><g><path d="M220.72736,135.21556c0,0 -2.63733,-24.81161 -1.56527,-24.65872c1.44428,0.20598 28.36423,11.79175 28.36423,11.79175" fill="#ff7e19" fill-rule="nonzero" stroke="#001026" stroke-width="1.2" stroke-linecap="round" stroke-linejoin="miter"/><path d="M274.53239,145.75348l10.46416,16.53113l-3.63935,4.95371l-30.15492,-4.96296z" fill="#9c6041" fill-rule="nonzero" stroke="#001026" stroke-width="1.2" stroke-linecap="round" stroke-linejoin="miter"/><path d="M196.06241,151.86114c4.91245,-1.19694 11.80973,1.02255 11.80973,1.02255" fill="none" fill-rule="evenodd" stroke="#001026" stroke-width="1.2" stroke-linecap="round" stroke-linejoin="round"/><path d="M197.28291,162.33921c5.53495,-2.98515 9.96719,-3.63065 9.96719,-3.63065" fill="none" fill-rule="evenodd" stroke="#001026" stroke-width="1.2" stroke-linecap="round" stroke-linejoin="round"/><path d="M238.89611,127.85337c11.42503,-1.03511 40.4108,10.17984 30.34026,36.02716c-0.1313,0.33698 -0.34018,0.63979 -0.54714,0.94161c-7.55837,11.02219 -22.91881,15.51482 -41.66803,11.16158c-18.74923,-4.35324 -22.76666,-15.20435 -21.34838,-20.80183c1.41828,-5.59749 8.62961,-7.41496 8.62961,-7.41496c0,0 0.26838,-4.45022 3.68848,-9.77622c0,0 4.21294,-8.62502 20.90522,-10.13734z" fill="#ff7e19" fill-rule="evenodd" stroke="#001026" stroke-width="1.2" stroke-linecap="butt" stroke-linejoin="miter"/><path d="M230.98269,153.63028c8.41661,0.90266 20.3096,-7.68134 26.64143,3.15535c6.33557,10.73772 -5.75519,24.56741 -29.881,18.72897c-18.55203,-4.24691 -22.98998,-14.61785 -21.57171,-20.21533c1.41828,-5.59749 8.41748,-7.12537 8.41748,-7.12537c8.61038,-1.56806 9.179,4.69681 16.39378,5.45639z" fill="#ffffff" fill-rule="evenodd" stroke="none" stroke-width="1" stroke-linecap="butt" stroke-linejoin="miter"/><path d="M236.05439,152.5274c-0.0597,1.58361 -4.3725,3.9036 -6.1734,3.63947c-1.6037,-0.1578 -3.00618,-2.98425 -2.85347,-4.36623c0.12659,-0.68916 2.34427,-0.80623 4.45401,-0.72902c2.00929,0.07353 4.71809,0.27176 4.57284,1.45579z" fill="#001026" fill-rule="evenodd" stroke="#001026" stroke-width="1.2" stroke-linecap="round" stroke-linejoin="round"/><path d="M255.83592,160.19886c0,0 5.56894,-2.92462 11.36352,-2.93623" fill="none" fill-rule="evenodd" stroke="#001026" stroke-width="1.2" stroke-linecap="round" stroke-linejoin="round"/><path d="M267.56732,165.57654c-6.16105,1.52908 -10.34555,0.31791 -10.34555,0.31791" fill="none" fill-rule="evenodd" stroke="#001026" stroke-width="1.2" stroke-linecap="round" stroke-linejoin="round"/><path d="M262.32753,142.20735l-43.33526,-6.67785l4.56773,-22.12994l47.72163,8.32434l9.97148,20.06906l-9.38304,14.3477z" fill="#c46a00" fill-rule="nonzero" stroke="#001026" stroke-width="1.2" stroke-linecap="round" stroke-linejoin="miter"/><path d="M262.36592,142.01294l8.68005,-20.13232" fill="none" fill-rule="nonzero" stroke="#001026" stroke-width="0.75" stroke-linecap="round" stroke-linejoin="miter"/><path d="M275.63123,130.82956l-4.0315,-8.6412c0,0 17.63553,2.4355 18.60971,2.95709c1.09172,0.58452 -17.53012,20.65703 -17.53012,20.65703z" fill="#ff7e19" fill-rule="nonzero" stroke="#001026" stroke-width="1.2" stroke-linecap="round" stroke-linejoin="miter"/></g><g fill-rule="nonzero" stroke-linejoin="miter" text-anchor="start"><g fill="none" stroke="none" stroke-width="1" stroke-linecap="butt" font-family="sans-serif" font-weight="normal" font-size="12"/><g fill="none" stroke="none" stroke-width="1" stroke-linecap="butt" font-family="sans-serif" font-weight="normal" font-size="12"/><g fill="#ffffff" stroke="#001026" stroke-width="1.2" stroke-linecap="round" font-family="&quot;Helvetica Neue&quot;, Helvetica, Arial, sans-serif" font-weight="400" font-size="16"/></g></g><path d="M234.08578,184.55285c-0.03034,1.44313 0.58824,3.07727 0.16659,4.40522c-0.0643,0.20251 -0.15281,0.39792 -0.27149,0.58444c-1.41123,2.21778 -7.74026,5.68218 -9.18749,6.11741c-3.12618,0.94012 -7.23452,-1.49916 -7.21669,-4.95547c0.01931,-3.74404 5.50747,-5.59953 7.83225,-6.91162c1.10427,-0.62325 3.13026,-2.61439 4.43157,-1.82268z" fill="#ff7e19" fill-rule="nonzero" stroke="#000000" stroke-width="1.2" stroke-linecap="butt" stroke-linejoin="miter"/><path d="M255.31005,173.15114c1.10287,0.73818 1.46285,1.32264 1.72686,2.01757c0.16518,0.34007 0.29212,0.7016 0.37534,1.07919c0.0559,0.15134 0.11828,0.30999 0.1907,0.47741c0.22714,0.52508 0.23953,2.16881 0.47476,1.64721c1.73447,-3.84612 2.92649,-13.69226 9.87013,-10.27189c1.51033,0.74398 2.27602,2.57432 2.81,4.15254c0.52854,1.56212 -2.24847,6.49094 -2.86778,8.0224c-1.31092,3.24164 -1.21899,9.4726 -4.65091,11.7233c-7.48049,4.90581 -13.8263,-6.31716 -15.20127,-12.41285c-0.36066,-0.683 -0.56451,-1.45921 -0.56451,-2.28233c0,-2.73501 2.25053,-4.95219 5.02668,-4.95219c0.44684,0 0.88007,0.05745 1.29249,0.16523c0.53601,0.11365 1.05078,0.32202 1.51751,0.63441z" fill="#ff7e19" fill-rule="nonzero" stroke="#000000" stroke-width="1.2" stroke-linecap="butt" stroke-linejoin="miter"/><g fill-rule="nonzero" stroke-linejoin="miter"><path d="M273.28439,163.96297c0,0 3.91553,7.51824 -1.09279,11.68774c-4.22813,3.51998 -12.9668,3.41148 -12.9668,3.41148c0,0 -4.35013,1.68954 -5.76017,-1.96542c-1.86835,-4.84298 3.06423,-5.72508 3.06423,-5.72508l-1.18044,-2.14791c0,0 -6.10965,-6.62382 -1.86669,-10.61923c1.58209,-1.4898 5.56127,-0.48003 5.56127,-0.48003c0,0 1.87855,-1.68659 3.77837,-2.34898c1.44862,-0.50508 4.36389,1.25923 4.36389,1.25923c0,0 2.07886,-1.65918 4.23298,0.26646c3.16157,2.82623 1.86616,6.66175 1.86616,6.66175z" fill="#ff7e19" stroke="#001026" stroke-width="1.2" stroke-linecap="round"/><path d="M261.87265,163.97822l-1.47342,-3.68342" fill="none" stroke="#001026" stroke-width="1.2" stroke-linecap="round"/><path d="M269.18178,160.73182l-0.9087,-1.2734" fill="none" stroke="#001026" stroke-width="1.2" stroke-linecap="round"/><path d="M260.30304,162.33564c0.97396,2.05593 0.69124,4.22526 -0.63147,4.84534c-1.32271,0.62007 -3.18452,-0.54392 -4.15848,-2.59985c-0.97395,-2.05593 -0.69124,-4.22526 0.63147,-4.84534c1.32271,-0.62007 3.18452,0.54392 4.15848,2.59985z" fill="#ffffff" stroke="none" stroke-width="0" stroke-linecap="butt"/><path d="M267.13326,160.25814c0.57706,1.72523 0.06071,3.44956 -1.1533,3.85139c-1.214,0.40183 -2.66596,-0.671 -3.24301,-2.39623c-0.57706,-1.72523 -0.06071,-3.44956 1.1533,-3.85139c1.214,-0.40183 2.66596,0.671 3.24301,2.39623z" fill="#ffffff" stroke="none" stroke-width="0" stroke-linecap="butt"/><path d="M272.04029,159.91819c0.59819,1.42634 0.60451,2.78126 0.0141,3.02628c-0.5904,0.24502 -1.55395,-0.71262 -2.15214,-2.13896c-0.59819,-1.42634 -0.60451,-2.78126 -0.0141,-3.02628c0.5904,-0.24502 1.55395,0.71262 2.15214,2.13896z" fill="#ffffff" stroke="none" stroke-width="0" stroke-linecap="butt"/><path d="M258.9838,178.27485c-1.13653,0.34427 -2.45712,-0.68096 -2.94961,-2.28988c-0.49248,-1.60893 0.02962,-3.1923 1.16616,-3.53656c1.13653,-0.34427 2.91999,5.48218 1.78345,5.82644z" fill="#ffffff" stroke="none" stroke-width="0" stroke-linecap="butt"/><path d="M273.22503,168.85499c1.00078,3.26953 -1.07289,4.80534 -4.2303,6.19392c-3.15741,1.38857 -6.20292,2.10407 -7.20371,-1.16546c-0.49348,-1.61218 1.9544,-2.39707 2.6371,-3.90862c0.70182,-1.5539 -0.3327,-3.82174 1.26782,-4.52562c1.8718,-0.82318 2.48094,1.48255 3.96451,2.46365c1.01897,0.67386 3.15708,-0.38914 3.56457,0.94212z" fill="#ffffff" stroke="none" stroke-width="0" stroke-linecap="butt"/></g><path d="M251.82606,153.25621c-0.25912,0.6637 -2.19158,0.5491 -4.3163,-0.25599c-2.12472,-0.80509 -3.63709,-1.99578 -3.37797,-2.65948c0.25912,-0.6637 2.19158,-0.5491 4.3163,0.25599c2.12472,0.80509 3.63709,1.99578 3.37797,2.65948z" fill="#000000" fill-rule="nonzero" stroke="#000000" stroke-width="1.2" stroke-linecap="butt" stroke-linejoin="miter"/><path d="M222.2987,146.64974c0.10536,0.70349 -1.63491,1.53915 -3.88697,1.8665c-2.25206,0.32735 -4.16314,0.02242 -4.2685,-0.68106c-0.10536,-0.70349 1.63491,-1.53915 3.88697,-1.8665c2.25206,-0.32735 4.16314,-0.02242 4.2685,0.68106z" fill="#000000" fill-rule="nonzero" stroke="#000000" stroke-width="1.2" stroke-linecap="butt" stroke-linejoin="miter"/><path d="M222.5439,160.37202l18.91469,-0.15484l0.77999,21.52318l-17.35472,0.46452z" fill="#ffffff" fill-rule="nonzero" stroke="#000000" stroke-width="1.2" stroke-linecap="round" stroke-linejoin="miter"/><g fill-rule="nonzero" stroke="#000000" stroke-width="1.2" stroke-linejoin="miter"><path d="M232.18142,180.74942c-4.75257,-0.24607 -8.40282,-4.24117 -8.15305,-8.9233c0.24978,-4.68213 4.30498,-8.27828 9.05755,-8.03221c4.75257,0.24607 8.40282,4.24117 8.15304,8.92331c-0.24978,4.68213 -4.30497,8.27827 -9.05755,8.03221z" fill="#5c5e5f" stroke-linecap="butt"/><g stroke-linecap="round"><path d="M237.37174,180.5081l2.90797,3.72106l-0.97811,2.15967l-0.23517,4.40844l-3.81346,0.31262z" fill="#ff7e19"/><path d="M234.15575,176.09099l4.59284,4.48838l-1.07761,4.02477l0.0907,1.53491l-1.05952,3.68566l0.28994,1.03516l-1.5487,3.15026l-6.40409,0.34852l-5.68879,-3.35496l2.25446,-13.14511z" fill="#ff7e19"/><path d="M234.02936,181.69522l1.93865,2.4807" fill="none"/><path d="M232.57136,186.38038l2.78108,2.86436" fill="none"/></g><path d="M232.78016,192.172l-0.89647,3.86412l-3.8406,0.82129l-2.97127,-2.53416l0.85124,-3.01636l3.87678,-1.49951z" fill="#5c5e5f" stroke-linecap="round"/></g></g></g></svg>