<svg version="1.1" xmlns="http://www.w3.org/2000/svg" xmlns:xlink="http://www.w3.org/1999/xlink" width="114.08533" height="117.59111" viewBox="0,0,114.08533,117.59111"><g transform="translate(-185.34795,-120.64434)"><g stroke-width="1.2" stroke-miterlimit="10"><g fill="#9a8479" stroke="#000000" stroke-linecap="butt"><path d="M249.21227,226.35803c-2.68829,0 -2.64304,-3.13272 -2.64304,-3.13272l0.83404,-3.23043c0.42303,-0.4487 1.12851,-1.6199 1.95566,-2.18278c-0.49684,-0.58909 -0.89931,-1.28951 -1.36529,-1.915c0,0 -1.7362,-2.35762 0.31675,-4.42052c2.05295,-2.06292 3.78915,0.2947 3.78915,0.2947c2.44836,3.3741 6.85294,5.05936 2.86947,10.25878c-0.6653,0.86837 -1.37228,1.29236 -2.60921,2.13637c-1.3178,0.89918 -3.1475,2.19161 -3.1475,2.19161z"/><path d="M250.05623,225.38004c0,0 0.52938,5.0652 0.83502,6.91653c0.3093,1.85123 0.71613,3.57355 0.71613,3.57355c0,0 0.71653,0.33843 0.47615,1.06476c-0.23878,0.72995 -2.73435,0.6946 -5.87658,0.85544c-3.143,0.16173 -5.67305,-0.35087 -6.13853,-1.12225c-0.46416,-0.76267 0.47702,-1.0339 0.47702,-1.0339c0,0 1.20336,-5.01221 0.4055,-7.29474c-1.06369,-3.04421 0.37733,-3.83686 4.11947,-5.29227v0v0v0v0v0v0c3.74213,-1.45541 4.98581,2.33287 4.98581,2.33287z"/><path d="M238.24269,209.58003v0v0v0v0v0v0c8.28501,-0.60437 11.38088,3.92698 11.37905,3.92611c0.65672,1.17039 1.46946,2.82176 1.79511,4.32961c0.08975,0.41651 0.142,0.88516 0.14943,1.38784c0,0 -0.07403,1.74604 -0.26142,2.27908c-0.78594,2.2331 -2.04864,4.67749 -5.0002,5.78271c-4.63412,1.74256 -9.53669,1.52867 -14.601,-0.76091c-1.7091,-0.77046 -2.70926,-2.0835 -3.23777,-3.57824c-0.37702,-1.07573 -0.5244,-2.47832 -0.5244,-2.47832c-0.20776,-2.33306 0.25731,-4.6105 0.50195,-5.60092c0,0 1.51527,-4.6827 9.79926,-5.28697z"/><path d="M239.06449,227.92012c-0.05009,0.32071 -0.11039,0.52004 -0.11039,0.52004c0,0 -0.79353,3.13397 -0.87978,4.83566c-0.08726,1.70179 -0.03474,2.40526 -0.03474,2.40526c0,0 0.53172,0.05735 0.3786,0.7052c-0.14945,0.64872 -1.77754,1.35218 -6.31672,1.23661c-4.54085,-0.12087 -5.38833,-1.09047 -5.38669,-1.58612c-0.0003,-0.49564 1.00772,-0.99833 1.00772,-0.99833c0,0 0.58567,-3.16954 1.37925,-5.92528c0.45073,-1.56265 1.1404,-3.08986 1.65341,-4.11992"/></g><g><path d="M283.4927,165.1369c0,0 12.68558,-10.46177 14.87159,-2.6257c2.1861,7.83599 -3.38919,17.68376 -14.24507,27.06846c0,0 1.20529,-14.05168 -0.62652,-24.44276zM283.4927,165.1369c-0.12832,-1.22299 -0.6727,-3.53728 -0.6727,-3.53728M283.70008,191.78657l0.28722,-2.28021" fill="#9a8479" stroke="#000000" stroke-linecap="round"/><path d="M283.98735,189.50547c0.24795,-2.60451 0.54392,-6.88378 0.49926,-12.19339c-0.02356,-3.09039 -0.26466,-6.26045 -0.54841,-8.99226l0.00103,0.00349c7.21879,-3.09179 12.85016,5.53255 12.85016,5.53255l0.00256,-0.00021c-4.09248,8.48949 -12.73237,15.41844 -12.73237,15.41844l-0.07223,0.23138v0v0z" fill="#ee4036" stroke="#000000" stroke-linecap="butt"/><path d="M200.02265,192.67637v0v0v0v0v0v0c-0.04192,-0.08633 -1.27251,-2.51601 -1.27244,-2.517c-3.43078,-6.48839 -3.30896,-20.57301 -2.66794,-24.92369l0.04435,-0.20739c2.39135,-18.46527 11.71047,-27.71883 17.17178,-32.57683c12.39643,-11.03441 29.96202,-10.20621 29.96202,-10.20621l-0.21867,12.08615c0,0 0.20823,-3.46514 7.68358,-8.99076c7.47355,-5.52576 17.83925,-3.86093 17.83925,-3.86093l-6.58572,14.6733c0,0 3.58961,-4.45545 6.38252,-5.9728c4.95124,-2.685 8.86739,-1.0788 8.86739,-1.0788l-1.7574,9.27515c0,0 6.41548,9.66805 11.21455,18.66078c1.02736,1.91896 2.23671,3.8742 2.93679,6.0716c2.54637,7.98408 2.02807,21.83553 -1.91016,28.42083c-0.68222,1.16619 -1.41516,2.29329 -2.17106,3.39873c-0.19629,0.28374 -0.39334,0.5656 -0.59284,0.84368c-0.68941,0.97027 -1.40447,1.91868 -2.15073,2.83408c-0.10076,0.12177 -0.19409,0.25222 -0.29485,0.37409c-0.84482,1.01739 -1.72907,1.99202 -2.64385,2.9355c-0.21856,0.22783 -0.44742,0.44668 -0.67043,0.67236c-0.78183,0.77711 -1.58816,1.52882 -2.41211,2.24845c-0.19005,0.16852 -0.37579,0.33997 -0.5672,0.50196c-0.98959,0.83574 -2.01483,1.62619 -3.06629,2.3758c-0.23408,0.16431 -0.47298,0.32006 -0.7087,0.48054c-0.88102,0.60327 -1.78788,1.17475 -2.71244,1.71502c-0.26683,0.15365 -0.528,0.31674 -0.79637,0.46666c-1.12707,0.62736 -2.27727,1.20959 -3.45997,1.73866c-0.21113,0.09547 -0.43398,0.17642 -0.64765,0.26809c-1.00946,0.43357 -2.03865,0.82498 -3.08701,1.18056c-4.43447,1.50293 -9.19441,2.34124 -14.24165,2.32703c-5.76827,-0.01666 -10.95193,-0.57926 -15.60256,-1.54226c-1.14994,-0.23804 -2.26629,-0.50333 -3.35149,-0.78806c-0.20595,-0.05791 -0.41112,-0.11397 -0.61529,-0.16995c-1.09929,-0.30292 -2.17679,-0.62044 -3.20777,-0.96806c-0.00617,-0.00226 -0.01411,-0.00467 -0.02117,-0.00701c-1.03308,-0.34497 -2.02329,-0.71931 -2.98879,-1.10995c-0.16906,-0.0678 -0.34259,-0.13591 -0.51068,-0.20463c-0.92725,-0.38135 -1.82875,-0.78255 -2.69545,-1.20097c-0.15258,-0.07107 -0.2991,-0.1499 -0.45057,-0.22269c-0.85493,-0.42035 -1.68711,-0.85344 -2.48279,-1.30546c-0.03027,-0.0203 -0.06457,-0.0347 -0.09406,-0.05315c-0.81454,-0.46605 -1.59012,-0.94733 -2.34236,-1.43688c-0.1403,-0.0918 -0.27973,-0.18183 -0.41623,-0.27344c-0.72286,-0.48365 -1.42175,-0.97463 -2.08539,-1.47639c-0.10153,-0.07547 -0.19749,-0.15322 -0.29807,-0.22942c-0.62952,-0.48478 -1.23687,-0.97702 -1.81566,-1.47614c-0.05993,-0.04789 -0.12607,-0.09896 -0.18309,-0.15114c-0.60324,-0.52532 -1.17049,-1.05887 -1.71597,-1.59429c-0.10603,-0.10297 -0.21011,-0.20659 -0.31156,-0.30911c-0.531,-0.53444 -1.04038,-1.06806 -1.51664,-1.61105c-0.05462,-0.05932 -0.10371,-0.12174 -0.15739,-0.18179c-0.44828,-0.51562 -0.87186,-1.0329 -1.27031,-1.5484c-0.05546,-0.07461 -0.11913,-0.14816 -0.17561,-0.22105c-0.40747,-0.54144 -1.28045,-1.81861 -1.34756,-1.92038c-0.34975,-0.53802 -0.68169,-1.0738 -0.97862,-1.60426c-0.01845,-0.03306 -0.03611,-0.06605 -0.05277,-0.09888c-0.28477,-0.51061 -0.54122,-1.01177 -0.77894,-1.50983z" fill="#9a8479" stroke="#000000" stroke-linecap="butt"/><path d="M273.66493,170.98847v0v0v0v0v0v0c0,0 8.97595,12.58711 5.08901,24.65642c-3.885,12.06574 -22.34099,15.9194 -36.17729,13.94418c-18.29086,-2.61248 -25.99399,-14.95606 -22.19054,-25.90118c3.80766,-10.9448 28.50149,-14.34599 28.50149,-14.34599l-4.55511,7.7273c0,0 3.18332,-0.2844 5.83372,-1.6487c2.64946,-1.36156 5.58075,-3.223 5.58075,-3.223l-6.43643,8.38501c0,0 7.69439,0.4873 14.55073,-1.86433c6.85609,-2.34806 9.80368,-7.72969 9.80368,-7.72969z" fill="#e6e7e8" stroke="#000000" stroke-linecap="butt"/><path d="M204.50901,191.40304c-13.63326,-6.62722 -20.67335,-14.73594 -18.00131,-22.50034c2.673,-7.76513 18.60072,-0.49231 18.60072,-0.49231c-2.21033,10.08409 -0.59942,22.99264 -0.59942,22.99264zM205.92315,164.96808c0,0 -0.66347,2.27166 -0.81382,3.44238M204.67327,191.30677l0.37634,2.07733" fill="#9a8479" stroke="#000000" stroke-linecap="round"/><path d="M204.58142,191.10552c0,0 -10.84692,-4.77009 -16.024,-11.90022l0.00276,-0.00069c0,0 6.97133,-9.18512 16.01373,-7.72429l0.00108,-0.00262c-0.33417,2.61107 -0.6114,5.62518 -0.61703,8.52047c-0.01597,4.97707 0.38583,8.92192 0.71532,11.3086z" fill="#ee4036" stroke="#000000" stroke-linecap="butt"/><path d="M266.60105,190.96018c-0.58081,-0.04347 -1.0558,-0.55378 -1.10555,-1.22583c-0.05368,-0.74371 0.44089,-1.40307 1.10447,-1.47179c0.60334,-0.06069 5.9506,-0.59101 7.87841,-0.17355c0.65204,0.14284 1.07279,0.85258 0.94219,1.58248c-0.13506,0.73509 -0.78061,1.20403 -1.42313,1.07544c-1.21325,-0.25902 -5.0574,-0.01135 -7.20434,0.20776c-0.0651,0.00957 -0.12955,0.01015 -0.19205,0.00547z" fill="#231f20" stroke="none" stroke-linecap="butt"/><path d="M245.51214,190.65568c-0.0846,-0.00633 -0.16956,-0.02172 -0.25667,-0.04367c-3.07578,-0.83609 -8.60147,-0.6329 -8.65582,-0.63155c-0.73408,0.02644 -1.37718,-0.54987 -1.41187,-1.29756c-0.03301,-0.74587 0.5448,-1.37544 1.29259,-1.40449c0.24481,-0.00604 5.99287,-0.21874 9.47286,0.72538c0.72123,0.19503 1.15267,0.93904 0.95915,1.66334c-0.16981,0.63025 -0.76729,1.03592 -1.40026,0.98854z" fill="#231f20" stroke="none" stroke-linecap="butt"/><path d="M263.72475,199.49309c0,0 -4.79222,3.80005 -12.69774,1.66422c-7.90368,-2.13534 -9.19082,-5.83164 -9.19082,-5.83164" fill="none" stroke="#231f20" stroke-linecap="round"/></g><g stroke="#000000"><path d="M217.97778,221.10701c1.00821,-3.14351 4.10367,-2.31835 4.10367,-2.31835l1.00318,0.26741c0.97729,1.07861 0.3005,0.73832 0.62373,-1.33473c0,0 0.69521,-3.21002 3.87561,-2.70175c3.18041,0.50827 2.48521,3.71829 2.48521,3.71829c-0.75443,3.03397 -0.7852,5.70734 -4.64346,7.21567c-1.40465,0.54912 -2.90502,-0.40697 -4.35753,-0.61047l-1.00318,-0.26741c0,0 -3.09545,-0.82515 -2.08723,-3.96866z" fill="#9a8479" stroke-linecap="butt"/><g><path d="M216.29003,211.57107c0.39216,-2.85959 3.01757,-4.99483 5.86402,-4.7692c2.84645,0.22563 4.83604,2.72669 4.44388,5.58628c-0.39216,2.85959 -3.01757,4.99483 -5.86402,4.7692c-2.84645,-0.22563 -4.83604,-2.72669 -4.44388,-5.58627z" fill="#5c5e5f" stroke-linecap="butt"/><path d="M226.55014,215.55062l2.23261,1.29448l-0.35701,1.92733l0.66759,2.5673l-2.30188,0.56254" fill="#9a8479" stroke-linecap="round"/><path d="M222.47875,213.90284l4.07271,1.11888l1.37967,7.27392l-3.11693,3.46788l-3.95541,-0.04818l-1.79427,-8.10284z" fill="#9a8479" stroke-linecap="round"/><path d="M224.30363,216.92336l2.38283,0.44735" fill="none" stroke-linecap="round"/><path d="M227.37594,220.78549l-1.39984,-0.11096" fill="none" stroke-linecap="round"/><path d="M222.99716,224.57391l1.19339,-1.19776l1.5271,0.12105l0.84726,2.26416l-1.24598,1.58129l-1.78161,-0.14122z" fill="#5c5e5f" stroke-linecap="round"/></g></g></g></g></svg>