<svg version="1.1" xmlns="http://www.w3.org/2000/svg" xmlns:xlink="http://www.w3.org/1999/xlink" width="95.69174" height="119.82378" viewBox="0,0,95.69174,119.82378"><g transform="translate(-185.21072,-121.7281)"><g stroke-miterlimit="10"><path d="M228.33929,186.36246c2.73994,-0.34377 5.23979,1.59871 5.58356,4.33866c0.07809,0.62236 0.03821,1.23231 -0.10216,1.80744c0.52806,1.83356 -3.16608,3.74862 -4.15185,4.89188c-3.7067,4.29885 -7.02634,5.86558 -13.47705,6.20842c-2.63608,0.14011 -5.15133,-0.89368 -5.58356,-4.33866c-0.82045,-6.53921 6.78651,-5.38243 10.14612,-7.10633c1.80043,-0.92385 5.88109,-6.94078 7.58494,-5.80141z" fill="#ffab19" fill-rule="nonzero" stroke="#000000" stroke-width="1.2" stroke-linecap="butt" stroke-linejoin="miter"/><g fill-rule="evenodd"><path d="M251.9995,212.62257c1.60012,1.87518 3.69939,4.04025 6.73872,5.04055c6.84519,2.36523 14.53616,-0.29286 14.62162,4.16438c0.13451,4.54608 -11.00486,11.19907 -20.37343,2.4174c-3.24468,-3.01139 -5.10798,-6.38785 -6.5434,-9.1938c-0.39228,-0.71084 -3.18305,-7.20205 -1.48146,-11.08435c1.70157,-3.88231 3.2971,-2.83494 4.02802,-2.32997c0.8646,0.54237 0.8348,8.27357 3.00993,10.98583z" fill="#ffab19" stroke="#001026" stroke-width="1.2" stroke-linecap="round" stroke-linejoin="round"/><path d="M272.89632,221.39728c0.47273,2.08587 -2.5926,5.13593 -6.04602,6.04864c-3.45341,0.9127 -5.76182,0.4174 -7.49983,-0.06866c0.69068,-0.18254 2.74932,-0.95934 3.01631,-3.13892c0.40948,-2.74084 -2.16672,-5.56527 -2.16672,-5.56527c0,0 4.73711,0.79885 7.80745,0.83097c2.73171,0.23799 4.24678,-0.0897 4.88882,1.89323z" fill="#ffffff" stroke="none" stroke-width="1" stroke-linecap="butt" stroke-linejoin="miter"/></g><g fill-rule="nonzero" stroke-linecap="round" stroke-linejoin="miter"><g><path d="M218.45174,227.7652l-5.27587,-12.05433l12.07182,-9.4698c0,0 0.61278,-4.26088 2.12196,-11.01284c0.73324,-3.28051 0.60043,-9.41 2.77894,-11.58749c3.35959,-3.35798 11.05594,-2.95957 11.05594,-2.95957c0,0 8.63248,0.94959 10.3409,6.0084c1.35935,4.02514 -0.40662,7.54339 -0.85947,11.76665c-0.43207,4.02941 0.47775,8.86107 0.47775,8.86107l5.1564,8.01758l2.74866,15.12085c0,0 4.40905,0.74727 5.34578,2.69052c0.93672,1.94326 -0.41738,7.53343 -0.41738,7.53343l-18.53017,0.26905l-6.11295,-5.11197l-0.39496,-6.01327l0.25808,-11.81256c0,0 -2.26065,-10.49737 -2.77482,-7.94991c-0.20917,1.0363 -9.86298,7.52203 -9.86298,7.52203l7.42741,10.19248l0.02075,8.06456l-19.24945,1.53555l-3.95291,-0.73173c0,0 -3.70632,-3.88652 -1.35978,-6.61832c2.34653,-2.7318 8.98632,-2.26039 8.98632,-2.26039z" fill="#ffab19" stroke="#001026" stroke-width="1.2"/><path d="M238.98651,209.64931c0,0 -3.50302,-0.13138 -5.02425,-1.45375" fill="none" stroke="#001026" stroke-width="1.2"/><path d="M235.72848,203.0236c-4.4163,-0.62575 -4.38601,-4.69287 -4.16591,-8.59184c0.24687,-4.37332 0.84506,-9.02003 5.81093,-8.43961c5.44773,0.63673 5.86388,5.20477 5.50952,9.99398c0,0 -0.79026,7.93922 -7.15455,7.03748z" fill="#ffffff" stroke="#000000" stroke-width="0"/></g><path d="M245.77767,232.87643c0,0 1.50627,-2.59857 13.02885,-2.48774" fill="none" stroke="#001026" stroke-width="1.2"/></g><g><g><path d="M204.93484,155.96496c0,0 -8.13279,-26.36421 -7.07124,-26.54887c1.43011,-0.24877 28.37099,5.91704 28.37099,5.91704" fill="#ffab19" fill-rule="nonzero" stroke="#001026" stroke-width="1.2" stroke-linecap="round" stroke-linejoin="miter"/><path d="M259.11082,149.44614l15.08008,12.62978l-1.88651,5.87887l-30.06693,4.55843z" fill="#9b7f41" fill-rule="nonzero" stroke="#001026" stroke-width="1.2" stroke-linecap="round" stroke-linejoin="miter"/><path d="M198.32453,176.89415c0,0 -6.94938,1.88578 -12.51381,-0.47367" fill="none" fill-rule="evenodd" stroke="#001026" stroke-width="1.2" stroke-linecap="round" stroke-linejoin="round"/><path d="M199.56404,182.67635c0,0 -3.22633,2.90014 -9.42059,4.15362" fill="none" fill-rule="evenodd" stroke="#001026" stroke-width="1.2" stroke-linecap="round" stroke-linejoin="round"/><path d="M219.8024,143.28357c10.47693,-4.52495 41.40014,-2.72216 39.98888,25.19553c-0.0184,0.36397 -0.12087,0.71914 -0.22185,1.07276c-3.68769,12.91399 -16.80049,21.97348 -35.89269,23.59141c-19.0922,1.61793 -26.29511,-7.55367 -26.71046,-13.36379c-0.41537,-5.81012 5.83228,-9.78339 5.83228,-9.78339c0,0 -1.14256,-4.35368 0.41985,-10.52205c0,0 1.27691,-9.5794 16.58399,-16.19047z" fill="#ffab19" fill-rule="evenodd" stroke="#001026" stroke-width="1.2" stroke-linecap="butt" stroke-linejoin="miter"/><path d="M220.40848,170.4669c8.24065,-1.7354 16.79147,-13.64942 26.17798,-5.20707c9.35899,8.34622 2.26708,25.35548 -22.37436,27.21007c-18.8724,1.65902 -26.32222,-6.9218 -26.73759,-12.73191c-0.41537,-5.81012 5.72259,-9.43991 5.72259,-9.43991c7.64862,-4.16637 10.1519,1.67005 17.21139,0.16882z" fill="#ffffff" fill-rule="evenodd" stroke="none" stroke-width="1" stroke-linecap="butt" stroke-linejoin="miter"/><path d="M224.85745,167.84079c0.44043,1.53819 -2.90916,5.09773 -4.69467,5.40093c-1.56572,0.34429 -3.77851,-1.93464 -4.06774,-3.30808c-0.09655,-0.70049 1.96341,-1.49834 3.98228,-2.0764c1.92274,-0.55053 4.54595,-1.19761 4.78014,-0.01644z" fill="#001026" fill-rule="evenodd" stroke="#001026" stroke-width="1.2" stroke-linecap="round" stroke-linejoin="round"/><path d="M254.68897,160.10243c-2.39428,5.54954 -8.72221,8.98571 -8.72221,8.98571" fill="none" fill-rule="evenodd" stroke="#001026" stroke-width="1.2" stroke-linecap="round" stroke-linejoin="round"/><path d="M258.74543,170.62263c-5.34516,3.37186 -9.68138,3.503 -9.68138,3.503" fill="none" fill-rule="evenodd" stroke="#001026" stroke-width="1.2" stroke-linecap="round" stroke-linejoin="round"/><path d="M246.45918,149.81568l-43.06627,6.98688l-2.62497,-22.64927l47.72993,-6.76268l15.72435,16.1773l-4.36938,16.66939z" fill="#c58600" fill-rule="nonzero" stroke="#001026" stroke-width="1.2" stroke-linecap="round" stroke-linejoin="miter"/><path d="M248.32424,127.61388l-1.88976,22.00338" fill="none" fill-rule="nonzero" stroke="#001026" stroke-width="0.75" stroke-linecap="round" stroke-linejoin="miter"/><path d="M255.46717,134.78451l-6.52282,-7.04648c0,0 14.76804,-5.60414 15.85273,-5.40472c1.21555,0.22349 -7.42286,27.73267 -7.42286,27.73267z" fill="#ffab19" fill-rule="nonzero" stroke="#001026" stroke-width="1.2" stroke-linecap="round" stroke-linejoin="miter"/></g><g><g fill-rule="evenodd"><path d="M214.18953,152.38004c3.18731,0.95972 4.49504,5.89021 2.94576,11.01464c-1.64542,5.15195 -5.48964,8.43705 -8.67695,7.47733c-3.18731,-0.95972 -4.49503,-5.89021 -2.94575,-11.01466c1.54928,-5.12443 5.46212,-8.53318 8.67695,-7.47733z" fill="#ffffff" stroke="#001026" stroke-width="1.2" stroke-linecap="round" stroke-linejoin="round"/><path d="M206.24491,163.14458c-0.30278,-1.05751 0.21856,-2.14295 1.17993,-2.41821c0.96137,-0.27527 1.97821,0.36974 2.28099,1.42725c0.30278,1.05751 -0.21856,2.14295 -1.17992,2.41821c-0.96137,0.27527 -1.97821,-0.36974 -2.28099,-1.42725" fill="#001026" stroke="none" stroke-width="1" stroke-linecap="butt" stroke-linejoin="miter"/></g><g fill-rule="evenodd"><path d="M238.25192,149.96144c3.58583,1.26169 4.96257,6.79654 3.19349,11.87988c-1.67294,5.05581 -5.51758,7.6129 -9.2131,6.69468c-3.11869,-1.08337 -4.7974,-6.21972 -3.12448,-11.27553c1.67294,-5.05581 5.53072,-8.65685 9.14408,-7.29903z" fill="#ffffff" stroke="#001026" stroke-width="1.2" stroke-linecap="round" stroke-linejoin="round"/><path d="M230.05997,160.58873c-0.30278,-1.05751 0.24609,-2.04682 1.17993,-2.41822c0.96137,-0.27527 1.9782,0.36975 2.28099,1.42726c0.30278,1.05751 -0.21856,2.14295 -1.17992,2.41821c-0.96137,0.27527 -1.97821,-0.36975 -2.28099,-1.42726" fill="#001026" stroke="none" stroke-width="1" stroke-linecap="butt" stroke-linejoin="miter"/></g><g fill="none" fill-rule="nonzero" stroke="none" stroke-width="1" stroke-linecap="butt" stroke-linejoin="miter" font-family="sans-serif" font-weight="normal" font-size="12" text-anchor="start"/></g></g><path d="M219.7882,187.76715c2.4991,5.24702 3.62801,9.92781 2.5215,10.45482c-1.10652,0.52702 -4.02944,-3.29929 -6.52853,-8.54631c-2.4991,-5.24702 -3.62801,-9.92781 -2.5215,-10.45482c1.10652,-0.52702 4.02944,3.29929 6.52853,8.54631z" fill="#ffffff" fill-rule="nonzero" stroke="#001026" stroke-width="1.2" stroke-linecap="butt" stroke-linejoin="miter"/><path d="M228.13493,199.18698c-0.78797,1.22598 -1.12672,2.95402 -2.18557,3.87727c-0.16148,0.1408 -0.33972,0.26289 -0.53883,0.36162c-2.36775,1.17398 -9.56286,0.86162 -11.01961,0.48303c-3.1467,-0.81781 -5.34103,-5.05457 -3.5003,-8.01937c1.99394,-3.2116 7.62644,-1.95236 10.29023,-1.87165c1.26532,0.03834 4.03448,-0.62074 4.71947,0.73766z" fill="#ffab19" fill-rule="nonzero" stroke="#000000" stroke-width="1.2" stroke-linecap="butt" stroke-linejoin="miter"/><g fill-rule="nonzero" stroke="#000000" stroke-width="1.2" stroke-linejoin="miter"><path d="M228.9909,197.18229c-2.84412,-3.78423 -2.08203,-9.15759 1.7022,-12.00172c3.78423,-2.84412 9.15759,-2.08202 12.00172,1.70221c2.84412,3.78423 2.08203,9.15759 -1.70221,12.00172c-3.78423,2.84412 -9.15758,2.08203 -12.00172,-1.70221z" fill="#5c5e5f" stroke-linecap="butt"/><g stroke-linecap="round"><path d="M232.49186,200.9845l-1.02391,4.62961l-2.29649,0.65374l-3.56301,2.67787l-2.67701,-2.70587z" fill="#ffab19"/><path d="M233.85795,195.66883l-0.54211,6.41198l-3.80392,1.78669l-1.13035,1.064l-3.52984,1.58069l-0.61624,0.89204l-3.4277,0.86059l-4.35898,-4.65846l-1.03513,-6.51324l11.61601,-6.80028z" fill="#ffab19"/><path d="M228.75604,202.29111l0.6826,-3.0864" fill="none"/><path d="M224.88059,201.12929l-0.4417,3.97758" fill="none"/></g><path d="M220.53023,205.04225l-3.56389,1.82072l-3.08812,-2.39689l0.06464,-3.90863l2.87869,-1.30576l3.63628,1.98491z" fill="#5c5e5f" stroke-linecap="round"/></g><path d="M248.25452,185.02664c0.40491,-0.62124 0.84672,-1.06364 1.37392,-1.45875c0.74351,-0.55721 1.65685,-1.02035 2.87601,-1.75841c1.66282,-1.00662 3.51995,-1.76202 5.37982,-2.26966c5.51793,-1.50607 11.77154,1.65797 8.30019,7.82634c-2.05598,3.65335 -7.90391,3.77318 -11.41903,3.67451c-0.68287,-0.01917 -2.84206,0.44824 -3.74177,0.22137" fill="#ffab19" fill-rule="nonzero" stroke="#000000" stroke-width="1.2" stroke-linecap="butt" stroke-linejoin="miter"/><g fill-rule="nonzero" stroke-linejoin="miter"><path d="M275.81574,179.50025c0,0 -1.96833,7.91482 -8.52257,8.68587c-6.55424,0.77105 -14.18864,-5.41169 -14.18864,-5.41169c0,0 -9.1578,-6.81262 -4.01826,-10.65794c4.1156,-3.07923 6.0802,2.55548 6.0802,2.55548l1.4156,-4.84715c0,0 -1.70444,-8.43423 3.16956,-9.1159c4.69598,-0.65677 3.60098,7.86838 3.60098,7.86838l2.41061,0.33146c0,0 0.99481,-7.66701 5.62608,-6.16252c3.67609,1.19419 0.77503,7.91696 0.77503,7.91696l1.16453,1.47157c0,0 4.8753,-3.42532 6.62755,0.53242c1.82148,4.11414 -4.14064,6.83307 -4.14064,6.83307z" fill="#ffab19" stroke="#001026" stroke-width="1.2" stroke-linecap="round"/><path d="M262.39412,165.68065c0.0444,1.93674 -0.78474,3.52663 -1.85193,3.55109c-1.06719,0.02446 -1.9683,-1.52575 -2.0127,-3.4625c-0.0444,-1.93674 0.78474,-3.52663 1.85193,-3.55109c1.06719,-0.02446 1.9683,1.52575 2.0127,3.4625z" fill="#ffffff" stroke="none" stroke-width="0" stroke-linecap="butt"/><path d="M271.79241,167.67322c-0.66828,1.77616 -2.01995,2.91129 -3.01904,2.53538c-0.99909,-0.37591 -1.26727,-2.12051 -0.59898,-3.89667c0.66828,-1.77616 2.01995,-2.91129 3.01904,-2.53538c0.99909,0.37591 1.26727,2.12051 0.59898,3.89667z" fill="#ffffff" stroke="none" stroke-width="0" stroke-linecap="butt"/><path d="M277.0124,175.77256c-1.40097,1.03123 -3.04966,1.1703 -3.68245,0.31062c-0.6328,-0.85968 -0.01008,-2.39257 1.39088,-3.4238c1.40097,-1.03123 3.04966,-1.1703 3.68245,-0.31062c0.6328,0.85968 0.01008,2.39257 -1.39088,3.4238z" fill="#ffffff" stroke="none" stroke-width="0" stroke-linecap="butt"/><path d="M273.14069,181.50044c-0.99217,3.21074 -4.96765,3.15956 -9.38715,1.79387c-4.41949,-1.36568 -7.60944,-3.52872 -6.61727,-6.73946c0.56367,-1.82408 3.56359,-0.11427 5.70215,-0.62107c1.62573,-0.38526 2.18783,-3.30952 4.09653,-2.71971c2.34653,0.72511 1.4157,3.17766 2.51822,4.79889c0.97399,1.43222 4.15289,1.98147 3.68751,3.48748z" fill="#ffffff" stroke="none" stroke-width="0" stroke-linecap="butt"/><path d="M254.01411,173.85202c0.6346,1.31801 0.36935,2.76187 -0.59245,3.22496c-0.96179,0.46308 -2.25592,-0.22997 -2.8905,-1.54799c-0.6346,-1.31801 -0.36935,-2.76187 0.59245,-3.22496c0.96179,-0.46308 2.25592,0.22997 2.8905,1.54799z" fill="#ffffff" stroke="none" stroke-width="0" stroke-linecap="butt"/></g></g></g></svg>