<svg version="1.1" xmlns="http://www.w3.org/2000/svg" xmlns:xlink="http://www.w3.org/1999/xlink" width="323.92859" height="323.92859" viewBox="0,0,323.92859,323.92859"><g transform="translate(-78.03571,-18.03572)"><g stroke-miterlimit="10"><g stroke-linecap="butt"><path d="M287.05093,300.69279l4.37749,-69.80064l45.02029,-0.10411l-6.86993,69.90475z" fill="#868995" stroke="#000000" stroke-width="1.2"/><g><g><g><g fill="#868995" stroke="#000000" stroke-width="1.2"><path d="M314.13361,264.21572c0,0 -14.71488,0.3452 -16.54198,-1.91087c-1.40985,-1.74086 0.46249,-24.77184 2.15979,-26.4586c1.7424,-1.73158 16.44297,-1.76388 16.44297,-1.76388"/></g><g fill="none" stroke="none" stroke-width="1" font-family="sans-serif" font-weight="normal" font-size="12" text-anchor="start"/><g fill="none" stroke="none" stroke-width="1" font-family="sans-serif" font-weight="normal" font-size="12" text-anchor="start"/></g><g><g fill="#868995" stroke="#000000" stroke-width="1.2"><path d="M316.08633,234.08237c0,0 14.6953,0.0323 16.15501,1.76388c1.42192,1.68676 -0.46573,24.71773 -2.15979,26.45859c-2.19541,2.25607 -16.85394,1.91088 -16.85394,1.91088"/></g><g fill="none" stroke="none" stroke-width="1" font-family="sans-serif" font-weight="normal" font-size="12" text-anchor="start"/><g fill="none" stroke="none" stroke-width="1" font-family="sans-serif" font-weight="normal" font-size="12" text-anchor="start"/></g></g><g><g><g fill="#4e4f56" stroke="#000000" stroke-width="1.2"><path d="M314.22497,262.44253c0,0 -12.98201,0.30455 -14.59394,-1.68584c-1.24382,-1.53585 0.40802,-21.85463 1.90544,-23.34275c1.53721,-1.52767 14.5066,-1.55616 14.5066,-1.55616"/></g><g fill="none" stroke="none" stroke-width="1" font-family="sans-serif" font-weight="normal" font-size="12" text-anchor="start"/><g fill="none" stroke="none" stroke-width="1" font-family="sans-serif" font-weight="normal" font-size="12" text-anchor="start"/></g><g><g fill="#4e4f56" stroke="#000000" stroke-width="1.2"><path d="M315.94775,235.85778c0,0 12.96474,0.0285 14.25254,1.55616c1.25447,1.48812 -0.41089,21.8069 -1.90545,23.34275c-1.93687,1.99039 -14.86917,1.68584 -14.86917,1.68584"/></g><g fill="none" stroke="none" stroke-width="1" font-family="sans-serif" font-weight="normal" font-size="12" text-anchor="start"/><g fill="none" stroke="none" stroke-width="1" font-family="sans-serif" font-weight="normal" font-size="12" text-anchor="start"/></g></g><g><g><g fill="#9497a4" stroke="#000000" stroke-width="1.2"><path d="M314.68199,253.57663c0,0 -4.31767,0.10129 -4.85378,-0.56069c-0.41368,-0.51081 0.1357,-7.26859 0.63373,-7.76352c0.51126,-0.50808 4.82472,-0.51756 4.82472,-0.51756"/></g><g fill="none" stroke="none" stroke-width="1" font-family="sans-serif" font-weight="normal" font-size="12" text-anchor="start"/><g fill="none" stroke="none" stroke-width="1" font-family="sans-serif" font-weight="normal" font-size="12" text-anchor="start"/></g><g><g fill="#9497a4" stroke="#000000" stroke-width="1.2"><path d="M315.25496,244.73485c0,0 4.31192,0.00948 4.74023,0.51756c0.41723,0.49493 -0.13665,7.25272 -0.63373,7.76352c-0.64418,0.66198 -4.94531,0.56069 -4.94531,0.56069"/></g><g fill="none" stroke="none" stroke-width="1" font-family="sans-serif" font-weight="normal" font-size="12" text-anchor="start"/><g fill="none" stroke="none" stroke-width="1" font-family="sans-serif" font-weight="normal" font-size="12" text-anchor="start"/></g></g></g><g><g><g><g fill="#868995" stroke="#000000" stroke-width="1.2"><path d="M311.59362,294.79086c0,0 -11.16273,0.26187 -12.54877,-1.44959c-1.06951,-1.32062 0.35084,-18.79196 1.63841,-20.07154c1.32179,-1.31358 12.47367,-1.33808 12.47367,-1.33808"/></g><g fill="none" stroke="none" stroke-width="1" font-family="sans-serif" font-weight="normal" font-size="12" text-anchor="start"/><g fill="none" stroke="none" stroke-width="1" font-family="sans-serif" font-weight="normal" font-size="12" text-anchor="start"/></g><g><g fill="#868995" stroke="#000000" stroke-width="1.2"><path d="M313.07498,271.93165c0,0 11.14788,0.0245 12.25522,1.33808c1.07867,1.27958 -0.3533,18.75092 -1.63842,20.07154c-1.66544,1.71146 -12.78544,1.44959 -12.78544,1.44959"/></g><g fill="none" stroke="none" stroke-width="1" font-family="sans-serif" font-weight="normal" font-size="12" text-anchor="start"/><g fill="none" stroke="none" stroke-width="1" font-family="sans-serif" font-weight="normal" font-size="12" text-anchor="start"/></g></g><g><g><g fill="#4e4f56" stroke="#000000" stroke-width="1.2"><path d="M311.66294,293.4457c0,0 -9.84817,0.23103 -11.07098,-1.27888c-0.94357,-1.1651 0.30953,-16.57896 1.44547,-17.70785c1.16613,-1.15889 11.00473,-1.18051 11.00473,-1.18051"/></g><g fill="none" stroke="none" stroke-width="1" font-family="sans-serif" font-weight="normal" font-size="12" text-anchor="start"/><g fill="none" stroke="none" stroke-width="1" font-family="sans-serif" font-weight="normal" font-size="12" text-anchor="start"/></g><g><g fill="#4e4f56" stroke="#000000" stroke-width="1.2"><path d="M312.96986,273.27849c0,0 9.83507,0.02162 10.812,1.18051c0.95164,1.12889 -0.3117,16.54275 -1.44547,17.70785c-1.46932,1.50991 -11.27978,1.27888 -11.27978,1.27888"/></g><g fill="none" stroke="none" stroke-width="1" font-family="sans-serif" font-weight="normal" font-size="12" text-anchor="start"/><g fill="none" stroke="none" stroke-width="1" font-family="sans-serif" font-weight="normal" font-size="12" text-anchor="start"/></g></g><g><g><g fill="#9497a4" stroke="#000000" stroke-width="1.2"><path d="M312.00962,286.72003c0,0 -3.27538,0.07683 -3.68208,-0.42534c-0.31382,-0.3875 0.10295,-5.51397 0.48075,-5.88942c0.38784,-0.38543 3.66004,-0.39263 3.66004,-0.39263"/></g><g fill="none" stroke="none" stroke-width="1" font-family="sans-serif" font-weight="normal" font-size="12" text-anchor="start"/><g fill="none" stroke="none" stroke-width="1" font-family="sans-serif" font-weight="normal" font-size="12" text-anchor="start"/></g><g><g fill="#9497a4" stroke="#000000" stroke-width="1.2"><path d="M312.44426,280.01263c0,0 3.27103,0.00719 3.59595,0.39263c0.31651,0.37545 -0.10367,5.50192 -0.48075,5.88942c-0.48867,0.50218 -3.75152,0.42534 -3.75152,0.42534"/></g><g fill="none" stroke="none" stroke-width="1" font-family="sans-serif" font-weight="normal" font-size="12" text-anchor="start"/><g fill="none" stroke="none" stroke-width="1" font-family="sans-serif" font-weight="normal" font-size="12" text-anchor="start"/></g></g></g></g><g stroke-linecap="butt"><path d="M150.4212,300.69279l-6.86992,-69.90475l45.02029,0.10411l4.37749,69.80064z" fill="#868995" stroke="#000000" stroke-width="1.2"/><g><g><g><g fill="#868995" stroke="#000000" stroke-width="1.2"><path d="M163.80565,234.08237c0,0 14.70057,0.0323 16.44297,1.76388c1.6973,1.68676 3.56964,24.71773 2.15979,26.45859c-1.82709,2.25607 -16.54198,1.91087 -16.54198,1.91087"/></g><g fill="none" stroke="none" stroke-width="1" font-family="sans-serif" font-weight="normal" font-size="12" text-anchor="start"/><g fill="none" stroke="none" stroke-width="1" font-family="sans-serif" font-weight="normal" font-size="12" text-anchor="start"/></g><g><g fill="#868995" stroke="#000000" stroke-width="1.2"><path d="M166.77243,264.21572c0,0 -14.65853,0.3452 -16.85394,-1.91087c-1.69406,-1.74086 -3.58171,-24.77183 -2.15979,-26.45859c1.45971,-1.73158 16.15501,-1.76388 16.15501,-1.76388"/></g><g fill="none" stroke="none" stroke-width="1" font-family="sans-serif" font-weight="normal" font-size="12" text-anchor="start"/><g fill="none" stroke="none" stroke-width="1" font-family="sans-serif" font-weight="normal" font-size="12" text-anchor="start"/></g></g><g><g><g fill="#4e4f56" stroke="#000000" stroke-width="1.2"><path d="M163.95693,235.85778c0,0 12.96939,0.0285 14.5066,1.55616c1.49742,1.48812 3.14926,21.8069 1.90544,23.34275c-1.61193,1.99039 -14.59394,1.68584 -14.59394,1.68584"/></g><g fill="none" stroke="none" stroke-width="1" font-family="sans-serif" font-weight="normal" font-size="12" text-anchor="start"/><g fill="none" stroke="none" stroke-width="1" font-family="sans-serif" font-weight="normal" font-size="12" text-anchor="start"/></g><g><g fill="#4e4f56" stroke="#000000" stroke-width="1.2"><path d="M166.57432,262.44253c0,0 -12.93229,0.30455 -14.86917,-1.68584c-1.49456,-1.53585 -3.15992,-21.85463 -1.90544,-23.34275c1.28781,-1.52766 14.25254,-1.55616 14.25254,-1.55616"/></g><g fill="none" stroke="none" stroke-width="1" font-family="sans-serif" font-weight="normal" font-size="12" text-anchor="start"/><g fill="none" stroke="none" stroke-width="1" font-family="sans-serif" font-weight="normal" font-size="12" text-anchor="start"/></g></g><g><g><g fill="#9497a4" stroke="#000000" stroke-width="1.2"><path d="M164.71337,244.73485c0,0 4.31347,0.00948 4.82472,0.51756c0.49803,0.49493 1.04741,7.25272 0.63373,7.76352c-0.53611,0.66198 -4.85377,0.56069 -4.85377,0.56069"/></g><g fill="none" stroke="none" stroke-width="1" font-family="sans-serif" font-weight="normal" font-size="12" text-anchor="start"/><g fill="none" stroke="none" stroke-width="1" font-family="sans-serif" font-weight="normal" font-size="12" text-anchor="start"/></g><g><g fill="#9497a4" stroke="#000000" stroke-width="1.2"><path d="M165.58389,253.57663c0,0 -4.30113,0.10129 -4.94531,-0.56069c-0.49707,-0.51081 -1.05095,-7.26859 -0.63373,-7.76352c0.42831,-0.50808 4.74023,-0.51756 4.74023,-0.51756"/></g><g fill="none" stroke="none" stroke-width="1" font-family="sans-serif" font-weight="normal" font-size="12" text-anchor="start"/><g fill="none" stroke="none" stroke-width="1" font-family="sans-serif" font-weight="normal" font-size="12" text-anchor="start"/></g></g></g><g><g><g><g fill="#868995" stroke="#000000" stroke-width="1.2"><path d="M166.84308,271.93165c0,0 11.15188,0.0245 12.47367,1.33808c1.28757,1.27958 2.70793,18.75092 1.63842,20.07154c-1.38604,1.71146 -12.54877,1.44959 -12.54877,1.44959"/></g><g fill="none" stroke="none" stroke-width="1" font-family="sans-serif" font-weight="normal" font-size="12" text-anchor="start"/><g fill="none" stroke="none" stroke-width="1" font-family="sans-serif" font-weight="normal" font-size="12" text-anchor="start"/></g><g><g fill="#868995" stroke="#000000" stroke-width="1.2"><path d="M169.0937,294.79086c0,0 -11.11999,0.26187 -12.78543,-1.44959c-1.28511,-1.32062 -2.71709,-18.79196 -1.63842,-20.07153c1.10733,-1.31358 12.25522,-1.33808 12.25522,-1.33808"/></g><g fill="none" stroke="none" stroke-width="1" font-family="sans-serif" font-weight="normal" font-size="12" text-anchor="start"/><g fill="none" stroke="none" stroke-width="1" font-family="sans-serif" font-weight="normal" font-size="12" text-anchor="start"/></g></g><g><g><g fill="#4e4f56" stroke="#000000" stroke-width="1.2"><path d="M166.95783,273.27849c0,0 9.8386,0.02162 11.00473,1.18051c1.13595,1.12889 2.38904,16.54275 1.44547,17.70785c-1.22281,1.50991 -11.07099,1.27888 -11.07099,1.27888"/></g><g fill="none" stroke="none" stroke-width="1" font-family="sans-serif" font-weight="normal" font-size="12" text-anchor="start"/><g fill="none" stroke="none" stroke-width="1" font-family="sans-serif" font-weight="normal" font-size="12" text-anchor="start"/></g><g><g fill="#4e4f56" stroke="#000000" stroke-width="1.2"><path d="M168.94342,293.4457c0,0 -9.81046,0.23103 -11.27978,-1.27888c-1.13378,-1.1651 -2.39712,-16.57896 -1.44547,-17.70785c0.97693,-1.15889 10.812,-1.18051 10.812,-1.18051"/></g><g fill="none" stroke="none" stroke-width="1" font-family="sans-serif" font-weight="normal" font-size="12" text-anchor="start"/><g fill="none" stroke="none" stroke-width="1" font-family="sans-serif" font-weight="normal" font-size="12" text-anchor="start"/></g></g><g><g><g fill="#9497a4" stroke="#000000" stroke-width="1.2"><path d="M167.53168,280.01263c0,0 3.2722,0.00719 3.66005,0.39262c0.3778,0.37545 0.79457,5.50193 0.48075,5.88942c-0.40669,0.50218 -3.68208,0.42534 -3.68208,0.42534"/></g><g fill="none" stroke="none" stroke-width="1" font-family="sans-serif" font-weight="normal" font-size="12" text-anchor="start"/><g fill="none" stroke="none" stroke-width="1" font-family="sans-serif" font-weight="normal" font-size="12" text-anchor="start"/></g><g><g fill="#9497a4" stroke="#000000" stroke-width="1.2"><path d="M168.19207,286.72003c0,0 -3.26285,0.07684 -3.75152,-0.42534c-0.37708,-0.3875 -0.79725,-5.51397 -0.48074,-5.88942c0.32492,-0.38543 3.59594,-0.39262 3.59594,-0.39262"/></g><g fill="none" stroke="none" stroke-width="1" font-family="sans-serif" font-weight="normal" font-size="12" text-anchor="start"/><g fill="none" stroke="none" stroke-width="1" font-family="sans-serif" font-weight="normal" font-size="12" text-anchor="start"/></g></g></g></g><path d="M187.34612,300.92054l-3.94905,-103.37655h113.20589l-3.94904,103.37655z" fill="#868995" stroke="#000000" stroke-width="1.2" stroke-linecap="butt"/><path d="M192.35431,176.07742" fill="none" stroke="#000000" stroke-width="1.2" stroke-linecap="round"/><path d="M200.34226,180.47578" fill="none" stroke="#000000" stroke-width="1.2" stroke-linecap="round"/><g><g stroke-linecap="round"><g stroke="#000000" stroke-width="1.2"><path d="M207.35404,159.65202c-15.94285,-1.72585 -29.2816,-31.67247 -29.2816,-31.67247c9.92413,-2.14902 14.31315,1.3579 14.8712,1.68366c0.55825,0.3266 10.9527,7.80032 10.9527,7.80032c0.03636,13.46263 3.45769,22.1885 3.45769,22.1885zM204.0968,134.58596c0,0 -0.22116,2.0554 -0.1996,3.16228M207.35404,159.65202c0.34361,0.87811 1.23799,2.21337 1.23799,2.21337" fill="#be1e2d"/><path d="M200.65169,156.88743c-3.10383,-1.77134 -6.93674,-4.62164 -10.70848,-9.14361c-3.36282,-4.03204 -7.01279,-10.43924 -9.36157,-14.86397l0.05861,-0.07175c6.09326,-1.73395 10.07201,2.10796 10.07201,2.10796l0.2524,0.31235c1.698,2.32076 3.5037,4.64181 4.93031,6.10113c0.84232,0.86305 1.72513,1.60398 2.54144,2.21397c0,0 1.90917,4.10136 2.43918,7.04991c0.79006,4.36083 -0.35143,6.23558 -0.35143,6.23558z" fill="#929497"/></g><path d="M269.54092,166.49338l-10.01075,9.42159l-24.12267,2.57073l-9.83828,5.43056l-15.79439,-3.12797l-7.35461,-7.63902l-6.57871,-9.35403l-4.49804,-12.10656l-0.53057,-12.29954l2.1848,-9.60967l3.99044,-9.57353l5.82749,-8.85987l6.77812,-8.06986l7.67518,-7.56232l5.46243,-4.43171l2.26922,-3.0367l2.34511,-4.86255l1.44261,-4.64184l1.00577,-6.18229l-1.06205,-8.11913l5.03775,5.23456l5.34303,6.84439l-0.12157,-3.92285l1.16627,2.04797l4.48204,6.40625l6.10424,5.93595l3.93823,2.7181l5.74345,4.03342l6.98771,4.8517l6.37649,5.73069l5.38202,6.22954l4.7708,7.10854l3.63757,6.87567l1.56537,7.43431l0.96538,7.5521l-0.6066,6.64639l-1.85679,8.25802l-2.58958,5.21415l-4.58687,7.12101z" fill="#be1e2d" stroke="#8c8c8c" stroke-width="0"/><path d="M280.38536,166.89145l-10.89028,-0.31701l-9.98288,9.57857l-24.07437,2.29819l-9.84946,5.38782l-14.99553,-2.46218c0,0 -51.38836,-38.64416 11.87186,-89.51879c0,0 10.87293,-12.36822 5.74581,-28.14181c-0.417,-1.28293 10.71275,12.77841 10.71275,12.77841c0,0 -0.49351,-5.29266 -0.21828,-4.64814c3.05026,7.14289 12.63714,15.7975 12.63714,15.7975c58.47511,33.14576 33.6007,73.1497 33.6007,73.1497z" fill="none" stroke="#000000" stroke-width="1.2"/><g stroke="#000000" stroke-width="1.2"><path d="M280.52792,122.5262c0,0 7.23731,-11.75598 7.65365,-12.32398c0.41647,-0.56719 3.34254,-5.82868 13.686,-9.18514c0,0 -1.75932,32.33524 -16.46081,42.11522c0,0 0.06491,-9.17911 -4.87885,-20.6061zM280.63242,122.7679c-0.3886,-0.9492 -1.36153,-2.57553 -1.36153,-2.57553M285.03415,145.65376c0,0 0.36674,-1.59809 0.3726,-2.52145" fill="#be1e2d"/><path d="M290.93427,137.17691c0,0 -1.79163,-0.9931 -2.64418,-5.10059c-0.58048,-2.77506 -0.26028,-7.24653 -0.26028,-7.24653c0.55986,-0.94277 1.13526,-2.03119 1.62654,-3.20197c0.83296,-1.98089 1.71196,-4.88976 2.48747,-7.74219l0.12735,-0.39636c0,0 2.40741,-5.3313 8.91142,-7.04089l0.08293,0.03022c-0.62357,4.97484 -1.76595,12.3084 -3.51044,17.4795c-1.95675,5.79959 -4.59058,10.21456 -6.92192,13.33485z" fill="#929497"/></g></g><g><g><path d="M278.11627,145.12097c2.99831,15.54037 -11.36976,31.37942 -32.09197,35.37749c-20.72222,3.99808 -39.95151,-5.35879 -42.94981,-20.89917c-2.99831,-15.54037 11.36975,-31.37942 32.09197,-35.37749c20.72222,-3.99808 39.95151,5.35879 42.94981,20.89917z" fill="#e6e7e8" stroke="#000000" stroke-width="1.2" stroke-linecap="butt"/><path d="M221.04144,181.51869l2.39855,2.49722l2.91951,1.53735l-1.77691,0.72476l-4.39533,-0.29777l-4.13994,-1.58834l-1.95621,-2.29611l-4.98906,-1.80644l-3.78641,-1.84752l0.35556,2.35291c-6.19033,-8.93567 -15.7951,-17.85089 -14.46246,-31.33017c23.96412,-32.41167 68.7783,-43.87021 88.14106,-13.54084c0.25892,0.40557 0.50384,0.81156 0.73535,1.21798c0.1971,0.62537 0.35044,1.21276 0.4444,1.74967c1.06281,6.07343 1.28121,12.15121 1.81673,18.32862c0.03528,0.407 0.00863,0.86759 -0.05711,1.35667l-0.72393,1.41032l-0.42722,-1.40161l-1.75481,5.53268l-4.13271,5.39785l-2.74726,2.01408l-0.34705,-4.23673l-0.95303,-5.75224l-1.33686,-4.49098l-1.08577,0.06107l0.17745,-1.51826l0.69798,-3.69633l-0.62176,-4.03533l-1.46042,-4.31873l-4.03023,-3.82291l-6.39365,-3.07013l-8.16557,-1.68943l-9.30524,-0.28232l2.48833,0.70714l4.0289,2.19074l2.47649,3.08386l-17.45634,-1.08413l-16.87929,-1.34386l-0.20373,3.00738l-1.74034,6.4203l-1.672,5.96191l1.02139,5.29385l3.56359,4.65498l4.64804,2.9617l-3.06405,1.18478l-2.72098,0.52498l0.66251,3.43385l2.38054,3.39919l2.60006,2.91162l2.81958,2.42406z" fill="#be1e2d" stroke="#8c8c8c" stroke-width="0" stroke-linecap="butt"/><path d="M213.73601,138.22277c-0.09679,8.05795 -4.19287,12.82537 -3.39041,16.94297c1.65176,8.47543 9.28627,11.01757 9.28627,11.01757c0,0 -4.90443,3.46637 -11.42724,0.70888" fill="none" stroke="#000000" stroke-width="1.2" stroke-linecap="round"/><path d="M202.64212,159.22368c-0.91542,-1.48672 -1.83028,-3.21121 -2.73416,-5.20721" fill="none" stroke="#000000" stroke-width="1.2" stroke-linecap="round"/><path d="M207.11471,136.81185c15.85437,3.19329 41.42276,3.39423 41.42276,3.39423c0,0 -3.1822,-3.98163 -9.08524,-5.52164c0,0 36.09205,-2.91667 28.62288,22.78495c0,0 3.33644,-2.29847 5.33459,-6.25711" fill="none" stroke="#000000" stroke-width="1.2" stroke-linecap="round"/><path d="M274.28731,142.03808c0.45236,1.74716 0.69122,2.55471 0.49525,4.05403" fill="none" stroke="#000000" stroke-width="1.2" stroke-linecap="round"/><path d="M280.30638,159.37937c-0.98324,6.91894 -8.36797,12.05184 -8.36797,12.05184c0,0 -0.33055,-9.75093 -2.82398,-14.63675" fill="none" stroke="#000000" stroke-width="1.2" stroke-linecap="round"/><path d="M202.11183,159.0283c-3.30653,8.14366 3.63504,21.43851 3.63504,21.43851c0,0 -18.38219,-19.03106 -14.16473,-32.0877" fill="none" stroke="#000000" stroke-width="1.2" stroke-linecap="round"/><path d="M282.92725,156.84554c-1.08,2.55595 -2.00451,3.99633 -2.00451,3.99633c0,0 -0.35328,-9.72451 -6.16333,-14.62503" fill="none" stroke="#000000" stroke-width="1.2" stroke-linecap="round"/><path d="M213.97989,168.06449c-0.17824,6.82974 8.54879,12.26709 8.54879,12.26709c0,0 -10.061,3.86826 -17.68018,-2.44008" fill="none" stroke="#000000" stroke-width="1.2" stroke-linecap="round"/><path d="M220.31343,181.0405c1.61335,3.04215 6.17122,4.49092 6.17122,4.49092c0,0 -8.02306,3.04869 -13.31733,-3.90495" fill="none" stroke="#000000" stroke-width="1.2" stroke-linecap="round"/></g><g fill="#000000" stroke="none" stroke-width="0.5" stroke-linecap="butt"><path d="M224.34062,158.50943c0.197,-0.13974 0.41705,-0.27392 0.63759,-0.39746c-0.47813,-1.29633 -0.91956,-3.13764 -0.01339,-3.40755c0.08069,-0.02403 0.67311,0.68081 0.82044,0.86395c0.51222,0.63673 0.94389,1.14551 1.53819,1.45663c2.12355,-0.8244 4.40304,-1.22938 6.61372,-1.00345c0.63499,0.06489 2.36538,0.14492 2.53397,1.17597c0.17277,1.0566 -0.04208,1.45136 -0.90233,1.65802c-0.67066,0.16111 -2.43956,-0.66576 -3.2837,-0.64012c-2.94234,0.08934 -5.09412,1.50403 -7.57067,3.04435c-0.29436,0.18309 -0.52659,0.25299 -0.70812,0.24217l-0.37644,0.07581c-1.16133,-0.68036 -1.72592,-2.2933 -1.75421,-3.83075c-0.00754,-0.41003 -0.01644,-1.38398 0.47515,-1.52162c0.35181,-0.09849 1.26853,1.3149 1.98978,2.28406z"/></g></g></g><path d="M266.95966,164.10719" fill="none" stroke="#000000" stroke-width="1.2" stroke-linecap="round"/><g stroke="#000000" stroke-width="1.2" stroke-linecap="butt"><g fill="#868995"><path d="M240.75086,244.52209c0,0 -41.94558,0.42456 -44.92372,-2.35022c-2.29803,-2.14112 -2.30937,-30.46732 0,-32.5419c2.37074,-2.1297 44.33295,-2.16943 44.33295,-2.16943"/><path d="M239.83994,207.46054c0,0 41.96221,0.03973 44.33295,2.16943c2.30938,2.07458 2.29804,30.40079 0,32.5419c-2.97814,2.77478 -44.92372,2.35022 -44.92372,2.35022"/></g><g fill="#4e4f56"><path d="M240.71254,242.40881c0,0 -39.80476,0.37611 -42.6309,-2.08203c-2.18075,-1.89678 -2.19151,-26.99059 0,-28.82843c2.24974,-1.88667 42.07028,-1.92187 42.07028,-1.92187"/><path d="M239.8481,209.57648c0,0 39.82055,0.0352 42.07029,1.92187c2.19151,1.83784 2.18075,26.93165 0,28.82843c-2.82614,2.45814 -42.63091,2.08203 -42.63091,2.08203"/></g><g fill="#9497a4"><path d="M240.23222,231.45283c0,0 -12.9719,0.12494 -13.8929,-0.69163c-0.71068,-0.6301 -0.71419,-8.96603 0,-9.57654c0.73316,-0.62673 13.7102,-0.63843 13.7102,-0.63843"/><path d="M239.95052,220.54624c0,0 12.97703,0.0117 13.7102,0.63843c0.71418,0.61051 0.71068,8.94644 0,9.57654c-0.92101,0.81657 -13.8929,0.69163 -13.8929,0.69163"/></g></g><g stroke="#000000" stroke-width="1.2" stroke-linecap="butt"><g fill="#868995"><path d="M240.65983,285.68288c0,0 -36.86021,0.37309 -39.47728,-2.06529c-2.01943,-1.88153 -2.02939,-26.77355 0,-28.59661c2.08332,-1.8715 38.95814,-1.90641 38.95814,-1.90641"/><path d="M239.85935,253.11458c0,0 36.87483,0.03491 38.95815,1.90641c2.02939,1.82306 2.01943,26.71508 0,28.59661c-2.61708,2.43837 -39.47729,2.06528 -39.47729,2.06528"/></g><g fill="#4e4f56"><path d="M240.62616,283.8258c0,0 -34.97894,0.33051 -37.46244,-1.82961c-1.91636,-1.66682 -1.92582,-23.71832 0,-25.33335c1.97699,-1.65794 36.96979,-1.68887 36.96979,-1.68887"/><path d="M239.86653,254.97399c0,0 34.99281,0.03093 36.9698,1.68887c1.92582,1.61503 1.91636,23.66653 0,25.33335c-2.48351,2.16012 -37.46245,1.82961 -37.46245,1.82961"/></g><g fill="#9497a4"><path d="M240.20407,274.1981c0,0 -11.39922,0.10979 -12.20856,-0.60778c-0.62452,-0.5537 -0.6276,-7.87901 0,-8.4155c0.64428,-0.55075 12.04801,-0.56103 12.04801,-0.56103"/><path d="M239.95652,264.61378c0,0 11.40373,0.01028 12.04801,0.56103c0.6276,0.53649 0.62452,7.8618 0,8.41551c-0.80934,0.71757 -12.20856,0.60777 -12.20856,0.60777"/></g></g><path d="M78.03571,341.96431v-323.92859h323.92859v323.92859z" fill="none" stroke="#000000" stroke-width="0" stroke-linecap="butt"/><path d="M257.93818,148.43943l-0.18743,-0.04853l0.22789,-0.88018c0.03842,-0.1613 0.16316,-0.29619 0.3351,-0.33935c0.22687,-0.05696 0.4567,0.06563 0.53953,0.27798l0.21885,0.53563c0.24317,0.56291 0.29378,1.15665 0.4702,1.71648c0.03121,-0.01706 0.06232,-0.03385 0.09328,-0.05036c0.56314,-1.57396 1.48785,-4.05485 2.20767,-4.03214c1.23378,0.03895 1.27943,3.15225 1.11907,4.66337c0.05444,0.24298 0.00683,0.4862 -0.11528,0.68361c-0.01468,0.04226 -0.10331,0.26923 -0.32823,0.31613c-0.00665,0.00376 -0.01335,0.00744 -0.0201,0.01104l-0.81067,0.45584l-0.0027,-0.0048l-0.01319,0.01352c-3.89777,1.99395 -8.1443,3.4996 -12.45593,4.27032c0,0 -0.60894,0.10747 -0.91574,-0.35357c-0.10961,-0.10397 -0.20227,-0.25393 -0.25617,-0.46864c-0.22368,-0.89088 0.66721,-1.11456 0.66721,-1.11456l0.41166,-0.10009c2.60809,-0.89077 5.39094,-1.509 7.87171,-2.73195c0.11746,-0.0579 0.26959,-0.14737 0.44643,-0.25724c0.20963,-0.8296 0.29268,-1.71696 0.49682,-2.5625z" fill="#000000" stroke="none" stroke-width="0.5" stroke-linecap="butt"/><g stroke="#000000" stroke-width="1.2"><path d="M234.54427,178.63597c0.1947,-0.0302 0.38105,-0.05415 0.55925,-0.07206c0.30068,-0.08192 0.61399,-0.09682 0.91447,-0.0388c6.80781,0.17276 -2.49671,12.05761 -5.13778,12.88031c-2.23964,0.69765 -6.68514,-0.76286 -5.41618,-3.93541c0.45801,-1.14508 7.91379,-8.40866 9.0165,-8.75216z" fill="#be1e2d" stroke-linecap="butt"/><g><path d="M224.63206,195.77213c-0.1995,-0.23725 -2.53036,-3.21691 -2.53036,-3.21691c0,0 0.23632,5.03168 -3.2022,6.40562c-1.86181,0.74393 -5.64847,0.16986 -7.69615,0.32794c0,0 -2.34341,0.17914 -2.33135,-2.14956c0.01206,-2.3287 2.35546,-2.50783 2.35546,-2.50783c0.45385,-0.03438 1.0156,-0.01541 1.62405,0.02045c3.03868,-5.98803 5.34542,-15.85863 13.13265,-10.78639c3.1965,2.08205 3.85258,2.90403 3.85258,2.90403c0,0 4.00302,-10.04095 8.60773,-9.42828c15.02835,1.99956 7.62256,19.97177 1.62202,20.62974c-9.10348,0.99821 -13.00535,0.68982 -15.43444,-2.19881z" fill="#be1e2d" stroke-linecap="butt"/><path d="M230.94335,191.84933c-0.29101,-3.20306 3.30164,-14.1335 7.88826,-10.78277c3.61045,2.63759 1.10454,8.33619 -0.71489,11.27005c-2.04813,3.30266 -6.85797,2.98429 -7.17337,-0.48728z" fill="#e6e7e8" stroke-linecap="round"/></g><path d="M225.81789,183.81385c-0.36381,1.27292 -1.90625,1.63144 -1.90625,1.63144c0,0 -1.37615,2.43562 -5.14479,3.24193c-5.07692,1.08622 -5.7563,-5.19047 -0.76343,-7.53982c0,0 4.23226,-2.56991 6.26857,-1.93709c0.68316,0.2123 0.59482,1.26761 0.86261,1.95597c0.53718,1.38082 1.0471,1.37465 0.68329,2.64757z" fill="#be1e2d" stroke-linecap="butt"/></g><path d="M237.25834,196.58453c0.82164,5.58257 -3.37743,16.48749 -9.12075,13.07377c-0.87844,-0.52213 -1.13201,-1.58881 -1.698,-2.38321c0.0617,-2.47568 0.86867,-4.7626 0.88957,-7.23965c0.0194,-2.29919 -1.09491,-5.08223 -0.3192,-7.3517c1.51029,-4.41862 9.62184,-3.87693 11.73476,-0.16101" fill="#be1e2d" stroke="#000000" stroke-width="1.2" stroke-linecap="butt"/><path d="M243.68602,180.55989c1.14082,-1.06379 2.29744,-1.51789 3.49808,-1.42754c1.36716,0.10287 2.79138,0.91169 4.31434,2.33008c0.86806,0.80846 1.61868,1.86002 2.24353,2.85911c0.22714,0.36319 0.27468,1.40541 0.63765,1.11772c2.97461,-2.35758 2.99394,-3.79243 3.95123,-6.95946c0.07904,-0.26147 1.22968,-1.8177 1.22968,-1.8177c0,0 1.13523,-3.5301 2.45799,-3.76349c2.11602,-0.37336 0.93471,3.43241 3.63872,4.30388c1.00441,0.32371 10.58839,1.96889 8.40505,5.67284c-1.52905,2.59397 -4.4092,0.49913 -6.06209,-0.42805c-0.06505,0.20135 -0.14153,0.40847 -0.22999,0.62142c-1.10886,2.66918 -3.76887,0.90244 -4.84012,1.76376c-2.08262,1.6745 -2.30972,5.62439 -4.48455,7.6342c-5.40626,4.99608 -9.67963,-0.98038 -12.11966,-4.86193c-0.27329,-0.43473 -1.0779,-0.71775 -1.76325,-0.96226" fill="#be1e2d" stroke="#000000" stroke-width="1.2" stroke-linecap="butt"/><path d="M236.38473,171.51632c3.37578,3.93837 5.52114,7.63785 4.79182,8.26299c-0.72933,0.62514 -4.05718,-2.06077 -7.43296,-5.99914c-3.37578,-3.93837 -5.52114,-7.63785 -4.79182,-8.26299c0.72933,-0.62514 4.05718,2.06077 7.43296,5.99914z" fill="#706d6d" stroke="#000000" stroke-width="1.2" stroke-linecap="butt"/></g></g></svg>