<svg version="1.1" xmlns="http://www.w3.org/2000/svg" xmlns:xlink="http://www.w3.org/1999/xlink" width="86.80977" height="122.23395" viewBox="0,0,86.80977,122.23395"><g transform="translate(-216.03498,-103.14925)"><g stroke-miterlimit="10"><path d="M256.58763,178.2339c2.62928,-0.85195 5.44261,0.58755 6.28373,3.21521c0.19106,0.59685 0.26391,1.20366 0.23162,1.7951c0.85571,1.7025 -2.42259,4.27741 -3.18126,5.58572c-2.85276,4.91949 -5.82706,7.08186 -12.10294,8.62925c-2.56464,0.63235 -5.22618,0.0886 -6.28373,-3.21521c-2.00742,-6.27123 5.68014,-6.56213 8.66483,-8.88643c1.59951,-1.24561 4.50415,-7.9234 6.38776,-7.12364z" fill="#ffab19" fill-rule="nonzero" stroke="#000000" stroke-width="1.2" stroke-linecap="butt" stroke-linejoin="miter"/><g fill-rule="evenodd"><path d="M281.53754,196.00021c2.09116,-1.43052 4.55201,-3.33869 6.07034,-6.3284c3.52724,-6.72149 2.39836,-14.839 6.68379,-14.45186c4.37957,0.34665 8.69973,12.40205 -1.43898,21.01142c-3.48264,2.98494 -7.06043,4.52383 -10.01285,5.68754c-0.75321,0.32398 -7.48561,2.47629 -10.89098,0.32986c-3.40537,-2.14643 -2.10804,-3.66034 -1.48961,-4.3512c0.67888,-0.82305 8.07929,0.02984 11.07827,-1.89738z" fill="#ffab19" stroke="#001026" stroke-width="1.2" stroke-linecap="round" stroke-linejoin="round"/><path d="M293.79414,175.64641c2.08523,-0.25963 4.44203,3.18748 4.6799,6.80255c0.23785,3.61506 -0.66202,5.91392 -1.44794,7.63269c-0.04757,-0.72302 -0.41229,-2.90277 -2.45095,-3.40664c-2.55005,-0.70874 -5.73042,1.61511 -5.73042,1.61511c0,0 1.63825,-4.74066 2.23486,-7.86496c0.7314,-2.75745 0.69671,-4.33569 2.71455,-4.77878z" fill="#ffffff" stroke="none" stroke-width="1" stroke-linecap="butt" stroke-linejoin="miter"/></g><g fill-rule="nonzero" stroke-linecap="butt" stroke-linejoin="miter"><path d="M245.81119,215.52696c-1.58321,2.68062 -17.56198,0.05898 -17.56198,0.05898c0,0 -1.19465,-6.72379 3.24631,-7.76068c2.06954,-0.4832 8.69173,-3.23504 9.70274,-4.49557c3.54276,-4.41709 4.48604,-9.3488 9.75384,-12.40663c0.97041,-0.56331 3.07478,-1.90536 4.89965,-2.36428c2.33316,-1.51926 6.1254,1.14717 6.57146,3.87659c1.27843,7.82264 -7.47843,7.62714 -16.61204,23.0916z" fill="#ffab19" stroke="#001026" stroke-width="1.2"/><g><path d="M254.32338,190.06363c0.92065,-3.95296 6.82276,-7.47508 6.82276,-7.47508c0,0 1.16493,-3.33136 3.5449,-4.84327c4.91968,-3.1253 18.06767,3.02279 15.51732,10.83441c-0.95694,2.93103 -3.99367,5.00707 -3.99367,5.00707c0,0 -1.62769,5.67808 -3.93399,7.85271c-1.96155,1.84957 -9.86336,3.0049 -13.95716,-0.25526c-0.42524,-0.33863 -0.81062,-0.68182 -1.15961,-1.0275" fill="#ffab19" stroke="#001026" stroke-width="1.2"/><path d="M266.58121,180.15831c3.94774,-0.70304 6.55007,4.32861 5.11914,8.10691c-0.17268,0.45597 -0.3871,0.98486 -0.6517,1.48799c-0.18567,2.23632 -3.98071,5.60906 -5.60357,5.31201c-5.61771,-1.02834 -8.73569,-9.5551 -2.40389,-11.66605c0.77386,-1.5901 2.19455,-3.00125 3.54,-3.24086z" fill="#ffffff" stroke="none" stroke-width="0.5"/></g><path d="M261.82952,218.52199c-0.59999,2.99096 -16.95068,6.19225 -16.95068,6.19225c0,0 -3.4871,-5.69656 0.44475,-8.19172c1.83226,-1.16278 7.27702,-5.97983 7.81671,-7.47944c1.89119,-5.25492 1.09179,-10.06919 5.12155,-14.69106c0.74235,-0.85143 2.31033,-2.80736 3.91458,-3.86253c1.7276,-2.19703 6.31732,-1.09792 7.69525,1.2281c3.94927,6.6665 -4.5808,9.54959 -8.04217,26.80443z" fill="#ffab19" stroke="#001026" stroke-width="1.2"/></g><g><g><g><path d="M240.04253,149.17008c0,0 -12.38074,-24.60262 -11.36404,-24.96403c1.3697,-0.48691 28.96654,1.03353 28.96654,1.03353" fill="#ffab19" fill-rule="nonzero" stroke="#001026" stroke-width="1.2" stroke-linecap="round" stroke-linejoin="miter"/><path d="M292.41077,133.58721l-0.01941,-1.22467l4.7144,-1.98377l4.71135,3.81058l0.24235,8.5877l-22.48195,16.39183z" fill="#9b7f41" fill-rule="nonzero" stroke="#001026" stroke-width="1.2" stroke-linecap="round" stroke-linejoin="miter"/><path d="M236.98059,170.91004c0,0 -6.54402,3.03307 -12.42342,1.64902" fill="none" fill-rule="evenodd" stroke="#001026" stroke-width="1.2" stroke-linecap="round" stroke-linejoin="round"/><path d="M239.15911,176.39786c0,0 -2.70348,3.40309 -8.60706,5.6855" fill="none" fill-rule="evenodd" stroke="#001026" stroke-width="1.2" stroke-linecap="round" stroke-linejoin="round"/><path d="M252.61363,134.16097c9.5878,-6.22997 40.3921,-9.68187 43.61425,18.06508c0.04202,0.36174 -0.00038,0.72905 -0.04156,1.09455c-1.50348,13.34812 -12.94214,24.49179 -31.50955,29.31395c-18.56741,4.82217 -27.18914,-2.99716 -28.55924,-8.65184c-1.3701,-5.6547 4.13661,-10.626 4.13661,-10.626c0,0 -1.84676,-4.09668 -1.32495,-10.43876c0,0 -0.32363,-9.65484 13.68439,-18.75698z" fill="#ffab19" fill-rule="evenodd" stroke="#001026" stroke-width="1.2" stroke-linecap="butt" stroke-linejoin="miter"/><path d="M257.70451,160.84325c7.84272,-3.10323 14.30908,-16.28826 24.96444,-9.55668c10.61234,6.64149 6.42738,24.6004 -17.57535,30.59399c-18.34378,4.8255 -27.11145,-2.36995 -28.48154,-8.02465c-1.3701,-5.6547 4.08516,-10.26902 4.08516,-10.26902c6.85688,-5.39845 10.29107,-0.07084 17.00727,-2.74362z" fill="#ffffff" fill-rule="evenodd" stroke="none" stroke-width="1" stroke-linecap="butt" stroke-linejoin="miter"/><path d="M261.65947,157.50342c0.68873,1.44116 -2.02736,5.51485 -3.73869,6.11549c-1.48771,0.60396 -4.04734,-1.26746 -4.55968,-2.57183c-0.21102,-0.67389 1.6893,-1.80833 3.5854,-2.71924c1.80582,-0.86754 4.28672,-1.94864 4.71297,-0.82438z" fill="#001026" fill-rule="evenodd" stroke="#001026" stroke-width="1.2" stroke-linecap="round" stroke-linejoin="round"/><path d="M289.80978,144.83485c-1.44474,5.87297 -7.11943,10.32864 -7.11943,10.32864" fill="none" fill-rule="evenodd" stroke="#001026" stroke-width="1.2" stroke-linecap="round" stroke-linejoin="round"/><path d="M295.55044,154.51497c-4.71579,4.22613 -8.97187,5.08849 -8.97187,5.08849" fill="none" fill-rule="evenodd" stroke="#001026" stroke-width="1.2" stroke-linecap="round" stroke-linejoin="round"/><path d="M279.99075,136.09038l-41.33091,14.16573l-6.33318,-21.87338l45.96874,-14.73331l18.18623,13.28154l-1.55529,17.16372z" fill="#c58600" fill-rule="nonzero" stroke="#001026" stroke-width="1.2" stroke-linecap="round" stroke-linejoin="miter"/><path d="M278.16101,113.89874l1.77253,22.00027" fill="none" fill-rule="nonzero" stroke="#001026" stroke-width="0.75" stroke-linecap="round" stroke-linejoin="miter"/><path d="M286.39287,119.75657l-7.59957,-5.84035c0,0 15.56736,5.38128 16.67036,5.39439c1.23611,0.01468 -4.66367,15.1809 -4.66367,15.1809z" fill="#ffab19" fill-rule="nonzero" stroke="#001026" stroke-width="1.2" stroke-linecap="round" stroke-linejoin="miter"/></g><path d="M221.09537,165.4534c-10.49553,-19.05728 -1.83641,-43.99781 19.34067,-55.70626c21.17708,-11.70845 46.8528,-5.75107 57.34832,13.30621c10.49553,19.05728 1.83641,43.99781 -19.34067,55.70626c-21.17708,11.70845 -46.8528,5.75107 -57.34832,-13.3062z" fill="none" fill-rule="nonzero" stroke="#ffffff" stroke-width="1.2" stroke-linecap="butt" stroke-linejoin="miter"/><path d="M276.36962,108.51114l1.46187,7.12336l-7.21821,4.18502l-9.80578,-1.48544l1.99754,-11.95201z" fill="#ffffff" fill-rule="nonzero" stroke="#001026" stroke-width="0" stroke-linecap="round" stroke-linejoin="miter"/><path d="M286.0835,119.48004l7.21253,0.36557l-7.15022,-0.12837" fill="#000000" fill-rule="nonzero" stroke="none" stroke-width="0" stroke-linecap="round" stroke-linejoin="miter"/></g><g stroke="#001026"><g fill-rule="evenodd"><path d="M248.57989,144.07304c3.30297,0.40676 5.408,5.04386 4.72659,10.35509c-0.77169,5.35461 -4.02112,9.2415 -7.3241,8.83472c-3.30297,-0.40676 -5.40799,-5.04386 -4.72659,-10.35511c0.6814,-5.31125 3.97807,-9.33156 7.3241,-8.83472z" fill="#ffffff" stroke-width="1.2" stroke-linecap="round" stroke-linejoin="round"/><path d="M240.9781,156.37731c-0.47351,-0.99081 -0.13859,-2.14849 0.76434,-2.58224c0.90291,-0.43378 2.01265,0.02987 2.48615,1.02067c0.47351,0.99081 0.13859,2.14849 -0.76433,2.58225c-0.90291,0.43378 -2.01264,-0.02986 -2.48615,-1.02067" fill="#001026" stroke-width="0" stroke-linecap="butt" stroke-linejoin="miter"/></g><g fill-rule="evenodd"><path d="M271.9182,137.62156c3.74603,0.63692 6.01904,5.85785 5.11401,11.16576c-0.31309,2.02307 -1.00354,3.73677 -1.9506,5.06423c-2.64334,0.50653 -5.51156,1.1096 -8.38233,1.86736c-1.98681,-1.84503 -3.19749,-5.46913 -2.59544,-9.35933c0.81474,-5.26453 4.02532,-9.46501 7.81441,-8.73802z" fill="#ffffff" stroke-width="1.2" stroke-linecap="round" stroke-linejoin="round"/><path d="M264.04971,149.83249c-0.47351,-0.99081 -0.09555,-2.05841 0.76434,-2.58226c0.90291,-0.43378 2.01265,0.02988 2.48615,1.02068c0.47351,0.99081 0.13859,2.14849 -0.76433,2.58225c-0.90291,0.43378 -2.01265,-0.02987 -2.48615,-1.02068" fill="#001026" stroke-width="0" stroke-linecap="butt" stroke-linejoin="miter"/></g><g fill="#000000" fill-rule="nonzero" stroke-width="1" stroke-linecap="round" stroke-linejoin="miter" font-family="&quot;Times New Roman&quot;" font-weight="400" font-size="16" text-anchor="start"/></g></g><path d="M261.9621,175.79875c5.29876,2.1004 9.30345,4.62156 8.94477,5.63114c-0.35869,1.00956 -4.94497,0.12529 -10.2437,-1.97513c-5.29876,-2.1004 -9.30345,-4.62156 -8.94477,-5.63114c0.35869,-1.00956 4.94497,-0.12529 10.2437,1.97513z" fill="#ffffff" fill-rule="nonzero" stroke="#001026" stroke-width="1.2" stroke-linecap="butt" stroke-linejoin="miter"/><g fill-rule="nonzero" stroke="#000000" stroke-width="1.2" stroke-linejoin="miter"><path d="M253.64665,185.52357c-4.61283,-1.03948 -7.49551,-5.62733 -6.43863,-10.24723c1.05689,-4.6199 5.65312,-7.52242 10.26596,-6.48293c4.61283,1.03948 7.49552,5.62732 6.43863,10.24723c-1.05689,4.6199 -5.6531,7.5224 -10.26596,6.48293z" fill="#5c5e5f" stroke-linecap="butt"/><g stroke-linecap="round"><path d="M258.77285,186.15097l2.2031,4.1909l-1.33278,1.98672l-0.99511,4.34983l-3.78983,-0.32624z" fill="#ffab19"/><path d="M256.38877,181.21556l3.72046,5.23654l-1.75379,3.82703l-0.17741,1.54335l-1.67725,3.49242l0.10444,1.0791l-2.06356,2.87758l-6.33377,-0.72359l-4.99064,-4.29128l4.48872,-12.71074z" fill="#ffab19"/><path d="M256.76152,189.56811l-1.46873,-2.79394" fill="none"/><path d="M253.05183,191.19512l2.22741,3.31674" fill="none"/></g><path d="M252.25167,196.9963l-1.54848,3.69736l-3.90465,0.17567l-2.471,-3.01979l1.35711,-2.86086l4.05773,-0.84487z" fill="#5c5e5f" stroke-linecap="round"/></g><path d="M278.34041,191.11072c-4.72386,2.70981 -8.61536,4.18742 -11.78937,8.95518c-1.11803,1.67942 -1.95586,5.10574 -4.4662,5.24547c-3.38056,0.18817 -7.0511,-2.72228 -6.40068,-6.18718c0.85987,-4.58076 6.30039,-10.33743 9.74307,-13.14631c1.16869,-0.95354 3.19016,-0.82795 4.36014,-1.78458c1.30033,-1.06322 6.65481,-4.46703 8.29105,-1.76665c1.50373,0.86976 2.5477,2.47396 2.61103,4.30908c0.05615,1.62714 -0.67121,3.07275 -1.84318,3.98581c-0.14879,0.14902 -0.31589,0.28022 -0.50585,0.38919z" fill="#ffab19" fill-rule="nonzero" stroke="#000000" stroke-width="1.2" stroke-linecap="butt" stroke-linejoin="miter"/><path d="M242.70569,210.41258c0,0 5.367,-8.87112 11.08489,-11.8111c10.21915,-5.2544 11.4209,5.49326 11.4209,5.49326c0.15672,2.03124 -0.8943,3.22335 -0.8943,3.22335c0,0 3.92132,5.40091 0.67531,8.02299c-2.18885,1.76813 -6.54833,-3.53012 -6.54833,-3.53012l-1.69898,1.00925c0,0 4.5381,5.96319 -0.1866,8.29595c-3.46774,1.71215 -6.10538,-5.68283 -6.10538,-5.68283l-2.74767,0.80264c0,0 -4.53863,5.61376 -7.31225,2.23292c-2.13031,-2.5967 2.31244,-8.05632 2.31244,-8.05632z" fill="#ffab19" fill-rule="nonzero" stroke="#001026" stroke-width="1.2" stroke-linecap="round" stroke-linejoin="miter"/></g></g></svg>