<svg version="1.1" xmlns="http://www.w3.org/2000/svg" xmlns:xlink="http://www.w3.org/1999/xlink" width="323.92859" height="323.92859" viewBox="0,0,323.92859,323.92859"><g transform="translate(-78.0357,-18.0357)"><g stroke-miterlimit="10"><g stroke-linecap="butt"><path d="M287.05093,300.69279l4.37749,-69.80064l45.02029,-0.10411l-6.86993,69.90475z" fill="#868995" stroke="#000000" stroke-width="1.2"/><g><g><g><g fill="#868995" stroke="#000000" stroke-width="1.2"><path d="M314.13359,264.21571c0,0 -14.71488,0.3452 -16.54198,-1.91087c-1.40985,-1.74086 0.46249,-24.77184 2.15979,-26.4586c1.7424,-1.73158 16.44297,-1.76388 16.44297,-1.76388"/></g><g fill="none" stroke="none" stroke-width="1" font-family="sans-serif" font-weight="normal" font-size="12" text-anchor="start"/><g fill="none" stroke="none" stroke-width="1" font-family="sans-serif" font-weight="normal" font-size="12" text-anchor="start"/></g><g><g fill="#868995" stroke="#000000" stroke-width="1.2"><path d="M316.08632,234.08236c0,0 14.6953,0.0323 16.15501,1.76388c1.42192,1.68676 -0.46573,24.71773 -2.15979,26.45859c-2.19541,2.25607 -16.85394,1.91088 -16.85394,1.91088"/></g><g fill="none" stroke="none" stroke-width="1" font-family="sans-serif" font-weight="normal" font-size="12" text-anchor="start"/><g fill="none" stroke="none" stroke-width="1" font-family="sans-serif" font-weight="normal" font-size="12" text-anchor="start"/></g></g><g><g><g fill="#4e4f56" stroke="#000000" stroke-width="1.2"><path d="M314.22497,262.44252c0,0 -12.98201,0.30455 -14.59394,-1.68584c-1.24382,-1.53585 0.40802,-21.85463 1.90544,-23.34275c1.53721,-1.52767 14.5066,-1.55616 14.5066,-1.55616"/></g><g fill="none" stroke="none" stroke-width="1" font-family="sans-serif" font-weight="normal" font-size="12" text-anchor="start"/><g fill="none" stroke="none" stroke-width="1" font-family="sans-serif" font-weight="normal" font-size="12" text-anchor="start"/></g><g><g fill="#4e4f56" stroke="#000000" stroke-width="1.2"><path d="M315.94775,235.85777c0,0 12.96474,0.0285 14.25254,1.55616c1.25447,1.48812 -0.41089,21.8069 -1.90545,23.34275c-1.93687,1.99039 -14.86917,1.68584 -14.86917,1.68584"/></g><g fill="none" stroke="none" stroke-width="1" font-family="sans-serif" font-weight="normal" font-size="12" text-anchor="start"/><g fill="none" stroke="none" stroke-width="1" font-family="sans-serif" font-weight="normal" font-size="12" text-anchor="start"/></g></g><g><g><g fill="#9497a4" stroke="#000000" stroke-width="1.2"><path d="M314.68197,253.57662c0,0 -4.31767,0.10129 -4.85378,-0.56069c-0.41368,-0.51081 0.1357,-7.26859 0.63373,-7.76352c0.51126,-0.50808 4.82472,-0.51756 4.82472,-0.51756"/></g><g fill="none" stroke="none" stroke-width="1" font-family="sans-serif" font-weight="normal" font-size="12" text-anchor="start"/><g fill="none" stroke="none" stroke-width="1" font-family="sans-serif" font-weight="normal" font-size="12" text-anchor="start"/></g><g><g fill="#9497a4" stroke="#000000" stroke-width="1.2"><path d="M315.25494,244.73484c0,0 4.31192,0.00948 4.74023,0.51756c0.41723,0.49493 -0.13665,7.25272 -0.63373,7.76352c-0.64418,0.66198 -4.94531,0.56069 -4.94531,0.56069"/></g><g fill="none" stroke="none" stroke-width="1" font-family="sans-serif" font-weight="normal" font-size="12" text-anchor="start"/><g fill="none" stroke="none" stroke-width="1" font-family="sans-serif" font-weight="normal" font-size="12" text-anchor="start"/></g></g></g><g><g><g><g fill="#868995" stroke="#000000" stroke-width="1.2"><path d="M311.59361,294.79086c0,0 -11.16273,0.26187 -12.54877,-1.44959c-1.06951,-1.32062 0.35084,-18.79196 1.63841,-20.07154c1.32179,-1.31358 12.47367,-1.33808 12.47367,-1.33808"/></g><g fill="none" stroke="none" stroke-width="1" font-family="sans-serif" font-weight="normal" font-size="12" text-anchor="start"/><g fill="none" stroke="none" stroke-width="1" font-family="sans-serif" font-weight="normal" font-size="12" text-anchor="start"/></g><g><g fill="#868995" stroke="#000000" stroke-width="1.2"><path d="M313.07496,271.93165c0,0 11.14788,0.0245 12.25522,1.33808c1.07867,1.27958 -0.3533,18.75092 -1.63842,20.07154c-1.66544,1.71146 -12.78544,1.44959 -12.78544,1.44959"/></g><g fill="none" stroke="none" stroke-width="1" font-family="sans-serif" font-weight="normal" font-size="12" text-anchor="start"/><g fill="none" stroke="none" stroke-width="1" font-family="sans-serif" font-weight="normal" font-size="12" text-anchor="start"/></g></g><g><g><g fill="#4e4f56" stroke="#000000" stroke-width="1.2"><path d="M311.66294,293.44572c0,0 -9.84817,0.23103 -11.07098,-1.27888c-0.94357,-1.1651 0.30953,-16.57896 1.44547,-17.70785c1.16613,-1.15889 11.00473,-1.18051 11.00473,-1.18051"/></g><g fill="none" stroke="none" stroke-width="1" font-family="sans-serif" font-weight="normal" font-size="12" text-anchor="start"/><g fill="none" stroke="none" stroke-width="1" font-family="sans-serif" font-weight="normal" font-size="12" text-anchor="start"/></g><g><g fill="#4e4f56" stroke="#000000" stroke-width="1.2"><path d="M312.96985,273.27848c0,0 9.83507,0.02162 10.812,1.18051c0.95164,1.12889 -0.3117,16.54275 -1.44547,17.70785c-1.46932,1.50991 -11.27978,1.27888 -11.27978,1.27888"/></g><g fill="none" stroke="none" stroke-width="1" font-family="sans-serif" font-weight="normal" font-size="12" text-anchor="start"/><g fill="none" stroke="none" stroke-width="1" font-family="sans-serif" font-weight="normal" font-size="12" text-anchor="start"/></g></g><g><g><g fill="#9497a4" stroke="#000000" stroke-width="1.2"><path d="M312.00961,286.72003c0,0 -3.27538,0.07683 -3.68208,-0.42534c-0.31382,-0.3875 0.10295,-5.51397 0.48075,-5.88942c0.38784,-0.38543 3.66004,-0.39263 3.66004,-0.39263"/></g><g fill="none" stroke="none" stroke-width="1" font-family="sans-serif" font-weight="normal" font-size="12" text-anchor="start"/><g fill="none" stroke="none" stroke-width="1" font-family="sans-serif" font-weight="normal" font-size="12" text-anchor="start"/></g><g><g fill="#9497a4" stroke="#000000" stroke-width="1.2"><path d="M312.44426,280.01264c0,0 3.27103,0.00719 3.59595,0.39263c0.31651,0.37545 -0.10367,5.50192 -0.48075,5.88942c-0.48867,0.50218 -3.75152,0.42534 -3.75152,0.42534"/></g><g fill="none" stroke="none" stroke-width="1" font-family="sans-serif" font-weight="normal" font-size="12" text-anchor="start"/><g fill="none" stroke="none" stroke-width="1" font-family="sans-serif" font-weight="normal" font-size="12" text-anchor="start"/></g></g></g></g><g stroke-linecap="butt"><path d="M150.4212,300.69279l-6.86992,-69.90475l45.02029,0.10411l4.37749,69.80064z" fill="#868995" stroke="#000000" stroke-width="1.2"/><g><g><g><g fill="#868995" stroke="#000000" stroke-width="1.2"><path d="M163.80563,234.08236c0,0 14.70057,0.0323 16.44297,1.76388c1.6973,1.68676 3.56964,24.71773 2.15979,26.45859c-1.82709,2.25607 -16.54198,1.91087 -16.54198,1.91087"/></g><g fill="none" stroke="none" stroke-width="1" font-family="sans-serif" font-weight="normal" font-size="12" text-anchor="start"/><g fill="none" stroke="none" stroke-width="1" font-family="sans-serif" font-weight="normal" font-size="12" text-anchor="start"/></g><g><g fill="#868995" stroke="#000000" stroke-width="1.2"><path d="M166.77241,264.21571c0,0 -14.65853,0.3452 -16.85394,-1.91087c-1.69406,-1.74086 -3.58171,-24.77183 -2.15979,-26.45859c1.45971,-1.73158 16.15501,-1.76388 16.15501,-1.76388"/></g><g fill="none" stroke="none" stroke-width="1" font-family="sans-serif" font-weight="normal" font-size="12" text-anchor="start"/><g fill="none" stroke="none" stroke-width="1" font-family="sans-serif" font-weight="normal" font-size="12" text-anchor="start"/></g></g><g><g><g fill="#4e4f56" stroke="#000000" stroke-width="1.2"><path d="M163.95692,235.85777c0,0 12.96939,0.0285 14.5066,1.55616c1.49742,1.48812 3.14926,21.8069 1.90544,23.34275c-1.61193,1.99039 -14.59394,1.68584 -14.59394,1.68584"/></g><g fill="none" stroke="none" stroke-width="1" font-family="sans-serif" font-weight="normal" font-size="12" text-anchor="start"/><g fill="none" stroke="none" stroke-width="1" font-family="sans-serif" font-weight="normal" font-size="12" text-anchor="start"/></g><g><g fill="#4e4f56" stroke="#000000" stroke-width="1.2"><path d="M166.57432,262.44252c0,0 -12.93229,0.30455 -14.86917,-1.68584c-1.49456,-1.53585 -3.15992,-21.85463 -1.90544,-23.34275c1.28781,-1.52766 14.25254,-1.55616 14.25254,-1.55616"/></g><g fill="none" stroke="none" stroke-width="1" font-family="sans-serif" font-weight="normal" font-size="12" text-anchor="start"/><g fill="none" stroke="none" stroke-width="1" font-family="sans-serif" font-weight="normal" font-size="12" text-anchor="start"/></g></g><g><g><g fill="#9497a4" stroke="#000000" stroke-width="1.2"><path d="M164.71335,244.73484c0,0 4.31347,0.00948 4.82472,0.51756c0.49803,0.49493 1.04741,7.25272 0.63373,7.76352c-0.53611,0.66198 -4.85377,0.56069 -4.85377,0.56069"/></g><g fill="none" stroke="none" stroke-width="1" font-family="sans-serif" font-weight="normal" font-size="12" text-anchor="start"/><g fill="none" stroke="none" stroke-width="1" font-family="sans-serif" font-weight="normal" font-size="12" text-anchor="start"/></g><g><g fill="#9497a4" stroke="#000000" stroke-width="1.2"><path d="M165.58387,253.57662c0,0 -4.30113,0.10129 -4.94531,-0.56069c-0.49707,-0.51081 -1.05095,-7.26859 -0.63373,-7.76352c0.42831,-0.50808 4.74023,-0.51756 4.74023,-0.51756"/></g><g fill="none" stroke="none" stroke-width="1" font-family="sans-serif" font-weight="normal" font-size="12" text-anchor="start"/><g fill="none" stroke="none" stroke-width="1" font-family="sans-serif" font-weight="normal" font-size="12" text-anchor="start"/></g></g></g><g><g><g><g fill="#868995" stroke="#000000" stroke-width="1.2"><path d="M166.84307,271.93165c0,0 11.15188,0.0245 12.47367,1.33808c1.28757,1.27958 2.70793,18.75092 1.63842,20.07154c-1.38604,1.71146 -12.54877,1.44959 -12.54877,1.44959"/></g><g fill="none" stroke="none" stroke-width="1" font-family="sans-serif" font-weight="normal" font-size="12" text-anchor="start"/><g fill="none" stroke="none" stroke-width="1" font-family="sans-serif" font-weight="normal" font-size="12" text-anchor="start"/></g><g><g fill="#868995" stroke="#000000" stroke-width="1.2"><path d="M169.09368,294.79086c0,0 -11.11999,0.26187 -12.78543,-1.44959c-1.28511,-1.32062 -2.71709,-18.79196 -1.63842,-20.07153c1.10733,-1.31358 12.25522,-1.33808 12.25522,-1.33808"/></g><g fill="none" stroke="none" stroke-width="1" font-family="sans-serif" font-weight="normal" font-size="12" text-anchor="start"/><g fill="none" stroke="none" stroke-width="1" font-family="sans-serif" font-weight="normal" font-size="12" text-anchor="start"/></g></g><g><g><g fill="#4e4f56" stroke="#000000" stroke-width="1.2"><path d="M166.95783,273.27848c0,0 9.8386,0.02162 11.00473,1.18051c1.13595,1.12889 2.38904,16.54275 1.44547,17.70785c-1.22281,1.50991 -11.07099,1.27888 -11.07099,1.27888"/></g><g fill="none" stroke="none" stroke-width="1" font-family="sans-serif" font-weight="normal" font-size="12" text-anchor="start"/><g fill="none" stroke="none" stroke-width="1" font-family="sans-serif" font-weight="normal" font-size="12" text-anchor="start"/></g><g><g fill="#4e4f56" stroke="#000000" stroke-width="1.2"><path d="M168.9434,293.44572c0,0 -9.81046,0.23103 -11.27978,-1.27888c-1.13378,-1.1651 -2.39712,-16.57896 -1.44547,-17.70785c0.97693,-1.15889 10.812,-1.18051 10.812,-1.18051"/></g><g fill="none" stroke="none" stroke-width="1" font-family="sans-serif" font-weight="normal" font-size="12" text-anchor="start"/><g fill="none" stroke="none" stroke-width="1" font-family="sans-serif" font-weight="normal" font-size="12" text-anchor="start"/></g></g><g><g><g fill="#9497a4" stroke="#000000" stroke-width="1.2"><path d="M167.53167,280.01264c0,0 3.2722,0.00719 3.66005,0.39262c0.3778,0.37545 0.79457,5.50193 0.48075,5.88942c-0.40669,0.50218 -3.68208,0.42534 -3.68208,0.42534"/></g><g fill="none" stroke="none" stroke-width="1" font-family="sans-serif" font-weight="normal" font-size="12" text-anchor="start"/><g fill="none" stroke="none" stroke-width="1" font-family="sans-serif" font-weight="normal" font-size="12" text-anchor="start"/></g><g><g fill="#9497a4" stroke="#000000" stroke-width="1.2"><path d="M168.19205,286.72003c0,0 -3.26285,0.07684 -3.75152,-0.42534c-0.37708,-0.3875 -0.79725,-5.51397 -0.48074,-5.88942c0.32492,-0.38543 3.59594,-0.39262 3.59594,-0.39262"/></g><g fill="none" stroke="none" stroke-width="1" font-family="sans-serif" font-weight="normal" font-size="12" text-anchor="start"/><g fill="none" stroke="none" stroke-width="1" font-family="sans-serif" font-weight="normal" font-size="12" text-anchor="start"/></g></g></g></g><path d="M187.3461,300.92055l-3.94905,-103.37655h113.20589l-3.94904,103.37655z" fill="#868995" stroke="#000000" stroke-width="1.2" stroke-linecap="butt"/><path d="M192.35429,176.07741" fill="none" stroke="#000000" stroke-width="1.2" stroke-linecap="round"/><path d="M200.34224,180.47577" fill="none" stroke="#000000" stroke-width="1.2" stroke-linecap="round"/><g><g stroke-linecap="round"><g stroke="#000000" stroke-width="1.2"><path d="M202.59453,158.58553c-15.83761,-2.51459 -27.67439,-33.08604 -27.67439,-33.08604c10.01851,-1.65407 14.22816,2.06625 14.76937,2.41929c0.54136,0.35389 10.55227,8.33404 10.55227,8.33404c-0.63152,13.44785 2.35274,22.33271 2.35274,22.33271zM200.58474,133.38873c0,0 -0.32285,2.0419 -0.35622,3.14849M202.59453,158.58553c0.29962,0.89407 1.12667,2.27206 1.12667,2.27206" fill="#be1e2d"/><path d="M196.03757,155.49186c-3.01213,-1.92313 -6.69894,-4.96006 -10.24171,-9.66356c-3.15867,-4.19388 -6.4863,-10.77426 -8.61269,-15.31006l0.06209,-0.06876c6.17178,-1.42955 9.95504,2.605 9.95504,2.605l0.23659,0.32449c1.58078,2.40213 3.26912,4.80989 4.62159,6.3382c0.79847,0.90377 1.64343,1.68757 2.42849,2.33732c0,0 1.70337,4.19101 2.08646,7.16223c0.57276,4.39466 -0.66033,6.21048 -0.66033,6.21048z" fill="#929497"/></g><path d="M264.36548,168.50332l-10.46579,8.9134l-24.2205,1.37093l-10.09556,4.93583l-15.61977,-3.90762l-6.96661,-7.99445l-6.10659,-9.66886l-3.89194,-12.31479l0.08022,-12.31072l2.65881,-9.48946l4.46043,-9.36379l6.25983,-8.55988l7.17009,-7.72369l8.04087,-7.17228l5.67554,-4.15529l2.41707,-2.9204l2.58343,-4.74022l1.6711,-4.56455l1.31121,-6.12479l-0.65799,-8.16181l4.77188,5.47803l4.99693,7.10102l0.07317,-3.92405l1.06324,2.1033l4.15874,6.6207l5.80226,6.23145l3.79855,2.91012l5.5363,4.31336l6.73843,5.19236l6.08436,6.03996l5.06637,6.48886l4.4123,7.33646l3.29201,7.04765l1.19465,7.50281l0.58956,7.59069l-0.93556,6.60812l-2.26416,8.15575l-2.84505,5.07927l-4.93448,6.88471z" fill="#be1e2d" stroke="#8c8c8c" stroke-width="0"/><path d="M275.17684,169.43885l-10.86115,-0.85685l-10.44575,9.07156l-24.15874,1.10112l-10.1046,4.89259l-14.85493,-3.20302c0,0 -49.4081,-41.14577 16.29795,-88.81966c0,0 11.47308,-11.81363 7.13475,-27.82213c-0.35285,-1.30203 10.06567,13.2941 10.06567,13.2941c0,0 -0.23036,-5.31063 0.01257,-4.65324c2.69218,7.28541 11.83793,16.40492 11.83793,16.40492c56.75888,36.00569 29.93064,74.72644 29.93064,74.72644z" fill="none" stroke="#000000" stroke-width="1.2"/><g stroke="#000000" stroke-width="1.2"><path d="M277.52002,125.1353c0,0 7.81157,-11.3825 8.25557,-11.92914c0.44409,-0.54583 3.62756,-5.6557 14.12479,-8.49491c0,0 -3.36119,32.20816 -18.52973,41.2468c0,0 0.52017,-9.16459 -3.85065,-20.82275zM277.61238,125.38189c-0.34104,-0.96731 -1.23209,-2.6399 -1.23209,-2.6399M280.87343,148.45792c0,0 0.44556,-1.57793 0.49722,-2.49987" fill="#be1e2d"/><path d="M287.18679,140.28419c0,0 -1.74016,-1.08076 -2.3879,-5.22548c-0.4421,-2.80044 0.09951,-7.25052 0.09951,-7.25052c0.60594,-0.91384 1.23462,-1.97238 1.78337,-3.11734c0.93021,-1.93713 1.95242,-4.79881 2.86846,-7.60927l0.14685,-0.38955c0,0 2.66892,-5.20531 9.24972,-6.59016l0.08132,0.0343c-0.86959,4.93778 -2.37435,12.20564 -4.37321,17.28384c-2.24205,5.69538 -5.09164,9.97426 -7.57489,12.97506z" fill="#929497"/></g></g><g><g><path d="M273.99049,147.58263c2.22371,15.66997 -12.91238,30.77678 -33.8074,33.74197c-20.89504,2.9652 -39.63649,-7.33405 -41.8602,-23.00403c-2.22371,-15.66997 12.91237,-30.77678 33.8074,-33.74197c20.89504,-2.9652 39.63649,7.33405 41.8602,23.00403z" fill="#e6e7e8" stroke="#000000" stroke-width="1.2" stroke-linecap="butt"/><path d="M215.18035,181.10425l2.27172,2.61313l2.83965,1.68029l-1.81068,0.63572l-4.37515,-0.51544l-4.05605,-1.79175l-1.8399,-2.39033l-4.89331,-2.05171l-3.6901,-2.03307l0.2384,2.36765c-5.73945,-9.23174 -14.89013,-18.61245 -12.89048,-32.00903c25.54244,-31.183 70.86986,-40.40436 88.70425,-9.15182c0.23848,0.41791 0.46297,0.83556 0.67402,1.25296c0.16583,0.63438 0.28985,1.22865 0.35706,1.76956c0.76022,6.11867 0.67685,12.19981 0.90527,18.39617c0.01504,0.40825 -0.03441,0.86694 -0.12435,1.35217l-0.793,1.37267l-0.35717,-1.42107l-2.0271,5.43882l-4.39539,5.1862l-2.84379,1.87532l-0.13645,-4.24873l-0.66651,-5.79244l-1.11243,-4.55177l-1.08746,0.00714l0.25255,-1.50759l0.88047,-3.65716l-0.42082,-4.06121l-1.24438,-4.38586l-3.83563,-4.01813l-6.23348,-3.38352l-8.07172,-2.09241l-9.27978,-0.74357l2.45018,0.8297l3.91527,2.38791l2.32046,3.20291l-17.38107,-1.94874l-16.79184,-2.17952l-0.35266,2.99357l-2.05668,6.32607l-1.96568,5.87163l0.75752,5.338l3.32828,4.82602l4.4954,3.18862l-3.11905,1.03133l-2.74367,0.38935l0.49136,3.46249l2.20899,3.51309l2.45242,3.03701l2.69586,2.56094z" fill="#be1e2d" stroke="#8c8c8c" stroke-width="0" stroke-linecap="butt"/><path d="M210.03167,137.49924c-0.4964,8.04323 -4.82394,12.60159 -4.22671,16.75393c1.22929,8.54694 8.72829,11.46466 8.72829,11.46466c0,0 -5.07034,3.21881 -11.44833,0.14114" fill="none" stroke="#000000" stroke-width="1.2" stroke-linecap="round"/><path d="M197.90965,157.92396c-0.84055,-1.53031 -1.66873,-3.29806 -2.47248,-5.33642" fill="none" stroke="#000000" stroke-width="1.2" stroke-linecap="round"/><path d="M203.48851,135.76159c15.67645,3.97584 41.20339,5.44488 41.20339,5.44488c0,0 -2.98077,-4.13459 -8.80014,-5.96553c0,0 36.1923,-1.12269 27.45736,24.17677c0,0 3.44635,-2.13014 5.63842,-5.98477" fill="none" stroke="#000000" stroke-width="1.2" stroke-linecap="round"/><path d="M270.31917,144.31358c0.36513,1.76744 0.56364,2.58586 0.29354,4.07361" fill="none" stroke="#000000" stroke-width="1.2" stroke-linecap="round"/><path d="M275.4706,161.9321c-1.32525,6.86165 -8.95551,11.62189 -8.95551,11.62189c0,0 0.15356,-9.75533 -2.09442,-14.75882" fill="none" stroke="#000000" stroke-width="1.2" stroke-linecap="round"/><path d="M197.38972,157.70252c-3.70644,7.96961 2.56707,21.59243 2.56707,21.59243c0,0 -17.4155,-19.9195 -12.55554,-32.75086" fill="none" stroke="#000000" stroke-width="1.2" stroke-linecap="round"/><path d="M278.21392,159.5314c-1.20547,2.49923 -2.20029,3.89197 -2.20029,3.89197c0,0 0.12956,-9.73006 -5.43025,-14.91277" fill="none" stroke="#000000" stroke-width="1.2" stroke-linecap="round"/><path d="M208.79491,167.31633c-0.51682,6.81249 7.92975,12.67606 7.92975,12.67606c0,0 -10.24051,3.36441 -17.53737,-3.31412" fill="none" stroke="#000000" stroke-width="1.2" stroke-linecap="round"/><path d="M214.47697,180.59053c1.46046,3.11844 5.94084,4.79153 5.94084,4.79153c0,0 -8.16442,2.64694 -13.10722,-4.56077" fill="none" stroke="#000000" stroke-width="1.2" stroke-linecap="round"/></g><g><path d="M257.55616,148.53134c0.53906,-0.10962 0.89061,0.68072 1.03486,1.01515c0.54086,1.25401 0.5771,2.80979 -0.32425,3.88058l-0.40183,0.10782c-0.17625,0.09025 -0.4327,0.1381 -0.79273,0.12246c-3.02906,-0.13155 -5.68916,-0.30753 -8.64377,0.94157c-0.84766,0.35836 -2.29809,1.82027 -3.02363,1.99135c-0.93065,0.21944 -1.29005,-0.00282 -1.5095,-0.93346c-0.21414,-0.90814 1.47442,-1.74978 2.08091,-2.08731c2.11147,-1.1751 4.52473,-1.8717 6.93836,-2.15965c0.47497,-0.51807 0.71532,-1.1227 0.9883,-1.86676c0.07852,-0.21402 0.40593,-1.04912 0.49494,-1.06595c0.99966,-0.18898 1.24274,1.49586 1.24768,2.75719c0.26468,0.0007 0.53285,0.01024 0.78016,0.03459c0.3575,-1.10634 0.74474,-2.65915 1.13052,-2.73759z" fill="#000000" stroke="none" stroke-width="0.5" stroke-linecap="butt"/><path d="M219.61689,158.28698c0.20369,-0.1298 0.43013,-0.2529 0.65652,-0.36533c-0.41323,-1.31846 -0.76278,-3.1794 0.15567,-3.40402c0.08179,-0.02001 0.63851,0.71336 0.77657,0.90358c0.48,0.66135 0.88591,1.19092 1.46404,1.53115c2.16183,-0.71805 4.4586,-1.00945 6.65536,-0.67414c0.63099,0.09631 2.35528,0.26208 2.47251,1.30022c0.12014,1.06387 -0.11403,1.44749 -0.98346,1.61121c-0.67783,0.12764 -2.40353,-0.78596 -3.2479,-0.80223c-2.94315,-0.05673 -5.16245,1.24947 -7.71237,2.66506c-0.30308,0.16826 -0.53849,0.22656 -0.71926,0.20675l-0.37973,0.05704c-1.12615,-0.73714 -1.61004,-2.37609 -1.56202,-3.91305c0.01281,-0.4099 0.05224,-1.38309 0.55005,-1.49618c0.35627,-0.08092 1.20174,1.37621 1.87402,2.37996z" fill="#000000" stroke="none" stroke-width="0.5" stroke-linecap="butt"/><path d="M251.30306,164.29739c-9.2962,10.05181 -22.36458,6.71067 -22.36458,6.71067" fill="none" stroke="#000000" stroke-width="1.2" stroke-linecap="round"/></g></g></g><path d="M266.95966,164.10718" fill="none" stroke="#000000" stroke-width="1.2" stroke-linecap="round"/><g stroke="#000000" stroke-width="1.2" stroke-linecap="butt"><g fill="#868995"><path d="M240.75084,244.52208c0,0 -41.94558,0.42456 -44.92372,-2.35022c-2.29803,-2.14112 -2.30937,-30.46732 0,-32.5419c2.37074,-2.1297 44.33295,-2.16943 44.33295,-2.16943"/><path d="M239.83992,207.46053c0,0 41.96221,0.03973 44.33295,2.16943c2.30938,2.07458 2.29804,30.40079 0,32.5419c-2.97814,2.77478 -44.92372,2.35022 -44.92372,2.35022"/></g><g fill="#4e4f56"><path d="M240.71252,242.4088c0,0 -39.80476,0.37611 -42.6309,-2.08203c-2.18075,-1.89678 -2.19151,-26.99059 0,-28.82843c2.24974,-1.88667 42.07028,-1.92187 42.07028,-1.92187"/><path d="M239.84809,209.57647c0,0 39.82055,0.0352 42.07029,1.92187c2.19151,1.83784 2.18075,26.93165 0,28.82843c-2.82614,2.45814 -42.63091,2.08203 -42.63091,2.08203"/></g><g fill="#9497a4"><path d="M240.2322,231.45282c0,0 -12.9719,0.12494 -13.8929,-0.69163c-0.71068,-0.6301 -0.71419,-8.96603 0,-9.57654c0.73316,-0.62673 13.7102,-0.63843 13.7102,-0.63843"/><path d="M239.9505,220.54623c0,0 12.97703,0.0117 13.7102,0.63843c0.71418,0.61051 0.71068,8.94644 0,9.57654c-0.92101,0.81657 -13.8929,0.69163 -13.8929,0.69163"/></g></g><g stroke="#000000" stroke-width="1.2" stroke-linecap="butt"><g fill="#868995"><path d="M240.65981,285.68288c0,0 -36.86021,0.37309 -39.47728,-2.06529c-2.01943,-1.88153 -2.02939,-26.77355 0,-28.59661c2.08332,-1.8715 38.95814,-1.90641 38.95814,-1.90641"/><path d="M239.85933,253.11457c0,0 36.87483,0.03491 38.95815,1.90641c2.02939,1.82306 2.01943,26.71508 0,28.59661c-2.61708,2.43837 -39.47729,2.06528 -39.47729,2.06528"/></g><g fill="#4e4f56"><path d="M240.62614,283.8258c0,0 -34.97894,0.33051 -37.46244,-1.82961c-1.91636,-1.66682 -1.92582,-23.71832 0,-25.33335c1.97699,-1.65794 36.96979,-1.68887 36.96979,-1.68887"/><path d="M239.86651,254.97398c0,0 34.99281,0.03093 36.9698,1.68887c1.92582,1.61503 1.91636,23.66653 0,25.33335c-2.48351,2.16012 -37.46245,1.82961 -37.46245,1.82961"/></g><g fill="#9497a4"><path d="M240.20405,274.1981c0,0 -11.39922,0.10979 -12.20856,-0.60778c-0.62452,-0.5537 -0.6276,-7.87901 0,-8.4155c0.64428,-0.55075 12.04801,-0.56103 12.04801,-0.56103"/><path d="M239.9565,264.61379c0,0 11.40373,0.01028 12.04801,0.56103c0.6276,0.53649 0.62452,7.8618 0,8.41551c-0.80934,0.71757 -12.20856,0.60777 -12.20856,0.60777"/></g></g><g stroke="#000000" stroke-width="1.2"><path d="M230.07778,178.63596c0.19085,-0.0302 0.37415,-0.05415 0.55007,-0.07206c0.29024,-0.08192 0.60166,-0.09682 0.90952,-0.0388c6.82982,0.17276 -0.96082,12.05761 -3.49708,12.88031c-2.15077,0.69765 -6.78232,-0.76286 -5.91747,-3.93541c0.31216,-1.14508 6.8427,-8.40866 7.90164,-8.75216z" fill="#be1e2d" stroke-linecap="butt"/><g><path d="M222.34838,195.77212c-0.22972,-0.23725 -2.94013,-3.21691 -2.94013,-3.21691c0,0 0.87725,5.03168 -2.38626,6.40562c-1.76705,0.74393 -5.62682,0.16986 -7.65438,0.32794c0,0 -2.32059,0.17914 -2.60516,-2.14956c-0.28457,-2.3287 2.03602,-2.50783 2.03602,-2.50783c0.44947,-0.03438 1.01363,-0.01541 1.62666,0.02045c2.27593,-5.98803 3.32535,-15.85863 11.75868,-10.78639c3.46171,2.08205 4.22249,2.90403 4.22249,2.90403c0,0 2.724,-10.04095 7.40675,-9.42828c15.28305,1.99956 10.16656,19.97177 4.24983,20.62974c-8.97633,0.99821 -12.91749,0.68982 -15.71452,-2.19881z" fill="#be1e2d" stroke-linecap="butt"/><path d="M228.15998,191.84932c-0.69902,-3.20306 1.50131,-14.1335 6.51475,-10.78277c3.94643,2.63759 2.1664,8.33619 0.72069,11.27005c-1.62743,3.30266 -6.47783,2.98429 -7.23544,-0.48728z" fill="#e6e7e8" stroke-linecap="round"/></g><path d="M239.86588,180.09384c1.1018,-1.58434 3.7537,-1.18759 4.86386,-0.84674c3.14682,0.96615 3.39378,3.66846 4.16637,6.67218c0.672,2.61271 1.90663,5.50079 3.71087,7.07516c3.35285,0.87774 9.11302,-0.09053 8.40072,4.34581c-0.17079,1.06366 -5.99173,1.54055 -8.24291,1.6162c1.57098,2.40989 -0.839,2.72103 -3.04667,1.46096c-0.90547,-0.51682 -3.07135,-1.32729 -4.5439,-2.87032c-1.47255,-1.54303 -0.63568,-2.36486 -0.85058,-3.57746c-0.48758,-2.75101 -1.69368,-3.85461 -2.60598,-6.36734" fill="#be1e2d" stroke-linecap="butt"/><path d="M222.01096,183.81384c-0.20167,1.27292 -1.69844,1.63144 -1.69844,1.63144c0,0 -1.06589,2.43562 -4.73183,3.24193c-4.93855,1.08622 -6.41746,-5.19047 -1.72385,-7.53982c0,0 3.9049,-2.56991 6.02182,-1.93709c0.7102,0.2123 0.75628,1.26761 1.11176,1.95597c0.71308,1.38082 1.22221,1.37465 1.02054,2.64757z" fill="#be1e2d" stroke-linecap="butt"/></g><path d="M238.74769,197.16927c4.0144,4.5011 7.02619,15.94937 0.21017,15.59516c-1.04251,-0.05417 -1.88992,-0.87002 -2.83487,-1.30504c-1.42569,-2.19104 -2.11858,-4.55823 -3.57905,-6.7318c-1.35559,-2.01751 -3.94329,-3.93894 -4.65179,-6.27657c-1.37944,-4.55131 5.69381,-7.78987 9.66909,-5.5104" fill="#be1e2d" stroke="#000000" stroke-width="1.2" stroke-linecap="butt"/><path d="M78.0357,341.9643v-323.92859h323.92859v323.92859z" fill="none" stroke="#000000" stroke-width="0" stroke-linecap="butt"/></g></g></svg>