<svg version="1.1" xmlns="http://www.w3.org/2000/svg" xmlns:xlink="http://www.w3.org/1999/xlink" width="269.52461" height="104.51617" viewBox="0,0,269.52461,104.51617"><g transform="translate(-193.98153,-128.25777)"><g stroke-miterlimit="10"><path d="" fill="#ffab19" fill-rule="nonzero" stroke="#001026" stroke-width="1.2" stroke-linecap="round" stroke-linejoin="miter"/><g fill-rule="nonzero" stroke="#001026" stroke-width="1.2" stroke-linecap="round" stroke-linejoin="miter"><path d="" fill="#ffab19"/><path d="" fill="none"/><path d="" fill="none"/><path d="" fill="none"/><path d="" fill="#ffab19"/></g><path d="" fill="#ffab19" fill-rule="nonzero" stroke="#000000" stroke-width="1.2" stroke-linecap="butt" stroke-linejoin="miter"/><g fill-rule="nonzero" stroke="#000000" stroke-width="1.2" stroke-linejoin="miter"><path d="" fill="#5c5e5f" stroke-linecap="butt"/><g stroke-linecap="round"><path d="" fill="#ffab19"/><path d="" fill="#ffab19"/><path d="" fill="none"/><path d="" fill="none"/></g><path d="" fill="#5c5e5f" stroke-linecap="round"/></g><g fill-rule="evenodd"><path d="" fill="#ffab19" stroke="#001026" stroke-width="1.2" stroke-linecap="round" stroke-linejoin="round"/><path d="" fill="#ffffff" stroke="none" stroke-width="1" stroke-linecap="butt" stroke-linejoin="miter"/></g><g fill-rule="nonzero" stroke-linecap="round" stroke-linejoin="miter"><path d="" fill="#ffab19" stroke="#001026" stroke-width="1.2"/><path d="" fill="#ffffff" stroke="#000000" stroke-width="0"/></g><g><path d="" fill="#9b7f41" fill-rule="nonzero" stroke="#001026" stroke-width="1.2" stroke-linecap="round" stroke-linejoin="miter"/><path d="" fill="#ffab19" fill-rule="nonzero" stroke="#001026" stroke-width="1.2" stroke-linecap="round" stroke-linejoin="miter"/><path d="" fill="#ffab19" fill-rule="nonzero" stroke="#001026" stroke-width="1.2" stroke-linecap="round" stroke-linejoin="miter"/><path d="" fill="#ffab19" fill-rule="evenodd" stroke="#001026" stroke-width="1.2" stroke-linecap="butt" stroke-linejoin="miter"/><path d="" fill="#ffffff" fill-rule="evenodd" stroke="none" stroke-width="1" stroke-linecap="butt" stroke-linejoin="miter"/><path d="" fill="#001026" fill-rule="evenodd" stroke="#001026" stroke-width="1.2" stroke-linecap="round" stroke-linejoin="round"/><path d="" fill="none" fill-rule="evenodd" stroke="#001026" stroke-width="1.2" stroke-linecap="round" stroke-linejoin="round"/><path d="" fill="none" fill-rule="evenodd" stroke="#001026" stroke-width="1.2" stroke-linecap="round" stroke-linejoin="round"/><path d="" fill="none" fill-rule="nonzero" stroke="#001026" stroke-width="1.2" stroke-linecap="round" stroke-linejoin="miter"/><path d="" fill="#c58600" fill-rule="nonzero" stroke="#001026" stroke-width="1.2" stroke-linecap="round" stroke-linejoin="miter"/><path d="" fill="#ffffff" fill-rule="evenodd" stroke="#001026" stroke-width="1.2" stroke-linecap="round" stroke-linejoin="round"/><path d="" fill="#001026" fill-rule="evenodd" stroke="none" stroke-width="1" stroke-linecap="butt" stroke-linejoin="miter"/><path d="" fill="none" fill-rule="nonzero" stroke="#001026" stroke-width="0.75" stroke-linecap="round" stroke-linejoin="miter"/><path d="" fill="#ffab19" fill-rule="nonzero" stroke="#001026" stroke-width="1.2" stroke-linecap="round" stroke-linejoin="miter"/><path d="" fill="none" fill-rule="nonzero" stroke="#001026" stroke-width="1.2" stroke-linecap="round" stroke-linejoin="miter"/></g><path d="" fill="#ffab19" fill-rule="nonzero" stroke="#001026" stroke-width="1.2" stroke-linecap="butt" stroke-linejoin="miter"/><g fill-rule="evenodd"><path d="M266.33153,203.77922c2.4,-0.5 5.3,-1.3 7.7,-3.5c5.5,-4.9 7.2,-13 11,-10.9c3.9,2.1 3.8,15.2 -8.4,19.2c-4.2,1.4 -8,1.4 -11.1,1.3c-0.8,0 -7.7,-0.7 -10.1,-4.1c-2.4,-3.4 -0.7,-4.3 0.1,-4.7c0.9,-0.5 7.4,3.3 10.8,2.7z" fill="#ffab19" stroke="#001026" stroke-width="1.2" stroke-linecap="round" stroke-linejoin="round"/><path d="M284.43154,189.57922c2,0.6 3,4.8 2,8.3c-1,3.5 -2.6,5.3 -3.9,6.6c0.2,-0.7 0.6,-2.9 -1.1,-4.2c-2.1,-1.7 -5.8,-0.8 -5.8,-0.8c0,0 3.1,-3.8 4.7,-6.5c1.6,-2.3 2.1,-3.8 4.1,-3.4z" fill="#ffffff" stroke="none" stroke-width="1" stroke-linecap="butt" stroke-linejoin="miter"/></g><path d="M239.83153,192.67922c0,2.6 -2.1,5.3 -3.3,6.9c-1.2,1.6 -6.8,7.5 -13.7,4.4c-2.9,-1.5 -9.7,-7.1 -6.1,-10.4c3.6,-3.3 6.9,0.8 9.3,2.9c2,1.8 8.1,-5.4 8.6,-5.8c1.7,-1.5 5.1,-0.8 5.2,2z" fill="#ffab19" fill-rule="evenodd" stroke="#001026" stroke-width="1.2" stroke-linecap="round" stroke-linejoin="round"/><g fill-rule="evenodd"><path d="M205.23153,165.37922c0,0 -6.4437,-0.75442 -10.65,-4.98161" fill="none" stroke="#001026" stroke-width="1.2" stroke-linecap="round" stroke-linejoin="round"/><path d="M204.87354,171.24286c0,0 -3.49034,1.54552 -9.12857,0.47291" fill="none" stroke="#001026" stroke-width="1.2" stroke-linecap="round" stroke-linejoin="round"/><path d="M235.13155,138.97922c2.3,-0.4 4.7,-0.6 7.5,-0.4c4.7,0.2 9.2,1.9 9.2,1.9l13.90556,-9.28889c0.4,-0.2 0.9,0.1 0.8,0.5l-3.90556,19.28889c-0.6,-0.8 10.6,12.8 3.5,24.2c-7.1,11.4 -22.2,16.5 -41,12.8c-18.8,-3.7 -23.2,-14.5 -22,-20.2c1.2,-5.7 8.3,-7.8 8.3,-7.8c0,0 0.1,-4.5 3.3,-10c1.9,-3.3 8.3,-8 8.3,-8l1.90556,-12.92222c0.1,-0.4 0.6,-0.5 0.9,-0.3z" fill="#ffab19" stroke="#001026" stroke-width="1.2" stroke-linecap="butt" stroke-linejoin="miter"/><path d="M228.23153,165.27922c8.4,0.6 19.9,-8.5 26.6,2.2c6.7,10.6 -4.8,25 -29,20c-18.6,-3.6 -23.4,-13.9 -22.2,-19.6c1.2,-5.7 8.1,-7.5 8.1,-7.5c8.5,-1.9 9.3,4.4 16.5,4.9z" fill="#ffffff" stroke="none" stroke-width="1" stroke-linecap="butt" stroke-linejoin="miter"/><path d="M233.53155,183.37922c-10.5,0.6 -14.3,-6.9 -15.2,-9.6c-0.2,-0.5 0.2,-1 0.7,-0.9c1.5,0.3 4.7,0.6 10.1,0.3c6,-0.4 11.4,-2 13.3,-2.7c0.4,-0.1 0.8,0.2 0.8,0.6c0.3,4.9 -0.6,11.3 -9.7,12.3z" fill="#ffffff" stroke="#001026" stroke-width="1.2" stroke-linecap="round" stroke-linejoin="round"/><path d="M233.23153,163.97922c0,1.6 -4.2,4.1 -6,3.9c-1.6,-0.1 -3.1,-2.9 -3,-4.3c0.1,-0.7 2.3,-0.9 4.4,-0.9c2,0 4.7,0.1 4.6,1.3z" fill="#001026" stroke="#001026" stroke-width="1.2" stroke-linecap="round" stroke-linejoin="round"/><path d="M227.23153,146.17922c2.8,1.8 2.7,6.9 -0.2,11.4c-3,4.5 -7.6,6.6 -10.4,4.8c-2.8,-1.8 -2.7,-6.9 0.2,-11.4c2.9,-4.5 7.6,-6.7 10.4,-4.8z" fill="#ffffff" stroke="#001026" stroke-width="1.2" stroke-linecap="round" stroke-linejoin="round"/><path d="M217.23153,156.67922c0,-1.1 0.8,-2 1.8,-2c1,0 1.8,0.9 1.8,2c0,1.1 -0.8,2 -1.8,2c-1,0 -1.8,-0.9 -1.8,-2" fill="#001026" stroke="none" stroke-width="1" stroke-linecap="butt" stroke-linejoin="miter"/><path d="M252.43155,149.27922c3.1,2.2 2.9,7.9 -0.2,12.3c-3,4.4 -7.4,5.8 -10.7,3.9c-2.7,-1.9 -2.9,-7.3 0.1,-11.7c3,-4.4 7.7,-6.8 10.8,-4.5z" fill="#ffffff" stroke="#001026" stroke-width="1.2" stroke-linecap="round" stroke-linejoin="round"/><path d="M242.23153,159.57922c0,-1.1 0.8,-1.9 1.8,-2c1,0 1.8,0.9 1.8,2c0,1.1 -0.8,2 -1.8,2c-1,0 -1.8,-0.9 -1.8,-2" fill="#001026" stroke="none" stroke-width="1" stroke-linecap="butt" stroke-linejoin="miter"/><path d="M265.09265,164.257c-4.7,3.8 -11.9,3.9 -11.9,3.9" fill="none" stroke="#001026" stroke-width="1.2" stroke-linecap="round" stroke-linejoin="round"/><path d="M263.79265,175.457c-6.3,0.5 -10.2,-1.4 -10.2,-1.4" fill="none" stroke="#001026" stroke-width="1.2" stroke-linecap="round" stroke-linejoin="round"/></g><g fill-rule="evenodd"><path d="M253.14821,201.25165c5.78333,-6.09145 8.43889,3.40191 10.43889,5.06569c2,1.66378 3,2.64567 7.3,5.1978c1.7,1.03921 3.9,2.01937 5.1,2.51764c0.5,0.14094 1,0.18189 1.5,0.02283c0.9,-0.3263 2.6,-0.88709 4.5,0.6685c4.2,4.04394 -5.7,17.33323 -11,15.19921c-5.5,-2.15039 -2.4,-6.69654 -0.7,-8.95732c0.2,-0.38362 0,-0.9 -0.4,-1.03276l-0.4,-0.13276c-7.9,-3.14693 -14.1,-8.05465 -15.9,-9.40205c-1.7,-1.33921 -3.63889,-6.70884 -0.43889,-9.14679z" fill="#ffab19" stroke="#001026" stroke-width="1.2" stroke-linecap="round" stroke-linejoin="round"/><g><path d="M253.67425,208.60095c-1.93975,1.60738 -5.28882,4.48801 -9.04271,8.17827c-4,3.9 -10.3,9.5 -12.5,11.4c-0.5,0.4 -1.1,0.6 -1.7,0.7c-9.7,0.9 -16.9,-0.1 -16.9,-4.4c0,-7.2 14.3,-4.7 14.3,-4.7c0,0 4.6,-3.9 6.7,-5.8l7.5,-7.3c-1.2,-0.9 -2.4,-2.4 -4,-4.7c-1.3,-1.9 -2.7,-5.6 -2.7,-5.6c-0.9,-2.5 -1.5,-7.3 1.8,-7.2c2.2,0.1 4.2,-0.2 7.6,-0.7c6,-1.2 7.1,-2 9.6,2.1c2.01354,3.57962 6.3629,6.43625 4.91898,11.09986" fill="#ffab19" stroke="#001026" stroke-width="1.2" stroke-linecap="round" stroke-linejoin="round"/><path d="M237.63155,199.97922c0,0 -1.9,-2.5 2.4,-5.2c4.5,-2.9 6.2,0.3 8,2.7c2,3.1 0,4.6 -2,6.4c-1.6,1.5 -3.1,2.7 -3.1,2.7c0,0 -3.1,-2.1 -5.3,-6.6z" fill="#ffffff" stroke="none" stroke-width="1" stroke-linecap="butt" stroke-linejoin="miter"/></g></g><path d="M250.24155,189.68156c-0.65535,-1.48925 -0.3562,-2.99438 2.2122,-3.91901c4,-1.5 7.6,1.3 11.9,4.4c2.2,1.7 4.8,3.7 3.9,6.8c-1,3.5 -5.9,13.5 -11.8,10.2c-4.3,-2.9 -0.9,-6.4 1.3,-9.2c0.3,-0.5 0.2,-1.1 -0.1,-1.6c-1.1,-0.7 -2.6,-1.9 -4.1,-3c-0.14254,-0.10263 -0.28865,-0.21241 -0.43655,-0.32852" fill="#ffab19" fill-rule="evenodd" stroke="#001026" stroke-width="1.2" stroke-linecap="round" stroke-linejoin="round"/><g fill-rule="evenodd"><path d="M342.18562,198.53181c6.7866,-4.59198 7.68746,5.27198 9.3548,7.35678c1.66734,2.0848 2.47397,3.27332 6.24351,6.75716c1.48483,1.40678 3.47212,2.87205 4.56265,3.63586c0.46641,0.25331 0.95083,0.40921 1.47132,0.37028c0.94407,-0.10903 2.71731,-0.26087 4.30579,1.69534c1.54122,2.22596 -0.1329,5.13427 -2.48367,8.12381c-2.83861,3.60995 -6.82749,7.01113 -9.46871,5.20133c-5.0223,-3.37092 -2.76076,-8.15161 -0.6811,-9.95946c0.26587,-0.32729 0.16223,-0.87672 -0.20729,-1.09886l-0.36952,-0.22214c-7.20336,-4.89856 -12.41717,-11.1179 -13.94482,-12.8481c-1.43076,-1.69902 -2.37,-7.37962 1.21703,-9.01202z" fill="#ffab19" stroke="#001026" stroke-width="1.2" stroke-linecap="round" stroke-linejoin="round"/><g><path d="M342.55817,205.92238c-1.13811,0.9431 -2.7456,2.38599 -4.956,4.16289c-1.55692,1.25158 -3.60676,2.66888 -5.15814,4.19395c-1.53751,1.49908 0.57327,3.58795 -0.59825,5.83493c-1.87631,3.59877 -5.36881,6.00254 -6.72318,7.17222c-5.4429,4.35432 -15.02857,6.12746 -16.63571,1.3c-2.27428,-6.83137 12.33571,-9.7 12.33571,-9.7c0,0 1.20714,-7.65 3.30714,-9.55l6.78571,-5.33571c-1.2,-0.9 -2.4,-2.4 -4,-4.7c-1.3,-1.9 -2.7,-5.6 -2.7,-5.6c-0.9,-2.5 -1.5,-7.3 1.8,-7.2c2.2,0.1 4.2,-0.2 7.6,-0.7c6,-1.2 7.1,-2 9.6,2.1c2.01354,3.57962 5.40136,6.82087 5.68821,11.67678" fill="#ffab19" stroke="#001026" stroke-width="1.2" stroke-linecap="round" stroke-linejoin="round"/><path d="M326.51547,197.30065c0,0 -1.9,-2.5 2.4,-5.2c4.5,-2.9 6.2,0.3 8,2.7c2,3.1 0,4.6 -2,6.4c-1.6,1.5 -3.1,2.7 -3.1,2.7c0,0 -3.1,-2.1 -5.3,-6.6z" fill="#ffffff" stroke="none" stroke-width="1" stroke-linecap="butt" stroke-linejoin="miter"/></g></g><g fill-rule="evenodd"><path d="M427.87396,205.12749c2.85029,-7.32756 9.2257,1.22009 11.76569,2.3404c2.53998,1.12031 3.87181,1.82585 8.91023,3.24106c2.00439,0.5888 4.44797,0.99729 5.76584,1.18486c0.52163,0.01353 1.00203,-0.06985 1.39999,-0.34708c0.69983,-0.53779 2.04464,-1.49976 4.44732,-0.4597c5.5607,2.88573 1.8613,18.20296 -3.9318,17.43914c-5.98527,-0.73046 -4.98552,-5.89978 -4.34153,-8.50944c0.02727,-0.42105 -0.37102,-0.87231 -0.79657,-0.90253l-0.42555,-0.03022c-8.62101,-1.1056 -16.3919,-4.33625 -18.61605,-5.19914c-2.12807,-0.87957 -6.13911,-5.60676 -4.17757,-8.75735z" fill="#ffab19" stroke="#001026" stroke-width="1.2" stroke-linecap="round" stroke-linejoin="round"/><g><path d="M429.34389,211.63666c-1.93975,1.60738 -16.54271,4.78541 -16.54271,4.78541c0,0 3.98571,2.71429 1.78571,6.93571c-2.83314,5.43631 -7.17143,4.70714 -7.77143,4.80714c-9.7,0.9 -16.9,-0.1 -16.9,-4.4c0,-7.2 14.3,-4.7 14.3,-4.7c0,0 -5.76874,-3.93411 -4.01429,-6.15714c4.6,-5.82857 17.5,-3.19286 17.5,-3.19286c-1.2,-0.9 -2.4,-2.4 -4,-4.7c-1.3,-1.9 -2.7,-5.6 -2.7,-5.6c-0.9,-2.5 -1.5,-7.3 1.8,-7.2c2.2,0.1 4.2,-0.2 7.6,-0.7c6,-1.2 7.1,-2 9.6,2.1c2.01354,3.57962 5.78598,5.66702 5.4959,10.90755" fill="#ffab19" stroke="#001026" stroke-width="1.2" stroke-linecap="round" stroke-linejoin="round"/><path d="M413.30119,203.01493c0,0 -1.9,-2.5 2.4,-5.2c4.5,-2.9 6.2,0.3 8,2.7c2,3.1 0,4.6 -2,6.4c-1.6,1.5 -3.1,2.7 -3.1,2.7c0,0 -3.1,-2.1 -5.3,-6.6z" fill="#ffffff" stroke="none" stroke-width="1" stroke-linecap="butt" stroke-linejoin="miter"/></g></g></g></g></svg>