<svg version="1.1" xmlns="http://www.w3.org/2000/svg" xmlns:xlink="http://www.w3.org/1999/xlink" width="159.81676" height="159.81676" viewBox="0,0,159.81676,159.81676"><g transform="translate(-158.15445,-95.24869)"><g stroke-miterlimit="10"><path d="M198.70107,156.41746c1.46478,-1.41427 3.69413,-1.79967 4.97015,-0.73632c1.27602,1.06335 -2.6177,0.45178 -3.86567,1.65672c-1.24797,1.20494 -0.14352,4.60511 -1.47264,3.49751c-1.32912,-1.1076 -1.09662,-3.00364 0.36816,-4.41791z" fill="#ff0000" stroke="#ffe8e8" stroke-width="5" stroke-linecap="round"/><path d="M264.41749,212.9299c0.26493,0.79479 -0.01589,1.90599 -0.9204,2.39303c-0.90451,0.48704 -3.38397,1.62917 -3.86567,0.18408c-0.4817,-1.44509 2.21856,0.05147 3.68159,-0.73631c1.46303,-0.78779 0.83955,-2.63559 1.10448,-1.8408z" fill="#ff0000" stroke="#ffe8e8" stroke-width="5" stroke-linecap="round"/><path d="M262.02446,228.94482c0.83599,1.0327 1.98913,2.06061 1.10447,2.94527c-0.88466,0.88466 -2.24125,-0.2348 -2.94527,-1.10447c-0.70402,-0.86967 -0.79788,-2.1474 -0.18408,-2.7612c0.6138,-0.6138 1.18888,-0.1123 2.02488,0.9204z" fill="#ff0000" stroke="#ffe8e8" stroke-width="5" stroke-linecap="round"/><path d="M274.72594,232.62641c0.5468,0.7571 1.06531,2.01536 0.18408,2.39303c-0.88123,0.37767 -2.04025,-0.29033 -2.7612,-1.28856c-0.72094,-0.99823 -0.43979,-1.67862 0.36816,-2.02488c0.80795,-0.34626 1.66216,0.1633 2.20895,0.9204z" fill="#ff0000" stroke="#ffe8e8" stroke-width="5" stroke-linecap="round"/><path d="M289.4523,232.44233c1.19997,1.03634 1.9831,2.55247 0.9204,3.68159c-1.0627,1.12911 -2.94827,0.24006 -3.86567,-0.55224c-0.9174,-0.7923 -1.02254,-2.0544 -0.18408,-2.94527c0.83846,-0.89087 1.92938,-1.22042 3.12935,-0.18408z" fill="#ff0000" stroke="#ffe8e8" stroke-width="5" stroke-linecap="round"/><path d="M265.33788,142.97964c-0.67269,-0.50452 -0.77014,-1.61162 -0.18408,-2.39303c0.58606,-0.78142 1.59728,-1.14905 2.39303,-0.55224c0.79575,0.59682 0.37808,1.45941 -0.18408,2.20896c-0.56216,0.74954 -1.35219,1.24083 -2.02488,0.73632z" fill="#ff0000" stroke="#ffe8e8" stroke-width="5" stroke-linecap="round"/><path d="M281.53689,140.03437c-0.88815,-0.62693 -0.96147,-1.68714 -0.36816,-2.57711c0.59331,-0.88997 1.90026,-2.02621 2.94527,-1.28856c1.04501,0.73766 0.98053,2.30283 0.18408,3.49751c-0.79645,1.19468 -1.87305,0.99509 -2.76119,0.36816z" fill="#ff0000" stroke="#ffe8e8" stroke-width="5" stroke-linecap="round"/><path d="M166.6712,139.85029c-1.23203,0.77002 -2.91342,0.38269 -3.86567,-0.9204c-0.95225,-1.30308 -0.9725,-3.02776 0.36816,-3.86567c1.34066,-0.83791 3.03904,-0.27859 4.04975,1.10448c1.01071,1.38307 0.67979,2.91158 -0.55224,3.68159z" fill="#ff0000" stroke="#ffe8e8" stroke-width="5" stroke-linecap="round"/><path d="M180.10902,165.43736c-0.87959,1.08258 -2.17665,0.40047 -3.12935,-0.55224c-0.95271,-0.95271 -1.3601,-2.13506 -0.55224,-3.12935c0.80786,-0.99429 2.07233,-0.68887 2.94527,0.18408c0.87294,0.87294 1.61591,2.41493 0.73632,3.49751z" fill="#ff0000" stroke="#ffe8e8" stroke-width="5" stroke-linecap="round"/><path d="M189.68117,144.2682c-0.90454,0.72363 -1.93668,0.21787 -2.39303,-0.73632c-0.45635,-0.95419 -0.72025,-2.62678 0.36816,-3.49751c1.08841,-0.87073 1.87801,0.21168 2.39303,1.28856c0.51503,1.07687 0.53638,2.22164 -0.36816,2.94527z" fill="#ff0000" stroke="#ffe8e8" stroke-width="5" stroke-linecap="round"/><path d="M186.36772,129.35775c-1.07075,0.5072 -2.14485,-0.19811 -2.76119,-1.28856c-0.61634,-1.09045 -0.71587,-2.43178 0.36816,-2.94527c1.08403,-0.51349 2.45209,0.09032 3.12935,1.28856c0.67727,1.19824 0.33444,2.43807 -0.73632,2.94527z" fill="#ff0000" stroke="#ffe8e8" stroke-width="5" stroke-linecap="round"/><path d="M198.70106,156.41746c1.46478,-1.41427 3.69413,-1.79967 4.97015,-0.73632c1.27602,1.06335 -2.6177,0.45178 -3.86567,1.65672c-1.24797,1.20494 -0.14352,4.60511 -1.47264,3.49751c-1.32912,-1.1076 -1.09662,-3.00364 0.36816,-4.41791z" fill="#ff0000" stroke="#000000" stroke-width="0" stroke-linecap="round"/><path d="M264.41747,212.9299c0.26493,0.79479 -0.01589,1.90599 -0.9204,2.39303c-0.90451,0.48704 -3.38397,1.62917 -3.86567,0.18408c-0.4817,-1.44509 2.21856,0.05147 3.68159,-0.73631c1.46303,-0.78779 0.83955,-2.63559 1.10448,-1.8408z" fill="#ff0000" stroke="#000000" stroke-width="0" stroke-linecap="round"/><path d="M262.02445,228.94482c0.83599,1.0327 1.98913,2.06061 1.10447,2.94527c-0.88466,0.88466 -2.24125,-0.2348 -2.94527,-1.10447c-0.70402,-0.86967 -0.79788,-2.1474 -0.18408,-2.7612c0.6138,-0.6138 1.18888,-0.1123 2.02488,0.9204z" fill="#ff0000" stroke="#000000" stroke-width="0" stroke-linecap="round"/><path d="M274.72592,232.62641c0.5468,0.7571 1.06531,2.01536 0.18408,2.39303c-0.88123,0.37767 -2.04025,-0.29033 -2.7612,-1.28856c-0.72094,-0.99823 -0.43979,-1.67862 0.36816,-2.02488c0.80795,-0.34626 1.66216,0.1633 2.20895,0.9204z" fill="#ff0000" stroke="#000000" stroke-width="0" stroke-linecap="round"/><path d="M289.4523,232.44233c1.19997,1.03634 1.9831,2.55247 0.9204,3.68159c-1.0627,1.12911 -2.94827,0.24006 -3.86567,-0.55224c-0.9174,-0.7923 -1.02254,-2.0544 -0.18408,-2.94527c0.83846,-0.89087 1.92938,-1.22042 3.12935,-0.18408z" fill="#ff0000" stroke="#000000" stroke-width="0" stroke-linecap="round"/><path d="M265.33786,142.97964c-0.67269,-0.50452 -0.77014,-1.61162 -0.18408,-2.39303c0.58606,-0.78142 1.59728,-1.14905 2.39303,-0.55224c0.79575,0.59682 0.37808,1.45941 -0.18408,2.20896c-0.56216,0.74954 -1.35219,1.24083 -2.02488,0.73632z" fill="#ff0000" stroke="#000000" stroke-width="0" stroke-linecap="round"/><path d="M281.53688,140.03437c-0.88815,-0.62693 -0.96147,-1.68714 -0.36816,-2.57711c0.59331,-0.88997 1.90026,-2.02621 2.94527,-1.28856c1.04501,0.73766 0.98053,2.30283 0.18408,3.49751c-0.79645,1.19468 -1.87305,0.99509 -2.76119,0.36816z" fill="#ff0000" stroke="#000000" stroke-width="0" stroke-linecap="round"/><path d="M166.6712,139.85029c-1.23203,0.77002 -2.91342,0.38269 -3.86567,-0.9204c-0.95225,-1.30308 -0.9725,-3.02776 0.36816,-3.86567c1.34066,-0.83791 3.03904,-0.27859 4.04975,1.10448c1.01071,1.38307 0.67979,2.91158 -0.55224,3.68159z" fill="#ff0000" stroke="#000000" stroke-width="0" stroke-linecap="round"/><path d="M180.10902,165.43736c-0.87959,1.08258 -2.17665,0.40047 -3.12935,-0.55224c-0.95271,-0.95271 -1.3601,-2.13506 -0.55224,-3.12935c0.80786,-0.99429 2.07233,-0.68887 2.94527,0.18408c0.87294,0.87294 1.61591,2.41493 0.73632,3.49751z" fill="#ff0000" stroke="#000000" stroke-width="0" stroke-linecap="round"/><path d="M189.68116,144.2682c-0.90454,0.72363 -1.93668,0.21787 -2.39303,-0.73632c-0.45635,-0.95419 -0.72025,-2.62678 0.36816,-3.49751c1.08841,-0.87073 1.87801,0.21168 2.39303,1.28856c0.51503,1.07687 0.53638,2.22164 -0.36816,2.94527z" fill="#ff0000" stroke="#000000" stroke-width="0" stroke-linecap="round"/><path d="M186.36771,129.35775c-1.07075,0.5072 -2.14485,-0.19811 -2.76119,-1.28856c-0.61634,-1.09045 -0.71587,-2.43178 0.36816,-2.94527c1.08403,-0.51349 2.45209,0.09032 3.12935,1.28856c0.67727,1.19824 0.33444,2.43807 -0.73632,2.94527z" fill="#ff0000" stroke="#000000" stroke-width="0" stroke-linecap="round"/><path d="M158.15445,255.06545v-159.81675h159.81676v159.81676z" fill="none" stroke="#ffe8e8" stroke-width="0" stroke-linecap="butt"/></g></g></svg>