<svg version="1.1" xmlns="http://www.w3.org/2000/svg" xmlns:xlink="http://www.w3.org/1999/xlink" width="137.11794" height="239.28724" viewBox="0,0,137.11794,239.28724"><defs><radialGradient cx="226.41077" cy="147.0275" r="38.25582" gradientUnits="userSpaceOnUse" id="color-1"><stop offset="0" stop-color="#180036"/><stop offset="1" stop-color="#1d1d1d"/></radialGradient></defs><g transform="translate(-176.11811,-75.02595)"><g stroke-miterlimit="10"><g stroke="#000000"><g stroke-width="0" stroke-linecap="round"><path d="M258.58105,186.14839l2.79945,10.48206l-4.01929,-0.9198l1.76025,7.42449l-12.16177,16.18092l-12.56999,-17.41757l0.90984,-7.58751l-4.66358,1.03374l4.21211,-10.70203" fill="#0063eb"/><path d="M254.78979,184.63317l1.9231,7.20072l-2.76109,-0.63187l1.25288,8.69301l-8.35461,11.1156l-8.63504,-11.96511l0.58138,-8.80499l-3.20367,0.71014l2.89352,-7.35183" fill="#629beb"/></g><path d="M231.85986,186.11513l-0.28792,-51.1863c0,0 -0.18453,-16.44432 13.61761,-15.44589c14.47458,1.04709 14.67012,17.24052 14.67012,17.24052l0.62218,51.2075c0,0 -3.05109,2.6382 -14.54638,2.06877c-11.82329,-0.58568 -14.07561,-3.88459 -14.07561,-3.88459z" fill="#5d5d5d" stroke-width="1.2" stroke-linecap="butt"/></g><g stroke="#000000"><g stroke-width="0" stroke-linecap="round"><path d="M205.65401,189.15293l0.84582,10.56455l-3.83257,-1.10415l0.3774,7.47248l-15.11075,15.53467l-9.29165,-17.92625l2.31209,-7.50943l-4.83624,0.81004l6.17808,-10.45443" fill="#0063eb"/><path d="M202.15885,187.46686l0.58104,7.25738l-2.63282,-0.75851l-0.36298,8.71127l-10.38043,10.67165l-6.38297,-12.31455l2.21056,-8.73665l-3.3223,0.55646l4.24409,-7.18174" fill="#629beb"/></g><path d="M179.04722,187.86575l9.19788,-50.96108c0,0 2.86329,-16.37631 16.42452,-14.73477c14.22193,1.72151 11.4161,17.84861 11.4161,17.84861l-8.86891,50.99787c0,0 -3.52756,2.48271 -14.8708,1.37643c-11.6669,-1.13782 -13.29879,-4.52707 -13.29879,-4.52707z" fill="#5d5d5d" stroke-width="1.2" stroke-linecap="butt"/></g><g stroke="#000000" stroke-width="1.2"><path d="M190.2475,109.42656c1.77189,8.93628 0.50944,16.71569 -2.81975,17.3758c-3.3292,0.66011 -7.46445,-6.04903 -9.23633,-14.9853c-1.77189,-8.93628 -0.50944,-16.71569 2.81976,-17.37579c3.3292,-0.66011 7.46444,6.04903 9.23632,14.9853z" fill="#454545" stroke-linecap="butt"/><path d="M195.8257,139.22698l-6.43574,-35.01732l0.86835,6.27714l-6.95109,1.1078l-3.72475,-16.89325l9.33036,-13.4501l7.58045,-0.90725l9.1076,54.53938" fill="#5d5d5d" stroke-linecap="round"/></g><g stroke="#000000" stroke-width="1.2"><path d="M260.50475,103.45799c-0.55388,9.0934 -3.74918,16.29777 -7.13691,16.09143c-1.47405,-0.08978 -2.74164,-1.5678 -3.65775,-3.95803c-1.18936,-3.10316 -1.7863,-7.74388 -1.47342,-12.88063c0.55387,-9.09339 3.74919,-16.29778 7.13691,-16.09141c3.38773,0.20635 5.68503,7.74527 5.13115,16.83867z" fill="#454545" stroke-linecap="butt"/><path d="M254.12549,133.49786l2.6613,-35.5042l-0.75301,6.29201l-3.13447,-1.12902l0.68419,-17.28547l8.56795,-10.20544l7.56254,1.04615l-5.03102,55.06525" fill="#5d5d5d" stroke-linecap="round"/></g><g fill="#5d5d5d" stroke="#000000" stroke-width="1.2" stroke-linecap="round"><path d="M210.85743,249.43468l-4.92459,33.11167l-6.88042,-0.00313l-7.00114,-3.45967l2.8035,-33.30323"/><g><path d="M206.52338,276.31942l5.9111,7.92324l-0.80794,6.63176l1.00622,5.83294l-1.61918,5.39906l-13.04875,2.75087l-6.77852,-5.03089l4.96842,-20.71186"/><path d="M208.58174,290.87185l-0.23696,4.2443l-2.02877,2.61978l1.2578,9.36794l-5.4811,3.3831l-2.99628,3.15116l-6.11675,-1.71083l-1.49223,-1.9326l2.45495,-2.72782l5.41283,-3.84632l-1.21127,-2.61475l-1.69223,0.8068l-6.9207,-2.48431l-1.19266,-2.24068l-1.44005,1.34758l-5.14976,-2.17186l-0.96134,-3.01198l1.87137,-4.85828l0.77828,-4.66764l3.50578,-5.47225l6.19377,-4.72358"/></g></g><g stroke="#000000" stroke-width="1.2"><g stroke-linecap="round"><path d="M203.72311,216.36583l-9.11307,-1.51543l-4.67174,-5.72894l6.72077,-11.7983l5.19326,-11.96747l4.46756,-1.4774l4.32876,1.26732l2.96794,10.79508l5.70548,11.64768l-5.13809,6.48962z" fill="#707070"/><path d="M193.89467,242.76024l3.29632,-33.51947l-3.28009,0.42l11.11122,-1.57517l9.68799,1.23657l-2.73211,-0.35517l-1.25673,32.91533" fill="#5d5d5d"/></g><path d="M191.95392,245.84785c0.33641,-5.51525 5.10678,-10.22091 10.65488,-10.51039c5.5481,-0.28948 9.77301,3.94687 9.43659,9.46213c-0.33641,5.51525 -5.10677,10.22091 -10.65487,10.51038c-5.5481,0.28948 -9.77301,-3.94687 -9.43659,-9.46212z" fill="#707070" stroke-linecap="butt"/></g><g stroke="#000000" stroke-width="1.2"><path d="M271.40861,202.13385l-7.67039,0.382l-7.14459,-12.27366l-7.6508,-9.36121l0.86762,-4.55452l3.20926,-2.95001l12.24533,3.01284l12.78247,1.58042l2.68648,7.65636l-2.78404,8.864z" fill="#707070" stroke-linecap="round"/><path d="M296.04193,216.60238l-27.90038,-19.59586l-0.91703,2.59514l3.27075,-9.18785l6.23786,-8.65629l-1.80407,2.58366l29.30709,18.20486" fill="#5d5d5d" stroke-linecap="round"/><path d="M311.33581,216.94094c-2.70182,4.63468 -8.72713,5.81864 -13.45791,2.64443c-4.73078,-3.17421 -6.37559,-9.50458 -3.67377,-14.13926c2.70182,-4.63468 8.72712,-5.81865 13.45791,-2.64443c4.73078,3.17421 6.3756,9.50457 3.67378,14.13926z" fill="#707070" stroke-linecap="butt"/></g><g stroke="#000000" stroke-width="1.2"><path d="M280.67429,180.91184c-0.79187,-7.21376 4.20406,-13.24756 11.15873,-13.47686c6.95468,-0.2293 13.23449,5.43273 14.02635,12.6465c0.79187,7.21376 -4.20405,13.24756 -11.15873,13.47686c-6.95468,0.2293 -13.23449,-5.43273 -14.02635,-12.6465z" fill="#5c5e5f" stroke-linecap="butt"/><g stroke-linecap="round"><path d="M288.15844,211.41152l-9.06528,-3.03794l1.15383,-6.235l-2.79056,-6.58164l5.83723,-5.43604" fill="#5d5d5d"/><path d="M305.06251,188.53114l2.25107,2.70459l-1.10737,4.56505l3.79931,3.21156l-3.26091,7.97289l2.39951,3.01937l-1.78857,6.73262l-9.93234,5.8094l-12.07343,-5.32221l-0.93283,-6.40455l1.74777,-2.91775l-2.17054,-3.02692l-0.59958,-5.46215l2.10706,-1.73788l-2.17055,-3.02693l-0.06347,-4.7648l12.35225,-4.69747z" fill="#5d5d5d"/><path d="M295.11207,195.21316l-8.03383,2.17164" fill="none"/><path d="M295.8273,205.91509l-7.85702,1.68913" fill="none"/></g><path d="M292.16367,224.87212l-0.8139,-7.41441l4.98419,-2.74056l5.58532,2.73557l1.00529,7.0646l-5.38575,3.26905z" fill="#5c5e5f" stroke-linecap="round"/></g><g><g stroke-linecap="butt"><g><path d="M187.41292,155.31289c-0.74597,-25.54525 19.35782,-46.8585 44.90307,-47.60447c25.54525,-0.74597 46.8585,19.35781 47.60447,44.90306c0.74597,25.54525 -19.35781,46.8585 -44.90306,47.60448c-25.54525,0.74597 -46.8585,-19.35781 -47.60447,-44.90306z" fill="#5d5d5d" stroke="#000000" stroke-width="1.2"/><path d="M232.65525,108.34021c0,0 1.49179,-0.02557 2.23176,-0.01156c24.18924,0.45757 43.99905,19.84878 44.71285,44.29218c0.70777,24.23676 -17.61681,44.61041 -41.44139,46.77452c-0.93817,0.08523 -2.83925,0.17007 -2.83925,0.17007z" fill="#686868" stroke="#000000" stroke-width="0"/><path d="M193.50373,155.13503c-0.66326,-22.71251 17.21121,-41.66232 39.92372,-42.32556c22.71251,-0.66326 41.66233,17.21121 42.32557,39.92372c0.66326,22.71251 -17.21121,41.66232 -39.92373,42.32556c-22.71251,0.66326 -41.66232,-17.2112 -42.32556,-39.92371z" fill="#707070" stroke="#838383" stroke-width="0"/><path d="M196.38885,155.05077c-0.61672,-21.11909 16.00374,-38.73946 37.12283,-39.35619c21.1191,-0.61672 38.73947,16.00374 39.3562,37.12282c0.61672,21.1191 -16.00375,38.73948 -37.12284,39.3562c-21.11909,0.61672 -38.73947,-16.00375 -39.35619,-37.12284z" fill="url(#color-1)" stroke="#000000" stroke-width="1.2"/></g><g stroke="#000000"><path d="M197.6754,166.40953c0,0 -2.77297,-6.7639 -2.86353,-11.38397c-0.09056,-4.62009 2.41317,-11.59213 2.41317,-11.59213c0.34559,0.0061 1.20859,0.02687 1.67842,0.08714c5.55834,0.71292 9.92866,5.37997 10.09739,11.15864c0.17639,6.04027 -4.30086,11.13596 -10.18544,11.84544c-0.34946,0.04213 -1.06257,0.07927 -1.06257,0.07927c0,0 -0.02751,-0.06799 -0.07745,-0.19437z" fill="#707070" stroke-width="0"/><path d="M197.22505,143.4334c0.34559,0.0061 1.20859,0.02687 1.67842,0.08714c5.55833,0.71292 9.92866,5.37997 10.09739,11.15864c0.17639,6.04027 -4.30087,11.13596 -10.18544,11.84544c-0.34946,0.04213 -1.06257,0.07927 -1.06257,0.07927c0,0 -0.0275,-0.06798 -0.07745,-0.19436" fill="none" stroke-width="1.2"/></g><g stroke="#000000"><path d="M272.19726,164.02c-0.02721,0.12863 -0.04228,0.19787 -0.04228,0.19787c0,0 -0.47821,-0.00235 -0.71369,-0.02741c-3.96577,-0.42183 -7.20505,-5.29217 -7.38144,-11.33243c-0.16875,-5.77866 2.52352,-10.65195 6.20207,-11.63461c0.31094,-0.08306 0.88645,-0.14586 1.11704,-0.16878c0,0 1.97118,4.51232 2.1768,11.4581c0.19971,6.7463 -1.35848,11.50727 -1.35848,11.50727z" fill="#707070" stroke-width="0"/><path d="M272.19726,164.02c-0.02721,0.12863 -0.04228,0.19787 -0.04228,0.19787c0,0 -0.47821,-0.00235 -0.71369,-0.02741c-3.96577,-0.42183 -7.20505,-5.29217 -7.38144,-11.33243c-0.16875,-5.77866 2.52352,-10.65195 6.20207,-11.63461c0.31094,-0.08306 0.88645,-0.14586 1.11704,-0.16878" fill="none" stroke-width="1.2"/></g><path d="M196.45473,158.11637l-0.18282,-6.26021l4.49727,-1.69773l4.45508,1.4363l0.18282,6.26021l-4.49346,1.82814z" fill="#21cc26" stroke="#17921c" stroke-width="1.2"/><path d="M266.56014,156.06914l-0.18281,-6.26022l3.05506,-1.65562l3.05526,1.47718l0.18282,6.26022l-3.05125,1.78602z" fill="#21cc26" stroke="#17921c" stroke-width="1.2"/></g><g stroke-linecap="round"><path d="M227.13259,125.98374l2.19988,-0.06425l0.31162,-1.10997l1.58318,0.02257l1.18926,-1.68604l0.64329,-1.5325l0.83148,-2.15723l0.7537,2.24856l1.28561,1.61378l1.34632,1.33678l2.57373,0.95693l1.2575,0.65133l-1.07385,0.92583l-1.23944,-0.03261l-1.61778,1.14813l-1.12853,1.40904l-0.97698,1.88627l-0.5625,1.94295l-0.90775,-0.45512l-0.27251,-2.26261l-0.75621,0.02208l-0.10487,-1.23541l-1.62133,-1.32877l-1.73873,-0.63727l-1.73473,-0.49979z" fill="#eee796" stroke="#eee796" stroke-width="0.25"/><path d="M227.18441,127.2087l-0.03975,-1.36119l2.26862,-0.06624l-0.02649,-0.90746l1.8149,-0.053l-0.03313,-1.13432l1.20993,-0.03533l-0.7035,0.02055" fill="none" stroke="#cec344" stroke-width="0.75"/><path d="M232.34975,122.66639l0.02877,0.98479l-0.05301,-1.81489l0.90746,-0.0265l-0.06624,-2.26863l1.36119,-0.03975" fill="none" stroke="#cec344" stroke-width="0.75"/><path d="M236.3131,123.53626l-0.7035,0.02055l1.20993,-0.03533l0.03313,1.13432l1.8149,-0.053l0.0265,0.90745l2.26862,-0.06624l0.03975,1.36119" fill="none" stroke="#cec344" stroke-width="0.75"/><path d="M233.22173,119.53953l1.36118,-0.03975l0.06624,2.26863l0.90745,-0.02649l0.053,1.8149l-0.02876,-0.9848" fill="none" stroke="#cec344" stroke-width="0.75"/><path d="M231.83783,129.24705l0.70349,-0.02054l-1.20992,0.03533l-0.03313,-1.13432l-1.8149,0.053l-0.02649,-0.90746l-2.26862,0.06624l-0.03975,-1.36118" fill="none" stroke="#cec344" stroke-width="0.75"/><path d="M234.9292,133.24379l-1.36119,0.03975l-0.06624,-2.26863l-0.90746,0.02649l-0.053,-1.81489l0.02876,0.98479" fill="none" stroke="#cec344" stroke-width="0.75"/><path d="M240.9665,125.57463l0.03975,1.36119l-2.26862,0.06624l0.02649,0.90745l-1.81489,0.05301l0.03313,1.13432l-1.20993,0.03534l0.70349,-0.02055" fill="none" stroke="#cec344" stroke-width="0.75"/><path d="M235.80117,130.11693l-0.02877,-0.9848l0.053,1.8149l-0.90745,0.02649l0.06625,2.26863l-1.36119,0.03975" fill="none" stroke="#cec344" stroke-width="0.75"/></g><g stroke-linecap="round"><path d="M228.74776,181.29351l2.19988,-0.06425l0.31162,-1.10997l1.58318,0.02256l1.18925,-1.68604l0.64329,-1.53249l0.83148,-2.15724l0.7537,2.24857l1.28561,1.61378l1.34632,1.33678l2.57373,0.95693l1.2575,0.65132l-1.07386,0.92583l-1.23944,-0.03261l-1.61778,1.14812l-1.12854,1.40906l-0.97698,1.88626l-0.5625,1.94296l-0.90776,-0.45512l-0.2725,-2.26261l-0.75621,0.02208l-0.10487,-1.23541l-1.62133,-1.32876l-1.73873,-0.63728l-1.73473,-0.49978z" fill="#eee796" stroke="#eee796" stroke-width="0.25"/><path d="M228.79957,182.51846l-0.03975,-1.36118l2.26862,-0.06624l-0.02649,-0.90746l1.8149,-0.053l-0.03313,-1.13431l1.20992,-0.03534l-0.70349,0.02055" fill="none" stroke="#cec344" stroke-width="0.75"/><path d="M233.96492,177.97614l0.02876,0.98479l-0.053,-1.8149l0.90745,-0.02649l-0.06624,-2.26863l1.36118,-0.03975" fill="none" stroke="#cec344" stroke-width="0.75"/><path d="M237.92826,178.84602l-0.70349,0.02055l1.20992,-0.03533l0.03313,1.13431l1.8149,-0.05301l0.02649,0.90746l2.26862,-0.06624l0.03975,1.36119" fill="none" stroke="#cec344" stroke-width="0.75"/><path d="M234.83688,174.8493l1.36119,-0.03975l0.06624,2.26863l0.90745,-0.0265l0.05301,1.8149l-0.02877,-0.9848" fill="none" stroke="#cec344" stroke-width="0.75"/><path d="M233.45298,184.5568l0.7035,-0.02055l-1.20992,0.03533l-0.03313,-1.13431l-1.8149,0.053l-0.0265,-0.90745l-2.26862,0.06624l-0.03975,-1.36119" fill="none" stroke="#cec344" stroke-width="0.75"/><path d="M236.54436,188.55354l-1.36118,0.03974l-0.06624,-2.26863l-0.90746,0.0265l-0.053,-1.8149l0.02876,0.9848" fill="none" stroke="#cec344" stroke-width="0.75"/><path d="M242.58166,180.88438l0.03975,1.36118l-2.26862,0.06624l0.02649,0.90746l-1.8149,0.053l0.03312,1.13431l-1.20992,0.03534l0.7035,-0.02055" fill="none" stroke="#cec344" stroke-width="0.75"/><path d="M237.41632,185.42669l-0.02876,-0.9848l0.053,1.8149l-0.90745,0.02649l0.06624,2.26863l-1.36118,0.03975" fill="none" stroke="#cec344" stroke-width="0.75"/></g><g stroke-linecap="round"><path d="M249.34032,128.71546l1.60098,1.51012l1.00522,-0.56454l1.10351,1.13543l2.03314,-0.35129l1.53852,-0.62876l2.11334,-0.93746l-1.05701,2.12291l-0.23205,2.0502l0.00676,1.89723l1.14326,2.49655l0.42863,1.34974l-1.41398,-0.10466l-0.85336,-0.89948l-1.95579,-0.33211l-1.79434,0.19835l-2.02462,0.64295l-1.77164,0.97612l-0.32007,-0.9637l1.40722,-1.79258l-0.55034,-0.5191l0.79941,-0.94773l-0.20687,-2.08601l-0.77886,-1.6801l-0.87323,-1.58003z" fill="#eee796" stroke="#eee796" stroke-width="0.25"/><path d="M248.5108,129.61825l0.9344,-0.9906l1.65101,1.5573l0.62293,-0.6604l1.32081,1.24585l0.77865,-0.82551l0.88054,0.83057l-0.51197,-0.48292" fill="none" stroke="#cec344" stroke-width="0.75"/><path d="M255.37515,130.05881l-0.676,0.71667l1.24585,-1.32081l0.6604,0.62293l1.55731,-1.651l0.99061,0.9344" fill="none" stroke="#cec344" stroke-width="0.75"/><path d="M257.56255,133.47641l-0.51197,-0.48293l0.88054,0.83057l-0.77866,0.8255l1.32081,1.24585l-0.62293,0.66039l1.65101,1.55731l-0.9344,0.9906" fill="none" stroke="#cec344" stroke-width="0.75"/><path d="M258.20274,128.46435l0.9906,0.9344l-1.55731,1.65102l0.6604,0.62293l-1.24585,1.32081l0.67601,-0.71669" fill="none" stroke="#cec344" stroke-width="0.75"/><path d="M250.35993,134.35005l0.51197,0.48292l-0.88053,-0.83057l0.77865,-0.8255l-1.32081,-1.24585l0.62294,-0.6604l-1.65101,-1.55731l0.9344,-0.9906" fill="none" stroke="#cec344" stroke-width="0.75"/><path d="M249.71974,139.36211l-0.9906,-0.9344l1.55731,-1.65101l-0.66041,-0.62294l1.24584,-1.3208l-0.67601,0.71669" fill="none" stroke="#cec344" stroke-width="0.75"/><path d="M259.41167,138.2082l-0.9344,0.9906l-1.651,-1.55732l-0.62293,0.6604l-1.32082,-1.24585l-0.77865,0.82551l-0.88054,-0.83057l0.51199,0.48293" fill="none" stroke="#cec344" stroke-width="0.75"/><path d="M252.54733,137.76765l0.67601,-0.71669l-1.24585,1.32082l-0.6604,-0.62294l-1.55731,1.651l-0.9906,-0.9344" fill="none" stroke="#cec344" stroke-width="0.75"/></g><g stroke-linecap="round"><path d="M211.3725,168.96745l1.60098,1.51013l1.00522,-0.56454l1.10352,1.13543l2.03314,-0.3513l1.53852,-0.62875l2.11333,-0.93746l-1.05701,2.12291l-0.23205,2.05019l0.00676,1.89724l1.14327,2.49656l0.42863,1.34974l-1.41399,-0.10466l-0.85336,-0.89949l-1.95579,-0.33211l-1.79434,0.19834l-2.02464,0.64296l-1.77163,0.97613l-0.32007,-0.9637l1.40723,-1.79259l-0.55034,-0.5191l0.79942,-0.94773l-0.20688,-2.08601l-0.77886,-1.68009l-0.87323,-1.58004z" fill="#eee796" stroke="#eee796" stroke-width="0.25"/><path d="M210.54299,169.87025l0.9344,-0.9906l1.651,1.5573l0.62294,-0.6604l1.32081,1.24585l0.77865,-0.8255l0.88054,0.83057l-0.51197,-0.48292" fill="none" stroke="#cec344" stroke-width="0.75"/><path d="M217.40733,170.3108l-0.67601,0.71669l1.24585,-1.32081l0.6604,0.62293l1.55732,-1.65101l0.9906,0.9344" fill="none" stroke="#cec344" stroke-width="0.75"/><path d="M219.59473,173.72841l-0.51197,-0.48292l0.88053,0.83057l-0.77865,0.8255l1.32081,1.24585l-0.62293,0.66041l1.65101,1.55731l-0.9344,0.9906" fill="none" stroke="#cec344" stroke-width="0.75"/><path d="M220.23492,168.71635l0.9906,0.9344l-1.55731,1.65101l0.6604,0.62294l-1.24585,1.3208l0.67601,-0.71669" fill="none" stroke="#cec344" stroke-width="0.75"/><path d="M212.39211,174.60204l0.51197,0.48292l-0.88053,-0.83057l0.77865,-0.8255l-1.32081,-1.24584l0.62293,-0.66041l-1.65101,-1.55731l0.9344,-0.9906" fill="none" stroke="#cec344" stroke-width="0.75"/><path d="M211.75193,179.6141l-0.9906,-0.9344l1.55731,-1.65101l-0.6604,-0.62294l1.24585,-1.32081l-0.67602,0.71669" fill="none" stroke="#cec344" stroke-width="0.75"/><path d="M221.44386,178.4602l-0.9344,0.9906l-1.65101,-1.55731l-0.62294,0.66041l-1.32081,-1.24585l-0.77865,0.8255l-0.88053,-0.83057l0.51197,0.48292" fill="none" stroke="#cec344" stroke-width="0.75"/><path d="M214.57951,178.01965l0.67601,-0.71669l-1.24585,1.32082l-0.6604,-0.62294l-1.55732,1.65101l-0.9906,-0.9344" fill="none" stroke="#cec344" stroke-width="0.75"/></g><g stroke-linecap="round"><path d="M209.49776,139.75539l1.51012,-1.60099l-0.56454,-1.00522l1.13543,-1.10352l-0.3513,-2.03313l-0.62876,-1.53852l-0.93746,-2.11332l2.12291,1.05701l2.05019,0.23205l1.89724,-0.00676l2.49655,-1.14327l1.34975,-0.42863l-0.10467,1.41399l-0.89948,0.85336l-0.33211,1.95579l0.19834,1.79434l0.64295,2.02463l0.97613,1.77163l-0.9637,0.32008l-1.79258,-1.40723l-0.51911,0.55034l-0.94773,-0.79942l-2.08601,0.20688l-1.6801,0.77886l-1.58003,0.87323z" fill="#eee796" stroke="#eee796" stroke-width="0.25"/><path d="M210.40055,140.58491l-0.9906,-0.9344l1.55732,-1.65101l-0.66041,-0.62294l1.24585,-1.32081l-0.8255,-0.77865l0.83057,-0.88054l-0.48292,0.51197" fill="none" stroke="#cec344" stroke-width="0.75"/><path d="M210.84111,133.72054l0.71669,0.67601l-1.32081,-1.24585l0.62294,-0.6604l-1.65101,-1.55731l0.9344,-0.9906" fill="none" stroke="#cec344" stroke-width="0.75"/><path d="M214.25871,131.53316l-0.48292,0.51197l0.83057,-0.88053l0.8255,0.77865l1.24585,-1.32081l0.6604,0.62293l1.55731,-1.65101l0.9906,0.9344" fill="none" stroke="#cec344" stroke-width="0.75"/><path d="M209.24666,130.89297l0.93439,-0.9906l1.65102,1.55732l0.62293,-0.66041l1.32081,1.24585l-0.71668,-0.67601" fill="none" stroke="#cec344" stroke-width="0.75"/><path d="M215.13235,138.73578l0.48292,-0.51197l-0.83057,0.88053l-0.8255,-0.77865l-1.24585,1.32081l-0.66041,-0.62294l-1.55732,1.651l-0.9906,-0.9344" fill="none" stroke="#cec344" stroke-width="0.75"/><path d="M220.14442,139.37596l-0.9344,0.9906l-1.65101,-1.55731l-0.62294,0.6604l-1.3208,-1.24584l0.71669,0.67601" fill="none" stroke="#cec344" stroke-width="0.75"/><path d="M218.9905,129.68404l0.9906,0.9344l-1.55732,1.65101l0.66041,0.62294l-1.24585,1.32081l0.8255,0.77866l-0.83056,0.88054l0.48292,-0.51197" fill="none" stroke="#cec344" stroke-width="0.75"/><path d="M218.54994,136.54838l-0.71669,-0.67601l1.3208,1.24585l-0.62292,0.66041l1.65101,1.5573l-0.9344,0.9906" fill="none" stroke="#cec344" stroke-width="0.75"/></g><g stroke-linecap="round"><path d="M249.74975,177.7232l1.51012,-1.60098l-0.56454,-1.00522l1.13544,-1.10351l-0.3513,-2.03314l-0.62876,-1.53852l-0.93746,-2.11332l2.12291,1.05701l2.05018,0.23205l1.89724,-0.00677l2.49655,-1.14327l1.34974,-0.42862l-0.10467,1.41398l-0.89948,0.85335l-0.33211,1.9558l0.19835,1.79434l0.64295,2.02463l0.97613,1.77164l-0.96371,0.32008l-1.79258,-1.40724l-0.51911,0.55034l-0.94773,-0.79942l-2.08601,0.20687l-1.68009,0.77886l-1.58004,0.87323z" fill="#eee796" stroke="#eee796" stroke-width="0.25"/><path d="M250.65256,178.55273l-0.9906,-0.9344l1.55731,-1.65101l-0.66041,-0.62294l1.24585,-1.32081l-0.8255,-0.77866l0.83057,-0.88054l-0.48292,0.51198" fill="none" stroke="#cec344" stroke-width="0.75"/><path d="M251.0931,171.68837l0.71669,0.67601l-1.32081,-1.24585l0.62294,-0.6604l-1.651,-1.55732l0.93439,-0.9906" fill="none" stroke="#cec344" stroke-width="0.75"/><path d="M254.51071,169.50098l-0.48292,0.51197l0.83057,-0.88053l0.8255,0.77865l1.24585,-1.32081l0.66041,0.62293l1.55731,-1.651l0.99061,0.9344" fill="none" stroke="#cec344" stroke-width="0.75"/><path d="M249.49866,168.86079l0.93439,-0.9906l1.65102,1.55731l0.62293,-0.66041l1.32081,1.24585l-0.71668,-0.67601" fill="none" stroke="#cec344" stroke-width="0.75"/><path d="M255.38433,176.7036l0.48293,-0.51197l-0.83057,0.88053l-0.8255,-0.77866l-1.24585,1.32081l-0.66041,-0.62294l-1.55731,1.65101l-0.9906,-0.93439" fill="none" stroke="#cec344" stroke-width="0.75"/><path d="M260.3964,177.34378l-0.9344,0.9906l-1.65101,-1.55731l-0.62294,0.6604l-1.32081,-1.24585l0.71669,0.67601" fill="none" stroke="#cec344" stroke-width="0.75"/><path d="M259.2425,167.65186l0.9906,0.9344l-1.55732,1.65101l0.66041,0.62294l-1.24585,1.32081l0.8255,0.77866l-0.83056,0.88053l0.48292,-0.51199" fill="none" stroke="#cec344" stroke-width="0.75"/><path d="M258.80195,174.51619l-0.71669,-0.67601l1.32081,1.24584l-0.62294,0.6604l1.65101,1.55731l-0.93439,0.9906" fill="none" stroke="#cec344" stroke-width="0.75"/></g></g><g stroke-linecap="round"><g><g><path d="M246.16306,144.76668l-0.09548,-8.14533l1.98588,-0.09745l-0.02985,-2.54542l2.41141,-0.11834l-0.02586,-2.20603l5.53209,-0.27149l0.02586,2.20603l1.98588,-0.09745l0.02985,2.54542l1.98588,-0.09745l0.09548,8.14533" fill="#52ff97" stroke="#00a8c1" stroke-width="0"/><path d="M246.11171,140.38644l0.05135,4.38024l-0.09548,-8.14533l1.98588,-0.09745l-0.02985,-2.54542l2.41141,-0.11834l-0.02586,-2.20603l5.53209,-0.27149l0.02586,2.20603l1.98588,-0.09745l0.02985,2.54542l1.98588,-0.09745l0.09548,8.14533l-0.04135,-3.52762" fill="none" stroke="#37ad66" stroke-width="1.5"/></g><g><path d="M260.06041,143.76371l0.09548,8.14533l-1.98588,0.09745l0.02985,2.54542l-1.98588,0.09745l0.02586,2.20602l-5.53208,0.27148l-0.02586,-2.20602l-2.41141,0.11834l-0.02985,-2.54542l-1.98588,0.09745l-0.09548,-8.14533" fill="#52ff97" stroke="#00a8c1" stroke-width="0"/><path d="M260.10178,147.29134l-0.04135,-3.52762l0.09548,8.14533l-1.98588,0.09745l0.02986,2.54542l-1.98588,0.09745l0.02586,2.20602l-5.53208,0.27148l-0.02586,-2.20603l-2.41141,0.11834l-0.02985,-2.54542l-1.98588,0.09745l-0.09548,-8.14533l0.05135,4.38024" fill="none" stroke="#37ad66" stroke-width="1.5"/></g></g><g><g><path d="M214.70076,146.31068l-0.09548,-8.14533l2.58783,-0.127l-0.02986,-2.54542l3.14237,-0.15421l-0.02586,-2.20603l7.20896,-0.35378l0.02586,2.20603l2.58783,-0.127l0.02985,2.54542l2.58783,-0.127l0.09548,8.14533" fill="#52ff97" stroke="#00a8c1" stroke-width="0"/><path d="M214.64942,141.93043l0.05135,4.38025l-0.09548,-8.14533l2.58783,-0.127l-0.02985,-2.54542l3.14236,-0.15421l-0.02586,-2.20602l7.20897,-0.35378l0.02586,2.20603l2.58783,-0.127l0.02985,2.54542l2.58783,-0.127l0.09548,8.14533l-0.04135,-3.52763" fill="none" stroke="#37ad66" stroke-width="1.5"/></g><g><path d="M232.81183,145.10093l0.09548,8.14533l-2.58783,0.127l0.02985,2.54542l-2.58783,0.127l0.02586,2.20603l-7.20897,0.35378l-0.02586,-2.20603l-3.14236,0.15421l-0.02985,-2.54542l-2.58783,0.127l-0.09548,-8.14533" fill="#52ff97" stroke="#00a8c1" stroke-width="0"/><path d="M232.85319,148.62855l-0.04135,-3.52763l0.09548,8.14533l-2.58783,0.127l0.02985,2.54542l-2.58783,0.127l0.02586,2.20603l-7.20897,0.35379l-0.02585,-2.20603l-3.14237,0.15421l-0.02985,-2.54542l-2.58783,0.127l-0.09548,-8.14533l0.05135,4.38025" fill="none" stroke="#37ad66" stroke-width="1.5"/></g></g></g></g></g></svg>