<svg version="1.1" xmlns="http://www.w3.org/2000/svg" xmlns:xlink="http://www.w3.org/1999/xlink" width="110.27541" height="130.26124" viewBox="0,0,110.27541,130.26124"><g transform="translate(-180.11175,-110.69099)"><g stroke-miterlimit="10"><path d="M252.47403,201.52049c-0.01596,0.0029 -0.03194,0.00584 -0.04792,0.0088c0,0 -1.35282,0.24597 -1.59879,-1.10685c-0.24597,-1.35282 1.10685,-1.59879 1.10685,-1.59879c3.90435,-0.69721 8.39641,0.01966 11.0279,3.29093c1.69948,2.11267 2.1315,5.09274 3.44398,7.18826c0.32801,0.52371 0.65886,-1.09214 1.17212,-1.43627c1.45816,-0.97768 3.20729,-1.24757 4.89609,-1.41804c2.39802,0.25379 5.62167,1.19455 7.50899,2.82804c4.43317,3.83696 2.95729,10.34242 -1.2118,13.74066c-3.53946,2.88502 -6.8082,1.36059 -10.80572,1.75531c-2.04922,0.41053 -4.17444,1.46064 -6.29393,1.33613c-1.95544,-0.11488 -3.45302,-1.16928 -4.91633,-2.36403c-4.37024,-3.56816 -5.45846,-9.37395 -4.91423,-14.73306c0.19705,-1.94036 0.88511,-3.71203 0.87737,-5.67837c-0.06068,-0.60654 -0.14315,-1.21129 -0.24458,-1.81271z" fill="#ffab19" stroke="#000000" stroke-width="1.2" stroke-linecap="butt"/><g stroke-linecap="butt"><path d="M232.45412,223.92985c4.60379,5.52763 12.87966,4.02582 18.20333,7.22108c1.36304,0.40958 2.51406,1.45043 3.00518,2.90121c0.01285,0.03797 0.02517,0.07599 0.03697,0.11404c0.29102,0.47995 0.32945,0.99728 0.201,1.52647c-0.07314,1.8287 -1.2529,3.50864 -3.08994,4.13051c-0.01206,0.00408 -0.02412,0.00811 -0.03618,0.01208c-1.25912,0.41475 -2.572,0.24945 -3.64657,-0.35157c-3.15466,-0.38672 -7.19615,-0.94955 -7.23496,-0.95718c-12.66825,-2.4921 -22.45315,-12.20052 -25.41729,-24.99178c-0.73465,-3.17025 -1.82701,-8.83678 0.01746,-11.43536c2.60668,-3.6724 8.83023,-3.98356 10.8088,0.22552c3.56235,7.57837 0.2137,13.27411 7.15224,21.60499z" fill="#ffab19" stroke="none" stroke-width="0.5"/><path d="M225.30189,202.32488c2.21053,4.70255 1.75997,8.6802 2.75754,13.01238c-1.7677,0.9083 -3.70905,1.57587 -5.52325,2.35239c-2.04225,0.87414 -4.10915,1.42325 -6.16214,1.65654c-0.79248,-1.84948 -1.43044,-3.79206 -1.89841,-5.81148c-0.73465,-3.17024 -1.82701,-8.83676 0.01747,-11.43536c2.60668,-3.67242 8.83024,-3.98356 10.8088,0.22552z" fill="#ffffff" stroke="none" stroke-width="0.5"/><path d="M232.45411,223.92986c4.60379,5.52763 12.87965,4.02582 18.20332,7.22108c1.36304,0.40958 2.51407,1.45044 3.00518,2.90122c0.01286,0.03797 0.02517,0.07598 0.03696,0.11404c0.29102,0.47995 0.32945,0.99729 0.20101,1.52648c-0.07313,1.8287 -1.2529,3.50863 -3.08993,4.1305c-0.01206,0.00408 -0.02412,0.00811 -0.03618,0.01208c-1.25913,0.41474 -2.572,0.24944 -3.64658,-0.35158c-3.15465,-0.38673 -7.19615,-0.94955 -7.23497,-0.95718c-12.66825,-2.4921 -22.45315,-12.20052 -25.41729,-24.99178c-0.73465,-3.17025 -1.827,-8.83678 0.01747,-11.43536c2.60668,-3.67242 8.83024,-3.98355 10.8088,0.22552c3.56235,7.57836 0.2137,13.2741 7.15223,21.60498z" fill="none" stroke="#000000" stroke-width="1.2"/></g><path d="M277.58079,160.38764c-1.66304,5.94012 -7.93697,8.85327 -7.93697,8.85327" fill="none" stroke="#001026" stroke-width="1.2" stroke-linecap="round"/><path d="M281.28972,170.71009c-2.47347,5.66662 -8.96904,5.28525 -8.96904,5.28525" fill="none" stroke="#001026" stroke-width="1.2" stroke-linecap="round"/><path d="M241.39637,125.71222l10.30838,-13.95309l13.06109,21.04026l-6.57447,18.43169z" fill="#ffab19" stroke="#001026" stroke-width="1.2" stroke-linecap="round"/><path d="M226.81012,195.79275l-36.31772,4.64581l-1.10831,-7.11419l7.59557,-27.90174z" fill="#9b7f41" stroke="#001026" stroke-width="1.2" stroke-linecap="round"/><g stroke="#001026" stroke-linecap="butt"><path d="M236.05354,139.91935c29.09891,-0.15261 31.28992,26.46823 31.28992,26.46823c0,0 14.67906,4.11362 10.98989,16.26436c-4.49606,14.80837 -21.66947,16.31744 -29.00652,16.92714c-26.32019,2.18715 -51.66276,-7.24599 -49.74686,-31.60848c1.33467,-16.97146 18.35877,-27.95624 36.47357,-28.05125z" fill="#ffab19" stroke-width="1.2"/><path d="M249.32683,199.5791c-11.39691,0.94707 -22.61052,-0.28466 -31.50713,-3.96382c-0.35262,-0.44877 -2.88018,-0.76535 -3.15935,-1.23453c-5.77075,-6.6495 -3.10681,-20.41387 4.45891,-23.71385c10.18471,-4.44231 14.89404,2.29035 27.38974,0.32674c9.53429,-1.49824 12.06082,-5.2328 16.47163,-6.0071c1.45471,-0.25537 3.36427,1.80168 4.83128,1.61392c1.50455,0.71338 5.84573,0.98261 8.76097,5.18914c1.97346,2.8476 3.09197,6.47684 1.76047,10.86234c-4.49606,14.80837 -21.66947,16.31744 -29.00652,16.92714z" fill="#ffffff" stroke-width="0"/><path d="M236.05354,139.91935c29.09891,-0.15261 31.28992,26.46823 31.28992,26.46823c0,0 14.67906,4.11362 10.98989,16.26436c-4.49606,14.80837 -21.66947,16.31744 -29.00652,16.92714c-26.32019,2.18715 -51.66276,-7.24599 -49.74686,-31.60848c1.33467,-16.97146 18.35877,-27.95624 36.47357,-28.05125z" fill="none" stroke-width="1.2"/></g><path d="M265.1457,154.71755l-54.14756,5.39937l-10.93825,18.57174c0,0 -4.06075,-8.21136 -7.14379,-13.18633c-3.08304,-4.97495 -6.70944,-8.60764 -6.70944,-8.60764c0,0 4.66316,-6.63557 6.95766,-10.94816c2.2945,-4.31259 7.13345,-15.53656 7.13345,-15.53656c0,0 19.78429,-3.56163 32.79671,-4.58118c13.01242,-1.01954 29.63616,-1.77159 29.63616,-1.77159l-0.10496,15.59844z" fill="#c58600" stroke="#001026" stroke-width="1.2" stroke-linecap="round"/><path d="M247.37101,176.5269c-2.12485,0.1087 -6.25029,-4.10098 -6.13609,-4.30679c0.47998,-0.86506 8.24367,-1.7047 9.21349,-0.62571c0.85725,0.95375 -1.17294,4.83507 -3.07741,4.9325z" fill="#000000" stroke="#000000" stroke-width="1.2" stroke-linecap="round"/><path d="M215.87763,169.80363c-0.47634,-1.4914 -0.69812,-2.9906 -0.69105,-4.43238c5.98259,-0.51971 11.98907,-0.92794 17.92591,-1.78165c0.42958,-0.06178 0.85887,-0.12487 1.28788,-0.18924c0.05142,0.14526 0.1008,0.29197 0.1481,0.44006c2.01637,6.31324 -0.52865,12.76603 -5.68446,14.41273c-5.15581,1.6467 -10.97001,-2.13628 -12.98638,-8.44951z" fill="#ffffff" stroke="#001026" stroke-width="1.2" stroke-linecap="butt"/><path d="M248.40193,164.23992c-1.87318,-6.33555 0.17967,-12.71167 4.58517,-14.24148c4.4055,-1.52981 9.49539,2.36601 11.36857,8.70155c1.87318,6.33554 -0.17967,12.71165 -4.58517,14.24146c-4.4055,1.52981 -9.49538,-2.366 -11.36857,-8.70154z" fill="#ffffff" stroke="#001026" stroke-width="1.2" stroke-linecap="butt"/><path d="M200.24352,130.50405c0,0 -2.20432,5.20571 -3.36308,7.73198c-1.10512,2.40929 -3.43619,7.09131 -3.43619,7.09131l6.63573,19.20748l-16.1858,-11.64731l1.49027,-32.01092l20.95439,8.47548z" fill="#ffab19" stroke="#001026" stroke-width="1.2" stroke-linecap="round"/><path d="M216.21839,178.40818c0,0 -10.50542,-0.29912 -15.29807,-5.23352" fill="none" stroke="#001026" stroke-width="1.2" stroke-linecap="round"/><path d="M214.84344,185.79383c0,0 -9.5565,2.8821 -15.45369,-1.48048" fill="none" stroke="#001026" stroke-width="1.2" stroke-linecap="round"/><path d="M250.77966,165.84188c-1.0232,0.1594 -1.98187,-0.54083 -2.14127,-1.56403c-0.1594,-1.0232 0.54083,-1.98188 1.56403,-2.14128c1.0232,-0.1594 1.98187,0.54083 2.14127,1.56403c0.1594,1.0232 -0.54084,1.98188 -1.56403,2.14128z" fill="#000000" stroke="#000000" stroke-width="1.2" stroke-linecap="butt"/><path d="M219.35011,170.06447c-1.02319,0.1594 -1.98188,-0.54084 -2.14128,-1.56404c-0.1594,-1.0232 0.54084,-1.98187 1.56403,-2.14127c1.02319,-0.1594 1.98188,0.54083 2.14128,1.56403c0.1594,1.0232 -0.54084,1.98188 -1.56403,2.14128z" fill="#000000" stroke="#000000" stroke-width="1.2" stroke-linecap="butt"/><g stroke-linecap="butt"><path d="M259.30271,238.93996c-4.49683,3.36227 -13.03437,0.19766 -16.15839,-4.01536c-2.10549,-2.83945 -2.71476,-7.01163 -3.23309,-10.42502c-0.44706,-3.04689 -1.95432,-6.40875 -3.7379,-8.9263c-2.64859,-3.73851 -6.24534,-7.71605 -2.74826,-12.23027c0.94597,-1.22111 2.28699,-2.40595 3.54373,-3.29157c1.51202,-1.06551 3.00891,-1.61332 4.78735,-2.05683c5.4972,-1.40587 14.0187,-1.31262 17.62582,4.06517c2.44799,3.64965 1.96792,9.15879 3.88556,13.21363c0.866,2.53044 2.40716,4.75777 2.94569,7.40037c1.16309,5.70736 -1.13615,13.25501 -6.54297,16.06046z" fill="#ffab19" stroke="#000000" stroke-width="1.2"/><path d="M259.20596,214.90278c0.8569,4.72283 5.21722,10.46262 1.97828,14.32763c-0.61826,1.08247 -1.70074,1.8878 -3.02645,2.10731c-6.93189,1.14777 -9.71902,-5.60736 -12.16744,-12.19324c-2.69797,-7.25717 -3.42053,-13.27316 4.24989,-16.36138c3.42385,-1.37849 5.71627,2.70866 6.92862,5.16744c1.05723,2.14415 1.59751,4.5294 2.03711,6.95222z" fill="#ffffff" stroke="none" stroke-width="0.5"/></g><path d="M235.41543,160.02942l-0.88235,0.88235l1.91177,1.02941l-1.47058,1.17647l-32.20589,3.52941" fill="none" stroke="#001026" stroke-width="1.2" stroke-linecap="round"/><path d="M269.89249,214.35743c-0.69008,-1.68521 -0.51294,-3.69326 0.98961,-5.73679c1.49291,-2.03043 3.55728,-2.56218 5.44359,-3.97536c1.42357,-1.06651 1.82058,-2.89257 3.63909,-3.60842c3.02206,-1.18961 5.69806,0.93783 7.24658,3.18821c0.77929,2.5003 3.09774,5.95699 2.46894,8.53432c-0.34942,1.43218 -1.24086,1.99061 -2.11031,3.00977c-3.71049,4.34939 -14.39245,13.70566 -17.91811,3.91506c-0.51931,-1.4421 -0.31352,-2.31043 -0.21715,-3.77792c0.15258,-0.5163 0.30518,-1.03258 0.45776,-1.54887z" fill="#ffab19" stroke="#000000" stroke-width="1.2" stroke-linecap="butt"/><path d="M260.26838,185.61765c0,0 -10.38616,18.1186 -16.76471,15c-7.36357,-3.60019 -0.73529,-16.17647 -0.73529,-16.17647" fill="#ffffff" stroke="#000000" stroke-width="1.2" stroke-linecap="round"/><path d="M270.25582,185.99825c0,0 -1.83734,1.89239 -3.61215,1.25593c-4.49317,-1.61128 -6.34711,-1.90112 -12.72287,-2.59923c-8.57527,-0.93893 -15.55099,-0.24672 -16.43257,-0.18861c-1.72357,0.11362 -3.15577,-1.83555 -3.15577,-1.83555" fill="none" stroke="#000000" stroke-width="1.2" stroke-linecap="round"/><path d="M240.72605,210.35966c-0.48349,2.05598 -1.04695,4.15001 -1.14321,6.22629c-0.21553,4.64887 1.13366,9.8748 -0.35521,14.2726c-1.92012,5.67164 -7.88931,3.82627 -11.69603,0.53965c-2.18636,-1.8952 -4.14419,-4.14138 -6.67265,-5.61258c-2.32679,-1.35386 -5.42298,-1.83364 -7.21509,-4.09937c-2.38138,-3.01074 -2.97364,-9.93453 0.04856,-11.98633c1.56515,-1.0626 3.44464,-0.91849 5.32091,-0.71136c2.9428,0.63609 5.52696,1.94175 7.75593,4.16536c0.51556,0.51432 1.05947,1.00363 1.5332,1.55653c0.3369,0.3932 0.91466,1.81431 0.79076,1.32679c-1.00697,-3.96238 2.20943,-11.26691 5.07459,-13.69519" fill="#ffab19" stroke="#000000" stroke-width="1.2" stroke-linecap="butt"/><g stroke="#000000" stroke-width="1.2"><path d="M208.58319,204.47092c0.53299,0.0267 1.34957,0.29401 1.59061,-0.18212c1.08491,-2.14304 -3.68976,-4.58729 -3.78181,-6.77181c-0.13764,-3.26637 2.22376,-3.68224 4.81321,-3.23042c3.47294,0.60597 5.94155,2.72756 8.01268,5.4452c0.55137,2.40909 -0.30977,4.65213 0.25857,7.03417c0.43773,1.8346 1.72355,3.4301 2.05279,5.31362c0.30711,1.75697 -0.29573,3.13512 -0.63297,4.78915c-0.30785,1.50987 0.57935,2.75024 0.4188,4.26771c-0.2747,2.59649 -2.31,3.54972 -4.2295,4.7771l-0.42879,1.43141c-4.86898,3.83809 -9.78659,5.80303 -15.52676,2.34552c-1.54622,-2.01492 -1.19956,-2.64195 -1.43807,-4.94478c-0.19043,-1.83852 -1.52297,-2.29654 -1.27482,-4.46089c0.05156,-0.44969 1.55925,-3.10242 1.49952,-3.3573c-0.10737,-0.45817 -0.94382,0.01784 -1.40886,0.08978c-1.81778,0.28123 -3.31107,1.14634 -4.8879,2.02482c-3.27356,1.82378 -6.43355,3.33422 -10.17897,2.31555c-4.56959,-3.31162 -2.87484,-8.04393 1.21644,-10.93636c4.33885,-3.06745 21.39947,-6.07694 23.92583,-5.95035z" fill="#ffab19" stroke-linecap="butt"/><path d="M203.98075,216.20809c0,0 8.92035,-1.11184 10.61298,-0.32036c1.69263,0.79148 1.59545,5.60041 1.59545,5.60041c0,0 1.5665,2.85653 0.56748,5.02828" fill="none" stroke-linecap="round"/></g></g></g></svg>