<svg version="1.1" xmlns="http://www.w3.org/2000/svg" xmlns:xlink="http://www.w3.org/1999/xlink" width="95.36082" height="124.9618" viewBox="0,0,95.36082,124.9618"><g transform="translate(-184.95551,-119.39512)"><g stroke-miterlimit="10"><path d="M227.39896,217.6305c0,-7.85536 6.36803,-14.2234 14.2234,-14.2234c7.85536,0 14.2234,6.36803 14.2234,14.2234c0,7.85536 -6.36803,14.2234 -14.2234,14.2234c-7.85536,0 -14.2234,-6.36803 -14.2234,-14.2234z" fill="#d5d5d5" fill-rule="nonzero" stroke="#001026" stroke-width="1.2" stroke-linecap="butt" stroke-linejoin="miter"/><path d="M195.95563,225.31861c0,-8.22195 6.66521,-14.88716 14.88716,-14.88716c8.22195,0 14.88716,6.66521 14.88716,14.88716c0,8.22195 -6.66521,14.88716 -14.88716,14.88716c-8.22195,0 -14.88716,-6.66521 -14.88716,-14.88716z" fill="#d5d5d5" fill-rule="nonzero" stroke="#001026" stroke-width="1.2" stroke-linecap="butt" stroke-linejoin="miter"/><path d="M255.22109,209.8704c0,0 5.70386,-10.70596 8.8015,-16.52013c3.464,-6.50182 -6.12033,-25.51763 -6.12033,-25.51763l10.71505,-1.59412c0,0 8.57648,21.99805 5.80339,28.43645c-3.16784,7.35492 -10.17996,23.63521 -10.17996,23.63521z" fill="#2b2b2b" fill-rule="nonzero" stroke="#001026" stroke-width="1.2" stroke-linecap="butt" stroke-linejoin="miter"/><path d="M196.6384,211.73006l-0.78849,-4.75156c0,0 44.54056,-0.4483 57.22032,0.5058c6.07868,0.4574 14.96231,4.92568 14.96231,4.92568l-1.2276,7.16955c0,0 -25.32442,2.075 -37.30304,0.73497c-11.37947,-1.27301 -32.8635,-8.58443 -32.8635,-8.58443z" fill="#2b2b2b" fill-rule="nonzero" stroke="#001026" stroke-width="1.2" stroke-linecap="butt" stroke-linejoin="miter"/><path d="M195.84991,207.60213l0.98208,-67.27224c0,0 9.80035,-20.13257 16.94082,-20.13257c10.60422,0 39.52858,0 39.52858,0v87.40481z" fill="#2b2b2b" fill-rule="nonzero" stroke="#001026" stroke-width="1.2" stroke-linecap="butt" stroke-linejoin="miter"/><path d="M258.51193,229.15343c2.94029,0.06872 8.64178,0.44685 6.72259,5.87425c-1.7998,5.26694 -19.02176,4.79302 -19.48316,-0.78525c0.01094,-2.36006 4.48789,-10.61969 4.7806,-12.52083c0.54848,-3.25853 -12.36582,-0.84126 -17.37624,-4.56138c-2.31348,-1.71771 1.05111,-10.68693 1.04808,-11.47662c-0.00959,-2.49998 17.81601,5.08516 26.65855,6.98378c-1.57903,4.18859 -2.79073,16.40775 -2.35042,16.48605z" fill="#ffab19" fill-rule="evenodd" stroke="#001026" stroke-width="1.2" stroke-linecap="round" stroke-linejoin="round"/><path d="M274.48408,185.2672c-1.11656,3.61259 -16.83419,15.65889 -23.83997,14.62048c-2.4633,-0.36512 -18.70281,-19.22625 -11.79273,-22.40363c6.91008,-3.17737 10.18453,3.80994 12.94465,7.66637c2.27863,3.28317 14.67804,-4.33543 15.61274,-4.69568c1.9313,-0.84657 3.17708,0.05486 4.67208,1.41179c1.01154,0.91812 2.82693,1.81486 2.40325,3.40068z" fill="#ffab19" fill-rule="evenodd" stroke="#001026" stroke-width="1.2" stroke-linecap="round" stroke-linejoin="round"/><g fill-rule="evenodd"><path d="M226.87779,202.42383c1.04024,0.52012 3.25076,1.69039 0.13003,6.11142c-3.12073,4.42103 -12.09281,5.33124 -13.13305,5.33124c-4.03094,0.13003 -8.97209,0.13003 -14.43335,-1.69039c-15.86369,-5.20121 -15.99372,-22.23517 -10.92254,-24.9658c4.94115,-2.73063 7.15166,7.80181 14.30332,14.17329c3.12073,2.86066 6.8916,3.90091 10.01233,4.55106c4.42103,0.78018 12.87299,-4.16097 14.04326,-3.51082z" fill="#ffab19" stroke="#001026" stroke-width="1.2" stroke-linecap="round" stroke-linejoin="round"/><path d="M194.63029,191.89139c2.08048,3.51082 6.11142,8.45196 6.11142,8.45196c0,0 -4.81112,-1.17027 -7.54175,1.04024c-2.21051,1.69039 -1.69039,4.55106 -1.43033,5.46127c-1.69039,-1.69039 -3.77088,-4.03094 -5.07118,-8.58199c-1.3003,-4.55106 0,-10.01233 2.6006,-10.79251c2.6006,-0.52012 3.25076,1.43033 5.33124,4.42103z" fill="#ffffff" stroke="none" stroke-width="1" stroke-linecap="butt" stroke-linejoin="miter"/></g><g fill-rule="evenodd"><path d="M230.43215,211.92067c-16.27048,-2.47805 -11.33039,-11.98992 -12.16764,-19.57326c-0.49707,-6.6339 1.38715,-6.62176 9.10982,-10.1165c4.23081,-2.18297 6.72429,-3.46046 9.11984,-5.34968c3.63372,-2.77757 6.83473,3.10984 7.84063,6.65066c0,0 1.41221,5.29533 1.48333,8.48382c0.03333,2.29061 -0.63045,12.27948 -5.03367,17.23897c-3.0572,3.44343 -10.35232,2.66599 -10.35232,2.66599z" fill="#ffab19" stroke="#001026" stroke-width="1.2" stroke-linecap="round" stroke-linejoin="round"/><path d="M244.01757,201.15058c0,0 -2.6575,-0.13935 -5.66981,-0.53561c-3.70484,-0.41092 -7.1674,-0.48416 -7.4197,-5.58868c0.08789,-4.15508 -0.58285,-9.12987 6.82431,-9.49974c7.02053,-0.43347 6.90084,3.91491 6.90084,3.91491c1.15779,6.84186 -0.63565,11.7091 -0.63565,11.7091z" fill="#ffffff" stroke="none" stroke-width="1" stroke-linecap="butt" stroke-linejoin="miter"/></g><path d="M257.13241,172.04971c0,-4.64189 3.763,-8.40489 8.40489,-8.40489c4.64189,0 8.40489,3.763 8.40489,8.40489c0,4.64189 -3.763,8.40489 -8.40489,8.40489c-4.64189,0 -8.40489,-3.763 -8.40489,-8.40489z" fill="#ffab19" fill-rule="nonzero" stroke="#001026" stroke-width="1.2" stroke-linecap="butt" stroke-linejoin="miter"/><path d="M243.30364,119.89435c0.3,-0.2 0.8,-0.1 0.9,0.3l2.6,10.7c0,0 6.4,4.7 8.3,8c3.2,5.5 3.3,10 3.3,10c0,0 7.1,2.1 8.3,7.8c1.2,5.7 -3.2,16.5 -22,20.2c-18.8,3.7 -33.9,-1.4 -41,-12.8c-7.1,-11.4 4.1,-25 3.5,-24.2l-2.1,-17.9c-0.1,-0.4 0.4,-0.7 0.8,-0.5l12.1,7.9c0,0 4.5,-1.7 9.2,-1.9c2.8,-0.2 5.2,0 7.5,0.4z" fill="#ffab19" fill-rule="evenodd" stroke="#001026" stroke-width="1.2" stroke-linecap="butt" stroke-linejoin="miter"/><path d="M258.10364,149.29432c0,0 6.9,1.8 8.1,7.5c1.2,5.7 -3.6,16 -22.2,19.6c-24.2,5 -35.7,-9.4 -29,-20c6.7,-10.7 18.2,-1.6 26.6,-2.2c7.2,-0.5 8,-6.8 16.5,-4.9z" fill="#ffffff" fill-rule="evenodd" stroke="none" stroke-width="1" stroke-linecap="butt" stroke-linejoin="miter"/><path d="M213.27788,143.61736c0,-6.64545 5.3872,-12.03265 12.03264,-12.03265c6.64545,0 12.03265,5.3872 12.03265,12.03265c0,6.64545 -5.38719,12.03265 -12.03265,12.03265c-6.64545,0 -12.03263,-5.3872 -12.03263,-12.03265z" fill="#ffffff" fill-rule="nonzero" stroke="#001026" stroke-width="1.2" stroke-linecap="butt" stroke-linejoin="miter"/><path d="M276.33896,150.55901c-4.7,3.8 -11.9,3.9 -11.9,3.9" fill="none" fill-rule="evenodd" stroke="#001026" stroke-width="1.2" stroke-linecap="round" stroke-linejoin="round"/><path d="M275.03898,161.75895c-6.3,0.5 -10.2,-1.4 -10.2,-1.4" fill="none" fill-rule="evenodd" stroke="#001026" stroke-width="1.2" stroke-linecap="round" stroke-linejoin="round"/><path d="M241.20364,151.59429c2.1,0 4.3,0.2 4.4,0.9c0.1,1.4 -1.4,4.2 -3,4.3c-1.8,0.2 -6,-2.3 -6,-3.9c-0.1,-1.2 2.6,-1.3 4.6,-1.3z" fill="#001026" fill-rule="evenodd" stroke="#001026" stroke-width="1.2" stroke-linecap="round" stroke-linejoin="round"/><path d="M196.20364,150.09429c0,0 8.6,2.8 12.1,5.9" fill="none" fill-rule="evenodd" stroke="#001026" stroke-width="1.2" stroke-linecap="round" stroke-linejoin="round"/><path d="M208.60364,159.49435c-4.3,1.7 -11.7,0.6 -11.7,0.6" fill="none" fill-rule="evenodd" stroke="#001026" stroke-width="1.2" stroke-linecap="round" stroke-linejoin="round"/><path d="M237.35364,143.86237c0,1.95364 -2.30651,7.4269 -4.08255,7.4269c-1.77604,0 -2.3112,-5.47326 -2.3112,-7.4269c0,-1.95364 1.42083,-3.55208 3.19687,-3.55208c1.77604,0.1776 3.19688,1.59843 3.19688,3.55208" fill="#001026" fill-rule="evenodd" stroke="none" stroke-width="1" stroke-linecap="butt" stroke-linejoin="miter"/><path d="M239.53627,134.04755c0,0 -1.11696,5.4535 -2.96131,3.59199c-3.49696,-3.52949 -15.37157,-16.05474 -15.37157,-16.05474" fill="none" fill-rule="nonzero" stroke="#001026" stroke-width="2.5" stroke-linecap="round" stroke-linejoin="miter"/><path d="M242.69278,142.1796c0,-6.10878 5.3872,-11.06091 12.03264,-11.06091c6.64545,0 12.03265,4.95214 12.03265,11.06091c0,6.10878 -5.3872,11.06091 -12.03265,11.06091c-6.64545,0 -12.03263,-4.95213 -12.03263,-11.06091z" fill="#ffffff" fill-rule="nonzero" stroke="#001026" stroke-width="1.2" stroke-linecap="butt" stroke-linejoin="miter"/><path d="M266.76855,142.74934c0,1.79587 -2.3065,6.91862 -4.08254,6.91862c-1.77604,0 -2.3112,-5.12275 -2.3112,-6.91862c0,-1.79587 1.42083,-3.26522 3.19687,-3.26522c1.77604,0.16326 3.19687,1.46935 3.19687,3.26522" fill="#001026" fill-rule="evenodd" stroke="none" stroke-width="1" stroke-linecap="butt" stroke-linejoin="miter"/><path d="M243.31266,136.50125c0,0 3.38998,-4.26447 5.89204,-4.66835c4.21239,-0.67996 17.04664,-2.73705 17.04664,-2.73705" fill="none" fill-rule="nonzero" stroke="#001026" stroke-width="2.5" stroke-linecap="round" stroke-linejoin="miter"/><path d="M228.93917,216.83795c0,8.80599 -2.91687,15.94466 -6.51502,15.94466c-3.59815,0 -6.51502,-7.13867 -6.51502,-15.94466c0,-8.80599 2.91687,-15.94466 6.51502,-15.94466c3.59815,0 6.51502,7.13867 6.51502,15.94466z" fill="#ffab19" fill-rule="nonzero" stroke="#001026" stroke-width="1.2" stroke-linecap="butt" stroke-linejoin="miter"/><g stroke="#001026" stroke-width="1.2" stroke-linecap="round"><g><path d="M211.58951,155.72636c0.07172,-0.52393 0.64943,-0.84517 1.15544,-0.64247c2.36318,1.25752 9.14942,4.32138 16.93669,5.92101c7.01931,1.36107 11.26455,1.54183 13.28308,1.4178c0.67284,-0.04134 1.10714,0.68529 0.75553,1.30435c-1.66291,3.37519 -7.98489,12.51764 -21.63055,9.84928c-11.74018,-2.9413 -11.77162,-11.48557 -10.50019,-17.84996z" fill="#ffffff" fill-rule="evenodd" stroke-linejoin="round"/><path d="M219.15171,166.1884c0,0 -2.69699,-2.38465 -3.77115,-3.92712c-1.24923,-1.79389 -3.27867,-6.19633 -3.27867,-6.19633" fill="none" fill-rule="nonzero" stroke-linejoin="miter"/></g><path d="M254.68618,161.60843c-1.64527,0.15731 -4.12918,0.43571 -5.88963,0.46068c-2.53278,0.03593 -6.65512,0.28429 -6.65512,0.28429" fill="none" fill-rule="nonzero" stroke-linejoin="miter"/></g><path d="M205.47273,195.37791c1.13217,-4.07494 21.39008,-19.83385 27.19525,-17.65692c5.56022,7.06493 -4.74892,9.63457 -8.37715,12.2469c-2.17693,1.59642 -4.35388,3.33796 -5.9503,4.35387c-0.13251,0.22085 7.17388,11.5586 6.9523,18.40963c-0.1376,4.25465 -7.59928,5.28264 -8.13049,5.38467c-6.83663,1.31312 -11.26645,-21.25704 -11.68962,-22.73815z" fill="#ffab19" fill-rule="evenodd" stroke="#001026" stroke-width="1.2" stroke-linecap="round" stroke-linejoin="round"/><g fill-rule="nonzero" stroke="#001026" stroke-width="1.2" stroke-linecap="round" stroke-linejoin="miter"><path d="M267.83995,191.06126l-3.80629,-0.01839l-0.58088,-4.41913l-1.14027,-2.09786l2.59023,-3.97144z" fill="#ffab19"/><path d="M276.36235,176.97328l3.27232,13.05632l-5.37671,3.819l-6.37812,0.14677l-1.78422,-3.05063l0.20588,-1.06448l-1.34135,-3.62756l-0.03111,-1.55204l-1.38603,-3.96749l4.20053,-4.87472z" fill="#ffab19"/><path d="M268.31085,181.48969l-1.72682,2.64762" fill="none"/><path d="M270.12616,186.09236l-2.53196,3.09926" fill="none"/></g><path d="M243.96262,236.31783c0,4.1085 -9.13169,7.43909 -20.39619,7.43909c-11.26451,0 -20.39619,-3.33059 -20.39619,-7.43909c0,-4.1085 9.13169,-7.43909 20.39619,-7.43909c11.26451,0 20.39619,3.33059 20.39619,7.43909z" fill="#ffab19" fill-rule="nonzero" stroke="#001026" stroke-width="1.2" stroke-linecap="butt" stroke-linejoin="miter"/></g></g></svg>