<svg version="1.1" xmlns="http://www.w3.org/2000/svg" xmlns:xlink="http://www.w3.org/1999/xlink" width="154.18379" height="164.13438" viewBox="0,0,154.18379,164.13438"><defs><radialGradient cx="228.10362" cy="177.50479" r="38.25582" gradientUnits="userSpaceOnUse" id="color-1"><stop offset="0" stop-color="#180036"/><stop offset="1" stop-color="#1d1d1d"/></radialGradient></defs><g transform="translate(-144.95378,-106.09134)"><g stroke-miterlimit="10"><g stroke="#000000"><g stroke-width="0" stroke-linecap="round"><path d="M277.91266,202.18058l6.11644,7.71953l-3.98018,1.44372l4.12918,5.59292l-5.59916,21.18144l-17.38887,-8.37648l-1.74811,-7.23826l-3.90425,3.5378l0.20687,-11.85564" fill="#0063eb"/><path d="M273.93824,202.96824l4.20173,5.30299l-2.73421,0.99177l4.09725,7.00273l-3.84638,14.55073l-11.94539,-5.75427l-2.46154,-8.13303l-2.68205,2.43032l0.1421,-8.14431" fill="#629beb"/></g><path d="M253.51821,217.17064l-17.65651,-45.21836c0,0 -5.75638,-14.47531 7.17739,-21.34809c13.56391,-7.20762 19.24507,7.03907 19.24507,7.03907l17.96872,45.04925c0,0 -1.88764,4.05392 -12.57062,10.01041c-10.98781,6.12645 -14.16407,4.46771 -14.16407,4.46771z" fill="#5d5d5d" stroke-width="1.2" stroke-linecap="butt"/></g><g stroke="#000000"><g stroke-width="0" stroke-linecap="round"><path d="M184.79849,203.55778l-5.60812,8.54816l-2.28899,-3.56426l-4.13631,5.88872l-20.80497,0.90342l3.48313,-20.10907l6.22345,-3.99799l-4.19352,-2.84069l10.9365,-3.45496" fill="#0063eb"/><path d="M183.11328,199.79659l-3.85253,5.8722l-1.57244,-2.4485l-5.43861,6.29217l-14.29212,0.62061l2.39276,-13.81406l6.87238,-4.99331l-2.88077,-1.95144l7.5129,-2.3734" fill="#629beb"/></g><path d="M165.12977,183.6102l37.24839,-31.76285c0,0 11.89875,-10.27291 21.33999,0.63529c9.90123,11.43964 -1.8058,21.56612 -1.8058,21.56612l-37.01756,32.0252c0,0 -4.17936,-0.64929 -12.23447,-9.57277c-8.28496,-9.1781 -7.53056,-12.89099 -7.53056,-12.89099z" fill="#5d5d5d" stroke-width="1.2" stroke-linecap="butt"/></g><g stroke="#000000" stroke-width="1.2"><path d="M264.93955,226.26871l-7.12986,-3.26413l-0.0357,-13.60331l-2.01631,-11.40391l3.16597,-3.40391l4.44241,-0.96793l9.48767,8.24091l10.72215,7.29382l-1.5772,7.65869l-7.15133,6.11287z" fill="#707070" stroke-linecap="round"/><path d="M279.62806,249.87852l-14.95858,-29.42454l-2.18581,1.74206l7.76044,-6.15634l10.16316,-4.32552l-2.98124,1.31803l16.95702,28.91836" fill="#5d5d5d" stroke-linecap="round"/><path d="M293.26873,257.30702c-4.86505,2.61402 -10.92804,0.7892 -13.54206,-4.07585c-2.61402,-4.86505 -0.7892,-10.92804 4.07585,-13.54206c4.86505,-2.61402 10.92804,-0.78921 13.54206,4.07585c2.61402,4.86505 0.78921,10.92804 -4.07584,13.54206z" fill="#707070" stroke-linecap="butt"/></g><g stroke="#000000" stroke-width="1.2"><path d="M202.44603,134.74041c-0.90683,9.10307 -4.4064,16.59174 -7.81649,16.72643c-3.41011,0.13469 -5.43941,-7.13561 -4.53258,-16.23868c0.90683,-9.10307 4.4064,-16.59175 7.81649,-16.72643c3.41011,-0.13469 5.43941,7.13562 4.53257,16.23869z" fill="#454545" stroke-linecap="butt"/><path d="M199.1025,165.04567l4.04382,-35.59205l-1.00055,6.33582l-7.04076,0.01405l1.3518,-17.26686l12.95657,-11.83659l7.59007,0.28189l-7.18332,55.29214" fill="#5d5d5d" stroke-linecap="round"/></g><g stroke="#000000" stroke-width="1.2"><path d="M266.81251,139.76338c-1.42002,8.89682 -5.29407,15.51705 -8.65292,14.78672c-1.46149,-0.31778 -2.58462,-1.97484 -3.27018,-4.4784c-0.89004,-3.25031 -1.04258,-7.9274 -0.24041,-12.95311c1.42001,-8.89682 5.29407,-15.51706 8.65292,-14.78671c3.35886,0.73035 4.9306,8.5347 3.51058,17.43151z" fill="#454545" stroke-linecap="butt"/><path d="M257.5843,168.44681l6.04171,-34.65919l-1.35132,6.09854l-3.01825,-1.60245l2.33162,-16.9691l9.51848,-8.74985l7.44223,2.20877l-10.27141,53.61427" fill="#5d5d5d" stroke-linecap="round"/></g><g stroke="#000000" stroke-width="1.2"><path d="M181.81347,220.14674l-7.29875,-5.93607l-1.76413,-7.61781l10.54048,-7.55397l9.2832,-8.47059l4.46475,0.85894l3.24832,3.32543l-1.73668,11.44984l0.29715,13.60011l-7.04787,3.4376z" fill="#707070" stroke-linecap="round"/><path d="M162.74895,239.63778l16.24438,-29.3246l-3.01259,-1.2447l10.26595,4.07556l7.90874,5.96462l-2.22777,-1.68804l-14.23416,29.78172" fill="#5d5d5d" stroke-linecap="round"/><path d="M159.83272,241.5241c2.49419,-4.92756 8.51073,-6.90016 13.43829,-4.40597c4.92756,2.49419 6.90017,8.51072 4.40596,13.43828c-2.49419,4.92756 -8.51073,6.90017 -13.43828,4.40598c-4.92756,-2.49419 -6.90017,-8.51072 -4.40597,-13.43828z" fill="#707070" stroke-linecap="butt"/></g><g><g stroke-linecap="butt"><g><path d="M188.29196,179.62865c3.23321,-25.3508 26.40511,-43.28064 51.7559,-40.04743c25.3508,3.23321 43.28064,26.40511 40.04743,51.7559c-3.23321,25.3508 -26.40511,43.28064 -51.7559,40.04743c-25.3508,-3.23321 -43.28064,-26.40511 -40.04743,-51.7559z" fill="#5d5d5d" stroke="#000000" stroke-width="1.2"/><path d="M240.28481,140.25806c0,0 1.47763,0.20659 2.20644,0.33543c23.82421,4.21138 40.37963,26.44571 37.28589,50.70304c-3.06759,24.05227 -24.33587,41.33045 -48.20731,39.76557c-0.94001,-0.06161 -2.83118,-0.27326 -2.83118,-0.27326z" fill="#686868" stroke="#000000" stroke-width="0"/><path d="M194.3364,180.39956c2.87466,-22.53962 23.47702,-38.48121 46.01664,-35.60653c22.53962,2.87466 38.48122,23.47703 35.60654,46.01664c-2.87466,22.53962 -23.47702,38.48121 -46.01665,35.60653c-22.53962,-2.87466 -38.48121,-23.47701 -35.60653,-46.01664z" fill="#707070" stroke="#838383" stroke-width="0"/><path d="M197.19956,180.76472c2.673,-20.95833 21.82998,-35.78153 42.7883,-33.10854c20.95833,2.673 35.78154,21.82998 33.10855,42.7883c-2.673,20.95833 -21.82999,35.78154 -42.78831,33.10855c-20.95833,-2.673 -35.78153,-21.82999 -33.10854,-42.78831z" fill="url(#color-1)" stroke="#000000" stroke-width="1.2"/></g><g stroke="#000000"><path d="M196.70515,192.18541c0,0 -1.68806,-7.11267 -1.0595,-11.69068c0.62857,-4.57802 4.18544,-11.07624 4.18544,-11.07624c0.34045,0.05974 1.18973,0.21438 1.64449,0.34694c5.38,1.5681 8.97188,6.85766 8.24048,12.59234c-0.76451,5.99429 -5.9793,10.33223 -11.90264,10.11854c-0.35176,-0.0127 -1.06198,-0.08683 -1.06198,-0.08683c0,0 -0.01661,-0.07144 -0.0463,-0.20404z" fill="#707070" stroke-width="0"/><path d="M199.83111,169.41846c0.34045,0.05974 1.18973,0.21438 1.64449,0.34694c5.37999,1.5681 8.97188,6.85766 8.24048,12.59234c-0.76451,5.99429 -5.9793,10.33223 -11.90264,10.11854c-0.35176,-0.0127 -1.06198,-0.08683 -1.06198,-0.08683c0,0 -0.01661,-0.07144 -0.0463,-0.20404" fill="none" stroke-width="1.2"/></g><g stroke="#000000"><path d="M270.69289,201.40671c-0.04688,0.12283 -0.07251,0.1889 -0.07251,0.1889c0,0 -0.47204,-0.07664 -0.70077,-0.138c-3.85202,-1.03305 -6.29502,-6.34764 -5.53052,-12.34192c0.73139,-5.73468 4.14834,-10.13034 7.93491,-10.52935c0.32007,-0.03373 0.89834,-0.00631 1.1297,0.00688c0,0 1.24595,4.76384 0.36959,11.65718c-0.85119,6.69536 -3.13037,11.15632 -3.13037,11.15632z" fill="#707070" stroke-width="0"/><path d="M270.69289,201.40671c-0.04688,0.12283 -0.07251,0.1889 -0.07251,0.1889c0,0 -0.47204,-0.07664 -0.70077,-0.138c-3.85202,-1.03305 -6.29502,-6.34764 -5.53052,-12.34192c0.73139,-5.73468 4.14834,-10.13034 7.93491,-10.52935c0.32007,-0.03373 0.89834,-0.00631 1.1297,0.00688" fill="none" stroke-width="1.2"/></g><path d="M196.7882,183.8033l0.79234,-6.21256l4.70648,-0.97816l4.17772,2.11124l-0.79234,6.21256l-4.72299,1.10758z" fill="#21cc26" stroke="#17921c" stroke-width="1.2"/><path d="M266.35995,192.67637l0.79234,-6.21256l3.27525,-1.1607l2.78856,1.93407l-0.79234,6.21256l-3.29175,1.29012z" fill="#21cc26" stroke="#17921c" stroke-width="1.2"/></g><g stroke-linecap="round"><path d="M232.08718,156.82891l2.18313,0.27843l0.48033,-1.04806l1.56044,0.26834l1.43684,-1.48073l0.87365,-1.41389l1.15664,-2.0018l0.39509,2.33837l1.01918,1.79397l1.12221,1.52978l2.39374,1.3453l1.141,0.83885l-1.20469,0.74769l-1.21931,-0.22484l-1.77657,0.88275l-1.33381,1.21653l-1.25827,1.71151l-0.85763,1.83193l-0.82598,-0.59067l0.08246,-2.27747l-0.75046,-0.09571l0.08841,-1.23671l-1.39511,-1.5646l-1.61857,-0.89975l-1.63598,-0.76332z" fill="#eee796" stroke="#eee796" stroke-width="0.25"/><path d="M231.948,158.04703l0.17228,-1.35082l2.25135,0.28714l0.11486,-0.90054l1.80109,0.22971l0.14357,-1.12568l1.20072,0.15313l-0.69814,-0.08903" fill="none" stroke="#cec344" stroke-width="0.75"/><path d="M237.75652,154.36268l-0.12464,0.9773l0.22971,-1.80109l0.90054,0.11486l0.28714,-2.25136l1.35082,0.17228" fill="none" stroke="#cec344" stroke-width="0.75"/><path d="M241.53652,155.83795l-0.69814,-0.08903l1.20072,0.15313l-0.14357,1.12568l1.80109,0.22971l-0.11486,0.90054l2.25135,0.28714l-0.17228,1.35082" fill="none" stroke="#cec344" stroke-width="0.75"/><path d="M239.10386,151.40934l1.35082,0.17228l-0.28714,2.25136l0.90054,0.11486l-0.22971,1.80109l0.12464,-0.97731" fill="none" stroke="#cec344" stroke-width="0.75"/><path d="M236.22809,160.78383l0.69814,0.08903l-1.20072,-0.15313l0.14357,-1.12568l-1.80109,-0.22971l0.11486,-0.90054l-2.25135,-0.28714l0.17228,-1.35082" fill="none" stroke="#cec344" stroke-width="0.75"/><path d="M238.66075,165.21244l-1.35082,-0.17228l0.28714,-2.25136l-0.90054,-0.11486l0.2297,-1.80108l-0.12464,0.9773" fill="none" stroke="#cec344" stroke-width="0.75"/><path d="M245.81659,158.57475l-0.17228,1.35082l-2.25135,-0.28714l-0.11486,0.90054l-1.80109,-0.22971l-0.14357,1.12568l-1.20072,-0.15313l0.69814,0.08903" fill="none" stroke="#cec344" stroke-width="0.75"/><path d="M240.00807,162.2591l0.12464,-0.9773l-0.22971,1.80109l-0.90054,-0.11486l-0.28714,2.25136l-1.35082,-0.17228" fill="none" stroke="#cec344" stroke-width="0.75"/></g><g stroke-linecap="round"><path d="M225.08676,211.71764l2.18313,0.27843l0.48033,-1.04806l1.56044,0.26834l1.43684,-1.48073l0.87365,-1.41389l1.15664,-2.0018l0.39509,2.33837l1.01918,1.79397l1.12221,1.52978l2.39374,1.3453l1.141,0.83885l-1.20469,0.74769l-1.21931,-0.22484l-1.77657,0.88275l-1.33381,1.21654l-1.25827,1.71151l-0.85763,1.83193l-0.82598,-0.59067l0.08246,-2.27747l-0.75046,-0.09571l0.08841,-1.23671l-1.39511,-1.56459l-1.61857,-0.89976l-1.63598,-0.76331z" fill="#eee796" stroke="#eee796" stroke-width="0.25"/><path d="M224.94758,212.93575l0.17228,-1.35082l2.25135,0.28714l0.11486,-0.90054l1.80109,0.22971l0.14356,-1.12567l1.20072,0.15313l-0.69814,-0.08903" fill="none" stroke="#cec344" stroke-width="0.75"/><path d="M230.75611,209.2514l-0.12464,0.9773l0.22971,-1.80109l0.90054,0.11486l0.28714,-2.25136l1.35082,0.17228" fill="none" stroke="#cec344" stroke-width="0.75"/><path d="M234.53609,210.72668l-0.69814,-0.08903l1.20072,0.15313l-0.14356,1.12567l1.80109,0.22971l-0.11486,0.90054l2.25135,0.28714l-0.17228,1.35082" fill="none" stroke="#cec344" stroke-width="0.75"/><path d="M232.10343,206.29806l1.35082,0.17228l-0.28714,2.25136l0.90054,0.11486l-0.22971,1.80109l0.12464,-0.97731" fill="none" stroke="#cec344" stroke-width="0.75"/><path d="M229.22766,215.67254l0.69814,0.08903l-1.20072,-0.15313l0.14356,-1.12567l-1.80109,-0.22971l0.11486,-0.90054l-2.25135,-0.28714l0.17228,-1.35082" fill="none" stroke="#cec344" stroke-width="0.75"/><path d="M231.66032,220.10116l-1.35082,-0.17228l0.28714,-2.25136l-0.90054,-0.11486l0.22971,-1.80109l-0.12464,0.97731" fill="none" stroke="#cec344" stroke-width="0.75"/><path d="M238.81616,213.46347l-0.17228,1.35082l-2.25135,-0.28714l-0.11486,0.90054l-1.80109,-0.22971l-0.14356,1.12567l-1.20072,-0.15313l0.69814,0.08903" fill="none" stroke="#cec344" stroke-width="0.75"/><path d="M233.00764,217.14782l0.12464,-0.97731l-0.22971,1.80109l-0.90054,-0.11486l-0.28714,2.25136l-1.35082,-0.17228" fill="none" stroke="#cec344" stroke-width="0.75"/></g><g stroke-linecap="round"><path d="M253.60053,162.97883l1.34683,1.74059l1.08075,-0.40145l0.91364,1.29314l2.06303,-0.03104l1.61755,-0.38201l2.23335,-0.59762l-1.3741,1.93284l-0.54786,1.98922l-0.28818,1.87523l0.74137,2.6439l0.21365,1.39996l-1.38053,-0.32314l-0.7032,-1.02117l-1.88041,-0.63204l-1.80337,-0.08293l-2.09995,0.32048l-1.90181,0.68893l-0.16641,-1.00174l1.66872,-1.55209l-0.46298,-0.59833l0.937,-0.81198l0.11984,-2.09282l-0.50829,-1.78072l-0.61706,-1.69655z" fill="#eee796" stroke="#eee796" stroke-width="0.25"/><path d="M252.64079,163.74174l1.077,-0.83335l1.38892,1.79497l0.71799,-0.55556l1.11114,1.43599l0.89749,-0.69446l0.74075,0.95732l-0.4307,-0.55662" fill="none" stroke="#cec344" stroke-width="0.75"/><path d="M259.35326,165.24377l-0.77917,0.60291l1.43599,-1.11114l0.55557,0.718l1.79497,-1.38891l0.83335,1.077" fill="none" stroke="#cec344" stroke-width="0.75"/><path d="M260.98293,168.95981l-0.4307,-0.55663l0.74075,0.95732l-0.89749,0.69445l1.11114,1.43599l-0.71799,0.55556l1.38892,1.79498l-1.077,0.83335" fill="none" stroke="#cec344" stroke-width="0.75"/><path d="M262.39428,164.10813l0.83335,1.077l-1.79498,1.38892l0.55557,0.718l-1.43599,1.11114l0.77918,-0.60292" fill="none" stroke="#cec344" stroke-width="0.75"/><path d="M253.73205,168.70342l0.4307,0.55662l-0.74074,-0.95732l0.89749,-0.69445l-1.11114,-1.43599l0.718,-0.55557l-1.38892,-1.79498l1.077,-0.83335" fill="none" stroke="#cec344" stroke-width="0.75"/><path d="M252.3207,173.55509l-0.83335,-1.077l1.79498,-1.38892l-0.55557,-0.718l1.43598,-1.11113l-0.77918,0.60292" fill="none" stroke="#cec344" stroke-width="0.75"/><path d="M262.07419,173.92148l-1.077,0.83335l-1.38891,-1.79498l-0.718,0.55557l-1.11114,-1.43599l-0.89749,0.69445l-0.74075,-0.95732l0.43071,0.55663" fill="none" stroke="#cec344" stroke-width="0.75"/><path d="M255.36172,172.41946l0.77918,-0.60292l-1.43599,1.11114l-0.55557,-0.718l-1.79497,1.38891l-0.83335,-1.077" fill="none" stroke="#cec344" stroke-width="0.75"/></g><g stroke-linecap="round"><path d="M209.83828,196.84097l1.34684,1.74059l1.08075,-0.40145l0.91364,1.29314l2.06303,-0.03104l1.61755,-0.38201l2.23335,-0.59762l-1.3741,1.93284l-0.54786,1.98921l-0.28818,1.87524l0.74137,2.6439l0.21366,1.39996l-1.38054,-0.32314l-0.70319,-1.02118l-1.88041,-0.63204l-1.80337,-0.08294l-2.09996,0.32049l-1.90181,0.68893l-0.16641,-1.00174l1.66872,-1.5521l-0.46297,-0.59833l0.937,-0.81198l0.11983,-2.09282l-0.50829,-1.78072l-0.61706,-1.69655z" fill="#eee796" stroke="#eee796" stroke-width="0.25"/><path d="M208.87855,197.60389l1.077,-0.83335l1.38891,1.79497l0.718,-0.55557l1.11114,1.43599l0.89749,-0.69445l0.74075,0.95732l-0.4307,-0.55662" fill="none" stroke="#cec344" stroke-width="0.75"/><path d="M215.59101,199.10591l-0.77918,0.60292l1.43599,-1.11114l0.55557,0.718l1.79498,-1.38892l0.83335,1.077" fill="none" stroke="#cec344" stroke-width="0.75"/><path d="M217.22068,202.82194l-0.4307,-0.55662l0.74075,0.95732l-0.89749,0.69445l1.11114,1.43599l-0.718,0.55557l1.38892,1.79498l-1.077,0.83335" fill="none" stroke="#cec344" stroke-width="0.75"/><path d="M218.63204,197.97028l0.83335,1.077l-1.79498,1.38892l0.55557,0.718l-1.43599,1.11113l0.77918,-0.60292" fill="none" stroke="#cec344" stroke-width="0.75"/><path d="M209.96981,202.56556l0.4307,0.55662l-0.74075,-0.95732l0.89749,-0.69445l-1.11114,-1.43598l0.718,-0.55557l-1.38892,-1.79498l1.077,-0.83335" fill="none" stroke="#cec344" stroke-width="0.75"/><path d="M208.55846,207.41723l-0.83335,-1.077l1.79498,-1.38892l-0.55557,-0.718l1.43599,-1.11114l-0.77919,0.60292" fill="none" stroke="#cec344" stroke-width="0.75"/><path d="M218.31195,207.78361l-1.077,0.83335l-1.38892,-1.79498l-0.718,0.55557l-1.11114,-1.43599l-0.89749,0.69445l-0.74074,-0.95732l0.4307,0.55662" fill="none" stroke="#cec344" stroke-width="0.75"/><path d="M211.59948,206.2816l0.77918,-0.60292l-1.43599,1.11114l-0.55557,-0.718l-1.79498,1.38892l-0.83335,-1.077" fill="none" stroke="#cec344" stroke-width="0.75"/></g><g stroke-linecap="round"><path d="M212.52631,167.69249l1.74059,-1.34684l-0.40145,-1.08075l1.29314,-0.91364l-0.03104,-2.06303l-0.38201,-1.61755l-0.59762,-2.23334l1.93284,1.3741l1.98921,0.54786l1.87524,0.28818l2.64389,-0.74137l1.39997,-0.21366l-0.32315,1.38054l-1.02117,0.7032l-0.63204,1.88041l-0.08294,1.80337l0.32048,2.09995l0.68893,1.90181l-1.00174,0.16641l-1.55209,-1.66872l-0.59833,0.46297l-0.81198,-0.937l-2.09282,-0.11983l-1.78072,0.50829l-1.69655,0.61706z" fill="#eee796" stroke="#eee796" stroke-width="0.25"/><path d="M213.28922,168.65224l-0.83335,-1.077l1.79498,-1.38892l-0.55557,-0.718l1.43599,-1.11114l-0.69445,-0.89749l0.95732,-0.74075l-0.55662,0.4307" fill="none" stroke="#cec344" stroke-width="0.75"/><path d="M214.79124,161.93976l0.60292,0.77918l-1.11114,-1.43599l0.718,-0.55557l-1.38891,-1.79498l1.077,-0.83335" fill="none" stroke="#cec344" stroke-width="0.75"/><path d="M218.50728,160.31009l-0.55662,0.4307l0.95732,-0.74075l0.69445,0.89749l1.43599,-1.11114l0.55557,0.718l1.79497,-1.38892l0.83335,1.077" fill="none" stroke="#cec344" stroke-width="0.75"/><path d="M213.65562,158.89874l1.077,-0.83335l1.38892,1.79498l0.718,-0.55557l1.11114,1.43599l-0.60292,-0.77918" fill="none" stroke="#cec344" stroke-width="0.75"/><path d="M218.2509,167.56097l0.55662,-0.4307l-0.95732,0.74075l-0.69445,-0.89749l-1.43599,1.11114l-0.55557,-0.718l-1.79498,1.38891l-0.83335,-1.077" fill="none" stroke="#cec344" stroke-width="0.75"/><path d="M223.10257,168.97233l-1.077,0.83335l-1.38892,-1.79498l-0.718,0.55557l-1.11113,-1.43598l0.60292,0.77918" fill="none" stroke="#cec344" stroke-width="0.75"/><path d="M223.46895,159.21883l0.83335,1.077l-1.79498,1.38892l0.55557,0.718l-1.43599,1.11114l0.69445,0.89749l-0.95731,0.74075l0.55662,-0.4307" fill="none" stroke="#cec344" stroke-width="0.75"/><path d="M221.96693,165.9313l-0.60292,-0.77918l1.11113,1.43599l-0.71799,0.55557l1.38892,1.79497l-1.077,0.83335" fill="none" stroke="#cec344" stroke-width="0.75"/></g><g stroke-linecap="round"><path d="M246.38844,211.45473l1.74059,-1.34683l-0.40145,-1.08075l1.29314,-0.91364l-0.03104,-2.06303l-0.38201,-1.61755l-0.59762,-2.23334l1.93284,1.3741l1.98921,0.54786l1.87524,0.28817l2.6439,-0.74137l1.39996,-0.21365l-0.32315,1.38053l-1.02117,0.70319l-0.63204,1.88042l-0.08293,1.80337l0.32048,2.09996l0.68894,1.90181l-1.00175,0.1664l-1.55209,-1.66873l-0.59833,0.46297l-0.81198,-0.937l-2.09281,-0.11984l-1.78072,0.50829l-1.69655,0.61706z" fill="#eee796" stroke="#eee796" stroke-width="0.25"/><path d="M247.15136,212.41449l-0.83335,-1.077l1.79497,-1.38892l-0.55557,-0.718l1.43599,-1.11114l-0.69445,-0.89749l0.95732,-0.74075l-0.55662,0.4307" fill="none" stroke="#cec344" stroke-width="0.75"/><path d="M248.65338,205.70201l0.60292,0.77918l-1.11114,-1.43599l0.718,-0.55557l-1.38891,-1.79498l1.077,-0.83335" fill="none" stroke="#cec344" stroke-width="0.75"/><path d="M252.36942,204.07234l-0.55662,0.4307l0.95732,-0.74074l0.69445,0.89749l1.43599,-1.11114l0.55557,0.718l1.79498,-1.38891l0.83335,1.077" fill="none" stroke="#cec344" stroke-width="0.75"/><path d="M247.51775,202.66098l1.077,-0.83335l1.38892,1.79497l0.718,-0.55557l1.11114,1.43599l-0.60292,-0.77918" fill="none" stroke="#cec344" stroke-width="0.75"/><path d="M252.11303,211.32322l0.55663,-0.4307l-0.95732,0.74074l-0.69445,-0.89749l-1.43599,1.11114l-0.55557,-0.718l-1.79498,1.38892l-0.83335,-1.077" fill="none" stroke="#cec344" stroke-width="0.75"/><path d="M256.9647,212.73457l-1.077,0.83335l-1.38892,-1.79498l-0.718,0.55557l-1.11114,-1.43599l0.60292,0.77918" fill="none" stroke="#cec344" stroke-width="0.75"/><path d="M257.33109,202.98107l0.83335,1.077l-1.79498,1.38892l0.55557,0.718l-1.43599,1.11114l0.69445,0.89749l-0.95731,0.74075l0.55662,-0.43071" fill="none" stroke="#cec344" stroke-width="0.75"/><path d="M255.82907,209.69354l-0.60292,-0.77918l1.11113,1.43598l-0.718,0.55557l1.38892,1.79498l-1.077,0.83335" fill="none" stroke="#cec344" stroke-width="0.75"/></g></g><g fill="none"><g><g stroke="none" stroke-width="1" stroke-linecap="butt" font-family="sans-serif" font-weight="normal" font-size="12" text-anchor="start"/><g stroke="#c99fbf" stroke-width="1.5" stroke-linecap="round"><path d="M260.93349,194.68952l0.38306,-1.89516l-1.13497,5.78964l-1.92384,-0.16209l-0.41446,2.14675l-1.92384,-0.16209l-0.35921,1.86052l-5.35926,-0.45151l0.35921,-1.86052l-2.33608,-0.19682l0.41446,-2.14675l-1.92384,-0.16209l1.13497,-5.78964l-0.52188,2.61424"/></g></g><g><g stroke="none" stroke-width="1" stroke-linecap="butt" font-family="sans-serif" font-weight="normal" font-size="12" text-anchor="start"/><g stroke="#c99fbf" stroke-width="1.5" stroke-linecap="round"><path d="M234.53614,192.46556l0.38306,-1.89516l-1.13497,5.78964l-2.50699,-0.21121l-0.41446,2.14675l-2.50699,-0.21121l-0.35921,1.86052l-6.98376,-0.58838l0.35921,-1.86052l-3.0442,-0.25648l0.41446,-2.14675l-2.50699,-0.21121l1.13497,-5.78964l-0.52188,2.61424"/></g></g></g><g stroke="#000000" stroke-width="1.2"><path d="M263.06977,226.01392c-1.29419,-6.97682 3.3125,-13.68179 10.28932,-14.97598c6.97683,-1.29418 13.6818,3.3125 14.97597,10.28933c1.29419,6.97682 -3.31249,13.68179 -10.28932,14.97598c-6.97683,1.29418 -13.6818,-3.3125 -14.97597,-10.28933z" fill="#5c5e5f" stroke-linecap="butt"/><g stroke-linecap="round"><path d="M272.70027,254.87632l-9.32451,-1.59656l0.72972,-6.31265l-3.26014,-6.04771l5.49385,-6.24603" fill="#5d5d5d"/><path d="M288.11715,229.76435l2.45007,2.3155l-0.79828,4.66223l4.04175,2.5765l-2.72833,8.3465l2.62105,2.60245l-1.33357,6.89983l-9.58555,7.24261l-12.50677,-3.38214l-1.38004,-6.15888l1.55589,-3.13967l-2.39135,-2.64506l-0.97993,-5.28274l1.9986,-2.03385l-2.39135,-2.64506l-0.39274,-4.6789l12.09543,-6.52026z" fill="#5d5d5d"/><path d="M278.57366,237.86842l-7.92779,3.37129" fill="none"/><path d="M280.03157,248.28944l-7.78332,2.86932" fill="none"/></g><path d="M277.65659,267.50643l-1.33018,-7.17088l4.82222,-3.46256l5.80467,1.83371l1.49847,6.79726l-5.18949,4.04429z" fill="#5c5e5f" stroke-linecap="round"/></g><g stroke="#000000" stroke-width="1.2" stroke-linecap="round"><path d="M161.55298,220.95778l8.58069,-1.12556l3.77459,5.8395l6.12376,2.75753l-3.47605,8.37747" fill="#5d5d5d"/><path d="M149.04828,227.11359l12.31841,-6.31198l4.04556,2.7979l1.1407,3.33378l2.90487,-0.53586l4.28416,3.59229l1.1407,3.33377l3.67611,0.408l4.86914,4.37997l-3.53456,11.89433l-11.64875,3.90187l-6.9766,-2.58115l-0.98058,-3.49669l-9.02863,-2.22166l-0.20625,-4.63037l-4.65977,-1.82713l-0.81009,-3.20647z" fill="#5d5d5d"/><path d="M165.24598,227.91749l-7.25373,4.6155" fill="none"/><path d="M173.41561,234.47063l-6.7211,4.76496" fill="none"/></g></g></g></svg>