<svg version="1.1" xmlns="http://www.w3.org/2000/svg" xmlns:xlink="http://www.w3.org/1999/xlink" width="90.41515" height="121.99299" viewBox="0,0,90.41515,121.99299"><g transform="translate(-192.34617,-119.55964)"><g stroke-miterlimit="10"><g fill-rule="evenodd"><path d="M244.1223,214.17339c1.08259,2.19954 2.58038,4.8085 5.30928,6.58419c6.11655,4.10462 14.38459,3.73141 13.29835,7.93499c-1.06132,4.30041 -13.77255,7.46972 -20.68799,-3.3477c-2.40296,-3.71831 -3.35038,-7.39831 -4.02644,-10.42534c-0.19946,-0.77474 -1.24192,-7.63136 1.45233,-10.80328c2.69425,-3.17192 3.98967,-1.74998 4.57651,-1.07498c0.7086,0.74692 -1.35078,7.98908 0.07798,11.1321z" fill="#ffab19" stroke="#001026" stroke-width="1.2" stroke-linecap="round" stroke-linejoin="round"/><path d="M262.38664,228.16138c-0.08241,2.08644 -3.90044,4.10202 -7.53925,4.00623c-3.6388,-0.09579 -5.78086,-1.19646 -7.36393,-2.13129c0.72776,0.01916 2.95801,-0.142 3.79311,-2.11243c1.12273,-2.45754 -0.67134,-5.81629 -0.67134,-5.81629c0,0 4.45289,2.05468 7.46655,2.93096c2.62629,0.97602 4.20359,1.08625 4.31487,3.12281z" fill="#ffffff" stroke="none" stroke-width="1" stroke-linecap="butt" stroke-linejoin="miter"/></g><path d="M229.53615,183.97232c2.51115,-1.14873 5.47808,-0.04426 6.62681,2.4669c0.26093,0.57038 0.40559,1.16428 0.44394,1.75505c1.05304,1.59119 -1.89781,4.52488 -2.49585,5.91092c-2.24878,5.21178 -4.94668,7.70095 -10.99849,9.96035c-2.47307,0.9233 -5.18248,0.69042 -6.6268,-2.4669c-2.74158,-5.99318 4.86259,-7.16815 7.55154,-9.81925c1.44103,-1.42074 3.53194,-8.38374 5.49885,-7.80707z" fill="#ffab19" fill-rule="nonzero" stroke="#000000" stroke-width="1.2" stroke-linecap="butt" stroke-linejoin="miter"/><path d="M252.79497,193.26766c-0.92168,-0.92166 -2.1224,-2.4152 -3.34597,-3.81229c-2.04692,-2.29634 -4.67259,-6.96088 0.65576,-7.57576c4.27639,-0.54976 7.17641,2.95756 10.69618,6.91111c1.77477,2.13264 3.8743,4.64427 2.28057,7.43202c-1.78352,3.15107 -8.88816,11.69614 -13.93561,7.19099c-3.5655,-3.76069 0.57809,-6.3737 3.38163,-8.58068c0.40932,-0.41493 0.44815,-1.01596 0.26744,-1.56539z" fill="#ffab19" fill-rule="evenodd" stroke="#001026" stroke-width="1.2" stroke-linecap="round" stroke-linejoin="round"/><g fill-rule="nonzero" stroke-linecap="round" stroke-linejoin="miter"><path d="M220.41728,227.30692l7.66503,-22.27226c0,0 0.83343,-4.40897 2.65652,-11.39562c0.88577,-3.39454 1.13765,-9.73708 3.30516,-11.99024c3.34262,-3.47469 10.50394,-3.06243 10.50394,-3.06243c0,0 8.00153,0.98259 9.28639,6.21723c1.02232,4.16505 -0.84222,7.80558 -1.52402,12.17562c-0.6505,4.16947 -0.09733,9.16906 -0.09733,9.16906l5.96169,23.94267c0,0 4.07072,0.77324 4.82614,2.78404c0.75542,2.0108 -0.85166,7.79528 -0.85166,7.79528l-17.31731,0.2784l-5.39391,-5.28966v-6.22227c0,0 0.10655,-25.60483 -1.13787,-20.44936c-0.55527,2.30041 -3.36031,18.33022 -3.36031,18.33022l-0.47518,8.34486l-18.06653,1.58892l-3.64579,-0.75715c0,0 -3.2221,-4.02161 -0.86371,-6.84836c2.35838,-2.82674 8.52875,-2.33895 8.52875,-2.33895z" fill="#ffab19" stroke="#001026" stroke-width="1.2"/><path d="M240.70062,208.56136c0,0 -3.26257,-0.13595 -4.60178,-1.50428" fill="none" stroke="#001026" stroke-width="1.2"/><path d="M238.06503,201.70535c-4.08494,-0.64749 -3.80724,-4.85599 -3.36264,-8.89047c0.49868,-4.52534 1.34214,-9.33354 5.94296,-8.73295c5.04726,0.65887 5.15568,5.38568 4.53114,10.34134c0,0 -1.2247,8.21516 -7.11146,7.28207z" fill="#ffffff" stroke="#000000" stroke-width="0"/></g><path d="M245.61685,232.59583c0,0 1.56569,-2.68888 12.31703,-2.57421" fill="none" fill-rule="nonzero" stroke="#001026" stroke-width="1.2" stroke-linecap="round" stroke-linejoin="miter"/><g><g><path d="M213.32296,149.95801c0,0 -6.45298,-26.82485 -5.3819,-26.94215c1.44296,-0.15804 27.94108,7.69548 27.94108,7.69548" fill="#ffab19" fill-rule="nonzero" stroke="#001026" stroke-width="1.2" stroke-linecap="round" stroke-linejoin="miter"/><path d="M267.80235,146.87074l14.25308,13.55617l-2.25371,5.74811l-30.29466,2.65209z" fill="#9b7f41" fill-rule="nonzero" stroke="#001026" stroke-width="1.2" stroke-linecap="round" stroke-linejoin="miter"/><path d="M205.40516,170.42838c0,0 -7.05453,1.44351 -12.45899,-1.26235" fill="none" fill-rule="evenodd" stroke="#001026" stroke-width="1.2" stroke-linecap="round" stroke-linejoin="round"/><path d="M206.27735,176.27725c0,0 -3.4029,2.69077 -9.66391,3.55091" fill="none" fill-rule="evenodd" stroke="#001026" stroke-width="1.2" stroke-linecap="round" stroke-linejoin="round"/><path d="M228.9611,138.24006c10.74159,-3.85483 41.4894,-0.10435 38.31934,27.66865c-0.04133,0.36208 -0.16602,0.71008 -0.2891,1.05662c-4.49522,12.65555 -18.15355,20.86957 -37.30979,21.27954c-19.15625,0.40998 -25.76606,-9.19786 -25.81397,-15.0226c-0.04792,-5.82475 6.438,-9.39587 6.438,-9.39587c0,0 -0.86557,-4.41711 1.08296,-10.47459c0,0 1.87883,-9.47973 17.57258,-15.11175z" fill="#ffab19" fill-rule="evenodd" stroke="#001026" stroke-width="1.2" stroke-linecap="butt" stroke-linejoin="miter"/><path d="M227.85066,165.40746c8.33373,-1.21196 17.61929,-12.56267 26.45438,-3.54484c8.81369,8.92015 0.66262,25.44801 -24.04675,25.74401c-18.93948,0.46485 -25.83299,-8.56896 -25.88091,-14.39371c-0.04792,-5.82475 6.30685,-9.05999 6.30685,-9.05999c7.89628,-3.67543 10.02628,2.30731 17.16643,1.25454z" fill="#ffffff" fill-rule="evenodd" stroke="none" stroke-width="1" stroke-linecap="butt" stroke-linejoin="miter"/><path d="M232.45649,163.06731c0.34249,1.56292 -3.22503,4.90401 -5.02612,5.09394c-1.58432,0.24481 -3.64891,-2.16921 -3.8509,-3.55817c-0.05216,-0.70518 2.05405,-1.37147 4.10537,-1.82098c1.95364,-0.42811 4.61246,-0.90838 4.77165,0.28522z" fill="#001026" fill-rule="evenodd" stroke="#001026" stroke-width="1.2" stroke-linecap="round" stroke-linejoin="round"/><path d="M262.71686,157.22676c-2.73969,5.3874 -9.27184,8.41742 -9.27184,8.41742" fill="none" fill-rule="evenodd" stroke="#001026" stroke-width="1.2" stroke-linecap="round" stroke-linejoin="round"/><path d="M266.10142,167.98197c-5.54727,3.02785 -9.88313,2.88512 -9.88313,2.88512" fill="none" fill-rule="evenodd" stroke="#001026" stroke-width="1.2" stroke-linecap="round" stroke-linejoin="round"/><path d="M255.15263,146.44124l-43.42133,4.25544l-1.19055,-22.76977l48.06154,-3.73741l14.67221,17.13727l-5.41252,16.36046z" fill="#c58600" fill-rule="nonzero" stroke="#001026" stroke-width="1.2" stroke-linecap="round" stroke-linejoin="miter"/><path d="M255.14043,146.24161l3.27443,-21.84029" fill="none" fill-rule="nonzero" stroke="#001026" stroke-width="0.75" stroke-linecap="round" stroke-linejoin="miter"/><path d="M265.09111,132.0084l-6.06517,-7.44404c0,0 15.09223,-4.66111 16.16218,-4.39364c1.19903,0.29974 -9.15802,27.20902 -9.15802,27.20902z" fill="#ffab19" fill-rule="nonzero" stroke="#001026" stroke-width="1.2" stroke-linecap="round" stroke-linejoin="miter"/></g><g><g fill-rule="evenodd"><path d="M222.78539,146.96422c3.1204,1.15892 4.1144,6.16211 2.24486,11.17857c-1.96723,5.03786 -6.01109,8.07383 -9.13149,6.91491c-3.1204,-1.15892 -4.11439,-6.16211 -2.24485,-11.17858c1.86954,-5.01646 5.98967,-8.17152 9.13148,-6.91491z" fill="#ffffff" stroke="#001026" stroke-width="1.2" stroke-linecap="round" stroke-linejoin="round"/><path d="M214.0182,158.63604c-0.23546,-1.0745 0.35334,-2.12489 1.33017,-2.33894c0.97683,-0.21406 1.95093,0.49384 2.18638,1.56834c0.23546,1.0745 -0.35334,2.12488 -1.33016,2.33893c-0.97683,0.21406 -1.95093,-0.49383 -2.18639,-1.56833" fill="#001026" stroke="none" stroke-width="1" stroke-linecap="butt" stroke-linejoin="miter"/></g><g fill-rule="evenodd"><path d="M246.95247,146.06876c3.49907,1.48543 4.52381,7.09613 2.4375,12.05772c-1.98863,4.94017 -5.98697,7.24956 -9.61718,6.09998c-3.04412,-1.27801 -4.39537,-6.51005 -2.40675,-11.45022c1.98863,-4.94017 6.06595,-8.29061 9.58643,-6.70748z" fill="#ffffff" stroke="#001026" stroke-width="1.2" stroke-linecap="round" stroke-linejoin="round"/><path d="M237.9471,157.58803c-0.23546,-1.0745 0.37476,-2.02721 1.33017,-2.33894c0.97683,-0.21406 1.95092,0.49384 2.18639,1.56834c0.23546,1.0745 -0.35334,2.12489 -1.33016,2.33894c-0.97683,0.21406 -1.95093,-0.49385 -2.18638,-1.56835" fill="#001026" stroke="none" stroke-width="1" stroke-linecap="butt" stroke-linejoin="miter"/></g><g fill-rule="nonzero" stroke="#001026" stroke-linecap="round" stroke-linejoin="miter"><path d="M225.0772,177.95327c-0.21538,-0.17018 5.51104,-1.44783 11.04589,-3.96774c12.53047,-5.70488 12.87008,-7.81742 13.42913,-7.75293c1.03168,0.11903 4.95571,10.44533 -2.87561,14.19211c-7.53139,3.60329 -20.92677,-1.93994 -21.5994,-2.47144z" fill="#ffffff" stroke-width="1.2"/><path d="M249.80562,177.29253l-2.64711,-7.2521l3.23379,7.01588" fill="#000000" stroke-width="0"/><path d="M247.14497,179.65916l-1.25422,-4.13121l1.62909,3.70756" fill="#000000" stroke-width="0"/><path d="M226.20075,177.93298l9.31703,1.63495l4.12669,1.95202l-7.28416,-1.15802z" fill="#000000" stroke-width="0"/></g></g></g><path d="M232.7251,204.14089c-1.09938,0.95672 -1.90786,2.52107 -3.18265,3.11138c-0.19441,0.09003 -0.39968,0.1574 -0.61846,0.19651c-2.60159,0.465 -9.42228,-1.84703 -10.71502,-2.61789c-2.79245,-1.66515 -3.71441,-6.34653 -1.11802,-8.67828c2.81252,-2.52585 7.86812,0.25827 10.40307,1.0807c1.20411,0.39065 4.04711,0.53227 4.32489,2.02803z" fill="#ffab19" fill-rule="nonzero" stroke="#000000" stroke-width="1.2" stroke-linecap="butt" stroke-linejoin="miter"/><g fill-rule="nonzero" stroke="#000000" stroke-width="1.2" stroke-linejoin="miter"><path d="M234.75441,200.41523c-2.99251,-3.66801 -2.44493,-9.06745 1.22308,-12.05997c3.66801,-2.99251 9.06746,-2.44492 12.05997,1.22309c2.99251,3.66801 2.44493,9.06745 -1.22309,12.05997c-3.66801,2.99251 -9.06744,2.44492 -12.05996,-1.22309z" fill="#5c5e5f" stroke-linecap="butt"/><g stroke-linecap="round"><path d="M238.40396,204.07505l-0.8388,4.6667l-2.26864,0.74465l-3.45359,2.81759l-2.7826,-2.59717z" fill="#ffab19"/><path d="M239.55734,198.70922l-0.28643,6.42847l-3.72978,1.9367l-1.0871,1.10815l-3.46412,1.71996l-0.58025,0.91587l-3.39074,0.99636l-4.54096,-4.48125l-1.29359,-6.46687l11.3361,-7.2573z" fill="#ffab19"/><path d="M235.2823,202.4182l-0.55919,3.11114" fill="none"/><path d="M230.80447,204.52274l-0.28302,3.99201" fill="none"/></g><path d="M226.61334,208.60576l-3.48858,1.96115l-3.1811,-2.27206l-0.09101,-3.90811l2.82444,-1.41931l3.71241,1.83858z" fill="#5c5e5f" stroke-linecap="round"/></g></g></g></svg>