<svg version="1.1" xmlns="http://www.w3.org/2000/svg" xmlns:xlink="http://www.w3.org/1999/xlink" width="159.81676" height="159.81676" viewBox="0,0,159.81676,159.81676"><g transform="translate(-160.09162,-100.09162)"><g stroke-miterlimit="10"><path d="M232.75578,204.09409c2.65089,-1.04486 1.9527,1.65672 7.54727,1.65672c5.04233,0 3.83436,-3.72391 7.91542,-2.20896c2.83543,1.05256 1.77309,7.68908 2.20895,12.70149c0.43586,5.01241 4.95262,12.49513 0,12.70149c-4.95262,0.20636 -2.02657,-7.42282 -4.41791,-12.51741c-2.39134,-5.09459 -4.04975,-5.52239 -4.04975,-5.52239c0,0 -0.83895,2.48184 -1.10448,4.04975c-0.28833,1.70253 1.42367,5.00099 -1.28856,4.97015c-3.26824,-0.03716 -1.5726,-2.19541 -1.84079,-4.60199c-0.2114,-1.89695 -0.18408,-3.68159 -0.18408,-3.68159c0,0 -2.95179,3.60305 -4.23383,6.2587c-1.28204,2.65565 0.54725,9.75622 -3.49751,9.75622c-4.04476,0 -0.11095,-5.46196 0.18408,-9.75622c0.29503,-4.29426 -0.43751,-12.54518 2.76119,-13.80597z" fill="#ff0000" stroke="#ffe8e8" stroke-width="5" stroke-linecap="round"/><path d="M232.75578,204.09409c2.65089,-1.04486 1.9527,1.65672 7.54727,1.65672c5.04233,0 3.83436,-3.72391 7.91542,-2.20896c2.83543,1.05256 1.77309,7.68908 2.20895,12.70149c0.43586,5.01241 4.95262,12.49513 0,12.70149c-4.95262,0.20636 -2.02657,-7.42282 -4.41791,-12.51741c-2.39134,-5.09459 -4.04975,-5.52239 -4.04975,-5.52239c0,0 -0.83895,2.48184 -1.10448,4.04975c-0.28833,1.70253 1.42367,5.00099 -1.28856,4.97015c-3.26824,-0.03716 -1.5726,-2.19541 -1.84079,-4.60199c-0.2114,-1.89695 -0.18408,-3.68159 -0.18408,-3.68159c0,0 -2.95179,3.60305 -4.23383,6.2587c-1.28204,2.65565 0.54725,9.75622 -3.49751,9.75622c-4.04476,0 -0.11095,-5.46196 0.18408,-9.75622c0.29503,-4.29426 -0.43751,-12.54518 2.76119,-13.80597z" fill="#ff0000" stroke="#000000" stroke-width="0" stroke-linecap="round"/><path d="M160.09162,259.90838v-159.81675h159.81676v159.81676z" fill="none" stroke="#ffe8e8" stroke-width="0" stroke-linecap="butt"/></g></g></svg>