<svg version="1.1" xmlns="http://www.w3.org/2000/svg" xmlns:xlink="http://www.w3.org/1999/xlink" width="69.20032" height="69.52707" viewBox="0,0,69.20032,69.52707"><g transform="translate(-205.39984,-145.23646)"><g stroke="#000000" stroke-width="0" stroke-linecap="round" stroke-linejoin="round" stroke-miterlimit="10"><g><path d="M274.60014,180.00404c0.00002,1.05984 -32.5399,34.88958 -33.91151,34.75912c-1.18296,-0.11252 -17.08889,-12.70092 -17.10067,-14.03328c-0.01112,-1.25696 17.48635,-12.77226 11.69029,-10.5371c-3.39349,1.30865 -26.76801,6.67468 -27.78164,5.8073c-1.02412,-0.87637 -2.2898,-11.74098 -2.07208,-15.98506v-0.03006c-0.21772,-4.24408 1.04797,-15.1087 2.07209,-15.98506c1.01363,-0.86737 24.38814,4.49866 27.78163,5.8073c5.79607,2.23516 -11.70139,-9.28014 -11.69027,-10.5371c0.01178,-1.33236 15.91771,-13.92077 17.10067,-14.03328c1.37161,-0.13045 33.91153,33.69928 33.91151,34.75912z" fill="#3f0f0f"/><path d="M271.89397,180.00371c0.00002,0.97695 -29.99485,32.16076 -31.25918,32.04051c-1.09043,-0.10371 -14.14051,-9.98062 -14.15138,-11.20876c-0.01026,-1.15864 18.42124,-14.9969 13.07851,-12.93655c-3.12808,1.2063 -28.70391,6.69848 -29.63825,5.89895c-0.94402,-0.80782 -1.9956,-9.87188 -1.7949,-13.78401v-0.0277c-0.20069,-3.91214 0.62062,-13.09133 1.56464,-13.89914c0.93435,-0.79953 26.51017,4.46241 29.63825,5.6687c5.34274,2.06035 -12.8585,-11.66278 -12.84826,-12.82142c0.01086,-1.22815 13.06095,-10.8748 14.15138,-10.9785c1.26433,-0.12025 31.25921,31.06355 31.25918,32.04051z" fill="#d1b1b1"/><path d="M269.42836,180.00344c0.00002,0.90132 -27.67272,29.67093 -28.83917,29.55999c-1.00602,-0.09569 -11.65033,-7.65743 -11.66034,-8.7905c-0.00946,-1.06895 17.61532,-16.16164 12.68621,-14.2608c-2.88591,1.11291 -28.80748,5.8721 -29.66949,5.13446c-0.87093,-0.74527 -1.53099,-8.02455 -1.34583,-11.63381l0.00001,-0.02556c-0.18516,-3.60926 0.41751,-11.30486 1.28845,-12.05012c0.86201,-0.73764 26.47347,3.96417 29.35938,5.07707c4.92911,1.90084 -12.79335,-12.93059 -12.78389,-13.99954c0.01001,-1.13306 11.11949,-8.48238 12.1255,-8.57806c1.16645,-0.11094 28.83918,28.65867 28.83917,29.55999z" fill="#9e5f5f"/></g></g></g></svg>