<svg version="1.1" xmlns="http://www.w3.org/2000/svg" xmlns:xlink="http://www.w3.org/1999/xlink" width="88.43855" height="123.6774" viewBox="0,0,88.43855,123.6774"><g transform="translate(-191.47585,-106.46233)"><g stroke-miterlimit="10"><g fill-rule="nonzero" stroke="#000000" stroke-width="1.2" stroke-linejoin="miter"><path d="M239.4187,186.57699c2.68779,-0.63341 5.38017,1.032 6.01358,3.7198c0.14388,0.61051 0.16914,1.22125 0.09077,1.80805c0.72019,1.76695 -2.74916,4.06428 -3.60766,5.30595c-3.22815,4.66891 -6.3622,6.58003 -12.73979,7.60743c-2.6062,0.41985 -5.21718,-0.34038 -6.01358,-3.7198c-1.51171,-6.41476 6.17515,-6.0741 9.33222,-8.14575c1.69189,-1.11021 5.10903,-7.52725 6.92446,-6.57568z" fill="#ffab19" stroke-linecap="butt"/><g><path d="M220.40194,202.12334c0.3242,4.72275 -3.24154,8.81413 -7.96429,9.13832c-4.72275,0.3242 -8.81412,-3.24154 -9.13832,-7.96429c-0.3242,-4.72275 3.24153,-8.81413 7.96429,-9.13832c4.72275,-0.3242 8.81411,3.24153 9.13832,7.96429z" fill="#5c5e5f" stroke-linecap="butt"/><g stroke-linecap="round"><path d="M219.53666,197.02778l3.38022,-3.32502l2.28205,0.7025l4.44667,-0.30525l0.77137,3.72735z" fill="#ffab19"/><path d="M215.49581,200.7418l3.94691,-5.08224l4.16333,0.57336l1.52749,-0.27669l3.82128,0.59685l1.00268,-0.41249l3.34341,1.14515l1.11849,6.28099l-2.67929,6.02621l-13.4457,-0.62348z" fill="#ffab19"/><path d="M223.38141,197.96667l-2.25348,2.21669" fill="none"/><path d="M228.53567,197.95651l-2.53682,3.09528" fill="none"/></g><path d="M231.77851,200.13955l3.98056,0.41409l1.28445,3.69213l-2.18304,3.24283l-3.12543,-0.47279l-1.96855,-3.64516z" fill="#5c5e5f" stroke-linecap="round"/></g></g><g fill-rule="evenodd"><path d="M258.89828,199.09214c2.36453,-0.64727 5.2096,-1.62484 7.46915,-3.96886c5.18689,-5.23032 6.3834,-13.41984 10.30584,-11.55854c4.02224,1.85513 4.73147,14.9363 -7.19821,19.68212c-4.10552,1.65672 -7.89826,1.89139 -10.99852,1.98304c-0.79847,0.04941 -7.72853,-0.22312 -10.33394,-3.46841c-2.60541,-3.24529 -0.96422,-4.24856 -0.19045,-4.69721c0.8674,-0.55462 7.58969,2.83669 10.94613,2.02785z" fill="#ffab19" stroke="#001026" stroke-width="1.2" stroke-linecap="round" stroke-linejoin="round"/><path d="M276.08675,183.80145c2.03323,0.47535 3.29072,4.60556 2.50878,8.16065c-0.78195,3.55507 -2.26772,5.45045 -3.48494,6.82825c0.15639,-0.71102 0.41976,-2.93152 -1.35728,-4.12406c-2.20099,-1.56706 -5.83834,-0.44028 -5.83834,-0.44028c0,0 2.85941,-3.98419 4.2896,-6.77785c1.4549,-2.39443 1.8613,-3.92245 3.88219,-3.64673z" fill="#ffffff" stroke="none" stroke-width="1" stroke-linecap="butt" stroke-linejoin="miter"/></g><g fill-rule="nonzero" stroke-linecap="butt" stroke-linejoin="miter"><path d="M233.25263,225.55524c-0.9075,2.94229 -17.18965,3.9597 -17.18965,3.9597c0,0 -2.78419,-6.23217 1.31732,-8.22108c1.91134,-0.92685 7.73797,-5.05776 8.42579,-6.50056c2.41027,-5.05582 2.15055,-10.03129 6.57696,-14.15691c0.81542,-0.76001 2.55473,-2.52457 4.23222,-3.37358c1.92091,-1.98664 6.27584,-0.25263 7.36794,2.28587c3.13002,7.27546 -5.49517,9.03251 -10.73058,26.00657z" fill="#ffab19" stroke="#001026" stroke-width="1.2"/><g><path d="M234.62936,199.65406c-0.98452,-3.84225 2.77791,-9.56287 2.77791,-9.56287c0,0 -0.4745,-3.41392 1.00036,-5.80015c3.04869,-4.9326 17.89117,-5.54725 19.1693,2.37602c0.47957,2.97293 -1.33445,6.14497 -1.33445,6.14497c0,0 1.13547,5.65704 0.03386,8.58435c-0.93693,2.48972 -7.61778,7.06294 -12.86057,6.08784c-0.54458,-0.10128 -1.05488,-0.22452 -1.53311,-0.36637" fill="#ffab19" stroke="#001026" stroke-width="1.2"/><path d="M241.24737,185.52806c3.27965,-2.39383 7.97863,0.79082 8.41662,4.71237c0.05286,0.47326 0.10129,1.02858 0.092,1.58425c0.86298,2.02219 -1.04468,6.66087 -2.66348,7.13698c-5.60369,1.64811 -12.38711,-4.33273 -7.58086,-9.0245c-0.02761,-1.72796 0.61794,-3.59323 1.73571,-4.4091z" fill="#ffffff" stroke="none" stroke-width="0.5"/></g><path d="M250.1106,205.10001c1.00243,2.38538 0.5125,6.49576 0.5125,6.49576c0,0 -1.20158,8.03961 -1.88476,9.28737c-3.10954,5.67923 -13.86293,9.15703 -14.77601,0.13742c-0.21479,-2.12172 1.18492,-3.60855 2.00391,-5.31538c0.37343,-0.77826 1.46816,-8.37963 0.81239,-10.88538c-1.14032,-4.35724 -3.96519,-9.43779 -2.95938,-13.91752c1.79037,-7.97403 17.87539,2.07573 18.35251,2.89481" fill="#ffab19" stroke="#001026" stroke-width="1.2"/></g><g><g><g><path d="M215.64914,146.03265c0,0 -5.06151,-27.12184 -3.98582,-27.18377c1.44918,-0.08344 27.50722,9.12567 27.50722,9.12567" fill="#ffab19" fill-rule="nonzero" stroke="#001026" stroke-width="1.2" stroke-linecap="round" stroke-linejoin="miter"/><path d="M270.21524,145.75802l0.32075,-1.1825l5.07325,-0.58308l3.46458,4.98511l-2.1473,8.32181l-26.11413,9.44267z" fill="#9b7f41" fill-rule="nonzero" stroke="#001026" stroke-width="1.2" stroke-linecap="round" stroke-linejoin="miter"/><path d="M206.68658,166.06764c0,0 -7.11956,1.07791 -12.37735,-1.90297" fill="none" fill-rule="evenodd" stroke="#001026" stroke-width="1.2" stroke-linecap="round" stroke-linejoin="round"/><path d="M207.2561,171.95369c0,0 -3.53708,2.51176 -9.83412,3.048" fill="none" fill-rule="evenodd" stroke="#001026" stroke-width="1.2" stroke-linecap="round" stroke-linejoin="round"/><path d="M231.87056,135.13648c10.92603,-3.29595 41.43961,2.03464 36.84201,29.60729c-0.05993,0.35947 -0.2024,0.70058 -0.34319,1.04032c-5.14165,12.40699 -19.20528,19.90597 -38.35719,19.32784c-19.15191,-0.57811 -25.25762,-10.51393 -25.00521,-16.33339c0.25242,-5.81947 6.9138,-9.05148 6.9138,-9.05148c0,0 -0.6367,-4.45586 1.62151,-10.40484c0,0 2.36503,-9.37028 18.32824,-14.18576z" fill="#ffab19" fill-rule="evenodd" stroke="#001026" stroke-width="1.2" stroke-linecap="butt" stroke-linejoin="miter"/><path d="M229.36107,162.21049c8.38513,-0.78073 18.2435,-11.63765 26.60195,-2.17635c8.34212,9.36265 -0.65017,25.44832 -25.34193,24.47012c-18.93826,-0.51213 -25.35689,-9.88931 -25.10447,-15.70878c0.25242,-5.81947 6.76552,-8.72282 6.76552,-8.72282c8.07526,-3.26348 9.894,2.82112 17.07893,2.13784z" fill="#ffffff" fill-rule="evenodd" stroke="none" stroke-width="1" stroke-linecap="butt" stroke-linejoin="miter"/><path d="M234.08143,160.11088c0.26147,1.57849 -3.47356,4.73123 -5.28204,4.82806c-1.59484,0.16281 -3.53221,-2.35445 -3.66234,-3.75195c-0.01573,-0.70693 2.12202,-1.26375 4.19378,-1.60691c1.97312,-0.32682 4.65315,-0.66938 4.75059,0.53083z" fill="#001026" fill-rule="evenodd" stroke="#001026" stroke-width="1.2" stroke-linecap="round" stroke-linejoin="round"/><path d="M264.60262,155.83809c-3.01377,5.239 -9.69344,7.92825 -9.69344,7.92825" fill="none" fill-rule="evenodd" stroke="#001026" stroke-width="1.2" stroke-linecap="round" stroke-linejoin="round"/><path d="M267.42826,166.75348c-5.696,2.73784 -10.01871,2.37179 -10.01871,2.37179" fill="none" fill-rule="evenodd" stroke="#001026" stroke-width="1.2" stroke-linecap="round" stroke-linejoin="round"/><path d="M257.60445,144.67695l-43.58296,2.01132l-0.01515,-22.80088l48.1903,-1.25477l13.76924,17.87086l-6.24874,16.05968z" fill="#c58600" fill-rule="nonzero" stroke="#001026" stroke-width="1.2" stroke-linecap="round" stroke-linejoin="miter"/><path d="M261.99857,122.83452l-4.39599,21.64244" fill="none" fill-rule="nonzero" stroke="#001026" stroke-width="0.75" stroke-linecap="round" stroke-linejoin="miter"/><path d="M268.27379,130.77566l-5.67336,-7.74682c0,0 13.44573,9.54255 14.50045,9.86482c1.18198,0.36115 -8.68178,13.2813 -8.68178,13.2813z" fill="#ffab19" fill-rule="nonzero" stroke="#001026" stroke-width="1.2" stroke-linecap="round" stroke-linejoin="miter"/></g><path d="M192.95674,156.36342c-4.78937,-21.26286 10.43068,-42.80257 33.99492,-48.11032c23.56424,-5.30775 46.54938,7.62641 51.33874,28.88928c4.78937,21.26286 -10.43068,42.80257 -33.99492,48.11032c-23.56424,5.30775 -46.54938,-7.62641 -51.33874,-28.88927z" fill="none" fill-rule="nonzero" stroke="#ffffff" stroke-width="1.2" stroke-linecap="butt" stroke-linejoin="miter"/><path d="M261.77274,117.15347l-0.57136,7.2568l-8.08569,1.99579l-8.99708,-4.18064l5.22882,-10.92646z" fill="#ffffff" fill-rule="nonzero" stroke="#001026" stroke-width="0" stroke-linecap="round" stroke-linejoin="miter"/><path d="M268.05357,130.42303l6.81916,2.37626l-6.82513,-2.13079" fill="#000000" fill-rule="nonzero" stroke="none" stroke-width="0" stroke-linecap="round" stroke-linejoin="miter"/></g><g><g fill-rule="evenodd"><path d="M225.25332,143.53066c3.05651,1.31825 3.79126,6.36602 1.66558,11.27943c-2.22432,4.92975 -6.41932,7.75322 -9.47582,6.43496c-3.05651,-1.31825 -3.79125,-6.36602 -1.66557,-11.27944c2.12567,-4.91342 6.40297,-7.85187 9.47582,-6.43496z" fill="#ffffff" stroke="#001026" stroke-width="1.2" stroke-linecap="round" stroke-linejoin="round"/><path d="M215.8961,154.73496c-0.17975,-1.08521 0.46242,-2.10385 1.44899,-2.26725c0.98656,-0.16342 1.92288,0.59375 2.10263,1.67897c0.17975,1.08521 -0.46242,2.10385 -1.44898,2.26725c-0.98656,0.16342 -1.92288,-0.59374 -2.10263,-1.67897" fill="#001026" stroke="none" stroke-width="1" stroke-linecap="butt" stroke-linejoin="miter"/></g><g fill-rule="evenodd"><path d="M249.43444,143.88223c3.41785,1.66385 4.15198,7.31991 1.81266,12.16734c-2.24066,4.83108 -6.35273,6.93128 -9.91885,5.5961c-2.97419,-1.43325 -4.05393,-6.72797 -1.81327,-11.55906c2.24066,-4.83108 6.48529,-7.96687 9.91948,-6.20436z" fill="#ffffff" stroke="#001026" stroke-width="1.2" stroke-linecap="round" stroke-linejoin="round"/><path d="M239.8472,154.92195c-0.17975,-1.08521 0.47875,-2.00519 1.44899,-2.26727c0.98656,-0.16342 1.92287,0.59376 2.10263,1.67898c0.17975,1.08521 -0.46242,2.10385 -1.44898,2.26725c-0.98656,0.16342 -1.92288,-0.59375 -2.10263,-1.67898" fill="#001026" stroke="none" stroke-width="1" stroke-linecap="butt" stroke-linejoin="miter"/></g><g fill-rule="nonzero" stroke="#001026" stroke-linecap="round" stroke-linejoin="miter"><path d="M225.94453,174.59666c-0.20631,-0.18106 5.57835,-1.1618 11.23574,-3.39304c12.80791,-5.05133 13.25598,-7.14355 13.81096,-7.05032c1.02419,0.17206 4.41064,10.68692 -3.60342,14.02499c-7.70714,3.21023 -20.79894,-3.01617 -21.44327,-3.58165z" fill="#ffffff" stroke-width="1.2"/><path d="M250.67414,175.21159l-2.26973,-7.37892l2.86782,7.17326" fill="#000000" stroke-width="0"/><path d="M247.89501,177.4379l-1.03958,-4.19037l1.43579,3.78663" fill="#000000" stroke-width="0"/><path d="M227.06763,174.6343l9.22035,2.1131l4.02058,2.16215l-7.21478,-1.53199z" fill="#000000" stroke-width="0"/></g></g></g><g fill-rule="nonzero" stroke="#000000" stroke-width="1.2" stroke-linejoin="miter"><path d="M252.66951,183.16742c0,0 -0.03751,-1.88325 1.76757,-2.23906c7.11939,-1.40333 7.75432,3.46979 10.43969,4.91224c3.1042,1.66744 6.94824,2.92792 7.20883,4.49856c0.37351,2.2512 -1.63583,3.43757 -3.69926,5.39061c-2.7793,2.63063 -6.26621,5.63181 -9.92548,4.8481c-2.85805,-0.61211 -0.20591,-7.60247 -0.16508,-7.64374c-2.13288,-1.55172 -3.81836,-3.74318 -4.38385,-5.71632" fill="#ffab19" stroke-linecap="butt"/><g stroke-linecap="round"><path d="M263.24313,201.63728l-4.10048,3.18926l-2.73365,0.30374l-1.06309,-1.82243l-1.36683,-0.15187l-1.21495,-3.94861" fill="#ffab19"/><path d="M256.45915,187.01913l12.5402,4.8907l0.00109,6.59498l-3.57289,5.28549l-3.52035,-0.31134l-0.74875,-0.78414l-3.73436,-1.00645l-1.28349,-0.87318l-4.0374,-1.16682l-2.45405,-6.0953z" fill="#ffab19"/><path d="M255.32846,195.89506l1.15906,2.94082l-2.35657,-2.51402z" fill="none"/><path d="M260.28418,197.38333l1.06118,3.85878" fill="none"/></g></g></g></g></svg>