<svg version="1.1" xmlns="http://www.w3.org/2000/svg" xmlns:xlink="http://www.w3.org/1999/xlink" width="143.64005" height="162.91319" viewBox="0,0,143.64005,162.91319"><defs><radialGradient cx="228.14496" cy="173.66941" r="38.25582" gradientUnits="userSpaceOnUse" id="color-1"><stop offset="0" stop-color="#180036"/><stop offset="1" stop-color="#1d1d1d"/></radialGradient></defs><g transform="translate(-153.54448,-103.19738)"><g stroke-miterlimit="10"><g stroke="#000000"><g stroke-width="0" stroke-linecap="round"><path d="M278.99139,203.93193l6.40465,8.53635l-3.95208,0.90859l4.33647,6.14414l-4.92105,20.41799l-17.75575,-10.70621l-1.99827,-7.46891l-3.80594,3.0117l-0.18742,-11.82127" fill="#0063eb"/><path d="M275.02322,204.1856l4.39972,5.86411l-2.71491,0.62416l4.35139,7.54888l-3.38055,14.02628l-12.19742,-7.35469l-2.74513,-8.45896l-2.61452,2.06891l-0.12876,-8.1207" fill="#629beb"/></g><path d="M254.97395,215.63879l-19.25323,-47.56354c0,0 -6.26805,-15.24004 6.50167,-20.37268c13.39187,-5.3827 19.5767,9.61874 19.5767,9.61874l19.56138,47.43644c0,0 -1.76197,3.79826 -12.30012,8.31728c-10.83885,4.64797 -14.08641,2.56375 -14.08641,2.56375z" fill="#5d5d5d" stroke-width="1.2" stroke-linecap="butt"/></g><g stroke="#000000"><g stroke-width="0" stroke-linecap="round"><path d="M185.86818,205.21408l-5.30224,9.26148l-2.39934,-3.26919l-3.92458,6.41506l-20.69754,3.56683l2.79965,-20.54388l6.06701,-4.79263l-4.27266,-2.30217l10.78066,-4.85337" fill="#0063eb"/><path d="M184.06382,201.67075l-3.64241,6.36222l-1.64824,-2.2458l-5.20859,6.98505l-14.21832,2.45026l1.92324,-14.11275l6.68034,-5.87049l-2.93514,-1.5815l7.40584,-3.33404" fill="#629beb"/></g><path d="M165.60739,187.79602l36.05085,-36.51455c0,0 11.51199,-11.79074 21.28188,-2.09749c10.2459,10.1655 -1.07996,21.78535 -1.07996,21.78535l-35.81213,36.7472c0,0 -4.18548,-0.1138 -12.50822,-8.00092c-8.56022,-8.11217 -7.93243,-11.91959 -7.93243,-11.91959z" fill="#5d5d5d" stroke-width="1.2" stroke-linecap="butt"/></g><g stroke="#000000" stroke-width="1.2"><path d="M264.92688,220.76673l-6.83202,-3.84876l1.10166,-13.55867l-1.05589,-11.53255l3.43945,-3.12732l4.50778,-0.59316l8.76552,9.00523l10.07485,8.16466l-2.21194,7.50003l-7.63733,5.49362z" fill="#707070" stroke-linecap="round"/><path d="M277.5902,245.52185l-12.44633,-30.57207l-2.32379,1.55323l8.24794,-5.48602l10.4892,-3.46074l-3.08099,1.06418l14.48009,30.23473" fill="#5d5d5d" stroke-linecap="round"/><path d="M290.56209,254.06471c-5.06655,2.19815 -10.95576,-0.12715 -13.15391,-5.1937c-2.19815,-5.06655 0.12715,-10.95576 5.1937,-13.15391c5.06655,-2.19815 10.95576,0.12714 13.15391,5.1937c2.19815,5.06655 -0.12714,10.95576 -5.19369,13.15391z" fill="#707070" stroke-linecap="butt"/></g><g stroke="#000000" stroke-width="1.2"><path d="M196.85548,131.92517c0.66487,9.08595 -1.5402,16.65236 -4.92515,16.90006c-3.38496,0.2477 -6.668,-6.91711 -7.33286,-16.00306c-0.66487,-9.08595 1.5402,-16.65237 4.92515,-16.90006c3.38496,-0.2477 6.668,6.91712 7.33286,16.00307z" fill="#454545" stroke-linecap="butt"/><path d="M198.74452,162.18426l-2.10165,-35.54174l0.09357,6.33622l-7.03442,0.24875l-1.62922,-17.22211l10.90636,-12.20705l7.63451,0.02733l2.36414,55.24403" fill="#5d5d5d" stroke-linecap="round"/></g><g stroke="#000000" stroke-width="1.2"><path d="M267.31504,134.60013c-1.66264,8.95724 -5.71566,15.71638 -9.05266,15.09698c-1.45198,-0.26951 -2.52915,-1.89156 -3.14584,-4.37593c-0.80062,-3.22541 -0.82511,-7.90428 0.11411,-12.96412c1.66263,-8.95724 5.71566,-15.71639 9.05266,-15.09697c3.33701,0.61942 4.69436,8.38283 3.03171,17.34006z" fill="#454545" stroke-linecap="butt"/><path d="M257.30721,163.63342l6.9866,-34.91157l-1.51742,6.15256l-2.97273,-1.50416l2.79458,-17.07178l9.75258,-9.0801l7.37766,1.96385l-11.73255,54.03554" fill="#5d5d5d" stroke-linecap="round"/></g><g stroke="#000000" stroke-width="1.2"><path d="M187.09264,218.14674l-7.65581,-5.93607l-2.22235,-7.61781l10.0861,-7.55397l8.77368,-8.47059l4.51642,0.85894l3.44835,3.32543l-1.04796,11.44984l1.11521,13.60011l-6.84109,3.4376z" fill="#707070" stroke-linecap="round"/><path d="M169.20053,237.63778l14.48047,-29.3246l-3.08746,-1.2447l10.5111,4.07556l8.26752,5.96462l-2.32931,-1.68804l-12.44276,29.78172" fill="#5d5d5d" stroke-linecap="round"/><path d="M166.39777,239.5241c2.19779,-4.92756 8.09568,-6.90016 13.17327,-4.40597c5.07759,2.49419 7.4121,8.51072 5.21429,13.43828c-2.19779,4.92756 -8.09568,6.90017 -13.17326,4.40598c-5.07759,-2.49419 -7.4121,-8.51072 -5.2143,-13.43828z" fill="#707070" stroke-linecap="butt"/></g><g stroke="#000000" stroke-width="1.2" stroke-linecap="round"><path d="M169.74945,217.80264l8.1663,-1.16502l3.63019,6.04422l5.84931,2.8542l-3.2608,8.67116" fill="#5d5d5d"/><path d="M157.87565,224.17425l11.69543,-6.53326l3.8701,2.89599l1.10644,3.45065l2.76366,-0.55465l4.10211,3.71823l1.10644,3.45064l3.5039,0.4223l4.66401,4.53352l-3.2955,12.31132l-11.07199,4.03866l-6.66058,-2.67164l-0.9549,-3.61928l-8.61298,-2.29955l-0.22415,-4.7927l-4.44932,-1.89118l-0.79078,-3.31888z" fill="#5d5d5d"/><path d="M173.30862,225.00634l-6.88151,4.77731" fill="none"/><path d="M174.75601,236.72122l6.37329,-4.93201" fill="none"/></g><g><g stroke-linecap="butt"><g><path d="M188.42626,177.11961c2.38608,-25.44451 24.94722,-44.13706 50.39173,-41.75097c25.44451,2.38608 44.13706,24.94722 41.75097,50.39173c-2.38608,25.44451 -24.94722,44.13706 -50.39173,41.75097c-25.44451,-2.38608 -44.13706,-24.94722 -41.75097,-50.39173z" fill="#5d5d5d" stroke="#000000" stroke-width="1.2"/><path d="M239.07738,136.0372c0,0 1.4837,0.1572 2.2164,0.26167c23.95139,3.41461 41.23901,25.08454 38.95586,49.43154c-2.26386,24.14118 -22.94416,42.11895 -46.85451,41.35094c-0.94154,-0.03023 -2.83872,-0.1787 -2.83872,-0.1787z" fill="#686868" stroke="#000000" stroke-width="0"/><path d="M194.49305,177.68854c2.12147,-22.62294 22.1808,-39.24266 44.80374,-37.12116c22.62294,2.12147 39.24267,22.18081 37.12117,44.80374c-2.12147,22.62294 -22.1808,39.24266 -44.80375,37.12116c-22.62294,-2.12147 -39.24266,-22.18079 -37.12116,-44.80374z" fill="#707070" stroke="#838383" stroke-width="0"/><path d="M197.36679,177.95803c1.97265,-21.03581 20.6247,-36.48956 41.66049,-34.51691c21.03581,1.97265 36.48957,20.6247 34.51692,41.66049c-1.97265,21.03581 -20.62471,36.48957 -41.6605,34.51692c-21.03581,-1.97265 -36.48956,-20.62471 -34.51691,-41.6605z" fill="url(#color-1)" stroke="#000000" stroke-width="1.2"/></g><g stroke="#000000"><path d="M197.25348,189.38885c0,0 -1.92429,-7.05243 -1.44874,-11.64885c0.47557,-4.59643 3.81377,-11.20964 3.81377,-11.20964c0.34225,0.04835 1.19622,0.17459 1.65514,0.29191c5.4293,1.38783 9.19556,6.55468 8.65579,12.31056c-0.5642,6.01645 -5.63144,10.52587 -11.55862,10.50981c-0.35199,-0.00096 -1.06428,-0.05137 -1.06428,-0.05137c0,0 -0.01898,-0.07085 -0.05308,-0.20238z" fill="#707070" stroke-width="0"/><path d="M199.61853,166.53033c0.34225,0.04835 1.19622,0.17459 1.65514,0.29191c5.42929,1.38783 9.19556,6.55468 8.65579,12.31056c-0.5642,6.01645 -5.63144,10.52587 -11.55862,10.50981c-0.35199,-0.00096 -1.06428,-0.05137 -1.06428,-0.05137c0,0 -0.01898,-0.07085 -0.05308,-0.20238" fill="none" stroke-width="1.2"/></g><g stroke="#000000"><path d="M271.50756,196.13789c-0.04276,0.12432 -0.06617,0.19121 -0.06617,0.19121c0,0 -0.47433,-0.06086 -0.70498,-0.11456c-3.88433,-0.90403 -6.50318,-6.1342 -5.93899,-12.15064c0.53976,-5.75588 3.80823,-10.26303 7.57939,-10.78809c0.31877,-0.04438 0.89763,-0.03626 1.1293,-0.03079c0,0 1.40411,4.71964 0.7581,11.63837c-0.62746,6.72002 -2.75662,11.2545 -2.75662,11.2545z" fill="#707070" stroke-width="0"/><path d="M271.50756,196.13789c-0.04276,0.12432 -0.06617,0.19121 -0.06617,0.19121c0,0 -0.47433,-0.06086 -0.70498,-0.11456c-3.88433,-0.90403 -6.50318,-6.1342 -5.93899,-12.15064c0.53976,-5.75588 3.80823,-10.26303 7.57939,-10.78809c0.31877,-0.04438 0.89763,-0.03626 1.1293,-0.03079" fill="none" stroke-width="1.2"/></g><path d="M197.05698,181.00863l0.58474,-6.23553l4.67125,-1.13455l4.2458,1.97076l-0.58474,6.23553l-4.68343,1.26445z" fill="#21cc26" stroke="#17921c" stroke-width="1.2"/><path d="M266.88592,187.55688l0.58474,-6.23553l3.23472,-1.26927l2.8515,1.84001l-0.58474,6.23553l-3.2469,1.39917z" fill="#21cc26" stroke="#17921c" stroke-width="1.2"/></g><g stroke-linecap="round"><path d="M231.43686,152.87219l2.1912,0.20548l0.44512,-1.06349l1.56852,0.21616l1.38667,-1.52782l0.82602,-1.44224l1.08925,-2.03926l0.47284,2.3239l1.07843,1.75899l1.1726,1.49151l2.43727,1.26473l1.16834,0.80034l-1.17909,0.78744l-1.22613,-0.18406l-1.74615,0.9415l-1.2925,1.26033l-1.2005,1.75252l-0.79607,1.85951l-0.84522,-0.5628l0.00647,-2.27895l-0.75323,-0.07063l0.04712,-1.23897l-1.44651,-1.51721l-1.64767,-0.84528l-1.66052,-0.70834z" fill="#eee796" stroke="#eee796" stroke-width="0.25"/><path d="M231.33838,154.09428l0.12714,-1.35581l2.25967,0.21191l0.08477,-0.90387l1.80775,0.16952l0.10595,-1.12984l1.20516,0.11301l-0.70072,-0.0657" fill="none" stroke="#cec344" stroke-width="0.75"/><path d="M237.02081,150.21829l-0.09198,0.98091l0.16952,-1.80775l0.90387,0.08477l0.21191,-2.25968l1.35581,0.12714" fill="none" stroke="#cec344" stroke-width="0.75"/><path d="M240.8479,151.56669l-0.70072,-0.0657l1.20516,0.11301l-0.10595,1.12984l1.80775,0.16952l-0.08477,0.90387l2.25967,0.21191l-0.12714,1.35581" fill="none" stroke="#cec344" stroke-width="0.75"/><path d="M238.26892,147.22166l1.35581,0.12714l-0.21191,2.25968l0.90387,0.08477l-0.16952,1.80775l0.09198,-0.98092" fill="none" stroke="#cec344" stroke-width="0.75"/><path d="M235.70735,156.68683l0.70072,0.0657l-1.20516,-0.11301l0.10595,-1.12984l-1.80775,-0.16952l0.08477,-0.90387l-2.25967,-0.21191l0.12714,-1.35581" fill="none" stroke="#cec344" stroke-width="0.75"/><path d="M238.28633,161.03186l-1.35581,-0.12714l0.21191,-2.25968l-0.90387,-0.08477l0.16951,-1.80774l-0.09198,0.98091" fill="none" stroke="#cec344" stroke-width="0.75"/><path d="M245.21685,154.15925l-0.12714,1.35581l-2.25967,-0.21191l-0.08477,0.90387l-1.80775,-0.16952l-0.10595,1.12984l-1.20516,-0.11301l0.70072,0.0657" fill="none" stroke="#cec344" stroke-width="0.75"/><path d="M239.53442,158.03524l0.09198,-0.98091l-0.16952,1.80775l-0.90387,-0.08477l-0.21191,2.25968l-1.35581,-0.12714" fill="none" stroke="#cec344" stroke-width="0.75"/></g><g stroke-linecap="round"><path d="M226.27061,207.96383l2.1912,0.20548l0.44512,-1.06349l1.56852,0.21616l1.38667,-1.52782l0.82602,-1.44224l1.08925,-2.03926l0.47284,2.3239l1.07843,1.75899l1.1726,1.49151l2.43727,1.26473l1.16834,0.80034l-1.17909,0.78744l-1.22613,-0.18406l-1.74615,0.9415l-1.2925,1.26034l-1.2005,1.75252l-0.79607,1.85951l-0.84522,-0.5628l0.00647,-2.27895l-0.75323,-0.07063l0.04712,-1.23897l-1.44651,-1.5172l-1.64767,-0.84529l-1.66052,-0.70833z" fill="#eee796" stroke="#eee796" stroke-width="0.25"/><path d="M226.17213,209.1859l0.12714,-1.35581l2.25967,0.21191l0.08477,-0.90387l1.80775,0.16952l0.10594,-1.12983l1.20516,0.11301l-0.70072,-0.0657" fill="none" stroke="#cec344" stroke-width="0.75"/><path d="M231.85457,205.30991l-0.09198,0.98091l0.16952,-1.80775l0.90387,0.08477l0.21191,-2.25968l1.35581,0.12714" fill="none" stroke="#cec344" stroke-width="0.75"/><path d="M235.68164,206.65833l-0.70072,-0.0657l1.20516,0.11301l-0.10594,1.12983l1.80775,0.16952l-0.08477,0.90387l2.25967,0.21191l-0.12714,1.35581" fill="none" stroke="#cec344" stroke-width="0.75"/><path d="M233.10266,202.31329l1.35581,0.12714l-0.21191,2.25968l0.90387,0.08477l-0.16952,1.80775l0.09198,-0.98092" fill="none" stroke="#cec344" stroke-width="0.75"/><path d="M230.54109,211.77845l0.70072,0.0657l-1.20516,-0.11301l0.10594,-1.12983l-1.80775,-0.16952l0.08477,-0.90387l-2.25967,-0.21191l0.12714,-1.35581" fill="none" stroke="#cec344" stroke-width="0.75"/><path d="M233.12007,216.12349l-1.35581,-0.12714l0.21191,-2.25968l-0.90387,-0.08477l0.16952,-1.80775l-0.09198,0.98092" fill="none" stroke="#cec344" stroke-width="0.75"/><path d="M240.05059,209.25088l-0.12714,1.35581l-2.25967,-0.21191l-0.08477,0.90387l-1.80775,-0.16952l-0.10594,1.12983l-1.20516,-0.11301l0.70072,0.0657" fill="none" stroke="#cec344" stroke-width="0.75"/><path d="M234.36816,213.12686l0.09198,-0.98092l-0.16952,1.80775l-0.90387,-0.08477l-0.21191,2.25968l-1.35581,-0.12714" fill="none" stroke="#cec344" stroke-width="0.75"/></g><g stroke-linecap="round"><path d="M253.14332,158.30132l1.40412,1.69471l1.06676,-0.43726l0.95625,1.26196l2.06085,-0.09981l1.60391,-0.43574l2.21218,-0.67176l-1.30888,1.97758l-0.48122,2.00638l-0.22549,1.8838l0.82912,2.61771l0.26021,1.39206l-1.39054,-0.27693l-0.73686,-0.99715l-1.90044,-0.56899l-1.80513,-0.02275l-2.0881,0.39033l-1.87778,0.75196l-0.19972,-0.99563l1.61604,-1.60687l-0.48267,-0.58256l0.9094,-0.84277l0.04999,-2.09565l-0.56739,-1.76278l-0.67329,-1.67503z" fill="#eee796" stroke="#eee796" stroke-width="0.25"/><path d="M252.20955,159.09581l1.04861,-0.8688l1.448,1.74766l0.69907,-0.57919l1.15841,1.39814l0.87383,-0.724l0.77226,0.93209l-0.44902,-0.54195" fill="none" stroke="#cec344" stroke-width="0.75"/><path d="M258.96838,160.37318l-0.75863,0.62856l1.39814,-1.15841l0.5792,0.69908l1.74766,-1.44799l0.8688,1.04861" fill="none" stroke="#cec344" stroke-width="0.75"/><path d="M260.72105,164.03281l-0.44902,-0.54196l0.77226,0.93209l-0.87383,0.72399l1.15841,1.39814l-0.69907,0.57919l1.448,1.74767l-1.04861,0.8688" fill="none" stroke="#cec344" stroke-width="0.75"/><path d="M261.96984,159.13677l0.8688,1.04861l-1.74767,1.448l0.5792,0.69908l-1.39814,1.15841l0.75864,-0.62857" fill="none" stroke="#cec344" stroke-width="0.75"/><path d="M253.46565,164.01834l0.44902,0.54195l-0.77225,-0.93209l0.87383,-0.72399l-1.15841,-1.39814l0.69908,-0.5792l-1.448,-1.74767l1.04861,-0.8688" fill="none" stroke="#cec344" stroke-width="0.75"/><path d="M252.21687,168.91438l-0.8688,-1.04861l1.74767,-1.448l-0.5792,-0.69908l1.39813,-1.1584l-0.75864,0.62857" fill="none" stroke="#cec344" stroke-width="0.75"/><path d="M261.97715,168.95533l-1.04861,0.8688l-1.44799,-1.74767l-0.69908,0.5792l-1.15841,-1.39814l-0.87383,0.72399l-0.77226,-0.93209l0.44903,0.54196" fill="none" stroke="#cec344" stroke-width="0.75"/><path d="M255.21833,167.67798l0.75864,-0.62857l-1.39814,1.15841l-0.5792,-0.69908l-1.74766,1.44799l-0.8688,-1.04861" fill="none" stroke="#cec344" stroke-width="0.75"/></g><g stroke-linecap="round"><path d="M210.53455,193.6039l1.40413,1.69471l1.06676,-0.43726l0.95625,1.26196l2.06085,-0.09981l1.60391,-0.43574l2.21218,-0.67176l-1.30888,1.97758l-0.48122,2.00637l-0.22549,1.88381l0.82912,2.61771l0.26022,1.39206l-1.39055,-0.27693l-0.73685,-0.99716l-1.90044,-0.56899l-1.80513,-0.02276l-2.08811,0.39034l-1.87778,0.75196l-0.19972,-0.99563l1.61604,-1.60688l-0.48266,-0.58256l0.9094,-0.84277l0.04998,-2.09565l-0.56739,-1.76278l-0.67329,-1.67503z" fill="#eee796" stroke="#eee796" stroke-width="0.25"/><path d="M209.60079,194.39839l1.04861,-0.8688l1.44799,1.74766l0.69908,-0.5792l1.15841,1.39814l0.87383,-0.72399l0.77226,0.93209l-0.44902,-0.54195" fill="none" stroke="#cec344" stroke-width="0.75"/><path d="M216.3596,195.67575l-0.75864,0.62857l1.39814,-1.15841l0.5792,0.69908l1.74767,-1.448l0.8688,1.04861" fill="none" stroke="#cec344" stroke-width="0.75"/><path d="M218.11228,199.33537l-0.44902,-0.54195l0.77226,0.93209l-0.87383,0.72399l1.15841,1.39814l-0.69908,0.5792l1.448,1.74767l-1.04861,0.8688" fill="none" stroke="#cec344" stroke-width="0.75"/><path d="M219.36107,194.43935l0.8688,1.04861l-1.74767,1.448l0.5792,0.69908l-1.39814,1.1584l0.75864,-0.62857" fill="none" stroke="#cec344" stroke-width="0.75"/><path d="M210.85689,199.32092l0.44902,0.54195l-0.77226,-0.93209l0.87383,-0.72399l-1.15841,-1.39813l0.69908,-0.5792l-1.448,-1.74767l1.04861,-0.8688" fill="none" stroke="#cec344" stroke-width="0.75"/><path d="M209.60811,204.21695l-0.8688,-1.04861l1.74767,-1.448l-0.5792,-0.69908l1.39814,-1.15841l-0.75865,0.62857" fill="none" stroke="#cec344" stroke-width="0.75"/><path d="M219.36839,204.25789l-1.04861,0.8688l-1.448,-1.74767l-0.69908,0.5792l-1.15841,-1.39814l-0.87383,0.72399l-0.77225,-0.93209l0.44902,0.54195" fill="none" stroke="#cec344" stroke-width="0.75"/><path d="M212.60957,202.98055l0.75864,-0.62857l-1.39814,1.15841l-0.5792,-0.69908l-1.74767,1.448l-0.8688,-1.04861" fill="none" stroke="#cec344" stroke-width="0.75"/></g><g stroke-linecap="round"><path d="M212.24912,164.38199l1.69471,-1.40413l-0.43726,-1.06676l1.26196,-0.95625l-0.09981,-2.06085l-0.43574,-1.60391l-0.67176,-2.21217l1.97758,1.30888l2.00637,0.48122l1.88381,0.22549l2.6177,-0.82912l1.39207,-0.26022l-0.27694,1.39055l-0.99715,0.73686l-0.56899,1.90044l-0.02276,1.80513l0.39033,2.0881l0.75196,1.87778l-0.99563,0.19972l-1.60687,-1.61604l-0.58256,0.48266l-0.84277,-0.9094l-2.09565,-0.04998l-1.76278,0.56739l-1.67503,0.67329z" fill="#eee796" stroke="#eee796" stroke-width="0.25"/><path d="M213.04361,165.31577l-0.8688,-1.04861l1.74767,-1.448l-0.5792,-0.69908l1.39814,-1.15841l-0.72399,-0.87383l0.93209,-0.77226l-0.54195,0.44902" fill="none" stroke="#cec344" stroke-width="0.75"/><path d="M214.32096,158.55694l0.62857,0.75864l-1.15841,-1.39814l0.69908,-0.5792l-1.44799,-1.74767l1.04861,-0.8688" fill="none" stroke="#cec344" stroke-width="0.75"/><path d="M217.9806,156.80426l-0.54195,0.44902l0.93209,-0.77226l0.72399,0.87383l1.39814,-1.15841l0.5792,0.69908l1.74766,-1.448l0.8688,1.04861" fill="none" stroke="#cec344" stroke-width="0.75"/><path d="M213.08457,155.55548l1.04861,-0.8688l1.448,1.74767l0.69908,-0.5792l1.15841,1.39814l-0.62857,-0.75864" fill="none" stroke="#cec344" stroke-width="0.75"/><path d="M217.96614,164.05966l0.54195,-0.44902l-0.93209,0.77226l-0.72399,-0.87383l-1.39814,1.15841l-0.5792,-0.69908l-1.74767,1.44799l-0.8688,-1.04861" fill="none" stroke="#cec344" stroke-width="0.75"/><path d="M222.86217,165.30845l-1.04861,0.8688l-1.448,-1.74767l-0.69908,0.5792l-1.1584,-1.39813l0.62857,0.75864" fill="none" stroke="#cec344" stroke-width="0.75"/><path d="M222.90312,155.54816l0.8688,1.04861l-1.74767,1.448l0.5792,0.69908l-1.39814,1.15841l0.72399,0.87383l-0.93208,0.77226l0.54195,-0.44902" fill="none" stroke="#cec344" stroke-width="0.75"/><path d="M221.62576,162.30698l-0.62857,-0.75864l1.1584,1.39814l-0.69907,0.5792l1.448,1.74766l-1.04861,0.8688" fill="none" stroke="#cec344" stroke-width="0.75"/></g><g stroke-linecap="round"><path d="M247.55168,206.99076l1.69471,-1.40412l-0.43726,-1.06676l1.26196,-0.95625l-0.09981,-2.06085l-0.43574,-1.60391l-0.67176,-2.21217l1.97758,1.30888l2.00637,0.48122l1.88381,0.22548l2.61771,-0.82912l1.39206,-0.26021l-0.27694,1.39054l-0.99715,0.73685l-0.56899,1.90045l-0.02275,1.80513l0.39033,2.08811l0.75197,1.87778l-0.99564,0.19971l-1.60687,-1.61605l-0.58256,0.48266l-0.84277,-0.9094l-2.09564,-0.04999l-1.76278,0.56739l-1.67503,0.67329z" fill="#eee796" stroke="#eee796" stroke-width="0.25"/><path d="M248.34618,207.92454l-0.8688,-1.04861l1.74766,-1.448l-0.5792,-0.69908l1.39814,-1.15841l-0.72399,-0.87383l0.93209,-0.77226l-0.54195,0.44902" fill="none" stroke="#cec344" stroke-width="0.75"/><path d="M249.62354,201.16571l0.62857,0.75864l-1.15841,-1.39814l0.69908,-0.5792l-1.44799,-1.74767l1.04861,-0.8688" fill="none" stroke="#cec344" stroke-width="0.75"/><path d="M253.28317,199.41303l-0.54195,0.44902l0.93209,-0.77225l0.72399,0.87383l1.39814,-1.15841l0.5792,0.69908l1.74767,-1.44799l0.8688,1.04861" fill="none" stroke="#cec344" stroke-width="0.75"/><path d="M248.38713,198.16424l1.04861,-0.8688l1.448,1.74766l0.69908,-0.5792l1.15841,1.39814l-0.62857,-0.75864" fill="none" stroke="#cec344" stroke-width="0.75"/><path d="M253.2687,206.66843l0.54196,-0.44902l-0.93209,0.77225l-0.72399,-0.87383l-1.39814,1.15841l-0.5792,-0.69908l-1.74767,1.448l-0.8688,-1.04861" fill="none" stroke="#cec344" stroke-width="0.75"/><path d="M258.16474,207.91722l-1.04861,0.8688l-1.448,-1.74767l-0.69908,0.5792l-1.15841,-1.39814l0.62857,0.75864" fill="none" stroke="#cec344" stroke-width="0.75"/><path d="M258.20569,198.15692l0.8688,1.04861l-1.74767,1.448l0.5792,0.69908l-1.39814,1.15841l0.72399,0.87383l-0.93208,0.77226l0.54195,-0.44903" fill="none" stroke="#cec344" stroke-width="0.75"/><path d="M256.92833,204.91574l-0.62857,-0.75864l1.1584,1.39813l-0.69908,0.5792l1.448,1.74767l-1.04861,0.8688" fill="none" stroke="#cec344" stroke-width="0.75"/></g></g><g fill="none"><g><g stroke="none" stroke-width="1" stroke-linecap="butt" font-family="sans-serif" font-weight="normal" font-size="12" text-anchor="start"/><g stroke="#ca40a7" stroke-width="1.5" stroke-linecap="round"><path d="M259.50214,187.94077l0.2617,-2.62456l-0.76737,8.01686l-1.75962,-0.16502l-0.27873,2.9724l-1.75962,-0.16502l-0.24157,2.57608l-4.90179,-0.45966l0.24157,-2.57608l-2.13667,-0.20037l0.27873,-2.9724l-1.75962,-0.16502l0.76737,-8.01686l-0.35505,3.62019"/></g></g><g><g stroke="none" stroke-width="1" stroke-linecap="butt" font-family="sans-serif" font-weight="normal" font-size="12" text-anchor="start"/><g stroke="#ca40a7" stroke-width="1.5" stroke-linecap="round"><path d="M235.35807,185.67664l0.2617,-2.62456l-0.76737,8.01686l-2.293,-0.21503l-0.27873,2.9724l-2.293,-0.21503l-0.24157,2.57608l-6.38763,-0.59901l0.24157,-2.57608l-2.78435,-0.26111l0.27873,-2.9724l-2.293,-0.21503l0.76737,-8.01686l-0.35505,3.62019"/></g></g></g><g stroke="#000000" stroke-width="1.2"><path d="M263.08495,220.35652c-0.7064,-7.06059 4.4447,-13.35697 11.50529,-14.06337c7.0606,-0.70639 13.35698,4.4447 14.06336,11.5053c0.7064,7.06059 -4.44469,13.35697 -11.50529,14.06337c-7.0606,0.70639 -13.35698,-4.4447 -14.06336,-11.5053z" fill="#5c5e5f" stroke-linecap="butt"/><g stroke-linecap="round"><path d="M270.26884,249.923l-9.1584,-2.3705l1.2549,-6.22955l-2.74314,-6.29909l5.99679,-5.76488" fill="#5d5d5d"/><path d="M287.73111,226.18778l2.24792,2.51222l-1.18525,4.57917l3.81221,2.90537l-3.41655,8.08919l2.39431,2.81246l-1.90573,6.76419l-10.15748,6.4159l-12.18024,-4.41587l-0.86033,-6.25269l1.81292,-2.99861l-2.16185,-2.83572l-0.53486,-5.34617l2.16163,-1.85965l-2.16185,-2.83572l-0.00021,-4.69535l12.59818,-5.48626z" fill="#5d5d5d"/><path d="M277.54353,233.46565l-8.18188,2.69673" fill="none"/><path d="M278.12514,243.97207l-7.99595,2.20859" fill="none"/></g><path d="M274.15194,262.92324l-0.72604,-7.25698l5.09481,-3.0473l5.63105,2.31256l0.92497,6.89874l-5.50943,3.59629z" fill="#5c5e5f" stroke-linecap="round"/></g></g></g></svg>