<svg version="1.1" xmlns="http://www.w3.org/2000/svg" xmlns:xlink="http://www.w3.org/1999/xlink" width="65.29748" height="65.60581" viewBox="0,0,65.29748,65.60581"><g transform="translate(-207.35126,-147.1971)"><g stroke="#000000" stroke-width="0" stroke-linecap="round" stroke-linejoin="round" stroke-miterlimit="10"><g><path d="M272.64872,180.00381c0.00002,1.00007 -30.70467,32.92183 -31.99893,32.79874c-1.11625,-0.10617 -16.12508,-11.9846 -16.1362,-13.24181c-0.01049,-1.18607 16.50013,-12.05192 11.03096,-9.94281c-3.2021,1.23485 -25.25831,6.29824 -26.21477,5.47977c-0.96636,-0.82694 -2.16066,-11.0788 -1.95521,-15.08351v-0.02836c-0.20545,-4.00472 0.98886,-14.25658 1.95522,-15.08351c0.95646,-0.81845 23.01267,4.24494 26.21477,5.47977c5.46918,2.1091 -11.04145,-8.75675 -11.03095,-9.94281c0.01111,-1.25722 15.01997,-13.13565 16.1362,-13.24181c1.29425,-0.1231 31.99895,31.79867 31.99893,32.79874z" fill="#3f0f0f"/><path d="M270.09518,180.00351c0.00002,0.92185 -28.30316,30.34692 -29.49619,30.23345c-1.02894,-0.09786 -13.343,-9.41772 -13.35325,-10.5766c-0.00968,-1.0933 17.3823,-14.15109 12.34089,-12.20694c-2.95166,1.13826 -27.08503,6.3207 -27.96668,5.56626c-0.89078,-0.76225 -1.88304,-9.31511 -1.69366,-13.0066v-0.02614c-0.18937,-3.6915 0.58562,-12.35299 1.47639,-13.11524c0.88166,-0.75444 25.01502,4.21073 27.96668,5.34898c5.04142,1.94415 -12.13329,-11.00501 -12.12362,-12.0983c0.01024,-1.15889 12.32432,-10.26147 13.35326,-10.35933c1.19303,-0.11347 29.49621,29.31159 29.49619,30.23345z" fill="#d1b1b1"/><path d="M267.76862,180.00324c0.00002,0.85048 -26.112,27.99752 -27.21266,27.89283c-0.94928,-0.09029 -10.99326,-7.22556 -11.00271,-8.29472c-0.00893,-1.00866 16.62183,-15.25014 11.97071,-13.45651c-2.72315,1.05014 -27.18276,5.54092 -27.99615,4.84488c-0.82181,-0.70324 -1.44464,-7.57197 -1.26992,-10.97767l0.00001,-0.02412c-0.17471,-3.4057 0.39397,-10.66726 1.21579,-11.3705c0.81339,-0.69604 24.98039,3.74059 27.70354,4.79072c4.65111,1.79363 -12.07181,-12.20132 -12.06289,-13.20998c0.00945,-1.06916 10.49236,-8.00398 11.44164,-8.09426c1.10066,-0.10469 27.21267,27.04235 27.21266,27.89283z" fill="#9e5f5f"/></g></g></g></svg>