<svg version="1.1" xmlns="http://www.w3.org/2000/svg" xmlns:xlink="http://www.w3.org/1999/xlink" width="114.30045" height="113.08063" viewBox="0,0,114.30045,113.08063"><g transform="translate(-187.95193,-125.5105)"><g stroke-width="1.2" stroke-miterlimit="10"><path d="M248.08861,216.45873c1.89139,0.23123 4.22865,2.39754 6.1577,3.25979c1.10664,0.49465 3.33929,0.08121 4.23793,1.20575c0.71966,0.90057 1.50729,2.0224 1.4423,3.11222c-0.28365,4.75665 -8.16466,2.08028 -10.98257,0.098c-1.30219,-0.91604 -3.68719,-1.5469 -3.68047,-3.07578c-0.29723,-0.56339 -0.45132,-1.20148 -0.41253,-1.852c0.09501,-1.59326 1.31507,-2.72461 2.83584,-2.74329c0.12734,-0.01942 0.26094,-0.02193 0.4018,-0.00471z" fill="#9a8479" stroke="#000000" stroke-linecap="butt"/><path d="M251.13479,225.99904c0,0 0.86028,4.80761 1.2973,6.56478c0.44103,1.75708 0.98151,3.39181 0.98151,3.39181c0,0 0.80213,0.32122 0.57972,1.01061c-0.22047,0.69282 -2.95059,0.65927 -6.37676,0.81194c-3.42696,0.15349 -6.22131,-0.33303 -6.77306,-1.06517c-0.54981,-0.72388 0.464,-0.98132 0.464,-0.98132c0,0 1.03692,-4.75731 0.03782,-6.92376c-1.33204,-2.88939 0.19923,-3.64173 4.20925,-5.02313v0v0v0v0v0v0c4.01002,-1.38139 5.5802,2.21423 5.5802,2.21423z" fill="#9a8479" stroke="#000000" stroke-linecap="butt"/><path d="M236.36357,211.00256v0v0v0v0v0v0c9.02363,-0.57363 12.65992,3.72726 12.65789,3.72645c0.78298,1.11087 1.76327,2.67826 2.20309,4.10943c0.12127,0.39533 0.20444,0.84014 0.2405,1.31726c0,0 0.01612,1.65724 -0.1591,2.16317c-0.73507,2.11952 -1.97958,4.43962 -5.14481,5.48862c-4.96917,1.65395 -10.34059,1.45093 -16.0042,-0.72222c-1.91122,-0.73128 -3.0776,-1.97753 -3.73845,-3.39626c-0.47196,-1.02103 -0.71103,-2.35228 -0.71103,-2.35228c-0.35681,-2.21441 0.02502,-4.37603 0.23741,-5.31607c0,0 1.39621,-4.44455 10.41872,-5.0181z" fill="#9a8479" stroke="#000000" stroke-linecap="butt"/><path d="M236.97697,227.94004c-0.03693,0.3318 -0.09178,0.53801 -0.09178,0.53801c0,0 -0.69329,3.24228 -0.69299,5.00278c-0.0008,1.76061 0.09571,2.48838 0.09571,2.48838c0,0 0.58447,0.05933 0.45309,0.72957c-0.12733,0.67115 -1.86806,1.39892 -6.83674,1.27935c-4.9708,-0.12505 -5.95116,-1.12816 -5.97692,-1.64094c-0.02787,-0.51276 1.04614,-1.03284 1.04614,-1.03284c0,0 0.46407,-3.27908 1.17844,-6.13007c0.40589,-1.61666 1.07494,-3.19666 1.57851,-4.2623" fill="#9a8479" stroke="#000000" stroke-linecap="butt"/><path d="M286.34967,170.73444c0,0 13.15085,-9.93932 14.97901,-2.02317c1.82824,7.91605 -4.19011,17.5288 -15.4638,26.46595c0,0 1.8429,-13.98856 0.48479,-24.44278zM286.34967,170.73444c-0.07264,-1.2269 -0.51141,-3.56076 -0.51141,-3.56076M285.34576,197.36494l0.39062,-2.26627" fill="#9a8479" stroke="#000000" stroke-linecap="round"/><path d="M285.73649,195.09778c0.36611,-2.59181 0.85633,-6.85472 1.05299,-12.16064c0.11691,-3.08815 0.02006,-6.26466 -0.13931,-9.0051l0.00087,0.00353c7.35351,-2.79744 12.58844,6.04512 12.58844,6.04512l0.00257,-0.00011c-4.47501,8.31566 -13.42287,14.88897 -13.42287,14.88897l-0.08269,0.22822v0v0v0v0z" fill="#ee4036" stroke="#000000" stroke-linecap="butt"/><path d="M201.69491,194.87881v0v0v0v0v0v0c-0.03795,-0.08794 -1.15716,-2.56474 -1.15704,-2.56573c-3.13316,-6.62006 -2.37136,-20.68522 -1.53313,-25.00555l0.05374,-0.20539c3.2286,-18.34975 12.96077,-27.21788 18.63849,-31.85058c12.88797,-10.52302 30.40187,-8.9872 30.40187,-8.9872l-0.76774,12.06485c0,0 0.36553,-3.45316 8.08601,-8.67157c7.7187,-5.21861 18.00042,-3.13741 18.00042,-3.13741l-7.24729,14.39252c0,0 3.78921,-4.30608 6.64885,-5.70919c5.06929,-2.48253 8.90931,-0.72003 8.90931,-0.72003l-2.1775,9.19469c0,0 5.97097,9.91682 10.35752,19.09382c0.93933,1.95842 2.05886,3.96041 2.65852,6.18378c2.1815,8.07853 1.03413,21.89477 -3.20023,28.31441c-0.73467,1.13747 -1.51825,2.23384 -2.32377,3.30765c-0.20902,0.27553 -0.41873,0.54915 -0.63071,0.81889c-0.73296,0.94147 -1.49054,1.86005 -2.27779,2.7444c-0.10621,0.11758 -0.20539,0.24413 -0.31161,0.36181c-0.89038,0.98226 -1.81822,1.92022 -2.77513,2.82583c-0.22873,0.21879 -0.46736,0.42817 -0.70046,0.64464c-0.81652,0.74477 -1.65637,1.46319 -2.51236,2.14883c-0.19756,0.16068 -0.39094,0.32446 -0.58955,0.47857c-1.02677,0.79496 -2.08711,1.54325 -3.17181,2.24967c-0.24136,0.15471 -0.48715,0.30066 -0.72996,0.45147c-0.90773,0.56712 -1.83984,1.10142 -2.78821,1.60385c-0.2736,0.14273 -0.54197,0.29512 -0.81694,0.43407c-1.15468,0.58126 -2.33042,1.11649 -3.53621,1.59731c-0.2153,0.08685 -0.44165,0.15873 -0.65932,0.24169c-1.02836,0.39241 -2.07451,0.7419 -3.13818,1.05483c-4.49922,1.32252 -9.29344,1.96798 -14.336,1.75022c-5.76289,-0.24929 -10.91684,-1.0204 -15.51999,-2.16997c-1.13819,-0.28418 -2.24159,-0.59422 -3.313,-0.92242c-0.20315,-0.06617 -0.4056,-0.13044 -0.60707,-0.1946c-1.08463,-0.34694 -2.14685,-0.7076 -3.16121,-1.09645c-0.00605,-0.00251 -0.0139,-0.00523 -0.02083,-0.00784c-1.01656,-0.38629 -1.98897,-0.80018 -2.93595,-1.22936c-0.16584,-0.07454 -0.33615,-0.14959 -0.50098,-0.22502c-0.90917,-0.41837 -1.79172,-0.85549 -2.63871,-1.30845c-0.14923,-0.07714 -0.29205,-0.16181 -0.44008,-0.24063c-0.83515,-0.4544 -1.64698,-0.92061 -2.42148,-1.40424c-0.02932,-0.02151 -0.06294,-0.03727 -0.09158,-0.05689c-0.79272,-0.49842 -1.54579,-1.01048 -2.27518,-1.52987c-0.13602,-0.09736 -0.27125,-0.19292 -0.40348,-0.28995c-0.70031,-0.5123 -1.37633,-1.03096 -2.01663,-1.55898c-0.09802,-0.07949 -0.19037,-0.16103 -0.28741,-0.2412c-0.607,-0.50967 -1.19148,-1.0259 -1.74712,-1.54786c-0.05771,-0.05026 -0.12147,-0.10394 -0.17608,-0.15837c-0.57887,-0.54911 -1.12144,-1.10498 -1.64213,-1.66185c-0.10127,-0.10714 -0.20056,-0.21485 -0.29726,-0.32136c-0.50629,-0.55531 -0.99102,-1.10893 -1.44221,-1.67056c-0.05189,-0.06146 -0.0981,-0.1258 -0.14901,-0.18795c-0.42449,-0.53317 -0.82423,-1.067 -1.19893,-1.59804c-0.05203,-0.07678 -0.11229,-0.1528 -0.16543,-0.2279c-0.38254,-0.55732 -1.19677,-1.86838 -1.2592,-1.97274c-0.32502,-0.55157 -0.63235,-1.10019 -0.90494,-1.64207c-0.01694,-0.03377 -0.03308,-0.06745 -0.04823,-0.10091c-0.26134,-0.52156 -0.49481,-1.03254 -0.70969,-1.53968z" fill="#9a8479" stroke="#000000" stroke-linecap="butt"/><path d="M276.21965,177.72298v0v0v0v0v0v0c0,0 8.42056,12.10596 4.01081,23.21951c-4.40765,11.11031 -23.01717,13.97757 -36.75663,11.58607c-18.16279,-3.16269 -25.32215,-14.99093 -21.04481,-25.05829c4.28153,-10.06691 29.10431,-12.26493 29.10431,-12.26493l-4.88822,7.03361c0,0 3.19323,-0.13952 5.90101,-1.3083c2.70672,-1.16626 5.71682,-2.78801 5.71682,-2.78801l-6.79673,7.57318c0,0 7.66717,0.7594 14.62062,-1.16467c6.95304,-1.92073 10.13281,-6.82815 10.13281,-6.82815z" fill="#e6e7e8" stroke="#000000" stroke-linecap="butt"/><path d="M206.23555,193.78776c-13.32118,-7.17026 -19.98712,-15.55455 -16.96436,-23.20314c3.02375,-7.64929 18.60821,0.25843 18.60821,0.25843c-2.66683,9.98452 -1.64384,22.94471 -1.64384,22.94471zM208.8499,167.43716c0,0 -0.76617,2.24256 -0.96962,3.40599M206.40405,193.69822l0.28164,2.09036" fill="#9a8479" stroke="#000000" stroke-linecap="round"/><path d="M206.32141,193.49347c0,0 -10.62145,-5.20264 -15.47036,-12.53422l0.00279,-0.00058c0,0 7.38316,-8.89445 16.35193,-7.07042l0.0012,-0.00258c-0.45256,2.59489 -0.86656,5.5947 -1.00376,8.48677c-0.24214,4.97128 -0.01994,8.92826 0.20082,11.32578z" fill="#ee4036" stroke="#000000" stroke-linecap="butt"/><path d="M268.35427,193.88855c0.06255,-0.00361 0.127,-0.00192 0.19197,0.00875c2.14405,0.25571 5.98474,0.56889 7.20091,0.33058c0.64396,-0.11762 1.28383,0.36229 1.41011,1.09963c0.12186,0.7321 -0.30728,1.4346 -0.96095,1.56631c-1.93254,0.38456 -7.27277,-0.23689 -7.8753,-0.30786c-0.66268,-0.08003 -1.14931,-0.74779 -1.08676,-1.49053c0.05776,-0.67114 0.53878,-1.17331 1.12003,-1.20688z" fill="#231f20" stroke="none" stroke-linecap="butt"/><path d="M238.49263,191.95656c0.08424,0.00974 0.16844,0.02853 0.25449,0.05397c3.03533,0.95928 8.56582,0.97916 8.62019,0.98001c0.73469,0.00318 1.35108,0.60485 1.35176,1.35317c-0.00092,0.74643 -0.60686,1.35205 -1.35539,1.3509c-0.24488,-0.00385 -5.99801,-0.02319 -9.43231,-1.10671c-0.7118,-0.22392 -1.10908,-0.98457 -0.8828,-1.70032c0.19832,-0.62275 0.81376,-1.00389 1.44406,-0.93104z" fill="#231f20" stroke="none" stroke-linecap="butt"/><g stroke="#000000"><path d="M218.27743,217.12127c2.29666,-2.29953 4.5962,-0.00287 4.5962,-0.00287l0.74524,0.7443c0.35495,1.45575 -0.07531,0.81082 1.14415,-0.8778c0,0 2.05646,-2.51665 4.5731,-0.4602c2.51665,2.05646 0.4602,4.57311 0.4602,4.57311c-2.02777,2.32957 -3.26688,4.70174 -7.28371,4.1048c-1.46237,-0.21732 -2.32471,-1.82723 -3.48707,-2.74085l-0.74524,-0.7443c0,0 -2.29953,-2.29666 -0.00288,-4.59619z" fill="#9a8479" stroke-linecap="butt"/><g><path d="M221.14474,207.75408c1.63574,-2.35637 4.87199,-2.94055 7.22836,-1.3048c2.35637,1.63574 2.94055,4.87199 1.3048,7.22836c-1.63574,2.35637 -4.87199,2.94055 -7.22836,1.3048c-2.35637,-1.63574 -2.94055,-4.87199 -1.3048,-7.22836z" fill="#5c5e5f" stroke-linecap="butt"/><path d="M228.20225,216.47805l1.34135,2.28106l-1.18255,1.54146l-0.58778,2.62929l-2.24347,-0.65743" fill="#9a8479" stroke-linecap="round"/><path d="M225.43284,212.95493l3.01045,3.05141l-2.10745,7.19168l-4.26524,1.52673l-3.39476,-2.03603l2.1253,-8.14092z" fill="#9a8479" stroke-linecap="round"/><path d="M225.63913,216.57214l1.85535,1.60018" fill="none" stroke-linecap="round"/><path d="M226.54121,221.56953l-1.15883,-0.80443" fill="none" stroke-linecap="round"/><path d="M221.04061,222.74674l1.57409,-0.46844l1.26417,0.87756l-0.29509,2.44909l-1.79347,0.78448l-1.47487,-1.02383z" fill="#5c5e5f" stroke-linecap="round"/></g></g><path d="M258.81457,226.18043c-0.21974,0.22428 -0.48296,0.41644 -0.77928,0.58057c-0.16562,0.09639 -0.33956,0.17933 -0.52015,0.24728c-2.03077,0.82773 -5.09918,0.67894 -6.77998,0.51334c-3.50274,-0.34508 -3.70579,-3.81932 -1.26431,-6.09696c1.2029,-1.12218 4.41736,-0.54072 6.16186,-0.52569c0.3364,-0.10928 0.69357,-0.16707 1.06137,-0.1639c1.79719,0.01549 3.16749,1.48052 3.06064,3.27227c-0.01488,0.24956 -0.05764,0.49229 -0.12506,0.72521c-0.11852,0.50776 -0.38036,1.00416 -0.81508,1.44788z" fill="#9a8479" stroke="#000000" stroke-linecap="butt"/><path d="M255.22969,209.96536c-5.6303,2.44521 -11.03152,3.36298 -12.06398,2.04991c-1.03246,-1.31308 2.69482,-4.35977 8.32512,-6.80497c5.6303,-2.44521 11.03152,-3.36299 12.06398,-2.04992c1.03246,1.31308 -2.69482,4.35977 -8.32512,6.80498z" fill="#706d6d" stroke="#231f20" stroke-linecap="butt"/></g></g></svg>