<svg version="1.1" xmlns="http://www.w3.org/2000/svg" xmlns:xlink="http://www.w3.org/1999/xlink" width="92.14734" height="124.26886" viewBox="0,0,92.14734,124.26886"><g transform="translate(-187.88847,-117.28361)"><g stroke-miterlimit="10"><g fill-rule="evenodd"><path d="M244.91281,208.31048c1.82153,1.64073 4.18054,3.50757 7.37355,4.14377c7.203,1.54167 14.74216,-1.87318 15.29342,2.43335c0.61036,4.38719 -10.01707,12.04733 -20.45306,4.56867c-3.61124,-2.56107 -5.85666,-5.62668 -7.60778,-8.18667c-0.47273,-0.6454 -3.98523,-6.62555 -2.66046,-10.57081c1.32475,-3.94526 3.05537,-3.10559 3.8508,-2.69656c0.93518,0.43062 1.71042,7.91989 4.20353,10.30826z" fill="#ffab19" stroke="#001026" stroke-width="1.2" stroke-linecap="round" stroke-linejoin="round"/><path d="M267.06388,214.52173c0.69774,1.96803 -2.09966,5.25656 -5.51417,6.51798c-3.41451,1.26141 -5.81207,1.03425 -7.62902,0.75366c0.6829,-0.25228 2.6941,-1.22957 2.73834,-3.36921c0.13057,-2.69869 -2.78184,-5.15183 -2.78184,-5.15183c0,0 4.89742,0.25549 8.02107,-0.04917c2.80095,-0.06828 4.30652,-0.55126 5.16563,1.29857z" fill="#ffffff" stroke="none" stroke-width="1" stroke-linecap="butt" stroke-linejoin="miter"/></g><path d="M232.38155,196.42271c-1.87053,3.28023 -1.05069,10.93084 -7.54731,9.82251c-3.42254,-0.58389 -4.34428,-3.14233 -4.08794,-5.76965c0.62728,-6.42928 2.33904,-9.67652 6.79733,-13.18983c1.18566,-0.93433 3.26195,-4.54033 5.0704,-3.93185c0.58076,-0.11485 1.19188,-0.12776 1.81018,-0.02227c2.7221,0.46439 4.55233,3.04755 4.08794,5.76964c1.06304,1.75249 -5.12817,5.56355 -6.1306,7.32144z" fill="#ffab19" fill-rule="nonzero" stroke="#000000" stroke-width="1.2" stroke-linecap="butt" stroke-linejoin="miter"/><g fill-rule="nonzero" stroke-linecap="round" stroke-linejoin="miter"><path d="M218.81345,227.17028l4.71118,-22.49542c0,0 0.25519,-4.45315 1.1572,-11.5098c0.43825,-3.42855 -0.1327,-9.83464 1.72277,-12.11038c2.86139,-3.50951 10.008,-3.09312 10.008,-3.09312c0,0 8.0526,0.99244 10.00238,6.27953c1.55138,4.20678 0.17547,7.88379 0.06544,12.29762c-0.10498,4.21124 1.08964,9.26093 1.08964,9.26093l9.00214,24.18257c0,0 4.13206,0.78099 5.1404,2.81193c1.00834,2.03095 0.16478,7.87339 0.16478,7.87339l-17.11675,0.28119l-6.0269,-5.34266l-0.80488,-6.28462c0,0 -3.20657,-25.86138 -3.77228,-20.65426c-0.25243,2.32346 -0.95727,18.51388 -0.95727,18.51388l0.60878,8.42848l-17.68933,1.60484l-3.70909,-0.76474c0,0 -3.71169,-4.0619 -1.74136,-6.91698c1.97031,-2.85507 8.14515,-2.36239 8.14515,-2.36239z" fill="#ffab19" stroke="#001026" stroke-width="1.2"/><path d="M236.47924,208.2369c0,0 -3.24916,-0.13731 -4.75264,-1.51935" fill="none" stroke="#001026" stroke-width="1.2"/><path d="M232.98186,201.3122c-4.12988,-0.65398 -4.39921,-4.90464 -4.48072,-8.97955c-0.09143,-4.57068 0.12205,-9.42706 4.75684,-8.82045c5.08453,0.66547 5.80336,5.43964 5.8258,10.44496c0,0 -0.15039,8.29748 -6.10192,7.35504z" fill="#ffffff" stroke="#000000" stroke-width="0"/></g><path d="M244.40633,232.51216c0,0 1.75586,-2.71583 12.3963,-2.6" fill="none" fill-rule="nonzero" stroke="#001026" stroke-width="1.2" stroke-linecap="round" stroke-linejoin="miter"/><path d="M242.36235,185.77604c1.35432,-1.26585 2.23802,-3.62738 3.92357,-4.12956c0.19357,-0.05767 0.39772,-0.09082 0.61437,-0.09497c5.63357,-0.10795 7.96042,6.47069 10.72282,8.69955c2.32209,1.87359 9.89446,-4.49496 13.80376,-0.75653c1.04144,0.99592 2.02854,3.3882 1.95463,4.77019c-0.09486,1.77375 -6.97589,8.6237 -9.26892,8.80006c-10.24572,0.78799 -10.34768,-2.56735 -16.06087,-9.99673c-0.736,-0.9571 -4.76816,-2.63778 -4.86059,-3.82138z" fill="#ffab19" fill-rule="nonzero" stroke="#000000" stroke-width="1.2" stroke-linecap="butt" stroke-linejoin="miter"/><g><g><path d="M211.62911,145.33675c0,0 -2.15988,-27.50543 -1.08366,-27.45306c1.44987,0.07055 26.3857,11.98831 26.3857,11.98831" fill="#ffab19" fill-rule="nonzero" stroke="#001026" stroke-width="1.2" stroke-linecap="round" stroke-linejoin="miter"/><path d="M265.91723,150.84411l11.94711,15.62647l-3.12852,5.32281l-30.33522,-2.13881z" fill="#9b7f41" fill-rule="nonzero" stroke="#001026" stroke-width="1.2" stroke-linecap="round" stroke-linejoin="miter"/><path d="M200.59458,164.30952c0,0 -7.19368,0.31764 -12.10611,-3.20346" fill="none" fill-rule="evenodd" stroke="#001026" stroke-width="1.2" stroke-linecap="round" stroke-linejoin="round"/><path d="M200.53732,170.22281c0,0 -3.78326,2.12293 -10.10167,1.98905" fill="none" fill-rule="evenodd" stroke="#001026" stroke-width="1.2" stroke-linecap="round" stroke-linejoin="round"/><path d="M228.91355,136.22027c11.2137,-2.11994 40.9909,6.41312 33.49824,33.34357c-0.09768,0.3511 -0.27548,0.6752 -0.45147,0.9981c-6.42706,11.79248 -21.20595,17.75943 -40.18885,15.15571c-18.9829,-2.60373 -24.00171,-13.13044 -23.13421,-18.89042c0.86749,-5.75998 7.83378,-8.26812 7.83378,-8.26812c0,0 -0.16109,-4.49823 2.71462,-10.17451c0,0 3.34437,-9.06701 19.72789,-12.16432z" fill="#ffab19" fill-rule="evenodd" stroke="#001026" stroke-width="1.2" stroke-linecap="butt" stroke-linejoin="miter"/><path d="M223.55009,162.87613c8.42065,0.11196 19.37368,-9.63953 26.68281,0.65399c7.30334,10.1937 -3.34239,25.23626 -27.79158,21.64782c-18.77744,-2.51549 -24.16658,-12.51986 -23.29909,-18.27984c0.86749,-5.75998 7.65151,-7.95702 7.65151,-7.95702c8.37554,-2.38966 9.53948,3.85337 16.75636,3.93507z" fill="#ffffff" fill-rule="evenodd" stroke="none" stroke-width="1" stroke-linecap="butt" stroke-linejoin="miter"/><path d="M228.46628,161.28839c0.09278,1.59731 -3.95521,4.33664 -5.76378,4.24133c-1.60311,-0.00707 -3.26293,-2.71537 -3.24428,-4.11882c0.05925,-0.70462 2.24396,-1.03184 4.34041,-1.1536c1.99663,-0.11596 4.69789,-0.17269 4.66763,1.03109z" fill="#001026" fill-rule="evenodd" stroke="#001026" stroke-width="1.2" stroke-linecap="round" stroke-linejoin="round"/><path d="M259.2684,160.27291c-3.55182,4.89025 -10.47878,6.85675 -10.47878,6.85675" fill="none" fill-rule="evenodd" stroke="#001026" stroke-width="1.2" stroke-linecap="round" stroke-linejoin="round"/><path d="M260.92178,171.42622c-5.95398,2.11903 -10.2136,1.29711 -10.2136,1.29711" fill="none" fill-rule="evenodd" stroke="#001026" stroke-width="1.2" stroke-linecap="round" stroke-linejoin="round"/><path d="M253.49194,148.4332l-43.55079,-2.61697l2.40036,-22.67418l48.05206,3.85735l11.79859,19.22896l-7.91487,15.30735z" fill="#c58600" fill-rule="nonzero" stroke="#001026" stroke-width="1.2" stroke-linecap="round" stroke-linejoin="miter"/><path d="M260.17524,127.17921l-6.66394,21.05497" fill="none" fill-rule="nonzero" stroke="#001026" stroke-width="0.75" stroke-linecap="round" stroke-linejoin="miter"/><path d="M265.57389,135.74041l-4.82077,-8.30423c0,0 15.637,-2.23292 16.65166,-1.80073c1.13707,0.48433 -13.31773,25.43301 -13.31773,25.43301z" fill="#ffab19" fill-rule="nonzero" stroke="#001026" stroke-width="1.2" stroke-linecap="round" stroke-linejoin="miter"/></g><g><g fill-rule="evenodd"><path d="M221.44432,143.86623c2.89966,1.63462 3.09554,6.73184 0.46133,11.39241c-2.73404,4.66637 -7.20453,7.02956 -10.10419,5.39493c-2.89966,-1.63462 -3.09553,-6.73184 -0.46132,-11.39242c2.63421,-4.66057 7.19874,-7.12938 10.10419,-5.39493z" fill="#ffffff" stroke="#001026" stroke-width="1.2" stroke-linecap="round" stroke-linejoin="round"/><path d="M209.9663,154.07113c-0.06377,-1.09815 0.6827,-2.04303 1.68102,-2.10099c0.99832,-0.05798 1.84915,0.79412 1.91293,1.89227c0.06377,1.09815 -0.68269,2.04302 -1.681,2.10099c-0.99832,0.05798 -1.84916,-0.79412 -1.91294,-1.89226" fill="#001026" stroke="none" stroke-width="1" stroke-linecap="butt" stroke-linejoin="miter"/></g><g fill-rule="evenodd"><path d="M245.45209,146.77751c3.22235,2.01655 3.35317,7.71856 0.51351,12.29091c-2.73983,4.56654 -7.05125,6.21931 -10.45587,4.51383c-2.80562,-1.74024 -3.31837,-7.11958 -0.57855,-11.68611c2.73983,-4.56654 7.29276,-7.23502 10.52091,-5.11863z" fill="#ffffff" stroke="#001026" stroke-width="1.2" stroke-linecap="round" stroke-linejoin="round"/><path d="M233.76282,156.7943c-0.06377,-1.09815 0.68849,-1.94319 1.68101,-2.101c0.99832,-0.05798 1.84915,0.79412 1.91294,1.89227c0.06377,1.09815 -0.6827,2.04303 -1.68101,2.101c-0.99832,0.05798 -1.84915,-0.79413 -1.91293,-1.89228" fill="#001026" stroke="none" stroke-width="1" stroke-linecap="butt" stroke-linejoin="miter"/></g><g fill="#ffffff" fill-rule="nonzero" stroke="#001026" stroke-width="1.2" stroke-linecap="round" stroke-linejoin="miter"><path d="M218.84064,174.83069c-0.18598,-0.2019 5.67003,-0.56432 11.53197,-2.18368c13.27096,-3.66609 13.93814,-5.69908 14.48012,-5.54757c1.00019,0.27959 4.02933,10.55241 -4.29325,13.02273c-8.00384,2.37571 -21.13802,-4.66094 -21.71883,-5.29148z"/></g></g></g><path d="M235.02682,193.12966c0.3443,1.41613 1.36194,2.85323 1.3002,4.2567c-0.00941,0.21403 -0.04394,0.4273 -0.10978,0.63958c-0.78291,2.52419 -5.97148,7.51879 -7.25032,8.31252c-2.76241,1.71452 -7.34369,0.38141 -8.221,-2.99625c-0.95034,-3.65883 3.84613,-6.86888 5.74175,-8.74209c0.90043,-0.88979 2.33304,-3.34952 3.7891,-2.90865z" fill="#ffab19" fill-rule="nonzero" stroke="#000000" stroke-width="1.2" stroke-linecap="butt" stroke-linejoin="miter"/><g fill-rule="nonzero" stroke="#000000" stroke-width="1.2" stroke-linejoin="miter"><path d="M237.78468,193.19252c-4.14812,-2.2809 -5.66182,-7.49268 -3.38091,-11.64081c2.2809,-4.14812 7.49267,-5.66181 11.6408,-3.38089c4.14812,2.2809 5.66182,7.49268 3.3809,11.64081c-2.2809,4.14812 -7.49266,5.6618 -11.6408,3.38089z" fill="#5c5e5f" stroke-linecap="butt"/><g stroke-linecap="round"><path d="M242.53899,195.21986l0.96934,4.64134l-1.82487,1.53983l-2.14756,3.90565l-3.55257,-1.36653z" fill="#ffab19"/><path d="M241.59962,189.81244l2.1411,6.06819l-2.73347,3.19222l-0.59316,1.43455l-2.56827,2.89177l-0.19516,1.0665l-2.77112,2.19333l-5.88841,-2.45529l-3.6206,-5.51226l7.79467,-10.97355z" fill="#ffab19"/><path d="M239.02407,194.8522l0.64622,3.09422" fill="none"/><path d="M235.65978,198.48009l1.23211,3.80765" fill="none"/></g><path d="M233.30207,203.83526l-2.50065,3.12458l-3.80037,-0.91588l-1.54752,-3.5898l2.08767,-2.37351l4.13076,0.315z" fill="#5c5e5f" stroke-linecap="round"/></g><g fill-rule="nonzero" stroke-linejoin="miter"><path d="M258.28276,178.76465c0,0 -1.26033,-6.18951 2.10665,-6.03039c5.88026,0.27789 3.80367,6.46902 3.80367,6.46902l2.70158,0.75586c0,0 -0.14821,-6.61602 4.51092,-4.95074c5.21157,1.86275 1.62143,6.73323 1.62143,6.73323l1.2571,2.24763c0,0 5.49524,-0.35789 5.13471,4.17732c-0.37542,4.72256 -6.09067,3.92658 -6.09067,3.92658c0,0 -5.20718,10.81891 -17.03155,-0.76492c0,0 -4.49378,-1.8657 -4.05625,-5.68133c0.11401,-3.19486 4.35329,-2.24124 4.35329,-2.24124z" fill="#ffab19" stroke="#000000" stroke-width="1.2" stroke-linecap="round"/><path d="M263.11021,177.88853c0.03706,2.32373 -4.43442,2.16353 -4.47148,-0.1602c-0.03149,-1.97424 0.94395,-3.53882 2.17871,-3.49458c1.23477,0.04424 2.26128,1.68054 2.29277,3.65478z" fill="#ffffff" stroke="none" stroke-width="0" stroke-linecap="butt"/><path d="M272.27086,180.87863c-0.51602,2.34662 -5.16808,1.03782 -4.65206,-1.3088c0.40121,-1.82452 1.76785,-3.01061 3.05248,-2.64919c1.28464,0.36142 2.00078,2.13347 1.59958,3.95799z" fill="#ffffff" stroke="none" stroke-width="0" stroke-linecap="butt"/><path d="M275.0073,190.47207c-2.4027,0.77912 -4.29371,-4.17994 -1.89101,-4.95906c1.67423,-0.5429 3.45479,0.12712 3.97697,1.49653c0.52219,1.36942 -0.41174,2.91964 -2.08597,3.46253z" fill="#ffffff" stroke="none" stroke-width="0" stroke-linecap="butt"/><path d="M256.97094,187.05715c-1.74698,-0.33043 -3.24336,-1.30606 -3.34225,-2.17914c-0.09889,-0.87308 1.23714,-1.02727 2.98413,-0.69686c0,0 2.10511,3.20641 0.35812,2.876z" fill="#ffffff" stroke="none" stroke-width="0" stroke-linecap="butt"/><path d="M270.63154,190.26782c-1.14597,3.13562 -3.87268,2.76009 -7.03622,1.74952c-3.16354,-1.01057 -5.56593,-2.2735 -4.41996,-5.40911c0.57496,-1.57324 2.51938,-0.61243 3.9381,-1.30754c1.40892,-0.69031 2.28866,-3.04373 3.86496,-2.54019c1.72817,0.55205 0.86864,3.32994 1.48051,4.86495c0.50819,1.27493 2.69257,1.21968 2.17263,2.64238z" fill="#ffffff" stroke="none" stroke-width="0" stroke-linecap="butt"/></g></g></g></svg>