<svg version="1.1" xmlns="http://www.w3.org/2000/svg" xmlns:xlink="http://www.w3.org/1999/xlink" width="92.35822" height="131.60007" viewBox="0,0,92.35822,131.60007"><g transform="translate(-197.07764,-109.95236)"><g stroke-miterlimit="10"><path d="M232.79742,181.64158c2.75792,-0.01744 5.10635,2.20915 5.24535,4.97319c0.03158,0.62783 -0.05357,1.22938 -0.23634,1.78441c0.3902,1.88496 -3.43616,3.35126 -4.50424,4.37094c-4.01621,3.83418 -7.44319,4.99858 -13.90154,4.57595c-2.6392,-0.17271 -5.07058,-1.49789 -5.24534,-4.97319c-0.33173,-6.59675 7.16808,-4.54673 10.64662,-5.86262c1.86417,-0.70519 6.38111,-6.2028 7.99548,-4.86869z" fill="#ffab19" fill-rule="nonzero" stroke="#000000" stroke-width="1.2" stroke-linecap="butt" stroke-linejoin="miter"/><g fill-rule="evenodd"><path d="M245.65211,211.61073c1.15576,2.16198 2.74022,4.71924 5.52715,6.4024c6.25079,3.89712 14.50167,3.24677 13.55703,7.48443c-0.91645,4.3336 -13.51423,7.92752 -20.78865,-2.65185c-2.52633,-3.63562 -3.59668,-7.28175 -4.37391,-10.28439c-0.22534,-0.76762 -1.4972,-7.5854 1.08913,-10.84591c2.58632,-3.26051 3.92873,-1.88283 4.53788,-1.22789c0.73326,0.72272 -1.08203,8.0299 0.45135,11.12323z" fill="#ffab19" stroke="#001026" stroke-width="1.2" stroke-linecap="round" stroke-linejoin="round"/><path d="M264.37539,224.97818c-0.01238,2.08802 -3.76064,4.23055 -7.40061,4.25688c-3.63996,0.02633 -5.81775,-1.00187 -7.43129,-1.88307c0.72799,-0.00527 2.95158,-0.24114 3.72012,-2.23848c1.03966,-2.49381 -0.86607,-5.79049 -0.86607,-5.79049c0,0 4.51932,1.90415 7.56067,2.67885c2.65755,0.88737 4.23766,0.94464 4.41719,2.97631z" fill="#ffffff" stroke="none" stroke-width="1" stroke-linecap="butt" stroke-linejoin="miter"/></g><g><path d="M221.85428,138.01502c0,0 -0.25084,-27.58896 0.81917,-27.46222c1.44152,0.17074 25.49262,13.78589 25.49262,13.78589" fill="#ffab19" fill-rule="nonzero" stroke="#001026" stroke-width="1.2" stroke-linecap="round" stroke-linejoin="miter"/><path d="M275.631,147.26684l10.83683,16.41594l-3.48946,5.0935l-30.11442,-4.23339z" fill="#9b7f41" fill-rule="nonzero" stroke="#001026" stroke-width="1.2" stroke-linecap="round" stroke-linejoin="miter"/><path d="M209.53298,156.17849c0,0 -7.19842,-0.18105 -11.85534,-4.03374" fill="none" fill-rule="evenodd" stroke="#001026" stroke-width="1.2" stroke-linecap="round" stroke-linejoin="round"/><path d="M209.06656,162.07365c0,0 -3.92113,1.85597 -10.21511,1.28507" fill="none" fill-rule="evenodd" stroke="#001026" stroke-width="1.2" stroke-linecap="round" stroke-linejoin="round"/><path d="M239.7283,130.1168c11.33355,-1.33868 40.44868,9.23502 31.10994,35.58226c-0.12174,0.34349 -0.32155,0.65451 -0.51946,0.96446c-7.22789,11.31934 -22.38436,16.24901 -41.14151,12.33759c-18.75714,-3.91142 -23.03529,-14.76028 -21.77118,-20.4464c1.2641,-5.68612 8.38729,-7.70608 8.38729,-7.70608c0,0 0.15065,-4.49859 3.41238,-9.9622c0,0 3.96394,-8.81377 20.52256,-10.76963z" fill="#ffab19" fill-rule="evenodd" stroke="#001026" stroke-width="1.2" stroke-linecap="butt" stroke-linejoin="miter"/><path d="M232.53265,156.33746c8.39271,0.69454 19.99443,-8.27541 26.57355,2.49933c6.58024,10.67476 -5.08116,24.94438 -29.22334,19.67224c-18.55829,-3.80917 -23.24204,-14.16258 -21.97794,-19.8487c1.2641,-5.68612 8.18393,-7.40831 8.18393,-7.40831c8.52085,-1.80419 9.24988,4.50442 16.4438,5.08546z" fill="#ffffff" fill-rule="evenodd" stroke="none" stroke-width="1" stroke-linecap="butt" stroke-linejoin="miter"/><path d="M237.54695,155.09383c-0.01801,1.59989 -4.2459,4.05246 -6.04353,3.8322c-1.59877,-0.118 -3.06715,-2.93472 -2.95139,-4.33351c0.10788,-0.69883 2.31,-0.87405 4.40987,-0.8504c1.99987,0.02252 4.69857,0.15291 4.58506,1.35171z" fill="#001026" fill-rule="evenodd" stroke="#001026" stroke-width="1.2" stroke-linecap="round" stroke-linejoin="round"/><path d="M268.34549,156.21283c-3.88178,4.63268 -10.92825,6.11499 -10.92825,6.11499" fill="none" fill-rule="evenodd" stroke="#001026" stroke-width="1.2" stroke-linecap="round" stroke-linejoin="round"/><path d="M269.22289,167.45381c-6.08637,1.70184 -10.27888,0.58704 -10.27888,0.58704" fill="none" fill-rule="evenodd" stroke="#001026" stroke-width="1.2" stroke-linecap="round" stroke-linejoin="round"/><path d="M263.40239,144.00169l-43.2652,-5.62516l3.96405,-22.45365l47.66982,7.17414l10.43933,19.99951l-8.95542,14.72278z" fill="#c58600" fill-rule="nonzero" stroke="#001026" stroke-width="1.2" stroke-linecap="round" stroke-linejoin="miter"/><path d="M271.54082,123.26126l-8.10534,20.54321" fill="none" fill-rule="nonzero" stroke="#001026" stroke-width="0.75" stroke-linecap="round" stroke-linejoin="miter"/><path d="M276.33392,132.17561l-4.23442,-8.61799c0,0 15.75405,-1.14521 16.73636,-0.64382c1.10082,0.56188 -15.04619,24.4502 -15.04619,24.4502z" fill="#ffab19" fill-rule="nonzero" stroke="#001026" stroke-width="1.2" stroke-linecap="round" stroke-linejoin="miter"/></g><g fill-rule="nonzero" stroke-linecap="round" stroke-linejoin="miter"><g><path d="M220.76294,227.36427l7.58462,-22.17869c0,0 0.82469,-4.39045 2.62865,-11.34774c0.87648,-3.38028 -0.59063,-10.5431 1.55414,-12.7868c3.30755,-3.46009 18.74042,-3.90614 20.01181,1.30651c1.0116,4.14755 0.73992,7.91395 0.06528,12.26563c-0.64368,4.15195 0.9049,8.70707 0.9049,8.70707l4.61188,25.67712c0,0 3.31287,2.04039 4.06036,4.04274c0.74749,2.00236 -0.12758,7.62138 -0.12758,7.62138l-17.13564,0.27722l-3.12393,-2.80071l-2.35643,-9.22748c0,0 0.24846,-24.93264 -0.98291,-19.79883c-0.54944,2.29074 -3.32506,18.25321 -3.32506,18.25321l-0.47019,8.30981l-17.87701,1.58225l-3.60754,-0.75398c0,0 -4.53601,-2.9071 -2.20236,-5.72198c2.33364,-2.81487 9.78699,-3.42674 9.78699,-3.42674z" fill="#ffab19" stroke="#001026" stroke-width="1.2"/><path d="M240.69048,208.69747c0,0 -3.22834,-0.13538 -4.5535,-1.49796" fill="none" stroke="#001026" stroke-width="1.2"/><path d="M238.08255,201.87027c-4.04209,-0.64477 -3.76729,-4.83558 -3.32737,-8.85312c0.49345,-4.50633 1.32806,-9.29433 5.88061,-8.69626c4.99431,0.6561 5.10158,5.36304 4.48361,10.2979c0,0 -1.21184,8.18065 -7.03686,7.25148z" fill="#ffffff" stroke="#000000" stroke-width="0"/></g><path d="M245.55514,231.784c0,0 1.40624,-3.24223 12.0448,-3.12803" fill="none" stroke="#001026" stroke-width="1.2"/></g><path d="M247.30847,178.59096c1.79863,-3.5899 9.85522,-6.64724 16.11107,-7.10315c1.275,-0.09292 2.22736,0.37151 2.98076,1.17295c0.79843,0.75612 1.25044,1.8735 1.15975,3.15511c-0.09827,1.38872 -0.81292,2.67596 -1.85597,3.5719c-1.18302,1.56954 -2.53912,3.2439 -2.66727,4.49106c-0.25935,2.52397 0.48437,6.97689 -1.36695,8.84019c-3.36525,3.38704 -8.17269,3.21622 -8.22196,-1.63572c-0.02294,-2.25927 0.19598,-5.13008 0.84806,-7.96577c-1.06648,0.57623 -2.13836,1.12915 -3.13078,1.36415" fill="#ffab19" fill-rule="nonzero" stroke="#000000" stroke-width="1.2" stroke-linecap="butt" stroke-linejoin="miter"/><path d="M261.68699,189.20332c2.99591,2.54619 4.22229,8.73993 4.22229,8.73993c0,0 4.39232,3.26077 2.57172,5.13406c-2.19076,2.25417 -5.63012,-1.05118 -5.63012,-1.05118l-0.80482,1.01321c0,0 3.5421,3.95533 0.88221,5.899c-2.57934,1.88479 -4.7444,-3.12966 -4.7444,-3.12966l-1.52865,0.79496c0,0 1.3044,5.99748 -2.89791,4.9439c-3.32446,-0.83348 -1.44533,-5.75482 -1.44533,-5.75482l-0.8035,-1.97834c0,0 -0.271,4.16573 -2.09309,3.93069c-3.83284,-0.4944 -2.08819,-7.20453 -2.08819,-7.20453c0,0 2.82019,-7.6523 7.39888,-10.94135" fill="#ffab19" fill-rule="nonzero" stroke="#000000" stroke-width="1.2" stroke-linecap="round" stroke-linejoin="miter"/><g><g fill-rule="evenodd"><path d="M231.41943,148.62444c-1.28702,1.88421 -2.85402,3.33802 -4.44438,4.25168c-2.63353,-0.98268 -5.27426,-1.94364 -7.91435,-2.8653c-0.34972,-2.32495 0.40624,-5.334 2.2337,-8.10079c0.67472,-1.02153 1.4422,-1.92173 2.25798,-2.67957c3.07869,2.19698 6.2245,4.34099 9.43834,6.31221c-0.37987,1.0295 -0.90419,2.07178 -1.57128,3.08178z" fill="#ffffff" stroke="#001026" stroke-width="1.2" stroke-linecap="round" stroke-linejoin="round"/><path d="M220.66822,148.34262c0.01239,-1.09992 0.82247,-1.99087 1.82241,-1.9796c0.99994,0.01126 1.78975,0.9202 1.77737,2.02014c-0.01239,1.09992 -0.82247,1.99086 -1.82239,1.9796c-0.99994,-0.01126 -1.78975,-0.9202 -1.77737,-2.02013" fill="#001026" stroke="none" stroke-width="1" stroke-linecap="butt" stroke-linejoin="miter"/></g><g fill-rule="evenodd"><path d="M255.15796,154.09042c-0.11196,0.1603 -0.22577,0.31654 -0.34129,0.4687c-0.87006,0.10048 -1.74059,0.18369 -2.61126,0.24687c-3.16092,0.22937 -6.41577,0.217 -9.54625,0.34487c-0.69383,-2.51387 -0.10091,-5.98949 1.98728,-8.97929c0.0543,-0.07774 0.10913,-0.15485 0.16448,-0.23129c3.949,-0.96073 7.8918,-1.94724 11.83228,-2.94348c1.787,2.68763 1.19829,7.37439 -1.48525,11.09363z" fill="#ffffff" stroke="#001026" stroke-width="1.2" stroke-linecap="round" stroke-linejoin="round"/><path d="M243.63236,152.45025c0.01239,-1.09992 0.82135,-1.89088 1.82241,-1.97961c0.99994,0.01126 1.78974,0.92021 1.77737,2.02014c-0.01239,1.09992 -0.82247,1.99087 -1.8224,1.9796c-0.99994,-0.01126 -1.78975,-0.92021 -1.77737,-2.02014" fill="#001026" stroke="none" stroke-width="1" stroke-linecap="butt" stroke-linejoin="miter"/></g><g fill="#ffffff" fill-rule="nonzero" stroke="#001026" stroke-width="1.2" stroke-linecap="round" stroke-linejoin="miter"><path d="M226.07467,166.55229c-0.17156,-0.21428 5.69549,-0.1705 11.65545,-1.38023c13.49289,-2.73872 14.29919,-4.72065 14.82938,-4.532c0.97843,0.34814 0.90091,19.54667 -7.5727,21.435c-8.14909,1.81601 -18.37635,-14.85355 -18.91212,-15.52278z"/></g></g><g fill-rule="nonzero" stroke="#000000" stroke-width="1.2" stroke-linejoin="miter"><path d="M216.69728,191.54638l-2.94758,2.57714l-3.61642,-1.64369l-0.98244,-3.827l2.42496,-1.9208l4.03452,1.1186z" fill="#5c5e5f" stroke-linecap="round"/><g fill="#ffab19" stroke-linecap="round"><path d="M225.34993,186.59916l0.62105,4.39413l-1.76611,0.89544l-2.20001,2.92122l-3.18469,-2.14974z"/><path d="M224.80092,181.52953l1.61478,5.97392l-2.69688,2.13133l-0.62831,1.12423l-2.52766,1.90663l-0.24125,0.9002l-2.67347,1.23046l-5.2676,-3.73294l-3.00641,-5.86565l7.79901,-7.74638z"/></g><path d="M218.17776,187.12838c-3.75211,-3.05174 -4.45399,-8.46425 -1.56763,-12.08914c2.88636,-3.62489 8.26792,-4.08953 12.02004,-1.03779c3.75211,3.05174 4.45398,8.46424 1.56761,12.08913c-2.88636,3.62489 -8.26791,4.08954 -12.02004,1.0378z" fill="#5c5e5f" stroke-linecap="butt"/></g></g></g></svg>