<svg version="1.1" xmlns="http://www.w3.org/2000/svg" xmlns:xlink="http://www.w3.org/1999/xlink" width="87.69289" height="118.03446" viewBox="0,0,87.69289,118.03446"><g transform="translate(-190.07704,-110.32604)"><g stroke-miterlimit="10"><path d="M241.19133,189.12998c2.75451,-0.19525 5.14577,1.87944 5.34102,4.63395c0.04436,0.62566 -0.02842,1.23258 -0.19965,1.79928c0.42823,1.85941 -3.36396,3.57212 -4.41005,4.66045c-3.93351,4.09233 -7.33294,5.47744 -13.79275,5.47131c-2.6398,-0.0025 -5.09553,-1.17065 -5.34102,-4.63395c-0.46599,-6.57398 7.06736,-5.00795 10.51519,-6.54784c1.84771,-0.82524 6.24745,-6.61295 7.88726,-5.3832z" fill="#ffab19" fill-rule="nonzero" stroke="#000000" stroke-width="1.2" stroke-linecap="butt" stroke-linejoin="miter"/><g fill-rule="evenodd"><path d="M259.01508,198.60767c1.4583,-1.97062 3.09008,-4.49794 3.41684,-7.73726c0.84313,-7.31773 -3.27963,-14.49427 0.95408,-15.45639c4.30834,-1.02867 12.95325,8.81438 6.51088,19.92005c-2.20258,3.8404 -5.03851,6.36971 -7.41859,8.35849c-0.59703,0.53249 -6.21241,4.60282 -10.26662,3.66289c-4.05421,-0.93993 -3.38454,-2.74315 -3.05375,-3.57416c0.33886,-0.97219 7.71913,-2.46277 9.85716,-5.17363z" fill="#ffab19" stroke="#001026" stroke-width="1.2" stroke-linecap="round" stroke-linejoin="round"/><path d="M263.07135,175.96268c1.89196,-0.88343 5.43384,1.58538 7.01719,4.86304c1.58334,3.27765 1.58738,5.68597 1.48249,7.52144c-0.31667,-0.65554 -1.4825,-2.56363 -3.61651,-2.40228c-2.69877,0.12909 -4.86102,3.26352 -4.86102,3.26352c0,0 -0.2158,-4.89933 -0.81889,-7.97931c-0.33684,-2.78147 -0.96212,-4.23372 0.79672,-5.26643z" fill="#ffffff" stroke="none" stroke-width="1" stroke-linecap="butt" stroke-linejoin="miter"/></g><g fill-rule="nonzero" stroke-linecap="butt" stroke-linejoin="miter"><path d="M227.40236,225.3362c-1.52173,2.68907 -17.63916,0.2953 -17.63916,0.2953c0,0 -1.37203,-6.67538 3.06231,-7.76712c2.06644,-0.50876 8.64792,-3.3366 9.6312,-4.60469c3.44562,-4.44359 4.26694,-9.36432 9.48013,-12.47843c0.96036,-0.57367 3.03981,-1.93763 4.86111,-2.41892c2.30474,-1.54339 6.18221,1.05913 6.70009,3.76943c1.4843,7.76784 -7.3168,7.69124 -16.09568,23.20444z" fill="#ffab19" stroke="#001026" stroke-width="1.2"/><g><path d="M234.34232,200.28796c-0.13118,-3.96315 4.77829,-8.77558 4.77829,-8.77558c0,0 0.27426,-3.43803 2.22981,-5.46511c4.04234,-4.1902 18.66709,-1.70212 18.20328,6.31392c-0.17403,3.00774 -2.63051,5.73285 -2.63051,5.73285c0,0 -0.1135,5.76967 -1.82152,8.40369c-1.45269,2.24027 -8.96377,5.32294 -13.87209,3.27795c-0.50984,-0.21241 -0.98146,-0.43917 -1.41775,-0.67746" fill="#ffab19" stroke="#001026" stroke-width="1.2"/><path d="M243.85585,187.84831c3.71937,-1.65886 7.61936,2.43418 7.19978,6.36115c-0.05063,0.47391 -0.12332,1.02717 -0.25244,1.56876c0.40572,2.15758 -2.45904,6.29778 -4.14247,6.42654c-5.82741,0.44574 -11.15852,-6.81621 -5.45216,-10.40502c0.34635,-1.69592 1.37964,-3.38604 2.64727,-3.95142z" fill="#ffffff" stroke="none" stroke-width="0.5"/></g><path d="M248.2814,208.83705c0.46341,2.54186 -0.90296,6.46039 -0.90296,6.46039c0,0 -2.9101,7.61371 -3.84671,8.69199c-4.26306,4.90783 -15.51385,6.07139 -14.45675,-2.94103c0.24866,-2.12003 1.93654,-3.28301 3.10493,-4.78206c0.53275,-0.68351 3.24384,-7.89081 3.14491,-10.47826c-0.17204,-4.49931 -1.83259,-10.05672 0.11728,-14.22915c3.47081,-7.42702 17.0048,5.75089 17.2937,6.65136" fill="#ffab19" stroke="#001026" stroke-width="1.2"/></g><g><g><g><g><path d="M214.02569,153.37243c0,0 -9.18297,-26.01704 -8.12968,-26.24409c1.41899,-0.30589 28.58537,4.77513 28.58537,4.77513" fill="#ffab19" fill-rule="nonzero" stroke="#001026" stroke-width="1.2" stroke-linecap="round" stroke-linejoin="miter"/><path d="M267.89688,144.6874l0.13458,-1.21782l4.92267,-1.35836l4.19182,4.39128l-0.83846,8.55338l-24.34583,13.35635z" fill="#9b7f41" fill-rule="nonzero" stroke="#001026" stroke-width="1.2" stroke-linecap="round" stroke-linejoin="miter"/><path d="M208.25956,174.54977c0,0 -6.86821,2.1628 -12.52275,0.02829" fill="none" fill-rule="evenodd" stroke="#001026" stroke-width="1.2" stroke-linecap="round" stroke-linejoin="round"/><path d="M209.72985,180.27761c0,0 -3.10748,3.02711 -9.24654,4.5279" fill="none" fill-rule="evenodd" stroke="#001026" stroke-width="1.2" stroke-linecap="round" stroke-linejoin="round"/><path d="M228.37301,140.10534c10.28715,-4.94124 41.25776,-4.37937 40.96663,23.57245c-0.00379,0.36441 -0.09196,0.72341 -0.17867,1.0808c-3.1671,13.05142 -15.90625,22.62922 -34.91827,25.01108c-19.01201,2.38188 -26.57673,-6.49366 -27.22465,-12.28244c-0.64791,-5.78879 5.43545,-10.00928 5.43545,-10.00928c0,0 -1.31615,-4.30439 -0.00223,-10.53043c0,0 0.89192,-9.62289 15.92172,-16.84218z" fill="#ffab19" fill-rule="evenodd" stroke="#001026" stroke-width="1.2" stroke-linecap="butt" stroke-linejoin="miter"/><path d="M230.06814,167.24252c8.16447,-2.06432 16.23089,-14.31149 25.94823,-6.25214c9.68601,7.96439 3.28154,25.24423 -21.26575,28.08502c-18.79074,2.41413 -26.5785,-5.8612 -27.22642,-11.65c-0.64791,-5.78879 5.33962,-9.66169 5.33962,-9.66169c7.47548,-4.46959 10.21067,1.2618 17.20432,-0.52117z" fill="#ffffff" fill-rule="evenodd" stroke="none" stroke-width="1" stroke-linecap="butt" stroke-linejoin="miter"/><path d="M234.40831,164.44017c0.50174,1.5193 -2.7025,5.21025 -4.47442,5.58477c-1.55066,0.40678 -3.85301,-1.78165 -4.19707,-3.14238c-0.12455,-0.69605 1.90178,-1.57584 3.89586,-2.23435c1.89913,-0.62715 4.49429,-1.37885 4.77562,-0.20802z" fill="#001026" fill-rule="evenodd" stroke="#001026" stroke-width="1.2" stroke-linecap="round" stroke-linejoin="round"/><path d="M263.90565,155.51235c-2.16991,5.64104 -8.35504,9.32809 -8.35504,9.32809" fill="none" fill-rule="evenodd" stroke="#001026" stroke-width="1.2" stroke-linecap="round" stroke-linejoin="round"/><path d="M268.38057,165.86151c-5.20573,3.58338 -9.53319,3.88823 -9.53319,3.88823" fill="none" fill-rule="evenodd" stroke="#001026" stroke-width="1.2" stroke-linecap="round" stroke-linejoin="round"/><path d="M255.27021,145.56375l-42.75162,8.70743l-3.53069,-22.52586l47.4205,-8.67035l16.36013,15.53403l-3.69773,16.83113z" fill="#c58600" fill-rule="nonzero" stroke="#001026" stroke-width="1.2" stroke-linecap="round" stroke-linejoin="miter"/><path d="M256.24384,123.305l-1.00632,22.06144" fill="none" fill-rule="nonzero" stroke="#001026" stroke-width="0.75" stroke-linecap="round" stroke-linejoin="miter"/><path d="M263.66848,130.18357l-6.80001,-6.77939c0,0 14.75632,7.35519 15.84811,7.51099c1.22353,0.17458 -6.53008,14.46113 -6.53008,14.46113z" fill="#ffab19" fill-rule="nonzero" stroke="#001026" stroke-width="1.2" stroke-linecap="round" stroke-linejoin="miter"/></g><path d="M193.1976,167.07864c-8.01067,-20.27009 3.7061,-43.89901 26.17012,-52.77672c22.46402,-8.87771 47.16862,0.35764 55.17928,20.62774c8.01067,20.27009 -3.7061,43.89901 -26.17012,52.77672c-22.46402,8.87771 -47.16862,-0.35764 -55.17928,-20.62773z" fill="none" fill-rule="nonzero" stroke="#ffffff" stroke-width="1.2" stroke-linecap="butt" stroke-linejoin="miter"/><path d="M255.14474,117.7267l0.55442,7.25812l-7.68126,3.21867l-9.53411,-2.74336l3.48151,-11.60203z" fill="#ffffff" fill-rule="nonzero" stroke="#001026" stroke-width="0" stroke-linecap="round" stroke-linejoin="miter"/><path d="M263.39652,129.86912l7.10401,1.29637l-7.07206,-1.05293" fill="#000000" fill-rule="nonzero" stroke="none" stroke-width="0" stroke-linecap="round" stroke-linejoin="miter"/></g><g fill="#000000" stroke-width="1" stroke-linejoin="miter" font-family="&quot;Times New Roman&quot;" font-weight="400" font-size="16" text-anchor="start"><g fill-rule="evenodd" stroke="none" stroke-linecap="butt"/><g fill-rule="evenodd" stroke="none" stroke-linecap="butt"/><g fill-rule="nonzero" stroke="#001026" stroke-linecap="round"/></g></g><path d="M233.60641,157.00346l4.47379,-1.08114c0,0 4.23837,6.24972 8.7054,5.33078c3.60028,-0.74063 6.48893,-8.0283 6.48893,-8.0283c0,0 -1.88185,11.11239 -7.34472,12.29635c-7.82169,1.69519 -12.32339,-8.51767 -12.32339,-8.51767z" fill="#001026" fill-rule="nonzero" stroke="#000000" stroke-width="0" stroke-linecap="round" stroke-linejoin="miter"/><path d="M209.67818,162.88266l3.39556,-1.18971c0,0 4.23299,6.15961 7.64584,5.13254c2.75065,-0.82779 4.02259,-8.19712 4.02259,-8.19712c0,0 0.06047,11.17675 -4.10482,12.49305c-5.96382,1.88468 -10.95918,-8.23875 -10.95918,-8.23875z" fill="#001026" fill-rule="nonzero" stroke="#000000" stroke-width="0" stroke-linecap="round" stroke-linejoin="miter"/><path d="M231.39653,182.79115c4.22001,3.77327 7.11875,7.41618 6.47454,8.13667c-0.64422,0.72049 -4.58745,-1.75428 -8.80745,-5.52755c-4.22001,-3.77327 -7.11875,-7.41618 -6.47454,-8.13667c0.64422,-0.72049 4.58745,1.75428 8.80745,5.52755z" fill="#ffffff" fill-rule="nonzero" stroke="#001026" stroke-width="1.2" stroke-linecap="butt" stroke-linejoin="miter"/></g><g fill-rule="nonzero" stroke="#000000" stroke-width="1.2" stroke-linejoin="miter"><path d="M231.98459,200.38104c-3.39447,-3.29955 -3.47141,-8.72615 -0.17185,-12.12062c3.29955,-3.39447 8.72614,-3.47141 12.12062,-0.17185c3.39447,3.29955 3.47142,8.72614 0.17185,12.12062c-3.29955,3.39447 -8.72613,3.47141 -12.12062,0.17185z" fill="#5c5e5f" stroke-linecap="butt"/><g stroke-linecap="round"><path d="M236.03079,203.59689l-0.29659,4.7322l-2.16797,1.00059l-3.10667,3.19604l-3.06281,-2.25994z" fill="#ffab19"/><path d="M236.55949,198.13403l0.45471,6.41876l-3.48233,2.35276l-0.95246,1.2258l-3.24336,2.1069l-0.47108,0.97652l-3.25366,1.37966l-5.02615,-3.92933l-2.02867,-6.27522l10.42635,-8.51274z" fill="#ffab19"/><path d="M232.54159,205.46482l0.19772,-3.1548" fill="none"/><path d="M228.71112,208.9136l-0.17792,-3.99807" fill="none"/></g><path d="M224.83939,209.45341l-3.23992,2.3493l-3.42127,-1.89117l-0.53982,-3.87172l2.64248,-1.73468l3.89922,1.39947z" fill="#5c5e5f" stroke-linecap="round"/></g><g fill-rule="nonzero" stroke="#000000" stroke-width="1.2" stroke-linejoin="miter"><path d="M253.6149,187.36155c0,0 -0.53984,-1.76171 1.10432,-2.718c6.48469,-3.77168 8.39985,0.60189 11.37319,1.03727c3.43708,0.5033 7.47821,0.36859 8.14939,1.75898c0.96201,1.99284 -0.65683,3.80205 -2.12273,6.35232c-1.97446,3.43505 -4.53165,7.46272 -8.26722,7.98313c-2.91764,0.40647 -2.23176,-7.09307 -2.20345,-7.14602c-2.4702,-0.72843 -4.6804,-2.21361 -5.75302,-3.87838" fill="#ffab19" stroke-linecap="butt"/><g stroke-linecap="round"><path d="M268.74325,201.12828l-3.0981,4.41599l-2.55282,1.22669l-1.51179,-1.35156l-1.35765,0.32712l-2.22678,-3.30285" fill="#ffab19"/><path d="M258.29666,189.6873l13.39141,0.29433l1.76494,6.21417l-2.02908,6.20979l-3.47537,0.91774l-0.9312,-0.48131l-3.8675,0.33635l-1.47027,-0.38125l-4.20239,0.28949l-3.99489,-4.89941z" fill="#ffab19"/><path d="M259.58111,198.44022l1.90338,2.37242l-2.94312,-1.55826z" fill="none"/><path d="M266.80893,201.4088l-2.05459,-3.2711" fill="none"/></g></g></g></g></svg>