<svg version="1.1" xmlns="http://www.w3.org/2000/svg" xmlns:xlink="http://www.w3.org/1999/xlink" width="194.22146" height="238.07132" viewBox="0,0,194.22146,238.07132"><g transform="translate(-142.88928,-63.44923)"><g stroke-miterlimit="10"><g stroke-linecap="butt"><path d="M287.05095,300.69279l4.37749,-69.80064l45.02029,-0.10411l-6.86993,69.90475z" fill="#868995" stroke="#000000" stroke-width="1.2"/><g><g><g><g fill="#868995" stroke="#000000" stroke-width="1.2"><path d="M314.1336,264.21571c0,0 -14.71488,0.3452 -16.54198,-1.91087c-1.40985,-1.74086 0.46249,-24.77184 2.15979,-26.4586c1.7424,-1.73158 16.44297,-1.76388 16.44297,-1.76388"/></g><g fill="none" stroke="none" stroke-width="1" font-family="sans-serif" font-weight="normal" font-size="12" text-anchor="start"/><g fill="none" stroke="none" stroke-width="1" font-family="sans-serif" font-weight="normal" font-size="12" text-anchor="start"/></g><g><g fill="#868995" stroke="#000000" stroke-width="1.2"><path d="M316.08633,234.08236c0,0 14.6953,0.0323 16.15501,1.76388c1.42192,1.68676 -0.46573,24.71773 -2.15979,26.45859c-2.19541,2.25607 -16.85394,1.91088 -16.85394,1.91088"/></g><g fill="none" stroke="none" stroke-width="1" font-family="sans-serif" font-weight="normal" font-size="12" text-anchor="start"/><g fill="none" stroke="none" stroke-width="1" font-family="sans-serif" font-weight="normal" font-size="12" text-anchor="start"/></g></g><g><g><g fill="#4e4f56" stroke="#000000" stroke-width="1.2"><path d="M314.22499,262.44252c0,0 -12.98201,0.30455 -14.59394,-1.68584c-1.24382,-1.53585 0.40802,-21.85463 1.90544,-23.34275c1.53721,-1.52767 14.5066,-1.55616 14.5066,-1.55616"/></g><g fill="none" stroke="none" stroke-width="1" font-family="sans-serif" font-weight="normal" font-size="12" text-anchor="start"/><g fill="none" stroke="none" stroke-width="1" font-family="sans-serif" font-weight="normal" font-size="12" text-anchor="start"/></g><g><g fill="#4e4f56" stroke="#000000" stroke-width="1.2"><path d="M315.94775,235.85777c0,0 12.96474,0.0285 14.25254,1.55616c1.25447,1.48812 -0.41089,21.8069 -1.90545,23.34275c-1.93687,1.99039 -14.86917,1.68584 -14.86917,1.68584"/></g><g fill="none" stroke="none" stroke-width="1" font-family="sans-serif" font-weight="normal" font-size="12" text-anchor="start"/><g fill="none" stroke="none" stroke-width="1" font-family="sans-serif" font-weight="normal" font-size="12" text-anchor="start"/></g></g><g><g><g fill="#9497a4" stroke="#000000" stroke-width="1.2"><path d="M314.68198,253.57662c0,0 -4.31767,0.10129 -4.85378,-0.56069c-0.41368,-0.51081 0.1357,-7.26859 0.63373,-7.76352c0.51126,-0.50808 4.82472,-0.51756 4.82472,-0.51756"/></g><g fill="none" stroke="none" stroke-width="1" font-family="sans-serif" font-weight="normal" font-size="12" text-anchor="start"/><g fill="none" stroke="none" stroke-width="1" font-family="sans-serif" font-weight="normal" font-size="12" text-anchor="start"/></g><g><g fill="#9497a4" stroke="#000000" stroke-width="1.2"><path d="M315.25495,244.73484c0,0 4.31192,0.00948 4.74023,0.51756c0.41723,0.49493 -0.13665,7.25272 -0.63373,7.76352c-0.64418,0.66198 -4.94531,0.56069 -4.94531,0.56069"/></g><g fill="none" stroke="none" stroke-width="1" font-family="sans-serif" font-weight="normal" font-size="12" text-anchor="start"/><g fill="none" stroke="none" stroke-width="1" font-family="sans-serif" font-weight="normal" font-size="12" text-anchor="start"/></g></g></g><g><g><g><g fill="#868995" stroke="#000000" stroke-width="1.2"><path d="M311.59362,294.79086c0,0 -11.16273,0.26187 -12.54877,-1.44959c-1.06951,-1.32062 0.35084,-18.79196 1.63841,-20.07154c1.32179,-1.31358 12.47367,-1.33808 12.47367,-1.33808"/></g><g fill="none" stroke="none" stroke-width="1" font-family="sans-serif" font-weight="normal" font-size="12" text-anchor="start"/><g fill="none" stroke="none" stroke-width="1" font-family="sans-serif" font-weight="normal" font-size="12" text-anchor="start"/></g><g><g fill="#868995" stroke="#000000" stroke-width="1.2"><path d="M313.07497,271.93165c0,0 11.14788,0.0245 12.25522,1.33808c1.07867,1.27958 -0.3533,18.75092 -1.63842,20.07154c-1.66544,1.71146 -12.78544,1.44959 -12.78544,1.44959"/></g><g fill="none" stroke="none" stroke-width="1" font-family="sans-serif" font-weight="normal" font-size="12" text-anchor="start"/><g fill="none" stroke="none" stroke-width="1" font-family="sans-serif" font-weight="normal" font-size="12" text-anchor="start"/></g></g><g><g><g fill="#4e4f56" stroke="#000000" stroke-width="1.2"><path d="M311.66294,293.44572c0,0 -9.84817,0.23103 -11.07098,-1.27888c-0.94357,-1.1651 0.30953,-16.57896 1.44547,-17.70785c1.16613,-1.15889 11.00473,-1.18051 11.00473,-1.18051"/></g><g fill="none" stroke="none" stroke-width="1" font-family="sans-serif" font-weight="normal" font-size="12" text-anchor="start"/><g fill="none" stroke="none" stroke-width="1" font-family="sans-serif" font-weight="normal" font-size="12" text-anchor="start"/></g><g><g fill="#4e4f56" stroke="#000000" stroke-width="1.2"><path d="M312.96986,273.27848c0,0 9.83507,0.02162 10.812,1.18051c0.95164,1.12889 -0.3117,16.54275 -1.44547,17.70785c-1.46932,1.50991 -11.27978,1.27888 -11.27978,1.27888"/></g><g fill="none" stroke="none" stroke-width="1" font-family="sans-serif" font-weight="normal" font-size="12" text-anchor="start"/><g fill="none" stroke="none" stroke-width="1" font-family="sans-serif" font-weight="normal" font-size="12" text-anchor="start"/></g></g><g><g><g fill="#9497a4" stroke="#000000" stroke-width="1.2"><path d="M312.00962,286.72003c0,0 -3.27538,0.07683 -3.68208,-0.42534c-0.31382,-0.3875 0.10295,-5.51397 0.48075,-5.88942c0.38784,-0.38543 3.66004,-0.39263 3.66004,-0.39263"/></g><g fill="none" stroke="none" stroke-width="1" font-family="sans-serif" font-weight="normal" font-size="12" text-anchor="start"/><g fill="none" stroke="none" stroke-width="1" font-family="sans-serif" font-weight="normal" font-size="12" text-anchor="start"/></g><g><g fill="#9497a4" stroke="#000000" stroke-width="1.2"><path d="M312.44428,280.01264c0,0 3.27103,0.00719 3.59595,0.39263c0.31651,0.37545 -0.10367,5.50192 -0.48075,5.88942c-0.48867,0.50218 -3.75152,0.42534 -3.75152,0.42534"/></g><g fill="none" stroke="none" stroke-width="1" font-family="sans-serif" font-weight="normal" font-size="12" text-anchor="start"/><g fill="none" stroke="none" stroke-width="1" font-family="sans-serif" font-weight="normal" font-size="12" text-anchor="start"/></g></g></g></g><g stroke-linecap="butt"><path d="M150.4212,300.69279l-6.86992,-69.90475l45.02029,0.10411l4.37749,69.80064z" fill="#868995" stroke="#000000" stroke-width="1.2"/><g><g><g><g fill="#868995" stroke="#000000" stroke-width="1.2"><path d="M163.80564,234.08236c0,0 14.70057,0.0323 16.44297,1.76388c1.6973,1.68676 3.56964,24.71773 2.15979,26.45859c-1.82709,2.25607 -16.54198,1.91087 -16.54198,1.91087"/></g><g fill="none" stroke="none" stroke-width="1" font-family="sans-serif" font-weight="normal" font-size="12" text-anchor="start"/><g fill="none" stroke="none" stroke-width="1" font-family="sans-serif" font-weight="normal" font-size="12" text-anchor="start"/></g><g><g fill="#868995" stroke="#000000" stroke-width="1.2"><path d="M166.77242,264.21571c0,0 -14.65853,0.3452 -16.85394,-1.91087c-1.69406,-1.74086 -3.58171,-24.77183 -2.15979,-26.45859c1.45971,-1.73158 16.15501,-1.76388 16.15501,-1.76388"/></g><g fill="none" stroke="none" stroke-width="1" font-family="sans-serif" font-weight="normal" font-size="12" text-anchor="start"/><g fill="none" stroke="none" stroke-width="1" font-family="sans-serif" font-weight="normal" font-size="12" text-anchor="start"/></g></g><g><g><g fill="#4e4f56" stroke="#000000" stroke-width="1.2"><path d="M163.95693,235.85777c0,0 12.96939,0.0285 14.5066,1.55616c1.49742,1.48812 3.14926,21.8069 1.90544,23.34275c-1.61193,1.99039 -14.59394,1.68584 -14.59394,1.68584"/></g><g fill="none" stroke="none" stroke-width="1" font-family="sans-serif" font-weight="normal" font-size="12" text-anchor="start"/><g fill="none" stroke="none" stroke-width="1" font-family="sans-serif" font-weight="normal" font-size="12" text-anchor="start"/></g><g><g fill="#4e4f56" stroke="#000000" stroke-width="1.2"><path d="M166.57432,262.44252c0,0 -12.93229,0.30455 -14.86917,-1.68584c-1.49456,-1.53585 -3.15992,-21.85463 -1.90544,-23.34275c1.28781,-1.52766 14.25254,-1.55616 14.25254,-1.55616"/></g><g fill="none" stroke="none" stroke-width="1" font-family="sans-serif" font-weight="normal" font-size="12" text-anchor="start"/><g fill="none" stroke="none" stroke-width="1" font-family="sans-serif" font-weight="normal" font-size="12" text-anchor="start"/></g></g><g><g><g fill="#9497a4" stroke="#000000" stroke-width="1.2"><path d="M164.71336,244.73484c0,0 4.31347,0.00948 4.82472,0.51756c0.49803,0.49493 1.04741,7.25272 0.63373,7.76352c-0.53611,0.66198 -4.85377,0.56069 -4.85377,0.56069"/></g><g fill="none" stroke="none" stroke-width="1" font-family="sans-serif" font-weight="normal" font-size="12" text-anchor="start"/><g fill="none" stroke="none" stroke-width="1" font-family="sans-serif" font-weight="normal" font-size="12" text-anchor="start"/></g><g><g fill="#9497a4" stroke="#000000" stroke-width="1.2"><path d="M165.58388,253.57662c0,0 -4.30113,0.10129 -4.94531,-0.56069c-0.49707,-0.51081 -1.05095,-7.26859 -0.63373,-7.76352c0.42831,-0.50808 4.74023,-0.51756 4.74023,-0.51756"/></g><g fill="none" stroke="none" stroke-width="1" font-family="sans-serif" font-weight="normal" font-size="12" text-anchor="start"/><g fill="none" stroke="none" stroke-width="1" font-family="sans-serif" font-weight="normal" font-size="12" text-anchor="start"/></g></g></g><g><g><g><g fill="#868995" stroke="#000000" stroke-width="1.2"><path d="M166.84308,271.93165c0,0 11.15188,0.0245 12.47367,1.33808c1.28757,1.27958 2.70793,18.75092 1.63842,20.07154c-1.38604,1.71146 -12.54877,1.44959 -12.54877,1.44959"/></g><g fill="none" stroke="none" stroke-width="1" font-family="sans-serif" font-weight="normal" font-size="12" text-anchor="start"/><g fill="none" stroke="none" stroke-width="1" font-family="sans-serif" font-weight="normal" font-size="12" text-anchor="start"/></g><g><g fill="#868995" stroke="#000000" stroke-width="1.2"><path d="M169.09369,294.79086c0,0 -11.11999,0.26187 -12.78543,-1.44959c-1.28511,-1.32062 -2.71709,-18.79196 -1.63842,-20.07153c1.10733,-1.31358 12.25522,-1.33808 12.25522,-1.33808"/></g><g fill="none" stroke="none" stroke-width="1" font-family="sans-serif" font-weight="normal" font-size="12" text-anchor="start"/><g fill="none" stroke="none" stroke-width="1" font-family="sans-serif" font-weight="normal" font-size="12" text-anchor="start"/></g></g><g><g><g fill="#4e4f56" stroke="#000000" stroke-width="1.2"><path d="M166.95785,273.27848c0,0 9.8386,0.02162 11.00473,1.18051c1.13595,1.12889 2.38904,16.54275 1.44547,17.70785c-1.22281,1.50991 -11.07099,1.27888 -11.07099,1.27888"/></g><g fill="none" stroke="none" stroke-width="1" font-family="sans-serif" font-weight="normal" font-size="12" text-anchor="start"/><g fill="none" stroke="none" stroke-width="1" font-family="sans-serif" font-weight="normal" font-size="12" text-anchor="start"/></g><g><g fill="#4e4f56" stroke="#000000" stroke-width="1.2"><path d="M168.94341,293.44572c0,0 -9.81046,0.23103 -11.27978,-1.27888c-1.13378,-1.1651 -2.39712,-16.57896 -1.44547,-17.70785c0.97693,-1.15889 10.812,-1.18051 10.812,-1.18051"/></g><g fill="none" stroke="none" stroke-width="1" font-family="sans-serif" font-weight="normal" font-size="12" text-anchor="start"/><g fill="none" stroke="none" stroke-width="1" font-family="sans-serif" font-weight="normal" font-size="12" text-anchor="start"/></g></g><g><g><g fill="#9497a4" stroke="#000000" stroke-width="1.2"><path d="M167.53168,280.01264c0,0 3.2722,0.00719 3.66005,0.39262c0.3778,0.37545 0.79457,5.50193 0.48075,5.88942c-0.40669,0.50218 -3.68208,0.42534 -3.68208,0.42534"/></g><g fill="none" stroke="none" stroke-width="1" font-family="sans-serif" font-weight="normal" font-size="12" text-anchor="start"/><g fill="none" stroke="none" stroke-width="1" font-family="sans-serif" font-weight="normal" font-size="12" text-anchor="start"/></g><g><g fill="#9497a4" stroke="#000000" stroke-width="1.2"><path d="M168.19206,286.72003c0,0 -3.26285,0.07684 -3.75152,-0.42534c-0.37708,-0.3875 -0.79725,-5.51397 -0.48074,-5.88942c0.32492,-0.38543 3.59594,-0.39262 3.59594,-0.39262"/></g><g fill="none" stroke="none" stroke-width="1" font-family="sans-serif" font-weight="normal" font-size="12" text-anchor="start"/><g fill="none" stroke="none" stroke-width="1" font-family="sans-serif" font-weight="normal" font-size="12" text-anchor="start"/></g></g></g></g><path d="M187.34611,300.92055l-3.94905,-103.37655h113.20589l-3.94904,103.37655z" fill="#868995" stroke="#000000" stroke-width="1.2" stroke-linecap="butt"/><path d="M192.3543,176.07741" fill="none" stroke="#000000" stroke-width="1.2" stroke-linecap="round"/><path d="M200.34225,180.47577" fill="none" stroke="#000000" stroke-width="1.2" stroke-linecap="round"/><g stroke-linecap="round"><g stroke="#000000" stroke-width="1.2"><path d="M198.28552,158.81799c-15.82809,-2.57387 -27.55034,-33.18941 -27.55034,-33.18941c10.02464,-1.61656 14.22033,2.1195 14.76021,2.47456c0.54003,0.35592 10.521,8.37348 10.521,8.37348c-0.68186,13.4454 2.26911,22.34136 2.26911,22.34136zM196.37007,133.61385c0,0 -0.33049,2.04067 -0.36801,3.14713M198.28552,158.81799c0.29627,0.89519 1.11815,2.27626 1.11815,2.27626" fill="#be1e2d"/><path d="M191.74019,155.69979c-3.00492,-1.9344 -6.68032,-4.9851 -10.20547,-9.70183c-3.14295,-4.20568 -6.44592,-10.79847 -8.55532,-15.3422l0.06235,-0.06852c6.17709,-1.40643 9.94522,2.64225 9.94522,2.64225l0.23538,0.32537c1.57178,2.40803 3.2511,4.8221 4.59783,6.35545c0.79508,0.90675 1.6371,1.69372 2.41972,2.34639c0,0 1.68767,4.19736 2.05963,7.16999c0.55631,4.39677 -0.68357,6.20796 -0.68357,6.20796z" fill="#929497"/></g><path d="M260.0189,168.96697l-10.49909,8.87415l-24.22546,1.28024l-10.11396,4.898l-15.60504,-3.96607l-6.93663,-8.02047l-6.07035,-9.69165l-3.84581,-12.32927l0.12631,-12.31033l2.69431,-9.47944l4.49546,-9.34703l6.29183,-8.53639l7.19896,-7.69679l8.06767,-7.14212l5.69106,-4.13401l2.42798,-2.91132l2.60116,-4.73052l1.68818,-4.55827l1.33414,-6.11984l-0.62743,-8.16422l4.75134,5.49585l4.97031,7.11967l0.08786,-3.92375l1.05536,2.10727l4.13392,6.63622l5.7789,6.25313l3.78763,2.92432l5.52011,4.33406l6.71894,5.21755l6.06171,6.06269l5.04204,6.50778l4.3848,7.35292l3.2656,7.05992l1.16655,7.50723l0.56114,7.59284l-0.96029,6.60457l-2.29467,8.14721l-2.86404,5.06858l-4.96021,6.86619z" fill="#be1e2d" stroke="#8c8c8c" stroke-width="0"/><path d="M270.82667,169.94297l-10.85786,-0.8975l-10.47964,9.03239l-24.16269,1.01066l-10.12285,4.85473l-14.84284,-3.25861c0,0 -49.25372,-41.33045 16.63035,-88.75802c0,0 11.51723,-11.7706 7.23886,-27.79523c-0.34797,-1.30334 10.01583,13.33169 10.01583,13.33169c0,0 -0.21047,-5.31145 0.02999,-4.65317c2.66488,7.29543 11.77642,16.44913 11.77642,16.44913c56.62368,36.21793 29.65067,74.83798 29.65067,74.83798z" fill="none" stroke="#000000" stroke-width="1.2"/><g stroke="#000000" stroke-width="1.2"><path d="M273.3357,125.64849c0,0 7.85413,-11.35317 8.30018,-11.89815c0.44614,-0.54416 3.64871,-5.64208 14.1565,-8.44198c0,0 -3.48175,32.19535 -18.68402,41.17715c0,0 0.55447,-9.16258 -3.77267,-20.83702zM273.42714,125.89542c-0.33741,-0.96858 -1.22219,-2.6445 -1.22219,-2.6445M276.60177,148.98351c0,0 0.45146,-1.57625 0.50658,-2.49798" fill="#be1e2d"/><path d="M282.94568,140.83346c0,0 -1.7361,-1.08726 -2.36832,-5.23439c-0.43162,-2.80207 0.12666,-7.25009 0.12666,-7.25009c0.60935,-0.91157 1.242,-1.96774 1.79504,-3.11064c0.93745,-1.93363 1.97037,-4.79147 2.89693,-7.59847l0.14832,-0.389c0,0 2.68838,-5.19528 9.27433,-6.55549l0.0812,0.0346c-0.88807,4.93449 -2.42003,12.19667 -4.43788,17.26734c-2.26335,5.68695 -5.12894,9.95513 -7.62341,12.94661z" fill="#929497"/></g></g><g><path d="M269.72216,148.08246c2.16503,15.67819 -13.02751,30.72822 -33.93349,33.61517c-20.90599,2.88696 -39.60876,-7.48238 -41.77379,-23.16058c-2.16503,-15.67819 13.0275,-30.72822 33.93349,-33.61517c20.90599,-2.88696 39.60876,7.48238 41.77379,23.16058z" fill="#e6e7e8" stroke="#000000" stroke-width="1.2" stroke-linecap="butt"/><path d="M210.78695,181.38367l2.26192,2.62162l2.83334,1.69091l-1.81304,0.62894l-4.37319,-0.53182l-4.04931,-1.80693l-1.83094,-2.3972l-4.88559,-2.07001l-3.68246,-2.04687l0.22953,2.36853c-5.70484,-9.25317 -14.82035,-18.66807 -12.77056,-32.05707c25.659,-31.08715 71.02063,-40.13876 88.73789,-8.81967c0.23692,0.4188 0.45983,0.83729 0.66933,1.25547c0.16346,0.63499 0.28525,1.22973 0.35043,1.77089c0.73731,6.12148 0.63118,12.20226 0.8364,18.39943c0.01352,0.4083 -0.03766,0.86681 -0.1294,1.35169l-0.79813,1.36969l-0.35184,-1.4224l-2.04745,5.43119l-4.41477,5.1697l-2.85079,1.86466l-0.12054,-4.24921l-0.64482,-5.79489l-1.09538,-4.5559l-1.08748,0.00306l0.25819,-1.50663l0.89416,-3.65384l-0.40561,-4.06275l-1.22795,-4.39049l-3.82056,-4.03246l-6.22077,-3.40683l-8.06382,-2.12261l-9.27693,-0.77831l2.44706,0.83887l3.9063,2.40255l2.30846,3.21158l-17.37365,-2.01379l-16.78356,-2.24238l-0.36387,2.99223l-2.08035,6.31832l-1.98766,5.86423l0.73753,5.34079l3.3102,4.83845l4.48343,3.20543l-3.12289,1.01965l-2.74511,0.37908l0.47839,3.4643l2.19582,3.52134l2.44104,3.04618l2.68625,2.57102z" fill="#be1e2d" stroke="#8c8c8c" stroke-width="0" stroke-linecap="butt"/><path d="M205.80155,137.75968c-0.5265,8.04132 -4.87108,12.58344 -4.28941,16.73799c1.19728,8.55148 8.68531,11.49726 8.68531,11.49726c0,0 -5.08236,3.19981 -11.44879,0.09828" fill="none" stroke="#000000" stroke-width="1.2" stroke-linecap="round"/><path d="M193.60315,158.13888c-0.83481,-1.53344 -1.65637,-3.30428 -2.45249,-5.34565" fill="none" stroke="#000000" stroke-width="1.2" stroke-linecap="round"/><path d="M199.26494,135.99757c15.66145,4.0345 41.18272,5.5991 41.18272,5.5991c0,0 -2.96527,-4.14572 -8.77775,-5.99844c0,0 36.19625,-0.98718 27.36666,24.2794c0,0 3.4543,-2.11722 5.66078,-5.96362" fill="none" stroke="#000000" stroke-width="1.2" stroke-linecap="round"/><path d="M266.06311,144.79969c0.35851,1.7688 0.55395,2.58795 0.27829,4.07467" fill="none" stroke="#000000" stroke-width="1.2" stroke-linecap="round"/><path d="M271.14853,162.43737c-1.35093,6.85663 -8.99896,11.58829 -8.99896,11.58829c0,0 0.19008,-9.75468 -2.03916,-14.76656" fill="none" stroke="#000000" stroke-width="1.2" stroke-linecap="round"/><path d="M193.08405,157.9155c-3.73625,7.95568 2.48622,21.60189 2.48622,21.60189c0,0 -17.3408,-19.98456 -12.43284,-32.79763" fill="none" stroke="#000000" stroke-width="1.2" stroke-linecap="round"/><path d="M273.90083,160.04696c-1.21481,2.4947 -2.21484,3.88371 -2.21484,3.88371c0,0 0.16598,-9.72951 -5.37438,-14.93299" fill="none" stroke="#000000" stroke-width="1.2" stroke-linecap="round"/><path d="M204.45317,167.57194c-0.54232,6.81051 7.88223,12.70566 7.88223,12.70566c0,0 -10.25303,3.32605 -17.52484,-3.37975" fill="none" stroke="#000000" stroke-width="1.2" stroke-linecap="round"/><path d="M210.0855,180.86732c1.44877,3.12388 5.92287,4.81373 5.92287,4.81373c0,0 -8.17427,2.61635 -13.09006,-4.6098" fill="none" stroke="#000000" stroke-width="1.2" stroke-linecap="round"/></g><path d="M253.2844,148.96964c0.53946,-0.1076 0.88805,0.68405 1.03105,1.01902c0.53616,1.25603 0.56658,2.81193 -0.33878,3.87934l-0.40224,0.10631c-0.17659,0.08959 -0.43321,0.13648 -0.79318,0.11949c-3.02855,-0.14289 -5.68796,-0.32882 -8.64724,0.9092c-0.84901,0.35519 -2.30489,1.81165 -3.03107,1.98001c-0.93147,0.21596 -1.29004,-0.00765 -1.50599,-0.93911c-0.21073,-0.90894 1.48096,-1.74425 2.08871,-2.07951c2.11586,-1.16719 4.5317,-1.85474 6.94639,-2.13366c0.47691,-0.51629 0.71952,-1.12001 0.99528,-1.86305c0.07932,-0.21372 0.40985,-1.04759 0.49893,-1.06409c1.00036,-0.18524 1.23713,1.5005 1.23735,2.76185c0.26468,0.00169 0.5328,0.01223 0.78002,0.03751c0.36164,-1.105 0.7547,-2.65634 1.14076,-2.73334z" fill="#000000" stroke="none" stroke-width="0.5" stroke-linecap="butt"/><path d="M215.30888,158.58317c0.20417,-0.12904 0.43107,-0.25129 0.65789,-0.36288c-0.4083,-1.31999 -0.75087,-3.18223 0.16841,-3.40342c0.08186,-0.0197 0.63583,0.71575 0.77319,0.90649c0.47752,0.66314 0.88144,1.19423 1.45829,1.53661c2.1645,-0.70995 4.46235,-0.99275 6.65784,-0.64921c0.63062,0.09867 2.35428,0.2709 2.46763,1.30947c0.11616,1.06431 -0.11944,1.44705 -0.98949,1.60752c-0.6783,0.12511 -2.40057,-0.79495 -3.24488,-0.81438c-2.94291,-0.06775 -5.1671,1.23014 -7.72229,2.63616c-0.30371,0.16712 -0.53934,0.22454 -0.72003,0.20405l-0.37994,0.05562c-1.12338,-0.74134 -1.60113,-2.3821 -1.54736,-3.91888c0.01434,-0.40985 0.05741,-1.38288 0.55564,-1.4941c0.35657,-0.07959 1.19658,1.3807 1.8651,2.38696z" fill="#000000" stroke="none" stroke-width="0.5" stroke-linecap="butt"/><g stroke="#000000" stroke-width="1.2"><path d="M228.0809,186.16709c0.07815,0.17819 0.14827,0.35039 0.21059,0.51674c0.15407,0.2634 0.24796,0.5614 0.26958,0.87136c1.57019,6.64108 -12.0438,1.61342 -13.49474,-0.66575c-1.2304,-1.93275 -0.98064,-6.71958 2.34413,-6.55224c1.20002,0.0604 9.97093,4.84399 10.57673,5.7956z" fill="#be1e2d" stroke-linecap="butt"/><g><path d="M217.05942,172.10175c3.00278,-0.22026 2.0874,4.28019 2.04988,7.01086c-0.00818,0.59504 0.38867,3.21777 0.26104,3.40711c0.43648,2.85657 -0.74735,5.94258 -4.08409,6.17263c-2.81668,0.19419 -4.49492,-2.08906 -5.07693,-4.69645c-0.33376,-0.07645 -0.22117,-1.68632 -0.54847,-1.59591c-2.6282,0.72598 -5.78291,2.59578 -6.78655,-0.26279c-0.8133,-2.31647 3.21081,-5.262 6.2879,-4.60832c0.59214,0.12579 4.60234,0.39342 5.56523,0.61437c0.27194,-1.82713 -0.27896,-5.84999 2.33199,-6.0415z" fill="#be1e2d" stroke-linecap="butt"/><path d="M211.49083,181.52566c0,0 4.62473,-1.34348 4.63507,0.26551c0.00241,0.37429 -0.37667,1.53769 -0.37667,1.53769c0,0 0.31517,0.69733 0.32398,1.06183c0.0235,0.97193 -0.96235,1.94329 -0.96235,1.94329" fill="none" stroke-linecap="round"/></g></g><path d="M266.95966,164.10718" fill="none" stroke="#000000" stroke-width="1.2" stroke-linecap="round"/><g stroke="#000000" stroke-width="1.2"><path d="M222.87154,195.77212c-0.23773,-0.23725 -3.04868,-3.21691 -3.04868,-3.21691c0,0 1.04704,5.03168 -2.17011,6.40562c-1.74194,0.74393 -5.6211,0.16986 -7.64332,0.32794c0,0 -2.31454,0.17914 -2.67769,-2.14956c-0.36315,-2.3287 1.95139,-2.50783 1.95139,-2.50783c0.44831,-0.03438 1.01311,-0.01541 1.62735,0.02045c2.07387,-5.98803 2.79023,-15.85863 11.39471,-10.78639c3.53197,2.08205 4.32048,2.90403 4.32048,2.90403c0,0 2.38519,-10.04095 7.08861,-9.42828c15.35052,1.99956 10.84048,19.97177 4.94595,20.62974c-8.94265,0.99821 -12.89421,0.68982 -15.78872,-2.19881z" fill="#be1e2d" stroke-linecap="butt"/><path d="M228.55076,191.84932c-0.8071,-3.20306 1.0244,-14.1335 6.1509,-10.78277c4.03543,2.63759 2.44769,8.33619 1.10098,11.27005c-1.51599,3.30266 -6.37713,2.98429 -7.25189,-0.48728z" fill="#e6e7e8" stroke-linecap="round"/></g><path d="M240.30212,180.09384c1.09226,-1.58434 3.74655,-1.18759 4.85877,-0.84674c3.15263,0.96615 3.41585,3.66846 4.20649,6.67218c0.68772,2.61271 1.93972,5.50079 3.75342,7.07516c3.35813,0.87774 9.11248,-0.09053 8.42686,4.34581c-0.16439,1.06366 -5.98247,1.54055 -8.23319,1.6162c1.58547,2.40989 -0.82263,2.72103 -3.03788,1.46096c-0.90858,-0.51682 -3.07933,-1.32729 -4.56116,-2.87032c-1.48183,-1.54303 -0.6499,-2.36486 -0.8721,-3.57746c-0.50412,-2.75101 -1.71686,-3.85461 -2.64428,-6.36734" fill="#be1e2d" stroke="#000000" stroke-width="1.2" stroke-linecap="butt"/><g stroke="#000000" stroke-width="1.2" stroke-linecap="butt"><g fill="#868995"><path d="M240.75085,244.52208c0,0 -41.94558,0.42456 -44.92372,-2.35022c-2.29803,-2.14112 -2.30937,-30.46732 0,-32.5419c2.37074,-2.1297 44.33295,-2.16943 44.33295,-2.16943"/><path d="M239.83993,207.46053c0,0 41.96221,0.03973 44.33295,2.16943c2.30938,2.07458 2.29804,30.40079 0,32.5419c-2.97814,2.77478 -44.92372,2.35022 -44.92372,2.35022"/></g><g fill="#4e4f56"><path d="M240.71253,242.4088c0,0 -39.80476,0.37611 -42.6309,-2.08203c-2.18075,-1.89678 -2.19151,-26.99059 0,-28.82843c2.24974,-1.88667 42.07028,-1.92187 42.07028,-1.92187"/><path d="M239.8481,209.57647c0,0 39.82055,0.0352 42.07029,1.92187c2.19151,1.83784 2.18075,26.93165 0,28.82843c-2.82614,2.45814 -42.63091,2.08203 -42.63091,2.08203"/></g><g fill="#9497a4"><path d="M240.23221,231.45282c0,0 -12.9719,0.12494 -13.8929,-0.69163c-0.71068,-0.6301 -0.71419,-8.96603 0,-9.57654c0.73316,-0.62673 13.7102,-0.63843 13.7102,-0.63843"/><path d="M239.95051,220.54623c0,0 12.97703,0.0117 13.7102,0.63843c0.71418,0.61051 0.71068,8.94644 0,9.57654c-0.92101,0.81657 -13.8929,0.69163 -13.8929,0.69163"/></g></g><g stroke="#000000" stroke-width="1.2" stroke-linecap="butt"><g fill="#868995"><path d="M240.65982,285.68288c0,0 -36.86021,0.37309 -39.47728,-2.06529c-2.01943,-1.88153 -2.02939,-26.77355 0,-28.59661c2.08332,-1.8715 38.95814,-1.90641 38.95814,-1.90641"/><path d="M239.85934,253.11457c0,0 36.87483,0.03491 38.95815,1.90641c2.02939,1.82306 2.01943,26.71508 0,28.59661c-2.61708,2.43837 -39.47729,2.06528 -39.47729,2.06528"/></g><g fill="#4e4f56"><path d="M240.62615,283.8258c0,0 -34.97894,0.33051 -37.46244,-1.82961c-1.91636,-1.66682 -1.92582,-23.71832 0,-25.33335c1.97699,-1.65794 36.96979,-1.68887 36.96979,-1.68887"/><path d="M239.86652,254.97398c0,0 34.99281,0.03093 36.9698,1.68887c1.92582,1.61503 1.91636,23.66653 0,25.33335c-2.48351,2.16012 -37.46245,1.82961 -37.46245,1.82961"/></g><g fill="#9497a4"><path d="M240.20406,274.1981c0,0 -11.39922,0.10979 -12.20856,-0.60778c-0.62452,-0.5537 -0.6276,-7.87901 0,-8.4155c0.64428,-0.55075 12.04801,-0.56103 12.04801,-0.56103"/><path d="M239.95651,264.61379c0,0 11.40373,0.01028 12.04801,0.56103c0.6276,0.53649 0.62452,7.8618 0,8.41551c-0.80934,0.71757 -12.20856,0.60777 -12.20856,0.60777"/></g></g><path d="M239.31886,197.18615c3.6742,4.52307 5.84629,16.01569 -0.91986,15.6493c-1.03488,-0.05604 -1.82021,-0.87606 -2.73029,-1.3141c-1.26196,-2.2009 -1.78099,-4.57736 -3.07886,-6.76078c-1.20468,-2.02664 -3.64404,-3.95887 -4.18076,-6.30569c-1.04496,-4.56923 6.23766,-7.80759 10.03374,-5.51387" fill="#be1e2d" stroke="#000000" stroke-width="1.2" stroke-linecap="butt"/><path d="M246.97232,162.27427c0,0 4.25932,11.26633 -0.93345,13.91948c-4.79957,2.45225 -18.02089,-4.8547 -18.02089,-4.8547c0,0 9.62057,0.95215 18.95434,-9.06479z" fill="#706d6d" stroke="#000000" stroke-width="1.2" stroke-linecap="round"/></g></g></svg>