<svg version="1.1" xmlns="http://www.w3.org/2000/svg" xmlns:xlink="http://www.w3.org/1999/xlink" width="114.20673" height="117.62823" viewBox="0,0,114.20673,117.62823"><g transform="translate(-178.49088,-120.60129)"><g stroke-miterlimit="10"><path d="M250.5023,214.32202c3.28297,-0.04012 8.81879,-2.99878 8.6883,2.62811c-0.03658,1.57705 0.07168,1.62133 -0.99807,2.61409c-2.69482,2.50086 -10.14061,1.65388 -12.87225,0.02406c-0.97071,-0.57918 -4.03109,-3.08577 -2.92009,-4.55416c0.00772,-0.05931 0.0171,-0.11876 0.02818,-0.17827c0.32852,-1.76461 2.02532,-2.92879 3.78993,-2.60027c0.95659,-0.3777 3.21552,2.07951 4.28399,2.06646z" fill="#9a8479" stroke="#000000" stroke-width="1.2" stroke-linecap="butt"/><path d="M246.38727,224.98085c0,0 1.9381,5.22774 2.75628,7.13847c0.82175,1.91063 1.70289,3.68822 1.70289,3.68822c0,0 0.79654,0.34929 0.76472,1.09892c-0.02925,0.75337 -2.48302,0.71688 -5.51507,0.8829c-3.03257,0.16691 -5.65386,-0.36213 -6.3259,-1.15826c-0.66831,-0.78714 0.17735,-1.06708 0.17735,-1.06708c0,0 -0.22639,-5.17305 -1.64747,-7.52882c-1.89488,-3.14189 -0.70588,-3.95998 2.55081,-5.46209v0v0v0v0v0v0c3.25669,-1.50211 5.53639,2.40773 5.53639,2.40773z" fill="#9a8479" stroke="#000000" stroke-width="1.2" stroke-linecap="butt"/><path d="M230.39002,208.67383v0v0v0v0v0v0c7.94398,-0.62376 12.24576,4.05299 12.24374,4.0521c0.97115,1.20795 2.2299,2.91231 2.97143,4.46855c0.20464,0.42988 0.38716,0.91356 0.53532,1.43237c0,0 0.41688,1.80207 0.38278,2.35221c-0.14377,2.30475 -0.69519,4.82759 -3.27583,5.96827c-4.0497,1.79848 -8.91067,1.57773 -14.51179,-0.78533c-1.88963,-0.79518 -3.2371,-2.15035 -4.17361,-3.69306c-0.67072,-1.11025 -1.20816,-2.55784 -1.20816,-2.55784c-0.85737,-2.40793 -1.04025,-4.75845 -1.07827,-5.78064c0,0 0.17141,-4.83296 8.11442,-5.45663z" fill="#9a8479" stroke="#000000" stroke-width="1.2" stroke-linecap="butt"/><path d="M236.33518,227.60244c0.04084,0.33101 0.03765,0.53673 0.03765,0.53673c0,0 0.1013,3.23453 0.49378,4.99083c0.39152,1.7564 0.64012,2.48244 0.64012,2.48244c0,0 0.53678,0.05919 0.56841,0.72783c0.03546,0.66954 -1.36173,1.39557 -5.83927,1.27629c-4.48066,-0.12475 -5.58233,-1.12546 -5.71965,-1.63701c-0.13921,-0.51154 0.70703,-1.03037 0.70703,-1.03037c0,0 -0.31483,-3.27125 -0.31006,-6.11542c0.00342,-1.6128 0.25074,-3.18902 0.46443,-4.25212" fill="#9a8479" stroke="#000000" stroke-width="1.2" stroke-linecap="butt"/><g stroke="#000000"><path d="M276.87626,168.69798c0,0 13.9714,-8.96379 15.10033,-0.93629c1.12902,8.0274 -5.70781,17.18048 -17.72134,25.28026c0,0 3.05965,-13.81898 2.62102,-24.34397zM276.87626,168.69798c0.03495,-1.22894 -0.19805,-3.58839 -0.19805,-3.58839M273.5467,195.18647l0.58739,-2.23215" fill="#9a8479" stroke-width="1.2" stroke-linecap="round"/><path d="M274.13428,192.95343c0.59146,-2.55861 1.45273,-6.775 2.11278,-12.05287c0.3866,-3.07164 0.56797,-6.24686 0.64888,-8.99164l0.00056,0.00358c7.57088,-2.25915 12.0129,6.93832 12.0129,6.93832l0.00257,0.00008c-5.18576,7.97083 -14.67535,13.88087 -14.67535,13.88087l-0.10235,0.22166v0v0v0v0z" fill="#ee4036" stroke-width="1.2" stroke-linecap="butt"/><path d="M190.4241,186.66662v0v0v0v0v0v0c-0.03012,-0.09045 -0.92851,-2.6416 -0.92831,-2.64258c-2.54246,-6.82902 -0.5532,-20.80245 0.65983,-25.05097l0.07151,-0.20097c4.82167,-18.06872 15.2934,-26.21097 21.35523,-30.4216c13.76055,-9.56494 31.07503,-6.76849 31.07503,-6.76849l-1.82021,11.97791c0,0 0.66622,-3.41776 8.81448,-8.06506c8.14649,-4.64764 18.20798,-1.82946 18.20798,-1.82946l-8.47928,13.83164c0,0 4.1518,-4.02123 7.12354,-5.2142c5.26761,-2.11001 8.9392,-0.07484 8.9392,-0.07484l-2.97368,9.01345c0,0 5.08136,10.32209 8.64889,19.79187c0.76454,2.02113 1.70479,4.09873 2.10775,6.3596c1.46675,8.21496 -0.88486,21.91229 -5.66502,28.00942c-0.83144,1.08145 -1.708,2.11838 -2.60447,3.13122c-0.23234,0.25971 -0.46521,0.51748 -0.69999,0.77122c-0.81258,0.88608 -1.6477,1.74757 -2.50939,2.57276c-0.1161,0.10961 -0.22598,0.22866 -0.3421,0.33837c-0.97299,0.9154 -1.97943,1.78392 -3.01201,2.61807c-0.24703,0.20169 -0.50307,0.3933 -0.75424,0.59237c-0.87864,0.68386 -1.7782,1.33976 -2.69098,1.96181c-0.21087,0.14599 -0.41787,0.29538 -0.62922,0.43475c-1.0925,0.71874 -2.21435,1.38852 -3.3568,2.01477c-0.25399,0.13688 -0.51163,0.26469 -0.76674,0.39758c-0.95396,0.5001 -1.92935,0.9657 -2.91814,1.39833c-0.28507,0.1226 -0.56578,0.25521 -0.85188,0.37394c-1.20124,0.49636 -2.41942,0.9453 -3.66278,1.3378c-0.2221,0.07108 -0.45389,0.12643 -0.678,0.19345c-1.05886,0.31713 -2.1317,0.59017 -3.21879,0.82548c-4.59818,0.99419 -9.43106,1.29179 -14.43582,0.71048c-5.71968,-0.66476 -10.78702,-1.80601 -15.27252,-3.28496c-1.10911,-0.36562 -2.18128,-0.75453 -3.22,-1.15924c-0.19661,-0.08066 -0.39269,-0.15938 -0.58779,-0.23792c-1.05026,-0.42435 -2.07698,-0.86077 -3.05356,-1.32184c-0.00581,-0.00294 -0.01338,-0.00622 -0.02008,-0.00933c-0.979,-0.45868 -1.91159,-0.94171 -2.81751,-1.43815c-0.1587,-0.08632 -0.32182,-0.17347 -0.47943,-0.2606c-0.8692,-0.48292 -1.71023,-0.98264 -2.51445,-1.49557c-0.14193,-0.08772 -0.27682,-0.18247 -0.4174,-0.27177c-0.7923,-0.51352 -1.56034,-1.03713 -2.28965,-1.57542c-0.02733,-0.02357 -0.05944,-0.04172 -0.08626,-0.06336c-0.74617,-0.55436 -1.45166,-1.11946 -2.1329,-1.69016c-0.12699,-0.10693 -0.25336,-0.212 -0.37662,-0.31832c-0.6529,-0.56153 -1.28103,-1.12765 -1.87277,-1.70052c-0.09071,-0.08635 -0.17558,-0.17435 -0.26524,-0.26132c-0.56015,-0.55217 -1.09731,-1.10926 -1.60523,-1.66997c-0.0531,-0.0543 -0.11193,-0.11244 -0.16158,-0.17067c-0.5287,-0.58947 -1.02061,-1.18307 -1.49067,-1.77609c-0.09152,-0.11417 -0.18102,-0.22877 -0.26805,-0.34199c-0.45583,-0.59042 -0.89034,-1.1776 -1.29073,-1.77033c-0.04631,-0.06505 -0.08673,-0.13255 -0.13201,-0.19822c-0.37627,-0.56243 -0.72783,-1.12373 -1.05469,-1.68044c-0.04512,-0.08034 -0.09851,-0.16052 -0.14488,-0.23925c-0.33237,-0.58348 -1.0289,-1.94992 -1.08197,-2.05851c-0.27556,-0.5736 -0.53377,-1.14298 -0.75794,-1.70313c-0.01392,-0.0349 -0.02705,-0.06966 -0.03923,-0.10413c-0.21475,-0.53907 -0.40265,-1.06558 -0.57239,-1.5869z" fill="#9a8479" stroke-width="1.2" stroke-linecap="butt"/><path d="M263.6846,173.40462v0v0v0v0v0v0c0,0 7.234,13.50868 1.77723,25.05763c-5.45437,11.54563 -24.27317,13.29857 -37.73618,9.78213c-17.79722,-4.64988 -23.80095,-17.77368 -18.57613,-28.2156c5.22895,-10.44114 30.17541,-11.04375 30.17541,-11.04375l-5.54356,7.16191c0,0 3.19545,0.07531 6.00552,-0.98171c2.80878,-1.0544 5.96342,-2.57354 5.96342,-2.57354l-7.497,7.60366c0,0 7.56787,1.34861 14.68104,-0.21625c7.11244,-1.56133 10.75025,-6.57448 10.75025,-6.57448z" fill="#e6e7e8" stroke-width="1.2" stroke-linecap="butt"/><path d="M195.0433,185.90628c-12.6445,-8.11343 -18.5523,-16.95716 -14.87173,-24.36753c3.6816,-7.41098 18.51646,1.60141 18.51646,1.60141c-3.53028,9.76589 -3.64473,22.76612 -3.64473,22.76612zM199.95285,159.81324c0,0 -0.95948,2.18138 -1.26394,3.32709M195.21901,185.82914l0.09774,2.10525" fill="#9a8479" stroke-width="1.2" stroke-linecap="round"/><path d="M195.15459,185.61896c0,0 -10.12691,-5.95601 -14.31651,-13.61858l0.00283,-0.00038c0,0 8.13373,-8.33811 16.90964,-5.87124l0.00143,-0.00249c-0.67786,2.55545 -1.35271,5.51753 -1.74237,8.39215c-0.67608,4.94082 -0.80082,8.90352 -0.79059,11.31071z" fill="#ee4036" stroke-width="1.2" stroke-linecap="butt"/><path d="M257.6948,192.44425c-0.57037,-0.10844 -0.97385,-0.66859 -0.93405,-1.34157c0.0454,-0.74459 0.62348,-1.34382 1.29084,-1.33749c0.60653,0.00753 5.98115,0.0818 7.83809,0.71301c0.62786,0.21512 0.95106,0.96722 0.72468,1.67741c-0.23149,0.71483 -0.93407,1.10797 -1.55435,0.90807c-1.16913,-0.39357 -5.01523,-0.57962 -7.17397,-0.60328c-0.06584,0.00218 -0.12986,-0.00448 -0.19123,-0.01615z" fill="#231f20" stroke-width="0.5" stroke-linecap="butt"/><path d="M236.81586,189.77194c-0.08308,-0.01579 -0.16532,-0.04062 -0.24881,-0.07221c-2.94014,-1.17595 -8.44835,-1.59512 -8.50244,-1.5999c-0.73169,-0.05623 -1.29316,-0.70082 -1.22837,-1.44724c0.0662,-0.74442 0.72288,-1.30471 1.46851,-1.24951c0.24363,0.02152 5.9737,0.45623 9.30046,1.7849c0.68957,0.27473 1.01884,1.06208 0.73079,1.75962c-0.25206,0.6068 -0.89854,0.94252 -1.52014,0.82434z" fill="#231f20" stroke-width="0.5" stroke-linecap="butt"/></g><path d="M221.30755,201.29999c-8.8616,-3.18925 0.83501,-11 0.83501,-11c0,0 5.02742,1.33691 14.68145,5.7769c9.50388,4.37093 14.1298,6.55644 14.1298,6.55644c0,0 -27.03901,-0.39499 -29.64627,-1.33334z" fill="#706d6d" stroke="#231f20" stroke-width="1.2" stroke-linecap="round"/><g stroke="#000000" stroke-width="1.2"><path d="M218.24778,208.80451c3.24999,0.00662 3.24337,3.25662 3.24337,3.25662l-0.00214,1.05326c-0.78179,1.27828 -0.62797,0.51842 1.42923,0.19214c0,0 3.23453,-0.31679 3.55132,2.91773c0.31679,3.23453 -2.91774,3.55132 -2.91774,3.55132c-3.08166,0.20521 -5.63735,0.99958 -8.04688,-2.26926c-0.87721,-1.19006 -0.34395,-2.93679 -0.51593,-4.40519l0.00214,-1.05326c0,0 0.00662,-3.24999 3.25661,-3.24337z" fill="#9a8479" stroke-linecap="butt"/><g><path d="M226.91109,204.23147c2.8242,-0.50204 5.52065,1.38045 6.02268,4.20464c0.50204,2.8242 -1.38045,5.52065 -4.20464,6.02268c-2.8242,0.50204 -5.52065,-1.38045 -6.02268,-4.20464c-0.50204,-2.8242 1.38045,-5.52065 4.20464,-6.02268z" fill="#5c5e5f" stroke-linecap="butt"/><path d="M225.70301,215.38748l-0.67129,2.55966l-1.92683,0.24866l-2.27865,1.43751l-1.11603,-2.05422" fill="#9a8479" stroke-linecap="round"/><path d="M226.2478,210.93943l-0.04038,4.28629l-6.58504,3.57757l-4.09037,-1.94732l-0.95054,-3.84269l7.27061,-4.23433z" fill="#9a8479" stroke-linecap="round"/><path d="M224.00266,216.0805l-0.17392,-2.44389" fill="none" stroke-linecap="round"/><path d="M220.67492,216.41155l0.24689,1.3889" fill="none" stroke-linecap="round"/><path d="M216.20805,214.73078l1.44219,0.78565l0.26934,1.51516l-1.94448,1.51793l-1.82098,-0.71832l-0.31423,-1.76769z" fill="#5c5e5f" stroke-linecap="round"/></g></g></g></g></svg>