<svg version="1.1" xmlns="http://www.w3.org/2000/svg" xmlns:xlink="http://www.w3.org/1999/xlink" width="323.92859" height="323.92859" viewBox="0,0,323.92859,323.92859"><g transform="translate(-78.0357,-18.0357)"><g stroke-miterlimit="10"><g stroke-linecap="butt"><path d="M287.05094,300.69278l4.37749,-69.80064l45.02029,-0.10411l-6.86993,69.90475z" fill="#868995" stroke="#000000" stroke-width="1.2"/><g><g><g><g fill="#868995" stroke="#000000" stroke-width="1.2"><path d="M314.13359,264.2157c0,0 -14.71488,0.3452 -16.54198,-1.91087c-1.40985,-1.74086 0.46249,-24.77184 2.15979,-26.4586c1.7424,-1.73158 16.44297,-1.76388 16.44297,-1.76388"/></g><g fill="none" stroke="none" stroke-width="1" font-family="sans-serif" font-weight="normal" font-size="12" text-anchor="start"/><g fill="none" stroke="none" stroke-width="1" font-family="sans-serif" font-weight="normal" font-size="12" text-anchor="start"/></g><g><g fill="#868995" stroke="#000000" stroke-width="1.2"><path d="M316.08632,234.08235c0,0 14.6953,0.0323 16.15501,1.76388c1.42192,1.68676 -0.46573,24.71773 -2.15979,26.45859c-2.19541,2.25607 -16.85394,1.91088 -16.85394,1.91088"/></g><g fill="none" stroke="none" stroke-width="1" font-family="sans-serif" font-weight="normal" font-size="12" text-anchor="start"/><g fill="none" stroke="none" stroke-width="1" font-family="sans-serif" font-weight="normal" font-size="12" text-anchor="start"/></g></g><g><g><g fill="#4e4f56" stroke="#000000" stroke-width="1.2"><path d="M314.22498,262.44251c0,0 -12.98201,0.30455 -14.59394,-1.68584c-1.24382,-1.53585 0.40802,-21.85463 1.90544,-23.34275c1.53721,-1.52767 14.5066,-1.55616 14.5066,-1.55616"/></g><g fill="none" stroke="none" stroke-width="1" font-family="sans-serif" font-weight="normal" font-size="12" text-anchor="start"/><g fill="none" stroke="none" stroke-width="1" font-family="sans-serif" font-weight="normal" font-size="12" text-anchor="start"/></g><g><g fill="#4e4f56" stroke="#000000" stroke-width="1.2"><path d="M315.94775,235.85776c0,0 12.96474,0.0285 14.25254,1.55616c1.25447,1.48812 -0.41089,21.8069 -1.90545,23.34275c-1.93687,1.99039 -14.86917,1.68584 -14.86917,1.68584"/></g><g fill="none" stroke="none" stroke-width="1" font-family="sans-serif" font-weight="normal" font-size="12" text-anchor="start"/><g fill="none" stroke="none" stroke-width="1" font-family="sans-serif" font-weight="normal" font-size="12" text-anchor="start"/></g></g><g><g><g fill="#9497a4" stroke="#000000" stroke-width="1.2"><path d="M314.68197,253.57661c0,0 -4.31767,0.10129 -4.85378,-0.56069c-0.41368,-0.51081 0.1357,-7.26859 0.63373,-7.76352c0.51126,-0.50808 4.82472,-0.51756 4.82472,-0.51756"/></g><g fill="none" stroke="none" stroke-width="1" font-family="sans-serif" font-weight="normal" font-size="12" text-anchor="start"/><g fill="none" stroke="none" stroke-width="1" font-family="sans-serif" font-weight="normal" font-size="12" text-anchor="start"/></g><g><g fill="#9497a4" stroke="#000000" stroke-width="1.2"><path d="M315.25494,244.73483c0,0 4.31192,0.00948 4.74023,0.51756c0.41723,0.49493 -0.13665,7.25272 -0.63373,7.76352c-0.64418,0.66198 -4.94531,0.56069 -4.94531,0.56069"/></g><g fill="none" stroke="none" stroke-width="1" font-family="sans-serif" font-weight="normal" font-size="12" text-anchor="start"/><g fill="none" stroke="none" stroke-width="1" font-family="sans-serif" font-weight="normal" font-size="12" text-anchor="start"/></g></g></g><g><g><g><g fill="#868995" stroke="#000000" stroke-width="1.2"><path d="M311.59361,294.79085c0,0 -11.16273,0.26187 -12.54877,-1.44959c-1.06951,-1.32062 0.35084,-18.79196 1.63841,-20.07154c1.32179,-1.31358 12.47367,-1.33808 12.47367,-1.33808"/></g><g fill="none" stroke="none" stroke-width="1" font-family="sans-serif" font-weight="normal" font-size="12" text-anchor="start"/><g fill="none" stroke="none" stroke-width="1" font-family="sans-serif" font-weight="normal" font-size="12" text-anchor="start"/></g><g><g fill="#868995" stroke="#000000" stroke-width="1.2"><path d="M313.07496,271.93164c0,0 11.14788,0.0245 12.25522,1.33808c1.07867,1.27958 -0.3533,18.75092 -1.63842,20.07154c-1.66544,1.71146 -12.78544,1.44959 -12.78544,1.44959"/></g><g fill="none" stroke="none" stroke-width="1" font-family="sans-serif" font-weight="normal" font-size="12" text-anchor="start"/><g fill="none" stroke="none" stroke-width="1" font-family="sans-serif" font-weight="normal" font-size="12" text-anchor="start"/></g></g><g><g><g fill="#4e4f56" stroke="#000000" stroke-width="1.2"><path d="M311.66294,293.44571c0,0 -9.84817,0.23103 -11.07098,-1.27888c-0.94357,-1.1651 0.30953,-16.57896 1.44547,-17.70785c1.16613,-1.15889 11.00473,-1.18051 11.00473,-1.18051"/></g><g fill="none" stroke="none" stroke-width="1" font-family="sans-serif" font-weight="normal" font-size="12" text-anchor="start"/><g fill="none" stroke="none" stroke-width="1" font-family="sans-serif" font-weight="normal" font-size="12" text-anchor="start"/></g><g><g fill="#4e4f56" stroke="#000000" stroke-width="1.2"><path d="M312.96985,273.27847c0,0 9.83507,0.02162 10.812,1.18051c0.95164,1.12889 -0.3117,16.54275 -1.44547,17.70785c-1.46932,1.50991 -11.27978,1.27888 -11.27978,1.27888"/></g><g fill="none" stroke="none" stroke-width="1" font-family="sans-serif" font-weight="normal" font-size="12" text-anchor="start"/><g fill="none" stroke="none" stroke-width="1" font-family="sans-serif" font-weight="normal" font-size="12" text-anchor="start"/></g></g><g><g><g fill="#9497a4" stroke="#000000" stroke-width="1.2"><path d="M312.00961,286.72002c0,0 -3.27538,0.07683 -3.68208,-0.42534c-0.31382,-0.3875 0.10295,-5.51397 0.48075,-5.88942c0.38784,-0.38543 3.66004,-0.39263 3.66004,-0.39263"/></g><g fill="none" stroke="none" stroke-width="1" font-family="sans-serif" font-weight="normal" font-size="12" text-anchor="start"/><g fill="none" stroke="none" stroke-width="1" font-family="sans-serif" font-weight="normal" font-size="12" text-anchor="start"/></g><g><g fill="#9497a4" stroke="#000000" stroke-width="1.2"><path d="M312.44427,280.01263c0,0 3.27103,0.00719 3.59595,0.39263c0.31651,0.37545 -0.10367,5.50192 -0.48075,5.88942c-0.48867,0.50218 -3.75152,0.42534 -3.75152,0.42534"/></g><g fill="none" stroke="none" stroke-width="1" font-family="sans-serif" font-weight="normal" font-size="12" text-anchor="start"/><g fill="none" stroke="none" stroke-width="1" font-family="sans-serif" font-weight="normal" font-size="12" text-anchor="start"/></g></g></g></g><g stroke-linecap="butt"><path d="M150.4212,300.69278l-6.86992,-69.90475l45.02029,0.10411l4.37749,69.80064z" fill="#868995" stroke="#000000" stroke-width="1.2"/><g><g><g><g fill="#868995" stroke="#000000" stroke-width="1.2"><path d="M163.80563,234.08235c0,0 14.70057,0.0323 16.44297,1.76388c1.6973,1.68676 3.56964,24.71773 2.15979,26.45859c-1.82709,2.25607 -16.54198,1.91087 -16.54198,1.91087"/></g><g fill="none" stroke="none" stroke-width="1" font-family="sans-serif" font-weight="normal" font-size="12" text-anchor="start"/><g fill="none" stroke="none" stroke-width="1" font-family="sans-serif" font-weight="normal" font-size="12" text-anchor="start"/></g><g><g fill="#868995" stroke="#000000" stroke-width="1.2"><path d="M166.77241,264.2157c0,0 -14.65853,0.3452 -16.85394,-1.91087c-1.69406,-1.74086 -3.58171,-24.77183 -2.15979,-26.45859c1.45971,-1.73158 16.15501,-1.76388 16.15501,-1.76388"/></g><g fill="none" stroke="none" stroke-width="1" font-family="sans-serif" font-weight="normal" font-size="12" text-anchor="start"/><g fill="none" stroke="none" stroke-width="1" font-family="sans-serif" font-weight="normal" font-size="12" text-anchor="start"/></g></g><g><g><g fill="#4e4f56" stroke="#000000" stroke-width="1.2"><path d="M163.95692,235.85776c0,0 12.96939,0.0285 14.5066,1.55616c1.49742,1.48812 3.14926,21.8069 1.90544,23.34275c-1.61193,1.99039 -14.59394,1.68584 -14.59394,1.68584"/></g><g fill="none" stroke="none" stroke-width="1" font-family="sans-serif" font-weight="normal" font-size="12" text-anchor="start"/><g fill="none" stroke="none" stroke-width="1" font-family="sans-serif" font-weight="normal" font-size="12" text-anchor="start"/></g><g><g fill="#4e4f56" stroke="#000000" stroke-width="1.2"><path d="M166.57432,262.44251c0,0 -12.93229,0.30455 -14.86917,-1.68584c-1.49456,-1.53585 -3.15992,-21.85463 -1.90544,-23.34275c1.28781,-1.52766 14.25254,-1.55616 14.25254,-1.55616"/></g><g fill="none" stroke="none" stroke-width="1" font-family="sans-serif" font-weight="normal" font-size="12" text-anchor="start"/><g fill="none" stroke="none" stroke-width="1" font-family="sans-serif" font-weight="normal" font-size="12" text-anchor="start"/></g></g><g><g><g fill="#9497a4" stroke="#000000" stroke-width="1.2"><path d="M164.71335,244.73483c0,0 4.31347,0.00948 4.82472,0.51756c0.49803,0.49493 1.04741,7.25272 0.63373,7.76352c-0.53611,0.66198 -4.85377,0.56069 -4.85377,0.56069"/></g><g fill="none" stroke="none" stroke-width="1" font-family="sans-serif" font-weight="normal" font-size="12" text-anchor="start"/><g fill="none" stroke="none" stroke-width="1" font-family="sans-serif" font-weight="normal" font-size="12" text-anchor="start"/></g><g><g fill="#9497a4" stroke="#000000" stroke-width="1.2"><path d="M165.58387,253.57661c0,0 -4.30113,0.10129 -4.94531,-0.56069c-0.49707,-0.51081 -1.05095,-7.26859 -0.63373,-7.76352c0.42831,-0.50808 4.74023,-0.51756 4.74023,-0.51756"/></g><g fill="none" stroke="none" stroke-width="1" font-family="sans-serif" font-weight="normal" font-size="12" text-anchor="start"/><g fill="none" stroke="none" stroke-width="1" font-family="sans-serif" font-weight="normal" font-size="12" text-anchor="start"/></g></g></g><g><g><g><g fill="#868995" stroke="#000000" stroke-width="1.2"><path d="M166.84307,271.93164c0,0 11.15188,0.0245 12.47367,1.33808c1.28757,1.27958 2.70793,18.75092 1.63842,20.07154c-1.38604,1.71146 -12.54877,1.44959 -12.54877,1.44959"/></g><g fill="none" stroke="none" stroke-width="1" font-family="sans-serif" font-weight="normal" font-size="12" text-anchor="start"/><g fill="none" stroke="none" stroke-width="1" font-family="sans-serif" font-weight="normal" font-size="12" text-anchor="start"/></g><g><g fill="#868995" stroke="#000000" stroke-width="1.2"><path d="M169.09368,294.79085c0,0 -11.11999,0.26187 -12.78543,-1.44959c-1.28511,-1.32062 -2.71709,-18.79196 -1.63842,-20.07153c1.10733,-1.31358 12.25522,-1.33808 12.25522,-1.33808"/></g><g fill="none" stroke="none" stroke-width="1" font-family="sans-serif" font-weight="normal" font-size="12" text-anchor="start"/><g fill="none" stroke="none" stroke-width="1" font-family="sans-serif" font-weight="normal" font-size="12" text-anchor="start"/></g></g><g><g><g fill="#4e4f56" stroke="#000000" stroke-width="1.2"><path d="M166.95784,273.27847c0,0 9.8386,0.02162 11.00473,1.18051c1.13595,1.12889 2.38904,16.54275 1.44547,17.70785c-1.22281,1.50991 -11.07099,1.27888 -11.07099,1.27888"/></g><g fill="none" stroke="none" stroke-width="1" font-family="sans-serif" font-weight="normal" font-size="12" text-anchor="start"/><g fill="none" stroke="none" stroke-width="1" font-family="sans-serif" font-weight="normal" font-size="12" text-anchor="start"/></g><g><g fill="#4e4f56" stroke="#000000" stroke-width="1.2"><path d="M168.9434,293.44571c0,0 -9.81046,0.23103 -11.27978,-1.27888c-1.13378,-1.1651 -2.39712,-16.57896 -1.44547,-17.70785c0.97693,-1.15889 10.812,-1.18051 10.812,-1.18051"/></g><g fill="none" stroke="none" stroke-width="1" font-family="sans-serif" font-weight="normal" font-size="12" text-anchor="start"/><g fill="none" stroke="none" stroke-width="1" font-family="sans-serif" font-weight="normal" font-size="12" text-anchor="start"/></g></g><g><g><g fill="#9497a4" stroke="#000000" stroke-width="1.2"><path d="M167.53167,280.01263c0,0 3.2722,0.00719 3.66005,0.39262c0.3778,0.37545 0.79457,5.50193 0.48075,5.88942c-0.40669,0.50218 -3.68208,0.42534 -3.68208,0.42534"/></g><g fill="none" stroke="none" stroke-width="1" font-family="sans-serif" font-weight="normal" font-size="12" text-anchor="start"/><g fill="none" stroke="none" stroke-width="1" font-family="sans-serif" font-weight="normal" font-size="12" text-anchor="start"/></g><g><g fill="#9497a4" stroke="#000000" stroke-width="1.2"><path d="M168.19205,286.72002c0,0 -3.26285,0.07684 -3.75152,-0.42534c-0.37708,-0.3875 -0.79725,-5.51397 -0.48074,-5.88942c0.32492,-0.38543 3.59594,-0.39262 3.59594,-0.39262"/></g><g fill="none" stroke="none" stroke-width="1" font-family="sans-serif" font-weight="normal" font-size="12" text-anchor="start"/><g fill="none" stroke="none" stroke-width="1" font-family="sans-serif" font-weight="normal" font-size="12" text-anchor="start"/></g></g></g></g><path d="M187.3461,300.92055l-3.94905,-103.37655h113.20589l-3.94904,103.37655z" fill="#868995" stroke="#000000" stroke-width="1.2" stroke-linecap="butt"/><path d="M192.35429,176.0774" fill="none" stroke="#000000" stroke-width="1.2" stroke-linecap="round"/><path d="M200.34224,180.47576" fill="none" stroke="#000000" stroke-width="1.2" stroke-linecap="round"/><g><g stroke-linecap="round"><g stroke="#000000" stroke-width="1.2"><path d="M205.50765,157.60745c-15.79599,-2.76401 -27.14926,-33.51829 -27.14926,-33.51829c10.04335,-1.4959 14.19382,2.29034 14.72939,2.65187c0.53571,0.36238 10.41955,8.49939 10.41955,8.49939c-0.84348,13.43623 2.00031,22.36703 2.00031,22.36703zM203.8954,132.38209c0,0 -0.355,2.03655 -0.40583,3.14248M205.50765,157.60745c0.28549,0.89869 1.0907,2.28954 1.0907,2.28954" fill="#be1e2d"/><path d="M199.00029,154.41076c-2.98144,-1.97039 -6.61989,-5.06507 -10.08807,-9.82385c-3.09215,-4.24317 -6.31561,-10.8752 -8.37022,-15.44397l0.06317,-0.06776c6.19355,-1.33206 9.91273,2.76164 9.91273,2.76164l0.23145,0.32818c1.54271,2.42676 3.19288,4.86085 4.52107,6.41028c0.78412,0.91625 1.61662,1.71328 2.39133,2.37532c0,0 1.63707,4.21735 1.97326,7.19424c0.5034,4.40314 -0.75817,6.19929 -0.75817,6.19929z" fill="#929497"/></g><path d="M267.11453,168.498l-10.60504,8.74726l-24.23911,0.98885l-10.17213,4.77603l-15.55622,-4.15342l-6.83969,-8.1033l-5.95337,-9.76395l-3.69727,-12.37463l0.27432,-12.30792l2.80811,-9.44636l4.60753,-9.2923l6.39402,-8.46011l7.29098,-7.60967l8.15296,-7.0446l5.74036,-4.06528l2.46282,-2.88192l2.65785,-4.6989l1.74287,-4.53764l1.40763,-6.10335l-0.52921,-8.17118l4.68491,5.55258l4.88434,7.17892l0.13504,-3.92241l1.02994,2.11981l4.05383,6.68545l5.70329,6.32216l3.75219,2.96965l5.4676,4.40012l6.65572,5.29796l5.98837,6.13514l4.96342,6.56794l4.29607,7.40511l3.18048,7.09868l1.0762,7.52071l0.4698,7.59904l-1.03964,6.59254l-2.39247,8.11903l-2.92478,5.03378l-5.04242,6.80605z" fill="#be1e2d" stroke="#8c8c8c" stroke-width="0"/><path d="M277.9098,169.60389l-10.84629,-1.02799l-10.58749,8.90572l-24.1731,0.72005l-10.18049,4.73265l-14.80258,-3.43685c0,0 -48.75318,-41.91971 17.69642,-88.55163c0,0 11.65793,-11.63126 7.57256,-27.70617c-0.33227,-1.30743 9.8548,13.45116 9.8548,13.45116c0,0 -0.14659,-5.3136 0.08594,-4.65247c2.57696,7.32695 11.57778,16.58955 11.57778,16.58955c56.18409,36.89618 28.74864,75.1891 28.74864,75.1891z" fill="none" stroke="#000000" stroke-width="1.2"/><g stroke="#000000" stroke-width="1.2"><path d="M280.95126,125.34279c0,0 7.99008,-11.25791 8.44265,-11.79748c0.45265,-0.53876 3.71629,-5.59779 14.25698,-8.27114c0,0 -3.86863,32.15116 -19.1778,40.9495c0,0 0.66461,-9.15525 -3.52184,-20.88088zM281.03972,125.5908c-0.32574,-0.97257 -1.19031,-2.659 -1.19031,-2.659M283.9365,148.71539c0,0 0.47038,-1.57071 0.53658,-2.49171" fill="#be1e2d"/><path d="M290.37796,140.64222c0,0 -1.72291,-1.10806 -2.30521,-5.26249c-0.3979,-2.80706 0.21383,-7.24804 0.21383,-7.24804c0.62027,-0.90417 1.26557,-1.95266 1.83231,-3.08883c0.96063,-1.92222 2.02784,-4.76743 2.98809,-7.56309l0.15298,-0.38719c0,0 2.75066,-5.16258 9.35249,-6.44349l0.08078,0.03558c-0.94734,4.92345 -2.56651,12.16669 -4.64519,17.21273c-2.33157,5.65932 -5.24828,9.89274 -7.77854,12.85401z" fill="#929497"/></g></g><g><g><path d="M277.06823,147.73168c1.97635,15.70309 -13.39606,30.56935 -34.33524,33.20471c-20.9392,2.63537 -39.51592,-7.95812 -41.49228,-23.66121c-1.97635,-15.70309 13.39605,-30.56935 34.33524,-33.20471c20.9392,-2.63537 39.51592,7.95812 41.49228,23.66121z" fill="#e6e7e8" stroke="#000000" stroke-width="1.2" stroke-linecap="butt"/><path d="M217.73684,180.32182l2.23023,2.64863l2.81281,1.72485l-1.82047,0.60709l-4.36648,-0.58436l-4.02729,-1.85549l-1.80198,-2.41904l-4.86035,-2.12861l-3.65758,-2.09101l0.20104,2.37112c-5.59316,-9.3211 -14.5948,-18.84493 -12.38416,-32.20831c26.03095,-30.77637 71.49814,-39.28186 88.83753,-7.752c0.23186,0.42162 0.44973,0.84275 0.65418,1.26343c0.15581,0.63691 0.27044,1.23307 0.32911,1.77497c0.66365,6.1299 0.48441,12.20896 0.61509,18.40816c0.00861,0.40843 -0.04808,0.8663 -0.14565,1.35004l-0.81454,1.35999l-0.33471,-1.42653l-2.11261,5.40618l-4.47662,5.11624l-2.87301,1.83025l-0.06944,-4.25035l-0.57509,-5.80223l-1.04052,-4.56874l-1.08744,-0.01001l0.27629,-1.50342l0.93803,-3.64282l-0.35673,-4.06733l-1.17507,-4.40493l-3.7718,-4.07811l-6.17936,-3.48138l-8.03772,-2.21942l-9.2669,-0.8898l2.4368,0.86823l3.87713,2.44934l2.26967,3.2391l-17.34818,-2.22256l-16.75539,-2.44403l-0.39982,2.98764l-2.15618,6.29285l-2.05803,5.83991l0.67326,5.34928l3.25178,4.8779l4.44456,3.25911l-3.13493,0.98202l-2.74947,0.34604l0.43669,3.46981l2.15332,3.54749l2.40423,3.07531l2.65514,2.60313z" fill="#be1e2d" stroke="#8c8c8c" stroke-width="0" stroke-linecap="butt"/><path d="M213.27635,136.64104c-0.62315,8.0344 -5.02203,12.52396 -4.49036,16.6852c1.09437,8.56526 8.54644,11.60086 8.54644,11.60086c0,0 -5.12047,3.13847 -11.44914,-0.03939" fill="none" stroke="#000000" stroke-width="1.2" stroke-linecap="round"/><path d="M200.83379,156.87209c-0.81631,-1.54337 -1.61652,-3.32396 -2.38803,-5.37475" fill="none" stroke="#000000" stroke-width="1.2" stroke-linecap="round"/><path d="M206.7614,134.80045c15.61181,4.22253 41.11241,6.0939 41.11241,6.0939c0,0 -2.91521,-4.18107 -8.70499,-6.10355c0,0 36.2055,-0.55187 27.07273,24.60672c0,0 3.47951,-2.07553 5.73208,-5.89513" fill="none" stroke="#000000" stroke-width="1.2" stroke-linecap="round"/><path d="M273.44891,144.40514c0.33722,1.77298 0.52279,2.59442 0.22927,4.07773" fill="none" stroke="#000000" stroke-width="1.2" stroke-linecap="round"/><path d="M278.32189,162.1027c-1.43328,6.83989 -9.13765,11.47924 -9.13765,11.47924c0,0 0.30737,-9.75169 -1.86145,-14.79001" fill="none" stroke="#000000" stroke-width="1.2" stroke-linecap="round"/><path d="M200.3174,156.64247c-3.83164,7.91018 2.22629,21.63023 2.22629,21.63023c0,0 -17.09925,-20.19163 -12.03757,-32.94476" fill="none" stroke="#000000" stroke-width="1.2" stroke-linecap="round"/><path d="M281.10272,159.74556c-1.24472,2.47991 -2.26138,3.85679 -2.26138,3.85679c0,0 0.28296,-9.72681 -5.19443,-14.99654" fill="none" stroke="#000000" stroke-width="1.2" stroke-linecap="round"/><path d="M211.56959,166.43492c-0.62418,6.80349 7.72888,12.79952 7.72888,12.79952c0,0 -10.29228,3.20252 -17.48293,-3.59024" fill="none" stroke="#000000" stroke-width="1.2" stroke-linecap="round"/><path d="M217.04164,179.79707c1.4111,3.14108 5.86455,4.8846 5.86455,4.8846c0,0 -8.20514,2.51787 -13.03368,-4.76687" fill="none" stroke="#000000" stroke-width="1.2" stroke-linecap="round"/></g><g><path d="M260.62098,148.42114c0.54072,-0.1011 0.87976,0.69468 1.01872,1.03135c0.52102,1.26238 0.53273,2.81854 -0.38541,3.87499l-0.40349,0.10147c-0.17765,0.08746 -0.43482,0.13126 -0.79456,0.10995c-3.02661,-0.17929 -5.6836,-0.39719 -8.65755,0.80516c-0.85321,0.34495 -2.32651,1.78381 -3.05466,1.94342c-0.934,0.20474 -1.28985,-0.02316 -1.49459,-0.95715c-0.19979,-0.9114 1.50183,-1.72632 2.11356,-2.05424c2.12974,-1.14166 4.55368,-1.80012 6.97155,-2.04998c0.48308,-0.51052 0.73294,-1.11127 1.01761,-1.85095c0.08188,-0.21275 0.42242,-1.04259 0.51169,-1.05801c1.00252,-0.1732 1.219,1.51527 1.20405,2.77653c0.26464,0.00488 0.53261,0.01864 0.77952,0.04689c0.3749,-1.10057 0.78658,-2.64707 1.17354,-2.71942z" fill="#000000" stroke="none" stroke-width="0.5" stroke-linecap="butt"/><path d="M222.5326,157.57734c0.20571,-0.12657 0.43406,-0.24608 0.6622,-0.35494c-0.3924,-1.32481 -0.71255,-3.19103 0.20932,-3.40114c0.08209,-0.01871 0.62718,0.72334 0.76223,0.91572c0.46951,0.66884 0.86702,1.20474 1.43971,1.55404c2.17288,-0.68387 4.47396,-0.93902 6.66516,-0.56911c0.62939,0.10625 2.35085,0.29919 2.45171,1.33904c0.10335,1.06563 -0.13684,1.44551 -1.00875,1.59551c-0.67975,0.11694 -2.39084,-0.82376 -3.23485,-0.85334c-2.94189,-0.10313 -5.18152,1.16792 -7.75343,2.54311c-0.3057,0.16346 -0.542,0.21804 -0.72243,0.19538l-0.38059,0.05105c-1.11438,-0.7548 -1.57237,-2.40118 -1.50012,-3.9372c0.01927,-0.40965 0.07404,-1.38209 0.57357,-1.48731c0.3575,-0.07529 1.1799,1.39499 1.83626,2.40921z" fill="#000000" stroke="none" stroke-width="0.5" stroke-linecap="butt"/><path d="M254.12005,164.08663c-9.45354,9.90398 -22.46762,6.35719 -22.46762,6.35719" fill="none" stroke="#000000" stroke-width="1.2" stroke-linecap="round"/></g></g></g><path d="M266.95966,164.10718" fill="none" stroke="#000000" stroke-width="1.2" stroke-linecap="round"/><g stroke="#000000" stroke-width="1.2" stroke-linecap="butt"><g fill="#868995"><path d="M240.75084,244.52207c0,0 -41.94558,0.42456 -44.92372,-2.35022c-2.29803,-2.14112 -2.30937,-30.46732 0,-32.5419c2.37074,-2.1297 44.33295,-2.16943 44.33295,-2.16943"/><path d="M239.83992,207.46052c0,0 41.96221,0.03973 44.33295,2.16943c2.30938,2.07458 2.29804,30.40079 0,32.5419c-2.97814,2.77478 -44.92372,2.35022 -44.92372,2.35022"/></g><g fill="#4e4f56"><path d="M240.71252,242.40879c0,0 -39.80476,0.37611 -42.6309,-2.08203c-2.18075,-1.89678 -2.19151,-26.99059 0,-28.82843c2.24974,-1.88667 42.07028,-1.92187 42.07028,-1.92187"/><path d="M239.84809,209.57646c0,0 39.82055,0.0352 42.07029,1.92187c2.19151,1.83784 2.18075,26.93165 0,28.82843c-2.82614,2.45814 -42.63091,2.08203 -42.63091,2.08203"/></g><g fill="#9497a4"><path d="M240.2322,231.45281c0,0 -12.9719,0.12494 -13.8929,-0.69163c-0.71068,-0.6301 -0.71419,-8.96603 0,-9.57654c0.73316,-0.62673 13.7102,-0.63843 13.7102,-0.63843"/><path d="M239.9505,220.54622c0,0 12.97703,0.0117 13.7102,0.63843c0.71418,0.61051 0.71068,8.94644 0,9.57654c-0.92101,0.81657 -13.8929,0.69163 -13.8929,0.69163"/></g></g><g stroke="#000000" stroke-width="1.2" stroke-linecap="butt"><g fill="#868995"><path d="M240.65981,285.68287c0,0 -36.86021,0.37309 -39.47728,-2.06529c-2.01943,-1.88153 -2.02939,-26.77355 0,-28.59661c2.08332,-1.8715 38.95814,-1.90641 38.95814,-1.90641"/><path d="M239.85933,253.11456c0,0 36.87483,0.03491 38.95815,1.90641c2.02939,1.82306 2.01943,26.71508 0,28.59661c-2.61708,2.43837 -39.47729,2.06528 -39.47729,2.06528"/></g><g fill="#4e4f56"><path d="M240.62614,283.82579c0,0 -34.97894,0.33051 -37.46244,-1.82961c-1.91636,-1.66682 -1.92582,-23.71832 0,-25.33335c1.97699,-1.65794 36.96979,-1.68887 36.96979,-1.68887"/><path d="M239.86651,254.97397c0,0 34.99281,0.03093 36.9698,1.68887c1.92582,1.61503 1.91636,23.66653 0,25.33335c-2.48351,2.16012 -37.46245,1.82961 -37.46245,1.82961"/></g><g fill="#9497a4"><path d="M240.20405,274.19809c0,0 -11.39922,0.10979 -12.20856,-0.60778c-0.62452,-0.5537 -0.6276,-7.87901 0,-8.4155c0.64428,-0.55075 12.04801,-0.56103 12.04801,-0.56103"/><path d="M239.9565,264.61378c0,0 11.40373,0.01028 12.04801,0.56103c0.6276,0.53649 0.62452,7.8618 0,8.41551c-0.80934,0.71757 -12.20856,0.60777 -12.20856,0.60777"/></g></g><g stroke="#000000" stroke-width="1.2"><path d="M232.55132,178.63595c0.19299,-0.0302 0.37797,-0.05415 0.55516,-0.07206c0.29603,-0.08192 0.6085,-0.09682 0.91226,-0.0388c6.81761,0.17276 -1.81275,12.05761 -4.40714,12.88031c-2.20006,0.69765 -6.72841,-0.76286 -5.63942,-3.93541c0.39306,-1.14508 7.43681,-8.40866 8.52003,-8.75216z" fill="#be1e2d" stroke-linecap="butt"/><g><path d="M223.61116,195.77211c-0.21296,-0.23725 -2.71284,-3.21691 -2.71284,-3.21691c0,0 0.52174,5.03168 -2.83885,6.40562c-1.81961,0.74393 -5.63883,0.16986 -7.67755,0.32794c0,0 -2.33325,0.17914 -2.45328,-2.14956c-0.12004,-2.3287 2.21321,-2.50783 2.21321,-2.50783c0.4519,-0.03438 1.01472,-0.01541 1.62521,0.02045c2.69901,-5.98803 4.44584,-15.85863 12.52079,-10.78639c3.31461,2.08205 4.01731,2.90403 4.01731,2.90403c0,0 3.43344,-10.04095 8.07291,-9.42828c15.14177,1.99956 8.75546,19.97177 2.79224,20.62974c-9.04686,0.99821 -12.96622,0.68982 -15.55916,-2.19881z" fill="#be1e2d" stroke-linecap="butt"/><path d="M229.69992,191.84931c-0.4727,-3.20306 2.49991,-14.1335 7.27661,-10.78277c3.76007,2.63759 1.57741,8.33619 -0.07559,11.27005c-1.86079,3.30266 -6.68869,2.98429 -7.20102,-0.48728z" fill="#e6e7e8" stroke-linecap="round"/></g><path d="M242.23641,180.09383c1.21373,-1.58434 3.83761,-1.18759 4.92369,-0.84674c3.07855,0.96615 3.13459,3.66846 3.69494,6.67218c0.4874,2.61271 1.51798,5.50079 3.21097,7.07516c3.29084,0.87774 9.11942,-0.09053 8.09367,4.34581c-0.24594,1.06366 -6.10058,1.54055 -8.3571,1.6162c1.40071,2.40989 -1.03125,2.72103 -3.14989,1.46096c-0.86896,-0.51682 -2.97757,-1.32729 -4.34109,-2.87032c-1.36352,-1.54303 -0.46859,-2.36486 -0.59782,-3.57746c-0.2932,-2.75101 -1.42133,-3.85461 -2.1561,-6.36734" fill="#be1e2d" stroke-linecap="butt"/><path d="M224.11866,183.81383c-0.2916,1.27292 -1.81371,1.63144 -1.81371,1.63144c0,0 -1.23798,2.43562 -4.9609,3.24193c-5.0153,1.08622 -6.05073,-5.19047 -1.19112,-7.53982c0,0 4.08648,-2.56991 6.15868,-1.93709c0.6952,0.2123 0.66672,1.26761 0.97357,1.95597c0.61551,1.38082 1.12508,1.37465 0.83348,2.64757z" fill="#be1e2d" stroke-linecap="butt"/></g><path d="M239.00204,198.14484c2.90756,4.84297 3.23045,16.5247 -3.38444,15.56921c-1.01175,-0.14614 -1.65644,-1.03454 -2.48464,-1.55181c-0.89617,-2.31077 -1.03185,-4.73242 -1.96621,-7.02884c-0.86726,-2.13153 -2.96714,-4.27614 -3.12495,-6.66969c-0.30725,-4.66021 7.38762,-7.26451 10.76829,-4.64028" fill="#be1e2d" stroke="#000000" stroke-width="1.2" stroke-linecap="butt"/><path d="M78.0357,341.9643v-323.92859h323.92859v323.92859z" fill="none" stroke="#000000" stroke-width="0" stroke-linecap="butt"/></g></g></svg>