<svg version="1.1" xmlns="http://www.w3.org/2000/svg" xmlns:xlink="http://www.w3.org/1999/xlink" width="112.90262" height="120.68422" viewBox="0,0,112.90262,120.68422"><g transform="translate(-190.85367,-117.5453)"><g stroke-miterlimit="10"><path d="M258.04819,214.01007c2.5853,1.4536 6.09582,7.47406 2.82835,9.46031c-0.93292,0.56711 -2.21341,0.34725 -3.27409,0.08858c-0.4625,-0.11279 -2.4599,-2.63935 -3.60742,-4.56693c-0.11293,-0.13199 -0.21674,-0.27479 -0.3099,-0.42804c-0.18309,-0.3012 -0.31143,-0.62035 -0.38784,-0.94584c-0.31268,-1.33199 0.24423,-2.77023 1.47681,-3.5195c0.90377,-0.54939 1.96913,-0.60577 2.8826,-0.2456c0.13475,0.03519 0.26556,0.08621 0.39149,0.15702z" fill="#9a8479" stroke="#000000" stroke-width="1.2" stroke-linecap="butt"/><g fill="#9a8479" stroke="#000000" stroke-width="1.2" stroke-linecap="butt"><path d="M253.16519,224.98085c0,0 -0.82165,5.22774 -1.01214,7.13847c-0.18688,1.91063 -0.24413,3.68822 -0.24413,3.68822c0,0 0.61215,0.34929 0.1846,1.09892c-0.42695,0.75337 -2.86146,0.71688 -5.98116,0.8829c-3.12068,0.16691 -5.46269,-0.36213 -5.71445,-1.15826c-0.25277,-0.78714 0.74066,-1.06708 0.74066,-1.06708c0,0 2.50448,-5.17305 2.32702,-7.52882c-0.23626,-3.14189 1.38461,-3.95998 5.43426,-5.46209v0v0v0v0v0v0c4.04965,-1.50211 4.26533,2.40773 4.26533,2.40773z"/><path d="M245.77649,208.67383v0v0v0v0v0v0c8.27327,-0.62376 10.10617,4.05299 10.10462,4.0521c0.33347,1.20795 0.69249,2.91231 0.61247,4.46855c-0.0223,0.42988 -0.09512,0.91356 -0.22084,1.43237c0,0 -0.53444,1.80207 -0.85897,2.35221c-1.36046,2.30475 -3.24369,4.82759 -6.4265,5.96827c-4.99912,1.79848 -9.74356,1.57773 -14.09722,-0.78533c-1.46985,-0.79518 -2.10192,-2.15035 -2.22403,-3.69306c-0.08461,-1.11025 0.14213,-2.55784 0.14213,-2.55784c0.41379,-2.40793 1.47175,-4.75845 1.97335,-5.78064c0,0 2.72274,-4.83296 10.99499,-5.45663z"/><path d="M241.72915,227.60244c-0.1339,0.33101 -0.24569,0.53673 -0.24569,0.53673c0,0 -1.60622,3.23453 -2.1409,4.99083c-0.53569,1.7564 -0.67037,2.48244 -0.67037,2.48244c0,0 0.50553,0.05919 0.18418,0.72783c-0.31799,0.66954 -2.09846,1.39557 -6.51302,1.27629c-4.4148,-0.12475 -4.9882,-1.12546 -4.85547,-1.63701c0.13084,-0.51154 1.25096,-1.03037 1.25096,-1.03037c0,0 1.41208,-3.27125 2.91829,-6.11542c0.85482,-1.6128 1.93424,-3.18902 2.70915,-4.25212"/></g><g stroke="#000000"><path d="M287.73593,159.94678c0,0 11.52132,-11.78959 14.50971,-4.23465c2.98846,7.55483 -1.52884,17.95768 -11.34346,28.47633c0,0 -0.26409,-14.10696 -3.16626,-24.24169zM287.73593,159.94678c-0.25482,-1.20234 -1.03678,-3.44465 -1.03678,-3.44465M290.71519,186.42913l0.04823,-2.29918" fill="#9a8479" stroke-width="1.2" stroke-linecap="round"/><path d="M290.76338,184.12905c-0.02455,-2.61743 -0.17563,-6.90577 -0.77253,-12.18168c-0.345,-3.07104 -0.91453,-6.19758 -1.48086,-8.88359l0.00139,0.00335c6.85402,-3.86291 13.34926,4.09994 13.34926,4.09994l0.00252,-0.00049c-3.18468,8.89009 -11.05205,16.72444 -11.05205,16.72444l-0.04773,0.23801v0v0v0v0z" fill="#ee4036" stroke-width="1.2" stroke-linecap="butt"/><path d="M207.62917,196.44728v0v0v0v0v0v0c-0.05064,-0.0813 -1.52674,-2.36346 -1.52677,-2.36446c-4.08549,-6.0787 -5.43002,-20.10016 -5.24554,-24.49718l0.0225,-0.21111c0.45564,-18.62604 8.75628,-28.84654 13.67952,-34.27423c11.17432,-12.32755 28.72138,-13.42108 28.72138,-13.42108l1.0403,12.0444c0,0 -0.15359,-3.46906 6.70221,-9.78059c6.854,-6.31147 17.33114,-5.78708 17.33114,-5.78708l-5.01959,15.31246c0,0 3.10459,-4.82307 5.72296,-6.63701c4.64232,-3.21084 8.70226,-2.0408 8.70226,-2.0408l-0.78176,9.41661c0,0 7.38328,8.91533 13.0895,17.33543c1.22092,1.79641 2.62652,3.60903 3.55109,5.71809c3.362,7.6628 4.28815,21.49563 1.05864,28.47502c-0.5568,1.23432 -1.16809,2.4353 -1.80445,3.61724c-0.16559,0.30361 -0.33214,0.60546 -0.50151,0.9038c-0.58434,1.04025 -1.19645,2.06156 -1.84299,3.05344c-0.08748,0.13211 -0.16668,0.27203 -0.25416,0.40424c-0.73392,1.10407 -1.51148,2.16993 -2.32263,3.20813c-0.19355,0.25045 -0.39827,0.49308 -0.59647,0.74189c-0.69631,0.85822 -1.41961,1.69386 -2.16376,2.49951c-0.17138,0.18835 -0.33818,0.37914 -0.51158,0.56115c-0.89672,0.93921 -1.83359,1.83728 -2.80079,2.69758c-0.21559,0.18898 -0.43685,0.36995 -0.65447,0.55529c-0.81299,0.69616 -1.65499,1.36351 -2.51781,2.00177c-0.24925,0.18194 -0.49189,0.37265 -0.74307,0.55106c-1.05507,0.74697 -2.13783,1.45158 -3.25841,2.10687c-0.19993,0.11799 -0.41303,0.22283 -0.61589,0.33732c-0.95833,0.5414 -1.94065,1.04301 -2.94575,1.51109c-4.25164,1.97878 -8.89598,3.33208 -13.9146,3.86884c-5.73561,0.61304 -10.94692,0.61925 -15.67004,0.1691c-1.16785,-0.11124 -2.30515,-0.25325 -3.41352,-0.41797c-0.21074,-0.03513 -0.42052,-0.06848 -0.6293,-0.10187c-1.12425,-0.18129 -2.22837,-0.37948 -3.28938,-0.61269c-0.00636,-0.00158 -0.01452,-0.0031 -0.02177,-0.00465c-1.06281,-0.23034 -2.08607,-0.49458 -3.08647,-0.77771c-0.1751,-0.04897 -0.3547,-0.09778 -0.52893,-0.14778c-0.9614,-0.27808 -1.89927,-0.57869 -2.80435,-0.90025c-0.15907,-0.05403 -0.31292,-0.11644 -0.47105,-0.1723c-0.89358,-0.32476 -1.76587,-0.66466 -2.60383,-1.02737c-0.0322,-0.0169 -0.06779,-0.02747 -0.09903,-0.0426c-0.85818,-0.37461 -1.67922,-0.76863 -2.47791,-1.17342c-0.14902,-0.07599 -0.29698,-0.15031 -0.44221,-0.22653c-0.76888,-0.40212 -1.51469,-0.81415 -2.22659,-1.24076c-0.10878,-0.06397 -0.21226,-0.13083 -0.32016,-0.19563c-0.67622,-0.41344 -1.33117,-0.83672 -1.95844,-1.26996c-0.06456,-0.04109 -0.13561,-0.08466 -0.19773,-0.13033c-0.6543,-0.45662 -1.2737,-0.92536 -1.87163,-1.39834c-0.11611,-0.09083 -0.23036,-0.18253 -0.34187,-0.27343c-0.58345,-0.47358 -1.14533,-0.94872 -1.67525,-1.43676c-0.06047,-0.05304 -0.11577,-0.10976 -0.17537,-0.16363c-0.49926,-0.46389 -0.97415,-0.93213 -1.42387,-1.40135c-0.0629,-0.06816 -0.13383,-0.13435 -0.19757,-0.20068c-0.46138,-0.49402 -1.46206,-1.66898 -1.53935,-1.76286c-0.40365,-0.49692 -0.78937,-0.99357 -1.13972,-1.48874c-0.02178,-0.03086 -0.04276,-0.06176 -0.06274,-0.09258c-0.33621,-0.47675 -0.64328,-0.9472 -0.9314,-1.4166z" fill="#9a8479" stroke-width="1.2" stroke-linecap="butt"/><path d="M283.24233,165.50592v0v0v0v0v0v0c0,0 14.00365,12.98705 7.62436,23.96711c-7.60786,13.0947 -20.55127,18.27144 -34.51063,17.81714c-18.45367,-0.60189 -27.39534,-12.03769 -24.75348,-23.33852c2.64606,-11.30098 26.83877,-17.37898 26.83877,-17.37898l-3.72386,8.18253c0,0 3.13475,-0.6303 5.62738,-2.27649c2.49198,-1.64336 5.2121,-3.81463 5.2121,-3.81463l-5.52553,9.04201c0,0 7.69923,-0.35516 14.26999,-3.44239c6.57088,-3.08363 8.9409,-8.75778 8.9409,-8.75778z" fill="#e6e7e8" stroke-width="1.2" stroke-linecap="butt"/><path d="M211.9563,194.6912c-14.24161,-5.10321 -22.08351,-12.3995 -20.23534,-20.41339c1.84904,-8.01472 18.43862,-2.51986 18.43862,-2.51986c-1.14782,10.27059 1.79673,22.93324 1.79673,22.93324zM210.61124,168.24541c0,0 -0.42313,2.33175 -0.45077,3.51251M212.10956,194.57752l0.59026,2.02498" fill="#9a8479" stroke-width="1.2" stroke-linecap="round"/><path d="M211.99731,194.38739c0,0 -11.27862,-3.56027 -17.16679,-10.08663l0.00267,-0.00099c0,0 5.97398,-9.89615 15.11449,-9.43022l0.00081,-0.00273c-0.06047,2.63337 -0.02242,5.66137 0.27327,8.54156c0.50203,4.95179 1.31193,8.83137 1.88781,11.16914z" fill="#ee4036" stroke-width="1.2" stroke-linecap="butt"/><path d="M281.29876,186.14021c-0.58187,0.02016 -1.10713,-0.43553 -1.22652,-1.0985c-0.13075,-0.73381 0.29226,-1.44358 0.94474,-1.58436c0.59343,-0.12622 5.85362,-1.23729 7.81339,-1.03252c0.66302,0.07089 1.1551,0.73085 1.10124,1.47106c-0.05776,0.74585 -0.65067,1.2827 -1.30273,1.22494c-1.23296,-0.12519 -5.02843,0.54071 -7.13977,0.99297c-0.06371,0.01662 -0.12773,0.02424 -0.19034,0.02641z" fill="#231f20" stroke-width="0.5" stroke-linecap="butt"/><path d="M260.30389,188.13918c-0.08475,0.00294 -0.17081,-0.00309 -0.25969,-0.01542c-3.14445,-0.49584 -8.61605,0.30937 -8.66993,0.31664c-0.72695,0.10643 -1.42618,-0.39656 -1.53847,-1.13642c-0.11042,-0.73822 0.39842,-1.42745 1.13874,-1.53795c0.24271,-0.03272 5.93438,-0.87167 9.49187,-0.3125c0.73723,0.11525 1.24352,0.80813 1.12652,1.54963c-0.10322,0.64536 -0.65492,1.11404 -1.28904,1.13601z" fill="#231f20" stroke-width="0.5" stroke-linecap="butt"/></g><path d="M249.20001,193.96666c0,0 10.22152,-0.27293 14.33118,0.02925c3.23411,0.2378 8.33548,1.63741 8.33548,1.63741c0,0 -10.03984,15.70785 -19.66667,15c-9.62683,-0.70785 -3,-16.66667 -3,-16.66667z" fill="#706d6d" stroke="#231f20" stroke-width="1.2" stroke-linecap="round"/><g stroke="#000000" stroke-width="1.2"><path d="M241.55359,223.79386l-1.03038,0.21837c-1.47242,0.1332 -3.07244,1.01376 -4.41726,0.3996c-3.69395,-1.68699 -3.44126,-4.35133 -3.8732,-7.40946c0,0 -0.35411,-3.23066 2.87654,-3.58477c3.23065,-0.35411 3.58476,2.87654 3.58476,2.87654c0.10309,2.08036 -0.609,2.38693 0.48152,1.35932l1.03038,-0.21837c0,0 3.17939,-0.67381 3.8532,2.50557c0.67381,3.17938 -2.50557,3.85319 -2.50557,3.85319z" fill="#9a8479" stroke-linecap="butt"/><g><path d="M247.37971,208.89789c2.82789,-0.48081 5.51012,1.42187 5.99093,4.24976c0.48081,2.82789 -1.42187,5.51012 -4.24976,5.99093c-2.82789,0.48081 -5.51012,-1.42187 -5.99093,-4.24976c-0.48081,-2.82789 1.42187,-5.51012 4.24976,-5.99093z" fill="#5c5e5f" stroke-linecap="butt"/><path d="M246.08787,220.04451l-0.6905,2.55454l-1.92864,0.23418l-2.28938,1.42035l-1.10057,-2.06254" fill="#9a8479" stroke-linecap="round"/><path d="M246.66606,215.60067l-0.07257,4.28586l-6.61172,3.52801l-4.07563,-1.97799l-0.92165,-3.84972l7.30221,-4.17961z" fill="#9a8479" stroke-linecap="round"/><path d="M244.2268,218.27961l0.15556,2.44513" fill="none" stroke-linecap="round"/><path d="M241.2887,222.42149l-0.23646,-1.39071" fill="none" stroke-linecap="round"/><path d="M236.59812,219.31652l1.43625,0.79646l0.25795,1.51714l-1.95582,1.50328l-1.81553,-0.73198l-0.30094,-1.77z" fill="#5c5e5f" stroke-linecap="round"/></g></g><path d="M256.3563,218.405c0.00798,-0.06744 0.18948,-1.69346 0.19799,-1.75926c-0.00734,-0.17355 -0.00083,-0.34998 0.02051,-0.52805c0.04194,-0.34998 0.13805,-0.68027 0.27891,-0.98348c0.57644,-1.24084 1.90253,-2.02835 3.33473,-1.8567c1.05013,0.12586 1.92298,0.73928 2.41917,1.58661c0.08427,0.11087 0.15567,0.23178 0.21101,0.36523c1.13617,2.73968 0.18041,9.64304 -3.61624,9.18803c-0.88374,-0.10591 -2.3193,-1.45895 -2.92906,-2.1643" fill="#9a8479" stroke="#000000" stroke-width="1.2" stroke-linecap="butt"/></g></g></svg>