<svg version="1.1" xmlns="http://www.w3.org/2000/svg" xmlns:xlink="http://www.w3.org/1999/xlink" width="251.73636" height="218.18813" viewBox="0,0,251.73636,218.18813"><g transform="translate(-113.52426,-73.53453)"><g stroke-miterlimit="10"><g fill-rule="evenodd"><path d="M198.73617,187.55892c1.86567,-1.15951 4.02899,-2.73506 5.10409,-5.40898c2.52964,-6.00148 0.24897,-13.72288 4.54777,-12.98289c4.3862,0.71024 10.39095,12.40961 1.58524,19.60297c-3.02082,2.49685 -6.34296,3.62754 -9.09966,4.46088c-0.69941,0.23803 -7.0573,1.66759 -10.73669,-0.64705c-3.6794,-2.31462 -2.61169,-3.6222 -2.09831,-4.21656c0.5543,-0.7132 8.00416,0.73781 10.6976,-0.80836z" fill="#ffab19" stroke="#b83312" stroke-width="1.2" stroke-linecap="round" stroke-linejoin="round"/><path d="M207.95646,169.52377c2.02754,-0.06061 4.85502,3.38323 5.60845,6.79863c0.75343,3.41539 0.1917,5.49491 -0.34025,7.03977c-0.15069,-0.68308 -0.82409,-2.76188 -2.91491,-3.41409c-2.62652,-0.88952 -5.44271,1.01315 -5.44271,1.01315c0,0 0.94299,-4.30748 1.08616,-7.18874c0.32918,-2.52494 0.06874,-4.00994 2.00328,-4.24871z" fill="#ffffff" stroke="none" stroke-width="1" stroke-linecap="butt" stroke-linejoin="miter"/></g><g><path d="M180.6721,139.36131c0,0 0.0456,-29.01408 1.12099,-29.08115c1.44877,-0.09035 22.31399,10.91103 22.31399,10.91103" fill="#ffab19" fill-rule="nonzero" stroke="#b83312" stroke-width="1.2" stroke-linecap="round" stroke-linejoin="miter"/><path d="M232.19714,137.94834l10.66133,20.17164l-2.52017,5.63637l-30.519,1.1021z" fill="#9b7f41" fill-rule="nonzero" stroke="#7d5034" stroke-width="1.2" stroke-linecap="round" stroke-linejoin="miter"/><path d="M169.22324,153.6854c0,0 -7.78524,0.20026 -10.18331,-4.24386" fill="none" fill-rule="evenodd" stroke="#929292" stroke-width="1.2" stroke-linecap="round" stroke-linejoin="round"/><path d="M169.03142,159.57991c0,0 -4.69421,3.59798 -9.98468,0.72856" fill="none" fill-rule="evenodd" stroke="#929292" stroke-width="1.2" stroke-linecap="round" stroke-linejoin="round"/><path d="M193.80226,127.50986c10.91018,-3.34804 41.44885,1.83692 36.98284,29.4312c-0.05822,0.35975 -0.19906,0.70154 -0.33822,1.04194c-5.0824,12.43138 -19.1101,19.99736 -38.26454,19.51062c-19.15445,-0.48674 -25.58932,-11.70522 -25.36466,-17.52582c0.32258,-8.19066 7.11872,-10.14063 7.11872,-10.14063c0,0 -0.62431,-2.08457 1.60551,-8.04426c0,0 2.32029,-9.38145 18.26037,-14.27302z" fill="#ffab19" fill-rule="evenodd" stroke="#b83312" stroke-width="1.2" stroke-linecap="butt" stroke-linejoin="miter"/><path d="M219.17864,150.95984c8.38669,9.32274 -1.69416,26.78362 -26.39031,25.92322c-18.94047,-0.42178 -25.49749,-11.07592 -25.46094,-16.90075c-0.19808,-7.78849 6.97201,-9.81125 6.97201,-9.81125c8.0596,-3.30196 9.63487,2.1198 16.81646,1.40225c7.18159,-0.71756 19.65928,-10.03477 28.06278,-0.61345z" fill="#ffffff" fill-rule="evenodd" stroke="none" stroke-width="1" stroke-linecap="butt" stroke-linejoin="miter"/><path d="M195.12746,150.05548c-0.05681,1.3612 -4.35632,3.71046 -6.15381,3.63561c-1.60053,-0.00036 -3.00491,-2.30303 -2.85494,-3.49937c0.12511,-0.60082 2.33784,-0.88746 4.44319,-0.99864c2.00511,-0.10588 4.70845,-0.16379 4.56557,0.86242z" fill="#001026" fill-rule="evenodd" stroke="#001026" stroke-width="1.2" stroke-linecap="round" stroke-linejoin="round"/><path d="M226.18007,143.98218c-1.92502,6.02776 -8.85677,8.62101 -8.85677,8.62101" fill="none" fill-rule="evenodd" stroke="#929292" stroke-width="1.2" stroke-linecap="round" stroke-linejoin="round"/><path d="M228.65927,154.62645c-4.21694,4.06009 -9.45672,4.12244 -9.45672,4.12244" fill="none" fill-rule="evenodd" stroke="#929292" stroke-width="1.2" stroke-linecap="round" stroke-linejoin="round"/><path d="M221.38963,134.53311l-26.36471,-0.13488l-17.98447,3.28629l4.75148,-22.34344l19.76944,-1.40025l27.78266,1.76685l13.85433,17.80497l-11.26947,18.53039z" fill="#c58600" fill-rule="nonzero" stroke="#aa5300" stroke-width="1.2" stroke-linecap="round" stroke-linejoin="miter"/><path d="M221.39244,134.72786l7.58253,-18.6961" fill="none" fill-rule="nonzero" stroke="#aa5300" stroke-width="0.75" stroke-linecap="round" stroke-linejoin="miter"/><path d="M236.44263,125.24017l-5.71026,-7.71966c0,0 17.17871,-0.95004 18.23496,-0.6328c1.1837,0.3555 -12.30592,23.7509 -12.30592,23.7509z" fill="#ffab19" fill-rule="nonzero" stroke="#b83312" stroke-width="1.2" stroke-linecap="round" stroke-linejoin="miter"/><path d="M212.22695,145.04352c-2.82168,4.09573 -7.16211,5.53242 -10.53536,3.94187c-2.15879,-1.25602 -2.8892,-4.48823 -1.77665,-7.79061c4.54754,-1.82418 9.08666,-3.7727 13.5906,-5.74374c1.50099,2.41531 1.04017,6.33882 -1.27859,9.5925z" fill="#ffffff" fill-rule="evenodd" stroke="#929292" stroke-width="1.2" stroke-linecap="round" stroke-linejoin="round"/><path d="M185.44239,134.81404c2.69861,1.87654 2.9858,7.03587 0.80832,11.1249c-2.09603,4.08542 -5.56921,5.50978 -8.40704,3.91161c-2.34913,-1.61982 -2.93842,-6.49353 -0.8424,-10.57896c1.34228,-2.61628 3.31717,-4.51639 5.27477,-5.02805c1.09926,-0.28732 2.19307,-0.13683 3.16635,0.57048z" fill="#ffffff" fill-rule="evenodd" stroke="#929292" stroke-width="1.2" stroke-linecap="round" stroke-linejoin="round"/><path d="M203.82122,145.50048c-0.18492,-1.08434 0.45237,-2.10602 1.43814,-2.27413c0.98577,-0.16811 1.9257,0.58457 2.11062,1.66891c0.18492,1.08434 -0.45238,2.10603 -1.43813,2.27413c-0.98577,0.16811 -1.92569,-0.58457 -2.11061,-1.66891" fill="#001026" fill-rule="evenodd" stroke="none" stroke-width="1" stroke-linecap="butt" stroke-linejoin="miter"/><path d="M180.67501,146.4873c-0.18492,-1.08434 0.45238,-2.10603 1.43814,-2.27413c0.98577,-0.16811 1.92569,0.58457 2.11062,1.66891c0.18492,1.08434 -0.45238,2.10603 -1.43813,2.27413c-0.98577,0.16811 -1.9257,-0.58457 -2.11062,-1.66891" fill="#001026" fill-rule="evenodd" stroke="none" stroke-width="1" stroke-linecap="butt" stroke-linejoin="miter"/><path d="M228.44084,130.28526c0.7409,-1.87023 -29.46764,11.33807 -29.46764,11.33807l-2.79512,-1.32133l1.93423,-2.79091l-1.72343,-0.89666" fill="none" fill-rule="nonzero" stroke="#001026" stroke-width="1.2" stroke-linecap="round" stroke-linejoin="miter"/><path d="M208.49808,157.40314c0,0 -1.40374,3.57962 -7.18937,3.39195c-5.78565,-0.18767 -10.54553,-2.16999 -13.97774,-2.03847c-3.4322,0.13152 -5.49018,2.6697 -7.85469,2.87503c-1.89268,0.16437 -2.65374,-1.5414 -2.65374,-1.5414" fill="none" fill-rule="nonzero" stroke="#001026" stroke-width="1.2" stroke-linecap="round" stroke-linejoin="miter"/><path d="M207.95749,157.70457c0.23635,-1.6109 0.06267,-2.40879 0.06267,-2.40879c0,0 1.37905,1.31367 1.05926,2.21807" fill="#001026" fill-rule="nonzero" stroke="#000000" stroke-width="0" stroke-linecap="round" stroke-linejoin="miter"/></g><g fill-rule="nonzero" stroke-linejoin="miter"><g stroke-width="1.2" stroke-linecap="round"><path d="M324.03659,137.70633c0,0 9.87289,-7.90881 10.40827,-8.26954c0.53525,-0.35997 4.67984,-4.00015 14.74589,-3.60052c0,0 -11.26657,27.58027 -27.08051,31.3725c0,0 2.81784,-7.96882 1.92636,-19.50244zM324.05538,137.95025c-0.05474,-0.95098 -0.41741,-2.67896 -0.41741,-2.67896M321.02555,159.28384c0,0 0.8018,-1.27325 1.08467,-2.07507" fill="#be1e2d" stroke="#6f121b"/><path d="M328.74129,153.7999c0,0 -1.26998,-1.43969 -0.78095,-5.28865c0.32646,-2.60184 1.95179,-6.39109 1.95179,-6.39109c0.77377,-0.64084 1.60498,-1.40347 2.38729,-2.26478c1.32516,-1.45675 2.96973,-3.70645 4.50672,-5.94025l0.23074,-0.30411c0,0 3.71147,-3.86747 9.92043,-3.26719l0.06352,0.05293c-2.04237,4.12995 -5.24847,10.14642 -8.33132,14.08731c-3.45775,4.41977 -7.09183,7.41698 -10.07165,9.38436z" fill="#929497" stroke="#4a4b4c"/></g><path d="M301.493,176.93457l-11.59906,4.9864l-21.89437,-5.50782l-10.24759,1.56792l-12.88824,-7.79397l-4.14174,-9.0106l-2.94651,-10.25423l-0.2968,-11.98202l3.23506,-10.87609l4.80345,-7.66292l6.37355,-7.05169l7.76737,-5.84066l8.36208,-4.84779l8.99486,-4.11799l6.11576,-2.10354l2.90028,-1.91458l3.51592,-3.47947l2.65934,-3.57714l2.7402,-5.05824l1.51227,-7.40804l2.83641,6.1738l2.61947,7.67305l1.07351,-3.45355l0.40514,2.15706l1.99741,7.01522l3.55923,7.12674l2.63062,3.6304l3.8156,5.35489l4.65889,6.46666l3.85932,7.03549l2.83855,7.15039l2.03899,7.71923l1.11681,7.15266l-0.86559,6.97356l-1.42634,6.88345l-2.53031,5.59036l-4.10969,6.59173l-3.83573,3.70701l-6.15808,4.72547z" fill="#be1e2d" stroke="#8c8c8c" stroke-width="0" stroke-linecap="round"/><path d="M310.86836,180.76305l-9.43988,-3.77263l-11.62187,5.13198l-21.77009,-5.72954l-10.24451,1.52714l-12.38906,-6.95797c0,0 -33.37035,-50.1366 37.32115,-74.10683c0,0 13.24027,-7.27437 13.49568,-22.65022c0.02077,-1.25057 5.53614,14.56227 5.53614,14.56227c0,0 1.15987,-4.7653 1.20701,-4.11592c0.52221,7.19669 6.31296,17.80802 6.31296,17.80802c41.22918,47.62616 7.41701,74.45946 7.41701,74.45946z" fill="none" stroke="#6f121b" stroke-width="1.2" stroke-linecap="round"/><g><path d="M322.77736,157.46193c-2.01909,14.52508 -18.9701,24.16607 -37.86115,21.53373c-18.89105,-2.63233 -32.5685,-16.54119 -30.54939,-31.06629c2.01909,-14.52508 18.97009,-24.16607 37.86115,-21.53373c18.89105,2.63233 32.56849,16.54119 30.54939,31.06628z" fill="#e6e7e8" stroke="#7a7a7b" stroke-width="1.2" stroke-linecap="butt"/><path d="M263.26137,172.4877l1.31388,2.90207l2.04219,2.21416l-1.73249,0.10941l-3.66912,-1.56376l-3.0703,-2.62056l-0.99509,-2.59451l-3.73177,-3.06355l-2.69171,-2.74321l-0.38982,2.17004c-2.65661,-9.67539 -8.23771,-20.34465 -3.12444,-31.77775c30.03945,-21.33977 71.72267,-18.11475 79.33072,14.23691c0.10173,0.43261 0.19138,0.86145 0.26943,1.28669c-0.01592,0.60717 -0.05802,1.16804 -0.13603,1.66701c-0.88224,5.64434 -2.48752,11.04231 -3.85113,16.62163c-0.08984,0.36759 -0.24842,0.76385 -0.44882,1.17355l-1.03459,1.02302l0.04809,-1.3565l-3.13115,4.3349l-5.12392,3.51193l-2.94205,0.95325l0.95251,-3.82055l0.88138,-5.32998l0.18143,-4.33696l-0.94605,-0.26814l0.59932,-1.27969l1.6864,-3.03669l0.65831,-3.72523l0.02505,-4.22243l-2.3177,-4.54887l-4.55976,-4.58867l-6.4814,-3.90218l-7.87039,-3.00517l1.9184,1.35788l2.79778,3.11626l1.20755,3.43993l-14.60112,-6.12418l-14.03131,-6.18109l-1.06083,2.57858l-3.38049,5.11806l-3.18693,4.73608l-0.6878,4.948l1.67352,5.14072l3.09969,3.97622l-2.9683,0.13168l-2.48055,-0.34565l-0.44616,3.20952l1.03255,3.68821l1.36394,3.3254l1.69533,2.96263z" fill="#be1e2d" stroke="#8c8c8c" stroke-width="0" stroke-linecap="butt"/><path d="M269.78232,132.33091c-2.45852,7.04213 -7.36524,10.01172 -7.89337,13.86269c-1.08704,7.92662 4.68903,12.41968 4.68903,12.41968c0,0 -5.21407,1.58838 -9.97641,-2.7642" fill="none" stroke="#6f121b" stroke-width="1.2" stroke-linecap="round"/><path d="M254.10799,147.47163c-0.34412,-1.57586 -0.61765,-3.3602 -0.80174,-5.37952" fill="none" stroke="#6f121b" stroke-width="1.2" stroke-linecap="round"/><path d="M264.53875,129.13073c12.60998,7.50024 34.40527,15.25327 34.40527,15.25327c0,0 -1.54605,-4.43685 -6.1376,-7.53746c0,0 31.70954,8.13582 17.7475,28.47554c0,0 3.52949,-1.0282 6.40456,-3.90978" fill="none" stroke="#6f121b" stroke-width="1.2" stroke-linecap="round"/><path d="M320.41353,153.62205c-0.12849,1.66717 -0.1624,2.44659 -0.77196,3.70415" fill="none" stroke="#6f121b" stroke-width="1.2" stroke-linecap="round"/><path d="M320.44545,170.62259c-2.88037,5.77996 -10.70582,8.09575 -10.70582,8.09575c0,0 2.59241,-8.65435 1.90167,-13.68051" fill="none" stroke="#6f121b" stroke-width="1.2" stroke-linecap="round"/><path d="M253.71233,147.14304c-5.22731,6.16619 -3.21383,19.88937 -3.21383,19.88937c0,0 -10.10107,-22.14689 -2.64662,-32.35425" fill="none" stroke="#6f121b" stroke-width="1.2" stroke-linecap="round"/><path d="M323.43269,169.17581c-1.67673,1.92279 -2.89162,2.91276 -2.89162,2.91276c0,0 2.5652,-8.63791 -0.95608,-14.65979" fill="none" stroke="#6f121b" stroke-width="1.2" stroke-linecap="round"/><path d="M261.19232,158.58914c-2.16603,5.94025 3.69026,13.29759 3.69026,13.29759c0,0 -9.74012,0.413 -14.39267,-7.38034" fill="none" stroke="#6f121b" stroke-width="1.2" stroke-linecap="round"/><path d="M262.7801,171.85235c0.48207,3.14757 3.95075,5.76948 3.95075,5.76948c0,0 -7.75657,0.29772 -10.23163,-7.37292" fill="none" stroke="#6f121b" stroke-width="1.2" stroke-linecap="round"/></g><g fill="#000000" stroke="none" stroke-width="0.5" stroke-linecap="butt"><path d="M309.44765,153.43001c0.4972,0.03847 0.69721,0.83643 0.77783,1.17295c0.30227,1.26179 0.11039,2.66619 -0.84888,3.39774l-0.37437,-0.00529c-0.1704,0.03621 -0.40632,0.01405 -0.72558,-0.09131c-2.68605,-0.88654 -5.03619,-1.7193 -7.85476,-1.34882c-0.80864,0.10629 -2.31459,1.04928 -2.98718,1.0186c-0.86272,-0.03934 -1.15164,-0.32985 -1.21347,-1.22011c-0.06035,-0.86873 1.56887,-1.19506 2.15913,-1.34386c2.05495,-0.51806 4.31042,-0.53041 6.50735,-0.17623c0.49882,-0.34408 0.80061,-0.82531 1.15164,-1.42331c0.10097,-0.172 0.51371,-0.83782 0.59562,-0.83035c0.91995,0.08417 0.89419,1.65677 0.71681,2.78915c0.23626,0.06779 0.47436,0.14439 0.69171,0.22897c0.47871,-0.90144 1.04833,-2.1957 1.40414,-2.16817z"/><path d="M274.16107,152.55221c0.20061,-0.06472 0.42056,-0.11766 0.63894,-0.16104c-0.17901,-1.28721 -0.22293,-3.04474 0.62964,-3.01313c0.07591,0.00281 0.46738,0.80173 0.56326,1.00735c0.33333,0.71488 0.61949,1.29277 1.08674,1.74457c2.03405,-0.0954 4.12711,0.22605 6.04053,1.08413c0.54962,0.24646 2.06553,0.83263 2.0206,1.79336c-0.04605,0.98453 -0.31045,1.26915 -1.11047,1.19536c-0.6237,-0.05753 -2.03313,-1.31467 -2.78482,-1.54351c-2.62011,-0.79765 -4.79026,-0.18939 -7.27141,0.43308c-0.29491,0.07399 -0.51354,0.06656 -0.67211,0.00291l-0.34733,-0.0452c-0.89942,-0.94677 -1.09533,-2.53934 -0.83092,-3.90546c0.07052,-0.36433 0.246,-1.22708 0.70684,-1.20217c0.32981,0.01783 0.87483,1.53907 1.33052,2.60978z"/></g><path d="M314.54573,170.25962" fill="none" stroke="#000000" stroke-width="1.2" stroke-linecap="round"/><g stroke-width="1.2" stroke-linecap="round"><path d="M242.42845,151.74255c-13.43998,-6.62123 -16.11132,-36.97017 -16.11132,-36.97017c9.33569,1.31594 12.12373,5.77767 12.51437,6.2404c0.39054,0.46352 7.2436,10.30628 7.2436,10.30628c-4.0176,11.72979 -3.64666,20.42349 -3.64666,20.42349zM247.11616,128.87875c0,0 -0.81189,1.71804 -1.12595,2.68842M242.42845,151.74255c0.03673,0.87464 0.41817,2.32405 0.41817,2.32405" fill="#be1e2d" stroke="#6f121b"/><path d="M237.39164,147.18417c-2.18482,-2.53841 -4.68347,-6.25004 -6.62572,-11.39709c-1.73159,-4.58931 -3.00016,-11.3382 -3.72577,-15.94372l0.07289,-0.04364c5.85665,0.4472 8.1847,5.06878 8.1847,5.06878l0.12705,0.35292c0.78867,2.56523 1.67152,5.1653 2.48167,6.89358c0.47791,1.02166 1.02802,1.95004 1.55929,2.74311c0,0 0.43795,4.1829 0.01511,6.91955c-0.61995,4.04943 -2.18331,5.31472 -2.18331,5.31472z" fill="#929497" stroke="#4a4b4c"/></g><path d="M270.69677,154.13541c0,0 2.91441,0.21579 4.50251,2.08068" fill="none" stroke="#000000" stroke-width="1.2" stroke-linecap="round"/><path d="M306.83875,158.40188c1.59045,-1.12549 3.32629,-0.61616 3.32629,-0.61616" fill="none" stroke="#000000" stroke-width="1.2" stroke-linecap="round"/><path d="M296.93079,168.95027c-3.18622,0.95865 -5.73979,-0.40145 -10.86473,-1.36015c-5.12495,-0.95871 -10.06085,0.49384 -12.62166,-3.03339" fill="none" stroke="#000000" stroke-width="1.2" stroke-linecap="round"/></g><g fill-rule="nonzero" stroke-width="1.2" stroke-linejoin="miter"><path d="M185.8933,181.6778c-2.20656,3.10983 -2.62327,6.47748 -5.0026,9.31363c-5.28329,6.29765 -12.30805,2.79216 -14.46233,-1.88783c-1.28079,-2.7824 0.40765,-6.78335 3.96466,-7.93346c2.70507,-0.87464 5.85482,1.64498 6.21514,1.53026c0.04703,-0.01497 5.75095,-11.66293 9.752,-8.49075c3.14536,2.49378 -0.07022,6.90914 -0.46686,7.46815z" fill="#ffab19" stroke="#b83312" stroke-linecap="butt"/><g><path d="M162.42912,179.79029l1.21091,-4.2032l5.91244,0.05142l2.96224,4.0054l-4.24299,4.31584" fill="#ffab19" stroke="#b83312" stroke-linecap="round"/><path d="M147.05072,180.10947c0.35706,-4.9429 4.33232,-9.09583 8.879,-9.27583c4.54669,-0.17999 7.94306,3.68108 7.58601,8.62396c-0.35706,4.9429 -4.33231,9.09583 -8.87901,9.27583c-4.54669,0.17999 -7.94306,-3.68108 -7.58602,-8.62396z" fill="#5c5e5f" stroke="#2c2d2d" stroke-linecap="butt"/><path d="M155.80153,184.23264l3.89259,-7.40968l2.59594,-11.60154l2.90679,-1.39684l2.6565,1.24332l0.33551,3.01297l-1.27923,2.64015l-2.075,7.34366l4.18448,0.29233l1.5216,1.49269l2.9635,-9.78773l3.18534,-0.93739l1.6559,2.12017l-0.07707,4.04996l-1.66874,2.43379l-2.06218,6.37143l0.59597,3.59626l-4.48857,3.81342l-11.01658,-2.07885z" fill="#ffab19" stroke="#b83312" stroke-linecap="round"/><path d="M172.9431,182.88305l3.5318,1.22771l0.0967,4.04427l-2.95391,2.88398l-2.72982,-1.11534l-0.73831,-4.13416z" fill="#5c5e5f" stroke="#2c2d2d" stroke-linecap="round"/><path d="M161.93012,180.4151l1.67214,-1.05354" fill="none" stroke="#f77a19" stroke-linecap="round"/><path d="M169.39804,181.33596l-1.35695,1.04894" fill="none" stroke="#f77a19" stroke-linecap="round"/></g></g><g><path d="M202.47588,185.69568c-0.94896,-0.8743 -2.17352,-2.29107 -3.42636,-3.61634c-2.09754,-2.1783 -4.71932,-6.6031 1.00482,-7.18638c4.59629,-0.5215 7.55786,2.80554 11.16448,6.55588c1.81298,2.02302 3.95819,4.40556 2.14179,7.05002c-2.03394,2.98912 -9.97569,11.09497 -15.19433,6.82137c-3.66326,-3.5674 0.87362,-6.0461 3.96083,-8.13962c0.45446,-0.3936 0.52004,-0.96374 0.34875,-1.48492z" fill="#ffab19" fill-rule="evenodd" stroke="#b83312" stroke-width="1.2" stroke-linecap="round" stroke-linejoin="round"/><path d="M187.62597,199.05655c-12.24508,-0.81373 -8.91831,-10.88646 -8.24148,-13.78771c1.20902,-5.18256 2.19602,-8.49264 4.35128,-10.88477c3.51238,-3.89842 16.69157,-4.01002 20.09958,1.95204c2.81713,4.92837 -2.23868,13.37628 -2.23868,13.37628c0,0 3.77858,10.52366 -13.9707,9.34414z" fill="#ffab19" fill-rule="nonzero" stroke="#b83312" stroke-width="1.2" stroke-linecap="butt" stroke-linejoin="miter"/><path d="M187.70471,192.4891c-8.4207,-0.22613 -3.46605,-17.46396 3.81797,-17.13285c3.24244,0.14739 5.30452,3.23503 4.53792,8.17016c-0.90438,5.8223 -2.97931,9.1071 -8.35591,8.9627z" fill="#ffffff" fill-rule="nonzero" stroke="none" stroke-width="0.5" stroke-linecap="butt" stroke-linejoin="miter"/></g><g fill="#868995" fill-rule="nonzero" stroke="#46484e" stroke-width="1.2" stroke-linecap="round" stroke-linejoin="miter"><g><path d="M114.12426,282.73396l6.56674,-55.55556l42.30719,-3.88888l9.70479,16.11111l-4.50833,42.22222"/><path d="M239.48274,278.28951h-74.89773l4.05497,-84.72222h70.84276"/></g><g><path d="M310.59022,281.62285l-4.50833,-42.22222l9.70479,-16.11111l42.30719,3.88888l6.56675,55.55556"/><path d="M239.30213,193.56729h70.84276l4.05497,84.72222h-74.89773"/></g></g><g fill="#868995" fill-rule="nonzero" stroke="#46484e" stroke-width="1.2" stroke-linecap="round" stroke-linejoin="miter"><g><path d="M114.12426,282.73396l6.56674,-55.55556l42.30719,-3.88888l9.70479,16.11111l-4.50833,42.22222"/><path d="M239.48274,278.28951h-74.89773l4.05497,-84.72222h70.84276"/></g><g><path d="M310.59022,281.62285l-4.50833,-42.22222l9.70479,-16.11111l42.30719,3.88888l6.56675,55.55556"/><path d="M239.30213,193.56729h70.84276l4.05497,84.72222h-74.89773"/></g></g><g fill-rule="nonzero" stroke-width="1.2" stroke-linecap="butt" stroke-linejoin="miter"><g fill="#868995" stroke="#323337"><path d="M238.49912,237.58241c0,0 -51.24641,0.4315 -54.70457,-2.38863c-2.66843,-2.17611 -0.14152,-30.96523 2.54007,-33.07372c2.75286,-2.1645 51.4785,-2.20488 51.4785,-2.20488"/><path d="M237.413,199.91518c0,0 48.72565,0.04038 51.4785,2.20488c2.6816,2.10848 5.2085,30.89761 2.54007,33.07372c-3.45816,2.82013 -54.70458,2.38863 -54.70458,2.38863"/></g><g fill="#4e4f56" stroke="#262629"><path d="M238.45816,235.82944c0,0 -48.87768,0.39131 -52.176,-2.16616c-2.54508,-1.97344 -0.13497,-28.08128 2.42268,-29.99339c2.62561,-1.96291 49.09903,-1.99953 49.09903,-1.99953"/><path d="M237.42225,201.67036c0,0 46.47344,0.03662 49.09905,1.99953c2.55765,1.91211 4.96776,28.01994 2.42267,29.99339c-3.29832,2.55747 -52.176,2.16616 -52.176,2.16616"/></g><g fill="#9497a4" stroke="#56585f"><path d="M237.89064,225.31224c0,0 -16.05385,0.15021 -17.13717,-0.83145c-0.83593,-0.75747 -0.04433,-10.77858 0.79573,-11.51251c0.86237,-0.75344 16.12654,-0.76748 16.12654,-0.76748"/><path d="M237.55039,212.2008c0,0 15.26415,0.01405 16.12654,0.76748c0.84006,0.73394 1.63166,10.75504 0.79573,11.51251c-1.08332,0.98165 -17.13717,0.83145 -17.13717,0.83145"/></g></g><g fill-rule="nonzero" stroke-width="1.2" stroke-linecap="butt" stroke-linejoin="miter"><g fill="#868995" stroke="#323337"><path d="M238.41981,286.21013c0,0 -46.65923,0.39288 -49.80784,-2.17481c-2.42957,-1.98133 -0.12885,-28.19346 2.3127,-30.11321c2.50644,-1.97076 46.87054,-2.00752 46.87054,-2.00752"/><path d="M237.43091,251.91458c0,0 44.36411,0.03677 46.87054,2.00752c2.44155,1.91974 4.74228,28.13188 2.3127,30.11321c-3.1486,2.56769 -49.80784,2.17481 -49.80784,2.17481"/></g><g fill="#4e4f56" stroke="#262629"><path d="M238.38251,284.61408c0,0 -44.50252,0.35629 -47.50559,-1.97227c-2.31727,-1.79679 -0.12289,-25.56765 2.20582,-27.30861c2.39059,-1.78721 44.70406,-1.82055 44.70406,-1.82055"/><path d="M237.43932,253.51265c0,0 42.31348,0.03334 44.70406,1.82055c2.32871,1.74095 4.52308,25.51181 2.20582,27.30861c-3.00308,2.32855 -47.5056,1.97227 -47.5056,1.97227"/></g><g fill="#9497a4" stroke="#56585f"><path d="M237.86579,275.03828c0,0 -14.61682,0.13677 -15.60317,-0.75702c-0.76111,-0.68967 -0.04036,-9.81376 0.7245,-10.482c0.78518,-0.68599 14.68301,-0.69878 14.68301,-0.69878"/><path d="M237.556,263.10049c0,0 13.89784,0.01279 14.68302,0.69878c0.76485,0.66824 1.4856,9.79232 0.7245,10.482c-0.98636,0.89378 -15.60317,0.75702 -15.60317,0.75702"/></g></g><g fill-rule="nonzero" stroke-width="1.2" stroke-linecap="butt" stroke-linejoin="miter"><g fill="#868995" stroke="#323337"><path d="M140.40256,258.39904c0,0 -18.37704,1.57105 -19.49034,-0.66552c-0.85907,-1.72582 1.32727,-25.4555 2.38172,-27.25269c1.08246,-1.84494 18.53908,-3.03458 18.53908,-3.03458"/><path d="M141.68969,227.45573c0,0 17.45303,-1.12324 18.34286,0.59102c0.8668,1.66991 0.49088,25.27964 -0.56187,27.13212c-1.36429,2.40071 -19.70293,3.26222 -19.70293,3.26222"/></g><g fill="#4e4f56" stroke="#262629"><path d="M140.46589,256.95875c0,0 -17.52671,1.48177 -18.59444,-0.54263c-0.8239,-1.56211 1.20128,-23.08454 2.20259,-24.71733c1.02792,-1.67617 17.67757,-2.80928 17.67757,-2.80928"/><path d="M141.61488,228.89858c0,0 16.64638,-1.07288 17.49961,0.47867c0.83112,1.51138 0.53269,22.91942 -0.46684,24.60233c-1.29536,2.18098 -18.78723,3.0193 -18.78723,3.0193"/></g><g fill="#9497a4" stroke="#56585f"><path d="M140.73058,248.32524c0,0 -5.7576,0.50451 -6.10199,-0.27686c-0.26574,-0.60294 0.46377,-8.86083 0.79736,-9.48419c0.34245,-0.63992 5.81112,-1.01375 5.81112,-1.01375"/><path d="M141.19217,237.55341c0,0 5.46741,-0.35073 5.7428,0.24826c0.26827,0.58348 0.1059,8.80381 -0.22726,9.44642c-0.43175,0.8328 -6.17599,1.09032 -6.17599,1.09032"/></g></g><g fill-rule="nonzero" stroke-width="1.2" stroke-linecap="butt" stroke-linejoin="miter"><g fill="#868995" stroke="#323337"><path d="M139.40939,290.66475c0,0 -15.69579,1.34182 -16.64666,-0.56842c-0.73373,-1.47402 1.13362,-21.7415 2.03422,-23.27648c0.92452,-1.57576 15.83421,-2.59184 15.83421,-2.59184"/><path d="M140.50872,264.23614c0,0 14.9066,-0.95936 15.66659,0.50479c0.74034,1.42626 0.41924,21.5913 -0.4799,23.1735c-1.16526,2.05044 -16.82825,2.78626 -16.82825,2.78626"/></g><g fill="#4e4f56" stroke="#262629"><path d="M139.46346,289.43462c0,0 -14.96952,1.26558 -15.88149,-0.46347c-0.70368,-1.3342 1.026,-19.71647 1.88122,-21.11103c0.87795,-1.43163 15.09838,-2.3994 15.09838,-2.3994"/><path d="M140.44485,265.46846c0,0 14.21767,-0.91634 14.94639,0.40883c0.70986,1.29088 0.45496,19.57543 -0.39875,21.01282c-1.10635,1.86277 -16.04615,2.57878 -16.04615,2.57878"/></g><g fill="#9497a4" stroke="#56585f"><path d="M139.68958,282.06075c0,0 -4.91755,0.4309 -5.21171,-0.23647c-0.22697,-0.51497 0.3961,-7.56802 0.68102,-8.10044c0.29249,-0.54656 4.96327,-0.86584 4.96327,-0.86584"/><path d="M140.08382,272.86054c0,0 4.66971,-0.29955 4.90493,0.21205c0.22914,0.49835 0.09046,7.51931 -0.1941,8.06817c-0.36876,0.71129 -5.27491,0.93124 -5.27491,0.93124"/></g></g><g fill-rule="nonzero" stroke-width="1.2" stroke-linecap="butt" stroke-linejoin="miter"><g fill="#868995" stroke="#323337"><path d="M338.09311,227.86268c0,0 17.22575,1.17392 18.2939,2.99446c1.04049,1.77342 3.19792,25.18927 2.35022,26.89227c-1.09858,2.20699 -19.23258,0.65673 -19.23258,0.65673"/><path d="M340.13108,258.44762c0,0 -18.09612,-0.85011 -19.44236,-3.21907c-1.03882,-1.82798 -1.40978,-25.12547 -0.55444,-26.77329c0.87806,-1.6916 18.10028,-0.58321 18.10028,-0.58321"/></g><g fill="#4e4f56" stroke="#262629"><path d="M338.17344,229.28687c0,0 16.42947,1.1181 17.44379,2.77212c0.98805,1.6112 2.98646,22.84899 2.17344,24.39044c-1.05362,1.99765 -18.34853,0.53546 -18.34853,0.53546"/><path d="M340.03962,257.02448c0,0 -17.26055,-0.82723 -18.53877,-2.97937c-0.98632,-1.66066 -1.2808,-22.78557 -0.46067,-24.27696c0.84192,-1.53103 17.26817,-0.47234 17.26817,-0.47234"/></g><g fill="#9497a4" stroke="#56585f"><path d="M338.68116,237.83324c0,0 5.39632,0.36888 5.73426,1.00034c0.32919,0.61512 1.04905,8.7638 0.78681,9.35876c-0.33984,0.77104 -6.02129,0.2732 -6.02129,0.2732"/><path d="M339.37717,248.47856c0,0 -5.66826,-0.25411 -6.09431,-1.0759c-0.32875,-0.63412 -0.48898,-8.74573 -0.22426,-9.32149c0.27176,-0.59107 5.66686,-0.24498 5.66686,-0.24498"/></g></g><g fill-rule="nonzero" stroke-width="1.2" stroke-linecap="butt" stroke-linejoin="miter"><g fill="#868995" stroke="#323337"><path d="M339.41851,264.43624c0,0 14.79424,1.00821 15.7116,2.57177c0.89362,1.52309 2.74652,21.63366 2.01848,23.09626c-0.94351,1.89546 -16.51779,0.56403 -16.51779,0.56403"/><path d="M341.16878,290.70394c0,0 -15.54172,-0.73011 -16.69796,-2.76468c-0.89218,-1.56995 -1.21077,-21.57887 -0.47619,-22.99409c0.75411,-1.45282 15.54532,-0.50088 15.54532,-0.50088"/></g><g fill="#4e4f56" stroke="#262629"><path d="M339.48748,265.65941c0,0 14.11035,0.96028 14.9815,2.38082c0.84859,1.38376 2.5649,19.62372 1.86665,20.94758c-0.90489,1.71566 -15.75851,0.45987 -15.75851,0.45987"/><path d="M341.09026,289.48168c0,0 -14.82413,-0.71046 -15.92191,-2.55881c-0.8471,-1.42624 -1.10001,-19.56926 -0.39564,-20.85013c0.72309,-1.31491 14.83066,-0.40566 14.83066,-0.40566"/></g><g fill="#9497a4" stroke="#56585f"><path d="M339.92355,272.99941c0,0 4.6346,0.31682 4.92483,0.85914c0.28272,0.52829 0.90098,7.52673 0.67576,8.03772c-0.29186,0.6622 -5.17136,0.23464 -5.17136,0.23464"/><path d="M340.5213,282.14207c0,0 -4.86815,-0.21825 -5.23406,-0.92404c-0.28235,-0.54461 -0.41995,-7.51122 -0.1926,-8.00571c0.23339,-0.50763 4.86694,-0.21039 4.86694,-0.21039"/></g></g><path d="M240.90417,174.54299" fill="none" fill-rule="nonzero" stroke="#000000" stroke-width="1.2" stroke-linecap="round" stroke-linejoin="miter"/><g fill-rule="nonzero" stroke-width="1.2" stroke-linejoin="miter"><path d="M288.77591,176.36475c0.96875,0.31831 6.75547,7.04915 7.00298,8.11024c0.68574,2.93986 -3.65938,4.29326 -5.62697,3.64678c-2.32024,-0.76236 -9.10614,-11.77554 -2.77094,-11.93563c0.2874,-0.05376 0.57543,-0.03995 0.8414,0.03596c0.16237,0.01659 0.33135,0.03879 0.50709,0.06678z" fill="#be1e2d" stroke="#6f121b" stroke-linecap="butt"/><g><path d="M295.26718,192.16821c-2.69722,2.67677 -6.36056,2.96254 -14.64214,2.03754c-5.45878,-0.60971 -9.5447,-17.26378 4.69035,-19.11668c4.36165,-0.56773 6.51974,8.73677 6.51974,8.73677c0,0 0.73494,-0.76169 4.01869,-2.69103c7.99975,-4.70022 8.6123,4.44643 10.50297,9.99527c0.56938,-0.03323 1.09284,-0.05081 1.5081,-0.01895c0,0 2.14387,0.166 1.79525,2.3239c-0.34861,2.1579 -2.49246,1.9919 -2.49246,1.9919c-1.87306,-0.14649 -5.47071,0.38548 -7.08102,-0.30389c-2.97407,-1.27317 -1.97768,-5.93581 -1.97768,-5.93581c0,0 -2.62026,2.76112 -2.84179,2.98097z" fill="#be1e2d" stroke="#6f121b" stroke-linecap="butt"/><path d="M283.30228,188.98467c-1.23271,-2.71868 -2.67438,-7.99932 1.07876,-10.44347c4.76793,-3.10497 6.40831,7.02379 5.64376,9.99193c-0.82863,3.21696 -5.33487,3.51197 -6.72254,0.45154z" fill="#e6e7e8" stroke="#7a7a7b" stroke-linecap="round"/></g><path d="M277.61635,184.59759c-0.937,2.32844 -2.0949,3.3511 -2.64702,5.90034c-0.24335,1.12366 0.50216,1.88522 -0.91865,3.31508c-1.42081,1.42986 -3.45739,2.18088 -4.3153,2.6598c-2.09171,1.16765 -4.31357,0.87933 -2.76994,-1.35381c-2.08331,-0.0701 -7.45993,-0.51202 -7.57941,-1.49766c-0.4983,-4.11096 4.80411,-3.21371 7.94305,-4.02707c1.72931,-1.4589 2.9787,-4.13516 3.69667,-6.55624c0.82543,-2.78341 1.15282,-5.28753 4.10408,-6.18282c1.04116,-0.31585 3.51304,-0.6835 4.47626,0.78464" fill="#be1e2d" stroke="#6f121b" stroke-linecap="butt"/><path d="M297.05806,178.63361c0.3545,-0.63788 0.43568,-1.61578 1.10154,-1.81251c1.98473,-0.58641 5.50952,1.79502 5.50952,1.79502c4.2637,2.17704 2.6644,7.99338 -1.87234,6.98682c-3.36768,-0.74717 -4.26658,-3.00416 -4.26658,-3.00416c0,0 -1.37392,-0.33222 -1.51438,-1.51178c-0.14045,-1.17956 0.33112,-1.17384 1.04223,-2.45339z" fill="#be1e2d" stroke="#6f121b" stroke-linecap="butt"/></g><path d="M251.10603,178.45174" fill="none" fill-rule="nonzero" stroke="#000000" stroke-width="1.2" stroke-linecap="round" stroke-linejoin="miter"/><path d="M279.20108,186.75824c3.656,-2.21241 10.30464,0.57489 9.10997,4.80879c-0.61361,2.17459 -2.98486,4.01813 -4.20718,5.91576c-1.31688,2.04442 -1.91538,4.24582 -3.19955,6.30537c-0.87117,0.42743 -1.64402,1.20317 -2.6135,1.28228c-6.33851,0.51724 -3.75985,-10.1198 -0.11111,-14.38114" fill="#be1e2d" fill-rule="nonzero" stroke="#6f121b" stroke-width="1.2" stroke-linecap="butt" stroke-linejoin="miter"/><g fill="#ffab19" fill-rule="nonzero" stroke="#b83312" stroke-width="1.2" stroke-linecap="butt" stroke-linejoin="miter"><path d="M199.23507,195.23341c-0.21748,2.66657 0.27597,11.90824 0.27597,11.90824l-3.29564,9.43162l-11.26575,0.50301c0,0 -1.92975,-1.68634 -1.50801,-4.53124c0.10813,-0.7295 2.75793,-9.35588 2.7696,-9.72552c0.08229,-2.60847 -6.84994,-22.28068 5.89463,-24.88299c5.23218,-1.06836 6.83912,1.2844 7.75398,4.76647c1.26604,4.81873 -0.41612,9.97217 -0.62477,12.5304z"/><path d="M179.83948,191.25578c-0.75476,4.52526 -3.08527,6.24326 -3.19087,6.73658c-1.07166,5.00665 -2.25565,10.02723 -2.25565,10.02723l-7.34402,6.57894l-9.76902,-1.08525c0,0 -2.1749,-4.23565 0.27999,-6.32243c2.61762,-2.22513 7.59144,-4.38984 7.59144,-4.38984c0,0 -3.01367,-24.11158 10.44531,-24.24368c3.61877,0.15078 5.10867,2.04271 5.46197,4.44034"/></g></g></g></svg>