<svg version="1.1" xmlns="http://www.w3.org/2000/svg" xmlns:xlink="http://www.w3.org/1999/xlink" width="90.58613" height="120.79982" viewBox="0,0,90.58613,120.79982"><g transform="translate(-191.65894,-120.75248)"><g stroke-miterlimit="10"><g fill-rule="evenodd"><path d="M244.66082,214.24671c1.1665,2.15621 2.76367,4.70555 5.55894,6.37481c6.27011,3.86599 14.51764,3.1746 13.59411,7.4169c-0.8949,4.3381 -13.47462,7.99464 -20.80158,-2.54839c-2.54439,-3.623 -3.63285,-7.26378 -4.425,-10.26252c-0.22915,-0.76648 -1.53493,-7.57786 1.03515,-10.8512c2.57008,-3.27334 3.91931,-1.90235 4.53171,-1.25045c0.73684,0.71907 -1.04207,8.03518 0.50669,11.12084z" fill="#ffab19" stroke="#001026" stroke-width="1.2" stroke-linecap="round" stroke-linejoin="round"/><path d="M263.45037,227.52085c-0.00199,2.08807 -3.73955,4.24921 -7.37935,4.29364c-3.63979,0.04443 -5.82265,-0.97292 -7.44056,-1.84608c0.72796,-0.00888 2.95035,-0.25583 3.70893,-2.25696c1.02724,-2.49896 -0.89486,-5.78612 -0.89486,-5.78612c0,0 4.52872,1.88165 7.5739,2.6412c2.66193,0.87414 4.24231,0.92354 4.43195,2.9543z" fill="#ffffff" stroke="none" stroke-width="1" stroke-linecap="butt" stroke-linejoin="miter"/></g><path d="M229.64091,184.04357c2.54558,-1.07025 5.47682,0.12576 6.54706,2.67135c0.2431,0.57821 0.36926,1.17631 0.38926,1.76799c1.00316,1.6231 -2.03731,4.46381 -2.67807,5.83063c-2.40943,5.13949 -5.18327,7.54374 -11.30228,9.61425c-2.50053,0.84612 -5.20141,0.52927 -6.54705,-2.67135c-2.55428,-6.07537 5.08269,-7.0138 7.85262,-9.58019c1.48442,-1.37534 3.7904,-8.2701 5.73846,-7.63267z" fill="#ffab19" fill-rule="nonzero" stroke="#000000" stroke-width="1.2" stroke-linecap="butt" stroke-linejoin="miter"/><path d="M253.30906,193.9365c-0.95233,-0.90874 -2.19298,-2.38132 -3.45724,-3.75881c-2.11499,-2.26413 -4.82798,-6.86324 0.67757,-7.4695c4.41861,-0.54205 7.41507,2.91607 11.05189,6.81417c1.8338,2.10272 4.00315,4.57913 2.35641,7.32777c-1.84283,3.10687 -9.18375,11.53207 -14.39906,7.09011c-3.68408,-3.70794 0.59732,-6.28429 3.49409,-8.46031c0.42293,-0.4091 0.46305,-1.00171 0.27633,-1.54344z" fill="#ffab19" fill-rule="evenodd" stroke="#001026" stroke-width="1.2" stroke-linecap="round" stroke-linejoin="round"/><g fill-rule="nonzero" stroke-linecap="round" stroke-linejoin="miter"><path d="M219.85462,227.49827l7.91994,-21.95984c0,0 0.86115,-4.34713 2.74487,-11.23577c0.91522,-3.34692 1.17548,-9.60049 3.41508,-11.82205c3.45378,-3.42595 10.85326,-3.01948 10.85326,-3.01948c0,0 8.26763,0.96881 9.59522,6.13002c1.05632,4.10662 -0.87023,7.69609 -1.5747,12.00483c-0.67213,4.11098 -0.10057,9.04044 -0.10057,9.04044l6.15995,23.60682c0,0 4.2061,0.76239 4.98664,2.74498c0.78054,1.98259 -0.87999,7.68594 -0.87999,7.68594l-17.89321,0.27449l-5.57329,-5.21546v-6.13499c0,0 0.1101,-25.24566 -1.17571,-20.16251c-0.57373,2.26814 -3.47206,18.07309 -3.47206,18.07309l-0.49098,8.22781l-18.66736,1.56663l-3.76704,-0.74653c0,0 -3.32925,-3.96519 -0.89243,-6.75229c2.43681,-2.78709 8.81238,-2.30615 8.81238,-2.30615z" fill="#ffab19" stroke="#001026" stroke-width="1.2"/><path d="M240.81251,209.01567c0,0 -3.37107,-0.13404 -4.75481,-1.48318" fill="none" stroke="#001026" stroke-width="1.2"/><path d="M238.08927,202.25583c-4.22079,-0.63841 -3.93385,-4.78787 -3.47447,-8.76576c0.51526,-4.46186 1.38677,-9.20261 6.1406,-8.61045c5.21511,0.64963 5.32714,5.31013 4.68183,10.19628c0,0 -1.26542,8.09993 -7.34796,7.17993z" fill="#ffffff" stroke="#000000" stroke-width="0"/></g><path d="M245.89223,232.713c0,0 1.61776,-2.65117 12.72665,-2.5381" fill="none" fill-rule="nonzero" stroke="#001026" stroke-width="1.2" stroke-linecap="round" stroke-linejoin="miter"/><g><g><path d="M213.04526,149.81256c0,0 -5.87295,-26.95778 -4.79959,-27.05196c1.44603,-0.12688 27.76861,8.29629 27.76861,8.29629" fill="#ffab19" fill-rule="nonzero" stroke="#001026" stroke-width="1.2" stroke-linecap="round" stroke-linejoin="miter"/><path d="M267.57856,147.90096l13.9574,13.86041l-2.37716,5.69817l-30.34481,1.99812z" fill="#9b7f41" fill-rule="nonzero" stroke="#001026" stroke-width="1.2" stroke-linecap="round" stroke-linejoin="miter"/><path d="M204.68781,170.10741c0,0 -7.08402,1.29103 -12.42887,-1.53076" fill="none" fill-rule="evenodd" stroke="#001026" stroke-width="1.2" stroke-linecap="round" stroke-linejoin="round"/><path d="M205.43367,175.97372c0,0 -3.46014,2.61675 -9.73825,3.34166" fill="none" fill-rule="evenodd" stroke="#001026" stroke-width="1.2" stroke-linecap="round" stroke-linejoin="round"/><path d="M228.93248,138.4346c10.82222,-3.62227 41.482,0.79047 37.7137,28.48864c-0.04913,0.36111 -0.18129,0.70633 -0.31182,1.05014c-4.76711,12.55566 -18.59942,20.4732 -37.76005,20.46993c-19.16063,-0.00326 -25.5617,-9.75141 -25.48397,-15.57583c0.07771,-5.82442 6.63914,-9.25484 6.63914,-9.25484c0,0 -0.77011,-4.43475 1.30862,-10.4488c0,0 2.08284,-9.437 17.89441,-14.72924z" fill="#ffab19" fill-rule="evenodd" stroke="#001026" stroke-width="1.2" stroke-linecap="butt" stroke-linejoin="miter"/><path d="M227.23638,165.57173c8.35793,-1.03194 17.88612,-12.17975 26.52468,-2.97348c8.61926,9.10816 0.11363,25.45639 -24.59638,25.21941c-18.9451,0.05628 -25.64218,-9.1241 -25.56446,-14.94853c0.07771,-5.82442 6.50078,-8.92187 6.50078,-8.92187c7.97371,-3.50428 9.97419,2.52301 17.13538,1.62447z" fill="#ffffff" fill-rule="evenodd" stroke="none" stroke-width="1" stroke-linecap="butt" stroke-linejoin="miter"/><path d="M231.89161,163.33146c0.30871,1.56994 -3.33004,4.83331 -5.13481,4.98435c-1.58923,0.21058 -3.60128,-2.2474 -3.77327,-3.64039c-0.03693,-0.70615 2.08315,-1.32685 4.14369,-1.73201c1.96242,-0.38587 4.63098,-0.80869 4.76439,0.38806z" fill="#001026" fill-rule="evenodd" stroke="#001026" stroke-width="1.2" stroke-linecap="round" stroke-linejoin="round"/><path d="M262.2709,158.14489c-2.85524,5.32706 -9.45122,8.21549 -9.45122,8.21549" fill="none" fill-rule="evenodd" stroke="#001026" stroke-width="1.2" stroke-linecap="round" stroke-linejoin="round"/><path d="M265.42272,168.97059c-5.61129,2.90751 -9.94305,2.6713 -9.94305,2.6713" fill="none" fill-rule="evenodd" stroke="#001026" stroke-width="1.2" stroke-linecap="round" stroke-linejoin="round"/><path d="M254.94105,147.19874l-43.50301,3.31799l-0.6992,-22.79016l48.13096,-2.7l14.2992,17.44972l-5.76411,16.23992z" fill="#c58600" fill-rule="nonzero" stroke="#001026" stroke-width="1.2" stroke-linecap="round" stroke-linejoin="miter"/><path d="M258.67785,125.2343l-3.7447,21.76459" fill="none" fill-rule="nonzero" stroke="#001026" stroke-width="0.75" stroke-linecap="round" stroke-linejoin="miter"/><path d="M265.18848,132.9836l-5.90321,-7.57311c0,0 15.18925,-4.33453 16.25317,-4.04404c1.19228,0.32553 -9.7427,27.00518 -9.7427,27.00518z" fill="#ffab19" fill-rule="nonzero" stroke="#001026" stroke-width="1.2" stroke-linecap="round" stroke-linejoin="miter"/></g><g><g fill-rule="evenodd"><path d="M222.57006,147.02354c3.09468,1.22595 3.98055,6.24941 2.00325,11.22438c-2.07542,4.99427 -6.18381,7.94231 -9.27849,6.71636c-3.09468,-1.22595 -3.98053,-6.24941 -2.00324,-11.22439c1.97729,-4.97497 6.16452,-8.04044 9.27849,-6.71637z" fill="#ffffff" stroke="#001026" stroke-width="1.2" stroke-linecap="round" stroke-linejoin="round"/><path d="M213.55318,158.50357c-0.21223,-1.07933 0.39909,-2.11678 1.38031,-2.30971c0.98122,-0.19294 1.93982,0.5358 2.15205,1.61513c0.21223,1.07933 -0.39909,2.11677 -1.38029,2.3097c-0.98122,0.19294 -1.93983,-0.5358 -2.15205,-1.61512" fill="#001026" stroke="none" stroke-width="1" stroke-linecap="butt" stroke-linejoin="miter"/></g><g fill-rule="evenodd"><path d="M246.75083,146.6495c3.46622,1.56055 4.36971,7.19205 2.17689,12.10749c-2.09472,4.89613 -6.14193,7.11875 -9.74651,5.89114c-3.01584,-1.34336 -4.25395,-6.60333 -2.15924,-11.49946c2.09472,-4.89613 6.24335,-8.15785 9.72886,-6.49917z" fill="#ffffff" stroke="#001026" stroke-width="1.2" stroke-linecap="round" stroke-linejoin="round"/><path d="M237.49911,157.97186c-0.21223,-1.07933 0.4184,-2.01865 1.3803,-2.30971c0.98122,-0.19294 1.93982,0.5358 2.15206,1.61513c0.21223,1.07933 -0.39909,2.11678 -1.3803,2.30971c-0.98122,0.19294 -1.93983,-0.53581 -2.15205,-1.61514" fill="#001026" stroke="none" stroke-width="1" stroke-linecap="butt" stroke-linejoin="miter"/></g><g fill-rule="nonzero" stroke="#001026" stroke-linecap="round" stroke-linejoin="miter"><path d="M224.19299,178.05481c-0.21165,-0.17479 5.54098,-1.32864 11.12889,-3.7286c12.65059,-5.43331 13.03568,-7.53804 13.59321,-7.4615c1.02888,0.14125 4.72928,10.54978 -3.18103,14.1268c-7.60735,3.44002 -20.88006,-2.39082 -21.54107,-2.9367z" fill="#ffffff" stroke-width="1.2"/><path d="M248.92991,177.92754l-2.49009,-7.3075l3.08173,7.08399" fill="#000000" stroke-width="0"/><path d="M246.21883,180.23624l-1.16483,-4.1573l1.54875,3.74183" fill="#000000" stroke-width="0"/><path d="M225.31672,178.05875l9.2796,1.83551l4.08364,2.04057l-7.2575,-1.31485z" fill="#000000" stroke-width="0"/></g></g></g><path d="M232.20245,204.30139c-1.12854,0.92214 -1.98517,2.46065 -3.27767,3.01111c-0.19711,0.08395 -0.40437,0.14492 -0.62427,0.17722c-2.61476,0.38404 -9.36043,-2.13853 -10.62863,-2.94913c-2.73943,-1.75101 -3.51568,-6.45873 -0.84818,-8.70879c2.88955,-2.43736 7.85633,0.50231 10.36453,1.403c1.1914,0.42783 4.02865,0.6576 4.25987,2.16127z" fill="#ffab19" fill-rule="nonzero" stroke="#000000" stroke-width="1.2" stroke-linecap="butt" stroke-linejoin="miter"/><g fill-rule="nonzero" stroke="#000000" stroke-width="1.2" stroke-linejoin="miter"><path d="M234.3464,200.6405c-2.87725,-3.75911 -2.16237,-9.13896 1.59673,-12.01621c3.75911,-2.87725 9.13896,-2.16236 12.01621,1.59675c2.87725,3.75911 2.16237,9.13896 -1.59675,12.01621c-3.75911,2.87725 -9.13894,2.16236 -12.0162,-1.59675z" fill="#5c5e5f" stroke-linecap="butt"/><g stroke-linecap="round"><path d="M237.88062,204.4118l-0.98322,4.63842l-2.29066,0.67389l-3.53936,2.70906l-2.70067,-2.68226z" fill="#ffab19"/><path d="M239.19996,199.08435l-0.48578,6.41649l-3.78809,1.82003l-1.12096,1.07388l-3.51582,1.61163l-0.60839,0.89742l-3.42002,0.89066l-4.39971,-4.62001l-1.09229,-6.5039l11.55585,-6.90202z" fill="#ffab19"/><path d="M234.15642,205.75118l0.65547,-3.09229" fill="none"/><path d="M230.2709,204.62345l-0.40676,3.9813" fill="none"/></g><path d="M225.95508,208.57445l-3.54775,1.85195l-3.10906,-2.36969l0.0303,-3.90905l2.86712,-1.33098l3.65357,1.9529z" fill="#5c5e5f" stroke-linecap="round"/></g></g></g></svg>