<svg version="1.1" xmlns="http://www.w3.org/2000/svg" xmlns:xlink="http://www.w3.org/1999/xlink" width="128.72284" height="226.47029" viewBox="0,0,128.72284,226.47029"><defs><radialGradient cx="223.81339" cy="159.48912" r="38.25582" gradientUnits="userSpaceOnUse" id="color-1"><stop offset="0" stop-color="#180036"/><stop offset="1" stop-color="#1d1d1d"/></radialGradient></defs><g transform="translate(-173.10954,-88.94665)"><g stroke-miterlimit="10"><g stroke="#000000"><g stroke-width="0" stroke-linecap="round"><path d="M253.8637,191.81372l3.90645,9.93119l-4.05144,-0.17409l2.54819,7.07546l-10.169,18.37668l-14.27307,-15.03891l0.05795,-7.73139l-4.46933,1.89227l2.96009,-11.4462" fill="#0063eb"/><path d="M249.97075,191.00398l2.68356,6.8223l-2.78316,-0.11959l2.18935,8.43368l-6.98566,12.62399l-9.80498,-10.33107l-0.39903,-8.88428l-3.07023,1.29991l2.03344,-7.86305" fill="#629beb"/></g><path d="M227.59909,196.71868l-5.92419,-50.96941c0,0 -1.99367,-16.35764 11.68078,-17.91305c14.34067,-1.63118 16.31751,14.47433 16.31751,14.47433l6.25503,50.92876c0,0 -2.70779,3.19361 -14.06784,4.75035c-11.6842,1.60116 -14.26129,-1.27098 -14.26129,-1.27098z" fill="#5d5d5d" stroke-width="1.2" stroke-linecap="butt"/></g><g stroke="#000000"><g stroke-width="0" stroke-linecap="round"><path d="M202.43988,196.67013l1.091,10.61596l-3.85527,-1.2575l0.551,7.50012l-14.73745,14.9639l-9.70155,-18.324l2.13554,-7.43084l-4.81361,0.62028l5.92997,-10.22806" fill="#0063eb"/><path d="M198.90821,194.84305l0.74947,7.29269l-2.64841,-0.86385l-0.15998,8.71176l-10.12399,10.27955l-6.66454,-12.58779l2.00552,-8.66415l-3.30675,0.4261l4.07364,-7.02623" fill="#629beb"/></g><path d="M175.82393,194.32919l8.00481,-50.68431c0,0 2.47997,-16.29101 16.0688,-14.1107c14.25088,2.28653 11.82252,18.33018 11.82252,18.33018l-7.67523,50.73417c0,0 -3.46704,2.34751 -14.82715,0.79104c-11.68426,-1.60087 -13.39375,-5.06038 -13.39375,-5.06038z" fill="#5d5d5d" stroke-width="1.2" stroke-linecap="butt"/></g><g stroke="#000000" stroke-width="1.2"><path d="M264.26016,213.67989l-7.51201,-2.24926l-1.91212,-13.4683l-3.57035,-11.01668l2.66608,-3.80815l4.26639,-1.57156l10.53389,6.85315l11.6259,5.74481l-0.5055,7.80305l-6.23959,7.04104z" fill="#707070" stroke-linecap="round"/><path d="M282.0655,235.03745l-18.87504,-27.07943l-1.92457,2.02696l6.83688,-7.16813l9.46921,-5.6863l-2.77089,1.71673l20.78454,26.30238" fill="#5d5d5d" stroke-linecap="round"/><path d="M296.60059,240.513c-4.45789,3.26022 -10.71466,2.28932 -13.97488,-2.16857c-3.26022,-4.45789 -2.28932,-10.71466 2.16857,-13.97488c4.45789,-3.26022 10.71466,-2.28933 13.97488,2.16857c3.26022,4.45789 2.28933,10.71466 -2.16856,13.97488z" fill="#707070" stroke-linecap="butt"/></g><g stroke="#000000" stroke-width="1.2"><path d="M189.16447,120.48828c1.41732,8.99932 -0.15161,16.72275 -3.50429,17.25077c-3.35269,0.52802 -7.21954,-6.33931 -8.63685,-15.33864c-1.41732,-8.99932 0.15161,-16.72276 3.50429,-17.25077c3.35269,-0.52802 7.21954,6.33932 8.63685,15.33865z" fill="#454545" stroke-linecap="butt"/><path d="M193.56051,150.48588l-5.04673,-35.24432l0.61958,6.30655l-6.98944,0.83222l-3.05418,-17.02726l9.85466,-13.07083l7.61039,-0.60694l6.94493,54.85672" fill="#5d5d5d" stroke-linecap="round"/></g><g stroke="#000000" stroke-width="1.2"><path d="M259.60272,117.30113c-0.91284,9.0644 -4.39039,16.13685 -7.76731,15.79678c-1.46935,-0.14797 -2.67754,-1.67493 -3.49846,-4.0995c-1.06578,-3.14775 -1.47884,-7.80843 -0.96318,-12.9288c0.91283,-9.0644 4.39039,-16.13686 7.76731,-15.79677c3.37693,0.34008 5.37447,7.96391 4.46163,17.0283z" fill="#454545" stroke-linecap="butt"/><path d="M252.04118,147.0654l4.06245,-35.37128l-1.0011,6.25734l-3.0874,-1.25203l1.36682,-17.24492l8.96461,-9.85884l7.51529,1.34422l-7.20342,54.82338" fill="#5d5d5d" stroke-linecap="round"/></g><g stroke="#000000" stroke-width="1.2"><g fill="#5d5d5d" stroke-linecap="round"><path d="M203.04722,254.82093l-0.05149,32.75854l-6.96642,1.64893l-7.60374,-1.61834l-2.12453,-32.43197"/><g><path d="M201.83604,280.1025l3.83445,3.91913l1.10638,4.97754l3.87708,5.91867l-4.06245,8.83864l-7.17372,3.65381l-7.60552,-16.5916l-2.83467,-3.94045"/><path d="M205.97878,293.0171l1.47204,2.96929l0.30397,3.24426l4.12815,6.41344l-1.35477,2.52946l-1.26947,6.52855l-5.16295,0.11012l-1.43473,-1.21968l1.75483,-5.78873l-1.98938,-5.20876l-2.34679,0.05004l-1.06678,5.02389l0.30398,3.24426l-1.3601,2.27953l-5.88831,-0.87464l0.59742,-5.01388l-1.27469,-4.72389l-2.56548,0.80488l1.74937,4.96383l-1.55213,4.28406l-4.69893,-0.14984l-0.52267,-2.48941l-2.73607,-7.19329l1.71218,-7.78828l-0.15992,-7.49829l1.56667,-5.03456l4.81803,-2.38734"/></g></g><g><path d="M196.44408,223.40709l-9.05155,-2.5648l-4.63356,-6.29867l6.69272,-11.10729l5.1754,-11.45181l4.44037,-0.97721l4.2988,1.76929l2.93409,11.20295l5.65261,12.37333l-5.11325,5.9451z" fill="#707070" stroke-linecap="round"/><path d="M186.64442,248.84964l3.31975,-33.35853l-3.25924,0.04849l11.04079,-0.31768l9.62308,2.34974l-2.7138,-0.66914l-1.29266,32.9832" fill="#5d5d5d" stroke-linecap="round"/><path d="M184.7122,251.73566c0.34161,-5.51227 5.08714,-9.70391 10.59941,-9.3623c5.51227,0.34161 9.70391,5.08713 9.36229,10.59941c-0.34161,5.51227 -5.08713,9.70391 -10.5994,9.3623c-5.51227,-0.34161 -9.70391,-5.08713 -9.3623,-10.5994z" fill="#707070" stroke-linecap="butt"/></g></g><g><g stroke-linecap="butt"><g><path d="M184.51855,166.22672c0.26423,-25.55478 21.19466,-46.05681 46.74944,-45.79258c25.55478,0.26423 46.05681,21.19466 45.79258,46.74944c-0.26423,25.55478 -21.19466,46.05681 -46.74944,45.79258c-25.55478,-0.26423 -46.05681,-21.19466 -45.79258,-46.74944z" fill="#5d5d5d" stroke="#000000" stroke-width="1.2"/><path d="M231.58202,121.07885c0,0 1.49163,0.03341 2.23047,0.07666c24.15226,1.41324 43.18019,21.57223 42.92736,46.02475c-0.25069,24.2458 -19.36617,43.87929 -43.25767,45.1001c-0.9408,0.04808 -2.84375,0.05772 -2.84375,0.05772z" fill="#686868" stroke="#000000" stroke-width="0"/><path d="M190.61163,166.28973c0.23492,-22.72098 18.84437,-40.94953 41.56535,-40.71459c22.72098,0.23492 40.94954,18.84437 40.7146,41.56535c-0.23492,22.72098 -18.84437,40.94953 -41.56536,40.71459c-22.72098,-0.23492 -40.94953,-18.84436 -40.71459,-41.56535z" fill="#707070" stroke="#838383" stroke-width="0"/><path d="M193.49783,166.31957c0.21845,-21.12697 17.52233,-38.07668 38.64929,-37.85824c21.12697,0.21845 38.07669,17.52233 37.85825,38.64929c-0.21845,21.12697 -17.52234,38.07669 -38.6493,37.85825c-21.12697,-0.21845 -38.07668,-17.52234 -37.85824,-38.6493z" fill="url(#color-1)" stroke="#000000" stroke-width="1.2"/></g><g stroke="#000000"><path d="M194.33444,177.7203c0,0 -2.50347,-6.86821 -2.41137,-11.48825c0.09211,-4.62005 2.86944,-11.4877 2.86944,-11.4877c0.34509,0.01976 1.20659,0.07462 1.67367,0.15341c5.52582,0.93204 9.70826,5.76817 9.64848,11.549c-0.06248,6.04252 -4.73763,10.95728 -10.64565,11.43363c-0.35085,0.02828 -1.06487,0.03721 -1.06487,0.03721c0,0 -0.0248,-0.06903 -0.06971,-0.19727z" fill="#707070" stroke-width="0"/><path d="M194.79252,154.74432c0.34509,0.01976 1.20659,0.07462 1.67367,0.15341c5.52581,0.93204 9.70826,5.76817 9.64848,11.549c-0.06248,6.04252 -4.73763,10.95728 -10.64565,11.43363c-0.35085,0.02828 -1.06487,0.03721 -1.06487,0.03721c0,0 -0.0248,-0.06902 -0.06971,-0.19727" fill="none" stroke-width="1.2"/></g><g stroke="#000000"><path d="M268.89252,178.27794c-0.03228,0.12745 -0.05006,0.19605 -0.05006,0.19605c0,0 -0.47775,-0.02125 -0.71206,-0.0556c-3.946,-0.57824 -6.99026,-5.5728 -6.92778,-11.61531c0.05977,-5.78082 2.94255,-10.5439 6.65706,-11.3804c0.31398,-0.07071 0.89152,-0.1107 1.12284,-0.1245c0,0 1.7913,4.5867 1.72224,11.53518c-0.06708,6.74892 -1.81221,11.44459 -1.81221,11.44459z" fill="#707070" stroke-width="0"/><path d="M268.89252,178.27794c-0.03228,0.12745 -0.05006,0.19605 -0.05006,0.19605c0,0 -0.47775,-0.02125 -0.71206,-0.0556c-3.946,-0.57824 -6.99026,-5.5728 -6.92778,-11.61531c0.05977,-5.78082 2.94255,-10.5439 6.65706,-11.3804c0.31398,-0.07071 0.89152,-0.1107 1.12284,-0.1245" fill="none" stroke-width="1.2"/></g><path d="M193.4425,169.38537l0.06475,-6.26255l4.56086,-1.51866l4.39483,1.61126l-0.06475,6.26255l-4.56221,1.64912z" fill="#21cc26" stroke="#17921c" stroke-width="1.2"/><path d="M263.57404,170.1105l0.06475,-6.26255l3.11811,-1.53358l2.99449,1.59678l-0.06475,6.26255l-3.11945,1.66404z" fill="#21cc26" stroke="#17921c" stroke-width="1.2"/></g><g stroke-linecap="round"><path d="M225.36635,138.49033l2.2007,0.02275l0.35524,-1.09679l1.58105,0.08512l1.25496,-1.63772l0.70336,-1.50587l0.91609,-2.12269l0.66425,2.27659l1.22082,1.66333l1.29244,1.38895l2.5339,1.0579l1.23078,0.70052l-1.1096,0.88267l-1.23718,-0.08157l-1.6619,1.08329l-1.18334,1.36334l-1.05077,1.84618l-0.63885,1.91921l-0.88905,-0.49064l-0.18286,-2.27161l-0.7565,-0.00782l-0.05596,-1.2386l-1.56754,-1.39181l-1.71219,-0.70549l-1.71362,-0.56796z" fill="#eee796" stroke="#eee796" stroke-width="0.25"/><path d="M225.36972,139.71637l0.01408,-1.36169l2.26947,0.02347l0.00939,-0.90779l1.81558,0.01877l0.01173,-1.13474l1.21038,0.01251l-0.70376,-0.00727" fill="none" stroke="#cec344" stroke-width="0.75"/><path d="M230.71055,135.38176l-0.01018,0.98516l0.01877,-1.81558l0.90779,0.00939l0.02347,-2.26948l1.36169,0.01408" fill="none" stroke="#cec344" stroke-width="0.75"/><path d="M234.63642,136.4076l-0.70376,-0.00727l1.21038,0.01251l-0.01173,1.13474l1.81558,0.01877l-0.00939,0.90779l2.26947,0.02347l-0.01408,1.36169" fill="none" stroke="#cec344" stroke-width="0.75"/><path d="M231.70542,132.29181l1.36169,0.01408l-0.02347,2.26948l0.90779,0.00939l-0.01877,1.81558l0.01018,-0.98517" fill="none" stroke="#cec344" stroke-width="0.75"/><path d="M229.93894,141.93705l0.70376,0.00727l-1.21038,-0.01251l0.01173,-1.13474l-1.81558,-0.01877l0.00939,-0.90779l-2.26947,-0.02347l0.01408,-1.36169" fill="none" stroke="#cec344" stroke-width="0.75"/><path d="M232.86994,146.05284l-1.36169,-0.01408l0.02347,-2.26948l-0.90779,-0.00939l0.01877,-1.81557l-0.01018,0.98516" fill="none" stroke="#cec344" stroke-width="0.75"/><path d="M239.20562,138.62828l-0.01408,1.36169l-2.26947,-0.02347l-0.00939,0.90779l-1.81558,-0.01877l-0.01173,1.13474l-1.21038,-0.01251l0.70376,0.00727" fill="none" stroke="#cec344" stroke-width="0.75"/><path d="M233.8648,142.96289l0.01018,-0.98516l-0.01877,1.81558l-0.90779,-0.00939l-0.02347,2.26948l-1.36169,-0.01408" fill="none" stroke="#cec344" stroke-width="0.75"/></g><g stroke-linecap="round"><path d="M224.79426,193.82071l2.2007,0.02275l0.35524,-1.09679l1.58105,0.08512l1.25496,-1.63772l0.70336,-1.50587l0.91609,-2.12269l0.66425,2.27659l1.22082,1.66333l1.29244,1.38895l2.5339,1.0579l1.23078,0.70052l-1.1096,0.88267l-1.23718,-0.08157l-1.6619,1.08329l-1.18334,1.36335l-1.05077,1.84618l-0.63885,1.91921l-0.88905,-0.49064l-0.18286,-2.27161l-0.7565,-0.00782l-0.05596,-1.2386l-1.56754,-1.3918l-1.71219,-0.7055l-1.71362,-0.56795z" fill="#eee796" stroke="#eee796" stroke-width="0.25"/><path d="M224.79763,195.04675l0.01408,-1.36169l2.26947,0.02347l0.00939,-0.90779l1.81558,0.01877l0.01173,-1.13473l1.21038,0.01251l-0.70376,-0.00727" fill="none" stroke="#cec344" stroke-width="0.75"/><path d="M230.13846,190.71213l-0.01018,0.98516l0.01877,-1.81558l0.90779,0.00939l0.02347,-2.26948l1.36169,0.01408" fill="none" stroke="#cec344" stroke-width="0.75"/><path d="M234.06432,191.73798l-0.70376,-0.00727l1.21038,0.01251l-0.01173,1.13473l1.81558,0.01877l-0.00939,0.90779l2.26947,0.02347l-0.01408,1.36169" fill="none" stroke="#cec344" stroke-width="0.75"/><path d="M231.13332,187.62219l1.36169,0.01408l-0.02347,2.26948l0.90779,0.00939l-0.01877,1.81558l0.01018,-0.98517" fill="none" stroke="#cec344" stroke-width="0.75"/><path d="M229.36684,197.26742l0.70376,0.00727l-1.21038,-0.01251l0.01173,-1.13473l-1.81558,-0.01877l0.00939,-0.90779l-2.26947,-0.02347l0.01408,-1.36169" fill="none" stroke="#cec344" stroke-width="0.75"/><path d="M232.29784,201.38321l-1.36169,-0.01408l0.02347,-2.26948l-0.90779,-0.00939l0.01877,-1.81558l-0.01018,0.98517" fill="none" stroke="#cec344" stroke-width="0.75"/><path d="M238.63352,193.95865l-0.01408,1.36169l-2.26947,-0.02347l-0.00939,0.90779l-1.81558,-0.01877l-0.01173,1.13473l-1.21038,-0.01251l0.70376,0.00727" fill="none" stroke="#cec344" stroke-width="0.75"/><path d="M233.2927,198.29327l0.01018,-0.98517l-0.01877,1.81558l-0.90779,-0.00939l-0.02347,2.26948l-1.36169,-0.01408" fill="none" stroke="#cec344" stroke-width="0.75"/></g><g stroke-linecap="round"><path d="M247.44877,142.09761l1.54004,1.57222l1.02675,-0.52437l1.05777,1.17816l2.04543,-0.27066l1.56217,-0.56746l2.14873,-0.8532l-1.14009,2.07948l-0.3129,2.03942l-0.06823,1.89602l1.0437,2.53979l0.37495,1.36563l-1.40874,-0.16046l-0.81714,-0.9325l-1.94114,-0.40915l-1.80078,0.12728l-2.04846,0.56243l-1.80883,0.90535l-0.28173,-0.9756l1.47697,-1.73556l-0.5294,-0.54045l0.83625,-0.9154l-0.12426,-2.09256l-0.71185,-1.70956l-0.8101,-1.61331z" fill="#eee796" stroke="#eee796" stroke-width="0.25"/><path d="M246.58422,142.96692l0.97282,-0.9529l1.58817,1.62134l0.64854,-0.63526l1.27054,1.29708l0.81067,-0.79409l0.84702,0.86472l-0.49249,-0.50278" fill="none" stroke="#cec344" stroke-width="0.75"/><path d="M253.42579,143.67843l-0.7038,0.6894l1.29708,-1.27054l0.63527,0.64855l1.62134,-1.58816l0.9529,0.97282" fill="none" stroke="#cec344" stroke-width="0.75"/><path d="M255.47641,147.17982l-0.49249,-0.50279l0.84702,0.86472l-0.81067,0.79408l1.27054,1.29708l-0.64854,0.63526l1.58817,1.62135l-0.97282,0.9529" fill="none" stroke="#cec344" stroke-width="0.75"/><path d="M256.31418,142.19697l0.9529,0.97282l-1.62135,1.58817l0.63527,0.64855l-1.29708,1.27054l0.70381,-0.68941" fill="none" stroke="#cec344" stroke-width="0.75"/><path d="M248.24488,147.7681l0.49249,0.50278l-0.84701,-0.86472l0.81067,-0.79408l-1.27054,-1.29708l0.64855,-0.63527l-1.58817,-1.62135l0.97282,-0.9529" fill="none" stroke="#cec344" stroke-width="0.75"/><path d="M247.40711,152.75094l-0.9529,-0.97282l1.62135,-1.58817l-0.63527,-0.64855l1.29707,-1.27053l-0.70381,0.68941" fill="none" stroke="#cec344" stroke-width="0.75"/><path d="M257.13707,151.98099l-0.97282,0.9529l-1.58816,-1.62135l-0.64855,0.63527l-1.27054,-1.29708l-0.81067,0.79408l-0.84702,-0.86472l0.4925,0.50279" fill="none" stroke="#cec344" stroke-width="0.75"/><path d="M250.2955,151.26949l0.70381,-0.68941l-1.29708,1.27054l-0.63527,-0.64855l-1.62134,1.58816l-0.9529,-0.97282" fill="none" stroke="#cec344" stroke-width="0.75"/></g><g stroke-linecap="round"><path d="M207.91974,180.81756l1.54005,1.57222l1.02675,-0.52437l1.05777,1.17816l2.04543,-0.27066l1.56217,-0.56746l2.14873,-0.8532l-1.14009,2.07948l-0.3129,2.03941l-0.06823,1.89603l1.0437,2.53979l0.37496,1.36563l-1.40875,-0.16046l-0.81714,-0.93251l-1.94114,-0.40915l-1.80078,0.12727l-2.04846,0.56244l-1.80883,0.90535l-0.28173,-0.9756l1.47697,-1.73557l-0.52939,-0.54045l0.83625,-0.9154l-0.12427,-2.09256l-0.71185,-1.70956l-0.8101,-1.61331z" fill="#eee796" stroke="#eee796" stroke-width="0.25"/><path d="M207.0552,181.68688l0.97282,-0.9529l1.58816,1.62134l0.64855,-0.63527l1.27054,1.29708l0.81067,-0.79408l0.84702,0.86472l-0.49249,-0.50278" fill="none" stroke="#cec344" stroke-width="0.75"/><path d="M213.89676,182.39838l-0.70381,0.68941l1.29708,-1.27054l0.63527,0.64855l1.62135,-1.58817l0.9529,0.97282" fill="none" stroke="#cec344" stroke-width="0.75"/><path d="M215.94738,185.89977l-0.49249,-0.50278l0.84702,0.86472l-0.81067,0.79408l1.27054,1.29708l-0.64855,0.63527l1.58817,1.62135l-0.97282,0.9529" fill="none" stroke="#cec344" stroke-width="0.75"/><path d="M216.78516,180.91693l0.9529,0.97282l-1.62135,1.58817l0.63527,0.64855l-1.29708,1.27053l0.70381,-0.68941" fill="none" stroke="#cec344" stroke-width="0.75"/><path d="M208.71586,186.48805l0.49249,0.50278l-0.84702,-0.86472l0.81067,-0.79408l-1.27054,-1.29707l0.64855,-0.63527l-1.58817,-1.62135l0.97282,-0.9529" fill="none" stroke="#cec344" stroke-width="0.75"/><path d="M207.87809,191.47089l-0.9529,-0.97282l1.62135,-1.58817l-0.63527,-0.64855l1.29708,-1.27054l-0.70382,0.68941" fill="none" stroke="#cec344" stroke-width="0.75"/><path d="M217.60805,190.70094l-0.97282,0.9529l-1.58817,-1.62135l-0.64855,0.63527l-1.27054,-1.29708l-0.81067,0.79408l-0.84701,-0.86472l0.49249,0.50278" fill="none" stroke="#cec344" stroke-width="0.75"/><path d="M210.76648,189.98944l0.70381,-0.68941l-1.29708,1.27054l-0.63527,-0.64855l-1.62135,1.58817l-0.9529,-0.97282" fill="none" stroke="#cec344" stroke-width="0.75"/></g><g stroke-linecap="round"><path d="M207.201,151.55423l1.57222,-1.54005l-0.52437,-1.02675l1.17816,-1.05777l-0.27066,-2.04543l-0.56746,-1.56217l-0.8532,-2.14872l2.07948,1.14009l2.03941,0.3129l1.89603,0.06823l2.53978,-1.0437l1.36564,-0.37496l-0.16047,1.40875l-0.9325,0.81714l-0.40915,1.94114l0.12727,1.80078l0.56243,2.04846l0.90535,1.80883l-0.9756,0.28173l-1.73556,-1.47697l-0.54045,0.52939l-0.9154,-0.83625l-2.09256,0.12427l-1.70956,0.71185l-1.61331,0.8101z" fill="#eee796" stroke="#eee796" stroke-width="0.25"/><path d="M208.07031,152.41878l-0.9529,-0.97282l1.62135,-1.58817l-0.63527,-0.64855l1.29708,-1.27054l-0.79408,-0.81067l0.86472,-0.84702l-0.50278,0.49249" fill="none" stroke="#cec344" stroke-width="0.75"/><path d="M208.78182,145.5772l0.68941,0.70381l-1.27054,-1.29708l0.64855,-0.63527l-1.58816,-1.62135l0.97282,-0.9529" fill="none" stroke="#cec344" stroke-width="0.75"/><path d="M212.28321,143.52659l-0.50278,0.49249l0.86472,-0.84702l0.79408,0.81067l1.29708,-1.27054l0.63527,0.64855l1.62134,-1.58817l0.9529,0.97282" fill="none" stroke="#cec344" stroke-width="0.75"/><path d="M207.30037,142.68882l0.97282,-0.9529l1.58817,1.62135l0.64855,-0.63527l1.27054,1.29708l-0.68941,-0.70381" fill="none" stroke="#cec344" stroke-width="0.75"/><path d="M212.87149,150.75811l0.50278,-0.49249l-0.86472,0.84702l-0.79408,-0.81067l-1.29708,1.27054l-0.63527,-0.64855l-1.62135,1.58816l-0.9529,-0.97282" fill="none" stroke="#cec344" stroke-width="0.75"/><path d="M217.85434,151.59589l-0.97282,0.9529l-1.58817,-1.62135l-0.64855,0.63527l-1.27053,-1.29707l0.68941,0.70381" fill="none" stroke="#cec344" stroke-width="0.75"/><path d="M217.08438,141.86593l0.9529,0.97282l-1.62135,1.58817l0.63527,0.64855l-1.29708,1.27054l0.79408,0.81067l-0.86471,0.84702l0.50278,-0.49249" fill="none" stroke="#cec344" stroke-width="0.75"/><path d="M216.37287,148.7075l-0.68941,-0.70381l1.27053,1.29708l-0.64854,0.63527l1.58817,1.62134l-0.97282,0.9529" fill="none" stroke="#cec344" stroke-width="0.75"/></g><g stroke-linecap="round"><path d="M245.92095,191.08325l1.57222,-1.54004l-0.52437,-1.02675l1.17816,-1.05777l-0.27066,-2.04543l-0.56746,-1.56217l-0.8532,-2.14872l2.07948,1.14009l2.03941,0.3129l1.89603,0.06822l2.53979,-1.0437l1.36563,-0.37495l-0.16047,1.40874l-0.9325,0.81713l-0.40915,1.94115l0.12728,1.80078l0.56243,2.04847l0.90536,1.80883l-0.97561,0.28173l-1.73556,-1.47698l-0.54045,0.52939l-0.9154,-0.83625l-2.09255,0.12426l-1.70956,0.71185l-1.61331,0.8101z" fill="#eee796" stroke="#eee796" stroke-width="0.25"/><path d="M246.79027,191.94781l-0.9529,-0.97282l1.62134,-1.58817l-0.63527,-0.64855l1.29708,-1.27054l-0.79408,-0.81067l0.86472,-0.84702l-0.50278,0.49249" fill="none" stroke="#cec344" stroke-width="0.75"/><path d="M247.50177,185.10623l0.68941,0.70381l-1.27054,-1.29708l0.64855,-0.63527l-1.58816,-1.62135l0.97282,-0.9529" fill="none" stroke="#cec344" stroke-width="0.75"/><path d="M251.00316,183.05562l-0.50278,0.49249l0.86472,-0.84701l0.79408,0.81067l1.29708,-1.27054l0.63527,0.64855l1.62135,-1.58816l0.9529,0.97282" fill="none" stroke="#cec344" stroke-width="0.75"/><path d="M246.02032,182.21784l0.97282,-0.9529l1.58817,1.62134l0.64855,-0.63527l1.27054,1.29708l-0.68941,-0.70381" fill="none" stroke="#cec344" stroke-width="0.75"/><path d="M251.59143,190.28714l0.50279,-0.49249l-0.86472,0.84701l-0.79408,-0.81067l-1.29708,1.27054l-0.63527,-0.64855l-1.62135,1.58817l-0.9529,-0.97282" fill="none" stroke="#cec344" stroke-width="0.75"/><path d="M256.57428,191.12491l-0.97282,0.9529l-1.58817,-1.62135l-0.64855,0.63527l-1.27054,-1.29708l0.68941,0.70381" fill="none" stroke="#cec344" stroke-width="0.75"/><path d="M255.80433,181.39495l0.9529,0.97282l-1.62135,1.58817l0.63527,0.64855l-1.29708,1.27054l0.79408,0.81067l-0.86471,0.84702l0.50278,-0.4925" fill="none" stroke="#cec344" stroke-width="0.75"/><path d="M255.09283,188.23652l-0.68941,-0.70381l1.27053,1.29707l-0.64855,0.63527l1.58817,1.62135l-0.97282,0.9529" fill="none" stroke="#cec344" stroke-width="0.75"/></g></g><g stroke-linecap="round"><g><g stroke="#00a8c1"><path d="M243.91586,167.21749l0.09878,-9.55289l1.76725,0.01828l0.03086,-2.98528l2.14593,0.02219l0.02675,-2.58724l4.92304,0.0509l-0.02675,2.58724l1.76725,0.01828l-0.03086,2.98528l1.76725,0.01828l-0.09878,9.55289" fill="#00d4f5" stroke-width="0"/><path d="M243.96897,162.08032l-0.05311,5.13717l0.09878,-9.55289l1.76725,0.01828l0.03086,-2.98528l2.14593,0.02219l0.02675,-2.58724l4.92304,0.0509l-0.02675,2.58724l1.76725,0.01828l-0.03086,2.98528l1.76725,0.01828l-0.09878,9.55289l0.04278,-4.13722" fill="none" stroke-width="1.5"/></g><g><path d="M256.29044,166.96919l-0.09878,9.55289l-1.76725,-0.01828l-0.03086,2.98528l-1.76725,-0.01828l-0.02675,2.58724l-4.92304,-0.0509l0.02675,-2.58724l-2.14593,-0.02219l0.03086,-2.98528l-1.76725,-0.01828l0.09878,-9.55289" fill="#00fdb0" stroke="#00a8c1" stroke-width="0"/><path d="M256.24767,171.10641l0.04278,-4.13722l-0.09878,9.55289l-1.76725,-0.01828l-0.03086,2.98528l-1.76725,-0.01828l-0.02675,2.58724l-4.92304,-0.0509l0.02675,-2.58724l-2.14593,-0.02219l0.03086,-2.98528l-1.76725,-0.01828l0.09878,-9.55289l-0.05311,5.13717" fill="none" stroke="#00a674" stroke-width="1.5"/></g></g><g><g stroke="#00a8c1"><path d="M215.91735,166.92799l0.09878,-9.55289l2.30293,0.02381l0.03086,-2.98528l2.79641,0.02892l0.02675,-2.58724l6.41531,0.06633l-0.02675,2.58724l2.30293,0.02381l-0.03086,2.98528l2.30293,0.02381l-0.09878,9.55289" fill="#00d4f5" stroke-width="0"/><path d="M215.97047,161.79083l-0.05311,5.13717l0.09878,-9.55289l2.30293,0.02381l0.03086,-2.98528l2.79641,0.02892l0.02675,-2.58724l6.41531,0.06633l-0.02675,2.58724l2.30293,0.02381l-0.03086,2.98528l2.30293,0.02381l-0.09878,9.55289l0.04278,-4.13722" fill="none" stroke-width="1.5"/></g><g><path d="M232.04174,166.71847l-0.09878,9.55289l-2.30293,-0.02381l-0.03086,2.98528l-2.30293,-0.02381l-0.02675,2.58724l-6.41531,-0.06633l0.02675,-2.58724l-2.79641,-0.02892l0.03086,-2.98528l-2.30293,-0.02381l0.09878,-9.55289" fill="#00fdb0" stroke="#00a8c1" stroke-width="0"/><path d="M231.99897,170.85568l0.04278,-4.13722l-0.09878,9.55289l-2.30293,-0.02381l-0.03086,2.98528l-2.30293,-0.02381l-0.02675,2.58724l-6.41531,-0.06633l0.02675,-2.58724l-2.79641,-0.02892l0.03086,-2.98528l-2.30293,-0.02381l0.09878,-9.55289l-0.05311,5.13717" fill="none" stroke="#00a674" stroke-width="1.5"/></g></g></g><g stroke="#000000" stroke-width="1.2"><path d="M260.79136,224.43518c-4.27144,-5.66619 -3.14077,-13.72223 2.52542,-17.99367c5.6662,-4.27144 13.72224,-3.14077 17.99367,2.52543c4.27144,5.66619 3.14078,13.72223 -2.52542,17.99367c-5.6662,4.27144 -13.72224,3.14077 -17.99367,-2.52543z" fill="#5c5e5f" stroke-linecap="butt"/><g stroke-linecap="round"><path d="M282.28908,245.96731l-9.05711,2.73206l-2.16384,-5.97493l-5.61622,-3.95745l2.1294,-8.0412" fill="#5d5d5d"/><path d="M284.8803,216.61468l3.22586,0.9789l1.36602,4.52854l4.76675,0.50222l1.2828,8.6869l3.50691,1.1594l1.88546,6.76987l-5.34644,10.75889l-12.70176,2.55412l-3.98329,-4.89589l-0.00861,-3.50403l-3.32036,-1.30003l-3.23426,-4.29036l0.88103,-2.71196l-3.32037,-1.30003l-2.43933,-4.01199l7.91492,-11.23242z" fill="#5d5d5d"/><path d="M279.9559,228.12574l-5.59037,6.55463" fill="none"/><path d="M285.91076,236.80116l-5.68508,6.04094" fill="none"/></g><path d="M292.36049,255.0586l-4.39025,-5.8238l2.77041,-5.25052l6.01296,-0.94918l4.37413,5.41434l-2.8395,5.93501z" fill="#5c5e5f" stroke-linecap="round"/></g></g></g></svg>