<svg version="1.1" xmlns="http://www.w3.org/2000/svg" xmlns:xlink="http://www.w3.org/1999/xlink" width="323.92859" height="323.92859" viewBox="0,0,323.92859,323.92859"><g transform="translate(-78.0357,-18.0357)"><g stroke-miterlimit="10"><g stroke-linecap="butt"><path d="M287.05093,300.69278l4.37749,-69.80064l45.02029,-0.10411l-6.86993,69.90475z" fill="#868995" stroke="#000000" stroke-width="1.2"/><g><g><g><g fill="#868995" stroke="#000000" stroke-width="1.2"><path d="M314.13359,264.2157c0,0 -14.71488,0.3452 -16.54198,-1.91087c-1.40985,-1.74086 0.46249,-24.77184 2.15979,-26.4586c1.7424,-1.73158 16.44297,-1.76388 16.44297,-1.76388"/></g><g fill="none" stroke="none" stroke-width="1" font-family="sans-serif" font-weight="normal" font-size="12" text-anchor="start"/><g fill="none" stroke="none" stroke-width="1" font-family="sans-serif" font-weight="normal" font-size="12" text-anchor="start"/></g><g><g fill="#868995" stroke="#000000" stroke-width="1.2"><path d="M316.08632,234.08235c0,0 14.6953,0.0323 16.15501,1.76388c1.42192,1.68676 -0.46573,24.71773 -2.15979,26.45859c-2.19541,2.25607 -16.85394,1.91088 -16.85394,1.91088"/></g><g fill="none" stroke="none" stroke-width="1" font-family="sans-serif" font-weight="normal" font-size="12" text-anchor="start"/><g fill="none" stroke="none" stroke-width="1" font-family="sans-serif" font-weight="normal" font-size="12" text-anchor="start"/></g></g><g><g><g fill="#4e4f56" stroke="#000000" stroke-width="1.2"><path d="M314.22497,262.44251c0,0 -12.98201,0.30455 -14.59394,-1.68584c-1.24382,-1.53585 0.40802,-21.85463 1.90544,-23.34275c1.53721,-1.52767 14.5066,-1.55616 14.5066,-1.55616"/></g><g fill="none" stroke="none" stroke-width="1" font-family="sans-serif" font-weight="normal" font-size="12" text-anchor="start"/><g fill="none" stroke="none" stroke-width="1" font-family="sans-serif" font-weight="normal" font-size="12" text-anchor="start"/></g><g><g fill="#4e4f56" stroke="#000000" stroke-width="1.2"><path d="M315.94775,235.85776c0,0 12.96474,0.0285 14.25254,1.55616c1.25447,1.48812 -0.41089,21.8069 -1.90545,23.34275c-1.93687,1.99039 -14.86917,1.68584 -14.86917,1.68584"/></g><g fill="none" stroke="none" stroke-width="1" font-family="sans-serif" font-weight="normal" font-size="12" text-anchor="start"/><g fill="none" stroke="none" stroke-width="1" font-family="sans-serif" font-weight="normal" font-size="12" text-anchor="start"/></g></g><g><g><g fill="#9497a4" stroke="#000000" stroke-width="1.2"><path d="M314.68197,253.57661c0,0 -4.31767,0.10129 -4.85378,-0.56069c-0.41368,-0.51081 0.1357,-7.26859 0.63373,-7.76352c0.51126,-0.50808 4.82472,-0.51756 4.82472,-0.51756"/></g><g fill="none" stroke="none" stroke-width="1" font-family="sans-serif" font-weight="normal" font-size="12" text-anchor="start"/><g fill="none" stroke="none" stroke-width="1" font-family="sans-serif" font-weight="normal" font-size="12" text-anchor="start"/></g><g><g fill="#9497a4" stroke="#000000" stroke-width="1.2"><path d="M315.25494,244.73483c0,0 4.31192,0.00948 4.74023,0.51756c0.41723,0.49493 -0.13665,7.25272 -0.63373,7.76352c-0.64418,0.66198 -4.94531,0.56069 -4.94531,0.56069"/></g><g fill="none" stroke="none" stroke-width="1" font-family="sans-serif" font-weight="normal" font-size="12" text-anchor="start"/><g fill="none" stroke="none" stroke-width="1" font-family="sans-serif" font-weight="normal" font-size="12" text-anchor="start"/></g></g></g><g><g><g><g fill="#868995" stroke="#000000" stroke-width="1.2"><path d="M311.59361,294.79085c0,0 -11.16273,0.26187 -12.54877,-1.44959c-1.06951,-1.32062 0.35084,-18.79196 1.63841,-20.07154c1.32179,-1.31358 12.47367,-1.33808 12.47367,-1.33808"/></g><g fill="none" stroke="none" stroke-width="1" font-family="sans-serif" font-weight="normal" font-size="12" text-anchor="start"/><g fill="none" stroke="none" stroke-width="1" font-family="sans-serif" font-weight="normal" font-size="12" text-anchor="start"/></g><g><g fill="#868995" stroke="#000000" stroke-width="1.2"><path d="M313.07496,271.93164c0,0 11.14788,0.0245 12.25522,1.33808c1.07867,1.27958 -0.3533,18.75092 -1.63842,20.07154c-1.66544,1.71146 -12.78544,1.44959 -12.78544,1.44959"/></g><g fill="none" stroke="none" stroke-width="1" font-family="sans-serif" font-weight="normal" font-size="12" text-anchor="start"/><g fill="none" stroke="none" stroke-width="1" font-family="sans-serif" font-weight="normal" font-size="12" text-anchor="start"/></g></g><g><g><g fill="#4e4f56" stroke="#000000" stroke-width="1.2"><path d="M311.66294,293.44571c0,0 -9.84817,0.23103 -11.07098,-1.27888c-0.94357,-1.1651 0.30953,-16.57896 1.44547,-17.70785c1.16613,-1.15889 11.00473,-1.18051 11.00473,-1.18051"/></g><g fill="none" stroke="none" stroke-width="1" font-family="sans-serif" font-weight="normal" font-size="12" text-anchor="start"/><g fill="none" stroke="none" stroke-width="1" font-family="sans-serif" font-weight="normal" font-size="12" text-anchor="start"/></g><g><g fill="#4e4f56" stroke="#000000" stroke-width="1.2"><path d="M312.96985,273.27847c0,0 9.83507,0.02162 10.812,1.18051c0.95164,1.12889 -0.3117,16.54275 -1.44547,17.70785c-1.46932,1.50991 -11.27978,1.27888 -11.27978,1.27888"/></g><g fill="none" stroke="none" stroke-width="1" font-family="sans-serif" font-weight="normal" font-size="12" text-anchor="start"/><g fill="none" stroke="none" stroke-width="1" font-family="sans-serif" font-weight="normal" font-size="12" text-anchor="start"/></g></g><g><g><g fill="#9497a4" stroke="#000000" stroke-width="1.2"><path d="M312.00961,286.72002c0,0 -3.27538,0.07683 -3.68208,-0.42534c-0.31382,-0.3875 0.10295,-5.51397 0.48075,-5.88942c0.38784,-0.38543 3.66004,-0.39263 3.66004,-0.39263"/></g><g fill="none" stroke="none" stroke-width="1" font-family="sans-serif" font-weight="normal" font-size="12" text-anchor="start"/><g fill="none" stroke="none" stroke-width="1" font-family="sans-serif" font-weight="normal" font-size="12" text-anchor="start"/></g><g><g fill="#9497a4" stroke="#000000" stroke-width="1.2"><path d="M312.44426,280.01263c0,0 3.27103,0.00719 3.59595,0.39263c0.31651,0.37545 -0.10367,5.50192 -0.48075,5.88942c-0.48867,0.50218 -3.75152,0.42534 -3.75152,0.42534"/></g><g fill="none" stroke="none" stroke-width="1" font-family="sans-serif" font-weight="normal" font-size="12" text-anchor="start"/><g fill="none" stroke="none" stroke-width="1" font-family="sans-serif" font-weight="normal" font-size="12" text-anchor="start"/></g></g></g></g><g stroke-linecap="butt"><path d="M150.4212,300.69278l-6.86992,-69.90475l45.02029,0.10411l4.37749,69.80064z" fill="#868995" stroke="#000000" stroke-width="1.2"/><g><g><g><g fill="#868995" stroke="#000000" stroke-width="1.2"><path d="M163.80563,234.08235c0,0 14.70057,0.0323 16.44297,1.76388c1.6973,1.68676 3.56964,24.71773 2.15979,26.45859c-1.82709,2.25607 -16.54198,1.91087 -16.54198,1.91087"/></g><g fill="none" stroke="none" stroke-width="1" font-family="sans-serif" font-weight="normal" font-size="12" text-anchor="start"/><g fill="none" stroke="none" stroke-width="1" font-family="sans-serif" font-weight="normal" font-size="12" text-anchor="start"/></g><g><g fill="#868995" stroke="#000000" stroke-width="1.2"><path d="M166.77241,264.2157c0,0 -14.65853,0.3452 -16.85394,-1.91087c-1.69406,-1.74086 -3.58171,-24.77183 -2.15979,-26.45859c1.45971,-1.73158 16.15501,-1.76388 16.15501,-1.76388"/></g><g fill="none" stroke="none" stroke-width="1" font-family="sans-serif" font-weight="normal" font-size="12" text-anchor="start"/><g fill="none" stroke="none" stroke-width="1" font-family="sans-serif" font-weight="normal" font-size="12" text-anchor="start"/></g></g><g><g><g fill="#4e4f56" stroke="#000000" stroke-width="1.2"><path d="M163.95692,235.85776c0,0 12.96939,0.0285 14.5066,1.55616c1.49742,1.48812 3.14926,21.8069 1.90544,23.34275c-1.61193,1.99039 -14.59394,1.68584 -14.59394,1.68584"/></g><g fill="none" stroke="none" stroke-width="1" font-family="sans-serif" font-weight="normal" font-size="12" text-anchor="start"/><g fill="none" stroke="none" stroke-width="1" font-family="sans-serif" font-weight="normal" font-size="12" text-anchor="start"/></g><g><g fill="#4e4f56" stroke="#000000" stroke-width="1.2"><path d="M166.57432,262.44251c0,0 -12.93229,0.30455 -14.86917,-1.68584c-1.49456,-1.53585 -3.15992,-21.85463 -1.90544,-23.34275c1.28781,-1.52766 14.25254,-1.55616 14.25254,-1.55616"/></g><g fill="none" stroke="none" stroke-width="1" font-family="sans-serif" font-weight="normal" font-size="12" text-anchor="start"/><g fill="none" stroke="none" stroke-width="1" font-family="sans-serif" font-weight="normal" font-size="12" text-anchor="start"/></g></g><g><g><g fill="#9497a4" stroke="#000000" stroke-width="1.2"><path d="M164.71335,244.73483c0,0 4.31347,0.00948 4.82472,0.51756c0.49803,0.49493 1.04741,7.25272 0.63373,7.76352c-0.53611,0.66198 -4.85377,0.56069 -4.85377,0.56069"/></g><g fill="none" stroke="none" stroke-width="1" font-family="sans-serif" font-weight="normal" font-size="12" text-anchor="start"/><g fill="none" stroke="none" stroke-width="1" font-family="sans-serif" font-weight="normal" font-size="12" text-anchor="start"/></g><g><g fill="#9497a4" stroke="#000000" stroke-width="1.2"><path d="M165.58387,253.57661c0,0 -4.30113,0.10129 -4.94531,-0.56069c-0.49707,-0.51081 -1.05095,-7.26859 -0.63373,-7.76352c0.42831,-0.50808 4.74023,-0.51756 4.74023,-0.51756"/></g><g fill="none" stroke="none" stroke-width="1" font-family="sans-serif" font-weight="normal" font-size="12" text-anchor="start"/><g fill="none" stroke="none" stroke-width="1" font-family="sans-serif" font-weight="normal" font-size="12" text-anchor="start"/></g></g></g><g><g><g><g fill="#868995" stroke="#000000" stroke-width="1.2"><path d="M166.84307,271.93164c0,0 11.15188,0.0245 12.47367,1.33808c1.28757,1.27958 2.70793,18.75092 1.63842,20.07154c-1.38604,1.71146 -12.54877,1.44959 -12.54877,1.44959"/></g><g fill="none" stroke="none" stroke-width="1" font-family="sans-serif" font-weight="normal" font-size="12" text-anchor="start"/><g fill="none" stroke="none" stroke-width="1" font-family="sans-serif" font-weight="normal" font-size="12" text-anchor="start"/></g><g><g fill="#868995" stroke="#000000" stroke-width="1.2"><path d="M169.09368,294.79085c0,0 -11.11999,0.26187 -12.78543,-1.44959c-1.28511,-1.32062 -2.71709,-18.79196 -1.63842,-20.07153c1.10733,-1.31358 12.25522,-1.33808 12.25522,-1.33808"/></g><g fill="none" stroke="none" stroke-width="1" font-family="sans-serif" font-weight="normal" font-size="12" text-anchor="start"/><g fill="none" stroke="none" stroke-width="1" font-family="sans-serif" font-weight="normal" font-size="12" text-anchor="start"/></g></g><g><g><g fill="#4e4f56" stroke="#000000" stroke-width="1.2"><path d="M166.95783,273.27847c0,0 9.8386,0.02162 11.00473,1.18051c1.13595,1.12889 2.38904,16.54275 1.44547,17.70785c-1.22281,1.50991 -11.07099,1.27888 -11.07099,1.27888"/></g><g fill="none" stroke="none" stroke-width="1" font-family="sans-serif" font-weight="normal" font-size="12" text-anchor="start"/><g fill="none" stroke="none" stroke-width="1" font-family="sans-serif" font-weight="normal" font-size="12" text-anchor="start"/></g><g><g fill="#4e4f56" stroke="#000000" stroke-width="1.2"><path d="M168.9434,293.44571c0,0 -9.81046,0.23103 -11.27978,-1.27888c-1.13378,-1.1651 -2.39712,-16.57896 -1.44547,-17.70785c0.97693,-1.15889 10.812,-1.18051 10.812,-1.18051"/></g><g fill="none" stroke="none" stroke-width="1" font-family="sans-serif" font-weight="normal" font-size="12" text-anchor="start"/><g fill="none" stroke="none" stroke-width="1" font-family="sans-serif" font-weight="normal" font-size="12" text-anchor="start"/></g></g><g><g><g fill="#9497a4" stroke="#000000" stroke-width="1.2"><path d="M167.53167,280.01263c0,0 3.2722,0.00719 3.66005,0.39262c0.3778,0.37545 0.79457,5.50193 0.48075,5.88942c-0.40669,0.50218 -3.68208,0.42534 -3.68208,0.42534"/></g><g fill="none" stroke="none" stroke-width="1" font-family="sans-serif" font-weight="normal" font-size="12" text-anchor="start"/><g fill="none" stroke="none" stroke-width="1" font-family="sans-serif" font-weight="normal" font-size="12" text-anchor="start"/></g><g><g fill="#9497a4" stroke="#000000" stroke-width="1.2"><path d="M168.19205,286.72002c0,0 -3.26285,0.07684 -3.75152,-0.42534c-0.37708,-0.3875 -0.79725,-5.51397 -0.48074,-5.88942c0.32492,-0.38543 3.59594,-0.39262 3.59594,-0.39262"/></g><g fill="none" stroke="none" stroke-width="1" font-family="sans-serif" font-weight="normal" font-size="12" text-anchor="start"/><g fill="none" stroke="none" stroke-width="1" font-family="sans-serif" font-weight="normal" font-size="12" text-anchor="start"/></g></g></g></g><path d="M187.3461,300.92055l-3.94905,-103.37655h113.20589l-3.94904,103.37655z" fill="#868995" stroke="#000000" stroke-width="1.2" stroke-linecap="butt"/><path d="M192.35429,176.0774" fill="none" stroke="#000000" stroke-width="1.2" stroke-linecap="round"/><path d="M200.34224,180.47576" fill="none" stroke="#000000" stroke-width="1.2" stroke-linecap="round"/><g><g stroke-linecap="round"><g stroke="#000000" stroke-width="1.2"><path d="M207.19864,159.11808c-15.8741,-2.27286 -28.17558,-32.66029 -28.17558,-32.66029c9.99213,-1.80662 14.25802,1.8491 14.80454,2.19385c0.54669,0.34559 10.6781,8.1722 10.6781,8.1722c-0.42643,13.45592 2.69294,22.29425 2.69294,22.29425zM204.80494,133.95484c0,0 -0.29168,2.04658 -0.30819,3.15355M207.19864,159.11808c0.31322,0.8894 1.16117,2.25462 1.16117,2.25462" fill="#be1e2d"/><path d="M200.59528,156.12472c-3.04111,-1.87699 -6.77377,-4.85736 -10.38785,-9.5063c-3.22224,-4.14524 -6.64981,-10.67413 -8.8451,-15.17699l0.06104,-0.06969c6.14927,-1.52348 9.9936,2.45292 9.9936,2.45292l0.24152,0.32085c1.61722,2.37775 3.34208,4.7595 4.71767,6.267c0.81216,0.89149 1.66897,1.66233 2.46384,2.30002c0,0 1.76706,4.16456 2.1954,7.12959c0.6397,4.38541 -0.56557,6.21982 -0.56557,6.21982z" fill="#929497"/></g><path d="M269.1136,168.093l-10.32869,9.07191l-24.19679,1.74001l-10.01914,5.08916l-15.67753,-3.66903l-7.08768,-7.88731l-6.25328,-9.57464l-4.07922,-12.25403l-0.10747,-12.31051l2.51383,-9.52889l4.31717,-9.43071l6.1286,-8.65432l7.0515,-7.8321l7.93059,-7.29403l5.61154,-4.24133l2.37227,-2.9569l2.51086,-4.77906l1.60132,-4.5895l1.21769,-6.14406l-0.78234,-8.15084l4.85484,5.40463l5.1046,7.02401l0.01334,-3.92471l1.09518,2.08685l4.25919,6.55653l5.89659,6.14226l3.84247,2.85187l5.60142,4.22846l6.81681,5.08902l6.17574,5.94649l5.1647,6.41087l4.52363,7.26833l3.39908,6.99664l1.30889,7.48372l0.70522,7.58082l-0.83471,6.62161l-2.13955,8.18931l-2.76728,5.12205l-4.82894,6.95914z" fill="#be1e2d" stroke="#8c8c8c" stroke-width="0"/><path d="M279.93797,168.86361l-10.87295,-0.69116l-10.30624,9.22975l-24.13915,1.4693l-10.02884,5.04606l-14.90204,-2.97618c0,0 -50.02964,-40.38775 14.94198,-89.0578c0,0 11.29165,-11.98717 6.70977,-27.92767c-0.37265,-1.2965 10.26717,13.1391 10.26717,13.1391c0,0 -0.31129,-5.3065 -0.05837,-4.6529c2.80292,7.24352 12.08664,16.22255 12.08664,16.22255c57.3012,35.1362 31.06638,74.26146 31.06638,74.26146z" fill="none" stroke="#000000" stroke-width="1.2"/><g stroke="#000000" stroke-width="1.2"><path d="M281.60546,124.52948c0,0 7.63714,-11.50026 8.07276,-12.05361c0.43573,-0.55254 3.54092,-5.71034 13.99364,-8.70926c0,0 -2.86978,32.25566 -17.89876,41.5245c0,0 0.38039,-9.17146 -4.16765,-20.76163zM281.70157,124.77463c-0.35574,-0.962 -1.27219,-2.62081 -1.27219,-2.62081M285.31404,147.79827c0,0 0.42145,-1.58454 0.45906,-2.50715" fill="#be1e2d"/><path d="M291.50206,139.52923c0,0 -1.75644,-1.0541 -2.46729,-5.18848c-0.48475,-2.79337 -0.01103,-7.25119 -0.01103,-7.25119c0.59193,-0.92297 1.20441,-1.99097 1.73565,-3.14416c0.90056,-1.95108 1.87903,-4.82802 2.75213,-7.65211l0.1409,-0.39175c0,0 2.58925,-5.24539 9.14818,-6.73041l0.08184,0.03306c-0.79421,4.95046 -2.18799,12.24042 -4.1092,17.3485c-2.15496,5.7289 -4.93899,10.05073 -7.3762,13.08904z" fill="#929497"/></g></g><g><g><path d="M278.41857,147.02801c2.46234,15.63425 -12.44168,30.97005 -33.28907,34.25346c-20.84741,3.28341 -39.74369,-6.72893 -42.20605,-22.36318c-2.46234,-15.63425 12.44167,-30.97005 33.28907,-34.25346c20.84741,-3.28341 39.74369,6.72893 42.20605,22.36318z" fill="#e6e7e8" stroke="#000000" stroke-width="1.2" stroke-linecap="butt"/><path d="M220.12631,181.44231l2.31129,2.5782l2.86494,1.6368l-1.80077,0.66325l-4.3825,-0.44868l-4.08289,-1.72971l-1.87613,-2.362l-4.92402,-1.97687l-3.72066,-1.97659l0.27447,2.36375c-5.87951,-9.14318 -15.17215,-18.38329 -13.37696,-31.8088c25.06408,-31.56877 70.24565,-41.48008 88.55442,-10.50307c0.24482,0.41423 0.47565,0.8284 0.69304,1.24254c0.17549,0.63177 0.30855,1.22409 0.38399,1.76391c0.85342,6.10637 0.86277,12.18807 1.18562,18.38023c0.02127,0.40797 -0.02119,0.86737 -0.10372,1.35391l-0.77198,1.38459l-0.37878,-1.41546l-1.94395,5.46909l-4.31582,5.2526l-2.81487,1.91846l-0.20121,-4.24615l-0.75474,-5.78161l-1.18169,-4.53428l-1.08723,0.02372l0.22954,-1.51126l0.82462,-3.67016l-0.48268,-4.05431l-1.3111,-4.36637l-3.89645,-3.95919l-6.28434,-3.28809l-8.10268,-1.96911l-9.29004,-0.60201l2.46255,0.79225l3.95122,2.32793l2.36902,3.16716l-17.40876,-1.68354l-16.82312,-1.92328l-0.30698,2.9986l-1.96001,6.35669l-1.87595,5.90092l0.83881,5.32583l3.40148,4.77472l4.54349,3.11972l-3.10297,1.07876l-2.73742,0.43113l0.54408,3.4546l2.26229,3.47901l2.49844,2.99928l2.73458,2.51954z" fill="#be1e2d" stroke="#8c8c8c" stroke-width="0" stroke-linecap="butt"/><path d="M214.31345,137.92085c-0.37371,8.04986 -4.63125,12.67367 -3.9708,16.81642c1.35945,8.52721 8.90207,11.33026 8.90207,11.33026c0,0 -5.02069,3.29574 -11.44486,0.31566" fill="none" stroke="#000000" stroke-width="1.2" stroke-linecap="round"/><path d="M202.50423,158.52801c-0.86378,-1.51731 -1.71882,-3.27223 -2.55355,-5.29811" fill="none" stroke="#000000" stroke-width="1.2" stroke-linecap="round"/><path d="M207.74456,136.28317c15.73524,3.73639 41.28161,4.8161 41.28161,4.8161c0,0 -3.04346,-4.08866 -8.89007,-5.83068c0,0 36.17098,-1.67431 27.82275,23.75538c0,0 3.41348,-2.18243 5.54652,-6.07004" fill="none" stroke="#000000" stroke-width="1.2" stroke-linecap="round"/><path d="M274.69783,143.8153c0.39204,1.76167 0.60299,2.57696 0.35561,4.06866" fill="none" stroke="#000000" stroke-width="1.2" stroke-linecap="round"/><path d="M280.11726,161.35324c-1.22049,6.88105 -8.77729,11.75707 -8.77729,11.75707c0,0 0.00483,-9.75653 -2.31918,-14.72518" fill="none" stroke="#000000" stroke-width="1.2" stroke-linecap="round"/><path d="M201.98096,158.31451c-3.58451,8.02519 2.89596,21.55079 2.89596,21.55079c0,0 -17.71716,-19.65168 -13.05338,-32.55564" fill="none" stroke="#000000" stroke-width="1.2" stroke-linecap="round"/><path d="M282.82366,158.91101c-1.16722,2.51732 -2.1407,3.92506 -2.1407,3.92506c0,0 -0.0188,-9.73091 -5.65697,-14.82825" fill="none" stroke="#000000" stroke-width="1.2" stroke-linecap="round"/><path d="M213.5314,167.75333c-0.41291,6.81957 8.12207,12.5537 8.12207,12.5537c0,0 -10.18802,3.52014 -17.58585,-3.04638" fill="none" stroke="#000000" stroke-width="1.2" stroke-linecap="round"/><path d="M219.41517,180.93937c1.50782,3.09581 6.0132,4.7004 6.0132,4.7004c0,0 -8.12312,2.7711 -13.17523,-4.36041" fill="none" stroke="#000000" stroke-width="1.2" stroke-linecap="round"/></g><g><path d="M262.0006,148.22716c0.53732,-0.11782 0.90088,0.66707 1.05021,0.99926c0.55992,1.24562 0.61987,2.80066 -0.26506,3.88508l-0.40015,0.11393c-0.17485,0.09293 -0.43054,0.14468 -0.79077,0.13454c-3.03071,-0.08535 -5.69318,-0.22075 -8.62842,1.07324c-0.8421,0.37124 -2.27008,1.8551 -2.99293,2.03721c-0.9272,0.2336 -1.28995,0.01685 -1.52355,-0.91034c-0.22796,-0.90477 1.44758,-1.77206 2.04884,-2.11879c2.09331,-1.20715 4.49567,-1.94046 6.90463,-2.26518c0.46702,-0.52525 0.69813,-1.13346 0.95972,-1.88162c0.07524,-0.21519 0.38989,-1.05519 0.47864,-1.07337c0.99667,-0.2042 1.2654,1.47674 1.28957,2.73786c0.26466,-0.00333 0.53293,0.00212 0.7806,0.0227c0.34059,-1.11167 0.70412,-2.67019 1.08865,-2.7545z" fill="#000000" stroke="none" stroke-width="0.5" stroke-linecap="butt"/><path d="M224.21447,158.56005c0.20169,-0.13289 0.42622,-0.25942 0.65088,-0.3753c-0.43329,-1.312 -0.81116,-3.1674 0.10375,-3.406c0.08147,-0.02125 0.64931,0.70354 0.79026,0.89164c0.49002,0.65396 0.90396,1.17727 1.48721,1.50865c2.15063,-0.75092 4.44269,-1.0773 6.64431,-0.77552c0.63238,0.08668 2.359,0.22615 2.49205,1.26237c0.13634,1.06191 -0.09195,1.44906 -0.95879,1.62602c-0.6758,0.13796 -2.41523,-0.74923 -3.25976,-0.75262c-2.94367,-0.01185 -5.14281,1.32803 -7.67084,2.78232c-0.30048,0.17286 -0.53498,0.23474 -0.71602,0.21769l-0.37882,0.06283c-1.13725,-0.71988 -1.64607,-2.35127 -1.62149,-3.88879c0.00656,-0.41005 0.03115,-1.38372 0.52717,-1.50438c0.35499,-0.08634 1.22259,1.35773 1.91008,2.35111z" fill="#000000" stroke="none" stroke-width="0.5" stroke-linecap="butt"/><path d="M255.98858,164.0867c-9.14188,10.19237 -22.25968,7.05084 -22.25968,7.05084" fill="none" stroke="#000000" stroke-width="1.2" stroke-linecap="round"/></g></g></g><path d="M266.95966,164.10718" fill="none" stroke="#000000" stroke-width="1.2" stroke-linecap="round"/><g stroke="#000000" stroke-width="1.2" stroke-linecap="butt"><g fill="#868995"><path d="M240.75084,244.52207c0,0 -41.94558,0.42456 -44.92372,-2.35022c-2.29803,-2.14112 -2.30937,-30.46732 0,-32.5419c2.37074,-2.1297 44.33295,-2.16943 44.33295,-2.16943"/><path d="M239.83992,207.46052c0,0 41.96221,0.03973 44.33295,2.16943c2.30938,2.07458 2.29804,30.40079 0,32.5419c-2.97814,2.77478 -44.92372,2.35022 -44.92372,2.35022"/></g><g fill="#4e4f56"><path d="M240.71252,242.40879c0,0 -39.80476,0.37611 -42.6309,-2.08203c-2.18075,-1.89678 -2.19151,-26.99059 0,-28.82843c2.24974,-1.88667 42.07028,-1.92187 42.07028,-1.92187"/><path d="M239.84809,209.57646c0,0 39.82055,0.0352 42.07029,1.92187c2.19151,1.83784 2.18075,26.93165 0,28.82843c-2.82614,2.45814 -42.63091,2.08203 -42.63091,2.08203"/></g><g fill="#9497a4"><path d="M240.2322,231.45281c0,0 -12.9719,0.12494 -13.8929,-0.69163c-0.71068,-0.6301 -0.71419,-8.96603 0,-9.57654c0.73316,-0.62673 13.7102,-0.63843 13.7102,-0.63843"/><path d="M239.9505,220.54622c0,0 12.97703,0.0117 13.7102,0.63843c0.71418,0.61051 0.71068,8.94644 0,9.57654c-0.92101,0.81657 -13.8929,0.69163 -13.8929,0.69163"/></g></g><g stroke="#000000" stroke-width="1.2" stroke-linecap="butt"><g fill="#868995"><path d="M240.65981,285.68287c0,0 -36.86021,0.37309 -39.47728,-2.06529c-2.01943,-1.88153 -2.02939,-26.77355 0,-28.59661c2.08332,-1.8715 38.95814,-1.90641 38.95814,-1.90641"/><path d="M239.85933,253.11456c0,0 36.87483,0.03491 38.95815,1.90641c2.02939,1.82306 2.01943,26.71508 0,28.59661c-2.61708,2.43837 -39.47729,2.06528 -39.47729,2.06528"/></g><g fill="#4e4f56"><path d="M240.62614,283.82579c0,0 -34.97894,0.33051 -37.46244,-1.82961c-1.91636,-1.66682 -1.92582,-23.71832 0,-25.33335c1.97699,-1.65794 36.96979,-1.68887 36.96979,-1.68887"/><path d="M239.86651,254.97397c0,0 34.99281,0.03093 36.9698,1.68887c1.92582,1.61503 1.91636,23.66653 0,25.33335c-2.48351,2.16012 -37.46245,1.82961 -37.46245,1.82961"/></g><g fill="#9497a4"><path d="M240.20405,274.19809c0,0 -11.39922,0.10979 -12.20856,-0.60778c-0.62452,-0.5537 -0.6276,-7.87901 0,-8.4155c0.64428,-0.55075 12.04801,-0.56103 12.04801,-0.56103"/><path d="M239.9565,264.61378c0,0 11.40373,0.01028 12.04801,0.56103c0.6276,0.53649 0.62452,7.8618 0,8.41551c-0.80934,0.71757 -12.20856,0.60777 -12.20856,0.60777"/></g></g><g stroke="#000000" stroke-width="1.2"><path d="M234.66686,178.63595c0.19481,-0.0302 0.38123,-0.05415 0.5595,-0.07206c0.30096,-0.08192 0.61433,-0.09682 0.91459,-0.0388c6.80721,0.17276 -2.53879,12.05761 -5.18272,12.88031c-2.24207,0.69765 -6.68247,-0.76286 -5.40245,-3.93541c0.46201,-1.14508 7.94313,-8.40866 9.04703,-8.75216z" fill="#be1e2d" stroke-linecap="butt"/><g><path d="M224.69485,195.77211c-0.19868,-0.23725 -2.51914,-3.21691 -2.51914,-3.21691c0,0 0.21876,5.03168 -3.22456,6.40562c-1.86441,0.74393 -5.64906,0.16986 -7.6973,0.32794c0,0 -2.34403,0.17914 -2.32384,-2.14956c0.02018,-2.3287 2.36422,-2.50783 2.36422,-2.50783c0.45397,-0.03438 1.01565,-0.01541 1.62398,0.02045c3.05957,-5.98803 5.40077,-15.85863 13.17029,-10.78639c3.18924,2.08205 3.84244,2.90403 3.84244,2.90403c0,0 4.03805,-10.04095 8.64063,-9.42828c15.02137,1.99956 7.55287,19.97177 1.55003,20.62974c-9.10697,0.99821 -13.00776,0.68982 -15.42676,-2.19881z" fill="#be1e2d" stroke-linecap="butt"/><path d="M231.01982,191.84931c-0.27983,-3.20306 3.35095,-14.1335 7.92589,-10.78277c3.60125,2.63759 1.07545,8.33619 -0.75421,11.27005c-2.05966,3.30266 -6.86839,2.98429 -7.17168,-0.48728z" fill="#e6e7e8" stroke-linecap="round"/></g><path d="M244.26416,180.09383c1.30913,-1.58434 3.90912,-1.18759 4.97467,-0.84674c3.02038,0.96615 2.9137,3.66846 3.29318,6.67218c0.33007,2.61271 1.18675,5.50079 2.78494,7.07516c3.23798,0.87774 9.12487,-0.09053 7.83199,4.34581c-0.30999,1.06366 -6.19335,1.54055 -8.45442,1.6162c1.2556,2.40989 -1.1951,2.72103 -3.23786,1.46096c-0.83784,-0.51682 -2.89765,-1.32729 -4.16825,-2.87032c-1.2706,-1.54303 -0.32619,-2.36486 -0.38241,-3.57746c-0.12755,-2.75101 -1.18923,-3.85461 -1.77269,-6.36734" fill="#be1e2d" stroke-linecap="butt"/><path d="M225.92241,183.81383c-0.36825,1.27292 -1.91195,1.63144 -1.91195,1.63144c0,0 -1.38464,2.43562 -5.15611,3.24193c-5.0807,1.08622 -5.73819,-5.19047 -0.73711,-7.53982c0,0 4.24122,-2.56991 6.27532,-1.93709c0.68241,0.2123 0.5904,1.26761 0.8558,1.95597c0.53236,1.38082 1.0423,1.37465 0.67406,2.64757z" fill="#be1e2d" stroke-linecap="butt"/></g><path d="M239.90926,198.05821c-0.86733,0.56331 -1.97396,0.40708 -2.95428,0.63064c-2.60197,0.62212 -5.26691,0.93254 -7.84493,1.57566c-2.65806,0.66309 -5.29016,2.04488 -7.5986,0.09886c-2.53139,-2.13396 -3.37422,-8.65418 0.24287,-11.15721c2.07897,-1.43864 3.96748,-0.55194 5.72772,-0.02823c3.52616,1.04911 7.55113,2.3901 11.44512,1.8042c0,0 0.53722,-0.07521 1.05426,0.13085c0.61968,0.03863 1.02168,0.35326 1.24124,0.59327" fill="#be1e2d" stroke="#000000" stroke-width="1.2" stroke-linecap="butt"/><path d="M78.0357,341.9643v-323.92859h323.92859v323.92859z" fill="none" stroke="#000000" stroke-width="0" stroke-linecap="butt"/></g></g></svg>