<svg version="1.1" xmlns="http://www.w3.org/2000/svg" xmlns:xlink="http://www.w3.org/1999/xlink" width="119.06808" height="133.53661" viewBox="0,0,119.06808,133.53661"><g transform="translate(-202.63909,-113.91096)"><g stroke-miterlimit="10"><g stroke-linecap="butt"><path d="M229.01943,212.21923c-1.10045,7.10905 5.49999,12.32245 6.62495,18.42865c0.59441,1.29318 0.57513,2.8449 -0.18808,4.17286c-0.01997,0.03475 -0.04033,0.06914 -0.06107,0.10316c-0.16746,0.53573 -0.53004,0.90675 -1.01188,1.16044c-1.41988,1.15475 -3.46017,1.38114 -5.14168,0.41473c-0.01104,-0.00634 -0.02204,-0.01273 -0.033,-0.01915c-1.14391,-0.66999 -1.88834,-1.76396 -2.14836,-2.96743c-1.79662,-2.62175 -4.04777,-6.02509 -4.06772,-6.05926c-6.51041,-11.14942 -5.70149,-24.90962 1.93113,-35.59351c1.89171,-2.64795 5.41898,-7.21535 8.58791,-7.55086c4.47845,-0.47415 8.82841,3.9876 6.98038,8.25561c-3.32734,7.68446 -9.81405,8.94048 -11.47257,19.65477z" fill="#ffffff" stroke="none" stroke-width="0.5"/><path d="M229.01942,212.21923c-1.10045,7.10905 5.49999,12.32245 6.62495,18.42865c0.59441,1.29318 0.57512,2.84491 -0.18809,4.17286c-0.01998,0.03476 -0.04033,0.06914 -0.06107,0.10316c-0.16746,0.53573 -0.53004,0.90675 -1.01188,1.16044c-1.41987,1.15475 -3.46016,1.38114 -5.14167,0.41473c-0.01104,-0.00634 -0.02204,-0.01273 -0.033,-0.01915c-1.14391,-0.67 -1.88834,-1.76397 -2.14836,-2.96744c-1.79662,-2.62174 -4.04777,-6.02509 -4.06772,-6.05926c-6.51042,-11.14942 -5.70149,-24.90962 1.93113,-35.59351c1.89171,-2.64795 5.41898,-7.21535 8.58791,-7.55086c4.47846,-0.47416 8.8284,3.98761 6.98038,8.25561c-3.32734,7.68445 -9.81404,8.94047 -11.47257,19.65476z" fill="none" stroke="#000000" stroke-width="1.2"/></g><path d="M259.11224,234.12332c-0.11764,9.52209 -5.12144,13.67087 -13.63249,12.54379c-1.14962,-0.15224 -21.30393,-2.79588 -17.33485,-17.79457c0.97974,-3.70233 5.71361,-7.46661 6.80696,-13.93568c0.64857,-3.83742 -0.08032,-6.81338 2.63533,-9.60116c4.52531,-5.98687 18.011,-4.33953 22.31238,0.78027c4.35935,5.18881 1.26868,10.85699 -0.20966,16.63187c-0.41413,1.61773 0.04257,5.84225 -0.65479,8.46241c0.09305,1.07198 0.08649,2.15478 0.07712,2.91306z" fill="#ffffff" stroke="#000000" stroke-width="1.2" stroke-linecap="butt"/><path d="M298.86373,178.44632c-3.51876,5.24511 -10.40965,6.30238 -10.40965,6.30238" fill="none" stroke="#001026" stroke-width="1.2" stroke-linecap="round"/><path d="M298.99348,189.39263c-4.19612,4.75742 -10.21798,2.58809 -10.21798,2.58809" fill="none" stroke="#001026" stroke-width="1.2" stroke-linecap="round"/><path d="M275.97665,135.08989l14.32359,-10.54358l5.47024,23.83881l-12.25669,15.88262z" fill="#ffffff" stroke="#001026" stroke-width="1.2" stroke-linecap="round"/><path d="M239.22652,198.36813l-35.88858,-5.61723l1.28069,-7.14228l16.32383,-24.69715z" fill="#ffffff" stroke="#001026" stroke-width="1.2" stroke-linecap="round"/><g stroke="#001026" stroke-width="1.2" stroke-linecap="butt"><path d="M266.26875,147.25581c27.58618,7.93021 20.94279,34.11317 20.94279,34.11317c0,0 12.54378,8.02638 5.07409,18.6757c-9.10347,12.97856 -25.84875,9.66161 -32.99142,8.21085c-25.62287,-5.20433 -46.51568,-21.30102 -36.7254,-44.17445c6.82013,-15.93414 26.52685,-21.76202 43.69994,-16.82527z" fill="#ffffff"/><path d="M266.26875,147.25581c27.58618,7.93021 20.94279,34.11317 20.94279,34.11317c0,0 12.54378,8.02638 5.07409,18.6757c-9.10347,12.97856 -25.84875,9.66161 -32.99142,8.21085c-25.62287,-5.20433 -46.51568,-21.30102 -36.7254,-44.17445c6.82013,-15.93414 26.52685,-21.76202 43.69994,-16.82527z" fill="none"/></g><path d="M275.0583,178.06737c-0.17375,3.37081 -6.39322,5.79007 -13.89156,5.40356c-7.49834,-0.38651 -13.4361,-3.43243 -13.26234,-6.80324c0.17375,-3.37081 6.39322,-5.79007 13.89156,-5.40356c7.49834,0.38651 13.4361,3.43243 13.26234,6.80324z" fill="#dbdbdb" stroke="none" stroke-width="0" stroke-linecap="butt"/><path d="M235.94541,159.70526l-16.43198,14.80594c0,0 -1.15395,-9.01583 -2.44241,-14.65106c-1.28847,-5.63522 -3.53063,-10.13172 -3.53063,-10.13172c0,0 6.58549,-5.08051 10.16888,-8.58678c3.58338,-3.50626 11.83767,-12.94609 11.83767,-12.94609c0,0 19.88804,2.06974 32.53549,4.70203c12.64745,2.6323 28.62471,6.52396 28.62471,6.52396l-5.20688,14.9564l-2.54722,15.16953z" fill="#ffffff" stroke="#001026" stroke-width="1.2" stroke-linecap="round"/><path d="M264.99165,185.56626c-2.04633,-0.48534 -4.5718,-5.67469 -4.39634,-5.84073c0.73746,-0.69784 8.35915,0.65044 8.92359,1.95622c0.49892,1.15421 -2.69315,4.31952 -4.52724,3.88451z" fill="#000000" stroke="#000000" stroke-width="1.2" stroke-linecap="round"/><path d="M235.46478,128.27087c0,0 -3.7905,4.38933 -5.71424,6.4947c-1.83467,2.00788 -5.57363,5.85891 -5.57363,5.85891l-0.00994,20.29459l-11.50277,-15.68225l11.89191,-30.33947l17.05386,13.95864z" fill="#ffffff" stroke="#001026" stroke-width="1.2" stroke-linecap="round"/><path d="M234.89601,178.72676c0,0 -9.84331,-3.2033 -12.76286,-9.27408" fill="none" stroke="#001026" stroke-width="1.2" stroke-linecap="round"/><path d="M231.17654,185.44057c0,0 -9.98701,0.11631 -14.13901,-5.71169" fill="none" stroke="#001026" stroke-width="1.2" stroke-linecap="round"/><path d="M254.80858,170.25823c0.86104,8.95485 -4.41594,16.21419 -11.78647,16.21419c-7.37053,0 -14.04354,-7.25934 -14.90458,-16.21419c-0.86104,-8.95485 4.41594,-16.2142 11.78647,-16.2142c7.37053,0 14.04354,7.25935 14.90458,16.2142z" fill="#ffffff" stroke="#001026" stroke-width="1.2" stroke-linecap="butt"/><path d="M285.76334,170.00878c0.64526,8.95485 -3.30927,16.21419 -8.83268,16.21419c-5.52341,0 -10.52411,-7.25934 -11.16938,-16.21419c-0.64526,-8.95485 3.30927,-16.21419 8.83268,-16.21419c5.52342,0 10.52411,7.25934 11.16938,16.21419z" fill="#ffffff" stroke="#001026" stroke-width="1.2" stroke-linecap="butt"/><path d="M264.75253,228.62933l10.69797,-21.20318l9.59245,7.98237l2.59654,10.47686l-8.57198,8.98017z" fill="#ffffff" stroke="#000000" stroke-width="1.2" stroke-linecap="round"/><path d="M251.91603,200.98644l10.31171,-8.61216l20.08262,-2.21002l-10.18895,12.50596z" fill="#ffffff" stroke="#001026" stroke-width="1.2" stroke-linecap="round"/><path d="M245.92361,205.22604l9.27736,-0.8659l9.00128,7.61989l-0.56384,1.90497l2.59697,-6.06127l5.61534,-5.19538l1.16723,-4.1563l3.22561,-3.98313l0.74179,-3.46359l-1.00025,-6.40763l5.51648,-4.32949l3.48336,-0.17318l1.12841,2.25134l-0.31634,2.77086l-2.60245,1.55862l-0.1677,4.50266l2.19202,0.51954l2.62151,-7.79307l4.26945,-5.54173l3.44381,0.17318l1.80135,2.42451l-1.70178,2.77086l-2.49335,3.63676l-2.17153,5.36856l1.99906,0.69271l2.97811,-4.84902l2.45381,-3.2904l3.00336,-0.51953l1.14818,2.07815l-0.29657,2.59769l-2.50836,2.25133l-2.60721,3.11722l-1.12292,2.25133l-3.61628,5.88809l-5.78852,5.19538l-5.59009,9.52486l-6.49076,8.31261l-12.5568,9.87122l-15.86985,-14.2007l-6.63608,-7.10035" fill="#ffffff" stroke="#000000" stroke-width="1.2" stroke-linecap="round"/><path d="M250.13141,184.47682l-0.4989,5.23843" fill="none" stroke="#000000" stroke-width="1.2" stroke-linecap="round"/><path d="M241.65014,192.95809l0.4989,-5.98678" fill="none" stroke="#000000" stroke-width="1.2" stroke-linecap="round"/><path d="M233.66777,183.22958l-1.49669,14.96695" fill="none" stroke="#000000" stroke-width="1.2" stroke-linecap="round"/><path d="M215.95688,117.37501l-4.98898,37.16792" fill="none" stroke="#000000" stroke-width="1.2" stroke-linecap="round"/><path d="M215.20853,161.77695l9.22962,-46.14809" fill="none" stroke="#000000" stroke-width="1.2" stroke-linecap="round"/><path d="M222.94145,162.27585l4.98898,-44.40194" fill="none" stroke="#000000" stroke-width="1.2" stroke-linecap="round"/><path d="M228.17989,160.52971l5.48788,-29.68445" fill="none" stroke="#000000" stroke-width="1.2" stroke-linecap="round"/><path d="M278.37102,226.9907l2.60929,5.25648l-2.32937,4.72761l-11.17674,3.41555l-9.62046,-0.90262l-4.14555,-0.46662l-3.57859,1.49376l-3.05886,-0.47845l-1.87191,-2.4157l0.74021,-3.15206l3.97681,-2.40523l5.78825,-0.48952l-0.74208,-6.45193l-1.63779,-3.09235l-3.55519,1.53354l-2.26334,-0.3153l-3.07718,-3.61111l1.65549,-3.03137l8.59557,-0.59269l4.56491,5.21067l2.98556,-0.30014l-1.42422,-5.76766l-2.66773,-2.83802l-2.77452,-1.50036l-1.22582,-3.19408l2.22006,-2.51514l3.91377,-0.96644l6.00177,6.60425l2.1872,8.85748l2.67532,0.21357l0.42967,-6.22545l-1.94804,-2.57864l-2.05482,-1.24098l-0.24927,-2.77957l2.42857,-3.44082l4.27235,-0.39934l4.55985,6.96031l-0.90767,11.37009z" fill="#ffffff" stroke="#000000" stroke-width="1.2" stroke-linecap="round"/><path d="M313.99849,154.02911c-3.81634,-0.15376 -8.44326,-1.4631 -8.44326,-1.4631c0,0 5.01843,-8.40798 8.83477,-8.25422c3.81634,0.15376 6.82245,2.4537 6.71434,5.13706c-0.10811,2.68336 -3.2895,4.73401 -7.10584,4.58025z" fill="#ffffff" stroke="#000000" stroke-width="1.2" stroke-linecap="butt"/><path d="M310.65333,168.85558c-3.07017,-2.27203 -4.39538,-4.34861 -4.39538,-4.34861c0,0 7.11036,-5.74081 10.18053,-3.46878c3.07017,2.27203 4.26398,5.86386 2.66646,8.02258c-1.59752,2.15871 -5.38144,2.06685 -8.4516,-0.20519z" fill="#ffffff" stroke="#000000" stroke-width="1.2" stroke-linecap="butt"/><path d="M239.17171,173.18657c0.94877,2.59332 0.14118,5.27246 -1.8038,5.98405c-1.94499,0.71158 -4.29084,-0.81387 -5.23962,-3.40718c-0.94877,-2.59332 -0.14118,-5.27246 1.8038,-5.98405c1.94499,-0.71158 4.29084,0.81387 5.23962,3.40718z" fill="#ffffff" stroke="#001026" stroke-width="1.2" stroke-linecap="butt"/><path d="M269.9,172.475c0,0.41421 -0.33579,0.75 -0.75,0.75c-0.41421,0 -0.75,-0.33579 -0.75,-0.75c0,-0.41421 0.33579,-0.75 0.75,-0.75c0.41421,0 0.75,0.33579 0.75,0.75z" fill="#ffffff" stroke="#001026" stroke-width="1.2" stroke-linecap="butt"/><path d="M256.4,170.725c0.8859,9.57856 -5.5,15.75 -5.5,15.75" fill="none" stroke="#001026" stroke-width="1.2" stroke-linecap="round"/></g></g></svg>