<svg version="1.1" xmlns="http://www.w3.org/2000/svg" xmlns:xlink="http://www.w3.org/1999/xlink" width="133.10152" height="145.4313" viewBox="0,0,133.10152,145.4313"><g transform="translate(-187.0552,-95.66418)"><g stroke-miterlimit="10"><g stroke="#000000" stroke-width="1.2" stroke-linecap="round"><path d="M210.92203,182.53826c-15.97992,0.97834 -23.13403,-24.36125 -23.13403,-24.36125c10.65012,-3.56719 14.3882,-1.05411 14.88968,-0.84483c0.5015,0.21002 9.53569,5.39844 9.53569,5.39844c-2.89853,12.34939 -1.29135,19.80764 -1.29135,19.80764zM213.04655,160.05753c0,0 -0.67511,1.92187 -0.89438,2.93424M210.92203,182.53826c0.16103,0.75066 0.78742,1.83235 0.78742,1.83235" fill="#be1e2d"/><path d="M204.64877,181.07823c-2.79803,-1.12681 -6.10877,-3.12665 -8.99221,-6.67048c-2.57075,-3.15992 -4.91813,-8.45349 -6.36291,-12.13678l0.07577,-0.07526c6.6294,-2.57059 9.87351,0.31586 9.87351,0.31586l0.19083,0.24609c1.23594,1.85697 2.58231,3.69689 3.72767,4.8069c0.67596,0.65668 1.42007,1.19479 2.12454,1.62341c0,0 1.06429,3.45716 0.96504,6.078c-0.14043,3.87515 -1.72036,5.77914 -1.72036,5.77914z" fill="#929497"/></g><path d="M238.69541,219.70395c-0.57716,1.96295 -1.16675,3.57845 -1.20422,3.74248c-1.0494,4.59361 -0.94112,13.11148 -5.11527,16.2776c-3.23882,2.45666 -5.9746,-1.45578 -4.21146,-4.70952c0.0096,-0.05461 0.02073,-0.10954 0.03342,-0.16472c0.09536,-0.4148 0.26781,-0.79655 0.49285,-1.12387c0.62735,-2.43016 1.44729,-4.93011 1.92314,-7.38391c0.77465,-3.9946 0.06213,-10.40828 2.71526,-13.86245c1.77654,-2.31292 5.51501,-2.80838 6.28082,-0.26948" fill="#be1e2d" stroke="#000000" stroke-width="1.2" stroke-linecap="butt"/><path d="M250.59039,212.44315c4.29585,4.0851 0.74776,11.53073 -1.40975,23.92534c-0.57089,3.27966 -15.85602,3.11309 -17.41863,-2.26128c-1.26824,-4.36192 1.49264,-13.63852 4.14603,-21.39237c1.03543,-3.02577 12.88537,-1.9805 14.68235,-0.27169z" fill="#be1e2d" stroke="#000000" stroke-width="1.2" stroke-linecap="butt"/><path d="M235.34231,236.53037c-1.15136,-0.32428 -3.22194,-2.3219 -3.39205,-3.92318c-0.35438,-3.33557 3.03508,-11.95409 7.46368,-10.78125c3.16896,0.83925 6.07818,6.24632 6.64037,10.13197c0.36992,2.55673 -0.22112,5.6803 -2.88902,5.91852c-2.62005,0.23395 -5.5566,-0.70772 -7.82297,-1.34605z" fill="#e6e7e8" stroke="#000000" stroke-width="1.2" stroke-linecap="butt"/><path d="M249.71598,209.0004c0.86553,-0.84459 2.18959,-1.22592 4.1248,-1.6574c1.30058,-0.28998 2.88441,1.03747 3.98707,0.28932c0.97824,-0.66374 -0.46192,-2.31983 -0.63271,-3.48959c0.0604,-5.28442 4.91709,-15.09271 12.07445,-10.45708c1.33515,0.86474 2.22251,2.42013 2.69314,3.93964c0.72254,2.33285 -1.00929,5.83725 -0.7186,8.37538c0.20664,1.80422 1.2815,4.22821 0.94803,6.03543c-0.58869,3.1904 -2.1648,4.67277 -4.92502,6.01926c-4.25972,2.07798 -8.76612,-0.21444 -13.26664,0.14173c-0.41411,0.11088 -0.73204,0.11088 -0.73204,0.11088l-0.04993,-0.0221c-0.15316,0.01614 -0.7827,0.06197 -1.42261,-0.1851" fill="#be1e2d" stroke="#000000" stroke-width="1.2" stroke-linecap="butt"/><path d="M270.42645,205.46809l-11.75087,7.13431l-24.13001,-2.50092l-10.75238,3.26636l-14.79888,-6.3435l-5.60562,-9.00122l-4.4901,-10.51743l-1.8826,-12.77721l2.03829,-12.14107l4.13505,-8.94542l5.89372,-8.53465l7.54225,-7.45463l8.30785,-6.48423l9.07977,-5.80128l6.26448,-3.19914l2.85101,-2.49854l3.30486,-4.2687l2.37619,-4.24046l2.26918,-5.83807l0.64925,-8.16252l3.83932,6.16759l3.80321,7.80572l0.69671,-3.8624l0.71498,2.2457l3.05214,7.19814l4.73667,7.0754l3.28704,3.47752l4.77934,5.13942l5.82626,6.19853l5.04565,6.93123l3.96918,7.21241l3.18857,7.94512l2.12851,7.48172l-0.01454,7.59731l-0.62591,7.58778l-1.97523,6.37502l-3.53318,7.6915l-3.6171,4.56179l-5.9672,6.01172z" fill="#be1e2d" stroke="#8c8c8c" stroke-width="0" stroke-linecap="round"/><path d="M280.95117,208.11219l-10.58639,-2.57433l-11.75626,7.29365l-24.0261,-2.75747l-10.75442,3.22223l-14.15591,-5.52617c0,0 -42.23066,-48.48409 30.22475,-85.09418c0,0 13.20686,-9.83729 11.47136,-26.33218c-0.14115,-1.34159 7.82182,14.72651 7.82182,14.72651c0,0 0.61769,-5.27961 0.75291,-4.59194c1.49849,7.62099 9.07644,18.07972 9.07644,18.07972c50.30573,44.5793 17.65748,78.53725 17.65748,78.53725z" fill="none" stroke="#000000" stroke-width="1.2" stroke-linecap="round"/><g stroke="#000000" stroke-width="1.2" stroke-linecap="round"><path d="M290.41969,163.84682c0,0 10.86541,-5.43786 11.46477,-5.66671c0.59932,-0.22815 5.11287,-2.82106 17.4522,-0.16584c0,0 -9.63375,24.18238 -28.36032,24.29329c0,0 2.24985,-7.08562 -0.55666,-18.46074zM290.47898,164.08738c-0.20851,-0.93368 -0.90849,-2.68953 -0.90849,-2.68953M289.96242,184.0736c0,0 0.78836,-1.05292 1.01394,-1.76603" fill="#be1e2d"/><path d="M298.55768,180.499c0,0 -1.76386,-1.68098 -1.74093,-5.29983c0.01047,-2.44722 1.42851,-5.75217 1.42851,-5.75217c0.84843,-0.44653 1.74877,-0.99811 2.57475,-1.65633c1.39947,-1.11278 3.07044,-2.92182 4.61253,-4.73972l0.23615,-0.24264c0,0 3.95129,-2.91071 11.6152,-0.93014l0.08538,0.0656c-1.876,3.5411 -4.8905,8.64771 -8.06398,11.77119c-3.55945,3.50298 -7.54605,5.58796 -10.88796,6.82265z" fill="#929497"/></g><g><path d="M282.77078,185.27577c-0.38677,15.81276 -16.93409,28.42139 -36.95947,28.16215c-20.02539,-0.25923 -35.94565,-13.28816 -35.55889,-29.10093c0.38676,-15.81276 16.93407,-28.42139 36.95946,-28.16215c20.02539,0.25923 35.94566,13.28816 35.55889,29.10093z" fill="#e6e7e8" stroke="#000000" stroke-width="1.2" stroke-linecap="butt"/><path d="M222.44276,209.40648l1.71479,2.92691l2.39333,2.09237l-1.79497,0.35156l-4.01408,-1.17636l-3.51435,-2.388l-1.34569,-2.64101l-4.2571,-2.7724l-3.1338,-2.57047l-0.14979,2.37435c-3.91816,-9.99151 -11.00588,-20.65046 -7.02401,-33.57411c28.82016,-26.89596 72.70036,-29.08761 84.47118,4.49361c0.1574,0.44905 0.30174,0.8957 0.43355,1.34007c0.0553,0.65172 0.07778,1.25746 0.05549,1.80185c-0.25218,6.15794 -1.28807,12.15014 -2.05027,18.30367c-0.05023,0.40543 -0.16876,0.85083 -0.32936,1.31626l-0.95848,1.2345l-0.11048,-1.45774l-3.02412,4.71157l-4.90639,3.03604l-5.71152,2.00845l1.54644,-3.45666l1.3733,-5.68176l0.0056,-4.77944l-3.05833,0.99632l0.5138,-1.76011l1.17012,-4.13682l0.63085,-3.39472l-0.55381,-3.90082l-1.44759,-4.04326l-4.46703,-4.65703l-7.06606,-4.53717l-8.56901,-2.14977l1.81288,1.46305l2.47391,3.16532l0.83278,3.88181l-14.02273,-4.95588l-15.31444,-5.1785l-0.80163,2.90225l-2.92155,5.93305l-2.76479,5.4982l-0.13175,5.38664l2.35521,5.27321l3.70557,3.83438l-3.08197,0.54263l-2.62948,-0.03404l-0.08547,3.49403l1.51431,3.80602l1.81717,3.37303l2.12002,2.94007z" fill="#be1e2d" stroke="#8c8c8c" stroke-width="0" stroke-linecap="butt"/><path d="M224.49179,165.56266c-1.73155,7.86669 -6.50025,11.70781 -6.59528,15.8992c-0.19561,8.62732 6.3641,12.65235 6.3641,12.65235c0,0 -5.25299,2.40505 -10.7382,-1.60693" fill="none" stroke="#000000" stroke-width="1.2" stroke-linecap="round"/><path d="M205.76388,183.18831c-0.54574,-1.63933 0.27712,-3.97142 -0.15414,-6.10685" fill="none" stroke="#000000" stroke-width="1.2" stroke-linecap="round"/><path d="M218.6409,162.84872c14.04735,6.31725 35.78562,13.14675 35.78562,13.14675c0,0 -0.21457,-6.0225 -5.37326,-8.71816c0,0 31.58956,5.19738 19.42843,28.84733c0,0 6.02569,-2.36306 8.68468,-5.83501" fill="none" stroke="#000000" stroke-width="1.2" stroke-linecap="round"/><path d="M279.84923,181.48769c0.06338,1.80099 0.12027,2.63942 -0.36688,4.06732" fill="none" stroke="#000000" stroke-width="1.2" stroke-linecap="round"/><path d="M281.89592,199.67116c-2.32127,6.57349 -13.15763,9.73085 -13.15763,9.73085c0,0 4.62475,-9.2303 3.30868,-14.51398" fill="none" stroke="#000000" stroke-width="1.2" stroke-linecap="round"/><path d="M205.75703,183.10519c-4.72464,7.30435 2.72104,22.19251 2.72104,22.19251c0,0 -13.16382,-22.32634 -6.59366,-34.25554" fill="none" stroke="#000000" stroke-width="1.2" stroke-linecap="round"/><path d="M284.84193,197.71901c-1.522,2.28402 -2.67257,3.50756 -2.67257,3.50756c0,0 1.65388,-9.58835 -2.73391,-15.55417" fill="none" stroke="#000000" stroke-width="1.2" stroke-linecap="round"/><path d="M218.63757,194.81736c-1.55682,6.64827 5.42582,13.72677 5.42582,13.72677c0,0 -10.11534,1.76018 -15.89346,-5.94769" fill="none" stroke="#000000" stroke-width="1.2" stroke-linecap="round"/><path d="M221.86529,208.79191c0.87583,3.30212 4.80607,5.63766 4.80607,5.63766c0,0 -8.05906,1.36839 -11.55035,-6.50294" fill="none" stroke="#000000" stroke-width="1.2" stroke-linecap="round"/></g><path d="M258.90464,189.69115c0,1.21828 -5.92564,0.88235 -13.23529,0.88235c-7.30965,0 -13.23529,0.33592 -13.23529,-0.88235c0,-1.21828 5.92564,-2.20588 13.23529,-2.20588c7.30965,0 13.23529,0.98761 13.23529,2.20588z" fill-opacity="0.50196" fill="#ffa6a6" stroke-opacity="0.48235" stroke="#000000" stroke-width="0" stroke-linecap="butt"/><path d="M260.45398,185.2639l-0.09905,-0.02476l0.15663,-0.62653c0.05476,-0.24132 0.27058,-0.42146 0.52846,-0.42146c0.29928,0 0.54189,0.24261 0.54189,0.54189v0.63752c-0.00359,0.6226 -0.16254,1.1949 -0.25462,1.78525c0.10799,-0.00716 0.21572,-0.01515 0.32316,-0.02396l0.26566,-0.07165c0.8354,-0.36626 1.33452,-1.05687 1.80894,-1.81528l-0.02312,-0.00578l0.15663,-0.62653c0.05476,-0.24132 0.27058,-0.42146 0.52846,-0.42146c0.25789,0 0.4737,0.18015 0.52846,0.42146l0.15663,0.62653l-0.05395,0.01349l0.07013,0.11794c-0.24281,1.04549 -0.31307,2.08905 -0.84291,2.93433c-0.01925,0.96014 -1.04049,1.21342 -1.04049,1.21342l-1.35016,0.31529c-3.51799,0.24759 -7.18755,-0.21166 -10.45838,-1.56258c0,0 -1.25096,-0.52002 -0.73094,-1.77097c0.52002,-1.25096 1.77097,-0.73094 1.77097,-0.73094c2.04194,0.85511 4.31743,1.31402 6.57221,1.41237c0.71454,-0.53927 1.05402,-1.20145 1.44538,-1.91758z" fill="#000000" stroke="none" stroke-width="0.5" stroke-linecap="butt"/><path d="M232.23097,187.76972c2.2092,-0.09836 4.43869,-0.55726 6.43935,-1.41237c0,0 1.22567,-0.52002 1.73517,0.73094c0.5095,1.25096 -0.71616,1.77097 -0.71616,1.77097c-3.20471,1.35092 -6.80009,1.81017 -10.24696,1.56258l-1.32287,-0.31529c0,0 -1.0006,-0.25328 -1.01946,-1.21342c-0.51912,-0.84528 -0.58796,-1.88885 -0.82587,-2.93433l0.06871,-0.11794l-0.05285,-0.01349l0.15346,-0.62652c0.05366,-0.24131 0.26511,-0.42147 0.51778,-0.42147c0.25268,0 0.46412,0.18015 0.51778,0.42147l0.15346,0.62652l-0.02266,0.00578c0.46482,0.75842 0.95386,1.44903 1.77237,1.81529l0.26029,0.07164c0.10527,0.00881 0.21082,0.01681 0.31663,0.02396c-0.09022,-0.59035 -0.24596,-1.16265 -0.24948,-1.78525v-0.63752c0,-0.29928 0.23771,-0.5419 0.53094,-0.5419c0.25268,0 0.46412,0.18015 0.51778,0.42147l0.15347,0.62652l-0.09705,0.02476c0.38345,0.71613 0.71607,1.37832 1.41617,1.91759z" fill="#000000" stroke="none" stroke-width="0.5" stroke-linecap="butt"/><path d="M257.87523,191.01468c0,0 4.94333,-2.95203 8.38235,-0.88235" fill="none" stroke="#000000" stroke-width="1.2" stroke-linecap="round"/><path d="M259.63993,194.24997l2.20589,-1.7647" fill="none" stroke-opacity="0.50196" stroke="#ffabab" stroke-width="1.2" stroke-linecap="round"/><path d="M261.84582,194.24998l2.20589,-1.7647" fill="none" stroke-opacity="0.50196" stroke="#ffabab" stroke-width="1.2" stroke-linecap="round"/><path d="M264.0517,194.24998l2.20589,-1.7647" fill="none" stroke-opacity="0.50196" stroke="#ffabab" stroke-width="1.2" stroke-linecap="round"/><path d="M232.58111,201.74997c0,0 1.68196,2.08957 3.08824,1.91176c1.40627,-0.1778 5.59275,-2.06345 9.55882,-2.35294c3.96607,-0.28949 6.4694,0.86244 10.73529,0.88235c2.352,0.01098 3.08824,-2.5 3.08824,-2.5" fill="none" stroke="#000000" stroke-width="1.2" stroke-linecap="round"/></g></g></svg>