<svg version="1.1" xmlns="http://www.w3.org/2000/svg" xmlns:xlink="http://www.w3.org/1999/xlink" width="128.57862" height="226.21002" viewBox="0,0,128.57862,226.21002"><defs><radialGradient cx="223.50136" cy="159.50899" r="38.25582" gradientUnits="userSpaceOnUse" id="color-1"><stop offset="0" stop-color="#180036"/><stop offset="1" stop-color="#1d1d1d"/></radialGradient></defs><g transform="translate(-173.25376,-88.57419)"><g stroke-miterlimit="10"><g stroke="#000000"><g stroke-width="0" stroke-linecap="round"><path d="M253.88427,191.52117l4.00892,9.89027l-4.05302,-0.13219l2.62121,7.04874l-9.97846,18.48084l-14.42779,-14.89053l-0.02199,-7.73158l-4.44953,1.93838l2.84158,-11.4762" fill="#0063eb"/><path d="M249.98315,190.75172l2.75396,6.79419l-2.78425,-0.09081l2.27643,8.4106l-6.85476,12.69554l-9.91127,-10.22914l-0.49087,-8.87968l-3.05663,1.33158l1.95204,-7.88365" fill="#629beb"/></g><path d="M227.67178,196.69742l-6.45085,-50.90543c0,0 -2.16269,-16.33615 11.49495,-18.03286c14.32304,-1.77937 16.46629,14.30484 16.46629,14.30484l6.78125,50.86137c0,0 -2.67462,3.22143 -14.01797,4.89554c-11.66703,1.72188 -14.27367,-1.12347 -14.27367,-1.12347z" fill="#5d5d5d" stroke-width="1.2" stroke-linecap="butt"/></g><g stroke="#000000"><g stroke-width="0" stroke-linecap="round"><path d="M202.5134,196.909l1.2007,10.60411l-3.86807,-1.21757l0.62851,7.49403l-14.58195,15.11548l-9.89049,-18.22271l2.0586,-7.45252l-4.80694,0.67002l5.8239,-10.28882" fill="#0063eb"/><path d="M198.96304,195.11853l0.82483,7.28456l-2.6572,-0.83642l-0.0699,8.71295l-10.01717,10.38368l-6.79433,-12.51821l1.91583,-8.68443l-3.30216,0.46027l4.00077,-7.06797" fill="#629beb"/></g><path d="M175.87467,194.84337l7.48035,-50.76436c0,0 2.3114,-16.31578 15.92205,-14.27608c14.27376,2.13907 12.0114,18.20697 12.0114,18.20697l-7.15027,50.81081c0,0 -3.44259,2.38323 -14.81817,0.9443c-11.70018,-1.47998 -13.44535,-4.92163 -13.44535,-4.92163z" fill="#5d5d5d" stroke-width="1.2" stroke-linecap="butt"/></g><g stroke="#000000" stroke-width="1.2"><path d="M264.26017,213.67989l-7.51201,-2.24926l-1.91212,-13.4683l-3.57035,-11.01668l2.66608,-3.80815l4.26639,-1.57156l10.53389,6.85315l11.6259,5.74481l-0.5055,7.80305l-6.23959,7.04104z" fill="#707070" stroke-linecap="round"/><path d="M282.06551,235.03745l-18.87504,-27.07943l-1.92457,2.02696l6.83688,-7.16813l9.46921,-5.6863l-2.77089,1.71673l20.78454,26.30238" fill="#5d5d5d" stroke-linecap="round"/><path d="M296.60059,240.513c-4.45789,3.26022 -10.71466,2.28932 -13.97488,-2.16857c-3.26022,-4.45789 -2.28932,-10.71466 2.16857,-13.97488c4.45789,-3.26022 10.71466,-2.28933 13.97488,2.16857c3.26022,4.45789 2.28933,10.71466 -2.16856,13.97488z" fill="#707070" stroke-linecap="butt"/></g><g stroke="#000000" stroke-width="1.2"><path d="M188.45105,120.86847c1.51029,8.98418 0.02129,16.72342 -3.32574,17.28608c-3.34705,0.56266 -7.2847,-6.26433 -8.79498,-15.24852c-1.51029,-8.98418 -0.02129,-16.72343 3.32574,-17.28608c3.34705,-0.56266 7.2847,6.26434 8.79498,15.24853z" fill="#454545" stroke-linecap="butt"/><path d="M193.157,150.81902l-5.41085,-35.19026l0.68476,6.29981l-6.98046,0.90444l-3.23006,-16.99477l9.71899,-13.17202l7.60371,-0.68559l7.51173,54.78198" fill="#5d5d5d" stroke-linecap="round"/></g><g stroke="#000000" stroke-width="1.2"><path d="M258.85259,116.95322c-0.81907,9.07335 -4.22331,16.18138 -7.60357,15.87624c-1.4708,-0.13277 -2.69471,-1.64715 -3.54066,-4.06311c-1.09827,-3.13656 -1.55949,-7.79272 -1.0968,-12.91815c0.81906,-9.07335 4.22331,-16.18139 7.60357,-15.87623c3.38027,0.30515 5.45652,7.90791 4.63745,16.98126z" fill="#454545" stroke-linecap="butt"/><path d="M251.59918,146.79409l3.69652,-35.41139l-0.93635,6.26735l-3.10018,-1.22004l1.18845,-17.25813l8.8622,-9.95099l7.52878,1.26645l-6.63621,54.89493" fill="#5d5d5d" stroke-linecap="round"/></g><g stroke="#000000" stroke-width="1.2"><g fill="#5d5d5d" stroke-linecap="round"><path d="M202.41448,254.1882l-0.05149,32.75854l-6.96642,1.64893l-7.60374,-1.61834l-2.12453,-32.43197"/><g><path d="M201.2033,279.46977l3.83445,3.91913l1.10638,4.97754l3.87708,5.91867l-4.06245,8.83864l-7.17372,3.65381l-7.60552,-16.5916l-2.83467,-3.94045"/><path d="M205.34604,292.38437l1.47204,2.96929l0.30397,3.24426l4.12815,6.41344l-1.35477,2.52946l-1.26947,6.52855l-5.16295,0.11012l-1.43473,-1.21968l1.75483,-5.78873l-1.98938,-5.20876l-2.34679,0.05004l-1.06678,5.02389l0.30398,3.24426l-1.3601,2.27953l-5.88831,-0.87464l0.59742,-5.01388l-1.27469,-4.72389l-2.56548,0.80488l1.74937,4.96383l-1.55213,4.28406l-4.69893,-0.14984l-0.52267,-2.48941l-2.73607,-7.19329l1.71218,-7.78828l-0.15992,-7.49829l1.56667,-5.03456l4.81803,-2.38734"/></g></g><g><path d="M195.81134,222.77436l-9.05155,-2.5648l-4.63356,-6.29867l6.69272,-11.10729l5.1754,-11.45181l4.44037,-0.97721l4.2988,1.76929l2.93409,11.20295l5.65261,12.37333l-5.11325,5.9451z" fill="#707070" stroke-linecap="round"/><path d="M186.01168,248.21691l3.31975,-33.35853l-3.25924,0.04849l11.04079,-0.31768l9.62308,2.34974l-2.7138,-0.66914l-1.29266,32.9832" fill="#5d5d5d" stroke-linecap="round"/><path d="M184.07946,251.10293c0.34161,-5.51227 5.08714,-9.70391 10.59941,-9.3623c5.51227,0.34161 9.70391,5.08713 9.36229,10.59941c-0.34161,5.51227 -5.08713,9.70391 -10.5994,9.3623c-5.51227,-0.34161 -9.70391,-5.08713 -9.3623,-10.5994z" fill="#707070" stroke-linecap="butt"/></g></g><g><g stroke-linecap="butt"><g><path d="M184.27827,166.65251c0,-25.55614 20.71734,-46.27348 46.27348,-46.27348c25.55614,0 46.27348,20.71734 46.27348,46.27348c0,25.55614 -20.71734,46.27348 -46.27348,46.27348c-25.55614,0 -46.27348,-20.71734 -46.27348,-46.27348z" fill="#5d5d5d" stroke="#000000" stroke-width="1.2"/><path d="M230.87244,121.02045c0,0 1.4919,0.01799 2.23114,0.05359c24.16558,1.16345 43.40092,21.12463 43.40092,45.57846c0,24.2471 -18.91146,44.07718 -42.78907,45.54494c-0.94025,0.0578 -2.843,0.08712 -2.843,0.08712z" fill="#686868" stroke="#000000" stroke-width="0"/><path d="M190.37168,166.65251c0,-22.7222 18.41998,-41.14217 41.14217,-41.14217c22.7222,0 41.14218,18.41998 41.14218,41.14217c0,22.7222 -18.41998,41.14217 -41.14218,41.14217c-22.7222,0 -41.14217,-18.41997 -41.14217,-41.14217z" fill="#707070" stroke="#838383" stroke-width="0"/><path d="M193.25803,166.65251c0,-21.1281 17.12771,-38.25581 38.25581,-38.25581c21.1281,0 38.25582,17.12771 38.25582,38.25581c0,21.1281 -17.12772,38.25582 -38.25582,38.25582c-21.1281,0 -38.25581,-17.12772 -38.25581,-38.25582z" fill="url(#color-1)" stroke="#000000" stroke-width="1.2"/></g><g stroke="#000000"><path d="M194.21247,178.04398c0,0 -2.57435,-6.84196 -2.53002,-11.46271c0.04434,-4.62075 2.75052,-11.51676 2.75052,-11.51676c0.34528,0.01619 1.2073,0.06214 1.67517,0.13609c5.53516,0.87486 9.76737,5.66749 9.76737,11.44862c0,6.04285 -4.62409,11.00567 -10.52686,11.54308c-0.35054,0.03191 -1.06443,0.04822 -1.06443,0.04822c0,0 -0.02551,-0.06877 -0.07174,-0.19654z" fill="#707070" stroke-width="0"/><path d="M194.43298,155.0645c0.34528,0.01619 1.2073,0.06214 1.67517,0.13609c5.53515,0.87486 9.76737,5.66749 9.76737,11.44862c0,6.04285 -4.62409,11.00567 -10.52686,11.54308c-0.35054,0.03191 -1.06443,0.04822 -1.06443,0.04822c0,0 -0.02551,-0.06876 -0.07174,-0.19654" fill="none" stroke-width="1.2"/></g><g stroke="#000000"><path d="M268.77234,177.83073c-0.03096,0.12778 -0.04803,0.19655 -0.04803,0.19655c0,0 -0.47794,-0.01631 -0.7126,-0.04823c-3.95177,-0.53741 -7.0475,-5.50023 -7.0475,-11.54307c0,-5.78113 2.83337,-10.57376 6.53904,-11.44862c0.31323,-0.07395 0.89033,-0.11991 1.12149,-0.1361c0,0 1.83862,4.56794 1.84141,11.51676c0.0027,6.74926 -1.69379,11.46271 -1.69379,11.46271z" fill="#707070" stroke-width="0"/><path d="M268.77234,177.83073c-0.03096,0.12778 -0.04803,0.19655 -0.04803,0.19655c0,0 -0.47794,-0.01631 -0.7126,-0.04823c-3.95177,-0.53741 -7.0475,-5.50023 -7.0475,-11.54307c0,-5.78113 2.83337,-10.57376 6.53904,-11.44862c0.31323,-0.07395 0.89033,-0.11991 1.12149,-0.1361" fill="none" stroke-width="1.2"/></g><path d="M193.23441,169.71872v-6.26288l4.54492,-1.56573l4.41125,1.56573v6.26288l-4.54492,1.6962z" fill="#21cc26" stroke="#17921c" stroke-width="1.2"/><path d="M263.36969,169.71872v-6.26288l3.10209,-1.56573l3.01084,1.56573v6.26288l-3.10208,1.6962z" fill="#21cc26" stroke="#17921c" stroke-width="1.2"/></g><g stroke-linecap="round"><path d="M224.83713,138.49527h2.20082l0.34388,-1.10041l1.58184,0.06877l1.23796,-1.65061l0.68775,-1.51307l0.89409,-2.13205l0.68776,2.2696l1.23795,1.65062l1.30674,1.37551l2.5447,1.03164l1.23796,0.68775l-1.10041,0.89409l-1.23796,-0.06878l-1.65062,1.10041l-1.16918,1.37551l-1.03163,1.85694l-0.61898,1.92571l-0.89408,-0.48143l-0.20633,-2.2696h-0.75654l-0.06877,-1.23796l-1.58184,-1.37552l-1.71939,-0.68775l-1.7194,-0.55021z" fill="#eee796" stroke="#eee796" stroke-width="0.25"/><path d="M224.85317,139.7212v-1.36176h2.26959v-0.90784h1.81568v-1.1348h1.21045h-0.7038" fill="none" stroke="#cec344" stroke-width="0.75"/><path d="M230.1489,135.3316v0.98521v-1.81568h0.90784v-2.2696h1.36176" fill="none" stroke="#cec344" stroke-width="0.75"/><path d="M234.08516,136.3168h-0.7038h1.21045v1.1348h1.81568v0.90784h2.26959v1.36176" fill="none" stroke="#cec344" stroke-width="0.75"/><path d="M231.11176,132.23153h1.36176v2.2696h0.90784v1.81568v-0.98522" fill="none" stroke="#cec344" stroke-width="0.75"/><path d="M229.4451,141.89452h0.7038h-1.21045v-1.1348h-1.81568v-0.90784h-2.26959v-1.36176" fill="none" stroke="#cec344" stroke-width="0.75"/><path d="M232.4185,145.97979h-1.36176v-2.2696h-0.90784v-1.81567v0.98521" fill="none" stroke="#cec344" stroke-width="0.75"/><path d="M238.67708,138.49012v1.36176h-2.26959v0.90784h-1.81568v1.1348h-1.21045h0.7038" fill="none" stroke="#cec344" stroke-width="0.75"/><path d="M233.38136,142.87972v-0.98521v1.81568h-0.90784v2.2696h-1.36176" fill="none" stroke="#cec344" stroke-width="0.75"/></g><g stroke-linecap="round"><path d="M224.83713,193.82861h2.20082l0.34388,-1.10041l1.58184,0.06877l1.23796,-1.65061l0.68775,-1.51307l0.89409,-2.13205l0.68776,2.2696l1.23795,1.65062l1.30674,1.37551l2.5447,1.03164l1.23796,0.68775l-1.10041,0.89409l-1.23796,-0.06878l-1.65062,1.10041l-1.16918,1.37552l-1.03163,1.85694l-0.61898,1.92571l-0.89408,-0.48143l-0.20633,-2.2696h-0.75654l-0.06877,-1.23796l-1.58184,-1.37551l-1.71939,-0.68776l-1.7194,-0.5502z" fill="#eee796" stroke="#eee796" stroke-width="0.25"/><path d="M224.85317,195.05454v-1.36176h2.26959v-0.90784h1.81568v-1.13479h1.21045h-0.7038" fill="none" stroke="#cec344" stroke-width="0.75"/><path d="M230.1489,190.66493v0.98521v-1.81568h0.90784v-2.2696h1.36176" fill="none" stroke="#cec344" stroke-width="0.75"/><path d="M234.08516,191.65014h-0.7038h1.21045v1.13479h1.81568v0.90784h2.26959v1.36176" fill="none" stroke="#cec344" stroke-width="0.75"/><path d="M231.11176,187.56487h1.36176v2.2696h0.90784v1.81568v-0.98522" fill="none" stroke="#cec344" stroke-width="0.75"/><path d="M229.4451,197.22785h0.7038h-1.21045v-1.13479h-1.81568v-0.90784h-2.26959v-1.36176" fill="none" stroke="#cec344" stroke-width="0.75"/><path d="M232.4185,201.31312h-1.36176v-2.2696h-0.90784v-1.81568v0.98522" fill="none" stroke="#cec344" stroke-width="0.75"/><path d="M238.67708,193.82345v1.36176h-2.26959v0.90784h-1.81568v1.13479h-1.21045h0.7038" fill="none" stroke="#cec344" stroke-width="0.75"/><path d="M233.38136,198.21306v-0.98522v1.81568h-0.90784v2.2696h-1.36176" fill="none" stroke="#cec344" stroke-width="0.75"/></g><g stroke-linecap="round"><path d="M246.95566,141.87404l1.55621,1.55621l1.02127,-0.53495l1.0699,1.16716l2.04253,-0.29179l1.55622,-0.58358l2.1398,-0.87537l-1.11853,2.09116l-0.2918,2.04254l-0.04863,1.89663l1.0699,2.52886l0.38905,1.36168l-1.41032,-0.14589l-0.82674,-0.924l-1.94527,-0.38905l-1.79937,0.1459l-2.04253,0.58358l-1.79937,0.924l-0.2918,-0.97263l1.45895,-1.75074l-0.53496,-0.53495l0.82674,-0.924l-0.14589,-2.09117l-0.72948,-1.70211l-0.82674,-1.60485z" fill="#eee796" stroke="#eee796" stroke-width="0.25"/><path d="M246.10014,142.75225l0.96291,-0.96291l1.60485,1.60484l0.64193,-0.64193l1.28388,1.28388l0.80242,-0.80243l0.85592,0.85592l-0.49766,-0.49766" fill="none" stroke="#cec344" stroke-width="0.75"/><path d="M252.9487,143.39298l-0.69664,0.69664l1.28388,-1.28388l0.64194,0.64194l1.60484,-1.60484l0.96291,0.96291" fill="none" stroke="#cec344" stroke-width="0.75"/><path d="M255.03541,146.87298l-0.49766,-0.49767l0.85592,0.85592l-0.80242,0.80242l1.28388,1.28388l-0.64193,0.64193l1.60485,1.60485l-0.96291,0.96291" fill="none" stroke="#cec344" stroke-width="0.75"/><path d="M255.82162,141.88174l0.96291,0.96291l-1.60485,1.60485l0.64194,0.64194l-1.28388,1.28388l0.69665,-0.69665" fill="none" stroke="#cec344" stroke-width="0.75"/><path d="M247.81035,147.536l0.49766,0.49766l-0.85591,-0.85592l0.80242,-0.80242l-1.28388,-1.28388l0.64194,-0.64194l-1.60485,-1.60485l0.96291,-0.96291" fill="none" stroke="#cec344" stroke-width="0.75"/><path d="M247.02414,152.52723l-0.96291,-0.96291l1.60485,-1.60485l-0.64194,-0.64194l1.28387,-1.28387l-0.69665,0.69665" fill="none" stroke="#cec344" stroke-width="0.75"/><path d="M256.74563,151.65672l-0.96291,0.96291l-1.60484,-1.60485l-0.64194,0.64194l-1.28388,-1.28388l-0.80242,0.80242l-0.85592,-0.85592l0.49767,0.49767" fill="none" stroke="#cec344" stroke-width="0.75"/><path d="M249.89706,151.016l0.69665,-0.69665l-1.28388,1.28388l-0.64194,-0.64194l-1.60484,1.60484l-0.96291,-0.96291" fill="none" stroke="#cec344" stroke-width="0.75"/></g><g stroke-linecap="round"><path d="M207.82908,181.00062l1.55622,1.55621l1.02127,-0.53495l1.0699,1.16716l2.04253,-0.29179l1.55622,-0.58358l2.1398,-0.87537l-1.11853,2.09116l-0.2918,2.04253l-0.04863,1.89664l1.0699,2.52886l0.38906,1.36168l-1.41033,-0.14589l-0.82674,-0.92401l-1.94527,-0.38905l-1.79937,0.14589l-2.04253,0.58359l-1.79937,0.924l-0.2918,-0.97263l1.45895,-1.75075l-0.53495,-0.53495l0.82674,-0.924l-0.1459,-2.09117l-0.72948,-1.70211l-0.82674,-1.60485z" fill="#eee796" stroke="#eee796" stroke-width="0.25"/><path d="M206.97356,181.87883l0.96291,-0.96291l1.60484,1.60484l0.64194,-0.64194l1.28388,1.28388l0.80242,-0.80242l0.85592,0.85592l-0.49766,-0.49766" fill="none" stroke="#cec344" stroke-width="0.75"/><path d="M213.82212,182.51955l-0.69665,0.69665l1.28388,-1.28388l0.64194,0.64194l1.60485,-1.60485l0.96291,0.96291" fill="none" stroke="#cec344" stroke-width="0.75"/><path d="M215.90883,185.99956l-0.49766,-0.49766l0.85592,0.85592l-0.80242,0.80242l1.28388,1.28388l-0.64194,0.64194l1.60485,1.60485l-0.96291,0.96291" fill="none" stroke="#cec344" stroke-width="0.75"/><path d="M216.69505,181.00832l0.96291,0.96291l-1.60485,1.60485l0.64194,0.64194l-1.28388,1.28387l0.69665,-0.69665" fill="none" stroke="#cec344" stroke-width="0.75"/><path d="M208.68378,186.66257l0.49766,0.49766l-0.85592,-0.85592l0.80242,-0.80242l-1.28388,-1.28387l0.64194,-0.64194l-1.60485,-1.60485l0.96291,-0.96291" fill="none" stroke="#cec344" stroke-width="0.75"/><path d="M207.89757,191.65381l-0.96291,-0.96291l1.60485,-1.60485l-0.64194,-0.64194l1.28388,-1.28388l-0.69666,0.69665" fill="none" stroke="#cec344" stroke-width="0.75"/><path d="M217.61905,190.7833l-0.96291,0.96291l-1.60485,-1.60485l-0.64194,0.64194l-1.28388,-1.28388l-0.80242,0.80242l-0.85591,-0.85592l0.49766,0.49766" fill="none" stroke="#cec344" stroke-width="0.75"/><path d="M210.77049,190.14258l0.69665,-0.69665l-1.28388,1.28388l-0.64194,-0.64194l-1.60485,1.60485l-0.96291,-0.96291" fill="none" stroke="#cec344" stroke-width="0.75"/></g><g stroke-linecap="round"><path d="M206.80782,151.74628l1.55621,-1.55622l-0.53495,-1.02127l1.16716,-1.0699l-0.29179,-2.04253l-0.58358,-1.55622l-0.87537,-2.13979l2.09116,1.11853l2.04253,0.2918l1.89664,0.04863l2.52885,-1.0699l1.36169,-0.38906l-0.1459,1.41033l-0.924,0.82674l-0.38905,1.94527l0.14589,1.79937l0.58358,2.04253l0.924,1.79937l-0.97263,0.2918l-1.75074,-1.45895l-0.53495,0.53495l-0.924,-0.82674l-2.09117,0.1459l-1.70211,0.72948l-1.60485,0.82674z" fill="#eee796" stroke="#eee796" stroke-width="0.25"/><path d="M207.68602,152.6018l-0.96291,-0.96291l1.60485,-1.60485l-0.64194,-0.64194l1.28388,-1.28388l-0.80242,-0.80242l0.85592,-0.85592l-0.49766,0.49766" fill="none" stroke="#cec344" stroke-width="0.75"/><path d="M208.32675,145.75323l0.69665,0.69665l-1.28388,-1.28388l0.64194,-0.64194l-1.60484,-1.60485l0.96291,-0.96291" fill="none" stroke="#cec344" stroke-width="0.75"/><path d="M211.80675,143.66653l-0.49766,0.49766l0.85592,-0.85592l0.80242,0.80242l1.28388,-1.28388l0.64194,0.64194l1.60484,-1.60485l0.96291,0.96291" fill="none" stroke="#cec344" stroke-width="0.75"/><path d="M206.81552,142.88032l0.96291,-0.96291l1.60485,1.60485l0.64194,-0.64194l1.28388,1.28388l-0.69665,-0.69665" fill="none" stroke="#cec344" stroke-width="0.75"/><path d="M212.46977,150.89158l0.49766,-0.49766l-0.85592,0.85592l-0.80242,-0.80242l-1.28388,1.28388l-0.64194,-0.64194l-1.60485,1.60484l-0.96291,-0.96291" fill="none" stroke="#cec344" stroke-width="0.75"/><path d="M217.46101,151.6778l-0.96291,0.96291l-1.60485,-1.60485l-0.64194,0.64194l-1.28387,-1.28387l0.69665,0.69665" fill="none" stroke="#cec344" stroke-width="0.75"/><path d="M216.5905,141.95631l0.96291,0.96291l-1.60485,1.60485l0.64194,0.64194l-1.28388,1.28388l0.80242,0.80242l-0.85591,0.85592l0.49766,-0.49766" fill="none" stroke="#cec344" stroke-width="0.75"/><path d="M215.94977,148.80487l-0.69665,-0.69665l1.28387,1.28388l-0.64193,0.64194l1.60485,1.60484l-0.96291,0.96291" fill="none" stroke="#cec344" stroke-width="0.75"/></g><g stroke-linecap="round"><path d="M245.93439,190.87286l1.55621,-1.55621l-0.53495,-1.02127l1.16716,-1.0699l-0.29179,-2.04253l-0.58358,-1.55622l-0.87537,-2.13979l2.09116,1.11853l2.04253,0.2918l1.89664,0.04862l2.52886,-1.0699l1.36168,-0.38905l-0.1459,1.41032l-0.924,0.82673l-0.38905,1.94528l0.1459,1.79937l0.58358,2.04254l0.92401,1.79937l-0.97264,0.2918l-1.75074,-1.45896l-0.53495,0.53495l-0.924,-0.82674l-2.09116,0.14589l-1.70211,0.72948l-1.60485,0.82674z" fill="#eee796" stroke="#eee796" stroke-width="0.25"/><path d="M246.8126,191.72838l-0.96291,-0.96291l1.60484,-1.60485l-0.64194,-0.64194l1.28388,-1.28388l-0.80242,-0.80242l0.85592,-0.85592l-0.49766,0.49766" fill="none" stroke="#cec344" stroke-width="0.75"/><path d="M247.45332,184.87981l0.69665,0.69665l-1.28388,-1.28388l0.64194,-0.64194l-1.60484,-1.60485l0.96291,-0.96291" fill="none" stroke="#cec344" stroke-width="0.75"/><path d="M250.93333,182.79311l-0.49766,0.49766l0.85592,-0.85591l0.80242,0.80242l1.28388,-1.28388l0.64194,0.64194l1.60485,-1.60484l0.96291,0.96291" fill="none" stroke="#cec344" stroke-width="0.75"/><path d="M245.94209,182.00689l0.96291,-0.96291l1.60485,1.60484l0.64194,-0.64194l1.28388,1.28388l-0.69665,-0.69665" fill="none" stroke="#cec344" stroke-width="0.75"/><path d="M251.59634,190.01816l0.49767,-0.49766l-0.85592,0.85591l-0.80242,-0.80242l-1.28388,1.28388l-0.64194,-0.64194l-1.60485,1.60485l-0.96291,-0.96291" fill="none" stroke="#cec344" stroke-width="0.75"/><path d="M256.58758,190.80437l-0.96291,0.96291l-1.60485,-1.60485l-0.64194,0.64194l-1.28388,-1.28388l0.69665,0.69665" fill="none" stroke="#cec344" stroke-width="0.75"/><path d="M255.71707,181.08289l0.96291,0.96291l-1.60485,1.60485l0.64194,0.64194l-1.28388,1.28388l0.80242,0.80242l-0.85591,0.85592l0.49766,-0.49767" fill="none" stroke="#cec344" stroke-width="0.75"/><path d="M255.07635,187.93145l-0.69665,-0.69665l1.28387,1.28387l-0.64194,0.64194l1.60485,1.60485l-0.96291,0.96291" fill="none" stroke="#cec344" stroke-width="0.75"/></g></g><g stroke-linecap="round"><g><g stroke="#00a8c1"><path d="M243.68265,167.0291v-9.5534h1.76734v-2.98544h2.14605v-2.58737h4.9233v2.58737h1.76734v2.98544h1.76734v9.5534" fill="#00d4f5" stroke-width="0"/><path d="M243.68265,161.89166v5.13744v-9.5534h1.76734v-2.98544h2.14605v-2.58737h4.9233v2.58737h1.76734v2.98544h1.76734v9.5534v-4.13744" fill="none" stroke-width="1.5"/></g><g><path d="M256.05401,166.65288v9.5534h-1.76734v2.98544h-1.76734v2.58737h-4.9233v-2.58737h-2.14605v-2.98544h-1.76734v-9.5534" fill="#00fdb0" stroke="#00a8c1" stroke-width="0"/><path d="M256.05401,170.79032v-4.13744v9.5534h-1.76734v2.98544h-1.76734v2.58737h-4.9233v-2.58737h-2.14605v-2.98544h-1.76734v-9.5534v5.13744" fill="none" stroke="#00a674" stroke-width="1.5"/></g></g><g><g stroke="#00a8c1"><path d="M215.68265,167.0291v-9.5534h2.30305v-2.98544h2.79656v-2.58737h6.41565v2.58737h2.30305v2.98544h2.30305v9.5534" fill="#00d4f5" stroke-width="0"/><path d="M215.68265,161.89166v5.13744v-9.5534h2.30305v-2.98544h2.79656v-2.58737h6.41565v2.58737h2.30305v2.98544h2.30305v9.5534v-4.13744" fill="none" stroke-width="1.5"/></g><g><path d="M231.80401,166.65288v9.5534h-2.30305v2.98544h-2.30305v2.58737h-6.41565v-2.58737h-2.79656v-2.98544h-2.30305v-9.5534" fill="#00fdb0" stroke="#00a8c1" stroke-width="0"/><path d="M231.80401,170.79032v-4.13744v9.5534h-2.30305v2.98544h-2.30305v2.58737h-6.41565v-2.58737h-2.79656v-2.98544h-2.30305v-9.5534v5.13744" fill="none" stroke="#00a674" stroke-width="1.5"/></g></g></g><g stroke="#000000" stroke-width="1.2"><path d="M260.79136,224.43518c-4.27144,-5.66619 -3.14077,-13.72223 2.52542,-17.99367c5.6662,-4.27144 13.72224,-3.14077 17.99367,2.52543c4.27144,5.66619 3.14078,13.72223 -2.52542,17.99367c-5.6662,4.27144 -13.72224,3.14077 -17.99367,-2.52543z" fill="#5c5e5f" stroke-linecap="butt"/><g stroke-linecap="round"><path d="M282.28908,245.96731l-9.05711,2.73206l-2.16384,-5.97493l-5.61622,-3.95745l2.1294,-8.0412" fill="#5d5d5d"/><path d="M284.8803,216.61468l3.22586,0.9789l1.36602,4.52854l4.76675,0.50222l1.2828,8.6869l3.50691,1.1594l1.88546,6.76987l-5.34644,10.75889l-12.70176,2.55412l-3.98329,-4.89589l-0.00861,-3.50403l-3.32036,-1.30003l-3.23426,-4.29036l0.88103,-2.71196l-3.32037,-1.30003l-2.43933,-4.01199l7.91492,-11.23242z" fill="#5d5d5d"/><path d="M279.95591,228.12574l-5.59037,6.55463" fill="none"/><path d="M280.22568,242.8421l5.68508,-6.04094" fill="none"/></g><path d="M292.36049,255.0586l-4.39025,-5.8238l2.77041,-5.25052l6.01296,-0.94918l4.37413,5.41434l-2.8395,5.93501z" fill="#5c5e5f" stroke-linecap="round"/></g></g></g></svg>