<svg version="1.1" xmlns="http://www.w3.org/2000/svg" xmlns:xlink="http://www.w3.org/1999/xlink" width="323.92859" height="323.92859" viewBox="0,0,323.92859,323.92859"><g transform="translate(-78.03571,-18.03574)"><g stroke-miterlimit="10"><g stroke-linecap="butt"><path d="M287.05093,300.69278l5.87524,-70.72106l45.02252,-0.10549l-8.36991,70.82655z" fill="#868995" stroke="#000000" stroke-width="1.2"/><g><g><g><g fill="#868995" stroke="#000000" stroke-width="1.2"><path d="M314.91629,263.73469c0,0 -14.72229,0.34976 -16.50098,-1.93606c-1.3725,-1.76382 0.99403,-25.0985 2.72753,-26.8075c1.77956,-1.75441 16.48082,-1.78714 16.48082,-1.78714"/></g><g fill="none" stroke="none" stroke-width="1" font-family="sans-serif" font-weight="normal" font-size="12" text-anchor="start"/><g fill="none" stroke="none" stroke-width="1" font-family="sans-serif" font-weight="normal" font-size="12" text-anchor="start"/></g><g><g fill="#868995" stroke="#000000" stroke-width="1.2"><path d="M317.51561,233.20399c0,0 14.69461,0.03272 16.11716,1.78714c1.38572,1.709 -0.9961,25.04367 -2.72752,26.80749c-2.24382,2.28582 -16.89495,1.93608 -16.89495,1.93608"/></g><g fill="none" stroke="none" stroke-width="1" font-family="sans-serif" font-weight="normal" font-size="12" text-anchor="start"/><g fill="none" stroke="none" stroke-width="1" font-family="sans-serif" font-weight="normal" font-size="12" text-anchor="start"/></g></g><g><g><g fill="#4e4f56" stroke="#000000" stroke-width="1.2"><path d="M315.04573,261.93812c0,0 -12.98855,0.30856 -14.55777,-1.70807c-1.21087,-1.5561 0.87697,-22.14282 2.40632,-23.65056c1.56999,-1.54781 14.53999,-1.57668 14.53999,-1.57668"/></g><g fill="none" stroke="none" stroke-width="1" font-family="sans-serif" font-weight="normal" font-size="12" text-anchor="start"/><g fill="none" stroke="none" stroke-width="1" font-family="sans-serif" font-weight="normal" font-size="12" text-anchor="start"/></g><g><g fill="#4e4f56" stroke="#000000" stroke-width="1.2"><path d="M317.33894,235.00281c0,0 12.96413,0.02887 14.21915,1.57668c1.22254,1.50775 -0.87881,22.09446 -2.40633,23.65056c-1.97958,2.01664 -14.90534,1.70807 -14.90534,1.70807"/></g><g fill="none" stroke="none" stroke-width="1" font-family="sans-serif" font-weight="normal" font-size="12" text-anchor="start"/><g fill="none" stroke="none" stroke-width="1" font-family="sans-serif" font-weight="normal" font-size="12" text-anchor="start"/></g></g><g><g><g fill="#9497a4" stroke="#000000" stroke-width="1.2"><path d="M315.69296,252.95531c0,0 -4.31985,0.10263 -4.84175,-0.56808c-0.40272,-0.51755 0.29167,-7.36444 0.80032,-7.86589c0.52216,-0.51478 4.83583,-0.52438 4.83583,-0.52438"/></g><g fill="none" stroke="none" stroke-width="1" font-family="sans-serif" font-weight="normal" font-size="12" text-anchor="start"/><g fill="none" stroke="none" stroke-width="1" font-family="sans-serif" font-weight="normal" font-size="12" text-anchor="start"/></g><g><g fill="#9497a4" stroke="#000000" stroke-width="1.2"><path d="M316.45565,243.99694c0,0 4.31171,0.0096 4.72913,0.52438c0.40661,0.50145 -0.29228,7.34836 -0.80032,7.86589c-0.65839,0.67071 -4.95734,0.56808 -4.95734,0.56808"/></g><g fill="none" stroke="none" stroke-width="1" font-family="sans-serif" font-weight="normal" font-size="12" text-anchor="start"/><g fill="none" stroke="none" stroke-width="1" font-family="sans-serif" font-weight="normal" font-size="12" text-anchor="start"/></g></g></g><g><g><g><g fill="#868995" stroke="#000000" stroke-width="1.2"><path d="M311.72024,294.71302c0,0 -11.16835,0.26533 -12.51766,-1.4687c-1.04118,-1.33803 0.75407,-19.03976 2.0691,-20.33621c1.34997,-1.3309 12.50238,-1.35573 12.50238,-1.35573"/></g><g fill="none" stroke="none" stroke-width="1" font-family="sans-serif" font-weight="normal" font-size="12" text-anchor="start"/><g fill="none" stroke="none" stroke-width="1" font-family="sans-serif" font-weight="normal" font-size="12" text-anchor="start"/></g><g><g fill="#868995" stroke="#000000" stroke-width="1.2"><path d="M313.6921,271.55238c0,0 11.14736,0.02483 12.22651,1.35573c1.05122,1.29645 -0.75565,18.99818 -2.06911,20.33621c-1.70216,1.73403 -12.81654,1.46871 -12.81654,1.46871"/></g><g fill="none" stroke="none" stroke-width="1" font-family="sans-serif" font-weight="normal" font-size="12" text-anchor="start"/><g fill="none" stroke="none" stroke-width="1" font-family="sans-serif" font-weight="normal" font-size="12" text-anchor="start"/></g></g><g><g><g fill="#4e4f56" stroke="#000000" stroke-width="1.2"><path d="M311.81844,293.35014c0,0 -9.85313,0.23408 -11.04354,-1.29574c-0.91857,-1.18047 0.66527,-16.79758 1.82543,-17.94135c1.19099,-1.17417 11.03006,-1.19608 11.03006,-1.19608"/></g><g fill="none" stroke="none" stroke-width="1" font-family="sans-serif" font-weight="normal" font-size="12" text-anchor="start"/><g fill="none" stroke="none" stroke-width="1" font-family="sans-serif" font-weight="normal" font-size="12" text-anchor="start"/></g><g><g fill="#4e4f56" stroke="#000000" stroke-width="1.2"><path d="M313.55809,272.91697c0,0 9.83461,0.02191 10.78667,1.19608c0.92741,1.14378 -0.66667,16.76089 -1.82544,17.94135c-1.50172,1.52982 -11.30722,1.29574 -11.30722,1.29574"/></g><g fill="none" stroke="none" stroke-width="1" font-family="sans-serif" font-weight="normal" font-size="12" text-anchor="start"/><g fill="none" stroke="none" stroke-width="1" font-family="sans-serif" font-weight="normal" font-size="12" text-anchor="start"/></g></g><g><g><g fill="#9497a4" stroke="#000000" stroke-width="1.2"><path d="M312.30942,286.53577c0,0 -3.27703,0.07784 -3.67296,-0.43095c-0.3055,-0.39261 0.22127,-5.58668 0.60713,-5.96708c0.39611,-0.39051 3.66846,-0.39781 3.66846,-0.39781"/></g><g fill="none" stroke="none" stroke-width="1" font-family="sans-serif" font-weight="normal" font-size="12" text-anchor="start"/><g fill="none" stroke="none" stroke-width="1" font-family="sans-serif" font-weight="normal" font-size="12" text-anchor="start"/></g><g><g fill="#9497a4" stroke="#000000" stroke-width="1.2"><path d="M312.88801,279.73993c0,0 3.27087,0.00728 3.58752,0.39781c0.30845,0.3804 -0.22173,5.57447 -0.60712,5.96708c-0.49944,0.5088 -3.76065,0.43095 -3.76065,0.43095"/></g><g fill="none" stroke="none" stroke-width="1" font-family="sans-serif" font-weight="normal" font-size="12" text-anchor="start"/><g fill="none" stroke="none" stroke-width="1" font-family="sans-serif" font-weight="normal" font-size="12" text-anchor="start"/></g></g></g></g><g stroke-linecap="butt"><path d="M150.4212,300.69278l-8.00783,-70.82655l45.02199,0.10549l5.5137,70.72106z" fill="#868995" stroke="#000000" stroke-width="1.2"/><g><g><g><g fill="#868995" stroke="#000000" stroke-width="1.2"><path d="M162.72135,233.20399c0,0 14.70109,0.03272 16.47168,1.78714c1.72475,1.709 3.97199,25.04367 2.59049,26.80749c-1.79037,2.28582 -16.51087,1.93607 -16.51087,1.93607"/></g><g fill="none" stroke="none" stroke-width="1" font-family="sans-serif" font-weight="normal" font-size="12" text-anchor="start"/><g fill="none" stroke="none" stroke-width="1" font-family="sans-serif" font-weight="normal" font-size="12" text-anchor="start"/></g><g><g fill="#868995" stroke="#000000" stroke-width="1.2"><path d="M166.17864,263.73469c0,0 -14.65291,0.34976 -16.88505,-1.93606c-1.7224,-1.76382 -3.98495,-25.09849 -2.59049,-26.80749c1.43152,-1.75441 16.1263,-1.78714 16.1263,-1.78714"/></g><g fill="none" stroke="none" stroke-width="1" font-family="sans-serif" font-weight="normal" font-size="12" text-anchor="start"/><g fill="none" stroke="none" stroke-width="1" font-family="sans-serif" font-weight="normal" font-size="12" text-anchor="start"/></g></g><g><g><g fill="#4e4f56" stroke="#000000" stroke-width="1.2"><path d="M162.90154,235.00281c0,0 12.96986,0.02887 14.53193,1.57668c1.52165,1.50775 3.50423,22.09446 2.28541,23.65056c-1.57953,2.01664 -14.5665,1.70807 -14.5665,1.70807"/></g><g fill="none" stroke="none" stroke-width="1" font-family="sans-serif" font-weight="normal" font-size="12" text-anchor="start"/><g fill="none" stroke="none" stroke-width="1" font-family="sans-serif" font-weight="normal" font-size="12" text-anchor="start"/></g><g><g fill="#4e4f56" stroke="#000000" stroke-width="1.2"><path d="M165.95168,261.93812c0,0 -12.92733,0.30856 -14.89661,-1.70807c-1.51956,-1.5561 -3.51567,-22.14282 -2.28541,-23.65056c1.26295,-1.54781 14.22721,-1.57668 14.22721,-1.57668"/></g><g fill="none" stroke="none" stroke-width="1" font-family="sans-serif" font-weight="normal" font-size="12" text-anchor="start"/><g fill="none" stroke="none" stroke-width="1" font-family="sans-serif" font-weight="normal" font-size="12" text-anchor="start"/></g></g><g><g><g fill="#9497a4" stroke="#000000" stroke-width="1.2"><path d="M163.80247,243.99694c0,0 4.31363,0.0096 4.83315,0.52438c0.50609,0.50145 1.16547,7.34836 0.7601,7.86589c-0.52534,0.67071 -4.84464,0.56808 -4.84464,0.56808"/></g><g fill="none" stroke="none" stroke-width="1" font-family="sans-serif" font-weight="normal" font-size="12" text-anchor="start"/><g fill="none" stroke="none" stroke-width="1" font-family="sans-serif" font-weight="normal" font-size="12" text-anchor="start"/></g><g><g fill="#9497a4" stroke="#000000" stroke-width="1.2"><path d="M164.81691,252.95531c0,0 -4.29948,0.10263 -4.95444,-0.56808c-0.50538,-0.51755 -1.16927,-7.36444 -0.7601,-7.86589c0.42004,-0.51478 4.7318,-0.52438 4.7318,-0.52438"/></g><g fill="none" stroke="none" stroke-width="1" font-family="sans-serif" font-weight="normal" font-size="12" text-anchor="start"/><g fill="none" stroke="none" stroke-width="1" font-family="sans-serif" font-weight="normal" font-size="12" text-anchor="start"/></g></g></g><g><g><g><g fill="#868995" stroke="#000000" stroke-width="1.2"><path d="M166.37489,271.55238c0,0 11.15229,0.02483 12.49545,1.35573c1.3084,1.29645 3.01316,18.99818 1.96514,20.33621c-1.35818,1.73403 -12.52517,1.46871 -12.52517,1.46871"/></g><g fill="none" stroke="none" stroke-width="1" font-family="sans-serif" font-weight="normal" font-size="12" text-anchor="start"/><g fill="none" stroke="none" stroke-width="1" font-family="sans-serif" font-weight="normal" font-size="12" text-anchor="start"/></g><g><g fill="#868995" stroke="#000000" stroke-width="1.2"><path d="M168.99761,294.71302c0,0 -11.11573,0.26533 -12.80903,-1.4687c-1.3066,-1.33803 -3.02298,-19.03976 -1.96514,-20.3362c1.08595,-1.3309 12.23344,-1.35573 12.23344,-1.35573"/></g><g fill="none" stroke="none" stroke-width="1" font-family="sans-serif" font-weight="normal" font-size="12" text-anchor="start"/><g fill="none" stroke="none" stroke-width="1" font-family="sans-serif" font-weight="normal" font-size="12" text-anchor="start"/></g></g><g><g><g fill="#4e4f56" stroke="#000000" stroke-width="1.2"><path d="M166.51159,272.91697c0,0 9.83895,0.02191 11.02394,1.19608c1.15433,1.14378 2.65833,16.76089 1.73372,17.94135c-1.19823,1.52982 -11.05017,1.29574 -11.05017,1.29574"/></g><g fill="none" stroke="none" stroke-width="1" font-family="sans-serif" font-weight="normal" font-size="12" text-anchor="start"/><g fill="none" stroke="none" stroke-width="1" font-family="sans-serif" font-weight="normal" font-size="12" text-anchor="start"/></g><g><g fill="#4e4f56" stroke="#000000" stroke-width="1.2"><path d="M168.82543,293.35014c0,0 -9.8067,0.23408 -11.3006,-1.29574c-1.15275,-1.18047 -2.667,-16.79758 -1.73372,-17.94135c0.95807,-1.17417 10.79279,-1.19608 10.79279,-1.19608"/></g><g fill="none" stroke="none" stroke-width="1" font-family="sans-serif" font-weight="normal" font-size="12" text-anchor="start"/><g fill="none" stroke="none" stroke-width="1" font-family="sans-serif" font-weight="normal" font-size="12" text-anchor="start"/></g></g><g><g><g fill="#9497a4" stroke="#000000" stroke-width="1.2"><path d="M167.19502,279.73993c0,0 3.27232,0.00729 3.66644,0.3978c0.38391,0.3804 0.88413,5.57448 0.57662,5.96708c-0.39852,0.5088 -3.67516,0.43095 -3.67516,0.43095"/></g><g fill="none" stroke="none" stroke-width="1" font-family="sans-serif" font-weight="normal" font-size="12" text-anchor="start"/><g fill="none" stroke="none" stroke-width="1" font-family="sans-serif" font-weight="normal" font-size="12" text-anchor="start"/></g><g><g fill="#9497a4" stroke="#000000" stroke-width="1.2"><path d="M167.9646,286.53577c0,0 -3.26159,0.07785 -3.75844,-0.43095c-0.38339,-0.39261 -0.88701,-5.58668 -0.57661,-5.96708c0.31865,-0.39051 3.58955,-0.3978 3.58955,-0.3978"/></g><g fill="none" stroke="none" stroke-width="1" font-family="sans-serif" font-weight="normal" font-size="12" text-anchor="start"/><g fill="none" stroke="none" stroke-width="1" font-family="sans-serif" font-weight="normal" font-size="12" text-anchor="start"/></g></g></g></g><path d="M187.3461,300.92055l-3.94905,-103.37655h113.20589l-3.94904,103.37655z" fill="#868995" stroke="#000000" stroke-width="1.2" stroke-linecap="butt"/><g stroke="#000000" stroke-width="1.2" stroke-linecap="butt"><g fill="#868995"><path d="M240.80288,245.80576c0,0 -44.85313,0.45399 -48.0377,-2.51313c-2.45732,-2.28954 -2.46945,-32.57923 0,-34.79762c2.53508,-2.27732 47.40598,-2.31981 47.40598,-2.31981"/><path d="M239.82882,206.17521c0,0 44.87091,0.04248 47.40598,2.31981c2.46946,2.21839 2.45734,32.50809 0,34.79762c-3.18457,2.96712 -48.0377,2.51313 -48.0377,2.51313"/></g><g fill="#4e4f56"><path d="M240.76191,243.54599c0,0 -42.56392,0.40218 -45.58596,-2.22635c-2.33192,-2.02826 -2.34342,-28.8615 0,-30.82673c2.40569,-2.01745 44.98648,-2.05509 44.98648,-2.05509"/><path d="M239.83756,208.43782c0,0 42.5808,0.03764 44.98649,2.05509c2.34342,1.96524 2.33191,28.79847 0,30.82673c-3.02204,2.62853 -45.58597,2.22635 -45.58597,2.22635"/></g><g fill="#9497a4"><path d="M240.24829,231.83058c0,0 -13.87108,0.13359 -14.85592,-0.73958c-0.75994,-0.67378 -0.7637,-9.58753 0,-10.24036c0.78398,-0.67018 14.66055,-0.68268 14.66055,-0.68268"/><path d="M239.94707,220.16797c0,0 13.87656,0.01251 14.66055,0.68268c0.76369,0.65283 0.75994,9.56659 0,10.24036c-0.98485,0.87317 -14.85592,0.73957 -14.85592,0.73957"/></g></g><g stroke="#000000" stroke-width="1.2" stroke-linecap="butt"><g fill="#868995"><path d="M240.69234,286.48518c0,0 -38.67744,0.39148 -41.42353,-2.16711c-2.11899,-1.97429 -2.12944,-28.0935 0,-30.00643c2.18603,-1.96376 40.87879,-2.0004 40.87879,-2.0004"/><path d="M239.85239,252.31124c0,0 38.69277,0.03663 40.8788,2.0004c2.12944,1.91293 2.11899,28.03214 0,30.00643c-2.7461,2.55858 -41.42354,2.1671 -41.42354,2.1671"/></g><g fill="#4e4f56"><path d="M240.65701,284.53654c0,0 -36.70342,0.34681 -39.30935,-1.91981c-2.01084,-1.74899 -2.02077,-24.88765 0,-26.5823c2.07446,-1.73968 38.79241,-1.77213 38.79241,-1.77213"/><path d="M239.85993,254.26232c0,0 36.71797,0.03246 38.79242,1.77213c2.02076,1.69465 2.01083,24.8333 0,26.58229c-2.60595,2.26662 -39.30936,1.91981 -39.30936,1.91981"/></g><g fill="#9497a4"><path d="M240.21411,274.43419c0,0 -11.9612,0.1152 -12.81044,-0.63774c-0.65531,-0.581 -0.65854,-8.26744 0,-8.83038c0.67604,-0.5779 12.64198,-0.58869 12.64198,-0.58869"/><path d="M239.95435,264.37737c0,0 11.96594,0.01079 12.64198,0.58869c0.65854,0.56294 0.65531,8.24938 0,8.83039c-0.84924,0.75295 -12.81044,0.63774 -12.81044,0.63774"/></g></g><path d="M192.35433,176.07744" fill="none" stroke="#000000" stroke-width="1.2" stroke-linecap="round"/><path d="M200.34228,180.4758" fill="none" stroke="#000000" stroke-width="1.2" stroke-linecap="round"/><g stroke="#000000" stroke-width="1.2" stroke-linecap="round"><path d="M194.52272,160.01742c-15.9633,0.44474 -29.67764,-27.63935 -29.67764,-27.63935c9.89631,-3.49491 14.3291,-0.59049 14.89121,-0.34114c0.56231,0.25017 11.04994,6.29835 11.04994,6.29835c0.20567,13.43573 3.73649,21.68216 3.73649,21.68216zM190.95048,135.43513c0,0 -0.19529,2.08211 -0.15981,3.18426M194.52272,160.01742c0.35462,0.82996 1.26573,2.04142 1.26573,2.04142" fill="#be1e2d"/><path d="M187.78613,158.16867c-3.12586,-1.34642 -6.99433,-3.6709 -10.82263,-7.67266c-3.41327,-3.56821 -7.14353,-9.46867 -9.54778,-13.56683l0.0577,-0.0796c6.07097,-2.55963 10.09772,0.735 10.09772,0.735l0.25631,0.27753c1.72706,2.08609 3.5618,4.15783 5.00665,5.42079c0.8531,0.74711 1.74516,1.36679 2.56909,1.86479c0,0 1.96061,3.83507 2.52765,6.70675c0.84484,4.24629 -0.27298,6.27321 -0.27298,6.27321z" fill="#929497"/></g><path d="M256.79071,165.9199l-9.89146,9.54675l-24.08844,2.87392l-9.7692,5.55387l-15.83247,-2.92907l-7.45011,-7.54591l-6.69584,-9.27055l-4.64994,-12.04903l-0.68522,-12.29189l2.06376,-9.63639l3.86972,-9.62296l5.7156,-8.93247l6.67608,-8.15447l7.57946,-7.65826l5.40626,-4.50006l2.23085,-3.065l2.28376,-4.89166l1.38412,-4.65961l0.92793,-6.19446l-1.16409,-8.10513l5.1032,5.17079l5.42869,6.77665l-0.1709,-3.92101l1.19193,2.03314l4.56227,6.34936l6.17841,5.85871l3.97211,2.66836l5.79373,3.96086l7.04817,4.76343l6.44806,5.65004l5.45994,6.16137l4.85983,7.04797l3.72375,6.82937l1.65875,7.41404l1.0603,7.53936l-0.52296,6.65349l-1.75278,8.28073l-2.5238,5.2463l-4.49696,7.17814z" fill="#be1e2d" stroke="#8c8c8c" stroke-width="0" stroke-linecap="round"/><path d="M267.6393,166.18154l-10.8934,-0.18002l-9.86162,9.70336l-24.04357,2.6008l-9.78091,5.51127l-15.02531,-2.27338c0,0 -51.87034,-37.99477 10.74501,-89.66103c0,0 10.7165,-12.504 5.39141,-28.21185c-0.4331,-1.27758 10.87263,12.64266 10.87263,12.64266c0,0 -0.56004,-5.28603 -0.27672,-4.64502c3.13986,7.10396 12.83483,15.63731 12.83483,15.63731c58.88737,32.40767 34.51808,72.72131 34.51808,72.72131z" fill="none" stroke="#000000" stroke-width="1.2" stroke-linecap="round"/><g stroke="#000000" stroke-width="1.2" stroke-linecap="round"><path d="M267.22387,121.94427c0,0 7.08888,-11.1502 7.49804,-11.68324c0.4093,-0.5322 3.26898,-5.54936 13.5694,-8.0245c0,0 -1.35249,32.22205 -15.92982,40.75518c0,0 -0.05055,-9.18417 -5.13763,-21.04744zM267.3314,122.1952c-0.40051,-0.98355 -1.39382,-2.69502 -1.39382,-2.69502M272.02063,145.4842c0,0 0.3466,-1.56856 0.34085,-2.49247" fill="#be1e2d"/><path d="M277.81367,137.50249c0,0 -1.80398,-1.14758 -2.70813,-5.33277c-0.61533,-2.82794 -0.3514,-7.27718 -0.3514,-7.27718c0.54796,-0.89595 1.10963,-1.93638 1.58615,-3.06647c0.80799,-1.91188 1.65032,-4.7489 2.38989,-7.53826l0.12236,-0.38592c0,0 2.34017,-5.13144 8.82217,-6.28639l0.0833,0.03735c-0.56096,4.92722 -1.61101,12.1715 -3.29031,17.19927c-1.88366,5.63883 -4.46174,9.8335 -6.75365,12.75789z" fill="#929497"/></g><g><path d="M265.09659,144.44132c3.19352,15.50144 -10.97419,31.51994 -31.64447,35.77833c-20.67029,4.2584 -40.01575,-4.85589 -43.20927,-20.35732c-3.19352,-15.50144 10.97418,-31.51995 31.64448,-35.77833c20.67029,-4.2584 40.01574,4.85589 43.20927,20.35733z" fill="#e6e7e8" stroke="#000000" stroke-width="1.2" stroke-linecap="butt"/><path d="M208.48406,181.55402l2.42977,2.46687l2.93861,1.5005l-1.76764,0.74705l-4.39874,-0.24247l-4.15958,-1.53615l-1.98493,-2.27133l-5.01138,-1.74355l-3.80935,-1.79975l0.38513,2.34826c-6.30222,-8.85711 -16.01837,-17.65082 -14.85537,-31.14579c23.55458,-32.71051 68.22109,-44.73179 87.96378,-14.64836c0.26401,0.40228 0.51401,0.80517 0.75061,1.20864c0.20496,0.62283 0.36567,1.20826 0.46637,1.74395c1.13912,6.05958 1.43394,12.13413 2.0471,18.30431c0.04039,0.40652 0.01954,0.86741 -0.04005,1.35729l-0.70613,1.41931l-0.44482,-1.39613l-1.68508,5.55432l-4.0645,5.4494l-2.72172,2.04848l-0.4003,-4.23203l-1.02529,-5.7398l-1.39324,-4.4738l-1.08492,0.07471l0.15834,-1.52038l0.65144,-3.70482l-0.67247,-4.02719l-1.51461,-4.30002l-4.07799,-3.77192l-6.43176,-2.98947l-8.18618,-1.58659l-9.30805,-0.16526l2.49702,0.67578l4.05614,2.1399l2.51509,3.05247l-17.4686,-0.86449l-16.89485,-1.13147l-0.16589,3.00971l-1.65945,6.44169l-1.59688,5.98247l1.08789,5.28058l3.62185,4.60979l4.68493,2.903l-3.04891,1.22322l-2.71416,0.55916l0.70564,3.42525l2.4231,3.36898l2.63648,2.87869l2.84984,2.3884z" fill="#be1e2d" stroke="#8c8c8c" stroke-width="0" stroke-linecap="butt"/><path d="M200.63466,138.35341c0.00457,8.05853 -4.03123,12.8771 -3.17704,16.98427c1.75822,8.454 9.42411,10.8999 9.42411,10.8999c0,0 -4.86045,3.52778 -11.41743,0.85254" fill="none" stroke="#000000" stroke-width="1.2" stroke-linecap="round"/><path d="M189.80579,159.49218c-0.93405,-1.47509 -1.87053,-3.18793 -2.79944,-5.1724" fill="none" stroke="#000000" stroke-width="1.2" stroke-linecap="round"/><path d="M193.99613,137.02588c15.89328,2.99364 41.46218,2.87297 41.46218,2.87297c0,0 -3.23202,-3.9413 -9.15397,-5.40694c0,0 36.05251,-3.37038 28.90719,22.42315c0,0 3.30726,-2.34025 5.25547,-6.32371" fill="none" stroke="#000000" stroke-width="1.2" stroke-linecap="round"/><path d="M261.22916,141.40683c0.4743,1.74133 0.7233,2.54582 0.54621,4.04748" fill="none" stroke="#000000" stroke-width="1.2" stroke-linecap="round"/><path d="M267.46585,158.67104c-0.89614,6.93075 -8.21572,12.15613 -8.21572,12.15613c0,0 -0.45318,-9.74601 -3.00785,-14.60008" fill="none" stroke="#000000" stroke-width="1.2" stroke-linecap="round"/><path d="M189.27308,159.30348c-3.20384,8.1846 3.90439,21.39109 3.90439,21.39109c0,0 -18.6201,-18.79835 -14.5672,-31.90701" fill="none" stroke="#000000" stroke-width="1.2" stroke-linecap="round"/><path d="M270.05465,156.10445c-1.04777,2.56934 -1.95409,4.02123 -1.95409,4.02123c0,0 -0.47557,-9.7193 -6.34679,-14.54636" fill="none" stroke="#000000" stroke-width="1.2" stroke-linecap="round"/><path d="M201.25386,168.1897c-0.09234,6.83144 8.7024,12.1586 8.7024,12.1586c0,0 -10.01155,3.99449 -17.70947,-2.21751" fill="none" stroke="#000000" stroke-width="1.2" stroke-linecap="round"/><path d="M207.75011,181.08501c1.65149,3.02162 6.22721,4.41295 6.22721,4.41295c0,0 -7.98408,3.14935 -13.36539,-3.73715" fill="none" stroke="#000000" stroke-width="1.2" stroke-linecap="round"/></g><path d="M266.95966,164.10719" fill="none" stroke="#000000" stroke-width="1.2" stroke-linecap="round"/><path d="M232.1181,178.08662c0.18616,-0.03129 0.36472,-0.05611 0.53588,-0.07466c0.28468,-0.08488 0.58693,-0.10032 0.88254,-0.0402c6.60686,0.179 -1.45926,12.4932 -3.95163,13.34562c-2.11354,0.72285 -6.53498,-0.79042 -5.55829,-4.07758c0.35252,-1.18645 6.99565,-8.71243 8.03626,-9.06834z" fill="#be1e2d" stroke="#000000" stroke-width="1.2" stroke-linecap="butt"/><g stroke="#000000" stroke-width="1.2"><path d="M225.8845,195.84184c-0.24031,-0.24582 -3.08912,-3.33312 -3.08912,-3.33312c0,0 -0.08816,5.21345 -3.14553,6.63703c-1.65543,0.7708 -5.43662,0.176 -7.38836,0.33979c0,0 -2.23395,0.18561 -2.68452,-2.22721c-0.45057,-2.41283 1.78338,-2.59843 1.78338,-2.59843c0.43272,-0.03562 0.98051,-0.01597 1.57689,0.02119c4.09346,-6.20435 3.34474,-16.43153 11.89323,-11.17606c3.50899,2.15727 4.30754,3.00894 4.30754,3.00894c0,0 1.88365,-10.40369 6.46477,-9.76888c14.95133,2.0718 11.34656,20.69326 5.66586,21.375c-8.61826,1.03427 -12.4583,0.71474 -15.38417,-2.27824z" fill="#be1e2d" stroke-linecap="butt"/><path d="M231.21808,191.77732c-0.91764,-3.31877 0.39202,-14.64408 5.49913,-11.1723c4.02016,2.73287 2.72443,8.63734 1.54476,11.67719c-1.32797,3.42197 -6.04932,3.0921 -7.04389,-0.50488z" fill="#e6e7e8" stroke-linecap="round"/></g><path d="M223.88586,183.45155c-0.25112,1.31891 -1.71642,1.69038 -1.71642,1.69038c0,0 -1.13909,2.52361 -4.72478,3.35905c-4.83045,1.12546 -5.98748,-5.37798 -1.33885,-7.8122c0,0 3.89446,-2.66275 5.91686,-2.00707c0.6785,0.21997 0.67685,1.3134 0.99093,2.02663c0.63003,1.4307 1.12338,1.42431 0.87226,2.74322z" fill="#be1e2d" stroke="#000000" stroke-width="1.2" stroke-linecap="butt"/><path d="M238.92734,194.75782c1.10831,5.7054 -2.36272,17.07223 -8.12957,13.7838c-0.88204,-0.50296 -1.18759,-1.58942 -1.78137,-2.38413c-0.07776,-2.54644 0.57866,-4.92743 0.4612,-7.47372c-0.10903,-2.36346 -1.34583,-5.1808 -0.71881,-7.54263c1.22082,-4.59846 9.1276,-4.35201 11.38599,-0.61421" fill="#be1e2d" stroke="#000000" stroke-width="1.2" stroke-linecap="butt"/><path d="M78.03571,341.96433v-323.92859h323.92859v323.92859z" fill="none" stroke="#000000" stroke-width="0" stroke-linecap="butt"/><path d="M246.21097,144.78862l-0.10012,-0.03287l0.19087,-0.58145c0.06646,-0.21843 0.27707,-0.36985 0.51439,-0.35269c0.23733,0.01717 0.42395,0.19733 0.45828,0.42305l0.1052,0.60286c0.22608,1.29557 0.01178,2.28095 -0.08751,3.51176c0.23117,0.08379 0.46021,0.17603 0.68657,0.27674c0.82171,-0.74055 1.4899,-2.39434 2.16988,-3.44951l-0.20424,-0.15858l0.32906,-0.4238c0.09875,-0.13107 0.25991,-0.21089 0.43576,-0.19818c0.23733,0.01717 0.42395,0.19733 0.45828,0.42305l0.09438,0.54085c1.1536,2.1824 -0.23395,4.67203 -1.57649,6.40109c0,0 -0.18921,0.24367 -0.46178,0.1996c-0.08795,0.01805 -0.1798,0.02447 -0.27376,0.01767c-0.10312,-0.00746 -0.20145,-0.03031 -0.29293,-0.06613l-1.0105,-0.36946c0,0 -2.67972,-1.0834 -5.48597,-0.31056c-2.94876,0.81209 -2.99197,2.633 -5.45831,4.08106l-1.54637,-0.80042c0,0 -0.13017,-0.3154 -0.05421,-0.65376c0.00263,-0.21217 0.06117,-0.37228 0.06117,-0.37228c1.53818,-4.1606 5.57386,-6.10106 9.56674,-5.71599c0.64867,-0.89937 0.96489,-1.98866 1.4816,-2.99207z" fill="#000000" stroke="#000000" stroke-width="0.5" stroke-linecap="butt"/><path d="M212.39108,155.61636c3.19464,-2.42365 7.52055,-2.68751 10.78029,0.42162c0,0 0.12488,0.11998 0.22702,0.31769c0.22356,0.27823 0.26201,0.64139 0.26201,0.64139l-0.93054,1.54969c-2.76717,-0.08472 -3.09614,-1.9987 -5.74132,-1.49139c-2.64518,0.50732 -5.28754,3.6066 -5.28754,3.6066l-0.6804,0.86857c-0.06047,0.08085 -0.13285,0.15308 -0.21653,0.21334c-0.07623,0.0549 -0.15692,0.09633 -0.23978,0.12482c-0.2097,0.18215 -0.48442,0.05125 -0.48442,0.05125c-1.94932,-0.92882 -4.29484,-2.54801 -4.34714,-5.19145l-0.17489,-0.5562c-0.07727,-0.22951 -0.00431,-0.49493 0.18826,-0.63362c0.14268,-0.10276 0.31654,-0.11112 0.46175,-0.03914l0.47779,0.22765l-0.098,0.25428c1.0718,0.63878 2.4155,1.8453 3.45898,2.11568c0.14396,-0.2114 0.29418,-0.41624 0.45017,-0.61426c-0.66353,-1.1035 -1.30873,-1.91733 -1.72765,-3.24965l-0.19493,-0.61996c-0.07727,-0.22951 -0.00432,-0.49493 0.18826,-0.63362c0.19258,-0.13869 0.44195,-0.10541 0.60099,0.0652l0.43519,0.44695l-0.06918,0.08256c0.90938,0.67454 1.68969,1.53323 2.66164,2.042z" fill="#000000" stroke="#000000" stroke-width="0.5" stroke-linecap="butt"/><path d="M240.82466,160.06982c0,0 7.35374,14.83679 0.2963,18.06779c-7.05743,3.23101 -16.49416,-10.65216 -16.49416,-10.65216c0,0 0.21407,-1.22457 6.51328,-4.53758c6.04661,-3.18016 9.68458,-2.87804 9.68458,-2.87804z" fill="#706d6d" stroke="#000000" stroke-width="1.2" stroke-linecap="round"/><path d="M247.40767,156.15521c6.26823,-5.12902 10.86927,-4.67982 10.86927,-4.67982" fill="#e6e7e8" stroke="#000000" stroke-width="1.2" stroke-linecap="round"/><g stroke="#000000" stroke-width="1.2"><path d="M240.14779,179.72209c0.47153,-6.18856 1.48171,-12.24693 3.80675,-18.17993c0.06837,-1.09758 -1.69349,-1.82193 -1.70113,-3.35871c-0.01175,-2.3652 1.71643,-2.55665 3.03731,-3.76923c0.37465,-0.34394 -0.10061,-0.98411 -0.0864,-1.48042c0.0356,-1.24351 0.03013,-1.87929 1.16816,-2.75201c3.15879,-2.42239 7.59238,-0.14714 9.98789,1.72322c2.77686,5.0452 -1.12099,7.339 -2.785,11.91395c-1.2314,3.38558 -1.47332,6.92329 -2.21392,10.38641c-0.18822,2.65429 -0.14268,8.14836 -2.03338,10.29528c-1.11252,1.2633 -2.38072,1.64606 -3.63267,1.48876" fill="#be1e2d" stroke-linecap="butt"/><path d="M254.24393,155.29254c-2.01012,2.09688 -4.82148,0.41595 -4.82148,0.41595c0,0 -3.05287,-0.36978 -3.50526,-1.48043" fill="none" stroke-linecap="round"/><path d="M245.20734,156.11883c0,0 9.21029,-0.67294 5.72659,4.65134c-0.95936,1.46623 -3.82439,-1.40303 -3.82439,-1.40303l-2.40471,0.53009" fill="none" stroke-linecap="round"/></g></g></g></svg>