<svg version="1.1" xmlns="http://www.w3.org/2000/svg" xmlns:xlink="http://www.w3.org/1999/xlink" width="88.25388" height="111.70344" viewBox="0,0,88.25388,111.70344"><g transform="translate(-191.21221,-141.41393)"><g data-paper-data="{&quot;isPaintingLayer&quot;:true}" stroke-miterlimit="10" stroke-dasharray="" stroke-dashoffset="0" style="mix-blend-mode: normal"><path d="M226.14054,229.53417c0,-7.85536 6.36803,-14.2234 14.2234,-14.2234c7.85536,0 14.2234,6.36803 14.2234,14.2234c0,7.85536 -6.36803,14.2234 -14.2234,14.2234c-7.85536,0 -14.2234,-6.36803 -14.2234,-14.2234z" fill="#d5d5d5" fill-rule="nonzero" stroke="#001026" stroke-width="1.2" stroke-linecap="butt" stroke-linejoin="miter"/><path d="M194.69721,237.22228c0,-8.22195 6.66521,-14.88716 14.88716,-14.88716c8.22195,0 14.88716,6.66521 14.88716,14.88716c0,8.22195 -6.66521,14.88716 -14.88716,14.88716c-8.22195,0 -14.88716,-6.66521 -14.88716,-14.88716z" fill="#d5d5d5" fill-rule="nonzero" stroke="#001026" stroke-width="1.2" stroke-linecap="butt" stroke-linejoin="miter"/><path d="M243.67464,225.74383c0,0 9.43064,-7.62985 14.55222,-11.77345c5.72731,-4.63367 4.32677,-25.88217 4.32677,-25.88217l10.48717,2.71527c0,0 -0.69154,23.60067 -5.758,28.44567c-5.78767,5.53469 -18.59887,17.78587 -18.59887,17.78587z" fill="#2b2b2b" fill-rule="nonzero" stroke="#001026" stroke-width="1.2" stroke-linecap="butt" stroke-linejoin="miter"/><path d="M195.37998,223.63373l-0.78849,-4.75156c0,0 44.54056,-0.4483 57.22032,0.5058c6.07868,0.4574 14.96231,4.92568 14.96231,4.92568l-1.2276,7.16955c0,0 -25.32442,2.075 -37.30304,0.73497c-11.37947,-1.27301 -32.8635,-8.58443 -32.8635,-8.58443z" fill="#2b2b2b" fill-rule="nonzero" stroke="#001026" stroke-width="1.2" stroke-linecap="butt" stroke-linejoin="miter"/><path d="M194.59149,219.5058l0.98208,-51.95969c0,0 9.80035,-15.54997 16.94082,-15.54997c10.60422,0 39.52858,0 39.52858,0v67.50966z" fill="#2b2b2b" fill-rule="nonzero" stroke="#001026" stroke-width="1.2" stroke-linecap="butt" stroke-linejoin="miter"/><path d="M258.7347,242.41386c3.10672,0.07261 9.13093,0.47214 7.10311,6.20674c-1.90168,5.56506 -20.09844,5.06432 -20.58595,-0.82969c0.01156,-2.49364 4.74192,-11.22079 5.0512,-13.22953c0.57952,-3.44297 -13.06575,-0.88888 -18.35977,-4.81957c-2.44443,-1.81493 1.1106,-11.29183 1.10741,-12.12623c-0.01013,-2.64148 18.82444,5.373 28.16748,7.37908c-1.66841,4.42568 -2.9487,17.33647 -2.48346,17.4192z" fill="#ffab19" fill-rule="evenodd" stroke="#001026" stroke-width="1.2" stroke-linecap="round" stroke-linejoin="round"/><path d="M271.01372,210.61259c-2.43824,2.89007 -21.61134,7.84476 -27.65588,4.15385c-2.12532,-1.29776 -9.71336,-25.00188 -2.11119,-25.22962c7.60217,-0.22773 7.88913,7.48345 8.92479,12.11138c0.81616,3.91219 15.20586,1.73852 16.20703,1.77174c2.10854,-0.02546 2.90358,1.29077 3.75025,3.12365c0.57286,1.24015 1.89415,2.77443 0.88502,4.06903z" fill="#ffab19" fill-rule="evenodd" stroke="#001026" stroke-width="1.2" stroke-linecap="round" stroke-linejoin="round"/><g fill-rule="evenodd"><path d="M224.94462,218.28917c0.59075,1.00182 1.81078,3.18527 -3.21112,5.20145c-5.02191,2.01618 -13.04887,-2.09413 -13.92219,-2.65929c-3.45479,-2.08082 -7.6031,-4.76532 -11.19904,-9.2607c-10.49247,-12.98528 -1.34719,-27.35666 4.39381,-26.894c5.63184,0.39201 1.76546,10.43541 4.308,19.66998c1.06581,4.09712 3.66646,7.01914 5.93322,9.26044c3.28778,3.05691 13.06805,3.50049 13.69732,4.68212z" fill="#ffab19" stroke="#001026" stroke-width="1.2" stroke-linecap="round" stroke-linejoin="round"/><path d="M203.59366,191.92688c-0.16075,4.0778 0.53891,10.41608 0.53891,10.41608c0,0 -3.40334,-3.59634 -6.89678,-3.22405c-2.77419,0.2182 -3.89172,2.90243 -4.1679,3.80788c-0.50078,-2.33754 -0.97583,-5.43284 0.40506,-9.96008c1.3809,-4.52725 5.43963,-8.40578 8.04681,-7.64789c2.46589,0.97622 1.95207,2.96694 2.07389,6.60807z" fill="#ffffff" stroke="none" stroke-width="1" stroke-linecap="butt" stroke-linejoin="miter"/></g><g fill-rule="evenodd"><path d="M227.52499,228.72997c-16.03193,-3.72109 -10.37547,-12.82519 -10.62748,-20.45045c0.01421,-6.65248 1.89192,-6.49558 9.86032,-9.3865c4.38606,-1.85138 6.97034,-2.93347 9.50399,-4.63301c3.83643,-2.49011 6.57553,3.62589 7.30634,7.23354c0,0 1.00109,5.3882 0.82697,8.57272c-0.1428,2.28639 -1.57225,12.19472 -6.34358,16.80115c-3.31278,3.19831 -10.52659,1.86254 -10.52659,1.86254z" fill="#ffab19" stroke="#001026" stroke-width="1.2" stroke-linecap="round" stroke-linejoin="round"/><path d="M241.89791,219.03576c0,0 -2.63894,-0.34317 -5.61189,-0.96975c-3.66231,-0.69442 -7.109,-1.03354 -6.96827,-6.14235c0.40695,-4.13604 0.1205,-9.14766 7.53418,-8.9472c7.03308,0.10734 6.57958,4.43366 6.57958,4.43366c0.62858,6.9106 -1.5336,11.62562 -1.5336,11.62562z" fill="#ffffff" stroke="none" stroke-width="1" stroke-linecap="butt" stroke-linejoin="miter"/></g><path d="M255.29737,194.78146c0.37502,-4.62671 4.42973,-8.07341 9.05644,-7.6984c4.62671,0.37501 8.0734,4.42973 7.69839,9.05644c-0.37502,4.62671 -4.42972,8.07341 -9.05643,7.69839c-4.62671,-0.37501 -8.07341,-4.42972 -7.6984,-9.05644z" fill="#ffab19" fill-rule="nonzero" stroke="#001026" stroke-width="1.2" stroke-linecap="butt" stroke-linejoin="miter"/><path d="M250.20641,147.51231c0.33193,-0.1408 0.80466,0.05035 0.82862,0.46196l0.56721,10.99674c0,0 5.41558,5.80702 6.66954,9.40252c2.12267,5.99869 1.38506,10.43895 1.38506,10.43895c0,0 6.58636,3.38229 6.7067,9.20599c0.12033,5.82371 -6.20922,15.61844 -25.36932,15.76192c-19.1601,0.14348 -33.04999,-7.67262 -37.90885,-20.19306c-4.85886,-12.52044 8.67244,-23.80333 7.93428,-23.1287l1.2615,-17.97857c-0.02396,-0.41162 0.52306,-0.61352 0.87895,-0.34269l10.42198,10.01011c0,0 4.73746,-0.83453 9.39282,-0.15802c2.78842,0.32359 5.10951,0.96591 7.29518,1.78617z" fill="#ffab19" fill-rule="evenodd" stroke="#001026" stroke-width="1.2" stroke-linecap="butt" stroke-linejoin="miter"/><path d="M259.17412,179.21891c0,0 6.44556,3.05035 6.5659,8.87406c0.12033,5.82371 -6.50938,15.05284 -25.45438,15.13521c-24.7076,0.41779 -33.33265,-15.86773 -24.78027,-25.03873c8.57094,-9.26924 18.18047,1.80851 26.54573,2.77927c7.16758,0.84611 9.12389,-5.19564 17.12303,-1.74982z" fill="#ffffff" fill-rule="evenodd" stroke="none" stroke-width="1" stroke-linecap="butt" stroke-linejoin="miter"/><path d="M216.2966,165.24513c1.23441,-6.52981 7.52853,-10.82257 14.05833,-9.58817c6.52981,1.23441 10.82256,7.52853 9.58815,14.05834c-1.23441,6.52981 -7.52852,10.82256 -14.05833,9.58816c-6.52981,-1.23441 -10.82254,-7.52852 -9.58815,-14.05833z" fill="#ffffff" fill-rule="nonzero" stroke="#001026" stroke-width="1.2" stroke-linecap="butt" stroke-linejoin="miter"/><path d="M242.25463,178.2705c2.06346,0.39008 4.18801,0.99525 4.15625,1.70165c-0.16179,1.39421 -2.15579,3.86685 -3.74652,3.66791c-1.80582,-0.13783 -5.46835,-3.37448 -5.17115,-4.94664c0.12464,-1.19769 2.79622,-0.79442 4.76142,-0.42291z" fill="#001026" fill-rule="evenodd" stroke="#001026" stroke-width="1.2" stroke-linecap="round" stroke-linejoin="round"/><path d="M198.3164,168.43779c0,0 7.93023,4.34873 10.79349,8.04491" fill="none" fill-rule="evenodd" stroke="#001026" stroke-width="1.2" stroke-linecap="round" stroke-linejoin="round"/><path d="M208.75453,179.97757c-4.54095,0.87168 -11.60783,-1.58373 -11.60783,-1.58373" fill="none" fill-rule="evenodd" stroke="#001026" stroke-width="1.2" stroke-linecap="round" stroke-linejoin="round"/><path d="M239.90786,169.958c-0.3629,1.91964 -3.64593,6.86922 -5.39106,6.53931c-1.74513,-0.3299 -1.25431,-5.80732 -0.89142,-7.72696c0.3629,-1.91964 2.05591,-3.22635 3.80104,-2.89644c1.71214,0.50441 2.84434,2.16444 2.48144,4.08408" fill="#001026" fill-rule="evenodd" stroke="none" stroke-width="1" stroke-linecap="butt" stroke-linejoin="miter"/><path d="M243.87561,160.71942c0,0 -2.11051,5.15111 -3.57699,2.97941c-2.78049,-4.11764 -12.12186,-18.63063 -12.12186,-18.63063" fill="none" fill-rule="nonzero" stroke="#001026" stroke-width="2.5" stroke-linecap="round" stroke-linejoin="miter"/><path d="M245.46665,169.29627c1.13472,-6.00247 7.34803,-9.86773 13.87782,-8.63333c6.5298,1.2344 10.90337,7.10104 9.76866,13.10349c-1.13472,6.00247 -7.34802,9.86773 -13.87783,8.63333c-6.52981,-1.23441 -10.90337,-7.10103 -9.76865,-13.10349z" fill="#ffffff" fill-rule="nonzero" stroke="#001026" stroke-width="1.2" stroke-linecap="butt" stroke-linejoin="miter"/><path d="M269.01759,174.32821c-0.33359,1.76461 -3.5515,6.36978 -5.29663,6.03987c-1.74514,-0.3299 -1.31942,-5.4629 -0.98583,-7.22752c0.33359,-1.76461 2.00262,-2.94448 3.74776,-2.61456c1.71481,0.49032 2.8683,2.0376 2.53471,3.80222" fill="#001026" fill-rule="evenodd" stroke="none" stroke-width="1" stroke-linecap="butt" stroke-linejoin="miter"/><path d="M247.12181,162.06172c0,0 3.53565,-4.1445 6.0502,-4.46148c4.23341,-0.53365 17.13121,-2.14498 17.13121,-2.14498" fill="none" fill-rule="nonzero" stroke="#001026" stroke-width="2.5" stroke-linecap="round" stroke-linejoin="miter"/><path d="M195.0134,208.4035c1.28777,-2.60282 21.71707,-9.58245 27.26541,-6.94616c5.08658,5.97478 -5.06064,5.75126 -8.70997,6.85577c-2.19091,0.68281 -4.38847,1.46615 -5.98808,1.85964c-0.13902,0.12724 6.4511,9.40133 5.92235,14.10423c-0.32836,2.92061 -7.63483,2.18256 -8.1563,2.14999c-6.71139,-0.41906 -9.98942,-16.9152 -10.33342,-18.02347z" fill="#ffab19" fill-rule="evenodd" stroke="#001026" stroke-width="1.2" stroke-linecap="round" stroke-linejoin="round"/><g fill-rule="nonzero" stroke="#001026" stroke-width="1.2" stroke-linecap="round" stroke-linejoin="miter"><path d="M264.43399,214.59592l-3.79236,-0.32583l-0.22196,-4.45162l-0.96706,-2.18312l2.90261,-3.7492z" fill="#ffab19"/><path d="M274.06667,201.2425l2.20682,13.27801l-5.66767,3.37214l-6.36913,-0.36899l-1.53193,-3.18481l0.2912,-1.04437l-1.0439,-3.72406l0.09438,-1.54948l-1.06097,-4.0665l4.58062,-4.51943z" fill="#ffab19"/><path d="M265.67663,205.09368l-1.93507,2.49946" fill="none"/><path d="M267.11416,209.82796l-2.77407,2.88458" fill="none"/></g><path d="M250.28883,196.98007c-4.82019,0.25031 -8.85963,-2.08667 -9.02233,-5.21979c-0.1627,-3.13312 3.61293,-5.87595 8.43312,-6.12626c4.82019,-0.25031 8.85963,2.08666 9.02233,5.21979c0.1627,3.13312 -3.61293,5.87595 -8.43312,6.12626z" fill="#ffffff" fill-rule="nonzero" stroke="#001026" stroke-width="1.2" stroke-linecap="butt" stroke-linejoin="miter"/><path d="M266.84914,187.76656c3.45664,-3.14828 12.01695,-6.06737 12.01695,-6.06737" data-paper-data="{&quot;index&quot;:null}" fill="none" fill-rule="evenodd" stroke="#001026" stroke-width="1.2" stroke-linecap="round" stroke-linejoin="round"/><path d="M278.30494,191.70799c0,0 -7.38401,1.2026 -11.7072,-0.43755" data-paper-data="{&quot;index&quot;:null}" fill="none" fill-rule="evenodd" stroke="#001026" stroke-width="1.2" stroke-linecap="round" stroke-linejoin="round"/><path d="M226.87647,221.00927c0,7.61144 -2.91687,13.78173 -6.51502,13.78173c-3.59815,0 -6.51502,-6.1703 -6.51502,-13.78173c0,-7.61144 2.91687,-13.78173 6.51502,-13.78173c3.59815,0 6.51502,6.17029 6.51502,13.78173z" fill="#ffab19" fill-rule="nonzero" stroke="#001026" stroke-width="1.2" stroke-linecap="butt" stroke-linejoin="miter"/><path d="M240.82063,237.6601c0,3.55118 -9.13169,6.42996 -20.39619,6.42996c-11.26451,0 -20.39619,-2.87878 -20.39619,-6.42996c0,-3.55118 9.13169,-6.42997 20.39619,-6.42997c11.26451,0 20.39619,2.87879 20.39619,6.42997z" fill="#ffab19" fill-rule="nonzero" stroke="#001026" stroke-width="1.2" stroke-linecap="butt" stroke-linejoin="miter"/></g></g></svg>