<svg version="1.1" xmlns="http://www.w3.org/2000/svg" xmlns:xlink="http://www.w3.org/1999/xlink" width="242.19674" height="242.19674" viewBox="0,0,242.19674,242.19674"><defs><radialGradient cx="240" cy="180" r="121.09837" gradientUnits="userSpaceOnUse" id="color-1"><stop offset="0.04255" stop-color="#ffffff" stop-opacity="0"/><stop offset="0.73286" stop-color="#ffffff"/><stop offset="1" stop-color="#4f1781" stop-opacity="0"/></radialGradient><radialGradient cx="237.54359" cy="177.66976" r="108.32048" gradientUnits="userSpaceOnUse" id="color-2"><stop offset="0.55792" stop-color="#ffffff" stop-opacity="0"/><stop offset="0.6974" stop-color="#ffffff"/><stop offset="0.98345" stop-color="#ffffff" stop-opacity="0"/></radialGradient></defs><g transform="translate(-118.90163,-58.90163)"><g stroke-miterlimit="10"><g fill-rule="nonzero" stroke="#000000" stroke-width="1.2" stroke-linejoin="miter"><path d="M225.16827,184.57205c2.09291,-1.89232 5.25312,-1.79602 7.0585,0.21508c0.4101,0.4568 0.71498,0.97311 0.91681,1.52049c1.45651,1.17022 -0.56057,4.89433 -0.74836,6.39889c-0.70611,5.65744 -2.60421,8.87943 -7.79021,12.95768c-2.11927,1.66657 -4.78854,2.31352 -7.0585,-0.21508c-4.30879,-4.79977 2.67216,-8.34776 4.51644,-11.72029c0.98836,-1.80736 1.0537,-9.07326 3.10531,-9.15677z" fill="#ffab19" stroke-linecap="butt"/><g><path d="M211.771,204.06301c-0.58338,4.71863 -4.86822,8.2363 -9.57046,7.85688c-4.70223,-0.3794 -8.04124,-4.51219 -7.45785,-9.23083c0.58338,-4.71863 4.86822,-8.2363 9.57047,-7.85688c4.70223,0.3794 8.04123,4.51219 7.45785,9.23083z" fill="#5c5e5f" stroke-linecap="butt"/><g stroke-linecap="round"><path d="M211.89394,198.89548l3.95622,-2.78726l2.10806,1.033l4.42736,0.35723l0.04607,3.80051z" fill="#ffab19"/><path d="M207.21434,201.96953l4.8486,-4.44107l3.98118,1.18413l1.55367,-0.04723l3.6406,1.15666l1.06395,-0.25931l3.06636,1.62807l-0.10054,6.37741l-3.78338,5.5625l-13.09195,-2.60956z" fill="#ffab19"/><path d="M215.49229,200.39389l-2.63748,1.85818" fill="none"/><path d="M217.47486,203.8329l3.08367,-2.68508" fill="none"/></g><path d="M223.32786,203.78741l3.83201,0.99952l0.55692,3.84174l-2.76423,2.88343l-2.98059,-0.93083l-1.23805,-3.89669z" fill="#5c5e5f" stroke-linecap="round"/></g></g><g fill-rule="evenodd"><path d="M247.39165,202.86426c2.39389,-0.64435 5.2842,-1.61866 7.65793,-3.96192c5.44147,-5.22839 7.04522,-13.42563 10.86988,-11.55606c3.92464,1.86355 3.98011,14.96112 -8.17156,19.69397c-4.18309,1.65229 -7.98282,1.88135 -11.08379,1.96828c-0.79995,0.04822 -7.70777,-0.23538 -10.14795,-3.48852c-2.44019,-3.25313 -0.75097,-4.25503 0.04422,-4.703c0.894,-0.55392 7.43865,2.85179 10.83128,2.04722z" fill="#ffab19" stroke="#001026" stroke-width="1.2" stroke-linecap="round" stroke-linejoin="round"/><path d="M265.32185,187.58236c2.00698,0.47906 3.05675,4.61606 2.09836,8.17409c-0.9584,3.55802 -2.53692,5.45331 -3.8214,6.83083c0.19168,-0.7116 0.56554,-2.93429 -1.14976,-4.13099c-2.12003,-1.5723 -5.80908,-0.44986 -5.80908,-0.44986c0,0 3.05469,-3.98442 4.62253,-6.77913c1.5726,-2.39497 2.05476,-3.92415 4.05936,-3.64496z" fill="#ffffff" stroke="none" stroke-width="1" stroke-linecap="butt" stroke-linejoin="miter"/></g><g fill-rule="nonzero" stroke-linecap="round" stroke-linejoin="miter"><g><path d="M218.72327,227.17027l4.56396,-22.49542c0,0 0.22605,-4.45315 1.08188,-11.5098c0.41582,-3.42855 -0.19705,-9.83464 1.64352,-12.11038c2.83842,-3.50951 9.98776,-3.09312 9.98776,-3.09312c0,0 8.0591,0.99244 10.04348,6.27953c1.5789,4.20678 0.22705,7.88379 0.14591,12.29762c-0.07742,4.21124 1.15025,9.26093 1.15025,9.26093l9.16038,24.18257c0,0 4.13718,0.78099 5.15881,2.81193c1.02164,2.03095 0.2163,7.87339 0.2163,7.87339l-17.1149,0.28119l-6.06186,-5.34266l-0.84601,-6.28462c0,0 -3.37579,-25.86138 -3.90744,-20.65426c-0.23722,2.32346 -0.83613,18.51388 -0.83613,18.51388l0.66395,8.42848l-17.67883,1.60484l-3.7141,-0.76474c0,0 -3.73828,-4.0619 -1.78663,-6.91698c1.95164,-2.85507 8.12969,-2.36239 8.12969,-2.36239z" fill="#ffab19" stroke="#001026" stroke-width="1.2"/><path d="M236.26517,208.23689c0,0 -3.25005,-0.13731 -4.76258,-1.51935" fill="none" stroke="#001026" stroke-width="1.2"/><path d="M232.72245,201.31218c-4.13417,-0.65398 -4.4313,-4.90464 -4.53948,-8.97955c-0.12134,-4.57068 0.06036,-9.42706 4.69913,-8.82045c5.08888,0.66547 5.83895,5.43964 5.89414,10.44496c0,0 -0.09609,8.29748 -6.05379,7.35504z" fill="#ffffff" stroke="#000000" stroke-width="0"/></g><path d="M244.40251,232.51218c0,0 1.18521,-2.71583 11.85,-2.6" fill="none" stroke="#001026" stroke-width="1.2"/></g><path d="M254.98211,188.91693c3.35747,-1.18635 7.76266,-3.28496 9.13124,1.71774c1.23457,6.64649 -9.80846,8.08234 -13.44432,7.90762c-3.22491,-0.14122 -4.28593,-3.24514 -5.19098,-5.87399c-1.55801,-5.06681 -3.05624,-9.3744 -0.35317,-12.68248c3.3078,-4.15913 5.9427,0.53311 6.84632,3.4782c0.56112,1.77346 1.21696,3.57898 1.52741,4.84532c0.37744,0.44445 0.91373,0.7315 1.48351,0.60761z" fill="#ffab19" fill-rule="evenodd" stroke="#001026" stroke-width="1.2" stroke-linecap="round" stroke-linejoin="round"/><g><g><g><path d="M212.75061,141.41473c0,0 0.53847,-30.44951 1.56377,-30.33898c1.38128,0.14888 23.33784,15.55261 23.33784,15.55261" fill="#ffab19" fill-rule="nonzero" stroke="#001026" stroke-width="1.2" stroke-linecap="round" stroke-linejoin="miter"/><path d="M264.33384,149.97306l10.66415,16.8923l-3.24173,5.37957l-28.86854,-3.8049z" fill="#9b7f41" fill-rule="nonzero" stroke="#001026" stroke-width="1.2" stroke-linecap="round" stroke-linejoin="miter"/><path d="M201.30731,160.59594c0,0 -6.88523,-0.04345 -11.40867,-3.96527" fill="none" fill-rule="evenodd" stroke="#001026" stroke-width="1.2" stroke-linecap="round" stroke-linejoin="round"/><path d="M200.97054,166.75007c0,0 -3.71436,2.01369 -9.74214,1.54564" fill="none" fill-rule="evenodd" stroke="#001026" stroke-width="1.2" stroke-linecap="round" stroke-linejoin="round"/><path d="M229.69245,132.8214c10.81039,-1.62409 38.84094,8.80975 30.40054,36.461c-0.11004,0.3605 -0.2953,0.68871 -0.47877,1.01578c-6.70054,11.94448 -21.09926,17.38875 -39.10399,13.69025c-18.00473,-3.69851 -22.29555,-14.92036 -21.19229,-20.87275c1.10327,-5.95239 7.87584,-8.2016 7.87584,-8.2016c0,0 0.06076,-4.6921 3.07792,-10.45287c0,0 3.62649,-9.26695 19.42077,-11.63979z" fill="#ffab19" fill-rule="evenodd" stroke="#001026" stroke-width="1.2" stroke-linecap="butt" stroke-linejoin="miter"/><path d="M223.29855,160.29746c8.0365,0.55457 18.96203,-9.0293 25.45127,2.06888c6.48847,10.99395 -4.396,26.10307 -27.57415,21.09492c-17.81272,-3.59594 -22.48214,-14.29317 -21.37888,-20.24556c1.10327,-5.95239 7.68691,-7.88715 7.68691,-7.88715c8.11276,-2.05254 8.9265,4.50848 15.81483,4.96892z" fill="#ffffff" fill-rule="evenodd" stroke="none" stroke-width="1" stroke-linecap="butt" stroke-linejoin="miter"/><path d="M228.06934,158.89998c0.0124,1.668 -3.98417,4.30973 -5.70684,4.11643c-1.53066,-0.09074 -2.9866,-2.99708 -2.90183,-4.45742c0.0902,-0.7306 2.19224,-0.95767 4.2002,-0.97541c1.91234,-0.01689 4.49479,0.06456 4.40847,1.31641z" fill="#001026" fill-rule="evenodd" stroke="#001026" stroke-width="1.2" stroke-linecap="round" stroke-linejoin="round"/><path d="M257.53426,159.44481c-3.62534,4.90717 -10.33451,6.59445 -10.33451,6.59445" fill="none" fill-rule="evenodd" stroke="#001026" stroke-width="1.2" stroke-linecap="round" stroke-linejoin="round"/><path d="M258.58118,171.14404c-5.78722,1.89672 -9.81601,0.81932 -9.81601,0.81932" fill="none" fill-rule="evenodd" stroke="#001026" stroke-width="1.2" stroke-linecap="round" stroke-linejoin="round"/><path d="M253.67465,147.35766l-42.5589,-5.53145l3.37413,-23.48435l46.7985,7.05713l9.25835,20.09436l-8.28911,15.52687z" fill="#c58600" fill-rule="nonzero" stroke="#001026" stroke-width="1.2" stroke-linecap="round" stroke-linejoin="miter"/><path d="M253.7026,147.15142l7.36866,-21.57659" fill="none" fill-rule="nonzero" stroke="#001026" stroke-width="0.75" stroke-linecap="round" stroke-linejoin="miter"/><path d="M265.20477,133.84736l-3.99575,-8.22907c0,0 13.31449,-4.31039 14.26289,-3.8076c1.06281,0.56345 -12.89663,28.30078 -12.89663,28.30078z" fill="#ffab19" fill-rule="nonzero" stroke="#001026" stroke-width="1.2" stroke-linecap="round" stroke-linejoin="miter"/></g><g><g fill-rule="evenodd"><path d="M222.04109,140.38774c2.69123,1.85285 2.63512,7.17045 -0.10293,11.8862c-2.83368,4.7166 -7.2158,6.94469 -9.90703,5.09182c-2.69123,-1.85285 -2.63511,-7.17045 0.10294,-11.8862c2.73805,-4.71575 7.21503,-7.04893 9.90703,-5.09182z" fill="#ffffff" stroke="#001026" stroke-width="1.2" stroke-linecap="round" stroke-linejoin="round"/><path d="M215.5065,151.07851c-0.00852,-1.14675 0.74945,-2.09176 1.70563,-2.1002c0.95618,-0.00845 1.72809,0.92304 1.7366,2.0698c0.00852,1.14675 -0.74945,2.09176 -1.70562,2.1002c-0.95618,0.00845 -1.72809,-0.92304 -1.7366,-2.0698" fill="#001026" stroke="none" stroke-width="1" stroke-linecap="butt" stroke-linejoin="miter"/></g><g fill-rule="evenodd"><path d="M244.98333,144.67421c2.98118,2.26732 2.83409,8.21126 -0.09597,12.82447c-1.18955,1.93569 -2.61898,3.32262 -4.11174,4.13612c-2.08811,-0.0436 -4.17734,-0.08427 -6.2693,-0.12498c-2.42549,-2.07853 -2.58223,-7.54985 0.18519,-12.05313c2.83444,-4.61233 7.30987,-7.15404 10.29183,-4.78246z" fill="#ffffff" stroke="#001026" stroke-width="1.2" stroke-linecap="round" stroke-linejoin="round"/><path d="M238.10262,155.1518c-0.00852,-1.14675 0.75023,-1.98752 1.70563,-2.10021c0.95618,-0.00845 1.72808,0.92305 1.7366,2.06981c0.00852,1.14675 -0.74945,2.09176 -1.70562,2.1002c-0.95618,0.00845 -1.72809,-0.92305 -1.7366,-2.06981" fill="#001026" stroke="none" stroke-width="1" stroke-linecap="butt" stroke-linejoin="miter"/></g><g fill="#ffffff" fill-rule="nonzero" stroke="#001026" stroke-width="1.2" stroke-linecap="round" stroke-linejoin="miter"><path d="M218.30105,170.49382c-0.06119,-0.0801 0.82331,0.60479 1.90181,0.14954c1.88235,-0.79456 4.91112,-2.98351 8.51929,-3.86162c6.14405,-1.49526 10.26122,-1.42404 12.33139,-1.82134c2.25909,-0.43357 2.19194,-1.26064 2.45827,-1.16361c0.94185,0.34313 1.55237,14.69166 -8.53642,17.58367c-10.0888,2.89202 -16.14973,-10.19989 -16.67433,-10.88663z"/></g></g></g><path d="M237.35996,161.6301c6.13086,-0.01378 8.63009,1.27625 8.63009,1.27625" fill="none" fill-rule="nonzero" stroke="#001026" stroke-width="1.2" stroke-linecap="round" stroke-linejoin="miter"/></g><g fill-rule="nonzero" stroke-linejoin="miter"><g fill="#ffab19" stroke="#000000" stroke-width="1.2" stroke-linecap="round"><path d="M263.4632,188.60909c0,0 0.13822,2.38926 -0.64635,2.90928c-6.73054,4.46097 -15.46601,5.68696 -20.79712,0.46593c-4.05083,-3.96719 -1.73643,-16.26522 -1.73643,-16.26522c0,0 -3.93818,-11.84218 1.61367,-12.94273c6.3108,-1.25102 5.48971,10.73041 5.48971,10.73041l4.30991,0.59255c0,0 -0.02542,-13.21663 5.91574,-12.54207c6.69651,0.76031 2.09287,13.75215 2.09287,13.75215l2.98958,1.99187c0,0 4.06075,0.43253 4.23279,2.44976c0.17204,2.01723 1.34157,6.30189 -3.35075,7.89249c-3.91187,1.32603 -5.52858,-4.19434 -5.52858,-4.19434"/><path d="M244.70372,193.98865c-4.82026,-3.226 -11.19165,2.32901 -12.78887,-5.81938c-1.54173,-7.86533 8.68225,-4.77538 8.68225,-4.77538"/></g><path d="M246.08832,169.42895c0.19807,2.48435 -0.7793,4.58589 -2.18305,4.69392c-1.40374,0.10803 -2.70229,-1.81836 -2.90037,-4.30272c-0.19807,-2.48435 0.77931,-4.58589 2.18305,-4.69392c1.40374,-0.10803 2.70229,1.81836 2.90037,4.30272z" fill="#ffffff" stroke="none" stroke-width="0" stroke-linecap="butt"/><path d="M259.3269,169.57821c-0.18335,2.48118 -1.56982,4.36493 -3.09677,4.20748c-1.52694,-0.15746 -2.61615,-2.29648 -2.43279,-4.77766c0.18335,-2.48118 1.56982,-4.36493 3.09677,-4.20747c1.52694,0.15746 2.61615,2.29648 2.43279,4.77765z" fill="#ffffff" stroke="none" stroke-width="0" stroke-linecap="butt"/><path d="M242.34733,185.91871c-0.16159,1.7196 -1.21583,1.78023 -3.78008,1.55965c-2.56425,-0.22058 -4.58905,-1.29449 -4.52252,-2.39865c0.06654,-1.10417 2.2115,-1.51987 4.77575,-1.29929c0,0 3.72554,0.02393 3.52686,2.13829z" fill="#ffffff" stroke="none" stroke-width="0" stroke-linecap="butt"/><path d="M251.00971,191.33882c-4.45941,-0.43584 -7.92874,-1.59253 -7.64463,-5.67443c0.12146,-1.74494 3.15667,-0.95121 4.34947,-2.10758c1.5975,-1.54871 1.68636,-4.74371 4.23944,-4.49419c2.08199,0.20349 1.40839,3.77998 2.75789,5.10439c0.82798,0.81259 2.19629,1.01165 3.26175,1.35946c0.46498,0.64799 0.98266,1.34989 1.53828,1.89854c-0.32866,4.00582 -4.07288,4.34672 -8.50221,3.91383z" fill="#ffffff" stroke="none" stroke-width="0" stroke-linecap="butt"/></g><path d="M118.90163,180c0,-66.88075 54.21762,-121.09837 121.09837,-121.09837c66.88075,0 121.09837,54.21762 121.09837,121.09837c0,66.88075 -54.21762,121.09837 -121.09837,121.09837c-66.88075,0 -121.09837,-54.21762 -121.09837,-121.09837z" fill="url(#color-1)" fill-rule="nonzero" stroke="none" stroke-width="NaN" stroke-linecap="butt" stroke-linejoin="miter"/><path d="M184.02753,128.86339c-0.04682,0.04175 -0.09476,0.08064 -0.14356,0.11687c0.1715,0.1354 0.34352,0.27023 0.51614,0.40442zM162.95398,105.34179l-0.00311,-0.02785l-0.00656,0.00246l-1.62791,-4.34106c-0.11573,-0.28795 -0.17941,-0.60242 -0.17941,-0.93176c0,-1.38071 1.11929,-2.5 2.5,-2.5c0.57191,0 1.09897,0.19204 1.52021,0.51515l3.97979,2.98486c1.03909,0.59114 2.00882,1.28946 2.84943,2.16586c2.67573,2.78962 5.16601,5.95506 7.57303,9.18281c-0.7212,-2.43509 -1.48555,-4.85604 -2.35512,-7.27176l-0.00386,-0.11836l-0.02768,0.00716l-1.10881,-4.2846c-0.06118,-0.21653 -0.09391,-0.445 -0.09391,-0.68112c0,-1.38071 1.11929,-2.5 2.5,-2.5c0.48518,0 0.93809,0.13821 1.32148,0.37741l2.71164,1.627l-0.03212,0.05353c0.13213,0.0651 0.26254,0.1342 0.39102,0.20778c1.12452,0.64394 1.6122,2.0301 2.45836,3.01153c2.08584,2.41927 4.29925,4.71448 6.52419,7.00109c-1.99016,-5.21127 -3.07539,-10.98551 -4.30367,-16.3052l0.00127,-0.0208l-0.00554,0.00119l-1.03483,-4.83743c-0.04344,-0.18459 -0.06642,-0.37707 -0.06642,-0.57492c0,-1.38071 1.11929,-2.5 2.5,-2.5c0.92242,0 1.72817,0.49957 2.16143,1.24291l2.56808,4.23731c3.30876,3.79947 5.60228,9.37195 7.8339,14.1916c0.13385,-0.70184 0.26817,-1.40496 0.25958,-2.11079c-0.03451,-2.83571 -0.71495,-5.62661 -1.06173,-8.44124l0.04139,-0.15472h-0.04618v-3.8456c0,-1.38071 1.11929,-2.5 2.5,-2.5c0.82831,0 1.56253,0.40283 2.01744,1.02326l1.63068,2.17421l-0.05101,0.03826c0.10111,0.11217 0.19802,0.2286 0.29016,0.34986c0.33829,0.44521 0.63616,1.07286 0.90252,1.81625c0.82156,-7.30761 2.17774,-14.45571 3.77434,-21.64549l0.03651,-0.06771l-0.01695,-0.00484l1.08359,-3.79246c0.28053,-1.07386 1.25722,-1.86632 2.41899,-1.86632c0.82831,0 1.56254,0.40283 2.01745,1.02327l1.90134,2.53511c0.33197,-1.63106 0.86054,-2.97764 1.71697,-3.36808c5.16665,-2.3554 6.33222,6.10655 6.70632,7.87222c0.78531,3.70647 1.32952,7.49801 1.79457,11.30583c0.20632,-1.43982 0.36136,-2.51765 0.36718,-2.54601c0.36415,-1.77483 0.54387,-3.6529 1.39119,-5.25437c1.092,-2.06394 1.98219,-5.34341 4.31038,-5.52191c4.11969,-0.31585 5.39474,7.33115 5.73525,10.01634c0.9417,-3.23894 2.13614,-6.58315 4.00366,-8.57179c1.17851,-1.25494 2.87412,-3.04845 4.51095,-2.515c4.53072,1.47659 5.20694,7.24871 6.08971,10.82768c0.54274,2.2004 0.85835,4.39474 1.01791,6.59013c2.05625,-5.10515 4.62927,-9.88884 7.48234,-14.73675l0.16937,-0.12854l-0.04335,-0.03612l2.73465,-3.28157c0.4585,-0.55817 1.15406,-0.9142 1.93277,-0.9142c1.33972,0 2.4333,1.05381 2.49706,2.37773l0.27646,4.97589c0.33858,1.73137 0.48959,3.49538 0.25679,5.34356c-0.02898,0.23011 -1.8012,5.9057 -2.64601,8.6046c2.84317,-3.01907 5.90009,-5.83341 9.15342,-8.33739c1.72899,-1.33074 8.09093,-6.00869 10.75031,-4.48796c5.95001,3.40243 2.39301,8.58587 0.81619,12.2447c-1.30062,3.01793 -2.8798,5.89435 -4.65436,8.65362c2.23306,-1.11642 4.60213,-2.06925 7.24356,-2.8629l0.06762,-0.00184l-0.00352,-0.01456l4.71762,-1.1411c0.20478,-0.05423 0.41987,-0.08312 0.64171,-0.08312c1.38071,0 2.5,1.11929 2.5,2.5c0,0.50054 -0.1471,0.96673 -0.40043,1.35768l-2.62956,4.20731l-0.16973,-0.10608c-1.26063,2.66571 -2.83328,5.0888 -5.30224,7.37149c-0.86822,0.80272 -1.75854,1.60305 -2.76885,2.21741c-0.57792,0.35143 -1.46543,0.14268 -1.92634,0.63771c-0.30279,0.32521 0.89417,0.06903 1.33304,-0.00048c1.34471,-0.21299 2.65796,-0.59391 3.99633,-0.84366c3.26261,-0.60882 6.475,-1.53641 9.77412,-1.89851c1.955,-0.21458 4.4577,-1.43558 5.89941,-0.09784c1.73279,1.60784 1.77904,4.59343 1.47143,6.93716c-0.25394,1.93477 -2.00739,3.3471 -3.03865,5.0037c-0.13285,0.21341 -0.26701,0.42564 -0.40241,0.63676c2.40164,-1.21043 4.9009,-2.19149 7.59664,-2.59051c1.54515,-0.22871 3.44641,-1.14588 4.6821,-0.19042c3.42911,2.65147 1.1018,7.50175 -0.35392,9.97894c-0.00482,0.0082 -0.00965,0.01639 -0.0145,0.02456c2.47886,-0.9112 5.78878,-1.69065 6.83597,2.24083c0.36149,1.35714 0.08284,2.65809 -0.59237,3.88349c1.88264,-1.14066 3.87526,-2.24496 5.29251,-2.47936c1.76687,-0.29223 4.32312,-0.86187 5.33741,0.61408c1.42561,2.07451 -0.24306,5.23432 -1.8715,7.65266c1.95344,-0.73295 7.92355,-3.00922 9.98927,-1.65104c4.56664,3.00248 1.42359,7.3068 0.13924,10.47021c-1.75959,4.33392 -4.28576,8.89002 -7.17493,12.98241c0.38517,0.19877 0.78465,0.48024 1.19837,0.85785c2.03829,1.86043 1.28821,5.20222 0.19696,8.0657c0.52191,0.27054 1.11734,0.64341 1.79653,1.13674c1.69806,1.23339 1.89025,3.98008 1.67912,6.06816c-0.15231,1.50638 -1.75112,2.47105 -2.66462,3.67849c-1.31522,1.73842 -2.47336,3.62434 -4.03001,5.15036c-0.51798,0.50779 -1.44054,0.56645 -1.82904,1.17901c-0.55162,0.86977 0.07639,4.00779 0.2713,4.6202c0.77997,2.45071 1.88468,4.8346 2.25232,7.3797l0.52834,2.64177c0.03842,0.17418 0.05867,0.35518 0.05867,0.5409c0,1.38071 -1.11929,2.5 -2.5,2.5c-0.69036,0 -1.31536,-0.27982 -1.76777,-0.73223l-2.19751,-2.19751l0.16698,-0.16698c-2.27905,-1.43676 -4.40613,-2.99373 -6.72405,-4.77152c-0.74156,-0.56876 -0.15107,1.8642 -0.16894,2.79859c-0.02865,1.49785 -0.17725,3.00575 -0.00864,4.49435c0.3591,3.17041 1.39559,6.22677 2.08804,9.34152l1.07951,3.27911c0.093,0.26174 0.14362,0.54355 0.14362,0.83719c0,1.38071 -1.11929,2.5 -2.5,2.5c-0.88154,0 -1.65651,-0.45627 -2.10164,-1.14553l-2.75197,-4.128l0.30083,-0.20055c-0.43397,-0.49397 -0.83722,-0.99713 -1.23219,-1.5378c1.03539,4.74401 2.18256,9.46068 3.35996,14.1735l1.42578,4.68202c0.08136,0.24657 0.12538,0.51012 0.12538,0.78395c0,1.38071 -1.11929,2.5 -2.5,2.5c-1.06565,0 -1.97557,-0.66675 -2.33535,-1.60584l-0.99163,-2.42005c-0.81624,-1.07833 -1.00621,-2.51318 -1.59619,-3.73014c-0.79326,-1.63626 -1.63802,-3.24963 -2.5194,-4.84355c0.19205,1.25314 0.35971,2.54152 0.59704,3.86326c0.79231,4.41249 2.01906,8.69509 3.1487,13.03282l-0.05867,0.26236l0.08498,-0.00422l0.201,4.0447c0.00267,0.04733 0.00402,0.095 0.00402,0.143c0,1.38071 -1.11929,2.5 -2.5,2.5c-0.91602,0 -1.71697,-0.49265 -2.15235,-1.22746l-2.5973,-4.22058c-1.87853,-2.14571 -2.79771,-5.48927 -3.7418,-7.99765c-0.05702,-0.15151 -0.11408,-0.303 -0.17117,-0.45448c0.51606,5.54834 0.72509,10.99155 0.71783,16.63821l-0.08061,0.17252l0.06066,0.00892l-0.5439,3.69719c-0.16005,1.22634 -1.20886,2.17331 -2.47885,2.17331c-1.12459,0 -2.07575,-0.74255 -2.38993,-1.7641l-1.08054,-3.24155l0.01198,-0.00399c-0.01177,-0.02291 -0.02345,-0.04587 -0.03504,-0.06889c-1.75523,-3.48588 -2.5018,-9.30336 -3.58013,-13.07912c-0.98134,-3.43618 -2.11085,-6.81132 -3.28787,-10.17356c0.01507,1.06763 0.02056,2.15095 0.06173,3.25455c0.31714,8.50091 0.72315,16.97119 0.70872,25.47888l-0.0655,0.14836l0.05103,0.00638l-0.54525,4.36211c-0.13791,1.25028 -1.19778,2.22282 -2.48481,2.22282c-1.24306,0 -2.27422,-0.90723 -2.46747,-2.09568l-0.88662,-4.87646l0.01113,-0.00202c-0.00763,-0.02243 -0.01521,-0.04489 -0.02274,-0.06736c-0.9213,-2.751 -1.23614,-5.96705 -1.34824,-9.24362c-1.39303,5.93823 -2.85622,11.84378 -4.4122,17.74354l-0.01454,0.02244l0.00764,0.00218l-1.08355,3.7925c-0.28052,1.07388 -1.25721,1.86635 -2.419,1.86635c-1.27327,0 -2.32422,-0.95187 -2.48007,-2.18283l-0.70191,-4.91336c-0.43705,-1.4223 -0.67638,-4.18925 -0.82802,-6.6119c-0.8045,2.97422 -1.61546,5.94278 -2.44724,8.90901c-0.88888,4.27357 -1.90572,8.51633 -3.09829,12.65999c-0.20653,1.20579 -0.48949,2.37118 -1.02804,3.40509c-0.09088,0.28701 -0.1827,0.57344 -0.27546,0.85926l-0.00325,0.00386l0.00179,0.00059l-1.03082,3.12859c-0.31161,1.02577 -1.26484,1.77229 -2.39244,1.77229c-1.38071,0 -2.5,-1.11929 -2.5,-2.5c0,-0.18574 0.02026,-0.36675 0.05868,-0.54094l0.53928,-2.69625l0.01932,0.00386c-0.0001,-0.03119 0.00002,-0.06241 0.00036,-0.09365c0.01854,-1.6972 0.90713,-3.27115 1.36119,-4.90659c0.83963,-3.02422 1.8055,-6.00896 2.74062,-9.00226c0.53897,-2.4403 1.03364,-4.89358 1.50145,-7.34334c-1.08394,1.65579 -2.16972,3.30977 -3.4775,4.78826c-3.35414,3.79196 -7.52342,7.16359 -11.20013,10.64502l-0.20435,0.06626l0.03813,0.05641l-3.38124,2.28579c-0.40476,0.28206 -0.89688,0.44745 -1.42763,0.44745c-1.38071,0 -2.5,-1.11929 -2.5,-2.5c0,-0.48518 0.13821,-0.93807 0.3774,-1.32147l2.55133,-4.25224c0.02599,-0.0646 0.05245,-0.12905 0.07939,-0.19335c-1.73349,1.27494 -3.52493,2.49497 -5.3872,3.65734l-0.13967,0.02266l0.01914,0.03963l-4.30491,2.07874c-0.34026,0.1734 -0.72551,0.27118 -1.13359,0.27118c-1.38071,0 -2.5,-1.11929 -2.5,-2.5c0,-0.08674 0.00442,-0.17246 0.01304,-0.25692c-2.53649,1.96792 -5.05159,3.96874 -7.50874,6.07099l-0.1071,0.03922l0.01904,0.02665l-3.82197,2.72996c-0.41378,0.3034 -0.92435,0.48257 -1.47676,0.48257c-1.38071,0 -2.5,-1.11929 -2.5,-2.5c0,-0.50054 0.1471,-0.96673 0.40044,-1.35769l2.62958,-4.2073l0.03203,0.02002c0.04063,-0.08145 0.08225,-0.16248 0.12492,-0.24307c1.35276,-2.55513 3.84169,-4.28525 5.97471,-6.27881c-3.69652,2.38466 -7.52769,4.58026 -11.58521,6.60982l-3.68448,2.11078c-0.37457,0.22386 -0.81261,0.35251 -1.2807,0.35251c-1.38071,0 -2.5,-1.11929 -2.5,-2.5c0,-0.79811 0.374,-1.50888 0.95629,-1.9666l2.69667,-2.15735c0.23618,-0.20921 7.42318,-6.43032 7.45295,-6.45787c3.22689,-2.98569 6.25061,-6.1629 9.22109,-9.3935c-3.48716,1.56641 -7.56111,2.45923 -10.89574,4.04227c-8.74275,4.15042 -17.06339,9.32626 -25.55759,13.95273l-0.14355,0.02349l0.01367,0.03363l-4.57989,1.8611c-0.3045,0.132 -0.64042,0.20516 -0.99343,0.20516c-1.38071,0 -2.5,-1.11929 -2.5,-2.5c0,-0.48945 0.14065,-0.94605 0.38375,-1.33158l2.57314,-4.23989l0.00531,0.00322c0.00632,-0.01417 0.01266,-0.02834 0.01902,-0.0425c2.06248,-4.59263 6.54973,-7.92556 10.14158,-11.23153c2.8117,-2.58792 3.83262,-3.44872 6.52961,-6.26114c0.82489,-0.86019 3.17316,-3.39317 2.08671,-2.90326c-11.93707,5.38277 -23.31032,11.96738 -34.98289,17.95817l-0.01376,0.00198l0.00198,0.00395l-3.25129,1.62561c-0.3474,0.1829 -0.74311,0.28641 -1.163,0.28641c-1.38071,0 -2.5,-1.11929 -2.5,-2.5c0,-0.65414 0.25124,-1.24961 0.66248,-1.69517l3.37328,-3.67991c1.60104,-2.52754 4.06314,-4.39306 6.11371,-6.57181c4.00064,-4.25074 8.37349,-8.37458 12.07477,-12.88204c2.05329,-2.50052 3.86409,-5.19375 5.66899,-7.87906c0.85442,-1.27119 1.43333,-2.74032 2.41063,-3.91512c-6.03112,1.00456 -12.11876,1.47323 -17.93435,3.60808c-3.52807,1.29512 -7.03478,3.25769 -10.38059,5.13578c-0.50299,0.49641 -0.82527,0.81211 -0.83758,0.81828c-0.08368,0.04195 -0.16782,0.08269 -0.25241,0.12226l0.02422,0.03875l-4.2073,2.62958c-0.39096,0.25333 -0.85714,0.40044 -1.35769,0.40044c-1.38071,0 -2.5,-1.11929 -2.5,-2.5c0,-0.82353 0.39819,-1.55406 1.01255,-2.00955l3.29801,-2.49915l0.0409,0.05397l0.10359,-0.15562c0.65675,-0.3657 1.31308,-0.72617 1.96964,-1.08063c0.18231,-0.25755 0.37354,-0.50855 0.57242,-0.75421c-1.45478,0.91833 -2.93261,1.8254 -4.43753,2.7304l-0.00079,0.00022l0.00011,0.00019l-4.23048,2.54027c-0.38354,0.23946 -0.83669,0.37784 -1.32217,0.37784c-1.38071,0 -2.5,-1.11929 -2.5,-2.5c0,-0.57191 0.19204,-1.09897 0.51515,-1.5202l1.63295,-2.17726l0.05154,0.03865c0.04879,-0.09387 0.09982,-0.18677 0.1533,-0.27859c1.44632,-2.48324 4.5334,-3.54709 6.61786,-5.52531c3.45975,-3.28341 7.0937,-6.98577 10.15089,-10.64652c1.57899,-1.89071 2.97648,-3.92901 4.35358,-5.97147c0.63681,-0.9445 1.14574,-1.97518 1.82823,-2.88721c0.01266,-0.01692 0.03071,-0.03418 0.05265,-0.05143c-4.81646,2.13764 -9.91446,3.72681 -14.65025,6.01039c-6.45191,3.11109 -12.53673,6.93355 -18.48791,10.88751l-0.16202,0.02334l0.02523,0.05046l-3.2513,1.62563c-0.34741,0.1829 -0.74312,0.28642 -1.16301,0.28642c-1.38071,0 -2.5,-1.11929 -2.5,-2.5c0,-0.69036 0.27982,-1.31536 0.73223,-1.76777l3.53553,-3.53553l0.01358,0.01358c0.02527,-0.03313 0.0507,-0.06616 0.07628,-0.09909c2.77464,-3.57052 8.23187,-6.73489 11.77952,-9.54776c3.10135,-2.45901 6.23576,-4.82506 9.41632,-7.11881c-4.61847,1.29402 -9.21265,2.30495 -14.05259,3.12089l-0.21087,-0.08322v0.09213h-2.74687c-1.38071,0 -2.5,-1.11929 -2.5,-2.5c0,-1.16178 0.79248,-2.13848 1.86636,-2.419l3.79246,-1.08353l0.00428,0.01498c0.02701,-0.0127 0.05408,-0.02529 0.08122,-0.03778c1.54093,-0.70887 3.31928,-0.70015 4.97899,-1.04983c4.17792,-0.88025 8.57272,-1.46488 12.74908,-2.48692c2.906,-0.99509 5.70041,-2.43739 8.72113,-2.9478c0.2742,-0.11146 0.54807,-0.22353 0.82168,-0.33589c0.20723,-0.0851 0.47889,-0.1483 0.76516,-0.20877l1.59612,-0.59853c0.06487,-0.1023 0.08218,-0.22427 0.03537,-0.37226c-0.32152,-1.01653 -2.08669,-0.4937 -3.06207,-0.92423c-1.99653,-0.88127 -3.99743,-1.53384 -6.10155,-2.00637c-0.36812,0.92199 -1.26932,1.57344 -2.32268,1.57344c-0.18573,0 -0.36674,-0.02025 -0.54092,-0.05867l-2.69625,-0.53926l0.00897,-0.04486l-0.11019,0.02243c-0.39056,-0.11227 -8.86849,-2.52927 -9.3429,-2.74539l-2.59667,-0.51933c-1.15067,-0.20667 -2.02805,-1.20071 -2.05451,-2.40451c-1.95149,-0.55706 -3.9103,-1.06349 -5.86212,-1.49759l-0.1633,-0.12483l-0.02348,0.05929l-2.75612,-1.09143c-0.95375,-0.35232 -1.63372,-1.26967 -1.63372,-2.34584c0,-1.0731 0.67611,-1.98829 1.62559,-2.34282l2.6928,-1.07713l0.01946,0.04866c0.17452,-0.07672 0.35381,-0.14388 0.53868,-0.19989c1.79233,-0.543 3.73944,0.2257 5.60407,0.40029c3.57505,0.33474 7.13164,0.79242 10.67462,1.34761c-2.53798,-1.52273 -6.52425,-3.91451 -6.54141,-3.92482c-4.57158,-2.74514 -8.80845,-6.07253 -13.06529,-9.28315c-0.0488,-0.03681 -8.02582,-6.13687 -8.03529,-6.14675c-1.49535,-1.55995 -4.62514,-3.15179 -3.89189,-5.18449c0.87755,-2.43272 4.46448,-2.79186 6.98227,-3.38257c0.06582,-0.01544 9.67667,0.82174 10.18198,0.91411c1.46029,0.26695 2.90345,0.60602 4.34159,0.9696c-2.76595,-1.74859 -5.54673,-3.47168 -8.33059,-5.19542l-0.02831,-0.03342l-0.00691,0.01037l-3.26398,-2.176c-0.68925,-0.44514 -1.14551,-1.2201 -1.14551,-2.10163c0,-1.38071 1.11929,-2.5 2.5,-2.5c0.05669,0 0.11294,0.00189 0.16869,0.0056l4.96949,0.29232c6.08997,-0.58531 12.69814,1.51496 18.73197,2.12297c2.67626,0.26968 5.41359,-0.1251 8.08573,0.08364c-0.53941,-0.52245 -1.06009,-1.06887 -1.61161,-1.5748c-1.25653,-1.15264 -2.55206,-2.26603 -3.74669,-3.4827c-5.58724,-5.69032 -10.55972,-11.98663 -15.47141,-18.25069l-0.03619,-0.16119l-0.04872,0.02923l-1.62696,-2.71164c-0.23919,-0.38339 -0.3774,-0.83629 -0.3774,-1.32146c0,-1.38071 1.11929,-2.5 2.5,-2.5c0.50452,0 0.97414,0.14945 1.367,0.4065l4.19543,2.64975c1.88336,0.82098 3.66865,1.9299 5.40071,3.16722c0.44832,-0.426 1.05453,-0.68742 1.72179,-0.68742c0.29272,0 0.57369,0.05031 0.83473,0.14275l2.03772,0.66848c-1.84507,-3.97302 -3.28809,-8.19506 -4.70353,-11.73405zM190.36914,213.10058c-0.66156,0.93872 -1.66768,1.95449 -2.81176,2.97368c-3.63852,3.96423 -7.07327,8.10321 -10.71729,12.04542c3.75953,-1.3562 7.64952,-2.3801 11.77783,-2.9398c3.75581,-0.5092 9.33745,-2.05696 12.4399,1.80094c1.22789,1.52688 -3.62322,8.44487 -4.03102,9.05317c-5.15041,7.68275 -11.45779,14.1913 -17.77188,20.88904c5.93926,-3.2581 11.87496,-6.52128 18.08585,-9.22993c1.38775,-0.60522 9.9841,-4.21936 10.94154,-3.91727c7.41127,2.33839 2.43757,8.15129 0.36776,10.90191c-2.83539,3.76802 -7.23389,6.84875 -10.62991,10.09472c-1.27111,1.21495 -2.26508,2.49301 -3.25747,3.70476c8.7685,-4.91225 17.46211,-10.09233 26.72868,-13.96043c3.04528,-1.27117 6.40444,-2.89316 9.72573,-3.3671l4.76222,-1.32284c0.22931,-0.06932 0.47254,-0.10659 0.72448,-0.10659c1.38071,0 2.5,1.11929 2.5,2.5c0,0.52533 -0.16203,1.01281 -0.43884,1.4152l-2.17855,3.2678l-0.04366,-0.02911l-0.06345,0.17767c-1.80838,2.01194 -3.63478,3.99145 -5.49562,5.932c3.8446,-2.8986 7.50766,-6.12339 11.19741,-9.14937c1.29263,-1.06009 2.40531,-2.38894 3.87789,-3.18024c0.00453,-0.00243 0.00906,-0.00487 0.0136,-0.0073l-0.00177,-0.00222l3.88879,-3.11104c0.43024,-0.35028 0.97924,-0.56027 1.57729,-0.56027c1.38071,0 2.5,1.11929 2.5,2.5c0,0.69036 -0.27982,1.31536 -0.73223,1.76777l-2.71259,2.71259c-3.20891,3.56041 -6.4478,7.09119 -9.70694,10.6035c0.61181,-0.47993 1.22222,-0.96284 1.8307,-1.4497c0.27413,-0.21934 8.01352,-6.42245 8.12582,-6.46294c0.1203,-0.04338 0.24122,-0.08421 0.36271,-0.12267l-0.01627,-0.04225l4.59454,-1.76875c0.29333,-0.12084 0.6147,-0.18749 0.95163,-0.18749c1.01082,0 1.88153,0.59991 2.27551,1.46312c1.64189,-1.75003 3.22089,-3.56032 4.85104,-5.32168c1.07864,-1.16546 1.88721,-2.66096 3.23222,-3.50173c0.31702,-0.46905 0.63279,-0.93899 0.94754,-1.40962l1.72237,-2.58031c0.09843,-0.15221 0.21296,-0.29304 0.34117,-0.42009c0.22418,-1.29714 0.52525,-2.53425 0.95565,-3.6554c0.01474,-0.03839 0.02966,-0.07668 0.04477,-0.11489l-0.01801,-0.0045l1.08605,-4.34428c0.25264,-1.11331 1.24829,-1.94441 2.43804,-1.94441c1.25483,0 2.29373,0.92449 2.47274,2.12952l0.54265,3.2557l-0.04385,0.00731l0.06111,0.1147c0.373,5.52037 0.72105,11.04106 1.04825,16.56432c0.0329,0.55529 0.09427,1.11013 0.17157,1.66458c0.80992,-3.26317 1.59485,-6.53229 2.35884,-9.812c0.03863,-0.16584 2.30194,-9.89319 2.3216,-9.93138c0.03054,-0.05932 0.06155,-0.11834 0.093,-0.1771l-0.02495,-0.01021l1.87122,-4.57395c0.35465,-0.92729 1.2456,-1.58937 2.29342,-1.60681c-0.11309,-3.03426 -0.27428,-7.43946 -0.25871,-7.50077c0.02624,-0.10332 0.05401,-0.2061 0.08323,-0.30836l-0.03397,-0.00755l1.07394,-4.83287c0.22941,-1.14399 1.23964,-2.00575 2.45115,-2.00575c1.05134,0 1.9511,0.64896 2.32056,1.56815l1.62544,3.79267l-0.0201,0.00861l0.0501,0.06456c1.9894,5.58818 3.91239,11.14736 5.63903,16.79627c-0.15048,-1.88833 -0.33619,-3.78466 -0.5609,-5.7028c-0.11623,-0.99216 -1.1458,-9.01543 -1.11435,-9.17432c0.02607,-0.13168 0.05723,-0.26155 0.09295,-0.3898l-0.04607,-0.00921l0.54028,-2.70146c0.20986,-1.16847 1.23166,-2.05513 2.46054,-2.05513c0.998,0 1.85941,0.58478 2.26028,1.43038l1.62392,3.24775l-0.03206,0.01603l0.08337,0.0931c0.63853,1.65499 1.27641,3.31006 1.91082,4.96643c-0.1532,-0.79629 -0.3019,-1.59559 -0.44603,-2.39867c-0.30187,-1.68191 -0.92655,-3.33738 -0.90406,-5.04602c0.00056,-0.04232 0.00129,-0.08462 0.0022,-0.12691l-0.01508,0.00116l-0.38138,-4.95794c-0.00627,-0.07219 -0.00947,-0.14526 -0.00947,-0.21907c0,-1.38071 1.11929,-2.5 2.5,-2.5c0.70634,0 1.34427,0.29293 1.79892,0.76394l1.74253,1.80055l-0.07025,0.06799l0.2429,0.13029c0.02494,0.0397 0.04987,0.07941 0.07479,0.11912c-0.10762,-0.5266 -0.21284,-1.05367 -0.3154,-1.58124c-0.34924,-1.79654 -1.29222,-3.58204 -1.02911,-5.39319c0.02365,-0.16282 0.05568,-0.32304 0.09502,-0.48099l-0.04647,-0.00929l0.54028,-2.70146c0.20986,-1.16847 1.23166,-2.05513 2.46054,-2.05513c0.88451,0 1.66173,0.45935 2.10613,1.1525l1.45017,2.19005c-0.12275,-1.41475 -0.14191,-2.84874 -0.00691,-4.31601c0.15758,-1.71265 -0.03048,-3.66934 0.9712,-5.06741c3.4929,-4.87512 6.43187,-1.31112 9.83118,0.86729c0.23267,0.1491 0.47277,0.29148 0.71629,0.43106c-1.24891,-3.62537 -2.73052,-7.21383 -0.72308,-11.08673c0.5103,-0.9845 1.78893,-1.32612 2.56597,-2.11723c1.39867,-1.42398 2.35931,-3.22534 3.6612,-4.73831c0.26572,-0.30881 0.54391,-0.60649 0.82729,-0.8994l-2.28901,0.91561c-0.30123,0.12865 -0.63286,0.19987 -0.98112,0.19987c-1.38071,0 -2.5,-1.11929 -2.5,-2.5c0,-0.48518 0.13821,-0.93809 0.37741,-1.32148l1.5624,-2.60397c0.47793,-1.10229 0.88579,-2.23798 1.43907,-3.30437c0.41958,-0.80871 2.03077,-1.58165 1.47322,-2.30221c-0.5391,-0.69671 -0.81705,1.82569 -1.66923,2.04888c-0.03199,0.00838 -0.06401,0.01659 -0.09605,0.02464l0.00283,0.00849l-4.68807,1.56266c-0.2642,0.09498 -0.54901,0.14674 -0.84592,0.14674c-1.38071,0 -2.5,-1.11929 -2.5,-2.5c0,-0.79812 0.374,-1.50889 0.9563,-1.9666l2.61623,-2.09298c2.74879,-3.00057 4.63785,-6.61347 6.79306,-10.05602c0.85044,-1.35844 1.78969,-2.66489 2.55452,-4.07331c0.5052,-0.93031 0.80273,-1.95984 1.24425,-2.922c1.50866,-3.28762 3.25221,-4.58334 0.426,-3.55966c-1.45486,0.52697 -2.95477,0.9252 -4.40421,1.46691c-1.46747,0.54845 -2.94252,1.09513 -4.34086,1.80148c-1.06139,0.53615 -2.16099,1.13336 -3.27163,1.78041c-3.95666,5.01464 -8.34973,9.57917 -13.23273,13.85497l-0.0718,0.02517l0.01551,0.01994l-2.81207,2.18753c-0.42646,0.33834 -0.96592,0.54041 -1.55259,0.54041c-1.38071,0 -2.5,-1.11929 -2.5,-2.5c0,-0.49468 0.14368,-0.95581 0.39158,-1.34392l2.59979,-4.22461c0.50893,-1.18909 1.1554,-2.29746 2.0305,-3.22898c3.19839,-3.4046 7.364,-6.57021 11.7587,-9.15757c1.15451,-1.49183 2.27229,-3.0243 3.35708,-4.60129c0.36725,-0.53387 0.72199,-1.26276 1.09741,-1.98073c-0.40426,0.16622 -0.80384,0.34118 -1.18546,0.54775c-3.48695,1.88748 -7.75725,4.84882 -11.81232,5.48407c-0.03689,0.00578 -0.07379,0.01136 -0.11071,0.01676l0.00461,0.01612l-3.79008,1.08289c-0.23453,0.07283 -0.48385,0.11205 -0.74233,0.11205c-1.38071,0 -2.5,-1.11929 -2.5,-2.5c0,-0.704 0.29099,-1.34003 0.75926,-1.79438l1.82431,-1.77402l0.05218,0.05366l0.08604,-0.1784c2.34489,-1.6874 4.70734,-3.72307 7.13849,-5.46034c-1.19733,0.47452 -2.38092,1.22373 -3.66357,1.18308c-0.13414,-0.00425 -0.26761,-0.01299 -0.40046,-0.02574v0.05802h-2.74687c-1.38071,0 -2.5,-1.11929 -2.5,-2.5c0,-0.69036 0.27983,-1.31536 0.73224,-1.76778l2.13909,-2.13907c0.81577,-0.96296 1.74862,-1.83855 2.44149,-2.89321c0.47403,-0.72155 0.70277,-1.57717 1.06758,-2.36054c-1.66228,1.19692 -5.02626,1.5771 -6.70956,2.48064c-2.53656,1.36155 -5.92321,3.01579 -8.24215,4.78444c-0.78141,0.59598 -1.20607,1.63622 -2.07598,2.09346c-0.03422,0.01799 -0.0685,0.03583 -0.10284,0.05355l0.01745,0.02094l-3.29624,2.74687l-0.92482,-1.10979c-0.84494,0.28197 -1.69141,0.56055 -2.52169,0.87508l1.1658,-2.3661l-1.08751,-1.08751l3.21678,-3.21678c2.79838,-3.56887 5.50924,-7.07272 8.02799,-10.84017c0.76894,-1.15014 1.72953,-2.1812 2.3689,-3.4081c0.29114,-0.55867 0.93399,-1.56678 0.3727,-1.85282c-0.661,-0.33685 -1.25922,0.81999 -1.96774,1.03998c-2.24482,0.697 -7.55835,1.56716 -9.85227,1.91218c-1.95203,0.29359 -3.98924,1.40725 -5.86761,0.80035c-2.17412,-0.70246 -4.84838,-2.148 -5.25943,-4.3955c-0.36135,-1.97575 2.22824,-3.3591 3.5674,-4.85603c1.4485,-1.61915 3.53825,-2.62898 4.83067,-4.37525c0.6638,-0.8969 1.09311,-1.96542 1.67215,-2.91843c-4.11921,1.34279 -7.38927,2.97323 -11.04201,5.6741c-0.06213,0.04594 -3.72655,2.90024 -5.96642,4.64292c-0.90234,1.00475 -1.81466,1.99643 -2.73115,2.97672l-0.37183,0.06918l0.08089,0.13482l-2.71164,1.62698c-0.38339,0.2392 -0.83629,0.37741 -1.32147,0.37741c-1.38071,0 -2.5,-1.11929 -2.5,-2.5c0,-0.75529 0.33494,-1.43235 0.86438,-1.89075l3.75225,-3.28321l0.00828,0.00946c0.01553,-0.01877 0.0311,-0.03751 0.04673,-0.05621c0.54798,-0.6558 1.22378,-1.17928 1.93052,-1.6707c5.09316,-5.90404 9.61518,-12.12523 12.99182,-19.24112c0.57904,-1.22026 1.46076,-2.31538 1.83291,-3.61378c0.18932,-0.66053 0.44282,-1.83434 -0.20935,-2.05071c-0.72436,-0.24032 -1.20733,0.93479 -1.83181,1.37352c-2.54404,1.7873 -5.01942,3.68562 -7.34331,5.75108c-3.62715,3.22378 -7.08608,6.65938 -10.1337,10.45474c-1.09739,1.36663 -1.99382,2.73186 -2.91764,4.0279c-0.61544,1.71605 -1.24571,3.4299 -1.89072,5.14595l-0.0989,0.09704l0.04338,0.02169l-1.62388,3.24782c-0.40086,0.84562 -1.26228,1.43043 -2.2603,1.43043c-1.38071,0 -2.5,-1.11929 -2.5,-2.5c0,-0.18573 0.02025,-0.36672 0.05867,-0.5409l0.97044,-4.85229l0.06733,0.01347c0.02461,-0.17301 0.05459,-0.34563 0.0905,-0.51782c0.32215,-1.54439 1.63675,-2.66108 2.67615,-3.89433c1.30344,-3.66475 2.53916,-7.34113 3.70607,-11.07524c0.94996,-3.03986 2.48901,-5.94782 2.88805,-9.10755c0.09897,-0.78372 -0.05436,-1.57664 -0.18471,-2.36798c-3.08357,5.49518 -5.75018,10.95738 -7.57099,17.11413c-0.17846,0.60344 -2.11058,9.2007 -2.21251,9.38865c-0.02995,0.05523 -0.06065,0.10993 -0.09206,0.16414l0.02924,0.0117l-1.0771,2.6928c-0.35452,0.94948 -1.26971,1.6256 -2.34282,1.6256c-1.38071,0 -2.5,-1.11929 -2.5,-2.5v-2.74687h0.03921l-0.0373,-0.0976c0.74941,-9.66582 1.92404,-19.63175 -2.29098,-28.74799c-0.11049,-0.23896 0.20798,0.53459 0.11594,0.78124c-0.48424,1.29758 -1.28928,2.4571 -1.80424,3.7428c-0.52501,1.3108 -0.87117,2.68634 -1.30853,4.02893c-1.07631,3.30402 -1.09388,7.15284 -3.1893,9.92488c-0.09442,0.12491 -0.19328,0.24538 -0.29609,0.36186l0.03847,0.03077l-2.18308,2.72884c-0.45772,0.5823 -1.16848,0.95629 -1.9666,0.95629c-1.38071,0 -2.5,-1.11929 -2.5,-2.5c0,-0.01453 0.00012,-0.02904 0.00037,-0.04352l0.04845,-3.24429l0.032,0.00048l-0.02843,-0.10186c0.15924,-1.64468 0.40982,-3.28306 0.47773,-4.93404c0.1016,-2.47032 -0.38834,-4.92249 -0.71758,-7.38043c-0.35374,1.64436 -0.92895,3.28253 -0.98125,3.54652c-0.89882,4.5373 -0.40067,10.60629 -2.12688,14.87601c-0.02144,0.05304 -0.04334,0.10584 -0.06568,0.15842l0.02447,0.00699l-1.08355,3.79248c-0.28052,1.07387 -1.25721,1.86635 -2.419,1.86635c-1.25484,0 -2.29374,-0.92451 -2.47274,-2.12954l-0.54261,-3.2557l0.01441,-0.0024l-0.02105,-0.03963c-0.18027,-1.36629 -0.36052,-2.73259 -0.54074,-4.09889c0.17343,1.53626 0.3403,3.0744 0.50248,4.6151l0.54503,4.92883c0.01262,0.10181 0.01912,0.20552 0.01912,0.31075c0,1.38071 -1.11929,2.5 -2.5,2.5c-0.82301,0 -1.55313,-0.39769 -2.00869,-1.01139l-2.12882,-2.80616l0.05761,-0.0437c-0.14271,-0.17638 -0.27496,-0.36204 -0.39491,-0.55863c-0.98692,-1.61754 -0.43781,-3.76441 -0.63375,-5.6491c-0.65391,-6.28988 -0.70144,-12.56826 -0.41113,-18.87338c-0.13506,-0.79494 -0.31833,-1.57836 -0.5814,-2.34283c-0.26873,-0.78089 -1.1796,-1.20056 -1.57185,-1.92085c-1.21095,5.50322 -2.357,11.0044 -3.08491,16.60143c-0.51659,3.97218 -0.04917,8.91789 -1.39092,12.723l-0.70193,4.91336c-0.15585,1.23096 -1.2068,2.18282 -2.48007,2.18282c-1.21292,0 -2.2241,-0.86378 -2.45195,-2.00976l-0.01931,-0.08759l-0.45928,4.59996c-0.11183,1.27724 -1.1841,2.27909 -2.49037,2.27909c-0.87979,0 -1.65343,-0.45446 -2.09899,-1.14143l-2.7597,-4.1232l0.03292,-0.02203l-0.11646,-0.11173c-0.87182,-1.7396 -1.74416,-3.48451 -2.63128,-5.22271c0.05121,0.1854 0.10244,0.3709 0.15367,0.55652c0.48203,1.74639 1.50975,3.43413 1.42848,5.244c-0.00652,0.14516 -0.01645,0.2898 -0.0295,0.43396l0.03416,0.00263l-0.38179,4.96329c-0.08727,1.30154 -1.17067,2.33024 -2.49433,2.33024c-0.69036,0 -1.31536,-0.27982 -1.76777,-0.73223l-2.19751,-2.19751l0.00388,-0.00388l-0.01802,-0.01037c-2.29549,-2.37028 -4.62772,-4.70634 -6.85231,-7.14295c0.99936,3.19321 1.88657,6.40679 2.79991,9.65584c0.36907,1.31292 1.10172,2.5709 1.12207,3.93456c0.00051,0.03433 0.0008,0.06865 0.00086,0.10294l0.02098,-0.00419l0.53924,2.69625c0.03842,0.17418 0.05867,0.35518 0.05867,0.5409c0,1.38071 -1.11929,2.5 -2.5,2.5c-0.3128,0 -0.61219,-0.05745 -0.88818,-0.16237c-0.06407,0.254 -0.15217,0.47281 -0.25776,0.66119c0.76504,-0.03506 1.91422,0.1902 2.41893,1.70437c0.48061,1.44187 -0.20753,2.29934 -0.82099,2.75008l2.07273,1.48052c0.64913,0.45157 1.07402,1.20302 1.07402,2.0537c0,1.38071 -1.11929,2.5 -2.5,2.5c-0.43797,0 -0.84964,-0.11262 -1.20762,-0.31049l-3.64872,-1.92197l0.03492,-0.06629l-0.20657,-0.03302c-6.04318,-4.52091 -12.45227,-8.4907 -18.55744,-12.93777c-0.02324,-0.01693 -0.04653,-0.03381 -0.06986,-0.05063c3.54136,4.17727 7.2385,8.21003 11.25437,11.98092c1.66416,1.56264 7.48349,5.64777 5.12802,9.38817c-0.94032,1.49319 -9.1055,1.03014 -10.33995,0.98979c-4.91331,-0.16058 -9.65,-0.95379 -14.52156,-1.52727c-1.3171,-0.15505 -2.55399,-0.21545 -3.73382,-0.29465c3.88508,2.15763 7.88761,4.4254 10.87076,7.22423c0.00422,0.00396 0.00844,0.00793 0.01266,0.01189l0.00163,-0.00244l3.26398,2.176c0.68925,0.44514 1.14551,1.2201 1.14551,2.10163c0,1.38071 -1.11929,2.5 -2.5,2.5c-0.15969,0 -0.31588,-0.01497 -0.46725,-0.04359l-4.37298,-0.74569l0.00066,-0.00389l-0.01415,0.00155c-4.45363,-0.81154 -8.73731,-2.28176 -13.16618,-3.09302c-2.0871,-0.38231 -5.29826,-0.05929 -8.00569,-0.35414c0.92927,0.68879 1.77623,1.50612 2.69621,2.20938c2.0976,1.60348 4.19811,3.20356 6.3237,4.76974c4.77969,3.52178 9.46786,6.76923 14.55383,9.82091c2.82479,1.69493 6.39473,2.50688 8.50138,5.03953c0.10868,0.13066 0.20964,0.266 0.30391,0.40539l0.04158,-0.03119l1.63295,2.17728c0.32311,0.42124 0.51515,0.94829 0.51515,1.52019c0,1.38071 -1.11929,2.5 -2.5,2.5c-0.05558,0 -0.11074,-0.00181 -0.16542,-0.00539l-4.86389,-0.28045l0.00192,-0.03334l-0.14864,0.02053c-1.61641,-0.28543 -3.23191,-0.54535 -4.84877,-0.78495c1.00428,0.23533 1.93438,0.41448 2.84609,0.69148c2.74811,0.27046 5.48585,0.58001 8.2188,1.10601c4.40564,0.84793 4.93753,0.3011 7.94516,2.69072c1.82606,1.45084 5.14421,2.26442 5.27832,4.59282c0.03624,0.62928 -0.12019,1.21231 -0.40515,1.75827c0.11511,0.28729 0.17843,0.60091 0.17843,0.92933c0,0.99802 -0.58481,1.85944 -1.43043,2.2603l-3.15813,1.57903c-5.6062,3.60483 -11.0197,7.3584 -16.32048,11.29503c0.54531,-0.23336 1.09329,-0.46038 1.64401,-0.68063c0.21069,-0.08426 9.42127,-3.76577 9.50234,-3.7835c4.95614,-1.08369 9.31061,-2.70964 8.63168,4.56331c-0.15904,1.70364 -2.98169,5.38011 -4.23215,7.09384c-1.30801,1.79259 -2.69395,3.54959 -4.13961,5.26601c1.08013,-0.85132 2.15336,-1.72855 3.2221,-2.63692c2.15135,-1.82854 6.97187,-7.23706 9.50728,-8.39802l0.63849,-0.63849c0.01231,-0.01232 0.02463,-0.02465 0.03695,-0.03697h0.00001v0l2.81768,-2.81768l1.08626,1.08626l2.44927,-1.08626c-0.39776,0.79048 -0.75938,1.60251 -1.12099,2.41455l1.12099,1.12099v0l-2.84947,2.84948c-0.25263,0.25287 -0.50379,0.50703 -0.7536,0.76237zM336.22272,178.77112c-0.11893,0.07609 -0.24311,0.14504 -0.37188,0.20758l0.04781,0.11953c0.10782,-0.10925 0.21597,-0.21817 0.32407,-0.32711zM171.29645,110.47535c-0.55264,-0.72239 -1.10393,-1.35637 -1.64078,-1.94724c1.03667,2.44834 2.13429,4.8564 3.40644,7.25155c1.15845,2.18107 2.77286,5.77113 4.71375,7.5376c0.61953,0.56385 3.18264,0.93799 4.38285,1.1013l-0.28516,-0.47526c-3.46393,-4.53719 -7.10724,-8.93229 -10.57711,-13.46795z" fill="url(#color-2)" fill-rule="nonzero" stroke="none" stroke-width="0.5" stroke-linecap="butt" stroke-linejoin="miter"/></g></g></svg>