<svg version="1.1" xmlns="http://www.w3.org/2000/svg" xmlns:xlink="http://www.w3.org/1999/xlink" width="87.47468" height="87.47468" viewBox="0,0,87.47468,87.47468"><defs><radialGradient cx="239.99999" cy="180" r="43.73734" gradientUnits="userSpaceOnUse" id="color-1"><stop offset="0" stop-color="#ff6666"/><stop offset="1" stop-color="#ff6666" stop-opacity="0"/></radialGradient><radialGradient cx="240" cy="180" r="29.90938" gradientUnits="userSpaceOnUse" id="color-2"><stop offset="0" stop-color="#ffb4b4"/><stop offset="1" stop-color="#ffb4b4" stop-opacity="0"/></radialGradient></defs><g transform="translate(-196.26266,-136.26266)"><g stroke-width="0" stroke-miterlimit="10"><path d="M279.15083,183.18853l-36.95545,37.32136l-6.48158,-0.20908l-16.0994,-13.06771l-1.62039,-7.21336l5.85433,-3.34533l-16.0994,3.34533l-7.94516,-4.80891v-30.94431l7.94516,-4.80891l16.09941,3.34533l-5.85433,-3.34533l1.62039,-7.21337l16.0994,-13.0677l6.48158,-0.20908l36.95545,37.53044z" fill="#000000" stroke="#000000" stroke-linecap="round"/><path d="M196.26266,180c0,-24.15546 19.58188,-43.73734 43.73734,-43.73734c24.15546,0 43.73734,19.58188 43.73734,43.73734c0,24.15546 -19.58188,43.73734 -43.73734,43.73734c-24.15546,0 -43.73734,-19.58188 -43.73734,-43.73734z" fill="url(#color-1)" stroke="none" stroke-linecap="butt"/><path d="M277.37363,182.48287l-36.32821,36.06685l-4.70437,-0.26136l-14.89718,-12.54499l-1.04542,-4.18167l8.36333,-6.7952l-19.86291,3.3976l-6.53385,-3.9203v-28.74894l6.53385,-3.92031l19.86291,3.39761l-8.36333,-6.7952l1.04542,-4.18167l14.89718,-12.545l4.70437,-0.26136l36.32821,36.06685z" fill="#ffcdcd" stroke="#ffffff" stroke-linecap="round"/><path d="M210.09063,180c0,-16.51849 13.39089,-29.90938 29.90938,-29.90938c16.51849,0 29.90938,13.39089 29.90938,29.90938c0,16.51849 -13.39089,29.90938 -29.90938,29.90938c-16.51849,0 -29.90938,-13.39089 -29.90938,-29.90938z" fill="url(#color-2)" stroke="none" stroke-linecap="butt"/><path d="M275.06582,181.23823l-35.16221,35.37214l-2.2537,0.02347l-13.69803,-12.07747l-0.24164,-3.35023l14.29576,-9.98806l-28.71055,4.37517l-4.04763,-2.69131v-26.08363l4.04764,-2.69132l28.71054,4.37519l-14.29573,-9.98806l0.24163,-3.08887l13.69803,-12.58177l2.2537,0.02348l35.16219,35.61509z" fill="#ff5252" stroke="#ffffff" stroke-linecap="round"/></g></g></svg>