<svg version="1.1" xmlns="http://www.w3.org/2000/svg" xmlns:xlink="http://www.w3.org/1999/xlink" width="159.81676" height="159.81676" viewBox="0,0,159.81676,159.81676"><g transform="translate(-158.15445,-95.24869)"><g stroke-miterlimit="10"><path d="M172.37766,145.37268c-2.24511,1.43917 -5.64393,0.29594 -7.73134,-2.20896c-2.08741,-2.5049 -3.18501,-6.04367 -0.55224,-7.73134c2.63277,-1.68768 5.5279,0.48522 7.73134,3.12935c2.20345,2.64414 2.79735,5.37177 0.55224,6.81095z" fill="#ff0000" stroke="#ffe8e8" stroke-width="5" stroke-linecap="round"/><path d="M192.62643,147.58164c-1.22448,1.00185 -2.81428,0.49792 -3.86567,-0.73632c-1.05139,-1.23424 -1.68821,-3.15379 -0.36816,-4.23383c1.32005,-1.08004 3.21634,-0.49015 4.41791,0.9204c1.20157,1.41054 1.0404,3.04791 -0.18408,4.04975z" fill="#ff0000" stroke="#ffe8e8" stroke-width="5" stroke-linecap="round"/><path d="M184.71101,167.46222c-1.59156,1.23217 -3.74645,0.66291 -5.52239,-0.73632c-1.77594,-1.39922 -1.91016,-2.99846 -0.55224,-4.04975c1.35792,-1.0513 4.30666,-1.90613 6.25871,-0.36816c1.95204,1.53797 1.40748,3.92205 -0.18408,5.15423z" fill="#ff0000" stroke="#ffe8e8" stroke-width="5" stroke-linecap="round"/><path d="M189.68116,133.59159c-1.60658,1.10799 -3.56373,0.34123 -4.78607,-1.28856c-1.22234,-1.62978 -1.94741,-4.12222 -0.18408,-5.33831c1.76333,-1.21609 4.10337,-0.23531 5.52239,1.65672c1.41902,1.89202 1.05434,3.86216 -0.55224,4.97015z" fill="#ff0000" stroke="#ffe8e8" stroke-width="5" stroke-linecap="round"/><path d="M263.313,144.63637c-0.91484,-0.69958 -0.86252,-1.74791 -0.18408,-2.57711c0.67844,-0.82921 2.30797,-2.38229 3.49751,-1.47264c1.18955,0.90965 0.65455,2.6157 -0.36816,3.86567c-1.02271,1.24998 -2.03043,0.88366 -2.94527,0.18408z" fill="#ff0000" stroke="#ffe8e8" stroke-width="5" stroke-linecap="round"/><path d="M278.5916,144.08413c-1.34325,-0.8955 -0.97937,-2.67863 0,-4.04975c0.97937,-1.37112 2.89552,-3.53068 4.60199,-2.39303c1.70647,1.13764 0.49936,3.2402 -0.73632,4.97015c-1.23568,1.72995 -2.52242,2.36814 -3.86567,1.47264z" fill="#ff0000" stroke="#ffe8e8" stroke-width="5" stroke-linecap="round"/><path d="M287.42742,228.94482c1.87235,2.03878 4.10086,4.58576 1.28856,6.07463c-2.8123,1.48887 -5.69467,-0.74393 -7.54726,-2.76119c-1.85259,-2.01726 -3.35411,-4.87282 -0.73632,-6.25871c2.61779,-1.38589 5.12268,0.9065 6.99502,2.94527z" fill="#ff0000" stroke="#ffe8e8" stroke-width="5" stroke-linecap="round"/><path d="M267.36276,224.89508c1.04343,-1.39124 2.07146,0.80038 3.49751,2.76119c1.42604,1.96082 3.63493,3.68244 2.39303,5.33831c-1.2419,1.65587 -3.21347,-0.48381 -4.60199,-2.39303c-1.38853,-1.90922 -2.33199,-4.31523 -1.28856,-5.70647z" fill="#ff0000" stroke="#ffe8e8" stroke-width="5" stroke-linecap="round"/><path d="M256.31797,223.05427c0.76212,-0.99662 1.61562,-0.73251 2.94527,1.28856c1.32965,2.02107 2.80988,4.19849 1.65672,5.70647c-1.15316,1.50799 -3.06989,-1.08772 -4.04975,-2.57711c-0.97986,-1.48939 -1.31436,-3.42129 -0.55224,-4.41791z" fill="#ff0000" stroke="#ffe8e8" stroke-width="5" stroke-linecap="round"/><path d="M255.02942,213.8503c-0.6678,-2.67122 3.75865,1.4955 6.44279,0.36816c2.68414,-1.12734 2.25694,-6.25085 2.76119,-4.23383c0.50425,2.01702 -0.11172,4.74831 -2.39303,5.70647c-2.28132,0.95815 -6.14314,0.83042 -6.81095,-1.8408z" fill="#ff0000" stroke="#ffe8e8" stroke-width="5" stroke-linecap="round"/><path d="M200.35776,157.89011c2.78344,-3.08787 6.30172,-5.73915 9.38806,-3.68159c3.08634,2.05756 -5.50623,1.33679 -8.28358,4.41791c-2.77735,3.08112 -0.35156,10.74904 -3.49751,8.65174c-3.14596,-2.0973 -0.39041,-6.30019 2.39303,-9.38806z" fill="#ff0000" stroke="#ffe8e8" stroke-width="5" stroke-linecap="round"/><path d="M263.31298,153.2881c1.04149,0.76741 1.17531,2.10972 0.9204,3.12935c-0.25491,1.01963 -0.23849,-1.75493 -1.10448,-2.39303c-0.86599,-0.6381 -2.6425,0.81379 -2.39303,-0.18408c0.24946,-0.99787 1.53562,-1.31965 2.57711,-0.55224z" fill="#ff0000" stroke="#ffe8e8" stroke-width="5" stroke-linecap="round"/><path d="M172.37766,145.37268c-2.24511,1.43917 -5.64393,0.29594 -7.73134,-2.20896c-2.08741,-2.5049 -3.18501,-6.04367 -0.55224,-7.73134c2.63277,-1.68768 5.5279,0.48522 7.73134,3.12935c2.20345,2.64414 2.79735,5.37177 0.55224,6.81095z" fill="#ff0000" stroke="#000000" stroke-width="0" stroke-linecap="round"/><path d="M192.62643,147.58164c-1.22448,1.00185 -2.81428,0.49792 -3.86567,-0.73632c-1.05139,-1.23424 -1.68821,-3.15379 -0.36816,-4.23383c1.32005,-1.08004 3.21634,-0.49015 4.41791,0.9204c1.20157,1.41054 1.0404,3.04791 -0.18408,4.04975z" fill="#ff0000" stroke="#000000" stroke-width="0" stroke-linecap="round"/><path d="M184.71101,167.46224c-1.59156,1.23217 -3.74645,0.66291 -5.52239,-0.73632c-1.77594,-1.39922 -1.91016,-2.99846 -0.55224,-4.04975c1.35792,-1.0513 4.30666,-1.90613 6.25871,-0.36816c1.95204,1.53797 1.40748,3.92205 -0.18408,5.15423z" fill="#ff0000" stroke="#000000" stroke-width="0" stroke-linecap="round"/><path d="M189.68116,133.59159c-1.60658,1.10799 -3.56373,0.34123 -4.78607,-1.28856c-1.22234,-1.62978 -1.94741,-4.12222 -0.18408,-5.33831c1.76333,-1.21609 4.10337,-0.23531 5.52239,1.65672c1.41902,1.89202 1.05434,3.86216 -0.55224,4.97015z" fill="#ff0000" stroke="#000000" stroke-width="0" stroke-linecap="round"/><path d="M263.313,144.63637c-0.91484,-0.69958 -0.86252,-1.74791 -0.18408,-2.57711c0.67844,-0.82921 2.30797,-2.38229 3.49751,-1.47264c1.18955,0.90965 0.65455,2.6157 -0.36816,3.86567c-1.02271,1.24998 -2.03043,0.88366 -2.94527,0.18408z" fill="#ff0000" stroke="#000000" stroke-width="0" stroke-linecap="round"/><path d="M278.5916,144.08413c-1.34325,-0.8955 -0.97937,-2.67863 0,-4.04975c0.97937,-1.37112 2.89552,-3.53068 4.60199,-2.39303c1.70647,1.13764 0.49936,3.2402 -0.73632,4.97015c-1.23568,1.72995 -2.52242,2.36814 -3.86567,1.47264z" fill="#ff0000" stroke="#000000" stroke-width="0" stroke-linecap="round"/><path d="M287.42742,228.94482c1.87235,2.03878 4.10086,4.58576 1.28856,6.07463c-2.8123,1.48887 -5.69467,-0.74393 -7.54726,-2.76119c-1.85259,-2.01726 -3.35411,-4.87282 -0.73632,-6.25871c2.61779,-1.38589 5.12268,0.9065 6.99502,2.94527z" fill="#ff0000" stroke="#000000" stroke-width="0" stroke-linecap="round"/><path d="M267.36276,224.89508c1.04343,-1.39124 2.07146,0.80038 3.49751,2.76119c1.42604,1.96082 3.63493,3.68244 2.39303,5.33831c-1.2419,1.65587 -3.21347,-0.48381 -4.60199,-2.39303c-1.38853,-1.90922 -2.33199,-4.31523 -1.28856,-5.70647z" fill="#ff0000" stroke="#000000" stroke-width="0" stroke-linecap="round"/><path d="M256.31797,223.05427c0.76212,-0.99662 1.61562,-0.73251 2.94527,1.28856c1.32965,2.02107 2.80988,4.19849 1.65672,5.70647c-1.15316,1.50799 -3.06989,-1.08772 -4.04975,-2.57711c-0.97986,-1.48939 -1.31436,-3.42129 -0.55224,-4.41791z" fill="#ff0000" stroke="#000000" stroke-width="0" stroke-linecap="round"/><path d="M255.02942,213.8503c-0.6678,-2.67122 3.75865,1.4955 6.44279,0.36816c2.68414,-1.12734 2.25694,-6.25085 2.76119,-4.23383c0.50425,2.01702 -0.11172,4.74831 -2.39303,5.70647c-2.28132,0.95815 -6.14314,0.83042 -6.81095,-1.8408z" fill="#ff0000" stroke="#000000" stroke-width="0" stroke-linecap="round"/><path d="M200.35776,157.89011c2.78344,-3.08787 6.30172,-5.73915 9.38806,-3.68159c3.08634,2.05756 -5.50623,1.33679 -8.28358,4.41791c-2.77735,3.08112 -0.35156,10.74904 -3.49751,8.65174c-3.14596,-2.0973 -0.39041,-6.30019 2.39303,-9.38806z" fill="#ff0000" stroke="#000000" stroke-width="0" stroke-linecap="round"/><path d="M263.31298,153.2881c1.04149,0.76741 1.17531,2.10972 0.9204,3.12935c-0.25491,1.01963 -0.23849,-1.75493 -1.10448,-2.39303c-0.86599,-0.6381 -2.6425,0.81379 -2.39303,-0.18408c0.24946,-0.99787 1.53562,-1.31965 2.57711,-0.55224z" fill="#ff0000" stroke="#000000" stroke-width="0" stroke-linecap="round"/><path d="M158.15445,255.06545v-159.81675h159.81676v159.81676z" fill="none" stroke="#ffe8e8" stroke-width="0" stroke-linecap="butt"/></g></g></svg>