<svg version="1.1" xmlns="http://www.w3.org/2000/svg" xmlns:xlink="http://www.w3.org/1999/xlink" width="112.18753" height="120.02313" viewBox="0,0,112.18753,120.02313"><g transform="translate(-194.45537,-118.68826)"><g stroke-miterlimit="10"><path d="M256.2218,215.77051c2.5853,1.4536 6.09582,7.47406 2.82835,9.46031c-0.93292,0.56711 -2.21341,0.34725 -3.27409,0.08858c-0.4625,-0.11279 -2.4599,-2.63935 -3.60742,-4.56693c-0.11293,-0.13199 -0.21674,-0.27479 -0.3099,-0.42804c-0.18309,-0.3012 -0.31143,-0.62035 -0.38784,-0.94584c-0.31268,-1.33199 0.24423,-2.77023 1.47681,-3.5195c0.90377,-0.54939 1.96913,-0.60577 2.8826,-0.2456c0.13475,0.03519 0.26556,0.08621 0.39149,0.15702z" fill="#9a8479" stroke="#000000" stroke-width="1.2" stroke-linecap="butt"/><path d="M255.78953,231.01656l-2.87346,5.36515c0,0 0.66211,0.34929 0.34179,1.09892c-0.31919,0.75337 -2.75892,0.71688 -5.85487,0.8829c-3.09681,0.16691 -5.51449,-0.36213 -5.88012,-1.15826c-0.36536,-0.78714 0.58803,-1.06708 0.58803,-1.06708l3.99759,-6.28267c0,0 -2.96233,-5.76595 0.98242,-6.70824c6.46969,-1.54544 8.69863,7.86928 8.69863,7.86928z" fill="#9a8479" stroke="#000000" stroke-width="1.2" stroke-linecap="butt"/><path d="M243.74664,210.2557v0v0v0v0v0v0c8.18405,-0.62376 10.6859,4.05299 10.68422,4.0521c0.50625,1.20795 1.10906,2.91231 1.25164,4.46855c0.03919,0.42988 0.03555,0.91356 -0.01596,1.43237c0,0 -0.27668,1.80207 -0.52252,2.35221c-1.03079,2.30475 -2.55316,4.82759 -5.57281,5.96827c-4.74187,1.79848 -9.51788,1.57773 -14.20955,-0.78533c-1.58359,-0.79518 -2.4095,-2.15035 -2.75228,-3.69306c-0.24342,-1.11025 -0.22374,-2.55784 -0.22374,-2.55784c0.06936,-2.40793 0.79111,-4.75845 1.1465,-5.78064c0,0 2.03144,-4.83296 10.21449,-5.45663z" fill="#9a8479" stroke="#000000" stroke-width="1.2" stroke-linecap="butt"/><path d="M241.54606,229.02181c-0.08655,0.33101 -5.30783,7.0725 -5.30783,7.0725c0,0 0.514,0.05919 0.28829,0.72783c-0.22222,0.66954 -1.89884,1.39557 -6.33046,1.27629c-4.43264,-0.12475 -5.14918,-1.12546 -5.08962,-1.63701c0.05767,-0.51154 1.10358,-1.03037 1.10358,-1.03037c0,0 6.41451,-9.26694 7.03735,-10.33004" fill="#9a8479" stroke="#000000" stroke-width="1.2" stroke-linecap="butt"/><g stroke="#000000" stroke-width="1.2"><path d="M289.87905,164.74421c0,0 12.08538,-12.51248 15.21274,-4.40727c3.12741,8.10511 -1.61506,19.19322 -11.9105,30.36073c0,0 -0.26705,-15.08985 -3.3022,-25.95346zM289.87905,164.74421c-0.26628,-1.28806 -1.08441,-3.69282 -1.08441,-3.69282M292.9837,193.09256l0.05215,-2.45859" fill="#9a8479" stroke-linecap="round"/><path d="M293.03582,190.63299c-0.02392,-2.7996 -0.17933,-7.38731 -0.80136,-13.03499c-0.35952,-3.28743 -0.95435,-6.6361 -1.54614,-9.51357l0.00145,0.0036c7.1874,-4.07394 13.99051,4.49698 13.99051,4.49698l0.00265,-0.00049c-3.34451,9.48138 -11.5969,17.79432 -11.5969,17.79432l-0.05019,0.25415v0v0v0v0z" fill="#ee4036" stroke-linecap="butt"/></g><path d="M202.10102,170.80596c0.47496,-18.64925 9.1688,-28.91001 14.32534,-34.36087c11.70382,-12.3801 30.08465,-13.53495 30.08465,-13.53495l1.09125,12.05485c0,0 -0.16132,-3.47256 7.0195,-9.8149c7.17894,-6.34226 18.15406,-5.85309 18.15406,-5.85309l-5.25622,15.34743c0,0 3.25153,-4.8393 5.9941,-6.66431c4.86255,-3.23045 9.11556,-2.07294 9.11556,-2.07294l-0.98849,11.94087c0,0 15.4874,20.7868 16.21697,35.418c0.72956,14.63121 -2.92789,40.90354 -38.44533,43.08505c-61.62817,1.99682 -57.31136,-45.54509 -57.31136,-45.54509z" fill="#9a8479" stroke="#000000" stroke-width="1.2" stroke-linecap="butt"/><g stroke="#000000" stroke-width="1.2"><path d="M216.5819,198.89905c-14.9331,-5.44663 -23.16759,-13.24683 -21.25255,-21.82497c1.91596,-8.57903 19.30984,-2.71569 19.30984,-2.71569c-1.1754,10.99248 1.9427,24.54066 1.9427,24.54066zM215.10311,170.59891c0,0 -0.43711,2.49581 -0.46296,3.75946M216.74216,198.77725l0.6237,2.16646" fill="#9a8479" stroke-linecap="round"/><path d="M216.62406,198.57389c0,0 -11.82497,-3.79847 -18.01068,-10.77673l0.00279,-0.00106c0,0 6.23232,-10.59674 15.80924,-10.10753l0.00083,-0.00292c-0.05642,2.81822 -0.00857,6.05866 0.3088,9.14065c0.53898,5.29874 1.39766,9.44973 2.00712,11.95095z" fill="#ee4036" stroke-linecap="butt"/></g><path d="M294.20189,186.80328c0.46595,12.81006 -13.74487,23.7253 -31.74079,24.3799c-17.99591,0.65458 -32.96221,-9.19938 -33.42816,-22.00943c-0.46595,-12.81006 13.74488,-23.72531 31.74079,-24.3799c17.99591,-0.65458 32.96221,9.19938 33.42816,22.00943z" fill="#e6e7e8" stroke="#000000" stroke-width="1.2" stroke-linecap="butt"/><g stroke="#000000"><path d="M286.86255,167.73413c0,0 -2.43741,4.51422 -5.80208,6.91824c-1.50589,1.07593 -5.64816,3.5287 -7.81019,4.15155c-5.59906,1.61303 -11.73594,1.56721 -11.73594,1.56721l4.54854,-7.0946c0,0 -4.19771,2.12466 -7.75495,3.28843c-4.82924,1.57992 -8.93173,-0.27728 -8.93173,-0.27728l12.8019,-13.08718" fill="#9a8479" stroke-width="0" stroke-linecap="butt"/><path d="M284.62391,171.03204c0,0 -4.30677,5.25201 -9.42527,7.29944c-5.11851,2.04744 -13.946,2.04919 -13.946,2.04919l4.81028,-7.10412c0,0 -3.36798,1.8803 -6.92521,3.04407c-4.82925,1.57991 -10.38183,0.20382 -10.38183,0.20382l11.89942,-11.96078" fill="none" stroke-width="1.2" stroke-linecap="round"/></g><g fill="none" stroke="#ee4036" stroke-width="1.2" stroke-linecap="round"><path d="M224.83819,150.0662l-3.30911,5.71686l-5.63154,-2.0942"/><path d="M214.45457,156.60544l4.62762,2.94013l-1.64936,6.41261"/><path d="M230.54914,160.71544l-5.05952,-3.14778l2.08127,-6.20496"/><path d="M220.18985,167.26637l3.33274,-5.19451l5.60792,1.57184"/></g><path d="M232.7253,206.73578c0,0 7.5519,-10.91584 15.83024,-7.96845c8.27834,2.94739 2.35451,15.51096 2.35451,15.51096z" fill="#706d6d" stroke="#231f20" stroke-width="1.2" stroke-linecap="round"/><g stroke-width="1.2"><path d="M260.9074,192.89766c-0.08825,-0.02364 -0.17517,-0.05687 -0.2631,-0.09746c-3.09295,-1.49675 -8.97543,-2.39168 -9.03316,-2.40118c-0.78138,-0.11946 -1.35129,-0.85481 -1.24505,-1.64837c0.10768,-0.79132 0.83908,-1.33773 1.63545,-1.21822c0.26005,0.04278 6.37953,0.97231 9.87928,2.66383c0.72545,0.34988 1.0395,1.21919 0.69638,1.94236c-0.30006,0.62897 -1.00946,0.93589 -1.6698,0.75902z" fill="#231f20" stroke="none" stroke-linecap="butt"/><path d="M262.13909,187.76567l1.65928,1.67361l-1.44788,1.20863c0,0 -17.57851,-10.98537 -24.86236,-11.48112" fill="none" stroke="#231f20" stroke-linecap="round"/></g><g stroke-width="1.2"><path d="M289.08059,191.92555c-2.23572,0.36871 -6.19966,1.17819 -7.35931,1.78161c-0.61646,0.3107 -1.39796,0.00566 -1.7341,-0.71548c-0.33023,-0.71702 -0.09609,-1.56595 0.52618,-1.894c1.84107,-0.96488 7.4053,-1.89914 8.03334,-2.00368c0.69129,-0.11295 1.37137,0.43043 1.51853,1.21274c0.13171,0.70726 -0.21146,1.36545 -0.78846,1.57122c-0.06208,0.02214 -0.1276,0.0394 -0.19618,0.04755z" fill="#231f20" stroke="none" stroke-linecap="butt"/><path d="M292.90076,183.68361c-3.62278,0.63635 -11.74102,7.39594 -11.74102,7.39594l-2.42003,-1.01539l2.38047,-2.21879" fill="none" stroke="#231f20" stroke-linecap="round"/></g><g stroke="#000000" stroke-width="1.2"><path d="M240.27439,224.62573l-1.00521,0.21837c-1.45706,0.1332 -2.95557,1.01376 -4.37119,0.3996c-3.88842,-1.68699 -3.94288,-4.35133 -4.72736,-7.40946c0,0 -0.72654,-3.23066 2.46329,-3.58477c3.18983,-0.35411 3.91636,2.87654 3.91636,2.87654c0.34291,2.08036 -0.33384,2.38693 0.63822,1.35932l1.00521,-0.21837c0,0 3.10171,-0.67381 4.14204,2.50557c1.04033,3.17938 -2.06138,3.85319 -2.06138,3.85319z" fill="#9a8479" stroke-linecap="butt"/><g><path d="M244.38332,209.72976c2.77246,-0.48081 5.67403,1.42187 6.48084,4.24976c0.80681,2.82789 -0.78667,5.51012 -3.55913,5.99093c-2.77246,0.48081 -5.67403,-1.42187 -6.48084,-4.24976c-0.80681,-2.82789 0.78667,-5.51012 3.55913,-5.99093z" fill="#5c5e5f" stroke-linecap="butt"/><path d="M244.37645,220.87638l-0.39602,2.55454l-1.90164,0.23418l-2.12564,1.42035l-1.33834,-2.06254" fill="#9a8479" stroke-linecap="round"/><path d="M244.44236,216.43254l0.4215,4.28586l-6.20501,3.52801l-4.30365,-1.97799l-1.36544,-3.84972l6.82039,-4.17961z" fill="#9a8479" stroke-linecap="round"/><path d="M242.31192,219.11148l0.43743,2.44513" fill="none" stroke-linecap="round"/><path d="M239.85129,223.25336l-0.39678,-1.39071" fill="none" stroke-linecap="round"/><path d="M234.80278,220.14839l1.52807,0.79646l0.43284,1.51714l-1.78252,1.50328l-1.89991,-0.73198l-0.50498,-1.77z" fill="#5c5e5f" stroke-linecap="round"/></g></g><path d="M258.59487,219.33047c0.02775,-0.03177 0.03543,-0.02472 0.0919,-0.08132c0.41532,-0.41634 1.54089,-1.46111 1.79376,-1.61171c1.17551,-0.7001 2.71476,-0.60324 3.80108,0.34575c0.79652,0.69582 1.17181,1.69448 1.10413,2.67407c0.00712,0.13907 -0.05506,0.24286 -0.08456,0.38428c-5.52,10.01698 -10.48893,3.52495 -10.48893,3.52495" fill="#9a8479" stroke="#000000" stroke-width="1.2" stroke-linecap="butt"/></g></g></svg>