<svg version="1.1" xmlns="http://www.w3.org/2000/svg" xmlns:xlink="http://www.w3.org/1999/xlink" width="87.03776" height="122.05079" viewBox="0,0,87.03776,122.05079"><g transform="translate(-217.35471,-104.03359)"><g stroke-miterlimit="10"><path d="M256.1687,184.57699c2.68779,-0.63341 5.38017,1.032 6.01358,3.7198c0.14388,0.61051 0.16914,1.22125 0.09077,1.80805c0.72019,1.76695 -2.74916,4.06428 -3.60766,5.30595c-3.22815,4.66891 -6.3622,6.58003 -12.73979,7.60743c-2.6062,0.41985 -5.21718,-0.34038 -6.01358,-3.7198c-1.51171,-6.41476 6.17515,-6.0741 9.33222,-8.14575c1.69189,-1.11021 5.10903,-7.52725 6.92446,-6.57568z" fill="#ffab19" fill-rule="nonzero" stroke="#000000" stroke-width="1.2" stroke-linecap="butt" stroke-linejoin="miter"/><g fill-rule="evenodd"><path d="M278.67682,201.0587c2.08605,-1.28777 4.54,-3.02794 6.04687,-5.914c3.50152,-6.4807 2.34014,-14.67527 6.62826,-13.99558c4.38213,0.64563 8.7513,12.99595 -1.356,20.91319c-3.47174,2.74719 -7.04439,4.04184 -9.99299,5.004c-0.75213,0.27256 -7.47781,1.96528 -10.89262,-0.41362c-3.41481,-2.3789 -2.12313,-3.80425 -1.50727,-4.45289c0.6758,-0.77671 8.0816,0.58138 11.07374,-1.14111z" fill="#ffab19" stroke="#001026" stroke-width="1.2" stroke-linecap="round" stroke-linejoin="round"/><path d="M290.85598,181.54161c2.08476,-0.11728 4.45588,3.49072 4.70816,7.12203c0.25226,3.6313 -0.63874,5.86873 -1.41804,7.53385c-0.05045,-0.72627 -0.42392,-2.93092 -2.46513,-3.57396c-2.55356,-0.88282 -5.72556,1.22392 -5.72556,1.22392c0,0 1.61988,-4.62882 2.20426,-7.7124c0.72066,-2.70752 0.67969,-4.28813 2.69632,-4.59347z" fill="#ffffff" stroke="none" stroke-width="1" stroke-linecap="butt" stroke-linejoin="miter"/></g><g fill-rule="nonzero" stroke-linecap="butt" stroke-linejoin="miter"><path d="M245.45817,216.294c-1.48366,2.60936 -17.60584,-0.70341 -17.60584,-0.70341c0,0 -1.45794,-6.76929 2.95457,-7.61242c2.05628,-0.39291 8.58941,-2.85469 9.5543,-4.07014c3.38116,-4.25913 4.1361,-9.14523 9.29944,-11.9715c0.95117,-0.52065 3.00914,-1.77009 4.82104,-2.14936c2.28051,-1.41654 6.18589,1.41198 6.73872,4.15818c1.58446,7.87074 -7.20297,7.2953 -15.76224,22.34866z" fill="#ffab19" stroke="#001026" stroke-width="1.2"/><g><path d="M253.00752,191.22425c0.77012,-3.90926 6.55147,-7.17185 6.55147,-7.17185c0,0 1.03909,-3.27764 3.36683,-4.68481c4.81169,-2.90879 18.23211,3.80422 15.9773,11.49774c-0.84605,2.88672 -3.81044,4.82898 -3.81044,4.82898c0,0 -1.41227,5.60205 -3.6405,7.67452c-1.89513,1.76267 -9.77301,2.57391 -14.00371,-0.86087c-0.43946,-0.35677 -0.83914,-0.71636 -1.20242,-1.07687" fill="#ffab19" stroke="#001026" stroke-width="1.2"/><path d="M264.91429,181.86039c3.93091,-0.53101 6.73477,4.60884 5.44626,8.32146c-0.1555,0.44804 -0.35001,0.96713 -0.59584,1.45829c-0.09963,2.22615 -3.77415,5.43096 -5.41277,5.06374c-5.67227,-1.27122 -9.12835,-9.92526 -2.86158,-11.75936c0.71436,-1.555 2.08419,-2.90315 3.42392,-3.08413z" fill="#ffffff" stroke="none" stroke-width="0.5"/></g><path d="M261.63448,219.98152c-0.48584,2.96209 -16.75564,5.45059 -16.75564,5.45059c0,0 -3.71667,-5.84254 0.12896,-8.16467c1.79209,-1.08214 7.06477,-5.65829 7.54785,-7.13306c1.69283,-5.16786 0.70507,-10.01227 4.56659,-14.45485c0.71136,-0.8184 2.20778,-2.70442 3.77542,-3.68895c1.64713,-2.11996 6.29144,-0.82266 7.763,1.56098c4.21759,6.83163 -4.22335,9.34171 -7.02619,26.42998z" fill="#ffab19" stroke="#001026" stroke-width="1.2"/></g><g fill-rule="nonzero" stroke="#000000" stroke-width="1.2" stroke-linejoin="miter"><path d="M275.91951,183.91742c0,0 -0.03751,-1.88325 1.76757,-2.23906c7.11939,-1.40333 7.75432,3.46979 10.43969,4.91224c3.1042,1.66744 6.94824,2.92792 7.20883,4.49856c0.37351,2.2512 -1.63583,3.43757 -3.69926,5.39061c-2.7793,2.63063 -6.26621,5.63181 -9.92548,4.8481c-2.85805,-0.61211 -0.20591,-7.60247 -0.16508,-7.64374c-2.13288,-1.55172 -3.81836,-3.74318 -4.38385,-5.71632" fill="#ffab19" stroke-linecap="butt"/><g stroke-linecap="round"><path d="M286.49313,202.38728l-4.10048,3.18926l-2.73365,0.30374l-1.06309,-1.82243l-1.36683,-0.15187l-1.21495,-3.94861" fill="#ffab19"/><path d="M279.70915,187.76913l12.5402,4.8907l0.00109,6.59498l-3.57289,5.28549l-3.52035,-0.31134l-0.74875,-0.78414l-3.73436,-1.00645l-1.28349,-0.87318l-4.0374,-1.16682l-2.45405,-6.0953z" fill="#ffab19"/><path d="M278.57846,196.64506l1.15906,2.94082l-2.35657,-2.51402z" fill="none"/><path d="M284.59536,201.99211l-1.06118,-3.85878" fill="none"/></g></g><g><g><g><path d="M241.3179,149.13515c0,0 -11.47045,-25.09267 -10.44167,-25.4129c1.38598,-0.43143 28.89765,2.20239 28.89765,2.20239" fill="#ffab19" fill-rule="nonzero" stroke="#001026" stroke-width="1.2" stroke-linecap="round" stroke-linejoin="miter"/><path d="M294.19782,135.67232l0.02526,-1.22497l4.78164,-1.79269l4.56735,3.99926l-0.071,8.59409l-23.05533,15.47785z" fill="#9b7f41" fill-rule="nonzero" stroke="#001026" stroke-width="1.2" stroke-linecap="round" stroke-linejoin="miter"/><path d="M237.46668,170.74293c0,0 -6.64754,2.76772 -12.47015,1.14688" fill="none" fill-rule="evenodd" stroke="#001026" stroke-width="1.2" stroke-linecap="round" stroke-linejoin="round"/><path d="M239.44278,176.31653c0,0 -2.82464,3.29262 -8.80506,5.33582" fill="none" fill-rule="evenodd" stroke="#001026" stroke-width="1.2" stroke-linecap="round" stroke-linejoin="round"/><path d="M254.42265,134.63941c9.8046,-5.84048 40.70156,-8.04758 42.90865,19.81849c0.02879,0.36329 -0.02696,0.72874 -0.08141,1.09244c-1.9885,13.28216 -13.8211,23.95971 -32.54431,28.03047c-18.72321,4.07078 -27.05057,-4.09349 -28.21304,-9.80125c-1.16246,-5.70777 4.51955,-10.45483 4.51955,-10.45483c0,0 -1.69541,-4.16961 -0.94295,-10.48812c0,0 0.0287,-9.66409 14.35348,-18.19719z" fill="#ffab19" fill-rule="evenodd" stroke="#001026" stroke-width="1.2" stroke-linecap="butt" stroke-linejoin="miter"/><path d="M258.53527,161.51665c7.94741,-2.78543 14.88749,-15.70423 25.28596,-8.5452c10.35877,7.06725 5.52359,24.85014 -18.67179,29.87247c-18.49994,4.08313 -26.99583,-3.4634 -28.1583,-9.17117c-1.16246,-5.70777 4.45515,-10.10007 4.45515,-10.10007c7.0463,-5.11954 10.28257,0.3446 17.08897,-2.05602z" fill="#ffffff" fill-rule="evenodd" stroke="none" stroke-width="1" stroke-linecap="butt" stroke-linejoin="miter"/><path d="M262.60774,158.33779c0.63545,1.4684 -2.22624,5.43084 -3.95762,5.96216c-1.50813,0.54367 -3.99677,-1.43033 -4.46101,-2.75487c-0.18623,-0.68214 1.7534,-1.73943 3.68067,-2.57344c1.83551,-0.7943 4.35315,-1.77483 4.73795,-0.63381z" fill="#001026" fill-rule="evenodd" stroke="#001026" stroke-width="1.2" stroke-linecap="round" stroke-linejoin="round"/><path d="M291.18959,146.81054c-1.6573,5.81234 -7.48832,10.03718 -7.48832,10.03718" fill="none" fill-rule="evenodd" stroke="#001026" stroke-width="1.2" stroke-linecap="round" stroke-linejoin="round"/><path d="M296.57115,156.71856c-4.86479,4.0341 -9.14772,4.72433 -9.14772,4.72433" fill="none" fill-rule="evenodd" stroke="#001026" stroke-width="1.2" stroke-linecap="round" stroke-linejoin="round"/><path d="M281.69993,137.67316l-41.80282,12.49178l-5.5289,-22.12039l46.45635,-12.87193l17.68243,14.0104l-2.17935,17.09416z" fill="#c58600" fill-rule="nonzero" stroke="#001026" stroke-width="1.2" stroke-linecap="round" stroke-linejoin="miter"/><path d="M280.68121,115.41642l0.96855,22.06314" fill="none" fill-rule="nonzero" stroke="#001026" stroke-width="0.75" stroke-linecap="round" stroke-linejoin="miter"/><path d="M288.69065,121.60423l-7.37846,-6.14481c0,0 15.35439,6.00755 16.45574,6.06518c1.23424,0.06457 -5.2121,14.98666 -5.2121,14.98666z" fill="#ffab19" fill-rule="nonzero" stroke="#001026" stroke-width="1.2" stroke-linecap="round" stroke-linejoin="miter"/></g><path d="M221.79751,164.64723c-9.78944,-19.47342 -0.23038,-44.05458 21.35073,-54.90358c21.58112,-10.849 47.01198,-3.85754 56.80142,15.61589c9.78944,19.47342 0.23038,44.05458 -21.35073,54.90358c-21.58112,10.849 -47.01198,3.85754 -56.80142,-15.61588z" fill="none" fill-rule="nonzero" stroke="#ffffff" stroke-width="1.2" stroke-linecap="butt" stroke-linejoin="miter"/><path d="M279.08817,109.95863l1.20059,7.17956l-7.36301,3.892l-9.74106,-1.88067l2.43113,-11.86666z" fill="#ffffff" fill-rule="nonzero" stroke="#001026" stroke-width="0" stroke-linecap="round" stroke-linejoin="miter"/><path d="M288.39169,121.31532l7.19142,0.65657l-7.13784,-0.41694" fill="#000000" fill-rule="nonzero" stroke="none" stroke-width="0" stroke-linecap="round" stroke-linejoin="miter"/></g><g stroke="#001026"><g fill-rule="evenodd"><path d="M250.0319,144.38474c3.28459,0.53993 5.21829,5.26017 4.34397,10.5418c-0.96607,5.32134 -4.35371,9.07553 -7.6383,8.53559c-3.28459,-0.53993 -5.21828,-5.26017 -4.34397,-10.54182c0.8743,-5.28165 4.31399,-9.1673 7.6383,-8.53559z" fill="#ffffff" stroke-width="1.2" stroke-linecap="round" stroke-linejoin="round"/><path d="M241.98971,156.3773c-0.43687,-1.00953 -0.06011,-2.15323 0.85766,-2.55037c0.91775,-0.39716 2.00939,0.1111 2.44626,1.12062c0.43687,1.00953 0.06011,2.15323 -0.85765,2.55037c-0.91775,0.39716 -2.00939,-0.11109 -2.44626,-1.12062" fill="#001026" stroke-width="0.5" stroke-linecap="butt" stroke-linejoin="miter"/></g><g fill-rule="evenodd"><path d="M273.58025,138.87788c3.71878,0.78788 5.79899,6.09851 4.70142,11.36779c-1.00579,5.22956 -4.48789,8.26188 -8.27105,7.82877c-3.23252,-0.67143 -5.56069,-5.54784 -4.5549,-10.77742c1.00579,-5.22956 4.36606,-9.29879 8.12456,-8.41914z" fill="#ffffff" stroke-width="1.2" stroke-linecap="round" stroke-linejoin="round"/><path d="M265.27507,150.76637c-0.43687,-1.00953 -0.0204,-2.06145 0.85766,-2.55039c0.91775,-0.39716 2.00939,0.11111 2.44626,1.12063c0.43687,1.00953 0.06011,2.15323 -0.85765,2.55037c-0.91775,0.39716 -2.00939,-0.1111 -2.44626,-1.12063" fill="#001026" stroke-width="0.5" stroke-linecap="butt" stroke-linejoin="miter"/></g><g fill="#000000" fill-rule="nonzero" stroke-width="1" stroke-linecap="round" stroke-linejoin="miter" font-family="&quot;Times New Roman&quot;" font-weight="400" font-size="16" text-anchor="start"/></g></g><path d="M258.16495,177.44827c5.98228,1.15059 10.57415,2.63455 10.25624,3.3145c-0.31792,0.67994 -5.42524,0.29842 -11.40751,-0.85218c-5.98228,-1.15059 -10.57415,-2.63455 -10.25624,-3.3145c0.31792,-0.67994 5.42524,-0.29842 11.40751,0.85218z" fill="#ffffff" fill-rule="nonzero" stroke="#001026" stroke-width="1.2" stroke-linecap="butt" stroke-linejoin="miter"/><g fill-rule="nonzero" stroke="#000000" stroke-width="1.2" stroke-linejoin="miter"><path d="M240.16756,187.60087c-4.51764,-1.41435 -7.03337,-6.22319 -5.61902,-10.74083c1.41435,-4.51764 6.22319,-7.03337 10.74083,-5.61902c4.51764,1.41435 7.03338,6.22318 5.61902,10.74083c-1.41435,4.51764 -6.22317,7.03336 -10.74083,5.61902z" fill="#5c5e5f" stroke-linecap="butt"/><g stroke-linecap="round"><path d="M245.22917,188.64663l1.8692,4.35749l-1.48383,1.8707l-1.33167,4.25355l-3.75282,-0.636z" fill="#ffab19"/><path d="M243.23766,183.5323l3.30031,5.52406l-2.04723,3.67028l-0.29736,1.5236l-1.9448,3.34308l0.01988,1.08403l-2.28194,2.69862l-6.258,-1.24068l-4.64042,-4.68618l5.46739,-12.29972z" fill="#ffab19"/><path d="M242.95718,191.88727l-1.24614,-2.905" fill="none"/><path d="M241.09345,196.69278l-1.96168,-3.48827" fill="none"/></g><path d="M237.88114,198.92051l-1.83242,3.55789l-3.90648,-0.1452l-2.22772,-3.2123l1.57633,-2.7399l4.11134,-0.50919z" fill="#5c5e5f" stroke-linecap="round"/></g></g></g></svg>