<svg version="1.1" xmlns="http://www.w3.org/2000/svg" xmlns:xlink="http://www.w3.org/1999/xlink" width="323.92859" height="323.92859" viewBox="0,0,323.92859,323.92859"><g transform="translate(-78.03571,-18.03573)"><g stroke-miterlimit="10"><g stroke-linecap="butt"><path d="M287.05093,300.6928l4.37749,-69.80064l45.02029,-0.10411l-6.86993,69.90475z" fill="#868995" stroke="#000000" stroke-width="1.2"/><g><g><g><g fill="#868995" stroke="#000000" stroke-width="1.2"><path d="M314.13361,264.21573c0,0 -14.71488,0.3452 -16.54198,-1.91087c-1.40985,-1.74086 0.46249,-24.77184 2.15979,-26.4586c1.7424,-1.73158 16.44297,-1.76388 16.44297,-1.76388"/></g><g fill="none" stroke="none" stroke-width="1" font-family="sans-serif" font-weight="normal" font-size="12" text-anchor="start"/><g fill="none" stroke="none" stroke-width="1" font-family="sans-serif" font-weight="normal" font-size="12" text-anchor="start"/></g><g><g fill="#868995" stroke="#000000" stroke-width="1.2"><path d="M316.08633,234.08238c0,0 14.6953,0.0323 16.15501,1.76388c1.42192,1.68676 -0.46573,24.71773 -2.15979,26.45859c-2.19541,2.25607 -16.85394,1.91088 -16.85394,1.91088"/></g><g fill="none" stroke="none" stroke-width="1" font-family="sans-serif" font-weight="normal" font-size="12" text-anchor="start"/><g fill="none" stroke="none" stroke-width="1" font-family="sans-serif" font-weight="normal" font-size="12" text-anchor="start"/></g></g><g><g><g fill="#4e4f56" stroke="#000000" stroke-width="1.2"><path d="M314.22497,262.44254c0,0 -12.98201,0.30455 -14.59394,-1.68584c-1.24382,-1.53585 0.40802,-21.85463 1.90544,-23.34275c1.53721,-1.52767 14.5066,-1.55616 14.5066,-1.55616"/></g><g fill="none" stroke="none" stroke-width="1" font-family="sans-serif" font-weight="normal" font-size="12" text-anchor="start"/><g fill="none" stroke="none" stroke-width="1" font-family="sans-serif" font-weight="normal" font-size="12" text-anchor="start"/></g><g><g fill="#4e4f56" stroke="#000000" stroke-width="1.2"><path d="M315.94775,235.85779c0,0 12.96474,0.0285 14.25254,1.55616c1.25447,1.48812 -0.41089,21.8069 -1.90545,23.34275c-1.93687,1.99039 -14.86917,1.68584 -14.86917,1.68584"/></g><g fill="none" stroke="none" stroke-width="1" font-family="sans-serif" font-weight="normal" font-size="12" text-anchor="start"/><g fill="none" stroke="none" stroke-width="1" font-family="sans-serif" font-weight="normal" font-size="12" text-anchor="start"/></g></g><g><g><g fill="#9497a4" stroke="#000000" stroke-width="1.2"><path d="M314.68199,253.57664c0,0 -4.31767,0.10129 -4.85378,-0.56069c-0.41368,-0.51081 0.1357,-7.26859 0.63373,-7.76352c0.51126,-0.50808 4.82472,-0.51756 4.82472,-0.51756"/></g><g fill="none" stroke="none" stroke-width="1" font-family="sans-serif" font-weight="normal" font-size="12" text-anchor="start"/><g fill="none" stroke="none" stroke-width="1" font-family="sans-serif" font-weight="normal" font-size="12" text-anchor="start"/></g><g><g fill="#9497a4" stroke="#000000" stroke-width="1.2"><path d="M315.25496,244.73486c0,0 4.31192,0.00948 4.74023,0.51756c0.41723,0.49493 -0.13665,7.25272 -0.63373,7.76352c-0.64418,0.66198 -4.94531,0.56069 -4.94531,0.56069"/></g><g fill="none" stroke="none" stroke-width="1" font-family="sans-serif" font-weight="normal" font-size="12" text-anchor="start"/><g fill="none" stroke="none" stroke-width="1" font-family="sans-serif" font-weight="normal" font-size="12" text-anchor="start"/></g></g></g><g><g><g><g fill="#868995" stroke="#000000" stroke-width="1.2"><path d="M311.59362,294.79087c0,0 -11.16273,0.26187 -12.54877,-1.44959c-1.06951,-1.32062 0.35084,-18.79196 1.63841,-20.07154c1.32179,-1.31358 12.47367,-1.33808 12.47367,-1.33808"/></g><g fill="none" stroke="none" stroke-width="1" font-family="sans-serif" font-weight="normal" font-size="12" text-anchor="start"/><g fill="none" stroke="none" stroke-width="1" font-family="sans-serif" font-weight="normal" font-size="12" text-anchor="start"/></g><g><g fill="#868995" stroke="#000000" stroke-width="1.2"><path d="M313.07498,271.93165c0,0 11.14788,0.0245 12.25522,1.33808c1.07867,1.27958 -0.3533,18.75092 -1.63842,20.07154c-1.66544,1.71146 -12.78544,1.44959 -12.78544,1.44959"/></g><g fill="none" stroke="none" stroke-width="1" font-family="sans-serif" font-weight="normal" font-size="12" text-anchor="start"/><g fill="none" stroke="none" stroke-width="1" font-family="sans-serif" font-weight="normal" font-size="12" text-anchor="start"/></g></g><g><g><g fill="#4e4f56" stroke="#000000" stroke-width="1.2"><path d="M311.66294,293.4457c0,0 -9.84817,0.23103 -11.07098,-1.27888c-0.94357,-1.1651 0.30953,-16.57896 1.44547,-17.70785c1.16613,-1.15889 11.00473,-1.18051 11.00473,-1.18051"/></g><g fill="none" stroke="none" stroke-width="1" font-family="sans-serif" font-weight="normal" font-size="12" text-anchor="start"/><g fill="none" stroke="none" stroke-width="1" font-family="sans-serif" font-weight="normal" font-size="12" text-anchor="start"/></g><g><g fill="#4e4f56" stroke="#000000" stroke-width="1.2"><path d="M312.96986,273.2785c0,0 9.83507,0.02162 10.812,1.18051c0.95164,1.12889 -0.3117,16.54275 -1.44547,17.70785c-1.46932,1.50991 -11.27978,1.27888 -11.27978,1.27888"/></g><g fill="none" stroke="none" stroke-width="1" font-family="sans-serif" font-weight="normal" font-size="12" text-anchor="start"/><g fill="none" stroke="none" stroke-width="1" font-family="sans-serif" font-weight="normal" font-size="12" text-anchor="start"/></g></g><g><g><g fill="#9497a4" stroke="#000000" stroke-width="1.2"><path d="M312.00962,286.72004c0,0 -3.27538,0.07683 -3.68208,-0.42534c-0.31382,-0.3875 0.10295,-5.51397 0.48075,-5.88942c0.38784,-0.38543 3.66004,-0.39263 3.66004,-0.39263"/></g><g fill="none" stroke="none" stroke-width="1" font-family="sans-serif" font-weight="normal" font-size="12" text-anchor="start"/><g fill="none" stroke="none" stroke-width="1" font-family="sans-serif" font-weight="normal" font-size="12" text-anchor="start"/></g><g><g fill="#9497a4" stroke="#000000" stroke-width="1.2"><path d="M312.44426,280.01264c0,0 3.27103,0.00719 3.59595,0.39263c0.31651,0.37545 -0.10367,5.50192 -0.48075,5.88942c-0.48867,0.50218 -3.75152,0.42534 -3.75152,0.42534"/></g><g fill="none" stroke="none" stroke-width="1" font-family="sans-serif" font-weight="normal" font-size="12" text-anchor="start"/><g fill="none" stroke="none" stroke-width="1" font-family="sans-serif" font-weight="normal" font-size="12" text-anchor="start"/></g></g></g></g><g stroke-linecap="butt"><path d="M150.4212,300.6928l-6.86992,-69.90475l45.02029,0.10411l4.37749,69.80064z" fill="#868995" stroke="#000000" stroke-width="1.2"/><g><g><g><g fill="#868995" stroke="#000000" stroke-width="1.2"><path d="M163.80566,234.08238c0,0 14.70057,0.0323 16.44297,1.76388c1.6973,1.68676 3.56964,24.71773 2.15979,26.45859c-1.82709,2.25607 -16.54198,1.91087 -16.54198,1.91087"/></g><g fill="none" stroke="none" stroke-width="1" font-family="sans-serif" font-weight="normal" font-size="12" text-anchor="start"/><g fill="none" stroke="none" stroke-width="1" font-family="sans-serif" font-weight="normal" font-size="12" text-anchor="start"/></g><g><g fill="#868995" stroke="#000000" stroke-width="1.2"><path d="M166.77244,264.21573c0,0 -14.65853,0.3452 -16.85394,-1.91087c-1.69406,-1.74086 -3.58171,-24.77183 -2.15979,-26.45859c1.45971,-1.73158 16.15501,-1.76388 16.15501,-1.76388"/></g><g fill="none" stroke="none" stroke-width="1" font-family="sans-serif" font-weight="normal" font-size="12" text-anchor="start"/><g fill="none" stroke="none" stroke-width="1" font-family="sans-serif" font-weight="normal" font-size="12" text-anchor="start"/></g></g><g><g><g fill="#4e4f56" stroke="#000000" stroke-width="1.2"><path d="M163.95693,235.85779c0,0 12.96939,0.0285 14.5066,1.55616c1.49742,1.48812 3.14926,21.8069 1.90544,23.34275c-1.61193,1.99039 -14.59394,1.68584 -14.59394,1.68584"/></g><g fill="none" stroke="none" stroke-width="1" font-family="sans-serif" font-weight="normal" font-size="12" text-anchor="start"/><g fill="none" stroke="none" stroke-width="1" font-family="sans-serif" font-weight="normal" font-size="12" text-anchor="start"/></g><g><g fill="#4e4f56" stroke="#000000" stroke-width="1.2"><path d="M166.57432,262.44254c0,0 -12.93229,0.30455 -14.86917,-1.68584c-1.49456,-1.53585 -3.15992,-21.85463 -1.90544,-23.34275c1.28781,-1.52766 14.25254,-1.55616 14.25254,-1.55616"/></g><g fill="none" stroke="none" stroke-width="1" font-family="sans-serif" font-weight="normal" font-size="12" text-anchor="start"/><g fill="none" stroke="none" stroke-width="1" font-family="sans-serif" font-weight="normal" font-size="12" text-anchor="start"/></g></g><g><g><g fill="#9497a4" stroke="#000000" stroke-width="1.2"><path d="M164.71337,244.73486c0,0 4.31347,0.00948 4.82472,0.51756c0.49803,0.49493 1.04741,7.25272 0.63373,7.76352c-0.53611,0.66198 -4.85377,0.56069 -4.85377,0.56069"/></g><g fill="none" stroke="none" stroke-width="1" font-family="sans-serif" font-weight="normal" font-size="12" text-anchor="start"/><g fill="none" stroke="none" stroke-width="1" font-family="sans-serif" font-weight="normal" font-size="12" text-anchor="start"/></g><g><g fill="#9497a4" stroke="#000000" stroke-width="1.2"><path d="M165.58389,253.57664c0,0 -4.30113,0.10129 -4.94531,-0.56069c-0.49707,-0.51081 -1.05095,-7.26859 -0.63373,-7.76352c0.42831,-0.50808 4.74023,-0.51756 4.74023,-0.51756"/></g><g fill="none" stroke="none" stroke-width="1" font-family="sans-serif" font-weight="normal" font-size="12" text-anchor="start"/><g fill="none" stroke="none" stroke-width="1" font-family="sans-serif" font-weight="normal" font-size="12" text-anchor="start"/></g></g></g><g><g><g><g fill="#868995" stroke="#000000" stroke-width="1.2"><path d="M166.84308,271.93165c0,0 11.15188,0.0245 12.47367,1.33808c1.28757,1.27958 2.70793,18.75092 1.63842,20.07154c-1.38604,1.71146 -12.54877,1.44959 -12.54877,1.44959"/></g><g fill="none" stroke="none" stroke-width="1" font-family="sans-serif" font-weight="normal" font-size="12" text-anchor="start"/><g fill="none" stroke="none" stroke-width="1" font-family="sans-serif" font-weight="normal" font-size="12" text-anchor="start"/></g><g><g fill="#868995" stroke="#000000" stroke-width="1.2"><path d="M169.09371,294.79087c0,0 -11.11999,0.26187 -12.78543,-1.44959c-1.28511,-1.32062 -2.71709,-18.79196 -1.63842,-20.07153c1.10733,-1.31358 12.25522,-1.33808 12.25522,-1.33808"/></g><g fill="none" stroke="none" stroke-width="1" font-family="sans-serif" font-weight="normal" font-size="12" text-anchor="start"/><g fill="none" stroke="none" stroke-width="1" font-family="sans-serif" font-weight="normal" font-size="12" text-anchor="start"/></g></g><g><g><g fill="#4e4f56" stroke="#000000" stroke-width="1.2"><path d="M166.95783,273.2785c0,0 9.8386,0.02162 11.00473,1.18051c1.13595,1.12889 2.38904,16.54275 1.44547,17.70785c-1.22281,1.50991 -11.07099,1.27888 -11.07099,1.27888"/></g><g fill="none" stroke="none" stroke-width="1" font-family="sans-serif" font-weight="normal" font-size="12" text-anchor="start"/><g fill="none" stroke="none" stroke-width="1" font-family="sans-serif" font-weight="normal" font-size="12" text-anchor="start"/></g><g><g fill="#4e4f56" stroke="#000000" stroke-width="1.2"><path d="M168.94343,293.4457c0,0 -9.81046,0.23103 -11.27978,-1.27888c-1.13378,-1.1651 -2.39712,-16.57896 -1.44547,-17.70785c0.97693,-1.15889 10.812,-1.18051 10.812,-1.18051"/></g><g fill="none" stroke="none" stroke-width="1" font-family="sans-serif" font-weight="normal" font-size="12" text-anchor="start"/><g fill="none" stroke="none" stroke-width="1" font-family="sans-serif" font-weight="normal" font-size="12" text-anchor="start"/></g></g><g><g><g fill="#9497a4" stroke="#000000" stroke-width="1.2"><path d="M167.53168,280.01264c0,0 3.2722,0.00719 3.66005,0.39262c0.3778,0.37545 0.79457,5.50193 0.48075,5.88942c-0.40669,0.50218 -3.68208,0.42534 -3.68208,0.42534"/></g><g fill="none" stroke="none" stroke-width="1" font-family="sans-serif" font-weight="normal" font-size="12" text-anchor="start"/><g fill="none" stroke="none" stroke-width="1" font-family="sans-serif" font-weight="normal" font-size="12" text-anchor="start"/></g><g><g fill="#9497a4" stroke="#000000" stroke-width="1.2"><path d="M168.19208,286.72004c0,0 -3.26285,0.07684 -3.75152,-0.42534c-0.37708,-0.3875 -0.79725,-5.51397 -0.48074,-5.88942c0.32492,-0.38543 3.59594,-0.39262 3.59594,-0.39262"/></g><g fill="none" stroke="none" stroke-width="1" font-family="sans-serif" font-weight="normal" font-size="12" text-anchor="start"/><g fill="none" stroke="none" stroke-width="1" font-family="sans-serif" font-weight="normal" font-size="12" text-anchor="start"/></g></g></g></g><path d="M187.34613,300.92053l-3.94905,-103.37655h113.20589l-3.94904,103.37655z" fill="#868995" stroke="#000000" stroke-width="1.2" stroke-linecap="butt"/><path d="M192.35432,176.07743" fill="none" stroke="#000000" stroke-width="1.2" stroke-linecap="round"/><path d="M200.34227,180.47579" fill="none" stroke="#000000" stroke-width="1.2" stroke-linecap="round"/><g><g stroke-linecap="round"><g stroke="#000000" stroke-width="1.2"><path d="M205.97055,159.05795c-15.80698,-2.70047 -27.28382,-33.40886 -27.28382,-33.40886c10.03725,-1.53627 14.20291,2.23324 14.73994,2.59262c0.53716,0.36023 10.45364,8.45743 10.45364,8.45743c-0.78946,13.43952 2.09023,22.3588 2.09023,22.3588zM204.25689,133.83928c0,0 -0.34681,2.03797 -0.39319,3.14409M205.97055,159.05795c0.2891,0.89753 1.09989,2.28513 1.09989,2.28513" fill="#be1e2d"/><path d="M199.45039,155.88746c-2.98934,-1.95838 -6.64021,-5.03841 -10.12749,-9.7832c-3.10918,-4.2307 -6.35929,-10.84971 -8.43225,-15.41018l0.0629,-0.06802c6.18814,-1.35694 9.92376,2.72176 9.92376,2.72176l0.23276,0.32725c1.55246,2.42054 3.2124,4.84797 4.54681,6.39205c0.78779,0.91308 1.62349,1.70677 2.40086,2.36568c0,0 1.65402,4.21074 2.00218,7.18625c0.5211,4.40108 -0.73324,6.20229 -0.73324,6.20229z" fill="#929497"/></g><path d="M267.62073,169.7007l-10.56979,8.78983l-24.23493,1.08631l-10.15284,4.81689l-15.57279,-4.09083l-6.87222,-8.07573l-5.99259,-9.73993l-3.747,-12.35966l0.22483,-12.30893l2.77011,-9.45758l4.57013,-9.31075l6.35995,-8.48576l7.26033,-7.63892l8.12457,-7.07733l5.72397,-4.08832l2.4512,-2.8918l2.63895,-4.70955l1.7246,-4.54462l1.38307,-6.10896l-0.56207,-8.16898l4.7072,5.5337l4.91317,7.15922l0.11926,-3.92292l1.03846,2.11565l4.08067,6.66909l5.72866,6.29918l3.7641,2.95454l5.48524,4.37811l6.67697,5.27116l6.01298,6.11101l4.98979,6.54793l4.32581,7.38778l3.20899,7.08583l1.10643,7.51632l0.50035,7.59709l-1.01312,6.59667l-2.35981,8.12859l-2.90452,5.0455l-5.01501,6.82626z" fill="#be1e2d" stroke="#8c8c8c" stroke-width="0"/><path d="M278.42035,170.76317l-10.85034,-0.98438l-10.5516,8.94822l-24.17001,0.81725l-10.16137,4.77354l-14.81628,-3.3773c0,0 -48.92134,-41.72334 17.34022,-88.62207c0,0 11.61106,-11.67804 7.4611,-27.7364c-0.33752,-1.30609 9.90881,13.41142 9.90881,13.41142c0,0 -0.16795,-5.31298 0.06724,-4.65278c2.6064,7.31652 11.64439,16.54287 11.64439,16.54287c56.33199,36.66998 29.05074,75.0729 29.05074,75.0729z" fill="none" stroke="#000000" stroke-width="1.2"/><g stroke="#000000" stroke-width="1.2"><path d="M281.2838,126.4902c0,0 7.94475,-11.28994 8.39515,-11.83133c0.45047,-0.54058 3.69376,-5.6127 14.22361,-8.3284c0,0 -3.73932,32.16646 -19.01299,41.02628c0,0 0.6278,-9.15785 -3.60577,-20.86655zM281.37327,126.73785c-0.32965,-0.97124 -1.20099,-2.65419 -1.20099,-2.65419M284.363,149.8506c0,0 0.46407,-1.57259 0.52655,-2.49385" fill="#be1e2d"/><path d="M290.77196,141.75161c0,0 -1.72735,-1.10112 -2.32636,-5.25317c-0.40918,-2.80543 0.18469,-7.24885 0.18469,-7.24885c0.61663,-0.90666 1.25771,-1.95774 1.81988,-3.09617c0.95289,-1.92607 2.00865,-4.77554 2.95765,-7.57503l0.15142,-0.3878c0,0 2.72988,-5.1736 9.32651,-6.48105l0.08092,0.03525c-0.92753,4.92722 -2.51757,12.1769 -4.57594,17.23127c-2.30879,5.66865 -5.20846,9.91376 -7.72679,12.88519z" fill="#929497"/></g></g><g><g><path d="M277.49084,148.89451c2.03949,15.69502 -13.27303,30.62297 -34.20146,33.3425c-20.92844,2.71954 -39.5476,-7.79916 -41.58707,-23.49419c-2.03949,-15.69502 13.27301,-30.62297 34.20145,-33.3425c20.92843,-2.71954 39.54761,7.79916 41.58708,23.49419z" fill="#e6e7e8" stroke="#000000" stroke-width="1.2" stroke-linecap="butt"/><path d="M218.29097,181.72297l2.24086,2.63964l2.81972,1.71353l-1.81802,0.61441l-4.3688,-0.56681l-4.03472,-1.83927l-1.8117,-2.41178l-4.86886,-2.10904l-3.66596,-2.07628l0.21057,2.37029c-5.6306,-9.29853 -14.67046,-18.78609 -12.51357,-32.15825c25.90699,-30.88079 71.33963,-39.56904 88.80565,-8.10915c0.23356,0.42068 0.45311,0.84094 0.65925,1.26079c0.15837,0.63628 0.2754,1.23197 0.33624,1.77364c0.68829,6.12718 0.5335,12.20691 0.68911,18.40553c0.01024,0.4084 -0.0446,0.86648 -0.14022,1.35062l-0.80908,1.36326l-0.34044,-1.42517l-2.09085,5.41464l-4.45601,5.1342l-2.86563,1.84179l-0.08653,-4.25004l-0.59841,-5.79986l-1.05889,-4.56452l-1.08747,-0.00564l0.27024,-1.50452l0.92338,-3.64656l-0.37308,-4.06587l-1.19277,-4.40017l-3.78816,-4.06291l-6.19331,-3.45651l-8.04657,-2.18709l-9.2704,-0.85254l2.44027,0.85843l3.88695,2.43374l2.28268,3.22995l-17.35697,-2.15279l-16.76508,-2.37663l-0.38781,2.98923l-2.13085,6.30147l-2.03453,5.84814l0.69476,5.34652l3.27136,4.86479l4.45763,3.24122l-3.13095,0.99461l-2.74805,0.3571l0.45065,3.46802l2.16757,3.5388l2.41657,3.06561l2.66559,2.59244z" fill="#be1e2d" stroke="#8c8c8c" stroke-width="0" stroke-linecap="butt"/><path d="M213.65488,138.06049c-0.59085,8.03684 -4.97164,12.54406 -4.42323,16.70312c1.12879,8.56079 8.59302,11.56641 8.59302,11.56641c0,0 -5.10781,3.15902 -11.44921,0.00665" fill="none" stroke="#000000" stroke-width="1.2" stroke-linecap="round"/><path d="M201.29377,158.34139c-0.82252,-1.54008 -1.62987,-3.31742 -2.40962,-5.3651" fill="none" stroke="#000000" stroke-width="1.2" stroke-linecap="round"/><path d="M207.13257,136.2461c15.62866,4.15972 41.13658,5.92854 41.13658,5.92854c0,0 -2.932,-4.16932 -8.72946,-6.0685c0,0 36.20299,-0.69744 27.17145,24.49766c0,0 3.47114,-2.0895 5.70834,-5.91812" fill="none" stroke="#000000" stroke-width="1.2" stroke-linecap="round"/><path d="M273.85817,145.58257c0.34434,1.77161 0.53321,2.5923 0.24566,4.07676" fill="none" stroke="#000000" stroke-width="1.2" stroke-linecap="round"/><path d="M278.80226,163.26039c-1.40576,6.8456 -9.09142,11.5159 -9.09142,11.5159c0,0 0.26815,-9.75285 -1.92091,-14.78241" fill="none" stroke="#000000" stroke-width="1.2" stroke-linecap="round"/><path d="M200.77646,158.11386c-3.79981,7.92552 2.31325,21.6211 2.31325,21.6211c0,0 -17.1803,-20.12271 -12.16994,-32.89608" fill="none" stroke="#000000" stroke-width="1.2" stroke-linecap="round"/><path d="M281.57361,160.89208c-1.23474,2.48489 -2.24586,3.86586 -2.24586,3.86586c0,0 0.24384,-9.72787 -5.25469,-14.97553" fill="none" stroke="#000000" stroke-width="1.2" stroke-linecap="round"/><path d="M212.06793,167.86099c-0.59681,6.80595 7.78029,12.76834 7.78029,12.76834c0,0 -10.27932,3.24388 -17.49723,-3.5199" fill="none" stroke="#000000" stroke-width="1.2" stroke-linecap="round"/><path d="M217.59367,181.20102c1.42372,3.13537 5.88415,4.86098 5.88415,4.86098c0,0 -8.19496,2.55084 -13.05275,-4.71443" fill="none" stroke="#000000" stroke-width="1.2" stroke-linecap="round"/></g><g fill="none" stroke="none" stroke-width="1" stroke-linecap="butt" font-family="sans-serif" font-weight="normal" font-size="12" text-anchor="start"/></g></g><path d="M266.95966,164.10719" fill="none" stroke="#000000" stroke-width="1.2" stroke-linecap="round"/><g stroke="#000000" stroke-width="1.2" stroke-linecap="butt"><g fill="#868995"><path d="M240.75086,244.5221c0,0 -41.94558,0.42456 -44.92372,-2.35022c-2.29803,-2.14112 -2.30937,-30.46732 0,-32.5419c2.37074,-2.1297 44.33295,-2.16943 44.33295,-2.16943"/><path d="M239.83995,207.46055c0,0 41.96221,0.03973 44.33295,2.16943c2.30938,2.07458 2.29804,30.40079 0,32.5419c-2.97814,2.77478 -44.92372,2.35022 -44.92372,2.35022"/></g><g fill="#4e4f56"><path d="M240.71254,242.40882c0,0 -39.80476,0.37611 -42.6309,-2.08203c-2.18075,-1.89678 -2.19151,-26.99059 0,-28.82843c2.24974,-1.88667 42.07028,-1.92187 42.07028,-1.92187"/><path d="M239.8481,209.57649c0,0 39.82055,0.0352 42.07029,1.92187c2.19151,1.83784 2.18075,26.93165 0,28.82843c-2.82614,2.45814 -42.63091,2.08203 -42.63091,2.08203"/></g><g fill="#9497a4"><path d="M240.23223,231.45284c0,0 -12.9719,0.12494 -13.8929,-0.69163c-0.71068,-0.6301 -0.71419,-8.96603 0,-9.57654c0.73316,-0.62673 13.7102,-0.63843 13.7102,-0.63843"/><path d="M239.95053,220.54625c0,0 12.97703,0.0117 13.7102,0.63843c0.71418,0.61051 0.71068,8.94644 0,9.57654c-0.92101,0.81657 -13.8929,0.69163 -13.8929,0.69163"/></g></g><g stroke="#000000" stroke-width="1.2" stroke-linecap="butt"><g fill="#868995"><path d="M240.65984,285.68289c0,0 -36.86021,0.37309 -39.47728,-2.06529c-2.01943,-1.88153 -2.02939,-26.77355 0,-28.59661c2.08332,-1.8715 38.95814,-1.90641 38.95814,-1.90641"/><path d="M239.85936,253.11459c0,0 36.87483,0.03491 38.95815,1.90641c2.02939,1.82306 2.01943,26.71508 0,28.59661c-2.61708,2.43837 -39.47729,2.06528 -39.47729,2.06528"/></g><g fill="#4e4f56"><path d="M240.62617,283.82581c0,0 -34.97894,0.33051 -37.46244,-1.82961c-1.91636,-1.66682 -1.92582,-23.71832 0,-25.33335c1.97699,-1.65794 36.96979,-1.68887 36.96979,-1.68887"/><path d="M239.86654,254.974c0,0 34.99281,0.03093 36.9698,1.68887c1.92582,1.61503 1.91636,23.66653 0,25.33335c-2.48351,2.16012 -37.46245,1.82961 -37.46245,1.82961"/></g><g fill="#9497a4"><path d="M240.20408,274.19811c0,0 -11.39922,0.10979 -12.20856,-0.60778c-0.62452,-0.5537 -0.6276,-7.87901 0,-8.4155c0.64428,-0.55075 12.04801,-0.56103 12.04801,-0.56103"/><path d="M239.95653,264.61378c0,0 11.40373,0.01028 12.04801,0.56103c0.6276,0.53649 0.62452,7.8618 0,8.41551c-0.80934,0.71757 -12.20856,0.60777 -12.20856,0.60777"/></g></g><path d="M78.03571,341.96432v-323.92859h323.92859v323.92859z" fill="none" stroke="#000000" stroke-width="0" stroke-linecap="butt"/><path d="M233.81287,178.36271c0.19222,-0.03046 0.37625,-0.05462 0.55232,-0.07269c0.29633,-0.08263 0.60614,-0.09766 0.90426,-0.03913c6.73831,0.17426 -2.29982,12.16217 -4.90134,12.99201c-2.20611,0.7037 -6.62528,-0.76948 -5.4146,-3.96954c0.43698,-1.15501 7.71126,-8.48157 8.79745,-8.82805z" fill="#be1e2d" stroke="#000000" stroke-width="1.2" stroke-linecap="butt"/><g stroke="#000000" stroke-width="1.2"><path d="M224.24773,195.64747c-0.20075,-0.23931 -2.54912,-3.24481 -2.54912,-3.24481c0,0 0.30497,5.07531 -3.07778,6.46116c-1.83161,0.75038 -5.58637,0.17134 -7.61019,0.33079c0,0 -2.31612,0.18069 -2.33711,-2.1682c-0.02101,-2.34889 2.29511,-2.52957 2.29511,-2.52957c0.44857,-0.03468 1.00464,-0.01555 1.60718,0.02062c2.9219,-6.03995 5.06467,-15.99615 12.84134,-10.87992c3.19216,2.10011 3.85293,2.92921 3.85293,2.92921c0,0 3.81873,-10.12802 8.38343,-9.51003c14.89781,2.0169 7.82443,20.14496 1.89661,20.80863c-8.99317,1.00687 -12.85817,0.6958 -15.30242,-2.21788z" fill="#be1e2d" stroke-linecap="butt"/><path d="M230.43683,191.69065c-0.33323,-3.23084 3.06689,-14.25606 7.65242,-10.87627c3.6096,2.66046 1.21075,8.40848 -0.54796,11.36778c-1.97978,3.3313 -6.7433,3.01017 -7.10447,-0.4915z" fill="#e6e7e8" stroke-linecap="round"/></g><path d="M243.08423,179.95587c1.30312,-1.59808 3.87366,-1.19789 4.92628,-0.85408c2.98369,0.97453 2.8648,3.70028 3.22544,6.73004c0.3137,2.63537 1.14706,5.54849 2.7206,7.13651c3.19943,0.88535 9.02888,-0.09131 7.72778,4.3835c-0.31197,1.07289 -6.1355,1.55391 -8.37305,1.63021c1.23043,2.43079 -1.19588,2.74462 -3.21085,1.47362c-0.82643,-0.5213 -2.86047,-1.3388 -4.11004,-2.89521c-1.24958,-1.55641 -0.31107,-2.38537 -0.36071,-3.60848c-0.11263,-2.77487 -1.15763,-3.88804 -1.72253,-6.42255" fill="#be1e2d" stroke="#000000" stroke-width="1.2" stroke-linecap="butt"/><path d="M239.39169,194.69463c2.01038,5.49559 0.43286,17.26847 -5.7669,14.84509c-0.94825,-0.37065 -1.42397,-1.40344 -2.13595,-2.10516c-0.48745,-2.51329 -0.22646,-4.96909 -0.7529,-7.47646c-0.48864,-2.32735 -2.15919,-4.94101 -1.92401,-7.37356c0.45791,-4.73612 8.27032,-5.6391 11.09368,-2.2611" fill="#be1e2d" stroke="#000000" stroke-width="1.2" stroke-linecap="butt"/><path d="M258.47727,151.96666l-0.18144,-0.06755l0.31723,-0.85206c0.0548,-0.15649 0.19277,-0.27784 0.36824,-0.30308c0.23152,-0.03331 0.44752,0.11227 0.50807,0.33201l0.16259,0.5553c0.18397,0.58494 0.17324,1.18074 0.29112,1.75574c0.0328,-0.01376 0.06548,-0.02726 0.09797,-0.0405c0.72207,-1.50768 1.89708,-3.88028 2.61074,-3.78364c1.22323,0.16566 0.94837,3.26714 0.63342,4.75375c0.02916,0.2473 -0.04323,0.48432 -0.185,0.66813c-0.01894,0.04053 -0.13045,0.25718 -0.359,0.28069c-0.007,0.00305 -0.01405,0.00603 -0.02113,0.00892l-0.85326,0.37002l-0.00219,-0.00505l-0.01452,0.01208c-4.08221,1.58241 -8.4611,2.64323 -12.82915,2.96632c0,0 -0.61676,0.04426 -0.87451,-0.44589c-0.09833,-0.1147 -0.17508,-0.27339 -0.2066,-0.49251c-0.13084,-0.90916 0.77832,-1.04 0.77832,-1.04l0.41978,-0.05721c2.68589,-0.61775 5.51757,-0.94642 8.11098,-1.9077c0.12279,-0.04551 0.28332,-0.11885 0.47052,-0.20995c0.29386,-0.80364 0.46776,-1.67774 0.75779,-2.4978z" fill="#000000" stroke="none" stroke-width="0.5" stroke-linecap="butt"/><path d="M224.23744,157.81958c0.5465,0.73049 1.00772,1.56007 1.55192,2.2723c0.19971,0.02276 0.36929,0.03739 0.49531,0.03773c2.66162,0.00734 5.31603,-0.72288 7.94063,-1.10214l0.39646,-0.09955c0,0 0.8611,-0.20852 1.06124,0.77177c0.04825,0.23625 0.03484,0.42767 -0.01329,0.58217c-0.05999,0.59903 -0.62859,0.78606 -0.62859,0.78606c-4.03035,1.31473 -8.32806,1.87807 -12.54184,1.79556l-0.01724,-0.00691l-0.0002,0.006l-0.89448,-0.05747c-0.00736,-0.00028 -0.01472,-0.00069 -0.02206,-0.00117c-0.21319,0.06202 -0.38884,-0.11782 -0.42,-0.15219c-0.19133,-0.13481 -0.33903,-0.35026 -0.39924,-0.61448c-0.80163,-1.40365 -2.13125,-4.47607 -1.09204,-5.10653c0.60631,-0.36782 2.4887,1.6191 3.66281,2.89096c0.03376,0.00131 0.06778,0.00283 0.10201,0.00457c-0.09508,-0.63323 -0.31277,-1.23929 -0.35205,-1.90759l-0.04809,-0.62988c-0.02244,-0.24783 0.12044,-0.47829 0.33972,-0.53139c0.16619,-0.04026 0.33229,0.03204 0.43609,0.17164l0.58207,0.75302l-0.13914,0.13753z" fill="#000000" stroke="none" stroke-width="0.5" stroke-linecap="butt"/><path d="M257.09828,157.88573c0,0 3.70758,-3.5022 7.5602,-2.7381" fill="#e6e7e8" stroke="#000000" stroke-width="1.2" stroke-linecap="round"/><path d="M227.7329,187.08959c-2.17958,0.581 -3.46262,-1.8853 -3.46262,-1.8853c0,0 -0.08067,-0.00934 -3.86981,0.19754c-5.10452,0.27869 -4.89027,-6.12033 0.30874,-7.67837c0,0 4.48782,-1.90043 6.3859,-0.94134c0.63679,0.32176 0.40315,1.36532 0.56822,2.09794c0.33111,1.46959 2.45349,7.57408 0.06956,8.20954z" fill="#be1e2d" stroke="#000000" stroke-width="1.2" stroke-linecap="butt"/><path d="M239.72801,174.09425c4.26582,2.86256 7.46609,5.56738 7.14802,6.04136c-0.31806,0.47398 -4.03402,-1.46236 -8.29984,-4.32493c-4.26582,-2.86256 -7.46609,-5.56738 -7.14803,-6.04136c0.31806,-0.47398 4.03403,1.46236 8.29984,4.32493z" fill="#706d6d" stroke="#000000" stroke-width="1.2" stroke-linecap="butt"/></g></g></svg>