<svg version="1.1" xmlns="http://www.w3.org/2000/svg" xmlns:xlink="http://www.w3.org/1999/xlink" width="98.61834" height="127.51905" viewBox="0,0,98.61834,127.51905"><g transform="translate(-186.42104,-106.78965)"><g stroke-miterlimit="10"><path d="M230.82036,210.09145c-0.57258,-7.83446 5.31434,-14.64974 13.14881,-15.22232c7.83446,-0.57258 14.64974,5.31434 15.22232,13.14881c0.57258,7.83446 -5.31434,14.64974 -13.14881,15.22232c-7.83446,0.57258 -14.64974,-5.31434 -15.22232,-13.14881z" fill="#d5d5d5" fill-rule="nonzero" stroke="#001026" stroke-width="1.2" stroke-linecap="butt" stroke-linejoin="miter"/><path d="M199.60871,219.94627c-0.5993,-8.20008 5.56234,-15.33339 13.76242,-15.9327c8.20008,-0.5993 15.33339,5.56234 15.9327,13.76242c0.5993,8.20008 -5.56234,15.33339 -13.76242,15.9327c-8.20008,0.5993 -15.33339,-5.56234 -15.9327,-13.76242z" fill="#d5d5d5" fill-rule="nonzero" stroke="#001026" stroke-width="1.2" stroke-linecap="butt" stroke-linejoin="miter"/><path d="M260.53325,202.266c0,0 10.3761,-24.25951 10.85269,-30.83011c0.53296,-7.34771 -15.9334,-20.8503 -15.9334,-20.8503l9.15054,-5.79837c0,0 16.75309,16.63743 16.82612,23.64725c0.08342,8.00769 -12.03539,40.12211 -12.03539,40.12211z" fill="#2b2b2b" fill-rule="nonzero" stroke="#001026" stroke-width="1.2" stroke-linecap="butt" stroke-linejoin="miter"/><path d="M199.29918,206.3441l-1.13274,-4.68145c0,0 44.3894,-3.6937 57.10498,-3.66638c6.09585,0.0131 15.28155,3.82196 15.28155,3.82196l-0.70174,7.23996c0,0 -25.10581,3.9154 -37.15024,3.45206c-11.44199,-0.44017 -33.40181,-6.16615 -33.40181,-6.16615z" fill="#2b2b2b" fill-rule="nonzero" stroke="#001026" stroke-width="1.2" stroke-linecap="butt" stroke-linejoin="miter"/><path d="M198.2119,202.28463l-3.92406,-67.16488c0,0 8.3068,-20.79337 15.42828,-21.31385c10.57601,-0.77295 39.42343,-2.88127 39.42343,-2.88127l6.371,87.17231z" fill="#2b2b2b" fill-rule="nonzero" stroke="#001026" stroke-width="1.2" stroke-linecap="butt" stroke-linejoin="miter"/><path d="M267.95481,199.47143c2.55321,-1.45985 7.6306,-4.08094 8.79054,1.55772c1.17929,5.4396 -13.81233,13.9291 -17.08865,9.39086c-1.20962,-2.02653 -1.64228,-11.41148 -2.3736,-13.19057c-1.21341,-3.07351 -11.02314,5.66672 -17.23495,5.06917c-2.8682,-0.27591 -4.61986,-9.69392 -5.03033,-10.36856c-1.29947,-2.13573 17.88205,-4.84782 26.43441,-7.78932c0.81136,4.4022 6.08511,15.49109 6.50258,15.33071z" fill="#ffab19" fill-rule="evenodd" stroke="#001026" stroke-width="1.2" stroke-linecap="round" stroke-linejoin="round"/><path d="M277.67582,159.80764c0.44272,3.7552 -9.04706,21.13626 -15.87286,23.02509c-2.40002,0.66413 -24.88828,-10.00086 -19.8579,-15.70526c5.03039,-5.70439 10.85483,-0.64272 14.94063,1.76487c3.41336,2.07855 11.66318,-9.91015 12.37179,-10.61818c1.42275,-1.55641 2.9269,-1.23695 4.84345,-0.60202c1.29676,0.4296 3.3198,0.51399 3.5749,2.13549z" fill="#ffab19" fill-rule="evenodd" stroke="#001026" stroke-width="1.2" stroke-linecap="round" stroke-linejoin="round"/><g fill-rule="evenodd"><path d="M229.80591,193.93588c0.71575,0.9167 2.20878,2.92338 -2.50904,5.57414c-4.71782,2.65077 -13.21027,-0.38322 -14.14955,-0.83028c-3.69558,-1.61493 -8.15717,-3.73845 -12.30602,-7.72922c-12.08872,-11.514 -4.88558,-26.95057 0.86692,-27.23677c5.63509,-0.34209 3.10461,10.1181 6.82393,18.94468c1.58844,3.92418 4.54626,6.48404 7.08468,8.41226c3.65665,2.60444 13.41179,1.7752 14.18907,2.86519z" fill="#ffab19" stroke="#001026" stroke-width="1.2" stroke-linecap="round" stroke-linejoin="round"/><path d="M205.21472,170.56696c0.36973,4.06418 1.88594,10.25809 1.88594,10.25809c0,0 -3.84123,-3.12432 -7.25682,-2.30188c-2.72243,0.57633 -3.48219,3.38288 -3.63855,4.31651c-0.79986,-2.25279 -1.67255,-5.26029 -0.89077,-9.92844c0.78177,-4.66816 4.30291,-9.04056 6.9864,-8.62737c2.57172,0.648 2.32054,2.68856 2.91381,6.28309z" fill="#ffffff" stroke="none" stroke-width="1" stroke-linecap="butt" stroke-linejoin="miter"/></g><g fill-rule="evenodd"><path d="M232.90548,202.54589c-16.45135,-1.88095 -12.38477,-14.01327 -13.90573,-23.33764c-1.0958,-8.17412 0.7845,-8.29643 8.17052,-13.18456c4.0221,-3.0101 6.39339,-4.77293 8.61169,-7.2857c3.37281,-3.70249 7.09784,3.35066 8.42134,7.65958c0,0 1.88743,6.45075 2.24677,10.39175c0.24043,2.83251 0.48194,15.24347 -3.46097,21.70246c-2.7376,4.48455 -10.08364,4.05411 -10.08364,4.05411z" fill="#ffab19" stroke="#001026" stroke-width="1.2" stroke-linecap="round" stroke-linejoin="round"/><path d="M245.48057,188.22619c0,0 -2.66304,0.02125 -5.70317,-0.24961c-3.73215,-0.23852 -7.19213,-0.07677 -7.90547,-6.37591c-0.28818,-5.14888 -1.40712,-11.25697 5.94688,-12.25464c6.96265,-1.04821 7.2366,4.34222 7.2366,4.34222c1.77358,8.38333 0.42516,14.53792 0.42516,14.53792z" fill="#ffffff" stroke="none" stroke-width="1" stroke-linecap="butt" stroke-linejoin="miter"/></g><path d="M256.45713,154.75298c-1.88054,-4.2439 0.03534,-9.20875 4.27925,-11.0893c4.2439,-1.88054 9.20875,0.03534 11.0893,4.27925c1.88054,4.2439 -0.03534,9.20875 -4.27925,11.0893c-4.2439,1.88054 -9.20875,-0.03534 -11.0893,-4.27925z" fill="#ffab19" fill-rule="nonzero" stroke="#001026" stroke-width="1.2" stroke-linecap="butt" stroke-linejoin="miter"/><path d="M236.01464,107.26329c0.28462,-0.22134 0.79058,-0.15805 0.91947,0.2336l3.37302,10.48202c0,0 6.72556,4.221 8.86105,7.37373c3.59239,5.25212 4.02013,9.73286 4.02013,9.73286c0,0 7.23418,1.57689 8.84647,7.17426c1.61229,5.59737 -1.98879,16.68936 -20.46908,21.74986c-18.48029,5.0605 -33.91187,1.07472 -41.82394,-9.77743c-7.91207,-10.85215 2.26682,-25.23235 1.72673,-24.39074l-3.39916,-17.69931c-0.12889,-0.39165 0.34791,-0.72729 0.76143,-0.55698l12.64365,6.99701c0,0 4.36412,-2.02349 9.03703,-2.56554c2.77797,-0.40356 5.18617,-0.37903 7.50921,-0.14774z" fill="#ffab19" fill-rule="evenodd" stroke="#001026" stroke-width="1.2" stroke-linecap="butt" stroke-linejoin="miter"/><path d="M253.05245,135.49647c0,0 7.01285,1.29227 8.62513,6.88963c1.61229,5.59737 -2.42417,16.21985 -20.71229,21.16604c-23.77117,6.75066 -36.29021,-6.77279 -30.38067,-17.83297c5.90225,-11.15991 18.03496,-2.92236 26.36888,-4.13304c7.1444,-1.02348 7.48306,-7.36504 16.09894,-6.08966z" fill="#ffffff" fill-rule="evenodd" stroke="none" stroke-width="1" stroke-linecap="butt" stroke-linejoin="miter"/><path d="M207.93213,133.10199c-0.48439,-6.62777 4.4958,-12.39332 11.12356,-12.87771c6.62777,-0.48439 12.39332,4.4958 12.87771,11.12357c0.48439,6.62777 -4.49579,12.39332 -11.12357,12.87771c-6.62777,0.48439 -12.3933,-4.4958 -12.87769,-11.12357z" fill="#ffffff" fill-rule="nonzero" stroke="#001026" stroke-width="1.2" stroke-linecap="butt" stroke-linejoin="miter"/><path d="M271.33145,135.42861c-4.41051,4.13248 -11.58407,4.75703 -11.58407,4.75703" fill="none" fill-rule="evenodd" stroke="#001026" stroke-width="1.2" stroke-linecap="round" stroke-linejoin="round"/><path d="M270.8513,146.69351c-6.2468,0.95788 -10.27491,-0.65279 -10.27491,-0.65279" fill="none" fill-rule="evenodd" stroke="#001026" stroke-width="1.2" stroke-linecap="round" stroke-linejoin="round"/><path d="M236.23086,139.03198c2.09441,-0.15307 4.30314,-0.11396 4.4539,0.57689c0.20178,1.38899 -1.09013,4.29087 -2.67859,4.50723c-1.78063,0.33067 -6.15169,-1.85654 -6.26831,-3.45228c-0.1872,-1.18952 2.49833,-1.48606 4.49301,-1.63184z" fill="#001026" fill-rule="evenodd" stroke="#001026" stroke-width="1.2" stroke-linecap="round" stroke-linejoin="round"/><path d="M191.24123,140.81605c0,0 8.78122,2.16569 12.49787,5.00233" fill="none" fill-rule="evenodd" stroke="#001026" stroke-width="1.2" stroke-linecap="round" stroke-linejoin="round"/><path d="M204.29342,149.28726c-4.16465,2.00891 -11.62514,1.45123 -11.62514,1.45123" fill="none" fill-rule="evenodd" stroke="#001026" stroke-width="1.2" stroke-linecap="round" stroke-linejoin="round"/><path d="M231.96171,131.59145c0.1424,1.94844 -1.75902,7.57527 -3.53034,7.70472c-1.77132,0.12946 -2.704,-5.29024 -2.8464,-7.23868c-0.1424,-1.94844 1.15814,-3.6462 2.92945,-3.77565c1.78426,0.04767 3.30489,1.36116 3.44729,3.30961" fill="#001026" fill-rule="evenodd" stroke="none" stroke-width="1" stroke-linecap="butt" stroke-linejoin="miter"/><path d="M233.42312,121.64364c0,0 -0.71648,5.52041 -2.69161,3.79829c-3.74493,-3.26521 -16.50092,-14.89159 -16.50092,-14.89159" fill="none" fill-rule="nonzero" stroke="#001026" stroke-width="2.5" stroke-linecap="round" stroke-linejoin="miter"/><path d="M237.16399,129.52398c-0.44527,-6.09253 4.56663,-11.42416 11.19439,-11.90856c6.62777,-0.48439 12.36161,4.0619 12.80688,10.15442c0.44527,6.09253 -4.56663,11.42416 -11.1944,11.90856c-6.62777,0.48439 -12.36159,-4.06189 -12.80686,-10.15442z" fill="#ffffff" fill-rule="nonzero" stroke="#001026" stroke-width="1.2" stroke-linecap="butt" stroke-linejoin="miter"/><path d="M261.21725,128.3373c0.1309,1.79109 -1.79606,7.06834 -3.56738,7.1978c-1.77132,0.12946 -2.67845,-4.94066 -2.80936,-6.73175c-0.1309,-1.79109 1.17905,-3.3601 2.95036,-3.48956c1.78322,0.03337 3.29547,1.23242 3.42637,3.02351" fill="#001026" fill-rule="evenodd" stroke="none" stroke-width="1" stroke-linecap="butt" stroke-linejoin="miter"/><path d="M237.36832,123.81555c0,0 3.07012,-4.50022 5.53609,-5.08541c4.15162,-0.9852 16.80179,-3.97231 16.80179,-3.97231" fill="none" fill-rule="nonzero" stroke="#001026" stroke-width="2.5" stroke-linecap="round" stroke-linejoin="miter"/><path d="M190.42274,171.07879c2.93105,-3.04892 28.24203,-7.30104 32.31774,-2.62905c1.53953,8.85771 -8.75368,6.22497 -13.18716,6.80161c-2.67386,0.37153 -5.41664,0.87077 -7.30399,1.00697c-0.22148,0.13146 0.82634,13.57877 -2.62124,19.50328c-2.14102,3.67927 -9.19622,1.04154 -9.71219,0.87914c-6.64045,-2.09003 0.17611,-24.05751 0.50684,-25.56196z" fill="#ffab19" fill-rule="evenodd" stroke="#001026" stroke-width="1.2" stroke-linecap="round" stroke-linejoin="round"/><path d="M233.28894,201.62271c0.64188,8.78257 -1.74689,16.11486 -5.33547,16.37713c-3.58858,0.26227 -7.01803,-6.6448 -7.65991,-15.42736c-0.64188,-8.78257 1.74689,-16.11486 5.33547,-16.37713c3.58858,-0.26227 7.01803,6.6448 7.65991,15.42736z" fill="#ffab19" fill-rule="nonzero" stroke="#001026" stroke-width="1.2" stroke-linecap="butt" stroke-linejoin="miter"/><g stroke="#001026" stroke-width="1.2" stroke-linecap="round"><g fill="#ffffff" fill-rule="evenodd" stroke-linejoin="round"><path d="M210.07639,146.89853c-0.04611,-0.5268 0.4461,-0.96802 0.98444,-0.88244c2.58302,0.70284 9.87934,2.18746 17.82749,2.02248c7.14643,-0.2275 11.32626,-0.99155 13.26718,-1.5596c0.64697,-0.18934 1.23143,0.42304 1.02567,1.10461c-0.87401,3.65968 -8.85354,22.34996 -22.7513,22.77038c-12.10006,-0.26781 -10.18362,-16.96749 -10.35347,-23.45542z"/></g><path d="M253.40544,143.08865c-1.56956,0.51782 -3.93011,1.33949 -5.64129,1.75378c-2.46191,0.59605 -6.42684,1.75133 -6.42684,1.75133" fill="none" fill-rule="nonzero" stroke-linejoin="miter"/></g><g fill-rule="nonzero" stroke="#001026" stroke-width="1.2" stroke-linecap="round" stroke-linejoin="miter"><path d="M273.94866,167.79663l-3.48739,1.52521l-2.32138,-3.80491l-1.8924,-1.45604l0.75922,-4.6803z" fill="#ffab19"/><path d="M276.03298,151.46389l8.28119,10.61119l-3.36854,5.6698l-5.77181,2.71812l-2.86713,-2.06624l-0.24301,-1.05662l-2.69596,-2.77313l-0.65721,-1.40637l-2.87453,-3.06581l1.86551,-6.15851z" fill="#ffab19"/><path d="M270.50151,158.85493l-0.50615,3.12019" fill="none"/><path d="M272.96654,166.18683l1.05929,-3.85929" fill="none"/></g><path d="M248.60018,219.8191c0.29947,4.09757 -8.56516,8.08492 -19.79969,8.906c-11.23455,0.82108 -20.5847,-1.83504 -20.88418,-5.93261c-0.29947,-4.09757 8.56516,-8.08492 19.79969,-8.906c11.23455,-0.82108 20.5847,1.83504 20.88418,5.93261z" fill="#ffab19" fill-rule="nonzero" stroke="#001026" stroke-width="1.2" stroke-linecap="butt" stroke-linejoin="miter"/></g></g></svg>