<svg version="1.1" xmlns="http://www.w3.org/2000/svg" xmlns:xlink="http://www.w3.org/1999/xlink" width="323.92859" height="323.92859" viewBox="0,0,323.92859,323.92859"><g transform="translate(-78.03571,-18.03573)"><g stroke-miterlimit="10"><g stroke-linecap="butt"><path d="M287.05093,300.69281l4.37749,-69.80064l45.02029,-0.10411l-6.86993,69.90475z" fill="#868995" stroke="#000000" stroke-width="1.2"/><g><g><g><g fill="#868995" stroke="#000000" stroke-width="1.2"><path d="M314.13361,264.21573c0,0 -14.71488,0.3452 -16.54198,-1.91087c-1.40985,-1.74086 0.46249,-24.77184 2.15979,-26.4586c1.7424,-1.73158 16.44297,-1.76388 16.44297,-1.76388"/></g><g fill="none" stroke="none" stroke-width="1" font-family="sans-serif" font-weight="normal" font-size="12" text-anchor="start"/><g fill="none" stroke="none" stroke-width="1" font-family="sans-serif" font-weight="normal" font-size="12" text-anchor="start"/></g><g><g fill="#868995" stroke="#000000" stroke-width="1.2"><path d="M316.08635,234.08238c0,0 14.6953,0.0323 16.15501,1.76388c1.42192,1.68676 -0.46573,24.71773 -2.15979,26.45859c-2.19541,2.25607 -16.85394,1.91088 -16.85394,1.91088"/></g><g fill="none" stroke="none" stroke-width="1" font-family="sans-serif" font-weight="normal" font-size="12" text-anchor="start"/><g fill="none" stroke="none" stroke-width="1" font-family="sans-serif" font-weight="normal" font-size="12" text-anchor="start"/></g></g><g><g><g fill="#4e4f56" stroke="#000000" stroke-width="1.2"><path d="M314.22497,262.44254c0,0 -12.98201,0.30455 -14.59394,-1.68584c-1.24382,-1.53585 0.40802,-21.85463 1.90544,-23.34275c1.53721,-1.52767 14.5066,-1.55616 14.5066,-1.55616"/></g><g fill="none" stroke="none" stroke-width="1" font-family="sans-serif" font-weight="normal" font-size="12" text-anchor="start"/><g fill="none" stroke="none" stroke-width="1" font-family="sans-serif" font-weight="normal" font-size="12" text-anchor="start"/></g><g><g fill="#4e4f56" stroke="#000000" stroke-width="1.2"><path d="M315.94775,235.85779c0,0 12.96474,0.0285 14.25254,1.55616c1.25447,1.48812 -0.41089,21.8069 -1.90545,23.34275c-1.93687,1.99039 -14.86917,1.68584 -14.86917,1.68584"/></g><g fill="none" stroke="none" stroke-width="1" font-family="sans-serif" font-weight="normal" font-size="12" text-anchor="start"/><g fill="none" stroke="none" stroke-width="1" font-family="sans-serif" font-weight="normal" font-size="12" text-anchor="start"/></g></g><g><g><g fill="#9497a4" stroke="#000000" stroke-width="1.2"><path d="M314.68199,253.57664c0,0 -4.31767,0.10129 -4.85378,-0.56069c-0.41368,-0.51081 0.1357,-7.26859 0.63373,-7.76352c0.51126,-0.50808 4.82472,-0.51756 4.82472,-0.51756"/></g><g fill="none" stroke="none" stroke-width="1" font-family="sans-serif" font-weight="normal" font-size="12" text-anchor="start"/><g fill="none" stroke="none" stroke-width="1" font-family="sans-serif" font-weight="normal" font-size="12" text-anchor="start"/></g><g><g fill="#9497a4" stroke="#000000" stroke-width="1.2"><path d="M315.25496,244.73486c0,0 4.31192,0.00948 4.74023,0.51756c0.41723,0.49493 -0.13665,7.25272 -0.63373,7.76352c-0.64418,0.66198 -4.94531,0.56069 -4.94531,0.56069"/></g><g fill="none" stroke="none" stroke-width="1" font-family="sans-serif" font-weight="normal" font-size="12" text-anchor="start"/><g fill="none" stroke="none" stroke-width="1" font-family="sans-serif" font-weight="normal" font-size="12" text-anchor="start"/></g></g></g><g><g><g><g fill="#868995" stroke="#000000" stroke-width="1.2"><path d="M311.59362,294.79088c0,0 -11.16273,0.26187 -12.54877,-1.44959c-1.06951,-1.32062 0.35084,-18.79196 1.63841,-20.07154c1.32179,-1.31358 12.47367,-1.33808 12.47367,-1.33808"/></g><g fill="none" stroke="none" stroke-width="1" font-family="sans-serif" font-weight="normal" font-size="12" text-anchor="start"/><g fill="none" stroke="none" stroke-width="1" font-family="sans-serif" font-weight="normal" font-size="12" text-anchor="start"/></g><g><g fill="#868995" stroke="#000000" stroke-width="1.2"><path d="M313.07498,271.93165c0,0 11.14788,0.0245 12.25522,1.33808c1.07867,1.27958 -0.3533,18.75092 -1.63842,20.07154c-1.66544,1.71146 -12.78544,1.44959 -12.78544,1.44959"/></g><g fill="none" stroke="none" stroke-width="1" font-family="sans-serif" font-weight="normal" font-size="12" text-anchor="start"/><g fill="none" stroke="none" stroke-width="1" font-family="sans-serif" font-weight="normal" font-size="12" text-anchor="start"/></g></g><g><g><g fill="#4e4f56" stroke="#000000" stroke-width="1.2"><path d="M311.66294,293.4457c0,0 -9.84817,0.23103 -11.07098,-1.27888c-0.94357,-1.1651 0.30953,-16.57896 1.44547,-17.70785c1.16613,-1.15889 11.00473,-1.18051 11.00473,-1.18051"/></g><g fill="none" stroke="none" stroke-width="1" font-family="sans-serif" font-weight="normal" font-size="12" text-anchor="start"/><g fill="none" stroke="none" stroke-width="1" font-family="sans-serif" font-weight="normal" font-size="12" text-anchor="start"/></g><g><g fill="#4e4f56" stroke="#000000" stroke-width="1.2"><path d="M312.96988,273.2785c0,0 9.83507,0.02162 10.812,1.18051c0.95164,1.12889 -0.3117,16.54275 -1.44547,17.70785c-1.46932,1.50991 -11.27978,1.27888 -11.27978,1.27888"/></g><g fill="none" stroke="none" stroke-width="1" font-family="sans-serif" font-weight="normal" font-size="12" text-anchor="start"/><g fill="none" stroke="none" stroke-width="1" font-family="sans-serif" font-weight="normal" font-size="12" text-anchor="start"/></g></g><g><g><g fill="#9497a4" stroke="#000000" stroke-width="1.2"><path d="M312.00964,286.72005c0,0 -3.27538,0.07683 -3.68208,-0.42534c-0.31382,-0.3875 0.10295,-5.51397 0.48075,-5.88942c0.38784,-0.38543 3.66004,-0.39263 3.66004,-0.39263"/></g><g fill="none" stroke="none" stroke-width="1" font-family="sans-serif" font-weight="normal" font-size="12" text-anchor="start"/><g fill="none" stroke="none" stroke-width="1" font-family="sans-serif" font-weight="normal" font-size="12" text-anchor="start"/></g><g><g fill="#9497a4" stroke="#000000" stroke-width="1.2"><path d="M312.44426,280.01266c0,0 3.27103,0.00719 3.59595,0.39263c0.31651,0.37545 -0.10367,5.50192 -0.48075,5.88942c-0.48867,0.50218 -3.75152,0.42534 -3.75152,0.42534"/></g><g fill="none" stroke="none" stroke-width="1" font-family="sans-serif" font-weight="normal" font-size="12" text-anchor="start"/><g fill="none" stroke="none" stroke-width="1" font-family="sans-serif" font-weight="normal" font-size="12" text-anchor="start"/></g></g></g></g><g stroke-linecap="butt"><path d="M150.4212,300.69281l-6.86992,-69.90475l45.02029,0.10411l4.37749,69.80064z" fill="#868995" stroke="#000000" stroke-width="1.2"/><g><g><g><g fill="#868995" stroke="#000000" stroke-width="1.2"><path d="M163.80566,234.08238c0,0 14.70057,0.0323 16.44297,1.76388c1.6973,1.68676 3.56964,24.71773 2.15979,26.45859c-1.82709,2.25607 -16.54198,1.91087 -16.54198,1.91087"/></g><g fill="none" stroke="none" stroke-width="1" font-family="sans-serif" font-weight="normal" font-size="12" text-anchor="start"/><g fill="none" stroke="none" stroke-width="1" font-family="sans-serif" font-weight="normal" font-size="12" text-anchor="start"/></g><g><g fill="#868995" stroke="#000000" stroke-width="1.2"><path d="M166.77244,264.21573c0,0 -14.65853,0.3452 -16.85394,-1.91087c-1.69406,-1.74086 -3.58171,-24.77183 -2.15979,-26.45859c1.45971,-1.73158 16.15501,-1.76388 16.15501,-1.76388"/></g><g fill="none" stroke="none" stroke-width="1" font-family="sans-serif" font-weight="normal" font-size="12" text-anchor="start"/><g fill="none" stroke="none" stroke-width="1" font-family="sans-serif" font-weight="normal" font-size="12" text-anchor="start"/></g></g><g><g><g fill="#4e4f56" stroke="#000000" stroke-width="1.2"><path d="M163.95693,235.85779c0,0 12.96939,0.0285 14.5066,1.55616c1.49742,1.48812 3.14926,21.8069 1.90544,23.34275c-1.61193,1.99039 -14.59394,1.68584 -14.59394,1.68584"/></g><g fill="none" stroke="none" stroke-width="1" font-family="sans-serif" font-weight="normal" font-size="12" text-anchor="start"/><g fill="none" stroke="none" stroke-width="1" font-family="sans-serif" font-weight="normal" font-size="12" text-anchor="start"/></g><g><g fill="#4e4f56" stroke="#000000" stroke-width="1.2"><path d="M166.57432,262.44254c0,0 -12.93229,0.30455 -14.86917,-1.68584c-1.49456,-1.53585 -3.15992,-21.85463 -1.90544,-23.34275c1.28781,-1.52766 14.25254,-1.55616 14.25254,-1.55616"/></g><g fill="none" stroke="none" stroke-width="1" font-family="sans-serif" font-weight="normal" font-size="12" text-anchor="start"/><g fill="none" stroke="none" stroke-width="1" font-family="sans-serif" font-weight="normal" font-size="12" text-anchor="start"/></g></g><g><g><g fill="#9497a4" stroke="#000000" stroke-width="1.2"><path d="M164.71337,244.73486c0,0 4.31347,0.00948 4.82472,0.51756c0.49803,0.49493 1.04741,7.25272 0.63373,7.76352c-0.53611,0.66198 -4.85377,0.56069 -4.85377,0.56069"/></g><g fill="none" stroke="none" stroke-width="1" font-family="sans-serif" font-weight="normal" font-size="12" text-anchor="start"/><g fill="none" stroke="none" stroke-width="1" font-family="sans-serif" font-weight="normal" font-size="12" text-anchor="start"/></g><g><g fill="#9497a4" stroke="#000000" stroke-width="1.2"><path d="M165.58389,253.57664c0,0 -4.30113,0.10129 -4.94531,-0.56069c-0.49707,-0.51081 -1.05095,-7.26859 -0.63373,-7.76352c0.42831,-0.50808 4.74023,-0.51756 4.74023,-0.51756"/></g><g fill="none" stroke="none" stroke-width="1" font-family="sans-serif" font-weight="normal" font-size="12" text-anchor="start"/><g fill="none" stroke="none" stroke-width="1" font-family="sans-serif" font-weight="normal" font-size="12" text-anchor="start"/></g></g></g><g><g><g><g fill="#868995" stroke="#000000" stroke-width="1.2"><path d="M166.8431,271.93165c0,0 11.15188,0.0245 12.47367,1.33808c1.28757,1.27958 2.70793,18.75092 1.63842,20.07154c-1.38604,1.71146 -12.54877,1.44959 -12.54877,1.44959"/></g><g fill="none" stroke="none" stroke-width="1" font-family="sans-serif" font-weight="normal" font-size="12" text-anchor="start"/><g fill="none" stroke="none" stroke-width="1" font-family="sans-serif" font-weight="normal" font-size="12" text-anchor="start"/></g><g><g fill="#868995" stroke="#000000" stroke-width="1.2"><path d="M169.09371,294.79088c0,0 -11.11999,0.26187 -12.78543,-1.44959c-1.28511,-1.32062 -2.71709,-18.79196 -1.63842,-20.07153c1.10733,-1.31358 12.25522,-1.33808 12.25522,-1.33808"/></g><g fill="none" stroke="none" stroke-width="1" font-family="sans-serif" font-weight="normal" font-size="12" text-anchor="start"/><g fill="none" stroke="none" stroke-width="1" font-family="sans-serif" font-weight="normal" font-size="12" text-anchor="start"/></g></g><g><g><g fill="#4e4f56" stroke="#000000" stroke-width="1.2"><path d="M166.95783,273.2785c0,0 9.8386,0.02162 11.00473,1.18051c1.13595,1.12889 2.38904,16.54275 1.44547,17.70785c-1.22281,1.50991 -11.07099,1.27888 -11.07099,1.27888"/></g><g fill="none" stroke="none" stroke-width="1" font-family="sans-serif" font-weight="normal" font-size="12" text-anchor="start"/><g fill="none" stroke="none" stroke-width="1" font-family="sans-serif" font-weight="normal" font-size="12" text-anchor="start"/></g><g><g fill="#4e4f56" stroke="#000000" stroke-width="1.2"><path d="M168.94343,293.4457c0,0 -9.81046,0.23103 -11.27978,-1.27888c-1.13378,-1.1651 -2.39712,-16.57896 -1.44547,-17.70785c0.97693,-1.15889 10.812,-1.18051 10.812,-1.18051"/></g><g fill="none" stroke="none" stroke-width="1" font-family="sans-serif" font-weight="normal" font-size="12" text-anchor="start"/><g fill="none" stroke="none" stroke-width="1" font-family="sans-serif" font-weight="normal" font-size="12" text-anchor="start"/></g></g><g><g><g fill="#9497a4" stroke="#000000" stroke-width="1.2"><path d="M167.5317,280.01266c0,0 3.2722,0.00719 3.66005,0.39262c0.3778,0.37545 0.79457,5.50193 0.48075,5.88942c-0.40669,0.50218 -3.68208,0.42534 -3.68208,0.42534"/></g><g fill="none" stroke="none" stroke-width="1" font-family="sans-serif" font-weight="normal" font-size="12" text-anchor="start"/><g fill="none" stroke="none" stroke-width="1" font-family="sans-serif" font-weight="normal" font-size="12" text-anchor="start"/></g><g><g fill="#9497a4" stroke="#000000" stroke-width="1.2"><path d="M168.19208,286.72005c0,0 -3.26285,0.07684 -3.75152,-0.42534c-0.37708,-0.3875 -0.79725,-5.51397 -0.48074,-5.88942c0.32492,-0.38543 3.59594,-0.39262 3.59594,-0.39262"/></g><g fill="none" stroke="none" stroke-width="1" font-family="sans-serif" font-weight="normal" font-size="12" text-anchor="start"/><g fill="none" stroke="none" stroke-width="1" font-family="sans-serif" font-weight="normal" font-size="12" text-anchor="start"/></g></g></g></g><path d="M187.34613,300.92056l-3.94905,-103.37655h113.20589l-3.94904,103.37655z" fill="#868995" stroke="#000000" stroke-width="1.2" stroke-linecap="butt"/><path d="M192.35432,176.07743" fill="none" stroke="#000000" stroke-width="1.2" stroke-linecap="round"/><path d="M200.34227,180.47579" fill="none" stroke="#000000" stroke-width="1.2" stroke-linecap="round"/><g><g stroke-linecap="round"><g stroke="#000000" stroke-width="1.2"><path d="M194.86219,159.86528c-15.9217,-1.91117 -28.91122,-32.01092 -28.91122,-32.01092c9.94845,-2.03344 14.29639,1.52429 14.85062,1.85652c0.55441,0.33308 10.86123,7.92719 10.86123,7.92719c-0.12024,13.46214 3.19937,22.22722 3.19937,22.22722zM191.89673,134.76302c0,0 -0.24505,2.05268 -0.23637,3.15974M194.86219,159.86528c0.33337,0.88205 1.21216,2.22762 1.21216,2.22762" fill="#be1e2d"/><path d="M188.19245,157.02292c-3.08301,-1.80732 -6.88252,-4.70201 -10.6014,-9.26755c-3.3157,-4.07088 -6.89089,-10.5201 -9.18805,-14.97186l0.05944,-0.07106c6.11302,-1.66296 10.0468,2.22496 10.0468,2.22496l0.24875,0.31527c1.6709,2.34035 3.44947,4.68224 4.85901,6.15806c0.83222,0.87279 1.70635,1.62393 2.51552,2.24338c0,0 1.86134,4.12329 2.35701,7.0778c0.73928,4.36973 -0.42394,6.23108 -0.42394,6.23108z" fill="#929497"/></g><path d="M256.96529,167.4295l-10.11966,9.30451l-24.15095,2.28997l-9.90078,5.31576l-15.75693,-3.31147l-7.26526,-7.72404l-6.46946,-9.42992l-4.35691,-12.15806l-0.38747,-12.30488l2.29642,-9.58361l4.10153,-9.52647l5.93015,-8.79149l6.87152,-7.99047l7.76262,-7.47254l5.51361,-4.36787l2.30439,-3.0101l2.4015,-4.83494l1.49651,-4.62474l1.07761,-6.17018l-0.96755,-8.13093l4.97653,5.29281l5.26306,6.90608l-0.07593,-3.924l1.14236,2.0614l4.40723,6.45794l6.03478,6.00655l3.90635,2.76373l5.69615,4.09995l6.9308,4.93265l6.3094,5.80447l5.30919,6.29173l4.68779,7.16355l3.55734,6.91751l1.47879,7.45202l0.87748,7.56282l-0.68387,6.63888l-1.95272,8.23587l-2.65006,5.18367l-4.6694,7.06718z" fill="#be1e2d" stroke="#8c8c8c" stroke-width="0"/><path d="M267.80437,167.95368l-10.88585,-0.44366l-10.09362,9.4618l-24.09948,2.01801l-9.91146,5.27289l-14.96588,-2.63643c0,0 -50.9354,-39.23927 12.9123,-89.37465c0,0 11.01605,-12.24092 6.07276,-28.07307c-0.40205,-1.28769 10.5634,12.90215 10.5634,12.90215c0,0 -0.43192,-5.29804 -0.1642,-4.65036c2.96697,7.17789 12.45253,15.94342 12.45253,15.94342c58.08562,33.82367 32.74759,73.53558 32.74759,73.53558z" fill="none" stroke="#000000" stroke-width="1.2"/><g stroke="#000000" stroke-width="1.2"><path d="M268.46296,123.59309c0,0 7.37356,-11.67101 7.79648,-12.23413c0.42304,-0.5623 3.41012,-5.78941 13.79192,-9.02532c0,0 -2.13531,32.3126 -16.94957,41.92091c0,0 0.17167,-9.17774 -4.63884,-20.66146zM268.56463,123.83599c-0.37754,-0.95365 -1.33148,-2.59119 -1.33148,-2.59119M272.69988,146.7715c0,0 0.38529,-1.59372 0.4019,-2.51694" fill="#be1e2d"/><path d="M278.69819,138.36385c0,0 -1.77996,-1.01387 -2.58468,-5.131c-0.54816,-2.78162 -0.17597,-7.24906 -0.17597,-7.24906c0.57079,-0.9362 1.15882,-2.01785 1.66368,-3.18283c0.85595,-1.97106 1.76872,-4.86951 2.57735,-7.71273l0.13196,-0.39485c0,0 2.46926,-5.30294 8.99272,-6.93676l0.08257,0.03118c-0.6814,4.96725 -1.909,12.28703 -3.71351,17.43748c-2.02408,5.77644 -4.70908,10.16047 -7.07655,13.25344z" fill="#929497"/></g></g><g><g><path d="M265.78866,146.15828c2.81734,15.5742 -11.73398,31.24505 -32.50129,35.00182c-20.76732,3.75678 -39.88648,-5.82313 -42.70382,-21.39733c-2.81734,-15.5742 11.73397,-31.24506 32.5013,-35.00182c20.76732,-3.75678 39.88647,5.82313 42.70382,21.39734z" fill="#e6e7e8" stroke="#000000" stroke-width="1.2" stroke-linecap="butt"/><path d="M208.29432,181.88967l2.36934,2.52496l2.90143,1.5712l-1.78521,0.70404l-4.39158,-0.34888l-4.12118,-1.63639l-1.92937,-2.31871l-4.96771,-1.86435l-3.76467,-1.89144l0.32817,2.35689c-6.08597,-9.00707 -15.5864,-18.03341 -14.09707,-31.49627c24.3395,-32.13074 69.28393,-43.06725 88.2926,-12.51472c0.25419,0.40855 0.49437,0.81738 0.72113,1.22646c0.18982,0.62761 0.33631,1.21676 0.42402,1.75473c0.9921,6.08538 1.13979,12.16529 1.60341,18.3485c0.03054,0.40738 -0.00146,0.86763 -0.07289,1.35592l-0.74028,1.4018l-0.41089,-1.40649l-1.81904,5.5119l-4.19522,5.34941l-2.77051,1.98199l-0.29774,-4.24048l-0.88605,-5.76294l-1.28453,-4.50622l-1.08641,0.04843l0.1951,-1.5161l0.74093,-3.68796l-0.57479,-4.04229l-1.41008,-4.33542l-3.98549,-3.86953l-6.35751,-3.14429l-8.14537,-1.78429l-9.30132,-0.39053l2.47993,0.73603l4.00315,2.23746l2.44046,3.11246l-17.44255,-1.2871l-16.86251,-1.54011l-0.2387,3.00481l-1.8149,6.39963l-1.74123,5.94206l0.95974,5.30537l3.5092,4.69611l4.61328,3.01556l-3.07763,1.14906l-2.7269,0.49329l0.62252,3.44133l2.34084,3.42665l2.56602,2.94167l2.79119,2.45669z" fill="#be1e2d" stroke="#8c8c8c" stroke-width="0" stroke-linecap="butt"/><path d="M201.49298,138.51171c-0.19051,8.05628 -4.34177,12.77574 -3.58725,16.90239c1.55306,8.49408 9.15749,11.12484 9.15749,11.12484c0,0 -4.94442,3.40909 -11.43472,0.57591" fill="none" stroke="#000000" stroke-width="1.2" stroke-linecap="round"/><path d="M190.15557,159.38215c-0.89807,-1.49727 -1.79281,-3.23228 -2.67341,-5.23865" fill="none" stroke="#000000" stroke-width="1.2" stroke-linecap="round"/><path d="M194.88854,137.02387c15.81616,3.37749 41.38048,3.87581 41.38048,3.87581c0,0 -3.13567,-4.01838 -9.0204,-5.62695c0,0 36.12353,-2.49667 28.35592,23.11634c0,0 3.36294,-2.25951 5.40701,-6.19464" fill="none" stroke="#000000" stroke-width="1.2" stroke-linecap="round"/><path d="M261.99581,143.03106c0.43201,1.7523 0.66146,2.56258 0.44807,4.05952" fill="none" stroke="#000000" stroke-width="1.2" stroke-linecap="round"/><path d="M267.81277,160.44118c-1.06365,6.90703 -8.50758,11.95369 -8.50758,11.95369c0,0 -0.21712,-9.75412 -2.65354,-14.66861" fill="none" stroke="#000000" stroke-width="1.2" stroke-linecap="round"/><path d="M189.62759,159.18061c-3.40103,8.10465 3.38543,21.47934 3.38543,21.47934c0,0 -18.15959,-19.24358 -13.79055,-32.25029" fill="none" stroke="#000000" stroke-width="1.2" stroke-linecap="round"/><path d="M270.46293,157.93801c-1.10966,2.54322 -2.05086,3.97275 -2.05086,3.97275c0,0 -0.24015,-9.72796 -5.9928,-14.69573" fill="none" stroke="#000000" stroke-width="1.2" stroke-linecap="round"/><path d="M201.38975,168.35425c-0.25768,6.8272 8.40553,12.3657 8.40553,12.3657c0,0 -10.10531,3.75097 -17.6506,-2.64556" fill="none" stroke="#000000" stroke-width="1.2" stroke-linecap="round"/><path d="M207.57194,181.40304c1.57786,3.06071 6.11856,4.5624 6.11856,4.5624c0,0 -8.05798,2.95516 -13.27101,-4.05959" fill="none" stroke="#000000" stroke-width="1.2" stroke-linecap="round"/></g><g fill="none" stroke="none" stroke-width="1" stroke-linecap="butt" font-family="sans-serif" font-weight="normal" font-size="12" text-anchor="start"/></g></g><path d="M266.95966,164.10719" fill="none" stroke="#000000" stroke-width="1.2" stroke-linecap="round"/><path d="M231.65981,178.63598c0.19222,-0.0302 0.3766,-0.05415 0.55333,-0.07206c0.29395,-0.08192 0.60604,-0.09682 0.91128,-0.0388c6.82199,0.17276 -1.50678,12.05761 -4.0803,12.88031c-2.18236,0.69765 -6.74777,-0.76286 -5.73928,-3.93541c0.364,-1.14508 7.22344,-8.40866 8.29794,-8.75216z" fill="#be1e2d" stroke="#000000" stroke-width="1.2" stroke-linecap="butt"/><g stroke="#000000" stroke-width="1.2"><path d="M225.42227,195.77214c-0.24813,-0.23725 -3.18971,-3.21691 -3.18971,-3.21691c0,0 -0.09103,5.03168 -3.24795,6.40562c-1.70933,0.74393 -5.61365,0.16986 -7.62894,0.32794c0,0 -2.30669,0.17914 -2.77193,-2.14956c-0.46524,-2.3287 1.84145,-2.50783 1.84145,-2.50783c0.44681,-0.03438 1.01244,-0.01541 1.62824,0.02045c4.22675,-5.98803 3.45365,-15.85863 12.2805,-10.78639c3.62325,2.08205 4.4478,2.90403 4.4478,2.90403c0,0 1.94499,-10.04095 6.67528,-9.42828c15.43818,1.99956 11.71603,19.97177 5.85035,20.62974c-8.89889,0.99821 -12.86397,0.68982 -15.88511,-2.19881z" fill="#be1e2d" stroke-linecap="butt"/><path d="M230.92953,191.84934c-0.94752,-3.20306 0.40479,-14.1335 5.67819,-10.78277c4.15106,2.63759 2.81314,8.33619 1.59506,11.27005c-1.37121,3.30266 -6.2463,2.98429 -7.27325,-0.48728z" fill="#e6e7e8" stroke-linecap="round"/></g><path d="M223.35855,183.81386c-0.2593,1.27292 -1.77231,1.63144 -1.77231,1.63144c0,0 -1.17618,2.43562 -4.87863,3.24193c-4.98774,1.08622 -6.18244,-5.19047 -1.38245,-7.53982c0,0 4.02127,-2.56991 6.10953,-1.93709c0.70059,0.2123 0.69889,1.26761 1.0232,1.95597c0.65055,1.38082 1.15996,1.37465 0.90066,2.64757z" fill="#be1e2d" stroke="#000000" stroke-width="1.2" stroke-linecap="butt"/><g stroke="#000000" stroke-width="1.2" stroke-linecap="butt"><g fill="#868995"><path d="M240.75086,244.5221c0,0 -41.94558,0.42456 -44.92372,-2.35022c-2.29803,-2.14112 -2.30937,-30.46732 0,-32.5419c2.37074,-2.1297 44.33295,-2.16943 44.33295,-2.16943"/><path d="M239.83995,207.46055c0,0 41.96221,0.03973 44.33295,2.16943c2.30938,2.07458 2.29804,30.40079 0,32.5419c-2.97814,2.77478 -44.92372,2.35022 -44.92372,2.35022"/></g><g fill="#4e4f56"><path d="M240.71254,242.40882c0,0 -39.80476,0.37611 -42.6309,-2.08203c-2.18075,-1.89678 -2.19151,-26.99059 0,-28.82843c2.24974,-1.88667 42.07028,-1.92187 42.07028,-1.92187"/><path d="M239.84812,209.57649c0,0 39.82055,0.0352 42.07029,1.92187c2.19151,1.83784 2.18075,26.93165 0,28.82843c-2.82614,2.45814 -42.63091,2.08203 -42.63091,2.08203"/></g><g fill="#9497a4"><path d="M240.23223,231.45284c0,0 -12.9719,0.12494 -13.8929,-0.69163c-0.71068,-0.6301 -0.71419,-8.96603 0,-9.57654c0.73316,-0.62673 13.7102,-0.63843 13.7102,-0.63843"/><path d="M239.95053,220.54625c0,0 12.97703,0.0117 13.7102,0.63843c0.71418,0.61051 0.71068,8.94644 0,9.57654c-0.92101,0.81657 -13.8929,0.69163 -13.8929,0.69163"/></g></g><g stroke="#000000" stroke-width="1.2" stroke-linecap="butt"><g fill="#868995"><path d="M240.65984,285.6829c0,0 -36.86021,0.37309 -39.47728,-2.06529c-2.01943,-1.88153 -2.02939,-26.77355 0,-28.59661c2.08332,-1.8715 38.95814,-1.90641 38.95814,-1.90641"/><path d="M239.85936,253.11459c0,0 36.87483,0.03491 38.95815,1.90641c2.02939,1.82306 2.01943,26.71508 0,28.59661c-2.61708,2.43837 -39.47729,2.06528 -39.47729,2.06528"/></g><g fill="#4e4f56"><path d="M240.62617,283.82582c0,0 -34.97894,0.33051 -37.46244,-1.82961c-1.91636,-1.66682 -1.92582,-23.71832 0,-25.33335c1.97699,-1.65794 36.96979,-1.68887 36.96979,-1.68887"/><path d="M239.86654,254.974c0,0 34.99281,0.03093 36.9698,1.68887c1.92582,1.61503 1.91636,23.66653 0,25.33335c-2.48351,2.16012 -37.46245,1.82961 -37.46245,1.82961"/></g><g fill="#9497a4"><path d="M240.20408,274.19812c0,0 -11.39922,0.10979 -12.20856,-0.60778c-0.62452,-0.5537 -0.6276,-7.87901 0,-8.4155c0.64428,-0.55075 12.04801,-0.56103 12.04801,-0.56103"/><path d="M239.95653,264.61378c0,0 11.40373,0.01028 12.04801,0.56103c0.6276,0.53649 0.62452,7.8618 0,8.41551c-0.80934,0.71757 -12.20856,0.60777 -12.20856,0.60777"/></g></g><path d="M238.92733,196.12931c1.10831,5.75089 -2.36272,16.97526 -8.12957,13.45016c-0.88204,-0.53916 -1.18759,-1.63816 -1.78137,-2.45724c-0.07776,-2.54963 0.57866,-4.90368 0.4612,-7.45479c-0.10903,-2.36793 -1.34583,-5.23603 -0.71881,-7.57213c1.22082,-4.54836 9.1276,-3.97741 11.38599,-0.14692" fill="#be1e2d" stroke="#000000" stroke-width="1.2" stroke-linecap="butt"/><path d="M78.03571,341.96432v-323.92859h323.92859v323.92859z" fill="none" stroke="#000000" stroke-width="0" stroke-linecap="butt"/><path d="M246.90016,146.04831l-0.0993,-0.03528l0.20489,-0.57666c0.07173,-0.21676 0.28594,-0.36303 0.52278,-0.34013c0.23684,0.02291 0.41905,0.20753 0.4479,0.43402l0.09058,0.60523c0.19465,1.30066 -0.04344,2.28057 -0.17249,3.50861c0.22907,0.08936 0.45581,0.18712 0.67967,0.29328c0.8394,-0.72044 1.54742,-2.35757 2.25275,-3.39597l-0.20034,-0.16348l0.33922,-0.41571c0.10189,-0.12864 0.26494,-0.20454 0.44043,-0.18757c0.23684,0.02291 0.41905,0.20753 0.4479,0.43402l0.08126,0.54298c1.10043,2.20969 -0.34698,4.665 -1.73098,6.36105c0,0 -0.19505,0.23902 -0.46648,0.18836c-0.08836,0.01592 -0.18034,0.02011 -0.27411,0.01104c-0.10291,-0.00995 -0.20066,-0.03518 -0.29124,-0.0732l-1.00126,-0.39381c0,0 -2.65271,-1.14795 -5.47684,-0.44327c-2.96755,0.74047 -3.05483,2.5598 -5.5555,3.94773l-1.52654,-0.83762c0,0 -0.1225,-0.31846 -0.03837,-0.65488c0.00777,-0.21204 0.07016,-0.37069 0.07016,-0.37069c1.63845,-4.12215 5.71992,-5.96435 9.7023,-5.48273c0.67025,-0.8834 1.01275,-1.96472 1.5536,-2.95533z" fill="#000000" stroke="none" stroke-width="0.5" stroke-linecap="butt"/><path d="M212.82807,156.05419c3.25237,-2.34561 7.5834,-2.50467 10.76692,0.68246c0,0 0.12194,0.12297 0.21926,0.32309c0.21676,0.28356 0.24641,0.64754 0.24641,0.64754l-0.96778,1.52671c-2.76431,-0.15168 -3.04685,-2.07306 -5.70354,-1.62993c-2.65669,0.44314 -5.3733,3.47755 -5.3733,3.47755l-0.70123,0.85184c-0.06241,0.07936 -0.13652,0.14982 -0.22163,0.20804c-0.07754,0.05304 -0.15921,0.0925 -0.24273,0.11898c-0.21405,0.17702 -0.48552,0.03951 -0.48552,0.03951c-1.92626,-0.97574 -4.2319,-2.65123 -4.2202,-5.29516l-0.16137,-0.56027c-0.07169,-0.23131 0.00767,-0.49489 0.20354,-0.62888c0.14513,-0.09928 0.31914,-0.10342 0.46256,-0.02795l0.47214,0.23915l-0.10413,0.25183c1.05602,0.66454 2.37012,1.90323 3.40675,2.19879c0.14904,-0.20785 0.30417,-0.409 0.46491,-0.60318c-0.63662,-1.11924 -1.26193,-1.94845 -1.64848,-3.29052l-0.17987,-0.6245c-0.07169,-0.23131 0.00766,-0.49489 0.20354,-0.62888c0.19588,-0.13399 0.44437,-0.09468 0.59924,0.07973l0.42424,0.45735l-0.07116,0.08086c0.89278,0.69636 1.65208,1.57368 2.61143,2.10583z" fill="#000000" stroke="none" stroke-width="0.5" stroke-linecap="butt"/><path d="M241.14551,161.19464c0,0 8.64208,12.66125 1.5085,15.72046c-7.13358,3.05922 -17.88112,-8.69911 -17.88112,-8.69911c0,0 0.24365,-1.21903 6.62121,-4.37858c6.12182,-3.03286 9.75141,-2.64276 9.75141,-2.64276z" fill="#706d6d" stroke="#000000" stroke-width="1.2" stroke-linecap="round"/><path d="M247.40766,156.1552c6.26823,-5.12902 10.86927,-4.67982 10.86927,-4.67982" fill="#e6e7e8" stroke="#000000" stroke-width="1.2" stroke-linecap="round"/><g stroke="#000000" stroke-width="1.2"><path d="M240.34682,180.71727c0.47153,-6.16437 1.48171,-12.17093 3.80675,-17.98469c0.06837,-1.09407 -1.69349,-1.90878 -1.70113,-3.44595c-0.01175,-2.36581 1.71643,-2.46861 3.03731,-3.61345c0.37465,-0.32473 -0.10061,-0.98927 -0.0864,-1.48485c0.0356,-1.24169 0.03013,-1.87774 1.16816,-2.6921c3.15879,-2.26038 7.59238,0.24226 9.98789,2.23548c2.77686,5.18762 -1.12099,7.28151 -2.785,11.77111c-1.2314,3.32242 -1.47332,6.84772 -2.21392,10.27286c-0.18822,2.64464 -0.14268,8.14104 -2.03338,10.191c-1.11252,1.20624 -2.38072,1.52396 -3.63267,1.30245" fill="#be1e2d" stroke-linecap="butt"/><path d="M254.44296,157.01069c-2.01012,1.99378 -4.82148,0.16867 -4.82148,0.16867c0,0 -3.05287,-0.52636 -3.50526,-1.66021" fill="none" stroke-linecap="round"/><path d="M245.40637,157.37351c0,0 9.21029,-0.20056 5.72659,4.94504c-0.95936,1.41702 -3.82439,-1.59918 -3.82439,-1.59918l-2.40471,0.40676" fill="none" stroke-linecap="round"/></g></g></g></svg>