<svg version="1.1" xmlns="http://www.w3.org/2000/svg" xmlns:xlink="http://www.w3.org/1999/xlink" width="93.44889" height="125.48762" viewBox="0,0,93.44889,125.48762"><g transform="translate(-185.67005,-116.06468)"><g stroke-miterlimit="10"><g fill-rule="evenodd"><path d="M242.16713,207.21386c2.16095,1.1577 4.89785,2.40646 8.15036,2.26089c7.3627,-0.22499 13.8669,-5.34314 15.4317,-1.29327c1.64147,4.11407 -6.84657,14.0927 -18.76782,9.32573c-4.11878,-1.6235 -7.03196,-4.06343 -9.3443,-6.13057c-0.61331,-0.51368 -5.45359,-5.48073 -5.11039,-9.62829c0.34318,-4.14756 2.22435,-3.74596 3.0945,-3.53895c1.01101,0.19457 3.55416,7.28135 6.54595,9.00447z" fill="#ffab19" stroke="#001026" stroke-width="1.2" stroke-linecap="round" stroke-linejoin="round"/><path d="M265.16079,207.94955c1.14799,1.74416 -0.78214,5.60609 -3.79609,7.64721c-3.01395,2.04111 -5.3963,2.3937 -7.22764,2.55561c0.60279,-0.40822 2.32204,-1.83797 1.85349,-3.92615c-0.51837,-2.65165 -3.93278,-4.33742 -3.93278,-4.33742c0,0 4.8165,-0.9227 7.77674,-1.96527c2.70341,-0.7359 4.04987,-1.5648 5.32629,0.02602z" fill="#ffffff" stroke="none" stroke-width="1" stroke-linecap="butt" stroke-linejoin="miter"/></g><path d="M227.1856,195.81441c-2.44596,2.87682 -3.05796,10.54685 -9.2367,8.25391c-3.25508,-1.20797 -3.68678,-3.8929 -2.94804,-6.42722c1.80775,-6.20171 4.09157,-9.07553 9.12366,-11.70188c1.33826,-0.69845 4.04677,-3.85727 5.71116,-2.92422c0.59198,-0.00525 1.19491,0.0953 1.78296,0.31354c2.58891,0.96075 3.90879,3.83831 2.94804,6.42721c0.7199,1.91912 -6.07028,4.51696 -7.38108,6.05866z" fill="#ffab19" fill-rule="nonzero" stroke="#000000" stroke-width="1.2" stroke-linecap="butt" stroke-linejoin="miter"/><g fill-rule="nonzero" stroke-linecap="round" stroke-linejoin="miter"><path d="M217.77315,227.17028l3.01273,-22.49542c0,0 -0.08103,-4.45315 0.28819,-11.5098c0.17939,-3.42855 -0.87523,-9.83464 0.80841,-12.11038c2.59642,-3.50951 9.77446,-3.09312 9.77446,-3.09312c0,0 8.12753,0.99244 10.4765,6.27953c1.869,4.20678 0.77071,7.88379 0.99393,12.29762c0.21298,4.21124 1.78886,9.26093 1.78886,9.26093l10.82797,24.18257c0,0 4.19103,0.78099 5.35271,2.81193c1.16168,2.03095 0.75924,7.87339 0.75924,7.87339l-17.09552,0.28119l-6.43028,-5.34266l-1.27938,-6.28462c0,0 -5.15915,-25.86138 -5.33172,-20.65426c-0.077,2.32346 0.44056,18.51388 0.44056,18.51388l1.24515,8.42848l-17.56816,1.60484l-3.76683,-0.76474c0,0 -4.01837,-4.0619 -2.26361,-6.91698c1.75475,-2.85507 7.96679,-2.36239 7.96679,-2.36239z" fill="#ffab19" stroke="#001026" stroke-width="1.2"/><path d="M234.00944,208.2369c0,0 -3.25953,-0.13731 -4.86735,-1.51935" fill="none" stroke="#001026" stroke-width="1.2"/><path d="M229.98923,201.3122c-4.17926,-0.65398 -4.76952,-4.90464 -5.15869,-8.97955c-0.43653,-4.57068 -0.58971,-9.42706 4.09088,-8.82045c5.13477,0.66547 6.21406,5.43964 6.61441,10.44496c0,0 0.47609,8.29748 -5.5466,7.35504z" fill="#ffffff" stroke="#000000" stroke-width="0"/></g><path d="M243.53823,232.51216c0,0 1.55081,-2.71583 12.2,-2.6" fill="none" fill-rule="nonzero" stroke="#001026" stroke-width="1.2" stroke-linecap="round" stroke-linejoin="miter"/><path d="M236.36,186.99c1.1967,-1.47963 1.79766,-3.96048 3.41278,-4.74282c0.18548,-0.08984 0.38434,-0.15729 0.59901,-0.19824c5.58213,-1.06495 8.66365,5.03142 11.66814,6.76104c2.52559,1.45393 9.29974,-6.11923 13.62008,-3.09498c1.15094,0.80566 2.4115,2.99859 2.5,4.375c0.11359,1.76659 -5.91759,9.69721 -8.17417,10.26136c-10.08286,2.52071 -10.57719,-0.77321 -17.1214,-7.13304c-0.84306,-0.81931 -5.04434,-1.79194 -5.2748,-2.94427z" fill="#ffab19" fill-rule="nonzero" stroke="#000000" stroke-width="1.2" stroke-linecap="butt" stroke-linejoin="miter"/><g><g><path d="M207.2507,144.13589c0,0 4.12092,-27.58293 5.19257,-27.47087c1.44371,0.15096 20.92923,13.43509 20.92923,13.43509" fill="#ffab19" fill-rule="nonzero" stroke="#001026" stroke-width="1.2" stroke-linecap="round" stroke-linejoin="miter"/><path d="M261.14921,152.64956l11.06088,16.26582l-3.41929,5.14086l-30.16963,-3.82012z" fill="#9b7f41" fill-rule="nonzero" stroke="#001026" stroke-width="1.2" stroke-linecap="round" stroke-linejoin="miter"/><path d="M195.17958,162.4666c0,0 -7.45022,0.41766 -8.90953,-3.62081" fill="none" fill-rule="evenodd" stroke="#001026" stroke-width="1.2" stroke-linecap="round" stroke-linejoin="round"/><path d="M194.79403,168.36758c0,0 -3.39532,2.90956 -8.19654,1.675" fill="none" fill-rule="evenodd" stroke="#001026" stroke-width="1.2" stroke-linecap="round" stroke-linejoin="round"/><path d="M225.01474,135.99335c11.31412,-1.49394 40.5715,8.67958 31.59487,35.15238c-0.11703,0.34513 -0.31255,0.65886 -0.5062,0.97149c-7.07202,11.41737 -22.15947,16.55439 -40.96848,12.9005c-18.80901,-3.65389 -23.23549,-14.44307 -22.04946,-20.14599c1.18602,-5.70292 8.28085,-7.82033 8.28085,-7.82033c0,0 0.08896,-4.50023 3.27546,-10.00806c0,0 3.84273,-8.86729 20.37297,-11.04999z" fill="#ffab19" fill-rule="evenodd" stroke="#001026" stroke-width="1.2" stroke-linecap="butt" stroke-linejoin="miter"/><path d="M218.17927,162.31021c8.40144,0.57941 19.8791,-8.54877 26.60532,2.13477c6.72598,10.58355 -4.73868,25.0117 -28.95087,20.07106c-18.60877,-3.55438 -23.43402,-13.84259 -22.248,-19.54551c1.18602,-5.70292 8.08158,-7.51983 8.08158,-7.51983c8.49532,-1.92085 9.31077,4.37718 16.51197,4.85953z" fill="#ffffff" fill-rule="evenodd" stroke="none" stroke-width="1" stroke-linecap="butt" stroke-linejoin="miter"/><path d="M223.17604,160.99794c0.00393,1.6 -4.18993,4.1103 -5.99042,3.9147c-1.60024,-0.09608 -3.1071,-2.89238 -3.01054,-4.29263c0.09829,-0.70024 2.2978,-0.90563 4.39778,-0.91078c1.99999,-0.0049 4.70023,0.08847 4.60317,1.28871z" fill="#001026" fill-rule="evenodd" stroke="#001026" stroke-width="1.2" stroke-linecap="round" stroke-linejoin="round"/><path d="M255.98702,161.94457c-5.56791,3.43546 -12.84339,6.01425 -12.84339,6.01425" fill="none" fill-rule="evenodd" stroke="#001026" stroke-width="1.2" stroke-linecap="round" stroke-linejoin="round"/><path d="M256.76847,172.92248c-6.31247,1.28512 -12.01987,0.72791 -12.01987,0.72791" fill="none" fill-rule="evenodd" stroke="#001026" stroke-width="1.2" stroke-linecap="round" stroke-linejoin="round"/><path d="M248.87698,149.55235l-43.33826,-5.03145l3.65583,-22.50589l47.7637,6.51989l10.71254,19.8545l-8.75272,14.84419z" fill="#c58600" fill-rule="nonzero" stroke="#001026" stroke-width="1.2" stroke-linecap="round" stroke-linejoin="miter"/><path d="M248.90736,149.3547l7.82291,-20.65241" fill="none" fill-rule="nonzero" stroke="#001026" stroke-width="0.75" stroke-linecap="round" stroke-linejoin="miter"/><path d="M261.64515,137.55009l-4.35217,-8.55913c0,0 20.23687,2.1389 21.22596,2.62677c1.10842,0.54673 -19.20956,21.15419 -19.20956,21.15419z" fill="#ffab19" fill-rule="nonzero" stroke="#001026" stroke-width="1.2" stroke-linecap="round" stroke-linejoin="miter"/></g><g><g fill-rule="evenodd"><path d="M217.13243,143.21272c2.80441,1.79313 2.71692,6.89336 -0.17204,11.40045c-2.98896,4.50734 -7.58379,6.61862 -10.3882,4.82549c-2.80441,-1.79313 -2.71691,-6.89336 0.17205,-11.40046c2.88896,-4.50709 7.58355,-6.71861 10.3882,-4.82549z" fill="#ffffff" stroke="#001026" stroke-width="1.2" stroke-linecap="round" stroke-linejoin="round"/><path d="M205.10541,152.76445c-0.00269,-1.1 0.7951,-2.00196 1.7951,-2.0044c1,-0.00245 1.8022,0.89558 1.80489,1.99558c0.00269,1.1 -0.79509,2.00196 -1.79508,2.0044c-1,0.00245 -1.80221,-0.89558 -1.8049,-1.99557" fill="#001026" stroke="#000000" stroke-width="0.5" stroke-linecap="butt" stroke-linejoin="miter"/></g><g fill-rule="evenodd"><path d="M240.94148,147.45273c3.10539,2.19239 2.91936,7.89286 -0.16984,12.30046c-2.9892,4.40734 -7.38575,5.81813 -10.6904,3.92622c-2.70465,-1.89336 -2.91788,-7.29287 0.07131,-11.70021c2.9892,-4.40734 7.68329,-6.81886 10.78893,-4.52647z" fill="#ffffff" stroke="#001026" stroke-width="1.2" stroke-linecap="round" stroke-linejoin="round"/><path d="M228.71398,156.80492c-0.00269,-1.1 0.79534,-1.90196 1.79509,-2.00441c1,-0.00245 1.8022,0.89558 1.8049,1.99558c0.00269,1.1 -0.7951,2.00196 -1.79509,2.00441c-1,0.00245 -1.8022,-0.89559 -1.80489,-1.99559" fill="#001026" stroke="#000000" stroke-width="0.5" stroke-linecap="butt" stroke-linejoin="miter"/></g><g fill="#ffffff" fill-rule="nonzero" stroke="#001026" stroke-width="1.2" stroke-linecap="round" stroke-linejoin="miter"><path d="M212.81321,173.98479c-0.17448,-0.21192 5.69262,-0.24857 11.63544,-1.5399c13.45407,-2.92345 14.23312,-4.91625 14.76585,-4.73488c0.98312,0.3347 3.94993,15.04498 -4.49699,17.04931c-8.12342,1.92756 -21.35939,-10.1127 -21.90429,-10.77452z"/></g></g></g><path d="M230.39526,193.06856c0.07593,1.4554 0.80966,3.05618 0.48893,4.42391c-0.04891,0.20858 -0.12236,0.41176 -0.22639,0.60816c-1.23708,2.33541 -7.26128,6.28208 -8.66505,6.8251c-3.03227,1.17296 -7.28719,-0.98597 -7.52343,-4.4677c-0.25591,-3.77156 5.05231,-6.03725 7.26221,-7.52676c1.04971,-0.70753 2.9133,-2.85921 4.26245,-2.15617z" fill="#ffab19" fill-rule="nonzero" stroke="#000000" stroke-width="1.2" stroke-linecap="butt" stroke-linejoin="miter"/><g fill-rule="nonzero" stroke="#000000" stroke-width="1.2" stroke-linejoin="miter"><path d="M233.09371,193.64135c-3.65364,-3.01004 -4.17539,-8.41205 -1.16534,-12.06569c3.01004,-3.65364 8.41204,-4.17538 12.06568,-1.16533c3.65364,3.01004 4.17539,8.41205 1.16533,12.06569c-3.01004,3.65364 -8.41203,4.17538 -12.06568,1.16533z" fill="#5c5e5f" stroke-linecap="butt"/><g stroke-linecap="round"><path d="M237.39002,196.51455l0.09252,4.74058l-2.0786,1.17502l-2.83408,3.44007l-3.23783,-2.00115z" fill="#ffab19"/><path d="M237.46891,191.02671l0.9796,6.35985l-3.27764,2.63043l-0.84871,1.2998l-3.05963,2.3658l-0.3894,1.01187l-3.12955,1.64186l-5.33148,-3.50388l-2.53649,-6.08769l9.69306,-9.33918z" fill="#ffab19"/><path d="M234.06578,198.66233l-0.06168,-3.16038" fill="none"/><path d="M230.53106,202.41363l-0.50522,-3.97002" fill="none"/></g><path d="M226.71665,203.26917l-3.03632,2.60711l-3.56485,-1.60422l-0.85554,-3.81439l2.49132,-1.94557l4.00086,1.07497z" fill="#5c5e5f" stroke-linecap="round"/></g><g fill-rule="nonzero" stroke-linejoin="miter"><path d="M251.3494,177.36222c0,0 -2.10266,-8.17379 1.25979,-8.58958c5.87232,-0.72615 4.66122,8.01694 4.66122,8.01694l2.77153,0.28632c0,0 -0.53885,-8.15191 4.28328,-7.30114c5.39391,0.95165 2.01566,8.01694 2.01566,8.01694l1.51175,2.00424c0,0 5.99971,-1.24431 6.17296,3.29267c0.18041,4.7244 -6.17296,4.86743 -6.17296,4.86743c0,0 -3.90389,11.56268 -17.00389,2.14265c0,0 -6.30819,1.07201 -6.68012,-4.57637c-0.34623,-5.25808 6.04698,-3.29267 6.04698,-3.29267z" fill="#ffab19" stroke="#000000" stroke-width="1.2" stroke-linecap="round"/><path d="M255.73973,173.13868c0.26256,1.94295 -0.52288,3.65293 -1.75432,3.81934c-1.23145,0.16641 -2.44258,-1.27376 -2.70514,-3.21671c-0.26256,-1.94295 0.52288,-3.65293 1.75432,-3.81934c1.23145,-0.16641 2.44258,1.27376 2.70514,3.21671z" fill="#ffffff" stroke="none" stroke-width="0" stroke-linecap="butt"/><path d="M265.64668,174.74008c-0.18471,1.86881 -1.40299,3.27182 -2.72112,3.1337c-1.31813,-0.13812 -2.23694,-1.76506 -2.05223,-3.63387c0.18471,-1.86881 1.40298,-3.27182 2.72111,-3.1337c1.31813,0.13812 2.23694,1.76506 2.05224,3.63387z" fill="#ffffff" stroke="none" stroke-width="0" stroke-linecap="butt"/><path d="M269.98947,185.52611c-1.5991,0.8206 -3.44589,0.4623 -4.12491,-0.80028c-0.67902,-1.26259 0.06687,-2.95133 1.66597,-3.77193c1.5991,-0.8206 3.44589,-0.4623 4.1249,0.80028c0.67902,1.26259 -0.06687,2.95134 -1.66597,3.77193z" fill="#ffffff" stroke="none" stroke-width="0" stroke-linecap="butt"/><path d="M248.82303,185.56962c-1.77366,-0.02888 -3.37403,-0.73712 -3.57452,-1.58191c-0.20049,-0.84479 1.07481,-1.50621 2.84847,-1.47734c1.77366,0.02888 3.37403,0.73712 3.57452,1.58191c0.20049,0.84479 -1.07481,1.50621 -2.84847,1.47734z" fill="#ffffff" stroke="none" stroke-width="0" stroke-linecap="butt"/><path d="M264.96075,186.61344c-0.77074,3.28939 -3.52267,3.38268 -6.78281,2.92359c-3.26014,-0.45909 -5.79394,-1.29672 -5.0232,-4.58611c0.3867,-1.65039 2.43029,-1.033 3.7578,-1.96034c1.31835,-0.92094 1.91633,-3.39311 3.54076,-3.16436c1.78094,0.25079 1.25276,3.13842 2.04024,4.54917c0.65405,1.17173 2.81692,0.74558 2.46722,2.23805z" fill="#ffffff" stroke="none" stroke-width="0" stroke-linecap="butt"/></g></g></g></svg>