<svg version="1.1" xmlns="http://www.w3.org/2000/svg" xmlns:xlink="http://www.w3.org/1999/xlink" width="113.88417" height="119.03007" viewBox="0,0,113.88417,119.03007"><g transform="translate(-183.50624,-119.20045)"><g stroke-width="1.2" stroke-miterlimit="10"><g fill="#9a8479" stroke="#000000" stroke-linecap="butt"><path d="M248.79735,226.05153c-2.66055,0 -2.70695,-3.21649 -2.70695,-3.21649l0.73142,-3.31681c0.40561,-0.4607 1.06972,-1.66322 1.87196,-2.24115c-0.50886,-0.60484 -0.92756,-1.32399 -1.40694,-1.96621c0,0 -1.7869,-2.42066 0.18483,-4.53873c1.97173,-2.11808 3.75863,0.30258 3.75863,0.30258c2.5213,3.46433 6.92948,5.19465 3.13844,10.53311c-0.63316,0.89159 -1.32051,1.32692 -2.52011,2.1935c-1.27803,0.92322 -3.05124,2.25022 -3.05124,2.25022z"/><path d="M249.60414,225.04739c0,0 0.67134,5.20065 1.0277,7.10148c0.35999,1.90073 0.81275,3.66911 0.81275,3.66911c0,0 0.71899,0.34748 0.50223,1.09323c-0.21507,0.74947 -2.68592,0.71317 -5.79105,0.87832c-3.10587,0.16605 -5.62473,-0.36025 -6.10786,-1.15226c-0.48157,-0.78306 0.44201,-1.06155 0.44201,-1.06155c0,0 1.04507,-5.14624 0.18901,-7.48981c-1.14131,-3.12561 0.26177,-3.93946 3.92294,-5.43379v0v0v0v0v0v0c3.66116,-1.49433 5.00227,2.39525 5.00227,2.39525z"/><path d="M237.45264,208.82487v0v0v0v0v0v0c8.18194,-0.62053 11.37775,4.03199 11.37592,4.0311c0.68401,1.20169 1.53642,2.89722 1.9026,4.44539c0.10095,0.42765 0.1663,0.90883 0.18828,1.42495c0,0 -0.02245,1.79273 -0.19239,2.34002c-0.71284,2.29281 -1.89137,4.80257 -4.78031,5.93734c-4.53559,1.78916 -9.39381,1.56955 -14.4725,-0.78126c-1.71389,-0.79106 -2.74195,-2.13921 -3.30851,-3.67392c-0.40444,-1.1045 -0.59112,-2.54459 -0.59112,-2.54459c-0.27352,-2.39545 0.12047,-4.73379 0.33376,-5.75069c0,0 1.36335,-4.80792 9.54429,-5.42835z"/><path d="M238.79973,227.65539c-0.04024,0.32929 -0.09412,0.53395 -0.09412,0.53395c0,0 -0.69413,3.21777 -0.72997,4.96497c-0.03683,1.7473 0.03562,2.46958 0.03562,2.46958c0,0 0.5279,0.05888 0.39522,0.72406c-0.12903,0.66607 -1.71985,1.38834 -6.21556,1.26968c-4.49752,-0.1241 -5.36447,-1.11963 -5.37728,-1.62853c-0.01472,-0.50889 0.96827,-1.02503 0.96827,-1.02503c0,0 0.48738,-3.2543 1.19257,-6.08373c0.4006,-1.60444 1.03871,-3.17249 1.51645,-4.23009"/></g><g><path d="M281.4297,163.12334c0,0 12.41297,-10.8468 14.79785,-3.08021c2.38495,7.76649 -2.93663,17.78178 -13.54821,27.49584c0,0 0.84636,-14.08402 -1.24963,-24.41563zM281.4297,163.12334c-0.15946,-1.21865 -0.76261,-3.51553 -0.76261,-3.51553M282.31666,189.75798l0.22893,-2.28826" fill="#9a8479" stroke="#000000" stroke-linecap="round"/><path d="M282.54562,187.46882c0.18141,-2.61125 0.36811,-6.89818 0.18805,-12.2047c-0.10237,-3.08866 -0.4242,-6.25032 -0.7775,-8.97254l0.00112,0.00345c7.13664,-3.31182 12.98541,5.13727 12.98541,5.13727l0.00256,-0.00028c-3.8741,8.61204 -12.33333,15.80328 -12.33333,15.80328l-0.0663,0.23351v0v0v0v0z" fill="#ee4036" stroke="#000000" stroke-linecap="butt"/><path d="M198.70006,193.20968v0v0v0v0v0v0c-0.0441,-0.08502 -1.3361,-2.47623 -1.33605,-2.47722c-3.59469,-6.38122 -3.83215,-20.46501 -3.30238,-24.83389l0.03904,-0.20868c1.91932,-18.53249 10.99818,-28.0684 16.3331,-33.09203c12.10936,-11.4104 29.68807,-11.12032 29.68807,-11.12032l0.08968,12.08892c0,0 0.11976,-3.47039 7.45077,-9.22311c7.32921,-5.75279 17.73265,-4.40591 17.73265,-4.40591l-6.20849,14.87019c0,0 3.47434,-4.56392 6.22728,-6.16629c4.8805,-2.83574 8.83583,-1.34997 8.83583,-1.34997l-1.52004,9.32595c0,0 6.65913,9.46847 11.68537,18.31132c1.07584,1.88688 2.3345,3.80445 3.09031,5.97969c2.74884,7.90351 2.58405,21.76633 -1.18444,28.47006c-0.65217,1.1867 -1.35603,2.33587 -2.08339,3.4641c-0.18896,0.28965 -0.37874,0.57746 -0.57105,0.86156c-0.66435,0.99107 -1.3549,1.96105 -2.07747,2.89901c-0.0976,0.12482 -0.18756,0.25808 -0.28517,0.383c-0.81849,1.04292 -1.67748,2.04431 -2.56777,3.0155c-0.21264,0.23445 -0.43582,0.46023 -0.65298,0.69267c-0.76166,0.8008 -1.54845,1.57695 -2.35367,2.32157c-0.18567,0.17429 -0.36695,0.35136 -0.55414,0.51916c-0.96782,0.86577 -1.97243,1.68736 -3.0043,2.46892c-0.22978,0.17143 -0.4646,0.33444 -0.69612,0.50209c-0.86523,0.63005 -1.75711,1.22911 -2.66747,1.79752c-0.26279,0.16177 -0.51969,0.3328 -0.78411,0.4909c-1.11056,0.66167 -2.24538,1.27893 -3.41404,1.84404c-0.2086,0.1019 -0.42928,0.18965 -0.64052,0.28783c-0.99794,0.46434 -2.01668,0.88713 -3.05549,1.2747c-4.39412,1.63822 -9.13051,2.62201 -14.17581,2.76236c-5.76607,0.15998 -10.96172,-0.24373 -15.63478,-1.06401c-1.15549,-0.20275 -2.27809,-0.43378 -3.37006,-0.68519c-0.20733,-0.05159 -0.41384,-0.10134 -0.61935,-0.15105c-1.10651,-0.26915 -2.19162,-0.55358 -3.23099,-0.86953c-0.00622,-0.00207 -0.01422,-0.00423 -0.02134,-0.00635c-1.0414,-0.31322 -2.04071,-0.65713 -3.01574,-1.01808c-0.17071,-0.06259 -0.3459,-0.12537 -0.51567,-0.18892c-0.93655,-0.35284 -1.84787,-0.7263 -2.72485,-1.11804c-0.15432,-0.06637 -0.30279,-0.14069 -0.45604,-0.20882c-0.86527,-0.39404 -1.70811,-0.8015 -2.51495,-1.229c-0.03077,-0.01937 -0.06543,-0.03271 -0.09538,-0.05026c-0.82605,-0.44096 -1.61355,-0.89833 -2.37793,-1.36469c-0.14258,-0.08747 -0.28424,-0.1732 -0.42302,-0.26061c-0.73487,-0.46136 -1.44596,-0.93077 -2.12209,-1.41206c-0.10341,-0.07233 -0.20131,-0.14712 -0.30379,-0.22021c-0.6416,-0.46534 -1.26122,-0.93883 -1.85248,-1.42007c-0.06113,-0.04604 -0.12853,-0.09506 -0.18686,-0.14548c-0.61636,-0.50668 -1.19696,-1.02268 -1.75584,-1.54123c-0.10861,-0.09969 -0.21528,-0.20009 -0.31931,-0.29948c-0.54439,-0.51801 -1.06715,-1.03587 -1.55704,-1.56409c-0.05611,-0.05763 -0.10677,-0.11853 -0.16195,-0.17691c-0.46123,-0.50172 -0.89781,-1.00587 -1.30922,-1.509c-0.05734,-0.0729 -0.12285,-0.14446 -0.18117,-0.2156c-0.42109,-0.52878 -1.32624,-1.77882 -1.39592,-1.87849c-0.36331,-0.52714 -0.70877,-1.05258 -1.01909,-1.57377c-0.01929,-0.03249 -0.03777,-0.06493 -0.05526,-0.09723c-0.29766,-0.50172 -0.56678,-0.99487 -0.81709,-1.48548z" fill="#9a8479" stroke="#000000" stroke-linecap="butt"/><path d="M271.75565,169.27393v0v0v0v0v0v0c0,0 9.29288,12.30818 5.71553,24.49258c-3.5755,12.18078 -21.92479,16.5983 -35.80516,15.04738c-18.34915,-2.05157 -26.36359,-14.15527 -22.84102,-25.21329c3.52678,-11.05783 28.12261,-15.21404 28.12261,-15.21404l-4.35595,7.86426c0,0 3.17462,-0.38178 5.78901,-1.82679c2.61352,-1.44225 5.496,-3.39284 5.496,-3.39284l-6.21964,8.57937c0,0 7.70331,0.25155 14.49655,-2.30927c6.79308,-2.55722 9.60207,-8.02737 9.60207,-8.02737z" fill="#e6e7e8" stroke="#000000" stroke-linecap="butt"/><path d="M203.15191,191.79939c-13.79607,-6.20762 -21.03976,-14.09813 -18.56696,-21.94182c2.47373,-7.84445 18.57969,-1.06169 18.57969,-1.06169c-1.95213,10.14849 -0.01274,23.00352 -0.01274,23.00352zM203.8912,165.32975c0,0 -0.60523,2.29124 -0.72566,3.46617M203.31364,191.69813l0.42915,2.06513" fill="#9a8479" stroke="#000000" stroke-linecap="round"/><path d="M203.21669,191.49976c0,0 -10.96363,-4.4364 -16.3202,-11.40569l0.00274,-0.00078c0,0 6.73388,-9.39559 15.80942,-8.21212l0.00102,-0.00265c-0.26742,2.62045 -0.46766,5.64207 -0.39944,8.53659c0.11098,4.97593 0.6132,8.90721 1.00341,11.28302z" fill="#ee4036" stroke="#000000" stroke-linecap="butt"/><path d="M265.20434,189.45543c-0.58166,-0.02567 -1.06944,-0.52127 -1.13631,-1.19157c-0.07262,-0.74183 0.4049,-1.41612 1.06643,-1.50513c0.60152,-0.07915 5.93281,-0.77302 7.87039,-0.41473c0.65539,0.12282 1.09404,0.81945 0.98212,1.55312c-0.11626,0.73899 -0.74955,1.22754 -1.39505,1.11866c-1.2193,-0.22178 -5.05538,0.14351 -7.19576,0.42829c-0.06482,0.01156 -0.12923,0.01411 -0.19182,0.01135z" fill="#231f20" stroke="none" stroke-linecap="butt"/><path d="M244.11729,189.79678c-0.08472,-0.00374 -0.17004,-0.01652 -0.25767,-0.0358c-3.09571,-0.74164 -8.61369,-0.36931 -8.66798,-0.3663c-0.73307,0.04892 -1.39057,-0.50752 -1.44431,-1.25391c-0.05201,-0.74462 0.50947,-1.39168 1.25618,-1.44361c0.24454,-0.01353 5.98456,-0.40218 9.48704,0.43509c0.72588,0.17288 1.1761,0.90345 1.00114,1.63343c-0.15366,0.63524 -0.74052,1.05908 -1.37441,1.03109z" fill="#231f20" stroke="none" stroke-linecap="butt"/><path d="M262.54699,198.07364c0,0 -4.69311,3.94554 -12.64951,2.05248c-7.95454,-1.89263 -9.33536,-5.54832 -9.33536,-5.54832" fill="none" stroke="#231f20" stroke-linecap="round"/></g><g stroke="#000000"><path d="M218.93802,220.93375c0.87351,-3.14351 4.00433,-2.31835 4.00433,-2.31835l1.01464,0.26741c1.02351,1.07861 0.33214,0.73831 0.56653,-1.33473c0,0 0.55765,-3.21001 3.75983,-2.70175c3.2022,0.50827 2.64455,3.71828 2.64455,3.71828c-0.62442,3.03397 -0.54062,5.70734 -4.33425,7.21567c-1.38111,0.54912 -2.92246,-0.40698 -4.38369,-0.61047l-1.01464,-0.26741c0,0 -3.13081,-0.82515 -2.25731,-3.96865z" fill="#9a8479" stroke-linecap="butt"/><g><path d="M216.84163,211.39781c0.26962,-2.85958 2.80353,-4.99483 5.65964,-4.7692c2.85611,0.22563 4.95289,2.72669 4.68327,5.58628c-0.26962,2.85958 -2.80353,4.99483 -5.65964,4.7692c-2.85611,-0.22563 -4.95289,-2.72669 -4.68327,-5.58628z" fill="#5c5e5f" stroke-linecap="butt"/><path d="M227.27228,215.37736l2.28808,1.29448l-0.27442,1.92733l0.77761,2.5673l-2.27777,0.56254" fill="#9a8479" stroke-linecap="round"/><path d="M223.13028,213.72958l4.12066,1.11889l1.69138,7.27392l-2.96832,3.46788l-3.95747,-0.04818l-2.1415,-8.10284z" fill="#9a8479" stroke-linecap="round"/><path d="M225.08459,216.7501l2.402,0.44735" fill="none" stroke-linecap="round"/><path d="M228.32241,220.61222l-1.40459,-0.11096" fill="none" stroke-linecap="round"/><path d="M224.10598,224.40064l1.14206,-1.19776l1.53228,0.12105l0.94429,2.26416l-1.17822,1.58129l-1.78766,-0.14122z" fill="#5c5e5f" stroke-linecap="round"/></g></g></g></g></svg>