<svg version="1.1" xmlns="http://www.w3.org/2000/svg" xmlns:xlink="http://www.w3.org/1999/xlink" width="323.92859" height="323.92859" viewBox="0,0,323.92859,323.92859"><g transform="translate(-78.0357,-18.0357)"><g stroke-miterlimit="10"><g stroke-linecap="butt"><path d="M287.05093,300.6928l4.37749,-69.80064l45.02029,-0.10411l-6.86993,69.90475z" fill="#868995" stroke="#000000" stroke-width="1.2"/><g><g><g><g fill="#868995" stroke="#000000" stroke-width="1.2"><path d="M314.13359,264.21572c0,0 -14.71488,0.3452 -16.54198,-1.91087c-1.40985,-1.74086 0.46249,-24.77184 2.15979,-26.4586c1.7424,-1.73158 16.44297,-1.76388 16.44297,-1.76388"/></g><g fill="none" stroke="none" stroke-width="1" font-family="sans-serif" font-weight="normal" font-size="12" text-anchor="start"/><g fill="none" stroke="none" stroke-width="1" font-family="sans-serif" font-weight="normal" font-size="12" text-anchor="start"/></g><g><g fill="#868995" stroke="#000000" stroke-width="1.2"><path d="M316.08632,234.08237c0,0 14.6953,0.0323 16.15501,1.76388c1.42192,1.68676 -0.46573,24.71773 -2.15979,26.45859c-2.19541,2.25607 -16.85394,1.91088 -16.85394,1.91088"/></g><g fill="none" stroke="none" stroke-width="1" font-family="sans-serif" font-weight="normal" font-size="12" text-anchor="start"/><g fill="none" stroke="none" stroke-width="1" font-family="sans-serif" font-weight="normal" font-size="12" text-anchor="start"/></g></g><g><g><g fill="#4e4f56" stroke="#000000" stroke-width="1.2"><path d="M314.22497,262.44253c0,0 -12.98201,0.30455 -14.59394,-1.68584c-1.24382,-1.53585 0.40802,-21.85463 1.90544,-23.34275c1.53721,-1.52767 14.5066,-1.55616 14.5066,-1.55616"/></g><g fill="none" stroke="none" stroke-width="1" font-family="sans-serif" font-weight="normal" font-size="12" text-anchor="start"/><g fill="none" stroke="none" stroke-width="1" font-family="sans-serif" font-weight="normal" font-size="12" text-anchor="start"/></g><g><g fill="#4e4f56" stroke="#000000" stroke-width="1.2"><path d="M315.94775,235.85778c0,0 12.96474,0.0285 14.25254,1.55616c1.25447,1.48812 -0.41089,21.8069 -1.90545,23.34275c-1.93687,1.99039 -14.86917,1.68584 -14.86917,1.68584"/></g><g fill="none" stroke="none" stroke-width="1" font-family="sans-serif" font-weight="normal" font-size="12" text-anchor="start"/><g fill="none" stroke="none" stroke-width="1" font-family="sans-serif" font-weight="normal" font-size="12" text-anchor="start"/></g></g><g><g><g fill="#9497a4" stroke="#000000" stroke-width="1.2"><path d="M314.68197,253.57663c0,0 -4.31767,0.10129 -4.85378,-0.56069c-0.41368,-0.51081 0.1357,-7.26859 0.63373,-7.76352c0.51126,-0.50808 4.82472,-0.51756 4.82472,-0.51756"/></g><g fill="none" stroke="none" stroke-width="1" font-family="sans-serif" font-weight="normal" font-size="12" text-anchor="start"/><g fill="none" stroke="none" stroke-width="1" font-family="sans-serif" font-weight="normal" font-size="12" text-anchor="start"/></g><g><g fill="#9497a4" stroke="#000000" stroke-width="1.2"><path d="M315.25494,244.73485c0,0 4.31192,0.00948 4.74023,0.51756c0.41723,0.49493 -0.13665,7.25272 -0.63373,7.76352c-0.64418,0.66198 -4.94531,0.56069 -4.94531,0.56069"/></g><g fill="none" stroke="none" stroke-width="1" font-family="sans-serif" font-weight="normal" font-size="12" text-anchor="start"/><g fill="none" stroke="none" stroke-width="1" font-family="sans-serif" font-weight="normal" font-size="12" text-anchor="start"/></g></g></g><g><g><g><g fill="#868995" stroke="#000000" stroke-width="1.2"><path d="M311.59361,294.79087c0,0 -11.16273,0.26187 -12.54877,-1.44959c-1.06951,-1.32062 0.35084,-18.79196 1.63841,-20.07154c1.32179,-1.31358 12.47367,-1.33808 12.47367,-1.33808"/></g><g fill="none" stroke="none" stroke-width="1" font-family="sans-serif" font-weight="normal" font-size="12" text-anchor="start"/><g fill="none" stroke="none" stroke-width="1" font-family="sans-serif" font-weight="normal" font-size="12" text-anchor="start"/></g><g><g fill="#868995" stroke="#000000" stroke-width="1.2"><path d="M313.07496,271.93165c0,0 11.14788,0.0245 12.25522,1.33808c1.07867,1.27958 -0.3533,18.75092 -1.63842,20.07154c-1.66544,1.71146 -12.78544,1.44959 -12.78544,1.44959"/></g><g fill="none" stroke="none" stroke-width="1" font-family="sans-serif" font-weight="normal" font-size="12" text-anchor="start"/><g fill="none" stroke="none" stroke-width="1" font-family="sans-serif" font-weight="normal" font-size="12" text-anchor="start"/></g></g><g><g><g fill="#4e4f56" stroke="#000000" stroke-width="1.2"><path d="M311.66294,293.44573c0,0 -9.84817,0.23103 -11.07098,-1.27888c-0.94357,-1.1651 0.30953,-16.57896 1.44547,-17.70785c1.16613,-1.15889 11.00473,-1.18051 11.00473,-1.18051"/></g><g fill="none" stroke="none" stroke-width="1" font-family="sans-serif" font-weight="normal" font-size="12" text-anchor="start"/><g fill="none" stroke="none" stroke-width="1" font-family="sans-serif" font-weight="normal" font-size="12" text-anchor="start"/></g><g><g fill="#4e4f56" stroke="#000000" stroke-width="1.2"><path d="M312.96985,273.27849c0,0 9.83507,0.02162 10.812,1.18051c0.95164,1.12889 -0.3117,16.54275 -1.44547,17.70785c-1.46932,1.50991 -11.27978,1.27888 -11.27978,1.27888"/></g><g fill="none" stroke="none" stroke-width="1" font-family="sans-serif" font-weight="normal" font-size="12" text-anchor="start"/><g fill="none" stroke="none" stroke-width="1" font-family="sans-serif" font-weight="normal" font-size="12" text-anchor="start"/></g></g><g><g><g fill="#9497a4" stroke="#000000" stroke-width="1.2"><path d="M312.00961,286.72004c0,0 -3.27538,0.07683 -3.68208,-0.42534c-0.31382,-0.3875 0.10295,-5.51397 0.48075,-5.88942c0.38784,-0.38543 3.66004,-0.39263 3.66004,-0.39263"/></g><g fill="none" stroke="none" stroke-width="1" font-family="sans-serif" font-weight="normal" font-size="12" text-anchor="start"/><g fill="none" stroke="none" stroke-width="1" font-family="sans-serif" font-weight="normal" font-size="12" text-anchor="start"/></g><g><g fill="#9497a4" stroke="#000000" stroke-width="1.2"><path d="M312.44426,280.01265c0,0 3.27103,0.00719 3.59595,0.39263c0.31651,0.37545 -0.10367,5.50192 -0.48075,5.88942c-0.48867,0.50218 -3.75152,0.42534 -3.75152,0.42534"/></g><g fill="none" stroke="none" stroke-width="1" font-family="sans-serif" font-weight="normal" font-size="12" text-anchor="start"/><g fill="none" stroke="none" stroke-width="1" font-family="sans-serif" font-weight="normal" font-size="12" text-anchor="start"/></g></g></g></g><g stroke-linecap="butt"><path d="M150.4212,300.6928l-6.86992,-69.90475l45.02029,0.10411l4.37749,69.80064z" fill="#868995" stroke="#000000" stroke-width="1.2"/><g><g><g><g fill="#868995" stroke="#000000" stroke-width="1.2"><path d="M163.80563,234.08237c0,0 14.70057,0.0323 16.44297,1.76388c1.6973,1.68676 3.56964,24.71773 2.15979,26.45859c-1.82709,2.25607 -16.54198,1.91087 -16.54198,1.91087"/></g><g fill="none" stroke="none" stroke-width="1" font-family="sans-serif" font-weight="normal" font-size="12" text-anchor="start"/><g fill="none" stroke="none" stroke-width="1" font-family="sans-serif" font-weight="normal" font-size="12" text-anchor="start"/></g><g><g fill="#868995" stroke="#000000" stroke-width="1.2"><path d="M166.77241,264.21572c0,0 -14.65853,0.3452 -16.85394,-1.91087c-1.69406,-1.74086 -3.58171,-24.77183 -2.15979,-26.45859c1.45971,-1.73158 16.15501,-1.76388 16.15501,-1.76388"/></g><g fill="none" stroke="none" stroke-width="1" font-family="sans-serif" font-weight="normal" font-size="12" text-anchor="start"/><g fill="none" stroke="none" stroke-width="1" font-family="sans-serif" font-weight="normal" font-size="12" text-anchor="start"/></g></g><g><g><g fill="#4e4f56" stroke="#000000" stroke-width="1.2"><path d="M163.95692,235.85778c0,0 12.96939,0.0285 14.5066,1.55616c1.49742,1.48812 3.14926,21.8069 1.90544,23.34275c-1.61193,1.99039 -14.59394,1.68584 -14.59394,1.68584"/></g><g fill="none" stroke="none" stroke-width="1" font-family="sans-serif" font-weight="normal" font-size="12" text-anchor="start"/><g fill="none" stroke="none" stroke-width="1" font-family="sans-serif" font-weight="normal" font-size="12" text-anchor="start"/></g><g><g fill="#4e4f56" stroke="#000000" stroke-width="1.2"><path d="M166.57432,262.44253c0,0 -12.93229,0.30455 -14.86917,-1.68584c-1.49456,-1.53585 -3.15992,-21.85463 -1.90544,-23.34275c1.28781,-1.52766 14.25254,-1.55616 14.25254,-1.55616"/></g><g fill="none" stroke="none" stroke-width="1" font-family="sans-serif" font-weight="normal" font-size="12" text-anchor="start"/><g fill="none" stroke="none" stroke-width="1" font-family="sans-serif" font-weight="normal" font-size="12" text-anchor="start"/></g></g><g><g><g fill="#9497a4" stroke="#000000" stroke-width="1.2"><path d="M164.71335,244.73485c0,0 4.31347,0.00948 4.82472,0.51756c0.49803,0.49493 1.04741,7.25272 0.63373,7.76352c-0.53611,0.66198 -4.85377,0.56069 -4.85377,0.56069"/></g><g fill="none" stroke="none" stroke-width="1" font-family="sans-serif" font-weight="normal" font-size="12" text-anchor="start"/><g fill="none" stroke="none" stroke-width="1" font-family="sans-serif" font-weight="normal" font-size="12" text-anchor="start"/></g><g><g fill="#9497a4" stroke="#000000" stroke-width="1.2"><path d="M165.58387,253.57663c0,0 -4.30113,0.10129 -4.94531,-0.56069c-0.49707,-0.51081 -1.05095,-7.26859 -0.63373,-7.76352c0.42831,-0.50808 4.74023,-0.51756 4.74023,-0.51756"/></g><g fill="none" stroke="none" stroke-width="1" font-family="sans-serif" font-weight="normal" font-size="12" text-anchor="start"/><g fill="none" stroke="none" stroke-width="1" font-family="sans-serif" font-weight="normal" font-size="12" text-anchor="start"/></g></g></g><g><g><g><g fill="#868995" stroke="#000000" stroke-width="1.2"><path d="M166.84307,271.93165c0,0 11.15188,0.0245 12.47367,1.33808c1.28757,1.27958 2.70793,18.75092 1.63842,20.07154c-1.38604,1.71146 -12.54877,1.44959 -12.54877,1.44959"/></g><g fill="none" stroke="none" stroke-width="1" font-family="sans-serif" font-weight="normal" font-size="12" text-anchor="start"/><g fill="none" stroke="none" stroke-width="1" font-family="sans-serif" font-weight="normal" font-size="12" text-anchor="start"/></g><g><g fill="#868995" stroke="#000000" stroke-width="1.2"><path d="M169.09368,294.79087c0,0 -11.11999,0.26187 -12.78543,-1.44959c-1.28511,-1.32062 -2.71709,-18.79196 -1.63842,-20.07153c1.10733,-1.31358 12.25522,-1.33808 12.25522,-1.33808"/></g><g fill="none" stroke="none" stroke-width="1" font-family="sans-serif" font-weight="normal" font-size="12" text-anchor="start"/><g fill="none" stroke="none" stroke-width="1" font-family="sans-serif" font-weight="normal" font-size="12" text-anchor="start"/></g></g><g><g><g fill="#4e4f56" stroke="#000000" stroke-width="1.2"><path d="M166.95783,273.27849c0,0 9.8386,0.02162 11.00473,1.18051c1.13595,1.12889 2.38904,16.54275 1.44547,17.70785c-1.22281,1.50991 -11.07099,1.27888 -11.07099,1.27888"/></g><g fill="none" stroke="none" stroke-width="1" font-family="sans-serif" font-weight="normal" font-size="12" text-anchor="start"/><g fill="none" stroke="none" stroke-width="1" font-family="sans-serif" font-weight="normal" font-size="12" text-anchor="start"/></g><g><g fill="#4e4f56" stroke="#000000" stroke-width="1.2"><path d="M168.9434,293.44573c0,0 -9.81046,0.23103 -11.27978,-1.27888c-1.13378,-1.1651 -2.39712,-16.57896 -1.44547,-17.70785c0.97693,-1.15889 10.812,-1.18051 10.812,-1.18051"/></g><g fill="none" stroke="none" stroke-width="1" font-family="sans-serif" font-weight="normal" font-size="12" text-anchor="start"/><g fill="none" stroke="none" stroke-width="1" font-family="sans-serif" font-weight="normal" font-size="12" text-anchor="start"/></g></g><g><g><g fill="#9497a4" stroke="#000000" stroke-width="1.2"><path d="M167.53167,280.01265c0,0 3.2722,0.00719 3.66005,0.39262c0.3778,0.37545 0.79457,5.50193 0.48075,5.88942c-0.40669,0.50218 -3.68208,0.42534 -3.68208,0.42534"/></g><g fill="none" stroke="none" stroke-width="1" font-family="sans-serif" font-weight="normal" font-size="12" text-anchor="start"/><g fill="none" stroke="none" stroke-width="1" font-family="sans-serif" font-weight="normal" font-size="12" text-anchor="start"/></g><g><g fill="#9497a4" stroke="#000000" stroke-width="1.2"><path d="M168.19205,286.72004c0,0 -3.26285,0.07684 -3.75152,-0.42534c-0.37708,-0.3875 -0.79725,-5.51397 -0.48074,-5.88942c0.32492,-0.38543 3.59594,-0.39262 3.59594,-0.39262"/></g><g fill="none" stroke="none" stroke-width="1" font-family="sans-serif" font-weight="normal" font-size="12" text-anchor="start"/><g fill="none" stroke="none" stroke-width="1" font-family="sans-serif" font-weight="normal" font-size="12" text-anchor="start"/></g></g></g></g><path d="M187.3461,300.92055l-3.94905,-103.37655h113.20589l-3.94904,103.37655z" fill="#868995" stroke="#000000" stroke-width="1.2" stroke-linecap="butt"/><path d="M192.35429,176.07742" fill="none" stroke="#000000" stroke-width="1.2" stroke-linecap="round"/><path d="M200.34224,180.47578" fill="none" stroke="#000000" stroke-width="1.2" stroke-linecap="round"/><g><g stroke-linecap="round"><g stroke="#000000" stroke-width="1.2"><path d="M201.96198,158.91056c-15.84946,-2.43879 -27.83236,-32.95326 -27.83236,-32.95326c10.01048,-1.70198 14.23788,1.99816 14.78078,2.3486c0.54305,0.3513 10.59202,8.28346 10.59202,8.28346c-0.56718,13.45072 2.45956,22.3212 2.45956,22.3212zM199.83166,133.72366c0,0 -0.31308,2.04342 -0.34115,3.15016M201.96198,158.91056c0.30389,0.89263 1.13753,2.26664 1.13753,2.26664" fill="#be1e2d"/><path d="M195.39029,155.84829c-3.0213,-1.9087 -6.72259,-4.92795 -10.28782,-9.61445c-3.1787,-4.17872 -6.53777,-10.74311 -8.68584,-15.26868l0.06176,-0.06906c6.16487,-1.45906 9.96739,2.55734 9.96739,2.55734l0.23814,0.32335c1.59225,2.39454 3.29209,4.79419 4.65186,6.31602c0.80278,0.89994 1.65148,1.67969 2.43964,2.32567c0,0 1.7234,4.18281 2.1207,7.15217c0.59378,4.39187 -0.63061,6.21357 -0.63061,6.21357z" fill="#929497"/></g><path d="M263.77967,168.53271l-10.42303,8.96337l-24.21366,1.48679l-10.07183,4.98407l-15.63829,-3.83285l-7.00478,-7.96103l-6.15278,-9.63953l-3.95081,-12.29603l0.02132,-12.31096l2.61338,-9.50207l4.41558,-9.38502l6.21881,-8.58973l7.13306,-7.7579l8.00646,-7.21067l5.6556,-4.1824l2.40307,-2.93193l2.56072,-4.75253l1.64924,-4.57249l1.28189,-6.13099l-0.69703,-8.15857l4.79803,5.45514l5.03085,7.07703l0.0544,-3.92436l1.07329,2.09819l4.19037,6.60073l5.83201,6.20362l3.81243,2.89191l5.55687,4.28682l6.76319,5.16006l6.11319,6.01078l5.09736,6.46455l4.44735,7.31527l3.32569,7.03182l1.23053,7.49701l0.62587,7.58778l-0.90393,6.61252l-2.22512,8.16649l-2.82072,5.09282l-4.90149,6.90824z" fill="#be1e2d" stroke="#8c8c8c" stroke-width="0"/><path d="M274.59538,169.41651l-10.86513,-0.80488l-10.40223,9.12143l-24.1532,1.21669l-10.08108,4.94088l-14.87008,-3.13191c0,0 -49.60438,-40.90892 15.87284,-88.89662c0,0 11.41643,-11.86838 7.00156,-27.85595c-0.35908,-1.30033 10.12916,13.24579 10.12916,13.24579c0,0 -0.25576,-5.30947 -0.00969,-4.65325c2.727,7.27245 11.91628,16.3481 11.91628,16.3481c56.93049,35.73373 30.2878,74.58239 30.2878,74.58239z" fill="none" stroke="#000000" stroke-width="1.2"/><g stroke="#000000" stroke-width="1.2"><path d="M276.72658,125.10225c0,0 7.75702,-11.41974 8.1984,-11.9685c0.44147,-0.54795 3.60046,-5.67299 14.08399,-8.56239c0,0 -3.20706,32.22387 -18.33219,41.33498c0,0 0.47632,-9.16697 -3.95023,-20.80409zM276.82012,125.3484c-0.34566,-0.96567 -1.24471,-2.63398 -1.24471,-2.63398M280.19153,148.40856c0,0 0.43801,-1.58004 0.48525,-2.50222" fill="#be1e2d"/><path d="M286.46571,140.20472c0,0 -1.74531,-1.07242 -2.41287,-5.214c-0.45549,-2.79829 0.06482,-7.25091 0.06482,-7.25091c0.60156,-0.91673 1.22517,-1.97826 1.76844,-3.12584c0.92093,-1.94156 1.92944,-4.8081 2.83202,-7.62291l0.14498,-0.39025c0,0 2.64399,-5.21802 9.21809,-6.63434l0.08148,0.03391c-0.84596,4.94188 -2.31593,12.21686 -4.29047,17.30456c-2.21478,5.70604 -5.04386,9.99851 -7.51273,13.01115z" fill="#929497"/></g></g><g><g><path d="M273.30448,147.56621c2.29865,15.65915 -12.76499,30.8382 -33.64559,33.90332c-20.88061,3.06513 -39.67112,-7.14434 -41.96978,-22.8035c-2.29865,-15.65915 12.76498,-30.8382 33.64559,-33.90332c20.88061,-3.06513 39.67112,7.14434 41.96978,22.8035z" fill="#e6e7e8" stroke="#000000" stroke-width="1.2" stroke-linecap="butt"/><path d="M214.65538,181.36881l2.2842,2.60223l2.84766,1.66669l-1.80762,0.64438l-4.37757,-0.4945l-4.06458,-1.77232l-1.85131,-2.3815l-4.90307,-2.02828l-3.69978,-2.01539l0.24972,2.36648c-5.78355,-9.20418 -14.979,-18.541 -13.04347,-31.94699c25.39296,-31.30484 70.67575,-40.74295 88.65945,-9.57609c0.24048,0.41676 0.46696,0.83334 0.68001,1.24972c0.16886,0.63358 0.29572,1.22725 0.36552,1.76783c0.78948,6.11496 0.73521,12.19643 0.99327,18.39163c0.01699,0.40817 -0.03026,0.86709 -0.11788,1.35275l-0.78642,1.37645l-0.36396,-1.41934l-2.00106,5.44846l-4.37053,5.20717l-2.83479,1.8889l-0.15678,-4.24803l-0.69421,-5.78919l-1.13419,-4.5464l-1.08741,0.01234l0.24533,-1.50878l0.86296,-3.66133l-0.44024,-4.05915l-1.26535,-4.37986l-3.85481,-3.99973l-6.2496,-3.35366l-8.08164,-2.05377l-9.28323,-0.69917l2.45412,0.81797l3.92665,2.36915l2.33576,3.19177l-17.39019,-1.86556l-16.80208,-2.09916l-0.33833,2.99522l-2.02639,6.33584l-1.93757,5.88097l0.78305,5.33431l3.35133,4.81004l4.5106,3.16708l-3.11408,1.04624l-2.74178,0.40247l0.50792,3.4601l2.22577,3.50248l2.46692,3.02524l2.70808,2.54801z" fill="#be1e2d" stroke="#8c8c8c" stroke-width="0" stroke-linecap="butt"/><path d="M209.29815,137.78893c-0.45791,8.04551 -4.7636,12.62452 -4.14651,16.77396c1.27017,8.54096 8.78304,11.42277 8.78304,11.42277c0,0 -5.05488,3.24303 -11.44752,0.19591" fill="none" stroke="#000000" stroke-width="1.2" stroke-linecap="round"/><path d="M197.27398,158.27141c-0.84786,-1.52627 -1.68449,-3.29004 -2.49798,-5.32453" fill="none" stroke="#000000" stroke-width="1.2" stroke-linecap="round"/><path d="M202.74675,136.0826c15.69529,3.9008 41.22897,5.24769 41.22897,5.24769c0,0 -3.00052,-4.12028 -8.82858,-5.92336c0,0 36.18651,-1.29583 27.57271,24.04513c0,0 3.43612,-2.1466 5.60972,-6.01168" fill="none" stroke="#000000" stroke-width="1.2" stroke-linecap="round"/><path d="M269.61756,144.31477c0.37358,1.76567 0.576,2.58313 0.31303,4.07216" fill="none" stroke="#000000" stroke-width="1.2" stroke-linecap="round"/><path d="M274.85322,161.90844c-1.29241,6.86791 -8.89981,11.6646 -8.89981,11.6646c0,0 0.10689,-9.75595 -2.165,-14.74863" fill="none" stroke="#000000" stroke-width="1.2" stroke-linecap="round"/><path d="M196.753,158.05246c-3.66827,7.98725 2.67034,21.5799 2.67034,21.5799c0,0 -17.5106,-19.83595 -12.71208,-32.69042" fill="none" stroke="#000000" stroke-width="1.2" stroke-linecap="round"/><path d="M277.58503,159.49464c-1.1935,2.50497 -2.18165,3.90245 -2.18165,3.90245c0,0 0.08301,-9.73057 -5.50153,-14.88662" fill="none" stroke="#000000" stroke-width="1.2" stroke-linecap="round"/><path d="M208.20405,167.61159c-0.48422,6.81488 7.9903,12.63798 7.9903,12.63798c0,0 -10.2243,3.41336 -17.55302,-3.23018" fill="none" stroke="#000000" stroke-width="1.2" stroke-linecap="round"/><path d="M213.94956,180.85846c1.47536,3.11142 5.9637,4.76305 5.9637,4.76305c0,0 -8.15166,2.68597 -13.12889,-4.49801" fill="none" stroke="#000000" stroke-width="1.2" stroke-linecap="round"/></g><g><path d="M256.87488,148.59354c0.53853,-0.1122 0.89386,0.67645 1.0397,1.01019c0.54685,1.25141 0.59054,2.807 -0.30568,3.88209l-0.40131,0.10974c-0.17582,0.09109 -0.43203,0.14017 -0.79214,0.12625c-3.02965,-0.11706 -5.69057,-0.28031 -8.63917,0.98291c-0.84594,0.36241 -2.28936,1.83124 -3.01407,2.00579c-0.92959,0.22389 -1.29005,0.00335 -1.51395,-0.92623c-0.21848,-0.90711 1.46603,-1.75681 2.0709,-2.09724c2.10582,-1.18519 4.51572,-1.89333 6.92795,-2.19282c0.47249,-0.52034 0.70994,-1.12611 0.97936,-1.87147c0.0775,-0.21439 0.40091,-1.05105 0.48983,-1.06831c0.99874,-0.19376 1.24988,1.4899 1.26086,2.75119c0.26468,-0.00057 0.53289,0.00769 0.78032,0.03086c0.3522,-1.10804 0.73201,-2.66268 1.11741,-2.74297z" fill="#000000" stroke="none" stroke-width="0.5" stroke-linecap="butt"/><path d="M218.98271,158.53057c0.20307,-0.13077 0.42892,-0.25495 0.65476,-0.36847c-0.41953,-1.31647 -0.77798,-3.17571 0.13938,-3.40473c0.08169,-0.0204 0.64192,0.7103 0.78088,0.89985c0.48316,0.65905 0.8916,1.18667 1.47135,1.52413c2.15837,-0.72838 4.45372,-1.03077 6.65206,-0.70597c0.63144,0.09329 2.35651,0.25081 2.4787,1.28838c0.12523,1.06328 -0.1071,1.44802 -0.97574,1.6159c-0.67721,0.13088 -2.40726,-0.77445 -3.2517,-0.78668c-2.94339,-0.04265 -5.15641,1.27415 -7.69953,2.70193c-0.30227,0.16971 -0.5374,0.22913 -0.71826,0.21019l-0.37945,0.05886c-1.12966,-0.73174 -1.62139,-2.36836 -1.58072,-3.90553c0.01085,-0.40996 0.04562,-1.38332 0.54289,-1.49879c0.35588,-0.08262 1.20831,1.37044 1.88538,2.37097z" fill="#000000" stroke="none" stroke-width="0.5" stroke-linecap="butt"/><path d="M250.69727,164.38932c-9.248,10.09617 -22.33222,6.81759 -22.33222,6.81759" fill="none" stroke="#000000" stroke-width="1.2" stroke-linecap="round"/></g></g></g><path d="M266.95966,164.10718" fill="none" stroke="#000000" stroke-width="1.2" stroke-linecap="round"/><g stroke="#000000" stroke-width="1.2" stroke-linecap="butt"><g fill="#868995"><path d="M240.75084,244.52209c0,0 -41.94558,0.42456 -44.92372,-2.35022c-2.29803,-2.14112 -2.30937,-30.46732 0,-32.5419c2.37074,-2.1297 44.33295,-2.16943 44.33295,-2.16943"/><path d="M239.83992,207.46054c0,0 41.96221,0.03973 44.33295,2.16943c2.30938,2.07458 2.29804,30.40079 0,32.5419c-2.97814,2.77478 -44.92372,2.35022 -44.92372,2.35022"/></g><g fill="#4e4f56"><path d="M240.71252,242.40881c0,0 -39.80476,0.37611 -42.6309,-2.08203c-2.18075,-1.89678 -2.19151,-26.99059 0,-28.82843c2.24974,-1.88667 42.07028,-1.92187 42.07028,-1.92187"/><path d="M239.84809,209.57648c0,0 39.82055,0.0352 42.07029,1.92187c2.19151,1.83784 2.18075,26.93165 0,28.82843c-2.82614,2.45814 -42.63091,2.08203 -42.63091,2.08203"/></g><g fill="#9497a4"><path d="M240.2322,231.45283c0,0 -12.9719,0.12494 -13.8929,-0.69163c-0.71068,-0.6301 -0.71419,-8.96603 0,-9.57654c0.73316,-0.62673 13.7102,-0.63843 13.7102,-0.63843"/><path d="M239.9505,220.54624c0,0 12.97703,0.0117 13.7102,0.63843c0.71418,0.61051 0.71068,8.94644 0,9.57654c-0.92101,0.81657 -13.8929,0.69163 -13.8929,0.69163"/></g></g><g stroke="#000000" stroke-width="1.2" stroke-linecap="butt"><g fill="#868995"><path d="M240.65981,285.68289c0,0 -36.86021,0.37309 -39.47728,-2.06529c-2.01943,-1.88153 -2.02939,-26.77355 0,-28.59661c2.08332,-1.8715 38.95814,-1.90641 38.95814,-1.90641"/><path d="M239.85933,253.11458c0,0 36.87483,0.03491 38.95815,1.90641c2.02939,1.82306 2.01943,26.71508 0,28.59661c-2.61708,2.43837 -39.47729,2.06528 -39.47729,2.06528"/></g><g fill="#4e4f56"><path d="M240.62614,283.82581c0,0 -34.97894,0.33051 -37.46244,-1.82961c-1.91636,-1.66682 -1.92582,-23.71832 0,-25.33335c1.97699,-1.65794 36.96979,-1.68887 36.96979,-1.68887"/><path d="M239.86651,254.97399c0,0 34.99281,0.03093 36.9698,1.68887c1.92582,1.61503 1.91636,23.66653 0,25.33335c-2.48351,2.16012 -37.46245,1.82961 -37.46245,1.82961"/></g><g fill="#9497a4"><path d="M240.20405,274.19811c0,0 -11.39922,0.10979 -12.20856,-0.60778c-0.62452,-0.5537 -0.6276,-7.87901 0,-8.4155c0.64428,-0.55075 12.04801,-0.56103 12.04801,-0.56103"/><path d="M239.9565,264.6138c0,0 11.40373,0.01028 12.04801,0.56103c0.6276,0.53649 0.62452,7.8618 0,8.41551c-0.80934,0.71757 -12.20856,0.60777 -12.20856,0.60777"/></g></g><g stroke="#000000" stroke-width="1.2"><path d="M229.0109,178.63597c0.18991,-0.0302 0.37246,-0.05415 0.54782,-0.07206c0.28768,-0.08192 0.59863,-0.09682 0.90831,-0.0388c6.83522,0.17276 -0.58398,12.05761 -3.09453,12.88031c-2.12897,0.69765 -6.80616,-0.76286 -6.04046,-3.93541c0.27637,-1.14508 6.5799,-8.40866 7.62811,-8.75216z" fill="#be1e2d" stroke-linecap="butt"/><g><path d="M221.81706,195.77213c-0.23713,-0.23725 -3.04067,-3.21691 -3.04067,-3.21691c0,0 1.03451,5.03168 -2.18606,6.40562c-1.7438,0.74393 -5.62151,0.16986 -7.64413,0.32794c0,0 -2.31499,0.17914 -2.67234,-2.14956c-0.35735,-2.3287 1.95764,-2.50783 1.95764,-2.50783c0.4484,-0.03438 1.01315,-0.01541 1.6273,0.02045c2.08878,-5.98803 2.82972,-15.85863 11.42157,-10.78639c3.52678,2.08205 4.31325,2.90403 4.31325,2.90403c0,0 2.41019,-10.04095 7.11209,-9.42828c15.34554,1.99956 10.79074,19.97177 4.89458,20.62974c-8.94513,0.99821 -12.89593,0.68982 -15.78324,-2.19881z" fill="#be1e2d" stroke-linecap="butt"/><path d="M227.50606,191.84933c-0.79913,-3.20306 1.05959,-14.1335 6.17775,-10.78277c4.02886,2.63759 2.42693,8.33619 1.07292,11.27005c-1.52421,3.30266 -6.38456,2.98429 -7.25067,-0.48728z" fill="#e6e7e8" stroke-linecap="round"/></g><path d="M238.84457,180.09385c1.05228,-1.58434 3.71658,-1.18759 4.8374,-0.84674c3.17702,0.96615 3.50843,3.66846 4.3749,6.67218c0.75366,2.61271 2.07855,5.50079 3.93199,7.07516c3.38028,0.87774 9.11019,-0.09053 8.53654,4.34581c-0.13755,1.06366 -5.94358,1.54055 -8.1924,1.6162c1.6463,2.40989 -0.75396,2.72103 -3.00101,1.46096c-0.92162,-0.51682 -3.11283,-1.32729 -4.63361,-2.87032c-1.52077,-1.54303 -0.70959,-2.36486 -0.96239,-3.57746c-0.57356,-2.75101 -1.81415,-3.85461 -2.80498,-6.36734" fill="#be1e2d" stroke-linecap="butt"/><path d="M221.10591,183.81385c-0.16189,1.27292 -1.64745,1.63144 -1.64745,1.63144c0,0 -0.98977,2.43562 -4.63051,3.24193c-4.9046,1.08622 -6.57968,-5.19047 -1.95949,-7.53982c0,0 3.82458,-2.56991 5.96128,-1.93709c0.71684,0.2123 0.7959,1.26761 1.17289,1.95597c0.75624,1.38082 1.26517,1.37465 1.10329,2.64757z" fill="#be1e2d" stroke-linecap="butt"/></g><path d="M238.44545,196.72178c4.32275,4.32574 8.11882,15.62002 1.27853,15.54329c-1.04622,-0.01173 -1.94952,-0.79093 -2.92427,-1.18641c-1.57579,-2.12712 -2.43085,-4.45962 -4.04022,-6.5679c-1.4938,-1.95691 -4.21313,-3.76803 -5.08177,-6.07042c-1.69123,-4.4827 5.16016,-7.9992 9.29159,-5.88733" fill="#be1e2d" stroke="#000000" stroke-width="1.2" stroke-linecap="butt"/><path d="M78.0357,341.9643v-323.92859h323.92859v323.92859z" fill="none" stroke="#000000" stroke-width="0" stroke-linecap="butt"/></g></g></svg>