<svg version="1.1" xmlns="http://www.w3.org/2000/svg" xmlns:xlink="http://www.w3.org/1999/xlink" width="75.9" height="78" viewBox="0,0,75.9,78"><g transform="translate(-202.05,-141)"><g stroke-width="0" stroke-linecap="round" stroke-miterlimit="10"><g><path d="M277.95,183.3l-35.35,35.7l-6.2,-0.2l-15.4,-12.5l-1.55,-6.9l5.6,-3.2l-15.4,3.2l-7.6,-4.6v-29.6l7.6,-4.6l15.4,3.2l-5.6,-3.2l1.55,-6.9l15.4,-12.5l6.2,-0.2l35.35,35.9z" fill="#000000" stroke="#000000"/><path d="M276.25,182.625l-34.75,34.5l-4.5,-0.25l-14.25,-12l-1,-4l8,-6.5l-19,3.25l-6.25,-3.75v-27.5l6.25,-3.75l19,3.25l-8,-6.5l1,-4l14.25,-12l4.5,-0.25l34.75,34.5z" fill="#ffffff" stroke="#ffffff"/><path d="M274.04244,181.43443l-33.63465,33.83546l-2.15579,0.02246l-13.10294,-11.5528l-0.23114,-3.20468l13.6747,-9.55415l-27.46327,4.1851l-3.87179,-2.57439l-0.00001,-24.95048l3.8718,-2.5744l27.46326,4.18511l-13.67468,-9.55415l0.23113,-2.95468l13.10295,-12.03519l2.15579,0.02246l33.63464,34.06787z" fill="#d4ecff" stroke="#ffffff"/></g></g></g></svg>