<svg version="1.1" xmlns="http://www.w3.org/2000/svg" xmlns:xlink="http://www.w3.org/1999/xlink" width="90.78319" height="122.91919" viewBox="0,0,90.78319,122.91919"><g transform="translate(-194.56169,-118.63357)"><g stroke-miterlimit="10"><g fill-rule="evenodd"><path d="M251.81853,213.46362c1.57525,1.87845 3.65125,4.05567 6.72451,5.1304c6.91806,2.52991 14.85936,0.19845 14.80542,4.53978c-0.00666,4.42944 -11.59744,10.53467 -20.89003,1.67533c-3.21932,-3.03909 -5.01585,-6.38758 -6.39334,-9.16652c-0.37822,-0.70495 -3.02354,-7.11605 -1.16218,-10.83833c1.86136,-3.72228 3.45815,-2.64975 4.18885,-2.13392c0.86608,0.55668 0.59063,8.08092 2.72677,10.79327z" fill="#ffab19" stroke="#001026" stroke-width="1.2" stroke-linecap="round" stroke-linejoin="round"/><path d="M272.88856,222.69964c0.41683,2.04603 -2.81135,4.91287 -6.36828,5.6864c-3.55692,0.77352 -5.89948,0.21463 -7.65962,-0.3163c0.71138,-0.1547 2.83909,-0.84234 3.18092,-2.95496c0.50518,-2.6542 -2.03714,-5.48908 -2.03714,-5.48908c0,0 4.8141,0.93513 7.94973,1.06852c2.78316,0.32251 4.34133,0.05394 4.9344,2.00541z" fill="#ffffff" stroke="none" stroke-width="1" stroke-linecap="butt" stroke-linejoin="miter"/></g><path d="M234.33551,181.46802c2.67499,-0.68547 5.39919,0.92736 6.08466,3.60235c0.15571,0.6076 0.19282,1.21774 0.12585,1.80595c0.75436,1.75264 -2.66974,4.11688 -3.50397,5.37499c-3.1369,4.7307 -6.23326,6.7023 -12.5897,7.85332c-2.59756,0.47037 -5.2228,-0.23903 -6.08466,-3.60235c-1.63596,-6.3842 6.05607,-6.19284 9.17232,-8.32539c1.67002,-1.14285 4.96194,-7.62502 6.7955,-6.70887z" fill="#ffab19" fill-rule="nonzero" stroke="#000000" stroke-width="1.2" stroke-linecap="butt" stroke-linejoin="miter"/><path d="M252.64808,192.78991c-0.91292,-0.9309 -2.10223,-2.4394 -3.31418,-3.85049c-2.02747,-2.31935 -4.62819,-7.03063 0.64953,-7.65167c4.23576,-0.55527 7.10822,2.98719 10.59455,6.98036c1.75791,2.15401 3.83749,4.69081 2.2589,7.50649c-1.76657,3.18265 -8.80371,11.81333 -13.8032,7.26304c-3.53162,-3.79837 0.5726,-6.43756 3.3495,-8.66665c0.40543,-0.41908 0.44389,-1.02614 0.2649,-1.58108z" fill="#ffab19" fill-rule="evenodd" stroke="#001026" stroke-width="1.2" stroke-linecap="round" stroke-linejoin="round"/><g fill-rule="nonzero" stroke-linecap="round" stroke-linejoin="miter"><path d="M220.57804,227.17023l7.5922,-22.49542c0,0 0.82551,-4.45315 2.63128,-11.5098c0.87735,-3.42855 1.12684,-9.83464 3.27376,-12.11038c3.31086,-3.50951 10.40413,-3.09312 10.40413,-3.09312c0,0 7.9255,0.99244 9.19815,6.27953c1.01261,4.20678 -0.83422,7.88379 -1.50954,12.29762c-0.64432,4.21124 -0.09641,9.26093 -0.09641,9.26093l5.90504,24.18257c0,0 4.03204,0.78099 4.78028,2.81193c0.74824,2.03095 -0.84357,7.87339 -0.84357,7.87339l-17.15276,0.28119l-5.34266,-5.34266v-6.28462c0,0 0.10554,-25.86138 -1.12706,-20.65426c-0.54999,2.32346 -3.32838,18.51388 -3.32838,18.51388l-0.47066,8.42848l-17.89487,1.60484l-3.61115,-0.76474c0,0 -3.19148,-4.0619 -0.8555,-6.91698c2.33597,-2.85507 8.44771,-2.36239 8.44771,-2.36239z" fill="#ffab19" stroke="#001026" stroke-width="1.2"/><path d="M240.66865,208.23685c0,0 -3.23157,-0.13731 -4.55805,-1.51935" fill="none" stroke="#001026" stroke-width="1.2"/><path d="M238.05811,201.31214c-4.04613,-0.65398 -3.77106,-4.90464 -3.33069,-8.97955c0.49394,-4.57068 1.32939,-9.42706 5.88649,-8.82045c4.9993,0.66547 5.10669,5.43964 4.48809,10.44496c0,0 -1.21306,8.29748 -7.04389,7.35504z" fill="#ffffff" stroke="#000000" stroke-width="0"/></g><path d="M245.53817,232.51214c0,0 1.55081,-2.71583 12.2,-2.6" fill="none" fill-rule="nonzero" stroke="#001026" stroke-width="1.2" stroke-linecap="round" stroke-linejoin="miter"/><g><g><path d="M216.63443,146.44518c0,0 -4.86183,-27.15835 -3.7857,-27.21237c1.44976,-0.07277 27.43932,9.3278 27.43932,9.3278" fill="#ffab19" fill-rule="nonzero" stroke="#001026" stroke-width="1.2" stroke-linecap="round" stroke-linejoin="miter"/><path d="M271.20108,146.57202l13.4299,14.37212l-2.58836,5.60539l-30.39827,0.86318z" fill="#9b7f41" fill-rule="nonzero" stroke="#001026" stroke-width="1.2" stroke-linecap="round" stroke-linejoin="miter"/><path d="M207.5247,166.41367c0,0 -7.12729,1.0255 -12.36301,-1.99398" fill="none" fill-rule="evenodd" stroke="#001026" stroke-width="1.2" stroke-linecap="round" stroke-linejoin="round"/><path d="M208.05089,172.30375c0,0 -3.55547,2.48567 -9.85628,2.97555" fill="none" fill-rule="evenodd" stroke="#001026" stroke-width="1.2" stroke-linecap="round" stroke-linejoin="round"/><path d="M232.93559,135.66863c10.94998,-3.21547 41.42352,2.33949 36.62317,29.87756c-0.06258,0.35902 -0.20755,0.69907 -0.35083,1.03776c-5.23281,12.36882 -19.35122,19.76412 -38.49835,19.04511c-19.14714,-0.71901 -25.17959,-10.69947 -24.88435,-16.51693c0.29523,-5.81746 6.98022,-9.00037 6.98022,-9.00037c0,0 -0.6039,-4.46041 1.69803,-10.39262c0,0 2.43391,-9.35262 18.43213,-14.05052z" fill="#ffab19" fill-rule="evenodd" stroke="#001026" stroke-width="1.2" stroke-linecap="butt" stroke-linejoin="miter"/><path d="M230.22696,162.72346c8.39064,-0.71901 18.32862,-11.50311 26.61724,-1.98056c8.273,9.42378 -0.83739,25.44286 -25.52129,24.283c-18.93397,-0.65146 -25.28344,-10.07561 -24.98821,-15.89306c0.29523,-5.81746 6.82952,-8.6728 6.82952,-8.6728c8.09905,-3.20397 9.87299,2.89384 17.06274,2.26343z" fill="#ffffff" fill-rule="evenodd" stroke="none" stroke-width="1" stroke-linecap="butt" stroke-linejoin="miter"/><path d="M234.96263,160.65865c0.24984,1.58037 -3.50827,4.70554 -5.31742,4.78906c-1.59599,0.15107 -3.5148,-2.38036 -3.63464,-3.7788c-0.01053,-0.70703 2.13126,-1.2481 4.20549,-1.57601c1.97547,-0.3123 4.65796,-0.63513 4.74657,0.56577z" fill="#001026" fill-rule="evenodd" stroke="#001026" stroke-width="1.2" stroke-linecap="round" stroke-linejoin="round"/><path d="M265.51446,156.61053c-3.05225,5.21668 -9.75151,7.85671 -9.75151,7.85671" fill="none" fill-rule="evenodd" stroke="#001026" stroke-width="1.2" stroke-linecap="round" stroke-linejoin="round"/><path d="M268.25968,167.54642c-5.71598,2.69586 -10.0359,2.29801 -10.0359,2.29801" fill="none" fill-rule="evenodd" stroke="#001026" stroke-width="1.2" stroke-linecap="round" stroke-linejoin="round"/><path d="M258.59861,145.39821l-43.59658,1.69061l0.15262,-22.80037l48.19823,-0.90017l13.63738,17.9717l-6.36673,16.01327z" fill="#c58600" fill-rule="nonzero" stroke="#001026" stroke-width="1.2" stroke-linecap="round" stroke-linejoin="miter"/><path d="M263.1533,123.58869l-4.5551,21.60951" fill="none" fill-rule="nonzero" stroke="#001026" stroke-width="0.75" stroke-linecap="round" stroke-linejoin="miter"/><path d="M269.36991,131.57579l-5.6162,-7.78835c0,0 15.34057,-3.7641 16.3929,-3.43408c1.17929,0.36984 -10.74469,26.62239 -10.74469,26.62239z" fill="#ffab19" fill-rule="nonzero" stroke="#001026" stroke-width="1.2" stroke-linecap="round" stroke-linejoin="miter"/></g><g><g fill-rule="evenodd"><path d="M226.25677,144.0139c3.04672,1.3407 3.74432,6.39375 1.58256,11.29139c-2.26053,4.91325 -6.47619,7.70578 -9.52291,6.36507c-3.04672,-1.3407 -3.74431,-6.39375 -1.58255,-11.2914c2.16176,-4.89763 6.46057,-7.80454 9.52291,-6.36507z" fill="#ffffff" stroke="#001026" stroke-width="1.2" stroke-linecap="round" stroke-linejoin="round"/><path d="M216.81734,155.14909c-0.17176,-1.08651 0.47789,-2.10039 1.46562,-2.25653c0.98774,-0.15615 1.91846,0.60788 2.09022,1.69439c0.17176,1.08651 -0.47789,2.10039 -1.46561,2.25653c-0.98774,0.15615 -1.91846,-0.60788 -2.09022,-1.69439" fill="#001026" stroke="none" stroke-width="1" stroke-linecap="butt" stroke-linejoin="miter"/></g><g fill-rule="evenodd"><path d="M250.43463,144.5434c3.40551,1.68895 4.098,7.35026 1.72309,12.18036c-2.27615,4.81447 -6.40356,6.88435 -9.95976,5.52295c-2.96356,-1.45508 -4.00431,-6.75762 -1.72817,-11.57209c2.27615,-4.81447 6.54373,-7.91894 9.96485,-6.13121z" fill="#ffffff" stroke="#001026" stroke-width="1.2" stroke-linecap="round" stroke-linejoin="round"/><path d="M240.76642,155.51227c-0.17176,-1.08651 0.49351,-2.00162 1.46562,-2.25654c0.98774,-0.15615 1.91845,0.60789 2.09022,1.6944c0.17176,1.08651 -0.47789,2.10039 -1.46561,2.25653c-0.98774,0.15615 -1.91846,-0.60789 -2.09022,-1.6944" fill="#001026" stroke="none" stroke-width="1" stroke-linecap="butt" stroke-linejoin="miter"/></g><g fill-rule="nonzero" stroke="#001026" stroke-linecap="round" stroke-linejoin="miter"><path d="M226.71938,175.08414c-0.20498,-0.18257 5.58674,-1.12072 11.2604,-3.31027c12.84473,-4.95696 13.30818,-7.04582 13.86246,-6.94851c1.02289,0.17958 4.33189,10.71908 -3.70652,13.9981c-7.73054,3.15344 -20.77618,-3.16913 -21.41634,-3.73932z" fill="#ffffff" stroke-width="1.2"/><path d="M251.44379,175.88101l-2.21537,-7.39541l2.81496,7.19417" fill="#000000" stroke-width="0"/><path d="M248.64837,178.08683l-1.00873,-4.19791l1.40789,3.79708" fill="#000000" stroke-width="0"/><path d="M227.84218,175.13006l9.20455,2.18088l4.00456,2.19168l-7.20331,-1.58503z" fill="#000000" stroke-width="0"/></g></g></g><path d="M233.89936,201.88248c-1.25154,0.74672 -2.32448,2.14301 -3.68372,2.49803c-0.20729,0.05414 -0.42125,0.08406 -0.6435,0.08378c-2.64282,-0.00345 -8.94575,-3.48776 -10.0814,-4.47554c-2.45312,-2.13372 -2.53077,-6.90438 0.43779,-8.73904c3.21566,-1.98738 7.69779,1.64871 10.04684,2.90739c1.11581,0.59788 3.8887,1.24114 3.89697,2.76246z" fill="#ffab19" fill-rule="nonzero" stroke="#000000" stroke-width="1.2" stroke-linecap="butt" stroke-linejoin="miter"/><g fill-rule="nonzero" stroke="#000000" stroke-width="1.2" stroke-linejoin="miter"><path d="M236.55686,198.57548c-2.29503,-4.14033 -0.79914,-9.35723 3.34119,-11.65226c4.14033,-2.29503 9.35723,-0.79913 11.65226,3.3412c2.29503,4.14033 0.79914,9.35723 -3.3412,11.65226c-4.14033,2.29503 -9.35722,0.79913 -11.65226,-3.3412z" fill="#5c5e5f" stroke-linecap="butt"/><g stroke-linecap="round"><path d="M239.49997,202.82418l-1.65263,4.44415l-2.3647,0.33077l-3.89829,2.16088l-2.27824,-3.04923z" fill="#ffab19"/><path d="M241.58612,197.74772l-1.42126,6.27593l-4.01399,1.24498l-1.2663,0.89793l-3.71412,1.07876l-0.73339,0.79853l-3.51364,0.37962l-3.67483,-5.21513l-0.12694,-6.59376l12.44289,-5.13323z" fill="#ffab19"/><path d="M236.72139,200.6403l-1.10175,2.96277" fill="none"/><path d="M230.95539,205.79652l0.98607,-3.87865" fill="none"/></g><path d="M227.09301,205.19343l-3.78094,1.3118l-2.72804,-2.7999l0.60309,-3.86237l3.03127,-0.89625l3.32778,2.46745z" fill="#5c5e5f" stroke-linecap="round"/></g></g></g></svg>