<svg version="1.1" xmlns="http://www.w3.org/2000/svg" xmlns:xlink="http://www.w3.org/1999/xlink" width="94.08695" height="108.37613" viewBox="0,0,94.08695,108.37613"><g transform="translate(-182.23048,-135.51189)"><g data-paper-data="{&quot;isPaintingLayer&quot;:true}" stroke-miterlimit="10" stroke-dasharray="" stroke-dashoffset="0" style="mix-blend-mode: normal"><g fill-rule="evenodd"><path d="M253.45853,211.51417c2.44894,-0.11251 5.43919,-0.4418 8.15812,-2.23273c6.20838,-3.96435 9.17318,-11.69157 12.59146,-9.01473c3.517,2.6927 1.33783,15.61058 -11.34259,17.6223c-4.36905,0.71522 -8.1208,0.11173 -11.16557,-0.47931c-0.78985,-0.12705 -7.49111,-1.91396 -9.32069,-5.65197c-1.82959,-3.738 -0.00822,-4.35659 0.84516,-4.62447c0.96798,-0.35072 6.782,4.43333 10.23414,4.3809z" fill="#ffab19" stroke="#001026" stroke-width="1.2" stroke-linecap="round" stroke-linejoin="round"/><path d="M273.58394,200.3689c1.87932,0.91001 2.19963,5.21551 0.65648,8.51229c-1.54315,3.29676 -3.40869,4.81983 -4.89865,5.89686c0.30863,-0.65935 1.05294,-2.7679 -0.41903,-4.32139c-1.80337,-2.01192 -5.59934,-1.71096 -5.59934,-1.71096c0,0 3.66415,-3.25945 5.67263,-5.67109c1.94496,-2.01671 2.67684,-3.41827 4.58792,-2.70573z" fill="#ffffff" stroke="none" stroke-width="1" stroke-linecap="butt" stroke-linejoin="miter"/></g><path d="M223.48951,199.13226c2.63131,-0.83762 5.44346,0.61646 6.28108,3.24778c0.19027,0.59769 0.26228,1.20468 0.22913,1.79577c0.85354,1.70653 -2.42945,4.2631 -3.19022,5.56693c-2.86067,4.90267 -5.83897,7.04847 -12.11902,8.56183c-2.56634,0.61843 -5.22792,0.06063 -6.28108,-3.24779c-1.99909,-6.27997 5.69126,-6.52968 8.6802,-8.83729c1.60179,-1.23666 4.51686,-7.89681 6.3999,-7.08724z" fill="#ffab19" fill-rule="nonzero" stroke="#000000" stroke-width="1.2" stroke-linecap="butt" stroke-linejoin="miter"/><path d="M245.53824,232.51217c0,0 1.55081,-2.71583 12.2,-2.6" fill="none" fill-rule="nonzero" stroke="#001026" stroke-width="1.2" stroke-linecap="round" stroke-linejoin="miter"/><g fill-rule="nonzero" stroke-linecap="round" stroke-linejoin="miter"><path d="M254.55134,210.1738l11.58205,10.33102l-5.17056,10.52233c0,0 6.47502,-0.06226 7.44559,2.67841c0.97058,2.74067 -3.51597,8.41788 -3.51597,8.41788l-19.02764,1.14788l-6.82513,-7.84392l-1.03411,-5.73945l4.34327,-7.07866l-4.13645,-9.56576l-7.03196,6.69602l4.96373,9.75707l-1.03411,6.88735l-16.95942,2.29579l-6.41149,-1.33921c0,0 -5.6356,-5.18628 -3.2267,-7.57374c2.40891,-2.38746 11.91323,-1.03544 11.91323,-1.03544l-4.75691,-10.33102l10.34111,-7.46129c0,0 -6.508,-6.42552 -5.17055,-10.90496c3.16625,-10.60445 19.40401,-12.64296 28.12782,-5.16551c5.01152,4.29554 5.5842,15.30521 5.5842,15.30521z" fill="#ffab19" stroke="#001026" stroke-width="1.2"/><path d="M239.757,210.97694c-5.31731,0.96021 -7.85088,-1.66853 -10.06676,-4.24756c-2.48548,-2.89281 -4.75195,-6.07013 1.14926,-7.22918c6.47384,-1.27152 9.82122,1.54203 12.44943,4.73585c0,0 4.13077,5.35712 -3.53193,6.74089z" fill="#ffffff" stroke="#000000" stroke-width="0"/><path d="M248.88985,233.48954c0,0 1.60371,-2.5979 12.61615,-2.48709" fill="none" stroke="#001026" stroke-width="1.2"/><path d="M240.54507,212.94683c0,0 -3.34179,-0.13135 -4.71353,-1.45338" fill="none" stroke="#001026" stroke-width="1.2"/></g><g><g><g><path d="M205.76675,163.54881c0,0 -2.51281,-27.47544 -1.43601,-27.43688c1.45066,0.05193 26.53743,11.64858 26.53743,11.64858" fill="#ffab19" fill-rule="nonzero" stroke="#001026" stroke-width="1.2" stroke-linecap="round" stroke-linejoin="miter"/><path d="M260.1211,168.35878l12.14673,15.4718l-3.05993,5.36254l-30.36018,-1.74918z" fill="#9b7f41" fill-rule="nonzero" stroke="#001026" stroke-width="1.2" stroke-linecap="round" stroke-linejoin="miter"/><path d="M194.97671,182.66168c0,0 -7.18901,0.40997 -12.14623,-3.04777" fill="none" fill-rule="evenodd" stroke="#001026" stroke-width="1.2" stroke-linecap="round" stroke-linejoin="round"/><path d="M194.99537,188.57522c0,0 -3.7557,2.17132 -10.0753,2.11858" fill="none" fill-rule="evenodd" stroke="#001026" stroke-width="1.2" stroke-linecap="round" stroke-linejoin="round"/><path d="M222.93273,154.2112c11.18556,-2.26374 41.06984,5.88635 33.92353,32.91077c-0.09317,0.35233 -0.26679,0.67868 -0.43861,1.00382c-6.27514,11.87403 -20.97622,18.03021 -39.99097,15.6704c-19.01476,-2.35981 -24.1683,-12.82122 -23.37483,-18.59187c0.79347,-5.77065 7.72699,-8.36801 7.72699,-8.36801c0,0 -0.21882,-4.49579 2.58379,-10.20852c0,0 3.22769,-9.10919 19.57011,-12.41658z" fill="#ffab19" fill-rule="evenodd" stroke="#001026" stroke-width="1.2" stroke-linecap="butt" stroke-linejoin="miter"/><path d="M217.91193,180.93371c8.42139,0.00384 19.24833,-9.88745 26.68901,0.31138c7.4336,10.09909 -3.01813,25.27708 -27.51138,22.00282c-18.80819,-2.27422 -24.32532,-12.20857 -23.53184,-17.97921c0.79347,-5.77065 7.54873,-8.0546 7.54873,-8.0546c8.34417,-2.49698 9.58816,3.73058 16.80549,3.71963z" fill="#ffffff" fill-rule="evenodd" stroke="none" stroke-width="1" stroke-linecap="butt" stroke-linejoin="miter"/><path d="M222.80733,179.283c0.11328,1.59599 -3.89921,4.38704 -5.70885,4.31498c-1.60306,0.01352 -3.29753,-2.67326 -3.29688,-4.07683c0.05019,-0.70532 2.23053,-1.06056 4.32525,-1.20923c1.99498,-0.14158 4.69529,-0.23298 4.68049,0.97109z" fill="#001026" fill-rule="evenodd" stroke="#001026" stroke-width="1.2" stroke-linecap="round" stroke-linejoin="round"/><path d="M253.59387,177.87216c-3.48874,4.93545 -10.38989,6.99072 -10.38989,6.99072" fill="none" fill-rule="evenodd" stroke="#001026" stroke-width="1.2" stroke-linecap="round" stroke-linejoin="round"/><path d="M255.39028,189.00329c-5.92628,2.1953 -10.1961,1.42813 -10.1961,1.42813" fill="none" fill-rule="evenodd" stroke="#001026" stroke-width="1.2" stroke-linecap="round" stroke-linejoin="round"/><path d="M247.66588,166.10757l-43.58081,-2.05766l2.10908,-22.70313l48.09763,3.24014l12.04449,19.07591l-7.7177,15.4077z" fill="#c58600" fill-rule="nonzero" stroke="#001026" stroke-width="1.2" stroke-linecap="round" stroke-linejoin="miter"/><path d="M254.07579,144.76954l-6.3931,21.13878" fill="none" fill-rule="nonzero" stroke="#001026" stroke-width="0.75" stroke-linecap="round" stroke-linejoin="miter"/><path d="M259.58388,153.26073l-4.92699,-8.24166c0,0 15.60704,-2.43348 16.62716,-2.01434c1.14319,0.4697 -12.99012,25.60189 -12.99012,25.60189z" fill="#ffab19" fill-rule="nonzero" stroke="#001026" stroke-width="1.2" stroke-linecap="round" stroke-linejoin="miter"/></g><g fill="none" fill-rule="nonzero" stroke="none" stroke-width="1" stroke-linecap="butt" stroke-linejoin="miter" font-family="sans-serif" font-weight="normal" font-size="12" text-anchor="start"><g/><g/><g/></g></g><g fill-rule="nonzero" stroke="#000000" stroke-linejoin="miter"><path d="M243.60599,172.31075c0,0 -3.92062,12.27895 -11.525,11.85875c-7.60437,-0.4202 -10.25166,-13.06208 -10.25166,-13.06208l6.68898,0.16792c0,0 -0.41347,9.44244 4.93557,9.80952c5.34905,0.36708 10.15211,-8.77412 10.15211,-8.77412z" fill="#000000" stroke-width="0" stroke-linecap="round"/><path d="M215.6148,171.60807c0,0 -3.15469,12.13216 -9.14447,11.40251c-5.98978,-0.72964 -8.00849,-13.49199 -8.00849,-13.49199l5.26983,0.43991c0,0 -0.37606,9.43527 3.83687,10.0201c4.21294,0.58483 8.04626,-8.37052 8.04626,-8.37052z" fill="#000000" stroke-width="0" stroke-linecap="round"/><path d="M208.97476,194.42033c4.03631,4.00844 6.23575,8.33802 4.91258,9.6704c-1.32317,1.33238 -5.6679,-0.83701 -9.70421,-4.84544c-4.03631,-4.00844 -6.23575,-8.33802 -4.91258,-9.6704c1.32317,-1.33238 5.6679,0.83701 9.70421,4.84544z" fill="#ffffff" stroke-width="1.2" stroke-linecap="butt"/></g></g><path d="M225.89998,213.68459c-0.76415,1.24097 -1.06946,2.97523 -2.11029,3.91875c-0.15873,0.14389 -0.33458,0.2694 -0.53175,0.37196c-2.34463,1.21949 -9.54446,1.04612 -11.00822,0.69573c-3.16191,-0.75688 -5.43763,-4.95049 -3.65451,-7.95027c1.93155,-3.2495 7.58732,-2.09927 10.25217,-2.07002c1.26582,0.0139 4.02175,-0.69853 4.73283,0.64639z" fill="#ffab19" fill-rule="nonzero" stroke="#000000" stroke-width="1.2" stroke-linecap="butt" stroke-linejoin="miter"/><g fill-rule="nonzero" stroke="#000000" stroke-width="1.2" stroke-linejoin="miter"><path d="M228.19415,210.86083c-3.95363,-2.60352 -5.04814,-7.91914 -2.44461,-11.87277c2.60352,-3.95363 7.91914,-5.04812 11.87277,-2.4446c3.95363,2.60352 5.04813,7.91914 2.4446,11.87277c-2.60352,3.95363 -7.91914,5.04813 -11.87277,2.44461z" fill="#5c5e5f" stroke-linecap="butt"/><g stroke-linecap="round"><path d="M232.7722,213.25977l0.59722,4.70372l-1.94153,1.38986l-2.45133,3.72252l-3.43266,-1.64467z" fill="#ffab19"/><path d="M232.26577,207.79479l1.65182,6.21923l-2.97862,2.96476l-0.70536,1.38285l-2.79006,2.67841l-0.27935,1.04761l-2.93674,1.96605l-5.67455,-2.91573l-3.17084,-5.78269l8.64253,-10.31903z" fill="#ffab19"/><path d="M229.69579,215.74961l-0.39815,-3.13581" fill="none"/><path d="M225.65555,215.96269l0.92545,3.89357" fill="none"/></g><path d="M222.8795,221.11345l-2.74118,2.91586l-3.71551,-1.21515l-1.25718,-3.7015l2.26977,-2.2l4.09264,0.64246z" fill="#5c5e5f" stroke-linecap="round"/></g><g fill-rule="nonzero" stroke-linejoin="miter"><path d="M247.26028,206.87652c0.38097,-2.12038 3.08042,-3.69368 6.19005,-4.38072c4.44355,-0.98175 9.72471,-0.15382 10.27546,3.47361c1.77064,11.66194 -13.89416,13.15436 -16.33262,2.61911z" fill="#ffab19" stroke="#000000" stroke-width="1.2" stroke-linecap="butt"/><path d="M266.42907,203.86655c-5.15302,6.64216 -10.86774,7.033 -15.33659,5.21429c-4.46885,-1.81871 -8.76215,-7.94386 -8.76215,-7.94386c0,0 -4.2894,-4.06866 -0.43223,-7.90914c2.78841,-2.77634 5.51636,1.4755 5.51636,1.4755l3.8441,-4.86446c0,0 1.91535,-8.71992 5.98506,-7.25114c1.20903,0.43635 2.84978,1.23237 2.84978,1.23237c0,0 3.67185,-0.05926 5.06424,0.68814c5.61208,3.01241 -0.50059,10.31064 -0.50059,10.31064c0,0 5.08503,4.77726 1.77204,9.04765z" fill="#ffab19" stroke="#000000" stroke-width="1.2" stroke-linecap="round"/><path d="M258.01826,186.76865l-1.63729,3.03961" fill="none" stroke="#000000" stroke-width="1.2" stroke-linecap="round"/><path d="M263.46343,190.72169c-1.03936,2.19655 -3.09603,3.40274 -4.59368,2.69407c-1.66332,-0.78705 -0.93728,-2.97735 -0.09685,-4.9174c0.907,-2.09375 2.06564,-3.88645 3.86074,-3.03704c1.49766,0.70866 1.86916,3.06381 0.8298,5.26036z" fill="#ffffff" stroke="none" stroke-width="0" stroke-linecap="butt"/><path d="M256.25907,187.66502c-0.86351,1.69224 -2.40938,2.69852 -3.4528,2.2476c-1.15883,-0.50081 -0.52164,-2.17213 0.18509,-3.66272c0.76272,-1.60869 1.69131,-3.00588 2.94196,-2.4654c1.04342,0.45092 1.18926,2.18829 0.32575,3.88053z" fill="#ffffff" stroke="none" stroke-width="0" stroke-linecap="butt"/><path d="M247.27688,198.6312c-0.72699,0.59412 -2.19461,0.00107 -3.27802,-1.32463c-1.08341,-1.32569 -1.37233,-2.88202 -0.64533,-3.47614c0.72699,-0.59412 2.19461,-0.00107 3.27802,1.32463c1.08341,1.32569 1.37233,2.88202 0.64533,3.47614z" fill="#ffffff" stroke="none" stroke-width="0" stroke-linecap="butt"/><path d="M250.21343,204.42335c-3.3993,-2.35713 -4.15372,-4.3374 -1.90182,-7.58495c1.00752,-1.45298 2.87685,0.31527 4.50245,-0.07699c2.00775,-0.48447 2.71874,-3.78603 4.59716,-2.4835c1.99651,1.38441 -0.46223,3.38969 -0.65193,5.56446c-0.65065,1.41602 1.118,4.68682 2.03453,5.02354c0.0953,0.03501 0.18821,0.06712 0.27876,0.09642c-2.26617,2.59983 -5.6621,1.67791 -8.85914,-0.53898z" fill="#ffffff" stroke="none" stroke-width="0" stroke-linecap="butt"/><path d="M261.19031,205.3347c0,0 -4.04552,0.84467 -4.61645,-4.15792c-0.26683,-2.33808 4.19085,-4.33554 4.19085,-4.33554" fill="none" stroke="#000000" stroke-width="1.2" stroke-linecap="round"/></g></g></g></svg>