<svg version="1.1" xmlns="http://www.w3.org/2000/svg" xmlns:xlink="http://www.w3.org/1999/xlink" width="88.28928" height="118.67753" viewBox="0,0,88.28928,118.67753"><g transform="translate(-217.87692,-98.02111)"><g stroke-miterlimit="10"><g fill-rule="evenodd" stroke="#000000"><path d="M261.3136,195.85605c0.87044,-3.34101 -2.39666,-10.12453 -1.8262,-10.98158c0.46281,-0.76539 1.4961,-2.38786 4.69291,0.2768c3.19682,2.66465 3.34184,9.59856 3.27776,10.39599c-0.14866,3.09804 -0.45305,6.88582 -2.185,10.96017c-4.96444,11.84038 -18.03035,10.89068 -19.81119,6.83499c-1.78886,-3.95602 6.4213,-5.00171 11.74613,-10.09151c2.38518,-2.21606 3.41492,-5.04266 4.10556,-7.39489z" fill="#7e5765" stroke-width="1.2" stroke-linecap="round" stroke-linejoin="round"/><path d="M245.7093,212.76036c-0.23851,-2.0256 1.29674,-2.40385 3.71751,-3.81446c2.8195,-1.37856 6.8556,-4.1642 6.8556,-4.1642c0,0 -1.19349,3.61601 0.33283,5.84544c1.15965,1.79867 3.38464,1.5762 4.0984,1.43291c-1.39996,1.19168 -3.32235,2.64235 -6.89121,3.35876c-3.56887,0.71643 -7.67525,-0.61682 -8.11311,-2.65844z" fill="#6f6fca" stroke-width="0" stroke-linecap="butt" stroke-linejoin="miter"/></g><g fill-rule="nonzero" stroke="#000000" stroke-width="1.2" stroke-linejoin="miter"><path d="M254.61577,168.50973c2.39579,-1.2453 5.45116,-0.25323 6.82432,2.21586c0.31191,0.56083 0.51018,1.14962 0.6023,1.73933c1.1939,1.55213 -1.47682,4.60042 -1.94584,6.01024c-1.76362,5.30118 -4.22302,7.89499 -10.04331,10.3868c-2.37846,1.01827 -5.09782,0.88858 -6.82432,-2.21586c-0.61762,-1.11054 -0.8537,-2.06384 -0.81383,-2.8982c0.1717,-3.59288 5.46079,-4.97973 7.43747,-7.21594c1.30531,-1.4767 2.75186,-8.52429 4.76321,-8.02224z" fill="#7e5765" stroke-linecap="butt"/><g><path d="M235.94002,184.99895c1.28896,4.62379 -1.35867,9.21997 -5.91367,10.26585c-4.555,1.04587 -9.29248,-1.85461 -10.58145,-6.47839c-1.28896,-4.62379 1.35867,-9.21997 5.91368,-10.26584c4.555,-1.04587 9.29247,1.8546 10.58145,6.47839z" fill="#323388" stroke-linecap="butt"/><g stroke-linecap="round"><path d="M234.04485,180.08929l2.62378,-3.80933l2.37776,0.34484l4.28873,-0.98475l1.52176,3.57011z" fill="#7e5765"/><path d="M230.85461,184.385l2.81679,-5.63526l4.19223,-0.07178l1.43788,-0.50832l3.86232,0.00398l0.89635,-0.56213l3.5075,0.61992l2.38689,6.04386l-1.38208,6.37478l-13.28631,1.44724z" fill="#7e5765"/><path d="M236.25132,182.96772l1.74918,-2.53956" fill="none"/><path d="M241.19669,183.07933l1.8457,-3.45252" fill="none"/></g><path d="M246.66501,181.28924l3.98059,-0.20135l2.01661,3.45649l-1.46912,3.5442l-3.15583,0.01196l-2.67643,-3.30498z" fill="#323388" stroke-linecap="round"/></g></g><g fill-rule="nonzero" stroke-linejoin="miter"><path d="M232.31874,179.05249c5.54861,-0.05419 6.61213,6.79011 6.61213,6.79011c0,0 8.82273,-6.21575 13.57481,-7.54031c-1.14211,-2.67601 -1.71711,-5.49248 -1.30773,-8.43857c0.5861,-4.21786 5.47084,-10.11863 10.69745,-10.73233c0.30158,-0.10483 0.62335,-0.1573 0.94898,-0.15037c2.50382,-0.48679 5.6616,1.09218 7.72205,2.78243c0.34,0.23666 0.67732,0.48092 1.01188,0.7257c6.44301,4.71419 6.92971,11.188 4.95207,18.11858c-0.20141,0.70585 -0.53149,2.30037 -1.06469,3.80281c3.41984,2.04098 3.66801,7.05549 2.77925,9.93806c2.8763,1.74178 7.86181,4.32908 8.47163,5.81433c0.88198,2.14809 -3.10794,7.88908 -4.35799,9.50666c-1.92114,2.48598 -6.00902,5.45739 -6.00902,5.45739l-12.23361,-4.4997l-4.01112,-22.21521c0,0 -13.79893,5.52497 -21.68814,10.60821c-3.61143,2.32695 -8.50898,4.20407 -10.71998,0.72123c-2.04373,-3.21936 -6.62265,-11.49091 -7.33603,-15.19543c0,0 6.40942,-5.43939 11.95803,-5.4936z" fill="#7e5765" stroke="#000000" stroke-width="1.2" stroke-linecap="butt"/><path d="M257.80657,180.76493c-2.21651,-2.84322 -4.50517,-5.40814 -3.96958,-9.26254c0.8536,-6.14289 8.88902,-5.19832 12.21668,-1.75437c5.36838,5.556 -2.87255,17.36588 -7.85637,11.31919z" fill="#6f6fca" stroke="none" stroke-width="0.5" stroke-linecap="butt"/><path d="M268.45561,200.38149c2.23315,-6.21686 3.71224,-6.86473 3.71224,-6.86473c0,0 2.33664,-0.88037 6.12501,0.89794" fill="none" stroke="#000000" stroke-width="1.2" stroke-linecap="round"/></g><path d="M272.71579,163.41237c0.4214,-0.37036 0.89054,-0.6912 1.38132,-0.94524c0.74826,-0.38733 1.5346,-0.2847 2.24768,0.10653c1.89642,-0.30678 4.6003,2.00575 6.13924,2.33274c10.82476,2.29994 8.26878,6.49991 5.26412,13.98807c-1.31051,3.26605 -2.43266,6.20785 -4.33168,9.06436c-0.97468,1.46612 -5.7032,4.89187 -7.14678,2.87108c-0.02524,-0.01051 -0.05027,-0.02133 -0.07506,-0.03245c-0.26392,-0.06419 -0.5467,-0.14637 -0.84955,-0.24789c-3.77152,-1.26437 -4.27289,-6.33701 -2.10284,-9.6012c0.77725,-1.16915 1.81667,-3.10629 3.008,-3.89946c0.28448,-0.1894 2.567,-2.31561 2.42054,-2.39074c-2.64882,-1.35868 -5.2956,-2.05819 -6.79632,-4.09171" fill="#7e5765" fill-rule="nonzero" stroke="#000000" stroke-width="1.2" stroke-linecap="butt" stroke-linejoin="miter"/><g><g><g stroke="#000000"><path d="M235.96811,136.76664c0,0 -10.13996,-25.65921 -9.09579,-25.92511c1.4067,-0.35822 28.74256,3.71348 28.74256,3.71348" fill="#7e5765" fill-rule="nonzero" stroke-width="1.2" stroke-linecap="round" stroke-linejoin="miter"/><path d="M289.48077,126.09297l16.00837,11.43032l-1.42794,6.00675l-29.62634,6.86151z" fill="#4a3e7c" fill-rule="nonzero" stroke-width="1.2" stroke-linecap="round" stroke-linejoin="miter"/><path d="M230.99004,158.14293c0,0 -6.78342,2.41562 -12.51312,0.49192" fill="none" fill-rule="evenodd" stroke-width="1.2" stroke-linecap="round" stroke-linejoin="round"/><path d="M232.67138,163.81245c0,0 -2.99328,3.1401 -9.07255,4.86713" fill="none" fill-rule="evenodd" stroke-width="1.2" stroke-linecap="round" stroke-linejoin="round"/><path d="M249.81438,122.97741c10.09715,-5.31873 41.06733,-5.90393 41.81131,22.0395c0.0097,0.3643 -0.0651,0.72632 -0.13853,1.08666c-2.68171,13.15972 -15.0575,23.20263 -33.96828,26.2868c-18.91078,3.08417 -26.79894,-5.50519 -27.66073,-11.26603c-0.8618,-5.76084 5.06113,-10.20367 5.06113,-10.20367c0,0 -1.47462,-4.2527 -0.39212,-10.52313c0,0 0.53503,-9.64929 15.28724,-17.42012z" fill="#7e5765" fill-rule="evenodd" stroke-width="1.2" stroke-linecap="butt" stroke-linejoin="miter"/><path d="M252.51312,150.03323c8.08244,-2.36518 15.68987,-14.90262 25.69896,-7.20859c9.97424,7.6003 4.21398,25.10543 -20.21133,28.85313c-18.68847,3.1082 -26.77729,-4.87311 -27.63909,-10.63395c-0.8618,-5.76084 4.97823,-9.85277 4.97823,-9.85277c7.30486,-4.7433 10.25041,0.88289 17.17323,-1.15782z" fill="#6f6fca" fill-rule="evenodd" stroke-width="0" stroke-linecap="butt" stroke-linejoin="miter"/><path d="M256.74652,147.07214c0.55764,1.49968 -2.50774,5.30673 -4.26458,5.7466c-1.53454,0.46389 -3.91634,-1.63775 -4.31053,-2.98483c-0.15024,-0.69096 1.84214,-1.64518 3.81046,-2.37706c1.87461,-0.69703 4.44016,-1.54432 4.76466,-0.38471z" fill="#000000" fill-rule="evenodd" stroke-width="1.2" stroke-linecap="round" stroke-linejoin="round"/><path d="M285.89312,137.05827c-1.95958,5.71753 -8.00394,9.63104 -8.00394,9.63104" fill="none" fill-rule="evenodd" stroke-width="1.2" stroke-linecap="round" stroke-linejoin="round"/><path d="M290.74811,147.23466c-5.06948,3.77367 -9.38269,4.23853 -9.38269,4.23853" fill="none" fill-rule="evenodd" stroke-width="1.2" stroke-linecap="round" stroke-linejoin="round"/><path d="M276.89523,127.43622l-42.39991,10.28435l-4.36229,-22.37969l47.06698,-10.42015l16.92406,14.91765l-3.07202,16.95649z" fill="#5d4262" fill-rule="nonzero" stroke-width="1.2" stroke-linecap="round" stroke-linejoin="miter"/><path d="M276.8553,127.24027l0.18878,-22.08358" fill="none" fill-rule="nonzero" stroke-width="0.75" stroke-linecap="round" stroke-linejoin="miter"/><path d="M284.71829,111.75565l-7.04636,-6.52297c0,0 14.29234,-6.72536 15.38918,-6.6101c1.22916,0.12917 -5.264,28.22216 -5.264,28.22216z" fill="#7e5765" fill-rule="nonzero" stroke-width="1.2" stroke-linecap="round" stroke-linejoin="miter"/></g><g fill="none" fill-rule="nonzero" stroke="none" stroke-width="1" stroke-linecap="butt" stroke-linejoin="miter" font-family="sans-serif" font-weight="normal" font-size="12" text-anchor="start"><g/><g/><g/></g></g><g fill-rule="nonzero" stroke="#000000" stroke-width="1.2" stroke-linejoin="miter"><path d="M282.75149,139.49691c0.09369,6.36381 -5.77366,11.61018 -13.10506,11.71812c-7.33141,0.10793 -13.35063,-4.96348 -13.44432,-11.32729c-0.09369,-6.36381 5.77366,-11.61019 13.10507,-11.71811c7.33141,-0.10793 13.35063,4.96348 13.44432,11.3273z" fill="#6f6fca" stroke-linecap="butt"/><path d="M269.92503,153.01298c0,0 -6.08795,0.53974 -11.59424,-4.23717" fill="none" stroke-linecap="round"/><path d="M283.4791,144.60741c-0.66858,1.91043 -2.7869,3.87008 -2.7869,3.87008" fill="none" stroke-linecap="round"/></g><g fill-rule="nonzero" stroke="#000000" stroke-width="1.2" stroke-linejoin="miter"><path d="M237.24456,134.723c4.31256,-2.59586 9.43109,0.09954 11.43255,6.02036c2.00147,5.92082 0.12795,12.82495 -4.18462,15.4208c-4.31256,2.59586 -9.4311,-0.09955 -11.43256,-6.02036c-2.00147,-5.92082 -0.12795,-12.82494 4.18462,-15.4208z" fill="#6f6fca" stroke-linecap="butt"/><path d="M250.30678,149.7473c-1.66939,6.44313 -5.39594,8.18236 -5.39594,8.18236" fill="none" stroke-linecap="round"/><path d="M237.16307,157.69344c0,0 -1.86914,-1.03377 -2.8765,-2.55503" fill="none" stroke-linecap="round"/></g></g><path d="M246.48644,162.21948l22.64073,-5.83008l4.77604,16.41608l-22.21336,2.08044z" fill="#6f6fca" fill-rule="nonzero" stroke="#000000" stroke-width="1.2" stroke-linecap="round" stroke-linejoin="miter"/></g></g></svg>