<svg version="1.1" xmlns="http://www.w3.org/2000/svg" xmlns:xlink="http://www.w3.org/1999/xlink" width="111.10915" height="120.86533" viewBox="0,0,111.10915,120.86533"><g transform="translate(-197.81302,-117.84607)"><g stroke-miterlimit="10"><path d="M259.39627,216.02052c2.65518,1.4536 6.45511,7.47406 3.28312,9.46031c-0.90566,0.56711 -2.19672,0.34725 -3.26983,0.08858c-0.46792,-0.11279 -2.58678,-2.63935 -3.82696,-4.56693c-0.11927,-0.13199 -0.22995,-0.27479 -0.33048,-0.42804c-0.19757,-0.3012 -0.34125,-0.62035 -0.43331,-0.94584c-0.37671,-1.33199 0.11106,-2.77023 1.30762,-3.5195c0.87736,-0.54939 1.94001,-0.60577 2.87079,-0.2456c0.13644,0.03519 0.2697,0.08621 0.39904,0.15702z" fill="#9a8479" stroke="#000000" stroke-width="1.2" stroke-linecap="butt"/><path d="M262.72915,220.11113c0.03185,-0.02614 0.0385,-0.0178 0.10223,-0.06308c0.46866,-0.33306 1.7274,-1.15354 1.99872,-1.25518c1.26131,-0.4725 2.7748,-0.09482 3.72296,1.0374c0.69522,0.83017 0.93137,1.88074 0.73077,2.83127c-0.01189,0.13802 -0.0877,0.22863 -0.13623,0.36224c-6.83978,8.83393 -10.88362,1.54031 -10.88362,1.54031" fill="#9a8479" stroke="#000000" stroke-width="1.2" stroke-linecap="butt"/><path d="M256.87944,231.01657l-3.66605,5.36515c0,0 0.61051,0.34929 0.17945,1.09892c-0.43048,0.75337 -2.86482,0.71688 -5.9853,0.8829c-3.12147,0.16691 -5.46099,-0.36213 -5.70902,-1.15826c-0.24908,-0.78714 0.74566,-1.06708 0.74566,-1.06708l4.92572,-6.28267c0,0 -2.11054,-5.76595 1.97342,-6.70824c6.698,-1.54544 7.53612,7.86928 7.53612,7.86928z" fill="#9a8479" stroke="#000000" stroke-width="1.2" stroke-linecap="butt"/><path d="M247.90354,210.25571v0v0v0v0v0v0c8.2762,-0.62376 10.08715,4.05299 10.08561,4.0521c0.32781,1.20795 0.67883,2.91231 0.59151,4.46855c-0.02432,0.42988 -0.0994,0.91356 -0.22756,1.43237c0,0 -0.54289,1.80207 -0.87001,2.35221c-1.37127,2.30475 -3.26633,4.82759 -6.4545,5.96827c-5.00755,1.79848 -9.75096,1.57773 -14.09353,-0.78533c-1.46612,-0.79518 -2.09183,-2.15035 -2.20671,-3.69306c-0.0794,-1.11025 0.15413,-2.55784 0.15413,-2.55784c0.42509,-2.40793 1.49408,-4.75845 2.00047,-5.78064c0,0 2.74541,-4.83296 11.02058,-5.45663z" fill="#9a8479" stroke="#000000" stroke-width="1.2" stroke-linecap="butt"/><path d="M242.93067,229.02182c-0.13545,0.33101 -6.35264,7.0725 -6.35264,7.0725c0,0 0.50526,0.05919 0.18077,0.72783c-0.32113,0.66954 -2.105,1.39557 -6.51901,1.27629c-4.41422,-0.12475 -4.98292,-1.12546 -4.84779,-1.63701c0.13324,-0.51154 1.25579,-1.03037 1.25579,-1.03037c0,0 7.78351,-9.26694 8.5634,-10.33004" fill="#9a8479" stroke="#000000" stroke-width="1.2" stroke-linecap="butt"/><g stroke="#000000" stroke-width="1.2"><path d="M292.09485,162.50308c0,0 11.24395,-14.93101 14.89305,-7.58476c3.64915,7.34613 -0.36036,19.31079 -9.90587,32.53266c0,0 -1.25022,-14.85607 -4.98715,-24.94791zM292.09485,162.50308c-0.34968,-1.21642 -1.32285,-3.41928 -1.32285,-3.41928M297.041,189.8597l-0.10824,-2.44081" fill="#9a8479" stroke-linecap="round"/><path d="M296.93266,187.41793c-0.20638,-2.76166 -0.66054,-7.26254 -1.64944,-12.71191c-0.57307,-3.17253 -1.38494,-6.35564 -2.16307,-9.07371l0.00168,0.00325c6.90652,-5.5518 14.25392,1.47442 14.25392,1.47442l0.00261,-0.00104c-2.71928,10.08005 -10.41217,20.04717 -10.41217,20.04717l-0.03351,0.26182v0v0v0v0z" fill="#ee4036" stroke-linecap="butt"/></g><path d="M204.89873,174.46939c-0.74184,-18.64054 7.26457,-29.44625 12.05479,-35.22168c10.87183,-13.11677 29.13827,-15.46745 29.13827,-15.46745l1.87482,11.95806c0,0 -0.38736,-3.45466 6.36471,-10.25164c6.7502,-6.79678 17.73386,-7.02415 17.73386,-7.02415l-4.2445,15.65745c0,0 2.92913,-5.04098 5.54689,-7.04091c4.6416,-3.54058 8.96103,-2.6628 8.96103,-2.6628l-0.20793,11.97991c0,0 16.8096,19.73292 18.49146,34.28542c1.68185,14.55253 -0.25505,41.00741 -35.55472,45.49975c-61.36689,6.01027 -60.15865,-41.71193 -60.15865,-41.71193z" fill="#9a8479" stroke="#000000" stroke-width="1.2" stroke-linecap="butt"/><g stroke="#000000" stroke-width="1.2"><path d="M221.18027,201.67899c-15.25642,-2.45678 -23.9819,-8.55702 -22.63017,-17.41939c1.35259,-8.86341 19.09172,-6.47746 19.09172,-6.47746c-0.45627,11.10568 3.53843,23.89684 3.53843,23.89684zM217.85967,173.97179c0,0 -0.27347,2.55493 -0.21688,3.81014M221.33225,201.52702l0.76361,2.02085" fill="#9a8479" stroke-linecap="round"/><path d="M221.20114,201.34902c0,0 -12.04744,-1.43643 -18.67493,-7.12571l0.00271,-0.0016c0,0 5.52823,-11.70692 15.11667,-13.10303l0.00064,-0.00305c0.12743,2.79916 0.38643,5.99555 0.90404,8.98229c0.88327,5.13627 2.01074,9.07429 2.78196,11.42912z" fill="#ee4036" stroke-linecap="butt"/></g><path d="M297.84657,184.42838c1.30008,12.75243 -12.16892,24.5709 -30.08388,26.3973c-17.91495,1.82639 -33.49182,-7.03091 -34.79191,-19.78334c-1.30008,-12.75243 12.16893,-24.57091 30.08388,-26.3973c17.91495,-1.82639 33.49182,7.03091 34.79191,19.78334z" fill="#e6e7e8" stroke="#000000" stroke-width="1.2" stroke-linecap="butt"/><g stroke="#000000"><path d="M289.27968,165.87828c0,0 -2.13793,4.66352 -5.33872,7.28178c-1.43255,1.17182 -5.40609,3.88941 -7.52293,4.65189c-5.48199,1.97461 -11.60881,2.32898 -11.60881,2.32898l4.07635,-7.37604c0,0 -4.05026,2.3938 -7.52407,3.787c-4.71597,1.89139 -8.93081,0.30559 -8.93081,0.30559l11.92148,-13.89393" fill="#9a8479" stroke-width="0" stroke-linecap="butt"/><path d="M287.26081,169.31511c0,0 -3.95521,5.5216 -8.92935,7.89837c-4.97415,2.37677 -13.78274,2.95401 -13.78274,2.95401l4.33691,-7.40261c0,0 -3.23824,2.09586 -6.71203,3.48907c-4.71598,1.89138 -10.34646,0.88021 -10.34646,0.88021l11.09436,-12.71109" fill="none" stroke-width="1.2" stroke-linecap="round"/></g><g fill="none" stroke="#ee4036" stroke-width="1.2" stroke-linecap="round"><path d="M226.23545,152.29145l-2.92937,5.92043l-5.75609,-1.72261"/><path d="M216.30023,159.49372l4.80945,2.63219l-1.22779,6.50649"/><path d="M232.62851,162.54573l-5.25397,-2.81124l1.67232,-6.32744"/><path d="M222.71833,169.75809l2.98701,-5.40073l5.69846,1.2029"/></g><path d="M232.91796,212.22835c0,0 11.70647,-15.287 20.15935,-12.88556c8.45288,2.40143 -1.52156,19.22651 -1.52156,19.22651z" fill="#706d6d" stroke="#231f20" stroke-width="1.2" stroke-linecap="round"/><g stroke="#231f20"><path d="M265.02023,192.68036c-0.0896,-0.01783 -0.17851,-0.04533 -0.26889,-0.0801c-3.18395,-1.29193 -9.11225,-1.80146 -9.17049,-1.80717c-0.7875,-0.06827 -1.40415,-0.76489 -1.34986,-1.56369c0.05586,-0.79666 0.75009,-1.38958 1.55255,-1.32225c0.26229,0.02573 6.42935,0.55434 10.03193,2.01411c0.74672,0.30184 1.11677,1.14883 0.82153,1.89283c-0.25842,0.6472 -0.9463,0.99971 -1.61677,0.86627z" fill="#231f20" stroke-width="0.5" stroke-linecap="butt"/><path d="M265.91472,187.47898l1.76486,1.56188l-1.36601,1.30045c0,0 -18.25728,-9.81601 -25.55796,-9.83585" fill="none" stroke-width="1.2" stroke-linecap="round"/></g><g stroke="#231f20"><path d="M293.07012,189.87364c-2.20693,0.51368 -6.10966,1.57986 -7.22751,2.2576c-0.5949,0.35023 -1.39461,0.09678 -1.77706,-0.6009c-0.37627,-0.69396 -0.19797,-1.55636 0.40158,-1.92428c1.77425,-1.08286 7.26574,-2.37787 7.88562,-2.52313c0.68246,-0.15778 1.39651,0.34011 1.59436,1.11117c0.17754,0.69717 -0.122,1.37633 -0.68435,1.61928c-0.0605,0.02614 -0.12476,0.04763 -0.19266,0.06024z" fill="#231f20" stroke-width="0.5" stroke-linecap="butt"/><path d="M296.34484,181.40018c-3.57359,0.87117 -11.23388,8.14564 -11.23388,8.14564l-2.48108,-0.85546l2.23076,-2.36926" fill="none" stroke-width="1.2" stroke-linecap="round"/></g><g stroke="#000000" stroke-width="1.2"><path d="M242.92282,225.37574l-1.01988,0.21837c-1.46602,0.1332 -3.02371,1.01376 -4.39805,0.3996c-3.77505,-1.68699 -3.65043,-4.35133 -4.22938,-7.40946c0,0 -0.50941,-3.23066 2.70422,-3.58477c3.21363,-0.35411 3.72304,2.87654 3.72304,2.87654c0.2031,2.08036 -0.49426,2.38693 0.54686,1.35932l1.01988,-0.21837c0,0 3.147,-0.67381 3.97365,2.50557c0.82665,3.17938 -2.32034,3.85319 -2.32034,3.85319z" fill="#9a8479" stroke-linecap="butt"/><g><path d="M248.03287,210.47977c2.80478,-0.48081 5.57847,1.42187 6.19522,4.24976c0.61675,2.82789 -1.15699,5.51012 -3.96177,5.99093c-2.80478,0.48081 -5.57847,-1.42187 -6.19522,-4.24976c-0.61675,-2.82789 1.15699,-5.51012 3.96177,-5.99093z" fill="#5c5e5f" stroke-linecap="butt"/><path d="M247.27686,221.62639l-0.5677,2.55454l-1.91738,0.23418l-2.2211,1.42035l-1.19972,-2.06254" fill="#9a8479" stroke-linecap="round"/><path d="M247.64143,217.18255l0.13346,4.28586l-6.44212,3.52801l-4.17071,-1.97799l-1.10671,-3.84972l7.10129,-4.17961z" fill="#9a8479" stroke-linecap="round"/><path d="M245.33095,219.86149l0.2731,2.44513" fill="none" stroke-linecap="round"/><path d="M242.59195,224.00337l-0.30331,-1.39071" fill="none" stroke-linecap="round"/><path d="M237.75211,220.8984l1.47454,0.79646l0.33088,1.51714l-1.88356,1.50328l-1.85072,-0.73198l-0.38603,-1.77z" fill="#5c5e5f" stroke-linecap="round"/></g></g></g></g></svg>