<svg version="1.1" xmlns="http://www.w3.org/2000/svg" xmlns:xlink="http://www.w3.org/1999/xlink" width="114.18609" height="112.74456" viewBox="0,0,114.18609,112.74456"><g transform="translate(-187.6848,-125.84657)"><g stroke-miterlimit="10"><path d="M248.4226,218.05621c1.9018,0.11823 4.36387,2.14157 6.34082,2.88747c1.13412,0.4279 3.3382,-0.11771 4.30219,0.95134c0.77199,0.85613 1.625,1.92909 1.625,3.02085c0,4.7651 -8.02635,2.5626 -10.95726,0.75158c-1.35441,-0.8369 -3.77273,-1.32467 -3.85703,-2.85124c-0.33024,-0.5447 -0.52204,-1.17248 -0.52204,-1.82416c0,-1.59609 1.15055,-2.79806 2.66751,-2.90723c0.12596,-0.02697 0.25917,-0.03742 0.40081,-0.02862z" fill="#9a8479" stroke="#000000" stroke-width="1.2" stroke-linecap="butt"/><path d="M251.40396,226.88599c0,0 0.87933,4.45203 1.32603,6.07924c0.4508,1.62712 1.00325,3.14095 1.00325,3.14095c0,0 0.81989,0.29746 0.59256,0.93586c-0.22535,0.64158 -3.01593,0.61051 -6.51797,0.75189c-3.50285,0.14214 -6.35908,-0.3084 -6.92304,-0.98639c-0.56199,-0.67034 0.47428,-0.90874 0.47428,-0.90874c0,0 1.05988,-4.40545 0.03866,-6.41167c-1.36154,-2.67569 0.20364,-3.37238 4.30246,-4.65161v0v0v0v0v0v0c4.09882,-1.27922 5.70377,2.05046 5.70377,2.05046z" fill="#9a8479" stroke="#000000" stroke-width="1.2" stroke-linecap="butt"/><path d="M236.30564,212.99867v0v0v0v0v0v0c9.22345,-0.5312 12.94027,3.45159 12.93819,3.45084c0.80032,1.02871 1.80232,2.48017 2.25188,3.80549c0.12396,0.36609 0.20897,0.778 0.24583,1.21983c0,0 0.01648,1.53467 -0.16262,2.00318c-0.75135,1.96276 -2.02342,4.11126 -5.25874,5.08268c-5.07921,1.53162 -10.56958,1.34362 -16.3586,-0.6688c-1.95354,-0.67719 -3.14575,-1.83127 -3.82124,-3.14507c-0.48241,-0.94551 -0.72678,-2.1783 -0.72678,-2.1783c-0.36471,-2.05063 0.02557,-4.05237 0.24267,-4.92289c0,0 1.42713,-4.11583 10.64944,-4.64696z" fill="#9a8479" stroke="#000000" stroke-width="1.2" stroke-linecap="butt"/><path d="M236.93262,228.68343c-0.03775,0.30726 -0.09381,0.49822 -0.09381,0.49822c0,0 -0.70864,3.00248 -0.70834,4.63277c-0.00082,1.63039 0.09783,2.30434 0.09783,2.30434c0,0 0.59741,0.05494 0.46312,0.67561c-0.13015,0.62151 -1.90943,1.29545 -6.98814,1.18473c-5.08088,-0.1158 -6.08294,-1.04472 -6.10928,-1.51957c-0.02849,-0.47484 1.06931,-0.95645 1.06931,-0.95645c0,0 0.47435,-3.03656 1.20454,-5.67668c0.41488,-1.49709 1.09874,-2.96023 1.61347,-3.94706" fill="#9a8479" stroke="#000000" stroke-width="1.2" stroke-linecap="butt"/><path d="M285.94395,170.55198c0,0 12.86025,-10.31257 14.91479,-2.45213c2.05462,7.86033 -3.68543,17.64181 -14.69804,26.89876c0,0 1.44077,-14.03568 -0.21675,-24.44663zM285.94395,170.55198c-0.10781,-1.22431 -0.61337,-3.54462 -0.61337,-3.54462M285.70457,197.20032l0.32543,-2.27654" fill="#9a8479" stroke="#000000" stroke-width="1.2" stroke-linecap="round"/><path d="M286.03008,194.92288c0.29159,-2.60125 0.65929,-6.87647 0.70363,-12.18585c0.02825,-3.09023 -0.1597,-6.26266 -0.39764,-8.99739l0.00097,0.0035c7.27022,-3.00728 12.75671,5.68143 12.75671,5.68143l0.00257,-0.00018c-4.23457,8.44064 -12.99013,15.26798 -12.99013,15.26798l-0.07611,0.2305v0v0v0v0z" fill="#ee4036" stroke="#000000" stroke-width="1.2" stroke-linecap="butt"/><path d="M202.01682,197.11542v0v0v0v0v0v0c-0.04046,-0.08681 -1.23027,-2.53048 -1.23018,-2.53147c-3.32182,-6.52743 -2.96391,-20.60866 -2.24999,-24.95126l0.04782,-0.20685c2.70076,-18.43483 12.17447,-27.57856 17.71692,-32.37226c12.58073,-10.88848 30.13148,-9.85582 30.13148,-9.85582l-0.42125,12.08191c0,0 0.2663,-3.46223 7.83387,-8.90001c7.56578,-5.43793 17.90299,-3.65261 17.90299,-3.65261l-6.83134,14.59454c0,0 3.6641,-4.41303 6.4823,-5.89762c4.99597,-2.62696 8.88498,-0.97537 8.88498,-0.97537l-1.91278,9.25338c0,0 6.25306,9.74141 10.90112,18.78877c0.99514,1.93066 2.17165,3.8997 2.83486,6.10495c2.4124,8.01261 1.66193,21.85608 -2.38648,28.39458c-0.70173,1.15808 -1.45353,2.27648 -2.22791,3.37296c-0.20103,0.28141 -0.4028,0.56094 -0.60695,0.83665c-0.70564,0.96211 -1.43656,1.90205 -2.19811,2.80863c-0.10279,0.12058 -0.1983,0.24992 -0.3011,0.3706c-0.86183,1.0074 -1.76237,1.9716 -2.69291,2.90429c-0.22236,0.22526 -0.45488,0.4414 -0.68167,0.66447c-0.79481,0.76789 -1.6137,1.51011 -2.44967,2.22003c-0.19287,0.16628 -0.38147,0.33554 -0.57558,0.49529c-1.00354,0.82409 -2.04197,1.6025 -3.10595,2.33975c-0.23682,0.16157 -0.47832,0.31451 -0.71671,0.47223c-0.89108,0.59293 -1.80748,1.15376 -2.74104,1.68319c-0.26939,0.15052 -0.53328,0.31055 -0.80415,0.45733c-1.13753,0.61415 -2.29742,1.1829 -3.48892,1.69812c-0.21272,0.09299 -0.43691,0.17134 -0.65211,0.26051c-1.01668,0.42176 -2.05237,0.80112 -3.10662,1.14444c-4.45942,1.45107 -9.23315,2.23383 -14.27988,2.16084c-5.76767,-0.08383 -10.94162,-0.70674 -15.57586,-1.72376c-1.14588,-0.2514 -2.25772,-0.52966 -3.3381,-0.82698c-0.20496,-0.06031 -0.40918,-0.11875 -0.6124,-0.1771c-1.09414,-0.31568 -2.16627,-0.64571 -3.19137,-1.00529c-0.00612,-0.00234 -0.01404,-0.00483 -0.02105,-0.00724c-1.02723,-0.35696 -2.01111,-0.74278 -2.97002,-1.14461c-0.16791,-0.06975 -0.3403,-0.13988 -0.50723,-0.21055c-0.9208,-0.39211 -1.81553,-0.80373 -2.67517,-1.2322c-0.15138,-0.07283 -0.29657,-0.15336 -0.4468,-0.2279c-0.84784,-0.43025 -1.67272,-0.87297 -2.46077,-1.33418c-0.02993,-0.02066 -0.06398,-0.03545 -0.09317,-0.05424c-0.80669,-0.47547 -1.57415,-0.96571 -2.31814,-1.46396c-0.13876,-0.09342 -0.27667,-0.18506 -0.41163,-0.27825c-0.71472,-0.492 -1.40534,-0.99104 -2.06053,-1.50047c-0.10026,-0.07664 -0.19491,-0.1555 -0.29421,-0.23285c-0.62137,-0.49204 -1.22043,-0.99129 -1.79081,-1.49709c-0.05913,-0.04858 -0.1244,-0.10041 -0.18055,-0.15325c-0.59439,-0.53227 -1.15268,-1.07235 -1.68914,-1.61405c-0.1043,-0.10419 -0.20664,-0.20901 -0.30636,-0.3127c-0.52201,-0.54055 -1.02243,-1.08004 -1.48955,-1.62849c-0.05363,-0.05995 -0.10167,-0.12293 -0.15434,-0.1836c-0.43961,-0.52077 -0.85451,-1.04291 -1.24429,-1.56298c-0.05421,-0.07526 -0.11663,-0.14952 -0.1719,-0.22306c-0.39837,-0.54611 -1.24989,-1.83327 -1.31529,-1.9358c-0.34071,-0.54202 -0.66366,-1.08159 -0.95168,-1.61543c-0.0179,-0.03327 -0.035,-0.06647 -0.05111,-0.09948c-0.2762,-0.51385 -0.52423,-1.01792 -0.75358,-1.51868z" fill="#9a8479" stroke="#000000" stroke-width="1.2" stroke-linecap="butt"/><path d="M276.01863,180.09832v0v0v0v0v0v0c0,0 8.76445,11.4441 4.6754,22.28619c-4.08705,10.8389 -22.60663,14.1199 -36.40906,12.19351c-18.24606,-2.54779 -25.74186,-13.75893 -21.75514,-23.58821c3.99092,-9.82896 28.74041,-12.63645 28.74041,-12.63645l-4.68439,6.91988c0,0 3.18791,-0.223 5.86104,-1.42536c2.67214,-1.1999 5.63447,-2.84757 5.63447,-2.84757l-6.57663,7.49318c0,0 7.6858,0.52022 14.58118,-1.52825c6.89507,-2.04523 9.93272,-6.86691 9.93272,-6.86691z" fill="#e6e7e8" stroke="#000000" stroke-width="1.2" stroke-linecap="butt"/><path d="M206.52429,195.89453c-13.52143,-6.78508 -20.4252,-14.97465 -17.62315,-22.70683c2.80302,-7.7329 18.60796,-0.2756 18.60796,-0.2756c-2.37925,10.05693 -0.98481,22.98243 -0.98481,22.98243zM208.38148,169.47977c0,0 -0.70151,2.26362 -0.87149,3.43241M206.69015,195.80019l0.3415,2.08142" fill="#9a8479" stroke="#000000" stroke-width="1.2" stroke-linecap="round"/><path d="M206.60167,195.5979c0,0 -10.76636,-4.89574 -15.82364,-12.08517l0.00277,-0.00066c0,0 7.12491,-9.10263 16.14233,-7.5367l0.00113,-0.00261c-0.37792,2.60681 -0.70567,5.61726 -0.75983,8.51208c-0.0994,4.97618 0.23625,8.92516 0.52571,11.31535z" fill="#ee4036" stroke="#000000" stroke-width="1.2" stroke-linecap="butt"/><path d="M268.62032,195.2129c0.06242,-0.0054 0.12689,-0.00556 0.19214,0.00324c2.1505,0.19409 5.9986,0.39694 7.20743,0.12383c0.64032,-0.13605 1.2937,0.3253 1.44108,1.05872c0.14282,0.7283 -0.26599,1.44283 -0.91561,1.59324c-1.92071,0.43985 -7.27657,-0.02811 -7.88089,-0.08177c-0.6647,-0.06098 -1.17029,-0.7145 -1.12908,-1.45873c0.03848,-0.67252 0.50489,-1.18829 1.08494,-1.23852z" fill="#231f20" stroke="#000000" stroke-width="0.5" stroke-linecap="butt"/><path d="M238.71554,194.13853c0.08448,0.00732 0.16919,0.02369 0.25593,0.04665c3.0616,0.87179 8.59039,0.73298 8.64476,0.73227c0.73448,-0.0179 1.36788,0.56583 1.39003,1.31383c0.0205,0.74615 -0.56782,1.36891 -1.31607,1.38923c-0.24489,0.00318 -5.99621,0.14892 -9.46018,-0.83561c-0.71793,-0.2034 -1.13687,-0.95234 -0.93122,-1.67429c0.18037,-0.62818 0.78462,-1.02683 1.41675,-0.97209z" fill="#231f20" stroke="#000000" stroke-width="0.5" stroke-linecap="butt"/><g stroke="#000000" stroke-width="1.2"><path d="M218.50485,217.09621c2.55292,-2.01124 4.56417,0.54168 4.56417,0.54168l0.65181,0.82735c0.17998,1.48755 -0.17084,0.79619 1.24009,-0.73607c0,0 2.34013,-2.25529 4.59541,0.08483c2.25529,2.34013 -0.08484,4.59542 -0.08484,4.59542c-2.28948,2.07293 -3.80091,4.28158 -7.71872,3.21296c-1.42632,-0.38904 -2.09186,-2.08978 -3.13779,-3.13467l-0.65181,-0.82735c0,0 -2.01124,-2.55292 0.54167,-4.56416z" fill="#9a8479" stroke-linecap="butt"/><g><path d="M222.46174,208.1347c1.90339,-2.14598 5.18606,-2.34263 7.33204,-0.43924c2.14598,1.90339 2.34263,5.18606 0.43924,7.33204c-1.90339,2.14598 -5.18606,2.34263 -7.33204,0.43924c-2.14598,-1.90339 -2.34263,-5.18606 -0.43924,-7.33204z" fill="#5c5e5f" stroke-linecap="butt"/><path d="M228.43598,217.63336l1.06166,2.42391l-1.35684,1.3905l-0.89514,2.54114l-2.14978,-0.91859" fill="#9a8479" stroke-linecap="round"/><path d="M226.10347,213.80695l2.62773,3.38658l-2.94464,6.89135l-4.41608,1.01066l-3.12963,-2.42388l3.07482,-7.83179z" fill="#9a8479" stroke-linecap="round"/><path d="M225.87976,217.42312l1.6527,1.80872" fill="none" stroke-linecap="round"/><path d="M226.18343,222.49219l-1.05536,-0.93606" fill="none" stroke-linecap="round"/><path d="M220.5821,223.00943l1.6185,-0.27865l1.1513,1.02115l-0.58317,2.39688l-1.87378,0.56647l-1.34319,-1.19135z" fill="#5c5e5f" stroke-linecap="round"/></g></g><path d="M259.70823,227.1222c-0.206,0.23696 -0.45731,0.44445 -0.74334,0.62593c-0.15959,0.10608 -0.32828,0.19922 -0.50451,0.2778c-1.9779,0.94715 -5.04972,0.98127 -6.7374,0.91602c-3.51707,-0.13596 -3.92657,-3.59196 -1.625,-6.01089c1.13397,-1.19179 4.37734,-0.80271 6.11964,-0.89155c0.3293,-0.12911 0.6824,-0.20806 1.04973,-0.22679c1.79493,-0.09152 3.25,1.28935 3.25,3.08428c0,0.25 -0.02823,0.49485 -0.08167,0.73137c-0.08809,0.51391 -0.31991,1.02502 -0.72745,1.49383z" fill="#9a8479" stroke="#000000" stroke-width="1.2" stroke-linecap="butt"/><path d="M258.12378,211.58933c-4.56373,2.85344 -8.97542,4.02775 -9.8538,2.6229c-0.87838,-1.40486 2.10919,-4.85689 6.67292,-7.71033c4.56373,-2.85344 8.97542,-4.02775 9.8538,-2.6229c0.87838,1.40486 -2.10919,4.85689 -6.67292,7.71033z" fill="#706d6d" stroke="#231f20" stroke-width="1.2" stroke-linecap="butt"/></g></g></svg>