<svg version="1.1" xmlns="http://www.w3.org/2000/svg" xmlns:xlink="http://www.w3.org/1999/xlink" width="92.21988" height="132.32947" viewBox="0,0,92.21988,132.32947"><g transform="translate(-195.08031,-108.29188)"><g data-paper-data="{&quot;isPaintingLayer&quot;:true}" stroke-miterlimit="10" stroke-dasharray="" stroke-dashoffset="0" style="mix-blend-mode: normal"><g fill-rule="evenodd"><path d="M248.53011,207.69196c1.47948,1.95477 3.44415,4.23294 6.45991,5.45982c6.78308,2.87223 14.83091,0.94026 14.56024,5.27348c-0.22785,4.42358 -12.10906,9.94235 -20.94763,0.63001c-3.06353,-3.19607 -4.69061,-6.6301 -5.92759,-9.47435c-0.34254,-0.72296 -2.6644,-7.25816 -0.61947,-10.88284c2.04492,-3.62468 3.58616,-2.47374 4.29019,-1.92207c0.8372,0.59924 0.18633,8.10033 2.18436,10.91598z" fill="#ffab19" stroke="#001026" stroke-width="1.2" stroke-linecap="round" stroke-linejoin="round"/><path d="M269.1126,217.96867c0.31413,2.0643 -3.05318,4.76634 -6.6443,5.36127c-3.59111,0.59493 -5.90283,-0.08025 -7.63427,-0.69842c0.71822,-0.11898 2.87762,-0.69951 3.32452,-2.79242c0.6371,-2.62565 -1.76049,-5.58396 -1.76049,-5.58396c0,0 4.76139,1.17438 7.88645,1.46419c2.76358,0.4611 4.33323,0.27068 4.82809,2.24932z" fill="#ffffff" stroke="none" stroke-width="1" stroke-linecap="butt" stroke-linejoin="miter"/></g><path d="M233.25672,177.83871c2.6451,-0.79301 5.43226,0.70842 6.22526,3.35353c0.18013,0.60081 0.24187,1.20895 0.19873,1.79939c0.82457,1.72072 -2.50119,4.22141 -3.28391,5.51219c-2.94317,4.8536 -5.95733,6.94872 -12.26206,8.35566c-2.57643,0.57495 -5.2282,-0.02778 -6.22526,-3.35353c-1.89261,-6.31288 5.80086,-6.43251 8.8284,-8.68924c1.62247,-1.2094 4.64975,-7.8193 6.51884,-6.978z" fill="#ffab19" fill-rule="nonzero" stroke="#000000" stroke-width="1.2" stroke-linecap="butt" stroke-linejoin="miter"/><path d="M245.53824,232.51218c0,0 1.55081,-2.71583 12.2,-2.6" fill="none" fill-rule="nonzero" stroke="#001026" stroke-width="1.2" stroke-linecap="round" stroke-linejoin="miter"/><g fill-rule="nonzero" stroke-linecap="round" stroke-linejoin="miter"><path d="M252.90759,198.11906l6.81979,30.92788c0,0 4.90759,1.40562 5.6163,3.9907c0.70872,2.58507 -2.60757,6.98371 -2.60757,6.98371h-17.45066l-2.80815,-3.19255l-3.20931,-11.97208l-0.60175,-25.3409l-3.00873,25.73997l-9.42736,10.97441l-9.22679,0.59861l-4.21223,-1.19721c0,0 -4.72667,-5.37267 -2.60757,-7.78186c2.1191,-2.40918 11.03202,-1.79581 11.03202,-1.79581l8.82562,-30.5288c0,0 1.58287,-5.46787 2.5615,-11.24886c0.79018,-4.66782 0.73204,-9.89877 2.05189,-10.69996c5.30557,-3.22057 18.05795,-4.30455 20.65997,3.79116c0.76417,2.37758 -0.40905,6.66782 -1.06558,10.73279c-0.83875,5.19323 -1.34141,10.0188 -1.34141,10.0188z" fill="#ffab19" stroke="#001026" stroke-width="1.2"/><path d="M241.53025,200.08003c0,0 -3.24097,-0.13699 -4.57131,-1.51582" fill="none" stroke="#001026" stroke-width="1.2"/><path d="M239.45105,193.16727c-3.75946,-0.68885 -3.50388,-5.16619 -3.09472,-9.45841c0.45895,-4.81442 1.23521,-9.92979 5.46944,-9.29083c4.64511,0.70095 4.74488,5.72973 4.1701,11.00197c0,0 -1.12711,8.73997 -6.54483,7.74727z" fill="#ffffff" stroke="#000000" stroke-width="0"/><path d="M247.61744,231.48208c0,0 1.55533,-2.70951 12.23552,-2.59396" fill="none" stroke="#001026" stroke-width="1.2"/></g><g><g><path d="M219.79031,136.35805c0,0 -0.38045,-27.58748 0.69014,-27.46577c1.44229,0.16397 25.5571,13.66599 25.5571,13.66599" fill="#ffab19" fill-rule="nonzero" stroke="#001026" stroke-width="1.2" stroke-linecap="round" stroke-linejoin="miter"/><path d="M273.60989,145.35715l10.91383,16.36485l-3.46549,5.10983l-30.13398,-4.09188z" fill="#9b7f41" fill-rule="nonzero" stroke="#001026" stroke-width="1.2" stroke-linecap="round" stroke-linejoin="miter"/><path d="M207.55446,154.57921c0,0 -7.19919,-0.14724 -11.87416,-3.97799" fill="none" fill-rule="evenodd" stroke="#001026" stroke-width="1.2" stroke-linecap="round" stroke-linejoin="round"/><path d="M207.11574,160.47649c0,0 -3.91238,1.87437 -10.20897,1.33305" fill="none" fill-rule="evenodd" stroke="#001026" stroke-width="1.2" stroke-linecap="round" stroke-linejoin="round"/><path d="M237.62701,128.37595c11.32713,-1.39191 40.49162,9.0449 31.27676,35.43572c-0.12014,0.34406 -0.31847,0.65601 -0.51493,0.96689c-7.17464,11.35317 -22.30778,16.354 -41.08309,12.53073c-18.77531,-3.82327 -23.10437,-14.65191 -21.867,-20.3439c1.23738,-5.692 8.351,-7.74538 8.351,-7.74538c0,0 0.12952,-4.49925 3.36553,-9.97812c0,0 3.92249,-8.8323 20.47174,-10.86593z" fill="#ffab19" fill-rule="evenodd" stroke="#001026" stroke-width="1.2" stroke-linecap="butt" stroke-linejoin="miter"/><path d="M230.55463,154.63013c8.39587,0.6551 19.95534,-8.36926 26.58499,2.37447c6.63032,10.64373 -4.96392,24.96797 -29.1306,19.8093c-18.57597,-3.72195 -23.3083,-14.05324 -22.07094,-19.74523c1.23738,-5.692 8.14903,-7.44669 8.14903,-7.44669c8.51229,-1.8442 9.27094,4.46092 16.4675,5.00815z" fill="#ffffff" fill-rule="evenodd" stroke="none" stroke-width="1" stroke-linecap="butt" stroke-linejoin="miter"/><path d="M235.56303,153.36296c-0.01049,1.59997 -4.22681,4.07237 -6.02546,3.86056c-1.59931,-0.1105 -3.0809,-2.92027 -2.97172,-4.31959c0.1046,-0.69933 2.30586,-0.88489 4.40581,-0.87111c1.99996,0.01313 4.69924,0.13083 4.59137,1.33016z" fill="#001026" fill-rule="evenodd" stroke="#001026" stroke-width="1.2" stroke-linecap="round" stroke-linejoin="round"/><path d="M266.36648,154.33726c-3.85998,4.65087 -10.89941,6.16627 -10.89941,6.16627" fill="none" fill-rule="evenodd" stroke="#001026" stroke-width="1.2" stroke-linecap="round" stroke-linejoin="round"/><path d="M267.29668,165.57399c-6.07831,1.73041 -10.27601,0.63532 -10.27601,0.63532" fill="none" fill-rule="evenodd" stroke="#001026" stroke-width="1.2" stroke-linecap="round" stroke-linejoin="round"/><path d="M261.36607,142.14946l-43.29115,-5.42186l3.85852,-22.47203l47.70299,6.95012l10.53316,19.95025l-8.88616,14.76469z" fill="#c58600" fill-rule="nonzero" stroke="#001026" stroke-width="1.2" stroke-linecap="round" stroke-linejoin="miter"/><path d="M261.39824,141.95211l8.00874,-20.58107" fill="none" fill-rule="nonzero" stroke="#001026" stroke-width="0.75" stroke-linecap="round" stroke-linejoin="miter"/><path d="M274.2419,130.26278l-4.27486,-8.598c0,0 15.7485,-1.21921 16.73315,-0.72244c1.10345,0.5567 -14.93116,24.52061 -14.93116,24.52061z" fill="#ffab19" fill-rule="nonzero" stroke="#001026" stroke-width="1.2" stroke-linecap="round" stroke-linejoin="miter"/></g><g fill-rule="nonzero" stroke-linejoin="miter"><g fill="none" stroke="none" stroke-width="1" stroke-linecap="butt" font-family="sans-serif" font-weight="normal" font-size="12" text-anchor="start"/><g fill="none" stroke="none" stroke-width="1" stroke-linecap="butt" font-family="sans-serif" font-weight="normal" font-size="12" text-anchor="start"/><g fill="#ffffff" stroke="#001026" stroke-width="1.2" stroke-linecap="round"><path d="M223.09519,166.48294c-0.17256,-0.21348 5.69463,-0.19725 11.64884,-1.43497c13.47986,-2.80207 14.27685,-4.78777 14.80793,-4.60161c0.98007,0.34354 2.56657,12.44371 -5.89808,14.37183c-8.14046,1.85427 -20.01978,-7.66855 -20.55868,-8.33525z"/></g></g></g><path d="M233.55022,185.06134c0.05701,1.45626 0.76987,3.06643 0.43139,4.42988c-0.05162,0.20793 -0.1277,0.41013 -0.23428,0.60517c-1.26732,2.31913 -7.34231,6.18719 -8.75301,6.71192c-3.04726,1.13346 -7.27376,-1.08059 -7.46473,-4.5651c-0.20688,-3.77457 5.13035,-5.97107 7.35942,-7.43175c1.05881,-0.69383 2.95022,-2.8211 4.29011,-2.10059z" fill="#ffab19" fill-rule="nonzero" stroke="#000000" stroke-width="1.2" stroke-linecap="butt" stroke-linejoin="miter"/><g fill-rule="nonzero" stroke="#000000" stroke-width="1.2" stroke-linejoin="miter"><path d="M231.42971,181.34134c-4.73374,0.03469 -8.59933,-3.77463 -8.63403,-8.50837c-0.03469,-4.73374 3.77464,-8.59932 8.50838,-8.63402c4.73374,-0.03469 8.59933,3.77463 8.63402,8.50838c0.03469,4.73374 -3.77463,8.59931 -8.50838,8.63402z" fill="#5c5e5f" stroke-linecap="butt"/><g stroke-linecap="round"><path d="M236.56867,180.78939l3.11202,3.57729l-0.84078,2.2348l0.03267,4.45702l-3.76756,0.54191z" fill="#ffab19"/><path d="M233.10878,176.52891l4.83128,4.25041l-0.82696,4.12046l0.18273,1.54156l-0.82948,3.77761l0.35038,1.02603l-1.34752,3.26711l-6.33766,0.73218l-5.85103,-3.0429l1.4448,-13.38238z" fill="#ffab19"/><path d="M235.39635,184.56949l-2.07469,-2.38485" fill="none"/><path d="M232.15687,186.9933l2.93431,2.72142" fill="none"/></g><path d="M232.71388,192.81795l-0.65681,3.94777l-3.76379,1.05619l-3.10322,-2.37731l0.66308,-3.09066l3.75876,-1.74188z" fill="#5c5e5f" stroke-linecap="round"/></g><path d="M235.49889,152.45474l23.22597,-13.88456l3.12111,8.63462l-7.35628,3.39948l7.67002,1.67023l-1.53105,7.03084z" fill="#000000" fill-rule="nonzero" stroke="#000000" stroke-width="0" stroke-linecap="round" stroke-linejoin="miter"/><path d="M209.59034,154.80975l-0.26202,-7.18705l4.94157,-0.36062l-4.24748,-4.58408l2.79333,-7.98805l13.10055,17.57964z" data-paper-data="{&quot;index&quot;:null}" fill="#000000" fill-rule="nonzero" stroke="#000000" stroke-width="0" stroke-linecap="round" stroke-linejoin="miter"/><path d="M255.51514,173.6105c1.05119,0.88521 1.37574,1.52048 1.59941,2.25486c0.14505,0.36397 0.25111,0.7447 0.31305,1.13603c0.04713,0.15973 0.10027,0.32765 0.16288,0.50571c0.19635,0.55842 0.11987,2.21723 0.38074,1.72141c1.92351,-3.656 3.63433,-13.43062 10.31882,-9.09464c1.45396,0.94313 2.11262,2.88638 2.55566,4.5458c0.43853,1.6425 -2.57478,6.25684 -3.27014,7.72171c-1.47187,3.1007 -1.71733,9.39457 -5.23394,11.22508c-7.6651,3.98995 -13.33692,-8.13629 -14.36804,-14.45778c-0.31992,-0.7347 -0.47967,-1.54335 -0.43523,-2.37323c0.14766,-2.75747 2.49375,-4.70519 5.24012,-4.35034c0.44205,0.05711 0.86753,0.17041 1.2697,0.3318c0.52412,0.1831 1.02212,0.45897 1.46697,0.83359z" fill="#ffab19" fill-rule="nonzero" stroke="#000000" stroke-width="1.2" stroke-linecap="butt" stroke-linejoin="miter"/><g fill-rule="nonzero" stroke-linejoin="miter"><path d="M273.99792,166.67086c0,0 3.50535,8.08532 -1.7226,11.64267c-4.41355,3.00319 -13.13679,1.76595 -13.13679,1.76595c0,0 -4.43659,1.14197 -5.64775,-2.72499c-1.60483,-5.12388 3.36996,-5.37661 3.36996,-5.37661l-1.06318,-2.3179c0,0 -5.74534,-7.46673 -1.29133,-10.94734c1.66079,-1.29784 5.58109,0.23379 5.58109,0.23379c0,0 1.96756,-1.45798 3.90104,-1.88062c1.4743,-0.32227 4.29114,1.83279 4.29114,1.83279c0,0 2.16616,-1.4045 4.21396,0.81497c3.00553,3.25748 1.50445,6.9573 1.50445,6.9573z" fill="#ffab19" stroke="#001026" stroke-width="1.2" stroke-linecap="round"/><path d="M262.59783,165.21339l-1.27294,-3.90382" fill="none" stroke="#001026" stroke-width="1.2" stroke-linecap="round"/><path d="M269.23529,161.48255l0.83896,1.40113" fill="none" stroke="#001026" stroke-width="1.2" stroke-linecap="round"/><path d="M261.11863,163.35475c0.86189,2.19851 0.46237,4.34917 -0.89237,4.80362c-1.35474,0.45445 -3.15168,-0.95939 -4.01357,-3.1579c-0.86189,-2.19851 -0.46237,-4.34917 0.89237,-4.80362c1.35474,-0.45445 3.15168,0.95939 4.01357,3.1579z" fill="#ffffff" stroke="none" stroke-width="0" stroke-linecap="butt"/><path d="M268.05354,162.14173c0.48329,1.81388 -0.12559,3.48572 -1.35997,3.73417c-1.23437,0.24845 -2.62681,-1.02059 -3.11009,-2.83446c-0.48329,-1.81388 0.12559,-3.48572 1.35997,-3.73417c1.23437,-0.24845 2.62681,1.02059 3.11009,2.83446z" fill="#ffffff" stroke="none" stroke-width="0" stroke-linecap="butt"/><path d="M272.97355,162.4323c0.52053,1.51525 0.4537,2.88211 -0.14929,3.05295c-0.60299,0.17084 -1.51377,-0.91903 -2.03431,-2.43428c-0.52053,-1.51525 -0.4537,-2.88211 0.14929,-3.05295c0.60299,-0.17084 1.51377,0.91903 2.03431,2.43428z" fill="#ffffff" stroke="none" stroke-width="0" stroke-linecap="butt"/><path d="M258.94029,179.25456c-1.15388,0.20041 -2.41767,-1.00367 -2.82275,-2.68937c-0.40508,-1.6857 0.20194,-3.21469 1.35582,-3.41509c1.15388,-0.20041 2.62081,5.90405 1.46693,6.10445z" fill="#ffffff" stroke="none" stroke-width="0" stroke-linecap="butt"/><path d="M273.67451,171.59538c0.82318,3.42554 -1.33114,4.70633 -4.56007,5.6988c-3.22892,0.99247 -6.30972,1.32078 -7.1329,-2.10476c-0.4059,-1.68911 2.08168,-2.16451 2.84523,-3.60036c0.78494,-1.47608 -0.126,-3.89606 1.51077,-4.39915c1.91419,-0.58836 2.39818,1.81492 3.82717,2.99556c0.98147,0.81091 3.17463,0.01513 3.50981,1.40992z" fill="#ffffff" stroke="none" stroke-width="0" stroke-linecap="butt"/></g></g></g></svg>