<svg version="1.1" xmlns="http://www.w3.org/2000/svg" xmlns:xlink="http://www.w3.org/1999/xlink" width="93.53067" height="124.21036" viewBox="0,0,93.53067,124.21036"><g transform="translate(-172.87571,-105.8291)"><g stroke-miterlimit="10"><path d="M219.23382,184.23121c2.71165,0.69395 4.46865,3.42325 3.92434,6.09606c-0.12363,0.60711 -0.35537,1.15907 -0.67149,1.6415c-0.0812,1.89885 -4.19856,2.31188 -5.4982,3.00949c-4.8869,2.62315 -8.53785,2.85105 -14.7737,0.78384c-2.54828,-0.84476 -4.6087,-2.73548 -3.92433,-6.09606c1.29907,-6.37898 8.1565,-2.49085 11.89536,-2.85c2.00367,-0.19247 7.79182,-4.27358 9.04801,-2.58484z" fill="#ffab19" fill-rule="nonzero" stroke="#000000" stroke-width="1.2" stroke-linecap="butt" stroke-linejoin="miter"/><g fill-rule="evenodd"><path d="M246.76149,190.84214c2.25746,-0.64727 4.94082,-1.62484 6.81262,-3.96886c4.32168,-5.23032 4.16347,-13.41984 8.39381,-11.55854c4.32912,1.85513 7.20225,14.9363 -3.94237,19.68212c-3.83146,1.65672 -7.58538,1.89139 -10.67048,1.98304c-0.7903,0.04941 -7.76544,-0.22312 -10.90769,-3.46841c-3.14225,-3.24529 -1.66702,-4.24856 -0.96747,-4.69721c0.77565,-0.55462 8.05894,2.83669 11.28158,2.02785z" fill="#ffab19" stroke="#001026" stroke-width="1.2" stroke-linecap="round" stroke-linejoin="round"/><path d="M261.42056,175.55145c2.11186,0.47535 4.05258,4.60556 3.85872,8.16065c-0.19387,3.55507 -1.3661,5.45045 -2.3554,6.82825c0.03877,-0.71102 -0.06518,-2.93152 -2.03949,-4.12406c-2.46021,-1.56706 -5.91117,-0.44028 -5.91117,-0.44028c0,0 2.20034,-3.98419 3.1684,-6.77785c1.05881,-2.39443 1.21244,-3.92245 3.27894,-3.64673z" fill="#ffffff" stroke="none" stroke-width="1" stroke-linecap="butt" stroke-linejoin="miter"/></g><g fill-rule="nonzero" stroke-linecap="butt" stroke-linejoin="miter"><path d="M247.6087,211.59957c2.61046,1.52142 -0.616,17.63914 -0.616,17.63914c0,0 -6.7463,1.3728 -7.60896,-3.06141c-0.40201,-2.06638 -2.88984,-8.64754 -4.10713,-9.63068c-4.2656,-3.44511 -9.14393,-4.26586 -11.98872,-9.47869c-0.52406,-0.96029 -1.78059,-3.03959 -2.16779,-4.86083c-1.42432,-2.30457 1.37853,-6.18234 4.1156,-6.70054c7.84457,-1.4852 7.31328,7.31592 22.37302,16.09301z" fill="#ffab19" stroke="#001026" stroke-width="1.2"/><g><path d="M221.32917,202.15518c-2.84153,-2.64353 -2.60207,-9.49027 -2.60207,-9.49027c0,0 -2.18254,-2.57168 -2.16349,-5.375c0.03936,-5.79477 12.40973,-14.56898 17.62634,-8.69891c1.95735,2.20254 2.05731,5.84744 2.05731,5.84744c0,0 3.91514,4.06699 4.49684,7.11196c0.49475,2.58979 -2.83714,10.10826 -7.82722,12.21722c-0.51833,0.21907 -1.01878,0.40081 -1.50149,0.54923" fill="#ffab19" stroke="#001026" stroke-width="1.2"/><path d="M219.63541,186.73643c1.55818,-3.81446 7.23331,-3.78523 9.64884,-0.77155c0.29151,0.3637 0.62195,0.79802 0.90321,1.26478c1.79033,1.19932 2.57358,6.11466 1.4373,7.41143c-3.93335,4.48893 -12.84599,3.2975 -11.17858,-3.27575c-0.92296,-1.42 -1.34182,-3.32885 -0.81078,-4.6289z" fill="#ffffff" stroke="none" stroke-width="0.5"/></g><path d="M239.73767,192.65802c2.57707,1.42337 9.85889,12.96757 9.85889,12.96757c0,0 5.62691,7.3473 6.16849,8.76415c2.46507,6.44886 -1.93521,15.32479 -9.75807,8.34078c-1.8402,-1.64288 -2.09446,-3.65725 -2.91249,-5.53105c-0.373,-0.85439 -5.72078,-7.77817 -8.1626,-9.49453c-4.24608,-2.98458 -10.1956,-5.63211 -13.10638,-9.9133c-5.18124,-7.62064 13.59784,-8.22796 14.5715,-7.81321" fill="#ffab19" stroke="#001026" stroke-width="1.2"/></g><g><g><g><path d="M197.24746,143.89655c0,0 -3.16483,-27.40797 -2.08744,-27.39501c1.45147,0.01745 26.80668,11.01484 26.80668,11.01484" fill="#ffab19" fill-rule="nonzero" stroke="#001026" stroke-width="1.2" stroke-linecap="round" stroke-linejoin="miter"/><path d="M251.70077,147.41388l0.40214,-1.15735l5.10151,-0.22918l3.10984,5.21379l-2.72032,8.1525l-26.7071,7.60541z" fill="#9b7f41" fill-rule="nonzero" stroke="#001026" stroke-width="1.2" stroke-linecap="round" stroke-linejoin="miter"/><path d="M186.91451,163.26039c0,0 -7.17725,0.58064 -12.21522,-2.75835" fill="none" fill-rule="evenodd" stroke="#001026" stroke-width="1.2" stroke-linecap="round" stroke-linejoin="round"/><path d="M187.07369,169.1718c0,0 -3.70306,2.25993 -10.02214,2.35735" fill="none" fill-rule="evenodd" stroke="#001026" stroke-width="1.2" stroke-linecap="round" stroke-linejoin="round"/><path d="M214.18675,134.1538c11.12863,-2.52884 41.1981,4.90898 34.69583,32.09555c-0.08476,0.35443 -0.25059,0.68483 -0.41465,1.01397c-5.99128,12.01976 -20.54194,18.52346 -39.6074,16.61604c-19.06546,-1.9074 -24.46607,-12.24345 -23.80993,-18.0313c0.65615,-5.78787 7.52599,-8.54923 7.52599,-8.54923c0,0 -0.32557,-4.48933 2.34053,-10.26704c0,0 3.01037,-9.1833 19.26958,-12.87801z" fill="#ffab19" fill-rule="evenodd" stroke="#001026" stroke-width="1.2" stroke-linecap="butt" stroke-linejoin="miter"/><path d="M209.8022,160.98801c8.41911,-0.19624 19.008,-10.34195 26.68887,-0.32276c7.67144,9.91964 -2.41677,25.34164 -26.98089,22.65021c-18.85691,-1.82674 -24.6085,-11.62722 -23.95235,-17.4151c0.65615,-5.78787 7.35523,-8.23166 7.35523,-8.23166c8.2825,-2.69452 9.67408,3.50175 16.88912,3.31932z" fill="#ffffff" fill-rule="evenodd" stroke="none" stroke-width="1" stroke-linecap="butt" stroke-linejoin="miter"/><path d="M214.65703,159.22145c0.15116,1.59284 -3.79389,4.47844 -5.60474,4.44939c-1.6023,0.05161 -3.36008,-2.59418 -3.39279,-3.99734c0.03343,-0.70631 2.2047,-1.11327 4.29529,-1.31164c1.99106,-0.18893 4.68841,-0.34445 4.70223,0.85963z" fill="#001026" fill-rule="evenodd" stroke="#001026" stroke-width="1.2" stroke-linecap="round" stroke-linejoin="round"/><path d="M245.40134,157.07962c-3.3705,5.01693 -10.22088,7.23558 -10.22088,7.23558" fill="none" fill-rule="evenodd" stroke="#001026" stroke-width="1.2" stroke-linecap="round" stroke-linejoin="round"/><path d="M247.46174,168.16496c-5.87247,2.33546 -10.15929,1.66995 -10.15929,1.66995" fill="none" fill-rule="evenodd" stroke="#001026" stroke-width="1.2" stroke-linecap="round" stroke-linejoin="round"/><path d="M239.19557,145.45922l-43.61739,-1.02172l1.56912,-22.74683l48.16102,2.09656l12.49429,18.78438l-7.34948,15.5867z" fill="#c58600" fill-rule="nonzero" stroke="#001026" stroke-width="1.2" stroke-linecap="round" stroke-linejoin="miter"/><path d="M239.2076,145.25958l5.8891,-21.28469" fill="none" fill-rule="nonzero" stroke="#001026" stroke-width="0.75" stroke-linecap="round" stroke-linejoin="miter"/><path d="M250.805,132.33283l-5.12139,-8.12228c0,0 12.7502,10.4537 13.77999,10.84848c1.15403,0.4424 -9.5836,12.64598 -9.5836,12.64598z" fill="#ffab19" fill-rule="nonzero" stroke="#001026" stroke-width="1.2" stroke-linecap="round" stroke-linejoin="miter"/></g><path d="M173.8921,152.62567c-3.30044,-21.54424 13.37944,-41.9744 37.25551,-45.63206c23.87607,-3.65766 45.907,10.84227 49.20742,32.38652c3.30044,21.54424 -13.37943,41.9744 -37.25551,45.63206c-23.87607,3.65766 -45.907,-10.84227 -49.20742,-32.38651z" fill="none" fill-rule="nonzero" stroke="#ffffff" stroke-width="1.2" stroke-linecap="butt" stroke-linejoin="miter"/><path d="M245.26614,118.29187l-1.07418,7.19956l-8.20481,1.42918l-8.68487,-4.79566l5.97536,-10.53676z" fill="#ffffff" fill-rule="nonzero" stroke="#001026" stroke-width="0" stroke-linecap="round" stroke-linejoin="miter"/><path d="M250.60981,131.96576l6.63757,2.84432l-6.66059,-2.59985" fill="#000000" fill-rule="nonzero" stroke="none" stroke-width="0" stroke-linecap="round" stroke-linejoin="miter"/></g><g><g fill-rule="evenodd"><path d="M207.00226,142.06792c2.95754,1.52744 3.33978,6.61406 0.87785,11.3679c-2.56147,4.76329 -6.9425,7.28846 -9.90002,5.76102c-2.95754,-1.52744 -3.33977,-6.61406 -0.87783,-11.36791c2.46193,-4.75385 6.93305,-7.38801 9.90002,-5.76102z" fill="#ffffff" stroke="#001026" stroke-width="1.2" stroke-linecap="round" stroke-linejoin="round"/><path d="M196.13994,152.62876c-0.10392,-1.09507 0.60748,-2.06664 1.60302,-2.16109c0.99552,-0.09448 1.87697,0.72592 1.98089,1.82101c0.10392,1.09507 -0.60748,2.06664 -1.603,2.1611c-0.99552,0.09448 -1.87697,-0.72591 -1.98089,-1.82101" fill="#001026" stroke="none" stroke-width="1" stroke-linecap="butt" stroke-linejoin="miter"/></g><g fill-rule="evenodd"><path d="M231.10052,144.09876c3.29398,1.89731 3.63335,7.59071 0.96289,12.26388c-2.57092,4.66372 -6.81897,6.47314 -10.2837,4.8934c-2.86742,-1.63644 -3.57666,-6.99338 -1.00575,-11.65711c2.57092,-4.66372 7.02316,-7.49702 10.32659,-5.50016z" fill="#ffffff" stroke="#001026" stroke-width="1.2" stroke-linecap="round" stroke-linejoin="round"/><path d="M219.27092,154.5132c-0.10392,-1.09507 0.61692,-1.96708 1.60303,-2.16111c0.99552,-0.09448 1.87697,0.72593 1.98089,1.82102c0.10392,1.09507 -0.60748,2.06664 -1.603,2.1611c-0.99552,0.09448 -1.87698,-0.72592 -1.98089,-1.82102" fill="#001026" stroke="none" stroke-width="1" stroke-linecap="butt" stroke-linejoin="miter"/></g><g fill="#ffffff" fill-rule="nonzero" stroke="#001026" stroke-width="1.2" stroke-linecap="round" stroke-linejoin="miter"><path d="M205.53331,173.10687c-0.19323,-0.19496 5.6456,-0.7714 11.44434,-2.60417c13.12793,-4.14921 11.37128,-8.35168 11.91844,-8.22012c1.00976,0.24281 11.79157,12.92408 3.56496,15.69726c-7.91157,2.66698 -26.32425,-4.26411 -26.92773,-4.87298z"/></g></g></g><g fill-rule="nonzero" stroke="#000000" stroke-width="1.2" stroke-linejoin="miter"><path d="M198.12542,186.08051c-4.40844,-1.98568 -6.56752,-7.07903 -4.82243,-11.3763c1.74509,-4.29727 6.73353,-6.17119 11.14198,-4.18552c4.40844,1.98568 6.56753,7.07902 4.82243,11.3763c-1.74509,4.29727 -6.73352,6.17119 -11.14197,4.18552z" fill="#5c5e5f" stroke-linecap="butt"/><g stroke-linecap="round"><path d="M203.10433,187.7709l1.54649,4.56232l-1.61975,1.66351l-1.64308,4.04607l-3.70175,-1.11511z" fill="#ffab19"/><path d="M201.49135,182.44229l2.89015,5.90386l-2.31492,3.3753l-0.40911,1.47247l-2.18853,3.06406l-0.05989,1.07753l-2.47788,2.38147l-6.15959,-2.03812l-4.29038,-5.24598l6.36604,-11.49106z" fill="#ffab19"/><path d="M199.56553,187.64959l1.031,3.04155" fill="none"/><path d="M196.67857,191.50356l1.70282,3.71231" fill="none"/></g><path d="M195.00884,197.01029l-2.09208,3.29158l-3.89134,-0.64826l-1.98885,-3.47299l1.7761,-2.51349l4.14411,0.02578z" fill="#5c5e5f" stroke-linecap="round"/></g><g fill-rule="nonzero" stroke="#000000" stroke-width="1.2" stroke-linejoin="miter"><path d="M232.27026,184.30246c0,0 -0.79458,-1.63456 0.7207,-2.81246c5.97643,-4.64572 8.5268,-0.67406 11.57688,-0.69615c3.52581,-0.02553 7.56729,-0.76297 8.44071,0.49029c1.25188,1.7963 -0.1159,3.80097 -1.22395,6.50434c-1.49245,3.64127 -3.48565,7.94704 -7.1649,9.01424c-2.87365,0.83353 -3.25771,-6.57241 -3.23684,-6.62821c-2.58644,-0.33875 -5.01993,-1.45344 -6.33602,-2.91367" fill="#ffab19" stroke-linecap="butt"/><g stroke-linecap="round"><path d="M249.4423,195.43888l-2.48117,4.76507l-2.38967,1.57753l-1.71256,-1.08935l-1.31744,0.52223l-2.71027,-2.88224" fill="#ffab19"/><path d="M237.30761,185.86491l13.49859,-1.72241l2.66284,5.78657l-1.15024,6.35149l-3.36092,1.41508l-1.00459,-0.329l-3.83816,0.90775l-1.53198,-0.15068l-4.18138,0.91236l-4.71547,-4.17172z" fill="#ffab19"/><path d="M239.85095,194.19578l2.25215,2.02471l-3.18042,-1.07589z" fill="none"/><path d="M247.53873,196.00225l-2.53271,-2.87716" fill="none"/></g></g></g></g></svg>