<svg version="1.1" xmlns="http://www.w3.org/2000/svg" xmlns:xlink="http://www.w3.org/1999/xlink" width="323.92859" height="323.92859" viewBox="0,0,323.92859,323.92859"><g transform="translate(-78.03571,-18.03572)"><g stroke-miterlimit="10"><g stroke-linecap="butt"><path d="M287.05093,300.6928l4.37749,-69.80064l45.02029,-0.10411l-6.86993,69.90475z" fill="#868995" stroke="#000000" stroke-width="1.2"/><g><g><g><g fill="#868995" stroke="#000000" stroke-width="1.2"><path d="M314.13361,264.21572c0,0 -14.71488,0.3452 -16.54198,-1.91087c-1.40985,-1.74086 0.46249,-24.77184 2.15979,-26.4586c1.7424,-1.73158 16.44297,-1.76388 16.44297,-1.76388"/></g><g fill="none" stroke="none" stroke-width="1" font-family="sans-serif" font-weight="normal" font-size="12" text-anchor="start"/><g fill="none" stroke="none" stroke-width="1" font-family="sans-serif" font-weight="normal" font-size="12" text-anchor="start"/></g><g><g fill="#868995" stroke="#000000" stroke-width="1.2"><path d="M316.08633,234.08237c0,0 14.6953,0.0323 16.15501,1.76388c1.42192,1.68676 -0.46573,24.71773 -2.15979,26.45859c-2.19541,2.25607 -16.85394,1.91088 -16.85394,1.91088"/></g><g fill="none" stroke="none" stroke-width="1" font-family="sans-serif" font-weight="normal" font-size="12" text-anchor="start"/><g fill="none" stroke="none" stroke-width="1" font-family="sans-serif" font-weight="normal" font-size="12" text-anchor="start"/></g></g><g><g><g fill="#4e4f56" stroke="#000000" stroke-width="1.2"><path d="M314.22497,262.44253c0,0 -12.98201,0.30455 -14.59394,-1.68584c-1.24382,-1.53585 0.40802,-21.85463 1.90544,-23.34275c1.53721,-1.52767 14.5066,-1.55616 14.5066,-1.55616"/></g><g fill="none" stroke="none" stroke-width="1" font-family="sans-serif" font-weight="normal" font-size="12" text-anchor="start"/><g fill="none" stroke="none" stroke-width="1" font-family="sans-serif" font-weight="normal" font-size="12" text-anchor="start"/></g><g><g fill="#4e4f56" stroke="#000000" stroke-width="1.2"><path d="M315.94775,235.85778c0,0 12.96474,0.0285 14.25254,1.55616c1.25447,1.48812 -0.41089,21.8069 -1.90545,23.34275c-1.93687,1.99039 -14.86917,1.68584 -14.86917,1.68584"/></g><g fill="none" stroke="none" stroke-width="1" font-family="sans-serif" font-weight="normal" font-size="12" text-anchor="start"/><g fill="none" stroke="none" stroke-width="1" font-family="sans-serif" font-weight="normal" font-size="12" text-anchor="start"/></g></g><g><g><g fill="#9497a4" stroke="#000000" stroke-width="1.2"><path d="M314.68199,253.57663c0,0 -4.31767,0.10129 -4.85378,-0.56069c-0.41368,-0.51081 0.1357,-7.26859 0.63373,-7.76352c0.51126,-0.50808 4.82472,-0.51756 4.82472,-0.51756"/></g><g fill="none" stroke="none" stroke-width="1" font-family="sans-serif" font-weight="normal" font-size="12" text-anchor="start"/><g fill="none" stroke="none" stroke-width="1" font-family="sans-serif" font-weight="normal" font-size="12" text-anchor="start"/></g><g><g fill="#9497a4" stroke="#000000" stroke-width="1.2"><path d="M315.25496,244.73485c0,0 4.31192,0.00948 4.74023,0.51756c0.41723,0.49493 -0.13665,7.25272 -0.63373,7.76352c-0.64418,0.66198 -4.94531,0.56069 -4.94531,0.56069"/></g><g fill="none" stroke="none" stroke-width="1" font-family="sans-serif" font-weight="normal" font-size="12" text-anchor="start"/><g fill="none" stroke="none" stroke-width="1" font-family="sans-serif" font-weight="normal" font-size="12" text-anchor="start"/></g></g></g><g><g><g><g fill="#868995" stroke="#000000" stroke-width="1.2"><path d="M311.59362,294.79087c0,0 -11.16273,0.26187 -12.54877,-1.44959c-1.06951,-1.32062 0.35084,-18.79196 1.63841,-20.07154c1.32179,-1.31358 12.47367,-1.33808 12.47367,-1.33808"/></g><g fill="none" stroke="none" stroke-width="1" font-family="sans-serif" font-weight="normal" font-size="12" text-anchor="start"/><g fill="none" stroke="none" stroke-width="1" font-family="sans-serif" font-weight="normal" font-size="12" text-anchor="start"/></g><g><g fill="#868995" stroke="#000000" stroke-width="1.2"><path d="M313.07498,271.93165c0,0 11.14788,0.0245 12.25522,1.33808c1.07867,1.27958 -0.3533,18.75092 -1.63842,20.07154c-1.66544,1.71146 -12.78544,1.44959 -12.78544,1.44959"/></g><g fill="none" stroke="none" stroke-width="1" font-family="sans-serif" font-weight="normal" font-size="12" text-anchor="start"/><g fill="none" stroke="none" stroke-width="1" font-family="sans-serif" font-weight="normal" font-size="12" text-anchor="start"/></g></g><g><g><g fill="#4e4f56" stroke="#000000" stroke-width="1.2"><path d="M311.66294,293.4457c0,0 -9.84817,0.23103 -11.07098,-1.27888c-0.94357,-1.1651 0.30953,-16.57896 1.44547,-17.70785c1.16613,-1.15889 11.00473,-1.18051 11.00473,-1.18051"/></g><g fill="none" stroke="none" stroke-width="1" font-family="sans-serif" font-weight="normal" font-size="12" text-anchor="start"/><g fill="none" stroke="none" stroke-width="1" font-family="sans-serif" font-weight="normal" font-size="12" text-anchor="start"/></g><g><g fill="#4e4f56" stroke="#000000" stroke-width="1.2"><path d="M312.96986,273.27849c0,0 9.83507,0.02162 10.812,1.18051c0.95164,1.12889 -0.3117,16.54275 -1.44547,17.70785c-1.46932,1.50991 -11.27978,1.27888 -11.27978,1.27888"/></g><g fill="none" stroke="none" stroke-width="1" font-family="sans-serif" font-weight="normal" font-size="12" text-anchor="start"/><g fill="none" stroke="none" stroke-width="1" font-family="sans-serif" font-weight="normal" font-size="12" text-anchor="start"/></g></g><g><g><g fill="#9497a4" stroke="#000000" stroke-width="1.2"><path d="M312.00962,286.72004c0,0 -3.27538,0.07683 -3.68208,-0.42534c-0.31382,-0.3875 0.10295,-5.51397 0.48075,-5.88942c0.38784,-0.38543 3.66004,-0.39263 3.66004,-0.39263"/></g><g fill="none" stroke="none" stroke-width="1" font-family="sans-serif" font-weight="normal" font-size="12" text-anchor="start"/><g fill="none" stroke="none" stroke-width="1" font-family="sans-serif" font-weight="normal" font-size="12" text-anchor="start"/></g><g><g fill="#9497a4" stroke="#000000" stroke-width="1.2"><path d="M312.44426,280.01264c0,0 3.27103,0.00719 3.59595,0.39263c0.31651,0.37545 -0.10367,5.50192 -0.48075,5.88942c-0.48867,0.50218 -3.75152,0.42534 -3.75152,0.42534"/></g><g fill="none" stroke="none" stroke-width="1" font-family="sans-serif" font-weight="normal" font-size="12" text-anchor="start"/><g fill="none" stroke="none" stroke-width="1" font-family="sans-serif" font-weight="normal" font-size="12" text-anchor="start"/></g></g></g></g><g stroke-linecap="butt"><path d="M150.4212,300.6928l-6.86992,-69.90475l45.02029,0.10411l4.37749,69.80064z" fill="#868995" stroke="#000000" stroke-width="1.2"/><g><g><g><g fill="#868995" stroke="#000000" stroke-width="1.2"><path d="M163.80565,234.08237c0,0 14.70057,0.0323 16.44297,1.76388c1.6973,1.68676 3.56964,24.71773 2.15979,26.45859c-1.82709,2.25607 -16.54198,1.91087 -16.54198,1.91087"/></g><g fill="none" stroke="none" stroke-width="1" font-family="sans-serif" font-weight="normal" font-size="12" text-anchor="start"/><g fill="none" stroke="none" stroke-width="1" font-family="sans-serif" font-weight="normal" font-size="12" text-anchor="start"/></g><g><g fill="#868995" stroke="#000000" stroke-width="1.2"><path d="M166.77243,264.21572c0,0 -14.65853,0.3452 -16.85394,-1.91087c-1.69406,-1.74086 -3.58171,-24.77183 -2.15979,-26.45859c1.45971,-1.73158 16.15501,-1.76388 16.15501,-1.76388"/></g><g fill="none" stroke="none" stroke-width="1" font-family="sans-serif" font-weight="normal" font-size="12" text-anchor="start"/><g fill="none" stroke="none" stroke-width="1" font-family="sans-serif" font-weight="normal" font-size="12" text-anchor="start"/></g></g><g><g><g fill="#4e4f56" stroke="#000000" stroke-width="1.2"><path d="M163.95693,235.85778c0,0 12.96939,0.0285 14.5066,1.55616c1.49742,1.48812 3.14926,21.8069 1.90544,23.34275c-1.61193,1.99039 -14.59394,1.68584 -14.59394,1.68584"/></g><g fill="none" stroke="none" stroke-width="1" font-family="sans-serif" font-weight="normal" font-size="12" text-anchor="start"/><g fill="none" stroke="none" stroke-width="1" font-family="sans-serif" font-weight="normal" font-size="12" text-anchor="start"/></g><g><g fill="#4e4f56" stroke="#000000" stroke-width="1.2"><path d="M166.57432,262.44253c0,0 -12.93229,0.30455 -14.86917,-1.68584c-1.49456,-1.53585 -3.15992,-21.85463 -1.90544,-23.34275c1.28781,-1.52766 14.25254,-1.55616 14.25254,-1.55616"/></g><g fill="none" stroke="none" stroke-width="1" font-family="sans-serif" font-weight="normal" font-size="12" text-anchor="start"/><g fill="none" stroke="none" stroke-width="1" font-family="sans-serif" font-weight="normal" font-size="12" text-anchor="start"/></g></g><g><g><g fill="#9497a4" stroke="#000000" stroke-width="1.2"><path d="M164.71337,244.73485c0,0 4.31347,0.00948 4.82472,0.51756c0.49803,0.49493 1.04741,7.25272 0.63373,7.76352c-0.53611,0.66198 -4.85377,0.56069 -4.85377,0.56069"/></g><g fill="none" stroke="none" stroke-width="1" font-family="sans-serif" font-weight="normal" font-size="12" text-anchor="start"/><g fill="none" stroke="none" stroke-width="1" font-family="sans-serif" font-weight="normal" font-size="12" text-anchor="start"/></g><g><g fill="#9497a4" stroke="#000000" stroke-width="1.2"><path d="M165.58389,253.57663c0,0 -4.30113,0.10129 -4.94531,-0.56069c-0.49707,-0.51081 -1.05095,-7.26859 -0.63373,-7.76352c0.42831,-0.50808 4.74023,-0.51756 4.74023,-0.51756"/></g><g fill="none" stroke="none" stroke-width="1" font-family="sans-serif" font-weight="normal" font-size="12" text-anchor="start"/><g fill="none" stroke="none" stroke-width="1" font-family="sans-serif" font-weight="normal" font-size="12" text-anchor="start"/></g></g></g><g><g><g><g fill="#868995" stroke="#000000" stroke-width="1.2"><path d="M166.84308,271.93165c0,0 11.15188,0.0245 12.47367,1.33808c1.28757,1.27958 2.70793,18.75092 1.63842,20.07154c-1.38604,1.71146 -12.54877,1.44959 -12.54877,1.44959"/></g><g fill="none" stroke="none" stroke-width="1" font-family="sans-serif" font-weight="normal" font-size="12" text-anchor="start"/><g fill="none" stroke="none" stroke-width="1" font-family="sans-serif" font-weight="normal" font-size="12" text-anchor="start"/></g><g><g fill="#868995" stroke="#000000" stroke-width="1.2"><path d="M169.0937,294.79087c0,0 -11.11999,0.26187 -12.78543,-1.44959c-1.28511,-1.32062 -2.71709,-18.79196 -1.63842,-20.07153c1.10733,-1.31358 12.25522,-1.33808 12.25522,-1.33808"/></g><g fill="none" stroke="none" stroke-width="1" font-family="sans-serif" font-weight="normal" font-size="12" text-anchor="start"/><g fill="none" stroke="none" stroke-width="1" font-family="sans-serif" font-weight="normal" font-size="12" text-anchor="start"/></g></g><g><g><g fill="#4e4f56" stroke="#000000" stroke-width="1.2"><path d="M166.95783,273.27849c0,0 9.8386,0.02162 11.00473,1.18051c1.13595,1.12889 2.38904,16.54275 1.44547,17.70785c-1.22281,1.50991 -11.07099,1.27888 -11.07099,1.27888"/></g><g fill="none" stroke="none" stroke-width="1" font-family="sans-serif" font-weight="normal" font-size="12" text-anchor="start"/><g fill="none" stroke="none" stroke-width="1" font-family="sans-serif" font-weight="normal" font-size="12" text-anchor="start"/></g><g><g fill="#4e4f56" stroke="#000000" stroke-width="1.2"><path d="M168.94342,293.4457c0,0 -9.81046,0.23103 -11.27978,-1.27888c-1.13378,-1.1651 -2.39712,-16.57896 -1.44547,-17.70785c0.97693,-1.15889 10.812,-1.18051 10.812,-1.18051"/></g><g fill="none" stroke="none" stroke-width="1" font-family="sans-serif" font-weight="normal" font-size="12" text-anchor="start"/><g fill="none" stroke="none" stroke-width="1" font-family="sans-serif" font-weight="normal" font-size="12" text-anchor="start"/></g></g><g><g><g fill="#9497a4" stroke="#000000" stroke-width="1.2"><path d="M167.53168,280.01264c0,0 3.2722,0.00719 3.66005,0.39262c0.3778,0.37545 0.79457,5.50193 0.48075,5.88942c-0.40669,0.50218 -3.68208,0.42534 -3.68208,0.42534"/></g><g fill="none" stroke="none" stroke-width="1" font-family="sans-serif" font-weight="normal" font-size="12" text-anchor="start"/><g fill="none" stroke="none" stroke-width="1" font-family="sans-serif" font-weight="normal" font-size="12" text-anchor="start"/></g><g><g fill="#9497a4" stroke="#000000" stroke-width="1.2"><path d="M168.19207,286.72004c0,0 -3.26285,0.07684 -3.75152,-0.42534c-0.37708,-0.3875 -0.79725,-5.51397 -0.48074,-5.88942c0.32492,-0.38543 3.59594,-0.39262 3.59594,-0.39262"/></g><g fill="none" stroke="none" stroke-width="1" font-family="sans-serif" font-weight="normal" font-size="12" text-anchor="start"/><g fill="none" stroke="none" stroke-width="1" font-family="sans-serif" font-weight="normal" font-size="12" text-anchor="start"/></g></g></g></g><path d="M187.34612,300.92055l-3.94905,-103.37655h113.20589l-3.94904,103.37655z" fill="#868995" stroke="#000000" stroke-width="1.2" stroke-linecap="butt"/><path d="M192.35431,176.07742" fill="none" stroke="#000000" stroke-width="1.2" stroke-linecap="round"/><path d="M200.34226,180.47578" fill="none" stroke="#000000" stroke-width="1.2" stroke-linecap="round"/><g><g stroke-linecap="round"><g stroke="#000000" stroke-width="1.2"><path d="M203.94419,157.03498c-15.83678,-2.51982 -27.66347,-33.09517 -27.66347,-33.09517c10.01906,-1.65077 14.22748,2.07095 14.76857,2.42417c0.54124,0.35407 10.54952,8.33752 10.54952,8.33752c-0.63596,13.44765 2.34536,22.33348 2.34536,22.33348zM201.94271,131.83754c0,0 -0.32352,2.04179 -0.35726,3.14837M203.94419,157.03498c0.29933,0.89417 1.12592,2.27243 1.12592,2.27243" fill="#be1e2d"/><path d="M197.38825,153.93915c-3.0115,-1.92413 -6.6973,-4.96227 -10.23853,-9.66694c-3.15728,-4.19493 -6.48274,-10.7764 -8.60764,-15.31291l0.06212,-0.06873c6.17225,-1.42751 9.95418,2.60828 9.95418,2.60828l0.23648,0.32456c1.57999,2.40265 3.26754,4.81098 4.61949,6.33972c0.79817,0.90403 1.64288,1.68812 2.42772,2.33812c0,0 1.70198,4.19158 2.08409,7.16292c0.57131,4.39485 -0.66237,6.21026 -0.66237,6.21026z" fill="#929497"/></g><path d="M265.71186,166.97318l-10.46874,8.90994l-24.22095,1.36293l-10.09718,4.9325l-15.61848,-3.91278l-6.96397,-7.99675l-6.1034,-9.67088l-3.88787,-12.31608l0.08428,-12.31069l2.66194,-9.48858l4.46353,-9.36232l6.26265,-8.55781l7.17264,-7.72132l8.04324,-7.16962l5.67691,-4.15341l2.41803,-2.91959l2.585,-4.73938l1.67261,-4.56401l1.31324,-6.12435l-0.65529,-8.16203l4.77007,5.4796l4.99458,7.10267l0.07447,-3.92403l1.06254,2.10365l4.15655,6.62207l5.80021,6.23336l3.79759,2.91137l5.53487,4.31519l6.73671,5.19458l6.08236,6.04196l5.06422,6.49053l4.40987,7.33791l3.28968,7.04873l1.19217,7.5032l0.58706,7.59088l-0.93774,6.60781l-2.26685,8.155l-2.84673,5.07833l-4.93675,6.88308z" fill="#be1e2d" stroke="#8c8c8c" stroke-width="0"/><path d="M276.52289,167.91228l-10.86086,-0.86043l-10.44875,9.06811l-24.1591,1.09314l-10.10622,4.88925l-14.85387,-3.20793c0,0 -49.39451,-41.16208 16.32728,-88.81427c0,0 11.47698,-11.80984 7.14394,-27.81977c-0.35242,-1.30215 10.06128,13.29742 10.06128,13.29742c0,0 -0.2286,-5.3107 0.0141,-4.65324c2.68977,7.28629 11.8325,16.40884 11.8325,16.40884c56.74698,36.02444 29.90596,74.73633 29.90596,74.73633z" fill="none" stroke="#000000" stroke-width="1.2"/><g stroke="#000000" stroke-width="1.2"><path d="M278.88071,123.60951c0,0 7.81533,-11.37991 8.25951,-11.92641c0.44428,-0.54568 3.62943,-5.6545 14.1276,-8.49025c0,0 -3.37183,32.20705 -18.54335,41.24069c0,0 0.5232,-9.16441 -3.84377,-20.82402zM278.973,123.85612c-0.34072,-0.96742 -1.23121,-2.64031 -1.23121,-2.64031M282.22642,146.93324c0,0 0.44608,-1.57778 0.49805,-2.4997" fill="#be1e2d"/><path d="M288.54247,138.76159c0,0 -1.73981,-1.08133 -2.38618,-5.22627c-0.44118,-2.80058 0.10191,-7.25048 0.10191,-7.25048c0.60624,-0.91364 1.23528,-1.97197 1.78441,-3.11675c0.93084,-1.93682 1.954,-4.79817 2.87098,-7.60831l0.14699,-0.3895c0,0 2.67063,-5.20443 9.2519,-6.58711l0.08132,0.03433c-0.87122,4.93749 -2.37838,12.20486 -4.37892,17.28239c-2.24392,5.69464 -5.09493,9.97258 -7.57917,12.97256z" fill="#929497"/></g></g><g><g><path d="M275.34377,146.05565c2.21854,15.6707 -12.92254,30.77251 -33.81855,33.73081c-20.89602,2.95831 -39.63407,-7.34714 -41.8526,-23.01785c-2.21854,-15.6707 12.92253,-30.77251 33.81855,-33.73081c20.89602,-2.95831 39.63407,7.34714 41.8526,23.01785z" fill="#e6e7e8" stroke="#000000" stroke-width="1.2" stroke-linecap="butt"/><path d="M216.52258,179.55787l2.27086,2.61388l2.8391,1.68122l-1.81088,0.63512l-4.37498,-0.51689l-4.05546,-1.79309l-1.83911,-2.39093l-4.89263,-2.05332l-3.68943,-2.03429l0.23762,2.36773c-5.73639,-9.23364 -14.88398,-18.61737 -12.87991,-32.01329c25.55274,-31.17456 70.8832,-40.38095 88.70727,-9.12252c0.23835,0.41799 0.46269,0.83571 0.67361,1.25318c0.16563,0.63443 0.28945,1.22875 0.35647,1.76968c0.7582,6.11892 0.67283,12.20003 0.8992,18.39647c0.01491,0.40825 -0.0347,0.86693 -0.12479,1.35213l-0.79345,1.37241l-0.35669,-1.42119l-2.0289,5.43815l-4.3971,5.18474l-2.84441,1.87438l-0.13505,-4.24877l-0.66459,-5.79266l-1.11093,-4.55213l-1.08746,0.00678l0.25305,-1.50751l0.88169,-3.65687l-0.41948,-4.06134l-1.24293,-4.38627l-3.8343,-4.01939l-6.23237,-3.38557l-8.07102,-2.09508l-9.27953,-0.74664l2.44991,0.83051l3.91448,2.3892l2.31941,3.20368l-17.38042,-1.95448l-16.79112,-2.18507l-0.35365,2.99345l-2.05877,6.32538l-1.96763,5.87098l0.75576,5.33825l3.32669,4.82712l4.49434,3.19011l-3.11939,1.0303l-2.7438,0.38845l0.49021,3.46265l2.20783,3.51382l2.45142,3.03783l2.69501,2.56184z" fill="#be1e2d" stroke="#8c8c8c" stroke-width="0" stroke-linecap="butt"/><path d="M211.38829,135.95116c-0.49905,8.04307 -4.82809,12.59999 -4.23225,16.75253c1.22646,8.54734 8.72451,11.46754 8.72451,11.46754c0,0 -5.07141,3.21714 -11.44838,0.13736" fill="none" stroke="#000000" stroke-width="1.2" stroke-linecap="round"/><path d="M199.25953,156.37188c-0.84004,-1.53058 -1.66764,-3.29861 -2.47072,-5.33724" fill="none" stroke="#000000" stroke-width="1.2" stroke-linecap="round"/><path d="M204.8457,134.21136c15.67513,3.98101 41.20159,5.45849 41.20159,5.45849c0,0 -2.97941,-4.13557 -8.79817,-5.96844c0,0 36.19267,-1.11073 27.44938,24.18584c0,0 3.44705,-2.129 5.64039,-5.98291" fill="none" stroke="#000000" stroke-width="1.2" stroke-linecap="round"/><path d="M271.67353,142.78541c0.36455,1.76757 0.56278,2.58604 0.29219,4.0737" fill="none" stroke="#000000" stroke-width="1.2" stroke-linecap="round"/><path d="M276.81913,160.40563c-1.32752,6.8612 -8.95935,11.61894 -8.95935,11.61894c0,0 0.15679,-9.75527 -2.08955,-14.75951" fill="none" stroke="#000000" stroke-width="1.2" stroke-linecap="round"/><path d="M198.73967,156.15026c-3.70907,7.96838 2.55995,21.59328 2.55995,21.59328c0,0 -17.40892,-19.92525 -12.54472,-32.755" fill="none" stroke="#000000" stroke-width="1.2" stroke-linecap="round"/><path d="M279.56326,158.00584c-1.20629,2.49883 -2.20157,3.89124 -2.20157,3.89124c0,0 0.13277,-9.73002 -5.42532,-14.91456" fill="none" stroke="#000000" stroke-width="1.2" stroke-linecap="round"/><path d="M210.14169,165.76783c-0.51907,6.81232 7.92556,12.67868 7.92556,12.67868c0,0 -10.24162,3.36103 -17.53628,-3.31991" fill="none" stroke="#000000" stroke-width="1.2" stroke-linecap="round"/><path d="M215.81936,179.04392c1.45943,3.11892 5.93926,4.79348 5.93926,4.79348c0,0 -8.16529,2.64424 -13.10572,-4.5651" fill="none" stroke="#000000" stroke-width="1.2" stroke-linecap="round"/></g><g fill="#000000" stroke="none" stroke-width="0.5" stroke-linecap="butt"><path d="M258.90914,146.99896c0.53909,-0.10944 0.89038,0.68101 1.03452,1.0155c0.54045,1.25419 0.57617,2.80998 -0.32554,3.88048l-0.40187,0.10769c-0.17628,0.09019 -0.43275,0.13796 -0.79277,0.1222c-3.02902,-0.13255 -5.68905,-0.30941 -8.64408,0.93872c-0.84779,0.35808 -2.29869,1.81951 -3.02429,1.99035c-0.93073,0.21913 -1.29006,-0.00325 -1.50919,-0.93396c-0.21384,-0.90821 1.475,-1.7493 2.0816,-2.08662c2.11186,-1.1744 4.52535,-1.8702 6.93907,-2.15736c0.47514,-0.51791 0.71569,-1.12246 0.98892,-1.86644c0.07859,-0.21399 0.40627,-1.04899 0.49529,-1.06579c0.99973,-0.18865 1.24224,1.49627 1.24677,2.75761c0.26468,0.00079 0.53284,0.01042 0.78015,0.03485c0.35787,-1.10623 0.74562,-2.6589 1.13142,-2.73722z"/><path d="M220.96665,156.74206c0.20373,-0.12973 0.43021,-0.25276 0.65664,-0.36512c-0.4128,-1.31859 -0.76173,-3.17965 0.15679,-3.40397c0.08179,-0.01997 0.63827,0.71358 0.77628,0.90384c0.47978,0.66151 0.88551,1.19122 1.46353,1.53163c2.16207,-0.71733 4.45893,-1.00798 6.65558,-0.67194c0.63096,0.09652 2.35519,0.26286 2.47209,1.30104c0.11979,1.06391 -0.1145,1.44745 -0.984,1.61089c-0.67787,0.12742 -2.40327,-0.78675 -3.24764,-0.8033c-2.94313,-0.0577 -5.16287,1.24777 -7.71325,2.6625c-0.30314,0.16816 -0.53857,0.22638 -0.71933,0.20651l-0.37975,0.05692c-1.1259,-0.7375 -1.60925,-2.37662 -1.56073,-3.91357c0.01294,-0.4099 0.05269,-1.38307 0.55054,-1.49599c0.35629,-0.0808 1.20129,1.37661 1.87324,2.38058z"/></g></g></g><path d="M266.95966,164.10719" fill="none" stroke="#000000" stroke-width="1.2" stroke-linecap="round"/><path d="M229.90674,178.65557c0.18667,0.03591 0.36418,0.07523 0.53278,0.11783c0.29645,0.02015 0.58903,0.11164 0.85288,0.27174c6.24236,2.48487 -5.09757,11.2164 -7.7254,11.14262c-2.22842,-0.06257 -5.99244,-3.03364 -4.08639,-5.777c0.68796,-0.99017 9.25116,-5.72571 10.34834,-5.69491z" fill="#be1e2d" stroke="#000000" stroke-width="1.2" stroke-linecap="butt"/><g stroke="#000000" stroke-width="1.2"><path d="M223.08819,195.67003c-0.22658,-0.24176 -2.90037,-3.27805 -2.90037,-3.27805c0,0 0.87711,5.12731 -2.32804,6.52736c-1.73544,0.75807 -5.53253,0.17309 -7.52582,0.33417c0,0 -2.28138,0.18254 -2.56792,-2.19041c-0.28653,-2.37296 1.99485,-2.55549 1.99485,-2.55549c0.44188,-0.03503 0.99669,-0.0157 1.5996,0.02084c2.22075,-6.10183 3.22426,-16.16002 11.53159,-10.99138c3.40999,2.12162 4.16046,2.95922 4.16046,2.95922c0,0 2.64969,-10.23178 7.25613,-9.60746c15.03401,2.03756 10.05455,20.35133 4.23836,21.0218c-8.82381,1.01718 -12.70014,0.70293 -15.45886,-2.2406z" fill="#be1e2d" stroke-linecap="butt"/><path d="M228.79161,191.67268c-0.69658,-3.26393 1.4356,-14.4021 6.3751,-10.98769c3.88823,2.68772 2.15428,8.49462 0.74112,11.48424c-1.5908,3.36543 -6.36125,3.04101 -7.11622,-0.49654z" fill="#e6e7e8" stroke-linecap="round"/></g><path d="M240.26852,179.69378c1.07886,-1.61445 3.6877,-1.21016 4.78033,-0.86283c3.09713,0.98451 3.34776,3.73818 4.11611,6.79898c0.66832,2.66236 1.89068,5.60533 3.66937,7.20962c3.29948,0.89442 8.96083,-0.09225 8.27318,4.4284c-0.16488,1.08387 -5.88741,1.56983 -8.10083,1.64692c1.55172,2.45569 -0.81717,2.77274 -2.99167,1.48873c-0.89186,-0.52664 -3.02396,-1.35251 -4.4764,-2.92487c-1.45244,-1.57235 -0.63189,-2.4098 -0.8467,-3.64545c-0.48736,-2.80329 -1.67653,-3.92787 -2.58086,-6.48835" fill="#be1e2d" stroke="#000000" stroke-width="1.2" stroke-linecap="butt"/><g stroke="#000000" stroke-width="1.2" stroke-linecap="butt"><g fill="#868995"><path d="M240.75086,244.52209c0,0 -41.94558,0.42456 -44.92372,-2.35022c-2.29803,-2.14112 -2.30937,-30.46732 0,-32.5419c2.37074,-2.1297 44.33295,-2.16943 44.33295,-2.16943"/><path d="M239.83994,207.46054c0,0 41.96221,0.03973 44.33295,2.16943c2.30938,2.07458 2.29804,30.40079 0,32.5419c-2.97814,2.77478 -44.92372,2.35022 -44.92372,2.35022"/></g><g fill="#4e4f56"><path d="M240.71254,242.40881c0,0 -39.80476,0.37611 -42.6309,-2.08203c-2.18075,-1.89678 -2.19151,-26.99059 0,-28.82843c2.24974,-1.88667 42.07028,-1.92187 42.07028,-1.92187"/><path d="M239.8481,209.57648c0,0 39.82055,0.0352 42.07029,1.92187c2.19151,1.83784 2.18075,26.93165 0,28.82843c-2.82614,2.45814 -42.63091,2.08203 -42.63091,2.08203"/></g><g fill="#9497a4"><path d="M240.23222,231.45283c0,0 -12.9719,0.12494 -13.8929,-0.69163c-0.71068,-0.6301 -0.71419,-8.96603 0,-9.57654c0.73316,-0.62673 13.7102,-0.63843 13.7102,-0.63843"/><path d="M239.95052,220.54624c0,0 12.97703,0.0117 13.7102,0.63843c0.71418,0.61051 0.71068,8.94644 0,9.57654c-0.92101,0.81657 -13.8929,0.69163 -13.8929,0.69163"/></g></g><g stroke="#000000" stroke-width="1.2" stroke-linecap="butt"><g fill="#868995"><path d="M240.65983,285.68289c0,0 -36.86021,0.37309 -39.47728,-2.06529c-2.01943,-1.88153 -2.02939,-26.77355 0,-28.59661c2.08332,-1.8715 38.95814,-1.90641 38.95814,-1.90641"/><path d="M239.85935,253.11458c0,0 36.87483,0.03491 38.95815,1.90641c2.02939,1.82306 2.01943,26.71508 0,28.59661c-2.61708,2.43837 -39.47729,2.06528 -39.47729,2.06528"/></g><g fill="#4e4f56"><path d="M240.62616,283.82581c0,0 -34.97894,0.33051 -37.46244,-1.82961c-1.91636,-1.66682 -1.92582,-23.71832 0,-25.33335c1.97699,-1.65794 36.96979,-1.68887 36.96979,-1.68887"/><path d="M239.86653,254.97399c0,0 34.99281,0.03093 36.9698,1.68887c1.92582,1.61503 1.91636,23.66653 0,25.33335c-2.48351,2.16012 -37.46245,1.82961 -37.46245,1.82961"/></g><g fill="#9497a4"><path d="M240.20407,274.19811c0,0 -11.39922,0.10979 -12.20856,-0.60778c-0.62452,-0.5537 -0.6276,-7.87901 0,-8.4155c0.64428,-0.55075 12.04801,-0.56103 12.04801,-0.56103"/><path d="M239.95652,264.61378c0,0 11.40373,0.01028 12.04801,0.56103c0.6276,0.53649 0.62452,7.8618 0,8.41551c-0.80934,0.71757 -12.20856,0.60777 -12.20856,0.60777"/></g></g><path d="M236.38764,197.61704c1.58244,5.63888 -0.94371,17.1129 -6.98358,14.07929c-0.9238,-0.46399 -1.31963,-1.53379 -1.97943,-2.30068c-0.2894,-2.53435 0.1691,-4.9348 -0.15998,-7.46732c-0.30545,-2.35068 -1.77635,-5.10606 -1.34565,-7.48619c0.83858,-4.63409 8.76545,-4.72225 11.33438,-1.09271" fill="#be1e2d" stroke="#000000" stroke-width="1.2" stroke-linecap="butt"/><path d="M78.03571,341.96431v-323.92859h323.92859v323.92859z" fill="none" stroke="#000000" stroke-width="0" stroke-linecap="butt"/><g stroke="#000000" stroke-width="1.2" stroke-linecap="round"><path d="M252.54038,162.9485c0,0 -1.85004,10.05061 -5.73656,11.32215c-4.28978,1.40347 -15.0962,-6.49137 -15.0962,-6.49137" fill="#706d6d"/><path d="M253.74808,159.32541c0,0 3.03401,1.01648 0,2.56635c-3.76502,1.9233 -9.24719,2.44158 -14.01028,3.48237c-3.43781,0.7512 -8.60249,3.1814 -11.80423,2.40515c-1.18037,-0.28618 0,-2.26443 0,-2.26443" fill="none"/></g><g fill="#be1e2d" stroke="#000000" stroke-width="1.2"><path d="M216.9104,185.39414c-0.00458,0.00063 -0.007,0.0009 -0.007,0.0009c-2.57295,0.21711 -5.30594,-1.65261 -3.95372,-4.59145c1.1027,-2.39656 3.38989,-1.88312 4.96143,-3.32396c1.37503,-1.26068 0.50532,-5.16162 1.84711,-6.31199c2.20193,-1.88779 4.56054,2.08468 5.07673,4.93876c0.29092,1.60853 2.33446,2.80636 -0.06153,5.88936c-1.41289,1.81801 -4.55672,3.56949 -7.69491,3.48088z" stroke-linecap="butt"/><path d="M225.51651,180.72463c0,0 -2.33888,4.21772 -3.01046,4.72664c-1.74307,1.32087 -3.8879,-0.15105 -4.14508,-1.84933c-0.25718,-1.69829 3.4357,-2.62363 3.4357,-2.62363l2.06294,-1.64167" stroke-linecap="round"/></g></g></g></svg>