<svg version="1.1" xmlns="http://www.w3.org/2000/svg" xmlns:xlink="http://www.w3.org/1999/xlink" width="127.85597" height="144.61181" viewBox="0,0,127.85597,144.61181"><g transform="translate(-177.95186,-96.89768)"><g stroke-miterlimit="10"><path d="M239.6118,218.27537c-0.39432,1.96295 -0.83344,3.57845 -0.85563,3.74248c-0.62152,4.59361 0.28015,13.11148 -3.59909,16.2776c-3.01,2.45666 -6.1102,-1.45578 -4.65013,-4.70952c0.00452,-0.05461 0.01053,-0.10954 0.01808,-0.16472c0.05672,-0.4148 0.19362,-0.79655 0.38817,-1.12387c0.401,-2.43016 0.98806,-4.93011 1.23536,-7.38391c0.40258,-3.9946 -0.90734,-10.40828 1.42404,-13.86245c1.56111,-2.31292 5.25342,-2.80838 6.25572,-0.26948" fill="#be1e2d" stroke="#000000" stroke-width="1.2" stroke-linecap="butt"/><path d="M248.78543,212.44315c5.13561,4.0851 3.11809,11.53073 3.50848,23.92534c0.1033,3.27966 -15.21608,3.11309 -17.88348,-2.26128c-2.1649,-4.36192 -1.31097,-13.63852 -0.2515,-21.39237c0.41343,-3.02577 12.47825,-1.9805 14.6265,-0.27169z" fill="#be1e2d" stroke="#000000" stroke-width="1.2" stroke-linecap="butt"/><path d="M245.87587,212.13062c1.13637,-2.40538 5.69699,-1.50617 7.70519,0.95863c2.99909,3.68099 1.63162,9.89246 2.27869,13.89581c0.39749,2.45918 1.21466,5.00165 1.8003,7.45439c0.25175,0.34589 0.43466,0.73936 0.5202,1.15672c0.01137,0.05552 0.02086,0.11062 0.0285,0.16524c1.91968,3.38603 -1.74502,6.92073 -5.54091,4.1533c-4.89209,-3.56663 -4.10681,-11.90858 -5.04596,-16.52979c-0.03353,-0.16501 -0.6351,-1.8146 -1.19477,-3.80357" fill="#be1e2d" stroke="#000000" stroke-width="1.2" stroke-linecap="butt"/><path d="M238.48885,236.53037c-1.21802,-0.32428 -3.69924,-2.3219 -4.19853,-3.92318c-1.04005,-3.33557 0.57774,-11.95409 5.24743,-10.78125c3.34148,0.83925 7.3622,6.24632 8.72315,10.13197c0.8955,2.55673 0.94655,5.6803 -1.67238,5.91852c-2.57195,0.23395 -5.70209,-0.70772 -8.09967,-1.34605z" fill="#e6e7e8" stroke="#000000" stroke-width="1.2" stroke-linecap="butt"/><g stroke-linecap="round"><g stroke="#000000" stroke-width="1.2"><path d="M203.41034,189.76247c-15.55723,-3.88915 -24.67682,-35.37813 -24.67682,-35.37813c10.12474,-0.77214 13.99313,3.30187 14.50141,3.70085c0.50835,0.39985 9.78351,9.2244 9.78351,9.2244c-1.80443,13.34121 0.39189,22.45288 0.39189,22.45288zM203.61041,164.48644c0,0 -0.50007,2.00587 -0.63003,3.10531M203.41034,189.76247c0.22034,0.91684 0.92379,2.36183 0.92379,2.36183" fill="#be1e2d"/><path d="M197.14886,186.10756c-2.83253,-2.17903 -6.2398,-5.52655 -9.35795,-10.52169c-2.78005,-4.4539 -5.51983,-11.29992 -7.24167,-16.00421l0.06787,-0.06306c6.2731,-0.88467 9.68927,3.46508 9.68927,3.46508l0.20732,0.34392c1.36479,2.5311 2.83624,5.07721 4.04996,6.71787c0.71643,0.9701 1.48965,1.82475 2.21491,2.54062c0,0 1.33056,4.32385 1.45251,7.31717c0.18649,4.4279 -1.20058,6.129 -1.20058,6.129z" fill="#929497"/></g><path d="M264.0781,205.041l-11.20476,7.9646l-24.24764,-0.75116l-10.4883,4.03461l-15.21849,-5.25781l-6.24124,-8.57273l-5.23818,-10.16556l-2.80075,-12.60782l1.15585,-12.2566l3.478,-9.22078l5.26175,-8.93812l6.98399,-7.98003l7.81769,-7.06748l8.63695,-6.44207l6.01699,-3.64335l2.66306,-2.69797l2.98783,-4.4963l2.06365,-4.40104l1.84149,-5.98676l0.05786,-8.18809l4.27486,5.87412l4.35719,7.51057l0.41585,-3.90264l0.87534,2.18818l3.56419,6.95883l5.23544,6.71471l3.52967,3.23096l5.13813,4.78073l6.25884,5.76142l5.53319,6.5486l4.47986,6.90682l3.75421,7.69401l2.66346,7.30839l0.53435,7.57851l-0.07611,7.61317l-1.50952,6.50106l-2.96829,7.92666l-3.27808,4.81118l-5.51731,6.4271z" fill="#be1e2d" stroke="#8c8c8c" stroke-width="0"/><path d="M274.76634,206.91785l-10.7447,-1.80281l-11.19862,8.1239l-24.16253,-1.01454l-10.49354,3.99074l-14.51815,-4.48906c0,0 -45.62295,-45.30652 23.9983,-87.05536c0,0 12.46167,-10.76569 9.53906,-27.0921c-0.2377,-1.32789 8.86526,14.12295 8.86526,14.12295c0,0 0.23467,-5.31044 0.41921,-4.63434c2.04514,7.49282 10.35886,17.37677 10.35886,17.37677c53.39484,40.82856 23.28512,77.0564 23.28512,77.0564z" fill="none" stroke="#000000" stroke-width="1.2"/><g stroke="#000000" stroke-width="1.2"><path d="M280.9726,162.98861c0,0 8.7765,-10.65622 9.26657,-11.16197c0.4901,-0.50492 4.10798,-5.31701 14.81318,-7.22792c0,0 -6.16327,31.79115 -22.06373,39.4695c0,0 1.31915,-9.08405 -2.01604,-21.07961zM281.04307,163.24233c-0.25519,-0.99341 -0.99665,-2.73748 -0.99665,-2.73748M282.27483,186.51508c0,0 0.58176,-1.53295 0.7138,-2.44684" fill="#be1e2d"/><path d="M289.2784,178.9244c0,0 -1.63904,-1.22872 -1.92206,-5.41419c-0.19566,-2.82836 0.73282,-7.21407 0.73282,-7.21407c0.68349,-0.85738 1.40229,-1.85692 2.04901,-2.94955c1.09594,-1.84842 2.36435,-4.60981 3.52252,-7.32945l0.18034,-0.37523c0,0 3.11364,-4.95213 9.7903,-5.75653l0.07802,0.04128c-1.29782,4.84288 -3.43202,11.95142 -5.86705,16.83549c-2.73123,5.47763 -5.94389,9.4911 -8.6799,12.26338z" fill="#929497"/></g></g><g><path d="M271.92561,185.25947c0.75661,15.79938 -14.83658,29.5705 -34.82837,30.75864c-19.99179,1.18814 -36.81171,-10.65662 -37.56832,-26.45601c-0.75661,-15.79938 14.83657,-29.5705 34.82836,-30.75863c19.99179,-1.18814 36.81171,10.65662 37.56833,26.45601z" fill="#e6e7e8" stroke="#000000" stroke-width="1.2" stroke-linecap="butt"/><path d="M213.49851,213.68543l1.92176,2.79537l2.53823,1.91401l-1.76488,0.48031l-4.08858,-0.88329l-3.67768,-2.12787l-1.53297,-2.5369l-4.44627,-2.45761l-3.31131,-2.33736l0.02213,2.37896c-4.62974,-9.68234 -12.46898,-19.8014 -9.43116,-32.97894c26.8018,-28.90775 70.40902,-34.26372 84.57509,-1.62061c0.18944,0.43651 0.36566,0.87157 0.52923,1.30525c0.10224,0.64602 0.16842,1.24857 0.18552,1.79314c0.19335,6.16007 -0.40694,12.21144 -0.7226,18.40397c-0.0208,0.40799 -0.10686,0.8608 -0.23342,1.33661l-0.86679,1.30052l-0.21551,-1.44595l-2.67584,4.91773l-4.67424,3.38256l-5.55149,2.41583l1.29268,-3.55935l0.95924,-5.76611l-0.3397,-4.76736l-2.97836,1.21466l0.3853,-1.79263l0.8682,-4.21054l0.38396,-3.43142l-0.83417,-3.85062l-1.73589,-3.92812l-4.7918,-4.32215l-7.37537,-4.01485l-8.70192,-1.52509l1.91384,1.32827l2.69611,2.97832l1.11104,3.81151l-14.34411,-3.92989l-15.64854,-4.0586l-0.58986,2.95258l-2.4853,6.12861l-2.36036,5.68356l0.25774,5.38208l2.73001,5.08929l3.97289,3.55665l-3.03472,0.76387l-2.62507,0.15601l0.16717,3.49108l1.78531,3.68667l2.05609,3.23295l2.32689,2.77922z" fill="#be1e2d" stroke="#8c8c8c" stroke-width="0" stroke-linecap="butt"/><path d="M212.37477,169.80814c-1.15871,7.97124 -5.63745,12.14681 -5.42943,16.33412c0.42817,8.61891 7.26151,12.15953 7.26151,12.15953c0,0 -5.06552,2.77827 -10.82622,-0.82696" fill="none" stroke="#000000" stroke-width="1.2" stroke-linecap="round"/><path d="M194.96913,188.74069c-0.66274,-1.59563 -0.01052,-3.98106 -0.59492,-6.07975" fill="none" stroke="#000000" stroke-width="1.2" stroke-linecap="round"/><path d="M206.3431,167.52398c14.46702,5.28591 36.64188,10.52713 36.64188,10.52713c0,0 -0.64909,-5.99126 -5.98905,-8.30721c0,0 31.88248,2.90168 21.46168,27.36839c0,0 5.83924,-2.7922 8.24045,-6.44718" fill="none" stroke="#000000" stroke-width="1.2" stroke-linecap="round"/><path d="M268.73803,181.69235c0.19332,1.79171 0.31065,2.62384 -0.07208,4.0832" fill="none" stroke="#000000" stroke-width="1.2" stroke-linecap="round"/><path d="M272.09302,199.68044c-1.84031,6.72401 -12.42026,10.65598 -12.42026,10.65598c0,0 3.94583,-9.54029 2.2515,-14.71509" fill="none" stroke="#000000" stroke-width="1.2" stroke-linecap="round"/><path d="M194.95629,188.65829c-4.18461,7.62659 4.31718,21.93794 4.31718,21.93794c0,0 -14.74235,-21.31701 -9.05116,-33.68968" fill="none" stroke="#000000" stroke-width="1.2" stroke-linecap="round"/><path d="M274.89029,197.52057c-1.35303,2.38801 -2.41219,3.69147 -2.41219,3.69147c0,0 0.95685,-9.68277 -3.85046,-15.31601" fill="none" stroke="#000000" stroke-width="1.2" stroke-linecap="round"/><path d="M208.6493,199.40932c-1.07245,6.74337 6.40331,13.29892 6.40331,13.29892c0,0 -9.96175,2.48635 -16.28161,-4.78395" fill="none" stroke="#000000" stroke-width="1.2" stroke-linecap="round"/><path d="M212.87815,213.11418c1.1121,3.23022 5.2008,5.27573 5.2008,5.27573c0,0 -7.93914,1.94702 -11.98997,-5.65151" fill="none" stroke="#000000" stroke-width="1.2" stroke-linecap="round"/></g><path d="M238.57764,194.86799c0.24656,3.32028 -3.89748,6.0119 -9.25595,6.0119c-5.35848,0 -9.90225,-2.69162 -10.14881,-6.0119c-0.24656,-3.32028 3.89748,-6.0119 9.25595,-6.0119c5.35848,0 9.90225,2.69162 10.14881,6.0119z" fill-opacity="0.18431" fill="#747475" stroke="#000000" stroke-width="0" stroke-linecap="butt"/><path d="M243.58453,187.89691l-0.15976,-0.05985l0.24959,-0.58443c0.0757,-0.1899 0.27113,-0.32512 0.50028,-0.32512c0.29484,0 0.53385,0.22386 0.53385,0.5v0.55825c0.17952,0.85636 -0.0144,1.60014 -0.09522,2.40592c0.208,-0.04794 0.41599,-0.09594 0.62393,-0.14407c0.55829,-0.55913 2.91084,-3.47215 3.41376,-3.29864c1.453,0.50128 0.1761,3.04117 -0.69144,4.28142c0.01066,0.87684 -0.97594,1.14621 -0.97594,1.14621l-1.03692,0.282c-3.31128,0.76698 -6.64347,1.48666 -9.8602,2.55282c0,0 -1.2586,0.41586 -1.70261,-0.76293c-0.44401,-1.1788 0.81458,-1.59466 0.81458,-1.59466c2.31923,-0.76413 4.69204,-1.36049 7.07605,-1.92042c0.51276,-1.02962 0.77122,-2.082 1.31003,-3.0365z" fill="#000000" stroke="none" stroke-width="0.5" stroke-linecap="butt"/><path d="M216.13415,192.47255c2.07949,0.28952 4.15517,0.61657 6.21162,1.11674c0,0 1.11617,0.27261 0.92459,1.49661c-0.19159,1.224 -1.30776,0.95139 -1.30776,0.95139c-2.85322,-0.70004 -5.75017,-1.042 -8.63685,-1.43342l-0.91034,-0.16423c0,0 -0.86632,-0.15731 -0.99115,-1.03182c-0.91482,-1.13768 -2.37029,-3.52371 -1.23139,-4.18642c0.3942,-0.22938 2.80629,2.4073 3.35856,2.90138c0.18127,0.02455 0.36256,0.04895 0.54385,0.07331c-0.19051,-0.79345 -0.46616,-1.51243 -0.44662,-2.38553l-0.08515,-0.55601c-0.04212,-0.27503 0.12365,-0.52487 0.37026,-0.55804c0.19167,-0.02578 0.37576,0.08692 0.46805,0.26754l0.29791,0.554l-0.1245,0.07759c0.59627,0.89005 0.97298,1.90912 1.55892,2.87692z" fill="#000000" stroke="none" stroke-width="0.5" stroke-linecap="butt"/><path d="M218.54789,209.52568c0,0 -1.2848,-0.20912 -0.71429,-0.88412c0.40636,-0.48078 4.03973,-1.72829 10.02951,-1.70575c7.82514,-0.09812 13.48626,1.27519 14.4943,1.78281c0.86586,0.43602 -0.71429,1.25873 -0.71429,1.25873" fill="none" stroke="#000000" stroke-width="1.2" stroke-linecap="round"/></g></g></svg>