<svg version="1.1" xmlns="http://www.w3.org/2000/svg" xmlns:xlink="http://www.w3.org/1999/xlink" width="323.92859" height="323.92859" viewBox="0,0,323.92859,323.92859"><g transform="translate(-78.03571,-18.03572)"><g stroke-miterlimit="10"><g stroke-linecap="butt"><path d="M287.05093,300.69278l5.87524,-70.72106l45.02252,-0.10549l-8.36991,70.82655z" fill="#868995" stroke="#000000" stroke-width="1.2"/><g><g><g><g fill="#868995" stroke="#000000" stroke-width="1.2"><path d="M314.91629,263.73469c0,0 -14.72229,0.34976 -16.50098,-1.93606c-1.3725,-1.76382 0.99403,-25.0985 2.72753,-26.8075c1.77956,-1.75441 16.48082,-1.78714 16.48082,-1.78714"/></g><g fill="none" stroke="none" stroke-width="1" font-family="sans-serif" font-weight="normal" font-size="12" text-anchor="start"/><g fill="none" stroke="none" stroke-width="1" font-family="sans-serif" font-weight="normal" font-size="12" text-anchor="start"/></g><g><g fill="#868995" stroke="#000000" stroke-width="1.2"><path d="M317.51561,233.20399c0,0 14.69461,0.03272 16.11716,1.78714c1.38572,1.709 -0.9961,25.04367 -2.72752,26.80749c-2.24382,2.28582 -16.89495,1.93608 -16.89495,1.93608"/></g><g fill="none" stroke="none" stroke-width="1" font-family="sans-serif" font-weight="normal" font-size="12" text-anchor="start"/><g fill="none" stroke="none" stroke-width="1" font-family="sans-serif" font-weight="normal" font-size="12" text-anchor="start"/></g></g><g><g><g fill="#4e4f56" stroke="#000000" stroke-width="1.2"><path d="M315.04573,261.93812c0,0 -12.98855,0.30856 -14.55777,-1.70807c-1.21087,-1.5561 0.87697,-22.14282 2.40632,-23.65056c1.56999,-1.54781 14.53999,-1.57668 14.53999,-1.57668"/></g><g fill="none" stroke="none" stroke-width="1" font-family="sans-serif" font-weight="normal" font-size="12" text-anchor="start"/><g fill="none" stroke="none" stroke-width="1" font-family="sans-serif" font-weight="normal" font-size="12" text-anchor="start"/></g><g><g fill="#4e4f56" stroke="#000000" stroke-width="1.2"><path d="M317.33894,235.00281c0,0 12.96413,0.02887 14.21915,1.57668c1.22254,1.50775 -0.87881,22.09446 -2.40633,23.65056c-1.97958,2.01664 -14.90534,1.70807 -14.90534,1.70807"/></g><g fill="none" stroke="none" stroke-width="1" font-family="sans-serif" font-weight="normal" font-size="12" text-anchor="start"/><g fill="none" stroke="none" stroke-width="1" font-family="sans-serif" font-weight="normal" font-size="12" text-anchor="start"/></g></g><g><g><g fill="#9497a4" stroke="#000000" stroke-width="1.2"><path d="M315.69296,252.95531c0,0 -4.31985,0.10263 -4.84175,-0.56808c-0.40272,-0.51755 0.29167,-7.36444 0.80032,-7.86589c0.52216,-0.51478 4.83583,-0.52438 4.83583,-0.52438"/></g><g fill="none" stroke="none" stroke-width="1" font-family="sans-serif" font-weight="normal" font-size="12" text-anchor="start"/><g fill="none" stroke="none" stroke-width="1" font-family="sans-serif" font-weight="normal" font-size="12" text-anchor="start"/></g><g><g fill="#9497a4" stroke="#000000" stroke-width="1.2"><path d="M316.45565,243.99694c0,0 4.31171,0.0096 4.72913,0.52438c0.40661,0.50145 -0.29228,7.34836 -0.80032,7.86589c-0.65839,0.67071 -4.95734,0.56808 -4.95734,0.56808"/></g><g fill="none" stroke="none" stroke-width="1" font-family="sans-serif" font-weight="normal" font-size="12" text-anchor="start"/><g fill="none" stroke="none" stroke-width="1" font-family="sans-serif" font-weight="normal" font-size="12" text-anchor="start"/></g></g></g><g><g><g><g fill="#868995" stroke="#000000" stroke-width="1.2"><path d="M311.72024,294.71302c0,0 -11.16835,0.26533 -12.51766,-1.4687c-1.04118,-1.33803 0.75407,-19.03976 2.0691,-20.33621c1.34997,-1.3309 12.50238,-1.35573 12.50238,-1.35573"/></g><g fill="none" stroke="none" stroke-width="1" font-family="sans-serif" font-weight="normal" font-size="12" text-anchor="start"/><g fill="none" stroke="none" stroke-width="1" font-family="sans-serif" font-weight="normal" font-size="12" text-anchor="start"/></g><g><g fill="#868995" stroke="#000000" stroke-width="1.2"><path d="M313.6921,271.55238c0,0 11.14736,0.02483 12.22651,1.35573c1.05122,1.29645 -0.75565,18.99818 -2.06911,20.33621c-1.70216,1.73403 -12.81654,1.46871 -12.81654,1.46871"/></g><g fill="none" stroke="none" stroke-width="1" font-family="sans-serif" font-weight="normal" font-size="12" text-anchor="start"/><g fill="none" stroke="none" stroke-width="1" font-family="sans-serif" font-weight="normal" font-size="12" text-anchor="start"/></g></g><g><g><g fill="#4e4f56" stroke="#000000" stroke-width="1.2"><path d="M311.81844,293.35014c0,0 -9.85313,0.23408 -11.04354,-1.29574c-0.91857,-1.18047 0.66527,-16.79758 1.82543,-17.94135c1.19099,-1.17417 11.03006,-1.19608 11.03006,-1.19608"/></g><g fill="none" stroke="none" stroke-width="1" font-family="sans-serif" font-weight="normal" font-size="12" text-anchor="start"/><g fill="none" stroke="none" stroke-width="1" font-family="sans-serif" font-weight="normal" font-size="12" text-anchor="start"/></g><g><g fill="#4e4f56" stroke="#000000" stroke-width="1.2"><path d="M313.55809,272.91697c0,0 9.83461,0.02191 10.78667,1.19608c0.92741,1.14378 -0.66667,16.76089 -1.82544,17.94135c-1.50172,1.52982 -11.30722,1.29574 -11.30722,1.29574"/></g><g fill="none" stroke="none" stroke-width="1" font-family="sans-serif" font-weight="normal" font-size="12" text-anchor="start"/><g fill="none" stroke="none" stroke-width="1" font-family="sans-serif" font-weight="normal" font-size="12" text-anchor="start"/></g></g><g><g><g fill="#9497a4" stroke="#000000" stroke-width="1.2"><path d="M312.30942,286.53577c0,0 -3.27703,0.07784 -3.67296,-0.43095c-0.3055,-0.39261 0.22127,-5.58668 0.60713,-5.96708c0.39611,-0.39051 3.66846,-0.39781 3.66846,-0.39781"/></g><g fill="none" stroke="none" stroke-width="1" font-family="sans-serif" font-weight="normal" font-size="12" text-anchor="start"/><g fill="none" stroke="none" stroke-width="1" font-family="sans-serif" font-weight="normal" font-size="12" text-anchor="start"/></g><g><g fill="#9497a4" stroke="#000000" stroke-width="1.2"><path d="M312.88801,279.73993c0,0 3.27087,0.00728 3.58752,0.39781c0.30845,0.3804 -0.22173,5.57447 -0.60712,5.96708c-0.49944,0.5088 -3.76065,0.43095 -3.76065,0.43095"/></g><g fill="none" stroke="none" stroke-width="1" font-family="sans-serif" font-weight="normal" font-size="12" text-anchor="start"/><g fill="none" stroke="none" stroke-width="1" font-family="sans-serif" font-weight="normal" font-size="12" text-anchor="start"/></g></g></g></g><g stroke-linecap="butt"><path d="M150.4212,300.69278l-8.00783,-70.82655l45.02199,0.10549l5.5137,70.72106z" fill="#868995" stroke="#000000" stroke-width="1.2"/><g><g><g><g fill="#868995" stroke="#000000" stroke-width="1.2"><path d="M162.72135,233.20399c0,0 14.70109,0.03272 16.47168,1.78714c1.72475,1.709 3.97199,25.04367 2.59049,26.80749c-1.79037,2.28582 -16.51087,1.93607 -16.51087,1.93607"/></g><g fill="none" stroke="none" stroke-width="1" font-family="sans-serif" font-weight="normal" font-size="12" text-anchor="start"/><g fill="none" stroke="none" stroke-width="1" font-family="sans-serif" font-weight="normal" font-size="12" text-anchor="start"/></g><g><g fill="#868995" stroke="#000000" stroke-width="1.2"><path d="M166.17864,263.73469c0,0 -14.65291,0.34976 -16.88505,-1.93606c-1.7224,-1.76382 -3.98495,-25.09849 -2.59049,-26.80749c1.43152,-1.75441 16.1263,-1.78714 16.1263,-1.78714"/></g><g fill="none" stroke="none" stroke-width="1" font-family="sans-serif" font-weight="normal" font-size="12" text-anchor="start"/><g fill="none" stroke="none" stroke-width="1" font-family="sans-serif" font-weight="normal" font-size="12" text-anchor="start"/></g></g><g><g><g fill="#4e4f56" stroke="#000000" stroke-width="1.2"><path d="M162.90154,235.00281c0,0 12.96986,0.02887 14.53193,1.57668c1.52165,1.50775 3.50423,22.09446 2.28541,23.65056c-1.57953,2.01664 -14.5665,1.70807 -14.5665,1.70807"/></g><g fill="none" stroke="none" stroke-width="1" font-family="sans-serif" font-weight="normal" font-size="12" text-anchor="start"/><g fill="none" stroke="none" stroke-width="1" font-family="sans-serif" font-weight="normal" font-size="12" text-anchor="start"/></g><g><g fill="#4e4f56" stroke="#000000" stroke-width="1.2"><path d="M165.95168,261.93812c0,0 -12.92733,0.30856 -14.89661,-1.70807c-1.51956,-1.5561 -3.51567,-22.14282 -2.28541,-23.65056c1.26295,-1.54781 14.22721,-1.57668 14.22721,-1.57668"/></g><g fill="none" stroke="none" stroke-width="1" font-family="sans-serif" font-weight="normal" font-size="12" text-anchor="start"/><g fill="none" stroke="none" stroke-width="1" font-family="sans-serif" font-weight="normal" font-size="12" text-anchor="start"/></g></g><g><g><g fill="#9497a4" stroke="#000000" stroke-width="1.2"><path d="M163.80247,243.99694c0,0 4.31363,0.0096 4.83315,0.52438c0.50609,0.50145 1.16547,7.34836 0.7601,7.86589c-0.52534,0.67071 -4.84464,0.56808 -4.84464,0.56808"/></g><g fill="none" stroke="none" stroke-width="1" font-family="sans-serif" font-weight="normal" font-size="12" text-anchor="start"/><g fill="none" stroke="none" stroke-width="1" font-family="sans-serif" font-weight="normal" font-size="12" text-anchor="start"/></g><g><g fill="#9497a4" stroke="#000000" stroke-width="1.2"><path d="M164.81691,252.95531c0,0 -4.29948,0.10263 -4.95444,-0.56808c-0.50538,-0.51755 -1.16927,-7.36444 -0.7601,-7.86589c0.42004,-0.51478 4.7318,-0.52438 4.7318,-0.52438"/></g><g fill="none" stroke="none" stroke-width="1" font-family="sans-serif" font-weight="normal" font-size="12" text-anchor="start"/><g fill="none" stroke="none" stroke-width="1" font-family="sans-serif" font-weight="normal" font-size="12" text-anchor="start"/></g></g></g><g><g><g><g fill="#868995" stroke="#000000" stroke-width="1.2"><path d="M166.37489,271.55238c0,0 11.15229,0.02483 12.49545,1.35573c1.3084,1.29645 3.01316,18.99818 1.96514,20.33621c-1.35818,1.73403 -12.52517,1.46871 -12.52517,1.46871"/></g><g fill="none" stroke="none" stroke-width="1" font-family="sans-serif" font-weight="normal" font-size="12" text-anchor="start"/><g fill="none" stroke="none" stroke-width="1" font-family="sans-serif" font-weight="normal" font-size="12" text-anchor="start"/></g><g><g fill="#868995" stroke="#000000" stroke-width="1.2"><path d="M168.99761,294.71302c0,0 -11.11573,0.26533 -12.80903,-1.4687c-1.3066,-1.33803 -3.02298,-19.03976 -1.96514,-20.3362c1.08595,-1.3309 12.23344,-1.35573 12.23344,-1.35573"/></g><g fill="none" stroke="none" stroke-width="1" font-family="sans-serif" font-weight="normal" font-size="12" text-anchor="start"/><g fill="none" stroke="none" stroke-width="1" font-family="sans-serif" font-weight="normal" font-size="12" text-anchor="start"/></g></g><g><g><g fill="#4e4f56" stroke="#000000" stroke-width="1.2"><path d="M166.51159,272.91697c0,0 9.83895,0.02191 11.02394,1.19608c1.15433,1.14378 2.65833,16.76089 1.73372,17.94135c-1.19823,1.52982 -11.05017,1.29574 -11.05017,1.29574"/></g><g fill="none" stroke="none" stroke-width="1" font-family="sans-serif" font-weight="normal" font-size="12" text-anchor="start"/><g fill="none" stroke="none" stroke-width="1" font-family="sans-serif" font-weight="normal" font-size="12" text-anchor="start"/></g><g><g fill="#4e4f56" stroke="#000000" stroke-width="1.2"><path d="M168.82543,293.35014c0,0 -9.8067,0.23408 -11.3006,-1.29574c-1.15275,-1.18047 -2.667,-16.79758 -1.73372,-17.94135c0.95807,-1.17417 10.79279,-1.19608 10.79279,-1.19608"/></g><g fill="none" stroke="none" stroke-width="1" font-family="sans-serif" font-weight="normal" font-size="12" text-anchor="start"/><g fill="none" stroke="none" stroke-width="1" font-family="sans-serif" font-weight="normal" font-size="12" text-anchor="start"/></g></g><g><g><g fill="#9497a4" stroke="#000000" stroke-width="1.2"><path d="M167.19503,279.73993c0,0 3.27232,0.00729 3.66644,0.3978c0.38391,0.3804 0.88413,5.57448 0.57662,5.96708c-0.39852,0.5088 -3.67516,0.43095 -3.67516,0.43095"/></g><g fill="none" stroke="none" stroke-width="1" font-family="sans-serif" font-weight="normal" font-size="12" text-anchor="start"/><g fill="none" stroke="none" stroke-width="1" font-family="sans-serif" font-weight="normal" font-size="12" text-anchor="start"/></g><g><g fill="#9497a4" stroke="#000000" stroke-width="1.2"><path d="M167.9646,286.53577c0,0 -3.26159,0.07785 -3.75844,-0.43095c-0.38339,-0.39261 -0.88701,-5.58668 -0.57661,-5.96708c0.31865,-0.39051 3.58955,-0.3978 3.58955,-0.3978"/></g><g fill="none" stroke="none" stroke-width="1" font-family="sans-serif" font-weight="normal" font-size="12" text-anchor="start"/><g fill="none" stroke="none" stroke-width="1" font-family="sans-serif" font-weight="normal" font-size="12" text-anchor="start"/></g></g></g></g><path d="M187.3461,300.92055l-3.94905,-103.37655h113.20589l-3.94904,103.37655z" fill="#868995" stroke="#000000" stroke-width="1.2" stroke-linecap="butt"/><g stroke="#000000" stroke-width="1.2" stroke-linecap="butt"><g fill="#868995"><path d="M240.80288,245.80576c0,0 -44.85313,0.45399 -48.0377,-2.51313c-2.45732,-2.28954 -2.46945,-32.57923 0,-34.79762c2.53508,-2.27732 47.40598,-2.31981 47.40598,-2.31981"/><path d="M239.82882,206.17521c0,0 44.87091,0.04248 47.40598,2.31981c2.46946,2.21839 2.45734,32.50809 0,34.79762c-3.18457,2.96712 -48.0377,2.51313 -48.0377,2.51313"/></g><g fill="#4e4f56"><path d="M240.76191,243.54599c0,0 -42.56392,0.40218 -45.58596,-2.22635c-2.33192,-2.02826 -2.34342,-28.8615 0,-30.82673c2.40569,-2.01745 44.98648,-2.05509 44.98648,-2.05509"/><path d="M239.83756,208.43782c0,0 42.5808,0.03764 44.98649,2.05509c2.34342,1.96524 2.33191,28.79847 0,30.82673c-3.02204,2.62853 -45.58597,2.22635 -45.58597,2.22635"/></g><g fill="#9497a4"><path d="M240.24829,231.83058c0,0 -13.87108,0.13359 -14.85592,-0.73958c-0.75994,-0.67378 -0.7637,-9.58753 0,-10.24036c0.78398,-0.67018 14.66055,-0.68268 14.66055,-0.68268"/><path d="M239.94707,220.16797c0,0 13.87656,0.01251 14.66055,0.68268c0.76369,0.65283 0.75994,9.56659 0,10.24036c-0.98485,0.87317 -14.85592,0.73957 -14.85592,0.73957"/></g></g><g stroke="#000000" stroke-width="1.2" stroke-linecap="butt"><g fill="#868995"><path d="M240.69234,286.48518c0,0 -38.67744,0.39148 -41.42353,-2.16711c-2.11899,-1.97429 -2.12944,-28.0935 0,-30.00643c2.18603,-1.96376 40.87879,-2.0004 40.87879,-2.0004"/><path d="M239.85239,252.31124c0,0 38.69277,0.03663 40.8788,2.0004c2.12944,1.91293 2.11899,28.03214 0,30.00643c-2.7461,2.55858 -41.42354,2.1671 -41.42354,2.1671"/></g><g fill="#4e4f56"><path d="M240.65701,284.53654c0,0 -36.70342,0.34681 -39.30935,-1.91981c-2.01084,-1.74899 -2.02077,-24.88765 0,-26.5823c2.07446,-1.73968 38.79241,-1.77213 38.79241,-1.77213"/><path d="M239.85993,254.26232c0,0 36.71797,0.03246 38.79242,1.77213c2.02076,1.69465 2.01083,24.8333 0,26.58229c-2.60595,2.26662 -39.30936,1.91981 -39.30936,1.91981"/></g><g fill="#9497a4"><path d="M240.21411,274.43419c0,0 -11.9612,0.1152 -12.81044,-0.63774c-0.65531,-0.581 -0.65854,-8.26744 0,-8.83038c0.67604,-0.5779 12.64198,-0.58869 12.64198,-0.58869"/><path d="M239.95435,264.37737c0,0 11.96594,0.01079 12.64198,0.58869c0.65854,0.56294 0.65531,8.24938 0,8.83039c-0.84924,0.75295 -12.81044,0.63774 -12.81044,0.63774"/></g></g><path d="M192.35429,176.07741" fill="none" stroke="#000000" stroke-width="1.2" stroke-linecap="round"/><path d="M200.34225,180.47577" fill="none" stroke="#000000" stroke-width="1.2" stroke-linecap="round"/><g><g stroke-linecap="round"><g stroke="#000000" stroke-width="1.2"><path d="M208.72351,160.20587c-15.91545,-1.96253 -28.80782,-32.10401 -28.80782,-32.10401c9.95495,-2.00135 14.29141,1.5704 14.84455,1.90441c0.55334,0.33486 10.83561,7.96218 10.83561,7.96218c-0.16366,13.46168 3.12766,22.23743 3.12766,22.23743zM205.83901,135.09415c0,0 -0.25167,2.05189 -0.24657,3.15896M208.72351,160.20587c0.33053,0.88312 1.20496,2.23152 1.20496,2.23152" fill="#be1e2d"/><path d="M202.06297,157.342c-3.07717,-1.81726 -6.8673,-4.7242 -10.57146,-9.30169c-3.30255,-4.08154 -6.85692,-10.54228 -9.13971,-15.00142l0.05966,-0.07087c6.11835,-1.64324 10.03958,2.25736 10.03958,2.25736l0.24774,0.31608c1.66334,2.34572 3.43436,4.69335 4.83912,6.1737c0.82941,0.87547 1.7011,1.62943 2.50827,2.25148c0,0 1.84803,4.12927 2.33417,7.08537c0.72519,4.37208 -0.44403,6.22968 -0.44403,6.22968z" fill="#929497"/></g><path d="M270.80186,167.97035l-10.14961,9.27183l-24.15821,2.21206l-9.91788,5.28378l-15.74617,-3.36227l-7.24031,-7.74744l-6.43901,-9.45073l-4.31767,-12.17206l-0.34778,-12.30607l2.32732,-9.57615l4.13224,-9.51319l5.95848,-8.77231l6.89725,-7.96827l7.78668,-7.44747l5.52767,-4.35007l2.31409,-3.00264l2.41708,-4.82716l1.51142,-4.61989l1.09752,-6.16666l-0.94131,-8.13402l4.95943,5.30882l5.24075,6.92302l-0.06329,-3.92422l1.13571,2.06507l4.38638,6.47213l6.01538,6.02597l3.89742,2.77631l5.6829,4.1183l6.91486,4.95497l6.29065,5.82479l5.28887,6.30882l4.66467,7.17863l3.53503,6.92895l1.45474,7.45674l0.85308,7.5656l-0.70528,6.63665l-1.97927,8.22952l-2.66675,5.1751l-4.69216,7.05208z" fill="#be1e2d" stroke="#8c8c8c" stroke-width="0"/><path d="M281.63923,168.5295l-10.88437,-0.47876l-10.12408,9.42919l-24.10586,1.94027l-9.92842,5.24089l-14.9573,-2.68468c0,0 -50.80858,-39.40336 13.2005,-89.33253c0,0 11.05548,-12.20533 6.16328,-28.05334c-0.39789,-1.28897 10.52172,12.93616 10.52172,12.93616c0,0 -0.41483,-5.29941 -0.1492,-4.65088c2.9438,7.18742 12.40104,15.98349 12.40104,15.98349c57.97623,34.01084 32.51023,73.64082 32.51023,73.64082z" fill="none" stroke="#000000" stroke-width="1.2"/><g stroke="#000000" stroke-width="1.2"><path d="M282.44088,124.17126c0,0 7.41117,-11.64717 7.8359,-12.20891c0.42486,-0.56094 3.42877,-5.77838 13.82095,-8.98079c0,0 -2.23952,32.30554 -17.08469,41.86602c0,0 0.20126,-9.17714 -4.57217,-20.67631zM282.54177,124.41448c-0.37445,-0.95487 -1.32312,-2.59547 -1.32312,-2.59547M286.60303,147.36322c0,0 0.39043,-1.59246 0.41003,-2.51564" fill="#be1e2d"/><path d="M292.62843,138.97495c0,0 -1.77668,-1.01961 -2.56811,-5.13932c-0.53919,-2.78337 -0.15258,-7.24959 -0.15258,-7.24959c0.5738,-0.93435 1.16531,-2.0141 1.67394,-3.17744c0.8623,-1.96829 1.78442,-4.86378 2.60222,-7.70438l0.13323,-0.39443c0,0 2.48636,-5.29494 9.01504,-6.90772l0.08247,0.03146c-0.69742,4.96502 -1.94861,12.2808 -3.76973,17.42542c-2.0427,5.76988 -4.74183,10.14524 -7.11926,13.23055z" fill="#929497"/></g></g><g><g><path d="M279.69383,146.72772c2.76709,15.5832 -11.8347,31.20704 -32.61401,34.89682c-20.77934,3.68978 -39.86748,-5.95176 -42.63459,-21.53495c-2.76709,-15.5832 11.83469,-31.20704 32.61401,-34.89682c20.77934,-3.68978 39.86748,5.95176 42.63459,21.53495z" fill="#e6e7e8" stroke="#000000" stroke-width="1.2" stroke-linecap="butt"/><path d="M222.08454,182.27347l2.36118,2.53259l2.89635,1.58056l-1.78748,0.69828l-4.39042,-0.36303l-4.11588,-1.64967l-1.92188,-2.32492l-4.96167,-1.88037l-3.75854,-1.90358l0.32056,2.35794c-6.05688,-9.02666 -15.52814,-18.08359 -13.9954,-31.54159c24.44301,-32.05206 69.42247,-42.84354 88.33249,-12.22987c0.25286,0.40937 0.49173,0.81895 0.71717,1.22878c0.18779,0.62822 0.33239,1.21783 0.41835,1.75607c0.97246,6.08854 1.10054,12.16891 1.54422,18.35358c0.02923,0.40747 -0.00425,0.86762 -0.07727,1.35567l-0.7448,1.3994l-0.40634,-1.4078l-1.83681,5.506l-4.21245,5.33586l-2.77688,1.97304l-0.28407,-4.24141l-0.86747,-5.76577l-1.26998,-4.51035l-1.08656,0.04494l0.19999,-1.51546l0.75282,-3.68555l-0.56174,-4.04411l-1.39609,-4.33994l-3.973,-3.88236l-6.34734,-3.16478l-8.13958,-1.81055l-9.30002,-0.42053l2.47755,0.74402l3.99591,2.25035l2.4304,3.12031l-17.43831,-1.34336l-16.85747,-1.59449l-0.24838,3.00402l-1.83554,6.39375l-1.76039,5.93642l0.94262,5.30844l3.49404,4.70741l4.60353,3.03043l-3.08132,1.13913l-2.72848,0.48449l0.61142,3.44332l2.32978,3.43419l2.55652,2.94993l2.78324,2.46568z" fill="#be1e2d" stroke="#8c8c8c" stroke-width="0" stroke-linecap="butt"/><path d="M215.42314,138.87379c-0.21648,8.05562 -4.38295,12.76167 -3.64174,16.89073c1.52566,8.49904 9.12157,11.15431 9.12157,11.15431c0,0 -4.95539,3.39313 -11.43652,0.53903" fill="none" stroke="#000000" stroke-width="1.2" stroke-linecap="round"/><path d="M204.01847,159.70756c-0.89324,-1.50016 -1.78238,-3.23805 -2.65649,-5.24725" fill="none" stroke="#000000" stroke-width="1.2" stroke-linecap="round"/><path d="M208.82353,137.36465c15.80519,3.42849 41.36776,4.00926 41.36776,4.00926c0,0 -3.1227,-4.02846 -9.00221,-5.65601c0,0 36.1314,-2.38014 28.28121,23.20769c0,0 3.37023,-2.24865 5.42696,-6.17717" fill="none" stroke="#000000" stroke-width="1.2" stroke-linecap="round"/><path d="M275.91108,143.58826c0.42636,1.75368 0.65318,2.5647 0.43497,4.06095" fill="none" stroke="#000000" stroke-width="1.2" stroke-linecap="round"/><path d="M281.67186,161.01705c-1.08592,6.90357 -8.54609,11.92619 -8.54609,11.92619c0,0 -0.18564,-9.75476 -2.60621,-14.6771" fill="none" stroke="#000000" stroke-width="1.2" stroke-linecap="round"/><path d="M203.49114,159.50432c-3.42715,8.09364 3.31613,21.49014 3.31613,21.49014c0,0 -18.09743,-19.30206 -13.68646,-32.2946" fill="none" stroke="#000000" stroke-width="1.2" stroke-linecap="round"/><path d="M284.33006,158.52245c-1.11786,2.53962 -2.06366,3.9661 -2.06366,3.9661c0,0 -0.20877,-9.72869 -5.94538,-14.71498" fill="none" stroke="#000000" stroke-width="1.2" stroke-linecap="round"/><path d="M215.22364,168.71584c-0.2797,6.82634 8.3656,12.39275 8.3656,12.39275c0,0 -10.11736,3.71836 -17.64198,-2.70248" fill="none" stroke="#000000" stroke-width="1.2" stroke-linecap="round"/><path d="M221.36371,181.78451c1.56797,3.06578 6.10381,4.58212 6.10381,4.58212c0,0 -8.06747,2.92916 -13.25785,-4.10237" fill="none" stroke="#000000" stroke-width="1.2" stroke-linecap="round"/></g><g><path d="M263.3024,148.24716c0.53492,-0.12829 0.91373,0.64936 1.06952,0.97857c0.58413,1.23445 0.67443,2.78803 -0.18917,3.88951l-0.39785,0.12172c-0.173,0.09633 -0.42763,0.15306 -0.78799,0.14995c-3.03179,-0.02616 -5.69641,-0.10957 -8.60582,1.24149c-0.83469,0.38761 -2.23344,1.89907 -2.95259,2.09525c-0.92246,0.25165 -1.28937,0.04203 -1.54103,-0.88042c-0.24557,-0.90014 1.41271,-1.79998 2.00708,-2.15839c2.06935,-1.24779 4.45693,-2.02786 6.85909,-2.39954c0.45668,-0.53427 0.67587,-1.14687 0.9228,-1.89999c0.07102,-0.21662 0.36921,-1.0626 0.45759,-1.08251c0.9925,-0.22362 1.29399,1.45175 1.34277,2.71216c0.26454,-0.00849 0.53287,-0.00828 0.7809,0.00746c0.31883,-1.11811 0.65185,-2.68343 1.03467,-2.77523z" fill="#000000" stroke="none" stroke-width="0.5" stroke-linecap="butt"/><path d="M225.7252,159.31576c0.19906,-0.1368 0.42108,-0.26769 0.64343,-0.38793c-0.45882,-1.30329 -0.87284,-3.15096 0.03724,-3.40737c0.08104,-0.02283 0.66292,0.69073 0.80752,0.87605c0.50269,0.64427 0.92678,1.15939 1.51638,1.47933c2.13556,-0.79276 4.42081,-1.16382 6.62791,-0.90508c0.63395,0.07431 2.36297,0.18005 2.51622,1.21348c0.15705,1.05904 -0.06364,1.45058 -0.92687,1.64443c-0.67298,0.15113 -2.42939,-0.70194 -3.27383,-0.68884c-2.94334,0.04562 -5.1159,1.42818 -7.61506,2.93154c-0.29705,0.17869 -0.53029,0.24514 -0.71163,0.23163l-0.37753,0.07021c-1.15109,-0.69754 -1.69166,-2.31868 -1.6971,-3.85639c-0.00144,-0.4101 0.00413,-1.38406 0.4977,-1.51439c0.35323,-0.09325 1.24886,1.3336 1.95562,2.31337z" fill="#000000" stroke="none" stroke-width="0.5" stroke-linecap="butt"/><path d="M257.60114,164.22104c-8.94116,10.36889 -22.11778,7.48406 -22.11778,7.48406" fill="none" stroke="#000000" stroke-width="1.2" stroke-linecap="round"/></g></g></g><path d="M268.81323,163.85675" fill="none" stroke="#000000" stroke-width="1.2" stroke-linecap="round"/><g stroke="#000000" stroke-width="1.2"><path d="M235.71718,178.63596c0.1962,-0.0302 0.38373,-0.05415 0.56282,-0.07206c0.30474,-0.08192 0.61879,-0.09682 0.91637,-0.0388c6.79924,0.17276 -3.09474,12.05761 -5.7766,12.88031c-2.27424,0.69765 -6.64729,-0.76286 -5.22099,-3.93541c0.5148,-1.14508 8.33083,-8.40866 9.45057,-8.75216z" fill="#be1e2d" stroke-linecap="butt"/><g><path d="M224.95506,195.77212c-0.18774,-0.23725 -2.37082,-3.21691 -2.37082,-3.21691c0,0 -0.01324,5.03168 -3.51991,6.40562c-1.89871,0.74393 -5.65689,0.16986 -7.71242,0.32794c0,0 -2.35229,0.17914 -2.22472,-2.14956c0.12755,-2.3287 2.47985,-2.50783 2.47985,-2.50783c0.45555,-0.03438 1.01636,-0.01541 1.62304,0.02045c3.33566,-5.98803 6.13198,-15.85863 13.66763,-10.78639c3.09324,2.08205 3.70854,2.90403 3.70854,2.90403c0,0 4.50102,-10.04095 9.07534,-9.42828c14.92918,1.99956 6.63201,19.97177 0.59884,20.62974c-9.15299,0.99821 -13.03957,0.68982 -15.32538,-2.19881z" fill="#be1e2d" stroke-linecap="butt"/><path d="M231.4609,191.84932c-0.13214,-3.20306 4.00262,-14.1335 8.42306,-10.78277c3.47964,2.63759 0.69108,8.33619 -1.27385,11.27005c-2.21194,3.30266 -7.00599,2.98429 -7.14922,-0.48728z" fill="#e6e7e8" stroke-linecap="round"/></g><path d="M245.24726,180.09384c1.38218,-1.58434 3.96388,-1.18759 5.01372,-0.84674c2.97584,0.96615 2.74455,3.66846 2.98554,6.67218c0.2096,2.61271 0.93312,5.50079 2.45871,7.07516c3.19751,0.87774 9.12904,-0.09053 7.63161,4.34581c-0.35904,1.06366 -6.26438,1.54055 -8.52894,1.6162c1.14448,2.40989 -1.32056,2.72103 -3.30522,1.46096c-0.81401,-0.51682 -2.83645,-1.32729 -4.0359,-2.87032c-1.19945,-1.54303 -0.21715,-2.36486 -0.21746,-3.57746c-0.0007,-2.75101 -1.0115,-3.85461 -1.4791,-6.36734" fill="#be1e2d" stroke-linecap="butt"/><path d="M226.73399,183.81384c-0.42695,1.27292 -1.98717,1.63144 -1.98717,1.63144c0,0 -1.49694,2.43562 -5.30559,3.24193c-5.13078,1.08622 -5.49887,-5.19047 -0.38947,-7.53982c0,0 4.35971,-2.56991 6.36463,-1.93709c0.67263,0.2123 0.53195,1.26761 0.76561,1.95597c0.4687,1.38082 0.97892,1.37465 0.55199,2.64757z" fill="#be1e2d" stroke-linecap="butt"/></g><path d="M240.06269,197.93663c-0.89403,0.49811 -1.99435,0.26233 -2.98579,0.41391c-2.63281,0.43096 -5.31424,0.54695 -7.92405,1.00056c-2.69082,0.4677 -5.38885,1.65298 -7.60935,-0.45225c-2.43496,-2.30855 -2.97754,-8.86276 0.75802,-11.09324c2.14706,-1.28199 3.99618,-0.26211 5.73369,0.387c3.48061,1.3003 7.44697,2.92743 11.37117,2.62617c0,0 0.54113,-0.03596 1.04908,0.20671c0.6184,0.08338 1.00621,0.42583 1.21487,0.68076" fill="#be1e2d" stroke="#000000" stroke-width="1.2" stroke-linecap="butt"/><path d="M78.03571,341.96431v-323.92859h323.92859v323.92859z" fill="none" stroke="#000000" stroke-width="0" stroke-linecap="butt"/></g></g></svg>