<svg version="1.1" xmlns="http://www.w3.org/2000/svg" xmlns:xlink="http://www.w3.org/1999/xlink" width="88.12487" height="134.77517" viewBox="0,0,88.12487,134.77517"><g transform="translate(-194.63005,-94.53712)"><g stroke-miterlimit="10"><path d="M236.97586,176.544c2.49568,-0.89857 5.41316,0.49855 6.51638,3.12054c0.25059,0.59556 0.38601,1.20309 0.41643,1.79695c1.02032,1.69364 -1.9324,4.33148 -2.54084,5.65662c-2.28788,4.98279 -4.98504,7.2017 -10.99313,8.85881c-2.4552,0.67718 -5.12929,0.17614 -6.51638,-3.12054c-2.63296,-6.2577 4.89522,-6.67787 7.58559,-9.0594c1.44179,-1.27627 3.59586,-8.02384 5.53196,-7.25298z" fill="#ffab19" fill-rule="nonzero" stroke="#000000" stroke-width="1.2" stroke-linecap="butt" stroke-linejoin="miter"/><g fill-rule="evenodd"><path d="M256.15073,199.60537c1.84569,1.6135 4.23216,3.44512 7.43425,4.03385c7.2251,1.43458 14.71273,-2.09181 15.32787,2.20604c0.67542,4.37763 -9.83712,12.19471 -20.38297,4.8718c-3.64886,-2.50716 -5.93953,-5.53911 -7.72848,-8.07283c-0.48225,-0.6383 -4.08314,-6.56566 -2.81711,-10.53016c1.26604,-3.96449 3.00893,-3.15061 3.81034,-2.75343c0.94146,0.41669 1.82782,7.89362 4.35611,10.24472z" fill="#ffab19" stroke="#001026" stroke-width="1.2" stroke-linecap="round" stroke-linejoin="round"/><path d="M278.39155,205.48709c0.72688,1.95745 -2.02138,5.28715 -5.4168,6.59913c-3.39541,1.31196 -5.79609,1.12041 -7.61698,0.86683c0.67909,-0.2624 2.67554,-1.26943 2.68802,-3.40948c0.09048,-2.70034 -2.858,-5.10997 -2.858,-5.10997c0,0 4.90067,0.18275 8.01945,-0.16824c2.79963,-0.10986 4.29786,-0.61515 5.18435,1.22174z" fill="#ffffff" stroke="none" stroke-width="1" stroke-linecap="butt" stroke-linejoin="miter"/></g><g fill-rule="nonzero" stroke-linecap="butt" stroke-linejoin="miter"><path d="M242.7308,219.54893c0.14813,3.07879 -14.82478,9.05413 -14.82478,9.05413c0,0 -4.74186,-5.07392 -1.56018,-8.22779c1.48269,-1.46973 5.55805,-7.1923 5.71387,-8.77671c0.54604,-5.55203 -1.39267,-10.20652 1.36707,-15.49346c0.50839,-0.97394 1.54395,-3.18789 2.83312,-4.51163c1.1308,-2.4811 5.81873,-2.17039 7.71071,-0.09076c5.42252,5.96031 -2.09431,10.28471 -1.2398,28.04623z" fill="#ffab19" stroke="#001026" stroke-width="1.2"/><g><path d="M232.22012,188.74556c-0.48189,-3.95137 3.9885,-8.98188 3.9885,-8.98188c0,0 -0.03099,-3.4456 1.73991,-5.55939c3.66064,-4.36945 18.46761,-2.55556 18.71504,5.47008c0.09284,3.01134 -2.11585,5.84511 -2.11585,5.84511c0,0 0.39786,5.76647 -1.07239,8.47497c-1.25047,2.30361 -8.46889,5.7262 -13.54554,3.90923c-0.52732,-0.18873 -1.0178,-0.39353 -1.47405,-0.61147" fill="#ffab19" stroke="#001026" stroke-width="1.2"/><path d="M240.60696,175.8878c3.56272,-1.82698 7.81509,2.08128 7.74444,6.02176c-0.00852,0.47554 -0.03202,1.03133 -0.11282,1.57805c0.59578,2.13585 -1.89478,6.40136 -3.56241,6.60712c-5.77273,0.71228 -11.73317,-6.29465 -6.35958,-10.13988c0.19523,-1.70933 1.07612,-3.44437 2.29036,-4.06705z" fill="#ffffff" stroke="none" stroke-width="0.5"/></g><path d="M246.83744,196.96959c0.70809,2.3581 -0.31776,6.4112 -0.31776,6.4112c0,0 -2.25296,7.92642 -3.10575,9.1543c-3.88154,5.58876 -15.22236,8.97002 -14.9852,0.0669c0.05579,-2.09431 1.6652,-3.55474 2.7147,-5.23492c0.47853,-0.76611 2.5668,-8.26065 2.22537,-10.7359c-0.59372,-4.30422 -2.80063,-9.32989 -1.20463,-13.74499c2.84093,-7.85898 17.83961,2.13104 18.21738,2.94138" fill="#ffab19" stroke="#001026" stroke-width="1.2"/></g><g><g><g><path d="M218.65309,135.82131c0,0 -7.13631,-26.65119 -6.06859,-26.79582c1.43844,-0.19486 28.1286,6.97899 28.1286,6.97899" fill="#ffab19" fill-rule="nonzero" stroke="#001026" stroke-width="1.2" stroke-linecap="round" stroke-linejoin="miter"/><path d="M273.0358,131.34296l0.22868,-1.2037l5.01324,-0.97226l3.8384,4.70333l-1.49969,8.46252l-25.30889,11.42679z" fill="#9b7f41" fill-rule="nonzero" stroke="#001026" stroke-width="1.2" stroke-linecap="round" stroke-linejoin="miter"/><path d="M211.26096,156.48733c0,0 -7.01534,1.62329 -12.48718,-0.94358" fill="none" fill-rule="evenodd" stroke="#001026" stroke-width="1.2" stroke-linecap="round" stroke-linejoin="round"/><path d="M212.28232,162.312c0,0 -3.33302,2.77683 -9.57002,3.7967" fill="none" fill-rule="evenodd" stroke="#001026" stroke-width="1.2" stroke-linecap="round" stroke-linejoin="round"/><path d="M233.98669,123.7076c10.63958,-4.12805 41.47318,-1.1645 39.01384,26.68044c-0.03205,0.36301 -0.14782,0.71409 -0.26201,1.06367c-4.17036,12.76629 -17.61434,21.32663 -36.75385,22.22595c-19.13952,0.89934 -25.99267,-8.53647 -26.18942,-14.35807c-0.19675,-5.82162 6.1958,-9.55731 6.1958,-9.55731c0,0 -0.97815,-4.39355 0.81496,-10.49884c0,0 1.63598,-9.52465 17.18068,-15.55585z" fill="#ffab19" fill-rule="evenodd" stroke="#001026" stroke-width="1.2" stroke-linecap="butt" stroke-linejoin="miter"/><path d="M233.57082,150.89449c8.30005,-1.42452 17.29254,-13.00878 26.35517,-4.21967c9.03875,8.69202 1.31266,25.42275 -23.38107,26.35007c-18.92142,0.94866 -26.04351,-7.90605 -26.24025,-13.72767c-0.19675,-5.82162 6.07327,-9.21819 6.07327,-9.21819c7.79978,-3.87601 10.08196,2.05036 17.19288,0.81549z" fill="#ffffff" fill-rule="evenodd" stroke="none" stroke-width="1" stroke-linecap="butt" stroke-linejoin="miter"/><path d="M238.11536,148.4374c0.38232,1.55365 -3.09867,4.98481 -4.89431,5.22071c-1.57755,0.28522 -3.70313,-2.07528 -3.94055,-3.4586c-0.07015,-0.70362 2.01833,-1.4235 4.05749,-1.92528c1.94207,-0.47788 4.58773,-1.02593 4.77736,0.1632z" fill="#001026" fill-rule="evenodd" stroke="#001026" stroke-width="1.2" stroke-linecap="round" stroke-linejoin="round"/><path d="M268.21657,141.82553c-2.60113,5.45565 -9.05372,8.65159 -9.05372,8.65159" fill="none" fill-rule="evenodd" stroke="#001026" stroke-width="1.2" stroke-linecap="round" stroke-linejoin="round"/><path d="M271.87488,152.49074c-5.46811,3.1686 -9.80616,3.13672 -9.80616,3.13672" fill="none" fill-rule="evenodd" stroke="#001026" stroke-width="1.2" stroke-linecap="round" stroke-linejoin="round"/><path d="M260.3792,131.23681l-43.29841,5.36359l-1.772,-22.73192l47.95034,-4.9643l15.10533,16.75675l-4.9927,16.49342z" fill="#c58600" fill-rule="nonzero" stroke="#001026" stroke-width="1.2" stroke-linecap="round" stroke-linejoin="miter"/><path d="M263.07721,109.12073l-2.71529,21.91682" fill="none" fill-rule="nonzero" stroke="#001026" stroke-width="0.75" stroke-linecap="round" stroke-linejoin="miter"/><path d="M269.94566,116.55473l-6.25341,-7.28663c0,0 14.14105,8.47813 15.21746,8.71817c1.20629,0.26901 -7.63259,13.91078 -7.63259,13.91078z" fill="#ffab19" fill-rule="nonzero" stroke="#001026" stroke-width="1.2" stroke-linecap="round" stroke-linejoin="miter"/></g><path d="M196.82419,147.8699c-6.41351,-20.8306 7.10155,-43.47904 30.18676,-50.58673c23.0852,-7.10769 46.99863,4.01692 53.41214,24.84753c6.41351,20.8306 -7.10156,43.47904 -30.18676,50.58673c-23.0852,7.10769 -46.99864,-4.01692 -53.41214,-24.84752z" fill="none" fill-rule="nonzero" stroke="#ffffff" stroke-width="1.2" stroke-linecap="butt" stroke-linejoin="miter"/><path d="M262.4143,103.47398l-0.01049,7.27926l-7.90787,2.61289l-9.29247,-3.47495l4.37135,-11.29687z" fill="#ffffff" fill-rule="nonzero" stroke="#001026" stroke-width="0" stroke-linecap="round" stroke-linejoin="miter"/><path d="M269.69892,116.22013l6.98199,1.84376l-6.96903,-1.59855" fill="#000000" fill-rule="nonzero" stroke="none" stroke-width="0" stroke-linecap="round" stroke-linejoin="miter"/></g><g><g fill-rule="evenodd"><path d="M228.03592,132.58672c3.14901,1.07882 4.27051,6.05496 2.52976,11.11756c-1.83785,5.08648 -5.80282,8.2248 -8.95181,7.14597c-3.14901,-1.07882 -4.2705,-6.05496 -2.52975,-11.11757c1.74075,-5.0626 5.77892,-8.3219 8.95181,-7.14597z" fill="#ffffff" stroke="#001026" stroke-width="1.2" stroke-linecap="round" stroke-linejoin="round"/><path d="M219.56986,144.47871c-0.26283,-1.06814 0.29893,-2.13322 1.26998,-2.37216c0.97104,-0.23895 1.96291,0.44381 2.22575,1.51196c0.26283,1.06814 -0.29893,2.13322 -1.26997,2.37216c-0.97104,0.23895 -1.96291,-0.4438 -2.22575,-1.51196" fill="#001026" stroke="none" stroke-width="1" stroke-linecap="butt" stroke-linejoin="miter"/></g><g fill-rule="evenodd"><path d="M252.17224,131.07399c3.5359,1.39555 4.70367,6.97822 2.74482,11.99149c-0.42991,1.15216 -0.97056,2.1668 -1.59289,3.03301c-3.16695,0.64589 -6.31578,1.36478 -9.45636,2.19903c-1.93322,-2.08691 -2.60972,-6.24727 -1.10745,-10.27326c1.86175,-4.98936 5.85213,-8.44291 9.41192,-6.95024z" fill="#ffffff" stroke="#001026" stroke-width="1.2" stroke-linecap="round" stroke-linejoin="round"/><path d="M242.70349,143.03496c-0.26283,-1.06814 0.32282,-2.03611 1.26998,-2.37217c0.97104,-0.23895 1.96291,0.44382 2.22575,1.51197c0.26283,1.06814 -0.29893,2.13322 -1.26997,2.37216c-0.97104,0.23895 -1.96291,-0.44382 -2.22575,-1.51198" fill="#001026" stroke="none" stroke-width="1" stroke-linecap="butt" stroke-linejoin="miter"/></g><g fill="#ffffff" fill-rule="nonzero" stroke="#001026" stroke-width="1.2" stroke-linecap="round" stroke-linejoin="miter"><path d="M231.11884,163.50709c-0.21965,-0.16463 5.47224,-1.58819 10.94088,-4.24872c12.3806,-6.02322 12.66612,-8.14373 13.22664,-8.09354c1.03441,0.09263 2.45939,12.71752 -5.27363,16.66317c-7.43686,3.79455 -18.2079,-3.80678 -18.89389,-4.32093z"/></g></g></g><g fill-rule="nonzero" stroke="#000000" stroke-width="1.2" stroke-linejoin="miter"><path d="M254.04648,175.85797c0,0 0.46336,-1.86481 2.29816,-1.88378c7.23661,-0.07481 6.55623,4.84954 8.76281,6.76656c2.55073,2.21603 5.92275,4.16668 5.7574,5.76412c-0.23699,2.28961 -2.48903,3.0904 -4.99659,4.63758c-3.37751,2.08397 -7.53556,4.40334 -10.85589,2.95703c-2.59332,-1.12962 1.81797,-7.53804 1.86829,-7.57126c-1.6449,-1.92319 -2.68873,-4.39521 -2.7106,-6.44583" fill="#ffab19" stroke-linecap="butt"/><g stroke-linecap="round"><path d="M259.34234,196.02437l-4.79953,2.39204l-2.7163,-0.20321l-0.54163,-1.99346l-1.27758,-0.40126l-0.12409,-4.11898" fill="#ffab19"/><path d="M256.67873,180.35498l10.7938,7.1317l-1.74823,6.50644l-4.84686,4.55712l-3.31167,-0.95473l-0.51394,-0.91133l-3.33365,-1.67985l-1.00591,-1.09753l-3.58329,-1.89381l-0.7494,-6.46472z" fill="#ffab19"/><path d="M253.23425,188.90348l0.33751,3.11446l-1.60533,-2.91369z" fill="none"/><path d="M257.61736,195.28541l0.00035,-4.00207" fill="none"/></g></g><g fill-rule="nonzero" stroke="#000000" stroke-width="1.2" stroke-linejoin="miter"><path d="M225.40443,179.85145c-4.46353,-1.96655 -6.80367,-7.06759 -5.22682,-11.39343c1.57683,-4.32585 6.47353,-6.23843 10.93705,-4.27188c4.46353,1.96655 6.80366,7.06756 5.22682,11.39342c-1.57683,4.32585 -6.47351,6.23843 -10.93705,4.27188z" fill="#5c5e5f" stroke-linecap="butt"/><g stroke-linecap="round"><path d="M230.4249,181.51796l1.71035,4.57158l-1.55052,1.68043l-1.48466,4.07297l-3.72736,-1.09677z" fill="#ffab19"/><path d="M228.61969,176.17732l3.09833,5.91034l-2.17864,3.4036l-0.35228,1.48109l-2.06446,3.09029l-0.01934,1.08235l-2.37805,2.40668l-6.20903,-2.00836l-4.46787,-5.24107l5.90872,-11.578z" fill="#ffab19"/><path d="M228.03718,184.46581l-1.14024,-3.04773" fill="none"/><path d="M224.16662,185.30587l1.83422,3.7171" fill="none"/></g><path d="M222.71005,190.84572l-1.95992,3.31814l-3.89867,-0.62682l-2.11006,-3.47501l1.67441,-2.53489l4.12707,0.0002z" fill="#5c5e5f" stroke-linecap="round"/></g></g></g></svg>